<svg xmlns="http://www.w3.org/2000/svg" xmlns:xlink="http://www.w3.org/1999/xlink" viewBox="0 0 816 788.45"><defs><clipPath id="clip-path" transform="translate(0 2.77)"><path d="M0,338.6s112.92-83.09,242.88,0c0,0,124.64-103.33,308.93,0,0,0,111.86-99.07,264.19,0,0,0-18.11-323.84-408-323.84S0,338.6,0,338.6Z" style="fill:#ff8b00"/></clipPath><clipPath id="clip-path-2" transform="translate(0 2.77)"><ellipse cx="408.5" cy="13.18" rx="21.5" ry="13.18" style="fill:#ff9a00"/></clipPath></defs><g id="Layer_2" data-name="Layer 2"><g id="Layer_3" data-name="Layer 3"><rect x="401" y="286.95" width="15" height="412.5" style="fill:#232533"/><path d="M0,338.6s112.92-83.09,242.88,0c0,0,124.64-103.33,308.93,0,0,0,111.86-99.07,264.19,0,0,0-18.11-323.84-408-323.84S0,338.6,0,338.6Z" transform="translate(0 2.77)" style="fill:#ff8b00"/><g style="clip-path:url(#clip-path)"><path d="M242.88,338.6S255.67,86.13,408,14.76c0,0,159.79,41.54,143.81,323.84-7.7,136.15-303.6,27.7-303.6,27.7l-5.33-27.7" transform="translate(0 2.77)" style="fill:#ffaa39"/></g><ellipse cx="408.5" cy="15.95" rx="21.5" ry="13.18" style="fill:#ff9a00"/><g style="clip-path:url(#clip-path-2)"><path d="M402.26,0s12.48-1.39,18,5.55S414.74,25,395.32,25l11.1,4.16L425.84,25l8.32-13.87L430,0,413.35-2.77Z" transform="translate(0 2.77)" style="fill:#a05000;opacity:0.36"/></g><path d="M491.5,785.68a98.11,98.11,0,0,1-98-98h28a70,70,0,0,0,139,11.78,14,14,0,0,1,13.82-11.78h0A14,14,0,0,1,588.15,704,98.17,98.17,0,0,1,491.5,785.68Z" transform="translate(0 2.77)" style="fill:#ea2727"/></g></g></svg>