<svg width="1000" height="1000" viewBox="0 0 1000 1000" fill="none" xmlns="http://www.w3.org/2000/svg">
<path d="M833.344 658.45C859.151 607.811 873.702 550.477 873.702 489.744C873.702 284.256 707.121 117.675 501.633 117.675C296.145 117.675 129.565 284.256 129.565 489.744C129.565 550.414 144.086 607.693 169.843 658.294" stroke="#55608A" stroke-width="25"/>
<path fill-rule="evenodd" clip-rule="evenodd" d="M501.612 66.6667C627.168 66.6667 743.88 121.747 823.739 215.453C842.012 236.895 839.443 269.09 818.002 287.363C796.989 305.271 765.649 303.162 747.205 282.89L746.092 281.626C685.416 210.429 596.964 168.685 501.612 168.685C406.992 168.685 319.175 209.794 258.562 279.96L256.273 282.639C238.088 304.155 205.904 306.856 184.388 288.671C162.871 270.487 160.17 238.302 178.355 216.786C258.218 122.29 375.443 66.6667 501.612 66.6667V66.6667Z" fill="#FFAB55"/>
<path fill-rule="evenodd" clip-rule="evenodd" d="M501.612 66.6667C627.168 66.6667 743.88 121.747 823.739 215.453C842.012 236.895 839.443 269.09 818.002 287.363C796.989 305.271 765.649 303.162 747.205 282.89L746.092 281.626C685.416 210.429 596.964 168.685 501.612 168.685C406.992 168.685 319.175 209.794 258.562 279.96L256.273 282.639C238.088 304.155 205.904 306.856 184.388 288.671C162.871 270.487 160.17 238.302 178.355 216.786C258.218 122.29 375.443 66.6667 501.612 66.6667V66.6667Z" fill="#5596FF"/>
<mask id="mask0" mask-type="alpha" maskUnits="userSpaceOnUse" x="166" y="66" width="670" height="235">
<path fill-rule="evenodd" clip-rule="evenodd" d="M501.612 66.6667C627.168 66.6667 743.88 121.747 823.739 215.453C842.012 236.895 839.443 269.09 818.002 287.363C796.989 305.271 765.649 303.162 747.205 282.89L746.092 281.626C685.416 210.429 596.964 168.685 501.612 168.685C406.992 168.685 319.175 209.794 258.562 279.96L256.273 282.639C238.088 304.155 205.904 306.856 184.388 288.671C162.871 270.487 160.17 238.302 178.355 216.786C258.218 122.29 375.443 66.6667 501.612 66.6667V66.6667Z" fill="#5596FF"/>
</mask>
<g mask="url(#mask0)">
<path fill-rule="evenodd" clip-rule="evenodd" d="M626.71 -11.347L371.663 276.706L863.754 357.721L974.775 195.691L626.71 -11.347V-11.347Z" fill="#4483E9"/>
</g>
<path fill-rule="evenodd" clip-rule="evenodd" d="M113.264 627.722C111.838 612.155 119.458 597.22 132.891 589.255L135.338 587.804C164.266 570.651 201.871 586.321 210.192 618.995L238.78 731.246C247.278 764.615 221.459 796.548 186.947 795.354L179.83 795.108C165.99 794.629 153.644 786.129 148.276 773.385C148.276 773.385 139.458 752.448 127.526 702.809C115.594 653.169 113.264 627.722 113.264 627.722V627.722Z" fill="#55608A"/>
<path fill-rule="evenodd" clip-rule="evenodd" d="M262.7 477.151L373.001 845.44L287.905 854.183C267.664 856.263 248.185 845.436 239.257 827.143C239.257 827.143 211.406 770.085 187.948 689.8C164.49 609.515 159.971 558.658 159.971 558.658C158.183 538.538 169.246 519.572 187.638 511.223L262.7 477.151V477.151Z" fill="#5596FF"/>
<path fill-rule="evenodd" clip-rule="evenodd" d="M293.125 467.983C315.739 461.575 339.808 472.902 349.714 494.614C349.714 494.614 371.03 541.33 398.255 635.247C425.48 729.165 433.7 785.471 433.7 785.471C437.166 809.211 422.803 831.674 400.031 838.127L373.553 845.629C350.806 852.075 326.611 840.576 316.812 818.662C316.812 818.662 295.648 771.333 268.506 677.705C241.365 584.076 232.931 528.428 232.931 528.428C229.321 504.606 243.695 481.99 266.562 475.51L293.125 467.983V467.983Z" fill="#55608A"/>
<mask id="mask1" mask-type="alpha" maskUnits="userSpaceOnUse" x="230" y="466" width="203" height="382">
<path fill-rule="evenodd" clip-rule="evenodd" d="M292.441 468.219C315.304 461.668 339.518 472.834 349.373 494.473C349.373 494.473 370.578 541.034 397.437 634.739C424.296 728.445 432.222 784.676 432.222 784.676C435.565 808.385 420.923 830.932 397.901 837.53L371.132 845.201C348.135 851.791 323.794 840.453 314.049 818.611C314.049 818.611 293.001 771.437 266.225 678.02C239.448 584.603 231.302 529.031 231.302 529.031C227.815 505.241 242.468 482.54 265.587 475.915L292.441 468.219V468.219Z" fill="#55608A"/>
</mask>
<g mask="url(#mask1)">
<path fill-rule="evenodd" clip-rule="evenodd" d="M497.042 527.378L314.679 919.754L458.065 882.329L534.713 540.899L497.042 527.378Z" fill="#49557F"/>
</g>
<path d="M379.004 734.962C386.923 732.854 383.192 693.485 370.669 647.028C358.147 600.572 341.576 564.621 333.656 566.729C325.737 568.837 329.469 608.207 341.991 654.663C354.514 701.119 371.085 737.071 379.004 734.962Z" fill="#414D77"/>
<path fill-rule="evenodd" clip-rule="evenodd" d="M881.358 627.835C882.784 612.268 875.164 597.334 861.731 589.368L859.284 587.917C830.356 570.764 792.751 586.434 784.43 619.108L755.842 731.359C747.344 764.728 773.162 796.661 807.675 795.467L814.792 795.221C828.632 794.742 840.978 786.243 846.346 773.498C846.346 773.498 855.164 752.561 867.096 702.922C879.028 653.283 881.358 627.835 881.358 627.835V627.835Z" fill="#55608A"/>
<path fill-rule="evenodd" clip-rule="evenodd" d="M732.41 476.957L622.702 846.278L706.755 854.863C726.747 856.905 746.012 846.014 754.87 827.663C754.87 827.663 782.499 770.422 805.835 689.914C829.17 609.405 833.736 558.427 833.736 558.427C835.543 538.261 824.652 519.276 806.498 510.947L732.41 476.957V476.957Z" fill="#4483E9"/>
<path fill-rule="evenodd" clip-rule="evenodd" d="M701.485 468.106C678.871 461.699 654.803 473.025 644.896 494.737C644.896 494.737 623.58 541.453 596.355 635.37C569.13 729.288 560.91 785.594 560.91 785.594C557.444 809.334 571.807 831.797 594.579 838.25L621.057 845.752C643.804 852.198 667.999 840.699 677.798 818.785C677.798 818.785 698.962 771.456 726.104 677.828C753.245 584.199 761.679 528.551 761.679 528.551C765.289 504.729 750.915 482.113 728.048 475.633L701.485 468.106V468.106Z" fill="#55608A"/>
<mask id="mask2" mask-type="alpha" maskUnits="userSpaceOnUse" x="561" y="466" width="203" height="382">
<path fill-rule="evenodd" clip-rule="evenodd" d="M701.458 468.226C678.595 461.674 654.381 472.84 644.526 494.479C644.526 494.479 623.322 541.04 596.462 634.745C569.603 728.45 561.677 784.682 561.677 784.682C558.334 808.391 572.976 830.938 595.999 837.536L622.767 845.207C645.764 851.797 670.105 840.459 679.851 818.617C679.851 818.617 700.898 771.443 727.674 678.026C754.451 584.609 762.597 529.037 762.597 529.037C766.084 505.247 751.431 482.546 728.313 475.921L701.458 468.226V468.226Z" fill="#55608A"/>
</mask>
<g mask="url(#mask2)">
<path fill-rule="evenodd" clip-rule="evenodd" d="M792.031 463.162L569.039 858.067L691.483 872.9L842.977 465.584L792.031 463.162V463.162Z" fill="#49557F"/>
</g>
<path d="M621.386 733.424C613.467 731.315 617.198 691.946 629.721 645.49C642.243 599.033 658.814 563.082 666.734 565.19C674.653 567.298 670.921 606.668 658.399 653.124C645.876 699.581 629.305 735.532 621.386 733.424Z" fill="#414D77"/>
</svg>
