<svg xmlns="http://www.w3.org/2000/svg" xmlns:xlink="http://www.w3.org/1999/xlink" viewBox="0 0 663.97 656.24"><defs><clipPath id="clip-path"><path d="M432.32,421.33s20.22-96.85,162.84-218.19c0,0-24.48-84.08-126.65-147.95s-195.84-59.6-234.16-49c0,0-19.16,200.1-111.76,277.8Z" style="fill:#7900ff"/></clipPath><clipPath id="clip-path-2"><path d="M481.28,347.89s-100-168.17-320.37-135.17L123.66,284l309.72,137.3Z" style="fill:#ffba1f"/></clipPath><clipPath id="clip-path-3"><path d="M543,516.06c-12,22.77-63.86,108.56-219.25,70.25S36.38,452.2,10.84,362.79,5.51,187.17,65.12,210.59,185.39,301.06,273.73,317,609,390.47,543,516.06Z" style="fill:#7900ff"/></clipPath></defs><g id="Layer_2" data-name="Layer 2"><g id="top-hat"><g id="Layer_4" data-name="Layer 4"><path d="M432.32,421.33s20.22-96.85,162.84-218.19c0,0-24.48-84.08-126.65-147.95s-195.84-59.6-234.16-49c0,0-19.16,200.1-111.76,277.8Z" style="fill:#7900ff"/><g style="clip-path:url(#clip-path)"><path d="M519.47,57.16s-99.22,256.08-283.67,277h0L531.51,456,664,191.12Z" style="fill:#4a00bf;opacity:0.7000000000000001"/><path d="M481.28,347.89s-100-168.17-320.37-135.17L123.66,284l309.72,137.3Z" style="fill:#ffba1f"/><g style="clip-path:url(#clip-path-2)"><path d="M519.47,57.16s-99.22,256.08-283.67,277h0L531.51,456,664,191.12Z" style="fill:#f78f1e"/></g></g><path d="M543,516.06c-12,22.77-63.86,108.56-219.25,70.25S36.38,452.2,10.84,362.79,5.51,187.17,65.12,210.59,185.39,301.06,273.73,317,609,390.47,543,516.06Z" style="fill:#7900ff"/><g style="clip-path:url(#clip-path-3)"><path d="M190.59,275.75S396,356.7,429.16,471.09,303.61,596.21,110.5,487.74h0L98,552.38,405.07,656.24l203.21-70.75L576.67,401.85,333,299.32l-142.4-23.57" style="fill:#4a00bf;opacity:0.7000000000000001"/></g><path d="M385.49,509.67c-16.27,19.81-79.83,45.77-172.43-6.38s-143.87-137.6-97.92-166c22.35-13.84,54.28,22.35,126.66,54.28C295.67,415.29,434.45,450.07,385.49,509.67Z" style="fill:#4a00bf"/></g></g></g></svg>