<svg width="225" height="271" viewBox="0 0 225 271" fill="none" xmlns="http://www.w3.org/2000/svg">
<ellipse cx="109.5" cy="257" rx="109.5" ry="14" fill="#ECECF9"/>
<path d="M141.947 255.893C151.523 249.206 170.299 238.914 168.794 251.245C167.288 263.575 150.268 259.481 141.947 255.893Z" fill="#46516B"/>
<path fill-rule="evenodd" clip-rule="evenodd" d="M145.337 249.636L145.336 202.28L138.556 202.28L138.556 258.123L140.604 259.006C144.98 260.893 151.816 263.006 157.969 262.928C161.057 262.889 164.324 262.296 167.017 260.497C169.852 258.603 171.674 255.623 172.159 251.655C172.389 249.769 172.289 247.909 171.57 246.269C170.802 244.517 169.456 243.313 167.816 242.672C166.286 242.073 164.643 242.012 163.151 242.16C161.632 242.311 160.041 242.701 158.47 243.216C154.267 244.592 149.493 247.101 145.337 249.636ZM149.632 254.963C153.285 252.782 157.246 250.751 160.581 249.659C161.862 249.24 162.948 248.994 163.82 248.907C164.718 248.818 165.176 248.92 165.345 248.986C165.351 248.988 165.356 248.99 165.36 248.991C165.418 249.123 165.574 249.639 165.428 250.834C165.16 253.031 164.29 254.164 163.251 254.858C162.069 255.648 160.279 256.118 157.883 256.148C155.278 256.181 152.374 255.69 149.632 254.963Z" fill="#46516B"/>
<path d="M63.4218 255.893C53.8457 249.206 35.0697 238.914 36.5749 251.245C38.08 263.575 55.1 259.481 63.4218 255.893Z" fill="#46516B"/>
<path fill-rule="evenodd" clip-rule="evenodd" d="M60.0317 249.636L60.0319 202.28L66.8123 202.28L66.8121 258.123L64.7642 259.006C60.3885 260.893 53.5525 263.006 47.3992 262.928C44.3118 262.889 41.0445 262.296 38.3513 260.497C35.5162 258.603 33.6939 255.623 33.2096 251.655C32.9794 249.769 33.0798 247.909 33.7984 246.269C34.5664 244.517 35.9128 243.313 37.5525 242.672C39.0825 242.073 40.7256 242.012 42.2176 242.16C43.736 242.311 45.3275 242.701 46.8979 243.216C51.1015 244.592 55.8753 247.101 60.0317 249.636ZM55.7362 254.963C52.0835 252.782 48.1225 250.751 44.7878 249.659C43.5068 249.24 42.42 248.994 41.5485 248.907C40.6504 248.818 40.1919 248.92 40.0236 248.986C40.0174 248.988 40.0124 248.99 40.0085 248.991C39.9507 249.123 39.7943 249.639 39.9401 250.834C40.2083 253.031 41.078 254.164 42.1175 254.858C43.299 255.648 45.0889 256.118 47.4849 256.148C50.09 256.181 52.9942 255.69 55.7362 254.963Z" fill="#46516B"/>
<path d="M50.7002 233.5C42.5002 233.5 36.2002 231.3 31.8002 226.9C27.4002 222.5 25.2002 216.2 25.2002 208V47.5C25.2002 39.3 27.4002 33 31.8002 28.6C36.2002 24.2 42.5002 22 50.7002 22H111.3C134.7 22 154.8 26.3 171.6 34.9C188.6 43.3 201.6 55.4 210.6 71.2C219.6 87 224.1 105.8 224.1 127.6C224.1 149.6 219.6 168.6 210.6 184.6C201.8 200.4 188.9 212.5 171.9 220.9C155.1 229.3 134.9 233.5 111.3 233.5H50.7002ZM107.4 189.1C128 189.1 143.4 184.1 153.6 174.1C164 163.9 169.2 148.4 169.2 127.6C169.2 106.8 164 91.4 153.6 81.4C143.4 71.4 128 66.4 107.4 66.4H80.4002V189.1H107.4Z" fill="#F0B646"/>
<mask id="mask0" mask-type="alpha" maskUnits="userSpaceOnUse" x="25" y="22" width="199" height="212">
<path d="M50.5 233.5C42.3 233.5 36 231.3 31.6 226.9C27.2 222.5 25 216.2 25 208V47.5C25 39.3 27.2 33 31.6 28.6C36 24.2 42.3 22 50.5 22H111.1C134.5 22 154.6 26.3 171.4 34.9C188.4 43.3 201.4 55.4 210.4 71.2C219.4 87 223.9 105.8 223.9 127.6C223.9 149.6 219.4 168.6 210.4 184.6C201.6 200.4 188.7 212.5 171.7 220.9C154.9 229.3 134.7 233.5 111.1 233.5H50.5ZM107.2 189.1C127.8 189.1 143.2 184.1 153.4 174.1C163.8 163.9 169 148.4 169 127.6C169 106.8 163.8 91.4 153.4 81.4C143.2 71.4 127.8 66.4 107.2 66.4H80.2V189.1H107.2Z" fill="#F0B646"/>
</mask>
<g mask="url(#mask0)">
<path d="M-23.2 70L-2.23555 49.0355C-0.282924 47.0829 2.8829 47.0829 4.83552 49.0355L22.2645 66.4645C24.2171 68.4171 27.3829 68.4171 29.3355 66.4645L46.7645 49.0355C48.7171 47.0829 51.8829 47.0829 53.8355 49.0355L71.2645 66.4645C73.2171 68.4171 76.3829 68.4171 78.3355 66.4645L95.7645 49.0355C97.7171 47.0829 100.883 47.0829 102.836 49.0355L120.264 66.4645C122.217 68.4171 125.383 68.4171 127.336 66.4645L144.764 49.0355C146.717 47.0829 149.883 47.0829 151.836 49.0355L169.264 66.4645C171.217 68.4171 174.383 68.4171 176.336 66.4645L193.764 49.0355C195.717 47.0829 198.883 47.0829 200.836 49.0355L218.264 66.4645C220.217 68.4171 223.383 68.4171 225.336 66.4645L242.764 49.0355C244.717 47.0829 247.883 47.0829 249.836 49.0355L267.264 66.4645C269.217 68.4171 272.383 68.4171 274.336 66.4645L291.764 49.0355C293.717 47.0829 296.883 47.0829 298.836 49.0355L319.8 70" stroke="#E8A118" stroke-width="10" stroke-linejoin="round"/>
<path d="M-23.2 105L-2.23555 84.0355C-0.282924 82.0829 2.8829 82.0829 4.83552 84.0355L22.2645 101.464C24.2171 103.417 27.3829 103.417 29.3355 101.464L46.7645 84.0355C48.7171 82.0829 51.8829 82.0829 53.8355 84.0355L71.2645 101.464C73.2171 103.417 76.3829 103.417 78.3355 101.464L95.7645 84.0355C97.7171 82.0829 100.883 82.0829 102.836 84.0355L120.264 101.464C122.217 103.417 125.383 103.417 127.336 101.464L144.764 84.0355C146.717 82.0829 149.883 82.0829 151.836 84.0355L169.264 101.464C171.217 103.417 174.383 103.417 176.336 101.464L193.764 84.0355C195.717 82.0829 198.883 82.0829 200.836 84.0355L218.264 101.464C220.217 103.417 223.383 103.417 225.336 101.464L242.764 84.0355C244.717 82.0829 247.883 82.0829 249.836 84.0355L267.264 101.464C269.217 103.417 272.383 103.417 274.336 101.464L291.764 84.0355C293.717 82.0829 296.883 82.0829 298.836 84.0355L319.8 105" stroke="#E8A118" stroke-width="10" stroke-linejoin="round"/>
<path d="M-23.2 140L-2.23555 119.036C-0.282924 117.083 2.8829 117.083 4.83552 119.036L22.2645 136.464C24.2171 138.417 27.3829 138.417 29.3355 136.464L46.7645 119.036C48.7171 117.083 51.8829 117.083 53.8355 119.036L71.2645 136.464C73.2171 138.417 76.3829 138.417 78.3355 136.464L95.7645 119.036C97.7171 117.083 100.883 117.083 102.836 119.036L120.264 136.464C122.217 138.417 125.383 138.417 127.336 136.464L144.764 119.036C146.717 117.083 149.883 117.083 151.836 119.036L169.264 136.464C171.217 138.417 174.383 138.417 176.336 136.464L193.764 119.036C195.717 117.083 198.883 117.083 200.836 119.036L218.264 136.464C220.217 138.417 223.383 138.417 225.336 136.464L242.764 119.036C244.717 117.083 247.883 117.083 249.836 119.036L267.264 136.464C269.217 138.417 272.383 138.417 274.336 136.464L291.764 119.036C293.717 117.083 296.883 117.083 298.836 119.036L319.8 140" stroke="#E8A118" stroke-width="10" stroke-linejoin="round"/>
<path d="M-23.2 175L-2.23555 154.036C-0.282924 152.083 2.8829 152.083 4.83552 154.036L22.2645 171.464C24.2171 173.417 27.3829 173.417 29.3355 171.464L46.7645 154.036C48.7171 152.083 51.8829 152.083 53.8355 154.036L71.2645 171.464C73.2171 173.417 76.3829 173.417 78.3355 171.464L95.7645 154.036C97.7171 152.083 100.883 152.083 102.836 154.036L120.264 171.464C122.217 173.417 125.383 173.417 127.336 171.464L144.764 154.036C146.717 152.083 149.883 152.083 151.836 154.036L169.264 171.464C171.217 173.417 174.383 173.417 176.336 171.464L193.764 154.036C195.717 152.083 198.883 152.083 200.836 154.036L218.264 171.464C220.217 173.417 223.383 173.417 225.336 171.464L242.764 154.036C244.717 152.083 247.883 152.083 249.836 154.036L267.264 171.464C269.217 173.417 272.383 173.417 274.336 171.464L291.764 154.036C293.717 152.083 296.883 152.083 298.836 154.036L319.8 175" stroke="#E8A118" stroke-width="10" stroke-linejoin="round"/>
<path d="M-23.2 210L-2.23555 189.036C-0.282924 187.083 2.8829 187.083 4.83552 189.036L22.2645 206.464C24.2171 208.417 27.3829 208.417 29.3355 206.464L46.7645 189.036C48.7171 187.083 51.8829 187.083 53.8355 189.036L71.2645 206.464C73.2171 208.417 76.3829 208.417 78.3355 206.464L95.7645 189.036C97.7171 187.083 100.883 187.083 102.836 189.036L120.264 206.464C122.217 208.417 125.383 208.417 127.336 206.464L144.764 189.036C146.717 187.083 149.883 187.083 151.836 189.036L169.264 206.464C171.217 208.417 174.383 208.417 176.336 206.464L193.764 189.036C195.717 187.083 198.883 187.083 200.836 189.036L218.264 206.464C220.217 208.417 223.383 208.417 225.336 206.464L242.764 189.036C244.717 187.083 247.883 187.083 249.836 189.036L267.264 206.464C269.217 208.417 272.383 208.417 274.336 206.464L291.764 189.036C293.717 187.083 296.883 187.083 298.836 189.036L319.8 210" stroke="#E8A118" stroke-width="10" stroke-linejoin="round"/>
<path d="M-23.2 245L-2.23555 224.036C-0.282924 222.083 2.8829 222.083 4.83552 224.036L22.2645 241.464C24.2171 243.417 27.3829 243.417 29.3355 241.464L46.7645 224.036C48.7171 222.083 51.8829 222.083 53.8355 224.036L71.2645 241.464C73.2171 243.417 76.3829 243.417 78.3355 241.464L95.7645 224.036C97.7171 222.083 100.883 222.083 102.836 224.036L120.264 241.464C122.217 243.417 125.383 243.417 127.336 241.464L144.764 224.036C146.717 222.083 149.883 222.083 151.836 224.036L169.264 241.464C171.217 243.417 174.383 243.417 176.336 241.464L193.764 224.036C195.717 222.083 198.883 222.083 200.836 224.036L218.264 241.464C220.217 243.417 223.383 243.417 225.336 241.464L242.764 224.036C244.717 222.083 247.883 222.083 249.836 224.036L267.264 241.464C269.217 243.417 272.383 243.417 274.336 241.464L291.764 224.036C293.717 222.083 296.883 222.083 298.836 224.036L319.8 245" stroke="#E8A118" stroke-width="10" stroke-linejoin="round"/>
<path d="M-23.2 35L-2.23555 14.0355C-0.282924 12.0829 2.8829 12.0829 4.83552 14.0355L22.2645 31.4645C24.2171 33.4171 27.3829 33.4171 29.3355 31.4645L46.7645 14.0355C48.7171 12.0829 51.8829 12.0829 53.8355 14.0355L71.2645 31.4645C73.2171 33.4171 76.3829 33.4171 78.3355 31.4645L95.7645 14.0355C97.7171 12.0829 100.883 12.0829 102.836 14.0355L120.264 31.4645C122.217 33.4171 125.383 33.4171 127.336 31.4645L144.764 14.0355C146.717 12.0829 149.883 12.0829 151.836 14.0355L169.264 31.4645C171.217 33.4171 174.383 33.4171 176.336 31.4645L193.764 14.0355C195.717 12.0829 198.883 12.0829 200.836 14.0355L218.264 31.4645C220.217 33.4171 223.383 33.4171 225.336 31.4645L242.764 14.0355C244.717 12.0829 247.883 12.0829 249.836 14.0355L267.264 31.4645C269.217 33.4171 272.383 33.4171 274.336 31.4645L291.764 14.0355C293.717 12.0829 296.883 12.0829 298.836 14.0355L319.8 35" stroke="#E8A118" stroke-width="10" stroke-linejoin="round"/>
<g style="mix-blend-mode:multiply">
<path d="M29 -11.5C29.7998 -11.4645 30.6156 -11.4209 31.4468 -11.3693L160 -4.5L245 53.5V177.5L182 264.5C99 253.833 -58.8 233.3 -26 236.5C15 240.5 222 226.5 193 110.5C170.212 19.3493 77.3823 -8.51244 31.4468 -11.3693L29 -11.5Z" fill="#F0B646" fill-opacity="0.47"/>
</g>
<path d="M151.082 196.142C118.682 213.742 82.2489 203.475 68.0823 196.142C74.5823 205.142 92.0823 223.142 110.082 223.142C128.082 223.142 144.916 205.142 151.082 196.142Z" fill="#BB7B00"/>
<path d="M109.082 214.142C100.282 214.142 93.4156 216.142 91.0823 217.142C97.6336 221.005 103.503 222.982 109.082 223.142C116.789 223.362 123.489 220.575 126.582 218.642C124.416 217.142 117.882 214.142 109.082 214.142Z" fill="#D08B07"/>
</g>
<ellipse cx="139.229" cy="38.7999" rx="22.0041" ry="23.1622" fill="#D78F05"/>
<ellipse cx="87.602" cy="32.3021" rx="30.602" ry="32.3021" fill="#D78F05"/>
<ellipse cx="135.075" cy="40.0943" rx="16.3148" ry="17.2212" fill="white"/>
<circle cx="130.545" cy="34.6582" r="4.53189" fill="#161E33"/>
<ellipse cx="92.024" cy="34.6264" rx="24.019" ry="25.3534" fill="white"/>
<circle cx="99.1457" cy="33.1668" r="6.67195" fill="#161E33"/>
<path d="M89.5 203.5L97.9996 205.001L97.1678 210.427C96.9972 211.54 95.9429 212.292 94.8354 212.092L90.0127 211.222C88.9084 211.022 88.1842 209.953 88.4084 208.854L89.5 203.5Z" fill="white"/>
</svg>
