<svg width="171" height="249" viewBox="0 0 171 249" fill="none" xmlns="http://www.w3.org/2000/svg">
<ellipse cx="85.5" cy="235" rx="85.5" ry="14" fill="#ECECF9"/>
<path d="M124.947 233.893C134.523 227.206 153.299 216.914 151.793 229.245C150.288 241.575 133.268 237.481 124.947 233.893Z" fill="#46516B"/>
<path fill-rule="evenodd" clip-rule="evenodd" d="M128.337 227.636L128.336 180.28L121.556 180.28L121.556 236.123L123.604 237.006C127.98 238.893 134.816 241.006 140.969 240.928C144.057 240.889 147.324 240.296 150.017 238.497C152.852 236.603 154.674 233.623 155.159 229.655C155.389 227.769 155.289 225.909 154.57 224.269C153.802 222.517 152.456 221.313 150.816 220.672C149.286 220.073 147.643 220.012 146.151 220.16C144.632 220.311 143.041 220.701 141.47 221.216C137.267 222.592 132.493 225.101 128.337 227.636ZM132.632 232.963C136.285 230.782 140.246 228.751 143.581 227.659C144.862 227.24 145.948 226.994 146.82 226.907C147.718 226.818 148.176 226.92 148.345 226.986C148.351 226.988 148.356 226.99 148.36 226.991C148.418 227.123 148.574 227.639 148.428 228.834C148.16 231.031 147.29 232.164 146.251 232.858C145.069 233.648 143.279 234.118 140.883 234.148C138.278 234.181 135.374 233.69 132.632 232.963Z" fill="#46516B"/>
<path d="M46.4218 233.893C36.8457 227.206 18.0697 216.914 19.5748 229.245C21.08 241.575 38.1 237.481 46.4218 233.893Z" fill="#46516B"/>
<path fill-rule="evenodd" clip-rule="evenodd" d="M43.0316 227.636L43.0319 180.28L49.8123 180.28L49.812 236.123L47.7641 237.006C43.3885 238.893 36.5525 241.006 30.3992 240.928C27.3118 240.889 24.0445 240.296 21.3513 238.497C18.5162 236.603 16.6939 233.623 16.2096 229.655C15.9793 227.769 16.0797 225.909 16.7983 224.269C17.5663 222.517 18.9128 221.313 20.5525 220.672C22.0825 220.073 23.7256 220.012 25.2176 220.16C26.736 220.311 28.3275 220.701 29.8979 221.216C34.1015 222.592 38.8753 225.101 43.0316 227.636ZM38.7362 232.963C35.0835 230.782 31.1225 228.751 27.7878 227.659C26.5068 227.24 25.42 226.994 24.5484 226.907C23.6504 226.818 23.1918 226.92 23.0236 226.986C23.0174 226.988 23.0124 226.99 23.0084 226.991C22.9507 227.123 22.7943 227.639 22.9401 228.834C23.2083 231.031 24.078 232.164 25.1175 232.858C26.299 233.648 28.0889 234.118 30.4849 234.148C33.0899 234.181 35.9941 233.69 38.7362 232.963Z" fill="#46516B"/>
<path d="M33.7002 211.5C25.5002 211.5 19.2002 209.3 14.8002 204.9C10.4002 200.5 8.2002 194.2 8.2002 186V25.5C8.2002 17.3 10.4002 11 14.8002 6.6C19.2002 2.2 25.5002 0 33.7002 0H137.5C146.1 0 152.6 1.8 157 5.4C161.4 9 163.6 14.2 163.6 21C163.6 35.4 154.9 42.6 137.5 42.6H61.9002V82.8H131.5C148.9 82.8 157.6 89.9 157.6 104.1C157.6 110.9 155.4 116.1 151 119.7C146.6 123.3 140.1 125.1 131.5 125.1H61.9002V168.9H137.5C154.9 168.9 163.6 176.1 163.6 190.5C163.6 197.3 161.4 202.5 157 206.1C152.6 209.7 146.1 211.5 137.5 211.5H33.7002Z" fill="#E2C736"/>
<mask id="mask0" mask-type="alpha" maskUnits="userSpaceOnUse" x="8" y="0" width="156" height="212">
<path d="M33.7002 211.5C25.5002 211.5 19.2002 209.3 14.8002 204.9C10.4002 200.5 8.2002 194.2 8.2002 186V25.5C8.2002 17.3 10.4002 11 14.8002 6.6C19.2002 2.2 25.5002 0 33.7002 0H137.5C146.1 0 152.6 1.8 157 5.4C161.4 9 163.6 14.2 163.6 21C163.6 35.4 154.9 42.6 137.5 42.6H61.9002V82.8H131.5C148.9 82.8 157.6 89.9 157.6 104.1C157.6 110.9 155.4 116.1 151 119.7C146.6 123.3 140.1 125.1 131.5 125.1H61.9002V168.9H137.5C154.9 168.9 163.6 176.1 163.6 190.5C163.6 197.3 161.4 202.5 157 206.1C152.6 209.7 146.1 211.5 137.5 211.5H33.7002Z" fill="#E2C736"/>
</mask>
<g mask="url(#mask0)">
<path d="M-38 80.5H233" stroke="#D8B604" stroke-width="4"/>
<path d="M-38 55.5H233" stroke="#D8B604" stroke-width="4"/>
<path d="M-38 30.5H233" stroke="#D8B604" stroke-width="4"/>
<path d="M-38 5.5H233" stroke="#D8B604" stroke-width="4"/>
<path d="M-38 155.5H233" stroke="#D8B604" stroke-width="4"/>
<path d="M-38 105.5H233" stroke="#D8B604" stroke-width="4"/>
<path d="M-38 180.5H233" stroke="#D8B604" stroke-width="4"/>
<path d="M-38 130.5H233" stroke="#D8B604" stroke-width="4"/>
<path d="M-38 205.5H233" stroke="#D8B604" stroke-width="4"/>
<path d="M122.5 -30L122.5 241" stroke="#D8B604" stroke-width="4"/>
<path d="M147.5 -30L147.5 241" stroke="#D8B604" stroke-width="4"/>
<path d="M47.5 -30L47.5 241" stroke="#D8B604" stroke-width="4"/>
<path d="M97.5 -30L97.5 241" stroke="#D8B604" stroke-width="4"/>
<path d="M22.5 -30L22.5 241" stroke="#D8B604" stroke-width="4"/>
<path d="M72.5 -30L72.5 241" stroke="#D8B604" stroke-width="4"/>
<g style="mix-blend-mode:multiply">
<path d="M19 -32.5L19.1825 -32.4919C24.2784 -32.2654 29.1791 -32.0476 33.8973 -31.704L150 -25.5L235 32.5V156.5L172 243.5C89 232.833 -68.8 212.3 -36 215.5C4.99995 219.5 146 179.5 117 63.5C96.4611 -18.656 70.7492 -29.0197 33.8973 -31.704L19 -32.5Z" fill="#EDC802" fill-opacity="0.44"/>
</g>
<path d="M123.082 92.1418C90.6823 109.742 54.2489 99.4752 40.0823 92.1418C46.5823 101.142 64.0823 119.142 82.0823 119.142C100.082 119.142 116.916 101.142 123.082 92.1418Z" fill="#A58B00"/>
<path d="M81.0823 110.142C72.2823 110.142 65.4156 112.142 63.0823 113.142C69.6336 117.005 75.5028 118.982 81.0823 119.142C88.7887 119.362 95.4887 116.575 98.5823 114.642C96.4156 113.142 89.8823 110.142 81.0823 110.142Z" fill="#BDA006"/>
</g>
<ellipse cx="36" cy="42" rx="23" ry="27" fill="white"/>
<circle cx="36" cy="34" r="5" fill="#161E33"/>
<ellipse cx="77.4815" cy="22" rx="14.4815" ry="17" fill="white"/>
<circle cx="74.1481" cy="19.1481" r="3.14815" fill="#161E33"/>
</svg>
