<svg width="227" height="252" viewBox="0 0 227 252" fill="none" xmlns="http://www.w3.org/2000/svg">
<ellipse cx="113.5" cy="238" rx="113.5" ry="14" fill="#ECECF9"/>
<path d="M182.947 236.893C192.523 230.206 211.299 219.914 209.794 232.245C208.289 244.575 191.269 240.481 182.947 236.893Z" fill="#46516B"/>
<path fill-rule="evenodd" clip-rule="evenodd" d="M186.337 230.636L186.337 183.28L179.556 183.28L179.557 239.123L181.604 240.006C185.98 241.893 192.816 244.006 198.969 243.928C202.057 243.889 205.324 243.296 208.017 241.497C210.852 239.603 212.675 236.623 213.159 232.655C213.389 230.769 213.289 228.909 212.57 227.269C211.802 225.517 210.456 224.313 208.816 223.672C207.286 223.073 205.643 223.012 204.151 223.16C202.633 223.311 201.041 223.701 199.471 224.216C195.267 225.592 190.493 228.101 186.337 230.636ZM190.632 235.963C194.285 233.782 198.246 231.751 201.581 230.659C202.862 230.24 203.949 229.994 204.82 229.907C205.718 229.818 206.177 229.92 206.345 229.986C206.351 229.988 206.356 229.99 206.36 229.991C206.418 230.123 206.574 230.639 206.428 231.834C206.16 234.031 205.291 235.164 204.251 235.858C203.07 236.648 201.28 237.118 198.884 237.148C196.279 237.181 193.374 236.69 190.632 235.963Z" fill="#46516B"/>
<path d="M43.4218 236.893C33.8456 230.206 15.0697 219.914 16.5748 232.245C18.0799 244.575 35.0999 240.481 43.4218 236.893Z" fill="#46516B"/>
<path fill-rule="evenodd" clip-rule="evenodd" d="M40.0316 230.636L40.0319 183.28L46.8123 183.28L46.812 239.123L44.7641 240.006C40.3885 241.893 33.5525 244.006 27.3992 243.928C24.3118 243.889 21.0444 243.296 18.3512 241.497C15.5162 239.603 13.6939 236.623 13.2096 232.655C12.9793 230.769 13.0797 228.909 13.7983 227.269C14.5663 225.517 15.9128 224.313 17.5525 223.672C19.0825 223.073 20.7256 223.012 22.2176 223.16C23.736 223.311 25.3274 223.701 26.8979 224.216C31.1015 225.592 35.8753 228.101 40.0316 230.636ZM35.7362 235.963C32.0835 233.782 28.1225 231.751 24.7878 230.659C23.5068 230.24 22.42 229.994 21.5484 229.907C20.6504 229.818 20.1918 229.92 20.0236 229.986C20.0174 229.988 20.0124 229.99 20.0084 229.991C19.9507 230.123 19.7942 230.639 19.9401 231.834C20.2083 234.031 21.078 235.164 22.1175 235.858C23.2989 236.648 25.0889 237.118 27.4849 237.148C30.0899 237.181 32.9941 236.69 35.7362 235.963Z" fill="#46516B"/>
<path d="M184.6 0C192.8 0 199.3 2.5 204.1 7.49999C209.1 12.3 211.6 18.8 211.6 27V187.5C211.6 195.7 209.1 202.3 204.1 207.3C199.3 212.3 192.8 214.8 184.6 214.8C176.4 214.8 169.8 212.4 164.8 207.6C160 202.6 157.6 195.9 157.6 187.5V127.5H71.2002V187.5C71.2002 195.7 68.7002 202.3 63.7002 207.3C58.9002 212.3 52.4002 214.8 44.2002 214.8C36.0002 214.8 29.4002 212.4 24.4002 207.6C19.6002 202.6 17.2002 195.9 17.2002 187.5V27C17.2002 18.8 19.6002 12.3 24.4002 7.49999C29.4002 2.5 36.0002 0 44.2002 0C52.4002 0 58.9002 2.5 63.7002 7.49999C68.7002 12.3 71.2002 18.8 71.2002 27V83.7H157.6V27C157.6 18.8 160 12.3 164.8 7.49999C169.8 2.5 176.4 0 184.6 0Z" fill="#5ECF42"/>
<mask id="mask0" mask-type="alpha" maskUnits="userSpaceOnUse" x="17" y="0" width="195" height="215">
<path d="M184.6 0C192.8 0 199.3 2.5 204.1 7.49999C209.1 12.3 211.6 18.8 211.6 27V187.5C211.6 195.7 209.1 202.3 204.1 207.3C199.3 212.3 192.8 214.8 184.6 214.8C176.4 214.8 169.8 212.4 164.8 207.6C160 202.6 157.6 195.9 157.6 187.5V127.5H71.2002V187.5C71.2002 195.7 68.7002 202.3 63.7002 207.3C58.9002 212.3 52.4002 214.8 44.2002 214.8C36.0002 214.8 29.4002 212.4 24.4002 207.6C19.6002 202.6 17.2002 195.9 17.2002 187.5V27C17.2002 18.8 19.6002 12.3 24.4002 7.49999C29.4002 2.5 36.0002 0 44.2002 0C52.4002 0 58.9002 2.5 63.7002 7.49999C68.7002 12.3 71.2002 18.8 71.2002 27V83.7H157.6V27C157.6 18.8 160 12.3 164.8 7.49999C169.8 2.5 176.4 0 184.6 0Z" fill="#5ECF42"/>
</mask>
<g mask="url(#mask0)">
<ellipse cx="191" cy="18" rx="3" ry="4" fill="#35B416"/>
<ellipse cx="169.833" cy="50.2104" rx="6.11985" ry="8.60704" transform="rotate(64.708 169.833 50.2104)" fill="#35B416"/>
<ellipse cx="197.115" cy="49.2104" rx="2.5245" ry="2.17191" transform="rotate(64.708 197.115 49.2104)" fill="#35B416"/>
<ellipse cx="167.043" cy="14.2104" rx="2.5245" ry="2.17191" transform="rotate(64.708 167.043 14.2104)" fill="#35B416"/>
<ellipse cx="170.043" cy="147.21" rx="2.5245" ry="2.17191" transform="rotate(64.708 170.043 147.21)" fill="#35B416"/>
<ellipse cx="181.377" cy="177.674" rx="4.46163" ry="3.83848" transform="rotate(64.708 181.377 177.674)" fill="#35B416"/>
<ellipse cx="202.73" cy="199.02" rx="2.61599" ry="2.25062" transform="rotate(64.708 202.73 199.02)" fill="#35B416"/>
<ellipse cx="203.5" cy="74.3372" rx="4.65041" ry="4.99152" transform="rotate(64.708 203.5 74.3372)" fill="#35B416"/>
<ellipse cx="177.5" cy="80.3376" rx="4.65041" ry="4.99152" transform="rotate(155.944 177.5 80.3376)" fill="#35B416"/>
<ellipse cx="192.383" cy="110.476" rx="2.50452" ry="2.68823" transform="rotate(155.944 192.383 110.476)" fill="#35B416"/>
<ellipse cx="148.383" cy="94.4763" rx="2.50452" ry="2.68823" transform="rotate(155.944 148.383 94.4763)" fill="#35B416"/>
<ellipse cx="132.383" cy="117.476" rx="2.50452" ry="2.68823" transform="rotate(155.944 132.383 117.476)" fill="#35B416"/>
<ellipse cx="71.9205" cy="95.682" rx="1.99803" ry="2.68823" transform="rotate(155.944 71.9205 95.682)" fill="#35B416"/>
<ellipse cx="28.9205" cy="55.2699" rx="1.99803" ry="2.68823" transform="rotate(155.944 28.9205 55.2699)" fill="#35B416"/>
<ellipse cx="45.9205" cy="121.27" rx="1.99803" ry="2.68823" transform="rotate(155.944 45.9205 121.27)" fill="#35B416"/>
<ellipse cx="27.9205" cy="175.27" rx="1.99803" ry="2.68823" transform="rotate(155.944 27.9205 175.27)" fill="#35B416"/>
<ellipse cx="61.9205" cy="192.27" rx="1.99803" ry="2.68823" transform="rotate(155.944 61.9205 192.27)" fill="#35B416"/>
<ellipse cx="94.5684" cy="118.804" rx="6.3437" ry="6.80902" transform="rotate(155.944 94.5684 118.804)" fill="#35B416"/>
<ellipse cx="44.5684" cy="90.8038" rx="6.3437" ry="6.80902" transform="rotate(155.944 44.5684 90.8038)" fill="#35B416"/>
<ellipse cx="57.5684" cy="26.8038" rx="6.3437" ry="6.80902" transform="rotate(155.944 57.5684 26.8038)" fill="#35B416"/>
<ellipse cx="27.5684" cy="204.804" rx="6.3437" ry="6.80902" transform="rotate(155.944 27.5684 204.804)" fill="#35B416"/>
<ellipse cx="161.206" cy="116.459" rx="6.81634" ry="7.31632" transform="rotate(155.944 161.206 116.459)" fill="#35B416"/>
<ellipse cx="56.1768" cy="155.483" rx="8.27491" ry="8.88189" transform="rotate(155.944 56.1768 155.483)" fill="#35B416"/>
<ellipse cx="18.177" cy="21.4826" rx="8.27491" ry="8.88189" transform="rotate(-132.383 18.177 21.4826)" fill="#35B416"/>
<ellipse cx="68.1768" cy="62.4833" rx="8.27491" ry="8.88189" transform="rotate(155.944 68.1768 62.4833)" fill="#35B416"/>
<ellipse cx="19.1766" cy="135.483" rx="8.27491" ry="8.88189" transform="rotate(-160.348 19.1766 135.483)" fill="#35B416"/>
<ellipse cx="119.207" cy="94.4588" rx="6.81634" ry="7.31632" transform="rotate(-133.507 119.207 94.4588)" fill="#35B416"/>
<path d="M163 92H69.5C73.1667 101.333 87.5 120 115.5 120C143.5 120 158.833 101.333 163 92Z" fill="#198000"/>
<path d="M113 108C103 108 97.5 113.667 96 116.5C108.8 122.5 124 120 130 118C128.5 114.667 123 108 113 108Z" fill="#2C9D10"/>
<ellipse cx="197.206" cy="144.459" rx="6.81634" ry="7.31632" transform="rotate(155.944 197.206 144.459)" fill="#35B416"/>
<g style="mix-blend-mode:multiply">
<path d="M70.6644 -83L70.8692 -82.9909C76.5864 -82.7365 82.0846 -82.4919 87.378 -82.1059L217.637 -75.1377L313 -9.99275V129.283L242.319 227C211.746 223.067 86.1274 243.987 48.0004 239C-30.0009 228.797 -15.7587 193.137 8.95858 195.551C54.9574 200.043 213.149 155.116 180.613 24.8261C157.57 -67.4506 128.723 -79.0909 87.378 -82.1059L70.6644 -83Z" fill="#AFD445" fill-opacity="0.51"/>
</g>
<ellipse cx="175.773" cy="207.123" rx="9.45688" ry="10.1506" transform="rotate(155.944 175.773 207.123)" fill="#35B416"/>
</g>
<ellipse rx="23" ry="27" transform="matrix(-1 0 0 1 184 52)" fill="white"/>
<circle r="5" transform="matrix(-1 0 0 1 178 47)" fill="#161E33"/>
<ellipse cx="45" cy="52" rx="23" ry="27" fill="white"/>
<circle cx="51" cy="47" r="5" fill="#161E33"/>
<path d="M99 92H109V98C109 99.1046 108.105 100 107 100H101C99.8954 100 99 99.1046 99 98V92Z" fill="white"/>
<path d="M119 92H126V96C126 97.1046 125.105 98 124 98H121C119.895 98 119 97.1046 119 96V92Z" fill="white"/>
</svg>
