<svg width="215" height="255" viewBox="0 0 215 255" fill="none" xmlns="http://www.w3.org/2000/svg">
<ellipse cx="107.5" cy="241" rx="107.5" ry="14" fill="#ECECF9"/>
<path d="M178.39 239.614C187.967 232.926 206.743 222.635 205.237 234.965C203.732 247.295 186.712 243.202 178.39 239.614Z" fill="#46516B"/>
<path fill-rule="evenodd" clip-rule="evenodd" d="M175 186L181.78 186L181.781 233.356C185.937 230.822 190.711 228.312 194.914 226.936C196.485 226.422 198.076 226.031 199.595 225.88C201.087 225.732 202.73 225.793 204.26 226.392C205.899 227.034 207.246 228.237 208.014 229.99C208.733 231.63 208.833 233.49 208.603 235.376C208.118 239.344 206.296 242.323 203.461 244.217C200.768 246.016 197.5 246.61 194.413 246.649C188.26 246.727 181.424 244.613 177.048 242.727L175 241.844L175 186ZM186.076 238.684C188.818 239.411 191.722 239.902 194.327 239.869C196.723 239.839 198.513 239.368 199.695 238.579C200.734 237.884 201.604 236.752 201.872 234.554C202.018 233.36 201.862 232.844 201.804 232.712C201.8 232.71 201.795 232.709 201.789 232.706C201.62 232.64 201.162 232.539 200.264 232.628C199.392 232.714 198.305 232.96 197.025 233.38C193.69 234.472 189.729 236.503 186.076 238.684Z" fill="#46516B"/>
<path d="M43.3225 239.614C33.7464 232.926 14.9704 222.635 16.4755 234.965C17.9806 247.295 35.0006 243.202 43.3225 239.614Z" fill="#46516B"/>
<path fill-rule="evenodd" clip-rule="evenodd" d="M46.7129 186L39.9324 186L39.9322 233.356C35.7759 230.822 31.0021 228.312 26.7985 226.936C25.228 226.422 23.6366 226.031 22.1182 225.88C20.6262 225.732 18.9831 225.793 17.4531 226.392C15.8134 227.034 14.4669 228.237 13.6989 229.99C12.9803 231.63 12.8799 233.49 13.1102 235.376C13.5945 239.344 15.4168 242.323 18.2518 244.217C20.945 246.016 24.2124 246.61 27.2998 246.649C33.4531 246.727 40.2891 244.613 44.6647 242.727L46.7126 241.844L46.7129 186ZM35.6368 238.684C32.8947 239.411 29.9905 239.902 27.3855 239.869C24.9895 239.839 23.1995 239.368 22.0181 238.579C20.9786 237.884 20.1089 236.752 19.8407 234.554C19.6948 233.36 19.8513 232.844 19.909 232.712C19.913 232.71 19.918 232.709 19.9242 232.706C20.0924 232.64 20.551 232.539 21.449 232.628C22.3206 232.714 23.4074 232.96 24.6884 233.38C28.0231 234.472 31.9841 236.503 35.6368 238.684Z" fill="#46516B"/>
<path d="M194.7 171.6C199.9 176.6 202.5 182.4 202.5 189C202.5 195.6 200 201.4 195 206.4C190 211.4 184.1 213.9 177.3 213.9C169.9 213.9 163.1 210.7 156.9 204.3L71.4002 116.7V187.5C71.4002 195.9 68.9002 202.6 63.9002 207.6C58.9002 212.4 52.1002 214.8 43.5002 214.8C35.1002 214.8 28.4002 212.4 23.4002 207.6C18.6002 202.6 16.2002 195.9 16.2002 187.5V27C16.2002 18.8 18.6002 12.3 23.4002 7.49999C28.4002 2.5 35.1002 0 43.5002 0C52.1002 0 58.9002 2.5 63.9002 7.49999C68.9002 12.3 71.4002 18.8 71.4002 27V93L155.7 8.1C160.9 2.7 166.8 0 173.4 0C180 0 185.8 2.5 190.8 7.49999C195.8 12.3 198.3 18 198.3 24.6C198.3 31.2 195.4 37.3 189.6 42.9L128.1 103.2L194.7 171.6Z" fill="#53A8D8"/>
<mask id="mask0" mask-type="alpha" maskUnits="userSpaceOnUse" x="16" y="0" width="187" height="215">
<path d="M194.7 171.6C199.9 176.6 202.5 182.4 202.5 189C202.5 195.6 200 201.4 195 206.4C190 211.4 184.1 213.9 177.3 213.9C169.9 213.9 163.1 210.7 156.9 204.3L71.4002 116.7V187.5C71.4002 195.9 68.9002 202.6 63.9002 207.6C58.9002 212.4 52.1002 214.8 43.5002 214.8C35.1002 214.8 28.4002 212.4 23.4002 207.6C18.6002 202.6 16.2002 195.9 16.2002 187.5V27C16.2002 18.8 18.6002 12.3 23.4002 7.49999C28.4002 2.5 35.1002 0 43.5002 0C52.1002 0 58.9002 2.5 63.9002 7.49999C68.9002 12.3 71.4002 18.8 71.4002 27V93L155.7 8.1C160.9 2.7 166.8 0 173.4 0C180 0 185.8 2.5 190.8 7.49999C195.8 12.3 198.3 18 198.3 24.6C198.3 31.2 195.4 37.3 189.6 42.9L128.1 103.2L194.7 171.6Z" fill="#53A8D8"/>
</mask>
<g mask="url(#mask0)">
<path d="M45 17C53.5 -3.5 31 1 15 -5.5C0.83334 14.1667 -26.9 60.1 -24.5 86.5C-21.5 119.5 36 93 53 82C70 71 56.5 59 42 52C27.5 45 36.5 37.5 45 17Z" fill="#6CC0EF"/>
<path d="M53 34C45.9998 25.5 65.0002 20.5 78.0002 14.5C80.1669 26.5 83.6002 50.8 80.0002 52C75.5002 53.5 60.0002 42.5 53 34Z" fill="#6CC0EF"/>
<path d="M125.5 61.5C135.5 50.5 131 34 125.5 25.5L89.0002 52C89.6669 58.3333 92.9002 72.1 100.5 76.5C110 82 115.5 72.5 125.5 61.5Z" fill="#6CC0EF"/>
<path d="M153 17C156.5 4 157.5 -0.5 159.5 -2.5H187.5L211 21C206.667 22.5 196.5 24.3 190.5 19.5C183 13.5 177.5 30 169.5 34C161.5 38 149.5 30 153 17Z" fill="#6CC0EF"/>
<path d="M132.5 79.5C125.5 87.5 134 96.5 139.5 104C158.334 89 195.9 58.8 195.5 58C195 57 175.5 48 163.5 48.5C151.5 49 147.5 52 146 59C144.5 66 139.5 71.5 132.5 79.5Z" fill="#6CC0EF"/>
<path d="M40.0002 115C33.4101 112.437 25.5002 112.5 1.50024 124.5C-0.999756 143.833 -5.89976 182.7 -5.49976 183.5C-4.99976 184.5 15.5002 186.5 25.5002 185.5C35.5002 184.5 46.5002 165.5 55.0002 159.5C63.5002 153.5 62.0002 141 60.0002 136C58.0002 131 49.0002 118.5 40.0002 115Z" fill="#6CC0EF"/>
<path d="M87.5002 115C74.5002 116.5 86.0002 140.5 87.5002 150.5C96.0002 161.5 115.3 183.8 124.5 185C136 186.5 144 165.5 144 156.5C144 147.5 136 126.5 125.5 119.5C115 112.5 100.5 113.5 87.5002 115Z" fill="#6CC0EF"/>
<path d="M163.5 173.5C163.5 165.5 187.5 163.5 206.5 156.5C207.167 174.167 208.1 210.2 206.5 213C204.5 216.5 176.5 226 168 224.5C159.5 223 172 205 173.5 196.5C175 188 163.5 181.5 163.5 173.5Z" fill="#6CC0EF"/>
<path d="M53 189.5C43.4998 194 37.5002 222.5 37.0002 226.5C52.6669 217.833 84.1002 200.2 84.5002 199C85.0002 197.5 81.5002 179.5 74.0002 180C66.5002 180.5 62.5002 185 53 189.5Z" fill="#6CC0EF"/>
<g style="mix-blend-mode:multiply">
<path d="M21.2851 -72L21.4899 -71.9909C27.2071 -71.7365 32.7053 -71.4919 37.9987 -71.1059L168.257 -64.1377L263.621 1.00725V140.283L192.939 238C162.366 234.067 36.7481 254.987 -1.37891 250C-79.3801 239.797 -65.138 204.137 -40.4207 206.551C5.57816 211.043 163.77 166.116 131.234 35.8261C108.191 -56.4506 79.3437 -68.0909 37.9987 -71.1059L21.2851 -72Z" fill="#53A8D8" fill-opacity="0.31"/>
</g>
</g>
<path d="M123 87C90.6 104.6 54.1667 94.3333 40 87C46.5 96 64 114 82 114C100 114 116.833 96 123 87Z" fill="#0772AE"/>
<path d="M81 105C72.2 105 65.3333 107 63 108C69.5514 111.864 75.4205 113.84 81 114C88.7064 114.22 95.4064 111.433 98.5 109.5C96.3333 108 89.8 105 81 105Z" fill="#1A8BCA"/>
<ellipse rx="18" ry="21.1304" transform="matrix(-1 0 0 1 167 32.1304)" fill="white"/>
<circle r="3.91304" transform="matrix(-1 0 0 1 167 25.87)" fill="#161E33"/>
<ellipse rx="14.4815" ry="17" transform="matrix(-1 0 0 1 44.4814 32)" fill="white"/>
<circle r="3.14815" transform="matrix(-1 0 0 1 47.8147 29.1481)" fill="#161E33"/>
</svg>
