<svg width="175" height="255" viewBox="0 0 175 255" fill="none" xmlns="http://www.w3.org/2000/svg">
<ellipse cx="87.5" cy="241" rx="87.5" ry="14" fill="#DBDBEE" fill-opacity="0.62"/>
<path d="M104.39 239.614C113.967 232.926 132.743 222.635 131.237 234.965C129.732 247.295 112.712 243.202 104.39 239.614Z" fill="#46516B"/>
<path fill-rule="evenodd" clip-rule="evenodd" d="M101 186L107.78 186L107.781 233.356C111.937 230.822 116.711 228.312 120.914 226.936C122.485 226.422 124.076 226.031 125.595 225.88C127.087 225.732 128.73 225.793 130.26 226.392C131.899 227.034 133.246 228.237 134.014 229.99C134.733 231.63 134.833 233.49 134.603 235.376C134.118 239.344 132.296 242.323 129.461 244.217C126.768 246.016 123.5 246.61 120.413 246.649C114.26 246.727 107.424 244.613 103.048 242.727L101 241.844L101 186ZM112.076 238.684C114.818 239.411 117.722 239.902 120.327 239.869C122.723 239.839 124.513 239.368 125.695 238.579C126.734 237.884 127.604 236.752 127.872 234.554C128.018 233.36 127.862 232.844 127.804 232.712C127.8 232.71 127.795 232.709 127.789 232.706C127.62 232.64 127.162 232.539 126.264 232.628C125.392 232.714 124.305 232.96 123.025 233.38C119.69 234.472 115.729 236.503 112.076 238.684Z" fill="#46516B"/>
<path d="M72.3225 239.614C62.7464 232.926 43.9704 222.635 45.4755 234.965C46.9806 247.295 64.0006 243.202 72.3225 239.614Z" fill="#46516B"/>
<path fill-rule="evenodd" clip-rule="evenodd" d="M75.7129 186L68.9324 186L68.9322 233.356C64.7759 230.822 60.0021 228.312 55.7985 226.936C54.228 226.422 52.6366 226.031 51.1182 225.88C49.6262 225.732 47.9831 225.793 46.4531 226.392C44.8134 227.034 43.4669 228.237 42.6989 229.99C41.9803 231.63 41.8799 233.49 42.1102 235.376C42.5945 239.344 44.4168 242.323 47.2518 244.217C49.945 246.016 53.2124 246.61 56.2998 246.649C62.4531 246.727 69.2891 244.613 73.6647 242.727L75.7126 241.844L75.7129 186ZM64.6368 238.684C61.8947 239.411 58.9905 239.902 56.3855 239.869C53.9895 239.839 52.1995 239.368 51.0181 238.579C49.9786 237.884 49.1089 236.752 48.8407 234.554C48.6948 233.36 48.8513 232.844 48.909 232.712C48.913 232.71 48.918 232.709 48.9242 232.706C49.0924 232.64 49.551 232.539 50.449 232.628C51.3206 232.714 52.4074 232.96 53.6884 233.38C57.0231 234.472 60.9841 236.503 64.6368 238.684Z" fill="#46516B"/>
<path d="M38.7002 213C30.5002 213 24.2002 210.8 19.8002 206.4C15.4002 202 13.2002 195.6 13.2002 187.2V27C13.2002 18.8 15.6002 12.3 20.4002 7.49999C25.4002 2.5 32.1002 0 40.5002 0C49.1002 0 55.9002 2.5 60.9002 7.49999C65.9002 12.3 68.4002 18.8 68.4002 27V168.3H137.4C154.8 168.3 163.5 175.8 163.5 190.8C163.5 198.4 161.3 204 156.9 207.6C152.7 211.2 146.2 213 137.4 213H38.7002Z" fill="#5388D8"/>
<mask id="mask0" mask-type="alpha" maskUnits="userSpaceOnUse" x="13" y="0" width="151" height="213">
<path d="M38.7002 213C30.5002 213 24.2002 210.8 19.8002 206.4C15.4002 202 13.2002 195.6 13.2002 187.2V27C13.2002 18.8 15.6002 12.3 20.4002 7.49999C25.4002 2.5 32.1002 0 40.5002 0C49.1002 0 55.9002 2.5 60.9002 7.49999C65.9002 12.3 68.4002 18.8 68.4002 27V168.3H137.4C154.8 168.3 163.5 175.8 163.5 190.8C163.5 198.4 161.3 204 156.9 207.6C152.7 211.2 146.2 213 137.4 213H38.7002Z" fill="#5388D8"/>
</mask>
<g mask="url(#mask0)">
<rect x="94.1748" y="-37.4969" width="314" height="14" transform="rotate(45 94.1748 -37.4969)" fill="#699BE7"/>
<rect x="64.231" y="-29.4735" width="314" height="14" transform="rotate(45 64.231 -29.4735)" fill="#699BE7"/>
<rect x="34.2874" y="-21.4501" width="314" height="14" transform="rotate(45 34.2874 -21.4501)" fill="#699BE7"/>
<rect x="4.34366" y="-13.4267" width="314" height="14" transform="rotate(45 4.34366 -13.4267)" fill="#699BE7"/>
<rect x="-25.6" y="-5.40332" width="314" height="14" transform="rotate(45 -25.6 -5.40332)" fill="#699BE7"/>
<rect x="-55.5437" y="2.62009" width="314" height="14" transform="rotate(45 -55.5437 2.62009)" fill="#699BE7"/>
<rect x="-85.4875" y="10.6435" width="314" height="14" transform="rotate(45 -85.4875 10.6435)" fill="#699BE7"/>
<rect x="-115.431" y="18.6669" width="314" height="14" transform="rotate(45 -115.431 18.6669)" fill="#699BE7"/>
<rect x="-145.375" y="26.6902" width="314" height="14" transform="rotate(45 -145.375 26.6902)" fill="#699BE7"/>
<g style="mix-blend-mode:multiply">
<path d="M-54.7136 -48.0013L-54.5087 -47.9922C-48.7916 -47.7378 -43.2934 -47.4932 -38 -47.1072L92.2585 -40.139L187.622 25.006V164.281L116.941 261.999C86.3678 258.065 -39.2506 278.986 -77.3776 273.999C-155.379 263.796 -141.137 228.135 -116.419 230.549C-70.4205 235.042 87.7708 190.115 55.2351 59.8248C32.1919 -32.4519 3.34503 -44.0922 -38 -47.1072L-54.7136 -48.0013Z" fill="#53A8D8" fill-opacity="0.31"/>
</g>
<path d="M131.8 175.004C99.3998 192.604 62.9665 182.337 48.7998 175.004C55.2998 184.004 72.7998 202.004 90.7998 202.004C108.8 202.004 125.633 184.004 131.8 175.004Z" fill="#05429E"/>
<path d="M89.7998 193.004C80.9998 193.004 74.1331 195.004 71.7998 196.004C78.3512 199.868 84.2203 201.844 89.7998 202.004C97.5062 202.224 104.206 199.437 107.3 197.504C105.133 196.004 98.5998 193.004 89.7998 193.004Z" fill="#1E5FC0"/>
</g>
<ellipse rx="25" ry="26.3158" transform="matrix(-1 0 0 1 42 37.3158)" fill="#1F60C1"/>
<ellipse rx="18.5361" ry="19.5659" transform="matrix(-1 0 0 1 41.5359 40.7852)" fill="white"/>
<circle r="5.14892" transform="matrix(-1 0 0 1 41.9651 39.1495)" fill="#161E33"/>
</svg>
