<svg width="263" height="255" viewBox="0 0 263 255" fill="none" xmlns="http://www.w3.org/2000/svg">
<ellipse cx="131.5" cy="241" rx="131.5" ry="14" fill="#ECECF9"/>
<path d="M216.39 239.614C225.967 232.926 244.743 222.635 243.237 234.965C241.732 247.295 224.712 243.202 216.39 239.614Z" fill="#46516B"/>
<path fill-rule="evenodd" clip-rule="evenodd" d="M213 186L219.78 186L219.781 233.356C223.937 230.822 228.711 228.312 232.914 226.936C234.485 226.422 236.076 226.031 237.595 225.88C239.087 225.732 240.73 225.793 242.26 226.392C243.899 227.034 245.246 228.237 246.014 229.99C246.733 231.63 246.833 233.49 246.603 235.376C246.118 239.344 244.296 242.323 241.461 244.217C238.768 246.016 235.5 246.61 232.413 246.649C226.26 246.727 219.424 244.613 215.048 242.727L213 241.844L213 186ZM224.076 238.684C226.818 239.411 229.722 239.902 232.327 239.869C234.723 239.839 236.513 239.368 237.695 238.579C238.734 237.884 239.604 236.752 239.872 234.554C240.018 233.36 239.862 232.844 239.804 232.712C239.8 232.71 239.795 232.709 239.789 232.706C239.62 232.64 239.162 232.539 238.264 232.628C237.392 232.714 236.305 232.96 235.025 233.38C231.69 234.472 227.729 236.503 224.076 238.684Z" fill="#46516B"/>
<path d="M52.3225 239.614C42.7464 232.926 23.9704 222.635 25.4755 234.965C26.9806 247.295 44.0006 243.202 52.3225 239.614Z" fill="#46516B"/>
<path fill-rule="evenodd" clip-rule="evenodd" d="M55.7129 186L48.9324 186L48.9322 233.356C44.7759 230.822 40.0021 228.312 35.7985 226.936C34.228 226.422 32.6366 226.031 31.1182 225.88C29.6262 225.732 27.9831 225.793 26.4531 226.392C24.8134 227.034 23.4669 228.237 22.6989 229.99C21.9803 231.63 21.8799 233.49 22.1102 235.376C22.5945 239.344 24.4168 242.323 27.2518 244.217C29.945 246.016 33.2124 246.61 36.2998 246.649C42.4531 246.727 49.2891 244.613 53.6647 242.727L55.7126 241.844L55.7129 186ZM44.6368 238.684C41.8947 239.411 38.9905 239.902 36.3855 239.869C33.9895 239.839 32.1995 239.368 31.0181 238.579C29.9786 237.884 29.1089 236.752 28.8407 234.554C28.6948 233.36 28.8513 232.844 28.909 232.712C28.913 232.71 28.918 232.709 28.9242 232.706C29.0924 232.64 29.551 232.539 30.449 232.628C31.3206 232.714 32.4074 232.96 33.6884 233.38C37.0231 234.472 40.9841 236.503 44.6368 238.684Z" fill="#46516B"/>
<path d="M213 0C220.6 0 226.8 2.5 231.6 7.49999C236.4 12.5 238.8 19 238.8 27V190.2C238.8 197.8 236.6 203.8 232.2 208.2C227.8 212.6 222 214.8 214.8 214.8C207.8 214.8 202 212.6 197.4 208.2C193 203.8 190.8 197.8 190.8 190.2V102L156.6 165C153.2 171.4 149.6 176 145.8 178.8C142 181.4 137.5 182.7 132.3 182.7C127.1 182.7 122.6 181.4 118.8 178.8C115 176 111.4 171.4 108 165L74.0998 103.8V190.2C74.0998 197.6 71.7998 203.6 67.1998 208.2C62.7998 212.6 56.9998 214.8 49.7998 214.8C42.7998 214.8 36.9998 212.6 32.3998 208.2C27.9998 203.8 25.7998 197.8 25.7998 190.2V27C25.7998 19 28.1998 12.5 32.9998 7.49999C37.9998 2.5 44.2998 0 51.8998 0C57.2998 0 62.1998 1.6 66.5998 4.80001C70.9998 7.80001 74.6998 12.2 77.6998 18L132.9 121.8L187.8 18C194 6 202.4 0 213 0Z" fill="#6775EE"/>
<mask id="mask0" mask-type="alpha" maskUnits="userSpaceOnUse" x="25" y="0" width="214" height="215">
<path d="M213 0C220.6 0 226.8 2.5 231.6 7.49999C236.4 12.5 238.8 19 238.8 27V190.2C238.8 197.8 236.6 203.8 232.2 208.2C227.8 212.6 222 214.8 214.8 214.8C207.8 214.8 202 212.6 197.4 208.2C193 203.8 190.8 197.8 190.8 190.2V102L156.6 165C153.2 171.4 149.6 176 145.8 178.8C142 181.4 137.5 182.7 132.3 182.7C127.1 182.7 122.6 181.4 118.8 178.8C115 176 111.4 171.4 108 165L74.0998 103.8V190.2C74.0998 197.6 71.7998 203.6 67.1998 208.2C62.7998 212.6 56.9998 214.8 49.7998 214.8C42.7998 214.8 36.9998 212.6 32.3998 208.2C27.9998 203.8 25.7998 197.8 25.7998 190.2V27C25.7998 19 28.1998 12.5 32.9998 7.49999C37.9998 2.5 44.2998 0 51.8998 0C57.2998 0 62.1998 1.6 66.5998 4.80001C70.9998 7.80001 74.6998 12.2 77.6998 18L132.9 121.8L187.8 18C194 6 202.4 0 213 0Z" fill="#6775EE"/>
</mask>
<g mask="url(#mask0)">
<path d="M-39 51.5L-18.0355 30.5355C-16.0829 28.5829 -12.9171 28.5829 -10.9645 30.5355L6.46447 47.9645C8.41709 49.9171 11.5829 49.9171 13.5355 47.9645L30.9645 30.5355C32.9171 28.5829 36.0829 28.5829 38.0355 30.5355L55.4645 47.9645C57.4171 49.9171 60.5829 49.9171 62.5355 47.9645L79.9645 30.5355C81.9171 28.5829 85.0829 28.5829 87.0355 30.5355L104.464 47.9645C106.417 49.9171 109.583 49.9171 111.536 47.9645L128.964 30.5355C130.917 28.5829 134.083 28.5829 136.036 30.5355L153.464 47.9645C155.417 49.9171 158.583 49.9171 160.536 47.9645L177.964 30.5355C179.917 28.5829 183.083 28.5829 185.036 30.5355L202.464 47.9645C204.417 49.9171 207.583 49.9171 209.536 47.9645L226.964 30.5355C228.917 28.5829 232.083 28.5829 234.036 30.5355L251.464 47.9645C253.417 49.9171 256.583 49.9171 258.536 47.9645L275.964 30.5355C277.917 28.5829 281.083 28.5829 283.036 30.5355L304 51.5" stroke="#5664E4" stroke-width="10" stroke-linejoin="round"/>
<path d="M-39 86.5L-18.0355 65.5355C-16.0829 63.5829 -12.9171 63.5829 -10.9645 65.5355L6.46447 82.9645C8.41709 84.9171 11.5829 84.9171 13.5355 82.9645L30.9645 65.5355C32.9171 63.5829 36.0829 63.5829 38.0355 65.5355L55.4645 82.9645C57.4171 84.9171 60.5829 84.9171 62.5355 82.9645L79.9645 65.5355C81.9171 63.5829 85.0829 63.5829 87.0355 65.5355L104.464 82.9645C106.417 84.9171 109.583 84.9171 111.536 82.9645L128.964 65.5355C130.917 63.5829 134.083 63.5829 136.036 65.5355L153.464 82.9645C155.417 84.9171 158.583 84.9171 160.536 82.9645L177.964 65.5355C179.917 63.5829 183.083 63.5829 185.036 65.5355L202.464 82.9645C204.417 84.9171 207.583 84.9171 209.536 82.9645L226.964 65.5355C228.917 63.5829 232.083 63.5829 234.036 65.5355L251.464 82.9645C253.417 84.9171 256.583 84.9171 258.536 82.9645L275.964 65.5355C277.917 63.5829 281.083 63.5829 283.036 65.5355L304 86.5" stroke="#5664E4" stroke-width="10" stroke-linejoin="round"/>
<path d="M-39 121.5L-18.0355 100.536C-16.0829 98.5829 -12.9171 98.5829 -10.9645 100.536L6.46447 117.964C8.41709 119.917 11.5829 119.917 13.5355 117.964L30.9645 100.536C32.9171 98.5829 36.0829 98.5829 38.0355 100.536L55.4645 117.964C57.4171 119.917 60.5829 119.917 62.5355 117.964L79.9645 100.536C81.9171 98.5829 85.0829 98.5829 87.0355 100.536L104.464 117.964C106.417 119.917 109.583 119.917 111.536 117.964L128.964 100.536C130.917 98.5829 134.083 98.5829 136.036 100.536L153.464 117.964C155.417 119.917 158.583 119.917 160.536 117.964L177.964 100.536C179.917 98.5829 183.083 98.5829 185.036 100.536L202.464 117.964C204.417 119.917 207.583 119.917 209.536 117.964L226.964 100.536C228.917 98.5829 232.083 98.5829 234.036 100.536L251.464 117.964C253.417 119.917 256.583 119.917 258.536 117.964L275.964 100.536C277.917 98.5829 281.083 98.5829 283.036 100.536L304 121.5" stroke="#5664E4" stroke-width="10" stroke-linejoin="round"/>
<path d="M-39 156.5L-18.0355 135.536C-16.0829 133.583 -12.9171 133.583 -10.9645 135.536L6.46447 152.964C8.41709 154.917 11.5829 154.917 13.5355 152.964L30.9645 135.536C32.9171 133.583 36.0829 133.583 38.0355 135.536L55.4645 152.964C57.4171 154.917 60.5829 154.917 62.5355 152.964L79.9645 135.536C81.9171 133.583 85.0829 133.583 87.0355 135.536L104.464 152.964C106.417 154.917 109.583 154.917 111.536 152.964L128.964 135.536C130.917 133.583 134.083 133.583 136.036 135.536L153.464 152.964C155.417 154.917 158.583 154.917 160.536 152.964L177.964 135.536C179.917 133.583 183.083 133.583 185.036 135.536L202.464 152.964C204.417 154.917 207.583 154.917 209.536 152.964L226.964 135.536C228.917 133.583 232.083 133.583 234.036 135.536L251.464 152.964C253.417 154.917 256.583 154.917 258.536 152.964L275.964 135.536C277.917 133.583 281.083 133.583 283.036 135.536L304 156.5" stroke="#5664E4" stroke-width="10" stroke-linejoin="round"/>
<path d="M-39 191.5L-18.0355 170.536C-16.0829 168.583 -12.9171 168.583 -10.9645 170.536L6.46447 187.964C8.41709 189.917 11.5829 189.917 13.5355 187.964L30.9645 170.536C32.9171 168.583 36.0829 168.583 38.0355 170.536L55.4645 187.964C57.4171 189.917 60.5829 189.917 62.5355 187.964L79.9645 170.536C81.9171 168.583 85.0829 168.583 87.0355 170.536L104.464 187.964C106.417 189.917 109.583 189.917 111.536 187.964L128.964 170.536C130.917 168.583 134.083 168.583 136.036 170.536L153.464 187.964C155.417 189.917 158.583 189.917 160.536 187.964L177.964 170.536C179.917 168.583 183.083 168.583 185.036 170.536L202.464 187.964C204.417 189.917 207.583 189.917 209.536 187.964L226.964 170.536C228.917 168.583 232.083 168.583 234.036 170.536L251.464 187.964C253.417 189.917 256.583 189.917 258.536 187.964L275.964 170.536C277.917 168.583 281.083 168.583 283.036 170.536L304 191.5" stroke="#5664E4" stroke-width="10" stroke-linejoin="round"/>
<path d="M-39 226.5L-18.0355 205.536C-16.0829 203.583 -12.9171 203.583 -10.9645 205.536L6.46447 222.964C8.41709 224.917 11.5829 224.917 13.5355 222.964L30.9645 205.536C32.9171 203.583 36.0829 203.583 38.0355 205.536L55.4645 222.964C57.4171 224.917 60.5829 224.917 62.5355 222.964L79.9645 205.536C81.9171 203.583 85.0829 203.583 87.0355 205.536L104.464 222.964C106.417 224.917 109.583 224.917 111.536 222.964L128.964 205.536C130.917 203.583 134.083 203.583 136.036 205.536L153.464 222.964C155.417 224.917 158.583 224.917 160.536 222.964L177.964 205.536C179.917 203.583 183.083 203.583 185.036 205.536L202.464 222.964C204.417 224.917 207.583 224.917 209.536 222.964L226.964 205.536C228.917 203.583 232.083 203.583 234.036 205.536L251.464 222.964C253.417 224.917 256.583 224.917 258.536 222.964L275.964 205.536C277.917 203.583 281.083 203.583 283.036 205.536L304 226.5" stroke="#5664E4" stroke-width="10" stroke-linejoin="round"/>
<path d="M-39 16.5L-18.0355 -4.46447C-16.0829 -6.41709 -12.9171 -6.41709 -10.9645 -4.46447L6.46447 12.9645C8.41709 14.9171 11.5829 14.9171 13.5355 12.9645L30.9645 -4.46447C32.9171 -6.41709 36.0829 -6.41709 38.0355 -4.46447L55.4645 12.9645C57.4171 14.9171 60.5829 14.9171 62.5355 12.9645L79.9645 -4.46447C81.9171 -6.41709 85.0829 -6.41709 87.0355 -4.46447L104.464 12.9645C106.417 14.9171 109.583 14.9171 111.536 12.9645L128.964 -4.46447C130.917 -6.41709 134.083 -6.41709 136.036 -4.46447L153.464 12.9645C155.417 14.9171 158.583 14.9171 160.536 12.9645L177.964 -4.46447C179.917 -6.41709 183.083 -6.41709 185.036 -4.46447L202.464 12.9645C204.417 14.9171 207.583 14.9171 209.536 12.9645L226.964 -4.46447C228.917 -6.41709 232.083 -6.41709 234.036 -4.46447L251.464 12.9645C253.417 14.9171 256.583 14.9171 258.536 12.9645L275.964 -4.46447C277.917 -6.41709 281.083 -6.41709 283.036 -4.46447L304 16.5" stroke="#5664E4" stroke-width="10" stroke-linejoin="round"/>
<g style="mix-blend-mode:multiply">
<path d="M92.2851 -83L92.4899 -82.9909C98.2071 -82.7365 103.705 -82.4919 108.999 -82.1059L239.257 -75.1377L334.621 -9.99275V129.283L263.939 227C233.366 223.067 107.748 243.987 69.6211 239C-8.38015 228.797 5.86203 193.137 30.5793 195.551C76.5782 200.043 234.77 155.116 202.234 24.8261C179.191 -67.4506 150.344 -79.0909 108.999 -82.1059L92.2851 -83Z" fill="#6775EE" fill-opacity="0.28"/>
</g>
</g>
<path d="M174.083 120.143C141.683 137.743 105.249 127.476 91.0827 120.143C97.5827 129.143 115.082 154.5 133.082 154.5C151.082 154.5 167.916 129.143 174.083 120.143Z" fill="#2637D2"/>
<path d="M130 130.001L121.5 129.003L120.846 132.931C120.658 134.058 121.45 135.113 122.585 135.247L127.107 135.779C128.167 135.903 129.138 135.174 129.314 134.121L130 130.001Z" fill="white"/>
<path d="M141.004 129.228L132.459 129.694L132.489 135.802C132.495 136.981 133.515 137.899 134.688 137.782L140.322 137.219C141.492 137.102 142.309 136.006 142.087 134.851L141.004 129.228Z" fill="white"/>
<path d="M132.083 142C123.283 142 115.833 145 113.5 146C119.5 150.5 126.503 154.34 132.083 154.5C139.789 154.72 148 149.5 151 147C148.833 145.5 140.883 142 132.083 142Z" fill="#4252EB"/>
<ellipse rx="21.1052" ry="23.3868" transform="matrix(-0.945091 -0.326807 -0.326807 0.945091 211.028 33)" fill="white"/>
<circle r="5.29501" transform="matrix(-1 0 0 1 211.295 27.295)" fill="#161E33"/>
<ellipse cx="53.5893" cy="33" rx="21.1052" ry="23.3868" transform="rotate(-19.0751 53.5893 33)" fill="white"/>
<circle cx="53.3223" cy="27.295" r="5.29501" fill="#161E33"/>
</svg>
