<svg width="227" height="255" viewBox="0 0 227 255" fill="none" xmlns="http://www.w3.org/2000/svg">
<ellipse cx="113.5" cy="241" rx="113.5" ry="14" fill="#ECECF9"/>
<path d="M185.39 239.614C194.967 232.926 213.743 222.635 212.237 234.965C210.732 247.295 193.712 243.202 185.39 239.614Z" fill="#46516B"/>
<path fill-rule="evenodd" clip-rule="evenodd" d="M182 186L188.78 186L188.781 233.356C192.937 230.822 197.711 228.312 201.914 226.936C203.485 226.422 205.076 226.031 206.595 225.88C208.087 225.732 209.73 225.793 211.26 226.392C212.899 227.034 214.246 228.237 215.014 229.99C215.733 231.63 215.833 233.49 215.603 235.376C215.118 239.344 213.296 242.323 210.461 244.217C207.768 246.016 204.5 246.61 201.413 246.649C195.26 246.727 188.424 244.613 184.048 242.727L182 241.844L182 186ZM193.076 238.684C195.818 239.411 198.722 239.902 201.327 239.869C203.723 239.839 205.513 239.368 206.695 238.579C207.734 237.884 208.604 236.752 208.872 234.554C209.018 233.36 208.862 232.844 208.804 232.712C208.8 232.71 208.795 232.709 208.789 232.706C208.62 232.64 208.162 232.539 207.264 232.628C206.392 232.714 205.305 232.96 204.025 233.38C200.69 234.472 196.729 236.503 193.076 238.684Z" fill="#46516B"/>
<path d="M45.3225 239.614C35.7464 232.926 16.9704 222.635 18.4755 234.965C19.9806 247.295 37.0006 243.202 45.3225 239.614Z" fill="#46516B"/>
<path fill-rule="evenodd" clip-rule="evenodd" d="M48.7129 186L41.9324 186L41.9322 233.356C37.7759 230.822 33.0021 228.312 28.7985 226.936C27.228 226.422 25.6366 226.031 24.1182 225.88C22.6262 225.732 20.9831 225.793 19.4531 226.392C17.8134 227.034 16.4669 228.237 15.6989 229.99C14.9803 231.63 14.8799 233.49 15.1102 235.376C15.5945 239.344 17.4168 242.323 20.2518 244.217C22.945 246.016 26.2124 246.61 29.2998 246.649C35.4531 246.727 42.2891 244.613 46.6647 242.727L48.7126 241.844L48.7129 186ZM37.6368 238.684C34.8947 239.411 31.9905 239.902 29.3855 239.869C26.9895 239.839 25.1995 239.368 24.0181 238.579C22.9786 237.884 22.1089 236.752 21.8407 234.554C21.6948 233.36 21.8513 232.844 21.909 232.712C21.913 232.71 21.918 232.709 21.9242 232.706C22.0924 232.64 22.551 232.539 23.449 232.628C24.3206 232.714 25.4074 232.96 26.6884 233.38C30.0231 234.472 33.9841 236.503 37.6368 238.684Z" fill="#46516B"/>
<path d="M182.8 0C190.4 0 196.6 2.5 201.4 7.49999C206.4 12.5 208.9 19 208.9 27V187.5C208.9 195.7 206.5 202.3 201.7 207.3C196.9 212.3 190.7 214.8 183.1 214.8C174.1 214.8 167.3 211.8 162.7 205.8L71.5002 92.1V187.5C71.5002 195.7 69.2002 202.3 64.6002 207.3C60.0002 212.3 53.8002 214.8 46.0002 214.8C38.4002 214.8 32.2002 212.3 27.4002 207.3C22.6002 202.3 20.2002 195.7 20.2002 187.5V27C20.2002 19 22.6002 12.5 27.4002 7.49999C32.2002 2.5 38.4002 0 46.0002 0C54.6002 0 61.3002 3 66.1002 9.00001L157.3 122.4V27C157.3 18.8 159.6 12.3 164.2 7.49999C169 2.5 175.2 0 182.8 0Z" fill="#8B6FF8"/>
<mask id="mask0" mask-type="alpha" maskUnits="userSpaceOnUse" x="20" y="0" width="189" height="215">
<path d="M182.8 0C190.4 0 196.6 2.5 201.4 7.49999C206.4 12.5 208.9 19 208.9 27V187.5C208.9 195.7 206.5 202.3 201.7 207.3C196.9 212.3 190.7 214.8 183.1 214.8C174.1 214.8 167.3 211.8 162.7 205.8L71.5002 92.1V187.5C71.5002 195.7 69.2002 202.3 64.6002 207.3C60.0002 212.3 53.8002 214.8 46.0002 214.8C38.4002 214.8 32.2002 212.3 27.4002 207.3C22.6002 202.3 20.2002 195.7 20.2002 187.5V27C20.2002 19 22.6002 12.5 27.4002 7.49999C32.2002 2.5 38.4002 0 46.0002 0C54.6002 0 61.3002 3 66.1002 9.00001L157.3 122.4V27C157.3 18.8 159.6 12.3 164.2 7.49999C169 2.5 175.2 0 182.8 0Z" fill="#8B6FF8"/>
</mask>
<g mask="url(#mask0)">
<circle cx="174" cy="18" r="19" fill="#7759EB"/>
<circle cx="155" cy="72" r="12" fill="#7759EB"/>
<circle cx="128" cy="18" r="7" fill="#7759EB"/>
<circle cx="75.5002" cy="34.5" r="16.5" fill="#7759EB"/>
<circle cx="37.5002" cy="10.5" r="4.5" fill="#7759EB"/>
<circle cx="27.0002" cy="61" r="11" fill="#7759EB"/>
<circle cx="59.0002" cy="99" r="7" fill="#7759EB"/>
<circle cx="199" cy="87" r="7" fill="#7759EB"/>
<circle cx="110" cy="117" r="18" fill="#7759EB"/>
<circle cx="162" cy="120" r="7" fill="#7759EB"/>
<circle cx="196" cy="142" r="15" fill="#7759EB"/>
<circle cx="179" cy="172" r="5" fill="#7759EB"/>
<circle cx="138" cy="182" r="10" fill="#7759EB"/>
<circle cx="41.5002" cy="197.5" r="15.5" fill="#7759EB"/>
<circle cx="31.5002" cy="152.5" r="4.5" fill="#7759EB"/>
<circle cx="189.5" cy="204.5" r="4.5" fill="#7759EB"/>
<circle cx="68.5002" cy="152.5" r="11.5" fill="#7759EB"/>
<circle cx="87.0002" cy="197" r="5" fill="#7759EB"/>
<circle cx="110" cy="169" r="5" fill="#7759EB"/>
<g style="mix-blend-mode:multiply">
<path d="M86.2851 -76L86.4899 -75.9909C92.2071 -75.7365 97.7053 -75.4919 102.999 -75.1059L233.257 -68.1377L328.621 -2.99275V136.283L257.939 234C227.366 230.067 101.748 250.987 63.6211 246C-14.3801 235.797 -0.137968 200.137 24.5793 202.551C70.5782 207.043 228.77 162.116 196.234 31.8261C173.191 -60.4506 144.344 -72.0909 102.999 -75.1059L86.2851 -76Z" fill="#8B6FF8" fill-opacity="0.29"/>
</g>
</g>
<path d="M109.607 122.844C126.758 130.544 139.12 118.555 143.156 111.598C143.156 111.598 127.974 112.455 116.798 107.438C105.623 102.421 96.1738 90.5059 96.1738 90.5059C93.5055 98.0772 92.4566 115.145 109.607 122.844Z" fill="#4928CC"/>
<path d="M111.767 115.593C105.236 113.537 101.766 115.487 100.847 116.719C108.295 123.57 116.418 125.171 119.549 125.115C119.676 122.798 118.298 117.648 111.767 115.593Z" fill="#5F3DE7"/>
<ellipse cx="39.6618" cy="36.0319" rx="24.6618" ry="26.0319" fill="#6442E8"/>
<ellipse rx="24.6618" ry="26.0319" transform="matrix(-1 0 0 1 191.661 36.0319)" fill="#6442E8"/>
<ellipse rx="19.3567" ry="20.4321" transform="matrix(-1 0 0 1 188.097 37.9047)" fill="white"/>
<circle r="5.37686" transform="matrix(-1 0 0 1 182.359 36.7291)" fill="#161E33"/>
<ellipse cx="43.2258" cy="37.9047" rx="19.3567" ry="20.4321" fill="white"/>
<circle cx="48.9647" cy="36.7291" r="5.37686" fill="#161E33"/>
</svg>
