<svg width="216" height="281" viewBox="0 0 216 281" fill="none" xmlns="http://www.w3.org/2000/svg">
<ellipse cx="108" cy="267" rx="108" ry="14" fill="#ECECF9"/>
<path d="M56.3904 265.614C65.9665 258.926 84.7425 248.635 83.2374 260.965C81.7323 273.295 64.7123 269.202 56.3904 265.614Z" fill="#46516B"/>
<path fill-rule="evenodd" clip-rule="evenodd" d="M53 212L59.7804 212L59.7807 259.356C63.937 256.822 68.7108 254.312 72.9144 252.936C74.4848 252.422 76.0763 252.031 77.5947 251.88C79.0867 251.732 80.7298 251.793 82.2598 252.392C83.8995 253.034 85.246 254.237 86.014 255.99C86.7326 257.63 86.833 259.49 86.6027 261.376C86.1184 265.344 84.2961 268.323 81.4611 270.217C78.7679 272.016 75.5005 272.61 72.4131 272.649C66.2598 272.727 59.4238 270.613 55.0482 268.727L53.0003 267.844L53 212ZM64.0761 264.684C66.8182 265.411 69.7224 265.902 72.3274 265.869C74.7234 265.839 76.5134 265.368 77.6948 264.579C78.7343 263.884 79.604 262.752 79.8722 260.554C80.0181 259.36 79.8616 258.844 79.8039 258.712C79.7999 258.71 79.7949 258.709 79.7887 258.706C79.6205 258.64 79.1619 258.539 78.2639 258.628C77.3923 258.714 76.3055 258.96 75.0245 259.38C71.6898 260.472 67.7288 262.503 64.0761 264.684Z" fill="#46516B"/>
<path d="M43.3225 265.614C33.7464 258.926 14.9704 248.635 16.4755 260.965C17.9806 273.295 35.0006 269.202 43.3225 265.614Z" fill="#46516B"/>
<path fill-rule="evenodd" clip-rule="evenodd" d="M46.7129 212L39.9324 212L39.9322 259.356C35.7759 256.822 31.0021 254.312 26.7985 252.936C25.228 252.422 23.6366 252.031 22.1182 251.88C20.6262 251.732 18.9831 251.793 17.4531 252.392C15.8134 253.034 14.4669 254.237 13.6989 255.99C12.9803 257.63 12.8799 259.49 13.1102 261.376C13.5945 265.344 15.4168 268.323 18.2518 270.217C20.945 272.016 24.2124 272.61 27.2998 272.649C33.4531 272.727 40.2891 270.613 44.6647 268.727L46.7126 267.844L46.7129 212ZM35.6368 264.684C32.8947 265.411 29.9905 265.902 27.3855 265.869C24.9895 265.839 23.1995 265.368 22.0181 264.579C20.9786 263.884 20.1089 262.752 19.8407 260.554C19.6948 259.36 19.8513 258.844 19.909 258.712C19.913 258.71 19.918 258.709 19.9242 258.706C20.0924 258.64 20.551 258.539 21.449 258.628C22.3206 258.714 23.4074 258.96 24.6884 259.38C28.0231 260.472 31.9841 262.503 35.6368 264.684Z" fill="#46516B"/>
<path d="M47.3 240.8C38.9 240.8 32.2 238.4 27.2 233.6C22.4 228.6 20 221.9 20 213.5V53C20 44.8 22.2 38.5 26.6 34.1C31 29.7 37.3 27.5 45.5 27.5H122.3C145.7 27.5 163.9 33.5 176.9 45.5C189.9 57.3 196.4 73.8 196.4 95C196.4 116 189.8 132.5 176.6 144.5C163.6 156.5 145.5 162.5 122.3 162.5H75.2V213.5C75.2 221.9 72.7 228.6 67.7 233.6C62.7 238.4 55.9 240.8 47.3 240.8ZM114.8 121.1C125 121.1 132.5 119 137.3 114.8C142.3 110.6 144.8 104.1 144.8 95.3C144.8 77.9 134.8 69.2 114.8 69.2H75.2V121.1H114.8Z" fill="#DD6FF8"/>
<mask id="mask0" mask-type="alpha" maskUnits="userSpaceOnUse" x="20" y="27" width="177" height="214">
<path d="M47.3 240.8C38.9 240.8 32.2 238.4 27.2 233.6C22.4 228.6 20 221.9 20 213.5V53C20 44.8 22.2 38.5 26.6 34.1C31 29.7 37.3 27.5 45.5 27.5H122.3C145.7 27.5 163.9 33.5 176.9 45.5C189.9 57.3 196.4 73.8 196.4 95C196.4 116 189.8 132.5 176.6 144.5C163.6 156.5 145.5 162.5 122.3 162.5H75.2V213.5C75.2 221.9 72.7 228.6 67.7 233.6C62.7 238.4 55.9 240.8 47.3 240.8ZM114.8 121.1C125 121.1 132.5 119 137.3 114.8C142.3 110.6 144.8 104.1 144.8 95.3C144.8 77.9 134.8 69.2 114.8 69.2H75.2V121.1H114.8Z" fill="#DD6FF8"/>
</mask>
<g mask="url(#mask0)">
<rect x="146.195" y="285.004" width="314" height="14" transform="rotate(-150 146.195 285.004)" fill="#E786FF"/>
<rect x="173.042" y="269.504" width="314" height="14" transform="rotate(-150 173.042 269.504)" fill="#E786FF"/>
<rect x="199.889" y="254.004" width="314" height="14" transform="rotate(-150 199.889 254.004)" fill="#E786FF"/>
<rect x="226.736" y="238.504" width="314" height="14" transform="rotate(-150 226.736 238.504)" fill="#E786FF"/>
<rect x="253.583" y="223.004" width="314" height="14" transform="rotate(-150 253.583 223.004)" fill="#E786FF"/>
<rect x="280.429" y="207.504" width="314" height="14" transform="rotate(-150 280.429 207.504)" fill="#E786FF"/>
<rect x="307.276" y="192.004" width="314" height="14" transform="rotate(-150 307.276 192.004)" fill="#E786FF"/>
<rect x="334.123" y="176.504" width="314" height="14" transform="rotate(-150 334.123 176.504)" fill="#E786FF"/>
<rect x="360.97" y="161.004" width="314" height="14" transform="rotate(-150 360.97 161.004)" fill="#E786FF"/>
<rect x="-56.6091" y="166.992" width="314" height="14" transform="rotate(-61.7532 -56.6091 166.992)" fill="#E786FF"/>
<rect x="-40.295" y="193.352" width="314" height="14" transform="rotate(-61.7532 -40.295 193.352)" fill="#E786FF"/>
<rect x="-23.981" y="219.712" width="314" height="14" transform="rotate(-61.7532 -23.981 219.712)" fill="#E786FF"/>
<rect x="-7.66687" y="246.072" width="314" height="14" transform="rotate(-61.7532 -7.66687 246.072)" fill="#E786FF"/>
<rect x="8.64722" y="272.432" width="314" height="14" transform="rotate(-61.7532 8.64722 272.432)" fill="#E786FF"/>
<rect x="24.9613" y="298.792" width="314" height="14" transform="rotate(-61.7532 24.9613 298.792)" fill="#E786FF"/>
<rect x="41.2754" y="325.152" width="314" height="14" transform="rotate(-61.7532 41.2754 325.152)" fill="#E786FF"/>
<rect x="57.5895" y="351.512" width="314" height="14" transform="rotate(-61.7532 57.5895 351.512)" fill="#E786FF"/>
<rect x="73.9036" y="377.872" width="314" height="14" transform="rotate(-61.7532 73.9036 377.872)" fill="#E786FF"/>
<g style="mix-blend-mode:multiply">
<path d="M162.001 128.997C194.791 37.916 117.668 -14.0016 96.0009 -25.0007L200.001 9.99734L221.001 194.997L10.9994 286.999L-5.99963 230.001C45.9994 240.999 134.999 203.999 162.001 128.997Z" fill="#E786FF"/>
</g>
</g>
<path d="M155 129H61.5C65.1667 138.333 79.5 157 107.5 157C135.5 157 150.833 138.333 155 129Z" fill="#8E18AB"/>
<path d="M105 145C95 145 89.5 150.667 88 153.5C100.8 159.5 116 157 122 155C120.5 151.667 115 145 105 145Z" fill="#B53FD3"/>
<path d="M91 129H101V135C101 136.105 100.105 137 99 137H93C91.8954 137 91 136.105 91 135V129Z" fill="white"/>
<path d="M111 129H118V133C118 134.105 117.105 135 116 135H113C111.895 135 111 134.105 111 133V129Z" fill="white"/>
<ellipse cx="131.229" cy="38.7999" rx="22.0041" ry="23.1622" fill="#D159EF"/>
<ellipse cx="79.602" cy="32.3021" rx="30.602" ry="32.3021" fill="#D159EF"/>
<ellipse cx="127.075" cy="40.0943" rx="16.3148" ry="17.2212" fill="white"/>
<circle cx="122.545" cy="34.6582" r="4.53189" fill="#161E33"/>
<ellipse cx="84.024" cy="34.6264" rx="24.019" ry="25.3534" fill="white"/>
<circle cx="91.1457" cy="33.1668" r="6.67195" fill="#161E33"/>
</svg>
