<svg width="241" height="264" viewBox="0 0 241 264" fill="none" xmlns="http://www.w3.org/2000/svg">
<ellipse cx="120.5" cy="250" rx="120.5" ry="14" fill="#ECECF9"/>
<path d="M188.39 248.614C197.967 241.926 216.743 231.635 215.237 243.965C213.732 256.295 196.712 252.202 188.39 248.614Z" fill="#46516B"/>
<path fill-rule="evenodd" clip-rule="evenodd" d="M185 195L191.78 195L191.781 242.356C195.937 239.822 200.711 237.312 204.914 235.936C206.485 235.422 208.076 235.031 209.595 234.88C211.087 234.732 212.73 234.793 214.26 235.392C215.899 236.034 217.246 237.237 218.014 238.99C218.733 240.63 218.833 242.49 218.603 244.376C218.118 248.344 216.296 251.323 213.461 253.217C210.768 255.016 207.5 255.61 204.413 255.649C198.26 255.727 191.424 253.613 187.048 251.727L185 250.844L185 195ZM196.076 247.684C198.818 248.411 201.722 248.902 204.327 248.869C206.723 248.839 208.513 248.368 209.695 247.579C210.734 246.884 211.604 245.752 211.872 243.554C212.018 242.36 211.862 241.844 211.804 241.712C211.8 241.71 211.795 241.709 211.789 241.706C211.62 241.64 211.162 241.539 210.264 241.628C209.392 241.714 208.305 241.96 207.025 242.38C203.69 243.472 199.729 245.503 196.076 247.684Z" fill="#46516B"/>
<path d="M55.3225 248.614C45.7464 241.926 26.9704 231.635 28.4755 243.965C29.9806 256.295 47.0006 252.202 55.3225 248.614Z" fill="#46516B"/>
<path fill-rule="evenodd" clip-rule="evenodd" d="M58.7129 195L51.9324 195L51.9322 242.356C47.7759 239.822 43.0021 237.312 38.7985 235.936C37.228 235.422 35.6366 235.031 34.1182 234.88C32.6262 234.732 30.9831 234.793 29.4531 235.392C27.8134 236.034 26.4669 237.237 25.6989 238.99C24.9803 240.63 24.8799 242.49 25.1102 244.376C25.5945 248.344 27.4168 251.323 30.2518 253.217C32.945 255.016 36.2124 255.61 39.2998 255.649C45.4531 255.727 52.2891 253.613 56.6647 251.727L58.7126 250.844L58.7129 195ZM47.6368 247.684C44.8947 248.411 41.9905 248.902 39.3855 248.869C36.9895 248.839 35.1995 248.368 34.0181 247.579C32.9786 246.884 32.1089 245.752 31.8407 243.554C31.6948 242.36 31.8513 241.844 31.909 241.712C31.913 241.71 31.918 241.709 31.9242 241.706C32.0924 241.64 32.551 241.539 33.449 241.628C34.3206 241.714 35.4074 241.96 36.6884 242.38C40.0231 243.472 43.9841 245.503 47.6368 247.684Z" fill="#46516B"/>
<path d="M207.1 186.4C210.7 191.8 212.5 196.9 212.5 201.7C212.5 208.1 209.8 213.5 204.4 217.9C199.2 222.1 193.1 224.2 186.1 224.2C181.3 224.2 176.8 223.1 172.6 220.9C168.4 218.7 164.8 215.4 161.8 211L122.8 154C120 150 117 147.1 113.8 145.3C110.8 143.3 107.2 142.3 103 142.3H83.5002V196C83.5002 204.4 81.1002 211.1 76.3002 216.1C71.5002 220.9 64.9002 223.3 56.5002 223.3C48.1002 223.3 41.4002 220.9 36.4002 216.1C31.6002 211.1 29.2002 204.4 29.2002 196V35.5C29.2002 27.3 31.4002 21 35.8002 16.6C40.2002 12.2 46.5002 10 54.7002 10H130C155.6 10 174.8 15.6 187.6 26.8C200.6 37.8 207.1 53.8 207.1 74.8C207.1 90.8 202.7 104.4 193.9 115.6C185.1 126.6 172.7 134 156.7 137.8C163.3 138.8 169 141 173.8 144.4C178.8 147.8 183.7 152.9 188.5 159.7L207.1 186.4ZM121.3 100.9C133.5 100.9 142.2 99 147.4 95.2C152.8 91.4 155.5 85.2 155.5 76.6C155.5 67.8 152.8 61.5 147.4 57.7C142.2 53.7 133.5 51.7 121.3 51.7H82.9002V100.9H121.3Z" fill="#FC617C"/>
<mask id="mask0" mask-type="alpha" maskUnits="userSpaceOnUse" x="29" y="10" width="184" height="215">
<path d="M207.1 186.4C210.7 191.8 212.5 196.9 212.5 201.7C212.5 208.1 209.8 213.5 204.4 217.9C199.2 222.1 193.1 224.2 186.1 224.2C181.3 224.2 176.8 223.1 172.6 220.9C168.4 218.7 164.8 215.4 161.8 211L122.8 154C120 150 117 147.1 113.8 145.3C110.8 143.3 107.2 142.3 103 142.3H83.5002V196C83.5002 204.4 81.1002 211.1 76.3002 216.1C71.5002 220.9 64.9002 223.3 56.5002 223.3C48.1002 223.3 41.4002 220.9 36.4002 216.1C31.6002 211.1 29.2002 204.4 29.2002 196V35.5C29.2002 27.3 31.4002 21 35.8002 16.6C40.2002 12.2 46.5002 10 54.7002 10H130C155.6 10 174.8 15.6 187.6 26.8C200.6 37.8 207.1 53.8 207.1 74.8C207.1 90.8 202.7 104.4 193.9 115.6C185.1 126.6 172.7 134 156.7 137.8C163.3 138.8 169 141 173.8 144.4C178.8 147.8 183.7 152.9 188.5 159.7L207.1 186.4ZM121.3 100.9C133.5 100.9 142.2 99 147.4 95.2C152.8 91.4 155.5 85.2 155.5 76.6C155.5 67.8 152.8 61.5 147.4 57.7C142.2 53.7 133.5 51.7 121.3 51.7H82.9002V100.9H121.3Z" fill="#FC617C"/>
</mask>
<g mask="url(#mask0)">
<rect x="104" y="20.9057" width="27" height="27" rx="13.5" transform="rotate(-42.976 104 20.9057)" fill="#FF8096"/>
<rect x="180.433" y="44.5847" width="27" height="27" rx="13.5" transform="rotate(9.26702 180.433 44.5847)" fill="#FF8096"/>
<rect x="62.4443" y="28.9375" width="27" height="27" rx="13.5" transform="rotate(67.8423 62.4443 28.9375)" fill="#FF8096"/>
<rect x="83.7129" y="103.076" width="27" height="27" rx="13.5" transform="rotate(116.627 83.7129 103.076)" fill="#FF8096"/>
<rect x="47.2373" y="153.602" width="27" height="27" rx="13.5" transform="rotate(116.627 47.2373 153.602)" fill="#FF8096"/>
<rect x="102.237" y="184.602" width="27" height="27" rx="13.5" transform="rotate(116.627 102.237 184.602)" fill="#FF8096"/>
<rect x="176.668" y="165.352" width="27" height="27" rx="13.5" transform="rotate(61.8982 176.668 165.352)" fill="#FF8096"/>
<rect x="149.817" y="104.5" width="27" height="27" rx="13.5" transform="rotate(61.8982 149.817 104.5)" fill="#FF8096"/>
<g style="mix-blend-mode:multiply">
<path d="M116.423 -20.0657L116.593 -19.9983C121.334 -18.1176 125.894 -16.3089 130.24 -14.441L237.928 29.3954L299.283 112.006L258.727 229.186L170.737 290.796C95.7905 253.569 -46.6148 182.554 -16.6654 196.306C20.7714 213.496 167.099 221.812 177.634 102.707C185.096 18.352 164.187 0.148779 130.24 -14.441L116.423 -20.0657Z" fill="#F86FC1" fill-opacity="0.45"/>
</g>
</g>
<path d="M159 106C126.6 123.6 90.1667 113.333 76 106C82.5 115 100 133 118 133C136 133 152.833 115 159 106Z" fill="#BC032C"/>
<path d="M117 124C108.2 124 101.333 126 99 127C105.551 130.864 111.42 132.84 117 133C124.706 133.22 131.406 130.433 134.5 128.5C132.333 127 125.8 124 117 124Z" fill="#D10F39"/>
<ellipse rx="24.6618" ry="26.0319" transform="matrix(-1 0 0 1 147.662 26.0319)" fill="#DC2A51"/>
<ellipse rx="19.3567" ry="20.4321" transform="matrix(-1 0 0 1 144.098 27.9047)" fill="white"/>
<circle r="5.37686" transform="matrix(-1 0 0 1 138.359 26.7291)" fill="#161E33"/>
<ellipse cx="94.6619" cy="26.0319" rx="24.6618" ry="26.0319" fill="#DC2A51"/>
<ellipse cx="98.2259" cy="27.9047" rx="19.3567" ry="20.4321" fill="white"/>
<circle cx="103.965" cy="26.7291" r="5.37686" fill="#161E33"/>
</svg>
