<svg width="185" height="270" viewBox="0 0 185 270" fill="none" xmlns="http://www.w3.org/2000/svg">
<ellipse cx="92.5" cy="256" rx="92.5" ry="14" fill="#ECECF9"/>
<path d="M107.39 254.614C116.967 247.926 135.743 237.635 134.237 249.965C132.732 262.295 115.712 258.202 107.39 254.614Z" fill="#46516B"/>
<path fill-rule="evenodd" clip-rule="evenodd" d="M104 201L110.78 201L110.781 248.356C114.937 245.822 119.711 243.312 123.914 241.936C125.485 241.422 127.076 241.031 128.595 240.88C130.087 240.732 131.73 240.793 133.26 241.392C134.899 242.034 136.246 243.237 137.014 244.99C137.733 246.63 137.833 248.49 137.603 250.376C137.118 254.344 135.296 257.323 132.461 259.217C129.768 261.016 126.5 261.61 123.413 261.649C117.26 261.727 110.424 259.613 106.048 257.727L104 256.844L104 201ZM115.076 253.684C117.818 254.411 120.722 254.902 123.327 254.869C125.723 254.839 127.513 254.368 128.695 253.579C129.734 252.884 130.604 251.752 130.872 249.554C131.018 248.36 130.862 247.844 130.804 247.712C130.8 247.71 130.795 247.709 130.789 247.706C130.62 247.64 130.162 247.539 129.264 247.628C128.392 247.714 127.305 247.96 126.025 248.38C122.69 249.472 118.729 251.503 115.076 253.684Z" fill="#46516B"/>
<path d="M77.3225 254.614C67.7464 247.926 48.9704 237.635 50.4755 249.965C51.9806 262.295 69.0006 258.202 77.3225 254.614Z" fill="#46516B"/>
<path fill-rule="evenodd" clip-rule="evenodd" d="M80.7129 201L73.9324 201L73.9322 248.356C69.7759 245.822 65.0021 243.312 60.7985 241.936C59.228 241.422 57.6366 241.031 56.1182 240.88C54.6262 240.732 52.9831 240.793 51.4531 241.392C49.8134 242.034 48.4669 243.237 47.6989 244.99C46.9803 246.63 46.8799 248.49 47.1102 250.376C47.5945 254.344 49.4168 257.323 52.2518 259.217C54.945 261.016 58.2124 261.61 61.2998 261.649C67.4531 261.727 74.2891 259.613 78.6647 257.727L80.7126 256.844L80.7129 201ZM69.6368 253.684C66.8947 254.411 63.9905 254.902 61.3855 254.869C58.9895 254.839 57.1995 254.368 56.0181 253.579C54.9786 252.884 54.1089 251.752 53.8407 249.554C53.6948 248.36 53.8513 247.844 53.909 247.712C53.913 247.71 53.918 247.709 53.9242 247.706C54.0924 247.64 54.551 247.539 55.449 247.628C56.3206 247.714 57.4074 247.96 58.6884 248.38C62.0231 249.472 65.9841 251.503 69.6368 253.684Z" fill="#46516B"/>
<path d="M91.6998 229.9C75.6998 229.9 60.7998 228.2 46.9998 224.8C33.3998 221.2 22.1998 216.3 13.3998 210.1C9.9998 207.5 7.4998 204.8 5.8998 202C4.4998 199.2 3.7998 195.6 3.7998 191.2C3.7998 185.2 5.5998 180 9.1998 175.6C12.7998 171.2 16.9998 169 21.7998 169C24.3998 169 26.8998 169.4 29.2998 170.2C31.6998 171 34.6998 172.5 38.2998 174.7C46.4998 179.3 54.5998 182.6 62.5998 184.6C70.7998 186.6 79.9998 187.6 90.1998 187.6C102 187.6 110.9 185.9 116.9 182.5C123.1 178.9 126.2 173.7 126.2 166.9C126.2 162.3 123.3 158.4 117.5 155.2C111.9 151.8 101.1 148.5 85.0998 145.3C65.2998 141.1 49.7998 136.1 38.5998 130.3C27.3998 124.5 19.4998 117.7 14.8998 109.9C10.4998 101.9 8.2998 92.3 8.2998 81.1C8.2998 68.3 12.0998 56.7 19.6998 46.3C27.2998 35.9 37.6998 27.8 50.8998 22C64.2998 16 79.2998 13 95.8998 13C110.5 13 123.5 14.6 134.9 17.8C146.3 21 156.7 26 166.1 32.8C169.7 35.4 172.2 38.2 173.6 41.2C175.2 44 176 47.5 176 51.7C176 57.7 174.2 62.9 170.6 67.3C167.2 71.7 163.1 73.9 158.3 73.9C155.7 73.9 153.3 73.6 151.1 73C148.9 72.2 145.8 70.6 141.8 68.2C140.8 67.6 137.9 66.1 133.1 63.7C128.5 61.1 123 59.1 116.6 57.7C110.4 56.1 103.6 55.3 96.1998 55.3C85.9998 55.3 77.7998 57.3 71.5998 61.3C65.3998 65.1 62.2998 70.2 62.2998 76.6C62.2998 80.4 63.3998 83.5 65.5998 85.9C67.7998 88.3 71.8998 90.7 77.8998 93.1C83.8998 95.3 92.7998 97.6 104.6 100C123.8 104.2 138.9 109.3 149.9 115.3C160.9 121.1 168.7 127.9 173.3 135.7C177.9 143.5 180.2 152.7 180.2 163.3C180.2 176.5 176.5 188.2 169.1 198.4C161.7 208.4 151.3 216.2 137.9 221.8C124.7 227.2 109.3 229.9 91.6998 229.9Z" fill="#F06F46"/>
<mask id="mask0" mask-type="alpha" maskUnits="userSpaceOnUse" x="3" y="13" width="178" height="217">
<path d="M91.6998 229.9C75.6998 229.9 60.7998 228.2 46.9998 224.8C33.3998 221.2 22.1998 216.3 13.3998 210.1C9.9998 207.5 7.4998 204.8 5.8998 202C4.4998 199.2 3.7998 195.6 3.7998 191.2C3.7998 185.2 5.5998 180 9.1998 175.6C12.7998 171.2 16.9998 169 21.7998 169C24.3998 169 26.8998 169.4 29.2998 170.2C31.6998 171 34.6998 172.5 38.2998 174.7C46.4998 179.3 54.5998 182.6 62.5998 184.6C70.7998 186.6 79.9998 187.6 90.1998 187.6C102 187.6 110.9 185.9 116.9 182.5C123.1 178.9 126.2 173.7 126.2 166.9C126.2 162.3 123.3 158.4 117.5 155.2C111.9 151.8 101.1 148.5 85.0998 145.3C65.2998 141.1 49.7998 136.1 38.5998 130.3C27.3998 124.5 19.4998 117.7 14.8998 109.9C10.4998 101.9 8.2998 92.3 8.2998 81.1C8.2998 68.3 12.0998 56.7 19.6998 46.3C27.2998 35.9 37.6998 27.8 50.8998 22C64.2998 16 79.2998 13 95.8998 13C110.5 13 123.5 14.6 134.9 17.8C146.3 21 156.7 26 166.1 32.8C169.7 35.4 172.2 38.2 173.6 41.2C175.2 44 176 47.5 176 51.7C176 57.7 174.2 62.9 170.6 67.3C167.2 71.7 163.1 73.9 158.3 73.9C155.7 73.9 153.3 73.6 151.1 73C148.9 72.2 145.8 70.6 141.8 68.2C140.8 67.6 137.9 66.1 133.1 63.7C128.5 61.1 123 59.1 116.6 57.7C110.4 56.1 103.6 55.3 96.1998 55.3C85.9998 55.3 77.7998 57.3 71.5998 61.3C65.3998 65.1 62.2998 70.2 62.2998 76.6C62.2998 80.4 63.3998 83.5 65.5998 85.9C67.7998 88.3 71.8998 90.7 77.8998 93.1C83.8998 95.3 92.7998 97.6 104.6 100C123.8 104.2 138.9 109.3 149.9 115.3C160.9 121.1 168.7 127.9 173.3 135.7C177.9 143.5 180.2 152.7 180.2 163.3C180.2 176.5 176.5 188.2 169.1 198.4C161.7 208.4 151.3 216.2 137.9 221.8C124.7 227.2 109.3 229.9 91.6998 229.9Z" fill="#F06F46"/>
</mask>
<g mask="url(#mask0)">
<path d="M-3.99768 27.3768L218.546 182.022" stroke="#E8582A" stroke-width="4"/>
<path d="M10.2685 6.84692L232.813 161.492" stroke="#E8582A" stroke-width="4"/>
<path d="M24.5346 -13.683L247.079 140.962" stroke="#E8582A" stroke-width="4"/>
<path d="M38.8008 -34.2129L261.345 120.432" stroke="#E8582A" stroke-width="4"/>
<path d="M-46.7961 88.9665L175.748 243.612" stroke="#E8582A" stroke-width="4"/>
<path d="M-18.2638 47.9067L204.28 202.552" stroke="#E8582A" stroke-width="4"/>
<path d="M-61.0623 109.496L161.482 264.142" stroke="#E8582A" stroke-width="4"/>
<path d="M-32.53 68.4366L190.014 223.082" stroke="#E8582A" stroke-width="4"/>
<path d="M-75.3284 130.026L147.216 284.671" stroke="#E8582A" stroke-width="4"/>
<path d="M190.861 28.2224L36.2155 250.767" stroke="#E8582A" stroke-width="4"/>
<path d="M211.391 42.4886L56.7455 265.033" stroke="#E8582A" stroke-width="4"/>
<path d="M231.92 56.7548L77.2754 279.299" stroke="#E8582A" stroke-width="4"/>
<path d="M252.45 71.0209L97.8053 293.565" stroke="#E8582A" stroke-width="4"/>
<path d="M129.271 -14.576L-25.3742 207.968" stroke="#E8582A" stroke-width="4"/>
<path d="M170.331 13.9563L15.6856 236.5" stroke="#E8582A" stroke-width="4"/>
<path d="M108.741 -28.8422L-45.9041 193.702" stroke="#E8582A" stroke-width="4"/>
<path d="M149.801 -0.309875L-4.84427 222.234" stroke="#E8582A" stroke-width="4"/>
<path d="M88.2111 -43.1083L-66.434 179.436" stroke="#E8582A" stroke-width="4"/>
<g style="mix-blend-mode:multiply">
<path d="M100.423 1.63355L100.593 1.70094C105.334 3.58164 109.894 5.39033 114.24 7.25825L221.928 51.0946L283.283 133.705L242.727 250.886L154.737 312.495C79.7905 275.269 -62.6148 204.253 -32.6654 218.005C4.77136 235.195 151.099 243.511 161.634 124.406C169.096 40.0512 148.187 21.848 114.24 7.25825L100.423 1.63355Z" fill="#F06F46" fill-opacity="0.46"/>
</g>
</g>
<path d="M134.921 113.437C99.3388 123.102 66.2497 104.72 54.1529 94.3207C58.4052 104.576 69.5934 133.282 87.1095 137.428C104.626 141.573 126.848 120.775 134.921 113.437Z" fill="#CB2702"/>
<path d="M89.7537 112.878L81.7121 109.949L80.1701 113.62C79.7277 114.674 80.2559 115.883 81.3292 116.274L85.6077 117.833C86.6104 118.199 87.7234 117.713 88.1366 116.729L89.7537 112.878Z" fill="white"/>
<path d="M100.64 114.66L92.2167 113.145L90.8395 119.095C90.5736 120.244 91.3543 121.373 92.5232 121.529L98.1352 122.278C99.3008 122.434 100.349 121.555 100.398 120.381L100.64 114.66Z" fill="white"/>
<path d="M89.0167 125.033C80.4533 123.007 72.513 124.21 70.0121 124.646C74.8143 130.407 80.745 135.757 86.1377 137.197C93.5861 139.187 102.778 135.998 106.274 134.256C104.511 132.297 97.5802 127.06 89.0167 125.033Z" fill="#E63E17"/>
<ellipse cx="122.229" cy="38.7999" rx="22.0041" ry="23.1622" fill="#E4421D"/>
<ellipse cx="70.602" cy="32.3021" rx="30.602" ry="32.3021" fill="#E4421D"/>
<ellipse cx="118.075" cy="40.0943" rx="16.3148" ry="17.2212" fill="white"/>
<circle cx="113.545" cy="34.6582" r="4.53189" fill="#161E33"/>
<ellipse cx="75.024" cy="34.6264" rx="24.019" ry="25.3534" fill="white"/>
<circle cx="82.1456" cy="33.1668" r="6.67195" fill="#161E33"/>
</svg>
