<svg width="322" height="257" viewBox="0 0 322 257" fill="none" xmlns="http://www.w3.org/2000/svg">
<ellipse cx="159.5" cy="243" rx="133.5" ry="14" fill="#ECECF9"/>
<path d="M230.39 241.614C239.967 234.926 258.743 224.635 257.237 236.965C255.732 249.295 238.712 245.202 230.39 241.614Z" fill="#46516B"/>
<path fill-rule="evenodd" clip-rule="evenodd" d="M227 188L233.78 188L233.781 235.356C237.937 232.822 242.711 230.312 246.914 228.936C248.485 228.422 250.076 228.031 251.595 227.88C253.087 227.732 254.73 227.793 256.26 228.392C257.899 229.034 259.246 230.237 260.014 231.99C260.733 233.63 260.833 235.49 260.603 237.376C260.118 241.344 258.296 244.323 255.461 246.217C252.768 248.016 249.5 248.61 246.413 248.649C240.26 248.727 233.424 246.613 229.048 244.727L227 243.844L227 188ZM238.076 240.684C240.818 241.411 243.722 241.902 246.327 241.869C248.723 241.839 250.513 241.368 251.695 240.579C252.734 239.884 253.604 238.752 253.872 236.554C254.018 235.36 253.862 234.844 253.804 234.712C253.8 234.71 253.795 234.709 253.789 234.706C253.62 234.64 253.162 234.539 252.264 234.628C251.392 234.714 250.305 234.96 249.025 235.38C245.69 236.472 241.729 238.503 238.076 240.684Z" fill="#46516B"/>
<path d="M93.3225 241.614C83.7464 234.926 64.9704 224.635 66.4755 236.965C67.9806 249.295 85.0006 245.202 93.3225 241.614Z" fill="#46516B"/>
<path fill-rule="evenodd" clip-rule="evenodd" d="M96.7129 188L89.9324 188L89.9322 235.356C85.7759 232.822 81.0021 230.312 76.7985 228.936C75.228 228.422 73.6366 228.031 72.1182 227.88C70.6262 227.732 68.9831 227.793 67.4531 228.392C65.8134 229.034 64.4669 230.237 63.6989 231.99C62.9803 233.63 62.8799 235.49 63.1102 237.376C63.5945 241.344 65.4168 244.323 68.2518 246.217C70.945 248.016 74.2124 248.61 77.2998 248.649C83.4531 248.727 90.2891 246.613 94.6647 244.727C95.9076 244.191 96.7126 242.967 96.7126 241.614L96.7129 188ZM85.6368 240.684C82.8947 241.411 79.9905 241.902 77.3855 241.869C74.9895 241.839 73.1995 241.368 72.0181 240.579C70.9786 239.884 70.1089 238.752 69.8407 236.554C69.6948 235.36 69.8513 234.844 69.909 234.712C69.913 234.71 69.918 234.709 69.9242 234.706C70.0924 234.64 70.551 234.539 71.449 234.628C72.3206 234.714 73.4074 234.96 74.6884 235.38C78.0231 236.472 81.9841 238.503 85.6368 240.684Z" fill="#46516B"/>
<path d="M271.1 17.8004C273.1 12.2004 276.3 7.90038 280.7 4.90039C285.3 1.90039 290.3 0.400391 295.7 0.400391C302.3 0.400391 308 2.50039 312.8 6.70038C317.8 10.9004 320.3 16.6004 320.3 23.8004C320.3 27.0004 319.5 31.0004 317.9 35.8004L257.6 199C255.6 204.6 251.9 209 246.5 212.2C241.3 215.2 235.5 216.7 229.1 216.7C222.7 216.7 216.9 215.2 211.7 212.2C206.5 209 202.9 204.6 200.9 199L161.9 87.7004L121.1 199C118.9 204.6 115.2 209 110 212.2C104.8 215.2 99.1 216.7 92.9 216.7C86.5 216.7 80.7 215.2 75.5 212.2C70.3 209 66.7 204.6 64.7 199L4.1 35.8004C2.7 31.8004 2 28.0004 2 24.4004C2 17.0004 4.6 11.2004 9.8 7.00038C15.2 2.60039 21.4 0.400391 28.4 0.400391C34 0.400391 39.1 1.90039 43.7 4.90039C48.5 7.70039 51.9 12.0004 53.9 17.8004L95 136L138.5 17.8004C140.5 12.2004 143.7 7.90038 148.1 4.90039C152.7 1.90039 157.7 0.400391 163.1 0.400391C168.5 0.400391 173.4 1.90039 177.8 4.90039C182.2 7.90038 185.4 12.3004 187.4 18.1004L228.2 138.7L271.1 17.8004Z" fill="#AFD445"/>
<mask id="mask0" mask-type="alpha" maskUnits="userSpaceOnUse" x="2" y="1" width="319" height="217">
<path d="M271.1 18.4C273.1 12.8 276.3 8.49999 280.7 5.5C285.3 2.5 290.3 1 295.7 1C302.3 1 308 3.1 312.8 7.29999C317.8 11.5 320.3 17.2 320.3 24.4C320.3 27.6 319.5 31.6 317.9 36.4L257.6 199.6C255.6 205.2 251.9 209.6 246.5 212.8C241.3 215.8 235.5 217.3 229.1 217.3C222.7 217.3 216.9 215.8 211.7 212.8C206.5 209.6 202.9 205.2 200.9 199.6L161.9 88.3L121.1 199.6C118.9 205.2 115.2 209.6 110 212.8C104.8 215.8 99.1 217.3 92.9 217.3C86.5 217.3 80.7 215.8 75.5 212.8C70.3 209.6 66.7 205.2 64.7 199.6L4.1 36.4C2.7 32.4 2 28.6 2 25C2 17.6 4.6 11.8 9.8 7.59999C15.2 3.2 21.4 1 28.4 1C34 1 39.1 2.5 43.7 5.5C48.5 8.3 51.9 12.6 53.9 18.4L95 136.6L138.5 18.4C140.5 12.8 143.7 8.49999 148.1 5.5C152.7 2.5 157.7 1 163.1 1C168.5 1 173.4 2.5 177.8 5.5C182.2 8.49999 185.4 12.9 187.4 18.7L228.2 139.3L271.1 18.4Z" fill="#AFD445"/>
</mask>
<g mask="url(#mask0)">
<circle cx="11.3397" cy="14.1282" r="6.33962" fill="#C3E85A"/>
<circle cx="11.3397" cy="36.3169" r="6.33962" fill="#C3E85A"/>
<circle cx="11.3397" cy="58.5056" r="6.33962" fill="#C3E85A"/>
<circle cx="11.3397" cy="80.6943" r="6.33962" fill="#C3E85A"/>
<circle cx="11.3397" cy="213.826" r="6.33962" fill="#C3E85A"/>
<circle cx="11.3397" cy="102.883" r="6.33962" fill="#C3E85A"/>
<circle cx="11.3397" cy="125.072" r="6.33962" fill="#C3E85A"/>
<circle cx="11.3397" cy="147.26" r="6.33962" fill="#C3E85A"/>
<circle cx="11.3397" cy="169.449" r="6.33962" fill="#C3E85A"/>
<circle cx="11.3397" cy="191.638" r="6.33962" fill="#C3E85A"/>
<circle cx="57.3397" cy="14.1282" r="6.33962" fill="#C3E85A"/>
<circle cx="57.3397" cy="36.3169" r="6.33962" fill="#C3E85A"/>
<circle cx="57.3397" cy="58.5056" r="6.33962" fill="#C3E85A"/>
<circle cx="57.3397" cy="80.6943" r="6.33962" fill="#C3E85A"/>
<circle cx="57.3397" cy="213.826" r="6.33962" fill="#C3E85A"/>
<circle cx="57.3397" cy="102.883" r="6.33962" fill="#C3E85A"/>
<circle cx="57.3397" cy="125.072" r="6.33962" fill="#C3E85A"/>
<circle cx="57.3397" cy="147.26" r="6.33962" fill="#C3E85A"/>
<circle cx="57.3397" cy="169.449" r="6.33962" fill="#C3E85A"/>
<circle cx="57.3397" cy="191.638" r="6.33962" fill="#C3E85A"/>
<circle cx="103.34" cy="14.1282" r="6.33962" fill="#C3E85A"/>
<circle cx="103.34" cy="36.3169" r="6.33962" fill="#C3E85A"/>
<circle cx="103.34" cy="58.5056" r="6.33962" fill="#C3E85A"/>
<circle cx="103.34" cy="80.6943" r="6.33962" fill="#C3E85A"/>
<circle cx="103.34" cy="213.826" r="6.33962" fill="#C3E85A"/>
<circle cx="103.34" cy="102.883" r="6.33962" fill="#C3E85A"/>
<circle cx="103.34" cy="125.072" r="6.33962" fill="#C3E85A"/>
<circle cx="103.34" cy="147.26" r="6.33962" fill="#C3E85A"/>
<circle cx="103.34" cy="169.449" r="6.33962" fill="#C3E85A"/>
<circle cx="103.34" cy="191.638" r="6.33962" fill="#C3E85A"/>
<circle cx="149.34" cy="14.1282" r="6.33962" fill="#C3E85A"/>
<circle cx="149.34" cy="36.3169" r="6.33962" fill="#C3E85A"/>
<circle cx="149.34" cy="58.5056" r="6.33962" fill="#C3E85A"/>
<circle cx="149.34" cy="80.6943" r="6.33962" fill="#C3E85A"/>
<circle cx="149.34" cy="213.826" r="6.33962" fill="#C3E85A"/>
<circle cx="149.34" cy="102.883" r="6.33962" fill="#C3E85A"/>
<circle cx="149.34" cy="125.072" r="6.33962" fill="#C3E85A"/>
<circle cx="149.34" cy="147.26" r="6.33962" fill="#C3E85A"/>
<circle cx="149.34" cy="169.449" r="6.33962" fill="#C3E85A"/>
<circle cx="149.34" cy="191.638" r="6.33962" fill="#C3E85A"/>
<circle cx="195.34" cy="14.1282" r="6.33962" fill="#C3E85A"/>
<circle cx="195.34" cy="36.3169" r="6.33962" fill="#C3E85A"/>
<circle cx="195.34" cy="58.5056" r="6.33962" fill="#C3E85A"/>
<circle cx="195.34" cy="80.6943" r="6.33962" fill="#C3E85A"/>
<circle cx="195.34" cy="213.826" r="6.33962" fill="#C3E85A"/>
<circle cx="195.34" cy="102.883" r="6.33962" fill="#C3E85A"/>
<circle cx="195.34" cy="125.072" r="6.33962" fill="#C3E85A"/>
<circle cx="195.34" cy="147.26" r="6.33962" fill="#C3E85A"/>
<circle cx="195.34" cy="169.449" r="6.33962" fill="#C3E85A"/>
<circle cx="195.34" cy="191.638" r="6.33962" fill="#C3E85A"/>
<circle cx="241.34" cy="14.1282" r="6.33962" fill="#C3E85A"/>
<circle cx="241.34" cy="36.3169" r="6.33962" fill="#C3E85A"/>
<circle cx="241.34" cy="58.5056" r="6.33962" fill="#C3E85A"/>
<circle cx="241.34" cy="80.6943" r="6.33962" fill="#C3E85A"/>
<circle cx="241.34" cy="213.826" r="6.33962" fill="#C3E85A"/>
<circle cx="241.34" cy="102.883" r="6.33962" fill="#C3E85A"/>
<circle cx="241.34" cy="125.072" r="6.33962" fill="#C3E85A"/>
<circle cx="241.34" cy="147.26" r="6.33962" fill="#C3E85A"/>
<circle cx="241.34" cy="169.449" r="6.33962" fill="#C3E85A"/>
<circle cx="241.34" cy="191.638" r="6.33962" fill="#C3E85A"/>
<circle cx="287.34" cy="14.1282" r="6.33962" fill="#C3E85A"/>
<circle cx="287.34" cy="36.3169" r="6.33962" fill="#C3E85A"/>
<circle cx="287.34" cy="58.5056" r="6.33962" fill="#C3E85A"/>
<circle cx="287.34" cy="80.6943" r="6.33962" fill="#C3E85A"/>
<circle cx="287.34" cy="213.826" r="6.33962" fill="#C3E85A"/>
<circle cx="287.34" cy="102.883" r="6.33962" fill="#C3E85A"/>
<circle cx="287.34" cy="125.072" r="6.33962" fill="#C3E85A"/>
<circle cx="287.34" cy="147.26" r="6.33962" fill="#C3E85A"/>
<circle cx="287.34" cy="169.449" r="6.33962" fill="#C3E85A"/>
<circle cx="287.34" cy="191.638" r="6.33962" fill="#C3E85A"/>
<circle cx="34.3397" cy="27.1282" r="6.33962" fill="#C3E85A"/>
<circle cx="34.3397" cy="4.93923" r="6.33962" fill="#C3E85A"/>
<circle cx="34.3397" cy="49.3169" r="6.33962" fill="#C3E85A"/>
<circle cx="34.3397" cy="71.5056" r="6.33962" fill="#C3E85A"/>
<circle cx="34.3397" cy="93.6943" r="6.33962" fill="#C3E85A"/>
<circle cx="34.3397" cy="115.883" r="6.33962" fill="#C3E85A"/>
<circle cx="34.3397" cy="138.072" r="6.33962" fill="#C3E85A"/>
<circle cx="34.3397" cy="160.26" r="6.33962" fill="#C3E85A"/>
<circle cx="34.3397" cy="182.449" r="6.33962" fill="#C3E85A"/>
<circle cx="34.3397" cy="204.638" r="6.33962" fill="#C3E85A"/>
<circle cx="80.3397" cy="27.1282" r="6.33962" fill="#C3E85A"/>
<circle cx="80.3397" cy="4.93923" r="6.33962" fill="#C3E85A"/>
<circle cx="80.3397" cy="49.3169" r="6.33962" fill="#C3E85A"/>
<circle cx="80.3397" cy="71.5056" r="6.33962" fill="#C3E85A"/>
<circle cx="80.3397" cy="93.6943" r="6.33962" fill="#C3E85A"/>
<circle cx="80.3397" cy="115.883" r="6.33962" fill="#C3E85A"/>
<circle cx="80.3397" cy="138.072" r="6.33962" fill="#C3E85A"/>
<circle cx="80.3397" cy="160.26" r="6.33962" fill="#C3E85A"/>
<circle cx="80.3397" cy="182.449" r="6.33962" fill="#C3E85A"/>
<circle cx="80.3397" cy="204.638" r="6.33962" fill="#C3E85A"/>
<circle cx="126.34" cy="27.1282" r="6.33962" fill="#C3E85A"/>
<circle cx="126.34" cy="4.93923" r="6.33962" fill="#C3E85A"/>
<circle cx="126.34" cy="49.3169" r="6.33962" fill="#C3E85A"/>
<circle cx="126.34" cy="71.5056" r="6.33962" fill="#C3E85A"/>
<circle cx="126.34" cy="93.6943" r="6.33962" fill="#C3E85A"/>
<circle cx="126.34" cy="115.883" r="6.33962" fill="#C3E85A"/>
<circle cx="126.34" cy="138.072" r="6.33962" fill="#C3E85A"/>
<circle cx="126.34" cy="160.26" r="6.33962" fill="#C3E85A"/>
<circle cx="126.34" cy="182.449" r="6.33962" fill="#C3E85A"/>
<circle cx="126.34" cy="204.638" r="6.33962" fill="#C3E85A"/>
<circle cx="172.34" cy="27.1282" r="6.33962" fill="#C3E85A"/>
<circle cx="172.34" cy="4.93923" r="6.33962" fill="#C3E85A"/>
<circle cx="172.34" cy="49.3169" r="6.33962" fill="#C3E85A"/>
<circle cx="172.34" cy="71.5056" r="6.33962" fill="#C3E85A"/>
<circle cx="172.34" cy="93.6943" r="6.33962" fill="#C3E85A"/>
<circle cx="172.34" cy="115.883" r="6.33962" fill="#C3E85A"/>
<circle cx="172.34" cy="138.072" r="6.33962" fill="#C3E85A"/>
<circle cx="172.34" cy="160.26" r="6.33962" fill="#C3E85A"/>
<circle cx="172.34" cy="182.449" r="6.33962" fill="#C3E85A"/>
<circle cx="172.34" cy="204.638" r="6.33962" fill="#C3E85A"/>
<circle cx="218.34" cy="27.1282" r="6.33962" fill="#C3E85A"/>
<circle cx="218.34" cy="4.93923" r="6.33962" fill="#C3E85A"/>
<circle cx="218.34" cy="49.3169" r="6.33962" fill="#C3E85A"/>
<circle cx="218.34" cy="71.5056" r="6.33962" fill="#C3E85A"/>
<circle cx="218.34" cy="93.6943" r="6.33962" fill="#C3E85A"/>
<circle cx="218.34" cy="115.883" r="6.33962" fill="#C3E85A"/>
<circle cx="218.34" cy="138.072" r="6.33962" fill="#C3E85A"/>
<circle cx="218.34" cy="160.26" r="6.33962" fill="#C3E85A"/>
<circle cx="218.34" cy="182.449" r="6.33962" fill="#C3E85A"/>
<circle cx="218.34" cy="204.638" r="6.33962" fill="#C3E85A"/>
<circle cx="264.34" cy="27.1282" r="6.33962" fill="#C3E85A"/>
<circle cx="264.34" cy="4.93923" r="6.33962" fill="#C3E85A"/>
<circle cx="264.34" cy="49.3169" r="6.33962" fill="#C3E85A"/>
<circle cx="264.34" cy="71.5056" r="6.33962" fill="#C3E85A"/>
<circle cx="264.34" cy="93.6943" r="6.33962" fill="#C3E85A"/>
<circle cx="264.34" cy="115.883" r="6.33962" fill="#C3E85A"/>
<circle cx="264.34" cy="138.072" r="6.33962" fill="#C3E85A"/>
<circle cx="264.34" cy="160.26" r="6.33962" fill="#C3E85A"/>
<circle cx="264.34" cy="182.449" r="6.33962" fill="#C3E85A"/>
<circle cx="264.34" cy="204.638" r="6.33962" fill="#C3E85A"/>
<circle cx="310.34" cy="27.1282" r="6.33962" fill="#C3E85A"/>
<circle cx="310.34" cy="4.93923" r="6.33962" fill="#C3E85A"/>
<circle cx="310.34" cy="49.3169" r="6.33962" fill="#C3E85A"/>
<circle cx="310.34" cy="71.5056" r="6.33962" fill="#C3E85A"/>
<circle cx="310.34" cy="93.6943" r="6.33962" fill="#C3E85A"/>
<circle cx="310.34" cy="115.883" r="6.33962" fill="#C3E85A"/>
<circle cx="310.34" cy="138.072" r="6.33962" fill="#C3E85A"/>
<circle cx="310.34" cy="160.26" r="6.33962" fill="#C3E85A"/>
<circle cx="310.34" cy="182.449" r="6.33962" fill="#C3E85A"/>
<circle cx="310.34" cy="204.638" r="6.33962" fill="#C3E85A"/>
<g style="mix-blend-mode:multiply">
<path d="M228 198.6C260 193.1 290.333 53.9329 306 -9.40039L342 -2.40039L262.5 228.1H203.5L185.5 172.6C185.5 156.1 196 204.1 228 198.6Z" fill="#AFD445" fill-opacity="0.59"/>
</g>
<g style="mix-blend-mode:multiply">
<path d="M46.5 187.1C92.9 235.5 141.5 144.266 160 92.5996L138 207.1L119.5 226.6L68.5 221.1L46.5 187.1Z" fill="#AFD445" fill-opacity="0.59"/>
</g>
</g>
<path d="M160.5 72.5C179.3 72.5 185.667 44 186.5 36C186.5 36 173 43 160.75 43C148.5 43 135 36 135 36C135.667 44 141.7 72.5 160.5 72.5Z" fill="#7EAA00"/>
<path d="M151 41.5L161 43V49C161 50.1046 160.105 51 159 51H153C151.895 51 151 50.1046 151 49V41.5Z" fill="white"/>
<path d="M164.5 43L171.5 41.5V47C171.5 48.1046 170.605 49 169.5 49H166.5C165.395 49 164.5 48.1046 164.5 47V43Z" fill="white"/>
<path d="M159.5 61.1013C152.7 61.9013 149.833 67 149.5 68.5C157.5 74.8987 167 72.5006 171 69.0006C170.167 66.834 166.3 60.3013 159.5 61.1013Z" fill="#9AC818"/>
<ellipse rx="25" ry="26.3158" transform="matrix(-0.934642 0.35559 0.35559 0.934642 32.7237 37.4854)" fill="#86B405"/>
<ellipse rx="18.5361" ry="19.5659" transform="matrix(-0.934642 0.35559 0.35559 0.934642 33.5236 40.8931)" fill="white"/>
<circle r="5.14892" transform="matrix(-0.934642 0.35559 0.35559 0.934642 33.3431 39.2116)" fill="#161E33"/>
<ellipse cx="290.252" cy="35.9998" rx="23.8758" ry="25.1324" transform="rotate(20.8296 290.252 35.9998)" fill="#86B405"/>
<ellipse cx="289.488" cy="39.2549" rx="17.7026" ry="18.6861" transform="rotate(20.8296 289.488 39.2549)" fill="white"/>
<circle cx="289.661" cy="37.6481" r="4.91738" transform="rotate(20.8296 289.661 37.6481)" fill="#161E33"/>
</svg>
