<svg width="205" height="264" viewBox="0 0 205 264" fill="none" xmlns="http://www.w3.org/2000/svg">
<ellipse cx="102.5" cy="250" rx="102.5" ry="14" fill="#ECECF9"/>
<path d="M111.39 248.614C120.967 241.926 139.743 231.635 138.237 243.965C136.732 256.295 119.712 252.202 111.39 248.614Z" fill="#46516B"/>
<path fill-rule="evenodd" clip-rule="evenodd" d="M108 195L114.78 195L114.781 242.356C118.937 239.822 123.711 237.312 127.914 235.936C129.485 235.422 131.076 235.031 132.595 234.88C134.087 234.732 135.73 234.793 137.26 235.392C138.899 236.034 140.246 237.237 141.014 238.99C141.733 240.63 141.833 242.49 141.603 244.376C141.118 248.344 139.296 251.323 136.461 253.217C133.768 255.016 130.5 255.61 127.413 255.649C121.26 255.727 114.424 253.613 110.048 251.727L108 250.844L108 195ZM119.076 247.684C121.818 248.411 124.722 248.902 127.327 248.869C129.723 248.839 131.513 248.368 132.695 247.579C133.734 246.884 134.604 245.752 134.872 243.554C135.018 242.36 134.862 241.844 134.804 241.712C134.8 241.71 134.795 241.709 134.789 241.706C134.62 241.64 134.162 241.539 133.264 241.628C132.392 241.714 131.305 241.96 130.025 242.38C126.69 243.472 122.729 245.503 119.076 247.684Z" fill="#46516B"/>
<path d="M95.3225 248.614C85.7464 241.926 66.9704 231.635 68.4755 243.965C69.9806 256.295 87.0006 252.202 95.3225 248.614Z" fill="#46516B"/>
<path fill-rule="evenodd" clip-rule="evenodd" d="M98.7129 195L91.9324 195L91.9322 242.356C87.7759 239.822 83.0021 237.312 78.7985 235.936C77.228 235.422 75.6366 235.031 74.1182 234.88C72.6262 234.732 70.9831 234.793 69.4531 235.392C67.8134 236.034 66.4669 237.237 65.6989 238.99C64.9803 240.63 64.8799 242.49 65.1102 244.376C65.5945 248.344 67.4168 251.323 70.2518 253.217C72.945 255.016 76.2124 255.61 79.2998 255.649C85.4531 255.727 92.2891 253.613 96.6647 251.727L98.7126 250.844L98.7129 195ZM87.6368 247.684C84.8947 248.411 81.9905 248.902 79.3855 248.869C76.9895 248.839 75.1995 248.368 74.0181 247.579C72.9786 246.884 72.1089 245.752 71.8407 243.554C71.6948 242.36 71.8513 241.844 71.909 241.712C71.913 241.71 71.918 241.709 71.9242 241.706C72.0924 241.64 72.551 241.539 73.449 241.628C74.3206 241.714 75.4074 241.96 76.6884 242.38C80.0231 243.472 83.9841 245.503 87.6368 247.684Z" fill="#46516B"/>
<path d="M155.6 17.6992C160.8 11.6992 166.9 8.69922 173.9 8.69922C180.5 8.69922 186.4 11.2992 191.6 16.4992C197 21.4992 199.7 27.2992 199.7 33.8992C199.7 39.6992 197.5 45.1992 193.1 50.3992L130.1 123.299V196.499C130.1 205.299 127.5 212.099 122.3 216.899C117.3 221.499 110.8 223.799 102.8 223.799C94.6001 223.799 87.9001 221.499 82.7001 216.899C77.5001 212.099 74.9001 205.299 74.9001 196.499V123.299L12.5001 50.3992C7.9001 45.1992 5.6001 39.5992 5.6001 33.5992C5.6001 26.9992 8.2001 21.1992 13.4001 16.1992C18.6001 11.1992 24.5001 8.69922 31.1001 8.69922C38.1001 8.69922 44.2001 11.6992 49.4001 17.6992L102.5 80.6992L155.6 17.6992Z" fill="#5ECF42"/>
<mask id="mask0" mask-type="alpha" maskUnits="userSpaceOnUse" x="5" y="8" width="195" height="216">
<path d="M155.6 17.6992C160.8 11.6992 166.9 8.69922 173.9 8.69922C180.5 8.69922 186.4 11.2992 191.6 16.4992C197 21.4992 199.7 27.2992 199.7 33.8992C199.7 39.6992 197.5 45.1992 193.1 50.3992L130.1 123.299V196.499C130.1 205.299 127.5 212.099 122.3 216.899C117.3 221.499 110.8 223.799 102.8 223.799C94.6001 223.799 87.9001 221.499 82.7001 216.899C77.5001 212.099 74.9001 205.299 74.9001 196.499V123.299L12.5001 50.3992C7.9001 45.1992 5.6001 39.5992 5.6001 33.5992C5.6001 26.9992 8.2001 21.1992 13.4001 16.1992C18.6001 11.1992 24.5001 8.69922 31.1001 8.69922C38.1001 8.69922 44.2001 11.6992 49.4001 17.6992L102.5 80.6992L155.6 17.6992Z" fill="#5ECF42"/>
</mask>
<g mask="url(#mask0)">
<circle cx="157" cy="103" r="21" stroke="#6DE151" stroke-width="6"/>
<circle cx="157" cy="103" r="38" stroke="#6DE151" stroke-width="6"/>
<circle cx="157" cy="103" r="53" stroke="#6DE151" stroke-width="6"/>
<circle cx="157" cy="103" r="68" stroke="#6DE151" stroke-width="6"/>
<circle cx="157" cy="103" r="83" stroke="#6DE151" stroke-width="6"/>
<circle cx="157" cy="103" r="98" stroke="#6DE151" stroke-width="6"/>
<circle cx="157" cy="103" r="113" stroke="#6DE151" stroke-width="6"/>
<circle cx="157" cy="103" r="127" stroke="#6DE151" stroke-width="6"/>
<circle cx="157" cy="103" r="142" stroke="#6DE151" stroke-width="6"/>
<circle cx="157" cy="103" r="157" stroke="#6DE151" stroke-width="6"/>
<circle cx="157" cy="103" r="157" stroke="#6DE151" stroke-width="6"/>
</g>
<path d="M127 102H79C80.8824 111.333 88.2406 130 102.615 130C116.989 130 124.861 111.333 127 102Z" fill="#25A606"/>
<path d="M101 118C95.7059 118 91.7941 122.727 91 125.5C97.7765 131.372 106.5 131 112 127C111.206 123.738 106.294 118 101 118Z" fill="#3FC420"/>
<path d="M92 102H102V108C102 109.105 101.105 110 100 110H94C92.8954 110 92 109.105 92 108V102Z" fill="white"/>
<path d="M105.5 102H112.5V106C112.5 107.105 111.605 108 110.5 108H107.5C106.395 108 105.5 107.105 105.5 106V102Z" fill="white"/>
<ellipse rx="24.6618" ry="26.0319" transform="matrix(-1 0 0 1 175.662 26.0319)" fill="#42B026"/>
<ellipse rx="19.3567" ry="20.4321" transform="matrix(-1 0 0 1 170.357 31.4321)" fill="white"/>
<circle r="5.37686" transform="matrix(-1 0 0 1 164.618 30.2564)" fill="#161E33"/>
<ellipse cx="30.6619" cy="26.0319" rx="24.6618" ry="26.0319" fill="#42B026"/>
<ellipse cx="35.967" cy="31.4321" rx="19.3567" ry="20.4321" fill="white"/>
<circle cx="41.706" cy="30.2564" r="5.37686" fill="#161E33"/>
</svg>
