<svg width="205" height="280" viewBox="0 0 205 280" fill="none" xmlns="http://www.w3.org/2000/svg">
<ellipse cx="102.5" cy="266" rx="102.5" ry="14" fill="#ECECF9"/>
<path d="M134.39 264.614C143.967 257.926 162.743 247.635 161.237 259.965C159.732 272.295 142.712 268.202 134.39 264.614Z" fill="#46516B"/>
<path fill-rule="evenodd" clip-rule="evenodd" d="M131 211L137.78 211L137.781 258.356C141.937 255.822 146.711 253.312 150.914 251.936C152.485 251.422 154.076 251.031 155.595 250.88C157.087 250.732 158.73 250.793 160.26 251.392C161.899 252.034 163.246 253.237 164.014 254.99C164.733 256.63 164.833 258.49 164.603 260.376C164.118 264.344 162.296 267.323 159.461 269.217C156.768 271.016 153.5 271.61 150.413 271.649C144.26 271.727 137.424 269.613 133.048 267.727L131 266.844L131 211ZM142.076 263.684C144.818 264.411 147.722 264.902 150.327 264.869C152.723 264.839 154.513 264.368 155.695 263.579C156.734 262.884 157.604 261.752 157.872 259.554C158.018 258.36 157.862 257.844 157.804 257.712C157.8 257.71 157.795 257.709 157.789 257.706C157.62 257.64 157.162 257.539 156.264 257.628C155.392 257.714 154.305 257.96 153.025 258.38C149.69 259.472 145.729 261.503 142.076 263.684Z" fill="#46516B"/>
<path d="M81.3225 264.614C71.7464 257.926 52.9704 247.635 54.4755 259.965C55.9806 272.295 73.0006 268.202 81.3225 264.614Z" fill="#46516B"/>
<path fill-rule="evenodd" clip-rule="evenodd" d="M84.7129 211L77.9324 211L77.9322 258.356C73.7759 255.822 69.0021 253.312 64.7985 251.936C63.228 251.422 61.6366 251.031 60.1182 250.88C58.6262 250.732 56.9831 250.793 55.4531 251.392C53.8134 252.034 52.4669 253.237 51.6989 254.99C50.9803 256.63 50.8799 258.49 51.1102 260.376C51.5945 264.344 53.4168 267.323 56.2518 269.217C58.945 271.016 62.2124 271.61 65.2998 271.649C71.4531 271.727 78.2891 269.613 82.6647 267.727L84.7126 266.844L84.7129 211ZM73.6368 263.684C70.8947 264.411 67.9905 264.902 65.3855 264.869C62.9895 264.839 61.1995 264.368 60.0181 263.579C58.9786 262.884 58.1089 261.752 57.8407 259.554C57.6948 258.36 57.8513 257.844 57.909 257.712C57.913 257.71 57.918 257.709 57.9242 257.706C58.0924 257.64 58.551 257.539 59.449 257.628C60.3206 257.714 61.4074 257.96 62.6884 258.38C66.0231 259.472 69.9841 261.503 73.6368 263.684Z" fill="#46516B"/>
<path d="M164.2 194.8C173 194.8 179.5 196.5 183.7 199.9C188.1 203.3 190.3 208.7 190.3 216.1C190.3 223.7 188.2 229.3 184 232.9C179.8 236.3 173.2 238 164.2 238H44.2002C36.8002 238 30.9002 235.8 26.5002 231.4C22.3002 227 20.2002 221.5 20.2002 214.9C20.2002 208.3 22.5002 201.8 27.1002 195.4L119.5 69.7H46.9002C37.9002 69.7 31.2002 68 26.8002 64.6C22.6002 61 20.5002 55.6 20.5002 48.4C20.5002 40.8 22.6002 35.3 26.8002 31.9C31.2002 28.3 37.9002 26.5 46.9002 26.5H162.1C169.3 26.5 175 28.7 179.2 33.1C183.6 37.3 185.8 42.7 185.8 49.3C185.8 56.1 183.5 62.7 178.9 69.1L86.5002 194.8H164.2Z" fill="#53A8D8"/>
<mask id="mask0" mask-type="alpha" maskUnits="userSpaceOnUse" x="20" y="26" width="171" height="212">
<path d="M164.2 194.8C173 194.8 179.5 196.5 183.7 199.9C188.1 203.3 190.3 208.7 190.3 216.1C190.3 223.7 188.2 229.3 184 232.9C179.8 236.3 173.2 238 164.2 238H44.2002C36.8002 238 30.9002 235.8 26.5002 231.4C22.3002 227 20.2002 221.5 20.2002 214.9C20.2002 208.3 22.5002 201.8 27.1002 195.4L119.5 69.7H46.9002C37.9002 69.7 31.2002 68 26.8002 64.6C22.6002 61 20.5002 55.6 20.5002 48.4C20.5002 40.8 22.6002 35.3 26.8002 31.9C31.2002 28.3 37.9002 26.5 46.9002 26.5H162.1C169.3 26.5 175 28.7 179.2 33.1C183.6 37.3 185.8 42.7 185.8 49.3C185.8 56.1 183.5 62.7 178.9 69.1L86.5002 194.8H164.2Z" fill="#53A8D8"/>
</mask>
<g mask="url(#mask0)">
<rect x="280.062" y="242.741" width="314" height="14" transform="rotate(180 280.062 242.741)" fill="#3B99CE"/>
<rect x="280.062" y="215.894" width="314" height="14" transform="rotate(180 280.062 215.894)" fill="#3B99CE"/>
<rect x="280.062" y="189.047" width="314" height="14" transform="rotate(180 280.062 189.047)" fill="#3B99CE"/>
<rect x="280.062" y="162.201" width="314" height="14" transform="rotate(180 280.062 162.201)" fill="#3B99CE"/>
<rect x="280.062" y="135.354" width="314" height="14" transform="rotate(180 280.062 135.354)" fill="#3B99CE"/>
<rect x="280.062" y="108.507" width="314" height="14" transform="rotate(180 280.062 108.507)" fill="#3B99CE"/>
<rect x="280.062" y="81.6603" width="314" height="14" transform="rotate(180 280.062 81.6603)" fill="#3B99CE"/>
<rect x="280.062" y="54.8135" width="314" height="14" transform="rotate(180 280.062 54.8135)" fill="#3B99CE"/>
<rect x="280.062" y="27.9667" width="314" height="14" transform="rotate(180 280.062 27.9667)" fill="#3B99CE"/>
<rect x="9.72632" y="301.179" width="314" height="14" transform="rotate(-91.7532 9.72632 301.179)" fill="#3B99CE"/>
<rect x="37.0351" y="301.178" width="314" height="14" transform="rotate(-91.7532 37.0351 301.178)" fill="#3B99CE"/>
<rect x="64.3439" y="301.178" width="314" height="14" transform="rotate(-91.7532 64.3439 301.178)" fill="#3B99CE"/>
<rect x="91.6509" y="301.177" width="314" height="14" transform="rotate(-91.7532 91.6509 301.177)" fill="#3B99CE"/>
<rect x="118.961" y="301.179" width="314" height="14" transform="rotate(-91.7532 118.961 301.179)" fill="#3B99CE"/>
<rect x="146.268" y="301.178" width="314" height="14" transform="rotate(-91.7532 146.268 301.178)" fill="#3B99CE"/>
<rect x="173.576" y="301.177" width="314" height="14" transform="rotate(-91.7532 173.576 301.177)" fill="#3B99CE"/>
<g style="mix-blend-mode:multiply">
<path d="M173.501 211C171.501 199.801 151.334 194 141.501 192.5H197V243.5L66.2194 240.615C64.4948 240.589 62.7549 240.551 61.0002 240.5L66.2194 240.615C132.309 241.612 175.937 224.644 173.501 211Z" fill="#3B99CE" fill-opacity="0.28"/>
</g>
<g style="mix-blend-mode:multiply">
<path d="M165 57.5C166.6 33.5 129.333 21.8333 110.5 19H188.5L201.5 48L141.5 144.5L86 194C111.667 158.5 163.4 81.5 165 57.5Z" fill="#3B99CE" fill-opacity="0.28"/>
</g>
</g>
<path d="M147.082 202.141C114.682 219.741 78.2489 209.475 64.0823 202.141C70.5823 211.141 88.0823 229.141 106.082 229.141C124.082 229.141 140.916 211.141 147.082 202.141Z" fill="#0165A7"/>
<path d="M105.082 220.141C96.2823 220.141 89.4156 222.141 87.0823 223.141C93.6336 227.005 99.5027 228.982 105.082 229.141C112.789 229.362 119.489 226.575 122.582 224.641C120.416 223.141 113.882 220.141 105.082 220.141Z" fill="#117FC8"/>
<ellipse cx="135.229" cy="38.7999" rx="22.0041" ry="23.1622" fill="#1677B7"/>
<ellipse cx="83.602" cy="32.3021" rx="30.602" ry="32.3021" fill="#1677B7"/>
<ellipse cx="131.075" cy="40.0943" rx="16.3148" ry="17.2212" fill="white"/>
<circle cx="126.545" cy="34.6582" r="4.53189" fill="#161E33"/>
<ellipse cx="88.024" cy="34.6264" rx="24.019" ry="25.3534" fill="white"/>
<circle cx="95.1456" cy="33.1668" r="6.67195" fill="#161E33"/>
</svg>
