<svg xmlns="http://www.w3.org/2000/svg" xmlns:xlink="http://www.w3.org/1999/xlink" viewBox="0 0 583 926"><defs><clipPath id="clip-path" transform="translate(0 30.42)"><path d="M0,62.58s43,4,89-3,150-29,157-32,35-25,35-25,45.5,96.5,52.5,120.5,67,174,80,216,73,225,83,248,56,133,56,133l-123,45s-77-142-88-166-59-153-71-181-45-113-63-122-21,4-18,35,15,145,15,176,5,82,6,97,2,82,0,103,0,106,3,116l-19,11-104-7a646.38,646.38,0,0,1-17-90c-6-51-17-178-21-200s-19-165-23-195-14-150-18-172S0,62.58,0,62.58Z" style="fill:#4d88ce"/></clipPath><clipPath id="clip-path-2" transform="translate(0 30.42)"><path d="M87.18,814.06A63,63,0,0,0,82,834.58c-1,12,0,41,7,46s54,5,73,4,58.24-15.78,62-20c8-9-2-47-7-51s-68,13-77,14S87.36,814.54,87.18,814.06Z" style="fill:#68a4e0"/></clipPath><clipPath id="clip-path-3" transform="translate(0 30.42)"><path d="M461,747.58c12-4,58-20,64-26s19-18,27-12,23,45,21,51-28,32-65,37-63,15-68,11-20-43-20-48,7-8,15-8S461,747.58,461,747.58Z" style="fill:#68a4e0"/></clipPath></defs><g id="Layer_2" data-name="Layer 2"><g id="jeans"><g id="Layer_4" data-name="Layer 4"><path d="M0,62.58s3-3,58-14,151-37,168-39,51-15,55-7-29,36-41,44-143,33-143,33l-82-4Z" transform="translate(0 30.42)" style="fill:#1664a5"/><path d="M0,62.58s43,4,89-3,150-29,157-32,35-25,35-25,45.5,96.5,52.5,120.5,67,174,80,216,73,225,83,248,56,133,56,133l-123,45s-77-142-88-166-59-153-71-181-45-113-63-122-21,4-18,35,15,145,15,176,5,82,6,97,2,82,0,103,0,106,3,116l-19,11-104-7a646.38,646.38,0,0,1-17-90c-6-51-17-178-21-200s-19-165-23-195-14-150-18-172S0,62.58,0,62.58Z" transform="translate(0 30.42)" style="fill:#4d88ce"/><g style="clip-path:url(#clip-path)"><path d="M85.58,807.19S133,821.58,138,822.58s60-13,62-16S129.39,324.34,192.2,296h0L252,522.58l-14,256-11.79,63.67L59,833.58l26.58-26.39" transform="translate(0 30.42)" style="fill:#0d6099;opacity:0.5"/><path d="M216,29.58s171,424,197,480,109,207,109,207l-40,20-62,16,13,30,138-61-290-752-65,60" transform="translate(0 30.42)" style="fill:#0d6099;opacity:0.5"/></g><path d="M87.18,814.06A63,63,0,0,0,82,834.58c-1,12,0,41,7,46s54,5,73,4,58.24-15.78,62-20c8-9-2-47-7-51s-68,13-77,14S87.36,814.54,87.18,814.06Z" transform="translate(0 30.42)" style="fill:#68a4e0"/><g style="clip-path:url(#clip-path-2)"><path d="M157.23,819.22S175,833.58,179,848.58s-8.07,32.9-72.49,36.52C98,885.58,135,895.58,135,895.58l81-15,24-19-21-64Z" transform="translate(0 30.42)" style="fill:#0d6099;opacity:0.30000000000000004"/></g><path d="M461,747.58c12-4,58-20,64-26s19-18,27-12,23,45,21,51-28,32-65,37-63,15-68,11-20-43-20-48,7-8,15-8S461,747.58,461,747.58Z" transform="translate(0 30.42)" style="fill:#68a4e0"/><g style="clip-path:url(#clip-path-3)"><path d="M482,736.58s37,3,44,13,3,40-40,56l56-4,41-40-31-67Z" transform="translate(0 30.42)" style="fill:#0d6099;opacity:0.30000000000000004"/></g><path d="M75.57,106.43a264.13,264.13,0,0,1-4.92-45,4.92,4.92,0,0,1,.71-3.28,5,5,0,0,1,2.51-1.33c3-.91,6-1.79,9.09-2.66,1.66-.48,3.46-.94,5.07-.33,2.77,1,3.52,4.54,3.85,7.49Q94.7,86.63,96.46,112a3.1,3.1,0,0,1-2.68,3.87,90.24,90.24,0,0,1-9.64,2.85,6,6,0,0,1-4,0c-1.37-.67-2-2.23-2.54-3.66a93.77,93.77,0,0,1-5.1-23.39" transform="translate(0 30.42)" style="fill:#4d88ce"/><path d="M76,106.32c-1-6.73-1.21-13.6-1.87-20.39-.61-6.25-1.29-12.51-1.52-18.79-.13-3.49-.71-6.89,2.68-8.86a21.39,21.39,0,0,1,4.52-1.4c2.83-.85,3.53-1.1,6.63,0s3.1.94,3.64,3.63c.37,1.87.53,3.8.76,5.69.41,3.23.74,6.48,1.07,9.72.64,6.16,1.27,12.32,1.68,18.5.22,3.26.44,6.5.78,9.75s2,8.42-1,10.93c-1.65,1.39-7.06,3.07-9.39,3-5.44-.27-5.74-4.31-6.82-8.64-1.48-5.92-1.85-12.27-3.68-18a1,1,0,0,0-1.86.25c-.87,7.57,1.89,18.35,5.62,25,3.29,5.83,10.16,1.78,15.16.49,1.89-.48,4-.66,5-2.55,1.45-2.73.23-7.46.1-10.35C97,93.81,95.72,83.39,94.69,73,94.16,67.61,95.32,56.61,90,53c-2.32-1.59-5-1-7.47-.37-3.45.9-9.4,1.48-12.05,4.07-1.87,1.83-1.59,4.27-1.51,6.71.16,5,.49,10.05.88,15.06.77,9.69,3.15,18.69,5.37,28.1.12.49.82.27.75-.21Z" transform="translate(0 30.42)" style="fill:#0d6099"/><path d="M216.3,90a91,91,0,0,1-11.41-32.25c-.61-4-1-8.09-2.26-11.93-1.12-3.29-2.95-6.39-3.39-9.85a3,3,0,0,1,.25-2,3.4,3.4,0,0,1,1.82-1.18l6-2.26c1.82-.68,3.8-1.37,5.67-.82,2.09.62,3.43,2.62,4.43,4.56,4.39,8.54,5.41,18.34,7.64,27.68a107.3,107.3,0,0,0,5.86,17.61,8,8,0,0,1,1,4.39c-.45,2.6-3.29,4-5.76,4.87-3.57,1.34-8,2.55-10.88.1" transform="translate(0 30.42)" style="fill:#4d88ce"/><path d="M217.36,89.35C211,80,207.83,68.7,206.21,57.53c-.72-5-1.24-9.83-3.08-14.58-1.24-3.22-3.3-6.45.09-9.27,1.14-1,7-2.56,8.37-2.43,5.2.48,7.28,10.37,8.45,14.47,1.41,4.91,2.38,9.91,3.59,14.86a161.59,161.59,0,0,0,5,16.74c1.32,3.65,2.48,7.29-1.72,10-3.12,2-8,3-11.19.88-.82-.56-1.63.81-.78,1.34,4.15,2.57,11.68,1.2,15.55-1.47,5.52-3.8,1.55-9.37-.34-14.08-3.38-8.41-4.81-16.93-6.53-25.77-1.11-5.72-2.64-14.23-7.2-18.44S205.46,29,200.9,31.3c-5.3,2.67-2.78,7.4-.86,12,3.31,7.91,3.47,16.62,5.79,24.83,2.2,7.78,5.93,15.19,9.41,22.46.68,1.42,3,.08,2.12-1.25Z" transform="translate(0 30.42)" style="fill:#0d6099"/><path d="M124.62,59.42c15.27,58.41,24,118.5,42.21,176.14a357.71,357.71,0,0,0,17.91,46.08c.17.36.67.05.52-.3-15.18-35.62-24.94-73-33-110.75-8-37.4-15-75-26.94-111.35a.35.35,0,0,0-.68.18Z" transform="translate(0 30.42)" style="fill:#0d6099"/><path d="M6.1,118.86c23-.26,46.72-1.36,69.42-5.43,1.67-.3,1.3-3.22-.4-3-11.48,1.53-22.88,3.76-34.41,4.88S17.66,117.4,6.1,118a.43.43,0,0,0,0,.85Z" transform="translate(0 30.42)" style="fill:#0d6099"/><path d="M97.5,109c12.27-1,24.34-2.79,36.46-5,1.64-.29.94-2.77-.68-2.49-12,2.14-23.94,4.33-35.85,6.94-.28.06-.22.53.07.5Z" transform="translate(0 30.42)" style="fill:#0d6099"/><path d="M138.34,103.3a340.56,340.56,0,0,0,75.33-16.18c1.16-.4.68-2.23-.51-1.86a452.75,452.75,0,0,1-74.82,16.82c-.75.11-.79,1.3,0,1.22Z" transform="translate(0 30.42)" style="fill:#0d6099"/><path d="M232.62,81.77c12.56-4.94,25.19-9.76,37.56-15.15a92.83,92.83,0,0,0,30.17-20.48c1-1-.67-2.69-1.59-1.59-7.62,9.12-19.09,15.21-29.69,20.17-12,5.65-24.66,10.11-37,15.06-1.22.49-.7,2.48.54,2Z" transform="translate(0 30.42)" style="fill:#0d6099"/><path d="M178.46,97.74a535.68,535.68,0,0,1,16.47,75.75c1.85,12.74,2.49,25.23-2,37.54A40,40,0,0,1,169,235c-1.7.59-1,3.32.75,2.71,9.76-3.54,18.08-9.77,23.15-19,6.39-11.57,5-24.56,3.54-37.19-3.29-28.13-7.29-57.26-16.72-84.1-.26-.76-1.45-.45-1.22.34Z" transform="translate(0 30.42)" style="fill:#0d6099"/><path d="M237.08,80.51c12.78,18,19,42.45,38,55.45,8.89,6.09,20.78,9.38,31.36,10.73,10.14,1.29,23.86,1.76,32.78-4.06a1.06,1.06,0,0,0-.81-1.93c-5.49,1-10.68,3-16.28,3.58a74.94,74.94,0,0,1-17.7-.74C293.27,142,282.09,139.3,273.2,132c-16.64-13.66-22.62-35.21-34.86-52.22-.55-.75-1.8,0-1.26.73Z" transform="translate(0 30.42)" style="fill:#0d6099"/><path d="M70.7,114.29c0,12.71-.23,25.41-.39,38.12-.15,12.34-.16,24.83-3.32,36.86a57.09,57.09,0,0,1-45.25,42.18c-1.47.27-.86,2.58.63,2.26,20.72-4.5,38.47-18.2,44.6-39.06,3.53-12,4-24.94,5-37.35a278.17,278.17,0,0,0,.06-43,.68.68,0,0,0-1.36,0Z" transform="translate(0 30.42)" style="fill:#0d6099"/><circle cx="154.5" cy="109.5" r="9.5" style="fill:#0d6099;opacity:0.5"/><circle cx="152.5" cy="106.5" r="9.5" style="fill:#ffba1f"/></g></g></g></svg>