<svg width="1000" height="1000" viewBox="0 0 1000 1000" fill="none" xmlns="http://www.w3.org/2000/svg">
<ellipse cx="551.99" cy="735.843" rx="246.997" ry="45.953" fill="#DBDBEE"/>
<path d="M518.136 709.042C487.075 700.532 428.783 691.171 444.101 721.807C459.418 752.442 499.84 726.061 518.136 709.042Z" fill="#161E33"/>
<path d="M444.101 495.871L518.136 709.042M518.136 709.042C487.075 700.532 428.783 691.171 444.101 721.807C459.418 752.442 499.84 726.061 518.136 709.042Z" stroke="#161E33" stroke-width="5.10588"/>
<path d="M588.375 709.042C619.436 700.532 677.728 691.171 662.411 721.807C647.093 752.442 606.671 726.061 588.375 709.042Z" fill="#161E33"/>
<path d="M662.411 495.871L588.375 709.042M588.375 709.042C619.436 700.532 677.728 691.171 662.411 721.807C647.093 752.442 606.671 726.061 588.375 709.042Z" stroke="#161E33" stroke-width="5.10588"/>
<rect x="899.195" y="326.736" width="183.812" height="693.124" rx="12.7647" transform="rotate(90 899.195 326.736)" fill="#F15555"/>
<mask id="mask0" mask-type="alpha" maskUnits="userSpaceOnUse" x="206" y="326" width="694" height="185">
<rect x="899.203" y="326.739" width="183.812" height="693.124" rx="12.7647" transform="rotate(90 899.203 326.739)" fill="#F15555"/>
</mask>
<g mask="url(#mask0)">
<circle cx="351.523" cy="366.595" r="9.85758" fill="#FFA178"/>
<ellipse cx="353.666" cy="458.085" rx="13.5054" ry="18.0072" transform="rotate(39.2856 353.666 458.085)" fill="#FFA178"/>
<ellipse cx="393.096" cy="398.936" rx="13.5054" ry="18.0072" transform="rotate(-37.6027 393.096 398.936)" fill="#FFA178"/>
<path d="M348.402 699.466C687.433 624.41 747.938 362.265 735.811 240.575H1019.19L1062.59 537.993L832.823 563.522L861.544 785.628L499.026 829.028L348.402 699.466Z" fill="#E84141"/>
<circle r="9.85758" transform="matrix(-1 0 0 1 778.01 366.595)" fill="#FFA178"/>
<ellipse rx="13.5054" ry="18.0072" transform="matrix(-0.773999 0.633187 0.633187 0.773999 775.867 458.085)" fill="#FFA178"/>
<ellipse rx="13.5054" ry="18.0072" transform="matrix(-0.792261 -0.610183 -0.610183 0.792261 736.444 398.936)" fill="#FFA178"/>
</g>
<path d="M242.666 233.591C196.569 249.2 194.55 305.946 199.303 332.367L216.408 341.81C244.368 299.233 288.764 217.982 242.666 233.591Z" fill="#F15555"/>
<path d="M119.348 278.575C163.822 258.808 203.766 299.164 218.179 321.813L212.002 340.35C162.587 327.994 74.8737 298.341 119.348 278.575Z" fill="#F15555"/>
<path d="M118.423 387.313C127.372 339.474 183.266 329.469 210.094 330.447L221.856 346.049C183.649 379.736 109.474 435.152 118.423 387.313Z" fill="#F15555"/>
<ellipse cx="617.823" cy="417.929" rx="62.1775" ry="73.2313" transform="rotate(20.83 617.823 417.929)" fill="white"/>
<circle cx="624.52" cy="404.214" r="19.3274" transform="rotate(20.83 624.52 404.214)" fill="#161E33"/>
<ellipse cx="492.827" cy="403.365" rx="44.4695" ry="52.3751" transform="rotate(20.83 492.827 403.365)" fill="white"/>
<circle cx="497.614" cy="393.555" r="9.8821" transform="rotate(20.83 497.614 393.555)" fill="#161E33"/>
</svg>
