<svg xmlns="http://www.w3.org/2000/svg" xmlns:xlink="http://www.w3.org/1999/xlink" viewBox="0 0 655 630.15"><defs><clipPath id="clip-path" transform="translate(10.22)"><path d="M357.78,152.15s151.35-209.19,235-137c73,63,25.33,92.42,33,145,7,48,14.68,75.7,0,124-24,79-146.18,165.48-272-61Z" style="fill:#f13636"/></clipPath><clipPath id="clip-path-2" transform="translate(10.22)"><path d="M276.37,152.15S125-57,41.37,15.15c-73,63-25.33,92.42-33,145-7,48-14.68,75.7,0,124,24,79,146.18,165.48,272-61Z" style="fill:#f13636"/></clipPath><clipPath id="clip-path-3" transform="translate(10.22)"><path d="M249.26,244.79c-6.95-23.51-20-92.27,6.52-113.64,21.92-17.68,93.48-14.36,117.48,6.64s13.52,103.36-5,121C345.75,280.22,262.26,288.79,249.26,244.79Z" style="fill:#f13636"/></clipPath></defs><g style="isolation:isolate"><g id="Layer_2" data-name="Layer 2"><g id="Layer_3" data-name="Layer 3"><path d="M412.78,254.15s72,146,113,180-56.6,66.2-85,123c-27,54-28,73-28,73s-3.2-166.25-11-254c-8-90-65-136-65-136l42-27Z" transform="translate(10.22)" style="fill:#f13636"/><path d="M214.15,254.15s-72,146-113,180,56.6,66.2,85,123c27,54,28,73,28,73s3.2-166.25,11-254c8-90,65-136,65-136l-42-27Z" transform="translate(10.22)" style="fill:#f13636"/><path d="M357.78,152.15s151.35-209.19,235-137c73,63,25.33,92.42,33,145,7,48,14.68,75.7,0,124-24,79-146.18,165.48-272-61Z" transform="translate(10.22)" style="fill:#f13636"/><g style="clip-path:url(#clip-path)"><path d="M644.78,166.15c-32-29-149-34-184-9s42-12,92,3a449.77,449.77,0,0,1,89,38Z" transform="translate(10.22)" style="fill:#c10505;opacity:0.46;mix-blend-mode:multiply"/><path d="M634.15,223.15s-23.37,94-112.37,90-161-84-161-84l-7,63,155,86,75-16,58-71-7.63-68" transform="translate(10.22)" style="fill:#c10505;opacity:0.46;mix-blend-mode:multiply"/><path d="M335.3,207.5a306.24,306.24,0,0,1,63.79-64.16c24-17.75,50.47-31.64,77.7-43.79,2.56-1.14.72-5.16-1.88-4.45-59.07,16.07-111.25,59-145.27,109.09-2.41,3.55,3.2,6.64,5.66,3.31Z" transform="translate(10.22)" style="fill:#ce0808"/><path d="M336.48,194.16c24.67-10,52.25-9.37,77.7-2.83,26.37,6.78,50,20.07,75.09,30,3.55,1.41,5.59-4.12,2.53-6-24-14.75-51.28-26.74-78.88-32.75-26.37-5.73-53.88-5.22-78.67,6.22-3,1.36-.83,6.54,2.23,5.31Z" transform="translate(10.22)" style="fill:#ce0808"/></g><path d="M276.37,152.15S125-57,41.37,15.15c-73,63-25.33,92.42-33,145-7,48-14.68,75.7,0,124,24,79,146.18,165.48,272-61Z" transform="translate(10.22)" style="fill:#f13636"/><g style="clip-path:url(#clip-path-2)"><path d="M-10.22,166.15c32-29,148.59-34,183.59-9s-42-12-92,3a439.18,439.18,0,0,0-88.59,38Z" transform="translate(10.22)" style="fill:#c10505;opacity:0.46;mix-blend-mode:multiply"/><path d="M0,223.15s23.37,94,112.37,90,161-84,161-84l7,63-128,108-98-17-60.59-100,6.22-60" transform="translate(10.22)" style="fill:#c10505;opacity:0.46;mix-blend-mode:multiply"/><path d="M292.6,191.1a256,256,0,0,0-58.25-54.82c-22.1-15.25-46.93-28.37-73.31-34.1-2.83-.62-5.07,3.66-2.1,5,24,10.58,47.8,21.1,69.83,35.47s42.12,32,60.22,51.26c1.74,1.85,5.22-.68,3.61-2.78Z" transform="translate(10.22)" style="fill:#ce0808"/><path d="M301.56,210.84c-22.86-15.5-52.86-12.55-78.76-8.75-30,4.42-59.72,13.13-86.27,28.06-2.39,1.34-.78,5.54,1.92,4.54,26.72-9.88,53.85-19.08,81.89-24.47,25.34-4.87,55.88-10.59,78.8,4.74,2.57,1.72,4.95-2.41,2.42-4.12Z" transform="translate(10.22)" style="fill:#ce0808"/></g><path d="M249.26,244.79c-6.95-23.51-20-92.27,6.52-113.64,21.92-17.68,93.48-14.36,117.48,6.64s13.52,103.36-5,121C345.75,280.22,262.26,288.79,249.26,244.79Z" transform="translate(10.22)" style="fill:#f13636"/><g style="clip-path:url(#clip-path-3)"><path d="M251.78,120.15s64-1,91,24,25.9,161.92-93.55,118.46l76.55,40.54,79-19,6-179-93-27Z" transform="translate(10.22)" style="fill:#c10505;opacity:0.46;mix-blend-mode:multiply"/></g></g></g></g></svg>