<svg width="293" height="254" viewBox="0 0 293 254" fill="none" xmlns="http://www.w3.org/2000/svg">
<ellipse cx="146.5" cy="240" rx="146.5" ry="14" fill="#ECECF9"/>
<path d="M235.947 238.893C245.523 232.206 264.299 221.914 262.794 234.244C261.288 246.575 244.268 242.481 235.947 238.893Z" fill="#46516B"/>
<path fill-rule="evenodd" clip-rule="evenodd" d="M232.556 185.279L239.337 185.279L239.337 232.635C243.493 230.101 248.267 227.592 252.471 226.215C254.041 225.701 255.632 225.31 257.151 225.16C258.643 225.012 260.286 225.073 261.816 225.671C263.456 226.313 264.802 227.516 265.57 229.269C266.289 230.909 266.389 232.769 266.159 234.655C265.675 238.623 263.852 241.602 261.017 243.496C258.324 245.295 255.057 245.889 251.969 245.928C245.816 246.006 238.98 243.893 234.604 242.006L232.556 241.123L232.556 185.279ZM243.632 237.963C246.374 238.69 249.279 239.181 251.884 239.148C254.28 239.118 256.07 238.647 257.251 237.858C258.29 237.164 259.16 236.031 259.428 233.834C259.574 232.639 259.418 232.123 259.36 231.991C259.356 231.99 259.351 231.988 259.345 231.986C259.177 231.92 258.718 231.818 257.82 231.907C256.948 231.993 255.862 232.239 254.581 232.659C251.246 233.751 247.285 235.782 243.632 237.963Z" fill="#46516B"/>
<path d="M58.4217 238.893C48.8456 232.206 30.0696 221.914 31.5747 234.245C33.0798 246.575 50.0999 242.481 58.4217 238.893Z" fill="#46516B"/>
<path fill-rule="evenodd" clip-rule="evenodd" d="M55.0314 232.636L55.0316 185.28L61.8121 185.28L61.8118 241.123L59.7639 242.006C55.3883 243.893 48.5523 246.006 42.399 245.928C39.3116 245.889 36.0442 245.296 33.351 243.497C30.516 241.603 28.6937 238.623 28.2094 234.656C27.9791 232.769 28.0795 230.909 28.7981 229.269C29.5661 227.517 30.9126 226.313 32.5523 225.672C34.0823 225.073 35.7254 225.012 37.2173 225.16C38.7358 225.311 40.3272 225.701 41.8977 226.216C46.1013 227.592 50.8751 230.101 55.0314 232.636ZM50.736 237.963C47.0833 235.782 43.1223 233.751 39.7876 232.659C38.5066 232.24 37.4198 231.994 36.5482 231.907C35.6502 231.818 35.1916 231.92 35.0234 231.986C35.0172 231.988 35.0122 231.99 35.0082 231.991C34.9505 232.124 34.794 232.639 34.9399 233.834C35.2081 236.031 36.0778 237.164 37.1173 237.858C38.2987 238.648 40.0887 239.118 42.4847 239.148C45.0897 239.181 47.9939 238.69 50.736 237.963Z" fill="#46516B"/>
<path d="M254.7 180.099C256.5 183.899 257.4 187.599 257.4 191.199C257.4 197.799 254.7 203.399 249.3 207.999C244.1 212.599 238.1 214.899 231.3 214.899C226.7 214.899 222.5 213.699 218.7 211.299C214.9 208.899 211.9 205.299 209.7 200.499L196.2 170.199H99.0001L85.2001 200.499C83.0001 205.299 79.9001 208.899 75.9001 211.299C72.1001 213.699 67.9001 214.899 63.3001 214.899C56.5001 214.899 50.3001 212.599 44.7001 207.999C39.3001 203.399 36.6001 197.799 36.6001 191.199C36.6001 187.599 37.5001 183.899 39.3001 180.099L118.5 17.4992C121.1 12.0992 124.9 7.99921 129.9 5.19921C135.1 2.19922 140.8 0.699219 147 0.699219C153 0.699219 158.6 2.19922 163.8 5.19921C169 7.99921 172.9 12.0992 175.5 17.4992L254.7 180.099ZM117.6 128.799H177.6L147.6 61.8992L117.6 128.799Z" fill="#F04646"/>
<mask id="mask0" mask-type="alpha" maskUnits="userSpaceOnUse" x="36" y="0" width="222" height="215">
<path d="M254.7 180.099C256.5 183.899 257.4 187.599 257.4 191.199C257.4 197.799 254.7 203.399 249.3 207.999C244.1 212.599 238.1 214.899 231.3 214.899C226.7 214.899 222.5 213.699 218.7 211.299C214.9 208.899 211.9 205.299 209.7 200.499L196.2 170.199H99.0001L85.2001 200.499C83.0001 205.299 79.9001 208.899 75.9001 211.299C72.1001 213.699 67.9001 214.899 63.3001 214.899C56.5001 214.899 50.3001 212.599 44.7001 207.999C39.3001 203.399 36.6001 197.799 36.6001 191.199C36.6001 187.599 37.5001 183.899 39.3001 180.099L118.5 17.4992C121.1 12.0992 124.9 7.99921 129.9 5.19921C135.1 2.19922 140.8 0.699219 147 0.699219C153 0.699219 158.6 2.19922 163.8 5.19921C169 7.99921 172.9 12.0992 175.5 17.4992L254.7 180.099ZM117.6 128.799H177.6L147.6 61.8992L117.6 128.799Z" fill="#F04646"/>
</mask>
<g mask="url(#mask0)">
<rect x="3.00012" y="83.9992" width="314" height="14" transform="rotate(-30 3.00012 83.9992)" fill="#E13535"/>
<rect x="3.00012" y="114.999" width="314" height="14" transform="rotate(-30 3.00012 114.999)" fill="#E13535"/>
<rect x="3.00012" y="145.999" width="314" height="14" transform="rotate(-30 3.00012 145.999)" fill="#E13535"/>
<rect x="3.00012" y="176.999" width="314" height="14" transform="rotate(-30 3.00012 176.999)" fill="#E13535"/>
<rect x="3.00012" y="207.999" width="314" height="14" transform="rotate(-30 3.00012 207.999)" fill="#E13535"/>
<rect x="3.00012" y="238.999" width="314" height="14" transform="rotate(-30 3.00012 238.999)" fill="#E13535"/>
<rect x="3.00012" y="269.999" width="314" height="14" transform="rotate(-30 3.00012 269.999)" fill="#E13535"/>
<rect x="3.00012" y="300.999" width="314" height="14" transform="rotate(-30 3.00012 300.999)" fill="#E13535"/>
<rect x="3.00012" y="331.999" width="314" height="14" transform="rotate(-30 3.00012 331.999)" fill="#E13535"/>
<g style="mix-blend-mode:multiply">
<path d="M78 -28C81.3118 -27.8576 85.0299 -27.3712 89.0522 -26.4756L165 -16L270 177L283 221H32L-59 166C33 198.667 212.4 235.2 194 120C177.566 17.1071 122.68 -18.9877 89.0522 -26.4756L78 -28Z" fill="#E13535" fill-opacity="0.28"/>
</g>
</g>
<path d="M129.572 134.183C142.269 143.749 162.895 137.888 171.622 133.761C167.192 146.743 155.235 170.852 142.841 163.441C130.448 156.03 128.831 140.848 129.572 134.183Z" fill="#B00505"/>
<path d="M136.574 157.915C140.597 147.462 153.978 152.568 160.166 156.427C157.98 159.328 152.404 165.025 147.585 164.605C142.765 164.184 138.237 159.969 136.574 157.915Z" fill="#D51212"/>
<ellipse cx="147.886" cy="32.5994" rx="20.8863" ry="24.5994" fill="white"/>
<circle cx="148.352" cy="27.4883" r="4.6414" fill="#161E33"/>
</svg>
