<svg width="237" height="252" viewBox="0 0 237 252" fill="none" xmlns="http://www.w3.org/2000/svg">
<ellipse cx="118.5" cy="237.004" rx="118.5" ry="14" fill="#ECECF9"/>
<path d="M152.947 235.897C162.523 229.21 181.299 218.918 179.794 231.249C178.289 243.579 161.269 239.485 152.947 235.897Z" fill="#46516B"/>
<path fill-rule="evenodd" clip-rule="evenodd" d="M156.337 229.64L156.337 182.284L149.556 182.284L149.557 238.127L151.604 239.01C155.98 240.897 162.816 243.01 168.969 242.932C172.057 242.893 175.324 242.3 178.017 240.501C180.852 238.607 182.675 235.627 183.159 231.659C183.389 229.773 183.289 227.913 182.57 226.273C181.802 224.521 180.456 223.317 178.816 222.676C177.286 222.077 175.643 222.016 174.151 222.164C172.633 222.315 171.041 222.705 169.471 223.219C165.267 224.596 160.493 227.105 156.337 229.64ZM160.632 234.967C164.285 232.786 168.246 230.755 171.581 229.663C172.862 229.244 173.949 228.998 174.82 228.911C175.718 228.822 176.177 228.924 176.345 228.99C176.351 228.992 176.356 228.994 176.36 228.995C176.418 229.127 176.574 229.643 176.428 230.838C176.16 233.035 175.291 234.168 174.251 234.862C173.07 235.652 171.28 236.122 168.884 236.152C166.279 236.185 163.374 235.694 160.632 234.967Z" fill="#46516B"/>
<path d="M94.4218 235.897C84.8457 229.21 66.0697 218.918 67.5748 231.249C69.08 243.579 86.1 239.485 94.4218 235.897Z" fill="#46516B"/>
<path fill-rule="evenodd" clip-rule="evenodd" d="M91.0317 229.64L91.0319 182.284L97.8124 182.284L97.8121 238.127L95.7642 239.01C91.3885 240.897 84.5525 243.01 78.3992 242.932C75.3119 242.893 72.0445 242.3 69.3513 240.501C66.5162 238.607 64.694 235.627 64.2096 231.659C63.9794 229.773 64.0798 227.913 64.7984 226.273C65.5664 224.521 66.9129 223.317 68.5525 222.676C70.0825 222.077 71.7257 222.016 73.2176 222.164C74.736 222.315 76.3275 222.705 77.898 223.219C82.1016 224.596 86.8753 227.105 91.0317 229.64ZM86.7363 234.967C83.0835 232.786 79.1225 230.755 75.7878 229.663C74.5069 229.244 73.4201 228.998 72.5485 228.911C71.6505 228.822 71.1919 228.924 71.0237 228.99C71.0174 228.992 71.0124 228.994 71.0085 228.995C70.9508 229.127 70.7943 229.643 70.9401 230.838C71.2084 233.035 72.078 234.168 73.1176 234.862C74.299 235.652 76.089 236.122 78.485 236.152C81.09 236.185 83.9942 235.694 86.7363 234.967Z" fill="#46516B"/>
<path d="M175.1 104.204C187.5 108.004 197 114.404 203.6 123.404C210.2 132.204 213.5 143.104 213.5 156.104C213.5 167.704 210.4 177.904 204.2 186.704C198.2 195.304 189.5 202.004 178.1 206.804C166.9 211.604 153.7 214.004 138.5 214.004H58.7002C50.5002 214.004 44.2002 211.804 39.8002 207.404C35.4002 203.004 33.2002 196.704 33.2002 188.504V28.004C33.2002 19.804 35.4002 13.504 39.8002 9.10397C44.2002 4.70397 50.5002 2.50397 58.7002 2.50397H135.5C157.7 2.50397 175.3 7.50397 188.3 17.504C201.5 27.304 208.1 40.604 208.1 57.404C208.1 68.204 205.2 77.804 199.4 86.204C193.6 94.404 185.5 100.404 175.1 104.204ZM86.9002 85.604H126.2C136.6 85.604 144.2 84.004 149 80.804C153.8 77.604 156.2 72.504 156.2 65.504C156.2 58.104 153.8 52.704 149 49.304C144.2 45.904 136.6 44.204 126.2 44.204H86.9002V85.604ZM131.6 172.304C142.6 172.304 150.4 170.604 155 167.204C159.8 163.604 162.2 157.804 162.2 149.804C162.2 141.804 159.8 136.104 155 132.704C150.4 129.104 142.6 127.304 131.6 127.304H86.9002V172.304H131.6Z" fill="#F06F46"/>
<mask id="mask0" mask-type="alpha" maskUnits="userSpaceOnUse" x="33" y="2" width="181" height="212">
<path d="M174.9 103.704C187.3 107.504 196.8 113.904 203.4 122.904C210 131.704 213.3 142.604 213.3 155.604C213.3 167.204 210.2 177.404 204 186.204C198 194.804 189.3 201.504 177.9 206.304C166.7 211.104 153.5 213.504 138.3 213.504H58.5C50.3 213.504 44 211.304 39.6 206.904C35.2 202.504 33 196.204 33 188.004V27.504C33 19.304 35.2 13.004 39.6 8.60397C44 4.20397 50.3 2.00397 58.5 2.00397H135.3C157.5 2.00397 175.1 7.00397 188.1 17.004C201.3 26.804 207.9 40.104 207.9 56.904C207.9 67.704 205 77.304 199.2 85.704C193.4 93.904 185.3 99.904 174.9 103.704ZM86.7 85.104H126C136.4 85.104 144 83.504 148.8 80.304C153.6 77.104 156 72.004 156 65.004C156 57.604 153.6 52.204 148.8 48.804C144 45.404 136.4 43.704 126 43.704H86.7V85.104ZM131.4 171.804C142.4 171.804 150.2 170.104 154.8 166.704C159.6 163.104 162 157.304 162 149.304C162 141.304 159.6 135.604 154.8 132.204C150.2 128.604 142.4 126.804 131.4 126.804H86.7V171.804H131.4Z" fill="#F06F46"/>
</mask>
<g mask="url(#mask0)">
<circle cx="185.8" cy="23.504" r="19" fill="#E3592D"/>
<circle cx="166.8" cy="77.504" r="12" fill="#E3592D"/>
<circle cx="139.8" cy="23.504" r="7" fill="#E3592D"/>
<circle cx="87.3" cy="40.004" r="16.5" fill="#E3592D"/>
<circle cx="49.3" cy="16.004" r="4.5" fill="#E3592D"/>
<circle cx="38.8" cy="66.504" r="11" fill="#E3592D"/>
<circle cx="70.8" cy="104.504" r="7" fill="#E3592D"/>
<path d="M159.8 92.004C127.4 109.604 90.9667 99.3373 76.8 92.004C83.3 101.004 100.8 119.004 118.8 119.004C136.8 119.004 153.633 101.004 159.8 92.004Z" fill="#BD2F02"/>
<path d="M117.8 110.004C109 110.004 102.133 112.004 99.8 113.004C106.351 116.868 112.22 118.844 117.8 119.004C125.506 119.224 132.206 116.437 135.3 114.504C133.133 113.004 126.6 110.004 117.8 110.004Z" fill="#D74112"/>
<circle cx="173.8" cy="125.504" r="7" fill="#E3592D"/>
<circle cx="207.8" cy="147.504" r="15" fill="#E3592D"/>
<circle cx="190.8" cy="177.504" r="5" fill="#E3592D"/>
<circle cx="149.8" cy="187.504" r="10" fill="#E3592D"/>
<circle cx="53.3" cy="203.004" r="15.5" fill="#E3592D"/>
<circle cx="43.3" cy="158.004" r="4.5" fill="#E3592D"/>
<circle cx="80.3" cy="158.004" r="11.5" fill="#E3592D"/>
<circle cx="98.8" cy="202.504" r="5" fill="#E3592D"/>
<circle cx="121.8" cy="174.504" r="5" fill="#E3592D"/>
<g style="mix-blend-mode:multiply">
<path d="M17.0002 217.504C257.8 195.904 167.334 47.1706 92.0002 -24.496H247L263 225.504C80.6669 231.837 -223.8 239.104 17.0002 217.504Z" fill="#F06F46" fill-opacity="0.38"/>
</g>
</g>
<ellipse cx="63.1837" cy="25.4243" rx="18.5" ry="20.5" transform="rotate(-19.0751 63.1837 25.4243)" fill="white"/>
<circle cx="67.6414" cy="19.6454" r="4.6414" fill="#161E33"/>
<ellipse cx="63.1837" cy="25.4242" rx="18.5" ry="20.5" transform="rotate(-19.0751 63.1837 25.4242)" fill="white"/>
<circle cx="67.6414" cy="19.6454" r="4.6414" fill="#161E33"/>
<ellipse rx="18.5" ry="20.5" transform="matrix(-0.945091 -0.326807 -0.326807 0.945091 165.184 25.4242)" fill="white"/>
<circle r="4.6414" transform="matrix(-1 0 0 1 160.726 19.6454)" fill="#161E33"/>
</svg>
