<svg width="210" height="255" viewBox="0 0 210 255" fill="none" xmlns="http://www.w3.org/2000/svg">
<ellipse cx="105.5" cy="241" rx="104.5" ry="14" fill="#ECECF9"/>
<path d="M130.947 239.893C140.523 233.206 159.299 222.914 157.794 235.245C156.289 247.575 139.269 243.481 130.947 239.893Z" fill="#46516B"/>
<path fill-rule="evenodd" clip-rule="evenodd" d="M134.337 233.636L134.337 186.28L127.556 186.28L127.556 242.123L129.604 243.006C133.98 244.893 140.816 247.006 146.969 246.928C150.057 246.889 153.324 246.296 156.017 244.497C158.852 242.603 160.675 239.623 161.159 235.655C161.389 233.769 161.289 231.909 160.57 230.269C159.802 228.517 158.456 227.313 156.816 226.672C155.286 226.073 153.643 226.012 152.151 226.16C150.633 226.311 149.041 226.701 147.471 227.216C143.267 228.592 138.493 231.101 134.337 233.636ZM138.632 238.963C142.285 236.782 146.246 234.751 149.581 233.659C150.862 233.24 151.949 232.994 152.82 232.907C153.718 232.818 154.177 232.92 154.345 232.986C154.351 232.988 154.356 232.99 154.36 232.991C154.418 233.123 154.574 233.639 154.428 234.834C154.16 237.031 153.291 238.164 152.251 238.858C151.07 239.648 149.28 240.118 146.884 240.148C144.279 240.181 141.374 239.69 138.632 238.963Z" fill="#46516B"/>
<path d="M72.4218 239.893C62.8457 233.206 44.0697 222.914 45.5748 235.245C47.08 247.575 64.1 243.481 72.4218 239.893Z" fill="#46516B"/>
<path fill-rule="evenodd" clip-rule="evenodd" d="M69.0317 233.636L69.0319 186.28L75.8124 186.28L75.8121 242.123L73.7642 243.006C69.3885 244.893 62.5525 247.006 56.3992 246.928C53.3119 246.889 50.0445 246.296 47.3513 244.497C44.5162 242.603 42.694 239.623 42.2096 235.655C41.9794 233.769 42.0798 231.909 42.7984 230.269C43.5664 228.517 44.9129 227.313 46.5525 226.672C48.0825 226.073 49.7257 226.012 51.2176 226.16C52.736 226.311 54.3275 226.701 55.898 227.216C60.1016 228.592 64.8753 231.101 69.0317 233.636ZM64.7363 238.963C61.0835 236.782 57.1225 234.751 53.7878 233.659C52.5069 233.24 51.4201 232.994 50.5485 232.907C49.6505 232.818 49.1919 232.92 49.0237 232.986C49.0174 232.988 49.0124 232.99 49.0085 232.991C48.9508 233.123 48.7943 233.639 48.9401 234.834C49.2084 237.031 50.078 238.164 51.1176 238.858C52.299 239.648 54.089 240.118 56.485 240.148C59.09 240.181 61.9942 239.69 64.7363 238.963Z" fill="#46516B"/>
<path d="M106.4 217.701C85.1998 217.701 66.5998 213.301 50.5998 204.501C34.7998 195.701 22.4998 183.101 13.6998 166.701C5.0998 150.301 0.799805 131.101 0.799805 109.101C0.799805 87.3008 5.0998 68.2008 13.6998 51.8008C22.4998 35.4008 34.7998 22.8008 50.5998 14.0008C66.5998 5.20078 85.1998 0.800781 106.4 0.800781C131.8 0.800781 154.1 7.50078 173.3 20.9008C176.7 23.3008 179.1 25.9008 180.5 28.7008C182.1 31.5008 182.9 35.1008 182.9 39.5008C182.9 45.7008 181.1 51.0008 177.5 55.4008C174.1 59.6008 169.9 61.7008 164.9 61.7008C161.9 61.7008 159.2 61.3008 156.8 60.5008C154.4 59.5008 151.6 58.0008 148.4 56.0008C141.4 51.8008 134.8 48.8008 128.6 47.0008C122.4 45.2008 116 44.3008 109.4 44.3008C91.5998 44.3008 78.2998 49.7008 69.4998 60.5008C60.8998 71.1008 56.5998 87.3008 56.5998 109.101C56.5998 131.101 60.8998 147.501 69.4998 158.301C78.2998 168.901 91.5998 174.201 109.4 174.201C115.4 174.201 121.2 173.301 126.8 171.501C132.4 169.501 139.6 166.501 148.4 162.501C152.6 160.301 155.7 158.801 157.7 158.001C159.7 157.201 162.1 156.801 164.9 156.801C169.9 156.801 174.1 159.001 177.5 163.401C181.1 167.601 182.9 172.801 182.9 179.001C182.9 183.201 182.1 186.801 180.5 189.801C179.1 192.601 176.7 195.201 173.3 197.601C154.1 211.001 131.8 217.701 106.4 217.701Z" fill="#F09846"/>
<mask id="mask0" mask-type="alpha" maskUnits="userSpaceOnUse" x="0" y="0" width="183" height="218">
<path d="M106.4 217.701C85.1998 217.701 66.5998 213.301 50.5998 204.501C34.7998 195.701 22.4998 183.101 13.6998 166.701C5.0998 150.301 0.799805 131.101 0.799805 109.101C0.799805 87.3008 5.0998 68.2008 13.6998 51.8008C22.4998 35.4008 34.7998 22.8008 50.5998 14.0008C66.5998 5.20078 85.1998 0.800781 106.4 0.800781C131.8 0.800781 154.1 7.50078 173.3 20.9008C176.7 23.3008 179.1 25.9008 180.5 28.7008C182.1 31.5008 182.9 35.1008 182.9 39.5008C182.9 45.7008 181.1 51.0008 177.5 55.4008C174.1 59.6008 169.9 61.7008 164.9 61.7008C161.9 61.7008 159.2 61.3008 156.8 60.5008C154.4 59.5008 151.6 58.0008 148.4 56.0008C141.4 51.8008 134.8 48.8008 128.6 47.0008C122.4 45.2008 116 44.3008 109.4 44.3008C91.5998 44.3008 78.2998 49.7008 69.4998 60.5008C60.8998 71.1008 56.5998 87.3008 56.5998 109.101C56.5998 131.101 60.8998 147.501 69.4998 158.301C78.2998 168.901 91.5998 174.201 109.4 174.201C115.4 174.201 121.2 173.301 126.8 171.501C132.4 169.501 139.6 166.501 148.4 162.501C152.6 160.301 155.7 158.801 157.7 158.001C159.7 157.201 162.1 156.801 164.9 156.801C169.9 156.801 174.1 159.001 177.5 163.401C181.1 167.601 182.9 172.801 182.9 179.001C182.9 183.201 182.1 186.801 180.5 189.801C179.1 192.601 176.7 195.201 173.3 197.601C154.1 211.001 131.8 217.701 106.4 217.701Z" fill="#F09846"/>
</mask>
<g mask="url(#mask0)">
<rect x="149.428" y="264.303" width="314" height="14" transform="rotate(-150 149.428 264.303)" fill="#E88122"/>
<rect x="176.275" y="248.803" width="314" height="14" transform="rotate(-150 176.275 248.803)" fill="#E88122"/>
<rect x="203.121" y="233.303" width="314" height="14" transform="rotate(-150 203.121 233.303)" fill="#E88122"/>
<rect x="229.968" y="217.803" width="314" height="14" transform="rotate(-150 229.968 217.803)" fill="#E88122"/>
<rect x="256.815" y="202.303" width="314" height="14" transform="rotate(-150 256.815 202.303)" fill="#E88122"/>
<rect x="283.662" y="186.803" width="314" height="14" transform="rotate(-150 283.662 186.803)" fill="#E88122"/>
<rect x="310.509" y="171.303" width="314" height="14" transform="rotate(-150 310.509 171.303)" fill="#E88122"/>
<rect x="337.355" y="155.803" width="314" height="14" transform="rotate(-150 337.355 155.803)" fill="#E88122"/>
<rect x="364.202" y="140.303" width="314" height="14" transform="rotate(-150 364.202 140.303)" fill="#E88122"/>
<rect x="-53.3771" y="146.293" width="314" height="14" transform="rotate(-61.7532 -53.3771 146.293)" fill="#E88122"/>
<rect x="-37.063" y="172.653" width="314" height="14" transform="rotate(-61.7532 -37.063 172.653)" fill="#E88122"/>
<rect x="-20.749" y="199.013" width="314" height="14" transform="rotate(-61.7532 -20.749 199.013)" fill="#E88122"/>
<rect x="-4.43488" y="225.373" width="314" height="14" transform="rotate(-61.7532 -4.43488 225.373)" fill="#E88122"/>
<rect x="11.8792" y="251.733" width="314" height="14" transform="rotate(-61.7532 11.8792 251.733)" fill="#E88122"/>
<rect x="28.1933" y="278.093" width="314" height="14" transform="rotate(-61.7532 28.1933 278.093)" fill="#E88122"/>
<rect x="44.5074" y="304.453" width="314" height="14" transform="rotate(-61.7532 44.5074 304.453)" fill="#E88122"/>
<rect x="60.8215" y="330.813" width="314" height="14" transform="rotate(-61.7532 60.8215 330.813)" fill="#E88122"/>
<rect x="77.1356" y="357.173" width="314" height="14" transform="rotate(-61.7532 77.1356 357.173)" fill="#E88122"/>
<g style="mix-blend-mode:multiply">
<path d="M150 128C149.2 31.1992 105.667 -14.9991 84.0002 -25.9981L188 8.99994L209 194L103 241.002L-21.0002 180.002C36.3333 203.002 150.8 224.801 150 128Z" fill="#E88122" fill-opacity="0.36"/>
</g>
<path d="M149 178C116.6 195.6 80.1662 185.333 65.9996 178C72.4996 187 89.9996 205 108 205C126 205 142.833 187 149 178Z" fill="#AC5300"/>
<path d="M107 196C98.1996 196 91.3329 198 88.9996 199C95.5509 202.864 101.42 204.84 107 205C114.706 205.221 121.406 202.434 124.5 200.5C122.333 199 115.8 196 107 196Z" fill="#D16A0B"/>
</g>
<ellipse rx="14.5553" ry="16.1288" transform="matrix(-0.945091 -0.326807 -0.326807 0.945091 124.42 23.9999)" fill="white"/>
<circle r="3.65173" transform="matrix(-1 0 0 1 120.913 19.4533)" fill="#161E33"/>
<ellipse cx="87.0271" cy="23.9999" rx="14.5553" ry="16.1288" transform="rotate(-19.0751 87.0271 23.9999)" fill="white"/>
<circle cx="90.5343" cy="19.4533" r="3.65173" fill="#161E33"/>
</svg>
