<svg width="195" height="254" viewBox="0 0 195 254" fill="none" xmlns="http://www.w3.org/2000/svg">
<ellipse cx="97.5" cy="240" rx="97.5" ry="14" fill="#ECECF9"/>
<path d="M66.9467 238.893C76.5229 232.206 95.2989 221.914 93.7937 234.245C92.2886 246.575 75.2686 242.481 66.9467 238.893Z" fill="#46516B"/>
<path fill-rule="evenodd" clip-rule="evenodd" d="M70.337 232.636L70.3367 185.28L63.5563 185.28L63.5566 241.123L65.6045 242.006C69.9801 243.893 76.8161 246.006 82.9694 245.928C86.0568 245.889 89.3242 245.296 92.0174 243.497C94.8524 241.603 96.6747 238.623 97.159 234.655C97.3893 232.769 97.2889 230.909 96.5703 229.269C95.8023 227.517 94.4558 226.313 92.8161 225.672C91.2861 225.073 89.643 225.012 88.151 225.16C86.6326 225.311 85.0411 225.701 83.4707 226.216C79.2671 227.592 74.4933 230.101 70.337 232.636ZM74.6324 237.963C78.2851 235.782 82.2461 233.751 85.5808 232.659C86.8618 232.24 87.9486 231.994 88.8202 231.907C89.7182 231.818 90.1768 231.92 90.345 231.986C90.3512 231.988 90.3562 231.99 90.3602 231.991C90.4179 232.123 90.5744 232.639 90.4285 233.834C90.1603 236.031 89.2906 237.164 88.2511 237.858C87.0697 238.648 85.2797 239.118 82.8837 239.148C80.2787 239.181 77.3745 238.69 74.6324 237.963Z" fill="#46516B"/>
<path d="M56.4218 238.893C46.8457 232.206 28.0697 221.914 29.5749 234.245C31.08 246.575 48.1 242.481 56.4218 238.893Z" fill="#46516B"/>
<path fill-rule="evenodd" clip-rule="evenodd" d="M53.0317 232.636L53.0319 185.28L59.8124 185.28L59.8121 241.123L57.7642 242.006C53.3885 243.893 46.5525 246.006 40.3992 245.928C37.3119 245.889 34.0445 245.296 31.3513 243.497C28.5162 241.603 26.694 238.623 26.2096 234.655C25.9794 232.769 26.0798 230.909 26.7984 229.269C27.5664 227.517 28.9129 226.313 30.5525 225.672C32.0825 225.073 33.7257 225.012 35.2176 225.16C36.736 225.311 38.3275 225.701 39.898 226.216C44.1016 227.592 48.8753 230.101 53.0317 232.636ZM48.7363 237.963C45.0835 235.782 41.1225 233.751 37.7878 232.659C36.5069 232.24 35.4201 231.994 34.5485 231.907C33.6505 231.818 33.1919 231.92 33.0237 231.986C33.0174 231.988 33.0124 231.99 33.0085 231.991C32.9508 232.123 32.7943 232.639 32.9401 233.834C33.2084 236.031 34.078 237.164 35.1176 237.858C36.299 238.648 38.089 239.118 40.485 239.148C43.09 239.181 45.9942 238.69 48.7363 237.963Z" fill="#46516B"/>
<path d="M61.5002 223.8C53.3002 223.8 46.7002 221.3 41.7002 216.3C36.7002 211.3 34.2002 204.7 34.2002 196.5V36C34.2002 27.8 36.4002 21.5 40.8002 17.1C45.2002 12.7 51.5002 10.5 59.7002 10.5H160.5C169.5 10.5 176.1 12.3 180.3 15.9C184.5 19.3 186.6 24.8 186.6 32.4C186.6 39.8 184.4 45.2 180 48.6C175.8 52 169.3 53.7 160.5 53.7H88.5002V92.7H154.5C163.3 92.7 169.8 94.5 174 98.1C178.4 101.7 180.6 107.2 180.6 114.6C180.6 122 178.4 127.4 174 130.8C169.8 134.2 163.3 135.9 154.5 135.9H88.5002V196.5C88.5002 204.9 86.0002 211.6 81.0002 216.6C76.2002 221.4 69.7002 223.8 61.5002 223.8Z" fill="#AFD545"/>
<mask id="mask0" mask-type="alpha" maskUnits="userSpaceOnUse" x="34" y="10" width="153" height="214">
<path d="M61.5002 223.8C53.3002 223.8 46.7002 221.3 41.7002 216.3C36.7002 211.3 34.2002 204.7 34.2002 196.5V36C34.2002 27.8 36.4002 21.5 40.8002 17.1C45.2002 12.7 51.5002 10.5 59.7002 10.5H160.5C169.5 10.5 176.1 12.3 180.3 15.9C184.5 19.3 186.6 24.8 186.6 32.4C186.6 39.8 184.4 45.2 180 48.6C175.8 52 169.3 53.7 160.5 53.7H88.5002V92.7H154.5C163.3 92.7 169.8 94.5 174 98.1C178.4 101.7 180.6 107.2 180.6 114.6C180.6 122 178.4 127.4 174 130.8C169.8 134.2 163.3 135.9 154.5 135.9H88.5002V196.5C88.5002 204.9 86.0002 211.6 81.0002 216.6C76.2002 221.4 69.7002 223.8 61.5002 223.8Z" fill="#AFD545"/>
</mask>
<g mask="url(#mask0)">
<path d="M47.3655 21.6813L61.8652 34.0409L43.9116 40.4182L47.3655 21.6813Z" fill="#95C212"/>
<path d="M118.123 21.5775L112.478 39.7746L99.5416 25.7873L118.123 21.5775Z" fill="#95C212"/>
<path d="M62.1994 56.1702L65.7027 74.8979L47.7323 68.568L62.1994 56.1702Z" fill="#95C212"/>
<path d="M90.0291 99.2037L73.3813 108.469L73.681 89.4191L90.0291 99.2037Z" fill="#95C212"/>
<path d="M48.2199 93.8301L40.6557 111.317L29.2939 96.0226L48.2199 93.8301Z" fill="#95C212"/>
<path d="M72.3533 133.28L55.1367 141.441L56.678 122.451L72.3533 133.28Z" fill="#95C212"/>
<path d="M45.9549 160.675L37.6543 177.824L26.9528 162.061L45.9549 160.675Z" fill="#95C212"/>
<path d="M89.873 171.546L71.6887 177.232L75.8565 158.641L89.873 171.546Z" fill="#95C212"/>
<path d="M64.0898 211.163L46.5075 203.823L61.6546 192.266L64.0898 211.163Z" fill="#95C212"/>
<path d="M108.927 137.449L98.7067 121.369L117.742 120.558L108.927 137.449Z" fill="#95C212"/>
<path d="M128.071 107.576L134.489 89.6363L146.816 104.164L128.071 107.576Z" fill="#95C212"/>
<path d="M146.761 130.868L160.828 118.019L164.923 136.626L146.761 130.868Z" fill="#95C212"/>
<path d="M163.364 102.47L177.431 89.6204L181.525 108.228L163.364 102.47Z" fill="#95C212"/>
<path d="M89.7992 37.5492L95.2422 55.8078L76.7084 51.3923L89.7992 37.5492Z" fill="#95C212"/>
<path d="M150.575 43.6261L140.747 59.9476L131.526 43.2748L150.575 43.6261Z" fill="#95C212"/>
<path d="M152.66 21.7951L134.3 16.706L147.887 3.35001L152.66 21.7951Z" fill="#95C212"/>
<path d="M184.267 40.4005L165.906 35.3114L179.494 21.9555L184.267 40.4005Z" fill="#95C212"/>
<g style="mix-blend-mode:multiply">
<path d="M42.4198 -27L42.6023 -26.9919C47.6982 -26.7654 52.5989 -26.5476 57.3171 -26.204L173.42 -20L258.42 38V162L195.42 249C112.42 238.333 -45.3802 217.8 -12.5802 221C28.4198 225 169.42 185 140.42 69C119.881 -13.156 94.169 -23.5197 57.3171 -26.204L42.4198 -27Z" fill="#AFD445" fill-opacity="0.42"/>
</g>
</g>
<path d="M152.082 104.141C119.682 121.741 83.2489 111.475 69.0823 104.141C75.5823 113.141 93.0823 131.141 111.082 131.141C129.082 131.141 145.916 113.141 152.082 104.141Z" fill="#749C03"/>
<path d="M108 114L99.5 113.002L98.8451 116.93C98.6573 118.057 99.4497 119.112 100.584 119.245L105.107 119.777C106.167 119.902 107.138 119.172 107.313 118.12L108 114Z" fill="white"/>
<path d="M119.004 113.227L110.458 113.693L110.489 119.8C110.495 120.98 111.514 121.898 112.688 121.781L118.321 121.217C119.492 121.101 120.309 120.004 120.086 118.849L119.004 113.227Z" fill="white"/>
<path d="M110.082 122.142C101.282 122.142 94.4158 124.142 92.0825 125.142C98.6338 129.005 104.503 130.982 110.082 131.142C117.789 131.362 124.489 128.575 127.582 126.642C125.416 125.142 118.882 122.142 110.082 122.142Z" fill="#88B40E"/>
<ellipse rx="17.7329" ry="18.6662" transform="matrix(-1 0 0 1 113.733 31.2669)" fill="#80AC03"/>
<ellipse rx="24.6618" ry="26.0319" transform="matrix(-1 0 0 1 155.338 26.0319)" fill="#80AC03"/>
<ellipse rx="13.1479" ry="13.8784" transform="matrix(-1 0 0 1 117.08 32.3108)" fill="white"/>
<circle r="3.6522" transform="matrix(-1 0 0 1 120.731 27.9313)" fill="#161E33"/>
<ellipse rx="19.3567" ry="20.4321" transform="matrix(-1 0 0 1 151.775 27.9047)" fill="white"/>
<circle r="5.37686" transform="matrix(-1 0 0 1 146.036 26.7291)" fill="#161E33"/>
</svg>
