<svg width="205" height="261" viewBox="0 0 205 261" fill="none" xmlns="http://www.w3.org/2000/svg">
<ellipse cx="102.5" cy="247" rx="102.5" ry="14" fill="#ECECF9"/>
<path d="M115.947 245.893C125.523 239.206 144.299 228.914 142.794 241.245C141.289 253.575 124.269 249.481 115.947 245.893Z" fill="#46516B"/>
<path fill-rule="evenodd" clip-rule="evenodd" d="M119.337 239.636L119.337 192.28L112.556 192.28L112.557 248.123L114.604 249.006C118.98 250.893 125.816 253.006 131.969 252.928C135.057 252.889 138.324 252.296 141.017 250.497C143.852 248.603 145.675 245.623 146.159 241.655C146.389 239.769 146.289 237.909 145.57 236.269C144.802 234.517 143.456 233.313 141.816 232.672C140.286 232.073 138.643 232.012 137.151 232.16C135.633 232.311 134.041 232.701 132.471 233.216C128.267 234.592 123.493 237.101 119.337 239.636ZM123.632 244.963C127.285 242.782 131.246 240.751 134.581 239.659C135.862 239.24 136.949 238.994 137.82 238.907C138.718 238.818 139.177 238.92 139.345 238.986C139.351 238.988 139.356 238.99 139.36 238.991C139.418 239.123 139.574 239.639 139.428 240.834C139.16 243.031 138.291 244.164 137.251 244.858C136.07 245.648 134.28 246.118 131.884 246.148C129.279 246.181 126.374 245.69 123.632 244.963Z" fill="#46516B"/>
<path d="M82.4218 245.893C72.8457 239.206 54.0697 228.914 55.5749 241.245C57.08 253.575 74.1 249.481 82.4218 245.893Z" fill="#46516B"/>
<path fill-rule="evenodd" clip-rule="evenodd" d="M79.0317 239.636L79.0319 192.28L85.8124 192.28L85.8121 248.123L83.7642 249.006C79.3885 250.893 72.5525 253.006 66.3992 252.928C63.3119 252.889 60.0445 252.296 57.3513 250.497C54.5162 248.603 52.694 245.623 52.2096 241.655C51.9794 239.769 52.0798 237.909 52.7984 236.269C53.5664 234.517 54.9129 233.313 56.5525 232.672C58.0825 232.073 59.7257 232.012 61.2176 232.16C62.736 232.311 64.3275 232.701 65.898 233.216C70.1016 234.592 74.8753 237.101 79.0317 239.636ZM74.7363 244.963C71.0835 242.782 67.1225 240.751 63.7878 239.659C62.5069 239.24 61.4201 238.994 60.5485 238.907C59.6505 238.818 59.1919 238.92 59.0237 238.986C59.0174 238.988 59.0124 238.99 59.0085 238.991C58.9508 239.123 58.7943 239.639 58.9401 240.834C59.2084 243.031 60.078 244.164 61.1176 244.858C62.299 245.648 64.089 246.118 66.485 246.148C69.09 246.181 71.9942 245.69 74.7363 244.963Z" fill="#46516B"/>
<path d="M174 101.826C180.6 101.826 185.8 103.726 189.6 107.526C193.6 111.126 195.6 116.026 195.6 122.226V174.426C195.6 184.426 194.8 192.126 193.2 197.526C191.8 202.726 189.1 206.826 185.1 209.826C181.3 212.826 175.5 215.426 167.7 217.626C159.9 219.626 151.2 221.126 141.6 222.126C132.2 223.326 123.4 223.926 115.2 223.926C92.2 223.926 72.2 219.626 55.2 211.026C38.4 202.226 25.5 189.726 16.5 173.526C7.5 157.126 3 137.726 3 115.326C3 93.3264 7.5 74.2264 16.5 58.0264C25.5 41.6264 38.3 29.0264 54.9 20.2264C71.5 11.4264 90.9 7.02637 113.1 7.02637C127.1 7.02637 139.6 8.72637 150.6 12.1264C161.8 15.3264 172.2 20.3264 181.8 27.1264C185.2 29.5264 187.6 32.1264 189 34.9264C190.6 37.7264 191.4 41.3264 191.4 45.7264C191.4 51.9264 189.7 57.2264 186.3 61.6264C182.9 65.8264 178.8 67.9264 174 67.9264C170.8 67.9264 168 67.5264 165.6 66.7264C163.4 65.7264 160.5 64.1264 156.9 61.9264C149.5 57.9264 142.5 55.0264 135.9 53.2264C129.5 51.4264 122.5 50.5264 114.9 50.5264C95.9 50.5264 81.7 55.8264 72.3 66.4264C63.1 77.0264 58.5 93.3264 58.5 115.326C58.5 137.926 63.3 154.726 72.9 165.726C82.7 176.526 97.6 181.926 117.6 181.926C127.2 181.926 136.7 180.926 146.1 178.926V139.626H124.5C117.9 139.626 112.8 138.026 109.2 134.826C105.6 131.426 103.8 126.726 103.8 120.726C103.8 114.726 105.6 110.126 109.2 106.926C112.8 103.526 117.9 101.826 124.5 101.826H174Z" fill="#8ED646"/>
<mask id="mask0" mask-type="alpha" maskUnits="userSpaceOnUse" x="3" y="7" width="193" height="217">
<path d="M174 101.826C180.6 101.826 185.8 103.726 189.6 107.526C193.6 111.126 195.6 116.026 195.6 122.226V174.426C195.6 184.426 194.8 192.126 193.2 197.526C191.8 202.726 189.1 206.826 185.1 209.826C181.3 212.826 175.5 215.426 167.7 217.626C159.9 219.626 151.2 221.126 141.6 222.126C132.2 223.326 123.4 223.926 115.2 223.926C92.2 223.926 72.2 219.626 55.2 211.026C38.4 202.226 25.5 189.726 16.5 173.526C7.5 157.126 3 137.726 3 115.326C3 93.3264 7.5 74.2264 16.5 58.0264C25.5 41.6264 38.3 29.0264 54.9 20.2264C71.5 11.4264 90.9 7.02637 113.1 7.02637C127.1 7.02637 139.6 8.72637 150.6 12.1264C161.8 15.3264 172.2 20.3264 181.8 27.1264C185.2 29.5264 187.6 32.1264 189 34.9264C190.6 37.7264 191.4 41.3264 191.4 45.7264C191.4 51.9264 189.7 57.2264 186.3 61.6264C182.9 65.8264 178.8 67.9264 174 67.9264C170.8 67.9264 168 67.5264 165.6 66.7264C163.4 65.7264 160.5 64.1264 156.9 61.9264C149.5 57.9264 142.5 55.0264 135.9 53.2264C129.5 51.4264 122.5 50.5264 114.9 50.5264C95.9 50.5264 81.7 55.8264 72.3 66.4264C63.1 77.0264 58.5 93.3264 58.5 115.326C58.5 137.926 63.3 154.726 72.9 165.726C82.7 176.526 97.6 181.926 117.6 181.926C127.2 181.926 136.7 180.926 146.1 178.926V139.626H124.5C117.9 139.626 112.8 138.026 109.2 134.826C105.6 131.426 103.8 126.726 103.8 120.726C103.8 114.726 105.6 110.126 109.2 106.926C112.8 103.526 117.9 101.826 124.5 101.826H174Z" fill="#8ED646"/>
</mask>
<g mask="url(#mask0)">
<rect x="83.2002" y="15.6318" width="27" height="27" transform="rotate(-42.976 83.2002 15.6318)" fill="#70B928" fill-opacity="0.71"/>
<rect x="137.2" y="35.4854" width="27" height="27" transform="rotate(-4.8012 137.2 35.4854)" fill="#70B928" fill-opacity="0.71"/>
<rect x="46.6445" y="15.6631" width="27" height="27" transform="rotate(67.8423 46.6445 15.6631)" fill="#70B928" fill-opacity="0.71"/>
<rect x="67.9131" y="89.8018" width="27" height="27" transform="rotate(116.627 67.9131 89.8018)" fill="#70B928" fill-opacity="0.71"/>
<rect x="31.4375" y="140.327" width="27" height="27" transform="rotate(116.627 31.4375 140.327)" fill="#70B928" fill-opacity="0.71"/>
<rect x="86.4375" y="171.327" width="27" height="27" transform="rotate(116.627 86.4375 171.327)" fill="#70B928" fill-opacity="0.71"/>
<rect x="139.812" y="210.604" width="27" height="27" transform="rotate(120.621 139.812 210.604)" fill="#70B928" fill-opacity="0.71"/>
<rect x="160.868" y="152.077" width="27" height="27" transform="rotate(61.8982 160.868 152.077)" fill="#70B928" fill-opacity="0.71"/>
<rect x="190.018" y="104.226" width="27" height="27" transform="rotate(61.8982 190.018 104.226)" fill="#70B928" fill-opacity="0.71"/>
<rect x="127.018" y="86.2256" width="27" height="27" transform="rotate(61.8982 127.018 86.2256)" fill="#70B928" fill-opacity="0.71"/>
<g style="mix-blend-mode:multiply">
<path d="M59.6199 -27.7744L59.8025 -27.7663C64.8984 -27.5398 69.7991 -27.322 74.5173 -26.9784L190.62 -20.7744L275.62 37.2256V161.226L212.62 248.226C129.62 237.559 -28.1801 217.026 4.61995 220.226C45.6199 224.226 186.62 184.226 157.62 68.2256C137.081 -13.9304 111.369 -24.2941 74.5173 -26.9784L59.6199 -27.7744Z" fill="#AFD445" fill-opacity="0.42"/>
</g>
</g>
<ellipse rx="20.6707" ry="22.9054" transform="matrix(-0.945091 -0.326807 -0.326807 0.945091 136.022 28.403)" fill="#59A511"/>
<ellipse rx="16.0108" ry="17.7417" transform="matrix(-0.945091 -0.326807 -0.326807 0.945091 134.29 31.0264)" fill="white"/>
<circle r="5.79278" transform="matrix(-1 0 0 1 132.207 24.248)" fill="#161E33"/>
<ellipse cx="91.5148" cy="28.8195" rx="19.5186" ry="21.6287" transform="rotate(-19.0751 91.5148 28.8195)" fill="#59A511"/>
<ellipse cx="93.1576" cy="31.0264" rx="16.0108" ry="17.7417" transform="rotate(-19.0751 93.1576 31.0264)" fill="white"/>
<circle cx="95.0167" cy="24.0243" r="6.01641" fill="#161E33"/>
<path d="M148.5 133C167.3 133 173.667 117 174.5 109C174.5 109 161 116 148.75 116C136.5 116 123 109 123 109C123.667 117 129.7 133 148.5 133Z" fill="#479100"/>
<path d="M147.5 125.5C140.7 126.3 138.333 129.5 138 131C147.6 134.2 155.667 132.333 158.5 131C157.667 128.833 154.3 124.7 147.5 125.5Z" fill="#5CAE0C"/>
</svg>
