<svg width="113" height="255" viewBox="0 0 113 255" fill="none" xmlns="http://www.w3.org/2000/svg">
<ellipse cx="56.5" cy="241" rx="56.5" ry="14" fill="#ECECF9"/>
<path d="M64.3904 239.614C73.9665 232.926 92.7425 222.635 91.2374 234.965C89.7323 247.295 72.7123 243.202 64.3904 239.614Z" fill="#46516B"/>
<path fill-rule="evenodd" clip-rule="evenodd" d="M61 186L67.7804 186L67.7807 233.356C71.937 230.822 76.7108 228.312 80.9144 226.936C82.4848 226.422 84.0763 226.031 85.5947 225.88C87.0867 225.732 88.7298 225.793 90.2598 226.392C91.8995 227.034 93.246 228.237 94.014 229.99C94.7326 231.63 94.833 233.49 94.6027 235.376C94.1184 239.344 92.2961 242.323 89.4611 244.217C86.7679 246.016 83.5005 246.61 80.4131 246.649C74.2598 246.727 67.4238 244.613 63.0482 242.727L61.0003 241.844L61 186ZM72.0761 238.684C74.8182 239.411 77.7224 239.902 80.3274 239.869C82.7234 239.839 84.5134 239.368 85.6948 238.579C86.7343 237.884 87.604 236.752 87.8722 234.554C88.0181 233.36 87.8616 232.844 87.8039 232.712C87.7999 232.71 87.7949 232.709 87.7887 232.706C87.6205 232.64 87.1619 232.539 86.2639 232.628C85.3923 232.714 84.3055 232.96 83.0245 233.38C79.6898 234.472 75.7288 236.503 72.0761 238.684Z" fill="#46516B"/>
<path d="M51.3225 239.614C41.7464 232.926 22.9704 222.635 24.4755 234.965C25.9806 247.295 43.0006 243.202 51.3225 239.614Z" fill="#46516B"/>
<path fill-rule="evenodd" clip-rule="evenodd" d="M54.7129 186L47.9324 186L47.9322 233.356C43.7759 230.822 39.0021 228.312 34.7985 226.936C33.228 226.422 31.6366 226.031 30.1182 225.88C28.6262 225.732 26.9831 225.793 25.4531 226.392C23.8134 227.034 22.4669 228.237 21.6989 229.99C20.9803 231.63 20.8799 233.49 21.1102 235.376C21.5945 239.344 23.4168 242.323 26.2518 244.217C28.945 246.016 32.2124 246.61 35.2998 246.649C41.4531 246.727 48.2891 244.613 52.6647 242.727L54.7126 241.844L54.7129 186ZM43.6368 238.684C40.8947 239.411 37.9905 239.902 35.3855 239.869C32.9895 239.839 31.1995 239.368 30.0181 238.579C28.9786 237.884 28.1089 236.752 27.8407 234.554C27.6948 233.36 27.8513 232.844 27.909 232.712C27.913 232.71 27.918 232.709 27.9242 232.706C28.0924 232.64 28.551 232.539 29.449 232.628C30.3206 232.714 31.4074 232.96 32.6884 233.38C36.0231 234.472 39.9841 236.503 43.6368 238.684Z" fill="#46516B"/>
<path d="M57.5002 214.8C49.1002 214.8 42.4002 212.4 37.4002 207.6C32.6002 202.6 30.2002 195.9 30.2002 187.5V27C30.2002 18.8 32.6002 12.3 37.4002 7.49999C42.4002 2.5 49.1002 0 57.5002 0C66.1002 0 72.9002 2.5 77.9002 7.49999C82.9002 12.3 85.4002 18.8 85.4002 27V187.5C85.4002 195.9 82.9002 202.6 77.9002 207.6C72.9002 212.4 66.1002 214.8 57.5002 214.8Z" fill="#54DEAC"/>
<mask id="mask0" mask-type="alpha" maskUnits="userSpaceOnUse" x="30" y="0" width="56" height="215">
<path d="M57.5002 214.8C49.1002 214.8 42.4002 212.4 37.4002 207.6C32.6002 202.6 30.2002 195.9 30.2002 187.5V27C30.2002 18.8 32.6002 12.3 37.4002 7.49999C42.4002 2.5 49.1002 0 57.5002 0C66.1002 0 72.9002 2.5 77.9002 7.49999C82.9002 12.3 85.4002 18.8 85.4002 27V187.5C85.4002 195.9 82.9002 202.6 77.9002 207.6C72.9002 212.4 66.1002 214.8 57.5002 214.8Z" fill="#54DEAC"/>
</mask>
<g mask="url(#mask0)">
<circle cx="112" cy="61" r="38" stroke="#20C88C" stroke-width="6"/>
<circle cx="112" cy="61" r="53" stroke="#20C88C" stroke-width="6"/>
<circle cx="112" cy="61" r="68" stroke="#20C88C" stroke-width="6"/>
<circle cx="112" cy="61" r="83" stroke="#20C88C" stroke-width="6"/>
<circle cx="112" cy="61" r="98" stroke="#20C88C" stroke-width="6"/>
<circle cx="112" cy="61" r="113" stroke="#20C88C" stroke-width="6"/>
<circle cx="112" cy="61" r="127" stroke="#20C88C" stroke-width="6"/>
<circle cx="112" cy="61" r="142" stroke="#20C88C" stroke-width="6"/>
<circle cx="112" cy="61" r="157" stroke="#20C88C" stroke-width="6"/>
<circle cx="112" cy="61" r="157" stroke="#20C88C" stroke-width="6"/>
<g style="mix-blend-mode:multiply">
<path d="M-6 265C105.2 160.2 71 31.3333 40 -20L98 0L126 195L-6 265Z" fill="#54DEAC" fill-opacity="0.54"/>
</g>
</g>
<path d="M37.3435 104.478C50.0401 114.044 70.667 108.183 79.3933 104.056C74.9638 117.037 63.0065 141.147 50.6129 133.736C38.2194 126.325 36.6027 111.143 37.3435 104.478Z" fill="#008A58"/>
<path d="M44.3459 128.21C48.3683 117.757 61.7496 122.863 67.9375 126.722C65.7519 129.623 60.1758 135.32 55.3564 134.9C50.537 134.479 46.008 130.264 44.3459 128.21Z" fill="#1BB17B"/>
<ellipse cx="57.8863" cy="55.5994" rx="20.8863" ry="24.5994" fill="white"/>
<circle cx="58.3516" cy="50.4883" r="4.6414" fill="#161E33"/>
</svg>
