<svg width="151" height="255" viewBox="0 0 151 255" fill="none" xmlns="http://www.w3.org/2000/svg">
<ellipse cx="75.5" cy="241" rx="75.5" ry="14" fill="#ECECF9"/>
<path d="M70.3904 239.614C79.9665 232.926 98.7425 222.635 97.2374 234.965C95.7323 247.295 78.7123 243.202 70.3904 239.614Z" fill="#46516B"/>
<path fill-rule="evenodd" clip-rule="evenodd" d="M67 186L73.7804 186L73.7807 233.356C77.937 230.822 82.7108 228.312 86.9144 226.936C88.4848 226.422 90.0763 226.031 91.5947 225.88C93.0867 225.732 94.7298 225.793 96.2598 226.392C97.8995 227.034 99.246 228.237 100.014 229.99C100.733 231.63 100.833 233.49 100.603 235.376C100.118 239.344 98.2961 242.323 95.4611 244.217C92.7679 246.016 89.5005 246.61 86.4131 246.649C80.2598 246.727 73.4238 244.613 69.0482 242.727L67.0003 241.844L67 186ZM78.0761 238.684C80.8182 239.411 83.7224 239.902 86.3274 239.869C88.7234 239.839 90.5134 239.368 91.6948 238.579C92.7343 237.884 93.604 236.752 93.8722 234.554C94.0181 233.36 93.8616 232.844 93.8039 232.712C93.7999 232.71 93.7949 232.709 93.7887 232.706C93.6205 232.64 93.1619 232.539 92.2639 232.628C91.3923 232.714 90.3055 232.96 89.0245 233.38C85.6898 234.472 81.7288 236.503 78.0761 238.684Z" fill="#46516B"/>
<path d="M55.3225 239.614C45.7464 232.926 26.9704 222.635 28.4755 234.965C29.9806 247.295 47.0006 243.202 55.3225 239.614Z" fill="#46516B"/>
<path fill-rule="evenodd" clip-rule="evenodd" d="M58.7129 186L51.9324 186L51.9322 233.356C47.7759 230.822 43.0021 228.312 38.7985 226.936C37.228 226.422 35.6366 226.031 34.1182 225.88C32.6262 225.732 30.9831 225.793 29.4531 226.392C27.8134 227.034 26.4669 228.237 25.6989 229.99C24.9803 231.63 24.8799 233.49 25.1102 235.376C25.5945 239.344 27.4168 242.323 30.2518 244.217C32.945 246.016 36.2124 246.61 39.2998 246.649C45.4531 246.727 52.2891 244.613 56.6647 242.727L58.7126 241.844L58.7129 186ZM47.6368 238.684C44.8947 239.411 41.9905 239.902 39.3855 239.869C36.9895 239.839 35.1995 239.368 34.0181 238.579C32.9786 237.884 32.1089 236.752 31.8407 234.554C31.6948 233.36 31.8513 232.844 31.909 232.712C31.913 232.71 31.918 232.709 31.9242 232.706C32.0924 232.64 32.551 232.539 33.449 232.628C34.3206 232.714 35.4074 232.96 36.6884 233.38C40.0231 234.472 43.9841 236.503 47.6368 238.684Z" fill="#46516B"/>
<path d="M43.6001 214.8C21.6001 215.8 10.6001 208.4 10.6001 192.6C10.6001 185.6 12.3001 180.4 15.7001 177C19.1001 173.6 24.5001 171.7 31.9001 171.3L42.1001 170.7C48.1001 170.5 52.6001 168.6 55.6001 165C58.8001 161.2 60.4001 156.1 60.4001 149.7V27C60.4001 18.8 62.9001 12.3 67.9001 7.49999C72.9001 2.5 79.7001 0 88.3001 0C96.5001 0 103.1 2.5 108.1 7.49999C113.3 12.3 115.9 18.8 115.9 27V148.8C115.9 168.8 110.6 184.4 100 195.6C89.6001 206.6 74.0001 212.8 53.2001 214.2L43.6001 214.8Z" fill="#53D0D8"/>
<mask id="mask0" mask-type="alpha" maskUnits="userSpaceOnUse" x="10" y="0" width="106" height="215">
<path d="M43.6001 214.8C21.6001 215.8 10.6001 208.4 10.6001 192.6C10.6001 185.6 12.3001 180.4 15.7001 177C19.1001 173.6 24.5001 171.7 31.9001 171.3L42.1001 170.7C48.1001 170.5 52.6001 168.6 55.6001 165C58.8001 161.2 60.4001 156.1 60.4001 149.7V27C60.4001 18.8 62.9001 12.3 67.9001 7.49999C72.9001 2.5 79.7001 0 88.3001 0C96.5001 0 103.1 2.5 108.1 7.49999C113.3 12.3 115.9 18.8 115.9 27V148.8C115.9 168.8 110.6 184.4 100 195.6C89.6001 206.6 74.0001 212.8 53.2001 214.2L43.6001 214.8Z" fill="#53D0D8"/>
</mask>
<g mask="url(#mask0)">
<circle cx="106.094" cy="122.227" r="6.33962" fill="#3AB7BF"/>
<circle cx="106.094" cy="11.2833" r="6.33962" fill="#3AB7BF"/>
<circle cx="106.094" cy="144.415" r="6.33962" fill="#3AB7BF"/>
<circle cx="106.094" cy="33.472" r="6.33962" fill="#3AB7BF"/>
<circle cx="106.094" cy="166.604" r="6.33962" fill="#3AB7BF"/>
<circle cx="106.094" cy="55.6607" r="6.33962" fill="#3AB7BF"/>
<circle cx="106.094" cy="188.793" r="6.33962" fill="#3AB7BF"/>
<circle cx="106.094" cy="77.8494" r="6.33962" fill="#3AB7BF"/>
<circle cx="106.094" cy="210.981" r="6.33962" fill="#3AB7BF"/>
<circle cx="106.094" cy="100.038" r="6.33962" fill="#3AB7BF"/>
<circle cx="83.9057" cy="122.227" r="6.33962" fill="#3AB7BF"/>
<circle cx="83.9057" cy="11.2833" r="6.33962" fill="#3AB7BF"/>
<circle cx="83.9057" cy="144.415" r="6.33962" fill="#3AB7BF"/>
<circle cx="83.9057" cy="33.472" r="6.33962" fill="#3AB7BF"/>
<circle cx="83.9057" cy="166.604" r="6.33962" fill="#3AB7BF"/>
<circle cx="83.9057" cy="55.6607" r="6.33962" fill="#3AB7BF"/>
<circle cx="83.9057" cy="188.793" r="6.33962" fill="#3AB7BF"/>
<circle cx="83.9057" cy="77.8494" r="6.33962" fill="#3AB7BF"/>
<circle cx="83.9057" cy="210.981" r="6.33962" fill="#3AB7BF"/>
<circle cx="83.9057" cy="100.038" r="6.33962" fill="#3AB7BF"/>
<circle cx="61.717" cy="122.227" r="6.33962" fill="#3AB7BF"/>
<circle cx="61.717" cy="11.2833" r="6.33962" fill="#3AB7BF"/>
<circle cx="61.717" cy="144.415" r="6.33962" fill="#3AB7BF"/>
<circle cx="61.717" cy="33.472" r="6.33962" fill="#3AB7BF"/>
<circle cx="61.717" cy="166.604" r="6.33962" fill="#3AB7BF"/>
<circle cx="61.717" cy="55.6607" r="6.33962" fill="#3AB7BF"/>
<circle cx="61.717" cy="188.793" r="6.33962" fill="#3AB7BF"/>
<circle cx="61.717" cy="77.8494" r="6.33962" fill="#3AB7BF"/>
<circle cx="61.717" cy="210.981" r="6.33962" fill="#3AB7BF"/>
<circle cx="61.717" cy="100.038" r="6.33962" fill="#3AB7BF"/>
<circle cx="39.5286" cy="122.227" r="6.33962" fill="#3AB7BF"/>
<circle cx="39.5286" cy="11.2833" r="6.33962" fill="#3AB7BF"/>
<circle cx="39.5286" cy="144.415" r="6.33962" fill="#3AB7BF"/>
<circle cx="39.5286" cy="33.472" r="6.33962" fill="#3AB7BF"/>
<circle cx="39.5286" cy="166.604" r="6.33962" fill="#3AB7BF"/>
<circle cx="39.5286" cy="55.6607" r="6.33962" fill="#3AB7BF"/>
<circle cx="39.5286" cy="188.793" r="6.33962" fill="#3AB7BF"/>
<circle cx="39.5286" cy="77.8494" r="6.33962" fill="#3AB7BF"/>
<circle cx="39.5286" cy="210.981" r="6.33962" fill="#3AB7BF"/>
<circle cx="39.5286" cy="100.038" r="6.33962" fill="#3AB7BF"/>
<circle cx="17.3396" cy="122.227" r="6.33962" fill="#3AB7BF"/>
<circle cx="17.3396" cy="11.2833" r="6.33962" fill="#3AB7BF"/>
<circle cx="17.3396" cy="144.415" r="6.33962" fill="#3AB7BF"/>
<circle cx="17.3396" cy="33.472" r="6.33962" fill="#3AB7BF"/>
<circle cx="17.3396" cy="166.604" r="6.33962" fill="#3AB7BF"/>
<circle cx="17.3396" cy="55.6607" r="6.33962" fill="#3AB7BF"/>
<circle cx="17.3396" cy="188.793" r="6.33962" fill="#3AB7BF"/>
<circle cx="17.3396" cy="77.8494" r="6.33962" fill="#3AB7BF"/>
<circle cx="17.3396" cy="210.981" r="6.33962" fill="#3AB7BF"/>
<circle cx="17.3396" cy="100.038" r="6.33962" fill="#3AB7BF"/>
<g style="mix-blend-mode:multiply">
<path d="M3 209C155 229 99 14.3333 68 -37L126 -17V250L3 209Z" fill="#53D0D8" fill-opacity="0.6"/>
</g>
</g>
<path d="M112 93H64C65.8824 102.333 73.2406 121 87.615 121C101.989 121 109.861 102.333 112 93Z" fill="#01777E"/>
<path d="M86 109C80.7059 109 77.7941 114.546 77 117.319C83.7765 123.191 91.8235 120.744 95 118.787C94.2059 115.525 91.2941 109 86 109Z" fill="#0C959D"/>
<path d="M77 93H87V99C87 100.105 86.1046 101 85 101H79C77.8954 101 77 100.105 77 99V93Z" fill="white"/>
<path d="M90.5 93H97.5V97C97.5 98.1046 96.6046 99 95.5 99H92.5C91.3954 99 90.5 98.1046 90.5 97V93Z" fill="white"/>
<ellipse cx="88.0041" cy="44.5" rx="22.0041" ry="35.5" fill="#0C8E96"/>
<ellipse cx="87.8504" cy="48.018" rx="16.3148" ry="26.3944" fill="white"/>
<circle cx="87.5" cy="38.0233" r="4.5" fill="#161E33"/>
</svg>
