<svg width="213" height="257" viewBox="0 0 213 257" fill="none" xmlns="http://www.w3.org/2000/svg">
<ellipse cx="104.5" cy="243" rx="87.5" ry="14" fill="#ECECF9"/>
<path d="M119.39 241.614C128.967 234.926 147.743 224.635 146.237 236.965C144.732 249.295 127.712 245.202 119.39 241.614Z" fill="#46516B"/>
<path fill-rule="evenodd" clip-rule="evenodd" d="M116 188L122.78 188L122.781 235.356C126.937 232.822 131.711 230.312 135.914 228.936C137.485 228.422 139.076 228.031 140.595 227.88C142.087 227.732 143.73 227.793 145.26 228.392C146.899 229.034 148.246 230.237 149.014 231.99C149.733 233.63 149.833 235.49 149.603 237.376C149.118 241.344 147.296 244.323 144.461 246.217C141.768 248.016 138.5 248.61 135.413 248.649C129.26 248.727 122.424 246.613 118.048 244.727L116 243.844L116 188ZM127.076 240.684C129.818 241.411 132.722 241.902 135.327 241.869C137.723 241.839 139.513 241.368 140.695 240.579C141.734 239.884 142.604 238.752 142.872 236.554C143.018 235.36 142.862 234.844 142.804 234.712C142.8 234.71 142.795 234.709 142.789 234.706C142.62 234.64 142.162 234.539 141.264 234.628C140.392 234.714 139.305 234.96 138.025 235.38C134.69 236.472 130.729 238.503 127.076 240.684Z" fill="#46516B"/>
<path d="M94.3225 241.614C84.7464 234.926 65.9704 224.635 67.4755 236.965C68.9806 249.295 86.0006 245.202 94.3225 241.614Z" fill="#46516B"/>
<path fill-rule="evenodd" clip-rule="evenodd" d="M97.7129 188L90.9324 188L90.9322 235.356C86.7759 232.822 82.0021 230.312 77.7985 228.936C76.228 228.422 74.6366 228.031 73.1182 227.88C71.6262 227.732 69.9831 227.793 68.4531 228.392C66.8134 229.034 65.4669 230.237 64.6989 231.99C63.9803 233.63 63.8799 235.49 64.1102 237.376C64.5945 241.344 66.4168 244.323 69.2518 246.217C71.945 248.016 75.2124 248.61 78.2998 248.649C84.4531 248.727 91.2891 246.613 95.6647 244.727L97.7126 243.844L97.7129 188ZM86.6368 240.684C83.8947 241.411 80.9905 241.902 78.3855 241.869C75.9895 241.839 74.1995 241.368 73.0181 240.579C71.9786 239.884 71.1089 238.752 70.8407 236.554C70.6948 235.36 70.8513 234.844 70.909 234.712C70.913 234.71 70.918 234.709 70.9242 234.706C71.0924 234.64 71.551 234.539 72.449 234.628C73.3206 234.714 74.4074 234.96 75.6884 235.38C79.0231 236.472 82.9841 238.503 86.6368 240.684Z" fill="#46516B"/>
<path d="M106.7 217.701C85.0998 217.701 66.2998 213.301 50.2998 204.501C34.4998 195.501 22.2998 182.901 13.6998 166.701C5.0998 150.301 0.799805 131.101 0.799805 109.101C0.799805 87.1008 5.0998 68.0008 13.6998 51.8008C22.2998 35.4008 34.4998 22.8008 50.2998 14.0008C66.2998 5.20078 85.0998 0.800781 106.7 0.800781C128.3 0.800781 147 5.20078 162.8 14.0008C178.8 22.8008 191 35.4008 199.4 51.8008C208 68.0008 212.3 87.1008 212.3 109.101C212.3 131.101 208 150.301 199.4 166.701C190.8 182.901 178.5 195.501 162.5 204.501C146.7 213.301 128.1 217.701 106.7 217.701ZM106.7 175.401C122.7 175.401 135.2 169.801 144.2 158.601C153.2 147.201 157.7 130.701 157.7 109.101C157.7 87.5008 153.1 71.1008 143.9 59.9008C134.9 48.7008 122.5 43.1008 106.7 43.1008C90.6998 43.1008 78.1998 48.7008 69.1998 59.9008C60.1998 70.9008 55.6998 87.3008 55.6998 109.101C55.6998 130.901 60.1998 147.401 69.1998 158.601C78.1998 169.801 90.6998 175.401 106.7 175.401Z" fill="#AB6FF8"/>
<mask id="mask0" mask-type="alpha" maskUnits="userSpaceOnUse" x="0" y="0" width="213" height="218">
<path d="M106.7 217.701C85.0998 217.701 66.2998 213.301 50.2998 204.501C34.4998 195.501 22.2998 182.901 13.6998 166.701C5.0998 150.301 0.799805 131.101 0.799805 109.101C0.799805 87.1008 5.0998 68.0008 13.6998 51.8008C22.2998 35.4008 34.4998 22.8008 50.2998 14.0008C66.2998 5.20078 85.0998 0.800781 106.7 0.800781C128.3 0.800781 147 5.20078 162.8 14.0008C178.8 22.8008 191 35.4008 199.4 51.8008C208 68.0008 212.3 87.1008 212.3 109.101C212.3 131.101 208 150.301 199.4 166.701C190.8 182.901 178.5 195.501 162.5 204.501C146.7 213.301 128.1 217.701 106.7 217.701ZM106.7 175.401C122.7 175.401 135.2 169.801 144.2 158.601C153.2 147.201 157.7 130.701 157.7 109.101C157.7 87.5008 153.1 71.1008 143.9 59.9008C134.9 48.7008 122.5 43.1008 106.7 43.1008C90.6998 43.1008 78.1998 48.7008 69.1998 59.9008C60.1998 70.9008 55.6998 87.3008 55.6998 109.101C55.6998 130.901 60.1998 147.401 69.1998 158.601C78.1998 169.801 90.6998 175.401 106.7 175.401Z" fill="#AB6FF8"/>
</mask>
<g mask="url(#mask0)">
<circle cx="143" cy="93" r="21" stroke="#9655EA" stroke-width="6"/>
<circle cx="143" cy="93" r="38" stroke="#9655EA" stroke-width="6"/>
<circle cx="143" cy="93" r="53" stroke="#9655EA" stroke-width="6"/>
<circle cx="143" cy="93" r="68" stroke="#9655EA" stroke-width="6"/>
<circle cx="143" cy="93" r="83" stroke="#9655EA" stroke-width="6"/>
<circle cx="143" cy="93" r="98" stroke="#9655EA" stroke-width="6"/>
<circle cx="143" cy="93" r="113" stroke="#9655EA" stroke-width="6"/>
<circle cx="143" cy="93" r="127" stroke="#9655EA" stroke-width="6"/>
<circle cx="143" cy="93" r="142" stroke="#9655EA" stroke-width="6"/>
<circle cx="143" cy="93" r="157" stroke="#9655EA" stroke-width="6"/>
<circle cx="143" cy="93" r="157" stroke="#9655EA" stroke-width="6"/>
<g style="mix-blend-mode:multiply">
<path d="M82.2851 -52L82.4899 -51.9909C88.2071 -51.7365 93.7053 -51.4919 98.9987 -51.1059L229.257 -44.1377L324.621 21.0072V160.283L253.939 258C223.366 254.067 97.7481 274.987 59.6211 270C-18.3801 259.797 -4.13797 224.137 20.5793 226.551C66.5782 231.043 224.77 186.116 192.234 55.8261C169.191 -36.4506 140.344 -48.0909 98.9987 -51.1059L82.2851 -52Z" fill="#AB6FF8" fill-opacity="0.42"/>
</g>
</g>
<path d="M148.082 179.141C115.682 196.741 79.2489 186.475 65.0823 179.141C71.5823 188.141 89.0823 206.141 107.082 206.141C125.082 206.141 141.916 188.141 148.082 179.141Z" fill="#6116C1"/>
<path d="M104 189L95.5 188.002L94.8451 191.93C94.6573 193.057 95.4497 194.112 96.5842 194.245L101.107 194.777C102.167 194.902 103.138 194.172 103.313 193.12L104 189Z" fill="white"/>
<path d="M115.004 188.227L106.458 188.693L106.489 194.8C106.495 195.98 107.514 196.898 108.688 196.781L114.321 196.217C115.492 196.101 116.309 195.004 116.086 193.849L115.004 188.227Z" fill="white"/>
<path d="M106.082 197.142C97.2825 197.142 90.4158 199.142 88.0825 200.142C94.6338 204.005 100.503 205.982 106.082 206.142C113.789 206.362 120.489 203.575 123.582 201.642C121.416 200.142 114.882 197.142 106.082 197.142Z" fill="#8031E4"/>
<ellipse rx="14.5553" ry="16.1288" transform="matrix(-0.945091 -0.326807 -0.326807 0.945091 125.42 23.9999)" fill="white"/>
<circle r="3.65173" transform="matrix(-1 0 0 1 121.913 23.6517)" fill="#161E33"/>
<ellipse cx="88.0271" cy="23.9999" rx="14.5553" ry="16.1288" transform="rotate(-19.0751 88.0271 23.9999)" fill="white"/>
<circle cx="91.5345" cy="23.6517" r="3.65173" fill="#161E33"/>
</svg>
