<svg width="241" height="297" viewBox="0 0 241 297" fill="none" xmlns="http://www.w3.org/2000/svg">
<ellipse cx="120.5" cy="283" rx="120.5" ry="14" fill="#ECECF9"/>
<path d="M83.3225 278.614C73.7464 271.926 54.9704 261.635 56.4755 273.965C57.9806 286.295 75.0006 282.202 83.3225 278.614Z" fill="#46516B"/>
<path fill-rule="evenodd" clip-rule="evenodd" d="M86.7129 225L79.9324 225L79.9322 272.356C75.7759 269.822 71.0021 267.312 66.7985 265.936C65.228 265.422 63.6366 265.031 62.1182 264.88C60.6262 264.732 58.9831 264.793 57.4531 265.392C55.8134 266.034 54.4669 267.237 53.6989 268.99C52.9803 270.63 52.8799 272.49 53.1102 274.376C53.5945 278.344 55.4168 281.323 58.2518 283.217C60.945 285.016 64.2124 285.61 67.2998 285.649C73.4531 285.727 80.2891 283.613 84.6647 281.727L86.7126 280.844L86.7129 225ZM75.6368 277.684C72.8947 278.411 69.9905 278.902 67.3855 278.869C64.9895 278.839 63.1995 278.368 62.0181 277.579C60.9786 276.884 60.1089 275.752 59.8407 273.554C59.6948 272.36 59.8513 271.844 59.909 271.712C59.913 271.71 59.918 271.709 59.9242 271.706C60.0924 271.64 60.551 271.539 61.449 271.628C62.3206 271.714 63.4074 271.96 64.6884 272.38C68.0231 273.472 71.9841 275.503 75.6368 277.684Z" fill="#46516B"/>
<path d="M208.1 248.2C211.5 253.6 213.2 258.7 213.2 263.5C213.2 270.1 210.5 275.5 205.1 279.7C199.7 284.1 193.5 286.3 186.5 286.3C181.7 286.3 177.2 285.1 173 282.7C168.8 280.5 165.3 277.2 162.5 272.8L144.5 242.5C142.5 239.1 139.8 236.6 136.4 235C133 233.6 128.1 232.9 121.7 232.9C100.1 232.9 81.2998 228.5 65.2998 219.7C49.4998 210.7 37.2998 198.1 28.6998 181.9C20.0998 165.5 15.7998 146.3 15.7998 124.3C15.7998 102.3 20.0998 83.2 28.6998 67C37.2998 50.6 49.4998 38 65.2998 29.2C81.2998 20.4 100.1 16 121.7 16C143.3 16 162 20.4 177.8 29.2C193.8 38 206 50.6 214.4 67C223 83.2 227.3 102.3 227.3 124.3C227.3 146.1 223 165.2 214.4 181.6C206 198 193.8 210.6 177.8 219.4C188.4 222.6 196.4 228.7 201.8 237.7L208.1 248.2ZM121.7 190.6C137.7 190.6 150.2 185 159.2 173.8C168.2 162.4 172.7 145.9 172.7 124.3C172.7 102.7 168.1 86.3 158.9 75.1C149.9 63.9 137.5 58.3 121.7 58.3C105.7 58.3 93.1998 63.9 84.1998 75.1C75.1998 86.1 70.6998 102.5 70.6998 124.3C70.6998 146.1 75.1998 162.6 84.1998 173.8C93.1998 185 105.7 190.6 121.7 190.6Z" fill="#F86FC1"/>
<mask id="mask0" mask-type="alpha" maskUnits="userSpaceOnUse" x="15" y="16" width="213" height="271">
<path d="M208.1 248.2C211.5 253.6 213.2 258.7 213.2 263.5C213.2 270.1 210.5 275.5 205.1 279.7C199.7 284.1 193.5 286.3 186.5 286.3C181.7 286.3 177.2 285.1 173 282.7C168.8 280.5 165.3 277.2 162.5 272.8L144.5 242.5C142.5 239.1 139.8 236.6 136.4 235C133 233.6 128.1 232.9 121.7 232.9C100.1 232.9 81.2998 228.5 65.2998 219.7C49.4998 210.7 37.2998 198.1 28.6998 181.9C20.0998 165.5 15.7998 146.3 15.7998 124.3C15.7998 102.3 20.0998 83.2 28.6998 67C37.2998 50.6 49.4998 38 65.2998 29.2C81.2998 20.4 100.1 16 121.7 16C143.3 16 162 20.4 177.8 29.2C193.8 38 206 50.6 214.4 67C223 83.2 227.3 102.3 227.3 124.3C227.3 146.1 223 165.2 214.4 181.6C206 198 193.8 210.6 177.8 219.4C188.4 222.6 196.4 228.7 201.8 237.7L208.1 248.2ZM121.7 190.6C137.7 190.6 150.2 185 159.2 173.8C168.2 162.4 172.7 145.9 172.7 124.3C172.7 102.7 168.1 86.3 158.9 75.1C149.9 63.9 137.5 58.3 121.7 58.3C105.7 58.3 93.1998 63.9 84.1998 75.1C75.1998 86.1 70.6998 102.5 70.6998 124.3C70.6998 146.1 75.1998 162.6 84.1998 173.8C93.1998 185 105.7 190.6 121.7 190.6Z" fill="#F86FC1"/>
</mask>
<g mask="url(#mask0)">
<path d="M-1.14197 74.5719L292.377 176.16" stroke="#FF8AD0" stroke-width="4.58452"/>
<path d="M8.22961 47.4946L301.748 149.083" stroke="#FF8AD0" stroke-width="4.58452"/>
<path d="M17.6013 20.4173L311.12 122.005" stroke="#FF8AD0" stroke-width="4.58452"/>
<path d="M26.9729 -6.66006L320.491 94.9278" stroke="#FF8AD0" stroke-width="4.58452"/>
<path d="M-29.2563 155.804L264.262 257.392" stroke="#FF8AD0" stroke-width="4.58452"/>
<path d="M-10.5135 101.649L283.005 203.237" stroke="#FF8AD0" stroke-width="4.58452"/>
<path d="M-38.6279 182.881L254.891 284.469" stroke="#FF8AD0" stroke-width="4.58452"/>
<path d="M-19.8853 128.727L273.633 230.315" stroke="#FF8AD0" stroke-width="4.58452"/>
<path d="M-47.9995 209.959L245.519 311.546" stroke="#FF8AD0" stroke-width="4.58452"/>
<path d="M214.117 15.0586L112.529 308.577" stroke="#FF8AD0" stroke-width="4.58452"/>
<path d="M241.194 24.4291L139.606 317.948" stroke="#FF8AD0" stroke-width="4.58452"/>
<path d="M268.271 33.8019L166.684 327.32" stroke="#FF8AD0" stroke-width="4.58452"/>
<path d="M295.349 43.1721L193.761 336.691" stroke="#FF8AD0" stroke-width="4.58452"/>
<path d="M132.885 -13.0574L31.2968 280.461" stroke="#FF8AD0" stroke-width="4.58452"/>
<path d="M187.039 5.68585L85.4515 299.204" stroke="#FF8AD0" stroke-width="4.58452"/>
<path d="M105.807 -22.4279L4.21957 271.091" stroke="#FF8AD0" stroke-width="4.58452"/>
<path d="M159.962 -3.68466L58.3741 289.834" stroke="#FF8AD0" stroke-width="4.58452"/>
<path d="M78.7301 -31.8007L-22.8578 261.718" stroke="#FF8AD0" stroke-width="4.58452"/>
<g style="mix-blend-mode:multiply">
<path d="M127.423 4.63355L127.592 4.70094C132.334 6.58164 136.894 8.39033 141.24 10.2582L248.928 54.0946L310.283 136.705L269.727 253.886L181.737 315.495C106.79 278.269 -35.6149 207.253 -5.66545 221.005C31.7713 238.195 178.099 246.511 188.634 127.406C196.095 43.0512 175.187 24.848 141.24 10.2582L127.423 4.63355Z" fill="#F86FC1" fill-opacity="0.47"/>
</g>
</g>
<path d="M121.615 225C135.989 225 143.861 206.333 146 197C146 197 133.5 202 121.615 202C109.73 202 98 197 98 197C99.8824 206.333 107.241 225 121.615 225Z" fill="#BC0067"/>
<path d="M122 217C120 217 111.294 217.727 110.5 220.5C120 229 129.324 223.276 132.5 221.319C131.706 218.056 124 217 122 217Z" fill="#D85CA0"/>
<path d="M108.578 200.369L118.489 201.702L117.689 207.649C117.542 208.743 116.535 209.511 115.44 209.364L109.494 208.564C108.399 208.417 107.631 207.41 107.778 206.316L108.578 200.369Z" fill="white"/>
<path d="M124 201.747L130.96 201L131.387 204.977C131.505 206.075 130.71 207.061 129.612 207.179L126.629 207.5C125.531 207.618 124.545 206.823 124.427 205.725L124 201.747Z" fill="white"/>
<ellipse cx="98.83" cy="30.87" rx="25.83" ry="30.87" fill="#EB409E"/>
<ellipse cx="101.338" cy="33.5153" rx="22.0375" ry="25.9553" fill="white"/>
<circle cx="105.897" cy="31.8972" r="4.89722" fill="#161E33"/>
<ellipse cx="148.31" cy="34.72" rx="23.31" ry="27.72" fill="#EB409E"/>
<ellipse cx="144.953" cy="38.4053" rx="18.2932" ry="21.5453" fill="white"/>
<circle cx="141.065" cy="35.0651" r="4.06515" fill="#161E33"/>
</svg>
