<svg width="194" height="253" viewBox="0 0 194 253" fill="none" xmlns="http://www.w3.org/2000/svg">
<ellipse cx="96.5" cy="239" rx="92.5" ry="14" fill="#ECECF9"/>
<path d="M105.39 237.614C114.967 230.926 133.743 220.635 132.237 232.965C130.732 245.295 113.712 241.202 105.39 237.614Z" fill="#46516B"/>
<path fill-rule="evenodd" clip-rule="evenodd" d="M102 184L108.78 184L108.781 231.356C112.937 228.822 117.711 226.312 121.914 224.936C123.485 224.422 125.076 224.031 126.595 223.88C128.087 223.732 129.73 223.793 131.26 224.392C132.899 225.034 134.246 226.237 135.014 227.99C135.733 229.63 135.833 231.49 135.603 233.376C135.118 237.344 133.296 240.323 130.461 242.217C127.768 244.016 124.5 244.61 121.413 244.649C115.26 244.727 108.424 242.613 104.048 240.727L102 239.844L102 184ZM113.076 236.684C115.818 237.411 118.722 237.902 121.327 237.869C123.723 237.839 125.513 237.368 126.695 236.579C127.734 235.884 128.604 234.752 128.872 232.554C129.018 231.36 128.862 230.844 128.804 230.712C128.8 230.71 128.795 230.709 128.789 230.706C128.62 230.64 128.162 230.539 127.264 230.628C126.392 230.714 125.305 230.96 124.025 231.38C120.69 232.472 116.729 234.503 113.076 236.684Z" fill="#46516B"/>
<path d="M88.3225 237.614C78.7464 230.926 59.9704 220.635 61.4755 232.965C62.9806 245.295 80.0006 241.202 88.3225 237.614Z" fill="#46516B"/>
<path fill-rule="evenodd" clip-rule="evenodd" d="M91.7129 184L84.9324 184L84.9322 231.356C80.7759 228.822 76.0021 226.312 71.7985 224.936C70.228 224.422 68.6366 224.031 67.1182 223.88C65.6262 223.732 63.9831 223.793 62.4531 224.392C60.8134 225.034 59.4669 226.237 58.6989 227.99C57.9803 229.63 57.8799 231.49 58.1102 233.376C58.5945 237.344 60.4168 240.323 63.2518 242.217C65.945 244.016 69.2124 244.61 72.2998 244.649C78.4531 244.727 85.2891 242.613 89.6647 240.727L91.7126 239.844L91.7129 184ZM80.6368 236.684C77.8947 237.411 74.9905 237.902 72.3855 237.869C69.9895 237.839 68.1995 237.368 67.0181 236.579C65.9786 235.884 65.1089 234.752 64.8407 232.554C64.6948 231.36 64.8513 230.844 64.909 230.712C64.913 230.71 64.918 230.709 64.9242 230.706C65.0924 230.64 65.551 230.539 66.449 230.628C67.3206 230.714 68.4074 230.96 69.6884 231.38C73.0231 232.472 76.9841 234.503 80.6368 236.684Z" fill="#46516B"/>
<path d="M96.8 213C88.4 213 81.6 210.6 76.4 205.8C71.4 200.8 68.9 194.2 68.9 186V44.7H26.6C17.8 44.7 11.2 42.9 6.8 39.3C2.6 35.5 0.5 29.8 0.5 22.2C0.5 14.6 2.6 9 6.8 5.4C11.2 1.8 17.8 0 26.6 0H167C175.8 0 182.3 1.8 186.5 5.4C190.9 9 193.1 14.6 193.1 22.2C193.1 29.8 190.9 35.5 186.5 39.3C182.3 42.9 175.8 44.7 167 44.7H124.7V186C124.7 194.2 122.1 200.8 116.9 205.8C111.9 210.6 105.2 213 96.8 213Z" fill="#F09846"/>
<mask id="mask0" mask-type="alpha" maskUnits="userSpaceOnUse" x="0" y="0" width="194" height="213">
<path d="M96.8 213C88.4 213 81.6 210.6 76.4 205.8C71.4 200.8 68.9 194.2 68.9 186V44.7H26.6C17.8 44.7 11.2 42.9 6.8 39.3C2.6 35.5 0.5 29.8 0.5 22.2C0.5 14.6 2.6 9 6.8 5.4C11.2 1.8 17.8 0 26.6 0H167C175.8 0 182.3 1.8 186.5 5.4C190.9 9 193.1 14.6 193.1 22.2C193.1 29.8 190.9 35.5 186.5 39.3C182.3 42.9 175.8 44.7 167 44.7H124.7V186C124.7 194.2 122.1 200.8 116.9 205.8C111.9 210.6 105.2 213 96.8 213Z" fill="#F09846"/>
</mask>
<g mask="url(#mask0)">
<path d="M22 17.5C8.8 17.9 4.16667 0.666668 3.5 -8L91 -18.5C82.8333 -10.6667 63.2 5.2 50 6C33.5 7 38.5 17 22 17.5Z" fill="#FFAC5F"/>
<path d="M102 6C91 -0.5 84 11.5 81.5 17.5C81.5 39 106 30.5 110.5 25.5C115 20.5 113 12.5 102 6Z" fill="#FFAC5F"/>
<path d="M139 25.5C128 25.5 122.5 6 122.5 -2.5L160 -8L190.5 -5C193.333 2.5 198.5 17.5 196.5 17.5C194 17.5 182 10.5 165.5 12.5C149 14.5 150 25.5 139 25.5Z" fill="#FFAC5F"/>
<path d="M165.5 30C150.5 31 156.5 43.5 154.5 53H181L201 30C194.167 29.6667 177.5 29.2 165.5 30Z" fill="#FFAC5F"/>
<path d="M38 30C21.5 30 27 41.5 16.5 53L63 70.5C69.1667 62.5 80.6 44.9 77 38.5C72.5 30.5 54.5 30 38 30Z" fill="#FFAC5F"/>
<path d="M110.5 53C114.9 45.8 124.333 50 128.5 53C130.167 63.8333 132.5 86.4 128.5 90C123.5 94.5 107 87.5 102 77C97 66.5 105 62 110.5 53Z" fill="#FFAC5F"/>
<path d="M84.5 90C79.3 82.4 63 89.5 55.5 94C54.6667 114.5 54.4 155.7 60 156.5C67 157.5 91 152 91 139.5C91 127 91 99.5 84.5 90Z" fill="#FFAC5F"/>
<path d="M113 127C112.6 117 123.167 117.167 128.5 118.5C128.5 132.333 127.3 159.3 122.5 156.5C116.5 153 113.5 139.5 113 127Z" fill="#FFAC5F"/>
<path d="M102 179.5C110 178.5 122.5 184 128.5 193C129.833 195.833 131.2 203.2 126 210C119.5 218.5 98.5 220 87 217.5C75.5 215 94 180.5 102 179.5Z" fill="#FFAC5F"/>
<path d="M77 165C69.5 161 71.5 166.5 63 174L60 197C65.6667 195.667 77.9 191.6 81.5 186C86 179 84.5 169 77 165Z" fill="#FFAC5F"/>
<g style="mix-blend-mode:multiply">
<path d="M111 40C103.5 13.5 88.1667 -1.83333 76 -8.5H195L203.5 48.5L137 51L152 191.5L120.5 232C75.1667 219.167 0.405476 194.927 63 206.5C130.611 219 118.5 66.5 111 40Z" fill="#F29138" fill-opacity="0.31"/>
</g>
</g>
<path d="M121 70H73C74.8824 79.3333 82.2406 98 96.615 98C110.989 98 118.861 79.3333 121 70Z" fill="#C86407"/>
<path d="M95 86C89.7059 86 86.7941 91.5458 86 94.3188C92.7765 100.191 100.824 97.7441 104 95.7868C103.206 92.5245 100.294 86 95 86Z" fill="#E07919"/>
<path d="M86 70H96V76C96 77.1046 95.1046 78 94 78H88C86.8954 78 86 77.1046 86 76V70Z" fill="white"/>
<path d="M99.5 70H106.5V74C106.5 75.1046 105.605 76 104.5 76H101.5C100.395 76 99.5 75.1046 99.5 74V70Z" fill="white"/>
<ellipse cx="83.3612" cy="22.9997" rx="18.3612" ry="21.5544" fill="white"/>
<circle cx="92.0287" cy="20.9916" r="3.99156" fill="#161E33"/>
<ellipse cx="116.476" cy="24.5713" rx="11.5607" ry="13.5713" fill="white"/>
<circle cx="111.55" cy="22.0855" r="2.5132" fill="#161E33"/>
</svg>
