<svg width="189" height="256" viewBox="0 0 189 256" fill="none" xmlns="http://www.w3.org/2000/svg">
<ellipse cx="92.5" cy="242" rx="92.5" ry="14" fill="#ECECF9"/>
<path d="M127.39 240.614C136.967 233.926 155.743 223.635 154.237 235.965C152.732 248.295 135.712 244.202 127.39 240.614Z" fill="#46516B"/>
<path fill-rule="evenodd" clip-rule="evenodd" d="M124 187L130.78 187L130.781 234.356C134.937 231.822 139.711 229.312 143.914 227.936C145.485 227.422 147.076 227.031 148.595 226.88C150.087 226.732 151.73 226.793 153.26 227.392C154.899 228.034 156.246 229.237 157.014 230.99C157.733 232.63 157.833 234.49 157.603 236.376C157.118 240.344 155.296 243.323 152.461 245.217C149.768 247.016 146.5 247.61 143.413 247.649C137.26 247.727 130.424 245.613 126.048 243.727L124 242.844L124 187ZM135.076 239.684C137.818 240.411 140.722 240.902 143.327 240.869C145.723 240.839 147.513 240.368 148.695 239.579C149.734 238.884 150.604 237.752 150.872 235.554C151.018 234.36 150.862 233.844 150.804 233.712C150.8 233.71 150.795 233.709 150.789 233.706C150.62 233.64 150.162 233.539 149.264 233.628C148.392 233.714 147.305 233.96 146.025 234.38C142.69 235.472 138.729 237.503 135.076 239.684Z" fill="#46516B"/>
<path d="M59.3225 240.614C49.7464 233.926 30.9704 223.635 32.4755 235.965C33.9806 248.295 51.0006 244.202 59.3225 240.614Z" fill="#46516B"/>
<path fill-rule="evenodd" clip-rule="evenodd" d="M62.7129 187L55.9324 187L55.9322 234.356C51.7759 231.822 47.0021 229.312 42.7985 227.936C41.228 227.422 39.6366 227.031 38.1182 226.88C36.6262 226.732 34.9831 226.793 33.4531 227.392C31.8134 228.034 30.4669 229.237 29.6989 230.99C28.9803 232.63 28.8799 234.49 29.1102 236.376C29.5945 240.344 31.4168 243.323 34.2518 245.217C36.945 247.016 40.2124 247.61 43.2998 247.649C49.4531 247.727 56.2891 245.613 60.6647 243.727L62.7126 242.844L62.7129 187ZM51.6368 239.684C48.8947 240.411 45.9905 240.902 43.3855 240.869C40.9895 240.839 39.1995 240.368 38.0181 239.579C36.9786 238.884 36.1089 237.752 35.8407 235.554C35.6948 234.36 35.8513 233.844 35.909 233.712C35.913 233.71 35.918 233.709 35.9242 233.706C36.0924 233.64 36.551 233.539 37.449 233.628C38.3206 233.714 39.4074 233.96 40.6884 234.38C44.0231 235.472 47.9841 237.503 51.6368 239.684Z" fill="#46516B"/>
<path d="M93.6 215.7C63 215.7 39.7 207.9 23.7 192.3C7.9 176.7 0 153.9 0 123.9V27C0 18.8 2.4 12.3 7.2 7.49999C12.2 2.5 18.8 0 27 0C35.2 0 41.7 2.5 46.5 7.49999C51.5 12.3 54 18.8 54 27V126C54 141.2 57.4 152.9 64.2 161.1C71 169.3 80.8 173.4 93.6 173.4C106.4 173.4 116.2 169.3 123 161.1C129.8 152.9 133.2 141.2 133.2 126V27C133.2 18.8 135.6 12.3 140.4 7.49999C145.4 2.5 152 0 160.2 0C168.4 0 175 2.5 180 7.49999C185 12.3 187.5 18.8 187.5 27V123.9C187.5 153.7 179.4 176.5 163.2 192.3C147.2 207.9 124 215.7 93.6 215.7Z" fill="#F0B646"/>
<mask id="mask0" mask-type="alpha" maskUnits="userSpaceOnUse" x="0" y="0" width="188" height="216">
<path d="M93.6 215.7C63 215.7 39.7 207.9 23.7 192.3C7.9 176.7 0 153.9 0 123.9V27C0 18.8 2.4 12.3 7.2 7.49999C12.2 2.5 18.8 0 27 0C35.2 0 41.7 2.5 46.5 7.49999C51.5 12.3 54 18.8 54 27V126C54 141.2 57.4 152.9 64.2 161.1C71 169.3 80.8 173.4 93.6 173.4C106.4 173.4 116.2 169.3 123 161.1C129.8 152.9 133.2 141.2 133.2 126V27C133.2 18.8 135.6 12.3 140.4 7.49999C145.4 2.5 152 0 160.2 0C168.4 0 175 2.5 180 7.49999C185 12.3 187.5 18.8 187.5 27V123.9C187.5 153.7 179.4 176.5 163.2 192.3C147.2 207.9 124 215.7 93.6 215.7Z" fill="#F0B646"/>
</mask>
<g mask="url(#mask0)">
<rect x="57.2373" y="43.1016" width="27" height="27" transform="rotate(116.627 57.2373 43.1016)" fill="#FFC759"/>
<rect x="29.2031" y="126.637" width="27" height="27" transform="rotate(136.551 29.2031 126.637)" fill="#FFC759"/>
<rect x="73.1982" y="174.326" width="27" height="27" transform="rotate(167.438 73.1982 174.326)" fill="#FFC759"/>
<rect x="93.8701" y="234.488" width="27" height="27" transform="rotate(-152.139 93.8701 234.488)" fill="#FFC759"/>
<rect x="145.433" y="179.365" width="27" height="27" transform="rotate(167.015 145.433 179.365)" fill="#FFC759"/>
<rect x="187.258" y="159.988" width="27" height="27" transform="rotate(-163.363 187.258 159.988)" fill="#FFC759"/>
<rect x="171.149" y="93.418" width="27" height="27" transform="rotate(141.703 171.149 93.418)" fill="#FFC759"/>
<rect x="194.923" y="35.1895" width="27" height="27" transform="rotate(141.703 194.923 35.1895)" fill="#FFC759"/>
<g style="mix-blend-mode:multiply">
<path d="M157.026 -8.88072L157 -9H196L199.5 157L171.5 203L99 230L1 203C44.8333 207 133 223 159.5 172.5C185.98 122.039 168.527 43.1207 157.026 -8.88072Z" fill="#F7B840" fill-opacity="0.36"/>
</g>
</g>
<path d="M135.082 173.141C102.682 190.741 66.2489 180.475 52.0823 173.141C58.5823 182.141 76.0823 200.141 94.0823 200.141C112.082 200.141 128.916 182.141 135.082 173.141Z" fill="#D68102"/>
<path d="M93.0823 191.141C84.2823 191.141 77.4156 193.141 75.0823 194.141C81.6336 198.005 87.5028 199.982 93.0823 200.141C100.789 200.362 107.489 197.575 110.582 195.641C108.416 194.141 101.882 191.141 93.0823 191.141Z" fill="#F0950C"/>
<ellipse cx="28.5893" cy="33" rx="21.1052" ry="23.3868" transform="rotate(-19.0751 28.5893 33)" fill="white"/>
<circle cx="34.295" cy="27.295" r="5.29501" fill="#161E33"/>
<ellipse rx="21.1052" ry="23.3868" transform="matrix(-0.945091 -0.326807 -0.326807 0.945091 160.589 33)" fill="white"/>
<circle r="5.29501" transform="matrix(-1 0 0 1 154.884 27.295)" fill="#161E33"/>
</svg>
