<svg width="222" height="255" viewBox="0 0 222 255" fill="none" xmlns="http://www.w3.org/2000/svg">
<ellipse cx="108.5" cy="241" rx="92.5" ry="14" fill="#ECECF9"/>
<path d="M118.39 239.614C127.967 232.926 146.743 222.635 145.237 234.965C143.732 247.295 126.712 243.202 118.39 239.614Z" fill="#46516B"/>
<path fill-rule="evenodd" clip-rule="evenodd" d="M115 186L121.78 186L121.781 233.356C125.937 230.822 130.711 228.312 134.914 226.936C136.485 226.422 138.076 226.031 139.595 225.88C141.087 225.732 142.73 225.793 144.26 226.392C145.899 227.034 147.246 228.237 148.014 229.99C148.733 231.63 148.833 233.49 148.603 235.376C148.118 239.344 146.296 242.323 143.461 244.217C140.768 246.016 137.5 246.61 134.413 246.649C128.26 246.727 121.424 244.613 117.048 242.727L115 241.844L115 186ZM126.076 238.684C128.818 239.411 131.722 239.902 134.327 239.869C136.723 239.839 138.513 239.368 139.695 238.579C140.734 237.884 141.604 236.752 141.872 234.554C142.018 233.36 141.862 232.844 141.804 232.712C141.8 232.71 141.795 232.709 141.789 232.706C141.62 232.64 141.162 232.539 140.264 232.628C139.392 232.714 138.305 232.96 137.025 233.38C133.69 234.472 129.729 236.503 126.076 238.684Z" fill="#46516B"/>
<path d="M99.3225 239.614C89.7464 232.926 70.9704 222.635 72.4755 234.965C73.9806 247.295 91.0006 243.202 99.3225 239.614Z" fill="#46516B"/>
<path fill-rule="evenodd" clip-rule="evenodd" d="M102.713 186L95.9324 186L95.9322 233.356C91.7759 230.822 87.0021 228.312 82.7985 226.936C81.228 226.422 79.6366 226.031 78.1182 225.88C76.6262 225.732 74.9831 225.793 73.4531 226.392C71.8134 227.034 70.4669 228.237 69.6989 229.99C68.9803 231.63 68.8799 233.49 69.1102 235.376C69.5945 239.344 71.4168 242.323 74.2518 244.217C76.945 246.016 80.2124 246.61 83.2998 246.649C89.4531 246.727 96.2891 244.613 100.665 242.727L102.713 241.844L102.713 186ZM91.6368 238.684C88.8947 239.411 85.9905 239.902 83.3855 239.869C80.9895 239.839 79.1995 239.368 78.0181 238.579C76.9786 237.884 76.1089 236.752 75.8407 234.554C75.6948 233.36 75.8513 232.844 75.909 232.712C75.913 232.71 75.918 232.709 75.9242 232.706C76.0924 232.64 76.551 232.539 77.449 232.628C78.3206 232.714 79.4074 232.96 80.6884 233.38C84.0231 234.472 87.9841 236.503 91.6368 238.684Z" fill="#46516B"/>
<path d="M170 14.4C172.2 9.6 175.3 6 179.3 3.60001C183.3 1.2 187.7 0 192.5 0C199.7 0 206.2 2.3 212 6.9C217.8 11.5 220.7 17.3 220.7 24.3C220.7 27.7 219.8 31.2 218 34.8L138.8 198.3C136.2 203.7 132.3 207.9 127.1 210.9C121.9 213.7 116.3 215.1 110.3 215.1C104.3 215.1 98.7002 213.7 93.5002 210.9C88.3002 207.9 84.4002 203.7 81.8002 198.3L2.6002 34.8C1.0002 31.6 0.200195 28.1 0.200195 24.3C0.200195 17.5 3.2002 11.8 9.2002 7.2C15.2002 2.4 21.9002 0 29.3002 0C34.1002 0 38.5002 1.2 42.5002 3.60001C46.7002 6 49.9002 9.6 52.1002 14.4L111.2 142.2L170 14.4Z" fill="#E2C736"/>
<mask id="mask0" mask-type="alpha" maskUnits="userSpaceOnUse" x="0" y="0" width="221" height="216">
<path d="M170 14.4C172.2 9.6 175.3 6 179.3 3.60001C183.3 1.2 187.7 0 192.5 0C199.7 0 206.2 2.3 212 6.9C217.8 11.5 220.7 17.3 220.7 24.3C220.7 27.7 219.8 31.2 218 34.8L138.8 198.3C136.2 203.7 132.3 207.9 127.1 210.9C121.9 213.7 116.3 215.1 110.3 215.1C104.3 215.1 98.7002 213.7 93.5002 210.9C88.3002 207.9 84.4002 203.7 81.8002 198.3L2.6002 34.8C1.0002 31.6 0.200195 28.1 0.200195 24.3C0.200195 17.5 3.2002 11.8 9.2002 7.2C15.2002 2.4 21.9002 0 29.3002 0C34.1002 0 38.5002 1.2 42.5002 3.60001C46.7002 6 49.9002 9.6 52.1002 14.4L111.2 142.2L170 14.4Z" fill="#E2C736"/>
</mask>
<g mask="url(#mask0)">
<path d="M-74 50.5L-53.0355 29.5355C-51.0829 27.5829 -47.9171 27.5829 -45.9645 29.5355L-28.5355 46.9645C-26.5829 48.9171 -23.4171 48.9171 -21.4645 46.9645L-4.03553 29.5355C-2.08291 27.5829 1.08291 27.5829 3.03553 29.5355L20.4645 46.9645C22.4171 48.9171 25.5829 48.9171 27.5355 46.9645L44.9645 29.5355C46.9171 27.5829 50.0829 27.5829 52.0355 29.5355L69.4645 46.9645C71.4171 48.9171 74.5829 48.9171 76.5355 46.9645L93.9645 29.5355C95.9171 27.5829 99.0829 27.5829 101.036 29.5355L118.464 46.9645C120.417 48.9171 123.583 48.9171 125.536 46.9645L142.964 29.5355C144.917 27.5829 148.083 27.5829 150.036 29.5355L167.464 46.9645C169.417 48.9171 172.583 48.9171 174.536 46.9645L191.964 29.5355C193.917 27.5829 197.083 27.5829 199.036 29.5355L216.464 46.9645C218.417 48.9171 221.583 48.9171 223.536 46.9645L240.964 29.5355C242.917 27.5829 246.083 27.5829 248.036 29.5355L269 50.5" stroke="#F0D64C" stroke-width="10" stroke-linejoin="round"/>
<path d="M-74 85.5L-53.0355 64.5355C-51.0829 62.5829 -47.9171 62.5829 -45.9645 64.5355L-28.5355 81.9645C-26.5829 83.9171 -23.4171 83.9171 -21.4645 81.9645L-4.03553 64.5355C-2.08291 62.5829 1.08291 62.5829 3.03553 64.5355L20.4645 81.9645C22.4171 83.9171 25.5829 83.9171 27.5355 81.9645L44.9645 64.5355C46.9171 62.5829 50.0829 62.5829 52.0355 64.5355L69.4645 81.9645C71.4171 83.9171 74.5829 83.9171 76.5355 81.9645L93.9645 64.5355C95.9171 62.5829 99.0829 62.5829 101.036 64.5355L118.464 81.9645C120.417 83.9171 123.583 83.9171 125.536 81.9645L142.964 64.5355C144.917 62.5829 148.083 62.5829 150.036 64.5355L167.464 81.9645C169.417 83.9171 172.583 83.9171 174.536 81.9645L191.964 64.5355C193.917 62.5829 197.083 62.5829 199.036 64.5355L216.464 81.9645C218.417 83.9171 221.583 83.9171 223.536 81.9645L240.964 64.5355C242.917 62.5829 246.083 62.5829 248.036 64.5355L269 85.5" stroke="#F0D64C" stroke-width="10" stroke-linejoin="round"/>
<path d="M-74 120.5L-53.0355 99.5355C-51.0829 97.5829 -47.9171 97.5829 -45.9645 99.5355L-28.5355 116.964C-26.5829 118.917 -23.4171 118.917 -21.4645 116.964L-4.03553 99.5355C-2.08291 97.5829 1.08291 97.5829 3.03553 99.5355L20.4645 116.964C22.4171 118.917 25.5829 118.917 27.5355 116.964L44.9645 99.5355C46.9171 97.5829 50.0829 97.5829 52.0355 99.5355L69.4645 116.964C71.4171 118.917 74.5829 118.917 76.5355 116.964L93.9645 99.5355C95.9171 97.5829 99.0829 97.5829 101.036 99.5355L118.464 116.964C120.417 118.917 123.583 118.917 125.536 116.964L142.964 99.5355C144.917 97.5829 148.083 97.5829 150.036 99.5355L167.464 116.964C169.417 118.917 172.583 118.917 174.536 116.964L191.964 99.5355C193.917 97.5829 197.083 97.5829 199.036 99.5355L216.464 116.964C218.417 118.917 221.583 118.917 223.536 116.964L240.964 99.5355C242.917 97.5829 246.083 97.5829 248.036 99.5355L269 120.5" stroke="#F0D64C" stroke-width="10" stroke-linejoin="round"/>
<path d="M-74 155.5L-53.0355 134.536C-51.0829 132.583 -47.9171 132.583 -45.9645 134.536L-28.5355 151.964C-26.5829 153.917 -23.4171 153.917 -21.4645 151.964L-4.03553 134.536C-2.08291 132.583 1.08291 132.583 3.03553 134.536L20.4645 151.964C22.4171 153.917 25.5829 153.917 27.5355 151.964L44.9645 134.536C46.9171 132.583 50.0829 132.583 52.0355 134.536L69.4645 151.964C71.4171 153.917 74.5829 153.917 76.5355 151.964L93.9645 134.536C95.9171 132.583 99.0829 132.583 101.036 134.536L118.464 151.964C120.417 153.917 123.583 153.917 125.536 151.964L142.964 134.536C144.917 132.583 148.083 132.583 150.036 134.536L167.464 151.964C169.417 153.917 172.583 153.917 174.536 151.964L191.964 134.536C193.917 132.583 197.083 132.583 199.036 134.536L216.464 151.964C218.417 153.917 221.583 153.917 223.536 151.964L240.964 134.536C242.917 132.583 246.083 132.583 248.036 134.536L269 155.5" stroke="#F0D64C" stroke-width="10" stroke-linejoin="round"/>
<path d="M-74 190.5L-53.0355 169.536C-51.0829 167.583 -47.9171 167.583 -45.9645 169.536L-28.5355 186.964C-26.5829 188.917 -23.4171 188.917 -21.4645 186.964L-4.03553 169.536C-2.08291 167.583 1.08291 167.583 3.03553 169.536L20.4645 186.964C22.4171 188.917 25.5829 188.917 27.5355 186.964L44.9645 169.536C46.9171 167.583 50.0829 167.583 52.0355 169.536L69.4645 186.964C71.4171 188.917 74.5829 188.917 76.5355 186.964L93.9645 169.536C95.9171 167.583 99.0829 167.583 101.036 169.536L118.464 186.964C120.417 188.917 123.583 188.917 125.536 186.964L142.964 169.536C144.917 167.583 148.083 167.583 150.036 169.536L167.464 186.964C169.417 188.917 172.583 188.917 174.536 186.964L191.964 169.536C193.917 167.583 197.083 167.583 199.036 169.536L216.464 186.964C218.417 188.917 221.583 188.917 223.536 186.964L240.964 169.536C242.917 167.583 246.083 167.583 248.036 169.536L269 190.5" stroke="#F0D64C" stroke-width="10" stroke-linejoin="round"/>
<path d="M-74 225.5L-53.0355 204.536C-51.0829 202.583 -47.9171 202.583 -45.9645 204.536L-28.5355 221.964C-26.5829 223.917 -23.4171 223.917 -21.4645 221.964L-4.03553 204.536C-2.08291 202.583 1.08291 202.583 3.03553 204.536L20.4645 221.964C22.4171 223.917 25.5829 223.917 27.5355 221.964L44.9645 204.536C46.9171 202.583 50.0829 202.583 52.0355 204.536L69.4645 221.964C71.4171 223.917 74.5829 223.917 76.5355 221.964L93.9645 204.536C95.9171 202.583 99.0829 202.583 101.036 204.536L118.464 221.964C120.417 223.917 123.583 223.917 125.536 221.964L142.964 204.536C144.917 202.583 148.083 202.583 150.036 204.536L167.464 221.964C169.417 223.917 172.583 223.917 174.536 221.964L191.964 204.536C193.917 202.583 197.083 202.583 199.036 204.536L216.464 221.964C218.417 223.917 221.583 223.917 223.536 221.964L240.964 204.536C242.917 202.583 246.083 202.583 248.036 204.536L269 225.5" stroke="#F0D64C" stroke-width="10" stroke-linejoin="round"/>
<path d="M-74 15.5L-53.0355 -5.46447C-51.0829 -7.41709 -47.9171 -7.41709 -45.9645 -5.46447L-28.5355 11.9645C-26.5829 13.9171 -23.4171 13.9171 -21.4645 11.9645L-4.03553 -5.46447C-2.08291 -7.41709 1.08291 -7.41709 3.03553 -5.46447L20.4645 11.9645C22.4171 13.9171 25.5829 13.9171 27.5355 11.9645L44.9645 -5.46447C46.9171 -7.41709 50.0829 -7.41709 52.0355 -5.46447L69.4645 11.9645C71.4171 13.9171 74.5829 13.9171 76.5355 11.9645L93.9645 -5.46447C95.9171 -7.41709 99.0829 -7.41709 101.036 -5.46447L118.464 11.9645C120.417 13.9171 123.583 13.9171 125.536 11.9645L142.964 -5.46447C144.917 -7.41709 148.083 -7.41709 150.036 -5.46447L167.464 11.9645C169.417 13.9171 172.583 13.9171 174.536 11.9645L191.964 -5.46447C193.917 -7.41709 197.083 -7.41709 199.036 -5.46447L216.464 11.9645C218.417 13.9171 221.583 13.9171 223.536 11.9645L240.964 -5.46447C242.917 -7.41709 246.083 -7.41709 248.036 -5.46447L269 15.5" stroke="#F0D64C" stroke-width="10" stroke-linejoin="round"/>
<g style="mix-blend-mode:multiply">
<path d="M43 196C126.2 242.4 189.667 71.3333 211 -20H250L151 232H94L43 196Z" fill="#E2C736" fill-opacity="0.56"/>
</g>
</g>
<ellipse rx="22.5607" ry="24.9997" transform="matrix(-0.945091 -0.326807 -0.326807 0.945091 191.639 31)" fill="white"/>
<circle r="5.66018" transform="matrix(-1 0 0 1 186.203 30.4613)" fill="#161E33"/>
<ellipse cx="29.492" cy="31" rx="22.5607" ry="24.9997" transform="rotate(-19.0751 29.492 31)" fill="white"/>
<circle cx="34.9281" cy="30.4613" r="5.66018" fill="#161E33"/>
<path d="M134 167H86C87.8824 176.333 95.2406 195 109.615 195C123.989 195 131.861 176.333 134 167Z" fill="#9F8600"/>
<path d="M108 183C102.706 183 99.7941 188.546 99 191.319C105.776 197.191 113.824 194.744 117 192.787C116.206 189.525 113.294 183 108 183Z" fill="#C5A80C"/>
<path d="M99 167H109V173C109 174.105 108.105 175 107 175H101C99.8954 175 99 174.105 99 173V167Z" fill="white"/>
<path d="M112.5 167H119.5V171C119.5 172.105 118.605 173 117.5 173H114.5C113.395 173 112.5 172.105 112.5 171V167Z" fill="white"/>
</svg>
