<svg width="223" height="255" viewBox="0 0 223 255" fill="none" xmlns="http://www.w3.org/2000/svg">
<ellipse cx="111.5" cy="241" rx="111.5" ry="14" fill="#ECECF9"/>
<path d="M184.39 239.614C193.967 232.926 212.743 222.635 211.237 234.965C209.732 247.295 192.712 243.202 184.39 239.614Z" fill="#46516B"/>
<path fill-rule="evenodd" clip-rule="evenodd" d="M181 186L187.78 186L187.781 233.356C191.937 230.822 196.711 228.312 200.914 226.936C202.485 226.422 204.076 226.031 205.595 225.88C207.087 225.732 208.73 225.793 210.26 226.392C211.899 227.034 213.246 228.237 214.014 229.99C214.733 231.63 214.833 233.49 214.603 235.376C214.118 239.344 212.296 242.323 209.461 244.217C206.768 246.016 203.5 246.61 200.413 246.649C194.26 246.727 187.424 244.613 183.048 242.727L181 241.844L181 186ZM192.076 238.684C194.818 239.411 197.722 239.902 200.327 239.869C202.723 239.839 204.513 239.368 205.695 238.579C206.734 237.884 207.604 236.752 207.872 234.554C208.018 233.36 207.862 232.844 207.804 232.712C207.8 232.71 207.795 232.709 207.789 232.706C207.62 232.64 207.162 232.539 206.264 232.628C205.392 232.714 204.305 232.96 203.025 233.38C199.69 234.472 195.729 236.503 192.076 238.684Z" fill="#46516B"/>
<path d="M40.3225 239.614C30.7464 232.926 11.9704 222.635 13.4755 234.965C14.9806 247.295 32.0006 243.202 40.3225 239.614Z" fill="#46516B"/>
<path fill-rule="evenodd" clip-rule="evenodd" d="M43.7129 186L36.9324 186L36.9322 233.356C32.7759 230.822 28.0021 228.312 23.7985 226.936C22.228 226.422 20.6366 226.031 19.1182 225.88C17.6262 225.732 15.9831 225.793 14.4531 226.392C12.8134 227.034 11.4669 228.237 10.6989 229.99C9.98032 231.63 9.87992 233.49 10.1102 235.376C10.5945 239.344 12.4168 242.323 15.2518 244.217C17.945 246.016 21.2124 246.61 24.2998 246.649C30.4531 246.727 37.2891 244.613 41.6647 242.727L43.7126 241.844L43.7129 186ZM32.6368 238.684C29.8947 239.411 26.9905 239.902 24.3855 239.869C21.9895 239.839 20.1995 239.368 19.0181 238.579C17.9786 237.884 17.1089 236.752 16.8407 234.554C16.6948 233.36 16.8513 232.844 16.909 232.712C16.913 232.71 16.918 232.709 16.9242 232.706C17.0924 232.64 17.551 232.539 18.449 232.628C19.3206 232.714 20.4074 232.96 21.6884 233.38C25.0231 234.472 28.9841 236.503 32.6368 238.684Z" fill="#46516B"/>
<path d="M200.4 173.4C204.8 178.4 207 183.9 207 189.9C207 196.7 204.3 202.7 198.9 207.9C193.7 212.9 187.8 215.4 181.2 215.4C174.2 215.4 168.1 212.4 162.9 206.4L111.3 144.6L58.8 206.4C53.6 212.4 47.6 215.4 40.8 215.4C34.2 215.4 28.2 212.8 22.8 207.6C17.6 202.4 15 196.4 15 189.6C15 183.8 17.1 178.4 21.3 173.4L78.9 106.8L22.8 41.7C18.4 36.5 16.2 31.1 16.2 25.5C16.2 18.7 18.8 12.8 24 7.79999C29.4 2.6 35.5 0 42.3 0C49.3 0 55.4 3 60.6 8.99999L111.3 69L161.7 8.99999C166.5 3 172.4 0 179.4 0C186.2 0 192.2 2.6 197.4 7.79999C202.8 12.8 205.5 18.7 205.5 25.5C205.5 31.3 203.4 36.7 199.2 41.7L143.1 106.8L200.4 173.4Z" fill="#8ED646"/>
<mask id="mask0" mask-type="alpha" maskUnits="userSpaceOnUse" x="15" y="0" width="192" height="216">
<path d="M200.4 173.4C204.8 178.4 207 183.9 207 189.9C207 196.7 204.3 202.7 198.9 207.9C193.7 212.9 187.8 215.4 181.2 215.4C174.2 215.4 168.1 212.4 162.9 206.4L111.3 144.6L58.8 206.4C53.6 212.4 47.6 215.4 40.8 215.4C34.2 215.4 28.2 212.8 22.8 207.6C17.6 202.4 15 196.4 15 189.6C15 183.8 17.1 178.4 21.3 173.4L78.9 106.8L22.8 41.7C18.4 36.5 16.2 31.1 16.2 25.5C16.2 18.7 18.8 12.8 24 7.79999C29.4 2.6 35.5 0 42.3 0C49.3 0 55.4 3 60.6 8.99999L111.3 69L161.7 8.99999C166.5 3 172.4 0 179.4 0C186.2 0 192.2 2.6 197.4 7.79999C202.8 12.8 205.5 18.7 205.5 25.5C205.5 31.3 203.4 36.7 199.2 41.7L143.1 106.8L200.4 173.4Z" fill="#8ED646"/>
</mask>
<g mask="url(#mask0)">
<path d="M192.6 189.801C193.8 173.801 160.766 129.467 143.6 107.301L220.6 185.301L193.6 227.301L155.1 209.301C184.6 214.801 191.4 205.801 192.6 189.801Z" fill="#71C62F"/>
<circle cx="50.5996" cy="30.8008" r="10.5" fill="#A3EB5B"/>
<circle cx="132.6" cy="130.801" r="15.5" fill="#A3EB5B"/>
<circle cx="61.0996" cy="161.301" r="11" fill="#A3EB5B"/>
<circle cx="161.6" cy="28.8008" r="9.5" fill="#A3EB5B"/>
<circle cx="168.1" cy="191.301" r="6" fill="#A3EB5B"/>
<circle cx="91.0996" cy="107.301" r="6" fill="#A3EB5B"/>
<circle cx="165.1" cy="64.3008" r="6" fill="#A3EB5B"/>
<circle cx="87.0996" cy="68.3008" r="8" fill="#A3EB5B"/>
<circle cx="55.0996" cy="58.3008" r="4" fill="#A3EB5B"/>
<circle cx="126.1" cy="74.3008" r="4" fill="#A3EB5B"/>
<circle cx="159.1" cy="150.301" r="4" fill="#A3EB5B"/>
<circle cx="46.0996" cy="201.301" r="4" fill="#A3EB5B"/>
<circle cx="29.0996" cy="181.301" r="4" fill="#A3EB5B"/>
<circle cx="197.1" cy="24.3008" r="4" fill="#A3EB5B"/>
<g style="mix-blend-mode:multiply">
<path d="M187.6 29.3008C191.6 11.7008 178.6 -3.36589 171.6 -8.69922L207.1 -0.199219L222.1 22.3008L163.6 102.301L143.1 105.801C156.266 87.6341 183.6 46.9008 187.6 29.3008Z" fill="#8ED646" fill-opacity="0.46"/>
</g>
<g style="mix-blend-mode:multiply">
<path d="M11.0996 189.301C35.8996 220.901 88.4329 172.467 111.6 144.301L65.5996 236.301L16.0996 213.801L11.0996 189.301Z" fill="#8ED646" fill-opacity="0.46"/>
</g>
</g>
<path d="M135 107H87C88.8824 116.333 96.2406 135 110.615 135C124.989 135 132.861 116.333 135 107Z" fill="#429800"/>
<path d="M109 123C103.706 123 100.794 128.546 100 131.319C106.776 137.191 114.824 134.744 118 132.787C117.206 129.525 114.294 123 109 123Z" fill="#5CC00E"/>
<path d="M100 107H110V113C110 114.105 109.105 115 108 115H102C100.895 115 100 114.105 100 113V107Z" fill="white"/>
<path d="M113.5 107H120.5V111C120.5 112.105 119.605 113 118.5 113H115.5C114.395 113 113.5 112.105 113.5 111V107Z" fill="white"/>
<ellipse cx="141.229" cy="61.7999" rx="22.0041" ry="23.1622" fill="#52A90F"/>
<ellipse cx="89.602" cy="55.3021" rx="30.602" ry="32.3021" fill="#52A90F"/>
<ellipse cx="137.075" cy="63.0943" rx="16.3148" ry="17.2212" fill="white"/>
<circle cx="132.545" cy="57.6582" r="4.53189" fill="#161E33"/>
<ellipse cx="94.024" cy="57.6264" rx="24.019" ry="25.3534" fill="white"/>
<circle cx="101.146" cy="56.1668" r="6.67195" fill="#161E33"/>
</svg>
