<svg xmlns="http://www.w3.org/2000/svg" xmlns:xlink="http://www.w3.org/1999/xlink" viewBox="0 0 646.44 752.2"><defs><clipPath id="clip-path" transform="translate(0 4.99)"><path d="M55.8,520s80-208,116-265,147-131,187-145,148,120,181,188,50,205,52,216-179,89-248,100S83.8,600,55.8,520Z" style="fill:#ff8b00"/></clipPath><clipPath id="clip-path-2" transform="translate(0 4.99)"><path d="M2.8,654c-7-42.84-2-117,29-141s165,28,256,34,260-45,297-49,39,31.2,49,69c10.22,38.45,4.73,58.39-14,96-18.63,37.39-219,59-310,66S13.8,721,2.8,654Z" style="fill:#ffaa39"/></clipPath><clipPath id="clip-path-3" transform="translate(0 4.99)"><path d="M257.31,89c.33-.8-2.21-12.74.87-17.24,5.6-8.19,12.07-11.21,12.07-15.52S272,28.64,280.59,23.46,313.35,7.08,325.42,2.77s50-4.31,56,5.18,28.44,23.27,45.69,30.17,21.55,22.41,18.1,34.48,4.31,30.18,0,49.14-18.1,26.73-29.31,33.62-37.93,19-76.73,15.52S279.73,151.05,272,141.57s-3.45-22.41-5.17-27.59S251.28,103.64,257.31,89Z" style="fill:#ffaa39"/></clipPath></defs><g id="Layer_2" data-name="Layer 2"><g id="Layer_3" data-name="Layer 3"><g id="Layer_4" data-name="Layer 4"><path d="M55.8,520s80-208,116-265,147-131,187-145,148,120,181,188,50,205,52,216-179,89-248,100S83.8,600,55.8,520Z" transform="translate(0 4.99)" style="fill:#ff8b00"/><g style="clip-path:url(#clip-path)"><path d="M95.8,375s210,112,489-12" transform="translate(0 4.99)" style="fill:none;stroke:#ea2727;stroke-miterlimit:10;stroke-width:34px"/><path d="M129.29,280.36s127-55.86,422-10.36" transform="translate(0 4.99)" style="fill:none;stroke:#ea2727;stroke-miterlimit:10;stroke-width:34px"/><path d="M616.3,497.5,538.44,271.28l-110-137-2.76-23.71C412.42,99,397.9,89.52,389.8,88c-16-3-126,67-126,67s23,23,53,27c18.78,2.51,41.88,1.48,61.2-.13,13.76,35.32,32.69,84.82,43.3,116.63,15.09,45.28-11.69,182.31-109.3,231.72-45.2-4.57-163.25-28.09-201.2-36.22-42-9-69,10-69,10l-7,25,46,60,239,60,287-92-3.07-49.8Z" transform="translate(0 4.99)" style="fill:#d85107;opacity:0.35000000000000003"/></g><path d="M2.8,654c-7-42.84-2-117,29-141s165,28,256,34,260-45,297-49,39,31.2,49,69c10.22,38.45,4.73,58.39-14,96-18.63,37.39-219,59-310,66S13.8,721,2.8,654Z" transform="translate(0 4.99)" style="fill:#ffaa39"/><g style="clip-path:url(#clip-path-2)"><g style="opacity:0.5"><path d="M84.73,504.12c-10.33,15.75-18.87,32.46-24.17,50.61-5.41,18.54-6.8,37.72-8.55,56.86-1.85,20.21-4.4,40.87-1.83,61.12,1.93,15.23,6.49,34.8,18.26,45.64a2,2,0,0,0,3.16-2.44c-4.07-7.68-8.81-14.55-11.72-22.84a109.57,109.57,0,0,1-5.51-25.62c-1.85-19-.42-37.87,1-56.8,1.41-18.41,4-37,9.26-54.79s13.7-34.25,22.1-50.56a1.17,1.17,0,0,0-2-1.18Z" transform="translate(0 4.99)" style="fill:#ea2727"/></g><g style="opacity:0.5"><path d="M122.29,513.88c-10.4,15-15.25,31.2-19.24,48.85a517.4,517.4,0,0,0-8.87,53.35c-2.2,18.56-2.89,38.21-.4,56.76,1.25,9.24,3.3,18.35,5.29,27.45s4,18.73,9,26.81a2.36,2.36,0,0,0,4.29-1.8c-2.29-9-6.57-17.24-9.32-26.09a130.44,130.44,0,0,1-5-28.51c-1.43-18.29-.09-36.34.73-54.62.78-17.55,3-35.46,7.57-52.45,4.51-16.62,11.56-32.94,18.12-48.85.54-1.3-1.44-1.92-2.14-.9Z" transform="translate(0 4.99)" style="fill:#ea2727"/></g><g style="opacity:0.5"><path d="M49.63,501.25c-5.35,5.6-10,10.71-13.77,17.6a107,107,0,0,0-8.15,21.06C22.8,556.73,19.59,574.33,17,591.66c-5,33.82-8.41,68.71,7,100.53.62,1.28,2.82.37,2.32-1C14.59,659.7,16.06,624.93,20,592.06c2-16.88,4-33.79,10-49.76a176.32,176.32,0,0,1,9.79-21.16c3.38-6.32,6.81-13.21,11.1-18.92.55-.73-.64-1.61-1.25-1Z" transform="translate(0 4.99)" style="fill:#ea2727"/></g><g style="opacity:0.5"><path d="M165.82,517.84c-14.22,23.4-20.23,52.4-23.88,79.23-2,14.93-3.74,29.74-4.06,44.82-.16,8,.43,15.93.38,23.92a122.55,122.55,0,0,0,1.83,22.63,160.94,160.94,0,0,0,6.68,25.17c1.44,4.07,3,8.07,4,12.27s1.84,8.36,3.89,12.18c1.37,2.57,6.12,1.55,5.76-1.56-.54-4.66-2.4-8.76-4-13.13-1.71-4.62-2.77-9.42-4.11-14.16-2.55-9-5.2-18-6.88-27.17-1.78-9.82-4.33-19.58-4.28-29.61.05-9.5-.17-19-.08-28.5a235.18,235.18,0,0,1,6.29-54.1c4.36-17.91,12.47-34.27,21.55-50.2a1.78,1.78,0,0,0-3.07-1.79Z" transform="translate(0 4.99)" style="fill:#ea2727"/></g><g style="opacity:0.5"><path d="M211.23,530.48A184.82,184.82,0,0,0,192,580.16a135.92,135.92,0,0,0-3.37,24.91c-.47,9.34-1.24,18.91-.1,28.23a.33.33,0,0,0,.66,0c.51-9.34.25-18.64,1.75-27.92,1.31-8.08,3.05-16.2,4.86-24.17,3.91-17.2,10.22-33.43,18-49.27.82-1.66-1.56-3.1-2.51-1.46Z" transform="translate(0 4.99)" style="fill:#ea2727"/></g><g style="opacity:0.5"><path d="M188.07,641.1l.39,2.32c0,.24.4.14.36-.1l-.38-2.32c0-.23-.41-.13-.37.1Z" transform="translate(0 4.99)" style="fill:#ea2727"/></g><g style="opacity:0.5"><path d="M188.71,651.11c.75,16.06,2.29,31.77,6.39,47.36,2,7.65,4.75,15.12,7.42,22.56,2.14,6,4,15.75,10,19a1.61,1.61,0,0,0,2.34-1c1-6.32-4-13-6.49-18.57a231.23,231.23,0,0,1-8.27-23.45c-4.68-15-8.85-30.45-11-46,0-.2-.38-.15-.37.05Z" transform="translate(0 4.99)" style="fill:#ea2727"/></g><g style="opacity:0.5"><path d="M253.5,538.83c-14.57,33.14-24,68.52-22.4,105A170,170,0,0,0,242,696c3.23,8.57,6.93,17,10.33,25.47,2.87,7.18,5.64,17.48,12.39,22a1.51,1.51,0,0,0,2.26-1.29c.27-7.56-5.81-15.6-9.16-22a172.24,172.24,0,0,1-10.66-25.57c-5.5-16.5-9.79-33.42-11.12-50.8-2.69-35.29,6.32-71.07,20.61-103.12.95-2.14-2.21-4-3.16-1.85Z" transform="translate(0 4.99)" style="fill:#ea2727"/></g><g style="opacity:0.5"><path d="M568.65,495.75c10.75,11.82,17.26,26.76,21.37,42,4.45,16.51,9.41,33.09,10.82,50.24,2.91,35.4-2.26,71.31-13.37,105-1,3,3.69,4.25,4.7,1.29a257.41,257.41,0,0,0,12.13-53.43c2.13-18.54,3.18-37.26.71-55.83a175.66,175.66,0,0,0-5.84-26.53c-2.36-8-3.89-16.08-6.62-23.94-5.2-15-11-29.12-21.38-41.3-1.49-1.73-4.07.82-2.52,2.52Z" transform="translate(0 4.99)" style="fill:#ea2727"/></g><g style="opacity:0.5"><path d="M529.63,504.79c9.51,12.64,17.78,26.2,23.31,41.05a277.5,277.5,0,0,1,12.55,45.83,169.79,169.79,0,0,1,1.07,56.09c-1.29,8.81-3.33,17.47-5.16,26.17-1.77,8.41-5.67,18.1-5.28,26.71a1.61,1.61,0,0,0,3,.81c2.4-3.89,3.32-8.66,4.44-13.05q1.9-7.41,3.6-14.87a241.94,241.94,0,0,0,4.2-27c2-18.15,2-37-2.54-54.78-4.11-16.18-7.77-32.45-13.19-48.27-5.14-15-11.48-29.75-23.54-40.52-1.23-1.1-3.54.39-2.43,1.87Z" transform="translate(0 4.99)" style="fill:#ea2727"/></g><g style="opacity:0.5"><path d="M494.56,512.63c10.52,13.35,15.77,29.92,21.21,45.78a235.29,235.29,0,0,1,11.78,51.5,247.82,247.82,0,0,1,.13,51.16c-.9,9-2.77,17.72-4.57,26.53-1.56,7.63-4.73,16.11-4.49,23.92a1.61,1.61,0,0,0,3,.8c4.44-7,5.61-17,7-25.11,1.47-8.64,2.27-17.42,3.11-26.14a258.53,258.53,0,0,0-.24-54.78,239.26,239.26,0,0,0-12.77-52.66c-5.5-15.39-10.93-31-21.2-43.91-1.65-2.08-4.54.85-2.92,2.91Z" transform="translate(0 4.99)" style="fill:#ea2727"/></g><g style="opacity:0.5"><path d="M463.44,521.29c9.16,13.42,13.14,30.25,16.19,46,3.44,17.81,7.75,35.61,9.91,53.63,2,17,1.24,34.12-.54,51.09-1.91,18.21-7.12,36.84-6.24,55.25a1.79,1.79,0,0,0,3.5.47c4.85-17.92,3.78-37.39,5.81-55.72.95-8.65,2.17-17.32,2.05-26a193.66,193.66,0,0,0-2.45-26.32c-2.78-18.42-7.21-36.5-11.11-54.69-3.38-15.76-5.89-31.24-15.91-44.4-.53-.7-1.73-.05-1.21.71Z" transform="translate(0 4.99)" style="fill:#ea2727"/></g><g style="opacity:0.5"><path d="M425.34,535.72c10,31.57,21.34,63.42,25,96.49a309.12,309.12,0,0,1,1.57,48.39c-.79,16.95-3.73,33.53-6.14,50.29-.4,2.78,3.54,4.07,4.34,1.19,4.46-16,5.86-33,6.43-49.58a291.54,291.54,0,0,0-2.5-49.59,342.75,342.75,0,0,0-10.17-48.7c-4.83-16.68-11.37-32.6-17.9-48.66-.15-.38-.76-.24-.63.17Z" transform="translate(0 4.99)" style="fill:#ea2727"/></g><g style="opacity:0.5"><path d="M378.57,540.72c7.72,15,12.94,30.71,17.55,46.9,4.72,16.55,9.54,33.46,12.06,50.52,2.57,17.41.83,35.07-.26,52.53-.55,8.73-.94,17.61-2.39,26.24s-4,16.6-6.51,24.81c-.22.75.93,1.27,1.29.54,7.1-14.69,9.84-32.67,11.14-48.82,1.44-17.79,1.79-36.13-.67-53.84-4.83-34.81-12.28-69.58-28.65-101-1.23-2.36-4.77-.28-3.56,2.08Z" transform="translate(0 4.99)" style="fill:#ea2727"/></g><g style="opacity:0.5"><path d="M295.41,542.86c-9.88,35.4-15.88,72-11.39,108.78,4,32.77,13.08,68.32,33.61,94.93a1.46,1.46,0,0,0,2.51-1.47c-8-15.39-16.14-30.29-22.28-46.58A197.3,197.3,0,0,1,286,649.91c-3.85-36,2.21-71.75,11.22-106.55a.94.94,0,0,0-1.81-.5Z" transform="translate(0 4.99)" style="fill:#ea2727"/></g><g style="opacity:0.5"><path d="M346.69,537c-11.34,32.59-13.49,70-9.39,104a326.45,326.45,0,0,0,10,50.43c4.8,16.79,10.66,33.49,20.13,48.25a1.36,1.36,0,0,0,2.35-1.38c-7-16-14.71-31.73-20.06-48.42a231,231,0,0,1-10.34-50.58,296.79,296.79,0,0,1-.25-50.24c1.46-17.55,5.24-34.54,9.31-51.63a.89.89,0,0,0-1.72-.47Z" transform="translate(0 4.99)" style="fill:#ea2727"/></g><path d="M327.8,531s65,49,61,85c-3,27,6,116-283,123l331.64-7.72,183-52,23-46,3-53-31-82-36-11Z" transform="translate(0 4.99)" style="fill:#d85107;opacity:0.35000000000000003"/></g><path d="M257.31,89c.33-.8-2.21-12.74.87-17.24,5.6-8.19,12.07-11.21,12.07-15.52S272,28.64,280.59,23.46,313.35,7.08,325.42,2.77s50-4.31,56,5.18,28.44,23.27,45.69,30.17,21.55,22.41,18.1,34.48,4.31,30.18,0,49.14-18.1,26.73-29.31,33.62-37.93,19-76.73,15.52S279.73,151.05,272,141.57s-3.45-22.41-5.17-27.59S251.28,103.64,257.31,89Z" transform="translate(0 4.99)" style="fill:#ffaa39"/><g style="clip-path:url(#clip-path-3)"><g style="opacity:0.5"><path d="M308.78,18.9c-.69.56-1.46,1-2.14,1.61a5.71,5.71,0,0,0-1.41,2.16c-.29.71.65,1.28,1.24.95a5.41,5.41,0,0,0,1.92-1.76c.44-.75.82-1.53,1.27-2.28.36-.58-.41-1.07-.88-.68Z" transform="translate(0 4.99)" style="fill:#ea2727"/></g><g style="opacity:0.5"><path d="M302.68,29.88a0,0,0,1,0,0-.09,0,0,0,1,0,0,.09Z" transform="translate(0 4.99)" style="fill:#ea2727"/></g><g style="opacity:0.5"><path d="M338.64,15.93,343.06,17a.8.8,0,0,0,.42-1.54l-4.39-1.14c-1.06-.27-1.51,1.38-.45,1.63Z" transform="translate(0 4.99)" style="fill:#ea2727"/></g><g style="opacity:0.5"><path d="M338.49,43.56a17.84,17.84,0,0,0-6.41,6.67,1.36,1.36,0,0,0,2.35,1.37,26.88,26.88,0,0,1,5.42-6.27c1-.8-.3-2.45-1.36-1.77Z" transform="translate(0 4.99)" style="fill:#ea2727"/></g><g style="opacity:0.5"><path d="M307.89,66.07a39.09,39.09,0,0,1-2.79,4.19,12.67,12.67,0,0,0-2.45,3.92.9.9,0,0,0,1.49.87,11.35,11.35,0,0,0,1.94-3.71,42.35,42.35,0,0,1,2.29-5c.17-.32-.3-.6-.48-.29Z" transform="translate(0 4.99)" style="fill:#ea2727"/></g><g style="opacity:0.5"><path d="M280.05,66.86l-.42,4c-.08.71,1.05.71,1.12,0l.42-4c.08-.72-1.05-.72-1.12,0Z" transform="translate(0 4.99)" style="fill:#ea2727"/></g><g style="opacity:0.5"><path d="M305,45.59a29.22,29.22,0,0,1,2.88-2.2c1-.74,1.93-1.68,2.94-2.45a1.92,1.92,0,0,0,.77-2.34,1.87,1.87,0,0,0-2.21-1.09,14.37,14.37,0,0,0-4.16,1.94,19.08,19.08,0,0,0-3.13,3.22A2.06,2.06,0,0,0,305,45.59Z" transform="translate(0 4.99)" style="fill:#ea2727"/></g><g style="opacity:0.5"><path d="M376,27,379.18,28c.34.12.49-.43.15-.54l-3.16-1.05c-.34-.12-.49.43-.15.54Z" transform="translate(0 4.99)" style="fill:#ea2727"/></g><g style="opacity:0.5"><path d="M403.85,53.46a34.12,34.12,0,0,0-3.74,2.42,8.61,8.61,0,0,0-2.85,3.37c-.45.92.32,2.38,1.48,1.93.58-.22,1.19-.39,1.75-.64a12.16,12.16,0,0,0,1.86-1.26A33.22,33.22,0,0,1,406,57.1c2.4-1.24.25-5-2.13-3.64Z" transform="translate(0 4.99)" style="fill:#ea2727"/></g><g style="opacity:0.5"><path d="M426.41,71.4a64,64,0,0,1,.76,8.08,1.74,1.74,0,0,0,3.47,0c.08-3.08-.83-5.85-1.79-8.75a1.27,1.27,0,0,0-2.44.67Z" transform="translate(0 4.99)" style="fill:#ea2727"/></g><g style="opacity:0.5"><path d="M387.2,98a3.4,3.4,0,0,1-.64.89l-.61.77a0,0,0,1,0,.07.06l.58-.8a3,3,0,0,1,.67-.87c.08,0,0-.14-.07,0Z" transform="translate(0 4.99)" style="fill:#ea2727"/></g><g style="opacity:0.5"><path d="M360.78,74.46a48.72,48.72,0,0,0-5.42,6.92c-.19.32.27.69.52.4,1.89-2.18,3.7-4.43,5.69-6.52.5-.53-.31-1.33-.79-.8Z" transform="translate(0 4.99)" style="fill:#ea2727"/></g><g style="opacity:0.5"><path d="M426.29,107.45a29.64,29.64,0,0,1-1.52,4.2,5.62,5.62,0,0,0-.6,4,1.47,1.47,0,0,0,2.43.64,5.31,5.31,0,0,0,1.86-3.66c.25-1.45.6-2.88.9-4.32a1.59,1.59,0,0,0-3.07-.85Z" transform="translate(0 4.99)" style="fill:#ea2727"/></g><g style="opacity:0.5"><path d="M364.48,138.83l-2.32.84c-.22.08-.13.44.1.36l2.32-.84c.22-.08.12-.45-.1-.36Z" transform="translate(0 4.99)" style="fill:#ea2727"/></g><g style="opacity:0.5"><path d="M349.9,134.34c3.5-1.9,7.37-3.87,10.09-6.82a1,1,0,0,0-1.4-1.39c-2.9,2.86-5.33,5.74-8.93,7.8-.26.15,0,.55.24.41Z" transform="translate(0 4.99)" style="fill:#ea2727"/></g><g style="opacity:0.5"><path d="M377.56,98.69a9.36,9.36,0,0,1-.67,1.52,8.25,8.25,0,0,0-.64,1.74,1,1,0,0,0,1.38,1.06,4.38,4.38,0,0,0,1.58-1.56,14.33,14.33,0,0,0,.88-2.06,1.33,1.33,0,0,0-.92-1.62,1.34,1.34,0,0,0-1.61.92Z" transform="translate(0 4.99)" style="fill:#ea2727"/></g><g style="opacity:0.5"><path d="M330.11,101.43l-1.44,1.51c-.13.13.06.32.2.2l1.5-1.44c.18-.17-.1-.44-.26-.27Z" transform="translate(0 4.99)" style="fill:#ea2727"/></g><g style="opacity:0.5"><path d="M312,109.37a22.45,22.45,0,0,0,3.68-2.6c.5-.44-.23-1.16-.73-.73a21.46,21.46,0,0,1-3.47,2.44.52.52,0,0,0,.52.89Z" transform="translate(0 4.99)" style="fill:#ea2727"/></g><g style="opacity:0.5"><path d="M336.26,81l1.06.42a.28.28,0,0,0,.34-.19.29.29,0,0,0-.19-.35l-1.06-.42a.28.28,0,0,0-.15.54Z" transform="translate(0 4.99)" style="fill:#ea2727"/></g><g style="opacity:0.5"><path d="M280.38,96.67a8.7,8.7,0,0,0,5.25-.79c.81-.49.79-2.07-.29-2.23a23.56,23.56,0,0,0-5,.21,1.41,1.41,0,0,0,0,2.81Z" transform="translate(0 4.99)" style="fill:#ea2727"/></g><g style="opacity:0.5"><path d="M289,124.26a.19.19,0,0,0,0-.37.19.19,0,0,0,0,.37Z" transform="translate(0 4.99)" style="fill:#ea2727"/></g><g style="opacity:0.5"><path d="M304.21,142a7,7,0,0,0,2.29-.8,3.24,3.24,0,0,0,1.65-2.1,1.33,1.33,0,0,0-1.62-1.62,9.17,9.17,0,0,0-.9.24,6.34,6.34,0,0,0-.88.49,4.56,4.56,0,0,1-1.46.45,1.75,1.75,0,0,0-1.22,2.13,1.78,1.78,0,0,0,2.14,1.21Z" transform="translate(0 4.99)" style="fill:#ea2727"/></g><g style="opacity:0.5"><path d="M287.4,123.66c1.12-.62,2.22-1.26,3.36-1.83a9.87,9.87,0,0,0,3.12-1.94,1.28,1.28,0,0,0-1.23-2.12,9.2,9.2,0,0,0-3,1.84c-1,.83-2.16,1.58-3.24,2.35a1,1,0,0,0,1,1.7Z" transform="translate(0 4.99)" style="fill:#ea2727"/></g><g style="opacity:0.5"><path d="M330.77,152.58a12.42,12.42,0,0,0,1.81-2.16.52.52,0,0,0-.71-.71,12,12,0,0,0-2.16,1.81c-.72.65.4,1.77,1.06,1.06Z" transform="translate(0 4.99)" style="fill:#ea2727"/></g><g style="opacity:0.5"><path d="M352.79,160l1.8-1.11a7.06,7.06,0,0,0,1.57-1.32.66.66,0,0,0-.64-1.09,6.76,6.76,0,0,0-1.88.79l-1.8,1.11c-1,.63-.09,2.26,1,1.62Z" transform="translate(0 4.99)" style="fill:#ea2727"/></g><g style="opacity:0.5"><path d="M391.35,136.51c-.41,2.33-1.29,4.88,0,7.06a2,2,0,0,0,3.09.4c1.72-2,1.38-4.41,1.38-6.85s-4.05-3.23-4.51-.61Z" transform="translate(0 4.99)" style="fill:#ea2727"/></g><g style="opacity:0.5"><path d="M416,137.35a5,5,0,0,0-.48,3.28,2.69,2.69,0,0,0,2.69,2.27,1.64,1.64,0,0,0,1.53-1.17,3.74,3.74,0,0,0-.07-2.07c0-.1-.06-.22-.09-.32-.1-.25.06.39,0,0,0-.23,0-.12,0,.06a3.79,3.79,0,0,1,.14-.48,2,2,0,0,0-3.69-1.55Z" transform="translate(0 4.99)" style="fill:#ea2727"/></g><g style="opacity:0.5"><path d="M403.52,105.89a17.45,17.45,0,0,0,1.18,3,1.27,1.27,0,0,0,2.31-1,18.21,18.21,0,0,0-1.26-3c-.6-1.24-2.66-.37-2.23.94Z" transform="translate(0 4.99)" style="fill:#ea2727"/></g><g style="opacity:0.5"><path d="M411.77,85.47a57.53,57.53,0,0,0,7,5.29c.82.46,1.76-.66,1-1.32a58.43,58.43,0,0,0-7.23-5c-.61-.4-1.38.57-.79,1Z" transform="translate(0 4.99)" style="fill:#ea2727"/></g><g style="opacity:0.5"><path d="M425.07,51.6a6.1,6.1,0,0,0,3.39,1.28,1.13,1.13,0,0,0,.57-2.09,11.27,11.27,0,0,1-2.31-1.33,1.36,1.36,0,1,0-1.65,2.14Z" transform="translate(0 4.99)" style="fill:#ea2727"/></g><g style="opacity:0.5"><path d="M385.73,37.84c.6.17,1.21.36,1.82.52a2.7,2.7,0,0,0,1.35.1c.25-.05.51-.14.76-.21a1.14,1.14,0,0,0,.49-1.88,4.89,4.89,0,0,0-.52-.68,3.22,3.22,0,0,0-1.17-.62l-1.79-.67a1.78,1.78,0,0,0-.94,3.44Z" transform="translate(0 4.99)" style="fill:#ea2727"/></g><g style="opacity:0.5"><path d="M365.74,45l1.68.42a.19.19,0,0,0,.1-.36l-1.68-.42a.19.19,0,0,0-.1.36Z" transform="translate(0 4.99)" style="fill:#ea2727"/></g><g style="opacity:0.5"><path d="M359.9,16.42a.05.05,0,0,0,0-.1.05.05,0,1,0,0,.1Z" transform="translate(0 4.99)" style="fill:#ea2727"/></g><g style="opacity:0.5"><path d="M360,10.35q-.93.93-1.77,2a7.56,7.56,0,0,0-1.2,2.53A1,1,0,0,0,358.51,16a11.29,11.29,0,0,0,2.05-1.51c.57-.61,1.17-1.19,1.8-1.75,1.61-1.44-.85-3.94-2.39-2.38Z" transform="translate(0 4.99)" style="fill:#ea2727"/></g><g style="opacity:0.5"><path d="M345.62,111.36a23.35,23.35,0,0,0,2.64-4.43c.48-1.25-1.26-2-2.11-1.23a24.89,24.89,0,0,0-3.12,4.15c-1.1,1.58,1.53,3.13,2.59,1.51Z" transform="translate(0 4.99)" style="fill:#ea2727"/></g><g style="opacity:0.5"><path d="M379.36,125l.26-.75a1.82,1.82,0,0,0,0-1.06.85.85,0,0,0-1.24-.5,1.68,1.68,0,0,0-.3.15,1.64,1.64,0,0,0-.5.55l-.46.67a1.22,1.22,0,0,0,.58,1.73,1.23,1.23,0,0,0,1.65-.79Z" transform="translate(0 4.99)" style="fill:#ea2727"/></g><g style="opacity:0.5"><path d="M386.7,79.06c0,.22,0,.45,0,.67s0,.22,0,.34c0-.22,0-.25,0-.1a2.6,2.6,0,0,0-.05,1.27c.06.18.15.35.21.53a1.53,1.53,0,0,0,2.2.9,2.75,2.75,0,0,0,1.4-1.76,9.62,9.62,0,0,0,.28-1.85,2,2,0,0,0-2-2,2.05,2.05,0,0,0-2,2Z" transform="translate(0 4.99)" style="fill:#ea2727"/></g><g style="opacity:0.5"><path d="M374.81,57.17l.26,1a1.52,1.52,0,0,0,1.84,1,1.49,1.49,0,0,0,.9-.69l.15-.36a1.55,1.55,0,0,0,0-.8l-.16-1.06a1.54,1.54,0,0,0-1.91-1.08,1.59,1.59,0,0,0-1.08,1.9Z" transform="translate(0 4.99)" style="fill:#ea2727"/></g><path d="M348.7-1.54l-31,4.31S309,11.39,340.94,18.29s55.17,21.55,54.31,35.35,3.45,48.27,0,58.62-16.38,42.24-37.93,42.24-56.9.86-91.38-21.55c0,0-1.73,9.48,3.44,13.79s40.52,24.14,40.52,24.14l42.24,6,29.32-3.45,31.89-11.21,25.87-19,12.07-21.55L447,33,403.87,7.08,359-5Z" transform="translate(0 4.99)" style="fill:#d85107;opacity:0.35000000000000003"/></g></g></g></g></svg>