<svg xmlns="http://www.w3.org/2000/svg" xmlns:xlink="http://www.w3.org/1999/xlink" viewBox="0 0 1867 1380"><defs><clipPath id="clip-path" transform="translate(7.96 10.5)"><path d="M18.54,1010s19,107,24,113,415,224,432,226,494-86,508-85,235,39,247,37,499-114,507-115,33-120,33-120l-515,128-283-34-93,10-365,67-78-17-221-129Z" style="fill:none"/></clipPath><clipPath id="clip-path-2" transform="translate(7.96 10.5)"><polyline points="1257.04 1193.5 1221.04 1320.5 1463.04 1260.5 1750.04 1202.5 1769.04 1063.5 1655.04 1109.5 1463.04 1135.5 1257.04 1193.5" style="fill:none"/></clipPath><clipPath id="clip-path-3" transform="translate(7.96 10.5)"><polygon points="989.04 1155.5 982.04 1283.5 468.04 1369.5 460.04 1213.5 651.05 1210.02 884.04 1155.5 989.04 1155.5" style="fill:none"/></clipPath><clipPath id="clip-path-4" transform="translate(7.96 10.5)"><path d="M316.54,813c-43-.71-163,24-192,36S8.54,963,.54,989s74,82,167,103,216,128,254,145,176,32,315-20,296-43,359-25,170,35,316-16,218-32,335-83c63.31-27.6,95.15-114.43,65-160-43-65-140-113-228-133s-419,47-526,49S377.54,814,316.54,813Z" style="fill:none"/></clipPath><clipPath id="clip-path-5" transform="translate(7.96 10.5)"><polygon points="291.04 735.5 208.04 912.5 193.04 987.5 495.04 1024.5 736.04 1054.5 982.04 911.5 919.04 790.5 596.04 681.5 291.04 735.5" style="fill:none"/></clipPath><clipPath id="clip-path-6" transform="translate(7.96 10.5)"><polygon points="243.04 754.5 554.95 781 560.04 847.5 533.04 1054.5 163.04 995.5 243.04 754.5" style="fill:none"/></clipPath><clipPath id="clip-path-7" transform="translate(7.96 10.5)"><polygon points="930.54 781 756.54 918 736.54 1055 745.54 1066 997.54 911 930.54 781" style="fill:none"/></clipPath><clipPath id="clip-path-8" transform="translate(7.96 10.5)"><polygon points="560.54 450 638.74 695.91 555.54 800 513.54 592 560.54 450" style="fill:none"/></clipPath><clipPath id="clip-path-9" transform="translate(7.96 10.5)"><polygon points="191.35 506.1 306.27 426.22 342.85 420.19 560.54 450 513.54 592 195.81 518.97 191.35 506.1" style="fill:none"/></clipPath><clipPath id="clip-path-10" transform="translate(7.96 10.5)"><path d="M374.54,504s3-129-8-148-67-43-67-129,15-94,30-94,9,131,27,149,45-25,45-75-38-207,29-207,13,178,12,226,3,95,28,95,25-58,18-76,11-65,42-35,8,149-48,162-39,132-39,132S394,522.5,374.54,504Z" style="fill:none"/></clipPath><clipPath id="clip-path-11" transform="translate(7.96 10.5)"><path d="M867,633.5c1,30,5,72,29,70s14-91,6-138-21-196,19-197,29,103,26,149-4,111,20,107,20-70,13-88,1-49,24-48,30,147.39-6.5,163.5c-34,15-50.5,22.5-50.5,51.5s55,31,71,7-11-83,16-93,34,49,26,98-108,45-110,72,7,174,9,191-29,19-45,12,2-189-19-202-59-27-64-102-1-177,22-179S867,633.5,867,633.5Z" style="fill:none"/></clipPath><clipPath id="clip-path-12" transform="translate(7.96 10.5)"><path d="M1525.21,826s5-59.54,0-71.45-16.3-18.8-44.5-26.32-17.55-67.06-3.13-68.32,2.5,43.25,23.81,42,24.45-30.71,16.93-83.35-.63-129.74,19.42-132.25,29.46,48.26,26.33,100.28.62,126.61,21.93,122.85,19.43-57,11.91-81.48-1.25-47.63,19.43-47,27.58,94,15.67,131.62-62,25.7-62.67,39.48,5,65.19,5,65.19-2.3,9.25-19.3,13.25S1525.21,826,1525.21,826Z" style="fill:none"/></clipPath><clipPath id="clip-path-13" transform="translate(7.96 10.5)"><path d="M449.24,1010S413,979.5,408,972.5s41,8,41,23,9-34,23-42-12,49.94-12,49.94,1.14-1.73,3.14-4.51c7.37-10.27,26.5-34.92,43.81-40.43,22-7-32.45,44-32.45,44s63-23.92,57.45-16c-7,10-43,25.09-43,25.09Z" style="fill:none"/></clipPath><clipPath id="clip-path-14" transform="translate(7.96 10.5)"><path d="M685.73,1061.94S608,1003.5,623,1002.5s74.7,51.16,74.7,51.16S665,985.5,680,989.5s29.23,68.3,29.23,68.3S728,992.5,741,985.5s-20.89,73.21-20.89,73.21S749,1018.5,762,1017.5s-25.5,37.5-25.5,37.5,43.2-25.6,48.85-22-43.94,30.76-43.94,30.76Z" style="fill:none"/></clipPath><clipPath id="clip-path-15" transform="translate(7.96 10.5)"><path d="M282,1044.5s-44-12-59-20,61.49,10,61.49,10-60.28-37.19-47.39-41.6,69.9,39.6,69.9,39.6-34.78-58.11-30.89-72.56S317,1029.5,317,1032.5s-7-57,0-66,7,66,6,71,21-61,27-51-10,51-10,51Z" style="fill:none"/></clipPath><clipPath id="clip-path-16" transform="translate(7.96 10.5)"><path d="M1316.7,985.26s7,46,6,55-28.16-14.41-52.58.3,26.83,50.7,75.58,11.7c5-4-6.94-30.29-11-60.14Z" style="fill:none"/></clipPath><clipPath id="clip-path-17" transform="translate(7.96 10.5)"><path d="M1387.7,988.26s5,51,0,56-43,4-41,33,68-19,71-24-12-40-12-77Z" style="fill:none"/></clipPath><clipPath id="clip-path-18" transform="translate(7.96 10.5)"><path d="M1319.2,759.76s-34-28-26-71l15-3s-11.11,43.5,30.69,74c0,0-2.19,2.5-10.19,2.5S1319.2,759.76,1319.2,759.76Z" style="fill:none"/></clipPath><clipPath id="clip-path-19" transform="translate(7.96 10.5)"><circle cx="1296.2" cy="667.76" r="34.5" style="fill:none"/></clipPath><clipPath id="clip-path-20" transform="translate(7.96 10.5)"><path d="M1119.29,805.59c4.47-11.26,22-68.76,22.38-107.39s18.56-49.41,30.14-62,51.32-57.8,40.79-85.38S1156.85,540.67,1140,568s-14.62,43.63-13.09,110.44S1114,769.2,1106,780.56s-20.51,25.88-11.77,34.46S1114.79,816.89,1119.29,805.59Z" style="fill:none"/></clipPath><clipPath id="clip-path-21" transform="translate(7.96 10.5)"><path d="M1209.4,561.61c.2,9.61-7.7,37.85-30.9,58.64s-36.87,13.46-39.53-.09,11.37-53,39.1-68S1209.13,549.25,1209.4,561.61Z" style="fill:none"/></clipPath><clipPath id="clip-path-22" transform="translate(7.96 10.5)"><path d="M1123.49,713.77c6.27-3.82,21.29-9.8,25.06-4.75s3.45,60.48-28.3,40.56C1115.47,746.58,1113.28,720,1123.49,713.77Z" style="fill:none"/></clipPath><clipPath id="clip-path-23" transform="translate(7.96 10.5)"><path d="M1250.73,956.76c-31.28-37-33.89-165,39.1-197s186-19,199,76-43.45,163-113.83,164C1306.54,1000.73,1282,993.76,1250.73,956.76Z" style="fill:none"/></clipPath><clipPath id="clip-path-24" transform="translate(7.96 10.5)"><path d="M1402.2,759.76s34-28,26-71l-15-3s11.11,43.5-30.7,74c0,0,2.2,2.5,10.2,2.5S1402.2,759.76,1402.2,759.76Z" style="fill:none"/></clipPath><clipPath id="clip-path-25" transform="translate(7.96 10.5)"><circle cx="1425.2" cy="667.76" r="34.5" style="fill:none"/></clipPath><clipPath id="clip-path-26" transform="translate(7.96 10.5)"><path d="M1286.7,810.26s42,36,146,6c0,0-17.44,92-102,82C1271.7,891.26,1286.7,810.26,1286.7,810.26Z" style="fill:none"/></clipPath><clipPath id="clip-path-27" transform="translate(7.96 10.5)"><path d="M1299.7,891.26s17-19,24-19,15,30,15,30S1305.7,901.26,1299.7,891.26Z" style="fill:none"/></clipPath><clipPath id="clip-path-28" transform="translate(7.96 10.5)"><path d="M1375.7,897.26s-5-24,2-29,32,10,32,10S1389.7,898.26,1375.7,897.26Z" style="fill:none"/></clipPath></defs><g id="Layer_2" data-name="Layer 2"><g id="monster-on-desert-island"><path d="M18.54,1010s19,107,24,113,415,224,432,226,494-86,508-85,235,39,247,37,499-114,507-115,33-120,33-120l-515,128-283-34-93,10-365,67-78-17-221-129Z" transform="translate(7.96 10.5)" style="fill:#e98428"/><g style="clip-path:url(#clip-path)"><polyline points="1265 1204 1229 1331 1471 1271 1758 1213 1777 1074 1663 1120 1471 1146 1265 1204" style="fill:#d97216"/><g style="clip-path:url(#clip-path-2)"><path d="M1442,1265.5s198-61,233-79-28-53-135-31-221.31,75.69-285.69,46.77c-17.31-7.77,89.36-28.8,89.36-28.8l211.55-47.79L1714,1097.5l64.62-28.5-8.62,47.5-20,86-308,63" transform="translate(7.96 10.5)" style="fill:#b85b09"/></g><polygon points="997 1166 990 1294 476 1380 468 1224 659.01 1220.52 892 1166 997 1166" style="fill:#de7516"/><g style="clip-path:url(#clip-path-3)"><path d="M475,1242.5s23,23,87,20,162-7,238-34,150-45,216-55l-70-5-148.89,11L682,1225.5l-158,20Z" transform="translate(7.96 10.5)" style="fill:#b85b09"/></g><path d="M19,1096.5s25-38,49-25,156,55,182,76,150,90,185,84l-154-109L134.6,1063.71,12,995.5l-20,37Z" transform="translate(7.96 10.5)" style="fill:#c7630a"/><path d="M84.54,1072s5,39,6,43,11,10,11,10,2-27,3-30,7,59,7,59l1-52,7,6,2-20Z" transform="translate(7.96 10.5)" style="fill:#c7630a"/><polygon points="226 1236 231 1186 236 1190 239 1229 243 1211 245 1234 254 1227 260.26 1247.08 226 1236" style="fill:#c7630a"/><polygon points="327 1195 331 1236 334 1240 335 1215 350 1209 327 1195" style="fill:#c7630a"/><polygon points="386 1226 394 1288 396 1291 392 1243 401 1242 401 1266 407.65 1234.76 386 1226" style="fill:#c7630a"/><polygon points="526 1362 537 1310 541 1318 545 1357 563 1290 559 1332 570 1328 585 1347 563 1360 526 1362" style="fill:#b85b09"/><polygon points="690 1260 698 1297 703 1294 706 1273 711 1307 722 1255 690 1260" style="fill:#b85b09"/><polygon points="857 1213 864 1263 867 1227 875 1235 884 1223 899 1204 857 1213" style="fill:#b85b09"/><polygon points="1032 1293 1052 1243 1048 1274 1057 1266 1064 1267 1067 1277 1081 1293 1032 1293" style="fill:#c7630a"/><polygon points="1166 1209 1158 1253 1162 1263 1171 1235 1173 1251 1181 1227 1180 1271 1184 1278 1202 1215 1166 1209" style="fill:#c7630a"/><polygon points="1309 1302 1326 1248 1330 1252 1332 1283 1343 1279 1342 1294 1309 1302" style="fill:#b85b09"/><polygon points="1409 1197 1405 1239 1411 1238 1416 1209 1417 1256 1426 1205 1439 1201 1441 1188 1409 1197" style="fill:#b85b09"/><polygon points="1528 1166 1542 1177 1557 1176 1560 1209 1561 1179 1567 1184 1584 1157 1528 1166" style="fill:#b85b09"/></g><path d="M316.54,813c-43-.71-163,24-192,36S8.54,963,.54,989s74,82,167,103,216,128,254,145,176,32,315-20,296-43,359-25,170,35,316-16,218-32,335-83c63.31-27.6,95.15-114.43,65-160-43-65-140-113-228-133s-419,47-526,49S377.54,814,316.54,813Z" transform="translate(7.96 10.5)" style="fill:#f5c250"/><g style="clip-path:url(#clip-path-4)"><polygon points="919.47 878.5 1238 1005 1190 1074 955 1074 730 1054 226 987 512 910 919.47 878.5" style="fill:#f2a843"/><path d="M1319,1038.5s285-19,320,16,26.52,103.93-29.24,101-338-82-330.4-101,39.64-16,39.64-16" transform="translate(7.96 10.5)" style="fill:#f2a843"/><path d="M1221,765.5s519,10,459,206-257.66,139.94-336.33,202-375.67-44-416.67-38-457,171-585,63l60,54,88,27,267-15,190-62,141,33h231l355-88,149-64,36-112-55-104-177-90-181-23Z" transform="translate(7.96 10.5)" style="fill:#e38e07;opacity:0.5;isolation:isolate"/></g><polygon points="299 746 216 923 201 998 503 1035 744 1065 990 922 927 801 604 692 299 746" style="fill:#f5c250"/><g style="clip-path:url(#clip-path-5)"><path d="M732,713.5c-46-2-124,3-76,23s143,41,119,60-68,16-82,26,53,33,64,49-5,68,29,64,158-133,158-133l-146-67Z" transform="translate(7.96 10.5)" style="fill:#ffd575"/><polygon points="251 765 562.91 791.5 568 858 541 1065 171 1006 251 765" style="fill:#e98428"/><g style="clip-path:url(#clip-path-6)"><polygon points="229 1006 268 946 449 953 557 886 540.34 1028.79 423 1021 375 1031 229 1006" style="fill:#c9670e"/></g><polygon points="781.5 934.5 563.5 810.5 521.5 1049.5 753.5 1076.5 781.5 934.5" style="fill:#f2a843"/><polygon points="938.5 791.5 764.5 928.5 744.5 1065.5 753.5 1076.5 1005.5 921.5 938.5 791.5" style="fill:#e27013"/><g style="clip-path:url(#clip-path-7)"><polygon points="886 821 872 959 860 934 864 974 850 987 843 976 821.15 1034.89 1006 922 939 792 886 821" style="fill:#c9670e"/></g></g><polygon points="568.5 460.5 646.7 706.41 563.5 810.5 521.5 602.5 568.5 460.5" style="fill:#e27013"/><g style="clip-path:url(#clip-path-8)"><polygon points="525 639 527 606 546 619 540 591 569 639 552 585 552 549 596 598 609 563 568 451 549 486 513.12 602.5 525 639" style="fill:#d46408"/></g><polygon points="521.5 602.5 204 529 277.66 791.5 563.5 810.5 521.5 602.5" style="fill:#f2a843"/><polygon points="199.31 516.6 314.23 436.72 350.81 430.69 568.5 460.5 521.5 602.5 203.77 529.47 199.31 516.6" style="fill:#f5c250"/><g style="clip-path:url(#clip-path-9)"><path d="M560,488.5c-44-18-196-29-232-22s36,33,76,35,73,22,27,31,63,23,62,48-132,0-132,0l-203-63,162-117,267,49Z" transform="translate(7.96 10.5)" style="fill:#ffd77a"/></g><path d="M374.54,504s3-129-8-148-67-43-67-129,15-94,30-94,9,131,27,149,45-25,45-75-38-207,29-207,13,178,12,226,3,95,28,95,25-58,18-76,11-65,42-35,8,149-48,162-39,132-39,132S394,522.5,374.54,504Z" transform="translate(7.96 10.5)" style="fill:#4ac200"/><g style="clip-path:url(#clip-path-10)"><path d="M481,243.5s30-30,43-8,4,71-11,95-56,28-68,53-17,93-76,83l1,46,79,9,2-38,6-75,19-26,37-14,27-44,13-73-14-54-38-9-19,27Z" transform="translate(7.96 10.5)" style="fill:#3ea300"/><path d="M386,51.5s21-28,42-26,23,72,10,108-12,161,18,169l-4-38,4-69,11-77,7-66L462,.5l-24-11-29,2-18,22Z" transform="translate(7.96 10.5)" style="fill:#3ea300"/><path d="M294,177.5s22-28,31-12-2.12,146.21,42,121c7-4,6-28,6-28l-17-6-19-124-14-3-17,11Z" transform="translate(7.96 10.5)" style="fill:#3ea300"/></g><path d="M867,633.5c1,30,5,72,29,70s14-91,6-138-21-196,19-197,29,103,26,149-4,111,20,107,20-70,13-88,1-49,24-48,30,147.39-6.5,163.5c-34,15-50.5,22.5-50.5,51.5s55,31,71,7-11-83,16-93,34,49,26,98-108,45-110,72,7,174,9,191-29,19-45,12,2-189-19-202-59-27-64-102-1-177,22-179S867,633.5,867,633.5Z" transform="translate(7.96 10.5)" style="fill:#4ac200"/><g style="clip-path:url(#clip-path-11)"><path d="M887,429.5s28-39,39-21,18,54,8,96,7.68,125.15,25.34,118.57S961,596.5,961,596.5l-6-39,1-59-1-92-15-45-29-1-17,21Z" transform="translate(7.96 10.5)" style="fill:#3ea300"/><path d="M974,531.5s22-29,32-11,14,71,3,95-58.41,47-54.2,66,22.2-4,22.2-4l34-20,8.4-32.5,7.6-29.5v-87l-20-31-25,6-11,24Z" transform="translate(7.96 10.5)" style="fill:#3ea300"/><path d="M829,545.5s18-22,26-9-25,180,41,166l-16-25-6-44,2-66-3-48-17-22-19,6Z" transform="translate(7.96 10.5)" style="fill:#3ea300"/><path d="M1010,657.5s34-28,41-2,1,74-28,83-81,29-73,51,40-11,40-11l61-29,12-19,8-57-8-40-19-27-22,7Z" transform="translate(7.96 10.5)" style="fill:#3ea300"/><path d="M950,789.5s0,163-8,176-29,15-41,0l4,29,17,5,42-4,6-19-20-187" transform="translate(7.96 10.5)" style="fill:#3ea300"/></g><path d="M1525.21,826s5-59.54,0-71.45-16.3-18.8-44.5-26.32-17.55-67.06-3.13-68.32,2.5,43.25,23.81,42,24.45-30.71,16.93-83.35-.63-129.74,19.42-132.25,29.46,48.26,26.33,100.28.62,126.61,21.93,122.85,19.43-57,11.91-81.48-1.25-47.63,19.43-47,27.58,94,15.67,131.62-62,25.7-62.67,39.48,5,65.19,5,65.19-2.3,9.25-19.3,13.25S1525.21,826,1525.21,826Z" transform="translate(7.96 10.5)" style="fill:#4ac200"/><g style="clip-path:url(#clip-path-12)"><path d="M1511,533.5s30-28,35-5-2.22,177.32,33.4,173.76h0L1576,677.5l-7-54,4-65-8-54-14-27-28,2Z" transform="translate(7.96 10.5)" style="fill:#3ea300"/><path d="M1463.7,678.26S1477,671.5,1480,685.5s9,28,20,17-9-44-9-44l-20-8-7.34,27.76" transform="translate(7.96 10.5)" style="fill:#3ea300"/><path d="M1589,614.5s24-21,30-3,18,81,7,102a76.76,76.76,0,0,1-30.12,30.57L1627,738.5l16-24,1-29v-68l-14-38-15-9-21,11Z" transform="translate(7.96 10.5)" style="fill:#3ea300"/><path d="M1518,822.5s27,7,38-12,14-57,14-57l9,9,7,56-21,22-35-5Z" transform="translate(7.96 10.5)" style="fill:#3ea300"/></g><path d="M163.37,1100.5s-1.82,53,137.42,56,6.25-24,6.25-24Z" transform="translate(7.96 10.5)" style="fill:#f5c250"/><path d="M449.24,1010S413,979.5,408,972.5s41,8,41,23,9-34,23-42-12,49.94-12,49.94,1.14-1.73,3.14-4.51c7.37-10.27,26.5-34.92,43.81-40.43,22-7-32.45,44-32.45,44s63-23.92,57.45-16c-7,10-43,25.09-43,25.09Z" transform="translate(7.96 10.5)" style="fill:#3ea300"/><g style="clip-path:url(#clip-path-13)"><path d="M429,993.5s-16-18-7-16,25,9,28,16l-6-10-12-8-20-7-6,1-1,3Z" transform="translate(7.96 10.5)" style="fill:#4ecc00"/><path d="M450,993.5s15-25,19-23,1.08,8.3,1.08,8.3L476,966.5l2-12-3-4-4,1-5,6-10,16Z" transform="translate(7.96 10.5)" style="fill:#4ecc00"/><path d="M488,991.5s13-19,14-24-11.6,2.24-16.8,5.62,1.8-5.62,1.8-5.62l12-8,11-3,4,1v6Z" transform="translate(7.96 10.5)" style="fill:#4ecc00"/><path d="M488.21,997.5s37.83-10,36.83-7-8,9-8,9l12-8,5-6-2-2h-5l-31,10-7.83,4" transform="translate(7.96 10.5)" style="fill:#4ecc00"/></g><path d="M685.73,1061.94S608,1003.5,623,1002.5s74.7,51.16,74.7,51.16S665,985.5,680,989.5s29.23,68.3,29.23,68.3S728,992.5,741,985.5s-20.89,73.21-20.89,73.21S749,1018.5,762,1017.5s-25.5,37.5-25.5,37.5,43.2-25.6,48.85-22-43.94,30.76-43.94,30.76Z" transform="translate(7.96 10.5)" style="fill:#3ea300"/><g style="clip-path:url(#clip-path-14)"><path d="M634,1024.5s0-12,8-9,49,35,49,35l2-3-29-26-35-22-12,2-1,6Z" transform="translate(7.96 10.5)" style="fill:#4ecc00"/><path d="M677,1013.5s4-13,8-9,20.9,50.42,20.9,50.42l5.18-2.28L706,1032.5l-11-31-10-16H675l-4,7Z" transform="translate(7.96 10.5)" style="fill:#4ecc00"/><path d="M723,1011.5s9-9,11-5-17.6,50-17.6,50l3.71,2.21,7.77-19.18,13.12-28,7-26.43-7-5.57-13,12Z" transform="translate(7.96 10.5)" style="fill:#4ecc00"/><path d="M737.63,1035.35s12.41-4.85,12.41.15-20,26-20,26l25-22,14-22-7-6-12,7-12.41,16.85" transform="translate(7.96 10.5)" style="fill:#4ecc00"/><path d="M763,1035.5s17.78,4.12,13.39,7.06,4.61,3.94,4.61,3.94l9-14-4.2-4.51Z" transform="translate(7.96 10.5)" style="fill:#4ecc00"/></g><path d="M282,1044.5s-44-12-59-20,61.49,10,61.49,10-60.28-37.19-47.39-41.6,69.9,39.6,69.9,39.6-34.78-58.11-30.89-72.56S317,1029.5,317,1032.5s-7-57,0-66,7,66,6,71,21-61,27-51-10,51-10,51Z" transform="translate(7.96 10.5)" style="fill:#3ea300"/><g style="clip-path:url(#clip-path-15)"><path d="M286,1002.5s-2-22,6-13,22,42,22,42l2.77-5.16L288,962.5l-11-8-5.83,7.69Z" transform="translate(7.96 10.5)" style="fill:#4ecc00"/><path d="M311,995.5s4.53-12.08,8.27-5.54,4,15.25,4,15.25L327,999.5l-5-36-6-2-5,15Z" transform="translate(7.96 10.5)" style="fill:#4ecc00"/><path d="M332,1008.5s10-17,14-10-.06,17.9-.06,17.9l7.06-2.9,2-27-5-4h-6Z" transform="translate(7.96 10.5)" style="fill:#4ecc00"/><path d="M243,1010.5s-2-9,6-9,49,30,49,30l6.9-2-15.9-14L253.84,995,239,988.5l-7.15,3.76,3.15,9.24Z" transform="translate(7.96 10.5)" style="fill:#4ecc00"/><path d="M223,1029.5s5-5,14-3,51,13,51,13l-.79-6.1L256,1024.5l-30-5-8,1Z" transform="translate(7.96 10.5)" style="fill:#4ecc00"/></g><path d="M451,1054.5c-7-14-19.68-62.65,32.66-50.33S757,1061.5,757,1061.5l-7,7Z" transform="translate(7.96 10.5)" style="fill:#f5c250"/><path d="M543,1024.5s-104.5-24.5-75.5,19.5,222,75,298,64c0,0-123,37-268,13s-176,34-248,26-97-44-82-55,183-102,281-96,303,90,498,70C946.54,1066,858,1092.5,543,1024.5Z" transform="translate(7.96 10.5)" style="fill:#e98428"/><polygon points="1018.5 1110.5 997.5 1146.5 1059.5 1146.5 1073.5 1132.5 1065.5 1107.5 1018.5 1110.5" style="fill:#f2a843"/><polygon points="1018.5 1110.5 1037.5 1088.5 1105.5 1079.5 1128.5 1094.5 1065.5 1113.5 1018.5 1110.5" style="fill:#ffdb89"/><polygon points="1128.5 1094.5 1141.5 1108.5 1143.5 1131.5 1059.5 1146.5 1065.5 1113.5 1077.5 1100.5 1128.5 1094.5" style="fill:#e27013"/><path d="M713.54,291c-20.81-9.32-56-5-70,0s18-27,55-27,51,16,104,14c21.2-.8,44-2,40,14S780.54,321,713.54,291Z" transform="translate(7.96 10.5)" style="fill:#c4f6ff"/><path d="M1324.54,367c-68.79-15-155-18-175-10s11,9,8,18-60-2-68,10,18,20,94,12,134,3,168,0S1379.54,379,1324.54,367Z" transform="translate(7.96 10.5)" style="fill:#c4f6ff"/><path d="M1527.54,251c-50,7-158,13-180,9s39-38,66-38,46,4,71,0,108,5,113,13S1527.54,251,1527.54,251Z" transform="translate(7.96 10.5)" style="fill:#c4f6ff"/><path d="M1162.62,1170.05c-18.47-4.49,23.42-40.24,63.56-31.09S1222.84,1184.69,1162.62,1170.05Z" transform="translate(7.96 10.5)" style="fill:#f2a843"/><path d="M1258,1109.69c2.35-7.09,43.49-16.47,43.49-3.66S1251.27,1129.81,1258,1109.69Z" transform="translate(7.96 10.5)" style="fill:#f2a843"/><path d="M1206.11,1098.71c-21.74,5.49-10,11,8.36,9.15S1206.11,1098.71,1206.11,1098.71Z" transform="translate(7.96 10.5)" style="fill:#f2a843"/><path d="M457.69,36.5c7.72-5.05,15.32-10.31,23.16-15.18a.37.37,0,0,0,.06-.53.36.36,0,0,0-.44-.12A163,163,0,0,0,456.93,35.2C456.18,35.77,456.86,37,457.69,36.5Z" transform="translate(7.96 10.5)" style="fill:#825500"/><path d="M437.9,97.22a101.4,101.4,0,0,0,13.27-10.55.8.8,0,1,0-1-1.25h0a99.41,99.41,0,0,0-13.85,9.82c-1.1.9.35,2.8,1.54,2Z" transform="translate(7.96 10.5)" style="fill:#825500"/><path d="M453.9,126.91c4.35,1.44,8.36,3.81,13.06,3.88a1,1,0,0,0,1-1,1,1,0,0,0-.46-.8c-3.94-2.51-8.63-2.75-13-3.93a1,1,0,0,0-.53,1.89Z" transform="translate(7.96 10.5)" style="fill:#825500"/><path d="M383.18,59.44c4.84,3.9,9.55,7.79,14.95,10.89,1,.59,2.24-.86,1.3-1.7-4.63-4.15-9.79-7.43-15-10.81-1-.62-2.17.88-1.24,1.62Z" transform="translate(7.96 10.5)" style="fill:#825500"/><path d="M385.43,114.59c4.28,2.5,8.2,4.77,13,6a.85.85,0,0,0,.65-1.55c-4-3-8.23-4.65-12.84-6.47-1.16-.46-1.86,1.37-.83,2Z" transform="translate(7.96 10.5)" style="fill:#825500"/><path d="M427.65,37.7c2.51,3.36,4.06,7.54,6.9,10.59a1.23,1.23,0,0,0,2.08-.86c-.19-4.32-3.2-8.3-5.74-11.62-1.45-1.89-4.7-.05-3.24,1.89Z" transform="translate(7.96 10.5)" style="fill:#825500"/><path d="M447.63,181.27c3.37-2,6.89-3.89,10.42-5.61a.71.71,0,0,0-.54-1.29,47.24,47.24,0,0,0-10.87,5.2,1,1,0,0,0,1,1.7Z" transform="translate(7.96 10.5)" style="fill:#825500"/><path d="M392.55,184.63c3.39,3.13,6.59,6,10.81,7.94a1,1,0,0,0,1.26-.64,1,1,0,0,0-.11-.85c-3-3.56-6.6-5.89-10.51-8.33a1.2,1.2,0,0,0-1.45,1.88Z" transform="translate(7.96 10.5)" style="fill:#825500"/><path d="M435.9,201.5a70.66,70.66,0,0,0-10.73,11c-.64.82.74,1.85,1.43,1.11,3.44-3.69,6.82-7.45,10.35-11.05a.73.73,0,0,0-1-1.05Z" transform="translate(7.96 10.5)" style="fill:#825500"/><path d="M389.4,246c1.72,1.33,3.39,2.72,5,4.15a26.81,26.81,0,0,0,4.74,3.82.92.92,0,0,0,1.25-.36.94.94,0,0,0,0-.89c-2.15-3.49-6.44-6-9.77-8.32-1-.65-2.16.89-1.24,1.6Z" transform="translate(7.96 10.5)" style="fill:#825500"/><path d="M426.94,256.19c-2.56,3.1-5.55,6-7.18,9.77a.81.81,0,0,0,1.27,1c3.18-2.54,5.24-6.19,7.57-9.48.69-1-.89-2.2-1.66-1.27Z" transform="translate(7.96 10.5)" style="fill:#825500"/><path d="M447,239.55c-2,1.31-4.06,2.62-6,4a9.29,9.29,0,0,0-3.94,4.52c-.26.72.51,1.31,1.16,1.17a10.77,10.77,0,0,0,5.06-3.32c1.63-1.63,3.32-3.16,5.09-4.63,1-.79-.29-2.38-1.32-1.71Z" transform="translate(7.96 10.5)" style="fill:#825500"/><path d="M378.23,278.5a45.4,45.4,0,0,0,4.65,7.56.68.68,0,0,0,1-.05.66.66,0,0,0,.16-.6,45.29,45.29,0,0,0-4.37-7.73.81.81,0,1,0-1.4.82Z" transform="translate(7.96 10.5)" style="fill:#825500"/><path d="M336.47,143.56c-1.64,1.67-3.38,3.25-5,4.95a42.45,42.45,0,0,0-3.87,5.17c-.27.39.29.72.6.47a28,28,0,0,0,4.93-4.67c1.35-1.78,2.61-3.64,3.87-5.49.23-.33-.28-.71-.55-.43Z" transform="translate(7.96 10.5)" style="fill:#825500"/><path d="M306.15,135a50.09,50.09,0,0,0,8,8.65c.43.35,1.18-.1.83-.64a49.59,49.59,0,0,0-7.8-8.82c-.53-.49-1.53.18-1.05.81Z" transform="translate(7.96 10.5)" style="fill:#825500"/><path d="M300.11,165.56c1.72,1.38,3.25,3,5,4.28.59.42,1.13-.46.73-.94a24.47,24.47,0,0,0-5.12-4.17c-.49-.33-1.11.45-.64.83Z" transform="translate(7.96 10.5)" style="fill:#825500"/><path d="M320.52,175.16c-2,2.29-4,4.6-5.09,7.46a.39.39,0,0,0,.29.47.38.38,0,0,0,.35-.09c1.92-2.3,3.24-5,5-7.45.2-.3-.26-.66-.5-.39Z" transform="translate(7.96 10.5)" style="fill:#825500"/><path d="M345.43,175.18c-3.94,4-8,7.37-10.84,12.26a.81.81,0,0,0,1.27,1c4.09-3.73,6.83-8.26,10.31-12.5.43-.51-.26-1.23-.74-.74Z" transform="translate(7.96 10.5)" style="fill:#825500"/><path d="M321.46,209c2.33,3,4,6.3,6.65,9,.45.45,1.35,0,1.12-.65-1.37-3.8-4.16-6.35-7-9.13-.53-.52-1.23.24-.79.79Z" transform="translate(7.96 10.5)" style="fill:#825500"/><path d="M295.25,200.42c3.09,2.65,6.25,5.08,9.58,7.41.26.19.59-.23.34-.44-3.1-2.55-6.2-5.06-9.37-7.52C295.41,199.57,294.87,200.09,295.25,200.42Z" transform="translate(7.96 10.5)" style="fill:#825500"/><path d="M294.29,230.35c4.56,2.51,8.45,6.2,13.1,8.49.86.42,1.82-.65,1.07-1.38-3.77-3.67-9.17-5.5-13.92-7.53C294.26,229.8,294,230.19,294.29,230.35Z" transform="translate(7.96 10.5)" style="fill:#825500"/><path d="M320.43,239.71c-1.07,3-2.49,5.89-2.76,9.08a.57.57,0,0,0,.6.54.56.56,0,0,0,.45-.26c1.53-2.8,1.93-6,2.66-9.1a.49.49,0,1,0-.95-.26Z" transform="translate(7.96 10.5)" style="fill:#825500"/><path d="M339.42,235.91a.21.21,0,1,0-.21-.21A.21.21,0,0,0,339.42,235.91Z" transform="translate(7.96 10.5)" style="fill:#825500"/><path d="M345.63,226.38c-2.72,3.81-5.4,7.37-6.91,11.84a.73.73,0,0,0,.53.9.73.73,0,0,0,.7-.18c3-3.59,4.82-7.68,6.95-11.81a.75.75,0,0,0-.34-1,.74.74,0,0,0-.93.24Z" transform="translate(7.96 10.5)" style="fill:#825500"/><path d="M338.58,263c-1.46,2.41-3.13,4.78-3.61,7.6-.12.72.83,1.56,1.41.82,1.81-2.34,2.47-5.15,3.29-8a.6.6,0,0,0-1.09-.46Z" transform="translate(7.96 10.5)" style="fill:#825500"/><path d="M304,275.74c2.23,1,4.21,2.82,6.77,2.63.87-.07,1.53-1.19.77-1.86-2-1.74-4.57-1.47-7-2.06-.74-.17-1.31,1-.55,1.29Z" transform="translate(7.96 10.5)" style="fill:#825500"/><path d="M318.24,308.43c2.74-4.09,5.82-8,7.72-12.53.29-.69-.76-1.24-1.23-.72-3.33,3.68-5.34,8.23-7.52,12.65a.6.6,0,0,0,1,.6Z" transform="translate(7.96 10.5)" style="fill:#825500"/><path d="M341.17,301.8a.05.05,0,1,0,0-.1h0a.05.05,0,1,0,0,.1Z" transform="translate(7.96 10.5)" style="fill:#825500"/><path d="M340.29,298.41c1.21,2.71,1.92,5.59,3.31,8.22a.54.54,0,0,0,1-.26c-.11-3.18-1.59-5.94-3.21-8.6-.43-.71-1.42-.09-1.09.64Z" transform="translate(7.96 10.5)" style="fill:#825500"/><path d="M342.33,339.9c6.12-2.35,12.52-3.76,18.52-6.43a.5.5,0,0,0,.15-.69.51.51,0,0,0-.4-.23c-6.77.62-12.65,3.44-18.7,6.32-.57.27-.17,1.26.43,1Z" transform="translate(7.96 10.5)" style="fill:#825500"/><path d="M371.36,359.37a50,50,0,0,0-6.05,7.85c-.31.5.44,1.11.82.64,2.08-2.51,4.06-5.07,6.12-7.59.51-.62-.33-1.51-.89-.9Z" transform="translate(7.96 10.5)" style="fill:#825500"/><path d="M368.66,395.5c2.67,2.28,5.11,4.77,7.69,7.15a.38.38,0,0,0,.54-.09.39.39,0,0,0,0-.46,67.28,67.28,0,0,0-8.06-6.82C368.7,395.18,368.54,395.4,368.66,395.5Z" transform="translate(7.96 10.5)" style="fill:#825500"/><path d="M370.7,424.41c3.35,3.4,6,7.41,9.91,10.18.7.49,1.59-.47,1.16-1.16-2.59-4.13-6.69-6.66-10.42-9.66-.45-.36-1.07.21-.65.64Z" transform="translate(7.96 10.5)" style="fill:#825500"/><path d="M410.59,394.5a64.83,64.83,0,0,0-5.52,9.42.85.85,0,0,0,1.46.85,65.27,65.27,0,0,0,4.85-9.81.47.47,0,0,0-.24-.61.47.47,0,0,0-.55.15Z" transform="translate(7.96 10.5)" style="fill:#825500"/><path d="M420.19,415.55c-3.58,1.76-6.92,3.77-9.12,7.15a.92.92,0,0,0,1.25,1.25c3.15-2,5.72-4.69,8.72-6.94a.85.85,0,0,0-.85-1.46Z" transform="translate(7.96 10.5)" style="fill:#825500"/><path d="M401.84,449.92a72.29,72.29,0,0,0,5,5.5.53.53,0,0,0,.83-.64,72.33,72.33,0,0,0-4.31-6.4c-.86-1.11-2.4.44-1.54,1.54Z" transform="translate(7.96 10.5)" style="fill:#825500"/><path d="M448,423.91c-3.65,3.16-7.86,6.33-10.42,10.48-.46.74.49,1.8,1.25,1.25,3.94-2.88,7-7.09,10.22-10.68a.74.74,0,0,0-1-1Z" transform="translate(7.96 10.5)" style="fill:#825500"/><path d="M448.32,390.84c4.28,4,8.43,8.13,12.76,12.1.31.28.88-.09.61-.47a48.63,48.63,0,0,0-12.78-12.4c-.46-.32-1,.39-.59.77Z" transform="translate(7.96 10.5)" style="fill:#825500"/><path d="M483.72,367.31a83.43,83.43,0,0,0-.42,9.74.53.53,0,1,0,1.06,0c.26-3.25.44-6.5.77-9.74.09-.89-1.33-.89-1.41,0Z" transform="translate(7.96 10.5)" style="fill:#825500"/><path d="M487.1,345.7a96.43,96.43,0,0,0,11-2.57c.39-.13.36-.82-.1-.76A100.52,100.52,0,0,0,486.89,345c-.48.12-.28.85.21.75Z" transform="translate(7.96 10.5)" style="fill:#825500"/><path d="M443.32,344.23a97.49,97.49,0,0,0-10.4,13.21.85.85,0,0,0,.41,1.13.86.86,0,0,0,.92-.13,97.66,97.66,0,0,0,10-13.51c.37-.56-.49-1.23-.94-.72Z" transform="translate(7.96 10.5)" style="fill:#825500"/><path d="M416.59,317.1c1.84,2,3.57,4.65,6,6a.53.53,0,0,0,.72-.21.52.52,0,0,0,0-.51c-1.35-2.41-4-4.19-5.93-6.06a.53.53,0,0,0-.75.74Z" transform="translate(7.96 10.5)" style="fill:#825500"/><path d="M449.51,289.76c-3.31,4.89-7.59,9-9.7,14.65a.78.78,0,0,0,1.29.75c3.85-4.5,5.78-10.14,9.07-15,.28-.41-.39-.8-.66-.39Z" transform="translate(7.96 10.5)" style="fill:#825500"/><path d="M470.49,317.89c.74,2.4,1.47,4.79,2.13,7.21a14.68,14.68,0,0,0,2.35,5.55c.39.5,1.2.06,1.2-.5,0-2.23-.87-4-1.72-6-.91-2.18-1.75-4.39-2.6-6.59-.32-.83-1.63-.51-1.36.37Z" transform="translate(7.96 10.5)" style="fill:#825500"/><path d="M487.68,283c3.26,4.29,5.92,10,10.4,13.09.52.36,1.39-.25,1.14-.88-2.07-5-7-8.85-10.55-13-.46-.54-1.43.19-1,.76Z" transform="translate(7.96 10.5)" style="fill:#825500"/><path d="M515.12,314.88c-1.78,1.86-3.53,3.7-5.17,5.68a.46.46,0,0,0,.65.65c1.88-1.76,3.62-3.61,5.36-5.49C516.49,315.16,515.65,314.32,515.12,314.88Z" transform="translate(7.96 10.5)" style="fill:#825500"/><path d="M530.32,334.66c-3.19-2.28-6.34-5.2-10.47-5.24-.84,0-1.5,1.22-.75,1.8,3.14,2.44,7.14,2.76,10.72,4.29a.49.49,0,1,0,.5-.85Z" transform="translate(7.96 10.5)" style="fill:#825500"/><path d="M544.84,280.66c-3.77,2-7.52,3.93-11.08,6.28a.91.91,0,0,0,.93,1.57c3.8-1.92,7.33-4.23,10.93-6.51a.78.78,0,0,0-.78-1.34Z" transform="translate(7.96 10.5)" style="fill:#825500"/><path d="M548,242.09c-3.91,4.76-8.42,9.2-11.71,14.42-.48.76.59,1.53,1.22.94,4.5-4.22,7.78-9.72,11.21-14.81.28-.42-.39-.95-.72-.55Z" transform="translate(7.96 10.5)" style="fill:#825500"/><path d="M503,195.22c2.68,5.63,5,11.45,7.82,17,.29.55,1.1.16,1-.41-1.44-6.24-4.46-11.76-8-17a.45.45,0,0,0-.64-.09.44.44,0,0,0-.15.55Z" transform="translate(7.96 10.5)" style="fill:#825500"/><path d="M534.41,206.08c-2,3.43-4.22,6.64-5.92,10.2-.21.44.35,1,.72.55a44.06,44.06,0,0,0,6.17-10.18.58.58,0,0,0-1-.57Z" transform="translate(7.96 10.5)" style="fill:#825500"/><path d="M485,243.43c1.87,1.38,3.56,3,5.5,4.3.62.4,1.25-.49.77-1a24.24,24.24,0,0,0-5.8-4.09c-.53-.3-.93.45-.47.79Z" transform="translate(7.96 10.5)" style="fill:#825500"/><path d="M508.87,251c2,4.52,3.7,9.23,7,13,.59.68,1.48-.19,1.16-.9-2-4.45-5.09-8.25-7.34-12.58-.28-.53-1-.06-.79.46Z" transform="translate(7.96 10.5)" style="fill:#825500"/><path d="M938.94,362.36c-3.82,7.48-7.94,15-9.64,23.35a1.13,1.13,0,0,0,2,.86c4.17-7.35,6.4-15.62,9.13-23.56a.85.85,0,0,0-1.54-.65Z" transform="translate(7.96 10.5)" style="fill:#825500"/><path d="M884.22,408c4.43,3.91,8.51,8.3,13.43,11.61.72.49,1.8-.52,1.25-1.25-3.66-4.81-8.62-8.38-13.4-12-1-.73-2.17.86-1.28,1.65Z" transform="translate(7.96 10.5)" style="fill:#825500"/><path d="M928.78,422.26c-3.22,5.43-7.42,10.07-9.91,15.93-.35.81.7,1.93,1.38,1.06,4-5.06,6.07-11,9.32-16.53a.47.47,0,0,0-.23-.61.48.48,0,0,0-.56.15Z" transform="translate(7.96 10.5)" style="fill:#825500"/><path d="M953.15,451.91c-5.3,4.83-11.15,9.3-15.06,15.37-.6.93.72,1.88,1.49,1.15,5.16-4.93,9.06-10.91,14.17-15.92a.42.42,0,0,0-.6-.6Z" transform="translate(7.96 10.5)" style="fill:#825500"/><path d="M885.77,491.5c2.65,1.87,5.32,3.71,7.94,5.61,2.34,1.68,4.49,3.94,7.24,4.88.65.22,1-.62.62-1.06-1.88-2.19-4.82-3.36-7.23-4.89-2.74-1.73-5.43-3.51-8.15-5.27-.46-.3-.86.42-.42.73Z" transform="translate(7.96 10.5)" style="fill:#825500"/><path d="M914.38,490l4.33,4.39a15.38,15.38,0,0,0,4.56,3.7c1.16.5,2.66-.6,1.87-1.88a15,15,0,0,0-4.29-4l-5.19-3.82c-1-.73-2.1.82-1.28,1.65Z" transform="translate(7.96 10.5)" style="fill:#825500"/><path d="M949.35,511.8c-5.28,5.2-11,11.13-13.79,18.12-.27.69.76,1.26,1.23.72,4.92-5.63,8.68-12.09,13.8-17.6a.88.88,0,0,0-.11-1.24A.87.87,0,0,0,949.35,511.8Z" transform="translate(7.96 10.5)" style="fill:#825500"/><path d="M951,565c-2.88,5.3-6.38,10.18-9.19,15.52-.3.57.49,1.28.94.73,3.93-4.87,6.38-10.15,9.1-15.75C952.16,565,951.35,564.47,951,565Z" transform="translate(7.96 10.5)" style="fill:#825500"/><path d="M897.89,557.5a95.75,95.75,0,0,0,8.63,6.79.64.64,0,0,0,.87-.26.65.65,0,0,0-.1-.74,94.11,94.11,0,0,0-8.8-6.58c-.45-.32-1,.42-.6.78Z" transform="translate(7.96 10.5)" style="fill:#825500"/><path d="M918.86,607.85c-2.78,5.28-6,10.46-7.84,16.15-.33,1,1.06,1.45,1.6.68,3.37-4.84,5.56-10.45,8.06-15.77.57-1.21-1.18-2.28-1.82-1.06Z" transform="translate(7.96 10.5)" style="fill:#825500"/><path d="M832.15,514.14c4.51,5.89,7.74,12.6,12.44,18.37.37.45,1.23,0,1-.58-3-7.14-8-12.34-12.94-18.18C832.42,513.48,831.93,513.85,832.15,514.14Z" transform="translate(7.96 10.5)" style="fill:#825500"/><path d="M870,552.13c-3,5.91-6.82,11.17-9.29,17.43-.37.92,1,1.42,1.54.65,3.58-5.65,5.54-11.74,8.54-17.62C871.09,552.06,870.3,551.59,870,552.13Z" transform="translate(7.96 10.5)" style="fill:#825500"/><path d="M827,574.43c2.42,4.75,4.67,9.42,8.49,13.22a.67.67,0,0,0,1-.81c-2.55-4.56-6-8.47-8.74-12.88a.46.46,0,0,0-.64-.13.46.46,0,0,0-.15.6Z" transform="translate(7.96 10.5)" style="fill:#825500"/><path d="M850.65,615.19c-1.67,4.1-4,8.29-4.81,12.66a.92.92,0,0,0,.7,1.1.93.93,0,0,0,1-.4c2.27-3.9,3.28-8.67,4.7-12.93C852.55,614.62,851,614.25,850.65,615.19Z" transform="translate(7.96 10.5)" style="fill:#825500"/><path d="M871.26,631.94c-3.9,6.12-7.72,11.39-8.77,18.77-.1.76.92,1.37,1.35.57,3.28-6.09,4.93-12.85,8.15-18.92a.41.41,0,0,0-.15-.57.42.42,0,0,0-.58.15Z" transform="translate(7.96 10.5)" style="fill:#825500"/><path d="M825.89,665.64a18.07,18.07,0,0,0,5.63,4,.42.42,0,0,0,.57-.18.41.41,0,0,0-.14-.54,24.23,24.23,0,0,1-5-4.37c-.61-.71-1.71.36-1,1Z" transform="translate(7.96 10.5)" style="fill:#825500"/><path d="M828.64,723.72a58.25,58.25,0,0,0,12.23-8.6c1-1-.33-2.81-1.53-2A83.63,83.63,0,0,0,828,722.83a.56.56,0,0,0,.68.88Z" transform="translate(7.96 10.5)" style="fill:#825500"/><path d="M861,776.62c3.68-8.25,8-16.13,11.5-24.5.22-.54-.61-.82-.9-.38-5,7.77-8.17,15.94-11.5,24.5C859.94,776.75,860.82,777.13,861,776.62Z" transform="translate(7.96 10.5)" style="fill:#825500"/><path d="M890.8,705.7l-.27,8.56a.46.46,0,0,0,.91,0l.35-8.56a.5.5,0,0,0-1,0Z" transform="translate(7.96 10.5)" style="fill:#825500"/><path d="M909.74,728.86c-3.3,3.59-6.77,7.4-9.13,11.69a.62.62,0,0,0,.23.86.62.62,0,0,0,.86-.22c2.91-3.91,5.45-8,8.64-11.74.34-.4-.23-1-.6-.59Z" transform="translate(7.96 10.5)" style="fill:#825500"/><path d="M904,684.11c3.48,3.27,7.41,7,11.81,8.91.4.18.92-.33.52-.66-3.77-3.14-8-5.58-11.78-8.8C904.21,683.24,903.67,683.76,904,684.11Z" transform="translate(7.96 10.5)" style="fill:#825500"/><path d="M947.91,640.79c-3,4.34-7.79,8.34-9.63,13.37-.39,1.06,1,1.55,1.71,1,4.14-3.3,6.17-9.37,8.77-13.87.32-.55-.5-1-.85-.49Z" transform="translate(7.96 10.5)" style="fill:#825500"/><path d="M974,612q3.47,5.46,6.9,10.95a.42.42,0,0,0,.58.11.41.41,0,0,0,.14-.54,70.47,70.47,0,0,0-6.41-11.23c-.51-.74-1.7-.07-1.21.71Z" transform="translate(7.96 10.5)" style="fill:#825500"/><path d="M978.11,555.24c3.6,3,7,6.21,11.27,8.1a1,1,0,1,0,1.24-1.6h0c-3.19-3.45-7.35-5.6-11.32-8-.93-.57-2.07.83-1.19,1.55Z" transform="translate(7.96 10.5)" style="fill:#825500"/><path d="M988.34,489.13c1.39,5,1.67,10.48,2.33,15.68a.81.81,0,0,0,1.61,0c.12-5.67-1.3-10.59-2.78-16a.6.6,0,0,0-1.16.32Z" transform="translate(7.96 10.5)" style="fill:#825500"/><path d="M1018.89,503.9c-3.35,4.38-6.65,8.78-9.79,13.32-.29.43.4,1,.72.56,3.45-4.37,6.7-8.85,9.92-13.39C1020.12,503.87,1019.27,503.39,1018.89,503.9Z" transform="translate(7.96 10.5)" style="fill:#825500"/><path d="M1026.45,544.76c-3.76,6.63-8.87,12.52-12.07,19.44-.45,1,.77,2.15,1.61,1.24,5.23-5.74,8-13.23,11.37-20.15.29-.61-.57-1.13-.91-.53Z" transform="translate(7.96 10.5)" style="fill:#825500"/><path d="M1022.48,605.85c-4.88-2-9.69-4.2-14.71-5.85a.54.54,0,0,0-.41,1c4.63,2.54,9.52,4.57,14.33,6.75a1,1,0,1,0,.79-1.86h0Z" transform="translate(7.96 10.5)" style="fill:#825500"/><path d="M990,665.5a139.2,139.2,0,0,0-1.58-14.41.51.51,0,0,0-1,.14,139.6,139.6,0,0,0,1.44,14.43c.11.67,1.21.51,1.18-.16Z" transform="translate(7.96 10.5)" style="fill:#825500"/><path d="M951.21,695.55c-4.35,3.55-8.64,7.19-12.05,11.67-.55.71.6,1.52,1.21.94,4-3.84,7.54-8.08,11.49-12,.43-.43-.2-1-.65-.65Z" transform="translate(7.96 10.5)" style="fill:#825500"/><path d="M974.63,723.65c3.12,4.47,5.91,9.19,8.57,13.94.23.4.79,0,.61-.36a74.94,74.94,0,0,0-8.39-14c-.34-.46-1.13,0-.79.46Z" transform="translate(7.96 10.5)" style="fill:#825500"/><path d="M1014.46,710.1c1,1.4,2,2.81,2.95,4.25a11.83,11.83,0,0,0,2.82,3.36.64.64,0,0,0,.87-.25.62.62,0,0,0,.06-.46,11.62,11.62,0,0,0-2.57-3.56c-1.16-1.28-2.29-2.58-3.41-3.9-.33-.39-1,.14-.72.56Z" transform="translate(7.96 10.5)" style="fill:#825500"/><path d="M1020,672.7c2.89,2.42,5.68,5.18,8.92,7.12a.56.56,0,0,0,.68-.88c-2.66-2.68-6-4.73-9-7-.42-.3-1,.38-.55.72Z" transform="translate(7.96 10.5)" style="fill:#825500"/><path d="M1044.12,653.71c-2.29,3.37-4.38,6.81-5,10.89-.12.82,1,1.53,1.48.63,1.75-3.55,2.85-7.33,4.59-10.88a.62.62,0,0,0-.22-.86.63.63,0,0,0-.87.22h0Z" transform="translate(7.96 10.5)" style="fill:#825500"/><path d="M1057.55,622.55c-3.3,4.15-7.36,8.67-9.18,13.69a.68.68,0,0,0,.52.81.66.66,0,0,0,.6-.16c3.44-4.14,5.75-9.28,8.94-13.66.37-.51-.48-1.18-.88-.68Z" transform="translate(7.96 10.5)" style="fill:#825500"/><path d="M1068.61,685.44c-4.93,1.71-10.63,3.21-14.57,6.8a1.16,1.16,0,0,0,1.13,1.93c5-1.67,9.25-5.24,13.9-7.64.59-.31.18-1.32-.46-1.09Z" transform="translate(7.96 10.5)" style="fill:#825500"/><path d="M1039.73,736.59c1.47,4.62,2.66,9.32,4.09,13.95.2.65,1.34.57,1.24-.17a46.21,46.21,0,0,0-4.37-14.19c-.25-.54-1.14-.15-1,.41Z" transform="translate(7.96 10.5)" style="fill:#825500"/><path d="M1000.37,769.35c.61-1.81,1.36-3.64,1.79-5.49s.66-3.82,1-5.71a.63.63,0,1,0-1.22-.34c-.66,1.8-1.44,3.6-2,5.43a57.46,57.46,0,0,0-1.19,5.66.85.85,0,0,0,1.63.45Z" transform="translate(7.96 10.5)" style="fill:#825500"/><path d="M947.74,756.77a.05.05,0,0,0,0-.1h0a0,0,0,0,0,0,.1Z" transform="translate(7.96 10.5)" style="fill:#825500"/><path d="M941.92,763.12c-1.46,2-3,4-4.36,6.06-.21.33.3.74.56.43,1.6-2,3.07-4,4.59-6,.35-.47-.44-.94-.79-.46Z" transform="translate(7.96 10.5)" style="fill:#825500"/><path d="M947,746.42c2.47,2.63,4.87,6,8,7.75a.74.74,0,0,0,1-.31.76.76,0,0,0,0-.69c-1.9-3.11-5.29-5.4-8-7.79a.74.74,0,0,0-1,.31.76.76,0,0,0,0,.69Z" transform="translate(7.96 10.5)" style="fill:#825500"/><path d="M896.92,815.5c2.6,3,5.33,6.1,8.88,7.91a.88.88,0,0,0,1.21-.31.89.89,0,0,0-.14-1.07c-2.72-2.8-6.13-4.86-9.1-7.37a.6.6,0,0,0-.85.84Z" transform="translate(7.96 10.5)" style="fill:#825500"/><path d="M954.52,811.87c-4.25,5.65-9.16,11.11-12.45,17.38-.35.67.57,1.49,1.11.85,4.63-5.47,8.11-11.85,12.37-17.63.46-.62-.58-1.2-1-.6Z" transform="translate(7.96 10.5)" style="fill:#825500"/><path d="M924.46,802.94a69.38,69.38,0,0,0,4.87,8c.36.48,1-.13.77-.6a68.32,68.32,0,0,0-4.72-7.94.53.53,0,0,0-.92.54Z" transform="translate(7.96 10.5)" style="fill:#825500"/><path d="M927.72,854.86c-3.11,4.59-6.55,9.27-8.55,14.47-.31.81.85,1.13,1.29.55,3.31-4.41,5.74-9.52,8.66-14.2.55-.89-.82-1.67-1.4-.82Z" transform="translate(7.96 10.5)" style="fill:#825500"/><path d="M960.13,934.5c-4.65,5.52-9.88,11-12.2,18a1,1,0,0,0,1.64,1c4.83-5.32,7.87-12,12-17.83.63-.87-.8-2-1.49-1.15Z" transform="translate(7.96 10.5)" style="fill:#825500"/><path d="M901.18,921.16c3.42,3.26,6.38,6.92,9.79,10.18.44.42,1.29-.16.88-.68-2.91-3.78-6.59-6.86-10.17-10C901.34,920.37,900.85,920.84,901.18,921.16Z" transform="translate(7.96 10.5)" style="fill:#825500"/><path d="M927,899.77c2.38,3.86,4.4,7.92,7.19,11.52.5.65,1.58-.06,1.35-.78-1.43-4.39-4.12-8.07-6.9-11.7-.72-.93-2.31-.11-1.64,1Z" transform="translate(7.96 10.5)" style="fill:#825500"/><path d="M920.14,966.06A88.4,88.4,0,0,1,926,981.3c.29,1,1.89.56,1.56-.43a95.84,95.84,0,0,0-6.79-15.17c-.22-.4-.81,0-.61.36Z" transform="translate(7.96 10.5)" style="fill:#825500"/><path d="M1558.86,491.76c-2.82,3.93-6,7.7-8.14,12-.39.77.65,1.73,1.27,1,3.14-3.79,5.39-8.2,7.9-12.41.41-.67-.59-1.21-1-.6Z" transform="translate(7.96 10.5)" style="fill:#825500"/><path d="M1514.1,507.33c3.06,4.63,6.1,8.8,10.69,12,.59.42,1.13-.45.72-.94-3.34-4-7.15-7.59-10.32-11.72-.48-.62-1.55-.06-1.09.64Z" transform="translate(7.96 10.5)" style="fill:#825500"/><path d="M1529.91,545c2.07,2.89,4,5.92,6.31,8.64.51.62,1.52-.18,1.1-.85-1.86-2.95-4.12-5.69-6.2-8.5-.53-.71-1.74,0-1.21.71Z" transform="translate(7.96 10.5)" style="fill:#825500"/><path d="M1566.3,537.59c-3.17,3.78-6.42,7.47-9.36,11.43-.88,1.17.94,2.38,1.93,1.49a56.89,56.89,0,0,0,9.42-11.39c.78-1.18-1.06-2.64-2-1.53Z" transform="translate(7.96 10.5)" style="fill:#825500"/><path d="M1549.09,583.72c-2.41,3.38-4.85,6.69-6.93,10.28-.45.77.67,1.71,1.27,1,2.68-3.27,5-6.77,7.36-10.27.72-1.06-1-2-1.7-1Z" transform="translate(7.96 10.5)" style="fill:#825500"/><path d="M1505.77,591a40.31,40.31,0,0,0,9.77,7.66,1,1,0,1,0,1-1.76,118.93,118.93,0,0,1-9.61-7.09c-.81-.7-2,.4-1.19,1.19Z" transform="translate(7.96 10.5)" style="fill:#825500"/><path d="M1514.42,630a36.38,36.38,0,0,0,10.42.06c1-.18.77-1.8-.24-1.8-3.4,0-6.78.3-10.18.13C1513.36,628.36,1513.42,629.92,1514.42,630Z" transform="translate(7.96 10.5)" style="fill:#825500"/><path d="M1559.62,645c4.18,1.32,8.29,3.72,12.64,4.34.67.1,1.26-.86.51-1.22-4-1.92-8.8-2.22-13.06-3.46-.21-.06-.3.27-.09.34Z" transform="translate(7.96 10.5)" style="fill:#825500"/><path d="M1565.48,605c-3.32,3.21-7.49,6.15-9.75,10.24a.92.92,0,0,0,.36,1.25.94.94,0,0,0,.89,0c4-2.32,6.94-6.53,10.09-9.9a1.13,1.13,0,0,0-1.59-1.59Z" transform="translate(7.96 10.5)" style="fill:#825500"/><path d="M1514.12,678.43c2.76,3.93,5.68,7.36,10.07,9.53a.88.88,0,0,0,1.2-.34.89.89,0,0,0-.14-1c-2.87-3.49-6.3-6.26-9.53-9.39C1514.92,676.42,1513.43,677.45,1514.12,678.43Z" transform="translate(7.96 10.5)" style="fill:#825500"/><path d="M1499.33,699.56c.33,2.84.67,5.64,1.2,8.45.12.66,1.19.51,1.17-.16-.1-2.78-.39-5.52-.69-8.29-.11-1.07-1.81-1.07-1.68,0Z" transform="translate(7.96 10.5)" style="fill:#825500"/><path d="M1486.63,670.34c-3.6,3.88-7.59,7.9-10.19,12.54a.6.6,0,0,0,.94.72c3.75-3.73,6.82-8.19,10.39-12.11.7-.77-.43-1.91-1.14-1.15Z" transform="translate(7.96 10.5)" style="fill:#825500"/><path d="M1457.55,709c4.28.61,8.47,1.17,12.78.45a.74.74,0,0,0,0-1.42c-4.14-.78-8.33-.71-12.52-1-1.09-.06-1.37,1.78-.26,1.93Z" transform="translate(7.96 10.5)" style="fill:#825500"/><path d="M1492.94,738.62a31.52,31.52,0,0,0,4.1-7.12c.24-.62-.69-1.14-1.12-.65a31.65,31.65,0,0,0-4.41,7,.81.81,0,0,0,1.4.82Z" transform="translate(7.96 10.5)" style="fill:#825500"/><path d="M1534,729.16a91.75,91.75,0,0,0,6.93,8.55c.76.78,2.19-.25,1.55-1.19a91.86,91.86,0,0,0-7-8.46c-.67-.77-2.07.27-1.43,1.1Z" transform="translate(7.96 10.5)" style="fill:#825500"/><path d="M1572.37,719.93c-2.44,3.3-5.32,6.5-7,10.27-.32.73.52,1.52,1.16.9,3-2.91,5-6.79,7.32-10.28.63-1-.86-1.78-1.51-.89Z" transform="translate(7.96 10.5)" style="fill:#825500"/><path d="M1574.85,762.36a152.71,152.71,0,0,0-10.69,12.72c-.38.54.44,1.09.89.68a149.45,149.45,0,0,0,11.2-12c.83-1-.55-2.34-1.4-1.39Z" transform="translate(7.96 10.5)" style="fill:#825500"/><path d="M1521.25,777.68a40.06,40.06,0,0,0,6.75,8,.88.88,0,0,0,1.25,0,.87.87,0,0,0,0-1.24,78.57,78.57,0,0,1-6.47-7.65c-.65-.92-2.16-.06-1.52.89Z" transform="translate(7.96 10.5)" style="fill:#825500"/><path d="M1574.13,789.82c-3.86,3.84-8.32,7.49-11,12.32a.85.85,0,0,0,.41,1.13.86.86,0,0,0,.92-.13c4.09-3.56,7-8.39,10.47-12.49.5-.58-.29-1.4-.84-.85Z" transform="translate(7.96 10.5)" style="fill:#825500"/><path d="M1537,811.27a21.64,21.64,0,0,0,4.29,5.88c.94.87,2.74-.32,1.87-1.45a54.63,54.63,0,0,1-4-5.67,1.23,1.23,0,0,0-2.12,1.24Z" transform="translate(7.96 10.5)" style="fill:#825500"/><path d="M1593.64,687.36c3.49,3.22,6,7.47,9.9,10.2,1,.73,2.26-.68,1.68-1.69-2.38-4.18-6.79-6.69-10.38-9.71-.82-.69-2,.45-1.2,1.2Z" transform="translate(7.96 10.5)" style="fill:#825500"/><path d="M1639.44,645.5c-3.28,3.81-6.76,7.47-10,11.33-.92,1.11.67,2.71,1.59,1.59,3.24-3.88,6.21-8,9.38-11.93.56-.69-.39-1.69-1-1Z" transform="translate(7.96 10.5)" style="fill:#825500"/><path d="M1593.47,626.56c3.69,1.89,7,4.3,10.48,6.53a1,1,0,0,0,1.26-.64,1,1,0,0,0-.11-.85,36.23,36.23,0,0,0-10.6-6.8c-1.17-.53-2.21,1.16-1,1.76Z" transform="translate(7.96 10.5)" style="fill:#825500"/><path d="M1613.24,573.21c-1.41,5.76-2.91,11.42-3,17.4,0,.81,1.29,1,1.45.19,1.12-5.74,1.4-11.59,2.4-17.35.1-.57-.73-.82-.88-.24Z" transform="translate(7.96 10.5)" style="fill:#825500"/><path d="M1633.32,598c-1.75,1.8-3.53,3.58-5.16,5.49-.2.24.12.57.35.35,1.84-1.71,3.53-3.57,5.26-5.4.28-.29-.16-.74-.45-.44Z" transform="translate(7.96 10.5)" style="fill:#825500"/><path d="M1638.28,709.88c-6.43-.13-13-.71-19.42.14a.63.63,0,1,0,0,1.26h0c6.4.8,13,.18,19.42,0a.7.7,0,1,0,0-1.4Z" transform="translate(7.96 10.5)" style="fill:#825500"/><path d="M1601.26,742.66c.36-2.68.81-5.36,1-8a.25.25,0,0,0-.48-.07c-.59,2.64-.92,5.34-1.35,8a.42.42,0,1,0,.8.25.32.32,0,0,0,0-.14Z" transform="translate(7.96 10.5)" style="fill:#825500"/><polygon points="490.5 595.38 534.08 564.5 525.5 622.29 490.5 595.38" style="fill:#ffe096"/><polygon points="727.43 903.74 788.33 909.74 762.23 944.04 727.43 903.74" style="fill:#ffe096"/><g id="Layer_28" data-name="Layer 28"><path d="M1316.7,985.26s7,46,6,55-28.16-14.41-52.58.3,26.83,50.7,75.58,11.7c5-4-6.94-30.29-11-60.14Z" transform="translate(7.96 10.5)" style="fill:#6a89ff"/><g style="clip-path:url(#clip-path-16)"><path d="M1338.7,1004.26s.64,34.27-1.18,40.63-26.82,17.37-43.82,7.37-33-4-34,0,18,18,18,18l25.36,3.76,26.64-3.76,19.79-12.41,4-11.39Z" transform="translate(7.96 10.5)" style="fill:#426aff"/></g><path d="M1387.7,988.26s5,51,0,56-43,4-41,33,68-19,71-24-12-40-12-77Z" transform="translate(7.96 10.5)" style="fill:#6a89ff"/><g style="clip-path:url(#clip-path-17)"><path d="M1344.7,1065.26s9,10,19,9c7.79-.78,43-17,46-22s-4-40,3-45,13,35,13,35l-6,22-41.77,22.92s-11.23,5.08-21.23,3.08S1342.7,1077.26,1344.7,1065.26Z" transform="translate(7.96 10.5)" style="fill:#426aff"/></g><path d="M1319.2,759.76s-34-28-26-71l15-3s-11.11,43.5,30.69,74c0,0-2.19,2.5-10.19,2.5S1319.2,759.76,1319.2,759.76Z" transform="translate(7.96 10.5)" style="fill:#6a89ff"/><g style="clip-path:url(#clip-path-18)"><path d="M1287.7,706.26s9,2,13,7,7,33,25,39,1-14,1-14-12-12-14-27-7.44-23.52-7.44-23.52l-22.56,8.52Z" transform="translate(7.96 10.5)" style="fill:#426aff"/></g><circle cx="1304.16" cy="678.26" r="34.5" style="fill:#6989ff"/><g style="clip-path:url(#clip-path-19)"><path d="M1264.7,642.26s36-6,51,10-12,60-47,39h0l8,11,12,4,27-4,13-15,7-17-5-24-18-18-25,1Z" transform="translate(7.96 10.5)" style="fill:#426aff"/></g><g id="hand"><path d="M1262.18,840.17s-81.66,12.92-136.67-101.79" transform="translate(7.96 10.5)" style="fill:none;stroke:#3d3c3f;stroke-miterlimit:10;stroke-width:9px"/><path d="M1119.29,805.59c4.47-11.26,22-68.76,22.38-107.39s18.56-49.41,30.14-62,51.32-57.8,40.79-85.38S1156.85,540.67,1140,568s-14.62,43.63-13.09,110.44S1114,769.2,1106,780.56s-20.51,25.88-11.77,34.46S1114.79,816.89,1119.29,805.59Z" transform="translate(7.96 10.5)" style="fill:#e68d00"/><g style="clip-path:url(#clip-path-20)"><path d="M1215.71,554.86s-6.44-25-41.86-4.59-45.69,56.37-43.86,95.5,11.41,101.06-38,172.89l-5-17.22,29-55.25,3.93-65.93-1.53-57,10.44-51,20.77-20.34,28-15.42,24.57-2.88,14.62,14.88Z" transform="translate(7.96 10.5)" style="fill:#b86800"/></g><path d="M1209.4,561.61c.2,9.61-7.7,37.85-30.9,58.64s-36.87,13.46-39.53-.09,11.37-53,39.1-68S1209.13,549.25,1209.4,561.61Z" transform="translate(7.96 10.5)" style="fill:#ffb94d"/><g style="clip-path:url(#clip-path-21)"><path d="M1163,557.58s24.65-7.86,20.18,27.34-30.06,52.08-39.91,49.19,11,14.15,11,14.15l39.11-29.34,22.77-40.73-3.56-43.25-28.89-1Z" transform="translate(7.96 10.5)" style="fill:#ffca78"/></g><path d="M1130.2,714.67s10.71-17.08,5-22-10,.82-10.66,8.92-4.34,20.45-4.34,20.45Z" transform="translate(7.96 10.5)" style="fill:#3d3c3f"/><path d="M1123.49,713.77c6.27-3.82,21.29-9.8,25.06-4.75s3.45,60.48-28.3,40.56C1115.47,746.58,1113.28,720,1123.49,713.77Z" transform="translate(7.96 10.5)" style="fill:#3d3c3f"/><g style="clip-path:url(#clip-path-22)"><path d="M1126.41,711.5s-11.39,45.82,22.22,31l-7,12.63-14.8-.74-13.41-8.32,4.69-32.54,8.3-2" transform="translate(7.96 10.5)" style="fill:#252526"/></g></g><path d="M1250.73,956.76c-31.28-37-33.89-165,39.1-197s186-19,199,76-43.45,163-113.83,164C1306.54,1000.73,1282,993.76,1250.73,956.76Z" transform="translate(7.96 10.5)" style="fill:#6989ff"/><g style="clip-path:url(#clip-path-23)"><path d="M1330.7,742.26s98,2,122,68c12.25,33.69-5.14,221.93-195,166L1292,999.84s51.72,15.42,78.72,13.42,91.29-33.82,102.64-41.41,23.36-52.59,26.36-67.59,7-64,3-85-26-61-50-65-87.59-18.14-87.59-18.14Z" transform="translate(7.96 10.5)" style="fill:#426aff"/><path d="M1376.7,962.26c1.84-3.69,5-15,11-14s10,7,6,11S1374.7,966.26,1376.7,962.26Z" transform="translate(7.96 10.5)" style="fill:#426aff"/><path d="M1402.7,947.26c-.44-2.19,6-6,8-5S1403.7,952.26,1402.7,947.26Z" transform="translate(7.96 10.5)" style="fill:#426aff"/><path d="M1442.7,879.26c0-3.16,0-10,3-10s0,10-1,13S1442.7,881.26,1442.7,879.26Z" transform="translate(7.96 10.5)" style="fill:#426aff"/><path d="M1446.7,862.26c-1.34-.45,0-11,3-8S1449.7,863.26,1446.7,862.26Z" transform="translate(7.96 10.5)" style="fill:#426aff"/><path d="M1362.7,977.26c-3.58-1.79-5-7,1-8s9,2,8,5S1364.7,978.26,1362.7,977.26Z" transform="translate(7.96 10.5)" style="fill:#426aff"/><path d="M1366.7,963.26c-1.34-.45,2-4,4-3S1369.7,964.26,1366.7,963.26Z" transform="translate(7.96 10.5)" style="fill:#426aff"/></g><path d="M1470.7,845.26s62.29,47.9,59,73c-6.5,49.5-58.5,23.5-58.5,23.5" transform="translate(7.96 10.5)" style="fill:none;stroke:#3d3c3f;stroke-miterlimit:10;stroke-width:9px"/><path d="M1402.2,759.76s34-28,26-71l-15-3s11.11,43.5-30.7,74c0,0,2.2,2.5,10.2,2.5S1402.2,759.76,1402.2,759.76Z" transform="translate(7.96 10.5)" style="fill:#6a89ff"/><g style="clip-path:url(#clip-path-24)"><path d="M1411.7,702.26s7,10,11,14-13.1,36-13.1,36l16.1-14,10-42-24-4Z" transform="translate(7.96 10.5)" style="fill:#426aff"/></g><circle cx="1433.16" cy="678.26" r="34.5" style="fill:#6989ff"/><g style="clip-path:url(#clip-path-25)"><path d="M1403.35,641.06s32.35-8.8,40.35,15.2-9,53-45,37l10,9,13.72,4.82,15.28-.82,14-8.89,12-19.11,1-20-9-22-26-9-24,6-2.35,7.8" transform="translate(7.96 10.5)" style="fill:#426aff"/></g><path d="M1286.7,810.26s42,36,146,6c0,0-17.44,92-102,82C1271.7,891.26,1286.7,810.26,1286.7,810.26Z" transform="translate(7.96 10.5)" style="fill:#2e5aff"/><g style="clip-path:url(#clip-path-26)"><path d="M1369.7,822.26s-7,74-85,53c0,0,10,27,50,30s60-14,75-27,32-61,31-68S1369.7,822.26,1369.7,822.26Z" transform="translate(7.96 10.5)" style="fill:#1b49f5"/><path d="M1301.7,816.26s9,26,16,26,19-18,19-18Z" transform="translate(7.96 10.5)" style="fill:#fff"/><path d="M1380.7,823.26s9,16,18,17,10-22,10-22Z" transform="translate(7.96 10.5)" style="fill:#fff"/><path d="M1299.7,891.26s17-19,24-19,15,30,15,30S1305.7,901.26,1299.7,891.26Z" transform="translate(7.96 10.5)" style="fill:#fff"/><g style="clip-path:url(#clip-path-27)"><path d="M1305.7,883.26s16,12,33,11l2,8-17-1.4-18-7.6-7-7Z" transform="translate(7.96 10.5)" style="fill:#dee4ff"/></g><path d="M1375.7,897.26s-5-24,2-29,32,10,32,10S1389.7,898.26,1375.7,897.26Z" transform="translate(7.96 10.5)" style="fill:#fff"/><g style="clip-path:url(#clip-path-28)"><path d="M1401.7,870.26s-20,18-30,19l1,8,13-5,15-11,6-8Z" transform="translate(7.96 10.5)" style="fill:#dee4ff"/></g></g><ellipse cx="1430.66" cy="675.26" rx="23" ry="22.5" style="fill:#fff"/><ellipse cx="1303.66" cy="675.26" rx="23" ry="22.5" style="fill:#fff"/><ellipse cx="1303.66" cy="668.54" rx="5" ry="7.22" style="fill:#3d3c3f"/><ellipse cx="1431.66" cy="665.59" rx="5" ry="7.22" style="fill:#3d3c3f"/></g></g></g></svg>