<svg xmlns="http://www.w3.org/2000/svg" xmlns:xlink="http://www.w3.org/1999/xlink" viewBox="0 0 3000 2000"><defs><linearGradient id="linear-gradient" x1="1500" x2="1500" y2="901" gradientUnits="userSpaceOnUse"><stop offset="0" stop-color="#4dbaff"/><stop offset="1" stop-color="#defaff"/></linearGradient><clipPath id="clip-path"><path d="M3000,266S672,1149,238,0H187S335,387,795,554s1696,2,2205-253" style="fill:#3b9600"/></clipPath><clipPath id="clip-path-2"><path d="M0,423c0-6,521-98,768-423h48S541,340,0,450Z" style="fill:#3b9600"/></clipPath><clipPath id="clip-path-3"><path d="M2507,2000s-6-53,50-49c0,0-13-47,21-55s53,7,53,7-6-32,12-29c0,0,13-36,24-21,0,0-8-78,39-67,0,0,50-79,115-19,0,0,91-31,93,23,0,0,16-23,27-9,0,0,25-58,59-36v255Z" style="fill:#4ac200"/></clipPath><clipPath id="clip-path-4"><path d="M0,885H3000v239s-524,107-647,113-433,52-569,72-421,51-541,37-484,34-615-3-348-76-409-148S0,1047,0,1047Z" style="fill:#59e7ff"/></clipPath><clipPath id="clip-path-5"><path d="M160.25,1722.38c0-7.9-37.24-360,47.4-404s-29.34,431.1-29.34,431.1Z" style="fill:#41a500"/></clipPath><clipPath id="clip-path-6"><path d="M146.71,1697.55S12.41,1315,73.36,1284.5s114,413.05,114,413.05Z" style="fill:#41a500"/></clipPath><clipPath id="clip-path-7"><path d="M220.44,1763S200.5,1435.73,293,1442.5,241.19,1763,241.19,1763Z" style="fill:#41a500"/></clipPath><clipPath id="clip-path-8"><path d="M476.25,1969.53S567.66,1791.22,641,1804.76,476.25,1969.53,476.25,1969.53Z" style="fill:#41a500"/></clipPath><clipPath id="clip-path-9"><path d="M547.35,1978.56s117.36-98.19,196.36-76.74S547.35,1978.56,547.35,1978.56Z" style="fill:#41a500"/></clipPath><clipPath id="clip-path-10"><path d="M714.24,1407.69s83.22-15,89.46-81.27-20.27-154.76,68.6-192.18,159.43,44.44,171.52,79.91,4.29,69.78-21,87.32-51.07-17.54-67-16-37.42,13.25-42.88,62.37-70.55,166.83-181.65,150.46Z" style="fill:#bfbfbf"/></clipPath><clipPath id="clip-path-11"><path d="M782.84,1357.8s72.9-40.93,86.93,91.21L853,1468.11s13.25-109.53-92-90.82Z" style="fill:#5c5c5c"/></clipPath><clipPath id="clip-path-12"><path d="M795.71,1217.08s58.08-28.46,86.14,0,41.71,60,42.88,104.86l-10.52,40.92s-19.49-79.91-63.15-87.7-60.42,34.69-60.42,34.69Z" style="fill:#5c5c5c"/></clipPath><clipPath id="clip-path-13"><path d="M873.67,1126.64S961,1125.08,975.8,1182s-32.75,112.27-32.75,112.27h12.09s46-11.31,62-56.13-13.65-95.12-13.65-95.12l-52.62-21.83-36.64-5.45L888.48,1122Z" style="fill:#5c5c5c"/></clipPath><clipPath id="clip-path-14"><path d="M565.72,1017.89S540,888.47,575.08,802.32c0,0,37.42-21.05,45.21-21.05,0,0-52.23,143.84-26.5,207.77Z" style="fill:#368a00"/></clipPath><clipPath id="clip-path-15"><path d="M664,781.27s24.72-11.16,50.45-8.43L684.61,952.79l-55,5.46-5.07-74.85Z" style="fill:#368a00"/></clipPath><clipPath id="clip-path-16"><path d="M730.61,1061.54s210.1-108.36,341.08-93.16l-49.9-68.61s-234.66,34.31-300.54,92.39Z" style="fill:#328000"/></clipPath><clipPath id="clip-path-17"><path d="M714.24,1007s74.84-62.76,327.82-99.4L1002.69,853S855,858.84,714.24,964.09Z" style="fill:#368a00"/></clipPath><clipPath id="clip-path-18"><path d="M703.77,958.25S926.14,823.79,961.22,828.08s34.46,37,34.46,37l-292,115.77Z" style="fill:#307a00"/></clipPath><clipPath id="clip-path-19"><path d="M721.3,942s202-107,302.06-93.2c0,0-47.79-71.12-116.24-15.71,0,0-56.36-15.36-65,10.53,0,0-49.5-1.54-42,39.79,0,0-35.87-1.7-41.81,20.68C758.31,904.08,717.85,917.83,721.3,942Z" style="fill:#ffbc21"/></clipPath><clipPath id="clip-path-20"><path d="M693.86,930.77S662.24,783,609.29,754.08c0,0,61.26-28.89,61.3,33.85,0,0,34,11.28,23.51,31.71,0,0,23.23,17.82-3.2,42.34,0,0,17.16,12.52,7.37,29.6C698.27,891.58,708.89,916.09,693.86,930.77Z" style="fill:#ffbc21"/></clipPath><clipPath id="clip-path-21"><path d="M709.06,873.67s17.26-111.89,47.28-144.24S721.25,879.5,721.25,879.5Z" style="fill:#4ac200"/></clipPath><clipPath id="clip-path-22"><path d="M718.67,871.4s90.68-149.77,111-161.85S725.54,888.86,725.54,888.86Z" style="fill:#4ac200"/></clipPath><clipPath id="clip-path-23"><path d="M733,869.76S804.67,759.83,837,744.63,736.46,883.4,736.46,883.4Z" style="fill:#4ac200"/></clipPath><clipPath id="clip-path-24"><path d="M739.57,874.05s119.67-106.81,157.1-115.78S749.32,883.4,749.32,883.4Z" style="fill:#4ac200"/></clipPath><clipPath id="clip-path-25"><path d="M743.08,883.4s159.43-98.62,204.65-99S743.08,893.15,743.08,893.15Z" style="fill:#4ac200"/></clipPath><clipPath id="clip-path-26"><path d="M638.22,1515.67s6.24,47.56,36.65,102.13c0,0-62.37-7.41-71.73,4.68s3.51,12.86,23,12.08,68.61.39,68.61.39-36.65-80.3-26.9-116.16Z" style="fill:#bfbfbf"/></clipPath><clipPath id="clip-path-27"><path d="M746.59,1507.48s78.35,78.35,85,97.84,71.72,18.33,84.59,21,10.52-13.64-12.09-16.76-55.74-7.79-55.74-7.79-49.12-87.71-87.32-108Z" style="fill:#bfbfbf"/></clipPath><clipPath id="clip-path-28"><path d="M668.24,943s31.18-74.69,46-82.95S756,846,762.57,849.88,770,883.79,768.42,890s-64.71,78.35-64.71,78.35Z" style="fill:#ed6e05"/></clipPath><clipPath id="clip-path-29"><path d="M490.49,1198.76s-46.39-13.65-72.9-87.32-30.4-124-30.4-124l-10.53,7s9.36,116.94,45.22,173.85,65.88,49.12,65.88,49.12Z" style="fill:#bfbfbf"/></clipPath><clipPath id="clip-path-30"><path d="M721.25,941.87c-25.47-14.45-98.62-35.47-174.24,89.27s-96.67,279.1-60,378.89,148.13,129,220.24,120.06,93.94-65.88,60-120.06-88.49-140.72-63.54-234.66S776.22,973.06,721.25,941.87Z" style="fill:#ccc"/></clipPath><clipPath id="clip-path-31"><path d="M466.32,1312.19s14.42-61.59,69.77-61.59S690.85,1421.34,704.88,1456s-2.73,92.38-80.69,75.62S455.79,1456.81,466.32,1312.19Z" style="fill:#f0f0f0"/></clipPath><clipPath id="clip-path-32"><path d="M550.84,1024.94s60.88-18.75,111.16,0,67.51,62.36,67.51,62.36l13.57-3.89,17.54-73.67L754,954l-44.83-32.75-45.61-2.72-50.67,16.37-41.32,46-28.46,37Z" style="fill:#ffbc21"/></clipPath><clipPath id="clip-path-33"><path d="M561.43,1208.5c-41.78-1.8-75.69-43.38-59.87-82.3s21.28.83,62.6,15.64,85.37-37.42,102.91-32.35S696.7,1214.35,561.43,1208.5Z" style="fill:#782900"/></clipPath><clipPath id="clip-path-34"><path d="M697.47,1382.75s34.7,17.54,35.87,33.52-5.46,5.85-10.14,2-33.91-19.88-33.91-19.88Z" style="fill:#b8b8b8"/></clipPath><clipPath id="clip-path-35"><path d="M687,1260.74c-13.71-8.73-29.24-20.66-20.66-35.87s14.42-15.59,39.76,10.92,44.05,43.66,40.54,72.89-57.3,89.66-57.3,89.66-8.19-1.17-6.63-5.85,45.61-63.93,49.51-74.84S729.83,1288,687,1260.74Z" style="fill:#bfbfbf"/></clipPath><clipPath id="clip-path-36"><path d="M341.5,1044.45c8.91-5.52,50.74-36.43,70.93-63.07s38.38-24.76,52.9-27.51,65.46-13.69,72.37-38.29-33.5-35.8-59.3-25.48-32.66,22.77-66,70-55.74,56.37-67.15,60.15-27.59,7.4-25.94,17.87S332.55,1050,341.5,1044.45Z" style="fill:#e68d00"/></clipPath><clipPath id="clip-path-37"><path d="M529.93,921.4c-4.81,6.79-24.87,22.33-51.71,24.82s-32.56-9.67-27.42-20.45S486,894.82,513,898.71,536.12,912.69,529.93,921.4Z" style="fill:#ffb94d"/></clipPath><clipPath id="clip-path-38"><path d="M388.24,968.39c7.36.19,23.26,3.28,23.7,9.58s-29.86,52.85-45.83,18.85C363.7,991.71,376.27,968.09,388.24,968.39Z" style="fill:#ccc"/></clipPath><clipPath id="clip-path-39"><path d="M558.86,1012.73s58.88-24.13,115.84,0S735.09,1067,735.09,1067s6.93-2.48,10.38-5.93,3.45-17.26,3.45-19-27.62-41.42-81.12-51.78-100.88,1.58-105.67,5.11S551.75,1011,558.86,1012.73Z" style="fill:#4ac200"/></clipPath><clipPath id="clip-path-40"><polygon points="265 1819.25 338.71 1463.78 491.65 1463.78 524.82 1502.99 515.6 1963 265 1819.25" style="fill:#b7b7b7"/></clipPath><clipPath id="clip-path-41"><polygon points="845.44 1516.06 926.52 1895.04 590.14 1831.28 578.25 1445.49 845.44 1516.06" style="fill:#b7b7b7"/></clipPath><clipPath id="clip-path-42"><polygon points="338.71 1463.78 383 1391 499.02 1346.17 906.25 1346.17 979.96 1395.83 845.44 1516.06 585.63 1482.08 524.82 1502.99 338.71 1463.78" style="fill:#ccc"/></clipPath><clipPath id="clip-path-43"><path d="M0,2000V1572.28s100.44-94.8,127.53,55.3c0,0,46.27-21.44,60.94,39.5,0,0,73.35-58.69,132,26,0,0,115.11-11.29,67.71,80.12,0,0,134.3-27.08,103.83,68.84,0,0,35-6.77,23.7,32.73,0,0,51.91,36.11,13.54,65.46,0,0,117.37-16.93,111.72,59.81" style="fill:#4ac200"/></clipPath><clipPath id="clip-path-44"><path d="M871,0s687.09,158.55,1361.55,156.27C2598.71,155,2848.32,109.08,3000,67.33V109c-185.21,40.91-484.77,94.4-787,95C1723,205,998,77,773,0Z" style="fill:#3b9600"/></clipPath><clipPath id="clip-path-45"><path d="M1487,156s381,101,678,101,679-115.66,679-115.66l28.5,1549.16c-4.5,14.5-285.61,88.3-747.5,59.5-449-28-638-87.14-638-87.14Z" style="fill:#6830cf"/></clipPath><clipPath id="clip-path-46"><path d="M1482.5,102.5s17-37,41-39,68,19,73,19-25,45-42,50-59,4-59,4Z" style="fill:#8c4eff"/></clipPath><clipPath id="clip-path-47"><path d="M1474.5,92.5s0-48-28-61-76,13-76,13,12,86,106,71Z" style="fill:#8c4eff"/></clipPath><clipPath id="clip-path-48"><path d="M1488.5,159.5c-8.51-.81-40-59-18-69S1530.5,163.5,1488.5,159.5Z" style="fill:#6830cf"/></clipPath><clipPath id="clip-path-49"><path d="M1345.5,1136.5s13,353,142,526l31-803S1378,999,1372,1011,1345.5,1136.5,1345.5,1136.5Z" style="fill:#7843db"/></clipPath><clipPath id="clip-path-50"><path d="M2784,1044l88,647s1-379,41-475c0,0-8-80-34-101S2784,1044,2784,1044Z" style="fill:#7843db"/></clipPath><clipPath id="clip-path-51"><path d="M2843,141s-107,810-113,887,174,83,183,188L2852,135Z" style="fill:#8c4eff"/></clipPath><clipPath id="clip-path-52"><path d="M2851.8,102s-.22-37.64,30.15-37.94,45.3-8.36,45.3-8.36-11.85,57-30.33,62.94S2851.52,113.4,2851.8,102Z" style="fill:#8c4eff"/></clipPath><clipPath id="clip-path-53"><path d="M2845.28,95.88s-40.63-35.14-63.42-25.26-31.12,16.78-31.12,16.78,10,15.51,27.21,20.68,61.21,4.75,61.21,4.75Z" style="fill:#8c4eff"/></clipPath></defs><g id="Layer_2" data-name="Layer 2"><g id="monster-on-the-beach"><rect y="963" width="3000" height="1037" style="fill:#ffcf6d"/><path d="M0,1060.67s141,92.22,160,111.14,54,77.77,111,109.3,265,114.56,367,134.52,350-22.07,377-24.17,164-24.17,214-16.81,268,12.61,368,0,360-53.6,425-65.16,358-37.84,432-46.25,398-73.57,431-84.08,115-31.67,115-31.67l-.53-53.74L0,1010.83Z" style="fill:#f7ae19"/><path d="M1565.16,1903.59c-18.47-4.49,23.42-40.25,63.57-31.1S1625.38,1918.22,1565.16,1903.59Z" style="fill:#f7ae19"/><path d="M1660.51,1843.22c2.36-7.09,43.49-16.47,43.49-3.66S1653.82,1863.34,1660.51,1843.22Z" style="fill:#f7ae19"/><path d="M1608.65,1832.24c-21.74,5.49-10,11,8.37,9.15S1608.65,1832.24,1608.65,1832.24Z" style="fill:#f7ae19"/><path d="M2548.12,1813.59c-19.59,2.8-56,12.6-26.59,15.4s54.59,2.8,58.79-4.2S2548.12,1813.59,2548.12,1813.59Z" style="fill:#f7ae19"/><path d="M2468.34,1843c-16.85,0-8.39,11.19,5.6,8.39S2479.54,1843,2468.34,1843Z" style="fill:#f7ae19"/><path d="M2513.13,1836c-9.8,2.8,2.8,8.4,11.2,7S2522.93,1833.19,2513.13,1836Z" style="fill:#f7ae19"/><path d="M2494.94,1851.38c-6.26,0,4.2,7,11.19,4.2s-5.59-4.2-11.19-4.2" style="fill:#f7ae19"/><path d="M1314.07,1598.1c-20.82,3-9.79,8.4,7,8.4S1323.86,1596.7,1314.07,1598.1Z" style="fill:#f7ae19"/><path d="M1196.56,1563.13c-16.84,0-9.79,12.59,8.4,12.59S1219,1563.13,1196.56,1563.13Z" style="fill:#f7ae19"/><rect width="3000" height="901" style="fill:url(#linear-gradient)"/><path d="M1451,407c-108.31-40.62,1-30,256-38s441-73,732-68,521,90,501,125-707,0-832,0S1587,458,1451,407Z" style="fill:#fff;opacity:0.37"/><path d="M380,362c31.38-34,284-89,412-46s5,118-185,88S308,440,380,362Z" style="fill:#fff;opacity:0.37"/><path d="M3000,266S672,1149,238,0H187S335,387,795,554s1696,2,2205-253" style="fill:#3b9600"/><g style="clip-path:url(#clip-path)"><path d="M215,0s22,46,47,102S439,366,614,423l-77-55-95-68-53-66-60-78L282,81,251,0H215" style="fill:#49ba00"/><path d="M721.44,524.34S1133,618,1387,609s855-56,1161-159,403-125.72,403-125.72L2901,371s-273,94-325,101-522,111-522,111l-654,50L999,622,728,546l-6.56-21.66" style="fill:#328000"/><path d="M3000,226v56s-409.11,166.26-867,225l42-26,307-70,160-42,220-68Z" style="fill:#49ba00"/></g><path d="M907.62,545.84s-36.5-31.78-7.3-64.84c0,0,30.92,2.15,35.21,17.18S936.39,545.84,907.62,545.84Z" style="fill:#3b9600"/><path d="M856.66,565.84s-51,6-50.2,25.53S818,622,818,622s42.54-3,57.86-20.42S856.66,565.84,856.66,565.84Z" style="fill:#3b9600"/><path d="M1109,607s-23,1-29,21,10,39,10,39,57-29,40-55S1109,607,1109,607Z" style="fill:#3b9600"/><path d="M1156,583s-37-35-14-60,47,35,47,35S1197,584,1156,583Z" style="fill:#3b9600"/><path d="M1594,590s-35-17-34-35,11-38,11-38,38,31,42,43S1611,585,1594,590Z" style="fill:#3b9600"/><path d="M1688,599s-28,20-26,39,22,35,22,35,25-24,27-47S1688,599,1688,599Z" style="fill:#3b9600"/><path d="M2075,529s-24-28-21-43,16-36,16-36,28,23,29,39S2075,529,2075,529Z" style="fill:#3b9600"/><path d="M2171,529s-23,29-16,45,25,25,25,25,21.3-37.34,16.15-61.17S2171,529,2171,529Z" style="fill:#3b9600"/><path d="M2540,419s-38-23-27-43,27-29,27-29,15,13,20,31S2553,414,2540,419Z" style="fill:#3b9600"/><path d="M2765,383s-6,22,8,36,39,14,39,14-1-55-16-62S2765,383,2765,383Z" style="fill:#3b9600"/><path d="M2897,311s-25-21-18-38,22-34,22-34S2955,289,2897,311Z" style="fill:#3b9600"/><path d="M549,399s6-29,21-36,34,0,34,0-6,24-21,30S549,399,549,399Z" style="fill:#3b9600"/><path d="M516,399s-59,6-61,15,4,33,4,33,60.29-26.21,65.65-36.1S516,399,516,399Z" style="fill:#3b9600"/><path d="M358,225s-1-33,15-43,35-6,35-6a100.86,100.86,0,0,1-10,31C390,222,373,229,358,225Z" style="fill:#3b9600"/><path d="M322,206s-44-8-57,0-14,28-14,28,60.91-1.56,73.46-15.78S322,206,322,206Z" style="fill:#3b9600"/><path d="M254,52s10-20,25-25,22,0,22,0,1,48-42,41Z" style="fill:#3b9600"/><path d="M0,423c0-6,521-98,768-423h48S541,340,0,450Z" style="fill:#3b9600"/><g style="clip-path:url(#clip-path-2)"><path d="M0,423s312.22-31.31,681-294l-30,46S416,320,282,384,0,481,0,481V423" style="fill:#328000"/></g><path d="M47,415s-12-53,10-70,42-16,42-16,14,27,11,39-44,42-44,42Z" style="fill:#3b9600"/><path d="M138,410s-5,29,10,38,41,7,41,7,7-26-9-32S138,410,138,410Z" style="fill:#3b9600"/><path d="M292.77,330.57S275,326,285,303s24-34,24-34,15,18,16,31-19,35-19,35Z" style="fill:#3b9600"/><path d="M533,230s14,12,43,18,59-16,59-16-20-25-37-24-44,3-44,3Z" style="fill:#3b9600"/><path d="M680,104s-24-8-29-20,9-42,9-42,26,10,30,18,7,31,7,31Z" style="fill:#3b9600"/><path d="M733,76s31,14,47,13,25-16,25-16-12-31-46-23S733,76,733,76Z" style="fill:#3b9600"/><path d="M2873,1766s-24-42,0-41,9.2,36.27,9.2,36.27S2905,1743,2912,1755s-22,16-22,16h-31s-36-14-24-26S2873,1766,2873,1766Z" style="fill:#ff7230"/><path d="M2581,1898s-40-4-23-18,28,15,28,15-2-19,8-19,6,18,6,18,5-16,16-10-6,14-6,14Z" style="fill:#ff7230"/><path d="M2507,2000s-6-53,50-49c0,0-13-47,21-55s53,7,53,7-6-32,12-29c0,0,13-36,24-21,0,0-8-78,39-67,0,0,50-79,115-19,0,0,91-31,93,23,0,0,16-23,27-9,0,0,25-58,59-36v255Z" style="fill:#4ac200"/><g style="clip-path:url(#clip-path-3)"><path d="M2706,1786s51-25,78-8c0,0,51-4,49,36,0,0,90-12,95,40,0,0,86,60-15,94,0,0-13,66-102,35l-182,17h371V1725l-240,9-83,23,29,29" style="fill:#3b9600"/></g><path d="M2765,1878s-22-35,2-36,6,36,6,36,20-27,35-13-31,17-31,17,38,1,34,17-35-12-35-12,8,26-9,29,0-28,0-28-32,18-37-3S2765,1878,2765,1878Z" style="fill:#ffc861"/><path d="M2925.17,2000s-28.17-16-12.17-23,23,17,23,17,5-24,21-18-8,19-8,19,20.74-8,23.87,5Z" style="fill:#ffc861"/><path d="M0,885H3000v239s-524,107-647,113-433,52-569,72-421,51-541,37-484,34-615-3-348-76-409-148S0,1047,0,1047Z" style="fill:#59e7ff"/><g style="clip-path:url(#clip-path-4)"><path d="M54.81,1075.73S155,1129,187,1144s75,63,100,81,196,68,251,84,209,38,236,37,86,18,86,18l-95,10-137-17-125-33-147-40-92-45-68-52-55-47-86.19-64.27" style="fill:#c4f6ff"/><path d="M951,1357l529-7,214-18,176-26,176-22,271-32,5.06-13S2032,1259,1988,1265s-217,34-280,44-636,20-636,20Z" style="fill:#c4f6ff"/></g><path d="M0,997.38S280,1130,339,1184s471.79,94,519.89,99S1508,1271,1617,1256s593-43,647-50,269-80,346-85,266-39,298-39,92-21.31,92-21.31V885H0Z" style="fill:#44daea"/><path d="M0,960.18s219,34.08,276,75S550,1118,593,1124s608,18,664,10,369,7,393-3,447-44,478-47,295-36,295-36,362-16,398-21,179-32.54,179-32.54V885H0Z" style="fill:#46c9e8"/><path d="M160.25,1722.38c0-7.9-37.24-360,47.4-404s-29.34,431.1-29.34,431.1Z" style="fill:#41a500"/><g style="clip-path:url(#clip-path-5)"><path d="M152,1425s30,123.15,35,150c9,48,15,115,15,115l-17.61-4.18-32.3-67.77L140,1464Z" style="fill:#388f00"/><path d="M215.48,1314.52q-4.47,25.34-7.81,50.83t-5.4,51.22c-.78,9.53-1.35,19.08-1.77,28.63,0,.88,1.1,2,1.65,2.62.15.16,1.56,1.56,1.6.94,1.15-17,2.45-34.09,4.12-51.09s3.64-33.86,6-50.73q2-14.22,4.28-28.38c.13-.79-.94-2.14-1.35-2.77-.13-.2-1.21-1.69-1.29-1.27Z" style="fill:#348400"/></g><path d="M146.71,1697.55S12.41,1315,73.36,1284.5s114,413.05,114,413.05Z" style="fill:#41a500"/><g style="clip-path:url(#clip-path-6)"><path d="M91,1352c3.14,18.59,6.69,37.1,10.82,55.49,1.19,5.28,2.41,10.55,3.76,15.78.68,2.66,4.69,1.54,4.1-1.13-4.11-18.4-8.25-36.77-11.78-55.29q-1.52-8-2.89-16a2.09,2.09,0,0,0-2.56-1.45A2.13,2.13,0,0,0,91,1352Z" style="fill:#41a500"/><path d="M71.07,1270.38c7.2,31.3,15.27,62.36,23.6,93.37s16.82,61.73,25.71,92.45q7.47,25.8,15.3,51.5a6.65,6.65,0,0,0,2.14,2.68c.31.26,1.5,1.12,1.21.12q-13.45-46.11-26.44-92.35-13-46.08-25.27-92.36-6.88-25.89-14.06-51.68a13.24,13.24,0,0,0-1.44-3.1c-.14-.23-1-1.55-.75-.63Z" style="fill:#348400"/><path d="M152.41,1605.32c7,31,13.55,62.09,20.93,93,2.09,8.74,4.17,17.5,6.45,26.2a7,7,0,0,0,1.79,2.57c.11.11,1.49,1.27,1.38.74-6.41-31.13-14.2-62-21.85-92.84-2.14-8.67-4.29-17.33-6.39-26a10.71,10.71,0,0,0-1.51-3.07c-.15-.24-1-1.52-.8-.59Z" style="fill:#348400"/></g><path d="M220.44,1763S200.5,1435.73,293,1442.5,241.19,1763,241.19,1763Z" style="fill:#41a500"/><g style="clip-path:url(#clip-path-7)"><path d="M299.7,1424.31q-9.17,46.5-16.91,93.24-2.12,12.84-4,25.73c-.12.81,1.09,2.09,1.57,2.66.15.19,1.42,1.62,1.52,1,5.44-31,10.6-62,16-93q2.24-12.83,4.52-25.66c.14-.78-1-2.15-1.38-2.76-.13-.2-1.21-1.69-1.3-1.26Z" style="fill:#348400"/><path d="M315.62,1432.73a377.46,377.46,0,0,1-9.15,45.65c-.19.72,1,2.2,1.36,2.77.14.21,1.16,1.7,1.28,1.27a315.27,315.27,0,0,0,9-45.57c.11-.82-.89-2.13-1.3-2.79-.13-.21-1.17-1.69-1.21-1.33Z" style="fill:#348400"/></g><path d="M476.25,1969.53S567.66,1791.22,641,1804.76,476.25,1969.53,476.25,1969.53Z" style="fill:#41a500"/><g style="clip-path:url(#clip-path-8)"><path d="M606,1805s31,3,22,23-80.65,96.5-80.65,96.5L584,1902l75-69,7-28-25-10Z" style="fill:#388f00"/><path d="M529.5,1909.61a570.17,570.17,0,0,1,46.77-45.2q6.93-6,14-11.68c.36-.29-1.52-2.63-1.89-2.33a557.93,557.93,0,0,0-48.06,43.51q-6.39,6.49-12.56,13.22c-.38.42,1.57,2.62,1.7,2.48Z" style="fill:#348400"/></g><path d="M547.35,1978.56s117.36-98.19,196.36-76.74S547.35,1978.56,547.35,1978.56Z" style="fill:#41a500"/><g style="clip-path:url(#clip-path-9)"><path d="M693.07,1926.37a395.81,395.81,0,0,1,74.46-15.45q10.68-1.15,21.41-1.71c.17,0-.55-1.3-.61-1.39-.17-.27-.63-1.14-1-1.12a402.21,402.21,0,0,0-75,11.29q-10.38,2.58-20.62,5.74c-.09,0,1,2.78,1.43,2.64Z" style="fill:#348400"/><path d="M564.33,1971.15a323.45,323.45,0,0,1,68.46-27.35q9.91-2.68,20-4.71s-1-2.63-1.66-2.5a328.85,328.85,0,0,0-69.93,22.83q-9.3,4.26-18.32,9.12c-.24.13,1.19,2.77,1.47,2.61Z" style="fill:#348400"/></g><path d="M426.75,1781.12s-30.83-54.65,0-58.85S445,1781.12,445,1781.12s28-53.25,50.44-35-39.23,43.44-39.23,43.44,46.24-14,51.85,4.2-54.66,8.41-54.66,8.41S424,1792.33,426.75,1781.12Z" style="fill:#ff7230"/><path d="M76.46,1569.62s-33.19-46.47-11.61-49.79S84.76,1563,84.76,1563s6.64-49.79,31.54-43.15-1.66,38.17-23.24,49.79c0,0,48.14-11.62,53.12,6.64s-58.1,8.3-58.1,8.3S74.81,1574.6,76.46,1569.62Z" style="fill:#ff7230"/><path d="M714.24,1407.69s83.22-15,89.46-81.27-20.27-154.76,68.6-192.18,159.43,44.44,171.52,79.91,4.29,69.78-21,87.32-51.07-17.54-67-16-37.42,13.25-42.88,62.37-70.55,166.83-181.65,150.46Z" style="fill:#bfbfbf"/><g style="clip-path:url(#clip-path-10)"><path d="M748.92,1494.32s134.63-39.69,139.81-151.89,107-217.48,155.34-67.31l-8.63,38-34.52,3.45-46.6-22.43-19,19-24.15,76-29.35,62.13-32.14,30.21-50,18.49-66.26,9Z" style="fill:#a1a1a1"/><path d="M782.84,1357.8s72.9-40.93,86.93,91.21L853,1468.11s13.25-109.53-92-90.82Z" style="fill:#5c5c5c"/><g style="clip-path:url(#clip-path-11)"><path d="M748.92,1494.32s134.63-39.69,139.81-151.89,107-217.48,155.34-67.31l-8.63,38-34.52,3.45-46.6-22.43-19,19-24.15,76-29.35,62.13-32.14,30.21-50,18.49-66.26,9Z" style="fill:#424242"/></g><path d="M795.71,1217.08s58.08-28.46,86.14,0,41.71,60,42.88,104.86l-10.52,40.92s-19.49-79.91-63.15-87.7-60.42,34.69-60.42,34.69Z" style="fill:#5c5c5c"/><g style="clip-path:url(#clip-path-12)"><path d="M748.92,1494.32s134.63-39.69,139.81-151.89,107-217.48,155.34-67.31l-8.63,38-34.52,3.45-46.6-22.43-19,19-24.15,76-29.35,62.13-32.14,30.21-50,18.49-66.26,9Z" style="fill:#424242"/></g><path d="M873.67,1126.64S961,1125.08,975.8,1182s-32.75,112.27-32.75,112.27h12.09s46-11.31,62-56.13-13.65-95.12-13.65-95.12l-52.62-21.83-36.64-5.45L888.48,1122Z" style="fill:#5c5c5c"/><g style="clip-path:url(#clip-path-13)"><path d="M748.92,1494.32s134.63-39.69,139.81-151.89,107-217.48,155.34-67.31l-8.63,38-34.52,3.45-46.6-22.43-19,19-24.15,76-29.35,62.13-32.14,30.21-50,18.49-66.26,9Z" style="fill:#424242"/></g></g><path d="M565.72,1017.89S540,888.47,575.08,802.32c0,0,37.42-21.05,45.21-21.05,0,0-52.23,143.84-26.5,207.77Z" style="fill:#368a00"/><g style="clip-path:url(#clip-path-14)"><path d="M591.85,781.47S547,940.27,576.32,1000.68l12.08-13.81-10.36-57,46.61-148.44-1.73-8.63Z" style="fill:#276300"/></g><path d="M664,781.27s24.72-11.16,50.45-8.43L684.61,952.79l-55,5.46-5.07-74.85Z" style="fill:#368a00"/><g style="clip-path:url(#clip-path-15)"><path d="M709.22,764.21s-86.3,124.28-57,188.14l-23.89-2.65-2.22-51.48L667.8,757.31Z" style="fill:#2a6b00"/></g><path d="M755.5,766.44s84.64,5.87,106.08,30L714.4,921.28l-19-6.9Z" style="fill:#2d7300"/><path d="M601.58,803.49s56.13-35.47,72.9-37-34.7,92.38-36.26,141.11,1.56,61.59,1.56,61.59l-57.22,31.42s-10.21-31.42-11-63S601.58,803.49,601.58,803.49Z" style="fill:#2e7500"/><path d="M730.61,1061.54s210.1-108.36,341.08-93.16l-49.9-68.61s-234.66,34.31-300.54,92.39Z" style="fill:#328000"/><g style="clip-path:url(#clip-path-16)"><path d="M736.84,1000.68s167.42-81.12,322.77-62.14l-36.25-38L899.09,928.19,757.45,973.3l-27.52,8.39Z" style="fill:#276300"/></g><path d="M714.24,1007s74.84-62.76,327.82-99.4L1002.69,853S855,858.84,714.24,964.09Z" style="fill:#368a00"/><g style="clip-path:url(#clip-path-17)"><path d="M1028.54,873S780,948.9,729.93,981.69l-1.72-17.26s112.19-53.5,162.25-70.76S994,838.43,994,838.43Z" style="fill:#286600"/></g><path d="M703.77,958.25S926.14,823.79,961.22,828.08s34.46,37,34.46,37l-292,115.77Z" style="fill:#307a00"/><g style="clip-path:url(#clip-path-18)"><path d="M721.1,958.25s124.48-88.75,309.16-100.83l-43.15-25.89-137.42,38.2L714.4,942Z" style="fill:#2a6b00"/></g><polygon points="840.92 790.63 885.28 812.54 728.21 904.02 714.4 898.84 840.92 790.63" style="fill:#368a00"/><path d="M721.3,942s202-107,302.06-93.2c0,0-47.79-71.12-116.24-15.71,0,0-56.36-15.36-65,10.53,0,0-49.5-1.54-42,39.79,0,0-35.87-1.7-41.81,20.68C758.31,904.08,717.85,917.83,721.3,942Z" style="fill:#ffbc21"/><g style="clip-path:url(#clip-path-19)"><path d="M714.4,942S944,784.93,1042.35,838.43l-15.54,19L906,876.41,755.83,931.64l-41.59,20.93Z" style="fill:#ff9421"/></g><path d="M693.86,930.77S662.24,783,609.29,754.08c0,0,61.26-28.89,61.3,33.85,0,0,34,11.28,23.51,31.71,0,0,23.23,17.82-3.2,42.34,0,0,17.16,12.52,7.37,29.6C698.27,891.58,708.89,916.09,693.86,930.77Z" style="fill:#ffbc21"/><g style="clip-path:url(#clip-path-20)"><path d="M612.56,733.14S651,718.56,696.5,904.5l-18.35,4.7L643.63,807.36l-41.42-44.87Z" style="fill:#ff9421"/></g><path d="M709.06,873.67s17.26-111.89,47.28-144.24S721.25,879.5,721.25,879.5Z" style="fill:#4ac200"/><g style="clip-path:url(#clip-path-21)"><path d="M774.81,712.43s-46.6,76-57,153.62H704l20.72-88,15.53-48.33Z" style="fill:#63e810"/></g><path d="M718.67,871.4s90.68-149.77,111-161.85S725.54,888.86,725.54,888.86Z" style="fill:#4ac200"/><g style="clip-path:url(#clip-path-22)"><polygon points="838.67 702.08 732.95 863.61 724.44 861.95 728.77 839.11 821.41 712.43 838.67 702.08" style="fill:#63e810"/></g><path d="M733,869.76S804.67,759.83,837,744.63,736.46,883.4,736.46,883.4Z" style="fill:#4ac200"/><g style="clip-path:url(#clip-path-23)"><path d="M724.76,888.49s107-162.25,139.81-155.35L818,750.41l-69,81.12-27.67,48Z" style="fill:#63e810"/></g><path d="M739.57,874.05s119.67-106.81,157.1-115.78S749.32,883.4,749.32,883.4Z" style="fill:#4ac200"/><g style="clip-path:url(#clip-path-24)"><path d="M746.14,874.88s134-114.12,165-121H885.28L849,776.3,740.29,874.68Z" style="fill:#63e810"/></g><path d="M743.08,883.4s159.43-98.62,204.65-99S743.08,893.15,743.08,893.15Z" style="fill:#4ac200"/><g style="clip-path:url(#clip-path-25)"><polygon points="740.29 888.49 964.87 781.27 905.99 788.38 845.58 817.72 736.65 879.5 740.29 888.49" style="fill:#63e810"/></g><path d="M638.22,1515.67s6.24,47.56,36.65,102.13c0,0-62.37-7.41-71.73,4.68s3.51,12.86,23,12.08,68.61.39,68.61.39-36.65-80.3-26.9-116.16Z" style="fill:#bfbfbf"/><g style="clip-path:url(#clip-path-26)"><path d="M633.28,1521.94s50.05,112.19,67.31,117.37l-24.16-63.86-8.63-57Z" style="fill:#a8a8a8"/></g><path d="M746.59,1507.48s78.35,78.35,85,97.84,71.72,18.33,84.59,21,10.52-13.64-12.09-16.76-55.74-7.79-55.74-7.79-49.12-87.71-87.32-108Z" style="fill:#bfbfbf"/><g style="clip-path:url(#clip-path-27)"><path d="M747.2,1503s38,12.09,98.38,103.57c0,0,75.94,3.45,84.57,20.71l-13.8-20.71-65.59-10.36-38-58.68-25.89-31.07-24.16-15.54Z" style="fill:#a8a8a8"/></g><path d="M668.24,943s31.18-74.69,46-82.95S756,846,762.57,849.88,770,883.79,768.42,890s-64.71,78.35-64.71,78.35Z" style="fill:#ed6e05"/><g style="clip-path:url(#clip-path-28)"><path d="M717.85,857.42s29.35,5.18,32.8,17.26S714.4,942,714.4,942l10.36,6.91,50-58.69-5.71-47.33-44.34,5.91Z" style="fill:#ed4b05"/></g><path d="M490.49,1198.76s-46.39-13.65-72.9-87.32-30.4-124-30.4-124l-10.53,7s9.36,116.94,45.22,173.85,65.88,49.12,65.88,49.12Z" style="fill:#bfbfbf"/><g style="clip-path:url(#clip-path-29)"><path d="M376.1,1036.93s34.52,158.79,110.46,164l-6.9,24.16L452,1214.71l-43.15-50.06L383,1080.08Z" style="fill:#adadad"/></g><path d="M721.25,941.87c-25.47-14.45-98.62-35.47-174.24,89.27s-96.67,279.1-60,378.89,148.13,129,220.24,120.06,93.94-65.88,60-120.06-88.49-140.72-63.54-234.66S776.22,973.06,721.25,941.87Z" style="fill:#ccc"/><g style="clip-path:url(#clip-path-30)"><path d="M538.35,1000.68s139.45-.55,143.08,108.46S621.2,1226.79,652.26,1389s2.73,153.61-29.7,161.38c0,0,164.33,2.59,186.77-37.11s-39.7-179.51-39.7-179.51L714.4,1218.16l32.8-157.07S679.88,959.25,538.35,1000.68Z" style="fill:#b0b0b0"/><path d="M466.32,1312.19s14.42-61.59,69.77-61.59S690.85,1421.34,704.88,1456s-2.73,92.38-80.69,75.62S455.79,1456.81,466.32,1312.19Z" style="fill:#f0f0f0"/><g style="clip-path:url(#clip-path-31)"><path d="M538.35,1000.68s139.45-.55,143.08,108.46S621.2,1226.79,652.26,1389s2.73,153.61-29.7,161.38c0,0,164.33,2.59,186.77-37.11s-39.7-179.51-39.7-179.51L714.4,1218.16l32.8-157.07S679.88,959.25,538.35,1000.68Z" style="fill:#b0b0b0;opacity:0.48"/></g><path d="M550.84,1024.94s60.88-18.75,111.16,0,67.51,62.36,67.51,62.36l13.57-3.89,17.54-73.67L754,954l-44.83-32.75-45.61-2.72-50.67,16.37-41.32,46-28.46,37Z" style="fill:#ffbc21"/><g style="clip-path:url(#clip-path-32)"><path d="M662.62,931.64s44.55,4.5,51.62,32.45-18.89,69.74-63.7,64.21l46.6,25.89L733,1099.28l22.52-67.94,2.4-70.62L725.34,933l-61-15.19Z" style="fill:#ff9421"/></g><ellipse cx="629.57" cy="1070.33" rx="52.99" ry="38.94" transform="translate(-562.19 1419.16) rotate(-75.85)" style="fill:#757575"/><ellipse cx="560.08" cy="1058.52" rx="48.9" ry="33.69" transform="translate(-633.17 1160.12) rotate(-66.98)" style="fill:#757575"/></g><ellipse cx="622.56" cy="1078.34" rx="40.04" ry="29.62" transform="translate(-575.25 1418.41) rotate(-75.85)" style="fill:#fff"/><ellipse cx="624.54" cy="1080.51" rx="8.76" ry="8.73" transform="translate(-575.85 1421.97) rotate(-75.85)"/><ellipse cx="560.3" cy="1064.63" rx="40.04" ry="26.58" transform="translate(-641.23 1125.29) rotate(-65.13)" style="fill:#fff"/><ellipse cx="561.62" cy="1067.02" rx="8.76" ry="7.83" transform="translate(-642.64 1127.88) rotate(-65.13)"/><path d="M561.43,1208.5c-41.78-1.8-75.69-43.38-59.87-82.3s21.28.83,62.6,15.64,85.37-37.42,102.91-32.35S696.7,1214.35,561.43,1208.5Z" style="fill:#782900"/><g style="clip-path:url(#clip-path-33)"><path d="M543.89,1208.89s49.51-41.32,64.71-42.88,38.59,6.24,51.45,26.9C660.05,1192.91,600.41,1226,543.89,1208.89Z" style="fill:#a83800"/><path d="M526.74,1111.44s-.78,38.2,9.35,41.71,20.66-20.66,20.66-20.66Z" style="fill:#fff"/><path d="M605.48,1134.05s9.36,22.22,24.56,16.76,12.86-39.37,12.86-39.37Z" style="fill:#fff"/><path d="M620.29,1206.16s5.85-26.89,14-26.5,23.38,13.25,23.38,13.25S637.44,1208.5,620.29,1206.16Z" style="fill:#fff"/><path d="M504.13,1179.66s19.88-12.09,25.34-5.85,6.62,32.74,6.62,32.74S506.08,1191,504.13,1179.66Z" style="fill:#fff"/><path d="M536.09,1206.55s15.6-11.3,20.66-10.52,14.82,16.76,14.82,16.76S546.23,1216.69,536.09,1206.55Z" style="fill:#fff"/></g><path d="M697.47,1382.75s34.7,17.54,35.87,33.52-5.46,5.85-10.14,2-33.91-19.88-33.91-19.88Z" style="fill:#b8b8b8"/><g style="clip-path:url(#clip-path-34)"><path d="M679.88,1399.39s32.79-10.35,55.23,15.54l-1.72-10.36-24.17-20.71-13.81-5.18-12.08,3.45Z" style="fill:#9c9c9c"/></g><path d="M687,1260.74c-13.71-8.73-29.24-20.66-20.66-35.87s14.42-15.59,39.76,10.92,44.05,43.66,40.54,72.89-57.3,89.66-57.3,89.66-8.19-1.17-6.63-5.85,45.61-63.93,49.51-74.84S729.83,1288,687,1260.74Z" style="fill:#bfbfbf"/><g style="clip-path:url(#clip-path-35)"><path d="M666.07,1225.06s10.36-10.35,36.25,17.26,44.88,51.79,39.7,70.77-19.19,42.77-19.19,42.77L742,1333.8l8.63-20.71v-19L742,1266.49l-51.78-48.33L673,1209.53l-8.63,8.63,1.72,6.9" style="fill:#a6a6a6"/></g><g id="hand"><path d="M341.5,1044.45c8.91-5.52,50.74-36.43,70.93-63.07s38.38-24.76,52.9-27.51,65.46-13.69,72.37-38.29-33.5-35.8-59.3-25.48-32.66,22.77-66,70-55.74,56.37-67.15,60.15-27.59,7.4-25.94,17.87S332.55,1050,341.5,1044.45Z" style="fill:#e68d00"/><g style="clip-path:url(#clip-path-36)"><path d="M537.79,920s8.43-20.7-26.71-24.78-60.82,15.61-79.72,43.74-44.19,76.1-115.58,100.52l5.4-14.55,48.63-23.44,36.73-43.78,28.34-40.4,33.57-30.07,24.92-3.42,27.41,3.73,18.55,10.66,2.52,17.9Z" style="fill:#b86800"/></g><path d="M529.93,921.4c-4.81,6.79-24.87,22.33-51.71,24.82s-32.56-9.67-27.42-20.45S486,894.82,513,898.71,536.12,912.69,529.93,921.4Z" style="fill:#ffb94d"/><g style="clip-path:url(#clip-path-37)"><path d="M499.78,894.69s21.18,7.25-.07,29.4S452,944.78,446.6,937.69s.33,15.49.33,15.49l42.31-.22,36.82-16.56,19.83-31.88L526.32,889Z" style="fill:#ffca78"/></g></g><path d="M393.41,972.79s18.28-8.59,16.07-15.83-8.86-4.72-13.81,1.74-14.75,14.89-14.75,14.89Z" style="fill:#bfbfbf"/><path d="M388.24,968.39c7.36.19,23.26,3.28,23.7,9.58s-29.86,52.85-45.83,18.85C363.7,991.71,376.27,968.09,388.24,968.39Z" style="fill:#ccc"/><g style="clip-path:url(#clip-path-38)"><path d="M391.92,968.07s-34.43,32.46,1.94,38.17l-12.74,6.86L369,1004.46l-6.79-14.29,21.58-24.89,8.09,2.79" style="fill:#999"/></g><path d="M558.86,1012.73s58.88-24.13,115.84,0S735.09,1067,735.09,1067s6.93-2.48,10.38-5.93,3.45-17.26,3.45-19-27.62-41.42-81.12-51.78-100.88,1.58-105.67,5.11S551.75,1011,558.86,1012.73Z" style="fill:#4ac200"/><g style="clip-path:url(#clip-path-39)"><path d="M697.14,995.5s.9,21.9-44.94,13.63c-8.57-1.55,58.75,12.26,88.09,77.85,0,0,36.25-29.34,20.71-50S697.14,995.5,697.14,995.5Z" style="fill:#3da100"/></g><path d="M980,1635s399-19,520,29,15,202-114,205-866.57,72.1-941.79,53S364,1727,493,1669,980,1635,980,1635Z" style="fill:#f7ae19"/><polygon points="979.96 1395.83 1120 1759.13 926.52 1895.04 874.92 1824.47 815.96 1560.49 834.39 1495.15 979.96 1395.83" style="fill:#84847f"/><polygon points="265 1819.25 338.71 1463.78 491.65 1463.78 524.82 1502.99 515.6 1963 265 1819.25" style="fill:#b7b7b7"/><g style="clip-path:url(#clip-path-40)"><path d="M513.42,1499c-.51,20.92-6.67,41.18-9.51,61.82-2.75,20.06-3.59,40.32-6.33,60.38-.73,5.39-1.8,10.73-2.6,16.11-.41,2.72-1.1,5.43-1.75,8.11s-1.26,5.55-2.1,8.27c-.19.63.6,1.82.87,2.36a15.67,15.67,0,0,0,.88,1.54c0,.05.49.63.52.56,1.73-5.07,3.38-10.11,4.65-15.32,1.21-5,2.25-9.91,3.05-15,1.58-10,2.5-20.17,3.41-30.28s1.73-20.18,3-30.23,3.15-20.19,5.11-30.23c1.12-5.69,2.19-11.4,3-17.15a96.28,96.28,0,0,0,.78-17.14,5.85,5.85,0,0,0-1.48-2.71c-.13-.17-1.42-1.62-1.43-1.13Z" style="fill:#e3e3e3"/><path d="M491.55,1657.42c.4,4.3.56,8.61,1,12.91.4,4,.38,8.33,1.67,12.14a8.45,8.45,0,0,0,1.66,2.65c.12.14,1.25,1.38,1.28.86.22-4.16-.66-8.4-1.19-12.5s-1.31-8-1.86-12a7.76,7.76,0,0,0-1.31-2.79c-.14-.22-1.26-1.6-1.24-1.31Z" style="fill:#e3e3e3"/></g><polygon points="845.44 1516.06 926.52 1895.04 590.14 1831.28 578.25 1445.49 845.44 1516.06" style="fill:#b7b7b7"/><g style="clip-path:url(#clip-path-41)"><path d="M805,1877s-22-162-7-188,54,32,66,48,28,30,28,30l35,128Z" style="fill:#ccc"/><path d="M843.14,1514.93c3.69,21.34,8.05,42.55,12.64,63.71,4.55,21,9.42,41.83,14.46,62.67,1.42,5.85,2.92,11.68,4.41,17.51a115.79,115.79,0,0,0,5.18,16.61,7.16,7.16,0,0,0,2.19,2.64c.3.23,1.57,1.07,1.23.07a308.5,308.5,0,0,1-8.24-30.36q-3.66-15.79-7.36-31.58c-4.86-20.81-9.39-41.7-13.73-62.62q-3.64-17.62-7.36-35.23a5.71,5.71,0,0,0-1.73-2.58c-.13-.12-1.8-1.45-1.69-.84Z" style="fill:#e3e3e3"/></g><polygon points="585.63 1463.78 681.44 1848 515.6 1963 493.49 1667.65 519.29 1479.47 585.63 1463.78" style="fill:#84847f"/><polygon points="338.71 1463.78 383 1391 499.02 1346.17 906.25 1346.17 979.96 1395.83 845.44 1516.06 585.63 1482.08 524.82 1502.99 338.71 1463.78" style="fill:#ccc"/><g style="clip-path:url(#clip-path-42)"><path d="M634.76,1494.83q26.37-6.25,52.75-12.48c5.18-1.21,10.36-2.42,15.56-3.59.45-.1-1.1-2.11-1.22-2.26-.42-.47-1.35-1.67-2.09-1.49-17.68,4.29-35.42,8.33-53.14,12.41l-14.9,3.44c-.4.1,1,2.14,1.12,2.29.33.42,1.26,1.84,1.92,1.68Z" style="fill:#ccc"/><path d="M587.75,1485.74c17.35,2.33,34.77,4.15,52.21,5.7s34.62,2.82,51.95,4.11,34.79,2.62,52.15,4.22,34.77,3.54,52.05,6.13c17.1,2.58,34.11,5.78,50.91,9.88,2.45.59,4.88,1.21,7.29,1.93,1.06.32.2-1.06,0-1.35a5.82,5.82,0,0,0-2.76-2c-8.65-2-17.23-4.22-25.93-6q-12.74-2.64-25.59-4.69c-17.33-2.8-34.75-4.91-52.21-6.67s-34.72-3.11-52.1-4.4-35-2.51-52.48-4c-17.31-1.52-34.59-3.28-51.8-5.74l-6.46-1c-.67-.11.5,1.64.59,1.76.42.61,1.35,2.06,2.2,2.17Z" style="fill:#e3e3e3"/><path d="M339.77,1465.18c6.26.76,12.5,1.93,18.72,3s12.58,2.22,18.85,3.48c12.41,2.48,24.71,5.43,37,8.55,24.51,6.23,48.93,12.79,73.66,18.11,13.86,3,27.8,5.59,41.83,7.58,1,.13,1.23-.43.67-1.17a5.22,5.22,0,0,0-3.07-1.76c-24.94-3.58-49.55-9.13-74-15.23-24.69-6.17-49.24-13.06-74.13-18.4-6.87-1.48-13.76-2.8-20.66-4-7.29-1.31-14.66-2.32-21.9-3.86-.73-.16.57,1.7.64,1.79.54.66,1.48,1.84,2.41,2Z" style="fill:#e3e3e3"/><path d="M445.05,1487.87c22.7.68,44.8,7.34,66.67,12.87l9.2,2.31,4.85,1.22a35,35,0,0,1,5.17,1.45c1.12.46,0-1.25-.19-1.48-.53-.7-1.66-2.06-2.64-2.14-2.86-.24-5.78-1.32-8.56-2l-8.2-2.1-16.88-4.29c-11-2.8-22.05-5.56-33.26-7.49-6.27-1.09-12.58-2-18.93-2.48-.22,0,.94,2.17,1,2.32.33.49,1,1.82,1.73,1.84Z" style="fill:#e3e3e3"/></g><path d="M0,2000V1572.28s100.44-94.8,127.53,55.3c0,0,46.27-21.44,60.94,39.5,0,0,73.35-58.69,132,26,0,0,115.11-11.29,67.71,80.12,0,0,134.3-27.08,103.83,68.84,0,0,35-6.77,23.7,32.73,0,0,51.91,36.11,13.54,65.46,0,0,117.37-16.93,111.72,59.81" style="fill:#4ac200"/><g style="clip-path:url(#clip-path-43)"><path d="M0,1584s81-43,73,69c0,0,123,21,123,97,0,0,33.41-31.93,48.71-7.47,0,0,132.29,24.47,79.29,106.47,0,0,77,27,71,76s0,14,0,14-57,61-114,61H667l-16-68-85-7-31-57-11-46-22-44-54.61-28.42L413.05,1763,395,1686l-71-24-70-32-58,8-28-24-30-8-43.06-74.7L27,1532,0,1553Z" style="fill:#3b9600"/></g><path d="M339.69,2000s-28.21-26-7.9-33.86,23.7,28.22,23.7,28.22-6.77-45.14,21.44-36.12-2.25,36.12-2.25,36.12,31.6-19.19,38.37,5.64Z" style="fill:#ffde52"/><path d="M121.88,1799.12s-39.5-33.86-15.8-47.4,26,41.76,26,41.76,9-40.63,30.47-24.83-23.7,30.47-23.7,30.47,30.47-5.64,29.34,20.31-31.6-12.41-31.6-12.41,13.55,42.88-18.05,41.75,6.77-38.37,6.77-38.37-39.5,28.22-50.79-2.25S121.88,1799.12,121.88,1799.12Z" style="fill:#ffde52"/><path d="M871,0s687.09,158.55,1361.55,156.27C2598.71,155,2848.32,109.08,3000,67.33V109c-185.21,40.91-484.77,94.4-787,95C1723,205,998,77,773,0Z" style="fill:#3b9600"/><g style="clip-path:url(#clip-path-44)"><path d="M1189.63,100S1972,181,2228,187s551.34-27.5,551.34-27.5L2669,212l-541.8,6.22L1819,208l-423-49-206.37-59" style="fill:#328000"/><path d="M2335,141h353c77.23,0,204.12-30,312-60.19V49.25L2991,52l-179,48-140,13Z" style="fill:#49ba00"/><path d="M843.09,0s203.56,79.1,523.24,89.05h0L1335,69,1060,22,871,0H843.09" style="fill:#49ba00"/></g><path d="M1487,156s381,101,678,101,679-115.66,679-115.66l28.5,1549.16c-4.5,14.5-285.61,88.3-747.5,59.5-449-28-638-87.14-638-87.14Z" style="fill:#6830cf"/><g style="clip-path:url(#clip-path-45)"><path d="M2450.07,212.5S2431,1651,1519,1694c0,0,245,64,326,77s845-8,845-8l237-65-3-1329L2878,63Z" style="fill:#5a30c1"/></g><path d="M1482.5,102.5s17-37,41-39,68,19,73,19-25,45-42,50-59,4-59,4Z" style="fill:#8c4eff"/><g style="clip-path:url(#clip-path-46)"><path d="M1516,57s35,13,44,30-45.1,49.58-45.1,49.58L1540,145s36-10,40-15,25-48,25-48l-30-13-40-12Z" style="fill:#6f39d4"/></g><path d="M1474.5,92.5s0-48-28-61-76,13-76,13,12,86,106,71Z" style="fill:#8c4eff"/><g style="clip-path:url(#clip-path-47)"><path d="M1377,37s65-4,72,29,8,52-34,47c0,0,17,5.67,31,6.33s37-.33,37-.33V79l-20-46-29-13Z" style="fill:#6f39d4"/></g><path d="M1488.5,159.5c-8.51-.81-40-59-18-69S1530.5,163.5,1488.5,159.5Z" style="fill:#6830cf"/><g style="clip-path:url(#clip-path-48)"><path d="M1467,90s25,16,27,33-.54,34.06-24.27,19.53c0,0,9.27,18.42,17.27,19.94s22.43-.76,22.43-.76L1512,144l-5-23-18.24-29.7L1474,84.19Z" style="fill:#5a30c1"/></g><path d="M1345.5,1136.5s13,353,142,526l31-803S1378,999,1372,1011,1345.5,1136.5,1345.5,1136.5Z" style="fill:#7843db"/><g style="clip-path:url(#clip-path-49)"><path d="M1540,949s-133,112-143,212-22.56,252.46,49,432l-41-22-80-329-3-158,116-160,97-28Z" style="fill:#6f39d4"/></g><path d="M1486.5,159.5s-116,695-141,977c0,0,21.5-189.5,219-235C1610.12,891,1486.5,159.5,1486.5,159.5Z" style="fill:#8c4eff"/><path d="M2784,1044l88,647s1-379,41-475c0,0-8-80-34-101S2784,1044,2784,1044Z" style="fill:#7843db"/><g style="clip-path:url(#clip-path-50)"><path d="M2794.5,1121.16S2845,1164,2849,1216s18.22,439.89,18.22,439.89L2872,1708l13-8,45-492-36-71.34L2764,1068l6,32,24.5,21.16" style="fill:#6f39d4"/></g><path d="M2843,141s-107,810-113,887,174,83,183,188L2852,135Z" style="fill:#8c4eff"/><g style="clip-path:url(#clip-path-51)"><path d="M2764,692s42,34,48,70,15-23,16-42,16-578.66,16-578.66L2818,244Z" style="fill:#8245f5"/></g><path d="M2845,113s-116,399-134,470,98,58,100,168Z" style="fill:#8f61ff"/><path d="M2851.8,102s-.22-37.64,30.15-37.94,45.3-8.36,45.3-8.36-11.85,57-30.33,62.94S2851.52,113.4,2851.8,102Z" style="fill:#8c4eff"/><g style="clip-path:url(#clip-path-52)"><path d="M2887,60s21,9,20,16,3,45-40,43l11,6,23-1,12-8,19-63-13,3Z" style="fill:#6f39d4"/></g><path d="M2845.28,95.88s-40.63-35.14-63.42-25.26-31.12,16.78-31.12,16.78,10,15.51,27.21,20.68,61.21,4.75,61.21,4.75Z" style="fill:#8c4eff"/><g style="clip-path:url(#clip-path-53)"><path d="M2764,75s42,1,48,9,11,28,9,33l18-4,13-23-31-21-23-11Z" style="fill:#6f39d4"/></g><path d="M2837.58,143.67c-16.73-11.27-14.58-57.6,12.7-53.6s7.18,54.34,1.13,57.75S2837.58,143.67,2837.58,143.67Z" style="fill:#6830cf"/><path d="M1096,69s-34,4-46,20-5,41-5,41,44-6,61-21,15-36,15-36Z" style="fill:#3b9600"/><path d="M1263,79s-18-19-13-32,17-19,17-19,13,17,13,30S1263,79,1263,79Z" style="fill:#3b9600"/><path d="M1936,155s-16-35-5-45,55-23,55-23,2,21,0,34S1936,155,1936,155Z" style="fill:#3b9600"/><path d="M2236,187s-14,19-6,31,35,20,35,20,0-33-13-39S2236,187,2236,187Z" style="fill:#3b9600"/></g></g></svg>