<svg xmlns="http://www.w3.org/2000/svg" xmlns:xlink="http://www.w3.org/1999/xlink" viewBox="0 0 684.25 856.99"><defs><clipPath id="clip-path" transform="translate(0 15.98)"><path d="M48.15,65.28S153.59,3.51,239.78.07,384.29,120.83,337.5,177.45C309,211.89,224,220.81,189.55,151.68S130.55,74.93,48.15,65.28Z" style="fill:#35a31a"/></clipPath><clipPath id="clip-path-2" transform="translate(0 15.98)"><path d="M324.48,290.07s12.5-157.34,66.1-161.28c0,0,23.23,3.94,32.16,23.61,0,0-51.81,9.83-85.76,143.57Z" style="fill:#9e660d"/></clipPath><clipPath id="clip-path-3" transform="translate(0 15.98)"><path d="M600.13,282.15c-112.94-78.91-217.27-29.47-254-6.92a26.31,26.31,0,0,1-27.57,0c-36.74-22.55-141.07-72-254,6.92-97.14,67.87-67.2,199.12-23,321.6,40.61,112.42,87.86,219.5,176.12,219.5,61.81,0,88.93-29.57,114.65-29.57,22.77,0,52.84,29.57,114.66,29.57,88.26,0,135.51-107.08,176.11-219.5C667.33,481.27,697.28,350,600.13,282.15Z" style="fill:#e22020"/></clipPath></defs><g style="isolation:isolate"><g id="Layer_2" data-name="Layer 2"><g id="Layer_3" data-name="Layer 3"><path d="M48.15,65.28S153.59,3.51,239.78.07,384.29,120.83,337.5,177.45C309,211.89,224,220.81,189.55,151.68S130.55,74.93,48.15,65.28Z" transform="translate(0 15.98)" style="fill:#35a31a"/><g style="clip-path:url(#clip-path)"><path d="M17.26,76.65s183.4-63.91,249.17-11.11C325.19,112.71,315.09,213.17,255.1,219s66.12,20.11,66.12,20.11L391.48,80.36,261.8-16,161.18,0Z" transform="translate(0 15.98)" style="fill:#428e06"/></g><path d="M137.81,51.75c37.26-4.66,79.86-9.31,112.39,13.67,30.11,21.27,45.19,56.42,60.84,88.44,7.18,14.69,17.12,35.32,36.68,33.67,7.76-.66,8-12.58,0-12.28-15.55.57-23.57-23.21-29.07-34.27-8.54-17.14-17.15-34.36-28.46-49.9-9.84-13.5-21.43-25.67-35.79-34.4C239,47.31,221.5,43.46,203.65,42.55c-22-1.12-45,.13-66.2,6.53-1.4.42-1.22,2.87.36,2.67Z" transform="translate(0 15.98)" style="fill:#327c01"/><path d="M324.48,290.07s12.5-157.34,66.1-161.28c0,0,23.23,3.94,32.16,23.61,0,0-51.81,9.83-85.76,143.57Z" transform="translate(0 15.98)" style="fill:#9e660d"/><g style="clip-path:url(#clip-path-2)"><path d="M435,128.53s-40.75,0-67.62,50.94-41.68,121.35-41.68,121.35l33.35-25,38.9-88L435,157.24Z" transform="translate(0 15.98)" style="fill:#8e5606"/></g><path d="M600.13,282.15c-112.94-78.91-217.27-29.47-254-6.92a26.31,26.31,0,0,1-27.57,0c-36.74-22.55-141.07-72-254,6.92-97.14,67.87-67.2,199.12-23,321.6,40.61,112.42,87.86,219.5,176.12,219.5,61.81,0,88.93-29.57,114.65-29.57,22.77,0,52.84,29.57,114.66,29.57,88.26,0,135.51-107.08,176.11-219.5C667.33,481.27,697.28,350,600.13,282.15Z" transform="translate(0 15.98)" style="fill:#e22020"/><g style="clip-path:url(#clip-path-3)"><path d="M172.41,225.8s78,14.06,106,46.08,63,42.05,95,24.07,158,12.13,188.92,107.15S526.21,754.26,462.18,774C397.37,794,323,780.92,332,793.92s118,47.09,118,47.09l131.24-51s101-356,103-359-45-144-45-144L482.43,204Z" transform="translate(0 15.98)" style="fill:#c10505;opacity:0.46;mix-blend-mode:multiply"/></g><ellipse cx="113.94" cy="364.7" rx="41.9" ry="31.89" transform="translate(-264.88 330.84) rotate(-65.16)" style="fill:#fff;opacity:0.45"/></g></g></g></svg>