<svg xmlns="http://www.w3.org/2000/svg" xmlns:xlink="http://www.w3.org/1999/xlink" viewBox="0 0 749.53 735.35"><defs><clipPath id="clip-path" transform="translate(43.18 12.29)"><path d="M.19,403.41C.19,380,16.3,279,33.87,248.21S69,142.8,71.93,123.77s4.39-86.38,86.38-93.7S272.51,59.35,334,164.76s98.09,284,77.6,326.49-104,188.87-263.54,130.3S.19,403.41.19,403.41Z" style="fill:#37c61a"/></clipPath><clipPath id="clip-path-2" transform="translate(43.18 12.29)"><path d="M143.67,5.18c10.9-7.27,31.13-6.53,35.14,0s21,30.53,10,36.53-47.93,6.14-52.47.07S130.49,14,143.67,5.18Z" style="fill:#c15c00"/></clipPath><clipPath id="clip-path-3" transform="translate(43.18 12.29)"><path d="M246.16,538.1c-7.66-7-48.32-61.49-24.89-99.56s84.91-84.91,168.37-101,153.72-26.35,166.9-29.28,55.64-5.86,83.45,20.5,38.24,69.37,30.84,107.15-52.8,182.73-167,210.55-172.76,7.32-218.14-33.67S262.26,552.74,246.16,538.1Z" style="fill:#83c500"/></clipPath><clipPath id="clip-path-4" transform="translate(43.18 12.29)"><path d="M631.21,353.63c2.93-8.79,5.85-27.82,17.57-26.36s13.17,7.32,17.57,10.25,1.46,21.79,0,25.53,0-3.57-13.18-.64S631.21,353.63,631.21,353.63Z" style="fill:#c15c00"/></clipPath><clipPath id="clip-path-5" transform="translate(43.18 12.29)"><path d="M276.9,524.92c-18.25-19.78-47.28-67.41-14.85-98.85s80.74-57.8,162.72-75.37,156.66-32.21,181.55-14.64,48.31,43.92,43.92,89.31S599,574.7,540.44,601.06s-155.2,42.45-200.58,14.64S294.47,544,276.9,524.92Z" style="fill:#d9ec00"/></clipPath><clipPath id="clip-path-6" transform="translate(43.18 12.29)"><path d="M326.68,476.61c-1.46-17.57-1.46-71.74,64.42-89.31s128.84-11.71,149.34,5.86,38.06,77.59-10.25,133.23-118.63,70.09-171.3,10.25C326.68,500,326.68,476.61,326.68,476.61Z" style="fill:#a05000"/></clipPath></defs><g id="Layer_2" data-name="Layer 2"><g id="avocado"><g id="Layer_4" data-name="Layer 4"><path d="M.19,403.41C.19,380,16.3,279,33.87,248.21S69,142.8,71.93,123.77s4.39-86.38,86.38-93.7S272.51,59.35,334,164.76s98.09,284,77.6,326.49-104,188.87-263.54,130.3S.19,403.41.19,403.41Z" transform="translate(43.18 12.29)" style="fill:#37c61a"/><g style="clip-path:url(#clip-path)"><path d="M61.82,88.71s109-34,147-17,103,149,120,202-148,115-140,202-29,176-232-18l109,191,165,38,134-15,114-151,14.4-193.52L308.82,20.71l-211-33Z" transform="translate(43.18 12.29)" style="fill:#176800;opacity:0.5"/></g><path d="M143.67,5.18c10.9-7.27,31.13-6.53,35.14,0s21,30.53,10,36.53-47.93,6.14-52.47.07S130.49,14,143.67,5.18Z" transform="translate(43.18 12.29)" style="fill:#c15c00"/><g style="clip-path:url(#clip-path-2)"><path d="M138.82,3.71s21-4,31,4,24,43-39,33l12,10,56-4-1-20-27-34Z" transform="translate(43.18 12.29)" style="fill:#a05000"/></g><path d="M221.27,438.54s-13.18,77.6-5.86,109.81,26.35,99.56,70.28,130.3,164,46.85,237.18,0,73.2-76.13,101-111.27,71.74-165.44,29.28-202S221.27,438.54,221.27,438.54Z" transform="translate(43.18 12.29)" style="fill:#1f8e03"/><path d="M246.16,538.1c-7.66-7-48.32-61.49-24.89-99.56s84.91-84.91,168.37-101,153.72-26.35,166.9-29.28,55.64-5.86,83.45,20.5,38.24,69.37,30.84,107.15-52.8,182.73-167,210.55-172.76,7.32-218.14-33.67S262.26,552.74,246.16,538.1Z" transform="translate(43.18 12.29)" style="fill:#83c500"/><g style="clip-path:url(#clip-path-3)"><path d="M226.82,540.71s113,36,227-50,161-164,64-203c0,0,106-25,151,19s51,227,10,280-248,164-328,130S226.82,540.71,226.82,540.71Z" transform="translate(43.18 12.29)" style="fill:#176800;opacity:0.5"/></g><path d="M631.21,353.63c2.93-8.79,5.85-27.82,17.57-26.36s13.17,7.32,17.57,10.25,1.46,21.79,0,25.53,0-3.57-13.18-.64S631.21,353.63,631.21,353.63Z" transform="translate(43.18 12.29)" style="fill:#c15c00"/><g style="clip-path:url(#clip-path-4)"><path d="M636.82,329.71s16-3,22,10-10,24.34-25.5,21.67h0l24.5,7.33,13-3,2-31-22-11Z" transform="translate(43.18 12.29)" style="fill:#a05000"/></g><path d="M276.9,524.92c-18.25-19.78-47.28-67.41-14.85-98.85s80.74-57.8,162.72-75.37,156.66-32.21,181.55-14.64,48.31,43.92,43.92,89.31S599,574.7,540.44,601.06s-155.2,42.45-200.58,14.64S294.47,544,276.9,524.92Z" transform="translate(43.18 12.29)" style="fill:#d9ec00"/><g style="clip-path:url(#clip-path-5)"><path d="M226.82,540.71s113,36,227-50,161-164,64-203c0,0,106-25,151,19s51,227,10,280-248,164-328,130S226.82,540.71,226.82,540.71Z" transform="translate(43.18 12.29)" style="fill:#c7cc00"/></g><path d="M326.68,476.61c-1.46-17.57-1.46-71.74,64.42-89.31s128.84-11.71,149.34,5.86,38.06,77.59-10.25,133.23-118.63,70.09-171.3,10.25C326.68,500,326.68,476.61,326.68,476.61Z" transform="translate(43.18 12.29)" style="fill:#a05000"/><g style="clip-path:url(#clip-path-6)"><path d="M431.82,376.71s56,0,80,28-14,176-183,106l57,70,79,9,61-37,46-87-18-86-110-16Z" transform="translate(43.18 12.29)" style="fill:#894202"/></g><path d="M134.78,163c-.95,1.81-2.4,3.79-2.58,5.84-.16,1.82,2.35,3.35,3.85,2.21,1.66-1.26,2.55-3.42,3.58-5.21a2.81,2.81,0,0,0-4.85-2.84Z" transform="translate(43.18 12.29)" style="fill:#1a8400"/><path d="M195.46,172.53c-.07.5-.15,1-.22,1.51a2.12,2.12,0,0,0,.36,1.68,1.77,1.77,0,0,0,.72.58,2,2,0,0,0,2.28-.84c.27-.41.48-.88.72-1.3a2.12,2.12,0,0,0-1-3,2,2,0,0,0-1.63,0,2,2,0,0,0-1.22,1.37Z" transform="translate(43.18 12.29)" style="fill:#1a8400"/><path d="M118.53,251.63a25.17,25.17,0,0,1-1.64,2.38,8.71,8.71,0,0,0-1.21,2.58c-.57,1.78,2.35,2.59,2.8.77a8.82,8.82,0,0,0,.3-2.84,23,23,0,0,1-.16-2.87,0,0,0,0,0-.09,0Z" transform="translate(43.18 12.29)" style="fill:#1a8400"/><path d="M54.36,317.86c-.41,2-1.32,4.49-.77,6.51a2.7,2.7,0,0,0,4.48,1.18c1.42-1.6,1.71-4,2.26-6a3.16,3.16,0,0,0-2.17-3.81,3.12,3.12,0,0,0-3.8,2.16Z" transform="translate(43.18 12.29)" style="fill:#1a8400"/><path d="M181.16,295.9c-.77,2.27-1.69,6.23.52,8a1.82,1.82,0,0,0,2.8-.36,5.5,5.5,0,0,0,.65-3.31,10.46,10.46,0,0,1,.55-3c.91-2.89-3.56-4.09-4.52-1.25Z" transform="translate(43.18 12.29)" style="fill:#1a8400"/><path d="M247.71,277.53a4.51,4.51,0,0,0-.8,2.18,2.67,2.67,0,0,0,.79,2.19,1.32,1.32,0,0,0,2.17-.57c.07-.17.07-.18,0-.05L250,281a4,4,0,0,0,.25-.79c0-.08,0-.16.07-.23-.07.17-.06.16,0,0s.11-.18,0,0a2.39,2.39,0,0,1,.22-.23,1.82,1.82,0,1,0-2.87-2.21Z" transform="translate(43.18 12.29)" style="fill:#1a8400"/><path d="M124.36,367c-1.46,2.71-3.93,5.44-3.67,8.74a1.65,1.65,0,0,0,3.06.82c1.75-2.87.79-6.39.7-9.53a0,0,0,0,0-.09,0Z" transform="translate(43.18 12.29)" style="fill:#1a8400"/><path d="M67.71,446.14a50.46,50.46,0,0,0,.93,8.24,2.92,2.92,0,0,0,2.08,2.08,3.17,3.17,0,0,0,2.3-.3,2.92,2.92,0,0,0,1.48-2.58,49.21,49.21,0,0,0-1.64-8.13c-.67-2.83-5.39-2.3-5.15.69Z" transform="translate(43.18 12.29)" style="fill:#1a8400"/><path d="M115.55,482.34a20.82,20.82,0,0,0,3.74,7.94c1.43,1.65,4.7-.11,3.81-2.22a72.82,72.82,0,0,1-3-7c-.86-2.89-5.34-1.67-4.52,1.24Z" transform="translate(43.18 12.29)" style="fill:#1a8400"/><path d="M187.47,397.2l0,1.93a4.55,4.55,0,0,0,.44,2,1.14,1.14,0,0,0,2,0,4.55,4.55,0,0,0,.44-2l0-1.93a1.46,1.46,0,0,0-2.91,0Z" transform="translate(43.18 12.29)" style="fill:#1a8400"/><path d="M163.83,387.41l1.36,3a1.74,1.74,0,0,0,3.18-1.33L167.25,386a1.87,1.87,0,1,0-3.42,1.45Z" transform="translate(43.18 12.29)" style="fill:#1a8400"/><path d="M192.93,300.59c.19,2.88.57,6,2.37,8.32a1.93,1.93,0,0,0,1.94.51,2.22,2.22,0,0,0,.48-.2,2,2,0,0,0,1-1.72c-.27-2.36-1.29-4.53-1.56-6.91a2.19,2.19,0,0,0-2.11-2.11,2.12,2.12,0,0,0-2.11,2.11Z" transform="translate(43.18 12.29)" style="fill:#1a8400"/><path d="M190.92,275.78l.28,6a1.08,1.08,0,0,0,2.16,0l.28-6c.08-1.75-2.8-1.76-2.72,0Z" transform="translate(43.18 12.29)" style="fill:#1a8400"/><path d="M202.24,136.35a12.92,12.92,0,0,1,1.29,2.07c.46.85,1.07,1.51,1.56,2.32a2.27,2.27,0,0,0,4.19-1.14,7.59,7.59,0,0,0-.57-4.21,15.56,15.56,0,0,0-2.23-3.28,3,3,0,0,0-4.24,0,3.06,3.06,0,0,0,0,4.24Z" transform="translate(43.18 12.29)" style="fill:#1a8400"/><path d="M290,244.17c.65,3.75,1,7.68,2.48,11.18.84,2,4,.91,3.93-1.06-.11-3.79-1.54-7.55-2.53-11.19-.68-2.55-4.32-1.44-3.88,1.07Z" transform="translate(43.18 12.29)" style="fill:#1a8400"/><path d="M346.4,293.22c0,4.36.07,9.34,2.71,13a1.9,1.9,0,0,0,3.5-.94c.44-4-.64-8-.59-12,.05-3.62-5.61-3.63-5.62,0Z" transform="translate(43.18 12.29)" style="fill:#1a8400"/><path d="M306.74,345.41a26.9,26.9,0,0,0-1,5.49c-.1,2.53,3.49,3.4,4.71,1.27a26.55,26.55,0,0,0,2.06-5.17,3,3,0,0,0-5.79-1.59Z" transform="translate(43.18 12.29)" style="fill:#1a8400"/><path d="M288,138.93c.19,2.82-.19,6.27,1.67,8.57a1.68,1.68,0,0,0,2.38,0c1.86-2.3,1.48-5.75,1.67-8.57.24-3.68-6-3.69-5.72,0Z" transform="translate(43.18 12.29)" style="fill:#1a8400"/><path d="M204.21,58.33,205.1,60a5.38,5.38,0,0,0,1.35,1.58,1.57,1.57,0,0,0,2.64-1.09,5.46,5.46,0,0,0-.11-2.13l-.49-1.86a2.34,2.34,0,1,0-4.28,1.81Z" transform="translate(43.18 12.29)" style="fill:#1a8400"/><path d="M99.41,583.8c3.47,2,7.53,5.26,11.65,5.29a2,2,0,0,0,1.7-3,12.18,12.18,0,0,0-4.55-4.2l-5.63-3.55c-3.42-2.16-6.69,3.42-3.17,5.42Z" transform="translate(43.18 12.29)" style="fill:#1a8400"/><path d="M97.22,544.89a16.65,16.65,0,0,0,3,3.66,12,12,0,0,0,4.32,2.28c2,.64,3.63-2.15,2-3.53-.92-.8-1.66-1.75-2.5-2.63a11,11,0,0,1-1.91-2.67c-1.74-3.24-6.89-.26-4.94,2.89Z" transform="translate(43.18 12.29)" style="fill:#1a8400"/><path d="M178.32,601c2.76,2.65,8.13,6.55,12.18,4.9,2-.8,3.18-3.36,1.34-5.07-1.39-1.29-3.05-1.59-4.73-2.33a13.49,13.49,0,0,1-3.75-2.54c-3.33-3.15-8.35,1.84-5,5Z" transform="translate(43.18 12.29)" style="fill:#1a8400"/><path d="M192.19,556.27l.74.61a1,1,0,0,0,1.68-.7,1.24,1.24,0,0,0-.29-.7l-.61-.73a1.07,1.07,0,0,0-.76-.32,1.09,1.09,0,0,0-.76.32,1.07,1.07,0,0,0-.32.76,1,1,0,0,0,.32.76Z" transform="translate(43.18 12.29)" style="fill:#1a8400"/><path d="M485,680.78l1.18-.64c.43-.24.05-.85-.38-.65l-1.22.56c-.49.22-.06,1,.42.73Z" transform="translate(43.18 12.29)" style="fill:#1a8400"/><path d="M489,679.73a.52.52,0,0,0,0-1,.52.52,0,0,0,0,1Z" transform="translate(43.18 12.29)" style="fill:#1a8400"/><path d="M507,663.5c1.31-.13,2.62-.25,3.93-.4s2.78-.45,3.57-1.72a1.78,1.78,0,0,0-.62-2.38c-1.1-.79-2.54-.48-3.76-.14s-2.41.7-3.61,1c-1.9.55-1.64,3.8.49,3.59Z" transform="translate(43.18 12.29)" style="fill:#1a7201"/><path d="M453.56,680.86l3.11,0a6.49,6.49,0,0,0,3.1-.84,1.61,1.61,0,0,0,0-2.75,6.49,6.49,0,0,0-3.1-.84l-3.11,0c-2.9,0-2.9,4.54,0,4.5Z" transform="translate(43.18 12.29)" style="fill:#1a7201"/><path d="M555.76,645.18l.52-.69a3.59,3.59,0,0,0,.25-.33,2.7,2.7,0,0,0,.26-.63,1.18,1.18,0,0,0-1.44-1.44,3,3,0,0,0-.59.23c-.13.08-.24.19-.36.28l-.7.53a1.55,1.55,0,0,0-.74,1.3,1.58,1.58,0,0,0,.44,1.06,1.56,1.56,0,0,0,1.06.44,1.59,1.59,0,0,0,1.3-.75Z" transform="translate(43.18 12.29)" style="fill:#1a7201"/><path d="M327.25,666.82l1.8.6a.85.85,0,1,0,.45-1.63l-1.8-.6a.85.85,0,0,0-.45,1.63Z" transform="translate(43.18 12.29)" style="fill:#1a7201"/><path d="M287.69,631.84c1.38,2,2.68,4.16,4.21,6.07,1.36,1.7,3.7,4,6.08,2.6s1.2-4.75.07-6.53c-1.27-2-2.8-3.85-4.21-5.74A3.67,3.67,0,0,0,289,627a3.58,3.58,0,0,0-1.28,4.87Z" transform="translate(43.18 12.29)" style="fill:#1a7201"/><path d="M365.82,690.7c2.32,2.72,6.76,6.81,10.54,4.64a3.5,3.5,0,0,0,1.77-3.08c-.12-2.46-1.93-3.77-3.68-5.18.47.38.05,0-.18-.18l-.71-.65a19.63,19.63,0,0,1-1.57-1.72c-1.45-1.77-4.68-1.62-6.17,0a4.48,4.48,0,0,0,0,6.17Z" transform="translate(43.18 12.29)" style="fill:#1a7201"/></g></g></g></svg>