<svg xmlns="http://www.w3.org/2000/svg" xmlns:xlink="http://www.w3.org/1999/xlink" viewBox="0 0 470 805"><defs><clipPath id="clip-path" transform="translate(11)"><path d="M330,272V569c0,77.2-32.8,113-110,113S107,646.2,107,569V272H0V569A220,220,0,0,0,375.56,724.56,218.53,218.53,0,0,0,440,569V272Z" style="fill:#ea2727"/></clipPath></defs><g style="isolation:isolate"><g id="Layer_2" data-name="Layer 2"><g id="Layer_3" data-name="Layer 3"><path d="M330,272V569c0,77.2-32.8,113-110,113S107,646.2,107,569V272H0V569A220,220,0,0,0,375.56,724.56,218.53,218.53,0,0,0,440,569V272Z" transform="translate(11)" style="fill:#ea2727"/><g style="clip-path:url(#clip-path)"><rect y="268" width="130" height="111" style="fill:#ffe1e1;mix-blend-mode:lighten"/><rect x="329" y="268" width="129" height="111" style="fill:#ffe1e1;mix-blend-mode:lighten"/><path d="M80,256V481c0,33-7.21,157.8,85.39,192.9h0L181,564,143,240Z" transform="translate(11)" style="fill:#c10505;opacity:0.46;mix-blend-mode:multiply"/><path d="M408,258V518c0,30,3,168-83,219S122,778,50,724l75,71,143,10,144-75,47-179L440,247Z" transform="translate(11)" style="fill:#c10505;opacity:0.46;mix-blend-mode:multiply"/></g><polygon points="249 0 172 106 281 92 239 182 333 59 216 84 249 0" style="fill:#ffae2c"/><polygon points="410.3 101.85 373 171.91 425.81 162.66 405.46 222.15 451 140.85 394.32 157.37 410.3 101.85" style="fill:#ffae2c"/><polygon points="59.7 101.85 97 171.91 44.19 162.66 64.54 222.15 19 140.85 75.68 157.37 59.7 101.85" style="fill:#ffae2c"/></g></g></g></svg>