<svg width="1000" height="1000" viewBox="0 0 1000 1000" fill="none" xmlns="http://www.w3.org/2000/svg">
<path d="M502.004 538.994L103.266 451.77L520.003 377.006L938.124 451.77L502.004 538.994Z" fill="#7A4900"/>
<path d="M354.941 173.616C348.968 161.216 334.074 156.005 321.674 161.978L247.943 197.491C250.017 183.708 248.113 169.178 241.608 155.673C224.386 119.916 181.437 104.89 145.68 122.112C109.922 139.334 94.8965 182.283 112.119 218.041C118.623 231.545 128.797 242.093 140.867 249.063L71.1807 282.626C58.7806 288.598 53.5697 303.491 59.5416 315.891L98.2635 396.295C103.652 377.137 116.927 360.297 136.267 350.982C172.024 333.76 214.973 348.786 232.195 384.543C249.418 420.301 234.392 463.249 198.634 480.472C179.295 489.786 157.851 489.668 139.513 481.938L191.004 588.837L437.844 469.949C464.662 457.032 475.931 424.821 463.014 398.003L354.941 173.616Z" fill="#5588FB"/>
<mask id="mask0" mask-type="alpha" maskUnits="userSpaceOnUse" x="48" y="114" width="421" height="475">
<path d="M344.129 151.164L247.945 197.491C250.019 183.708 248.115 169.178 241.61 155.673C224.388 119.916 181.439 104.89 145.682 122.112C109.924 139.335 94.8985 182.283 112.121 218.041C118.625 231.545 128.799 242.093 140.869 249.063L48.7307 293.439L98.2656 396.295C103.654 377.137 116.929 360.297 136.269 350.982C172.026 333.76 214.975 348.786 232.197 384.543C249.42 420.301 234.394 463.25 198.636 480.472C179.297 489.787 157.853 489.668 139.515 481.938L191.006 588.837L437.846 469.949C464.664 457.032 475.933 424.821 463.016 398.003L344.129 151.164Z" fill="#5588FB"/>
</mask>
<g mask="url(#mask0)">
<g style="mix-blend-mode:soft-light">
<path d="M178.028 426.851L383.627 96.6456L140.646 -3.03889L-64.9532 165.179L-27.5715 420.62L178.028 426.851Z" fill="#7BA4FF"/>
</g>
<g style="mix-blend-mode:multiply">
<circle cx="402.318" cy="445.542" r="155.757" fill="#5588FB" fill-opacity="0.51"/>
</g>
</g>
<path d="M830.743 248.096L569.271 228.964C557.473 228.1 546.694 235.65 543.473 247.032L445.931 591.677L720.797 687.88L830.743 248.096Z" fill="#13D9C7"/>
<path d="M789.514 694.752L892.17 298.829C893.682 292.998 893.055 286.793 889.702 281.788C886.588 277.14 881.962 271.002 875.824 264.864C863.364 252.404 830.743 248.096 830.743 248.096L720.797 687.881L789.514 694.752Z" fill="#0FC2B1"/>
<mask id="mask1" mask-type="alpha" maskUnits="userSpaceOnUse" x="445" y="228" width="386" height="460">
<path d="M830.743 248.096L569.271 228.964C557.473 228.1 546.694 235.65 543.473 247.032L445.931 591.677L720.797 687.88L830.743 248.096Z" fill="#13D9C7"/>
</mask>
<g mask="url(#mask1)">
<g style="mix-blend-mode:soft-light">
<path d="M508.235 576.378L825.979 190.1L508.235 215.021L421.011 383.239L508.235 576.378Z" fill="#C4C4C4"/>
</g>
<path d="M730.003 301.045L599.264 290.586C593.409 290.117 588.023 293.801 586.335 299.426L574.794 337.898C572.571 345.307 577.564 352.929 585.244 353.851L715.618 369.495C721.751 370.231 727.498 366.362 729.124 360.402L741.03 316.744C743.085 309.212 737.785 301.668 730.003 301.045Z" fill="white" fill-opacity="0.6"/>
<path d="M685.659 465.586L579.061 452.795C574.527 452.251 570.537 455.79 570.537 460.357C570.537 464.043 573.177 467.199 576.804 467.852L682.469 486.872C689.073 488.061 695.143 482.986 695.143 476.276C695.143 470.826 691.07 466.236 685.659 465.586Z" fill="white" fill-opacity="0.6"/>
<path d="M674.147 428.372L591.803 419.724C587.167 419.237 583.183 422.987 583.39 427.644C583.547 431.207 586.153 434.184 589.663 434.812L671.166 449.396C677.868 450.595 683.952 445.269 683.651 438.468C683.418 433.214 679.377 428.921 674.147 428.372Z" fill="white" fill-opacity="0.6"/>
<g style="mix-blend-mode:multiply">
<ellipse cx="452.162" cy="464.232" rx="155.757" ry="161.987" fill="#13D9C7" fill-opacity="0.73"/>
</g>
</g>
<path d="M375.696 576.44C449.874 603.037 531.569 564.464 558.166 490.286C584.763 416.108 546.191 334.413 472.012 307.816C397.834 281.219 316.139 319.791 289.542 393.97C262.945 468.148 301.518 549.843 375.696 576.44Z" fill="#DA334C"/>
<mask id="mask2" mask-type="alpha" maskUnits="userSpaceOnUse" x="281" y="299" width="286" height="286">
<path d="M375.708 576.441C449.887 603.038 531.581 564.465 558.179 490.287C584.776 416.109 546.203 334.414 472.025 307.817C397.846 281.22 316.152 319.792 289.555 393.97C262.958 468.149 301.53 549.844 375.708 576.441Z" fill="#DA334C"/>
</mask>
<g mask="url(#mask2)">
<path d="M309.276 567.916L507.013 270.029L396.626 267.286L255.014 388.955L309.276 567.916Z" fill="#F94F68"/>
</g>
<path d="M475.599 466.186L380.001 484.833C373.988 486.006 368.163 482.082 366.99 476.069C366.607 474.109 366.761 472.081 367.436 470.201L401.064 376.411C403.132 370.644 409.483 367.646 415.25 369.713C417.131 370.387 418.794 371.557 420.065 373.098L482.034 448.241C485.932 452.967 485.26 459.959 480.533 463.857C479.108 465.032 477.412 465.833 475.599 466.186Z" fill="white"/>
<mask id="mask3" mask-type="alpha" maskUnits="userSpaceOnUse" x="366" y="369" width="119" height="117">
<path d="M475.599 466.186L380.001 484.833C373.988 486.005 368.162 482.082 366.989 476.069C366.607 474.108 366.761 472.081 367.435 470.201L401.064 376.411C403.132 370.644 409.483 367.645 415.25 369.713C417.13 370.387 418.793 371.556 420.064 373.097L482.033 448.24C485.931 452.967 485.259 459.958 480.533 463.856C479.108 465.031 477.412 465.832 475.599 466.186Z" fill="white"/>
</mask>
<g mask="url(#mask3)">
<path fill-rule="evenodd" clip-rule="evenodd" d="M474.547 364.539L421.979 490.575L488.446 520.597L474.547 364.539Z" fill="#E6E7F0"/>
</g>
<path d="M133.044 779.326L103.266 451.771L502.004 538.995V943.963L148.472 800.154C139.84 796.642 133.888 788.607 133.044 779.326Z" fill="#FFCE85"/>
<mask id="mask4" mask-type="alpha" maskUnits="userSpaceOnUse" x="103" y="451" width="400" height="493">
<path d="M133.044 779.326L103.266 451.771L502.004 538.995V943.963L148.472 800.154C139.84 796.642 133.888 788.607 133.044 779.326Z" fill="#FFCE85"/>
</mask>
<g mask="url(#mask4)">
<path d="M202.951 869.198L439.702 470.46L59.6547 426.848L53.4244 750.822L202.951 869.198Z" fill="#FFDBA5"/>
</g>
<path d="M938.124 451.771L502.004 538.995V943.963L896.73 824.349C906.645 821.345 913.666 812.521 914.367 802.185L938.124 451.771Z" fill="#F4B14C"/>
<mask id="mask5" mask-type="alpha" maskUnits="userSpaceOnUse" x="502" y="451" width="437" height="493">
<path d="M938.124 451.771L502.004 538.995V943.963L896.73 824.349C906.645 821.345 913.666 812.521 914.367 802.185L938.124 451.771Z" fill="#F4B14C"/>
</mask>
<g mask="url(#mask5)">
<path d="M589.228 993.804L844.67 439.309L470.853 476.691V956.422L589.228 993.804Z" fill="#DE952A" fill-opacity="0.46"/>
</g>
</svg>
