<svg xmlns="http://www.w3.org/2000/svg" xmlns:xlink="http://www.w3.org/1999/xlink" viewBox="0 0 1913.16 1982.35"><defs><clipPath id="clip-path" transform="translate(0 16.35)"><path d="M262.69,539.38s-49-265.54-98.08-340.22c0,0,109-16.6,212.5,66.38,0,0,59.93-141.07,114.42-174.26,0,0,81.73,83,114.42,149.37C606,240.65,638.64,33.19,704,0c0,0,81.73,107.88,87.18,240.65,0,0,76.28-166,130.77-174.26,0,0,59.93,124.47,54.49,232.34,0,0,103.52-99.57,174.35-58.08,0,0-125.32,157.66-103.52,373.42L796.65,672.15,333.52,721.94Z" style="fill:#ffc61f"/></clipPath><clipPath id="clip-path-2" transform="translate(0 16.35)"><path d="M121.3,1037.65S-74.34,752.23,84,610.25c158-141.67,317.35-39.57,317.35-39.57s160-180.12,329-166.78S854.86,550.67,854.86,550.67s253.41-73.38,346.77,146.76-8.89,346.89-75.58,380.25c0,0,249,420.28-48.9,480.32,0,0,17.78,333.55-262.3,366.9s-324.55-73.38-324.55-73.38S148,2091.68,170.2,1618c0,0-177.83-113.41-57.79-240.16,0,0-142.27-86.73-106.7-226.82S121.3,1037.65,121.3,1037.65Z" style="fill:#66ffe6"/></clipPath><clipPath id="clip-path-3" transform="translate(0 16.35)"><path d="M1783.64,1143.23c-21.87-44.1-112.06-271.15-126.53-427.5s-91.66-193.94-142.76-241-227.15-217-193.73-332.2S1543.06,82.83,1620.41,188s73.79,171.85,89.89,443,82.49,363.12,118.65,406.47,91.7,98,59.16,135.65S1805.6,1187.52,1783.64,1143.23Z" style="fill:#ad6200"/></clipPath><clipPath id="clip-path-4" transform="translate(0 16.35)"><path d="M1337.2,185.06c2.39,39,43.81,150.75,144.74,227.24s153.84,42.21,160.08-13.55-63.74-210.85-181.09-262.26S1334.14,134.93,1337.2,185.06Z" style="fill:#e3a545"/></clipPath><clipPath id="clip-path-5" transform="translate(0 16.35)"><path d="M1736,772.71c-26.7-13.35-89.54-32.56-103.1-10.85S1639.09,1008,1761,916.68C1779.39,903,1779.39,794.42,1736,772.71Z" style="fill:#111112"/></clipPath><clipPath id="clip-path-6" transform="translate(0 16.35)"><path d="M280.19,1080.54S585.31,1257,1010.3,1067.93c0,0-81.73,233.22-201.6,283.65s-386.85,50.42-446.79,0S280.19,1080.54,280.19,1080.54Z" style="fill:#003f57"/></clipPath><clipPath id="clip-path-7" transform="translate(0 16.35)"><path d="M367.36,1100.62s43.59,92.63,87.18,109,103.52-81.73,103.52-81.73Z" style="fill:#fff"/></clipPath><clipPath id="clip-path-8" transform="translate(0 16.35)"><path d="M716.07,1127.86s76.29,70.84,125.32,65.39,54.49-109,54.49-109Z" style="fill:#fff"/></clipPath><clipPath id="clip-path-9" transform="translate(0 16.35)"><path d="M405.5,1400.29s54.49-87.17,87.18-98.07S569,1416.64,569,1416.64Z" style="fill:#fff"/></clipPath><clipPath id="clip-path-10" transform="translate(0 16.35)"><path d="M699.73,1405.74s10.9-114.42,54.49-125.31,98.07,92.62,98.07,92.62Z" style="fill:#fff"/></clipPath></defs><g id="Layer_2" data-name="Layer 2"><g id="monster-with-a-spoon-3"><path d="M262.69,539.38s-49-265.54-98.08-340.22c0,0,109-16.6,212.5,66.38,0,0,59.93-141.07,114.42-174.26,0,0,81.73,83,114.42,149.37C606,240.65,638.64,33.19,704,0c0,0,81.73,107.88,87.18,240.65,0,0,76.28-166,130.77-174.26,0,0,59.93,124.47,54.49,232.34,0,0,103.52-99.57,174.35-58.08,0,0-125.32,157.66-103.52,373.42L796.65,672.15,333.52,721.94Z" transform="translate(0 16.35)" style="fill:#ffc61f"/><g style="clip-path:url(#clip-path)"><path d="M220.25,484.93s141.66-21.8,179.8,49c0,0,174.36-201.59,376-163.45S885,523.07,885,523.07s141.67-59.94,190.7-10.9l-5.45,87.18H830.5L803.25,468.58l-179.8-16.34L400.05,615.69,225.7,555.76Z" transform="translate(0 16.35)" style="fill:#f5a300"/><path d="M1184.66,217.94S950.37,354.16,939.47,517.62l114.42,5.45s76.28-218,103.52-256.09S1184.66,217.94,1184.66,217.94Z" transform="translate(0 16.35)" style="fill:#f5a300"/><path d="M917.67,54.49s43.59,207,21.8,277.88c0,0,54.48-38.14,65.38-70.84S955.81,76.28,917.67,54.49Z" transform="translate(0 16.35)" style="fill:#f5b400"/><path d="M699.73-10.9s70.83,234.29,65.38,294.23c0,0,32.69-32.69,38.14-98.08S721.52-5.45,699.73-10.9Z" transform="translate(0 16.35)" style="fill:#f5b400"/><path d="M489.86,80.55s95.45,175.54,95.45,213.68c0,0,38.14-27.25,10.9-125.32S489.86,80.55,489.86,80.55Z" transform="translate(0 16.35)" style="fill:#f5b400"/><path d="M154.87,196.15S356.47,256.09,372.81,316c0,0,26.63-69-38.44-102.62S154.87,196.15,154.87,196.15Z" transform="translate(0 16.35)" style="fill:#f5b400"/><path d="M154.87,196.15s109,87.18,125.32,179.8S236.6,490.38,236.6,490.38Z" transform="translate(0 16.35)" style="fill:#ffe494"/><path d="M372.81,261.53V316S460,103.52,498.13,87.18L460,103.52l-87.18,158" transform="translate(0 16.35)" style="fill:#ffe494"/><path d="M607.1,239.74a192,192,0,0,1-21.79,54.49s49-27.25,49-43.59,38.14-267,92.62-267L683.38-5.45,612.55,141.66Z" transform="translate(0 16.35)" style="fill:#ffe494"/><path d="M939.47,65.38S901.33,32.69,808.7,256.09c0,0-16.34,21.79-43.59,27.24,0,0,27.25-38.14,38.14-87.18S895.88,32.69,939.47,65.38Z" transform="translate(0 16.35)" style="fill:#ffe494"/><path d="M939.47,332.37s87.18-103.53,163.46-109,65.38,21.8,65.38,21.8-54.49-43.59-223.39,103.52C944.92,348.71,923.12,343.26,939.47,332.37Z" transform="translate(0 16.35)" style="fill:#ffe494"/></g><path d="M121.3,1037.65S-74.34,752.23,84,610.25c158-141.67,317.35-39.57,317.35-39.57s160-180.12,329-166.78S854.86,550.67,854.86,550.67s253.41-73.38,346.77,146.76-8.89,346.89-75.58,380.25c0,0,249,420.28-48.9,480.32,0,0,17.78,333.55-262.3,366.9s-324.55-73.38-324.55-73.38S148,2091.68,170.2,1618c0,0-177.83-113.41-57.79-240.16,0,0-142.27-86.73-106.7-226.82S121.3,1037.65,121.3,1037.65Z" transform="translate(0 16.35)" style="fill:#66ffe6"/><g style="clip-path:url(#clip-path-2)"><path d="M78.59,1389.4s305.12,119.87,599.34,87.18,392.3-179.81,370.51-397.75c0,0,305.12-435.89-256.08-457.69,0,0-49-212.49-392.31-5.45,0,0-136.21-109-316-38.14L323.77,457.68,727,361,1010.3,493l212.5,122.73,114,212.5-135.75,267,87.18,316L1201,1596.45l-92.62,158L972.63,1966l-738-33L2.31,1547.41Z" transform="translate(0 16.35)" style="fill:#18dbbb"/></g><g id="hand"><path d="M1166.19,1345.21S1551.48,1356.06,1736,873.1" transform="translate(0 16.35)" style="fill:none;stroke:#111112;stroke-linecap:round;stroke-miterlimit:10;stroke-width:24.400423235209292px"/><path d="M1783.64,1143.23c-21.87-44.1-112.06-271.15-126.53-427.5s-91.66-193.94-142.76-241-227.15-217-193.73-332.2S1543.06,82.83,1620.41,188s73.79,171.85,89.89,443,82.49,363.12,118.65,406.47,91.7,98,59.16,135.65S1805.6,1187.52,1783.64,1143.23Z" transform="translate(0 16.35)" style="fill:#ad6200"/><g style="clip-path:url(#clip-path-3)"><path d="M1309.39,159.83s17.73-103.48,168-32.57,203.87,213.11,209.52,372.19-12.49,413.16,211.72,687.63l14.51-71.44-135.85-214.1L1739.4,635.78l-12.81-231.41-59.33-203.23-90.94-75.44L1457.76,72.59,1357.3,69.11l-54.43,65.13Z" transform="translate(0 16.35)" style="fill:#915200"/></g><path d="M1337.2,185.06c2.39,39,43.81,150.75,144.74,227.24s153.84,42.21,160.08-13.55-63.74-210.85-181.09-262.26S1334.14,134.93,1337.2,185.06Z" transform="translate(0 16.35)" style="fill:#e3a545"/><g style="clip-path:url(#clip-path-4)"><path d="M1523.71,153.28s-102.47-23.61-72.62,117.48,139.13,200.92,178.09,185.92-39.72,61-39.72,61L1421.24,411.85,1315.42,254.48V78.11l116.67-13.56Z" transform="translate(0 16.35)" style="fill:#ffca78"/></g><path d="M1709.07,778.6S1660,713,1681.71,691.31s40.7,0,46.13,32.56,24.42,81.4,24.42,81.4Z" transform="translate(0 16.35)" style="fill:#111112"/><path d="M1736,772.71c-26.7-13.35-89.54-32.56-103.1-10.85S1639.09,1008,1761,916.68C1779.39,903,1779.39,794.42,1736,772.71Z" transform="translate(0 16.35)" style="fill:#111112"/><g style="clip-path:url(#clip-path-5)"><path d="M1723.4,764.53s61.42,181.83-79.67,133l32.56,48.84,59.69-7.94,51.55-38.19L1757.69,770l-34.29-5.47" transform="translate(0 16.35)"/></g></g><circle cx="500.85" cy="836.36" r="177.08" style="fill:#0ec9ab"/><circle cx="773.29" cy="863.61" r="100.8" style="fill:#0ec9ab"/><circle cx="740.59" cy="869.05" r="68.11" style="fill:#fff"/><circle cx="574.41" cy="833.64" r="103.52" style="fill:#fff"/><circle cx="609.83" cy="858.16" r="35.42"/><circle cx="726.97" cy="871.78" r="27.24"/><path d="M280.19,1080.54S585.31,1257,1010.3,1067.93c0,0-81.73,233.22-201.6,283.65s-386.85,50.42-446.79,0S280.19,1080.54,280.19,1080.54Z" transform="translate(0 16.35)" style="fill:#003f57"/><g style="clip-path:url(#clip-path-6)"><path d="M683.38,1122.42S667,1394.85,323.77,1345.81l54.49,43.59,163.46,27.24,245.19-21.79,125.32-59.94L1032.09,1057l-87.17,10.9Z" transform="translate(0 16.35)" style="fill:#002b3b"/><path d="M367.36,1100.62s43.59,92.63,87.18,109,103.52-81.73,103.52-81.73Z" transform="translate(0 16.35)" style="fill:#fff"/><g style="clip-path:url(#clip-path-7)"><path d="M405.5,1171.45s76.28,70.83,114.42-38.14l38.14,16.35-21.79,27.24-38.14,43.59-43.59,5.45L416.4,1198.7Z" transform="translate(0 16.35)" style="fill:#5a70e0;opacity:0.32"/></g><path d="M716.07,1127.86s76.29,70.84,125.32,65.39,54.49-109,54.49-109Z" transform="translate(0 16.35)" style="fill:#fff"/><g style="clip-path:url(#clip-path-8)"><path d="M770.56,1182.35S885,1215,857.74,1100.62h49v38.14l-27.25,49-32.69,16.34-54.48-5.44Z" transform="translate(0 16.35)" style="fill:#5a70e0;opacity:0.32"/></g><path d="M405.5,1400.29s54.49-87.17,87.18-98.07S569,1416.64,569,1416.64Z" transform="translate(0 16.35)" style="fill:#fff"/><g style="clip-path:url(#clip-path-9)"><path d="M405.5,1362.15s109,21.8,119.87,5.45-16.34-76.28-49-70.83l32.69-5.45,49,38.14,10.9,70.83H525.37L405.5,1384Z" transform="translate(0 16.35)" style="fill:#5a70e0;opacity:0.32"/></g><path d="M699.73,1405.74s10.9-114.42,54.49-125.31,98.07,92.62,98.07,92.62Z" transform="translate(0 16.35)" style="fill:#fff"/><g style="clip-path:url(#clip-path-10)"><path d="M683.38,1362.15s109-10.89,114.42-27.24-16.34-54.48-59.93-54.48,38.14-27.25,65.38-10.9,54.49,76.28,54.49,76.28L765.11,1384l-76.28,5.45Z" transform="translate(0 16.35)" style="fill:#5a70e0;opacity:0.32"/></g></g></g></g></svg>