<svg width="1062" height="1031" viewBox="0 0 1062 1031" fill="none" xmlns="http://www.w3.org/2000/svg">
<rect x="12.4428" y="326.464" width="558.888" height="558.888" rx="67.1336" transform="rotate(-15 12.4428 326.464)" fill="#E75F4D"/>
<g filter="url(#filter0_d)">
<rect x="447.716" y="181.819" width="558.888" height="558.888" rx="67.1336" transform="rotate(15 447.716 181.819)" fill="#F6F7FF"/>
</g>
<path d="M598.945 551.943L603.703 534.186C607.102 521.502 612.584 511.189 620.15 503.247C628.073 495.099 640.609 488.338 657.758 482.964C668.646 479.537 676.911 476.314 682.553 473.294C688.271 469.993 692.185 466.661 694.294 463.299C696.686 460.012 698.372 456.537 699.354 452.873C700.864 447.236 699.395 442.008 694.946 437.191C690.779 432.449 684.467 428.946 676.011 426.68C655.436 421.166 629.232 422 597.4 429.18L583.718 365.245C601.637 360.379 620.155 357.788 639.271 357.473C658.464 356.876 678.348 359.334 698.924 364.847C730.21 373.23 752.6 386.631 766.093 405.049C779.586 423.467 783.311 443.951 777.269 466.5C772.889 482.848 765.27 496.062 754.412 506.143C743.554 516.224 727.877 524.56 707.38 531.152C692.864 535.721 682.568 539.76 676.492 543.267C670.698 546.851 666.933 551.884 665.196 558.367L662.364 568.936L598.945 551.943ZM570.694 621.862C574.622 607.205 581.606 598.05 591.648 594.397C601.69 590.743 612.771 590.54 624.891 593.788C636.447 596.884 645.66 602.525 652.53 610.71C659.4 618.895 660.871 630.316 656.944 644.972C653.243 658.784 646.334 667.657 636.217 671.592C626.099 675.527 615.263 675.947 603.706 672.85C591.586 669.603 582.129 663.745 575.335 655.279C568.54 646.812 566.994 635.673 570.694 621.862Z" fill="#55608A"/>
<defs>
<filter id="filter0_d" x="228.625" y="196.89" width="833.376" height="833.376" filterUnits="userSpaceOnUse" color-interpolation-filters="sRGB">
<feFlood flood-opacity="0" result="BackgroundImageFix"/>
<feColorMatrix in="SourceAlpha" type="matrix" values="0 0 0 0 0 0 0 0 0 0 0 0 0 0 0 0 0 0 127 0"/>
<feOffset dy="89.5115"/>
<feGaussianBlur stdDeviation="44.7558"/>
<feColorMatrix type="matrix" values="0 0 0 0 0.1375 0 0 0 0 0.1375 0 0 0 0 0.3 0 0 0 0.12 0"/>
<feBlend mode="normal" in2="BackgroundImageFix" result="effect1_dropShadow"/>
<feBlend mode="normal" in="SourceGraphic" in2="effect1_dropShadow" result="shape"/>
</filter>
</defs>
</svg>
