<svg xmlns="http://www.w3.org/2000/svg" xmlns:xlink="http://www.w3.org/1999/xlink" viewBox="0 0 989.7 1223.06"><defs><clipPath id="clip-path" transform="translate(13.7 5.13)"><path d="M396.74,689.69s10.77,70.76,9.23,84.61-43.31-22.16-80.88.45,41.28,78,116.26,18c7.69-6.16-10.67-46.59-16.87-92.52Z" style="fill:none"/></clipPath><clipPath id="clip-path-2" transform="translate(13.7 5.13)"><path d="M506,694.3s7.69,78.46,0,86.15-66.15,6.15-63.07,50.76S547.5,802,552.11,794.29s-18.46-61.53-18.46-118.44Z" style="fill:none"/></clipPath><clipPath id="clip-path-3" transform="translate(13.7 5.13)"><path d="M400.59,342.8s-52.3-43.07-40-109.22L383.67,229s-17.1,66.91,47.21,113.83c0,0-3.37,3.85-15.68,3.85S400.59,342.8,400.59,342.8Z" style="fill:none"/></clipPath><clipPath id="clip-path-4" transform="translate(13.7 5.13)"><circle cx="365.21" cy="201.28" r="53.07" style="fill:none"/></clipPath><clipPath id="clip-path-5" transform="translate(13.7 5.13)"><path d="M93.06,413.3C99.94,396,126.9,307.53,127.5,248.1s28.55-76,46.36-95.33,78.94-88.9,62.75-131.34S150.85,5.82,124.94,47.9,102.45,115,104.8,217.78,85,357.32,72.68,374.8s-31.55,39.81-18.1,53S86.15,430.69,93.06,413.3Z" style="fill:none"/></clipPath><clipPath id="clip-path-6" transform="translate(13.7 5.13)"><path d="M231.68,38c.31,14.78-11.84,58.23-47.53,90.22s-56.72,20.7-60.81-.14S140.83,46.55,183.5,23.51,231.28,19,231.68,38Z" style="fill:none"/></clipPath><clipPath id="clip-path-7" transform="translate(13.7 5.13)"><path d="M99.52,272c9.66-5.86,32.76-15.06,38.56-7.3s5.3,93-43.54,62.39C87.19,322.53,83.82,281.59,99.52,272Z" style="fill:none"/></clipPath><clipPath id="clip-path-8" transform="translate(13.7 5.13)"><path d="M295.26,645.85c-48.12-56.92-52.13-253.82,60.15-303s286.05-29.23,306.1,116.91S594.68,710.46,486.41,712C381.12,713.49,343.38,702.77,295.26,645.85Z" style="fill:none"/></clipPath><clipPath id="clip-path-9" transform="translate(13.7 5.13)"><path d="M528.27,342.8s52.3-43.07,40-109.22L545.19,229S562.28,295.88,498,342.8c0,0,3.38,3.85,15.68,3.85S528.27,342.8,528.27,342.8Z" style="fill:none"/></clipPath><clipPath id="clip-path-10" transform="translate(13.7 5.13)"><circle cx="563.65" cy="201.28" r="53.07" style="fill:none"/></clipPath><clipPath id="clip-path-11" transform="translate(13.7 5.13)"><path d="M350.59,420.49s64.61,55.38,224.6,9.23c0,0-26.82,141.57-156.91,126.14C327.52,545.09,350.59,420.49,350.59,420.49Z" style="fill:none"/></clipPath><clipPath id="clip-path-12" transform="translate(13.7 5.13)"><path d="M370.59,545.09s26.15-29.23,36.92-29.23S430.59,562,430.59,562,379.82,560.47,370.59,545.09Z" style="fill:none"/></clipPath><clipPath id="clip-path-13" transform="translate(13.7 5.13)"><path d="M487.5,554.32s-7.69-36.92,3.08-44.61,49.22,15.38,49.22,15.38S509,555.86,487.5,554.32Z" style="fill:none"/></clipPath><clipPath id="clip-path-14" transform="translate(13.7 5.13)"><polygon points="130 632.92 28.48 866.87 0.3 1095.25 315.3 1164.72 624.3 1180.92 862.3 1026.93 708 609.92 416.48 599.41 130 632.92" style="fill:none"/></clipPath><clipPath id="clip-path-15" transform="translate(13.7 5.13)"><polygon points="63.48 683.93 363.3 822 315.3 1164.72 -13.7 1106.82 14.3 867.15 63.48 683.93" style="fill:none"/></clipPath><clipPath id="clip-path-16" transform="translate(13.7 5.13)"><polygon points="750.98 714.61 591.3 855.57 624.3 1180.92 862.3 1026.93 750.98 714.61" style="fill:none"/></clipPath></defs><g id="Layer_2" data-name="Layer 2"><g id="monster-with-a-stone-table"><g id="b0705d91-9400-4379-9eae-dcc8d405748d"><g id="e6c6ec87-3350-4657-bf6f-d61163e39083"><path d="M396.74,689.69s10.77,70.76,9.23,84.61-43.31-22.16-80.88.45,41.28,78,116.26,18c7.69-6.16-10.67-46.59-16.87-92.52Z" transform="translate(13.7 5.13)" style="fill:#6a89ff"/><g style="clip-path:url(#clip-path)"><path d="M430.59,718.92s1,52.72-1.82,62.51-41.26,26.71-67.41,11.33-50.76-6.16-52.3,0,27.69,27.69,27.69,27.69l39,5.79,41-5.79,30.44-19.09,6.17-17.52Z" transform="translate(13.7 5.13)" style="fill:#426aff"/></g><path d="M506,694.3s7.69,78.46,0,86.15-66.15,6.15-63.07,50.76S547.5,802,552.11,794.29s-18.46-61.53-18.46-118.44Z" transform="translate(13.7 5.13)" style="fill:#6a89ff"/><g style="clip-path:url(#clip-path-2)"><path d="M439.81,812.75S453.66,828.14,469,826.6c12-1.2,66.15-26.15,70.76-33.84s-6.15-61.54,4.62-69.23,20,53.84,20,53.84l-9.23,33.85-64.26,35.26s-17.27,7.81-32.66,4.73S436.74,831.21,439.81,812.75Z" transform="translate(13.7 5.13)" style="fill:#426aff"/></g><path d="M400.59,342.8s-52.3-43.07-40-109.22L383.67,229s-17.1,66.91,47.21,113.83c0,0-3.37,3.85-15.68,3.85S400.59,342.8,400.59,342.8Z" transform="translate(13.7 5.13)" style="fill:#6a89ff"/><g style="clip-path:url(#clip-path-3)"><path d="M352.13,260.5s13.85,3.08,20,10.77,10.77,50.76,38.46,60,1.54-21.53,1.54-21.53-18.46-18.46-21.54-41.54S379.15,232,379.15,232l-34.71,13.1Z" transform="translate(13.7 5.13)" style="fill:#426aff"/></g><circle cx="378.91" cy="206.41" r="53.07" style="fill:#6989ff"/><g style="clip-path:url(#clip-path-4)"><path d="M316.75,162s55.38-9.23,78.45,15.38-18.46,92.3-72.3,60h0l12.31,16.92,18.46,6.15,41.53-6.15,20-23.08L426,205.12l-7.69-36.92-27.72-27.69L352.13,142Z" transform="translate(13.7 5.13)" style="fill:#426aff"/></g><g id="b72b2756-0753-4797-9ad1-f3e6ae3c247e"><path d="M312.88,466.5S187.25,486.37,102.64,309.92" transform="translate(13.7 5.13)" style="fill:none;stroke:#3d3c3f;stroke-miterlimit:10;stroke-width:9px"/><path d="M93.06,413.3C99.94,396,126.9,307.53,127.5,248.1s28.55-76,46.36-95.33,78.94-88.9,62.75-131.34S150.85,5.82,124.94,47.9,102.45,115,104.8,217.78,85,357.32,72.68,374.8s-31.55,39.81-18.1,53S86.15,430.69,93.06,413.3Z" transform="translate(13.7 5.13)" style="fill:#e68d00"/><g style="clip-path:url(#clip-path-5)"><path d="M241.39,27.6S231.48-10.88,177,20.54s-70.28,86.72-67.47,146.91,17.55,155.46-58.53,266l-7.7-26.49,44.59-85,6-101.43-2.36-87.68,16.15-78.5,32-31.29,43-23.72L220.5-5.13l22.55,22.87Z" transform="translate(13.7 5.13)" style="fill:#b86800"/></g><path d="M231.68,38c.31,14.78-11.84,58.23-47.53,90.22s-56.72,20.7-60.81-.14S140.83,46.55,183.5,23.51,231.28,19,231.68,38Z" transform="translate(13.7 5.13)" style="fill:#ffb94d"/><g style="clip-path:url(#clip-path-6)"><path d="M160.34,31.79s37.92-12.09,31,42.06S145.15,154,130,149.52s16.88,21.77,16.88,21.77L207,126.14l35-62.65L236.57-3,192.14-4.53Z" transform="translate(13.7 5.13)" style="fill:#ffca78"/></g><path d="M109.85,273.43s16.47-26.26,7.61-33.77-15.35,1.26-16.39,13.71-6.68,31.47-6.68,31.47Z" transform="translate(13.7 5.13)" style="fill:#3d3c3f"/><path d="M99.52,272c9.66-5.86,32.76-15.06,38.56-7.3s5.3,93-43.54,62.39C87.19,322.53,83.82,281.59,99.52,272Z" transform="translate(13.7 5.13)" style="fill:#3d3c3f"/><g style="clip-path:url(#clip-path-7)"><path d="M104,268.57s-17.51,70.5,34.19,47.69L127.43,335.7l-22.77-1.14L84,321.76l7.21-50.06L104,268.57" transform="translate(13.7 5.13)" style="fill:#252526"/></g></g><path d="M295.26,645.85c-48.12-56.92-52.13-253.82,60.15-303s286.05-29.23,306.1,116.91S594.68,710.46,486.41,712C381.12,713.49,343.38,702.77,295.26,645.85Z" transform="translate(13.7 5.13)" style="fill:#6989ff"/><g style="clip-path:url(#clip-path-8)"><path d="M418.28,315.88S569,319,606,420.49c18.85,51.82-7.9,341.39-300,255.36l52.74,36.28s79.56,23.71,121.09,20.63,140.44-52,157.9-63.69,35.93-80.91,40.54-104,10.77-98.45,4.62-130.76-40-93.84-76.92-100-134.74-27.9-134.74-27.9Z" transform="translate(13.7 5.13)" style="fill:#426aff"/><path d="M489,654.31c2.84-5.67,7.69-23.08,16.92-21.54s15.39,10.77,9.23,16.92S486,660.46,489,654.31Z" transform="translate(13.7 5.13)" style="fill:#426aff"/><path d="M529,631.23c-.68-3.37,9.23-9.23,12.3-7.69S530.58,638.93,529,631.23Z" transform="translate(13.7 5.13)" style="fill:#426aff"/><path d="M590.57,526.63c0-4.87,0-15.38,4.61-15.38s0,15.38-1.53,20S590.57,529.71,590.57,526.63Z" transform="translate(13.7 5.13)" style="fill:#426aff"/><path d="M596.72,500.48c-2.06-.69,0-16.92,4.62-12.31S601.34,502,596.72,500.48Z" transform="translate(13.7 5.13)" style="fill:#426aff"/><path d="M467.5,677.38c-5.5-2.75-7.69-10.76,1.54-12.3s13.85,3.07,12.31,7.69S470.58,678.92,467.5,677.38Z" transform="translate(13.7 5.13)" style="fill:#426aff"/><path d="M473.66,655.85c-2.07-.69,3.07-6.16,6.15-4.62S478.27,657.39,473.66,655.85Z" transform="translate(13.7 5.13)" style="fill:#426aff"/></g><path d="M633.64,474.33S729.47,548,724.4,586.62c-10,76.15-90,36.15-90,36.15" transform="translate(13.7 5.13)" style="fill:none;stroke:#3d3c3f;stroke-miterlimit:10;stroke-width:9px"/><path d="M528.27,342.8s52.3-43.07,40-109.22L545.19,229S562.28,295.88,498,342.8c0,0,3.38,3.85,15.68,3.85S528.27,342.8,528.27,342.8Z" transform="translate(13.7 5.13)" style="fill:#6a89ff"/><g style="clip-path:url(#clip-path-9)"><path d="M542.88,254.35s10.77,15.38,16.92,21.54-20.15,55.34-20.15,55.34l24.77-21.5,15.38-64.61L542.88,239Z" transform="translate(13.7 5.13)" style="fill:#426aff"/></g><circle cx="577.35" cy="206.41" r="53.07" style="fill:#6989ff"/><g style="clip-path:url(#clip-path-10)"><path d="M530,160.2s49.76-13.53,62.07,23.39-13.85,81.53-69.23,56.91l15.39,13.85,21.11,7.42,23.5-1.27,21.51-13.67,18.48-29.4,1.54-30.77-13.84-33.84-40-13.84-36.92,9.23-3.61,12" transform="translate(13.7 5.13)" style="fill:#426aff"/></g><path d="M350.59,420.49s64.61,55.38,224.6,9.23c0,0-26.82,141.57-156.91,126.14C327.52,545.09,350.59,420.49,350.59,420.49Z" transform="translate(13.7 5.13)" style="fill:#2e5aff"/><g style="clip-path:url(#clip-path-11)"><path d="M478.27,439S467.5,552.78,347.52,520.48c0,0,15.38,41.53,76.91,46.15s92.3-21.54,115.37-41.54,49.23-93.84,47.69-104.6S478.27,439,478.27,439Z" transform="translate(13.7 5.13)" style="fill:#1b49f5"/><path d="M373.67,429.72s13.84,40,24.61,40S427.51,442,427.51,442Z" transform="translate(13.7 5.13)" style="fill:#fff"/><path d="M495.19,440.48S509,465.1,522.88,466.64s15.39-33.85,15.39-33.85Z" transform="translate(13.7 5.13)" style="fill:#fff"/><path d="M370.59,545.09s26.15-29.23,36.92-29.23S430.59,562,430.59,562,379.82,560.47,370.59,545.09Z" transform="translate(13.7 5.13)" style="fill:#fff"/><g style="clip-path:url(#clip-path-12)"><path d="M379.82,532.78s24.61,18.46,50.77,16.92L433.66,562l-26.12-2.15-27.72-11.69L369.05,537.4Z" transform="translate(13.7 5.13)" style="fill:#dee4ff"/></g><path d="M487.5,554.32s-7.69-36.92,3.08-44.61,49.22,15.38,49.22,15.38S509,555.86,487.5,554.32Z" transform="translate(13.7 5.13)" style="fill:#fff"/><g style="clip-path:url(#clip-path-13)"><path d="M527.5,512.78S496.73,540.47,481.35,542l1.54,12.31,20-7.69L526,529.71l9.23-12.31Z" transform="translate(13.7 5.13)" style="fill:#dee4ff"/></g></g><ellipse cx="573.51" cy="201.79" rx="35.38" ry="34.61" style="fill:#fff"/><ellipse cx="378.14" cy="201.79" rx="35.38" ry="34.61" style="fill:#fff"/><ellipse cx="378.14" cy="191.46" rx="7.69" ry="11.11" style="fill:#3d3c3f"/><ellipse cx="575.05" cy="186.92" rx="7.69" ry="11.11" style="fill:#3d3c3f"/><g id="a4878bea-3b42-4880-90d1-cb8c11bc65d5"><polyline points="831.7 927.06 989.7 1058.06 647.7 1223.06 295.7 1186.06 13.7 1102.06 77.7 1009.06 831.7 927.06" style="fill:#ab570a"/></g><polygon points="143.7 638.06 42.18 872 14 1100.38 329 1169.85 638 1186.06 876 1032.06 721.7 615.06 430.18 604.54 143.7 638.06" style="fill:#ffbd63"/><g style="clip-path:url(#clip-path-14)"><polygon points="77.18 689.06 377 827.13 329 1169.85 0 1111.95 28 872.28 77.18 689.06" style="fill:#e98428"/><g style="clip-path:url(#clip-path-15)"><polygon points="14 1100.38 94.18 898.63 275.18 906.73 383.18 829.16 329 1169.85 14 1100.38" style="fill:#c9670e"/></g><polygon points="605 860.71 377 827.13 329 1169.85 638 1186.06 605 860.71" style="fill:#e98428"/><polygon points="764.68 719.74 605 860.71 638 1186.06 876 1032.06 764.68 719.74" style="fill:#e27013"/><g style="clip-path:url(#clip-path-16)"><polygon points="773.18 909.05 759.18 1068.83 747.18 1039.88 751.18 1086.2 737.18 1101.25 730.18 1088.51 708.33 1156.7 893.18 1025.99 826.18 875.47 773.18 909.05" style="fill:#c9670e"/></g></g></g></g></g></g></svg>