<svg xmlns="http://www.w3.org/2000/svg" xmlns:xlink="http://www.w3.org/1999/xlink" viewBox="0 0 698.7 810.22"><defs><clipPath id="clip-path" transform="translate(0 5.13)"><path d="M651,392.43c-8.06-16.25-41.3-99.93-46.63-157.56s-33.78-71.48-52.62-88.81S468,66.1,480.31,23.63s82-22,110.49,16.74,27.2,63.34,33.13,163.26,30.4,133.83,43.73,149.81,33.8,36.11,21.81,50S659.06,408.76,651,392.43Z" style="fill:#e68d00"/></clipPath><clipPath id="clip-path-2" transform="translate(0 5.13)"><path d="M486.42,39.29c.88,14.37,16.15,55.56,53.35,83.75s56.7,15.56,59-5S575.27,40.34,532,21.39,485.3,20.81,486.42,39.29Z" style="fill:#ffb94d"/></clipPath><clipPath id="clip-path-3" transform="translate(0 5.13)"><path d="M633.4,255.87c-9.84-4.92-33-12-38-4s2.29,90.71,47.23,57.07C649.4,303.87,649.4,263.87,633.4,255.87Z" style="fill:#3d3c3f"/></clipPath><clipPath id="clip-path-4" transform="translate(0 5.13)"><path d="M453.93,396.15c-12-67-116.75-182-185-182-62.89,0-163.19,120.53-181,186-15.4,56.58,54.52,263.27,78,287s172.78,20.3,194.77-12.34S460.25,431.44,453.93,396.15Zm-81,109.22c-6.41,11.08-56.45,45.9-111,47-39.06.79-80.36-24.76-110-47-12-9-18-95-18-95s136,65,267,0C400.9,410.37,383.9,486.37,372.9,505.37Z" style="fill:#439eff"/></clipPath><clipPath id="clip-path-5" transform="translate(0 5.13)"><path d="M92.9,409.37c-15,3-50-50.57-87-70-29.5-15.5,57.83-54.63,125.5-136.5,55.1-66.68,90.7-169.28,149.5-180.5C349.8,9.22,397,137.76,449.4,226.87c47.22,80.3,134,123,105.5,129.5-29.26,6.68-97,74-110,54s-107-156-175-155S128.05,402.34,92.9,409.37Z" style="fill:#3e3c3f"/></clipPath></defs><g id="Layer_2" data-name="Layer 2"><g id="pirate"><polygon points="138.93 527.28 106.92 400.28 165.93 400.28 284.96 423.59 392.93 400.28 412.93 413.28 406.93 470.28 383.93 533.28 310.93 561.28 215.93 569.28 138.93 527.28" style="fill:#3b100f"/><g id="legs"><path d="M212.25,787.25c3.08-9.24-42.62-24.35-56,0S207.38,801.87,212.25,787.25Z" transform="translate(0 5.13)" style="fill:#3d3c3f"/><line x1="207.91" y1="793.51" x2="214.06" y2="699.15" style="fill:none;stroke:#3d3c3f;stroke-miterlimit:10;stroke-width:9px"/><path d="M306.65,790.25c-3.08-9.24,42.62-24.35,56,0S311.52,804.87,306.65,790.25Z" transform="translate(0 5.13)" style="fill:#3d3c3f"/><line x1="310.99" y1="793.51" x2="304.84" y2="699.15" style="fill:none;stroke:#3d3c3f;stroke-miterlimit:10;stroke-width:9px"/></g><path d="M113.4,466.87s-100,58-105,108,177,48,177,48" transform="translate(0 5.13)" style="fill:none;stroke:#3d3c3f;stroke-miterlimit:10;stroke-width:9px"/><g id="hand"><path d="M423.43,466.65s142,4.22,210-173.78" transform="translate(0 5.13)" style="fill:none;stroke:#3d3c3f;stroke-miterlimit:10;stroke-width:9px"/><path d="M651,392.43c-8.06-16.25-41.3-99.93-46.63-157.56s-33.78-71.48-52.62-88.81S468,66.1,480.31,23.63s82-22,110.49,16.74,27.2,63.34,33.13,163.26,30.4,133.83,43.73,149.81,33.8,36.11,21.81,50S659.06,408.76,651,392.43Z" transform="translate(0 5.13)" style="fill:#e68d00"/><g style="clip-path:url(#clip-path)"><path d="M476.18,30s6.53-38.14,61.92-12,75.14,78.54,77.22,137.17-4.6,152.27,78,253.43l5.35-26.33-50.07-78.91-14-97.94-4.72-85.29-21.87-74.9L574.55,17.41,530.86-2.16l-37-1.28-20.06,24Z" transform="translate(0 5.13)" style="fill:#b86800"/></g><path d="M486.42,39.29c.88,14.37,16.15,55.56,53.35,83.75s56.7,15.56,59-5S575.27,40.34,532,21.39,485.3,20.81,486.42,39.29Z" transform="translate(0 5.13)" style="fill:#ffb94d"/><g style="clip-path:url(#clip-path-2)"><path d="M555.16,27.58S517.4,18.87,528.4,70.87s51.28,74,65.64,68.53-14.64,22.47-14.64,22.47l-62-39-39-58v-65l43-5Z" transform="translate(0 5.13)" style="fill:#ffca78"/></g><path d="M623.48,258s-18.08-24.17-10.08-32.17,15,0,17,12,9,30,9,30Z" transform="translate(0 5.13)" style="fill:#3d3c3f"/><path d="M633.4,255.87c-9.84-4.92-33-12-38-4s2.29,90.71,47.23,57.07C649.4,303.87,649.4,263.87,633.4,255.87Z" transform="translate(0 5.13)" style="fill:#3d3c3f"/><g style="clip-path:url(#clip-path-3)"><path d="M628.76,252.86s22.64,67-29.36,49l12,18,22-2.92,19-14.08-11-48-12.64-2" transform="translate(0 5.13)" style="fill:#252526"/></g></g><g id="mouth"><path d="M195.9,538.37s24-28,69-27,72,27,72,27S263.9,579.37,195.9,538.37Z" transform="translate(0 5.13)" style="fill:#e8282c"/><polygon points="149.9 415.5 161.9 464.5 195.9 428.5 149.9 415.5" style="fill:#fff"/><polygon points="209.9 431.5 227.9 471.5 257.9 435.5 209.9 431.5" style="fill:#fff"/><polygon points="280.9 440.5 303.9 471.5 325.9 433.5 280.9 440.5" style="fill:#fff"/><polygon points="336.9 431.5 370.9 457.5 383.9 419.5 336.9 431.5" style="fill:#fff"/><path d="M453.93,396.15c-12-67-116.75-182-185-182-62.89,0-163.19,120.53-181,186-15.4,56.58,54.52,263.27,78,287s172.78,20.3,194.77-12.34S460.25,431.44,453.93,396.15Zm-81,109.22c-6.41,11.08-56.45,45.9-111,47-39.06.79-80.36-24.76-110-47-12-9-18-95-18-95s136,65,267,0C400.9,410.37,383.9,486.37,372.9,505.37Z" transform="translate(0 5.13)" style="fill:#439eff"/><g style="clip-path:url(#clip-path-4)"><path d="M80.4,425.87s62-23,105-89,110-70,145-21-59.49,303.08-85,316c-83.47,42.28-110,23-110,23l7.53,71.28,239-7L464.4,398.87,422.93,235.15l-138-48-193,48Z" transform="translate(0 5.13)" style="fill:#1082e8"/><path d="M123.4,591.87c-4-12,2-45,11-34s26,38,30,57-25,28-30,21S123.4,591.87,123.4,591.87Z" transform="translate(0 5.13)" style="fill:#6bb3ff"/><path d="M426.05,515.1c-1.65-7.23-19.65-13.23-25.65-3.23s-15,43-9,48,23,4,28-2,6.65-42.77,6.65-42.77" transform="translate(0 5.13)" style="fill:#0072d9"/><path d="M348.4,288.87c-12.47-5.72-7,18,0,23s19.47,15.73,31,1-31-24-31-24" transform="translate(0 5.13)" style="fill:#0072d9"/><path d="M212.4,261.87c20.53,1.28,7,15,1,21s-31.84,20.94-34.92,20,1.09-15,1.09-15S191.87,260.6,212.4,261.87Z" transform="translate(0 5.13)" style="fill:#0072d9"/></g><g id="body"><path d="M178.93,524.15s-5-17.78,19-31.78c0,0-13,12.78,11,47.78,0,0-8.49-3.73-15-7A167.39,167.39,0,0,1,178.93,524.15Z" transform="translate(0 5.13)" style="fill:#fff"/><path d="M354.93,521.15s4.53-14.78-19.47-28.78c0,0,15.47,9.78-8.53,44.78,0,0,13.2-6.83,17-9S354.93,521.15,354.93,521.15Z" transform="translate(0 5.13)" style="fill:#fff"/><path d="M107.08,470.7c.32-10,1.32-32.83,8.32-30.83s16,26,14,35S106.77,480.53,107.08,470.7Z" transform="translate(0 5.13)" style="fill:#6bb3ff"/><path d="M208.4,572.87c4.84-9.08,26,3,27,8S200.4,587.87,208.4,572.87Z" transform="translate(0 5.13)" style="fill:#6bb3ff"/><path d="M188.4,384.87c4-10,13-2,12,5S182.4,399.87,188.4,384.87Z" transform="translate(0 5.13)" style="fill:#6bb3ff"/><path d="M293.4,413.87c9-5,15-11,19,0s-13,17-22,15S284.4,418.87,293.4,413.87Z" transform="translate(0 5.13)" style="fill:#6bb3ff"/><path d="M191.4,631.87c2.39-11.15,19-20,25-15s3,15-6,18S188.4,645.87,191.4,631.87Z" transform="translate(0 5.13)" style="fill:#6bb3ff"/><path d="M288.4,605.87c3.67-6.29,15-14,22-11s11,11,6,16S281.4,617.87,288.4,605.87Z" transform="translate(0 5.13)" style="fill:#0072d9"/><path d="M332.4,564.87c2.64-3.16,12-11,16-8s4,8,0,13S327.4,570.87,332.4,564.87Z" transform="translate(0 5.13)" style="fill:#0072d9"/><path d="M407.4,464.87c4-6.05,13,0,11,2S403.4,470.87,407.4,464.87Z" transform="translate(0 5.13)" style="fill:#0072d9"/><path d="M424.4,424.87c5-3,13,1,13,6s-13,7-14,4S424.4,424.87,424.4,424.87Z" transform="translate(0 5.13)" style="fill:#0072d9"/><path d="M359.4,365.87c4-2,12,0,12,5s-14,9-16,7S359.4,365.87,359.4,365.87Z" transform="translate(0 5.13)" style="fill:#0072d9"/><path d="M405.94,357.43c-2.54,4.44-3.54,20.44,1.46,25.44s21,7,26,2,5.53-19.72-10.47-32.72-17,5.28-17,5.28" transform="translate(0 5.13)" style="fill:#0072d9"/></g></g><g id="hat"><path d="M92.9,409.37c-15,3-50-50.57-87-70-29.5-15.5,57.83-54.63,125.5-136.5,55.1-66.68,90.7-169.28,149.5-180.5C349.8,9.22,397,137.76,449.4,226.87c47.22,80.3,134,123,105.5,129.5-29.26,6.68-97,74-110,54s-107-156-175-155S128.05,402.34,92.9,409.37Z" transform="translate(0 5.13)" style="fill:#3e3c3f"/><g style="clip-path:url(#clip-path-5)"><path d="M61.4,409.87s124-117,142-162,16-257,174-205l46,80,81,145,75,82-51,45-64,32-41-1L287.93,282.6l-46.53.27-106,112-60,34Z" transform="translate(0 5.13)" style="fill:#252526"/><path d="M4.4,345.87s134-102,168-148,69-160,122-149,92,130,112,162,141,157,141,157" transform="translate(0 5.13)" style="fill:none;stroke:#cfbf95;stroke-miterlimit:10;stroke-width:3px"/><path d="M335.55,127.57c-6.43-14.69-10.1,3.68-10.1,3.68l-7.06,5.88c-8.39-6.35-20-9.78-30.6-9.56-13.44.28-24.57,2.41-32.28,8.73l-7.22-5.05s-2.75-15.62-11.94-3.68c0,0-15.61,7.35,6.43,8.27l7.23,6.57a35.93,35.93,0,0,0-4.93,12.26c-4.6,21.12,15.61,28.47,15.61,28.47l-17.91,16.08c-21.13,1.83-7.35,11-7.35,11,6.43,11.94,11-2.76,11-2.76l23-19.29c4,2,2.92,7.79.4,13.61a10.53,10.53,0,0,0,9.77,14.7l15-.14A9.18,9.18,0,0,0,303,203.83a43.38,43.38,0,0,1-2.82-16.09l23.88,18.37s0,9.18,5.51,10.1,4.59-7.35,4.59-7.35,7.35,1.84,7.35-3.67-10.1-3.68-10.1-3.68l-23-18.37s17-5,20.2-14.69c3.31-9.91,1.24-18.36-3.82-25l8-6.72C352.09,136.76,335.55,127.57,335.55,127.57ZM286,179a21.13,21.13,0,1,1,21.13-21.13A21.12,21.12,0,0,1,286,179Z" transform="translate(0 5.13)" style="fill:#cfbf95"/><path d="M286.4,144.87c-8,0-14.89,9.46-14.89,13s6.46,6.43,14.44,6.43,14.45-2.88,14.45-6.43S294.37,144.87,286.4,144.87Z" transform="translate(0 5.13)" style="fill:#cfbf95"/></g></g><g id="eye"><ellipse cx="270.4" cy="339" rx="54" ry="71" style="fill:#006cbc"/><ellipse cx="269.9" cy="344.5" rx="42.42" ry="56" style="fill:#fff"/><ellipse cx="270.27" cy="334.8" rx="11.21" ry="14.8" style="fill:#3e3c3f"/></g></g></g></svg>