<svg xmlns="http://www.w3.org/2000/svg" xmlns:xlink="http://www.w3.org/1999/xlink" viewBox="0 0 661.06 673.28"><defs><clipPath id="clip-path" transform="translate(2.47 14.44)"><path d="M157.22,216.66s-54.35,239-118.58,320.72a9.73,9.73,0,0,0,4.8,15.35c39.27,11.86,148.7,44.42,202.2,55.31a17.34,17.34,0,0,0,19.35-10c20-45.41,87.15-208.17,99.53-377.56Z" style="fill:#38c61a"/></clipPath><clipPath id="clip-path-2" transform="translate(2.47 14.44)"><path d="M37.45,220.5c-38.06-12.94-25.34-63.72-10-104.42S13.65,17,38.22,3.22,218.65,64.64,399.07,52.36s221-76.38,234.18-23c17.65,71.4-13.82,52.2,7.67,153.55,12.83,60.47-122.84,84.46-314.79,86.76S75.84,233.55,37.45,220.5Z" style="fill:#2bbf11"/></clipPath><clipPath id="clip-path-3" transform="translate(2.47 14.44)"><path d="M316.92,120.69c-3.84-17.66-32.25-92.13,7.68-96S414.43,20.11,436.69,8.6s49.14-24.57,66.8,56c15.86,72.39,44.1,258.7,69.15,318.2a13.79,13.79,0,0,1-9.9,18.88c-34.42,7.1-111.44,22.2-179.06,29.9a14.63,14.63,0,0,1-16.19-12.9c-3.06-26.91-9.68-85-13.72-118.37C348.4,255.82,316.92,120.69,316.92,120.69Z" style="fill:#37c61a"/></clipPath></defs><g id="Layer_2" data-name="Layer 2"><g id="scarf"><g id="Layer_4" data-name="Layer 4"><path d="M35.23,596.39a94.21,94.21,0,0,0,24.46-28.13c5.87-10.29,11.52-22.64,11.22-34.71-.06-2.4-3.76-3.84-4.89-1.33C61.26,542.81,58.48,554,52.91,564.3a142.14,142.14,0,0,1-20.8,29c-2,2.12.94,4.83,3.12,3.12Z" transform="translate(2.47 14.44)" style="fill:#a05000"/><path d="M72.16,609.35c14.21-18.53,27.73-38.13,35.32-60.42.83-2.43-2.86-3.92-4.11-1.73-11.45,20.13-21.58,41-35.1,59.88-1.71,2.38,2.17,4.51,3.89,2.27Z" transform="translate(2.47 14.44)" style="fill:#a05000"/><path d="M106.54,620.13C122.08,604.42,134.92,586,142,565c.66-2-2.4-3.26-3.34-1.41-9.72,19.15-20.7,37.59-35,53.7-1.71,1.93,1,4.71,2.85,2.85Z" transform="translate(2.47 14.44)" style="fill:#a05000"/><path d="M138.37,631.51a297.23,297.23,0,0,0,23.7-31c7.07-10.77,14.06-22,18-34.4.93-3-3.1-4.23-4.71-2-7.41,10.31-13.23,21.71-20,32.41s-13.94,21.19-21.68,31.24c-2.1,2.72,2.53,6.3,4.78,3.69Z" transform="translate(2.47 14.44)" style="fill:#a05000"/><path d="M178.11,642.86c14.79-17.39,25-39.28,30.82-61.27.61-2.3-2.81-3.9-3.94-1.66-10.18,20.2-17,41.63-30.85,59.86-1.73,2.27,2.12,5.25,4,3.07Z" transform="translate(2.47 14.44)" style="fill:#a05000"/><path d="M217.32,650.09c9.72-19,20.45-39.49,24.36-60.61.4-2.12-2.53-3.69-3.68-1.55-4.91,9.12-8.4,19-12.26,28.62-4.16,10.37-8.34,20.74-12.79,31-1.26,2.91,2.86,5.52,4.37,2.56Z" transform="translate(2.47 14.44)" style="fill:#a05000"/><path d="M254.18,657c1.25-10.92,2-21.79,2.86-32.73.91-11.16,3.49-21.78,6.32-32.56a2.22,2.22,0,0,0-4-1.7c-11.67,19.55-8.58,45.23-8.9,67,0,2.47,3.48,2.33,3.75,0Z" transform="translate(2.47 14.44)" style="fill:#a05000"/><path d="M2.71,575c13.64-8.63,28-17.82,38.42-30.35,1.17-1.41-.33-3.88-2.1-2.72-13.51,8.8-25.3,20.18-38.21,29.83-1.89,1.4-.2,4.56,1.89,3.24Z" transform="translate(2.47 14.44)" style="fill:#a05000"/><path d="M362.8,466.65c8.67-21.55,18-43.26,20.83-66.51.22-1.84-2.62-2.06-3.13-.42-6.87,22.06-11.13,44.86-19.78,66.36-.51,1.29,1.57,1.85,2.08.57Z" transform="translate(2.47 14.44)" style="fill:#a05000"/><path d="M408.73,475.66c5.37-20.86,10-42.7,11.56-64.21.18-2.52-3.67-2.92-4.33-.58-5.87,20.74-8.93,42.84-11,64.27-.21,2.19,3.25,2.58,3.78.52Z" transform="translate(2.47 14.44)" style="fill:#a05000"/><path d="M453.23,468.29c2.37-10.43,1.77-20.59.31-31.09-1.53-11.06-2.87-22.14-4.49-33.17-.23-1.54-2.52-1.32-2.9,0-2.81,10-.94,20.28.71,30.28,1.82,11,3.7,22.28,2.41,33.44-.26,2.26,3.46,2.73,4,.54Z" transform="translate(2.47 14.44)" style="fill:#a05000"/><path d="M490.24,462c-4.09-20.17-5-40.43-5.44-60.95,0-1.79-2.83-2.31-3.22-.44-4.36,20.73-1.81,42.48,5,62.41a1.92,1.92,0,0,0,3.7-1Z" transform="translate(2.47 14.44)" style="fill:#a05000"/><path d="M529.69,452.75c-3.47-17.31-6.24-34.65-10.3-51.84-.5-2.12-4-1.72-3.87.53,1.45,18,5.51,35,10.47,52.33.68,2.4,4.19,1.39,3.7-1Z" transform="translate(2.47 14.44)" style="fill:#a05000"/><path d="M569,447.09c-.66-5.49-3.19-9.78-5.45-14.76a183.73,183.73,0,0,1-7-17.54c-3.54-10.51-6-23.18-14.37-31.1-1.06-1-3.11,0-2.58,1.51,3.93,11.47,6.26,23.62,10.83,34.84,3.86,9.46,8.87,22.19,18.44,27.09a.05.05,0,0,0,.08,0Z" transform="translate(2.47 14.44)" style="fill:#a05000"/><path d="M603.87,428.4c-4.74-9.7-12.6-16.95-20.4-24.2-8.81-8.19-18.39-17-28.87-23-1.89-1.08-3.5,1.33-2.21,2.87,7.4,8.91,17.21,16.47,26.24,23.66,8.1,6.45,18.51,12.35,23.54,21.7.6,1.12,2.25.13,1.7-1Z" transform="translate(2.47 14.44)" style="fill:#a05000"/><path d="M19.05,585.08A186.83,186.83,0,0,0,41.83,560c3.33-4.43,6.37-9.11,9.29-13.82s6.34-9.95,7.34-15.57c.32-1.84-1.81-3.41-3.29-1.92-3.63,3.66-5.93,8.44-8.52,12.85-2.81,4.79-5.8,9.45-8.88,14.07-6.36,9.54-13.13,18.93-20.37,27.82a1.17,1.17,0,0,0,1.65,1.65Z" transform="translate(2.47 14.44)" style="fill:#a05000"/><path d="M54.88,603.63c8.48-5.25,14-16,19.07-24.32,5.55-9.13,11.72-19.4,13.87-30A2.12,2.12,0,0,0,84,547.7c-6.19,8.68-10.25,19.15-15.24,28.56C64.12,585,57,593.88,54.81,603.58c0,0,0,.08.07,0Z" transform="translate(2.47 14.44)" style="fill:#a05000"/><path d="M91.2,614.23C97.76,605,104,596.07,109.31,586c4.45-8.47,11.13-18.92,11.42-28.7a1.8,1.8,0,0,0-3-1.26c-3.42,3.56-5.11,8-7.21,12.38-2.41,5-4.75,10.11-7.2,15.13-4.76,9.79-9.09,19.84-14,29.53a1.12,1.12,0,0,0,1.94,1.13Z" transform="translate(2.47 14.44)" style="fill:#a05000"/><path d="M127.46,619.78c11.83-14.35,23.27-30.89,27.32-49.35.51-2.32-2.7-3.88-3.94-1.66-9.07,16.13-16,33.27-26.17,48.86-1.09,1.66,1.5,3.73,2.79,2.15Z" transform="translate(2.47 14.44)" style="fill:#a05000"/><path d="M160,633.57c13.89-16.23,27.8-37.86,28.76-59.83.1-2.3-3.56-3.48-4.54-1.23-4.35,9.89-7.09,20.39-11.43,30.29a175.78,175.78,0,0,1-15.74,28.5c-1.19,1.74,1.56,3.89,2.95,2.27Z" transform="translate(2.47 14.44)" style="fill:#a05000"/><path d="M200.43,647c6.67-20.21,16.27-39.65,20.73-60.56.6-2.83-3.4-4.87-4.89-2.06-10.17,19.19-14.3,40.74-20.18,61.42-.8,2.8,3.44,3.93,4.34,1.2Z" transform="translate(2.47 14.44)" style="fill:#a05000"/><path d="M238.75,651.91c4.8-18.7,10.08-38.09,12-57.33.27-2.67-3.49-2.7-4.32-.58-7,17.73-10.44,37.59-13.21,56.39-.53,3.54,4.57,5.18,5.51,1.52Z" transform="translate(2.47 14.44)" style="fill:#a05000"/><path d="M384.6,473.7c4.33-20.31,10.32-40.78,8.72-61.79-.16-2.09-3.34-2.81-3.87-.52-4.65,20.13-4.46,41.09-8.37,61.34-.44,2.29,3,3.29,3.52,1Z" transform="translate(2.47 14.44)" style="fill:#a05000"/><path d="M435.76,472.62c.57-10.56.6-21.07.47-31.64-.13-9.91.16-20.52-2.29-30.17-.45-1.76-3.36-1.91-3.71,0-1.8,9.79-1,20.25-.8,30.17.21,10.56.36,21.09.89,31.64a2.72,2.72,0,0,0,5.44,0Z" transform="translate(2.47 14.44)" style="fill:#a05000"/><path d="M473,467.51c-1.93-21.31-1.77-43.05-6.18-64.07-.29-1.37-2.2-.92-2.3.32-1.86,21.5,2.28,43,5.53,64.15.26,1.65,3.1,1.28,3-.4Z" transform="translate(2.47 14.44)" style="fill:#a05000"/><path d="M510.25,454.84a181.67,181.67,0,0,1-5.35-28.22c-.94-8.62-1.14-17.47-2.85-26a1.51,1.51,0,0,0-2.89,0c-3.85,17.84,1.82,38.32,7.29,55.25.78,2.39,4.47,1.41,3.8-1.05Z" transform="translate(2.47 14.44)" style="fill:#a05000"/><path d="M547.83,450.06c-2.07-10.43-4.08-20.85-6.31-31.24-2.1-9.77-3.71-20.18-7.82-29.34-.85-1.91-3.74-.85-3.75,1-.07,10,3,20.35,5.48,30,2.66,10.3,5.81,20.38,9.14,30.47a1.69,1.69,0,0,0,3.26-.9Z" transform="translate(2.47 14.44)" style="fill:#a05000"/><path d="M589.38,432c-15.08-15.12-21.12-37.59-37.64-51.48-1.34-1.13-3.67.32-2.58,2,11.7,17.93,21.54,37.6,37.3,52.42,1.94,1.81,4.8-1,2.92-2.92Z" transform="translate(2.47 14.44)" style="fill:#a05000"/><path d="M157.22,216.66s-54.35,239-118.58,320.72a9.73,9.73,0,0,0,4.8,15.35c39.27,11.86,148.7,44.42,202.2,55.31a17.34,17.34,0,0,0,19.35-10c20-45.41,87.15-208.17,99.53-377.56Z" transform="translate(2.47 14.44)" style="fill:#38c61a"/><g style="clip-path:url(#clip-path)"><path d="M59.09,499.23s175.66,45.68,244.45,43.5l-34.27,65.51L12,560.71Z" transform="translate(2.47 14.44)" style="fill:#6eeae6;opacity:0.8"/><path d="M109.4,315.76s55.19,20.44,262.94,30.91L341.5,409.48S135.37,397,81,363.62Z" transform="translate(2.47 14.44)" style="fill:#6eeae6;opacity:0.8"/><path d="M331.55,252S277.39,508.69,209.22,529.79s-197.2,0-197.2,0L31.5,575.24l250,47.07L385.32,241.7,331.55,252" transform="translate(2.47 14.44)" style="fill:#176800;opacity:0.5"/></g><path d="M37.45,220.5c-38.06-12.94-25.34-63.72-10-104.42S13.65,17,38.22,3.22,218.65,64.64,399.07,52.36s221-76.38,234.18-23c17.65,71.4-13.82,52.2,7.67,153.55,12.83,60.47-122.84,84.46-314.79,86.76S75.84,233.55,37.45,220.5Z" transform="translate(2.47 14.44)" style="fill:#2bbf11"/><g style="clip-path:url(#clip-path-2)"><path d="M121.42,12.1s-19,0-21.8,34.09-.56,103.87-5,126.59-19,65.74-19,65.74l53.09,21.91s19-58.43,22.36-82.78S151,64,155,47.81s22.35-26,22.35-26Z" transform="translate(2.47 14.44)" style="fill:#6eeae6;opacity:0.8"/><path d="M276.35,34.76s-14.7,27.6-12.82,58.43,3,122.54,1.14,142-6.37,44.94-6.37,44.94l51.23,2.94s8.67-51.94,5.65-78.72-5.44-138.76,8.4-163.11Z" transform="translate(2.47 14.44)" style="fill:#6eeae6;opacity:0.8"/><path d="M511.54,21s24.23,9.74,36.07,33.27,2.69,125.79,7,143.64S574,273.35,574,273.35l-79.14,13.8L460.39,39.63Z" transform="translate(2.47 14.44)" style="fill:#6eeae6;opacity:0.8"/><path d="M634-14.44,525.76,24s43,1.54,63,36.85,6.91,137.44-8.44,155.1c-7.13,8.19-95.83,27.64-206.19,34.22L333,39.31l-43-.77s48.8,204.48,20.61,212.9-230.3-10.21-313.13-67l14.58,46.06,149.72,48.37L566.45,265l92.13-49.13Z" transform="translate(2.47 14.44)" style="fill:#176800;opacity:0.5"/></g><path d="M316.92,120.69c-3.84-17.66-32.25-92.13,7.68-96S414.43,20.11,436.69,8.6s49.14-24.57,66.8,56c15.86,72.39,44.1,258.7,69.15,318.2a13.79,13.79,0,0,1-9.9,18.88c-34.42,7.1-111.44,22.2-179.06,29.9a14.63,14.63,0,0,1-16.19-12.9c-3.06-26.91-9.68-85-13.72-118.37C348.4,255.82,316.92,120.69,316.92,120.69Z" transform="translate(2.47 14.44)" style="fill:#37c61a"/><g style="clip-path:url(#clip-path-3)"><path d="M343.93,294c3.25.89,138,11.1,202.07-25.31l27.74,53s-81.3,18.95-108.08,20.73-116,7.55-123.35,4S343.93,294,343.93,294Z" transform="translate(2.47 14.44)" style="fill:#6eeae6;opacity:0.8"/><path d="M292.81,114.76s56,3.76,96.57.41,117.67-12.11,122.54-21.72l25.16,51.81S430,170.75,379.64,167.82s-70.6-7.1-70.6-7.1Z" transform="translate(2.47 14.44)" style="fill:#6eeae6;opacity:0.8"/><path d="M300,38.54a478.28,478.28,0,0,0,79.08-4.61c42.23-6.14,76-16.89,91.37,13.82s71.4,294.06,59.12,317.86S406,433.18,346.86,419.36l32.25,23,96.74-3.84,110.56-37.62-13-36.09S488.9-12.14,486.6-11.37,297.73,20.88,297.73,20.88Z" transform="translate(2.47 14.44)" style="fill:#176800;opacity:0.5"/></g></g></g></g></svg>