<svg xmlns="http://www.w3.org/2000/svg" xmlns:xlink="http://www.w3.org/1999/xlink" viewBox="0 0 1322.55 1562"><defs><clipPath id="clip-path" transform="translate(50.6 23.39)"><path d="M16.15,310.66,242.53,203.52,468.91,96.38C361.48-130.6-90.44,85.44,16.15,310.66Z" style="fill:#838fff"/></clipPath><clipPath id="clip-path-2" transform="translate(50.6 23.39)"><ellipse cx="242.53" cy="203.52" rx="250.46" ry="49.05" transform="translate(-63.75 123.31) rotate(-25.33)" style="fill:#525df0"/></clipPath><clipPath id="clip-path-3" transform="translate(50.6 23.39)"><rect x="244.91" y="147.53" width="59" height="245.33" transform="translate(-89.21 143.36) rotate(-25.33)" style="fill:#abb8ea"/></clipPath><clipPath id="clip-path-4" transform="translate(50.6 23.39)"><path d="M1208.12,305.74,979.94,202.49,751.76,99.24C855.29-129.55,1310.85,78.73,1208.12,305.74Z" style="fill:#838fff"/></clipPath><clipPath id="clip-path-5" transform="translate(50.6 23.39)"><ellipse cx="979.94" cy="202.49" rx="49.05" ry="250.46" transform="translate(391.47 1011.8) rotate(-65.65)" style="fill:#525df0"/></clipPath><clipPath id="clip-path-6" transform="translate(50.6 23.39)"><rect x="919.71" y="147.04" width="59" height="245.33" transform="translate(1702.81 906.74) rotate(-155.65)" style="fill:#abb8ea"/></clipPath><clipPath id="clip-path-7" transform="translate(50.6 23.39)"><path d="M262.58,1249.11,234,1443.18a44,44,0,0,0,77.88,34.52L441.59,1330Z" style="fill:#abb8ea"/></clipPath><clipPath id="clip-path-8" transform="translate(50.6 23.39)"><path d="M775.6,1343.57l139.81,137.59a44,44,0,0,0,73.82-42.5l-42.71-191.87Z" style="fill:#abb8ea"/></clipPath><clipPath id="clip-path-9" transform="translate(50.6 23.39)"><circle cx="611.4" cy="834.61" r="592" style="fill:#6b75ff"/></clipPath><clipPath id="clip-path-10" transform="translate(50.6 23.39)"><circle cx="611.4" cy="834.61" r="463" style="fill:#d4e6fc"/></clipPath></defs><g id="Layer_2" data-name="Layer 2"><g id="clock"><path d="M16.15,310.66,242.53,203.52,468.91,96.38C361.48-130.6-90.44,85.44,16.15,310.66Z" transform="translate(50.6 23.39)" style="fill:#838fff"/><g style="clip-path:url(#clip-path)"><path d="M148.28,41S311.4,7.61,337.4,135.61l161-32L468.91,48.85,366.4-23.39,190.16,0,148.28,41" transform="translate(50.6 23.39)" style="fill:#6b75ff"/></g><ellipse cx="242.53" cy="203.52" rx="250.46" ry="49.05" transform="translate(-13.16 146.7) rotate(-25.33)" style="fill:#525df0"/><g style="clip-path:url(#clip-path-2)"><polygon points="160 179 492 197 559 134 520 72 160 179" style="fill:#3546db"/></g><rect x="244.91" y="147.53" width="59" height="245.33" transform="translate(-38.61 166.75) rotate(-25.33)" style="fill:#abb8ea"/><g style="clip-path:url(#clip-path-3)"><polygon points="249.04 225.88 353.5 266 300 151 226 187 249.04 225.88" style="fill:#7483bf"/></g><path d="M1208.12,305.74,979.94,202.49,751.76,99.24C855.29-129.55,1310.85,78.73,1208.12,305.74Z" transform="translate(50.6 23.39)" style="fill:#838fff"/><g style="clip-path:url(#clip-path-4)"><path d="M979.94-18.68S1158.4,140.61,1111.4,331.61l128,4L1272,203.52,1203.4,94Z" transform="translate(50.6 23.39)" style="fill:#6b75ff"/></g><ellipse cx="979.94" cy="202.49" rx="49.05" ry="250.46" transform="translate(442.06 1035.19) rotate(-65.65)" style="fill:#525df0"/><g style="clip-path:url(#clip-path-5)"><polyline points="910.96 128.51 1199 349 1273.7 351.43 1302.66 307.61 1084 157 901 84 910.96 128.51" style="fill:#3546db"/></g><rect x="919.71" y="147.04" width="59" height="245.33" transform="translate(1753.4 930.13) rotate(-155.65)" style="fill:#abb8ea"/><g style="clip-path:url(#clip-path-6)"><polyline points="1006 162 1030.54 329.13 1102.39 178.72 1014 139.49 1023.5 169.17" style="fill:#7483bf"/></g><ellipse cx="674" cy="1517.5" rx="556" ry="44.5" style="fill:#e8eaf9"/><path d="M262.58,1249.11,234,1443.18a44,44,0,0,0,77.88,34.52L441.59,1330Z" transform="translate(50.6 23.39)" style="fill:#abb8ea"/><g style="clip-path:url(#clip-path-7)"><polygon points="307 1530 363.84 1524.19 502 1377 521 1340 451 1298 307 1530" style="fill:#7483bf"/><path d="M233.43,1326.15s70,68.46,153,78.46l18.55-32.9-158.55-84.1Z" transform="translate(50.6 23.39)" style="fill:#7483bf"/></g><path d="M775.6,1343.57l139.81,137.59a44,44,0,0,0,73.82-42.5l-42.71-191.87Z" transform="translate(50.6 23.39)" style="fill:#abb8ea"/><g style="clip-path:url(#clip-path-8)"><polygon points="945 1332 1031 1528 1056.5 1500.75 1056.5 1450 1014 1300.93 945 1332" style="fill:#7483bf"/><path d="M942.4,1359.61s-87,66-150,53v-32l128.5-69.46Z" transform="translate(50.6 23.39)" style="fill:#7483bf"/></g><circle cx="662" cy="858" r="592" style="fill:#6b75ff"/><g style="clip-path:url(#clip-path-9)"><circle cx="592" cy="858" r="592" style="fill:#838fff"/></g><circle cx="662" cy="858" r="463" style="fill:#d4e6fc"/><g style="clip-path:url(#clip-path-10)"><circle cx="692.3" cy="912.34" r="463" style="fill:#f8fbff"/><polygon points="662 349.84 662 858 821.04 394.87 662 349.84" style="fill:#ef006d;opacity:0.6000000000000001"/></g><rect x="651" y="465" width="23" height="85" rx="11.5" style="fill:#5275a0"/><rect x="651" y="1168" width="23" height="85" rx="11.5" style="fill:#5275a0"/><rect x="951.9" y="793.11" width="23" height="85" rx="11.5" transform="translate(1849.61 -104.4) rotate(90)" style="fill:#5275a0"/><rect x="248.9" y="793.11" width="23" height="85" rx="11.5" transform="translate(1146.61 598.6) rotate(90)" style="fill:#5275a0"/><rect x="785.76" y="494.45" width="23" height="85" rx="11.5" transform="translate(453.6 -316.3) rotate(31.82)" style="fill:#5275a0"/><rect x="415.05" y="1091.77" width="23" height="85" rx="11.5" transform="translate(712.84 -31.02) rotate(31.82)" style="fill:#5275a0"/><rect x="899.06" y="978.46" width="23" height="85" rx="11.5" transform="translate(2308.79 809.06) rotate(121.82)" style="fill:#5275a0"/><rect x="301.75" y="607.76" width="23" height="85" rx="11.5" transform="translate(1081.53 750.39) rotate(121.82)" style="fill:#5275a0"/><rect x="427.39" y="487.14" width="23" height="85" rx="11.5" transform="translate(-153.25 308.02) rotate(-29.49)" style="fill:#5275a0"/><rect x="773.42" y="1099.08" width="23" height="85" rx="11.5" transform="translate(-409.64 557.6) rotate(-29.49)" style="fill:#5275a0"/><rect x="906.38" y="620.1" width="23" height="85" rx="11.5" transform="translate(1093.45 -439.14) rotate(60.51)" style="fill:#5275a0"/><rect x="294.43" y="966.12" width="23" height="85" rx="11.5" transform="translate(1083.92 269.25) rotate(60.51)" style="fill:#5275a0"/></g></g></svg>