<svg width="255" height="255" viewBox="0 0 255 255" fill="none" xmlns="http://www.w3.org/2000/svg">
<path d="M212.49 195.885H187.821V238.977H128.492V195.885H39.4976V151.544L132.239 16.0233H187.821V150.92H212.49V195.885ZM128.492 150.92V125.002C128.492 121.88 128.596 117.82 128.804 112.824C129.012 107.62 129.22 102.936 129.429 98.7723C129.637 94.6088 129.741 92.423 129.741 92.2148H128.18C126.098 96.7947 124.224 100.542 122.559 103.456C121.102 106.371 119.02 109.91 116.314 114.073L91.645 150.92H128.492Z" fill="#B853E8"/>
<mask id="mask0" mask-type="alpha" maskUnits="userSpaceOnUse" x="41" y="14" width="174" height="224">
<path d="M214.03 194.759H189.362V237.851H130.032V194.759H41.0382V150.418L133.78 14.8973H189.362V149.794H214.03V194.759ZM130.032 149.794V123.876C130.032 120.754 130.136 116.694 130.345 111.698C130.553 106.494 130.761 101.81 130.969 97.6463C131.177 93.4829 131.281 91.297 131.281 91.0889H129.72C127.638 95.6687 125.765 99.4158 124.099 102.33C122.642 105.245 120.56 108.784 117.854 112.947L93.1857 149.794H130.032Z" fill="#B853E8"/>
</mask>
<g mask="url(#mask0)">
<path d="M230.399 120.306C177.058 118.172 125.495 179.87 106.381 210.986L27.7028 222.988C79.977 114.173 184.614 109.194 230.399 120.306Z" fill="#D353E8"/>
<path d="M206.638 98.4697C158.787 74.8025 86.5708 110.16 56.4439 130.797L-20.304 109.725C71.7466 31.6216 169.345 69.6784 206.638 98.4697Z" fill="#D353E8"/>
<path d="M211.377 63.7323C167.346 33.548 90.8615 58.3584 58.1234 74.5367L-14.8819 42.8427C87.2712 -21.4861 178.521 29.9655 211.377 63.7323Z" fill="#D353E8"/>
<g style="mix-blend-mode:multiply">
<path d="M157.055 197.59C171.99 185.855 183.725 134.914 187.726 110.911L249.068 165.585L238.4 253.598L107.714 257.598V216.259C117.938 214.926 142.119 209.325 157.055 197.59Z" fill="#AC43DE" fill-opacity="0.4"/>
</g>
<g style="mix-blend-mode:multiply">
<path d="M83.7109 130.914C83.7109 109.578 78.3768 92.6863 75.7097 86.9077L54.3733 110.911L35.704 205.592C73.0427 210.926 83.7109 157.585 83.7109 130.914Z" fill="#AC43DE" fill-opacity="0.4"/>
</g>
</g>
<path fill-rule="evenodd" clip-rule="evenodd" d="M218.95 202.346H194.282V245.438H122.031V202.346H33.037V149.545L128.832 9.56274H194.282V144.459H218.95V202.346ZM187.821 150.92V16.0233H132.239L39.4976 151.544V195.885H128.492V238.977H187.821V195.885H212.49V150.92H187.821ZM121.707 117.631L103.745 144.459H122.031V125.002C122.031 122.737 122.084 120.029 122.187 116.889C122.036 117.122 121.884 117.357 121.73 117.594L121.707 117.631ZM128.804 112.824C128.596 117.82 128.492 121.88 128.492 125.002V150.92H91.6451L116.314 114.073C119.02 109.91 121.102 106.371 122.559 103.456C122.623 103.344 122.688 103.23 122.753 103.115C123.514 101.767 124.317 100.248 125.164 98.559C126.115 96.6599 127.12 94.5452 128.18 92.2148H129.741C129.741 92.2761 129.732 92.5085 129.714 92.9122C129.671 93.8698 129.578 95.7909 129.433 98.6754C129.432 98.7076 129.43 98.7399 129.429 98.7723C129.332 100.708 129.235 102.756 129.138 104.917C129.027 107.404 128.915 110.039 128.804 112.824Z" fill="#9415CF"/>
<path d="M111.701 95.6631C124.361 99.9045 139.234 89.7461 145.087 84.1366C145.013 95.6568 141.903 118.046 130.058 115.44C118.212 112.834 112.884 101.17 111.701 95.6631Z" fill="#7500AC"/>
<path d="M123.592 112.706C124.015 103.309 136.034 103.815 141.991 105.243C141.022 108.136 138.095 114.158 134.144 115.105C130.193 116.053 125.463 113.9 123.592 112.706Z" fill="#9315CF"/>
<ellipse cx="128.027" cy="52.0932" rx="24.2271" ry="28.5341" fill="white"/>
<ellipse cx="128.566" cy="46.1693" rx="5.38381" ry="5.3838" fill="#161E33"/>
</svg>
