<svg width="255" height="255" viewBox="0 0 255 255" fill="none" xmlns="http://www.w3.org/2000/svg">
<path fill-rule="evenodd" clip-rule="evenodd" d="M62.6997 234.357V174.896L71.241 178.717C78.2902 181.87 86.855 184.8 96.9877 187.476C106.958 190.11 115.906 191.379 123.872 191.379C133.437 191.379 139.922 189.295 144.14 185.95C148.076 182.828 150.344 178.199 150.344 171.062C150.344 164.752 148.151 160.354 143.925 157.115L143.886 157.085L143.847 157.054C139.724 153.784 132.74 151.625 121.82 151.625C116.997 151.625 112.277 152.16 107.648 153.228L107.561 153.248L107.474 153.266C102.736 154.213 98.5282 155.245 94.8365 156.352L92.5518 157.038L65.9413 143.92L74.5504 23.7107H205.563V83.0334H133.781L132.436 97.0762L133.925 96.797L133.957 96.7914C137.824 96.1089 143.343 95.8197 150.253 95.8197C162.926 95.8197 174.595 98.6813 185.131 104.487C195.735 110.33 204.148 118.775 210.34 129.665C216.646 140.754 219.633 154.062 219.633 169.303C219.633 194.027 212.165 213.841 196.493 227.771C180.862 241.666 157.838 248.063 128.562 248.063C103.75 248.063 82.8275 244.169 66.1068 236.018L62.6997 234.357ZM125.631 104.523L128.269 76.9687H199.499V29.7754H80.1963L72.2819 140.284L93.0939 150.543C97.0022 149.371 101.399 148.296 106.285 147.319C111.365 146.146 116.544 145.56 121.82 145.56C133.35 145.56 141.948 147.807 147.615 152.302C153.478 156.797 156.409 163.05 156.409 171.062C156.409 179.661 153.576 186.207 147.908 190.702C142.241 195.196 134.229 197.444 123.872 197.444C115.274 197.444 105.796 196.076 95.4389 193.34C87.7642 191.312 80.8942 189.124 74.8291 186.775C72.7092 185.954 70.6876 185.113 68.7644 184.253V230.567C84.3978 238.188 104.33 241.999 128.562 241.999C157.093 241.999 178.394 235.745 192.464 223.239C206.534 210.732 213.569 192.753 213.569 169.303C213.569 154.843 210.735 142.629 205.068 132.663C199.401 122.696 191.78 115.075 182.204 109.799C172.629 104.523 161.978 101.884 150.253 101.884C143.414 101.884 138.333 102.178 135.011 102.764L125.631 104.523Z" fill="#0D96E2"/>
<path d="M150.25 101.886C161.975 101.886 172.626 104.524 182.201 109.8C191.776 115.077 199.398 122.698 205.065 132.664C210.732 142.63 213.566 154.844 213.566 169.305C213.566 192.755 206.53 210.733 192.46 223.24C178.39 235.747 157.09 242 128.559 242C104.327 242 84.3946 238.189 68.7612 230.568V184.254C76.1871 187.576 85.0786 190.605 95.4357 193.341C105.793 196.077 115.271 197.445 123.869 197.445C134.226 197.445 142.238 195.198 147.905 190.703C153.572 186.208 156.406 179.662 156.406 171.064C156.406 163.052 153.475 156.798 147.612 152.304C141.945 147.809 133.347 145.562 121.817 145.562C116.541 145.562 111.362 146.148 106.281 147.32C101.396 148.297 96.999 149.372 93.0907 150.545L72.2787 140.285L80.1931 29.7769H199.495V76.9702H128.266L125.628 104.524C128.754 103.938 131.881 103.352 135.008 102.765C138.33 102.179 143.411 101.886 150.25 101.886Z" fill="#50C0FF"/>
<mask id="mask0" mask-type="alpha" maskUnits="userSpaceOnUse" x="68" y="29" width="146" height="214">
<path d="M150.25 101.892C161.975 101.892 172.626 104.53 182.201 109.806C191.776 115.083 199.398 122.704 205.065 132.67C210.732 142.636 213.566 154.85 213.566 169.311C213.566 192.761 206.53 210.739 192.46 223.246C178.39 235.753 157.09 242.006 128.559 242.006C104.327 242.006 84.3946 238.196 68.7612 230.574V184.26C76.1871 187.583 85.0786 190.611 95.4357 193.347C105.793 196.083 115.271 197.451 123.869 197.451C134.226 197.451 142.238 195.204 147.905 190.709C153.572 186.215 156.406 179.668 156.406 171.07C156.406 163.058 153.475 156.804 147.612 152.31C141.945 147.815 133.347 145.568 121.817 145.568C116.541 145.568 111.362 146.154 106.281 147.327C101.396 148.304 96.999 149.378 93.0907 150.551L72.2787 140.291L80.1931 29.783H199.495V76.9763H128.266L125.628 104.53C128.754 103.944 131.881 103.358 135.008 102.771C138.33 102.185 143.411 101.892 150.25 101.892Z" fill="#50C0FF"/>
</mask>
<g mask="url(#mask0)">
<ellipse rx="4.68547" ry="6.24729" transform="matrix(0.792261 -0.610182 0.610183 0.79226 190.397 120.474)" fill="#78DFFF"/>
<ellipse cx="205.853" cy="167.772" rx="7.01603" ry="9.35472" transform="rotate(-6.05435 205.853 167.772)" fill="#78DFFF"/>
<ellipse cx="178.169" cy="197.638" rx="10.8143" ry="14.419" transform="rotate(21.3908 178.169 197.638)" fill="#78DFFF"/>
<ellipse cx="147.378" cy="227.96" rx="7.88872" ry="10.5183" transform="rotate(76.4098 147.378 227.96)" fill="#78DFFF"/>
<ellipse rx="4.9701" ry="6.62681" transform="matrix(-0.623859 0.781537 -0.781538 -0.623858 188.647 60.6029)" fill="#78DFFF"/>
<g style="mix-blend-mode:multiply">
<path d="M100.251 244.107C213.415 214.063 185.791 135.617 157.834 100.149L202.9 97.645C214.166 103.904 237.45 123.683 240.454 152.725C244.209 189.027 209.159 247.862 170.352 254.121C139.307 259.129 110.683 249.531 100.251 244.107Z" fill="#2AABF3" fill-opacity="0.5"/>
</g>
<g style="mix-blend-mode:multiply">
<path d="M147.818 78.8711C156.831 70.8595 183.286 39.6477 195.386 25.0432L200.394 27.5468L199.142 80.1229L147.818 78.8711Z" fill="#2AABF3" fill-opacity="0.5"/>
</g>
</g>
<ellipse cx="87.7349" cy="67.5956" rx="5.00724" ry="5.00725" fill="#78DFFF"/>
<ellipse cx="88.8228" cy="114.07" rx="6.86021" ry="9.14695" transform="rotate(39.2856 88.8228 114.07)" fill="#78DFFF"/>
<ellipse cx="108.849" cy="84.0207" rx="6.86021" ry="9.14695" transform="rotate(-37.6027 108.849 84.0207)" fill="#78DFFF"/>
<ellipse cx="167.864" cy="153.017" rx="8.27993" ry="11.0399" transform="rotate(-6.05436 167.864 153.017)" fill="#78DFFF"/>
<ellipse cx="98.1262" cy="204.216" rx="6.62019" ry="8.82691" transform="rotate(72.7901 98.1262 204.216)" fill="#78DFFF"/>
<ellipse cx="78.4925" cy="225.83" rx="4.9701" ry="6.6268" transform="rotate(128.598 78.4925 225.83)" fill="#78DFFF"/>
<path d="M105.034 113.029C115.098 120.499 142.433 121.62 158.605 113.028C155.186 123.287 143.443 138.803 130.303 138.803C118.918 138.803 104.487 118.287 105.034 113.029Z" fill="#006EAB"/>
<path d="M119.69 133.749C128.282 126.675 139.048 130.237 143.949 133.245C142.242 135.545 133.536 139.299 129.734 138.994C125.932 138.69 121.012 135.36 119.69 133.749Z" fill="#0D96E2"/>
<ellipse cx="114.157" cy="29.2708" rx="22.7425" ry="26.7857" fill="white"/>
<path d="M131.402 13.7319C115.762 13.0716 100.546 26.102 93.1677 34.7041C92.2525 35.7712 90.5794 35.7476 89.962 34.4846C85.6454 25.654 87.7582 9.389 102.026 2.4861C115.67 -4.11517 128.675 3.72015 133.364 10.972C134.232 12.3154 133 13.7994 131.402 13.7319Z" fill="#77CEFF"/>
<ellipse cx="116.684" cy="24.7267" rx="5.05389" ry="5.0539" fill="#161E33"/>
<ellipse rx="22.7425" ry="26.7857" transform="matrix(-1 0 0 1 168.739 29.7376)" fill="white"/>
<path d="M151.492 14.1987C167.132 13.5384 182.349 26.5688 189.726 35.1709C190.642 36.238 192.315 36.2144 192.932 34.9514C197.249 26.1208 195.136 9.8558 180.868 2.95289C167.224 -3.64837 154.219 4.18694 149.53 11.4388C148.662 12.7822 149.894 14.2662 151.492 14.1987Z" fill="#77CEFF"/>
<ellipse rx="5.0539" ry="5.0539" transform="matrix(-1 0 0 1 166.211 25.1935)" fill="#161E33"/>
</svg>
