<svg width="255" height="255" viewBox="0 0 255 255" fill="none" xmlns="http://www.w3.org/2000/svg">
<path fill-rule="evenodd" clip-rule="evenodd" d="M63.6928 47.5128C57.3653 55.2691 54.2016 65.0665 54.2016 76.905C54.2016 89.56 57.4674 100.276 63.999 109.053C69.1209 115.935 75.0586 122.002 81.8122 127.253C83.671 128.698 85.5916 130.081 87.574 131.403C85.421 132.48 83.3369 133.607 81.3215 134.785C72.637 139.86 65.2299 145.877 59.1003 152.835C51.5481 161.204 47.772 172.94 47.772 188.044C47.772 206.006 54.0995 220.6 66.7545 231.827C79.4095 243.053 99.6166 248.666 127.376 248.666C145.746 248.666 160.748 246.012 172.383 240.705C184.221 235.398 192.998 228.152 198.713 218.967C204.428 209.578 207.286 199.066 207.286 187.432C207.286 177.839 205.041 169.572 200.55 162.632C196.06 155.488 190.447 149.365 183.711 144.262C179.072 140.607 174.384 137.291 169.648 134.313C167.508 132.968 165.358 131.692 163.198 130.485C165.482 129.385 167.679 128.214 169.789 126.974C177.855 122.231 184.639 116.461 190.141 109.665C197.285 101.092 200.856 90.2744 200.856 77.2112C200.856 59.2493 194.121 45.8799 180.649 37.1031C167.178 28.3262 149.624 23.9378 127.988 23.9378C113.7 23.9378 100.943 25.9789 89.7172 30.0612C78.6951 33.9393 70.0203 39.7565 63.6928 47.5128ZM87.5834 24.0968C75.6634 28.2961 65.9576 34.7156 58.7844 43.5086C51.3727 52.5939 47.867 63.8857 47.867 76.905C47.867 90.7007 51.449 102.799 58.9172 112.835C63.8675 119.486 69.5349 125.426 75.9093 130.646C67.6419 135.745 60.4471 141.729 54.3719 148.619C45.4737 158.497 41.4375 171.929 41.4375 188.044C41.4375 207.691 48.4487 224.055 62.5508 236.565C76.9097 249.303 98.9966 255 127.376 255C146.277 255 162.257 252.282 174.992 246.478C187.739 240.76 197.59 232.763 204.092 222.314L204.108 222.288L204.124 222.261C210.479 211.821 213.621 200.157 213.621 187.432C213.621 176.834 211.131 167.34 205.892 159.227C201.008 151.466 194.897 144.798 187.585 139.25C183.694 136.186 179.76 133.345 175.784 130.729C183.244 125.971 189.678 120.296 195.036 113.686C203.266 103.792 207.191 91.474 207.191 77.2112C207.191 57.4036 199.608 41.8944 184.107 31.7956C169.308 22.1537 150.438 17.6033 127.988 17.6033C113.116 17.6033 99.6167 19.7258 87.5834 24.0968ZM135.153 91.4193L135.214 91.3671C137.776 89.1893 139.105 86.414 139.105 82.4161C139.105 79.3531 138.079 77.368 136.04 75.7818L135.97 75.7276L135.902 75.6715C133.62 73.7918 130.978 72.8298 127.682 72.8298C124.147 72.8298 121.269 73.8172 118.785 75.7257C116.96 77.2552 115.953 79.2543 115.953 82.4161C115.953 85.4455 116.943 88.2703 119.251 91.0612C121.487 93.4078 124.098 95.5996 127.107 97.6251C129.852 95.829 132.514 93.7805 135.093 91.4729L135.153 91.4193ZM127.07 105.073C122.171 102.215 117.987 98.9492 114.517 95.2752C111.251 91.397 109.618 87.1107 109.618 82.4161C109.618 77.5174 111.353 73.6392 114.823 70.7816C118.497 67.9241 122.783 66.4953 127.682 66.4953C132.377 66.4953 136.459 67.9241 139.929 70.7816C143.603 73.6392 145.44 77.5174 145.44 82.4161C145.44 88.1312 143.399 92.7238 139.317 96.1937C135.438 99.6636 131.356 102.623 127.07 105.073ZM130.744 158.958L126.764 156.509C120.028 159.979 114.211 164.061 109.312 168.756C104.413 173.45 101.964 179.063 101.964 185.595C101.964 191.718 104.107 196.719 108.393 200.597C112.884 204.271 119.007 206.108 126.764 206.108C135.745 206.108 142.378 204.373 146.665 200.903C150.951 197.434 153.094 192.739 153.094 186.82C153.094 182.329 151.767 178.247 149.114 174.573C146.46 170.899 143.399 167.735 139.929 165.082C136.459 162.428 133.397 160.387 130.744 158.958ZM112.526 195.793C115.554 198.214 120.066 199.774 126.764 199.774C135.14 199.774 140.038 198.118 142.679 195.98C145.359 193.81 146.76 190.988 146.76 186.82C146.76 183.674 145.86 180.887 143.979 178.282C141.674 175.09 139.041 172.377 136.081 170.114C132.77 167.582 130 165.752 127.741 164.536L127.58 164.449L126.564 163.824C121.636 166.645 117.357 169.819 113.695 173.329C109.989 176.881 108.298 180.864 108.298 185.595C108.298 189.987 109.731 193.212 112.526 195.793Z" fill="#68A800"/>
<path d="M66.9375 15.6801C66.9375 16.9803 91.9024 22.1813 92.9426 22.1813C100.311 21.3145 117.648 19.5808 128.05 19.5808C138.452 19.5808 158.389 25.6487 167.057 28.6826C167.057 28.6826 187.861 24.7826 187.861 23.4816C187.861 22.1806 157.955 18.2806 157.955 18.2806C157.955 18.2806 168.358 13.0788 168.358 11.7793C168.358 10.4798 144.953 13.0795 144.953 13.0795C144.953 13.0795 164.457 1.37723 164.457 0.0769752C164.457 -1.22328 120.248 14.3798 120.248 14.3798C120.248 14.3798 112.446 9.17877 111.146 9.17877C109.846 9.17877 112.446 13.0795 112.446 13.0795L112.446 13.0795C106.379 10.479 94.2429 5.278 92.9426 5.278C91.6424 5.278 98.577 12.2127 102.044 15.68L102.044 15.6801C102.044 15.6801 66.9375 14.3798 66.9375 15.6801Z" fill="#68A800"/>
<path d="M128.029 23.9358C149.664 23.9358 167.218 28.3242 180.69 37.101C194.161 45.8779 200.897 59.2473 200.897 77.2092C200.897 90.2724 197.325 101.09 190.181 109.663C183.241 118.236 174.26 125.176 163.238 130.483C170.178 134.361 177.016 138.953 183.751 144.26C190.487 149.363 196.1 155.486 200.591 162.63C205.081 169.57 207.326 177.837 207.326 187.43C207.326 199.064 204.469 209.576 198.754 218.965C193.038 228.15 184.262 235.396 172.423 240.703C160.789 246.01 145.786 248.664 127.416 248.664C99.6569 248.664 79.4498 243.051 66.7948 231.824C54.1398 220.598 47.8123 206.004 47.8123 188.042C47.8123 172.938 51.5884 161.202 59.1406 152.833C66.6927 144.26 76.184 137.116 87.6143 131.401C78.4292 125.278 70.5709 117.828 64.0393 109.051C57.5077 100.274 54.2419 89.558 54.2419 76.903C54.2419 65.0645 57.4056 55.2671 63.7331 47.5108C70.0606 39.7545 78.7354 33.9373 89.7574 30.0592C100.984 25.9769 113.741 23.9358 128.029 23.9358ZM127.722 66.4933C122.824 66.4933 118.537 67.922 114.863 70.7796C111.393 73.6372 109.658 77.5153 109.658 82.414C109.658 87.1086 111.291 91.395 114.557 95.2731C118.027 98.9472 122.211 102.213 127.11 105.071C131.396 102.621 135.479 99.6616 139.357 96.1916C143.439 92.7217 145.48 88.1292 145.48 82.414C145.48 77.5153 143.643 73.6372 139.969 70.7796C136.499 67.922 132.417 66.4933 127.722 66.4933ZM102.004 185.593C102.004 191.716 104.147 196.717 108.434 200.595C112.924 204.269 119.048 206.106 126.804 206.106C135.785 206.106 142.418 204.371 146.705 200.901C150.991 197.431 153.134 192.737 153.134 186.818C153.134 182.327 151.808 178.245 149.154 174.571C146.501 170.897 143.439 167.733 139.969 165.08C136.499 162.426 133.438 160.385 130.784 158.956L126.804 156.507C120.068 159.977 114.251 164.059 109.352 168.754C104.454 173.448 102.004 179.061 102.004 185.593Z" fill="#81BD1E"/>
<mask id="mask0" mask-type="alpha" maskUnits="userSpaceOnUse" x="47" y="23" width="161" height="226">
<path d="M128.029 23.9358C149.665 23.9358 167.218 28.3242 180.69 37.101C194.161 45.8779 200.897 59.2473 200.897 77.2092C200.897 90.2724 197.325 101.09 190.181 109.663C183.241 118.236 174.26 125.176 163.238 130.483C170.178 134.361 177.016 138.953 183.751 144.26C190.487 149.363 196.1 155.486 200.591 162.63C205.081 169.57 207.327 177.837 207.327 187.43C207.327 199.064 204.469 209.576 198.754 218.965C193.039 228.15 184.262 235.396 172.423 240.703C160.789 246.01 145.787 248.664 127.416 248.664C99.6571 248.664 79.45 243.051 66.795 231.824C54.14 220.598 47.8125 206.004 47.8125 188.042C47.8125 172.938 51.5886 161.202 59.1407 152.833C66.6929 144.26 76.1842 137.116 87.6145 131.401C78.4294 125.278 70.5711 117.828 64.0395 109.051C57.5078 100.274 54.242 89.558 54.242 76.903C54.242 65.0645 57.4058 55.2671 63.7333 47.5108C70.0608 39.7545 78.7356 33.9373 89.7576 30.0592C100.984 25.9769 113.741 23.9358 128.029 23.9358ZM127.723 66.4933C122.824 66.4933 118.538 67.9221 114.863 70.7796C111.394 73.6372 109.659 77.5153 109.659 82.414C109.659 87.1086 111.292 91.395 114.557 95.2731C118.027 98.9472 122.212 102.213 127.11 105.071C131.397 102.621 135.479 99.6616 139.357 96.1917C143.439 92.7217 145.48 88.1292 145.48 82.414C145.48 77.5153 143.643 73.6372 139.969 70.7796C136.499 67.9221 132.417 66.4933 127.723 66.4933ZM102.004 185.593C102.004 191.716 104.148 196.717 108.434 200.595C112.924 204.269 119.048 206.106 126.804 206.106C135.785 206.106 142.419 204.371 146.705 200.901C150.991 197.432 153.135 192.737 153.135 186.818C153.135 182.327 151.808 178.245 149.154 174.571C146.501 170.897 143.439 167.733 139.969 165.08C136.499 162.426 133.438 160.385 130.784 158.956L126.804 156.507C120.068 159.977 114.251 164.059 109.352 168.754C104.454 173.448 102.004 179.061 102.004 185.593Z" fill="#81BD1E"/>
</mask>
<g mask="url(#mask0)">
<path d="M179.902 58.588C170.926 39.1403 139.16 25.6482 125.291 20.8805L182.502 18.28C195.071 29.1155 220.47 51.0465 221.51 52.0867C222.55 53.1269 212.408 100.196 207.207 123.601L168.199 130.102C176.434 114.066 195.505 92.3947 179.902 58.588Z" fill="#72AF0D"/>
</g>
<path d="M86.9673 191.632C111.025 230.049 149.027 212.965 165.021 199.621C141.927 236.234 105.89 232.892 95.0506 220.484C84.2113 208.077 87.4352 197.938 86.9673 191.632Z" fill="#487205"/>
<path d="M108.375 230.184C113.624 230.359 116.774 209.185 144.596 228.085C139.172 228.435 118.454 239.004 108.375 230.184Z" fill="#68A800"/>
<ellipse cx="127.273" cy="120.493" rx="18.8981" ry="19.948" fill="white"/>
<circle cx="122.024" cy="118.393" r="5.24948" fill="#161E33"/>
<ellipse cx="127.273" cy="120.493" rx="18.8981" ry="19.948" fill="white"/>
<ellipse cx="132.522" cy="118.393" rx="5.24949" ry="5.24948" fill="#161E33"/>
</svg>
