<svg xmlns="http://www.w3.org/2000/svg" xmlns:xlink="http://www.w3.org/1999/xlink" viewBox="0 0 1690.74 1875.47"><defs><clipPath id="clip-path" transform="translate(0 9.19)"><path d="M617,303.28S589.42,154,561.84,112c0,0,61.28-9.33,119.48,37.32,0,0,33.7-79.31,64.34-98,0,0,46,46.66,64.33,84,0,0,18.38-116.65,55.15-135.31,0,0,46,60.66,49,135.31,0,0,42.89-93.32,73.53-98,0,0,33.7,70,30.64,130.64,0,0,58.2-56,98-32.66,0,0-70.46,88.65-58.21,210L917.22,377.93l-260.4,28Z" style="fill:#ffc61f"/></clipPath><clipPath id="clip-path-2" transform="translate(0 9.19)"><path d="M537.49,583.44s-110-160.49-21-240.32C605.38,263.47,695,320.87,695,320.87S785,219.6,880,227.1s70,82.52,70,82.52,142.48-41.26,195,82.52-5,195.05-42.49,213.8c0,0,140,236.31-27.5,270.07,0,0,10,187.54-147.48,206.3S745,1041.05,745,1041.05s-192.48,135-180-131.29c0,0-100-63.76-32.5-135,0,0-80-48.76-60-127.53S537.49,583.44,537.49,583.44Z" style="fill:#66ffe6"/></clipPath><clipPath id="clip-path-3" transform="translate(0 9.19)"><path d="M1472.17,642.8c-12.3-24.79-63-152.46-71.15-240.37s-51.53-109-80.27-135.49S1193,145,1211.83,80.16s125.07-33.59,168.56,25.55,41.49,96.62,50.54,249.06,46.38,204.17,66.72,228.54,51.55,55.1,33.26,76.27S1484.52,667.7,1472.17,642.8Z" style="fill:#ad6200"/></clipPath><clipPath id="clip-path-4" transform="translate(0 9.19)"><path d="M1221.15,104.05c1.34,21.93,24.63,84.76,81.38,127.77s86.5,23.74,90-7.62S1356.7,105.65,1290.72,76.74,1219.43,75.87,1221.15,104.05Z" style="fill:#e3a545"/></clipPath><clipPath id="clip-path-5" transform="translate(0 9.19)"><path d="M1445.37,434.47c-15-7.51-50.34-18.31-58-6.1s3.49,138.37,72.06,87C1469.78,507.7,1469.78,446.67,1445.37,434.47Z" style="fill:#111112"/></clipPath><clipPath id="clip-path-6" transform="translate(0 9.19)"><path d="M626.83,607.55s171.56,99.23,410.52-7.09c0,0-46,131.13-113.36,159.49s-217.51,28.35-251.21,0S626.83,607.55,626.83,607.55Z" style="fill:#003f57"/></clipPath><clipPath id="clip-path-7" transform="translate(0 9.19)"><path d="M675.84,618.84s24.51,52.08,49,61.27,58.21-46,58.21-46Z" style="fill:#fff"/></clipPath><clipPath id="clip-path-8" transform="translate(0 9.19)"><path d="M871.91,634.16S914.8,674,942.38,670.92,973,609.65,973,609.65Z" style="fill:#fff"/></clipPath><clipPath id="clip-path-9" transform="translate(0 9.19)"><path d="M697.29,787.34s30.64-49,49-55.15,42.89,64.34,42.89,64.34Z" style="fill:#fff"/></clipPath><clipPath id="clip-path-10" transform="translate(0 9.19)"><path d="M862.72,790.4s6.13-64.33,30.64-70.46S948.5,772,948.5,772Z" style="fill:#fff"/></clipPath><clipPath id="clip-path-11" transform="translate(0 9.19)"><path d="M316.51,988.57s-87.66,224.84-118.14,273.62S10.87,1475.61,1.72,1487.8s20.58,49.55,32.77,51.07,38.11,0,38.11,0-29,97.56-35.06,115.86-3,47.25,39.64,51.82,175.3,12.2,196.64-7.62,64-61,89.94-67.07c0,0-19.81,65.55-15.24,73.17s73.17,122,86.89,123.48,42.68,4.57,71.65,13.72,86.89,3,117.37,12.19,96,21.34,154,0,129.57-53.35,134.14-61-16.77-118.9,15.25-131.09,53.35,19.81,41.16,48.78-21.35,57.92,30.48,64,68.6-18.29,94.52-16.77,44.2,27.44,85.36,36.59,198.17,25.91,224.09-7.62,87.65-89.18,72.41-116.62-1.53-59.45,22.86-53.35,34.3-6.86,90.7-8.39,64-18.29,62.5-27.44-77.74-67.07-108.23-76.21-44.21-41.16-62.5-71.65-74.69-129.57-106.71-225.61-106.7-239.33-106.7-239.33Z" style="fill:#cceaff"/></clipPath></defs><g id="Layer_2" data-name="Layer 2"><g id="monster-at-a-table"><path d="M617,303.28S589.42,154,561.84,112c0,0,61.28-9.33,119.48,37.32,0,0,33.7-79.31,64.34-98,0,0,46,46.66,64.33,84,0,0,18.38-116.65,55.15-135.31,0,0,46,60.66,49,135.31,0,0,42.89-93.32,73.53-98,0,0,33.7,70,30.64,130.64,0,0,58.2-56,98-32.66,0,0-70.46,88.65-58.21,210L917.22,377.93l-260.4,28Z" transform="translate(0 9.19)" style="fill:#ffc61f"/><g style="clip-path:url(#clip-path)"><path d="M593.13,272.66s79.65-12.26,101.1,27.57c0,0,98-113.35,211.38-91.91s61.27,85.78,61.27,85.78,79.66-33.7,107.23-6.12l-3.06,49H936.25l-15.32-73.52-101.1-9.19-125.6,91.9-98-33.7Z" transform="translate(0 9.19)" style="fill:#f5a300"/><path d="M1135.38,122.54S1003.65,199.13,997.52,291l64.33,3.06s42.89-122.54,58.21-144S1135.38,122.54,1135.38,122.54Z" transform="translate(0 9.19)" style="fill:#f5a300"/><path d="M985.27,30.64s24.5,116.41,12.25,156.24c0,0,30.64-21.45,36.76-39.83S1006.71,42.89,985.27,30.64Z" transform="translate(0 9.19)" style="fill:#f5b400"/><path d="M862.72-6.13s39.83,131.74,36.77,165.44c0,0,18.38-18.39,21.44-55.15S875-3.06,862.72-6.13Z" transform="translate(0 9.19)" style="fill:#f5b400"/><path d="M744.72,45.29s53.67,98.7,53.67,120.14c0,0,21.44-15.32,6.12-70.46S744.72,45.29,744.72,45.29Z" transform="translate(0 9.19)" style="fill:#f5b400"/><path d="M556.37,110.29s113.35,33.7,122.54,67.4c0,0,15-38.81-21.62-57.7S556.37,110.29,556.37,110.29Z" transform="translate(0 9.19)" style="fill:#f5b400"/><path d="M556.37,110.29s61.27,49,70.46,101.1-24.51,64.33-24.51,64.33Z" transform="translate(0 9.19)" style="fill:#ffe494"/><path d="M678.91,147.05v30.64S727.93,58.21,749.37,49l-21.44,9.19-49,88.84" transform="translate(0 9.19)" style="fill:#ffe494"/><path d="M810.64,134.8a107.78,107.78,0,0,1-12.25,30.63S826,150.11,826,140.92,847.4-9.19,878-9.19L853.53-3.06,813.71,79.65Z" transform="translate(0 9.19)" style="fill:#ffe494"/><path d="M997.52,36.76S976.07,18.38,924,144c0,0-9.19,12.25-24.5,15.32,0,0,15.31-21.45,21.44-49S973,18.38,997.52,36.76Z" transform="translate(0 9.19)" style="fill:#ffe494"/><path d="M997.52,186.88s49-58.21,91.91-61.27,36.76,12.25,36.76,12.25-30.64-24.51-125.61,58.21C1000.58,196.07,988.33,193,997.52,186.88Z" transform="translate(0 9.19)" style="fill:#ffe494"/></g><path d="M537.49,583.44s-110-160.49-21-240.32C605.38,263.47,695,320.87,695,320.87S785,219.6,880,227.1s70,82.52,70,82.52,142.48-41.26,195,82.52-5,195.05-42.49,213.8c0,0,140,236.31-27.5,270.07,0,0,10,187.54-147.48,206.3S745,1041.05,745,1041.05s-192.48,135-180-131.29c0,0-100-63.76-32.5-135,0,0-80-48.76-60-127.53S537.49,583.44,537.49,583.44Z" transform="translate(0 9.19)" style="fill:#66ffe6"/><g style="clip-path:url(#clip-path-2)"><path d="M513.48,781.21s171.56,67.4,337,49,220.58-101.1,208.32-223.64c0,0,171.56-245.09-144-257.34,0,0-27.57-119.48-220.57-3.07,0,0-76.59-61.27-177.69-21.44l134.8-67.4L878,203l159.31,74.22,119.48,69,64.07,119.48-76.33,150.12,49,177.68-49,104.17-52.08,88.84-55.14,85.78L516.54,958.9l-45.95-88.85Z" transform="translate(0 9.19)" style="fill:#18dbbb"/></g><g id="hand"><path d="M1125,756.36s216.63,6.11,320.37-265.45" transform="translate(0 9.19)" style="fill:none;stroke:#111112;stroke-linecap:round;stroke-miterlimit:10;stroke-width:13.719510912895203px"/><path d="M1472.17,642.8c-12.3-24.79-63-152.46-71.15-240.37s-51.53-109-80.27-135.49S1193,145,1211.83,80.16s125.07-33.59,168.56,25.55,41.49,96.62,50.54,249.06,46.38,204.17,66.72,228.54,51.55,55.1,33.26,76.27S1484.52,667.7,1472.17,642.8Z" transform="translate(0 9.19)" style="fill:#ad6200"/><g style="clip-path:url(#clip-path-3)"><path d="M1205.52,89.87s10-58.19,94.47-18.32,114.63,119.83,117.8,209.27-7,232.31,119,386.63l8.16-40.16L1468.61,506.9l-21.32-149.42-7.2-130.11-33.36-114.28L1355.6,70.68l-66.66-29.86-56.49-2-30.6,36.62Z" transform="translate(0 9.19)" style="fill:#915200"/></g><path d="M1221.15,104.05c1.34,21.93,24.63,84.76,81.38,127.77s86.5,23.74,90-7.62S1356.7,105.65,1290.72,76.74,1219.43,75.87,1221.15,104.05Z" transform="translate(0 9.19)" style="fill:#e3a545"/><g style="clip-path:url(#clip-path-4)"><path d="M1326,86.19s-57.62-13.28-40.84,66.05,78.24,113,100.14,104.54S1363,291.06,1363,291.06l-94.59-59.49-59.49-88.49V43.92l65.6-7.63Z" transform="translate(0 9.19)" style="fill:#ffca78"/></g><path d="M1430.24,437.78s-27.59-36.87-15.38-49.08,22.88,0,25.93,18.31,13.73,45.76,13.73,45.76Z" transform="translate(0 9.19)" style="fill:#111112"/><path d="M1445.37,434.47c-15-7.51-50.34-18.31-58-6.1s3.49,138.37,72.06,87C1469.78,507.7,1469.78,446.67,1445.37,434.47Z" transform="translate(0 9.19)" style="fill:#111112"/><g style="clip-path:url(#clip-path-5)"><path d="M1438.3,429.87s34.53,102.23-44.8,74.77l18.31,27.46,33.56-4.46,29-21.47-16.79-73.23-19.27-3.07" transform="translate(0 9.19)"/></g></g><circle cx="750.9" cy="470.26" r="99.57" style="fill:#0ec9ab"/><circle cx="904.08" cy="485.58" r="56.68" style="fill:#0ec9ab"/><circle cx="885.7" cy="488.64" r="38.29" style="fill:#fff"/><circle cx="792.26" cy="468.73" r="58.21" style="fill:#fff"/><circle cx="812.17" cy="482.51" r="19.91"/><circle cx="878.04" cy="490.17" r="15.32"/><path d="M626.83,607.55s171.56,99.23,410.52-7.09c0,0-46,131.13-113.36,159.49s-217.51,28.35-251.21,0S626.83,607.55,626.83,607.55Z" transform="translate(0 9.19)" style="fill:#003f57"/><g style="clip-path:url(#clip-path-6)"><path d="M853.53,631.1s-9.19,153.17-202.19,125.6L682,781.21l91.91,15.32,137.86-12.26,70.46-33.7,67.4-156.24-49,6.13Z" transform="translate(0 9.19)" style="fill:#002b3b"/><path d="M675.84,618.84s24.51,52.08,49,61.27,58.21-46,58.21-46Z" transform="translate(0 9.19)" style="fill:#fff"/><g style="clip-path:url(#clip-path-7)"><path d="M697.29,658.67s42.89,39.82,64.33-21.45l21.45,9.19-12.25,15.32-21.45,24.51-24.51,3.06L703.42,674Z" transform="translate(0 9.19)" style="fill:#5a70e0;opacity:0.32"/></g><path d="M871.91,634.16S914.8,674,942.38,670.92,973,609.65,973,609.65Z" transform="translate(0 9.19)" style="fill:#fff"/><g style="clip-path:url(#clip-path-8)"><path d="M902.55,664.79s64.33,18.39,49-45.95h27.57v21.45l-15.32,27.57-18.38,9.19L914.8,674Z" transform="translate(0 9.19)" style="fill:#5a70e0;opacity:0.32"/></g><path d="M697.29,787.34s30.64-49,49-55.15,42.89,64.34,42.89,64.34Z" transform="translate(0 9.19)" style="fill:#fff"/><g style="clip-path:url(#clip-path-9)"><path d="M697.29,765.89s61.27,12.26,67.4,3.07-9.19-42.89-27.57-39.83l18.38-3.06,27.57,21.44,6.13,39.83H764.69l-67.4-9.19Z" transform="translate(0 9.19)" style="fill:#5a70e0;opacity:0.32"/></g><path d="M862.72,790.4s6.13-64.33,30.64-70.46S948.5,772,948.5,772Z" transform="translate(0 9.19)" style="fill:#fff"/><g style="clip-path:url(#clip-path-10)"><path d="M853.53,765.89s61.27-6.12,64.34-15.32-9.19-30.63-33.7-30.63,21.44-15.32,36.76-6.13,30.64,42.89,30.64,42.89l-52.08,21.45-42.89,3.06Z" transform="translate(0 9.19)" style="fill:#5a70e0;opacity:0.32"/></g></g><path d="M316.51,988.57s-87.66,224.84-118.14,273.62S10.87,1475.61,1.72,1487.8s20.58,49.55,32.77,51.07,38.11,0,38.11,0-29,97.56-35.06,115.86-3,47.25,39.64,51.82,175.3,12.2,196.64-7.62,64-61,89.94-67.07c0,0-19.81,65.55-15.24,73.17s73.17,122,86.89,123.48,42.68,4.57,71.65,13.72,86.89,3,117.37,12.19,96,21.34,154,0,129.57-53.35,134.14-61-16.77-118.9,15.25-131.09,53.35,19.81,41.16,48.78-21.35,57.92,30.48,64,68.6-18.29,94.52-16.77,44.2,27.44,85.36,36.59,198.17,25.91,224.09-7.62,87.65-89.18,72.41-116.62-1.53-59.45,22.86-53.35,34.3-6.86,90.7-8.39,64-18.29,62.5-27.44-77.74-67.07-108.23-76.21-44.21-41.16-62.5-71.65-74.69-129.57-106.71-225.61-106.7-239.33-106.7-239.33Z" transform="translate(0 9.19)" style="fill:#cceaff"/><g style="clip-path:url(#clip-path-11)"><path d="M920.93,1102.13c170.73,15.25,204.27,117.38,335.36,492.38,24.29,69.46,47.26,152.44-15.24,176.83s-141.77-61-170.73-41.16-93,73.17-126.53,36.59l65.55,61,275.92,38.11,205.79-65.55-3-184.45,164.63,27.44,38.11-74.69-178.35-150.92L1274.59,925.3l-86.89-30.48S750.2,1086.89,920.93,1102.13Z" transform="translate(0 9.19)" style="fill:#b3d6ff"/><path d="M56.6,1557.93s233.23-336.89,247-429.88S206,1317.07,142,1385.67.2,1533.54.2,1533.54Z" transform="translate(0 9.19)" style="fill:#b3d6ff"/><path d="M363,1632.62s53.35-163.11,67.07-246.95-79.26,33.54-112.8,134.15-56.4,181.4-172.26,199.69l93,24.39,79.27-42.68Z" transform="translate(0 9.19)" style="fill:#b3d6ff"/><path d="M937.7,1673.78S895,1379.57,888.92,1280.49s-41.16-25.92-47.26,137.19,10.67,407,39.63,416.16,59.45-39.63,59.45-39.63Z" transform="translate(0 9.19)" style="fill:#b3d6ff"/><path d="M613,1865.85s21.34-88.41,21.34-173.78-29,36.59-41.16,88.42-50.3,85.36-50.3,85.36Z" transform="translate(0 9.19)" style="fill:#b3d6ff"/><path d="M1529.16,1640.24s-106.71-120.42-155.49-222.56,45.73,184.45,115.85,248.48S1529.16,1640.24,1529.16,1640.24Z" transform="translate(0 9.19)" style="fill:#cceaff"/></g><ellipse cx="795.93" cy="1000.81" rx="479.42" ry="114.33" style="fill:#edf7ff"/></g></g></svg>