<svg xmlns="http://www.w3.org/2000/svg" xmlns:xlink="http://www.w3.org/1999/xlink" viewBox="0 0 739 505"><defs><clipPath id="clip-path" transform="translate(5.5 12.14)"><path d="M711.93,271.76a22.44,22.44,0,0,1,6.49,1L727,181.36C600.18-30.84,350.32,1.81,350.32,1.81L0,265.49l4.76,84.34a37.67,37.67,0,1,1,4,71.24l3.77,66.66,693.09-79.1,8.62-91.79a22.6,22.6,0,1,1-2.34-45.08Z" style="fill:#ffd522"/></clipPath><clipPath id="clip-path-2" transform="translate(5.5 12.14)"><ellipse cx="566.91" cy="143.69" rx="43.32" ry="22.6" style="fill:#ffba1f;stroke:#f78f1e;stroke-miterlimit:10;opacity:0.6000000000000001"/></clipPath><clipPath id="clip-path-3" transform="translate(5.5 12.14)"><ellipse cx="197.13" cy="183.16" rx="32.65" ry="17.03" style="fill:#ffba1f;stroke:#f78f1e;stroke-miterlimit:10;opacity:0.6000000000000001"/></clipPath><clipPath id="clip-path-4" transform="translate(5.5 12.14)"><ellipse cx="364.13" cy="136.7" rx="32.65" ry="17.03" style="fill:#ffba1f;stroke:#f78f1e;stroke-miterlimit:10;opacity:0.6000000000000001"/></clipPath><clipPath id="clip-path-5" transform="translate(5.5 12.14)"><ellipse cx="436.95" cy="31.29" rx="30.13" ry="15.72" style="fill:#ffba1f;stroke:#f78f1e;stroke-miterlimit:10;opacity:0.6000000000000001"/></clipPath></defs><g style="isolation:isolate"><g id="Layer_2" data-name="Layer 2"><g id="Layer_3" data-name="Layer 3"><g id="Layer_4" data-name="Layer 4"><polyline points="444.1 15.09 444.1 74 484 45 475 26 444.1 15.09" style="fill:#e2741a"/><path d="M711.93,271.76a22.44,22.44,0,0,1,6.49,1L727,181.36C600.18-30.84,350.32,1.81,350.32,1.81L0,265.49l4.76,84.34a37.67,37.67,0,1,1,4,71.24l3.77,66.66,693.09-79.1,8.62-91.79a22.6,22.6,0,1,1-2.34-45.08Z" transform="translate(5.5 12.14)" style="fill:#ffd522"/><g style="clip-path:url(#clip-path)"><polygon points="412 0 459.03 221.12 188 488 711 421 739 189 649 89 523 16 412 0" style="fill:#ffd522;opacity:0.44;mix-blend-mode:multiply"/><polygon points="0 279 737 192 716 424 14 505 0 279" style="fill:#ffba1f;opacity:0.6000000000000001"/><circle cx="413.57" cy="445.87" r="37.67" style="fill:#ef9b06;stroke:#ef7f0f;stroke-miterlimit:10;opacity:0.6000000000000001"/><ellipse cx="572.41" cy="155.83" rx="43.32" ry="22.6" style="fill:#ffba1f;opacity:0.6000000000000001"/><g style="clip-path:url(#clip-path-2)"><polygon points="570 121 570 197 629 168 623 130 570 121" style="fill:#e87e15;opacity:0.45"/></g><ellipse cx="572.41" cy="155.83" rx="43.32" ry="22.6" style="fill:none;stroke:#f78f1e;stroke-miterlimit:10;opacity:0.6000000000000001"/><ellipse cx="202.63" cy="195.3" rx="32.65" ry="17.03" style="fill:#ffba1f;opacity:0.6000000000000001"/><g style="clip-path:url(#clip-path-3)"><polygon points="203 169 205 218 236 212 244 189 203 169" style="fill:#e87e15;opacity:0.45"/></g><ellipse cx="202.63" cy="195.3" rx="32.65" ry="17.03" style="fill:none;stroke:#f78f1e;stroke-miterlimit:10;opacity:0.6000000000000001"/><ellipse cx="369.63" cy="148.84" rx="32.65" ry="17.03" style="fill:#ffba1f;opacity:0.6000000000000001"/><g style="clip-path:url(#clip-path-4)"><polygon points="373 119 373 183 413 154 406 125 373 119" style="fill:#e87e15;opacity:0.45"/></g><ellipse cx="369.63" cy="148.84" rx="32.65" ry="17.03" style="fill:none;stroke:#f78f1e;stroke-miterlimit:10;opacity:0.6000000000000001"/><ellipse cx="442.45" cy="43.42" rx="30.13" ry="15.72" style="fill:#ffba1f;opacity:0.6000000000000001"/><g style="clip-path:url(#clip-path-5)"><polyline points="444.1 15.09 444.1 74 493 45 483.89 21.36 444.1 15.09 444.1 15.09" style="fill:#e87e15;opacity:0.45"/></g><ellipse cx="442.45" cy="43.42" rx="30.13" ry="15.72" style="fill:none;stroke:#f78f1e;stroke-miterlimit:10;opacity:0.6000000000000001"/></g><circle cx="643.35" cy="221.12" r="37.67" style="fill:#ef9b06;stroke:#ef7f0f;stroke-miterlimit:10;opacity:0.6000000000000001"/><circle cx="316.89" cy="288.92" r="26.37" style="fill:#ef9b06;stroke:#ef7f0f;stroke-miterlimit:10;opacity:0.6000000000000001"/><circle cx="483.89" cy="390.63" r="26.37" style="fill:#ef9b06;stroke:#ef7f0f;stroke-miterlimit:10;opacity:0.6000000000000001"/><circle cx="179.4" cy="423.9" r="33.27" style="fill:#ef9b06;stroke:#ef7f0f;stroke-miterlimit:10;opacity:0.6000000000000001"/></g></g></g></g></svg>