<svg width="1000" height="1000" viewBox="0 0 1000 1000" fill="none" xmlns="http://www.w3.org/2000/svg">
<mask id="mask0" mask-type="alpha" maskUnits="userSpaceOnUse" x="44" y="44" width="912" height="912">
<path d="M500 954.273C440.308 954.273 381.201 942.519 326.053 919.683C270.905 896.846 220.796 863.375 178.588 821.179C136.379 778.983 102.898 728.89 80.0548 673.758C57.2117 618.627 45.4545 559.537 45.4545 499.864C45.4545 440.19 57.2117 381.1 80.0548 325.969C102.898 270.837 136.379 220.744 178.588 178.548C220.796 136.352 270.905 102.881 326.053 80.0444C381.201 57.2082 440.308 45.4545 500 45.4545C620.553 45.4545 736.168 88.0102 821.412 163.76C906.656 239.509 954.545 342.248 954.545 449.374C954.545 502.937 930.601 554.306 887.979 592.181C845.357 630.055 787.549 651.333 727.273 651.333H601.01C578.478 650.97 556.471 658.15 538.491 671.731C520.511 685.312 507.59 704.513 501.783 726.281C495.977 748.049 497.618 771.133 506.447 791.86C515.275 812.588 530.784 829.769 550.505 840.67C560.589 849.972 567.505 862.199 570.28 875.633C573.055 889.066 571.551 903.031 565.978 915.566C560.405 928.101 551.044 938.575 539.21 945.518C527.376 952.46 513.664 955.522 500 954.273Z" fill="#DADCE7" stroke="#DADCE7" stroke-linecap="round" stroke-linejoin="round"/>
</mask>
<g mask="url(#mask0)">
<path d="M500 954.273C440.308 954.273 381.201 942.519 326.053 919.683C270.905 896.847 220.796 863.375 178.588 821.179C136.379 778.983 102.898 728.89 80.0548 673.758C57.2117 618.627 45.4545 559.537 45.4545 499.864C45.4545 440.19 57.2117 381.1 80.0548 325.969C102.898 270.837 136.379 220.744 178.588 178.548C220.796 136.352 270.905 102.881 326.053 80.0444C381.201 57.2082 440.308 45.4545 500 45.4545C620.553 45.4545 736.168 88.0102 821.412 163.76C906.656 239.509 954.545 342.248 954.545 449.374C954.545 502.937 930.601 554.306 887.979 592.181C845.357 630.055 787.549 651.333 727.273 651.333H601.01C578.478 650.97 556.471 658.15 538.491 671.731C520.511 685.312 507.59 704.513 501.783 726.281C495.977 748.049 497.618 771.133 506.447 791.86C515.275 812.588 530.784 829.769 550.505 840.67C560.589 849.972 567.505 862.199 570.28 875.633C573.055 889.066 571.551 903.031 565.978 915.566C560.405 928.101 551.044 938.575 539.21 945.518C527.376 952.46 513.664 955.522 500 954.273" fill="#DADCE7"/>
<path d="M500 954.273C440.308 954.273 381.201 942.519 326.053 919.683C270.905 896.847 220.796 863.375 178.588 821.179C136.379 778.983 102.898 728.89 80.0548 673.758C57.2117 618.627 45.4545 559.537 45.4545 499.864C45.4545 440.19 57.2117 381.1 80.0548 325.969C102.898 270.837 136.379 220.744 178.588 178.548C220.796 136.352 270.905 102.881 326.053 80.0444C381.201 57.2082 440.308 45.4545 500 45.4545C620.553 45.4545 736.168 88.0102 821.412 163.76C906.656 239.509 954.545 342.248 954.545 449.374C954.545 502.937 930.601 554.306 887.979 592.181C845.357 630.055 787.549 651.333 727.273 651.333H601.01C578.478 650.97 556.471 658.15 538.491 671.731C520.511 685.312 507.59 704.513 501.783 726.281C495.977 748.049 497.618 771.133 506.447 791.86C515.275 812.588 530.784 829.769 550.505 840.67C560.589 849.972 567.505 862.199 570.28 875.633C573.055 889.066 571.551 903.031 565.978 915.566C560.405 928.101 551.044 938.575 539.21 945.518C527.376 952.46 513.664 955.522 500 954.273" stroke="#DADCE7" stroke-linecap="round" stroke-linejoin="round"/>
<path d="M483.942 1169.49L189.517 809.161C189.517 809.161 261.357 551.655 475.074 374.599C688.791 197.544 976.474 166.135 976.474 166.135L1270.9 526.461L483.942 1169.49Z" fill="#F8F8FB"/>
</g>
<path d="M500 954.273C440.308 954.273 381.201 942.519 326.053 919.683C270.905 896.847 220.796 863.375 178.588 821.179C136.379 778.983 102.898 728.89 80.0548 673.758C57.2117 618.627 45.4545 559.537 45.4545 499.864C45.4545 440.19 57.2117 381.1 80.0548 325.969C102.898 270.837 136.379 220.744 178.588 178.548C220.796 136.352 270.905 102.881 326.053 80.0444C381.201 57.2082 440.308 45.4545 500 45.4545C620.553 45.4545 736.168 88.0102 821.412 163.76C906.656 239.509 954.545 342.248 954.545 449.374C954.545 502.937 930.601 554.306 887.979 592.181C845.357 630.055 787.549 651.333 727.273 651.333H601.01C578.478 650.97 556.471 658.15 538.491 671.731C520.511 685.312 507.59 704.513 501.783 726.281C495.977 748.049 497.618 771.133 506.447 791.86C515.275 812.588 530.784 829.769 550.505 840.67C560.589 849.972 567.505 862.199 570.28 875.633C573.055 889.066 571.551 903.031 565.978 915.566C560.405 928.101 551.044 938.575 539.21 945.518C527.376 952.46 513.664 955.522 500 954.273" stroke="#DADCE7" stroke-linecap="round" stroke-linejoin="round"/>
<path d="M477.273 363.636C540.032 363.636 590.909 312.76 590.909 250C590.909 187.24 540.032 136.364 477.273 136.364C414.513 136.364 363.636 187.24 363.636 250C363.636 312.76 414.513 363.636 477.273 363.636Z" fill="#FF6955"/>
<path d="M477.273 363.636C540.032 363.636 590.909 312.76 590.909 250C590.909 187.24 540.032 136.364 477.273 136.364C414.513 136.364 363.636 187.24 363.636 250C363.636 312.76 414.513 363.636 477.273 363.636Z" fill="#FF6955"/>
<path d="M507.655 318.182C528.531 318.182 545.455 287.656 545.455 250C545.455 212.344 528.531 181.818 507.655 181.818C486.78 181.818 515.216 212.344 515.216 250C515.216 287.656 486.78 318.182 507.655 318.182Z" fill="#E64941"/>
<path d="M704.545 545.455C767.305 545.455 818.182 494.578 818.182 431.818C818.182 369.059 767.305 318.182 704.545 318.182C641.786 318.182 590.909 369.059 590.909 431.818C590.909 494.578 641.786 545.455 704.545 545.455Z" fill="#5588FB"/>
<path d="M295.455 636.364C358.214 636.364 409.091 585.487 409.091 522.727C409.091 459.968 358.214 409.091 295.455 409.091C232.695 409.091 181.818 459.968 181.818 522.727C181.818 585.487 232.695 636.364 295.455 636.364Z" fill="#FFC368"/>
<path d="M325.837 590.909C346.713 590.909 363.636 560.383 363.636 522.727C363.636 485.071 346.713 454.545 325.837 454.545C304.961 454.545 333.397 485.071 333.397 522.727C333.397 560.383 304.961 590.909 325.837 590.909Z" fill="#FF9F40"/>
<path d="M734.928 500C755.804 500 772.727 469.474 772.727 431.818C772.727 394.162 755.804 363.636 734.928 363.636C714.052 363.636 742.488 394.162 742.488 431.818C742.488 469.474 714.052 500 734.928 500Z" fill="#267DE4"/>
</svg>
