<svg xmlns="http://www.w3.org/2000/svg" xmlns:xlink="http://www.w3.org/1999/xlink" viewBox="0 0 729.26 704.48"><defs><clipPath id="clip-path" transform="translate(0 8.08)"><path d="M372.92,7.25,462,232.52a11.47,11.47,0,0,0,10,7.23l241.78,15.13a11.46,11.46,0,0,1,6.59,20.28L533.63,429.51a11.45,11.45,0,0,0-3.8,11.69l60.33,234.63a11.47,11.47,0,0,1-17.25,12.53L368.41,558.48a11.49,11.49,0,0,0-12.3,0L151.61,688.36a11.47,11.47,0,0,1-17.25-12.53L194.69,441.2a11.45,11.45,0,0,0-3.8-11.69L4.18,275.16a11.46,11.46,0,0,1,6.59-20.28l241.78-15.13a11.47,11.47,0,0,0,9.95-7.23L351.6,7.25A11.46,11.46,0,0,1,372.92,7.25Z" style="fill:#ffd522"/></clipPath></defs><g id="Layer_2" data-name="Layer 2"><g id="Layer_3" data-name="Layer 3"><g id="Layer_4" data-name="Layer 4"><path d="M372.92,7.25,462,232.52a11.47,11.47,0,0,0,10,7.23l241.78,15.13a11.46,11.46,0,0,1,6.59,20.28L533.63,429.51a11.45,11.45,0,0,0-3.8,11.69l60.33,234.63a11.47,11.47,0,0,1-17.25,12.53L368.41,558.48a11.49,11.49,0,0,0-12.3,0L151.61,688.36a11.47,11.47,0,0,1-17.25-12.53L194.69,441.2a11.45,11.45,0,0,0-3.8-11.69L4.18,275.16a11.46,11.46,0,0,1,6.59-20.28l241.78-15.13a11.47,11.47,0,0,0,9.95-7.23L351.6,7.25A11.46,11.46,0,0,1,372.92,7.25Z" transform="translate(0 8.08)" style="fill:#ffd522"/><g style="clip-path:url(#clip-path)"><path d="M361-5.75c17.17,74.59,40.53,209.51,27.24,351-12.74,135.63-149.95,272.78-254.95,344.9-10,6.9,4.84,6.13,4.84,6.13L362.26,560.09l215.5,136.32,19.5-2.32-59-257,191-165-5-19-249-25s-72.95-184.92-96-225C374.75-4.74,359.6-11.91,361-5.75Z" transform="translate(0 8.08)" style="fill:#ffba1f;opacity:0.6000000000000001"/></g><path d="M291.82,248.68c13.61-31.88,25.82-64.22,37-97,5.59-16.44,11.21-32.86,16.55-49.38q4-12.39,7.82-24.83,2-6.45,3.91-12.91c1.2-4,3-8.2,2.71-12.43a4.31,4.31,0,0,0-8-2.15c-2.43,3.41-3.07,8-4.17,12-1.2,4.34-2.39,8.67-3.61,13Q340.69,87,337.17,99c-4.86,16.64-9.86,33.26-15.32,49.71-10.93,32.88-22.53,65.58-34.31,98.16-.89,2.46,3.24,4.25,4.28,1.8Z" transform="translate(0 8.08)" style="fill:#ffeb99"/><path d="M356.4,53.17C342.71,85,329.33,117,314.74,148.43c-7.28,15.69-14.17,31.66-20.08,47.91l-8.79,24.17c-3.07,8.43-8.4,19.64-2.77,27.89a5.73,5.73,0,0,0,6.25,2.54c9.63-2.53,12.84-13.59,16-22s6.3-16.67,9.44-25c6-16,11.2-32.35,15.79-48.83C340,121.53,350.51,88.33,360.68,55c.75-2.48-3.22-4.29-4.28-1.81Z" transform="translate(0 8.08)" style="fill:#ffeb99"/><path d="M39.38,273.42c4.68.46,9.17,1.75,13.86,2.09s9.24.6,13.86.87c9.24.52,18.49.82,27.73,1.14,17.84.62,35.62.94,53.47.53s35.62-1.11,53.43-1.74c18.41-.66,37.1-.61,55.25-4,8.1-1.52,5.72-13.46-1.87-13.81-17.77-.83-35.65,1.5-53.38,2.63-18.12,1.14-36.28,1.87-54.42,2.5-17.84.62-35.64,1.65-53.47,2.57-8.91.46-17.83.81-26.74,1.29-4.62.24-9.24.44-13.86.74s-9.18,1.47-13.86,1.82a1.69,1.69,0,0,0,0,3.38Z" transform="translate(0 8.08)" style="fill:#ffeb99"/><path d="M165.13,658.08c8.16-16,13.39-34,19-51.1,5.72-17.39,13.53-34.07,20.39-51.05s14.13-33.82,20.42-51c3.19-8.74,6.25-17.48,9-26.36,2.38-7.54,8.43-19.22,3.53-26.64-1.55-2.35-4.65-4-7.52-3.06-8.91,3-11,14.77-13.93,22.7-3.22,8.73-6.24,17.49-9.07,26.35-5.54,17.37-10.12,35-15.08,52.52S183.12,585.84,177,603c-6.15,17.33-13.26,35.08-16.7,53.1-.52,2.74,3.36,4.85,4.8,2Z" transform="translate(0 8.08)" style="fill:#ffeb99"/></g></g></g></svg>