<svg xmlns="http://www.w3.org/2000/svg" xmlns:xlink="http://www.w3.org/1999/xlink" viewBox="0 0 1385.13 1196.67"><defs><clipPath id="clip-path" transform="translate(79.46)"><circle cx="675.05" cy="194.57" r="43.7" style="fill:none"/></clipPath><clipPath id="clip-path-2" transform="translate(79.46)"><path d="M345.25,235.07S409,27,500.55,2.07s170.8,183.3,170.8,183.3-14,21.8-66.8-9.3c0,0,17.1,41.9,9.3,73Z" style="fill:none"/></clipPath><clipPath id="clip-path-3" transform="translate(79.46)"><path d="M312.45,294.37s-9.1-22.1-37.1-26.7-21.8-52.8-21.8-52.8-118.3,157.5,44.9,196l28.1-26.7Z" style="fill:none"/></clipPath><clipPath id="clip-path-4" transform="translate(79.46)"><path d="M820.15,555.87c-3.5-18-13.3-108.8-2.9-166.5s-13.7-79-27.4-101-60.1-100.8-36.6-138.9,86,.7,103.4,46.3,9.4,69.2-11.8,168.4-6.5,139,2.2,158.2,23.2,44.4,7.8,54.7S823.65,574.07,820.15,555.87Z" style="fill:none"/></clipPath><clipPath id="clip-path-5" transform="translate(79.46)"><path d="M755,166.37c-3,14.3.7,58.6,29.4,96.2s51.2,30.5,59,11.1-1.9-82.3-39-112.5S758.85,148.07,755,166.37Z" style="fill:none"/></clipPath><clipPath id="clip-path-6" transform="translate(79.46)"><path d="M840,417.77c-8.3-7.5-29-20.6-36-14.2s-22.3,89.2,30.7,68.5C842.55,469,853.45,429.87,840,417.77Z" style="fill:none"/></clipPath><clipPath id="clip-path-7" transform="translate(79.46)"><path d="M392.55,520.07s-66.8,206.6-57.5,231.4,87,40.4,172.4,37.3,146-35.7,152.2-45-15.5-101-74.5-239.2Z" style="fill:none"/></clipPath><clipPath id="clip-path-8" transform="translate(79.46)"><path d="M359.45,244.47s-40.7-17.2-62.4-4.8c0,0,15.4-19.6,104.1-14,0,0-18.6-29.5-74.6-40.4,0,0,60.6-17.1,122.7,31.1,0,0,32.6-63.7,114.9-45,0,0-41.7,31.3-34.2,51.2,0,0,76.1-29.5,110.3-7.8,0,0-28.5,6.3-55.9,20.2,0,0,40.4,3.1,66.8,17.1,0,0-37.4,1.6-41.9,9.3,0,0,101.3,96.4,16.5,213.6s-253.6,88.5-303.6-2.8S290,289.67,359.45,244.47Z" style="fill:none"/></clipPath><clipPath id="clip-path-9" transform="translate(79.46)"><path d="M171.35,623s-11,171-16,206-51,154-71,170-87,67-83,76,17.5,14.5,64.5,6.5,76-19,76-19-45,40-66,55-35,29,10,32,117-11,149-26,112-52,146-20,64,72,85,68,46-52,75-67,65-19,104,10,105,45,129,35-41-44-33-65,87,26,130,34,90,8,75-9-58-41-43-41,65,4,21-24-66-45-86-95-56-168.8-56-278c0-35-4-48-4-48h-43Z" style="fill:none"/></clipPath><clipPath id="clip-path-10" transform="translate(79.46)"><path d="M231.75,590.47c28-7,113-22,133-22s109-2,127-5,82-5,106,0,76,13,97,18,80,18,83,41-1,36-63,59-117,7-150,17-104,14-151,12-118-27-136-28-117-42-106-59S231.75,590.47,231.75,590.47Z" style="fill:none"/></clipPath><clipPath id="clip-path-11" transform="translate(79.46)"><path d="M186.35,630c-5-7,12-11,18-21s60-12,78-22c0,0,52-7,66-10s80.7-4,94.9-5,66.1-6,79.1-6,72.4,1.7,87.2,3.4,84.8,14.6,94.8,18.6,55,13,62,27,10,28-7,38-63.2,36.9-106.1,35.5-77.9.5-97.9,6.5-116,19-145,11-91-19-102-23-77-19-93-28S186.35,630,186.35,630Z" style="fill:none"/></clipPath></defs><g id="Layer_2" data-name="Layer 2"><g id="elf-with-a-cut-tree"><g id="fb59aaff-c6b1-479b-9898-16d2575f1ce8"><g id="bf918dae-6b50-4cf5-822d-63c9a222c376"><circle cx="754.51" cy="194.57" r="43.7" style="fill:#ffcd59"/><g style="clip-path:url(#clip-path)"><path d="M671.25,148.87s24.2,16.7,22.7,45.4-43.9,36.3-66.6,9.1l9.1,28.8,31.8,13.6,48.5-12.1,10.6-50-22.8-33.3Z" transform="translate(79.46)" style="fill:#cc7a00;opacity:0.47999998927116394;isolation:isolate"/></g><path d="M345.25,235.07S409,27,500.55,2.07s170.8,183.3,170.8,183.3-14,21.8-66.8-9.3c0,0,17.1,41.9,9.3,73Z" transform="translate(79.46)" style="fill:#ff0080"/><g style="clip-path:url(#clip-path-2)"><path d="M392.05,120.77s128.6-25.5,212.5,55.2l17.1,18.6h-6.2s-77.7-91.6-259.4-21.7C356.05,172.87,364.45,124.57,392.05,120.77Z" transform="translate(79.46)" style="fill:#ffcd59"/><path d="M416.65,50.17s144.5,18.6,187.9,125.8c0,0,9.3-105.6-135.1-172.4C469.45,3.57,416.65,22.17,416.65,50.17Z" transform="translate(79.46)" style="fill:#ffcd59"/><path d="M643.45,99.87s-1.6,68.3-38.8,76.1c0,0,41.9,1.6,60.6-43.5Z" transform="translate(79.46)" style="fill:#ffcd59"/><path d="M550.05,83.77c-10.3-1.4-25.9,29.8-40.4,65.8-60,15-64.1,47.7-64.1,47.7-30.3-27.3-89.3-24.2-89.3-24.2L326,261l148.1-9.9-1.2,3.8,145.4,33.3,7.6-72.7h45.4C671.25,215.57,618.25,92.87,550.05,83.77Z" transform="translate(79.46)" style="fill:#a300a6;opacity:0.3400000035762787;isolation:isolate"/></g><path d="M631.65,294.37s9.2-22.1,37.1-26.7,21.8-52.8,21.8-52.8,118.3,157.5-44.9,196l-28.1-26.7Z" transform="translate(79.46)" style="fill:#00a3b8"/><path d="M312.45,294.37s-9.1-22.1-37.1-26.7-21.8-52.8-21.8-52.8-118.3,157.5,44.9,196l28.1-26.7Z" transform="translate(79.46)" style="fill:#00d3d4"/><g style="clip-path:url(#clip-path-3)"><path d="M256.35,204.87s-22.7,46.9,0,81.8,53.2,126.7-10.6,107.5c0,0,6,13.6,16.6,16.7s71.2,24.2,83.3-6.1,7.6-127.2-34.8-139.3S256.35,204.87,256.35,204.87Z" transform="translate(79.46)" style="fill:#00a3b8"/></g><path d="M388,569.77s-102.5,55.9-105.6,77.7,51.3,71.5,69.9,79.2" transform="translate(79.46)" style="fill:none;stroke:#3d3c3f;stroke-miterlimit:10;stroke-width:9px"/><path d="M430.25,916c4.7-14-64.6-36.9-84.8,0S422.85,938.07,430.25,916Z" transform="translate(79.46)" style="fill:#3d3c3f"/><line x1="503.11" y1="917.67" x2="512.41" y2="774.77" style="fill:none;stroke:#3d3c3f;stroke-miterlimit:10;stroke-width:9px"/><path d="M573.15,920.47c-4.7-14,64.5-36.9,84.8,0S580.55,942.67,573.15,920.47Z" transform="translate(79.46)" style="fill:#3d3c3f"/><line x1="659.21" y1="917.67" x2="649.91" y2="774.77" style="fill:none;stroke:#3d3c3f;stroke-miterlimit:10;stroke-width:9px"/><g id="f9c39657-09d0-4b0e-afa9-c6ef8fcf0af3"><path d="M597.15,567s118.1,42.4,232.7-113" transform="translate(79.46)" style="fill:none;stroke:#3d3c3f;stroke-miterlimit:10;stroke-width:9px"/><path d="M820.15,555.87c-3.5-18-13.3-108.8-2.9-166.5s-13.7-79-27.4-101-60.1-100.8-36.6-138.9,86,.7,103.4,46.3,9.4,69.2-11.8,168.4-6.5,139,2.2,158.2,23.2,44.4,7.8,54.7S823.65,574.07,820.15,555.87Z" transform="translate(79.46)" style="fill:#e68d00"/><g style="clip-path:url(#clip-path-4)"><path d="M747.45,154.57s16.7-35.5,63.7,5,52.1,97.1,38.3,154.9-45.7,147.5,7.6,268.7l12.3-24.3-27.6-90.6,12.9-99.5,18.5-84.6-1.1-79.1-25.2-36.2L809.65,138l-35.8-11.3-26.1,18Z" transform="translate(79.46)" style="fill:#b86800"/></g><path d="M755,166.37c-3,14.3.7,58.6,29.4,96.2s51.2,30.5,59,11.1-1.9-82.3-39-112.5S758.85,148.07,755,166.37Z" transform="translate(79.46)" style="fill:#ffb94d"/><g style="clip-path:url(#clip-path-5)"><path d="M825.35,173.57s-34.5-18.7-37.9,35.1,30,86.2,45.6,84.7-20.4,18-20.4,18l-50-54.9-22.4-67.2,17.6-63.5,43.4,6.8Z" transform="translate(79.46)" style="fill:#ffca78"/></g><path d="M829.65,417.17s-11.1-28.5-1.2-34.1,14.7,4.1,13.4,16.3.7,31.7.7,31.7Z" transform="translate(79.46)" style="fill:#3d3c3f"/><path d="M840,417.77c-8.3-7.5-29-20.6-36-14.2s-22.3,89.2,30.7,68.5C842.55,469,853.45,429.87,840,417.77Z" transform="translate(79.46)" style="fill:#3d3c3f"/><g style="clip-path:url(#clip-path-6)"><path d="M836.25,413.57s4,71.6-42,39.9l6.8,20.8,22.3,3.1,22.4-8.6L848,419l-11.7-5.4" transform="translate(79.46)" style="fill:#252526"/></g></g><path d="M392.55,520.07s-66.8,206.6-57.5,231.4,87,40.4,172.4,37.3,146-35.7,152.2-45-15.5-101-74.5-239.2Z" transform="translate(79.46)" style="fill:#00d3d4"/><g style="clip-path:url(#clip-path-7)"><path d="M366.85,539.57s56,54.5,189.3,30.3c0,0,134.8,310.4-246.8,160.5l6,43.9,78.8,30.3,252.9-15.1,39.4-59.1-104.6-255.9-224.1,18.2Z" transform="translate(79.46)" style="fill:#00a3b8"/><path d="M402.85,603.77c-1.7,4.1-3.7,8.5-4,12.9-.1,1.8,2.4,1.8,3,.4,1.6-4,2.1-8.5,3.4-12.7.4-1.5-1.8-2-2.4-.6Z" transform="translate(79.46)" style="fill:#bd0097"/><path d="M421.15,650.07c-.5,1.7-1,3.4-1.6,5.1a16.45,16.45,0,0,0-1,4.9c-.1,1.4,2.2,2.1,2.8.8a13.75,13.75,0,0,0,1.3-4.5,50.3,50.3,0,0,1,.9-5.6,1.27,1.27,0,0,0-1-1.5,1.12,1.12,0,0,0-1.4.8Z" transform="translate(79.46)" style="fill:#bd0097"/><path d="M379.15,697c-.9,3.9-2.5,8.2-2.1,12.2a1.63,1.63,0,0,0,1.8,1.6,1.6,1.6,0,0,0,1.4-.8c2.2-3.5,2.6-7.9,3.5-11.8.7-2.9-3.9-4.2-4.6-1.2Z" transform="translate(79.46)" style="fill:#bd0097"/><path d="M397.45,657.37,397,659a4,4,0,0,0-.3,1.5.68.68,0,0,0,1.1.5,12,12,0,0,0,1.3-3.1c.4-1-1.3-1.5-1.6-.5Z" transform="translate(79.46)" style="fill:#bd0097"/><path d="M405.25,728.27l-.5,1.9a.89.89,0,0,0,.6,1,.72.72,0,0,0,.9-.5l.5-1.9a.73.73,0,0,0-.6-.9A.67.67,0,0,0,405.25,728.27Z" transform="translate(79.46)" style="fill:#bd0097"/><path d="M387.15,745.27c-.5,1.5-1.1,3.8-.3,5.2a.48.48,0,0,0,.6.2c.1-.1.2-.1.2-.3a16.2,16.2,0,0,0,.1-2.2,10.87,10.87,0,0,1,.4-2.6A.52.52,0,1,0,387.15,745.27Z" transform="translate(79.46)" style="fill:#bd0097"/><path d="M351,734.27c.4-.9.9-1.7,1.3-2.6a6.12,6.12,0,0,0,.5-1.2,2.85,2.85,0,0,0,0-1.3.72.72,0,0,0-.9-.5h-.1a2.7,2.7,0,0,0-.8.7,5.78,5.78,0,0,0-.5,1.4l-.9,2.7a.83.83,0,0,0,.6,1,.48.48,0,0,0,.8-.2Z" transform="translate(79.46)" style="fill:#bd0097"/><path d="M360.05,672.57a16.29,16.29,0,0,0,.8-4.3,1.45,1.45,0,0,0-1.5-1.4,1.52,1.52,0,0,0-1.2.7,15.57,15.57,0,0,0-1.5,4.1C356,673.87,359.55,674.77,360.05,672.57Z" transform="translate(79.46)" style="fill:#bd0097"/><path d="M592.85,569.07l.5,1c.2.3.7,0,.5-.3l-.5-1C593.15,568.47,592.65,568.77,592.85,569.07Z" transform="translate(79.46)" style="fill:#de6400"/><path d="M609.25,623.17a21.86,21.86,0,0,1,.3,3.6,17.9,17.9,0,0,0,.2,4,3.48,3.48,0,0,0,6.7-1.9,14.34,14.34,0,0,0-1.4-3.4,17.6,17.6,0,0,1-1-3,2.52,2.52,0,0,0-2.7-1.8,2.65,2.65,0,0,0-2.1,2.5Z" transform="translate(79.46)" style="fill:#a6007f"/><path d="M601.45,672.77a31.82,31.82,0,0,0,1.6,3.2.48.48,0,0,0,.6.2.37.37,0,0,0,.2-.5c-.3-1.1-.8-2.3-1.2-3.4a.75.75,0,0,0-.9-.4.81.81,0,0,0-.3.9Z" transform="translate(79.46)" style="fill:#a6007f"/><path d="M625.75,670.47a68.67,68.67,0,0,0,2.7,8.8,1.3,1.3,0,0,0,2.4-.6,68,68,0,0,0-2.2-8.9,1.54,1.54,0,0,0-1.9-1,1.45,1.45,0,0,0-1,1.7Z" transform="translate(79.46)" style="fill:#a6007f"/><path d="M611.75,722.27c.1,3.2-.2,6.6,1.6,9.4a1.63,1.63,0,0,0,2.3.5,1.6,1.6,0,0,0,.7-.9c.9-3.3-.4-6.3-1.3-9.4A1.67,1.67,0,0,0,611.75,722.27Z" transform="translate(79.46)" style="fill:#a6007f"/><path d="M568.35,583.17a10.08,10.08,0,0,1,.5,2.5c.1,1.6,1.2,3.3,3.1,2.8,2.8-.8,2.1-4.6,1.4-6.7a2.65,2.65,0,0,0-3.2-1.8A2.57,2.57,0,0,0,568.35,583.17Z" transform="translate(79.46)" style="fill:#a6007f"/><path d="M592.45,586.17c.8,2.1,1.1,4.4,2.2,6.5.7,1.4,2.6.6,2.7-.7.3-2.5-.9-4.8-2-7-.8-1.6-3.6-.5-2.9,1.2Z" transform="translate(79.46)" style="fill:#a6007f"/><path d="M588.15,634.57a27.64,27.64,0,0,0,2.3,7.4,1.46,1.46,0,0,0,2,.5,1.52,1.52,0,0,0,.7-1.2,24.44,24.44,0,0,0-1.5-7.6,1.81,1.81,0,1,0-3.5.9Z" transform="translate(79.46)" style="fill:#a6007f"/><path d="M641.05,714.87c1,1.8,1.3,3.7,2.1,5.5a1.13,1.13,0,0,0,1.5.4c.3-.1.4-.4.5-.7.4-2.3-.5-4.7-1.6-6.7-.8-1.6-3.4-.1-2.5,1.5Z" transform="translate(79.46)" style="fill:#a6007f"/><path d="M579.75,758.17c.5,2.2,1,4.4,1.7,6.6a1.39,1.39,0,0,0,1.7.9,1.35,1.35,0,0,0,.9-1.7c-.3-2.2-.9-4.4-1.4-6.6C582.25,755.47,579.25,756.27,579.75,758.17Z" transform="translate(79.46)" style="fill:#a6007f"/><path d="M583.45,717.47l1.1,6.1" transform="translate(79.46)" style="fill:#ac6b00"/><path d="M574.45,536.07l.9,3.1a3.18,3.18,0,0,0,2.1,2.5,1.67,1.67,0,0,0,1.5-.4c1.6-1.7.2-4.5-.4-6.4-.8-2.5-4.8-1.4-4.1,1.2Z" transform="translate(79.46)" style="fill:#a6007f"/></g><path d="M359.45,244.47s-40.7-17.2-62.4-4.8c0,0,15.4-19.6,104.1-14,0,0-18.6-29.5-74.6-40.4,0,0,60.6-17.1,122.7,31.1,0,0,32.6-63.7,114.9-45,0,0-41.7,31.3-34.2,51.2,0,0,76.1-29.5,110.3-7.8,0,0-28.5,6.3-55.9,20.2,0,0,40.4,3.1,66.8,17.1,0,0-37.4,1.6-41.9,9.3,0,0,101.3,96.4,16.5,213.6s-253.6,88.5-303.6-2.8S290,289.67,359.45,244.47Z" transform="translate(79.46)" style="fill:#00d3d4"/><g style="clip-path:url(#clip-path-8)"><path d="M575.85,170.07,588,161l53,19.4s27.3,86.6,30.3,132.1,4.5,142.3-39.4,192.3-134.8,59.1-134.8,59.1l-92.4-15.1c151.1,7.7,245.2-157.7,192.3-260.5-25.7-50-66.6-65.1-66.6-65.1s-16.7-21.2-4.5-36.3S575.85,170.07,575.85,170.07Z" transform="translate(79.46)" style="fill:#00a3b8"/><path d="M347,279.37c-3.3,3.1-6.6,6.4-8.7,10.4-.7,1.3,1.1,2.9,2.1,1.6,2.9-3.4,5.4-7,8.4-10.1a1.39,1.39,0,0,0,0-1.9,1.27,1.27,0,0,0-1.8,0Z" transform="translate(79.46)" style="fill:#bd0097"/><path d="M318.85,349.77c-1.8,3.7-3.7,8.1-3.4,12.3.3,5.2,7.2,4.9,7.9,0,.5-3.4.4-6.5,1.6-9.7,1.1-3.5-4.5-5.9-6.1-2.6Z" transform="translate(79.46)" style="fill:#bd0097"/><path d="M344.85,326.17a16.51,16.51,0,0,1-1.1,3.6c-.4.9.9,1.4,1.5.9a6.41,6.41,0,0,0,2-4.1,1.18,1.18,0,0,0-2.3-.5c-.1,0-.1,0-.1.1Z" transform="translate(79.46)" style="fill:#bd0097"/><path d="M339.25,400.27a29.65,29.65,0,0,0,2,4.9.62.62,0,0,0,.7.2.48.48,0,0,0,.2-.6,39.43,39.43,0,0,0-1.8-4.8c-.2-.7-1.4-.4-1.1.3Z" transform="translate(79.46)" style="fill:#bd0097"/><path d="M311.25,410.57c.7,3.7.9,10.7,5.3,12a2.44,2.44,0,0,0,2.3-.6c3.2-3.2-.1-9.5-1.3-13.1a3.31,3.31,0,0,0-4.2-2,3.26,3.26,0,0,0-2.1,3.7Z" transform="translate(79.46)" style="fill:#bd0097"/><path d="M341.45,448c.6,1.4,1.2,2.9,1.8,4.3a4.58,4.58,0,0,0,2.8,3.1,1.43,1.43,0,0,0,1.5-.6,4.57,4.57,0,0,0-.3-4.1c-.6-1.3-1.2-2.9-1.9-4.3-1-2.2-4.8-.6-3.9,1.6Z" transform="translate(79.46)" style="fill:#bd0097"/><path d="M382.45,518.17a9.5,9.5,0,0,1,1.7,1c-.2-.1,0,0,.1,0l.3.3a3.6,3.6,0,0,0,1.2.8,2.15,2.15,0,0,0,2.3-.2,1.9,1.9,0,0,0,.7-2.2c-.5-1.8-2.4-3.1-3.9-4a2.37,2.37,0,0,0-3.3.9,2.69,2.69,0,0,0,.9,3.4Z" transform="translate(79.46)" style="fill:#bd0097"/><path d="M350.45,491.87a7.22,7.22,0,0,0,1.4,2.4,2.85,2.85,0,0,0,2.7,1,1.43,1.43,0,0,0,1.2-.6,1.74,1.74,0,0,0,.3-1.4c-.1-.2-.1-.4-.2-.6a2.85,2.85,0,0,0-.8-1.4c.1.2.2.3.1,0-.1-.1-.1-.2-.2-.3-.2-.4.1.5,0,0l-.1-.4A2.29,2.29,0,0,0,352,489a2.41,2.41,0,0,0-1.5,2.9Z" transform="translate(79.46)" style="fill:#bd0097"/><path d="M369.85,487.47a57.44,57.44,0,0,0,4.5,4.1.42.42,0,0,0,.6-.6h0c-1.3-1.6-2.7-3-4.1-4.5C370.15,486,369.25,486.87,369.85,487.47Z" transform="translate(79.46)" style="fill:#bd0097"/><path d="M368.35,354.67l-.5,1.4a.62.62,0,0,0,1.2.3l.5-1.4A.62.62,0,0,0,368.35,354.67Z" transform="translate(79.46)" style="fill:#bd0097"/><path d="M381.05,256c-1.8,2.7-3.7,5.3-5.4,8.1a1,1,0,0,0,.2,1.4,1,1,0,0,0,1.4-.2c2.3-2.3,4.5-4.7,6.8-7.1,1.8-1.9-1.5-4.5-3-2.2Z" transform="translate(79.46)" style="fill:#bd0097"/><path d="M625.45,433.87a22.18,22.18,0,0,1-3.9,4.7,1,1,0,0,0,.1,1.4.9.9,0,0,0,1.1.1,12.41,12.41,0,0,0,4.9-5,1.32,1.32,0,0,0-.6-1.7,1.47,1.47,0,0,0-1.6.5Z" transform="translate(79.46)" style="fill:#a6007f"/><path d="M583,489.27c2.9-1.8,6.1-3.5,8.2-6.3,1.6-2.3-1.1-6.2-3.9-5.1-3.3,1.4-5.5,4-8,6.5S580,491.17,583,489.27Z" transform="translate(79.46)" style="fill:#a6007f"/><path d="M624.65,395.87a7.53,7.53,0,0,1-1.9,3.9" transform="translate(79.46)" style="fill:#a57100"/><path d="M650.35,358.17c.2,4-.5,7.9-.2,11.9.1,2.1,3.2,3.3,4.3,1.2,2.2-4.2,2.2-8.5,1.8-13.1-.4-3.7-6.1-3.8-5.9,0Z" transform="translate(79.46)" style="fill:#a6007f"/><path d="M622.45,323.67a38.15,38.15,0,0,0,1.4,7.5.89.89,0,0,0,1,.6.76.76,0,0,0,.6-.8,47.72,47.72,0,0,0-.7-7.6,1.2,1.2,0,0,0-2.4,0,.37.37,0,0,1,.1.3Z" transform="translate(79.46)" style="fill:#a6007f"/><path d="M605.45,278a17.6,17.6,0,0,0,4.6,5.2,1.42,1.42,0,0,0,1.9-.4,1.52,1.52,0,0,0-.1-2,29.72,29.72,0,0,1-3.3-4.6c-1.1-2-4.2-.2-3.1,1.8Z" transform="translate(79.46)" style="fill:#a6007f"/><path d="M565.35,236.77a27.49,27.49,0,0,0,3.6,5.3c.5.6,1.3-.2,1-.8a35.75,35.75,0,0,0-3.4-5.2c-.5-.7-1.7,0-1.2.7Z" transform="translate(79.46)" style="fill:#a6007f"/><path d="M625.45,352l-.7,5.3c-.1.7,1,.7,1.1,0l.6-5.3c.1-.7-.9-.6-1,0Z" transform="translate(79.46)" style="fill:#a6007f"/><path d="M543.85,516.77c2-1.5,4.1-2.8,6.1-4.2s3.9-2.7,5-4.8a1.6,1.6,0,0,0-.7-2.3,1.88,1.88,0,0,0-.8-.2c-4.9-.1-9.3,4.5-12.7,7.6-2,1.9.8,5.6,3.1,3.9Z" transform="translate(79.46)" style="fill:#a6007f"/><path d="M392.55,480.47c-7.5-3.2-25.5-15.1,7.6-54.5a71.17,71.17,0,0,0,42.4,10.6C445.35,436.37,442.55,501.67,392.55,480.47Z" transform="translate(79.46)" style="fill:#00a3b8"/><path d="M451.65,438.07s-3.7,32.2,21.2,30.3c19.7-1.5,9.1-31.8,9.1-31.8Z" transform="translate(79.46)" style="fill:#00a3b8"/><ellipse cx="531.48" cy="322.6" rx="67.1" ry="48" transform="translate(208.18 796.24) rotate(-80.88)" style="fill:#00a3b8"/><ellipse cx="420.97" cy="322.58" rx="48" ry="67.1" transform="translate(33.66 70.8) rotate(-9.12)" style="fill:#00a3b8"/></g><ellipse cx="526.15" cy="322.69" rx="56.7" ry="35" transform="translate(187.13 776.37) rotate(-78.83)" style="fill:#fff"/><ellipse cx="515.76" cy="314.9" rx="12.8" ry="7.9" transform="translate(186.39 759.9) rotate(-78.83)" style="fill:#3d3c3f"/><ellipse cx="428.26" cy="322.88" rx="35" ry="56.7" transform="translate(25.04 89.07) rotate(-11.17)" style="fill:#fff"/><ellipse cx="441.77" cy="314.98" rx="7.9" ry="12.8" transform="translate(26.82 91.53) rotate(-11.17)" style="fill:#3d3c3f"/><path d="M396.15,425s-31.9,41.3,1.8,53.5,40.2-42.4,40.2-42.4Z" transform="translate(79.46)" style="fill:#fff"/><path d="M448.75,439.87s-1,27.9,17.7,27,12-30.7,12-30.7Z" transform="translate(79.46)" style="fill:#fff"/><path d="M373,391.17c0,.3,15.2,92.9,205.8,14.2" transform="translate(79.46)" style="fill:none;stroke:#3d3c3f;stroke-linecap:round;stroke-miterlimit:10;stroke-width:4px"/><path d="M23.55,1057.17S-6.65,1079,1.35,1085s38.2,14.7,122.1-.2h0l-60.6,60.7s11.5,19.5,90.5,6.5,222-61,270-32l43,52s33-8,74-32,85-26,149-11l76.3,22.7s38.7-9.7,51.7-22.7,116-5.9,116-5.9,178.8-9.1,236.4-14.1,228.6-73,70.6-94-516-24-516-24l-700.8,66.2" transform="translate(79.46)" style="fill:#797c76;opacity:0.7599999904632568;isolation:isolate"/><path d="M171.35,623s-11,171-16,206-51,154-71,170-87,67-83,76,17.5,14.5,64.5,6.5,76-19,76-19-45,40-66,55-35,29,10,32,117-11,149-26,112-52,146-20,64,72,85,68,46-52,75-67,65-19,104,10,105,45,129,35-41-44-33-65,87,26,130,34,90,8,75-9-58-41-43-41,65,4,21-24-66-45-86-95-56-168.8-56-278c0-35-4-48-4-48h-43Z" transform="translate(79.46)" style="fill:#b06208"/><g style="clip-path:url(#clip-path-9)"><path d="M426.35,778.47c-2.2,43.4-7.4,86.7-9.5,130.2-.1,1.5,2.5,1.9,2.7.4,6.3-43.3,7-86.8,7.8-130.5a.47.47,0,0,0-.5-.5C426.55,778.07,426.35,778.17,426.35,778.47Z" transform="translate(79.46)" style="fill:#803a00"/><path d="M579.55,804.57c-.2,44.9,3.3,89.6,5,134.5,1.7,44.2-.1,88.8,5.4,132.8a236.08,236.08,0,0,0,8.9,40c1.3,4.3,2.5,9,4.9,12.9,2.1,3.5,5.3,6.9,7.9,10.1,3.6,4.4,8,7.8,12.5,11.4,6.5,5.1,17.4,4.2,19.6-5.2,2.8-11.9,5.9-24.4,3.4-36.6-2.2-10.5-4.2-21.1-6.5-31.6-4.8-21.5-10.2-42.9-15.1-64.4-9.8-43.1-19-86.2-26.9-129.6-2.2-12.1-5-24-7.4-36a378,378,0,0,1-5.6-38.2c-.4-3.9-6.1-4-6.1-.1Z" transform="translate(79.46)" style="fill:#803a00"/><path d="M648,1001.37a182.3,182.3,0,0,1-2.4,20.7c-1.1,7.2-.8,14.2-.5,21.4.5,14.4,3.6,28.9,6.2,43.1,2.5,13.9,5.8,27.6,9.5,41.2,1.8,6.5,3.5,13,5.6,19.4,2.4,7.2,3.8,14,10.8,17.9a5.59,5.59,0,0,0,7.4-1.9c4.1-6.7,2.1-13,.9-20.2-1.2-7-2.6-13.9-3.8-20.9-2.5-13.6-4.7-27.2-7.2-40.9s-3.9-27.3-7.2-40.7c-1.7-6.9-3.1-13.6-5.7-20.2a139.78,139.78,0,0,1-6.7-19.8c-1-4-6.7-2.9-6.9.9Z" transform="translate(79.46)" style="fill:#803a00"/><path d="M631.15,1027c-.7,5.8-1.8,11.8-2.1,17.6s.6,11.8.9,17.6c.8,12.6,3,24.8,5.2,37.2,2.1,11.6,4.5,23.1,6.1,34.8s1.5,26.8,9.7,36.1c5.4,6,14.6,2.3,16.9-4.5,2-6.1.5-13.3-.9-19.4-1.3-5.7-2.6-11.5-3.9-17.2a322.55,322.55,0,0,1-5.2-33.9c-1.4-11.8-2.5-23.6-4.6-35.3-1-5.7-1.7-11.6-3.1-17.3-1.4-5.9-3.8-11.7-5.7-17.5-2.5-7.7-12.4-5.6-13.3,1.8Z" transform="translate(79.46)" style="fill:#803a00"/><path d="M551.15,919.77c-.8,15.7-2.4,31.8-1.9,47.4.5,15.1,3.3,30.4,4.8,45.4a405,405,0,0,1,2.5,45.4c-.1,15.1-.8,30.1-1.6,45.3a232.22,232.22,0,0,0,0,23.6c.7,11.4,2,26.6,15.4,30.2,13,3.6,22.3-8.3,22.5-20.4.1-4.3-1-8.5-1.9-12.7-.9-4.5-1.6-9.1-2.7-13.5-3.7-14.6-9.1-28.6-12.3-43.3-1.5-7-3.2-14-4.6-21-1.5-7.7-1.9-15.8-2.7-23.6-1.8-17-2.2-34.2-2.9-51.3-.4-8.8-2.4-17.6-3.8-26.3s-2.7-17.3-4-26c-.5-4.2-6.6-2.9-6.8.8Z" transform="translate(79.46)" style="fill:#803a00"/><path d="M552.15,979.67c-1.7,7-3,14.8-2.2,22,.8,7.8,4.5,15,8,21.9.8,1.5,1.6,3,2.3,4.5a24,24,0,0,1,1.1,2.3c-.8-1.9-.7-1.8,0,.2a41.15,41.15,0,0,1,1.3,4.7l.3,1.6c.4,2.4.4,2.2-.1-.8,1.2,1.7.1,7.7,0,9.7-.2,3.4-.1,6.7-.3,10.1-.6,14.2-2.9,28-1.2,42.2,1,8.9,2.1,18.4,4.8,27,2,6.6,6.6,13,11.4,17.8,4.4,4.5,9.5,6.2,15.3,7.6a18.17,18.17,0,0,0,19.8-8,21.41,21.41,0,0,1,1.3-1.9l-2.2,2.9c3-4,5.2-7,6.4-12a48.63,48.63,0,0,0,.1-20.8c-.9-3.6-2-7.1-2.7-10.7-.4-1.8-.7-3.6-1.1-5.4l-.3-1.8c-.5-3-.4-2.4.2,1.6-1.3-2.5-.9-8.2-1.2-11-.3-3.2-.5-6.3-.7-9.5-.4-6.8-.6-13.7-1.4-20.5a82.15,82.15,0,0,0-7.3-26.7,62.94,62.94,0,0,0-13.5-18.5c-9.3-8.8-19.8-15.8-23.6-28.5-2.1-6.9-12.8-7.3-14.5,0Z" transform="translate(79.46)" style="fill:#803a00"/><path d="M704.75,876.77c1.1,17.9,2.3,36.1,5.8,53.7q2.7,13.8,6,27.6c2.1,8.9,3.3,17.9,4.8,26.9,2.7,15.8,5.1,31.6,6.7,47.6a291.28,291.28,0,0,0,8.5,47.3,111.26,111.26,0,0,0,10.7,25.4c5.7,9.8,14.5,17.5,25.5,20.5,8,2.2,19-4.3,17.9-13.7-1-9-3-17.3-7.3-25.3-1.6-2.9-3-5.9-4.4-9-1-2.1.5,1.2.6,1.3-.6-1.2-1.1-2.7-1.6-3.9-1-2.5-2.2-4.9-3.3-7.3-.8-1.6-1.5-3.3-2.2-4.9,1.4,3.2.2.5-.4-1.1-1.4-3.4-2.6-6.9-3.8-10.4-2.4-7-4.4-14.2-7-21.2-5.6-15.3-11.9-30.3-18.1-45.4-3.3-8.1-7-16.2-9.6-24.5-2.8-8.6-4.6-17.6-6.7-26.4-4.5-19.5-9.9-38.8-14.3-58.3-1-4.3-8.1-3.4-7.8,1.1Z" transform="translate(79.46)" style="fill:#803a00"/><path d="M838.25,996.47c6,9.7,12,19.4,18.3,28.9,6.4,9.7,13.8,18,21.5,26.6a155.07,155.07,0,0,0,26,22.5c4.4,3.1,9.1,5.9,13.7,8.8,6,3.8,10.8,7.2,18.1,7.3,8.5.1,11.3-9.8,6.5-15.6-3.9-4.8-9.1-6.3-14.3-9.2a110,110,0,0,1-13.5-9.1c-8.2-6.1-16.1-12.9-23.9-19.6-8.1-7-15.8-14.6-23.9-21.6-8.3-7.2-16.4-14.7-24.4-22.1-2.2-2-5.7.5-4.1,3.1Z" transform="translate(79.46)" style="fill:#803a00"/><path d="M382.45,937.57c-4.9,16.4-8.8,33.2-10.5,50.2-1.6,16.7-3.1,33.5-4.8,50.2-.9,8.3-1.8,16.7-2.8,25-.3,2.2-.5,4.3-.8,6.5s0,0,.1-.3c-.2,1.2-.3,2.4-.5,3.6-.6,4.2-1.2,8.4-1.9,12.6-2.6,16.2-6.2,32.3-9.3,48.4-.8,4.2-1.8,8.4-2.7,12.5-.7,3.2-1,6.3-1.4,9.6l-.3,2.7c-.3,2.6.6-3.7-.1.6-1.7,10.6-3.3,23.9,5.5,32,10.6,9.8,23.5.1,30-9.3,2.9-4.2,4.4-9.4,6.3-14.1a83.67,83.67,0,0,0,4.3-13.1c7.6-34.1,7.5-69,6.4-103.7-.6-18.9-1.6-37.8-2.6-56.7-.9-19.1-3.6-37.9-6.6-56.7-.8-4.4-7.1-3.7-8.3,0Z" transform="translate(79.46)" style="fill:#803a00"/><path d="M375.55,969.17c-2.5,8.8-7,16.6-9.8,25.2s-4.6,17.4-7.1,26.1c-5.1,17.7-10.7,35.2-16.6,52.6-2.8,8.2-5.6,16.5-8.7,24.6-1.3,3.6-2.7,7.2-4.2,10.7-.7,1.8-1.5,3.6-2.2,5.3-.2.6-2.7,6.5-1.4,3.4s-1.3,2.8-1.5,3.3c-.8,1.7-1.6,3.4-2.5,5-1.5,2.9-2.9,5.9-4.1,8.9-.2.6-2.6,6.3-1.2,3.3s-1.4,2.7-1.6,3.2a66.48,66.48,0,0,0-3.3,8.4,29.54,29.54,0,0,0-1,15.6c.8,4.3,5.5,9.4,10,10,7.2,1,12.4.4,18.7-3.4a48.5,48.5,0,0,0,11-9.2c3.3-3.8,6.8-7.7,9.2-12a127.68,127.68,0,0,0,6.7-15.7c5.9-15.6,8.5-32.3,11.4-48.8,3.4-19.2,6-38.5,8-57.9,1-9.5,2-19.1,2.5-28.6s-1.7-19.2-1.8-28.8c.1-5.8-8.7-7.1-10.5-1.2Z" transform="translate(79.46)" style="fill:#803a00"/><path d="M179.05,982.47c-8.2,10.8-16.3,21.6-25.5,31.6s-16.6,21.2-26.5,30.5c-9.7,9.2-20.7,17-31.6,24.8-5.9,4.2-11.9,8.2-17.9,12.1s-12.8,9-14.4,16.3a6.52,6.52,0,0,0,4.4,7.8c7.7,1.9,15.3-1.8,21.7-5.8s12.7-8,18.9-12.2a200.33,200.33,0,0,0,33.8-29.2c9.5-10.2,19.9-21.6,26-34.2a237.33,237.33,0,0,0,15.4-39.8c.8-2.9-2.7-3.9-4.3-1.9Z" transform="translate(79.46)" style="fill:#803a00"/><path d="M729.75,861.47c4.8,23,10.1,45.8,15.5,68.7s10.6,45.7,19.2,67.7a1.19,1.19,0,0,0,1.5.7,1.15,1.15,0,0,0,.7-1.3c-4.5-23.1-11.7-45.4-18-68s-12.2-45.3-17.7-68.1a.62.62,0,0,0-1.2.3Z" transform="translate(79.46)" style="fill:#803a00"/><path d="M742,786.17c3.4,38.8,4.6,78.6,16.2,116,.8,2.5,5.1,2.2,4.8-.7-4.4-38.8-15.1-76.6-19.5-115.4-.1-.9-1.6-.9-1.5.1Z" transform="translate(79.46)" style="fill:#803a00"/><path d="M804.25,944.57c3.8,12.2,6.5,24.7,10.5,36.8,3.9,11.7,8.4,23,13.3,34.3.6,1.4,2.8.4,2.4-1-3.3-12.1-6.8-23.8-11.2-35.6s-10-23-14.4-34.7c-.1-.2-.7-.1-.6.2Z" transform="translate(79.46)" style="fill:#803a00"/><path d="M627,839.27c.8,12,.8,24.1,2,36.1s2.5,23.9,4.3,35.8,3.7,23.8,5.8,35.7c2.2,12.1,3.7,24.7,7.1,36.4.3,1.2,2.3,1,2.2-.3-.8-11.9-3.3-23.9-4.8-35.8s-3-23.9-4.3-35.9c-1.3-11.7-2.8-23.3-4.2-35-1.5-12.4-3.8-24.6-5.2-37-.1-1.9-3-2-2.9,0Z" transform="translate(79.46)" style="fill:#803a00"/><path d="M621.65,745.87c1.6,18.6,2.5,37.1,5.3,55.5.4,2.6,4.8,2,4.6-.6-1.6-18.6-5-36.8-7.7-55.2-.1-1.2-2.3-1-2.2.3Z" transform="translate(79.46)" style="fill:#803a00"/><path d="M575.85,738.87l1.9,8.2c.2.8,1.4.5,1.3-.3l-1.6-8.3a.82.82,0,1,0-1.6.4Z" transform="translate(79.46)" style="fill:#803a00"/><path d="M568.75,701.07c1.1,21,1.7,41.9,5.8,62.6.3,1.5,2.6,1.1,2.6-.3,0-21.2-3.4-41.7-6.3-62.5a1.07,1.07,0,0,0-2.1.2Z" transform="translate(79.46)" style="fill:#803a00"/><path d="M744.35,695.67c2.4,25.2,4.5,50.5,7.4,75.7,1.4,12.5,2.9,24.9,3.7,37.5.7,12.8,1.4,25.7,2.1,38.5a.4.4,0,0,0,.8,0c-.3-12.9-.8-25.7-1.6-38.5s-1-25.7-1.8-38.5c-1.7-25.1-4.6-50.2-8.8-75-.3-.8-1.9-.6-1.8.3Z" transform="translate(79.46)" style="fill:#803a00"/><path d="M524.45,808.17c1.6,19.6,3.3,39.1,5.6,58.6.1.8,1.4.8,1.3,0-1.2-19.6-3-39.1-5-58.6-.1-1.2-2-1.2-1.9,0Z" transform="translate(79.46)" style="fill:#803a00"/><path d="M532.15,994c.5,20.3,0,41,1.9,61.3a1,1,0,0,0,2,0c.4-20.3-1.7-41-2.6-61.3,0-.8-1.4-.8-1.3,0Z" transform="translate(79.46)" style="fill:#803a00"/><path d="M220,825.87c7.1-18.4,14.3-36.8,21-55.4a346.49,346.49,0,0,0,15.2-57.6,392.82,392.82,0,0,0,6.4-60.3,231.22,231.22,0,0,0-1.2-28.8c-.6-6.2-1.4-12.5-2.4-18.7-1.4-9.2-4.9-15.8-12.8-21.1-9-6-23.1-2-28.1,7.4-4.7,8.8-3.7,16.2-1.1,25.3,1.3,4.8,2.5,9.6,3.6,14.5.9,4.2,1.7,8.5,2.4,12.7.1.7,1.2,8.2.6,4l.9,7.5a363.67,363.67,0,0,1,1.6,56.2c-.9,18.8-2.8,37.5-4.1,56.3-1.3,19.2-3.4,38.3-5.8,57.5-.3,2.4,3.1,2.4,3.8.5Z" transform="translate(79.46)" style="fill:#d98523"/><path d="M184,653.27c-2.5,9.2-5.1,18.3-8,27.3-2.9,9.2-4.6,18.4-6.5,27.8-3.7,18.9-6.5,37.9-10,56.9-6.5,35.6-15.4,71-29.2,104.6-1.2,2.8,1.2-2.6-.1.2a24.43,24.43,0,0,0-1,2.4c-.8,1.9-1.6,3.7-2.5,5.6q-2.85,6.3-6,12.6c-3.9,7.8-8.1,15.5-12.4,23q-6.15,11-13.2,21.6-3.6,5.55-7.5,10.8c-1.2,1.7-2.4,3.3-3.6,4.9-.6.8-2.4,3.4.2-.3-.7,1-1.5,1.9-2.3,2.9-23,28.9-50.2,54.7-76.7,80.3l-43,41.6-21.5,20.8c-3.3,3.2-6.7,6.5-9.9,9.9-6.5,6.9-11.3,13.5-10,23.5,1,7.8,5.6,13.8,13.3,16.2,9.8,3,17.7-.7,25.1-7.1s14.7-13.5,21.9-20.4l43.3-41.3c26.9-25.7,55.1-50.3,78.7-79.1a361.16,361.16,0,0,0,57.1-97.1A543,543,0,0,0,189,798.67c6.9-38.3,13.3-79,7.5-117.8-1.4-9.1-2.6-18.2-3.9-27.3-.6-4.9-7.6-4.3-8.6-.3Z" transform="translate(79.46)" style="fill:#d98523"/><path d="M186,762.47c5.4-3.7,10.6-8.2,13.9-14,3-5.2,4.9-11.6,6.7-17.4,3.7-11.5,6.7-23.2,9.8-34.9,3.1-11.9,8-22.9,11.7-34.6a219.4,219.4,0,0,0,8.5-41.6l-13.2,23,1.9-1-30.4-8s-1.5-4.6-.9-2.3c.2.9.5,1.7.7,2.6a14.16,14.16,0,0,0,.4,2c0,.1-.5-4.8-.3-2.4.4,4.5,1,8.9,1.5,13.4,1,8.8,1.6,17.6,2.4,26.4,1,10,.8,19.8,3.4,29.7,2.2,8.4,4.2,16.9,7,25.1s5.1,21.4,15.4,22.6c12.6,1.5,13-14.1,14-22.8s1.5-17.5,2.1-26.3c.3-4.2.9-8.5.4-12.7-.4-4.6-1.2-9.1-1.5-13.7-.7-10.1-1.3-20.2-1.4-30.3,0-4.5.1-9-.1-13.5-.1-2.4-.4-4.7-.7-7a38.52,38.52,0,0,0-.8-4.9c-.1-.4-.2-.9-.3-1.3-.4-1.3-.2-.9.5,1.3,1.8-16.2-15.9-28-30.1-26.1-16,2.2-26,17.6-22.1,33.2.7,2.7,1.3,5.5,1.8,8.2.3,1.5.5,3,.8,4.6.5,2.8.4,1,0-.7,1.2,5.5,1.2,11.6,1.5,17.2s.3,11.4.2,17.1a61.8,61.8,0,0,1-1.8,14.8c-2.4,10.6-5,21.3-7.9,31.8a129.28,129.28,0,0,1-4.8,14.9c-2,5-2.7,10.5-3.8,15.6-2,8.3,7.3,17.7,15.5,12Z" transform="translate(79.46)" style="fill:#d98523"/><path d="M169.25,619.47c-9.7,17.5-17.3,35.7-24.2,54.5-6.3,17.2-11.3,34.8-17.6,52-2.9,8-5.1,16-7.7,24.1-2.4,7.4-5.4,14.7-7.7,22.1-2.4,7.8-5.9,15.2-8.2,23-1.1,3.5-2.3,7-3.6,10.4-1.9,4.8-1.7,9.5-1.8,14.5-.2,9.9,9.1,15,17.8,13.6,5.1-.8,9.6-1.9,13.9-5.1,4-3,8-6.2,11.8-9.5,7.4-6.5,13-15,18.4-23.1,5.7-8.6,9.5-18,13.3-27.7,3.2-8.1,6.4-16.3,7.9-24.9a498.34,498.34,0,0,0,7.6-60.7c1-19,1.6-38.1,3.1-57.1,1-12.5-17.3-16.6-23.1-6.2l.1.1Z" transform="translate(79.46)" style="fill:#d98523"/><path d="M155.65,1046.07c-14.4,12.1-28.8,24-44.7,34.2-15.2,9.8-31,19.1-47.1,27.4-16.4,8.5-33.4,15.7-49.6,24.5-4.1,2.2-8.1,4.3-12.2,6.4a86,86,0,0,0-15.9,10.2c-3.4,2.7-7,5.2-10,8.4-3.6,3.8-6.5,8.4-9.5,12.7-3.5,4.8-2.9,12.4,0,17.3,3.3,5.7,8.6,7.8,14.8,8.5,3.1.3,6.3.9,9.4,1,5.4.1,10.9-1.2,16.2-2.3,8.9-1.9,16.8-5.6,25-9.6a253.49,253.49,0,0,0,37.8-22.6c24.8-18,47.4-38.9,66.2-63.2,11.1-14.3,20.8-29.4,30.3-44.7,4.2-6.9-5-12.9-10.7-8.2Z" transform="translate(79.46)" style="fill:#d98523"/><path d="M296.05,829.17a219,219,0,0,1,1.6-37.1c1.6-12.7,3-25.5,5.5-38.1,2.4-12.1,3.1-24.3,4.9-36.5.9-6.2,1.9-12.4,2.9-18.7.9-5.9,2.4-11.6,1.1-17.5a2.8,2.8,0,0,0-5-.7c-2.6,5.1-2.8,10.6-3.4,16.2-.7,6.3-1.4,12.5-2.2,18.8-1.6,12.9-4.2,25.5-5.2,38.5-.9,12.4-3,24.7-3.4,37a242.67,242.67,0,0,0,1.2,38.1,1,1,0,0,0,2,0Z" transform="translate(79.46)" style="fill:#de8823"/><path d="M727.85,813.87c.4-13-1.3-26.1-2.4-39.1s-3.6-26-4.2-39.1c-.6-12.7-1.3-25.3-2.1-38-.5-8.5-4.2-20.6-15.1-19.4l2.2,8.2c4.3-2.6,4.7,2.8,4.7,5.7a2.82,2.82,0,0,0,2.9,2.8,2.73,2.73,0,0,0,1.9-.8c3.7-3.2,3.3-8.6.4-12.2a11.8,11.8,0,0,0-13.3-3.5,4.42,4.42,0,0,0,2.4,8.5c6.1-1.2,5.9,8.7,6,12.5a138.69,138.69,0,0,0,1.4,15.7c1.7,11.3,2.7,22.8,3.9,34.2,1.2,10.3,2.6,20.7,4,31,1.6,11.3,2.4,22.7,4.3,33.9.3,1.7,2.9,1.2,3-.4Z" transform="translate(79.46)" style="fill:#de8823"/></g><path d="M231.75,590.47c28-7,113-22,133-22s109-2,127-5,82-5,106,0,76,13,97,18,80,18,83,41-1,36-63,59-117,7-150,17-104,14-151,12-118-27-136-28-117-42-106-59S231.75,590.47,231.75,590.47Z" transform="translate(79.46)" style="fill:#e07900"/><g style="clip-path:url(#clip-path-10)"><path d="M186.35,630c-5-7,12-11,18-21s60-12,78-22c0,0,52-7,66-10s80.7-4,94.9-5,66.1-6,79.1-6,72.4,1.7,87.2,3.4,84.8,14.6,94.8,18.6,55,13,62,27,10,28-7,38-63.2,36.9-106.1,35.5-77.9.5-97.9,6.5-116,19-145,11-91-19-102-23-77-19-93-28S186.35,630,186.35,630Z" transform="translate(79.46)" style="fill:#ffcf6d"/><g style="clip-path:url(#clip-path-11)"><path d="M495,613c-18-2.6-35.4-.6-53.2,2.3-7.2,1.2-15.4,1.9-21.8,5.8-3.3,2-3.8,4.6-.2,6.6,6.2,3.5,14.5,3.3,21.4,3.6,9.4.4,18.7.6,28.1.5s18.7-.4,28.1-1.2c5.9-.5,13-.4,17.9-4.2s4-7.9-1-10.7a41,41,0,0,0-24.5-5.1c-1.1.1-1.2,1.8,0,1.8,7.3-.2,17.4.4,23.5,5,8.4,6.3-3.7,9.8-8.2,10.3-3.5.4-7.1.5-10.6.6-16.8.8-33.6,1.5-50.4,1.5-3.5,0-28.2-.5-24.1-7.2,1.4-2.2,7.9-3.3,10.3-3.9,4.5-1,9.1-1.4,13.6-2,16.7-2.3,34-4.2,50.8-2.5a.62.62,0,0,0,.3-1.2Z" transform="translate(79.46)" style="fill:#c48240"/><path d="M514.35,603.87a269.17,269.17,0,0,0-75-.7c-11.9,1.6-25.3,2.8-36.4,7.7-7,3.1-11.9,9.4-9.4,17.3,2.9,9.3,12.8,13.6,21.4,16.2,11.3,3.5,23.3,4.3,35.2,4.2,12.9-.2,25.8-1.3,38.6-2.6,11.1-1.2,24-1.4,34.2-6,8.7-3.9,14.5-12.5,11.2-22-3.7-10.7-15.3-15.7-25.6-17.8a1,1,0,0,0-1,1,.89.89,0,0,0,.5.8c9.2,3.6,20.2,6.9,23.7,17.3,4,11.8-7.2,18.7-17.2,20.7-10.4,2.1-21.1,2.8-31.7,3.8-10,1-20.1,1.9-30.1,2.3s-20.4.1-30.4-2c-9.5-2-23.1-5.6-26.7-15.8-4.1-12,8.7-16.4,17.7-18.5a245.57,245.57,0,0,1,31.8-5.4,287.9,287.9,0,0,1,68.8.8.68.68,0,1,0,.4-1.3Z" transform="translate(79.46)" style="fill:#c48240"/><path d="M522.25,597.17c-49.3-7.5-101.9-7.2-149.9,8a.37.37,0,0,0-.2.5c.1.2.2.3.4.2,24.5-5.3,49.2-10,74.3-11.6a358.28,358.28,0,0,1,75.3,3.2c.2.1.3-.3.1-.3Z" transform="translate(79.46)" style="fill:#c48240"/><path d="M360.65,613c-7.2,3.5-15.4,7.8-17.2,16.3-1.5,7.5,3.1,11.9,9.5,14.7,20.9,9,45.2,10.9,67.7,13.3,44.4,4.7,92.6,7.4,134.2-12.2,7-3.3,17-9.6,17.7-18.3s-9.8-11.2-15.8-14c-1.2-.5-2.5.9-1.5,1.9,4.2,3.7,15.2,5.8,13.7,13-1.8,8.5-12.3,13.4-19.5,16.4-17.5,7.3-36.4,11.2-55.3,12.8s-38.1,1.1-57.1-.5c-19.8-1.7-39.9-4.2-59.5-7.5-9.2-1.5-21.6-3.2-29.2-8.9-6-4.5-4.6-12.7-.1-17.9,3.4-3.9,8-6.4,12.5-8.8.5-.1.2-.5-.1-.3Z" transform="translate(79.46)" style="fill:#c48240"/><path d="M604.35,601.17c-19.5-11.3-42.7-17.6-64.9-20.4-24.9-3.2-50.4-1.3-75.4-.2-49,2.2-98.6,5.8-145.9,19.6-8.4,2.4-18.4,4.7-24.9,11.1-5.5,5.5-6.2,13.3-2.6,20,4.6,8.5,13.9,12,22.7,14.6,12,3.5,24.3,5.6,36.7,7.5,49.2,7.9,99.3,6.5,148.9,3.3,27.1-1.8,54.9-2.9,81-10.9,11.8-3.6,24.5-8.2,35-14.8,8.2-5.2,15.2-14.2,11.5-24.3-.4-1.1-2.2-.7-1.8.5,4.5,12.9-8.5,20.9-18.3,25.5a229.49,229.49,0,0,1-32.3,12.5c-22.1,6.8-44.7,7.8-67.5,9-22.5,1.2-45,2.8-67.6,3.2s-45.7.5-68.2-1.8a351.61,351.61,0,0,1-35.4-5.4c-10.5-2.2-22.4-3.6-32-8.6-10-5.2-18.9-18.6-9.1-28.5,6.6-6.7,17.7-8.9,26.4-11.4,43.9-12.4,89.6-16.3,135-18.8,25.2-1.4,50.8-3.9,75.9-1.6,12.3,1.1,24.9,3.1,36.7,6.9a340,340,0,0,1,35.4,14.3c.8.4,1.6-.8.7-1.3Z" transform="translate(79.46)" style="fill:#c48240"/><path d="M646.45,601.47c11.9,3.7,15,19.5,10.2,29.8-5.9,12.6-20.3,18.5-32.8,22.3-30.6,9.2-63.6,11.4-95.3,14.7-63.4,6.6-128.1,9.3-190.7-5-16.9-3.9-34-8.6-49.9-15.6-6.9-3-14.2-7.2-17.8-14.1s-3.3-15.7,2.6-21.1c.7-.6-.2-1.8-1-1.3-8.8,6.5-7.6,19.3-1.2,27.2,9.1,11.1,25.9,15.3,38.9,19.4,33.6,10.7,68.8,15.8,103.9,17.4,37.5,1.7,75-.6,112.3-4.3,18.5-1.8,37.1-3.8,55.6-6.3,17.1-2.3,34.5-5.3,50.7-11.5,12.3-4.7,26.1-13.1,28.7-27.2,1.9-10.5-3-22.2-13.9-25.1a.27.27,0,0,0-.3.3c-.2.2-.1.4,0,.4Z" transform="translate(79.46)" style="fill:#c48240"/><path d="M590.25,577.67c18.9,4,38,7.2,56.8,11.5,15.2,3.5,39.2,11.4,40,30.4a.5.5,0,0,0,1,0c.9-16.9-19.9-26.5-33.3-30.2-20.9-5.9-42.9-8.7-64.2-12.4-.6-.2-.8.6-.3.7Z" transform="translate(79.46)" style="fill:#c48240"/><path d="M670.75,640.27c-10.5,10.4-25,14.5-39.2,17.1-16.7,3.1-33.6,5.5-50.5,7.6a934.31,934.31,0,0,1-103,6.9c-19.5.3-38.9-.2-58.4-.7a.75.75,0,1,0,0,1.5c35.9,2.5,72.2,1.8,108.1-.7,34.3-2.4,69.1-5.4,102.9-12.2,14.9-3,29.8-7.9,40.3-19.4,0-.1,0-.2-.1-.2l-.1.1Z" transform="translate(79.46)" style="fill:#c48240"/><path d="M278.75,595.67a102.88,102.88,0,0,0-31.2,8.7c-8.1,3.8-19.7,9.3-24,17.8s4.7,14.6,10.7,18.7c9.7,6.6,20.8,11.6,31.6,16.3,45.4,19.8,96.5,26.3,145.7,27.1,30.5.5,60.9-1.3,91.2-4.2.5,0,.5-.9,0-.8-47.4,3.4-95.1,5.5-142.4-.2a376.85,376.85,0,0,1-66.4-13.9c-10.4-3.2-20.7-6.9-30.7-11-10.3-4.2-20.7-8.7-29.7-15.4-6.7-5-13.4-11.6-6-19.6,4-4.3,9.6-7.8,14.6-10.8a91.5,91.5,0,0,1,36.7-12.1.31.31,0,1,0-.1-.6Z" transform="translate(79.46)" style="fill:#c48240"/><path d="M479.85,692.77a1078.87,1078.87,0,0,0,155.5-9.8c21.7-2.9,44-5.9,64.7-13.3a93.08,93.08,0,0,0,25.3-13.4c6.7-5.2,14.4-12.1,15.8-20.9,1.6-10.1-5.9-18.4-13.3-24a78.62,78.62,0,0,0-32.9-14.5c-1-.2-1.4,1.3-.4,1.5a78,78,0,0,1,29.1,13c8.7,6.3,18.2,16.1,13.7,27.7-3.6,9.2-13,16.4-21.2,21.4a113.08,113.08,0,0,1-26.2,11.4c-20.2,6-41.7,8.2-62.5,10.9-22.8,3-45.8,5.3-68.8,7-26.2,1.9-52.6,2.7-78.9,2.9a.22.22,0,0,0-.2.2c.2-.1.2,0,.3-.1Z" transform="translate(79.46)" style="fill:#c48240"/><path d="M709.45,620.37c7,3.8,14.7,9.8,9.9,18.8-3.8,7-12.9,9.8-19.9,12.4-13.7,5.1-28.1,8.3-42.2,12.1a.63.63,0,0,0-.3.8.62.62,0,0,0,.6.4c9.8-2,19.5-4.2,29.1-7,8.9-2.6,18.6-5.2,26.5-10.2,5.2-3.3,9.9-8.8,9-15.3s-7.1-9.8-12.4-12.4c-.3-.3-.6.2-.3.4Z" transform="translate(79.46)" style="fill:#c48240"/><path d="M743,610.17c10.5,2.4,20.2,11.5,17.6,23.2-2.2,10.1-12.7,15.2-21,19.5-.8.4-.1,1.5.7,1.1,10.1-4.3,22.2-10.9,22.6-23.4.4-11.4-9.3-19.4-19.7-21.3-.6-.1-.8.8-.2.9Z" transform="translate(79.46)" style="fill:#c48240"/><path d="M301.75,594c30.4-2.9,60.9-3.9,91.3-6.7.7-.1.7-1.1,0-1.1-30.6.8-61,4.6-91.3,7.8-.1,0-.1.1,0,0Z" transform="translate(79.46)" style="fill:#c48240"/></g><polygon points="628.21 604.47 716.21 565.47 750.21 571.47 628.21 604.47" style="fill:#803a00"/></g><polygon points="468.21 647.47 357.21 682.47 374.21 809.47 386.31 688.77 468.21 647.47" style="fill:#803a00"/><polygon points="680.21 647.47 794.21 681.47 804.21 805.47 773.71 687.77 680.21 647.47" style="fill:#803a00"/></g></g></g></g></svg>