<svg xmlns="http://www.w3.org/2000/svg" xmlns:xlink="http://www.w3.org/1999/xlink" viewBox="0 0 894.71 936.1"><defs><clipPath id="clip-path" transform="translate(0 29.77)"><path d="M112.57,26.3C119,28.14,141.49,39.07,150,45.07c0,0-3.68,23.11-11.8,29.11L116.92,60.73,122.34,125c-5.11.08-7.64-1.45-15-.1-3.07.57-10,3.15-17.21,2.52-7.06-.62-9.68-3.1-14.51-2.9s-15.86,2.51-24,.58c-11.14-2.66-24-.1-24-.1l5.42-64.22L13.88,73.45C5.75,67.46,0,45.07,0,45.07,8.51,39.07,33.08,28,39.07,26.3c6.34-1.73,22.1-3.77,36-3.77S106.64,24.6,112.57,26.3Z" style="fill:#ff8b00"/></clipPath><clipPath id="clip-path-2" transform="translate(0 29.77)"><path d="M239.88,65s20.76-15.27,44.65,0c0,0,22.91-19,56.79,0,0,0,20.56-18.21,48.56,0,0,0-3.32-59.53-75-59.53S239.88,65,239.88,65Z" style="fill:#ff8b00"/></clipPath><clipPath id="clip-path-3" transform="translate(0 29.77)"><ellipse cx="314.98" cy="5.21" rx="3.95" ry="2.42" style="fill:#ff9a00"/></clipPath><clipPath id="clip-path-4" transform="translate(0 29.77)"><circle cx="554.77" cy="75" r="75" style="fill:#ff8b00"/></clipPath><clipPath id="clip-path-5" transform="translate(0 29.77)"><path d="M851.25,9.24,792.51.4a4.35,4.35,0,0,0-4.86,3.24l-24.77,98.25L860.77,77.2a4.75,4.75,0,0,0,3.54-5.31l-8.78-58.37A5.09,5.09,0,0,0,851.25,9.24Z" style="fill:#ff8b00"/></clipPath><clipPath id="clip-path-6" transform="translate(0 29.77)"><path d="M93.63,298.17h.05a82.27,82.27,0,0,1,11.61-42.72H44.55A81.11,81.11,0,0,1,56.4,297.79a1.09,1.09,0,0,0,0,.26s0,.08,0,.12a53.37,53.37,0,0,0-11.88,95.05,9.7,9.7,0,0,0,1,.58c3,2.92,15.08,5.11,29.52,5.11,14.68,0,26.92-2.26,29.67-5.26a10.26,10.26,0,0,0,1.06-.61,53.37,53.37,0,0,0-12.14-94.87Z" style="fill:#ff8b00"/></clipPath><clipPath id="clip-path-7" transform="translate(0 29.77)"><path d="M500.64,355.68s16.42-42.71,23.82-54.41,30.18-26.9,38.39-29.77,30.39,24.63,37.16,38.6,10.27,42.09,10.68,44.35S573.94,372.72,559.77,375,506.39,372.1,500.64,355.68Z" style="fill:#ff8b00"/></clipPath><clipPath id="clip-path-8" transform="translate(0 29.77)"><path d="M489.76,383.19c-1.45-8.8-.41-24,5.95-28.95s33.88,5.75,52.56,7,53.39-9.24,61-10.06,8,6.41,10.06,14.17,1,12-2.87,19.71-45,12.11-63.65,13.55S492,397,489.76,383.19Z" style="fill:#ffaa39"/></clipPath><clipPath id="clip-path-9" transform="translate(0 29.77)"><path d="M542,267.18c.07-.16-.45-2.62.18-3.54,1.15-1.68,2.48-2.3,2.48-3.19s.35-5.66,2.12-6.72a75.85,75.85,0,0,1,9.21-4.25c2.48-.88,10.26-.88,11.5,1.06s5.84,4.78,9.38,6.2a5.77,5.77,0,0,1,3.72,7.08c-.71,2.48.89,6.19,0,10.09s-3.72,5.48-6,6.9-7.78,3.89-15.75,3.19-12.21-4.07-13.81-6-.7-4.6-1.06-5.67S540.78,270.19,542,267.18Z" style="fill:#ffaa39"/></clipPath><clipPath id="clip-path-10" transform="translate(0 29.77)"><ellipse cx="803.21" cy="294.14" rx="31.73" ry="4.59" style="fill:#f4e1cb"/></clipPath><clipPath id="clip-path-11" transform="translate(0 29.77)"><path d="M753.8,253l32.45-4a4.06,4.06,0,0,1,4.48,3.32l23.73,135.46h-5.37l-24-131.86-30,2.91S752,257.2,753.8,253Z" style="fill:#ea2727"/></clipPath><clipPath id="clip-path-14" transform="translate(0 29.77)"><path d="M830.36,339.81H775.29l2.91,51.27h0v.11c0,2.53,11,4.59,24.62,4.59s24.63-2.06,24.63-4.59a.37.37,0,0,0,0-.11h0Z" style="fill:#ff8b00"/></clipPath><clipPath id="clip-path-15" transform="translate(0 29.77)"><ellipse cx="802.82" cy="339.92" rx="27.54" ry="4.59" style="fill:#ff9a00"/></clipPath><clipPath id="clip-path-16" transform="translate(0 29.77)"><path d="M135.79,522.83l-20.75,40a5.9,5.9,0,0,0,1.1,6.92l32.08,31.59a5.91,5.91,0,0,1-5.11,10L98.7,603.94a5.9,5.9,0,0,0-6.25,3.18L72.32,647.4a5.9,5.9,0,0,1-11.11-1.77l-6.7-44.52a5.9,5.9,0,0,0-5-5L5,589.46a5.9,5.9,0,0,1-1.76-11.12l40.27-20.13A5.88,5.88,0,0,0,46.72,552l-7.38-44.42a5.9,5.9,0,0,1,10-5.11L81,534.52a5.91,5.91,0,0,0,6.93,1.1l40-20.75A5.9,5.9,0,0,1,135.79,522.83Z" style="fill:#ff8b00"/></clipPath><clipPath id="clip-path-17" transform="translate(0 29.77)"><path d="M304,508.8h25.89a4.42,4.42,0,0,1,4.42,4.47c-.18,15.51-.45,66.23,3.69,71,4.9,5.62,29.73,29.76,34.83,38.09,3.45,5.62-12.52,30.83-29.57,15-29.93-27.7-32.1-31.74-36.45-38.45-4.1-6.32-4.18-57.48-7.2-85.25A4.41,4.41,0,0,1,304,508.8Z" style="fill:#ff8b00"/></clipPath><clipPath id="clip-path-18" transform="translate(0 29.77)"><path d="M261.47,500.66h29a5,5,0,0,1,5,5c-.21,17.39-.51,74.29,4.14,79.62,5.49,6.31,33.34,33.39,39.06,42.73,3.87,6.31-14,34.59-33.16,16.89-33.58-31.08-36-35.61-40.9-43.14-4.59-7.08-4.68-64.47-8.07-95.62A5,5,0,0,1,261.47,500.66Z" style="fill:#ff8b00"/></clipPath><clipPath id="clip-path-19" transform="translate(0 29.77)"><path d="M497.88,628.39l51.06-123.83a6.29,6.29,0,0,1,11.64,0l51.07,123.83Z" style="fill:#ff8b00"/></clipPath><clipPath id="clip-path-20" transform="translate(0 29.77)"><rect x="481.01" y="623.12" width="147.52" height="27.54" style="fill:#feab3a"/></clipPath><clipPath id="clip-path-21" transform="translate(0 29.77)"><path d="M757.15,561.2s-28.08,11.2-35.06,2.36c-9.25-11.71,9.18-37.39,33.47-43.48C755.56,520.08,769.19,552.72,757.15,561.2Z" style="fill:#ff8b00"/></clipPath><clipPath id="clip-path-22" transform="translate(0 29.77)"><path d="M820.1,607.87s-3.11,30.07,7.3,34.38c13.79,5.7,33.46-19,32.69-44.07C860.09,598.18,825,594,820.1,607.87Z" style="fill:#ff8b00"/></clipPath><clipPath id="clip-path-23" transform="translate(0 29.77)"><path d="M804,579.46c-.94,6.84-1.44,28.53,7.34,32.27s50,1.62,57.07-14.1-17.75-42.86-17.75-42.86Z" style="fill:#ff8b00"/></clipPath><clipPath id="clip-path-24" transform="translate(0 29.77)"><path d="M786.63,572.35c-6.33,2.77-24.8,5.76-30.8-1.66s-15.22-47.7-2-58.75,49.76,6.22,49.76,6.22Z" style="fill:#ff8b00"/></clipPath><clipPath id="clip-path-25" transform="translate(0 29.77)"><path d="M854.86,559.83a9.86,9.86,0,0,0,.18-2.54c-1.13-21.11-14.22-15.49-23.43-23.86-8.51-7.74-12-25.25-32.5-18.72-.67.21-1.33.46-2,.72-11.1-4.37-33.58-11.65-43.34-3.49-2.86,2.39-4.66,6.16-5.68,10.67-20.42,8.8-34.32,30.47-26,40.95,5.12,6.49,21.62,2.18,30-.57a28.07,28.07,0,0,0,3.71,7.7c4.49,5.55,16,5.28,24.1,3.63a11.7,11.7,0,0,0,2.2,3.3c5,5,12.75,7.13,21.43,7.27-.35,9.16.7,23.82,7.77,26.84a28.16,28.16,0,0,0,8.42,1.47c-.35,8.84,0,25.89,7.65,29,12.34,5.1,29.39-14.18,32.28-36.23,4.06-2.21,7.2-5,8.72-8.39C873.55,586.11,861.6,568.43,854.86,559.83Z" style="fill:#d85107;opacity:0.35000000000000003"/></clipPath><clipPath id="clip-path-26" transform="translate(0 29.77)"><path d="M745.64,787.31s1.29-9.47,6.65-12.92,25.84,2.87,34.46-2.68c0,0,.19,5.55-4.21,7.28,0,0,2.3,3.83,7.08,1.34,0,0-.76,6.51-16.85,6.89S745.64,787.31,745.64,787.31Z" style="fill:#ff8b00"/></clipPath><clipPath id="clip-path-27" transform="translate(0 29.77)"><path d="M749.22,836.24c0,1-1.91,10,5.75,14.74s17.8,3.64,19.33,2.68-17.23-7.85-3.25-18.76Z" style="fill:#ff8b00"/></clipPath><clipPath id="clip-path-28" transform="translate(0 29.77)"><path d="M720,811.49a4,4,0,0,1,.26-3.84c3.85-5.93,17.59-24.07,41.58-24.07,28.7,0,53.64,25.92,53.64,25.92s-22.17,31.14-53.31,31.14C735.85,840.64,723.28,818.35,720,811.49Z" style="fill:#ff8b00"/></clipPath><clipPath id="clip-path-29" transform="translate(0 29.77)"><path d="M815.61,805.63s3.9-18.66,18.5-21.91,21.91,21.91,31,24.18c0,0-6.82,8.77-19.47,2.11,0,0,2.92,36,24,41.06,0,0-22.85,36.95-58.42,15.75C795.16,857.24,815.61,805.63,815.61,805.63Z" style="fill:#ff8b00"/></clipPath><clipPath id="clip-path-30" transform="translate(0 29.77)"><path d="M333.53,316.1s7.41,6.81,9.89-2.43c0,0,8.25,9.84,10.81-3.13,0,0,14.79,10.71,12.42-5.83,0,0,15.75.44,13.46-7.35s-16.24-3-16.24-3,1.94-5.15-2.5-6.15-11.63,3-12.5,9.56c0,0-2.84-3.71-6.32-2.51s-6.59,5.78-3.87,10.3c0,0-11.66.11-5.64,8a44,44,0,0,0-7.16,6.94l1.06,1.39Z" style="fill:#35a31a"/></clipPath><clipPath id="clip-path-31" transform="translate(0 29.77)"><path d="M328.51,308s-10.5-5.48-1.27-11.91c0,0-14.18-5.21-.85-13.23,0,0-17.77-12.1,1.49-16.08,0,0-6.78-17.26,2.76-17.84s9.81,16.77,9.81,16.77,4.93-4.2,7.82.32,1.3,14.08-5.59,17.66c0,0,5.23,1.66,5.3,6s-3.76,9.61-9.85,8.4c0,0,4.54,12.95-6.59,9.43a52,52,0,0,1-4.82,10.71l-2-.62Z" style="fill:#35a31a"/></clipPath><clipPath id="clip-path-32" transform="translate(0 29.77)"><path d="M252.57,398.89c-8.51.65,2.78-13.6,4.94-17.46s15.92-25.81,19.78-30.14c3.63-4.06,8.5-7.26,11-12.05s16.22-27.82,21.63-30.6,22.41,2.47,28.9,13-.77,19-9,22.56-28,17.46-30,20.4-17.78,14.06-21.49,18.24S258.59,398.43,252.57,398.89Z" style="fill:#ff8b00"/></clipPath><clipPath id="clip-path-33" transform="translate(0 29.77)"><path d="M80.11,823H18.71l13,63a6.1,6.1,0,0,0,2.69,3.92c5.63,3.61,20.61,7.84,43.3,7.67,15.88-.12,30.52-4.26,37.22-7.71a7.42,7.42,0,0,0,3.87-5.1L131.44,823Z" style="fill:#ea2727"/></clipPath><clipPath id="clip-path-34" transform="translate(0 29.77)"><path d="M4.5,798.4c1.23-5.65,1.44-21.67,12.28-26s21.67-13,26-15.89,36.11-5.78,46.23-5.78,20.22,3.61,26,11.55,24.56,22.39,28.89,29.62,5.06,22.39-3.61,29.61-18.06,0-23.84,3.61-15.16,8-26.72,5.06-31.06,3.61-34.67,4.33-35.39-4.33-40.45-7.22S-.56,821.51,4.5,798.4Z" style="fill:#ff8b00"/></clipPath><clipPath id="clip-path-35" transform="translate(0 29.77)"><path d="M386.12,837.57c0,9.44-.8,18.11-4.62,26-9.8,20.22-30.8,34-56.24,34-15.57,0-30.11-5-41.22-13.71-7.4-5.8-11.79-13.41-15.46-22.11-2.72-6.44-5.72-13.41-5.72-21.09,0-30.46,18-58.22,46.58-59.1,2.81-.09,9.66-1,11.43-1.1,4.17-.22,8.1-.52,13.62-.88,21.77-1.41,39.41,11.47,47.74,31.16C385.59,818.65,386.12,827.91,386.12,837.57Z" style="fill:#ff8b00"/></clipPath><clipPath id="clip-path-36" transform="translate(0 29.77)"><path d="M243.65,771.19s19.71-18.22,38-23,36.7,19.11,29.33,33.46c-4.49,8.74-22.33,14.66-33,1.45S261.78,769.38,243.65,771.19Z" style="fill:#35a31a"/></clipPath><clipPath id="clip-path-37" transform="translate(0 29.77)"><path d="M535.51,779.07s11.4-3.19,12.77-8.67-3.19-10.94-7.3-11.85-5.93-3.65-4.56-6.39,3.19-5,5.47-4.56,5.93,3.2,11.4,7.76,7.3,11.85,8.67,14.59,5.93,6.38,12.77,8.21,8.2,6.38-.92,9.12S514.12,787.86,535.51,779.07Z" style="fill:#a05000"/></clipPath><clipPath id="clip-path-38" transform="translate(0 29.77)"><ellipse cx="606.25" cy="836.13" rx="22.61" ry="49.47" style="fill:#ff8b00"/></clipPath><clipPath id="clip-path-39" transform="translate(0 29.77)"><ellipse cx="583.64" cy="836.13" rx="26" ry="56.89" style="fill:#ff8b00"/></clipPath><clipPath id="clip-path-40" transform="translate(0 29.77)"><ellipse cx="503.29" cy="836.13" rx="22.61" ry="49.47" style="fill:#ff8b00"/></clipPath><clipPath id="clip-path-41" transform="translate(0 29.77)"><ellipse cx="525.9" cy="836.13" rx="26" ry="56.89" style="fill:#ff8b00"/></clipPath><clipPath id="clip-path-42" transform="translate(0 29.77)"><ellipse cx="555.57" cy="836.13" rx="28.07" ry="61.42" style="fill:#ff8b00"/></clipPath></defs><g style="isolation:isolate"><g id="Layer_2" data-name="Layer 2"><g id="Layer_3" data-name="Layer 3"><path d="M112.57,26.3C119,28.14,141.49,39.07,150,45.07c0,0-3.68,23.11-11.8,29.11L116.92,60.73,122.34,125c-5.11.08-7.64-1.45-15-.1-3.07.57-10,3.15-17.21,2.52-7.06-.62-9.68-3.1-14.51-2.9s-15.86,2.51-24,.58c-11.14-2.66-24-.1-24-.1l5.42-64.22L13.88,73.45C5.75,67.46,0,45.07,0,45.07,8.51,39.07,33.08,28,39.07,26.3c6.34-1.73,22.1-3.77,36-3.77S106.64,24.6,112.57,26.3Z" transform="translate(0 29.77)" style="fill:#ff8b00"/><g style="clip-path:url(#clip-path)"><circle cx="76.6" cy="46.89" r="19.34" style="fill:#d85107;opacity:0.35000000000000003"/><path d="M85.88,70.31,85.3,49.42s13.15,2.71,22.63-1.55c0,0-.19,18.18,0,20.89" transform="translate(0 29.77)" style="fill:#ffaa39"/><path d="M108.9,17.7s1.16,87.62-42.17,112L130,131,124.37,75l23.41,3.68,9.09-38.88Z" transform="translate(0 29.77)" style="fill:#d85107;opacity:0.35000000000000003"/><polygon points="6.38 95.82 33.08 90.41 28.63 100.66 13.15 108.59 6.38 95.82" style="fill:#d85107;opacity:0.35000000000000003"/><path d="M33.46,128.34c.78-2.91,1.74-18.57,6-30s2.13,4.65,1.93,13.54a80.05,80.05,0,0,0,1.16,15.67Z" transform="translate(0 29.77)" style="fill:#d85107;opacity:0.35000000000000003"/><path d="M55.51,131.24s8.9-6.58,12-23,3.68-40.43,6-33.27-1.9,46.33-4.34,54.79S55.51,131.24,55.51,131.24Z" transform="translate(0 29.77)" style="fill:#d85107;opacity:0.35000000000000003"/></g><rect x="313.6" y="84.79" width="2.76" height="75.83" style="fill:#232533"/><path d="M239.88,65s20.76-15.27,44.65,0c0,0,22.91-19,56.79,0,0,0,20.56-18.21,48.56,0,0,0-3.32-59.53-75-59.53S239.88,65,239.88,65Z" transform="translate(0 29.77)" style="fill:#ff8b00"/><g style="clip-path:url(#clip-path-2)"><path d="M284.53,65s2.35-46.41,30.35-59.53c0,0,29.38,7.64,26.44,59.53-1.42,25-55.81,5.09-55.81,5.09l-1-5.09" transform="translate(0 29.77)" style="fill:#ffaa39"/></g><ellipse cx="314.98" cy="34.98" rx="3.95" ry="2.42" style="fill:#ff9a00"/><g style="clip-path:url(#clip-path-3)"><path d="M313.83,2.79s2.29-.26,3.31,1-1,3.57-4.59,3.57l2,.76,3.57-.76,1.53-2.55-.76-2-3.06-.51Z" transform="translate(0 29.77)" style="fill:#a05000;opacity:0.36"/></g><path d="M330.23,147.21a18,18,0,0,1-18-18h5.15a12.87,12.87,0,0,0,25.55,2.16,2.59,2.59,0,0,1,2.54-2.16h0a2.57,2.57,0,0,1,2.54,3A18,18,0,0,1,330.23,147.21Z" transform="translate(0 29.77)" style="fill:#ea2727"/><circle cx="554.77" cy="104.77" r="75" style="fill:#ff8b00"/><g style="clip-path:url(#clip-path-4)"><ellipse cx="548.43" cy="45.89" rx="81.77" ry="48.32" transform="translate(-1.43 98.79) rotate(-7.19)" style="fill:none;stroke:#a05000;stroke-miterlimit:10;stroke-width:3.658536585365854px"/><path d="M520-5s51.22-.23,73.63,53.73-21,84.84-38.87,87.81S485.49,129,485.49,129l56.28,26,54-7,42-56-14-61-45-34Z" transform="translate(0 29.77)" style="fill:#d85107;opacity:0.35000000000000003"/><path d="M485.77,119c-18.34-15-25.95-86.06.72-85.06s47.31,27.81,46.1,59.86c-.75,19.86-9.7,37.07-22.75,47.06C501.82,147,504.11,134,485.77,119Z" transform="translate(0 29.77)" style="fill:none;stroke:#a05000;stroke-miterlimit:10;stroke-width:3.658536585365854px"/><path d="M635.55,100.11a86.31,86.31,0,0,1-20.86-44.54A88,88,0,0,1,617.4,15.5" transform="translate(0 29.77)" style="fill:none;stroke:#a05000;stroke-miterlimit:10;stroke-width:3.658536585365854px"/><ellipse cx="511.53" cy="86.41" rx="89.89" ry="74.79" transform="translate(405.9 624.09) rotate(-87.84)" style="fill:none;stroke:#a05000;stroke-miterlimit:10;stroke-width:3.658536585365854px"/></g><path d="M770,91.42c-4.25,6.54-8.54,13.44-15.51,17.37-5.85,3.3-12.93,4-17.9,8.82-4.58,4.46-3.64,9.26-3.28,15.13.32,5.23-2.2,7.81-5.46,11.16a10.81,10.81,0,0,0-3.38,5.62.48.48,0,0,0,.92.25c2.28-5.59,8.5-8,9.24-14.4.33-2.82-.45-5.64-.41-8.46.07-5.52,3.5-9,8.15-11.48,5.62-3,11.75-4.19,16.67-8.42s8.27-9.81,11.39-15.33a.25.25,0,0,0-.43-.26Z" transform="translate(0 29.77)" style="fill:#232533"/><path d="M851.25,9.24,792.51.4a4.35,4.35,0,0,0-4.86,3.24l-24.77,98.25L860.77,77.2a4.75,4.75,0,0,0,3.54-5.31l-8.78-58.37A5.09,5.09,0,0,0,851.25,9.24Z" transform="translate(0 29.77)" style="fill:#ff8b00"/><g style="clip-path:url(#clip-path-5)"><rect x="786.65" y="3.03" width="109.68" height="40.85" transform="translate(263.05 -558.38) rotate(45)" style="fill:#ff9a00"/><line x1="854.97" y1="39.57" x2="762.88" y2="131.66" style="fill:none;stroke:#232533;stroke-miterlimit:10;stroke-width:0.9620925029156531px"/><line x1="788.62" y1="29.41" x2="865.12" y2="105.92" style="fill:none;stroke:#232533;stroke-miterlimit:10;stroke-width:0.9620925029156531px"/><polygon points="860.72 33.42 752.97 141.94 820.16 144.86 882.12 117.54 860.72 33.42" style="fill:#d85107;opacity:0.35000000000000003"/></g><polygon points="743.12 136.8 754.4 139.42 747.85 148.64 743.12 136.8" style="fill:#ea2727"/><polygon points="730.05 147.26 741.41 145 739.23 156.1 730.05 147.26" style="fill:#ea2727"/><path d="M93.63,298.17h.05a82.27,82.27,0,0,1,11.61-42.72H44.55A81.11,81.11,0,0,1,56.4,297.79a1.09,1.09,0,0,0,0,.26s0,.08,0,.12a53.37,53.37,0,0,0-11.88,95.05,9.7,9.7,0,0,0,1,.58c3,2.92,15.08,5.11,29.52,5.11,14.68,0,26.92-2.26,29.67-5.26a10.26,10.26,0,0,0,1.06-.61,53.37,53.37,0,0,0-12.14-94.87Z" transform="translate(0 29.77)" style="fill:#ff8b00"/><g style="clip-path:url(#clip-path-6)"><polyline points="19.11 390.9 30.23 384.24 33.19 398.31 46.52 389.17 50.72 403 63.81 392.38 69.24 406.46 79.86 393.62 88 407.44 96.89 392.88 106.52 404.48 110.72 387.94 121.34 394.36 121.09 380.28 130.72 384.24" style="fill:none;stroke:#ea2727;stroke-linecap:round;stroke-linejoin:round;stroke-width:3.4771410173857045px"/><path d="M20.35,324.1s54.57,34.32,109.14-.25" transform="translate(0 29.77)" style="fill:none;stroke:#ea2727;stroke-miterlimit:10;stroke-width:9.079201545396005px"/><path d="M61.61,253S76.48,258.76,79,270.74s-.38,30.52-.38,30.52,23,9.27,30.32,41.92-12.75,55.05-45.58,57.95h52.54L141.19,354l-9.07-38.64L101.79,293l11.2-44Z" transform="translate(0 29.77)" style="fill:#d85107;opacity:0.35000000000000003"/><ellipse cx="44.13" cy="322.03" rx="7.71" ry="5.87" transform="translate(-233.57 182.87) rotate(-50.88)" style="fill:#fff;opacity:0.45"/><ellipse cx="36.56" cy="335.33" rx="4.15" ry="3.16" transform="translate(-288.67 275.59) rotate(-68.39)" style="fill:#fff;opacity:0.45"/></g><ellipse cx="74.92" cy="285.22" rx="30.25" ry="6.54" style="fill:#d85107"/><g id="Layer_4" data-name="Layer 4"><path d="M500.64,355.68s16.42-42.71,23.82-54.41,30.18-26.9,38.39-29.77,30.39,24.63,37.16,38.6,10.27,42.09,10.68,44.35S573.94,372.72,559.77,375,506.39,372.1,500.64,355.68Z" transform="translate(0 29.77)" style="fill:#ff8b00"/><g style="clip-path:url(#clip-path-7)"><path d="M508.85,325.91s43.12,23,100.4-2.47" transform="translate(0 29.77)" style="fill:none;stroke:#ea2727;stroke-miterlimit:10;stroke-width:6.980889798058026px"/><path d="M515.73,306.47s26.08-11.46,86.65-2.12" transform="translate(0 29.77)" style="fill:none;stroke:#ea2727;stroke-miterlimit:10;stroke-width:6.980889798058026px"/><path d="M615.72,351.06,604,298.5l-26.49-27.31-.95.42c-2.72-2.37-5.7-4.32-7.36-4.63-3.29-.62-25.87,13.76-25.87,13.76s4.72,4.72,10.88,5.54a62.77,62.77,0,0,0,12.56,0c2.83,7.25,6.72,17.42,8.89,23.95,3.1,9.3-2.4,37.43-22.44,47.58-9.28-.94-33.52-5.77-41.31-7.44-8.62-1.85-14.17,2.05-14.17,2.05l-1.43,5.14,9.44,12.31,49.07,12.32,58.93-18.89-.63-10.22Z" transform="translate(0 29.77)" style="fill:#d85107;opacity:0.35000000000000003"/></g><path d="M489.76,383.19c-1.45-8.8-.41-24,5.95-28.95s33.88,5.75,52.56,7,53.39-9.24,61-10.06,8,6.41,10.06,14.17,1,12-2.87,19.71-45,12.11-63.65,13.55S492,397,489.76,383.19Z" transform="translate(0 29.77)" style="fill:#ffaa39"/><g style="clip-path:url(#clip-path-8)"><g style="opacity:0.5"><path d="M506.58,352.42c-4.79,7.3-6.1,14.85-6.84,23.4-.6,7-1.31,14.85,3.49,20.58.31.37.89-.1.65-.5-7.65-12.93-3.11-30.68,3.12-43.24a.24.24,0,0,0-.42-.24Z" transform="translate(0 29.77)" style="fill:#ea2727"/></g><g style="opacity:0.5"><path d="M514.29,354.42c-4.1,6.17-5.2,14.4-5.85,21.67s-.39,15.47,2.92,22.11a.48.48,0,0,0,.88-.37c-1.3-4.2-2.73-7.93-3-12.39a76.81,76.81,0,0,1,.2-9.35c.46-7.83,2.48-14.26,5.3-21.48.1-.27-.3-.4-.44-.19Z" transform="translate(0 29.77)" style="fill:#ea2727"/></g><g style="opacity:0.5"><path d="M499.37,351.83c-4.91,4.89-5.77,12.48-6.76,19-1,6.94-1.41,13.62,1.5,20.17.12.27.57.08.47-.2-4.2-12.51-1.74-27.74,5.05-38.8a.17.17,0,0,0-.26-.2Z" transform="translate(0 29.77)" style="fill:#ea2727"/></g><g style="opacity:0.5"><path d="M523.23,355.23c-7.47,13.12-7.27,31.26-2.36,45.07a.64.64,0,0,0,1.23-.34c-2-7.27-4-13.78-4-21.46a45.21,45.21,0,0,1,5.73-22.9c.23-.41-.4-.78-.63-.37Z" transform="translate(0 29.77)" style="fill:#ea2727"/></g><g style="opacity:0.5"><path d="M532.55,357.83a37.69,37.69,0,0,0-4.66,21.11.07.07,0,1,0,.13,0,50.75,50.75,0,0,1,5.05-20.81c.16-.34-.33-.64-.52-.3Z" transform="translate(0 29.77)" style="fill:#ea2727"/></g><g style="opacity:0.5"><path d="M527.8,380.54l.08.48c0,.05.08,0,.07,0l-.08-.48s-.08,0-.07,0Z" transform="translate(0 29.77)" style="fill:#ea2727"/></g><g style="opacity:0.5"><path d="M527.93,382.6a47.78,47.78,0,0,0,1.37,10c.75,2.75,1.56,6.07,3.45,8.25.24.27.6,0,.55-.32-.53-3-2.24-5.85-3.14-8.81a63.22,63.22,0,0,1-2.16-9.09s-.07,0-.07,0Z" transform="translate(0 29.77)" style="fill:#ea2727"/></g><g style="opacity:0.5"><path d="M541.23,359.54c-3,7.13-5.09,14.59-4.55,22.4.45,6.41,2.72,14.54,6.8,19.57.2.26.58,0,.51-.29-.8-3.05-2.59-5.66-3.68-8.63a44.43,44.43,0,0,1-2.59-10.65c-.77-7.56,1.18-15.12,4.16-22,.19-.44-.46-.82-.65-.38Z" transform="translate(0 29.77)" style="fill:#ea2727"/></g><g style="opacity:0.5"><path d="M605.94,350.7c8.94,10.66,7.75,28.16,3.86,40.49-.19.62.77.88,1,.27,4.2-13,4.59-30-4.31-41.28-.29-.36-.83.16-.52.52Z" transform="translate(0 29.77)" style="fill:#ea2727"/></g><g style="opacity:0.5"><path d="M597.93,352.56a43.17,43.17,0,0,1,7.12,16.72c1.74,8.24-.5,15.33-1.67,23.4a.33.33,0,0,0,.63.17A41.43,41.43,0,0,0,605.87,370c-1.33-6.15-2.81-13.3-7.44-17.86-.25-.24-.72.08-.5.39Z" transform="translate(0 29.77)" style="fill:#ea2727"/></g><g style="opacity:0.5"><path d="M590.66,354.08c3.71,5.12,5.73,12.26,6.61,18.48,1.11,7.8-.55,14.69-1.59,22.35a.33.33,0,0,0,.63.18c4.86-12.26,2.91-30.69-4.92-41.44-.32-.43-1,0-.73.43Z" transform="translate(0 29.77)" style="fill:#ea2727"/></g><g style="opacity:0.5"><path d="M584.34,355.94c3.45,5.68,4.55,13.85,5.31,20.38.85,7.42-1.15,14.54-1.35,21.91,0,.41.64.51.72.1,1.35-7,2.17-15,1.12-22.1-.95-6.51-1.79-14.91-5.55-20.43-.11-.16-.35,0-.25.14Z" transform="translate(0 29.77)" style="fill:#ea2727"/></g><g style="opacity:0.5"><path d="M576.51,358.91c2,6.16,4.16,12.38,5,18.81.94,7.25.19,14.06-.79,21.26-.08.57.73.84.89.24,3.55-13.54.16-27.73-5-40.35a.07.07,0,0,0-.13,0Z" transform="translate(0 29.77)" style="fill:#ea2727"/></g><g style="opacity:0.5"><path d="M566.91,359.93c6.16,12.53,8.37,27.8,4.2,41.27-.06.18.21.25.28.08,5.22-12.85,2.26-29.73-3.75-41.78-.24-.48-1-.06-.73.43Z" transform="translate(0 29.77)" style="fill:#ea2727"/></g><g style="opacity:0.5"><path d="M549.84,360.37c-3.78,13.9-4.05,29.55,4.56,41.83a.3.3,0,0,0,.51-.3c-3.41-6.3-6.34-12.74-7-19.95s.58-14.45,2.35-21.48a.19.19,0,0,0-.37-.1Z" transform="translate(0 29.77)" style="fill:#ea2727"/></g><g style="opacity:0.5"><path d="M560.37,359.18c-4.27,12.77-3,30.07,4.25,41.62a.28.28,0,0,0,.48-.28c-3-7-5.7-13.34-6.29-21a67.56,67.56,0,0,1,1.91-20.27.18.18,0,0,0-.35-.09Z" transform="translate(0 29.77)" style="fill:#ea2727"/></g><path d="M556.49,357.94S569.83,368,569,375.39c-.62,5.54,1.23,23.82-58.1,25.25l52.56,5.55,47.22-6.37,16-11.7,2.25-15.2-6.57-21.76-9.85-7Z" transform="translate(0 29.77)" style="fill:#d85107;opacity:0.35000000000000003"/></g><path d="M542,267.18c.07-.16-.45-2.62.18-3.54,1.15-1.68,2.48-2.3,2.48-3.19s.35-5.66,2.12-6.72a75.85,75.85,0,0,1,9.21-4.25c2.48-.88,10.26-.88,11.5,1.06s5.84,4.78,9.38,6.2a5.77,5.77,0,0,1,3.72,7.08c-.71,2.48.89,6.19,0,10.09s-3.72,5.48-6,6.9-7.78,3.89-15.75,3.19-12.21-4.07-13.81-6-.7-4.6-1.06-5.67S540.78,270.19,542,267.18Z" transform="translate(0 29.77)" style="fill:#ffaa39"/><g style="clip-path:url(#clip-path-9)"><g style="opacity:0.5"><path d="M552.58,252.79c-.14.12-.3.21-.44.33a1.3,1.3,0,0,0-.29.44c-.06.15.14.27.26.2a1,1,0,0,0,.39-.36c.09-.15.17-.32.26-.47s-.08-.22-.18-.14Z" transform="translate(0 29.77)" style="fill:#ea2727"/></g><g style="opacity:0.5"><path d="M551.33,255.05s0,0,0,0,0,0,0,0Z" transform="translate(0 29.77)" style="fill:#ea2727"/></g><g style="opacity:0.5"><path d="M558.71,252.18l.91.22c.2,0,.29-.27.09-.32l-.91-.23a.17.17,0,0,0-.09.33Z" transform="translate(0 29.77)" style="fill:#ea2727"/></g><g style="opacity:0.5"><path d="M558.68,257.86a3.56,3.56,0,0,0-1.31,1.36.28.28,0,0,0,.48.29,5.49,5.49,0,0,1,1.11-1.29c.21-.17-.06-.51-.28-.36Z" transform="translate(0 29.77)" style="fill:#ea2727"/></g><g style="opacity:0.5"><path d="M552.4,262.48a9.85,9.85,0,0,1-.57.86,2.42,2.42,0,0,0-.51.8c-.05.17.19.32.31.18a2.41,2.41,0,0,0,.4-.76,7.26,7.26,0,0,1,.47-1c0-.07-.06-.13-.1-.06Z" transform="translate(0 29.77)" style="fill:#ea2727"/></g><g style="opacity:0.5"><path d="M546.68,262.64l-.08.82c0,.15.21.15.23,0l.08-.82c0-.15-.21-.15-.23,0Z" transform="translate(0 29.77)" style="fill:#ea2727"/></g><g style="opacity:0.5"><path d="M551.8,258.27c.19-.17.39-.3.59-.45s.4-.34.6-.5a.39.39,0,0,0,.16-.48.38.38,0,0,0-.45-.23,2.77,2.77,0,0,0-.85.4,4.05,4.05,0,0,0-.65.66.42.42,0,0,0,.6.6Z" transform="translate(0 29.77)" style="fill:#ea2727"/></g><g style="opacity:0.5"><path d="M566.39,254.44l.65.22a.06.06,0,0,0,0-.11l-.65-.22a.06.06,0,0,0,0,.11Z" transform="translate(0 29.77)" style="fill:#ea2727"/></g><g style="opacity:0.5"><path d="M572.1,259.89a6.33,6.33,0,0,0-.77.5,1.7,1.7,0,0,0-.58.69c-.09.18.06.48.3.39a3.82,3.82,0,0,0,.36-.13,2,2,0,0,0,.38-.26,7,7,0,0,1,.75-.44c.49-.26.05-1-.44-.75Z" transform="translate(0 29.77)" style="fill:#ea2727"/></g><g style="opacity:0.5"><path d="M576.73,263.57a13.14,13.14,0,0,1,.16,1.66.36.36,0,0,0,.71,0,5.12,5.12,0,0,0-.37-1.8.26.26,0,0,0-.5.14Z" transform="translate(0 29.77)" style="fill:#ea2727"/></g><g style="opacity:0.5"><path d="M568.68,269a.75.75,0,0,1-.13.18l-.12.16s0,0,0,0l.12-.16a.62.62,0,0,1,.14-.18,0,0,0,1,0,0,0Z" transform="translate(0 29.77)" style="fill:#ea2727"/></g><g style="opacity:0.5"><path d="M563.26,264.2a9.38,9.38,0,0,0-1.11,1.42c0,.06.05.14.1.08.39-.45.76-.91,1.17-1.34.1-.1-.06-.27-.16-.16Z" transform="translate(0 29.77)" style="fill:#ea2727"/></g><g style="opacity:0.5"><path d="M576.71,271a6.41,6.41,0,0,1-.31.87,1.15,1.15,0,0,0-.13.81.31.31,0,0,0,.5.14,1.08,1.08,0,0,0,.38-.76c.06-.29.13-.59.19-.88a.33.33,0,0,0-.63-.18Z" transform="translate(0 29.77)" style="fill:#ea2727"/></g><g style="opacity:0.5"><path d="M564,277.41l-.48.18s0,.09,0,.07l.48-.17s0-.09,0-.08Z" transform="translate(0 29.77)" style="fill:#ea2727"/></g><g style="opacity:0.5"><path d="M561,276.49a7.76,7.76,0,0,0,2.08-1.4.2.2,0,0,0-.29-.28,9.26,9.26,0,0,1-1.83,1.6,0,0,0,1,0,0,.08Z" transform="translate(0 29.77)" style="fill:#ea2727"/></g><g style="opacity:0.5"><path d="M566.7,269.17a1.79,1.79,0,0,1-.13.32,1.51,1.51,0,0,0-.14.35.2.2,0,0,0,.29.22.89.89,0,0,0,.32-.32,3.12,3.12,0,0,0,.18-.42A.26.26,0,0,0,567,269a.28.28,0,0,0-.33.18Z" transform="translate(0 29.77)" style="fill:#ea2727"/></g><g style="opacity:0.5"><path d="M557,269.74l-.3.31s0,.06.05,0l.3-.3s0-.09,0-.05Z" transform="translate(0 29.77)" style="fill:#ea2727"/></g><g style="opacity:0.5"><path d="M553.24,271.37a5,5,0,0,0,.76-.54c.1-.09,0-.24-.15-.15a4,4,0,0,1-.72.5c-.12.07,0,.25.11.19Z" transform="translate(0 29.77)" style="fill:#ea2727"/></g><g style="opacity:0.5"><path d="M558.22,265.54l.22.09a.06.06,0,1,0,0-.11l-.21-.09a.08.08,0,0,0-.08,0,.06.06,0,0,0,0,.07Z" transform="translate(0 29.77)" style="fill:#ea2727"/></g><g style="opacity:0.5"><path d="M546.75,268.76a1.82,1.82,0,0,0,1.08-.16c.17-.1.16-.43-.06-.46a5,5,0,0,0-1,0,.29.29,0,0,0,0,.58Z" transform="translate(0 29.77)" style="fill:#ea2727"/></g><g style="opacity:0.5"><path d="M548.52,274.42a0,0,0,1,0,0-.07,0,0,0,1,0,0,.07Z" transform="translate(0 29.77)" style="fill:#ea2727"/></g><g style="opacity:0.5"><path d="M551.64,278.07a1.25,1.25,0,0,0,.47-.16.62.62,0,0,0,.34-.43.27.27,0,0,0-.33-.33.67.67,0,0,0-.19.05.81.81,0,0,0-.18.1,1.07,1.07,0,0,1-.3.09.35.35,0,1,0,.19.68Z" transform="translate(0 29.77)" style="fill:#ea2727"/></g><g style="opacity:0.5"><path d="M548.19,274.3l.69-.38a1.9,1.9,0,0,0,.64-.39.26.26,0,0,0-.25-.44,2,2,0,0,0-.62.38c-.21.17-.44.32-.66.48s0,.48.2.35Z" transform="translate(0 29.77)" style="fill:#ea2727"/></g><g style="opacity:0.5"><path d="M557.1,280.24a2.69,2.69,0,0,0,.37-.45.11.11,0,0,0-.15-.14,2.22,2.22,0,0,0-.44.37c-.15.14.08.37.22.22Z" transform="translate(0 29.77)" style="fill:#ea2727"/></g><g style="opacity:0.5"><path d="M561.62,281.76l.37-.23a1.64,1.64,0,0,0,.32-.27.13.13,0,0,0-.13-.22,1.34,1.34,0,0,0-.39.16l-.37.23a.19.19,0,0,0,.2.33Z" transform="translate(0 29.77)" style="fill:#ea2727"/></g><g style="opacity:0.5"><path d="M569.54,276.94a2,2,0,0,0,0,1.45.41.41,0,0,0,.64.08,2,2,0,0,0,.28-1.41c0-.51-.83-.66-.92-.12Z" transform="translate(0 29.77)" style="fill:#ea2727"/></g><g style="opacity:0.5"><path d="M574.59,277.11a1.07,1.07,0,0,0-.1.68.55.55,0,0,0,.55.46.33.33,0,0,0,.32-.24.75.75,0,0,0,0-.42s0,0,0-.07,0,.08,0,0,0,0,0,0l0-.1a.41.41,0,0,0-.24-.49.43.43,0,0,0-.52.17Z" transform="translate(0 29.77)" style="fill:#ea2727"/></g><g style="opacity:0.5"><path d="M572,270.65a3.09,3.09,0,0,0,.25.62.26.26,0,0,0,.47-.2,3.61,3.61,0,0,0-.26-.61.25.25,0,0,0-.46.19Z" transform="translate(0 29.77)" style="fill:#ea2727"/></g><g style="opacity:0.5"><path d="M573.73,266.46a12.55,12.55,0,0,0,1.43,1.09c.17.09.36-.14.21-.28a11.76,11.76,0,0,0-1.48-1c-.13-.08-.28.11-.16.21Z" transform="translate(0 29.77)" style="fill:#ea2727"/></g><g style="opacity:0.5"><path d="M576.46,259.51a1.33,1.33,0,0,0,.69.26.23.23,0,0,0,.12-.43,2.4,2.4,0,0,1-.47-.27.28.28,0,0,0-.42,0,.29.29,0,0,0,.08.42Z" transform="translate(0 29.77)" style="fill:#ea2727"/></g><g style="opacity:0.5"><path d="M568.38,256.68l.38.11a.62.62,0,0,0,.27,0l.16-.05a.23.23,0,0,0,.1-.38,1.71,1.71,0,0,0-.11-.14.51.51,0,0,0-.24-.13l-.37-.14a.37.37,0,0,0-.19.71Z" transform="translate(0 29.77)" style="fill:#ea2727"/></g><g style="opacity:0.5"><path d="M564.28,258.14l.34.09s.07-.07,0-.08l-.34-.08s-.07.06,0,.07Z" transform="translate(0 29.77)" style="fill:#ea2727"/></g><g style="opacity:0.5"><path d="M563.08,252.28s0,0,0,0,0,0,0,0Z" transform="translate(0 29.77)" style="fill:#ea2727"/></g><g style="opacity:0.5"><path d="M563.09,251a4.64,4.64,0,0,0-.36.4,1.39,1.39,0,0,0-.25.52c-.05.16.16.34.31.23a2.17,2.17,0,0,0,.42-.31c.12-.12.24-.24.37-.35.33-.3-.17-.81-.49-.49Z" transform="translate(0 29.77)" style="fill:#ea2727"/></g><g style="opacity:0.5"><path d="M560.15,271.78a5.59,5.59,0,0,0,.54-.91c.1-.26-.26-.42-.44-.26a5.49,5.49,0,0,0-.64.86c-.22.32.32.64.54.31Z" transform="translate(0 29.77)" style="fill:#ea2727"/></g><g style="opacity:0.5"><path d="M567.07,274.58l.06-.15a.41.41,0,0,0,0-.22.18.18,0,0,0-.26-.1l-.06,0a.52.52,0,0,0-.1.11l-.09.14a.24.24,0,0,0,.12.35.25.25,0,0,0,.33-.16Z" transform="translate(0 29.77)" style="fill:#ea2727"/></g><g style="opacity:0.5"><path d="M568.58,265.14v.19a.46.46,0,0,0,0,.26s0,.07,0,.11a.31.31,0,0,0,.45.18.56.56,0,0,0,.29-.36,2.32,2.32,0,0,0,.06-.38.42.42,0,0,0-.83,0Z" transform="translate(0 29.77)" style="fill:#ea2727"/></g><g style="opacity:0.5"><path d="M566.14,260.65l.05.21a.32.32,0,0,0,.38.22.34.34,0,0,0,.19-.14l0-.08a.43.43,0,0,0,0-.16l0-.22a.33.33,0,0,0-.14-.19.31.31,0,0,0-.25,0,.32.32,0,0,0-.22.39Z" transform="translate(0 29.77)" style="fill:#ea2727"/></g><path d="M560.78,248.6l-6.37.88s-1.77,1.77,4.77,3.19,11.33,4.42,11.16,7.25.7,9.92,0,12-3.37,8.67-7.79,8.67-11.69.18-18.77-4.42c0,0-.35,2,.71,2.83s8.32,5,8.32,5l8.68,1.24,6-.71,6.55-2.3,5.31-3.9,2.48-4.42L581,255.68l-8.85-5.31-9.21-2.48Z" transform="translate(0 29.77)" style="fill:#d85107;opacity:0.35000000000000003"/></g><ellipse cx="802.82" cy="424.09" rx="26.19" ry="4.59" style="fill:#fff1de"/><ellipse cx="803.21" cy="323.91" rx="31.73" ry="4.59" style="fill:#f4e1cb"/><g style="clip-path:url(#clip-path-10)"><path d="M753.8,253l32.45-4a4.06,4.06,0,0,1,4.48,3.32l23.73,135.46h-5.37l-24-131.86-30,2.91S752,257.2,753.8,253Z" transform="translate(0 29.77)" style="fill:#ea2727"/><g style="clip-path:url(#clip-path-11)"><polygon points="788.72 273.76 801.89 377.83 814.46 371.37 793.2 278.69 788.72 273.76" style="fill:#ce0909"/><polyline points="784.91 285.63 751.11 286.52 755.59 289.88 784.91 285.63" style="fill:#ce0909"/></g><path d="M753.8,253l32.45-4a4.06,4.06,0,0,1,4.48,3.32l23.73,135.46h-5.37l-24-131.86-30,2.91S752,257.2,753.8,253Z" transform="translate(0 29.77)" style="fill:#ea2727"/><g style="clip-path:url(#clip-path-11)"><polygon points="788.72 273.76 801.89 377.83 814.46 371.37 793.2 278.69 788.72 273.76" style="fill:#ce0909"/><polyline points="784.91 285.63 751.11 286.52 755.59 289.88 784.91 285.63" style="fill:#ce0909"/></g></g><path d="M753.8,253l32.45-4a4.06,4.06,0,0,1,4.48,3.32l23.73,135.46h-5.37l-24-131.86-30,2.91S752,257.2,753.8,253Z" transform="translate(0 29.77)" style="fill:#ea2727"/><g style="clip-path:url(#clip-path-11)"><polygon points="788.72 273.76 801.89 377.83 814.46 371.37 793.2 278.69 788.72 273.76" style="fill:#ce0909"/><polyline points="784.91 285.63 751.11 286.52 755.59 289.88 784.91 285.63" style="fill:#ce0909"/></g><path d="M835,294.14c0,2.53-14.21,4.59-31.74,4.59s-31.73-2.06-31.73-4.59h-.89l6,100.29H829l6-100.29Z" transform="translate(0 29.77)" style="fill:#f4ddc1;opacity:0.73"/><path d="M830.36,339.81H775.29l2.91,51.27h0v.11c0,2.53,11,4.59,24.62,4.59s24.63-2.06,24.63-4.59a.37.37,0,0,0,0-.11h0Z" transform="translate(0 29.77)" style="fill:#ff8b00"/><g style="clip-path:url(#clip-path-14)"><polygon points="817.15 312.04 798.35 438.08 839.76 434.95 839.31 312.71 817.15 312.04" style="fill:#d85107;opacity:0.35000000000000003"/></g><ellipse cx="802.82" cy="369.69" rx="27.54" ry="4.59" style="fill:#ff9a00"/><g style="clip-path:url(#clip-path-15)"><path d="M753.8,253l36.26-4.48,16,91.34a5.11,5.11,0,0,1-2.58.89,4.49,4.49,0,0,1-3.09-.78l-15.49-85.18-29.77,4S752,257.2,753.8,253Z" transform="translate(0 29.77)" style="fill:#eaa48f"/></g><path d="M773.94,298.17a14,14,0,0,0,9,1.57l2,92.9A8.25,8.25,0,0,1,780,391.3Z" transform="translate(0 29.77)" style="fill:#fff;opacity:0.49"/><path d="M797,288.1c2-.06,5.15.22,6.27.22a162.64,162.64,0,0,1,22.54,1.47c9,1.3,10.26,2.93,10.26,4.35,0,2.53-5.19,3.62-10.26,4.35a188.38,188.38,0,0,1-45.19,0c-9-1.3-10.26-2.93-10.26-4.35,0-2.53,5.18-3.62,10.26-4.35,3-.44,6.46-1.24,10.34-1.47l.45,2.24c-3.45.2-6.67.93-9.47,1.3-6.61.88-8.62,1.88-9.18,2.28.56.4,2.57,1.4,9.18,2.28a190.68,190.68,0,0,0,42.54,0c6.62-.88,8.63-1.88,9.19-2.28-.56-.4-2.57-1.4-9.19-2.28a170,170,0,0,0-21.27-1.19c-1.9,0-3.92-.16-5.76-.11Z" transform="translate(0 29.77)" style="fill:#fff2e6"/><path d="M135.79,522.83l-20.75,40a5.9,5.9,0,0,0,1.1,6.92l32.08,31.59a5.91,5.91,0,0,1-5.11,10L98.7,603.94a5.9,5.9,0,0,0-6.25,3.18L72.32,647.4a5.9,5.9,0,0,1-11.11-1.77l-6.7-44.52a5.9,5.9,0,0,0-5-5L5,589.46a5.9,5.9,0,0,1-1.76-11.12l40.27-20.13A5.88,5.88,0,0,0,46.72,552l-7.38-44.42a5.9,5.9,0,0,1,10-5.11L81,534.52a5.91,5.91,0,0,0,6.93,1.1l40-20.75A5.9,5.9,0,0,1,135.79,522.83Z" transform="translate(0 29.77)" style="fill:#ff8b00"/><g style="clip-path:url(#clip-path-16)"><path d="M113.1,538.52,88.72,567a2.44,2.44,0,0,0,.58,3.67l32,19.59a.68.68,0,0,1-.62,1.2L86,577.12a2.44,2.44,0,0,0-3.31,1.69L74,615.29a.68.68,0,0,1-1.34-.21l3-37.4A2.44,2.44,0,0,0,73,575.05l-37.4,3a.68.68,0,0,1-.21-1.34l36.49-8.74a2.44,2.44,0,0,0,1.68-3.31L59.17,530a.68.68,0,0,1,1.2-.62l19.59,32a2.44,2.44,0,0,0,3.67.58l28.51-24.38A.68.68,0,0,1,113.1,538.52Z" transform="translate(0 29.77)" style="fill:#ea2727"/><path d="M52.22,519.93a1,1,0,0,0,0-2.09,1,1,0,0,0,0,2.09Z" transform="translate(0 29.77)" style="fill:#ffaa39"/><path d="M54.58,543.45a1,1,0,0,0,0-2.09,1,1,0,0,0,0,2.09Z" transform="translate(0 29.77)" style="fill:#ffaa39"/><path d="M49.85,530.36c4,0,4-6.27,0-6.27s-4,6.27,0,6.27Z" transform="translate(0 29.77)" style="fill:#ffaa39"/><path d="M47.73,512.31c4,0,4.05-6.27,0-6.27s-4,6.27,0,6.27Z" transform="translate(0 29.77)" style="fill:#ffaa39"/><path d="M80.72,547.29c4,0,4-6.27,0-6.27s-4,6.27,0,6.27Z" transform="translate(0 29.77)" style="fill:#ffaa39"/><path d="M120.55,532.6c4,0,4-6.27,0-6.27s-4,6.27,0,6.27Z" transform="translate(0 29.77)" style="fill:#ffaa39"/><path d="M98.4,572.18c4,0,4-6.27,0-6.27s-4.05,6.27,0,6.27Z" transform="translate(0 29.77)" style="fill:#ffaa39"/><path d="M127.27,602.3c4,0,4-6.27,0-6.27s-4,6.27,0,6.27Z" transform="translate(0 29.77)" style="fill:#ffaa39"/><path d="M138.85,607.16c4,0,4-6.27,0-6.27s-4,6.27,0,6.27Z" transform="translate(0 29.77)" style="fill:#ffaa39"/><path d="M89.43,603.55c4,0,4-6.27,0-6.27s-4,6.27,0,6.27Z" transform="translate(0 29.77)" style="fill:#ffaa39"/><path d="M66.16,624s0-.06,0-.06a0,0,0,0,0,0,.06Z" transform="translate(0 29.77)" style="fill:#ffaa39"/><path d="M65.16,591.48c4,0,4-6.28,0-6.28s-4,6.28,0,6.28Z" transform="translate(0 29.77)" style="fill:#ffaa39"/><path d="M66.65,629.81c4,0,4-6.27,0-6.27s-4,6.27,0,6.27Z" transform="translate(0 29.77)" style="fill:#ffaa39"/><path d="M17.73,587.37c4,0,4.05-6.27,0-6.27s-4,6.27,0,6.27Z" transform="translate(0 29.77)" style="fill:#ffaa39"/><path d="M49.35,565.21c4,0,4-6.27,0-6.27s-4,6.27,0,6.27Z" transform="translate(0 29.77)" style="fill:#ffaa39"/><path d="M67.15,531.43c2.69,0,2.7-4.18,0-4.18s-2.69,4.18,0,4.18Z" transform="translate(0 29.77)" style="fill:#ffaa39"/><path d="M100.64,542.51c2.69,0,2.69-4.18,0-4.18s-2.7,4.18,0,4.18Z" transform="translate(0 29.77)" style="fill:#ffaa39"/><path d="M109.35,575.12c2.69,0,2.69-4.18,0-4.18s-2.69,4.18,0,4.18Z" transform="translate(0 29.77)" style="fill:#ffaa39"/><path d="M129.39,525c2.69,0,2.7-4.19,0-4.19s-2.69,4.19,0,4.19Z" transform="translate(0 29.77)" style="fill:#ffaa39"/><path d="M106.61,595c2.69,0,2.7-4.18,0-4.18s-2.69,4.18,0,4.18Z" transform="translate(0 29.77)" style="fill:#ffaa39"/><path d="M62.55,609.48c2.69,0,2.69-4.18,0-4.18s-2.7,4.18,0,4.18Z" transform="translate(0 29.77)" style="fill:#ffaa39"/><path d="M69,648.31c2.69,0,2.69-4.18,0-4.18s-2.69,4.18,0,4.18Z" transform="translate(0 29.77)" style="fill:#ffaa39"/><path d="M37.15,587.07c2.69,0,2.7-4.18,0-4.18s-2.69,4.18,0,4.18Z" transform="translate(0 29.77)" style="fill:#ffaa39"/><path d="M33.29,571.26c2.69,0,2.7-4.18,0-4.18s-2.69,4.18,0,4.18Z" transform="translate(0 29.77)" style="fill:#ffaa39"/><path d="M67.15,565.78c2.69,0,2.7-4.18,0-4.18s-2.69,4.18,0,4.18Z" transform="translate(0 29.77)" style="fill:#ffaa39"/><path d="M48,537.6a1,1,0,0,0,0-2.09,1,1,0,0,0,0,2.09Z" transform="translate(0 29.77)" style="fill:#ffaa39"/><path d="M58.56,558.89a1,1,0,0,0,0-2.09,1,1,0,0,0,0,2.09Z" transform="translate(0 29.77)" style="fill:#ffaa39"/><path d="M61.3,549.93a1,1,0,0,0,0-2.09,1,1,0,0,0,0,2.09Z" transform="translate(0 29.77)" style="fill:#ffaa39"/><path d="M77.48,536.73a1,1,0,0,0,0-2.09,1,1,0,0,0,0,2.09Z" transform="translate(0 29.77)" style="fill:#ffaa39"/><path d="M68,538.47a1,1,0,0,0,0-2.09,1,1,0,0,0,0,2.09Z" transform="translate(0 29.77)" style="fill:#ffaa39"/><path d="M85.08,557a1,1,0,0,0,0-2.09,1,1,0,0,0,0,2.09Z" transform="translate(0 29.77)" style="fill:#ffaa39"/><path d="M90.93,543.2a1,1,0,0,0,0-2.09,1,1,0,0,0,0,2.09Z" transform="translate(0 29.77)" style="fill:#ffaa39"/><path d="M107.86,531.25a1,1,0,0,0,0-2.09,1,1,0,0,0,0,2.09Z" transform="translate(0 29.77)" style="fill:#ffaa39"/><path d="M120.43,539.84a1,1,0,0,0,0-2.09,1,1,0,0,0,0,2.09Z" transform="translate(0 29.77)" style="fill:#ffaa39"/><path d="M128.15,531.13a1,1,0,0,0,0-2.09,1,1,0,0,0,0,2.09Z" transform="translate(0 29.77)" style="fill:#ffaa39"/><path d="M121.55,522.54a1,1,0,0,0,0-2.09,1,1,0,0,0,0,2.09Z" transform="translate(0 29.77)" style="fill:#ffaa39"/><path d="M106,552.79a1,1,0,0,0,0-2.09,1,1,0,0,0,0,2.09Z" transform="translate(0 29.77)" style="fill:#ffaa39"/><path d="M116.94,548.31a1,1,0,0,0,0-2.09,1,1,0,0,0,0,2.09Z" transform="translate(0 29.77)" style="fill:#ffaa39"/><path d="M107.36,564.61a1,1,0,0,0,0-2.09,1,1,0,0,0,0,2.09Z" transform="translate(0 29.77)" style="fill:#ffaa39"/><path d="M112.46,556.77a1,1,0,0,0,0-2.09,1,1,0,0,0,0,2.09Z" transform="translate(0 29.77)" style="fill:#ffaa39"/><path d="M99.52,561.5a1,1,0,0,0,0-2.09,1,1,0,0,0,0,2.09Z" transform="translate(0 29.77)" style="fill:#ffaa39"/><path d="M120.06,583.53a1,1,0,0,0,0-2.09,1,1,0,0,0,0,2.09Z" transform="translate(0 29.77)" style="fill:#ffaa39"/><path d="M111.72,580.67a1,1,0,0,0,0-2.09,1,1,0,0,0,0,2.09Z" transform="translate(0 29.77)" style="fill:#ffaa39"/><path d="M133.87,594.86a1,1,0,0,0,0-2.09,1,1,0,0,0,0,2.09Z" transform="translate(0 29.77)" style="fill:#ffaa39"/><path d="M115.08,602a1,1,0,0,0,0-2.09,1,1,0,0,0,0,2.09Z" transform="translate(0 29.77)" style="fill:#ffaa39"/><path d="M92.67,589.51a1,1,0,0,0,0-2.09,1,1,0,0,0,0,2.09Z" transform="translate(0 29.77)" style="fill:#ffaa39"/><path d="M100.51,600.09a1,1,0,0,0,0-2.09,1,1,0,0,0,0,2.09Z" transform="translate(0 29.77)" style="fill:#ffaa39"/><path d="M84,591.25a1,1,0,0,0,0-2.09,1,1,0,0,0,0,2.09Z" transform="translate(0 29.77)" style="fill:#ffaa39"/><path d="M81.84,619.51a1,1,0,0,0,0-2.09,1,1,0,0,0,0,2.09Z" transform="translate(0 29.77)" style="fill:#ffaa39"/><path d="M81,607.68a1,1,0,0,0,0-2.09,1,1,0,0,0,0,2.09Z" transform="translate(0 29.77)" style="fill:#ffaa39"/><path d="M73.63,623.24a1,1,0,0,0,0-2.09,1,1,0,0,0,0,2.09Z" transform="translate(0 29.77)" style="fill:#ffaa39"/><path d="M74.12,636.44a1,1,0,0,0,0-2.09,1,1,0,0,0,0,2.09Z" transform="translate(0 29.77)" style="fill:#ffaa39"/><path d="M63.92,638.68a1,1,0,0,0,0-2.09,1,1,0,0,0,0,2.09Z" transform="translate(0 29.77)" style="fill:#ffaa39"/><path d="M60.93,618a1,1,0,0,0,0-2.09,1,1,0,0,0,0,2.09Z" transform="translate(0 29.77)" style="fill:#ffaa39"/><path d="M68.9,609.3a1,1,0,0,0,0-2.09,1,1,0,0,0,0,2.09Z" transform="translate(0 29.77)" style="fill:#ffaa39"/><path d="M57.69,598.1a1,1,0,0,0,0-2.09,1,1,0,0,0,0,2.09Z" transform="translate(0 29.77)" style="fill:#ffaa39"/><path d="M67.65,596.11a1,1,0,0,0,0-2.09,1,1,0,0,0,0,2.09Z" transform="translate(0 29.77)" style="fill:#ffaa39"/><path d="M68.4,579.68a1,1,0,0,0,0-2.09,1,1,0,0,0,0,2.09Z" transform="translate(0 29.77)" style="fill:#ffaa39"/><path d="M49.73,582.91a1,1,0,0,0,0-2.09,1,1,0,0,0,0,2.09Z" transform="translate(0 29.77)" style="fill:#ffaa39"/><path d="M57.82,587.27a1,1,0,0,0,0-2.09,1,1,0,0,0,0,2.09Z" transform="translate(0 29.77)" style="fill:#ffaa39"/><path d="M43.75,590.88a1,1,0,0,0,0-2.09,1,1,0,0,0,0,2.09Z" transform="translate(0 29.77)" style="fill:#ffaa39"/><path d="M25.83,580.67a1,1,0,0,0,0-2.09,1,1,0,0,0,0,2.09Z" transform="translate(0 29.77)" style="fill:#ffaa39"/><path d="M28.19,590.51a1,1,0,0,0,0-2.09,1,1,0,0,0,0,2.09Z" transform="translate(0 29.77)" style="fill:#ffaa39"/><path d="M19,576.56a1,1,0,0,0,0-2.09,1,1,0,0,0,0,2.09Z" transform="translate(0 29.77)" style="fill:#ffaa39"/><path d="M6.78,584.28a1,1,0,0,0,0-2.09,1,1,0,0,0,0,2.09Z" transform="translate(0 29.77)" style="fill:#ffaa39"/><path d="M51.84,554.91a1.05,1.05,0,0,0,0-2.1,1.05,1.05,0,0,0,0,2.1Z" transform="translate(0 29.77)" style="fill:#ffaa39"/><path d="M45.49,570.71a1,1,0,0,0,0-2.09,1,1,0,0,0,0,2.09Z" transform="translate(0 29.77)" style="fill:#ffaa39"/><path d="M151.66,500.7S44,592.16,34.92,629.9s31.24,27,31.24,27,53.55-9,54.42-10.71,39.33-35.81,39.33-35.81Z" transform="translate(0 29.77)" style="fill:#d85107;opacity:0.35000000000000003"/><path d="M92.31,559.4l-8.85,10.35a.89.89,0,0,0,.22,1.33l11.6,7.1a.25.25,0,0,1-.22.44L82.49,573.4a.9.9,0,0,0-1.2.62l-3.17,13.23a.25.25,0,0,1-.49-.08l1.08-13.56a.89.89,0,0,0-.95-1l-13.57,1.08a.25.25,0,0,1-.08-.49l13.24-3.17a.88.88,0,0,0,.61-1.2l-5.22-12.56a.25.25,0,0,1,.44-.23l7.11,11.61a.89.89,0,0,0,1.33.21L92,559.06A.24.24,0,0,1,92.31,559.4Z" transform="translate(0 29.77)" style="fill:#ce0909"/></g><path d="M304,508.8h25.89a4.42,4.42,0,0,1,4.42,4.47c-.18,15.51-.45,66.23,3.69,71,4.9,5.62,29.73,29.76,34.83,38.09,3.45,5.62-12.52,30.83-29.57,15-29.93-27.7-32.1-31.74-36.45-38.45-4.1-6.32-4.18-57.48-7.2-85.25A4.41,4.41,0,0,1,304,508.8Z" transform="translate(0 29.77)" style="fill:#ff8b00"/><g style="clip-path:url(#clip-path-17)"><path d="M296.43,528.21s27.93,4.35,40.45-1.45l-1.46-23.4h-41.9Z" transform="translate(0 29.77)" style="fill:#ea2727"/><path d="M300.24,588.25S327.08,587,317.65,612l-15.24-12.15Z" transform="translate(0 29.77)" style="fill:#ea2727"/><path d="M381.84,621.1s-20.37-4.54-39.73,23l20.54,6.61L379,636.26Z" transform="translate(0 29.77)" style="fill:#ea2727"/><path d="M308.76,504.45s15.42,78.17,18.32,82.53,21.09,17.95,26.3,30.29C356.83,625.43,340,641,340,641l18,8.16L386.57,630l-43-48.25-5.08-75.28Z" transform="translate(0 29.77)" style="fill:#d85107;opacity:0.35000000000000003"/></g><path d="M261.47,500.66h29a5,5,0,0,1,5,5c-.21,17.39-.51,74.29,4.14,79.62,5.49,6.31,33.34,33.39,39.06,42.73,3.87,6.31-14,34.59-33.16,16.89-33.58-31.08-36-35.61-40.9-43.14-4.59-7.08-4.68-64.47-8.07-95.62A5,5,0,0,1,261.47,500.66Z" transform="translate(0 29.77)" style="fill:#ff8b00"/><g style="clip-path:url(#clip-path-18)"><path d="M253,522.43s31.34,4.88,45.38-1.63l-1.63-26.24h-47Z" transform="translate(0 29.77)" style="fill:#ea2727"/><path d="M257.29,589.78s30.11-1.43,19.53,26.65L259.73,602.8Z" transform="translate(0 29.77)" style="fill:#ea2727"/><path d="M348.82,626.63s-22.85-5.09-44.56,25.84l23,7.4,18.35-16.23Z" transform="translate(0 29.77)" style="fill:#ea2727"/><path d="M266.85,495.78s17.29,87.69,20.55,92.57,23.66,20.15,29.5,34c3.87,9.16-15,26.66-15,26.66L322,658.14l32.15-21.56-48.22-54.13L300.22,498Z" transform="translate(0 29.77)" style="fill:#d85107;opacity:0.35000000000000003"/></g><path d="M497.88,628.39l51.06-123.83a6.29,6.29,0,0,1,11.64,0l51.07,123.83Z" transform="translate(0 29.77)" style="fill:#ff8b00"/><g style="clip-path:url(#clip-path-19)"><rect x="505.91" y="620.56" width="102.5" height="14.85" style="fill:#fff;opacity:0.8"/><rect x="505.91" y="579.37" width="102.5" height="14.85" style="fill:#fff;opacity:0.8"/><polygon points="620.58 652.89 558.12 522.37 553.57 520.69 563.85 647.14 496.57 647.14 496.57 666.54 613.44 666.54 613.44 654.49 620.58 652.89" style="fill:#d85107;opacity:0.35000000000000003"/></g><rect x="481.01" y="652.89" width="147.52" height="27.54" style="fill:#feab3a"/><g style="clip-path:url(#clip-path-20)"><polygon points="573.21 644.99 573.21 685.7 640.51 684.5 633.32 644.99 573.21 644.99" style="fill:#d85107;opacity:0.35000000000000003"/></g><path d="M757.15,561.2s-28.08,11.2-35.06,2.36c-9.25-11.71,9.18-37.39,33.47-43.48C755.56,520.08,769.19,552.72,757.15,561.2Z" transform="translate(0 29.77)" style="fill:#ff8b00"/><g style="clip-path:url(#clip-path-21)"><path d="M745.41,518.79s-9.21,28.66,4.18,48.12l14-5-3.56-45.2Z" transform="translate(0 29.77)" style="fill:#d85107;opacity:0.35000000000000003"/></g><path d="M820.1,607.87s-3.11,30.07,7.3,34.38c13.79,5.7,33.46-19,32.69-44.07C860.09,598.18,825,594,820.1,607.87Z" transform="translate(0 29.77)" style="fill:#ff8b00"/><g style="clip-path:url(#clip-path-22)"><path d="M863.83,606.45s-12.76,22.81-55.65,6.07l7.53-16.95L847.93,588l15.27,1.89Z" transform="translate(0 29.77)" style="fill:#d85107;opacity:0.35000000000000003"/></g><path d="M804,579.46c-.94,6.84-1.44,28.53,7.34,32.27s50,1.62,57.07-14.1-17.75-42.86-17.75-42.86Z" transform="translate(0 29.77)" style="fill:#ff8b00"/><g style="clip-path:url(#clip-path-23)"><path d="M800.44,589.09s49,11.51,59.63-29.92l-5.86-13.39-40.38,11.09L794.58,577Z" transform="translate(0 29.77)" style="fill:#d85107;opacity:0.35000000000000003"/></g><path d="M786.63,572.35c-6.33,2.77-24.8,5.76-30.8-1.66s-15.22-47.7-2-58.75,49.76,6.22,49.76,6.22Z" transform="translate(0 29.77)" style="fill:#ff8b00"/><g style="clip-path:url(#clip-path-24)"><path d="M798.13,510.63s-25.73,6.69-29.71,31.17S782,582.39,782,582.39l23.44-38.91Z" transform="translate(0 29.77)" style="fill:#d85107;opacity:0.35000000000000003"/></g><path d="M782.13,577.62c-9-9-8.27-54.86,17-62.91,20.47-6.53,24,11,32.5,18.72,9.21,8.37,22.3,2.75,23.43,23.86C856.09,576.74,800.22,595.71,782.13,577.62Z" transform="translate(0 29.77)" style="fill:#ff8b00"/><g style="mix-blend-mode:soft-light"><path d="M854.86,559.83a9.86,9.86,0,0,0,.18-2.54c-1.13-21.11-14.22-15.49-23.43-23.86-8.51-7.74-12-25.25-32.5-18.72-.67.21-1.33.46-2,.72-11.1-4.37-33.58-11.65-43.34-3.49-2.86,2.39-4.66,6.16-5.68,10.67-20.42,8.8-34.32,30.47-26,40.95,5.12,6.49,21.62,2.18,30-.57a28.07,28.07,0,0,0,3.71,7.7c4.49,5.55,16,5.28,24.1,3.63a11.7,11.7,0,0,0,2.2,3.3c5,5,12.75,7.13,21.43,7.27-.35,9.16.7,23.82,7.77,26.84a28.16,28.16,0,0,0,8.42,1.47c-.35,8.84,0,25.89,7.65,29,12.34,5.1,29.39-14.18,32.28-36.23,4.06-2.21,7.2-5,8.72-8.39C873.55,586.11,861.6,568.43,854.86,559.83Z" transform="translate(0 29.77)" style="fill:#d85107;opacity:0.35000000000000003"/><g style="clip-path:url(#clip-path-25)"><path d="M714.65,563.77s27.83-26.57,53.77-22S814.9,553.14,826.8,569s16.71,25.08,13.18,40.17S828.05,654,828.05,654l-44.14-56.28-40.18-22.39S715.7,587.41,714.65,563.77Z" transform="translate(0 29.77)" style="fill:#ff8b00"/></g></g><path d="M745.64,787.31s1.29-9.47,6.65-12.92,25.84,2.87,34.46-2.68c0,0,.19,5.55-4.21,7.28,0,0,2.3,3.83,7.08,1.34,0,0-.76,6.51-16.85,6.89S745.64,787.31,745.64,787.31Z" transform="translate(0 29.77)" style="fill:#ff8b00"/><g style="clip-path:url(#clip-path-26)"><path d="M771.36,777.24c6,.46,11.88,3.63,17.83,1.71.31-.1.28-.64-.08-.6C783,779,777.43,777,771.36,777a.14.14,0,0,0,0,.28Z" transform="translate(0 29.77)" style="fill:#ea7a00"/><path d="M774,781.74c6,0,10.06,4.58,16.16,3.25a.26.26,0,0,0-.07-.5,19.56,19.56,0,0,1-5.56-.29,31.35,31.35,0,0,1-4.16-1.92,13.35,13.35,0,0,0-6.37-1,.25.25,0,0,0,0,.5Z" transform="translate(0 29.77)" style="fill:#ea7a00"/></g><path d="M749.22,836.24c0,1-1.91,10,5.75,14.74s17.8,3.64,19.33,2.68-17.23-7.85-3.25-18.76Z" transform="translate(0 29.77)" style="fill:#ff8b00"/><g style="clip-path:url(#clip-path-27)"><path d="M758.61,842.68a14.85,14.85,0,0,0,10.74.15c.35-.13.33-.71-.09-.69-3.61.19-6.82,1.23-10.36-.15-.39-.15-.68.52-.29.69Z" transform="translate(0 29.77)" style="fill:#ea7a00"/><path d="M759.62,846.88c3.68.87,7.28,1.82,11,.77.24-.07.2-.49-.07-.46a36.74,36.74,0,0,1-10.92-.53c-.15,0-.21.19-.06.22Z" transform="translate(0 29.77)" style="fill:#ea7a00"/><path d="M762.82,851.73c4.76,1.95,10.15,2.77,15,.78a.38.38,0,0,0-.2-.74c-5,.92-9.8,1.3-14.72-.47-.27-.1-.38.33-.12.43Z" transform="translate(0 29.77)" style="fill:#ea7a00"/></g><path d="M720,811.49a4,4,0,0,1,.26-3.84c3.85-5.93,17.59-24.07,41.58-24.07,28.7,0,53.64,25.92,53.64,25.92s-22.17,31.14-53.31,31.14C735.85,840.64,723.28,818.35,720,811.49Z" transform="translate(0 29.77)" style="fill:#ff8b00"/><g style="clip-path:url(#clip-path-28)"><path d="M726.44,787.8s18.19,5.93,17.42,24.31C743.13,829.72,723,834.9,723,834.9s-10.53-23.17-6.7-31.4A80.89,80.89,0,0,1,726.44,787.8Z" transform="translate(0 29.77)" style="fill:#ffaa39"/><path d="M738.31,787.41s28.72-2.49,38.29,6.51,13.41,21.25,12.26,28-22.21,22.59-53.23,10.72c0,0,9,9.19,18.76,12.06s36-.57,41.55-5.55,23.36-23.94,23.36-31.4-20.68-27.57-34.08-28.15S738.31,787.41,738.31,787.41Z" transform="translate(0 29.77)" style="fill:#d85107;opacity:0.35000000000000003"/><circle cx="734.1" cy="835.37" r="1.53" style="fill:#232533"/></g><path d="M815.61,805.63s3.9-18.66,18.5-21.91,21.91,21.91,31,24.18c0,0-6.82,8.77-19.47,2.11,0,0,2.92,36,24,41.06,0,0-22.85,36.95-58.42,15.75C795.16,857.24,815.61,805.63,815.61,805.63Z" transform="translate(0 29.77)" style="fill:#ff8b00"/><g style="clip-path:url(#clip-path-29)"><path d="M840.65,798.55c3.59,5.19,3.1,13.44,8.28,17.5.29.23.82-.07.57-.44-3.64-5.41-4.36-12.29-8.48-17.35-.17-.2-.52.07-.37.29Z" transform="translate(0 29.77)" style="fill:#ea7a00"/><path d="M840.3,822.55c4.89,12.82,2.51,27.35,8.35,39.92,4.91,10.58,15.34,15.62,26.67,16.31.57,0,.65-.82.13-1-5.46-1.62-11.13-2.18-16.13-5.15-5.92-3.51-9.52-9.48-11.51-15.93-3.48-11.28-2.84-23.16-7.37-34.22,0-.08-.17,0-.14,0Z" transform="translate(0 29.77)" style="fill:#ea7a00"/><path d="M833.73,822.9c.27,13-5.63,26.23-1.9,39.17,3,10.47,11.58,15.06,21.71,17.08a.34.34,0,0,0,.19-.66c-4.79-1.79-9.76-3.21-13.82-6.44-5-4-7.29-10.15-7.85-16.41-1-10.95,2.51-21.75,1.79-32.74a.06.06,0,1,0-.12,0Z" transform="translate(0 29.77)" style="fill:#ea7a00"/><path d="M825.92,829c-1.36,16.83-17.28,38-.39,51.68.5.41,1.2-.25.73-.72-7.73-7.64-8.34-16.62-5.23-26.63,2.52-8.12,4.78-15.79,5.09-24.33a.1.1,0,0,0-.2,0Z" transform="translate(0 29.77)" style="fill:#ea7a00"/><path d="M820.67,821.77c-3.08,10.42-8.59,19.52-12.8,29.44-3.41,8.06-5.28,17-1.4,25.25.21.46,1,.13.82-.35-3.65-10.58-.17-20.58,4.47-30.21a124.32,124.32,0,0,0,9.07-24.09.08.08,0,0,0-.16,0Z" transform="translate(0 29.77)" style="fill:#ea7a00"/><path d="M822,780.9c4.21-1.15,17,11.68,14.46,26.14s7.94,41.64,5.55,52.08-25.56,8.52-37-2.49c0,0-.29,12.73,5.36,15.31s51,3.16,60.5-13,2.78-24-6.13-29.1-12.16-15.41-6.7-16.27,18.67-8.91,13.79-12.64-21.54-28.81-33.32-26.8S822,780.9,822,780.9Z" transform="translate(0 29.77)" style="fill:#d85107;opacity:0.35000000000000003"/></g></g><path d="M333.53,316.1s7.41,6.81,9.89-2.43c0,0,8.25,9.84,10.81-3.13,0,0,14.79,10.71,12.42-5.83,0,0,15.75.44,13.46-7.35s-16.24-3-16.24-3,1.94-5.15-2.5-6.15-11.63,3-12.5,9.56c0,0-2.84-3.71-6.32-2.51s-6.59,5.78-3.87,10.3c0,0-11.66.11-5.64,8a44,44,0,0,0-7.16,6.94l1.06,1.39Z" transform="translate(0 29.77)" style="fill:#35a31a"/><g style="clip-path:url(#clip-path-30)"><path d="M323.77,324s21.24-28,59.37-25.59L379,305l-9.57,2.26-2.44,9.4-12,2.44-19,2.78Z" transform="translate(0 29.77)" style="fill:#2d9110"/><path d="M325.25,322.82c7.43-6.84,15-13.09,24.15-17.55,9.93-4.86,21-5.66,31.89-6.9.72-.08.76-1.17,0-1.16-21.45.23-42.18,8.92-56.22,25.43-.11.12.06.3.18.18Z" transform="translate(0 29.77)" style="fill:#327c01"/></g><path d="M328.51,308s-10.5-5.48-1.27-11.91c0,0-14.18-5.21-.85-13.23,0,0-17.77-12.1,1.49-16.08,0,0-6.78-17.26,2.76-17.84s9.81,16.77,9.81,16.77,4.93-4.2,7.82.32,1.3,14.08-5.59,17.66c0,0,5.23,1.66,5.3,6s-3.76,9.61-9.85,8.4c0,0,4.54,12.95-6.59,9.43a52,52,0,0,1-4.82,10.71l-2-.62Z" transform="translate(0 29.77)" style="fill:#35a31a"/><g style="clip-path:url(#clip-path-31)"><path d="M329.94,248.7c5,13.3,7.2,28.24,4.36,42.28-1.6,7.89-4.72,15.66-7.51,23.18-.33.9,1.11,1.5,1.54.65,1.86-3.61,2.74-7.88,3.88-11.75a100.21,100.21,0,0,0,3.56-14.14c2-13.55-.4-27.7-5.48-40.32-.09-.21-.43-.12-.35.1Z" transform="translate(0 29.77)" style="fill:#327c01"/><path d="M329.26,247.45s6.12,10.18,6.63,28-9.07,39.92-9.07,39.92l7.49-2.27s7.31-10.62,7.48-10.79,6.44-5.92,6.44-5.92,2.44-8,2.44-8.36-1.91-5.57-1.91-5.57l5-10.62L351.71,265l-5.57-4-10.62-13.41Z" transform="translate(0 29.77)" style="fill:#327c01;opacity:0.35000000000000003"/></g><path d="M252.57,398.89c-8.51.65,2.78-13.6,4.94-17.46s15.92-25.81,19.78-30.14c3.63-4.06,8.5-7.26,11-12.05s16.22-27.82,21.63-30.6,22.41,2.47,28.9,13-.77,19-9,22.56-28,17.46-30,20.4-17.78,14.06-21.49,18.24S258.59,398.43,252.57,398.89Z" transform="translate(0 29.77)" style="fill:#ff8b00"/><g style="clip-path:url(#clip-path-32)"><path d="M294,328.62a77.7,77.7,0,0,1,8.58,5.16.27.27,0,0,0,.33-.42,26.33,26.33,0,0,0-8.63-5.41c-.38-.16-.65.48-.28.67Z" transform="translate(0 29.77)" style="fill:#ce6b00"/><path d="M304.88,329.8a60.62,60.62,0,0,1,7.05,5.53c.14.12.34-.08.2-.21a43.78,43.78,0,0,0-7.17-5.46c-.09-.06-.17.08-.08.14Z" transform="translate(0 29.77)" style="fill:#ce6b00"/><path d="M301.14,319.34a44.43,44.43,0,0,1,5.8,2.06c.42.17.64-.48.3-.7a15.15,15.15,0,0,0-5.89-2.1c-.48-.08-.69.62-.21.74Z" transform="translate(0 29.77)" style="fill:#ce6b00"/><path d="M308.08,314.75c2.93,1.32,5.86,2.6,8.81,3.88.28.13.53-.28.25-.42a55.53,55.53,0,0,0-9.06-3.48,0,0,0,0,0,0,0Z" transform="translate(0 29.77)" style="fill:#ce6b00"/><path d="M313.91,325.4c5.72,2.11,9.15,7.25,14.15,10.43.24.15.53-.21.31-.4-4.48-3.76-8.66-8.57-14.33-10.5-.3-.1-.43.36-.13.47Z" transform="translate(0 29.77)" style="fill:#ce6b00"/><path d="M327.51,321.69c3.93,2.31,6.65,5.85,9.07,9.63.2.3.76.11.62-.26-1.73-4.45-5.33-7.58-9.42-9.84a.27.27,0,0,0-.27.47Z" transform="translate(0 29.77)" style="fill:#ce6b00"/><path d="M315.22,339.57c2.89,1.15,4.48,4,6.2,6.36a.31.31,0,0,0,.54-.31c-1.46-2.93-3.37-5.56-6.55-6.71-.42-.15-.59.5-.19.66Z" transform="translate(0 29.77)" style="fill:#ce6b00"/><path d="M306.75,345.86c1.46.84,2.84,1.78,4.22,2.74.27.18.6-.25.35-.45a27.28,27.28,0,0,0-4.3-2.75c-.3-.16-.57.29-.27.46Z" transform="translate(0 29.77)" style="fill:#ce6b00"/><path d="M295.73,340.76a25.71,25.71,0,0,1,5.45,4,.13.13,0,0,0,.18-.19,15.54,15.54,0,0,0-5.62-3.83s0,0,0,0Z" transform="translate(0 29.77)" style="fill:#ce6b00"/><path d="M289.84,351.59a66.52,66.52,0,0,1,6,4.12c.26.2.62-.25.36-.46a48.24,48.24,0,0,0-6.14-4.05.23.23,0,0,0-.23.39Z" transform="translate(0 29.77)" style="fill:#ce6b00"/><path d="M301.62,353.23a36.84,36.84,0,0,1,5.84,5.87c.25.29.74-.09.53-.4a23.36,23.36,0,0,0-6.07-6c-.32-.23-.6.29-.3.52Z" transform="translate(0 29.77)" style="fill:#ce6b00"/><path d="M283.52,342.83a9.14,9.14,0,0,1,4.71,1.85c.28.21.62-.24.37-.47a6.87,6.87,0,0,0-5.08-1.9.26.26,0,0,0,0,.52Z" transform="translate(0 29.77)" style="fill:#ce6b00"/><path d="M273,356.17a19.24,19.24,0,0,1,6.71,2.26A.24.24,0,0,0,280,358a15.34,15.34,0,0,0-7-2.19c-.22,0-.21.32,0,.35Z" transform="translate(0 29.77)" style="fill:#ce6b00"/><path d="M285.63,358.71a35.76,35.76,0,0,1,5.88,4.13c.21.17.62-.06.42-.32a13.37,13.37,0,0,0-6.15-4.18c-.21-.08-.36.27-.15.37Z" transform="translate(0 29.77)" style="fill:#ce6b00"/><path d="M286.93,370.17a27.09,27.09,0,0,1,2.16,2.26,25.53,25.53,0,0,0,2,2.38.29.29,0,0,0,.45-.34c-.84-1.87-2.64-3.43-4.13-4.78-.33-.3-.81.18-.49.48Z" transform="translate(0 29.77)" style="fill:#ce6b00"/><path d="M296.78,362.43a8,8,0,0,1,2.12,3.51c.12.39.76.34.73-.1a5.38,5.38,0,0,0-2.36-4c-.37-.28-.84.33-.49.64Z" transform="translate(0 29.77)" style="fill:#ce6b00"/><path d="M272.55,364.92a29.07,29.07,0,0,1,5.58,2.21.26.26,0,0,0,.26-.45,22.56,22.56,0,0,0-5.7-2.3.28.28,0,0,0-.14.54Z" transform="translate(0 29.77)" style="fill:#ce6b00"/><path d="M273.26,373.44c1.93.95,3.84,1.95,5.75,2.93a.33.33,0,0,0,.33-.56,63.56,63.56,0,0,0-5.78-2.89c-.34-.16-.65.35-.3.52Z" transform="translate(0 29.77)" style="fill:#ce6b00"/><path d="M271.51,382.44a42.77,42.77,0,0,1,3.92,3.57.29.29,0,0,0,.46-.35,11.85,11.85,0,0,0-4-3.88c-.42-.28-.78.38-.39.66Z" transform="translate(0 29.77)" style="fill:#ce6b00"/><path d="M259.15,374.88a14.63,14.63,0,0,1,4.33,2.33c.32.24.72-.29.43-.56a10.66,10.66,0,0,0-4.59-2.36.31.31,0,0,0-.17.59Z" transform="translate(0 29.77)" style="fill:#ce6b00"/><path d="M262,385.14c1.09.92,2.19,1.84,3.31,2.72.14.11.33-.07.2-.19-1.07-.95-2.17-1.86-3.27-2.77-.17-.14-.41.1-.24.24Z" transform="translate(0 29.77)" style="fill:#ce6b00"/><path d="M251.39,390.64a17.84,17.84,0,0,1,4.93,1.57.25.25,0,0,0,.26-.43,11.06,11.06,0,0,0-5.1-1.83c-.38-.05-.48.63-.09.69Z" transform="translate(0 29.77)" style="fill:#ce6b00"/><path d="M261.09,392.35a5.65,5.65,0,0,1,2.09,1.31c.26.26.76-.08.52-.4a4.47,4.47,0,0,0-2.4-1.68c-.5-.15-.7.61-.21.77Z" transform="translate(0 29.77)" style="fill:#ce6b00"/><path d="M309.93,307.86c0,.7,17.57,6.79,19.23,14s-29.5,33.87-45.34,43.27-28,36.21-36.39,38.47l16.54-.87,27.33-20.89L326,354.52l15.32-9.23,7-12.71-4.87-19-30.47-10.79Z" transform="translate(0 29.77)" style="fill:#d85107;opacity:0.35000000000000003"/></g><path d="M80.11,823H18.71l13,63a6.1,6.1,0,0,0,2.69,3.92c5.63,3.61,20.61,7.84,43.3,7.67,15.88-.12,30.52-4.26,37.22-7.71a7.42,7.42,0,0,0,3.87-5.1L131.44,823Z" transform="translate(0 29.77)" style="fill:#ea2727"/><g style="clip-path:url(#clip-path-33)"><g style="opacity:0.6000000000000001;mix-blend-mode:multiply"><path d="M45.63,885.42a315,315,0,0,1-7.44-42.69l-1.24.71c2.79,1.7,2.46,7.86,2.89,10.68l1.62,10.4c1.12,7.25,2.17,14.51,3.39,21.74.19,1.12,2.09.87,2-.27l-.11-1.22a.89.89,0,0,0-1.77,0L44.82,886l2-.27c-1.37-8.81-3-17.59-4.44-26.38-.74-4.36-1.21-8.89-2.24-13.19-.43-1.82-.82-3-2.35-4.14a.83.83,0,0,0-1.24.72,233.82,233.82,0,0,0,8.18,42.94.47.47,0,0,0,.91-.25Z" transform="translate(0 29.77)" style="fill:#d61212"/><path d="M38.08,844.77c1.14,9.63,2.28,19.73,4.69,29.13.23.89,1.74.73,1.65-.23-.92-9.66-3.25-19.57-5.43-29-.12-.49-1-.4-.91.13Z" transform="translate(0 29.77)" style="fill:#d61212"/><path d="M59.34,887.43c.38-7.18-1-14.38-1.74-21.51-.72-7.34-2.07-15.38.47-22.47L56,843.17c.72,15.16.87,30.37,1.26,45.54,0,1.45,2.3,1.45,2.25,0-.49-15.17-1.23-30.36-1.39-45.54a1.07,1.07,0,0,0-2.08-.28c-2.61,6.76-1.49,14.05-.76,21.07.81,7.83,2.38,15.61,2.73,23.47a.67.67,0,0,0,1.34,0Z" transform="translate(0 29.77)" style="fill:#d61212"/><path d="M73.11,890.44c-1.72-16.7-3.54-33.13.44-49.69L72,840.54c.92,16.68.48,33.34-.15,50h2c-.81-7.1-1.53-14.22-1.92-21.36s-.9-14.44.92-21.3l-1.8-.24c-.2,10.43-.31,21,.91,31.35.14,1.16,1.94,1.22,1.87,0-.63-10.47-1.36-20.85-.95-31.35a.92.92,0,0,0-1.8-.24c-1.85,6.45-1.39,13.2-1.08,19.84.35,7.78,1.07,15.55,1.85,23.3a1,1,0,0,0,2,0c.88-16.66.41-33.36-.26-50a.8.8,0,0,0-1.56-.21c-4.2,16.39-2.41,33.72.3,50.22.07.45.84.35.79-.11Z" transform="translate(0 29.77)" style="fill:#d61212"/><path d="M91.59,887c-1.15-15.39-.21-30.48,1.64-45.76H91.62c1.54,15.38-2,31-.68,46.41.06.72,1.27,1,1.38.18,1-7.53.72-15.36.85-23,.14-7.84.75-15.83.06-23.64-.07-.84-1.42-1.18-1.59-.21-2.61,15.12-2.7,30.71-1.41,46,.07.86,1.43.88,1.36,0Z" transform="translate(0 29.77)" style="fill:#d61212"/><path d="M91.84,859.27c-1.21,5.78-2.17,12.17-1,18,.12.6,1,.43,1-.13.27-6-.05-11.67,1-17.59.11-.68-.9-1-1-.29Z" transform="translate(0 29.77)" style="fill:#d61212"/><path d="M107.56,886.21c3.58-15.3,2.46-31.26,7-46.37l-2-.27c-.12,16.18-6.28,31.63-6.17,47.88a1.07,1.07,0,0,0,2.13,0c-.12-16.15,5-31.8,6.05-47.88.08-1.19-1.61-1.27-2-.26-5.34,15-3.06,31.19-6.43,46.53-.19.87,1.13,1.24,1.34.37Z" transform="translate(0 29.77)" style="fill:#d61212"/></g><polygon points="89.86 851.23 75.08 935.63 134.42 932.13 143.04 844.46 89.86 851.23" style="fill:#ce1313;opacity:0.6000000000000001"/></g><path d="M56.7,755.45s.41-6.16,2.47-6.78,6.77-1.64,8.41-.82,5.75,2.47,6.78,4.72S56.7,755.45,56.7,755.45Z" transform="translate(0 29.77)" style="fill:#232533"/><path d="M117.89,771.67c.41-.82,4.72-3.49,7.8-2.46s5.55,3.08,5.75,6.36-.61,6.16-1.84,6.57S117.89,771.67,117.89,771.67Z" transform="translate(0 29.77)" style="fill:#232533"/><path d="M7,794.46s-4.93-4.1-3.9-6.57,2.46-8.21,3.9-9,4.72,0,5.75,1.44S7,794.46,7,794.46Z" transform="translate(0 29.77)" style="fill:#232533"/><path d="M4.5,798.4c1.23-5.65,1.44-21.67,12.28-26s21.67-13,26-15.89,36.11-5.78,46.23-5.78,20.22,3.61,26,11.55,24.56,22.39,28.89,29.62,5.06,22.39-3.61,29.61-18.06,0-23.84,3.61-15.16,8-26.72,5.06-31.06,3.61-34.67,4.33-35.39-4.33-40.45-7.22S-.56,821.51,4.5,798.4Z" transform="translate(0 29.77)" style="fill:#ff8b00"/><g style="clip-path:url(#clip-path-34)"><path d="M54.14,751.45c3.08.61,17.86,8.41,22.38,12.93s4.31,15.2,6.77,23.41,3.7,18.89-1,25.67-14,14.78-25.67,15.4-28.75-1.46-37.89-.42S9.37,836,9.37,836l79.47,3.9,45.38-9.65,16.63-11.7,1.85-24.23s-14-18.69-14.38-18.89S118,757.4,118,757.4s-22.58-12.53-23.2-12.53S54.14,751.45,54.14,751.45Z" transform="translate(0 29.77)" style="fill:#d85107;opacity:0.35000000000000003"/><path d="M43.56,778.45c-.57-1.05,1-4.73,3.9-5.75s6.37-1.85,9.24-.82,4.11,5.13,4.11,6S46,783,43.56,778.45Z" transform="translate(0 29.77)" style="fill:#232533"/><path d="M18.71,801.24c.92-3.37,7.19-5.34,9-5.13s1.64,5.75,1.44,7.59S16.25,810.27,18.71,801.24Z" transform="translate(0 29.77)" style="fill:#232533"/><path d="M64.09,804.73c1.79-3.12,8.83-1.44,10.27-.82s2.67,4.52,2,6S60,811.92,64.09,804.73Z" transform="translate(0 29.77)" style="fill:#232533"/><path d="M90.58,763.05c1.85-2.09,7.6-.82,9,0a3.49,3.49,0,0,1,1,4.72C99.62,769.41,85.86,768.39,90.58,763.05Z" transform="translate(0 29.77)" style="fill:#232533"/><path d="M117.22,808.14c0-2.29,6.08-6.61,7.36-7.31s6.94-.33,8.82-.2,3,1.89,3.62,3.45-12.24,6.61-14.7,6.4S117.27,812,117.22,808.14Z" transform="translate(0 29.77)" style="fill:#232533"/><path d="M94.48,794.67c.5-1.68,4.11-4.52,6.16-4.31s4.52,1.84,3.9,4.31S92.43,801.65,94.48,794.67Z" transform="translate(0 29.77)" style="fill:#232533"/><path d="M37.14,783.74c2.85-2.4,4.23-3.63,8.39-3.54,2,0,3.95.58,6,.52a28.56,28.56,0,0,0,5.2-.65,22.25,22.25,0,0,1,10.17,0c.44.1.76-.53.32-.75-6.14-3.08-10.86-.07-17.37.07-2.42.05-5.55-1.15-7.9-.53-2.05.53-3.8,3.12-5.13,4.53-.2.21.1.49.31.31Z" transform="translate(0 29.77)" style="fill:#a05000"/><path d="M15.57,804c4.84,4.11,11.46,3.38,17,1.12a.54.54,0,0,0-.29-1c-5.59,1.14-11.28,3.07-16.48-.45-.21-.15-.48.19-.28.36Z" transform="translate(0 29.77)" style="fill:#a05000"/><path d="M58.22,809.57c3.79-.81,7,1.12,10.57,1.64s7.14.33,10.71.94a.34.34,0,0,0,.18-.66c-4.19-1.28-8.62-.63-12.89-1.58-3-.66-5.64-1.68-8.75-1-.41.1-.23.72.18.63Z" transform="translate(0 29.77)" style="fill:#a05000"/><path d="M89.79,798.92c2.61-1.78,5.83.21,8.73-.24s5.6-2.2,8.33-3.23a.34.34,0,0,0-.17-.65c-4.11.75-7,3.75-11.45,3.15-2.14-.29-3.85-.9-5.73.48-.28.21,0,.69.29.49Z" transform="translate(0 29.77)" style="fill:#a05000"/><path d="M113.2,813.72c3.44-4.12,10-2.75,14.84-4.21a43.44,43.44,0,0,0,10.8-5.38c.3-.19,0-.67-.28-.48A44,44,0,0,1,121.13,810c-3.16.44-6.1.88-8.15,3.52-.12.15.09.37.22.21Z" transform="translate(0 29.77)" style="fill:#a05000"/><path d="M86.25,766.38c2.94-1.06,7.16,1.93,10.24,2.39,2.7.41,5.36.41,8,1.06.65.16,1.16-.86.48-1.15-2.91-1.24-5.87-.81-9-1-3.44-.25-6.44-2.47-9.87-1.51-.16,0-.09.29.06.24Z" transform="translate(0 29.77)" style="fill:#a05000"/></g><path d="M386.12,837.57c0,9.44-.8,18.11-4.62,26-9.8,20.22-30.8,34-56.24,34-15.57,0-30.11-5-41.22-13.71-7.4-5.8-11.79-13.41-15.46-22.11-2.72-6.44-5.72-13.41-5.72-21.09,0-30.46,18-58.22,46.58-59.1,2.81-.09,9.66-1,11.43-1.1,4.17-.22,8.1-.52,13.62-.88,21.77-1.41,39.41,11.47,47.74,31.16C385.59,818.65,386.12,827.91,386.12,837.57Z" transform="translate(0 29.77)" style="fill:#ff8b00"/><g style="clip-path:url(#clip-path-35)"><path d="M287.25,775.83s67.69-7.58,75.58,33.83c10.55,55.37-31.2,89.64-100.62,59.76l42.18,36.91,52.51-2.19,31.42-33.84,7.91-35.81L386.12,792.3l-25-21.75-58.67,5.06" transform="translate(0 29.77)" style="fill:#d85107;opacity:0.35000000000000003"/><path d="M348,841.89a9.6,9.6,0,0,1,.68-2.15,7,7,0,0,1,.43-.81c.33-.44.16-.31.22.12a4.65,4.65,0,0,1-1.44,3.63l.92-.12c-1-.68.67-2.89,1.14-3.5h-1.27a.93.93,0,0,0,.71.56.56.56,0,0,0,.61-.25,1,1,0,0,0-.05-1.06.73.73,0,0,0-1.15-.14c-1.17,1.44-3,4.36-.76,5.71a.77.77,0,0,0,.92-.12,6.47,6.47,0,0,0,1.51-3.08,4.06,4.06,0,0,0-.32-3c-1.54-1.88-2.92,3.09-3.09,3.94-.11.61.81.87.94.26Z" transform="translate(0 29.77)" style="fill:#ff8b00"/><g style="opacity:0.35000000000000003;mix-blend-mode:multiply"><path d="M351,845.68a8.15,8.15,0,0,1,.4-2.86c.19-.56.59-1.19,1.17-1.13s.83.73.88,1.29a5,5,0,0,1-.84,3.24c-.27.4-.85.79-1.21.45a1,1,0,0,1-.12-.86,8.69,8.69,0,0,1,1.33-3.78,4.76,4.76,0,0,1-.68,3.76,3.9,3.9,0,0,1,.56-2.58" transform="translate(0 29.77)" style="fill:#ff8b00"/></g><g style="opacity:0.35000000000000003;mix-blend-mode:multiply"><path d="M323.14,848a8.43,8.43,0,0,1,2.38-1.62c.53-.24,1.28-.37,1.62.1s0,1.1-.36,1.52a5,5,0,0,1-3,1.56c-.48.07-1.16-.1-1.14-.59,0-.3.29-.51.55-.67a8.73,8.73,0,0,1,3.69-1.56,4.74,4.74,0,0,1-3.24,2,3.86,3.86,0,0,1,2.29-1.32" transform="translate(0 29.77)" style="fill:#ff8b00"/></g><g style="opacity:0.35000000000000003;mix-blend-mode:multiply"><path d="M354.48,817.3a.64.64,0,0,1,.9-.11.59.59,0,0,1-.05.88.54.54,0,0,1-.8-.31.51.51,0,0,1,.6-.58.21.21,0,0,1,.15.12.2.2,0,0,1,0,.13.75.75,0,0,1-.34.57.41.41,0,0,1-.57-.18.62.62,0,0,1,.49-.38" transform="translate(0 29.77)" style="fill:#ff8b00"/></g><g style="opacity:0.35000000000000003;mix-blend-mode:multiply"><path d="M342.12,799.4a.58.58,0,0,1,.87.38.58.58,0,0,1-.72.61.59.59,0,0,1,.34-.78.31.31,0,0,1-.11.53" transform="translate(0 29.77)" style="fill:#ff8b00"/></g><g style="opacity:0.35000000000000003;mix-blend-mode:multiply"><path d="M340.37,831.79a.25.25,0,1,1,.32.38c-.09,0-.2-.1-.15-.19s.19.09.09.1" transform="translate(0 29.77)" style="fill:#ff8b00"/></g><g style="opacity:0.35000000000000003;mix-blend-mode:multiply"><path d="M335.5,859.87a.42.42,0,0,1,.69.07.43.43,0,0,1-.38.58c-.15-.07,0-.35.14-.27" transform="translate(0 29.77)" style="fill:#ff8b00"/></g><g style="opacity:0.35000000000000003;mix-blend-mode:multiply"><path d="M314.16,873.16a7.41,7.41,0,0,1,1.4-1,1.1,1.1,0,0,1,1.47.47,1,1,0,0,1-.28,1,2.12,2.12,0,0,1-.94.49,5,5,0,0,1-1.44.18.76.76,0,0,1-.39-.08c-.29-.19-.21-.64,0-.92a1.74,1.74,0,0,1,2-.59,1.51,1.51,0,0,1-1.18.75" transform="translate(0 29.77)" style="fill:#ff8b00"/></g><g style="opacity:0.35000000000000003;mix-blend-mode:multiply"><path d="M296.58,874a.37.37,0,1,1,.72.1.26.26,0,0,1-.36-.1" transform="translate(0 29.77)" style="fill:#ff8b00"/></g><g style="opacity:0.35000000000000003;mix-blend-mode:multiply"><path d="M280.22,867.57a.62.62,0,0,1,.78-.47.63.63,0,0,1,.31.86.52.52,0,0,1-.53.24.37.37,0,0,1-.27-.48c0-.07.1-.13.16-.09s-.05.14-.06.07" transform="translate(0 29.77)" style="fill:#ff8b00"/></g><g style="opacity:0.35000000000000003;mix-blend-mode:multiply"><path d="M331.4,823.3a.63.63,0,0,0,.76-.41.25.25,0,0,0-.18-.3.24.24,0,0,0-.3.17s0,0,0,0,0,0,0,0l0,0-.06,0h0s0,0,0,0-.05,0,0,0a.21.21,0,0,0-.26.15.2.2,0,0,0,.15.26Z" transform="translate(0 29.77)" style="fill:#ff8b00"/></g><g style="opacity:0.35000000000000003;mix-blend-mode:multiply"><path d="M330,810.36l.06-.11c0-.07,0,0,0,0l.06-.07c.08-.08-.06,0,0,0l.09,0s.08,0,0,0a.59.59,0,0,0,.37-.26.45.45,0,0,0-.15-.6.8.8,0,0,0-.82.14,1.39,1.39,0,0,0-.46.53.46.46,0,0,0,.8.47Z" transform="translate(0 29.77)" style="fill:#ff8b00"/></g><g style="opacity:0.35000000000000003;mix-blend-mode:multiply"><path d="M320.8,797.52a.51.51,0,0,1,.16-.09l-.39,0a.83.83,0,0,0,.53.27h0l.12,0a1,1,0,0,1,.37.15.51.51,0,0,0,.74-.57,1.17,1.17,0,0,0-1.25-.77.61.61,0,0,0-.56.43l-.05.15.15-.19a1.7,1.7,0,0,0-.22.15c-.27.22.09.68.38.49Z" transform="translate(0 29.77)" style="fill:#ff8b00"/></g><g style="opacity:0.35000000000000003;mix-blend-mode:multiply"><path d="M303.26,831.27l.3-.16a.79.79,0,0,0,.3-.3.32.32,0,0,0-.19-.47.82.82,0,0,0-.44,0l-.33.09a.47.47,0,0,0-.3.63.47.47,0,0,0,.66.22Z" transform="translate(0 29.77)" style="fill:#ff8b00"/></g><g style="opacity:0.35000000000000003;mix-blend-mode:multiply"><path d="M293.92,847.29a3.29,3.29,0,0,0-.42.63.19.19,0,0,0,.25.26,3.91,3.91,0,0,0,.57-.58.25.25,0,1,0-.4-.31Z" transform="translate(0 29.77)" style="fill:#ff8b00"/></g><g style="opacity:0.35000000000000003;mix-blend-mode:multiply"><path d="M276.43,833.2a7.88,7.88,0,0,0-.95,1.54c-.11.29.3.47.5.29a8.11,8.11,0,0,0,1.08-1.46c.25-.39-.37-.75-.63-.37Z" transform="translate(0 29.77)" style="fill:#ff8b00"/></g><g style="opacity:0.35000000000000003;mix-blend-mode:multiply"><path d="M284.18,814.21a3.15,3.15,0,0,0,.64-1.46c0-.16-.22-.2-.29-.08a13.91,13.91,0,0,1-.75,1.23.25.25,0,1,0,.4.31Z" transform="translate(0 29.77)" style="fill:#ff8b00"/></g><g style="opacity:0.35000000000000003;mix-blend-mode:multiply"><path d="M288.32,800.76a11.39,11.39,0,0,1,1.66-1.67c.38-.35-.1-.84-.51-.66a4.64,4.64,0,0,0-1.93,1.87c-.31.5.45.93.78.46Z" transform="translate(0 29.77)" style="fill:#ff8b00"/></g><g style="opacity:0.35000000000000003;mix-blend-mode:multiply"><path d="M297.47,813.91a1.71,1.71,0,0,0-.75,1.48.44.44,0,0,0,.65.26,1.72,1.72,0,0,0,.5-.54,3,3,0,0,1,.4-.4.58.58,0,0,0,0-.8.59.59,0,0,0-.8,0Z" transform="translate(0 29.77)" style="fill:#ff8b00"/></g><ellipse cx="294.95" cy="804.47" rx="8.77" ry="6.67" transform="translate(-515.3 555.56) rotate(-50.88)" style="fill:#fff;opacity:0.45"/></g><path d="M307.93,792.79c-2.39-2.36,4.77-7.81,11.91-8.22s16.18,1.63,15.76,4.9S315.4,800.17,307.93,792.79Z" transform="translate(0 29.77)" style="fill:#d85107;opacity:0.35000000000000003"/><path d="M321.09,768.36s-.66,7.91-.44,8.56,1.76,8.35,1.76,8.35-9.13-4.44-9.07-5.63c0,0-2.14,2.78-2.14,3.44s9.89,5.71,9.89,5.71l1.32,3.08a4,4,0,0,0,3.07.22,2.79,2.79,0,0,0,1.54-1.76s-3.08-11.21-2.64-13.19a86.26,86.26,0,0,0,.66-8.78A3.62,3.62,0,0,1,321.09,768.36Z" transform="translate(0 29.77)" style="fill:#a05000"/><ellipse cx="323.07" cy="798.12" rx="1.98" ry="0.88" style="fill:#b25d10"/><path d="M243.65,771.19s19.71-18.22,38-23,36.7,19.11,29.33,33.46c-4.49,8.74-22.33,14.66-33,1.45S261.78,769.38,243.65,771.19Z" transform="translate(0 29.77)" style="fill:#35a31a"/><g style="clip-path:url(#clip-path-36)"><path d="M237.55,775.09S273.9,752.73,290.5,761c14.83,7.35,17.4,29.38,4.8,33.47s15.14,1.2,15.14,1.2l7.6-37.39-32.37-14.56-29.51,7.94Z" transform="translate(0 29.77)" style="fill:#428e06"/></g><path d="M262.27,764.06c5.44-1.87,10.93-3.8,16.77-3.83,6.29,0,11.64,2.8,16.15,7,3.47,3.27,6.27,7.15,9.27,10.84,2.29,2.83,4.39,3.73,7.69,5.09,1.41.58,2.44-1.83,1.05-2.49-2.05-1-4.05-1.66-5.69-3.27-2-2-3.54-4.43-5.34-6.55-3.32-3.89-7.06-7.65-11.66-10-8.85-4.5-20.1-1.84-28.47,2.62a.3.3,0,0,0,.23.54Z" transform="translate(0 29.77)" style="fill:#327c01"/><path d="M535.51,779.07s11.4-3.19,12.77-8.67-3.19-10.94-7.3-11.85-5.93-3.65-4.56-6.39,3.19-5,5.47-4.56,5.93,3.2,11.4,7.76,7.3,11.85,8.67,14.59,5.93,6.38,12.77,8.21,8.2,6.38-.92,9.12S514.12,787.86,535.51,779.07Z" transform="translate(0 29.77)" style="fill:#a05000"/><g style="clip-path:url(#clip-path-37)"><path d="M533.9,748.49c2.64,1.5,10.93,4.33,14.7,6.78s8.29,8.1,7,13.19-6,10-4.52,13,26.75,7,26.75,7l4.71-7.73-.37-6-40.32-29.95Z" transform="translate(0 29.77)" style="fill:#6b2b00;opacity:0.29"/></g><ellipse cx="606.25" cy="865.9" rx="22.61" ry="49.47" style="fill:#ff8b00"/><g style="clip-path:url(#clip-path-38)"><path d="M599.38,784.85s14.6,9.61,13.09,54.82-18.65,54.45-18.65,54.45l-4.15-13.94,12.81-48-8.75-40,5.65-7.27" transform="translate(0 29.77)" style="fill:#d85107;opacity:0.35000000000000003"/><path d="M511.25,774.69s55.58,4.52,82,28.45,10,81.77-30.52,85.72-59.34-3.2-59.34-3.2l29.39,15.07,47.47-3.2,26-6.59,22.61-11.87s2.26-58,2.26-61.05-7.91-37.68-7.91-37.68L561.93,770Z" transform="translate(0 29.77)" style="fill:#d85107;opacity:0.35000000000000003"/></g><ellipse cx="583.64" cy="865.9" rx="26" ry="56.89" style="fill:#ff8b00"/><g style="clip-path:url(#clip-path-39)"><path d="M572.34,779.2s11.68,3.76,15.26,42-10.74,83.27-21.48,75.17l4.33-20.72,2.64-65.19L569,784.28Z" transform="translate(0 29.77)" style="fill:#d85107;opacity:0.35000000000000003"/><path d="M511.25,774.69s55.58,4.52,82,28.45,10,81.77-30.52,85.72-59.34-3.2-59.34-3.2l29.39,15.07,47.47-3.2,26-6.59,22.61-11.87s2.26-58,2.26-61.05-7.91-37.68-7.91-37.68L561.93,770Z" transform="translate(0 29.77)" style="fill:#d85107;opacity:0.35000000000000003"/></g><ellipse cx="503.29" cy="865.9" rx="22.61" ry="49.47" style="fill:#ff8b00"/><g style="clip-path:url(#clip-path-40)"><path d="M509.41,782.21S496.79,798.79,497,833.08c.23,41.56,11.3,54.45,11.3,54.45l5.36-5.48-3.47-47.65,5.54-52.4Z" transform="translate(0 29.77)" style="fill:#d85107;opacity:0.35000000000000003"/></g><ellipse cx="525.9" cy="865.9" rx="26" ry="56.89" style="fill:#ff8b00"/><g style="clip-path:url(#clip-path-41)"><path d="M538.61,777.88s-14.5,12-14.88,56.52,15.07,60.29,15.07,60.29l5.28-9.05-.19-102.87Z" transform="translate(0 29.77)" style="fill:#d85107;opacity:0.35000000000000003"/><path d="M511.25,774.69s55.58,4.52,82,28.45,10,81.77-30.52,85.72-59.34-3.2-59.34-3.2l29.39,15.07,47.47-3.2,26-6.59,22.61-11.87s2.26-58,2.26-61.05-7.91-37.68-7.91-37.68L561.93,770Z" transform="translate(0 29.77)" style="fill:#d85107;opacity:0.35000000000000003"/></g><ellipse cx="555.57" cy="865.9" rx="28.07" ry="61.42" style="fill:#ff8b00"/><g style="clip-path:url(#clip-path-42)"><path d="M511.25,774.69s55.58,4.52,82,28.45,10,81.77-30.52,85.72-59.34-3.2-59.34-3.2l29.39,15.07,47.47-3.2,26-6.59,22.61-11.87s2.26-58,2.26-61.05-7.91-37.68-7.91-37.68L561.93,770Z" transform="translate(0 29.77)" style="fill:#d85107;opacity:0.35000000000000003"/></g><ellipse cx="518.66" cy="796.78" rx="7.52" ry="5.72" transform="translate(-426.76 726.29) rotate(-50.88)" style="fill:#fff;opacity:0.45"/><ellipse cx="511.28" cy="809.75" rx="4.05" ry="3.08" transform="translate(-429.85 1016.66) rotate(-68.39)" style="fill:#fff;opacity:0.45"/></g></g></g></svg>