<svg width="1000" height="1000" viewBox="0 0 1000 1000" fill="none" xmlns="http://www.w3.org/2000/svg">
<path d="M625.352 172.273C556.242 171.375 512.039 217.166 505.307 250.836L510.917 292.362L901.343 158.805L851.978 138.603C846.369 144.214 832.682 150.724 804.858 158.805C770.079 168.906 711.739 173.395 625.352 172.273Z" fill="#E2E4F9"/>
<path d="M377.98 173.401C450.604 172.503 498.234 216.049 505.307 249.719L498.234 293.49L87.956 159.933L136.198 136.364C142.093 141.975 160.108 151.852 189.346 159.933C225.894 170.034 287.2 174.523 377.98 173.401Z" fill="#E2E4F9"/>
<ellipse cx="503.066" cy="311.441" rx="60.5833" ry="62.8507" fill="#646B76"/>
<path d="M512.784 854.654L864.96 703.798L915.929 171.153C915.929 171.153 920.415 165.936 915.929 158.807C911.442 151.679 899.729 156.767 899.729 156.767L502.689 286.962L106.771 161.576C106.771 161.576 80.9746 149.008 76.4883 156.948C72.002 164.888 76.4881 169.85 76.4881 169.85L131.446 703.798L512.784 854.654Z" fill="#1CB85B"/>
<mask id="mask0" mask-type="alpha" maskUnits="userSpaceOnUse" x="76" y="156" width="840" height="708">
<path d="M503.635 291.621C473.303 291.621 76.7378 156.563 76.7378 156.563L131.785 708.713L308.161 764.325L505.882 863.633L703.603 764.325L866.498 708.713L915.928 156.563C915.928 156.563 533.967 291.621 503.635 291.621Z" fill="#F7D55A"/>
</mask>
<g mask="url(#mask0)">
<g style="mix-blend-mode:multiply">
<path d="M588.327 910.773C602.687 707.855 760.353 296.482 837.391 116.161H996.703L1055.04 587.541C893.487 779.834 573.966 1113.69 588.327 910.773Z" fill="#11A04B" fill-opacity="0.46"/>
</g>
<path d="M745.306 507.039C742.614 561.514 831.375 560.025 831.275 565.509C830.809 591.1 756.084 556.162 760.337 594.762C764.591 633.363 816.343 661.522 860.506 667.036C934.009 676.214 976.266 618.05 986.146 538.864C996.026 459.677 969.787 389.454 896.284 380.276C848.929 374.363 779.141 390.216 775.43 433.004C771.719 475.791 841.507 457.07 838.313 462.544C828.247 479.801 747.998 452.563 745.306 507.039Z" fill="#037C2B"/>
<path d="M258.944 507.039C261.636 561.514 172.875 560.025 172.975 565.509C173.441 591.1 248.166 556.162 243.913 594.762C239.66 633.363 187.907 661.522 143.744 667.036C70.2413 676.214 27.9844 618.05 18.1045 538.864C8.22465 459.677 34.4632 389.454 107.966 380.276C155.321 374.363 225.11 390.216 228.82 433.004C232.531 475.791 162.743 457.07 165.937 462.544C176.004 479.801 256.252 452.563 258.944 507.039Z" fill="#037C2B"/>
</g>
<path d="M428.974 286.661C428.974 286.661 485.412 303.94 501.537 303.94C517.662 303.94 571.797 285.581 571.797 285.581L560.279 842.489C560.279 842.489 537.243 856.87 500.961 856.87C464.68 856.87 441.644 842.489 441.644 842.489L428.974 286.661Z" fill="#11A04B"/>
<path d="M250.029 452.271C255.52 503.43 171.842 506.837 172.233 511.996C174.061 536.073 242.543 499.119 240.632 535.703C238.721 572.288 191.507 601.612 150.212 609.198C81.4824 621.824 38.5274 569.336 24.9253 495.293C11.3233 421.251 32.225 353.694 100.954 341.068C145.234 332.933 211.823 344.082 217.64 384.178C223.457 424.274 156.712 410.424 160.017 415.406C170.435 431.113 244.537 401.113 250.029 452.271Z" fill="#FFDA55"/>
<path d="M742.164 471.098C739.473 525.573 828.233 524.084 828.133 529.568C827.667 555.16 752.942 520.221 757.195 558.822C761.449 597.422 813.201 625.581 857.364 631.096C930.867 640.273 973.124 582.11 983.004 502.923C992.884 423.736 966.645 353.513 893.142 344.335C845.787 338.422 775.999 354.275 772.288 397.063C768.577 439.851 838.365 421.129 835.171 426.603C825.105 443.86 744.856 416.623 742.164 471.098Z" fill="#FFDA55"/>
</svg>
