<svg xmlns="http://www.w3.org/2000/svg" xmlns:xlink="http://www.w3.org/1999/xlink" viewBox="0 0 678 649"><defs><clipPath id="clip-path" transform="translate(8.05 9.64)"><path d="M20.61,280c17-42.33,89.18-136.87,129.43-155.89,45-21.23,95.16-29.84,108.75-32.71s55.32-8.6,76.64,2.13,36.81,23.38,55.12,73.88,42.35,137.88,21.84,193.13-75.08,149.23-113,181.15-123.28,23-140.78,38.46S96.39,626.54,78,610s-11.48-64.07-34.69-95.17S-27.23,399.19,20.61,280Z" style="fill:#ffd522"/></clipPath><clipPath id="clip-path-2" transform="translate(8.05 9.64)"><path d="M663.91,136.09S611.3,48.06,549.3,10.7s-155.1,30.43-143.56,91c7,36.84,66,77.78,119.24,40.84S599.4,109.9,663.91,136.09Z" style="fill:#2d9110"/></clipPath></defs><g id="Layer_2" data-name="Layer 2"><g id="Layer_3" data-name="Layer 3"><g id="Layer_4" data-name="Layer 4"><path d="M20.61,280c17-42.33,89.18-136.87,129.43-155.89,45-21.23,95.16-29.84,108.75-32.71s55.32-8.6,76.64,2.13,36.81,23.38,55.12,73.88,42.35,137.88,21.84,193.13-75.08,149.23-113,181.15-123.28,23-140.78,38.46S96.39,626.54,78,610s-11.48-64.07-34.69-95.17S-27.23,399.19,20.61,280Z" transform="translate(8.05 9.64)" style="fill:#ffd522"/><g style="clip-path:url(#clip-path)"><path d="M252,55.85c12,19-93,49-93,49s108-16,169,42,31,278-37,320S16,561.36,8,290.36l-16,96,17,91,68,162,97-60,131-21L450,324.85l-69-273Z" transform="translate(8.05 9.64)" style="fill:#ffba1f;opacity:0.6000000000000001"/><path d="M97,244.85c-14.84-21.3,30-78,73-92s76-18,89-2-58,38-86,52S120,277.85,97,244.85Z" transform="translate(8.05 9.64)" style="fill:#fff;opacity:0.41000000000000003"/><ellipse cx="335.92" cy="122.63" rx="15.64" ry="34.8" transform="translate(69.8 361.86) rotate(-60)" style="fill:#f78f1e"/></g><path d="M380.63,31.77s-7,34.2-8.78,36.71-17.79,33.05-17.79,33.05,44-7.44,45.26-12.5c0,0,5.57,14.36,4.76,17.14S355.26,118,355.26,118l-9.38,11.34s-8.51,1.53-13.26-2.89-4.3-9.33-4.3-9.33,26.89-43.46,27.49-52.35,8.13-37.91,8.13-37.91S369.72,34.61,380.63,31.77Z" transform="translate(8.05 9.64)" style="fill:#a05000"/><path d="M663.91,136.09S611.3,48.06,549.3,10.7s-155.1,30.43-143.56,91c7,36.84,66,77.78,119.24,40.84S599.4,109.9,663.91,136.09Z" transform="translate(8.05 9.64)" style="fill:#2d9110"/><g style="clip-path:url(#clip-path-2)"><path d="M670,144.36S567,21.8,502.17,50.35c-63,27.77-83.82,85.74-103.22,39-13.89-33.47,68-84,68-84l73-15,85,76Z" transform="translate(8.05 9.64)" style="fill:#35a31a"/></g><path d="M604.93,88c-10.67-11.31-24-19.84-37.45-27.4-13.7-7.69-28.43-13.92-44.28-14.89-32.6-2-61.53,16.72-87.19,34.47-6,4.14-12.32,10-19.34,12.26-5.75,1.82-12.33,1.7-18.26,2.75-6.68,1.18-5.22,12.77,1.62,12,5.6-.67,11.3-.66,16.86-1.67,5-.91,9.36-3.32,13.52-6.19,12.94-9,25.48-18.52,39-26.64,13.06-7.86,27-13.91,42.09-16.64,16.33-3,32.26.57,47.3,7.07,16.11,7,30.18,17.08,44.51,27,1.3.91,2.67-1,1.64-2.13Z" transform="translate(8.05 9.64)" style="fill:#327c01"/><ellipse cx="372.31" cy="28.51" rx="4.09" ry="8.88" transform="translate(245.93 386.5) rotate(-73.28)" style="fill:#c66a1e"/><g style="opacity:0.45"><path d="M198.3,261.86c7.66,0,7.68-11.91,0-11.91s-7.67,11.91,0,11.91Z" transform="translate(8.05 9.64)" style="fill:#f78f1e"/></g><g style="opacity:0.45"><path d="M208.66,410c3.83,0,3.83-6,0-6s-3.84,6,0,6Z" transform="translate(8.05 9.64)" style="fill:#f78f1e"/></g><g style="opacity:0.45"><path d="M274.92,358.28c3.83,0,3.84-6,0-6s-3.84,6,0,6Z" transform="translate(8.05 9.64)" style="fill:#f78f1e"/></g><g style="opacity:0.45"><path d="M103.05,483.43c7.66,0,7.67-11.91,0-11.91s-7.67,11.91,0,11.91Z" transform="translate(8.05 9.64)" style="fill:#f78f1e"/></g><g style="opacity:0.45"><path d="M24.36,432.82c3.83,0,3.84-5.95,0-5.95s-3.84,5.95,0,5.95Z" transform="translate(8.05 9.64)" style="fill:#f78f1e"/></g><g style="opacity:0.45"><path d="M258.36,424.41c7.66,0,7.67-11.91,0-11.91s-7.68,11.91,0,11.91Z" transform="translate(8.05 9.64)" style="fill:#f78f1e"/></g><g style="opacity:0.45"><path d="M173.45,500c7.67,0,7.68-11.9,0-11.9s-7.67,11.9,0,11.9Z" transform="translate(8.05 9.64)" style="fill:#f78f1e"/></g><g style="opacity:0.45"><path d="M99.94,459.61c7.66,0,7.68-11.9,0-11.9s-7.67,11.9,0,11.9Z" transform="translate(8.05 9.64)" style="fill:#f78f1e"/></g><g style="opacity:0.45"><path d="M210.73,247.49c3.83,0,3.83-6,0-6s-3.84,6,0,6Z" transform="translate(8.05 9.64)" style="fill:#f78f1e"/></g><g style="opacity:0.45"><path d="M236.61,169.84c3.83,0,3.84-6,0-6s-3.83,6,0,6Z" transform="translate(8.05 9.64)" style="fill:#f78f1e"/></g><g style="opacity:0.45"><path d="M293.56,269.1c7.66,0,7.67-11.9,0-11.9s-7.68,11.9,0,11.9Z" transform="translate(8.05 9.64)" style="fill:#f78f1e"/></g><g style="opacity:0.45"><path d="M22.29,449.26c7.66,0,7.67-11.91,0-11.91s-7.67,11.91,0,11.91Z" transform="translate(8.05 9.64)" style="fill:#f78f1e"/></g><g style="opacity:0.45"><path d="M144.46,270.14c7.67,0,7.68-11.91,0-11.91s-7.67,11.91,0,11.91Z" transform="translate(8.05 9.64)" style="fill:#f78f1e"/></g><g style="opacity:0.45"><path d="M119.62,387.14c7.66,0,7.67-11.91,0-11.91s-7.68,11.91,0,11.91Z" transform="translate(8.05 9.64)" style="fill:#f78f1e"/></g><path d="M198.3,338.76s0-.05,0-.05a0,0,0,0,0,0,.05Z" transform="translate(8.05 9.64)" style="fill:#f78f1e"/><g style="opacity:0.45"><path d="M206.59,326.05c7.66,0,7.67-11.91,0-11.91s-7.68,11.91,0,11.91Z" transform="translate(8.05 9.64)" style="fill:#f78f1e"/></g><path d="M234.54,190.7a0,0,0,0,0,0,0,0,0,0,0,0,0,0Z" transform="translate(8.05 9.64)" style="fill:#f78f1e"/><g style="opacity:0.45"><path d="M237.65,211.12c7.66,0,7.67-11.9,0-11.9s-7.68,11.9,0,11.9Z" transform="translate(8.05 9.64)" style="fill:#f78f1e"/></g><g style="opacity:0.45"><path d="M27.47,360.22c7.66,0,7.67-11.91,0-11.91s-7.68,11.91,0,11.91Z" transform="translate(8.05 9.64)" style="fill:#f78f1e"/></g></g></g></g></svg>