<svg xmlns="http://www.w3.org/2000/svg" xmlns:xlink="http://www.w3.org/1999/xlink" viewBox="0 0 825.23 753.75"><defs><clipPath id="clip-path" transform="translate(0 16.75)"><path d="M636.12,267.52S640.21,53.75,500.57,91.57c-43.09,11.67-44,91.56,9,115.8S605.6,222.63,636.12,267.52Z" style="fill:#35a31a"/></clipPath><clipPath id="clip-path-2" transform="translate(0 16.75)"><path d="M236.64,215.45S217.12,71.93,300.38,61.94c44.88-5.38,65.42,31.52,37.7,67.33C316.53,157.1,256.39,169.67,236.64,215.45Z" style="fill:#35a31a"/></clipPath><clipPath id="clip-path-3" transform="translate(0 16.75)"><path d="M589.65,428.38c-2.8-5.81-132-173.75-149.33-353h.1V21a21,21,0,0,0-21-21H414a24.77,24.77,0,0,0-24.78,24.78V75.41C301.27,292.66,198,379.74,194.44,385.12h24.24C342.57,259.44,415.28,75.41,415.28,75.41h.33C423.68,110,470.4,297,565.64,425Z" style="fill:#35a31a"/></clipPath><clipPath id="clip-path-4" transform="translate(0 16.75)"><path d="M377.58,533.25c-27.83,97.85-78.1,130.17-172.36,138.24C109.08,679.73,5,601.47.54,518c-5.18-96.34,26.5-196.6,123-196.6,53.87,0,75.41,44,105,49.38,31.52,5.73,86.63-14.18,113.11,5.38C383,406.67,397.48,463.28,377.58,533.25Z" style="fill:#ea2828"/></clipPath><clipPath id="clip-path-5" transform="translate(0 16.75)"><path d="M796.37,457.75c36.36,95,15.48,151-55.15,214-72,64.21-202.22,63.91-255.85-.24-61.88-74-96.59-173.28-19.34-231.09,43.12-32.28,86.73-10,113.67-23.41,28.67-14.31,60.86-63.27,93.78-63.47C724.83,353.19,770.38,389.81,796.37,457.75Z" style="fill:#ea2828"/></clipPath></defs><g style="isolation:isolate"><g id="Layer_2" data-name="Layer 2"><g id="Layer_3" data-name="Layer 3"><path d="M636.12,267.52S640.21,53.75,500.57,91.57c-43.09,11.67-44,91.56,9,115.8S605.6,222.63,636.12,267.52Z" transform="translate(0 16.75)" style="fill:#35a31a"/><g style="clip-path:url(#clip-path)"><path d="M478.12,94.26s26,0,77.21,48.48,88,134.66,88,134.66l2.93-62.4-56-126-78-13.59Z" transform="translate(0 16.75)" style="fill:#2d9110"/></g><path d="M236.64,215.45S217.12,71.93,300.38,61.94c44.88-5.38,65.42,31.52,37.7,67.33C316.53,157.1,256.39,169.67,236.64,215.45Z" transform="translate(0 16.75)" style="fill:#35a31a"/><g style="clip-path:url(#clip-path-2)"><path d="M346.16,71.82A254.28,254.28,0,0,0,292.3,114c-23,23.81-59.25,73.61-57.46,115.81l57.46-44.89,53.86-36.81,21.54-61L331,61.42" transform="translate(0 16.75)" style="fill:#2d9110"/></g><path d="M255.21,164.75c17.43-28.44,40.94-53.14,67.69-73a267.73,267.73,0,0,1,42-25.41A237.65,237.65,0,0,1,388,56.56q5.77-2.1,11.64-3.92c3.55-1.09,7.08-1.77,9.84-4.39a2.93,2.93,0,0,0-1.28-4.86c-5.84-1.34-12.52,2-18,3.93-6.13,2.14-12.16,4.54-18.1,7.13A246.87,246.87,0,0,0,278,126.92,259.25,259.25,0,0,0,253.92,164a.75.75,0,0,0,1.29.76Z" transform="translate(0 16.75)" style="fill:#358706"/><path d="M430.19,58.55c33.36,10.29,62.94,30.5,89.12,53.17,13.33,11.55,25.75,24,37.88,36.82,12.4,13.07,24.71,26.29,35.32,40.89,5.82,8,11.15,16.38,16.15,24.92,5.17,8.83,9.4,18.15,15.82,26.15,1.84,2.28,5.72-.19,4.86-2.83-2.81-8.62-7.53-16.22-12.15-24-4.77-8-9.7-15.92-15.23-23.42-10.88-14.75-23.48-28.12-36.26-41.21-25.08-25.71-51-51.22-81.75-70.17a200.23,200.23,0,0,0-53-23,1.41,1.41,0,0,0-.74,2.71Z" transform="translate(0 16.75)" style="fill:#358706"/><path d="M589.65,428.38c-2.8-5.81-132-173.75-149.33-353h.1V21a21,21,0,0,0-21-21H414a24.77,24.77,0,0,0-24.78,24.78V75.41C301.27,292.66,198,379.74,194.44,385.12h24.24C342.57,259.44,415.28,75.41,415.28,75.41h.33C423.68,110,470.4,297,565.64,425Z" transform="translate(0 16.75)" style="fill:#35a31a"/><g style="clip-path:url(#clip-path-3)"><path d="M386.56,13.47s35-10.78,39.5,9.87,43.09,247.77,53.86,280.09,94.26,134.66,94.26,134.66L602,409.36s-100.55-134.66-105.93-175S453.89,37.7,453.89,37.7L444-4.49,398.23-16.16Z" transform="translate(0 16.75)" style="fill:#2d9110;stroke:#35a31a;stroke-miterlimit:10"/></g><path d="M377.58,533.25c-27.83,97.85-78.1,130.17-172.36,138.24C109.08,679.73,5,601.47.54,518c-5.18-96.34,26.5-196.6,123-196.6,53.87,0,75.41,44,105,49.38,31.52,5.73,86.63-14.18,113.11,5.38C383,406.67,397.48,463.28,377.58,533.25Z" transform="translate(0 16.75)" style="fill:#ea2828"/><g style="clip-path:url(#clip-path-4)"><path d="M194.44,340.24S305.76,359.09,304.86,483,206,681,107.23,663c0,0,107,39,167.11,21.06S377.58,604.17,389.25,553s12.57-143.64-9-167.88S194.44,340.24,194.44,340.24Z" transform="translate(0 16.75)" style="fill:#c10505;opacity:0.46;mix-blend-mode:multiply"/></g><path d="M796.37,457.75c36.36,95,15.48,151-55.15,214-72,64.21-202.22,63.91-255.85-.24-61.88-74-96.59-173.28-19.34-231.09,43.12-32.28,86.73-10,113.67-23.41,28.67-14.31,60.86-63.27,93.78-63.47C724.83,353.19,770.38,389.81,796.37,457.75Z" transform="translate(0 16.75)" style="fill:#ea2828"/><g style="clip-path:url(#clip-path-5)"><path d="M589.44,385.12l-16.71,18.59s44.54-12.3,102.89,12.83S727.69,571,683.7,638.28s-115.8,87.08-173.26,75.41L631.23,737l134.16-45.76L825.23,552,786.94,380.63,674.72,334Z" transform="translate(0 16.75)" style="fill:#c10505;opacity:0.46;mix-blend-mode:multiply"/></g><ellipse cx="501.91" cy="494.2" rx="30.07" ry="22.89" transform="translate(-142.43 795.5) rotate(-68.38)" style="fill:#fff;opacity:0.45"/><ellipse cx="489.35" cy="552.55" rx="16.2" ry="12.33" transform="translate(-96.85 1017.78) rotate(-85.89)" style="fill:#fff;opacity:0.45"/><ellipse cx="98.48" cy="389.59" rx="30.07" ry="22.89" transform="translate(-265.92 236.97) rotate(-50.88)" style="fill:#fff;opacity:0.45"/><ellipse cx="68.95" cy="441.46" rx="16.2" ry="12.33" transform="translate(-366.87 359.74) rotate(-68.39)" style="fill:#fff;opacity:0.45"/></g></g></g></svg>