<svg xmlns="http://www.w3.org/2000/svg" xmlns:xlink="http://www.w3.org/1999/xlink" viewBox="0 0 731.17 643.28"><defs><clipPath id="clip-path"><path d="M689.56,143,289.87,2.22A38.94,38.94,0,0,0,240.19,26L202.06,134.42S183.24,198.92,151,164,57.43,82.5,8.54,164c-24.19,40.32,5.37,107.51,59.13,102.14s88.69,2.69,80.63,29.56c-5.39,18-30,86.46-45.75,129.84a38.94,38.94,0,0,0,23.56,50l121.64,43.3s34.94,10.75,34.94-13.44-16.13-96.76,34.94-118.26,118.26,16.12,118.26,64.5-40.32,67.2-48.38,75.26-13.44,37.63,21.5,48.38c22.37,6.88,78.89,25.88,116.67,38.67a38.94,38.94,0,0,0,49.25-24.08L713.39,192.57A38.94,38.94,0,0,0,689.56,143Z" style="fill:#4d88ce"/></clipPath></defs><g id="Layer_2" data-name="Layer 2"><g id="puzzle"><g id="Layer_4" data-name="Layer 4"><path d="M689.56,143,289.87,2.22A38.94,38.94,0,0,0,240.19,26L202.06,134.42S183.24,198.92,151,164,57.43,82.5,8.54,164c-24.19,40.32,5.37,107.51,59.13,102.14s88.69,2.69,80.63,29.56c-5.39,18-30,86.46-45.75,129.84a38.94,38.94,0,0,0,23.56,50l121.64,43.3s34.94,10.75,34.94-13.44-16.13-96.76,34.94-118.26,118.26,16.12,118.26,64.5-40.32,67.2-48.38,75.26-13.44,37.63,21.5,48.38c22.37,6.88,78.89,25.88,116.67,38.67a38.94,38.94,0,0,0,49.25-24.08L713.39,192.57A38.94,38.94,0,0,0,689.56,143Z" style="fill:#4d88ce"/><g style="clip-path:url(#clip-path)"><path d="M321.17.28s136,230,86,444l-44,147,179,52,39-12,35-106,115-347-20-38Z" style="fill:#2874bf"/></g></g></g></g></svg>