<svg xmlns="http://www.w3.org/2000/svg" xmlns:xlink="http://www.w3.org/1999/xlink" viewBox="0 0 757.79 768"><defs><clipPath id="clip-path" transform="translate(37.26)"><path d="M374.9,355.3s-105-147.78-122.85-182.5S237.81,88.23,269,54.41s112.12-75.8,163.79-41.84C463.92,33,488.85,63.31,488.85,63.31S546.71,50.85,589.44,74s78.34,81,71.22,128.19S585.88,309.9,497.75,328.59,374.9,355.3,374.9,355.3Z" style="fill:#2bbf11"/></clipPath><clipPath id="clip-path-2" transform="translate(37.26)"><path d="M373.12,375.77s136.2-39.17,191.39-45.4,118.4,11.57,141.55,63.21S739,527.11,620.6,558.26c0,0,10.68,57.87-39.17,105s-128.19,49-173.59-9.79-49-154.9-43.62-206.53S373.12,375.77,373.12,375.77Z" style="fill:#2bbf11"/></clipPath><clipPath id="clip-path-3" transform="translate(37.26)"><path d="M350.86,367.76S290.33,261.82,249.38,217.31s-127.3-87.24-190.5-25.81-42.73,105-36.5,122.85,17.8,40.95,17.8,40.95S-17.68,434.52,5.46,487.94s104.16,88.13,179.83,67.65S350.86,367.76,350.86,367.76Z" style="fill:#2bbf11"/></clipPath></defs><g id="Layer_2" data-name="Layer 2"><g id="clove"><g id="Layer_4" data-name="Layer 4"><path d="M394.48,314.35S314.37,461.23,320.6,561.82,410,732.31,455,752.33c8,3.56,0,18.69-12.46,15.13S331.28,728.29,313.48,595.65,379.35,329.48,394.48,314.35Z" transform="translate(37.26)" style="fill:#176800;opacity:0.5"/><path d="M343.31,361.21s31.59,15.45,49.39,14.56l-8,8s-16.91-4.45-40.95-16Z" transform="translate(37.26)" style="fill:#176800;opacity:0.5"/><path d="M374.9,355.3s-105-147.78-122.85-182.5S237.81,88.23,269,54.41s112.12-75.8,163.79-41.84C463.92,33,488.85,63.31,488.85,63.31S546.71,50.85,589.44,74s78.34,81,71.22,128.19S585.88,309.9,497.75,328.59,374.9,355.3,374.9,355.3Z" transform="translate(37.26)" style="fill:#2bbf11"/><g style="clip-path:url(#clip-path)"><path d="M488,34.82s2.67,181.6-113.06,320.48c-103.27,123.92,44.88,0,44.88,0L647.3,292.09l73-141.54L602.79,25.92Z" transform="translate(37.26)" style="fill:#176800;opacity:0.5"/><path d="M304.43,141.94c14.62-7.25,28.45-15.37,41.23-25.53,1.4-1.12-.48-3.59-1.93-2.5-12.86,9.58-26.1,18.82-40.15,26.57-1,.53-.11,1.94.85,1.46Z" transform="translate(37.26)" style="fill:#2bbf11"/><path d="M466.92,184c-9.21,31.46-22.92,61.4-39.53,89.61-8,13.65-16.84,26.92-25.86,39.93-9.32,13.44-19.88,25.94-29.17,39.39-1.28,1.85,1.42,3.59,2.94,2.27,12.23-10.6,22.1-23.51,31.58-36.57a322.15,322.15,0,0,0,25.94-42.83C447.7,246.6,458.69,215.62,467,184c0-.06-.07-.08-.09,0Z" transform="translate(37.26)" style="fill:#1e8c07"/></g><path d="M373.12,375.77s136.2-39.17,191.39-45.4,118.4,11.57,141.55,63.21S739,527.11,620.6,558.26c0,0,10.68,57.87-39.17,105s-128.19,49-173.59-9.79-49-154.9-43.62-206.53S373.12,375.77,373.12,375.77Z" transform="translate(37.26)" style="fill:#2bbf11"/><g style="clip-path:url(#clip-path-2)"><path d="M370.45,375.77S495.08,479.93,641.07,569.84l-12.46,73-72.11,73-105-6.23-66.77-62.32L343.74,516.42l26.71-140.65" transform="translate(37.26)" style="fill:#176800;opacity:0.5"/><path d="M513,483.2a396.19,396.19,0,0,0-34.94-29.34c-12.82-9.42-25.75-18.67-38.46-28.24s-24.81-19.69-37-29.72c-6-4.93-11.91-10-17.77-15.09-5-4.36-11.19-12.09-18-13.26a3,3,0,0,0-3.64,3.63c1.53,6.77,9.69,12.27,14.65,16.59,6.1,5.3,12.42,10.36,18.78,15.33,12.1,9.46,24.85,17.94,37.36,26.84,12.71,9,25.38,18.11,37.88,27.46,12.92,9.67,26.18,18.81,39.16,28.38,1.51,1.11,3.34-1.32,2-2.58Z" transform="translate(37.26)" style="fill:#1e8c07"/></g><path d="M350.86,367.76S290.33,261.82,249.38,217.31s-127.3-87.24-190.5-25.81-42.73,105-36.5,122.85,17.8,40.95,17.8,40.95S-17.68,434.52,5.46,487.94s104.16,88.13,179.83,67.65S350.86,367.76,350.86,367.76Z" transform="translate(37.26)" style="fill:#2bbf11"/><g style="clip-path:url(#clip-path-3)"><path d="M21.49,354.41s155.78,23.14,337.39,13.35-69.44,137.09-69.44,137.09L182.62,615.24l-138-36.5-81.89-44.51Z" transform="translate(37.26)" style="fill:#176800;opacity:0.5"/><path d="M185.75,369.51c29.57,3.07,59.11,5.89,88.88,6.28,14.61.19,29.22.26,43.84,0,7.13-.12,14.24-.63,21.34-1.29,7.26-.67,14.54-.93,21.16-4.19,2.65-1.3,2.24-6.23-.87-6.68-7.11-1-13.87.58-20.92,1.52-7.21,1-14.45,1.72-21.68,2.54a396.5,396.5,0,0,1-43.85,2.38c-29.31.06-58.62-.82-87.9-1.48-.61,0-.59.87,0,.93Z" transform="translate(37.26)" style="fill:#1e8c07"/></g></g></g></g></svg>