<svg xmlns="http://www.w3.org/2000/svg" xmlns:xlink="http://www.w3.org/1999/xlink" viewBox="0 0 869 587.18"><defs><clipPath id="clip-path" transform="translate(1.37)"><path d="M223.85,183.31s30.08,129.18,128.29,144.22S427.37,92,655.06,96.55C807.8,99.61,873.2,260.2,841.43,384.68c-1.75,6.85-38.37,5.87-38.37,5.87s27.26,27.41,24.32,33.7c-28.06,60.11-83.36,104.3-167.32,104.3-258,0-463.64-12.57-469.84-330.2,0,0-146,83.17-190.22-60.16,0,0,27.43,14.15,62.82,1.77s71.66-46,112.36-16.81c0,0,4.43-44.24,36.28-54.86S281.36,78,307,35.55C307,35.55,319.4,177.12,223.85,183.31Z" style="fill:#4d88ce"/></clipPath></defs><g id="Layer_2" data-name="Layer 2"><g id="whale"><g id="Layer_4" data-name="Layer 4"><path d="M223.85,183.31s30.08,129.18,128.29,144.22S427.37,92,655.06,96.55C807.8,99.61,873.2,260.2,841.43,384.68c-1.75,6.85-38.37,5.87-38.37,5.87s27.26,27.41,24.32,33.7c-28.06,60.11-83.36,104.3-167.32,104.3-258,0-463.64-12.57-469.84-330.2,0,0-146,83.17-190.22-60.16,0,0,27.43,14.15,62.82,1.77s71.66-46,112.36-16.81c0,0,4.43-44.24,36.28-54.86S281.36,78,307,35.55C307,35.55,319.4,177.12,223.85,183.31Z" transform="translate(1.37)" style="fill:#4d88ce"/><g style="clip-path:url(#clip-path)"><path d="M562.06,64.55s180,16,195,202-285,357-540,131l146.57,151,380-20,63-51,61-122-32-166-83.57-139s-146-34-151-34S562.06,64.55,562.06,64.55Z" transform="translate(1.37)" style="fill:#2874bf"/><path d="M307.06,35.55s-19,93-51,98-48,38-44,60,34,156,160,129l-135-131,50-19,25-70,7-67h-12" transform="translate(1.37)" style="fill:#2874bf"/><path d="M.06,138.55s44,92,190,60h0s-58,44-102,34-99-42-88-94" transform="translate(1.37)" style="fill:#2874bf"/></g><circle cx="781.88" cy="246.27" r="12.55" style="fill:#0e0f16"/><path d="M648.06,395.55s49,164-39,188-50-77-25-129" transform="translate(1.37)" style="fill:#4d88ce"/><path d="M641.59,366c5.19,26.4,10.55,52.86,14.89,79.42,2.13,13,3.94,26.07,5.3,39.18,1.38,13.32,1.14,26.86,3.43,40.06.41,2.39,4.19,2.27,4.7,0,2.9-13.05,1.93-26.81,1-40.06a331.54,331.54,0,0,0-5.42-39.8c-5.2-27.07-13.79-53.1-22.19-79.27a.89.89,0,0,0-1.72.47Z" transform="translate(1.37)" style="fill:#2874bf"/><path d="M573.59,455.29c-2.38,9.83-4.48,20.53-8.35,29.88a113.8,113.8,0,0,1-6,12.19c-2,3.54-5.3,6.87-5.87,11-.15,1.14.5,2.81,2,2.61,8.27-1.11,12.18-13.8,14.68-20.56,1.71-4.61,2.08-9.7,2.67-14.56.82-6.71,1.47-13.45,2.42-20.14.14-1-1.29-1.45-1.54-.42Z" transform="translate(1.37)" style="fill:#2874bf"/><path d="M653.56,80.05s16.3-82.62,63-70c37,10,10,42-20,39C670,46.4,653.56,80.05,653.56,80.05Z" transform="translate(1.37)" style="fill:#c0ebf9"/><path d="M641.56,52.05s-12-54-60-52-29,39-4,36S627.56,35.05,641.56,52.05Z" transform="translate(1.37)" style="fill:#c0ebf9"/></g></g></g></svg>