<svg xmlns="http://www.w3.org/2000/svg" xmlns:xlink="http://www.w3.org/1999/xlink" viewBox="0 0 681.89 452.27"><defs><clipPath id="clip-path" transform="translate(0 2.27)"><path d="M566,38H.07s-7,233,120,372c0,0,41.5,22.5,161.5,22.5C386.57,432.5,446,410,446,410,573,271,566,38,566,38Z" style="fill:#4d88ce"/></clipPath><clipPath id="clip-path-2" transform="translate(0 2.27)"><ellipse cx="282.57" cy="38" rx="282.5" ry="38" style="fill:#2874bf"/></clipPath></defs><g id="Layer_2" data-name="Layer 2"><g id="cup"><g id="Layer_4" data-name="Layer 4"><path d="M519.07,152s75.5-87.6,152-23c45,38-57,253-182,181l7-36s122.36,50.67,154-104c9-44-88-53-126,19Z" transform="translate(0 2.27)" style="fill:#2874bf"/><path d="M566,38H.07s-7,233,120,372c0,0,41.5,22.5,161.5,22.5C386.57,432.5,446,410,446,410,573,271,566,38,566,38Z" transform="translate(0 2.27)" style="fill:#4d88ce"/><g style="clip-path:url(#clip-path)"><path d="M489.07,46s-45,440-436,306l75,98,373-18,84-245V21Z" transform="translate(0 2.27)" style="fill:#0d6099;opacity:0.5"/><circle cx="294.07" cy="230.27" r="88" style="fill:none;stroke:#ffba1f;stroke-miterlimit:10;stroke-width:5px"/><path d="M294.09,219s13.83-35.09,43.6-22.33-27.65,79.75-50,82.94c0,0-79.06-68.21-30.83-86.13C294.09,179.7,294.09,219,294.09,219Z" transform="translate(0 2.27)" style="fill:#ffba1f"/><path d="M557.57,195.5s-68,40-176.17,43.41" transform="translate(0 2.27)" style="fill:none;stroke:#ffba1f;stroke-miterlimit:10;stroke-width:5px"/><path d="M8.57,186.5s58,64,197.79,48.62" transform="translate(0 2.27)" style="fill:none;stroke:#ffba1f;stroke-miterlimit:10;stroke-width:5px"/></g><ellipse cx="282.57" cy="40.27" rx="282.5" ry="38" style="fill:#2874bf"/><g style="clip-path:url(#clip-path-2)"><path d="M340-1.75s0-1,.12-.22c-5.24,35.54-19.39,95.06-57,128C227.07,175,614,49.25,614,49.25l-113-46Z" transform="translate(0 2.27)" style="fill:#0d6099"/></g></g></g></g></svg>