<svg xmlns="http://www.w3.org/2000/svg" xmlns:xlink="http://www.w3.org/1999/xlink" viewBox="0 0 825.85 468"><defs><clipPath id="clip-path"><polygon points="459.37 320.23 682.93 108.43 703.85 142.42 494.67 441.82 459.37 320.23" style="fill:#2bbf11"/></clipPath><clipPath id="clip-path-2"><path d="M125.61,306.44s-107.5-48.13-124-147.9,99.83-90.12,137.77-59.16L141,123.15S50.12,86,32.85,120C19,147.26,42.24,228.79,132,278.18Z" style="fill:#2bbf11"/></clipPath><clipPath id="clip-path-3"><path d="M480,449.17H142.91a26.81,26.81,0,0,1-26.81-26.81L136.4,38.55a9,9,0,0,1,9-8.55H478.87a9.44,9.44,0,0,1,9.42,9l18.56,383.38A26.81,26.81,0,0,1,480,449.17Z" style="fill:#2bbf11"/></clipPath><clipPath id="clip-path-4"><path d="M701.85,0l-19,112s2,17,8,26,13,8,13,8l112-6Z" style="fill:#2bbf11"/></clipPath></defs><g id="Layer_2" data-name="Layer 2"><g id="watering-can"><g id="Layer_4" data-name="Layer 4"><polygon points="459.37 320.23 682.93 108.43 703.85 142.42 494.67 441.82 459.37 320.23" style="fill:#2bbf11"/><g style="clip-path:url(#clip-path)"><polyline points="691.66 56.09 528.47 402.69 742.85 116 691.66 56.09" style="fill:#176800;opacity:0.5"/></g><path d="M125.61,306.44s-107.5-48.13-124-147.9,99.83-90.12,137.77-59.16L141,123.15S50.12,86,32.85,120C19,147.26,42.24,228.79,132,278.18Z" style="fill:#2bbf11"/><g style="clip-path:url(#clip-path-2)"><path d="M38.13,113.32S14.85,122,29.85,181s101,129,101,129l10-50-83-70L38.13,113.32" style="fill:#176800;opacity:0.5"/><path d="M144.85,127s-46-50-112-44l13-13,72,8,28,18Z" style="fill:#176800;opacity:0.5"/></g><path d="M480,449.17H142.91a26.81,26.81,0,0,1-26.81-26.81L136.4,38.55a9,9,0,0,1,9-8.55H478.87a9.44,9.44,0,0,1,9.42,9l18.56,383.38A26.81,26.81,0,0,1,480,449.17Z" style="fill:#2bbf11"/><g style="clip-path:url(#clip-path-3)"><path d="M336.85,14s98,27,112,64,61,457-353,322l11,49,86,19,345-1-44-458Z" style="fill:#176800;opacity:0.5"/></g><path d="M701.85,0l-19,112s2,17,8,26,13,8,13,8l112-6Z" style="fill:#2bbf11"/><g style="clip-path:url(#clip-path-4)"><polygon points="806.85 103 685.85 146 716.85 155 825.85 146 806.85 103" style="fill:#176800;opacity:0.5"/></g><circle cx="311.85" cy="201" r="68" style="fill:#ffd522"/><circle cx="309.84" cy="204.58" r="10" style="fill:#2bbf11"/><path d="M314,194.15c-2.4-9.17-3.71-18.77-.55-27.92,3.42-9.9,13.91-17.38,24-11.14,9.85,6.09,6.22,19-.28,26.15-6,6.63-14.33,9.4-22.69,11.81-2.91.84-2.5,5.95.75,5.53,11.48-1.5,22.54-7.9,28.06-18.35,4.66-8.84,5.71-21.2-3.9-27.08-8.5-5.19-19.72-1.11-25.76,6-8.78,10.34-7.38,24-4.17,36.24.76,2.91,5.29,1.67,4.52-1.25Z" style="fill:#2bbf11"/><path d="M316.76,200.49c8.65-4,18.34-9.47,28.16-9,10.08.52,16.83,13.33,10.85,21.7-5.22,7.32-15.14,9.87-23,5.2-3.92-2.34-7.14-6.14-9.89-9.72-2.5-3.26-4-6.61-8.18-7.87a2.05,2.05,0,0,0-2.55,1.95c-.46,5.82,5.74,12,9.79,15.59a38.12,38.12,0,0,0,14.77,8.34c10.56,3,22.29-2.47,25.39-13.31,2.59-9.06-1.42-19.94-10.56-23.41-12-4.56-26.2,1.48-36.1,8.31a1.26,1.26,0,0,0,1.28,2.18Z" style="fill:#2bbf11"/><path d="M305.65,202.77c-7.15,8-11.61,18.38-11.51,29.24.08,8.76,5,18.47,14.57,19.93,10.31,1.56,16.68-8.3,17.73-17.35a35,35,0,0,0-2.37-16.47c-1.75-4.62-4.39-12-9.06-14.24a1.9,1.9,0,0,0-2.82,1.62c.17,3.38,2.37,5.74,4,8.61a38.73,38.73,0,0,1,4.59,11.8c1.46,7.88-1,19.37-9.77,22.16-11.3,3.58-14.11-12.33-13.26-20a40.67,40.67,0,0,1,10.5-22.72c1.58-1.74-1-4.34-2.59-2.58Z" style="fill:#2bbf11"/><path d="M308.71,197.61c-13-9.53-50.59-14.79-47.74,11.16,1,9.2,9.78,15.11,18.59,15.14,10.86,0,20.46-7.44,25.62-16.53a1.32,1.32,0,0,0-2.06-1.59c-5.73,5.32-11.33,11.26-19.3,12.93S264.9,216,265.67,206.35c1.49-18.65,31.1-10,40.91-5.1a2.11,2.11,0,0,0,2.13-3.64Z" style="fill:#2bbf11"/><path d="M309.55,197.73c-6.1-2.83-12.59-5.34-18.06-9.34-6.34-4.63-15.58-15-5.43-20.87,7.1-4.1,14.9-1.09,17.58,6.55,2.35,6.68,1,13.8,2.47,20.6a1.61,1.61,0,0,0,3.08,0c1.81-9.35,2.93-20.95-3.35-28.95-5.71-7.27-15.93-7.87-23.43-3-8.23,5.36-7.24,14.81-1.8,21.91,6.74,8.8,17.29,13.35,27.79,15.84,1.57.38,2.76-2,1.15-2.74Z" style="fill:#2bbf11"/></g></g></g></svg>