<svg xmlns="http://www.w3.org/2000/svg" xmlns:xlink="http://www.w3.org/1999/xlink" viewBox="0 0 676.54 646.44"><defs><clipPath id="clip-path" transform="translate(17.82)"><path d="M548.7,130s-31.05-6.19-62.36,44S341,353.22,215.61,374.07,9.47,411.35,2.07,442.06,0,528.09,143.44,563.57c0,0,241.3-64.06,317.57-189.4S548.7,130,548.7,130Z" style="fill:#ffd522"/></clipPath><clipPath id="clip-path-2" transform="translate(17.82)"><path d="M589.64,133.76s111.09,61.72,36,257S301.54,695.86,98.08,612.38c-62.3-25.56-15.23-89.64,75.24-121.7s201.46-70.37,276.1-205.11c75.38-136.09,67.06-134.52,85.43-143.74,0,0-14.85-63.28-55.13-87.84l83-38.12S597.7,82.24,589.64,133.76Z" style="fill:#ffd522"/></clipPath></defs><g id="Layer_2" data-name="Layer 2"><g id="Layer_3" data-name="Layer 3"><g id="Layer_4" data-name="Layer 4"><path d="M548.7,130s-31.05-6.19-62.36,44S341,353.22,215.61,374.07,9.47,411.35,2.07,442.06,0,528.09,143.44,563.57c0,0,241.3-64.06,317.57-189.4S548.7,130,548.7,130Z" transform="translate(17.82)" style="fill:#ffd522"/><g style="clip-path:url(#clip-path)"><path d="M528.3,79.6S435.09,343.19,307.91,412.08C198,471.6,76.31,493.47,0,472.78c-12-3.26,17.85,39.52,17.85,39.52l72,42,271-122,193-303Z" transform="translate(17.82)" style="fill:#ffba1f;opacity:0.6000000000000001"/><path d="M-3.74,449.21c42.73-8.63,179.12-36.53,210.87-47.37,35-11.95,107.3-28,167.53-110.19,4.75-6.48-90.6,69.93-228.81,91.65a872.74,872.74,0,0,0-129,31S-11.85,450.85-3.74,449.21Z" transform="translate(17.82)" style="fill:#fff;opacity:0.41000000000000003"/><polygon points="11.85 425.11 41.47 441.81 41.79 477.52 22.76 505.55 3.99 483.93 0 437.54 11.85 425.11" style="fill:#a05000"/><path d="M156.07,199.33c7.66,0,7.68-11.9,0-11.9s-7.67,11.9,0,11.9Z" transform="translate(17.82)" style="fill:#ff9e16"/><path d="M156.07,199.33c7.66,0,7.68-11.9,0-11.9s-7.67,11.9,0,11.9Z" transform="translate(17.82)" style="fill:#ff9e16"/></g><path d="M589.64,133.76s111.09,61.72,36,257S301.54,695.86,98.08,612.38c-62.3-25.56-15.23-89.64,75.24-121.7s201.46-70.37,276.1-205.11c75.38-136.09,67.06-134.52,85.43-143.74,0,0-14.85-63.28-55.13-87.84l83-38.12S597.7,82.24,589.64,133.76Z" transform="translate(17.82)" style="fill:#ffd522"/><g style="clip-path:url(#clip-path-2)"><path d="M655.85,251.3S633.89,121.21,601.5,129c-22.81,5.45-40.58,10.4-34.89,11.46,0,0,50.9,103.55-35.23,240C451.56,506.89,256.85,618,92.17,590.58c-13-2.17-3.32,20.72-3.32,20.72l34,21s213,72,422-109C610.37,466.56,673,306.71,655.85,251.3Z" transform="translate(17.82)" style="fill:#ffba1f;opacity:0.6000000000000001"/><path d="M93.47,566.45S195.23,532.19,251,506.17C363,454,450.14,428.86,531.87,141c6.21-21.86-42.66,2.33-42.66,2.33S364.25,394,311.05,419.53,57.17,532.51,58.38,532.86s-4.6,48.57-4.6,48.57Z" transform="translate(17.82)" style="fill:#fff;opacity:0.41000000000000003"/><path d="M69.87,557.12s22.73,7.77,23.6,9.33,10.18,24.71,11.14,25.47-5.68,24.64-10,26S47.9,592.88,69.87,557.12Z" transform="translate(17.82)" style="fill:#a05000"/><path d="M512.94,22.74s46.91,47.44,53.27,117.49l31-4.87-8.4-62.06-21-58-10.48-12Z" transform="translate(17.82)" style="fill:#ffba1f;opacity:0.6000000000000001"/></g><path d="M557.78,33.61c4.09-1.39,17-16-4.3-29.57-20.27-12.9-48.07,8.26-63.89,19.23S470,55.27,491.87,60,557.78,33.61,557.78,33.61Z" transform="translate(17.82)" style="fill:#a05000"/></g></g></g></svg>