<svg xmlns="http://www.w3.org/2000/svg" xmlns:xlink="http://www.w3.org/1999/xlink" viewBox="0 0 715.7 836.02"><defs><clipPath id="clip-path" transform="translate(17.37 2.48)"><path d="M295.06,136.44s-13.21-75.93-8.25-89.14S351.18-7.17,369.34,1.08s38,52.83,31.37,67.68-61.08-5-49.53-28.06,54.48-28.06,69.33-13.21c0,0-33,3.3-42.91,8.26s-8.26,18.16,1.65,21.46,4.95-34.67-16.51-42.92-52.82,33-51.17,44.57,19.81,74.28,19.81,74.28Z" style="fill:#2abf12"/></clipPath><clipPath id="clip-path-2" transform="translate(17.37 2.48)"><path d="M663.61,463.28c0,194.9-136.77,310.72-320,310.72S0,658.18,0,463.28,148.55,110.39,331.8,110.39,663.61,268.39,663.61,463.28Z" style="fill:#2abf12"/></clipPath><clipPath id="clip-path-3" transform="translate(17.37 2.48)"><path d="M331.18,110.39S384.52,165,392,186.06s37.21,141.4,28.53,177.37,6.2,172.42,7.44,189.78,21.09,91.79,6.2,124S380.8,782.68,380.8,796.33s43.41-54.58,53.33-64.5,39.7-52.1,45.9-63.26,37.21-93,37.21-106.68-22.33-83.1-21.09-93S485,328.7,482.51,316.3,447.78,222,442.82,207.14s-31-55.81-52.1-70.7-58.3-26-58.3-26" style="fill:#176800;opacity:0.5"/></clipPath><clipPath id="clip-path-4" transform="translate(17.37 2.48)"><path d="M369.53,110.39S501.12,184.82,506.08,196s49.61,117.84,52.09,137.68,27.29,136.45,21.09,155-6.2,109.16-8.68,120.32-33.49,55.82-45.9,74.42S475.07,774,477.55,774s57.06-43.41,57.06-43.41,65.74-107.92,70.7-114.12,29.77-74.42,31-90.55-13.65-105.43-13.65-116.59-28.53-140.17-28.53-140.17L511,174.89l-141.51-64.5" style="fill:#176800;opacity:0.5"/></clipPath></defs><g id="Layer_2" data-name="Layer 2"><g id="watermelon"><g id="Layer_4" data-name="Layer 4"><path d="M295.06,136.44s-13.21-75.93-8.25-89.14S351.18-7.17,369.34,1.08s38,52.83,31.37,67.68-61.08-5-49.53-28.06,54.48-28.06,69.33-13.21c0,0-33,3.3-42.91,8.26s-8.26,18.16,1.65,21.46,4.95-34.67-16.51-42.92-52.82,33-51.17,44.57,19.81,74.28,19.81,74.28Z" transform="translate(17.37 2.48)" style="fill:#2abf12"/><g style="clip-path:url(#clip-path)"><polygon points="411.81 33.49 415.53 37.21 396.92 43.41 398.16 37.21 411.81 33.49" style="fill:#176800;opacity:0.5"/><path d="M316.3,142.64s-17.37-84.34-13.65-89.3,22.33-31,33.49-36a39.52,39.52,0,0,1,22.33-2.49L315.06,53.34,338.62,134Z" transform="translate(17.37 2.48)" style="fill:#176800;opacity:0.5"/><path d="M377.08,36s-12.41,3.72-12.41,11.16,6.21,12.41,14.89,9.93h0L377.08,36" transform="translate(17.37 2.48)" style="fill:#176800;opacity:0.5"/><path d="M399.4,42.17s0,37.21-27.28,29.77l23.56,5,7.44-6.2,3.73-9.92Z" transform="translate(17.37 2.48)" style="fill:#176800;opacity:0.5"/><path d="M349.79,1.24s18-1.86,33.17,18.91h0l5.14-.75-1.1-7L368.39-2.48Z" transform="translate(17.37 2.48)" style="fill:#176800;opacity:0.5"/></g><path d="M663.61,463.28c0,194.9-136.77,310.72-320,310.72S0,658.18,0,463.28,148.55,110.39,331.8,110.39,663.61,268.39,663.61,463.28Z" transform="translate(17.37 2.48)" style="fill:#2abf12"/><g style="clip-path:url(#clip-path-2)"><path d="M301.41,104.19s-2.48,40.93-11.16,69.46-1.24,110.4,2.48,124-7.44,110.4-7.44,131.48-12.41,140.17-6.2,160,16.12,78.15,22.32,111.64,29.77,80.62,29.77,88.06-5-17.36,5-48.37,12.41-53.34,17.37-94.27S380.8,521,372.12,480s-14.89-78.15-18.61-112.88S364.67,303.89,361,264.2s-16.12-101.71-29.77-127.76-24.43-44.16-24.43-44.16Z" transform="translate(17.37 2.48)" style="fill:#176800;opacity:0.5"/><path d="M331.18,110.39S384.52,165,392,186.06s37.21,141.4,28.53,177.37,6.2,172.42,7.44,189.78,21.09,91.79,6.2,124S380.8,782.68,380.8,796.33s43.41-54.58,53.33-64.5,39.7-52.1,45.9-63.26,37.21-93,37.21-106.68-22.33-83.1-21.09-93S485,328.7,482.51,316.3,447.78,222,442.82,207.14s-31-55.81-52.1-70.7-58.3-26-58.3-26" transform="translate(17.37 2.48)" style="fill:#176800;opacity:0.5"/><g style="clip-path:url(#clip-path-3)"><path d="M331.18,110.39s165,99.23,184.82,310.1S248.08,881.91-17.37,539.57L57.06,728.11l193.5,105.43,272.88-14.89,160-120.31,14.89-225.75L614,208.38,388.24,80.62l-57.06,29.77" transform="translate(17.37 2.48)" style="fill:#176800;opacity:0.5"/></g><path d="M279.09,110.39s-37.21,62-40.94,74.43S205.9,270.4,207.14,289s11.17,107.91,11.17,116.6-13.65,85.58-17.37,106.67,44.66,75.66,37.21,95.51,12.41,116.59,12.41,116.59l9.92,59.54s-34.73-57-38.45-68.22-55.82-110.39-59.54-121.56S120.32,498.63,122.8,485,134,323.74,140.16,313.82s33.49-90.55,39.7-101.71,52.09-62,55.81-68.23S279.09,110.39,279.09,110.39Z" transform="translate(17.37 2.48)" style="fill:#176800;opacity:0.5"/><path d="M369.53,110.39S501.12,184.82,506.08,196s49.61,117.84,52.09,137.68,27.29,136.45,21.09,155-6.2,109.16-8.68,120.32-33.49,55.82-45.9,74.42S475.07,774,477.55,774s57.06-43.41,57.06-43.41,65.74-107.92,70.7-114.12,29.77-74.42,31-90.55-13.65-105.43-13.65-116.59-28.53-140.17-28.53-140.17L511,174.89l-141.51-64.5" transform="translate(17.37 2.48)" style="fill:#176800;opacity:0.5"/><g style="clip-path:url(#clip-path-4)"><path d="M331.18,110.39s165,99.23,184.82,310.1S248.08,881.91-17.37,539.57L57.06,728.11l193.5,105.43,272.88-14.89,160-120.31,14.89-225.75L614,208.38,388.24,80.62l-57.06,29.77" transform="translate(17.37 2.48)" style="fill:#176800;opacity:0.5"/></g><path d="M238.15,117.84s-129,142.64-131.48,151.32S95.51,389.48,90.55,405.61s-8.68,94.26-8.68,103,34.73,122.8,37.21,134,58.3,111.63,58.3,114.11-50.86-26-50.86-26L70.7,625.15s-34.73-137.68-31-155S58.3,290.25,62,280.33s32.25-74.44,43.41-75S238.15,117.84,238.15,117.84Z" transform="translate(17.37 2.48)" style="fill:#176800;opacity:0.5"/><path d="M331.18,110.39s165,99.23,184.82,310.1S248.08,881.91-17.37,539.57L57.06,728.11l193.5,105.43,272.88-14.89,160-120.31,14.89-225.75L614,208.38,388.24,80.62l-57.06,29.77" transform="translate(17.37 2.48)" style="fill:#176800;opacity:0.5"/></g></g></g></g></svg>