<svg xmlns="http://www.w3.org/2000/svg" xmlns:xlink="http://www.w3.org/1999/xlink" viewBox="0 0 674.11 809.03"><defs><clipPath id="clip-path" transform="translate(0 13.93)"><path d="M283.9,173.85c88,157.56,30.79,357.31-127.24,444.45A324.28,324.28,0,0,1,12,658.6C1.08,659-4.1,672.35,3.84,679.9c121.65,115.54,308.77,144.29,463,58.39,186.71-104,256.61-339.23,156.73-528.17C531.11,35.18,327-40.59,147.2,21.36c-9.22,3.18-10,15.91-1.25,20.29A324.44,324.44,0,0,1,283.9,173.85Z" style="fill:#ffd522"/></clipPath></defs><g id="Layer_2" data-name="Layer 2"><g id="Layer_3" data-name="Layer 3"><g id="Layer_4" data-name="Layer 4"><path d="M283.9,173.85c88,157.56,30.79,357.31-127.24,444.45A324.28,324.28,0,0,1,12,658.6C1.08,659-4.1,672.35,3.84,679.9c121.65,115.54,308.77,144.29,463,58.39,186.71-104,256.61-339.23,156.73-528.17C531.11,35.18,327-40.59,147.2,21.36c-9.22,3.18-10,15.91-1.25,20.29A324.44,324.44,0,0,1,283.9,173.85Z" transform="translate(0 13.93)" style="fill:#ffd522"/><g style="clip-path:url(#clip-path)"><path d="M139.09,16.46c101.83,10.92,295.28,54.15,390,223.42,132,236-64,588.19-512,466.19,0,0,78,91,258,89,177.88-2,306.64-119.62,343-180,80.16-133.1,58.76-337.13,31-386-67-118-175-193-175-193l-172-50S99,12.16,139.09,16.46Z" transform="translate(0 13.93)" style="fill:#ffba1f;opacity:0.6000000000000001"/><g style="opacity:0.45"><path d="M358.88,225.07c3.92,0,7.68-3.45,7.5-7.5a7.64,7.64,0,0,0-7.5-7.5c-3.93,0-7.69,3.45-7.5,7.5a7.62,7.62,0,0,0,7.5,7.5Z" transform="translate(0 13.93)" style="fill:#f78f1e"/></g><g style="opacity:0.45"><path d="M353.59,149.3a15.51,15.51,0,0,0,10.61-4.39,15.23,15.23,0,0,0,4.39-10.61c-.18-3.88-1.45-7.9-4.39-10.6a15,15,0,0,0-21.22,0,15.23,15.23,0,0,0-4.39,10.6c.17,3.88,1.45,7.91,4.39,10.61a15.61,15.61,0,0,0,10.61,4.39Z" transform="translate(0 13.93)" style="fill:#f78f1e"/></g><g style="opacity:0.45"><path d="M394.56,614.55a15.48,15.48,0,0,0,10.61-4.4,15.23,15.23,0,0,0,4.39-10.6c-.17-3.88-1.45-7.91-4.39-10.61a15,15,0,0,0-21.22,0,15.23,15.23,0,0,0-4.39,10.61c.18,3.88,1.45,7.9,4.39,10.6a15.59,15.59,0,0,0,10.61,4.4Z" transform="translate(0 13.93)" style="fill:#f78f1e"/></g><g style="opacity:0.45"><path d="M173.84,684.6a15.48,15.48,0,0,0,10.6-4.4,15.28,15.28,0,0,0,4.4-10.6c-.18-3.88-1.45-7.91-4.4-10.61a15,15,0,0,0-21.21,0,15.23,15.23,0,0,0-4.39,10.61c.17,3.88,1.44,7.9,4.39,10.6a15.56,15.56,0,0,0,10.61,4.4Z" transform="translate(0 13.93)" style="fill:#f78f1e"/></g><g style="opacity:0.45"><path d="M351,530.85a25.06,25.06,0,0,0,15.9-6.59,25,25,0,0,0,6.6-15.91c-.27-5.82-2.18-11.86-6.6-15.91a23.37,23.37,0,0,0-15.9-6.59,16.9,16.9,0,0,0-8.67,1.94,16.69,16.69,0,0,0-7.24,4.65,24.92,24.92,0,0,0-6.59,15.91c.26,5.82,2.17,11.85,6.59,15.91A23.38,23.38,0,0,0,351,530.85Z" transform="translate(0 13.93)" style="fill:#f78f1e"/></g><g style="opacity:0.45"><path d="M431.57,193a4.5,4.5,0,1,0-4.5-4.5,4.55,4.55,0,0,0,4.5,4.5Z" transform="translate(0 13.93)" style="fill:#f78f1e"/></g><g style="opacity:0.45"><path d="M261.07,624.41c4.71,0,9.22-4.14,9-9a9.16,9.16,0,0,0-9-9c-4.71,0-9.22,4.14-9,9a9.16,9.16,0,0,0,9,9Z" transform="translate(0 13.93)" style="fill:#f78f1e"/></g><g style="opacity:0.45"><path d="M448.75,590c4.71,0,9.22-4.14,9-9a9.16,9.16,0,0,0-9-9c-4.71,0-9.22,4.14-9,9a9.16,9.16,0,0,0,9,9Z" transform="translate(0 13.93)" style="fill:#f78f1e"/></g><g style="opacity:0.45"><path d="M316.58,112.9c4.71,0,9.22-4.13,9-9a9.16,9.16,0,0,0-9-9c-4.71,0-9.22,4.14-9,9a9.15,9.15,0,0,0,9,9Z" transform="translate(0 13.93)" style="fill:#f78f1e"/></g><g style="opacity:0.45"><path d="M488.4,227.89c4.71,0,9.22-4.14,9-9a9.16,9.16,0,0,0-9-9c-4.7,0-9.21,4.14-9,9a9.16,9.16,0,0,0,9,9Z" transform="translate(0 13.93)" style="fill:#f78f1e"/></g></g></g></g></g></svg>