<svg xmlns="http://www.w3.org/2000/svg" xmlns:xlink="http://www.w3.org/1999/xlink" viewBox="0 0 902.89 662.09"><defs><clipPath id="clip-path" transform="translate(13.12)"><path d="M774.52,302.88s33.23,46,54.45,54.45,60.81,39.59,35.35,67.88S627.44,662.09,627.44,662.09s-17-46.67-51.62-60.11-36.06-46-19.8-65.05S774.52,302.88,774.52,302.88Z" style="fill:#ea2727"/></clipPath><clipPath id="clip-path-2" transform="translate(13.12)"><path d="M563.09,37.71s24,53.74,77.79,91.93,152.73,99,173.24,126.57,14.14,60.81-.71,77.07S592.08,554.61,592.08,554.61s7.78-10.61,0-39.6-83.43-56.57-136.47-96.87S343.18,305.71,330.46,270.35Z" style="fill:#f23636"/></clipPath><clipPath id="clip-path-3" transform="translate(13.12)"><rect x="280.26" y="-113.74" width="41" height="829" rx="16.5" transform="translate(300.76 -124.58) rotate(45)" style="fill:#ffae2c"/></clipPath></defs><g style="isolation:isolate"><g id="Layer_2" data-name="Layer 2"><g id="Layer_3" data-name="Layer 3"><path d="M774.52,302.88s33.23,46,54.45,54.45,60.81,39.59,35.35,67.88S627.44,662.09,627.44,662.09s-17-46.67-51.62-60.11-36.06-46-19.8-65.05S774.52,302.88,774.52,302.88Z" transform="translate(13.12)" style="fill:#ea2727"/><g style="clip-path:url(#clip-path)"><polygon points="902.89 384.2 565 600.89 538.03 552.49 600.96 476.83 801.12 314.89 844.91 314.9 902.89 384.2" style="fill:#ce1515"/><path d="M593.81,552.9s-9.47,11.45-29.3,12.31c-16.27.71-22.63-5.65-14.14-28.28s41.71-41.72,41.71-41.72l11.32,33.94Z" transform="translate(13.12)" style="fill:#bf0808"/></g><path d="M563.09,37.71s24,53.74,77.79,91.93,152.73,99,173.24,126.57,14.14,60.81-.71,77.07S592.08,554.61,592.08,554.61s7.78-10.61,0-39.6-83.43-56.57-136.47-96.87S343.18,305.71,330.46,270.35Z" transform="translate(13.12)" style="fill:#f23636"/><g style="clip-path:url(#clip-path-2)"><path d="M694.62,152.26s94,89.81,86.26,135.77S622.49,450.66,564.51,439.35,357.33,331.16,357.33,331.16L462.88,460.9l102,104,52.66,20.82L853.88,295.9l-67-80Z" transform="translate(13.12)" style="fill:#d81616;opacity:0.46;mix-blend-mode:multiply"/></g><rect x="280.26" y="-113.74" width="41" height="829" rx="16.5" transform="translate(313.87 -124.58) rotate(45)" style="fill:#ffae2c"/><g style="clip-path:url(#clip-path-3)"><polygon points="628 18.33 0 598.89 57 618.89 628 18.33" style="fill:#e28307"/></g></g></g></g></svg>