<svg width="2000" height="1053" viewBox="0 0 2000 1053" fill="none" xmlns="http://www.w3.org/2000/svg">
<path d="M344.206 824.754C513.078 861.117 919.063 957.117 1135.69 957.117C1337.09 957.117 1478.14 857.587 1625.21 824.754C1865.76 771.052 1977.44 703.608 1975.19 640.342C1972.95 577.077 1842.81 572.433 1625.21 566.757C1460.11 562.451 1243.09 609.383 1014.1 609.383C785.106 609.383 646.159 562.451 481.057 566.757C263.459 572.433 140.053 548.809 53.007 640.342C-34.0388 731.876 99.3046 772.018 344.206 824.754Z" fill="#F1F1F8"/>
<path d="M766.872 756.106C888.095 781.668 987.628 809.5 1024.42 799.18C1061.21 788.861 1164.28 754.509 1269.85 731.429C1442.53 693.679 1453.63 687.958 1452.02 643.485C1450.41 599.013 1624.38 555.494 1468.17 551.505C1349.66 548.477 1449.64 596.471 1285.25 596.471C1120.87 596.471 1021.13 563.48 902.612 566.507C746.411 570.497 756.238 574.708 639.893 596.471C523.549 618.233 591.07 719.036 766.872 756.106Z" fill="#ADADD1" fill-opacity="0.31"/>
<path d="M925.709 183.131L1253.7 206.463V359.017H1051.79L925.709 183.131Z" fill="#975A00"/>
<path opacity="0.35" d="M1128.52 678.934L1178.77 697.331L1211.07 686.114L1194.92 647.975L1128.52 678.934Z" fill="#C4C4C4"/>
<path d="M749.375 225.31C747.221 211.67 755.955 193.603 760.592 186.274L798.73 179.544L870.521 193.902C843.749 211.101 751.528 238.95 749.375 225.31Z" fill="#975A00"/>
<path d="M1257.29 205.567C1239.34 208.798 1192.98 238.022 1172.04 252.231L1212.42 293.959L1233.51 637.655L1177.42 697.78L1343.44 674.448L1464.14 605.35C1464.14 605.35 1470.85 540.931 1472.21 475.678C1473.54 411.809 1469.52 347.102 1469.52 344.661C1469.52 339.725 1452.02 287.677 1452.02 287.677C1428.69 253.128 1417.47 227.552 1417.47 227.552L1316.07 209.156C1299.17 208.707 1275.24 202.336 1257.29 205.567Z" fill="#F9C16E"/>
<mask id="mask0" mask-type="alpha" maskUnits="userSpaceOnUse" x="1172" y="204" width="301" height="494">
<path d="M1257.29 205.557C1239.34 208.787 1192.98 238.012 1172.04 252.22L1212.42 293.949L1233.51 637.645L1177.42 697.769L1343.44 674.438L1464.14 605.339C1464.14 605.339 1470.85 540.921 1472.21 475.668C1473.54 411.799 1469.52 347.092 1469.52 344.651C1469.52 339.715 1452.02 287.667 1452.02 287.667C1428.69 253.118 1417.47 227.542 1417.47 227.542L1316.07 209.146C1299.17 208.697 1275.24 202.326 1257.29 205.557Z" fill="#F9C16E"/>
</mask>
<g mask="url(#mask0)">
<path d="M1460.53 142.109C1484.18 75.8807 1301.71 210.642 1263.12 186.263L1121.34 235.17L1098.45 440.221C1090.23 546.71 1196.47 865.704 1289.47 755.26C1415.79 605.26 1421.05 252.629 1460.53 142.109Z" fill="#F4B14C"/>
</g>
<path d="M1131.66 165.183L925.709 187.169L1070.64 203.77L1176.08 256.716C1176.08 256.716 1224.09 252.229 1261.78 238.768C1299.47 225.307 1404.31 227.402 1417.92 227.551L1131.66 165.183Z" fill="#DE952A"/>
<path d="M1032.95 156.207L843.598 94.7368C843.598 94.7368 806.582 129.51 797.383 137.811C788.185 146.112 759.694 186.718 759.694 186.718C759.694 186.718 869.174 203.992 971.475 206.461C1073.78 208.929 1176.97 256.714 1176.97 256.714C1176.97 256.714 1197.17 210.05 1200.31 202.422C1203.45 194.795 1224.09 176.847 1234.86 168.771C1245.62 160.694 1253.25 132.427 1253.25 132.427L1032.95 156.207Z" fill="#FFCE85"/>
<mask id="mask1" mask-type="alpha" maskUnits="userSpaceOnUse" x="759" y="94" width="495" height="163">
<path d="M1032.95 156.207L843.598 94.7368C843.598 94.7368 806.582 129.51 797.383 137.811C788.185 146.112 759.694 186.718 759.694 186.718C759.694 186.718 869.174 203.992 971.475 206.461C1073.78 208.929 1176.97 256.714 1176.97 256.714C1176.97 256.714 1197.17 210.05 1200.31 202.422C1203.45 194.795 1224.09 176.847 1234.86 168.771C1245.62 160.694 1253.25 132.427 1253.25 132.427L1032.95 156.207Z" fill="#FFCE85"/>
</mask>
<g mask="url(#mask1)">
<path d="M737.259 238.764C869.921 195.54 1141.53 108.016 1166.65 103.708L847.636 45.8273L673.993 165.179L737.259 238.764Z" fill="#FFDBA5"/>
</g>
<path d="M638.996 702.711C654.252 683.866 691.493 662.777 691.493 662.777L741.297 700.916C741.297 700.916 718.414 752.964 712.132 760.592C705.851 768.22 675.789 796.487 665.469 793.346C655.149 790.205 672.648 762.835 672.648 762.835C672.648 762.835 643.034 793.346 634.958 791.103C626.881 788.859 642.137 760.592 642.137 760.592C642.137 760.592 622.394 781.232 616.113 778.091C609.832 774.95 611.177 765.527 614.318 755.208C617.46 744.888 623.741 721.556 638.996 702.711Z" fill="#7C90FB"/>
<path d="M631.973 725.886C635.298 720.955 642.827 720.375 646.502 722.853C650.177 725.331 651.075 734.627 647.75 739.558C644.426 744.489 634.137 748.977 630.462 746.499C626.787 744.021 628.648 730.817 631.973 725.886Z" fill="#A2B0FF"/>
<path d="M651.707 745.032C655.495 740.447 663.044 740.602 666.461 743.426C669.878 746.249 669.869 755.588 666.081 760.173C662.292 764.757 651.616 768.224 648.199 765.401C644.782 762.577 647.918 749.617 651.707 745.032Z" fill="#A2B0FF"/>
<path d="M681.828 753.091C685.617 748.507 693.166 748.661 696.583 751.485C700 754.308 699.991 763.647 696.202 768.232C692.414 772.816 681.738 776.284 678.321 773.46C674.904 770.637 678.04 757.676 681.828 753.091Z" fill="#A2B0FF"/>
<path d="M706.844 672.101C694.091 666.385 666.012 692.74 660.628 703.509C648.065 724.148 658.833 731.327 675.435 739.852C692.037 748.377 706.394 741.198 710.433 724.148C714.471 707.098 719.856 677.933 706.844 672.101Z" fill="#A2B0FF"/>
<mask id="mask2" mask-type="alpha" maskUnits="userSpaceOnUse" x="610" y="663" width="131" height="131">
<path d="M637.842 703.091C653.098 684.246 690.339 663.158 690.339 663.158L740.144 701.296C740.144 701.296 717.26 753.344 710.979 760.972C704.697 768.6 674.635 796.867 664.315 793.727C653.995 790.586 671.494 763.216 671.494 763.216C671.494 763.216 641.881 793.727 633.804 791.483C625.727 789.24 640.983 760.972 640.983 760.972C640.983 760.972 621.24 781.612 614.959 778.471C608.678 775.33 610.023 765.908 613.164 755.588C616.306 745.268 622.587 721.936 637.842 703.091Z" fill="#7C90FB"/>
</mask>
<g mask="url(#mask2)">
<path d="M660.526 673.684L668.421 655.263L773.684 697.368L747.368 731.579C710.526 723.684 669.298 690.351 660.526 673.684Z" fill="#4F67EF" fill-opacity="0.54"/>
</g>
<path d="M1253.7 483.299C1253.7 595.856 1228.57 686.555 1067.05 717.963C1023.69 736.386 977.659 768.216 926.158 768.216C745.261 768.216 598.614 640.654 598.614 483.299C591.436 369.78 638.265 278.977 726.94 227.994C778.668 198.254 859.511 193.894 926.158 193.894C1054.48 227.994 1133.34 240.988 1192.75 313.245C1231.12 359.909 1253.7 421.553 1253.7 483.299Z" fill="#899BFB"/>
<mask id="mask3" mask-type="alpha" maskUnits="userSpaceOnUse" x="597" y="193" width="657" height="576">
<path d="M1253.7 483.299C1253.7 595.856 1228.57 686.555 1067.05 717.963C1023.69 736.386 977.659 768.216 926.158 768.216C745.261 768.216 598.614 640.654 598.614 483.299C591.436 369.78 638.265 278.977 726.94 227.994C778.668 198.254 859.511 193.894 926.158 193.894C1054.48 227.994 1133.34 240.988 1192.75 313.245C1231.12 359.909 1253.7 421.553 1253.7 483.299Z" fill="#899BFB"/>
</mask>
<g mask="url(#mask3)">
<path d="M931.579 655.263L873.684 687.547L900 681.579L957.895 684.21L931.579 655.263Z" fill="#6B80F4"/>
<path d="M1129.86 333.437C1097.56 259.134 1023.97 199.578 991.217 179.088L1305.3 227.995L1389.65 478.813C1379.63 573.038 1339.94 771.987 1261.33 813.984C1182.72 855.981 894.15 850.029 759.693 841.803C1120.89 861.096 1170.24 426.316 1129.86 333.437Z" fill="#7489F9"/>
<ellipse cx="848.085" cy="409.266" rx="207.295" ry="195.629" fill="#95A6FF"/>
<path d="M752.632 534.211C748.421 523.684 757.018 461.403 757.895 455.263L736.842 523.684L734.211 550L747.368 613.158C771.052 613.158 786.842 576.316 778.948 565.789C771.053 555.263 757.895 547.368 752.632 534.211Z" fill="#6B80F4"/>
</g>
<path d="M1192.68 324.019C1191.96 308.584 1182.21 272.121 1177.42 255.818C1234.5 258.69 1311.88 296.799 1343.44 315.494C1343.44 315.494 1334.02 350.492 1328.18 357.222C1322.35 363.952 1306.2 389.079 1306.2 389.079C1306.2 389.079 1329.08 392.22 1330.88 398.502L1317.86 420.487C1317.86 420.487 1357.35 561.376 1352.41 587.4C1347.48 613.424 1316.25 697.418 1315.17 699.572C1314.56 700.794 1319.93 725.718 1317.86 753.415C1316.28 774.546 1307.3 797.104 1306.2 813.091C1288.61 784.016 1213.02 723.502 1177.42 696.88L1203 554.645L1198.06 509.328C1196.57 453.989 1193.4 339.454 1192.68 324.019Z" fill="#FFCE85"/>
<mask id="mask4" mask-type="alpha" maskUnits="userSpaceOnUse" x="1177" y="255" width="176" height="559">
<path d="M1192.68 324.019C1191.96 308.584 1182.21 272.121 1177.42 255.818C1234.5 258.69 1311.88 296.799 1343.44 315.494C1343.44 315.494 1334.02 350.492 1328.18 357.222C1322.35 363.952 1306.2 389.079 1306.2 389.079C1306.2 389.079 1329.08 392.22 1330.88 398.502L1317.86 420.487C1317.86 420.487 1357.35 561.376 1352.41 587.4C1347.48 613.424 1316.25 697.418 1315.17 699.572C1314.56 700.794 1319.93 725.718 1317.86 753.415C1316.28 774.546 1307.3 797.104 1306.2 813.091C1288.61 784.016 1213.02 723.502 1177.42 696.88L1203 554.645L1198.06 509.328C1196.57 453.989 1193.4 339.454 1192.68 324.019Z" fill="#FFCE85"/>
</mask>
<g mask="url(#mask4)">
<path d="M1166.65 592.78L1354.21 250.878L1102.04 205.561L1166.65 592.78Z" fill="#FFDBA5"/>
</g>
<path d="M744.887 405.233C748.836 398.772 776.744 387.285 790.205 382.35C795.29 388.482 802.41 403.977 790.205 416.899C759.246 422.732 747.579 499.458 744.887 524.136C742.195 548.814 755.656 544.327 765.527 574.389C773.424 598.439 752.365 617.314 740.849 623.745C744.438 608.489 729.632 602.208 717.966 581.119C708.634 564.249 723.35 543.579 731.875 535.353C718.863 473.883 739.952 413.309 744.887 405.233Z" fill="url(#paint0_linear)"/>
<mask id="mask5" mask-type="alpha" maskUnits="userSpaceOnUse" x="714" y="382" width="83" height="242">
<path d="M744.885 405.223C748.833 398.762 776.742 387.275 790.202 382.34C795.288 388.472 802.407 403.966 790.202 416.889C759.243 422.722 747.577 499.448 744.885 524.125C742.193 548.803 755.653 544.317 765.524 574.379C773.421 598.428 752.363 617.303 740.846 623.735C744.436 608.479 729.63 602.197 717.964 581.109C708.631 564.238 723.348 543.569 731.873 535.343C718.861 473.872 739.949 413.299 744.885 405.223Z" fill="url(#paint1_linear)"/>
</mask>
<g mask="url(#mask5)">
<path d="M758.345 538.483C734.655 530.586 722.749 535.193 719.758 538.483L692.837 570.789L719.758 624.183L745.333 639.887L783.921 604.441C785.267 585.745 782.036 546.38 758.345 538.483Z" fill="#D8DEFF"/>
</g>
<path fill-rule="evenodd" clip-rule="evenodd" d="M782.266 248.658C776.823 212.315 744.694 150.655 713.028 137.366C744.885 139.61 837.136 170.39 881.287 219.925C881.137 211.699 868.634 174.967 848.533 153.07C869.621 155.763 936.027 183.133 961.602 244.603C961.602 244.603 906.862 241.014 881.287 242.808C855.712 244.603 788.857 261.205 760.141 276.46C731.425 291.716 708.541 309.214 708.541 309.214C705.101 295.903 682.607 247.295 636.302 222.169C661.823 216.773 731.024 220.391 782.266 248.658Z" fill="url(#paint2_linear)"/>
<path d="M1019.48 277.35C1007.64 256.89 1032.2 251.476 1045.96 251.326C1048.95 251.326 1059.33 252.852 1076.92 258.954C1098.9 266.581 1105.63 279.593 1099.35 293.503C1093.07 307.412 1034.29 302.925 1019.48 277.35Z" fill="#B6CAFF" fill-opacity="0.81"/>
<ellipse rx="7.62774" ry="4.4869" transform="matrix(0.945641 0.325211 -0.325213 0.945641 1112.51 316.386)" fill="#B6CAFF" fill-opacity="0.81"/>
<path d="M1023.97 550.152C1023.97 571.959 1004.08 591.88 979.551 591.88C955.019 591.88 934.234 584.522 934.234 562.715C934.234 540.908 946.348 511.565 984.935 511.565C1009.47 511.565 1023.97 528.345 1023.97 550.152Z" fill="#B6CAFF" fill-opacity="0.81"/>
<path d="M1005.13 621.052C1005.13 625.017 1000.32 630.026 996.602 630.026C992.885 630.026 989.872 623.222 989.872 619.258C989.872 615.293 992.885 612.078 996.602 612.078C1000.32 612.078 1005.13 617.087 1005.13 621.052Z" fill="#B6CAFF" fill-opacity="0.81"/>
<ellipse cx="908.21" cy="613.423" rx="3.58951" ry="4.03824" fill="#B6CAFF" fill-opacity="0.81"/>
<path d="M619.253 390.426C620.15 383.247 629.572 365.747 645.277 360.812C673.095 353.633 668.608 375.618 665.916 384.593C664.107 390.625 643.93 413.758 631.367 412.412C618.804 411.066 618.355 397.605 619.253 390.426Z" fill="#B6CAFF" fill-opacity="0.81"/>
<ellipse rx="3.58952" ry="4.0382" transform="matrix(0.945424 0.325841 -0.325843 0.945424 636.304 432.146)" fill="#B6CAFF" fill-opacity="0.81"/>
<g filter="url(#filter0_d)">
<path d="M1013.2 813.086L941.411 831.033L1024.42 929.745L1098.9 897.888L1013.2 813.086Z" fill="white"/>
</g>
<mask id="mask6" mask-type="alpha" maskUnits="userSpaceOnUse" x="941" y="813" width="158" height="117">
<path d="M1013.2 813.086L941.411 831.033L1024.42 929.745L1098.9 897.888L1013.2 813.086Z" fill="white"/>
</mask>
<g mask="url(#mask6)">
<path d="M1058.97 930.194L991.666 801.421H1028.01L1119.09 895.197L1058.97 930.194Z" fill="#F6F7FF"/>
</g>
<path d="M1007.82 839.112C998.396 835.971 991.665 846.291 988.973 856.162C987.328 861.098 987.896 871.598 1003.33 874.111C1022.62 877.252 1031.6 856.162 1031.15 851.228C1030.7 846.293 1025.77 848.087 1019.93 847.19C1014.1 846.292 1017.24 842.253 1007.82 839.112Z" fill="#86BFF4"/>
<ellipse cx="1038.78" cy="864.688" rx="4.03821" ry="2.69214" fill="#86BFF4"/>
<path d="M1029.5 893.1C1028.02 891.005 1028.93 888.076 1031.33 887.185L1047.52 881.194C1048.92 880.676 1050.5 881.061 1051.5 882.168V882.168C1053.21 884.055 1052.52 887.069 1050.15 888.021L1034.14 894.467C1032.47 895.143 1030.54 894.577 1029.5 893.1V893.1Z" fill="#ACB4D2"/>
<path d="M1036.52 907.385C1034.78 905.309 1035.62 902.136 1038.16 901.195L1062.04 892.357C1063.3 891.891 1064.71 892.154 1065.72 893.043V893.043C1067.76 894.846 1067.18 898.171 1064.64 899.171L1040.96 908.513C1039.39 909.131 1037.6 908.677 1036.52 907.385V907.385Z" fill="#ACB4D2"/>
<g filter="url(#filter1_d)">
<path d="M1184.15 854.811L1136.14 884.424L1234.85 936.024L1280.62 893.398L1184.15 854.811Z" fill="white"/>
</g>
<mask id="mask7" mask-type="alpha" maskUnits="userSpaceOnUse" x="1136" y="854" width="145" height="83">
<path d="M1184.15 854.811L1136.14 884.424L1234.85 936.024L1280.62 893.398L1184.15 854.811Z" fill="white"/>
</mask>
<g mask="url(#mask7)">
<path d="M1268.96 913.593L1139.73 873.211L1115.5 886.671L1242.93 953.078L1268.96 913.593Z" fill="#F6F7FF"/>
</g>
<path d="M1230.37 888.462C1221.84 884.424 1217.36 891.603 1214.22 897.436C1212.87 899.979 1211.34 907.128 1216.01 915.384C1221.84 925.704 1230.37 917.627 1237.55 914.487C1244.73 911.346 1245.62 906.859 1242.03 902.821C1238.44 898.782 1238.89 892.501 1230.37 888.462Z" fill="#FF908A"/>
<ellipse cx="1247.42" cy="895.193" rx="4.48688" ry="2.69211" fill="#FF908A"/>
<g filter="url(#filter2_d)">
<path d="M1249.66 811.287L1143.77 842.695L1173.84 898.333L1294.08 853.015L1249.66 811.287Z" fill="white"/>
</g>
<mask id="mask8" mask-type="alpha" maskUnits="userSpaceOnUse" x="1143" y="811" width="152" height="88">
<path d="M1249.66 811.287L1143.77 842.695L1173.84 898.333L1294.08 853.015L1249.66 811.287Z" fill="white"/>
</mask>
<g mask="url(#mask8)">
<path d="M1145.12 863.34L1299.47 832.829L1313.83 863.34L1173.84 898.337L1145.12 863.34Z" fill="#F6F7FF"/>
</g>
<path d="M1171.23 848.602C1173.04 848.125 1174.95 848.896 1175.93 850.498L1189.06 872.047C1190.47 874.367 1189.43 877.401 1186.89 878.36V878.36C1184.93 879.1 1182.72 878.331 1181.64 876.532L1168.66 854.889C1167.21 852.464 1168.49 849.322 1171.23 848.602V848.602Z" fill="#ACB4D2"/>
<path d="M1189.82 846.114C1191.65 845.527 1193.63 846.233 1194.68 847.837L1203.55 861.471C1205.02 863.742 1204.07 866.797 1201.56 867.823V867.823C1199.63 868.615 1197.4 867.908 1196.28 866.145L1187.55 852.425C1186.06 850.084 1187.18 846.966 1189.82 846.114V846.114Z" fill="#ACB4D2"/>
<path d="M1230.82 829.684C1215.56 829.235 1216.01 833.722 1212.42 843.593C1211.08 854.811 1222.74 849.426 1223.19 857.951C1223.64 866.476 1235.75 861.989 1242.04 860.194C1248.32 858.399 1255.5 847.182 1254.6 840.003C1253.7 832.824 1246.07 830.133 1230.82 829.684Z" fill="#C084F9"/>
<ellipse cx="1207.04" cy="835.965" rx="3.5896" ry="2.69217" fill="#C084F9"/>
<g filter="url(#filter3_d)">
<path d="M1479.39 792.154L1356 747.734V740.106L1414.78 712.736L1558.81 726.646L1479.39 792.154Z" fill="#E8E8FD"/>
</g>
<g filter="url(#filter4_d)">
<path d="M1584.83 809.202C1551.09 795.203 1504.67 795.592 1485.67 797.536L1482.98 789.012L1514.84 762.988L1808.28 683.121L1824.43 710.491L1655.28 840.611C1645.86 835.974 1618.58 823.201 1584.83 809.202Z" fill="#E8E8FD"/>
</g>
<path d="M1644.51 655.307L1486.12 786.773C1451.66 740.468 1385.32 736.669 1356.45 740.558L1531.44 609.541C1603.95 602.003 1637.03 636.911 1644.51 655.307Z" fill="white"/>
<mask id="mask9" mask-type="alpha" maskUnits="userSpaceOnUse" x="1356" y="608" width="289" height="179">
<path d="M1644.51 655.297L1486.12 786.763C1451.66 740.458 1385.32 736.659 1356.45 740.548L1531.44 609.53C1603.95 601.992 1637.03 636.9 1644.51 655.297Z" fill="white"/>
</mask>
<g mask="url(#mask9)">
<path d="M1399.08 756.997L1654.83 621.941L1714.06 647.517L1500.48 813.532L1399.08 756.997Z" fill="#F6F7FF"/>
</g>
<path d="M1727.07 639.147C1686.51 633.404 1654.83 647.523 1644.06 655.3L1483.43 789.01C1492.7 783.027 1520.31 771.78 1556.57 774.652C1592.82 777.523 1624.32 800.377 1635.53 811.444L1651.24 815.034L1815.91 684.016C1812.02 682.371 1802.99 678.453 1797.96 675.94C1791.68 672.799 1777.77 646.326 1727.07 639.147Z" fill="white"/>
<mask id="mask10" mask-type="alpha" maskUnits="userSpaceOnUse" x="1483" y="637" width="333" height="179">
<path d="M1727.07 639.147C1686.51 633.404 1654.83 647.523 1644.06 655.3L1483.43 789.01C1492.7 783.027 1520.31 771.78 1556.57 774.652C1592.82 777.523 1624.32 800.377 1635.53 811.444L1651.24 815.034L1815.91 684.016C1812.02 682.371 1802.99 678.453 1797.96 675.94C1791.68 672.799 1777.77 646.326 1727.07 639.147Z" fill="white"/>
</mask>
<g mask="url(#mask10)">
<path d="M1530.99 802.318L1804.69 648.866L1860.33 708.093L1665.6 855.263L1530.99 802.318Z" fill="#F6F7FF"/>
</g>
<g filter="url(#filter5_d)">
<path d="M1496.02 797.891C1495.09 807.41 1485.55 804.48 1476.7 803.372C1467.85 802.264 1456.51 797.892 1460.1 791.257C1460.74 786.094 1472.33 785.213 1481.19 786.322C1490.04 787.43 1496.66 792.727 1496.02 797.891Z" fill="#E8E8FD"/>
</g>
<g filter="url(#filter6_d)">
<path d="M141.507 694.639C114.137 673.999 132.533 644.834 148.686 642.142C164.839 639.45 362.262 692.844 362.262 692.844V752.968L141.507 694.639Z" fill="#E8E8FD"/>
</g>
<g filter="url(#filter7_d)">
<path d="M362.261 753.408L464.562 687.899C459.178 670.311 463.814 650.658 466.805 643.03L362.261 700.463C350.774 719.846 357.475 743.836 362.261 753.408Z" fill="white"/>
</g>
<mask id="mask11" mask-type="alpha" maskUnits="userSpaceOnUse" x="355" y="643" width="112" height="111">
<path d="M362.261 753.408L464.562 687.899C459.178 670.311 463.814 650.658 466.805 643.03L362.261 700.463C350.774 719.846 357.475 743.836 362.261 753.408Z" fill="white"/>
</mask>
<g mask="url(#mask11)">
<path d="M337.476 752.065L481.057 624.188L411.51 617.906L302.478 692.389L337.476 752.065Z" fill="#ADADD1" fill-opacity="0.4"/>
</g>
<path d="M142.403 644.385L363.159 700.023L467.703 644.385L270.28 590.543L142.403 644.385Z" fill="white"/>
<mask id="mask12" mask-type="alpha" maskUnits="userSpaceOnUse" x="142" y="590" width="326" height="111">
<path d="M142.403 644.375L363.159 700.013L467.703 644.375L270.28 590.532L142.403 644.375Z" fill="white"/>
</mask>
<g mask="url(#mask12)">
<path d="M171.91 670.399L440.226 616.556L528.618 637.645L381.897 716.165L171.91 670.399Z" fill="#F6F7FF"/>
</g>
<path d="M273.429 608.004L223.564 631.378C221.288 632.445 221.581 635.77 224.008 636.422L257.611 645.455C258.257 645.629 258.945 645.556 259.54 645.251L306.673 621.1C308.87 619.975 308.525 616.734 306.141 616.097L275.269 607.84C274.656 607.676 274.004 607.734 273.429 608.004Z" fill="#ACB4D2"/>
<path d="M677.05 879.51C670.17 869.639 652.282 850.076 635.771 850.794C615.131 851.692 578.787 856.179 572.954 831.501C567.121 806.823 571.159 766.889 533.021 766.889" stroke="#929CC3" stroke-width="2.69564"/>
<path d="M342.769 804.133C333.72 794.91 325.808 785.486 319.444 777.212C292.522 742.214 294.766 688.302 357.232 656.301C408.398 630.088 460.143 657.396 486.356 708.563C488.49 712.727 490.388 716.92 492.048 721.125" stroke="#929CC3" stroke-width="7.18837"/>
<ellipse cx="370.637" cy="824.451" rx="34.5491" ry="40.3474" transform="rotate(-38.1375 370.637 824.451)" fill="#929CC3"/>
<mask id="mask13" mask-type="alpha" maskUnits="userSpaceOnUse" x="333" y="786" width="75" height="77">
<ellipse cx="370.637" cy="824.452" rx="34.5491" ry="40.3474" transform="rotate(-38.1375 370.637 824.452)" fill="#929CC3"/>
</mask>
<g mask="url(#mask13)">
<path d="M335.233 892.509L404.331 777.645L442.919 803.22L418.689 887.573L335.233 892.509Z" fill="#7B88B8"/>
</g>
<path d="M529.97 725.439C543.731 742.965 544.639 766.675 531.569 776.937C518.498 787.2 498.575 777.687 484.814 760.16C471.053 742.634 468.665 723.731 481.735 713.468C494.806 703.206 516.209 707.912 529.97 725.439Z" fill="#929CC3"/>
<path d="M529.97 725.439C543.731 742.965 544.639 766.675 531.569 776.937C518.498 787.2 498.575 777.687 484.814 760.16C471.053 742.634 468.665 723.731 481.735 713.468C494.806 703.206 516.209 707.912 529.97 725.439Z" fill="#929CC3"/>
<mask id="mask14" mask-type="alpha" maskUnits="userSpaceOnUse" x="473" y="708" width="68" height="74">
<path d="M529.97 725.437C543.731 742.964 544.639 766.673 531.569 776.936C518.498 787.198 498.575 777.685 484.814 760.159C471.053 742.632 468.665 723.729 481.735 713.467C494.806 703.204 516.209 707.911 529.97 725.437Z" fill="#929CC3"/>
</mask>
<g mask="url(#mask14)">
<path d="M471.185 798.277L538.938 700.463L569.897 720.205L538.938 798.277H471.185Z" fill="#7B88B8"/>
</g>
<path d="M516.596 735.998C522.43 743.429 523.234 753.152 518.192 757.111C513.15 761.07 504.998 756.805 499.163 749.374C493.329 741.942 492.021 734.159 497.063 730.201C502.105 726.242 510.761 728.566 516.596 735.998Z" fill="#6B7AAF"/>
<path d="M399.759 632.805C345.557 627.78 311.666 660.624 301.496 677.674C306.521 695.622 319.443 703.997 325.276 705.942C355.428 665.38 391.234 659.658 411.873 661.521C414.117 645.749 398.142 632.666 399.759 632.805Z" fill="#929CC3"/>
<mask id="mask15" mask-type="alpha" maskUnits="userSpaceOnUse" x="301" y="632" width="112" height="74">
<path d="M399.759 632.805C345.557 627.78 311.666 660.624 301.496 677.674C306.521 695.622 319.443 703.997 325.276 705.942C355.428 665.38 391.234 659.658 411.873 661.521C414.117 645.749 398.142 632.666 399.759 632.805Z" fill="#929CC3"/>
</mask>
<g mask="url(#mask15)">
<path d="M340.617 701.811L385.037 606.689L437.085 614.766L432.598 664.57L340.617 701.811Z" fill="#7B88B8"/>
</g>
<path d="M884.386 680.326C903.598 674.315 909.349 689.059 909.822 697.182L925.419 749.308C933.743 788.344 902.025 839.43 893.261 836.471C888.529 834.874 884.999 824.639 882.802 814.968C877.66 830.644 866.023 857.968 855.357 856.823C845.011 855.713 848.412 831.852 852.01 817.435C845.329 841.503 836.65 844.675 833.013 843.124C803.041 810.242 860.372 687.839 884.386 680.326Z" fill="url(#paint3_linear)"/>
<path d="M887.235 700.816C873.29 699.914 856.183 734.415 854.898 746.386C850.335 770.114 862.931 773.08 881.465 775.271C899.999 777.461 910.946 765.72 908.775 748.333C906.605 730.946 901.465 701.737 887.235 700.816Z" fill="#A3B1FF"/>
<path d="M834.455 784.809C836.373 779.179 843.487 776.648 847.683 778.077C851.878 779.506 855.18 788.242 853.263 793.872C851.346 799.501 842.592 806.528 838.396 805.099C834.2 803.67 832.538 790.439 834.455 784.809Z" fill="#A3B1FF"/>
<path d="M858.569 803.289C859.915 797.496 866.741 794.267 871.058 795.27C875.376 796.273 879.533 804.636 878.188 810.429C876.842 816.222 868.834 824.087 864.516 823.084C860.198 822.081 857.224 809.082 858.569 803.289Z" fill="#A3B1FF"/>
<path d="M890.249 794.82C890.54 788.88 896.68 784.484 901.107 784.701C905.534 784.917 911.117 792.404 910.827 798.344C910.537 804.284 904.06 813.452 899.633 813.236C895.205 813.019 889.959 800.76 890.249 794.82Z" fill="#A3B1FF"/>
<defs>
<filter id="filter0_d" x="939.614" y="813.086" width="159.287" height="125.645" filterUnits="userSpaceOnUse" color-interpolation-filters="sRGB">
<feFlood flood-opacity="0" result="BackgroundImageFix"/>
<feColorMatrix in="SourceAlpha" type="matrix" values="0 0 0 0 0 0 0 0 0 0 0 0 0 0 0 0 0 0 127 0"/>
<feOffset dx="-1.79709" dy="8.98546"/>
<feColorMatrix type="matrix" values="0 0 0 0 0.0862745 0 0 0 0 0.0862745 0 0 0 0 0.482353 0 0 0 0.3 0"/>
<feBlend mode="normal" in2="BackgroundImageFix" result="effect1_dropShadow"/>
<feBlend mode="normal" in="SourceGraphic" in2="effect1_dropShadow" result="shape"/>
</filter>
<filter id="filter1_d" x="1136.14" y="854.811" width="146.275" height="86.604" filterUnits="userSpaceOnUse" color-interpolation-filters="sRGB">
<feFlood flood-opacity="0" result="BackgroundImageFix"/>
<feColorMatrix in="SourceAlpha" type="matrix" values="0 0 0 0 0 0 0 0 0 0 0 0 0 0 0 0 0 0 127 0"/>
<feOffset dx="1.79709" dy="5.39127"/>
<feColorMatrix type="matrix" values="0 0 0 0 0.0862745 0 0 0 0 0.0862745 0 0 0 0 0.482353 0 0 0 0.3 0"/>
<feBlend mode="normal" in2="BackgroundImageFix" result="effect1_dropShadow"/>
<feBlend mode="normal" in="SourceGraphic" in2="effect1_dropShadow" result="shape"/>
</filter>
<filter id="filter2_d" x="1141.98" y="811.287" width="152.108" height="96.0313" filterUnits="userSpaceOnUse" color-interpolation-filters="sRGB">
<feFlood flood-opacity="0" result="BackgroundImageFix"/>
<feColorMatrix in="SourceAlpha" type="matrix" values="0 0 0 0 0 0 0 0 0 0 0 0 0 0 0 0 0 0 127 0"/>
<feOffset dx="-1.79709" dy="8.98546"/>
<feColorMatrix type="matrix" values="0 0 0 0 0.0845833 0 0 0 0 0.0845833 0 0 0 0 0.483333 0 0 0 0.31 0"/>
<feBlend mode="normal" in2="BackgroundImageFix" result="effect1_dropShadow"/>
<feBlend mode="normal" in="SourceGraphic" in2="effect1_dropShadow" result="shape"/>
</filter>
<filter id="filter3_d" x="1354.2" y="712.736" width="204.605" height="88.4035" filterUnits="userSpaceOnUse" color-interpolation-filters="sRGB">
<feFlood flood-opacity="0" result="BackgroundImageFix"/>
<feColorMatrix in="SourceAlpha" type="matrix" values="0 0 0 0 0 0 0 0 0 0 0 0 0 0 0 0 0 0 127 0"/>
<feOffset dx="-1.79709" dy="8.98546"/>
<feColorMatrix type="matrix" values="0 0 0 0 0.0845833 0 0 0 0 0.0845833 0 0 0 0 0.483333 0 0 0 0.31 0"/>
<feBlend mode="normal" in2="BackgroundImageFix" result="effect1_dropShadow"/>
<feBlend mode="normal" in="SourceGraphic" in2="effect1_dropShadow" result="shape"/>
</filter>
<filter id="filter4_d" x="1481.18" y="683.121" width="343.25" height="166.475" filterUnits="userSpaceOnUse" color-interpolation-filters="sRGB">
<feFlood flood-opacity="0" result="BackgroundImageFix"/>
<feColorMatrix in="SourceAlpha" type="matrix" values="0 0 0 0 0 0 0 0 0 0 0 0 0 0 0 0 0 0 127 0"/>
<feOffset dx="-1.79709" dy="8.98546"/>
<feColorMatrix type="matrix" values="0 0 0 0 0.0845833 0 0 0 0 0.0845833 0 0 0 0 0.483333 0 0 0 0.31 0"/>
<feBlend mode="normal" in2="BackgroundImageFix" result="effect1_dropShadow"/>
<feBlend mode="normal" in="SourceGraphic" in2="effect1_dropShadow" result="shape"/>
</filter>
<filter id="filter5_d" x="1457.62" y="785.899" width="38.4407" height="27.7643" filterUnits="userSpaceOnUse" color-interpolation-filters="sRGB">
<feFlood flood-opacity="0" result="BackgroundImageFix"/>
<feColorMatrix in="SourceAlpha" type="matrix" values="0 0 0 0 0 0 0 0 0 0 0 0 0 0 0 0 0 0 127 0"/>
<feOffset dx="-1.79709" dy="8.98546"/>
<feColorMatrix type="matrix" values="0 0 0 0 0.0845833 0 0 0 0 0.0845833 0 0 0 0 0.483333 0 0 0 0.31 0"/>
<feBlend mode="normal" in2="BackgroundImageFix" result="effect1_dropShadow"/>
<feBlend mode="normal" in="SourceGraphic" in2="effect1_dropShadow" result="shape"/>
</filter>
<filter id="filter6_d" x="125.693" y="642.044" width="236.569" height="119.91" filterUnits="userSpaceOnUse" color-interpolation-filters="sRGB">
<feFlood flood-opacity="0" result="BackgroundImageFix"/>
<feColorMatrix in="SourceAlpha" type="matrix" values="0 0 0 0 0 0 0 0 0 0 0 0 0 0 0 0 0 0 127 0"/>
<feOffset dx="-1.79709" dy="8.98546"/>
<feColorMatrix type="matrix" values="0 0 0 0 0.0845833 0 0 0 0 0.0845833 0 0 0 0 0.483333 0 0 0 0.31 0"/>
<feBlend mode="normal" in2="BackgroundImageFix" result="effect1_dropShadow"/>
<feBlend mode="normal" in="SourceGraphic" in2="effect1_dropShadow" result="shape"/>
</filter>
<filter id="filter7_d" x="354.121" y="643.03" width="112.684" height="119.363" filterUnits="userSpaceOnUse" color-interpolation-filters="sRGB">
<feFlood flood-opacity="0" result="BackgroundImageFix"/>
<feColorMatrix in="SourceAlpha" type="matrix" values="0 0 0 0 0 0 0 0 0 0 0 0 0 0 0 0 0 0 127 0"/>
<feOffset dx="-1.79709" dy="8.98546"/>
<feColorMatrix type="matrix" values="0 0 0 0 0.0845833 0 0 0 0 0.0845833 0 0 0 0 0.483333 0 0 0 0.31 0"/>
<feBlend mode="normal" in2="BackgroundImageFix" result="effect1_dropShadow"/>
<feBlend mode="normal" in="SourceGraphic" in2="effect1_dropShadow" result="shape"/>
</filter>
<linearGradient id="paint0_linear" x1="755.959" y1="382.35" x2="755.959" y2="623.745" gradientUnits="userSpaceOnUse">
<stop stop-color="#95A5FF"/>
<stop offset="1" stop-color="#D8DEFF"/>
</linearGradient>
<linearGradient id="paint1_linear" x1="755.957" y1="382.34" x2="755.957" y2="623.735" gradientUnits="userSpaceOnUse">
<stop stop-color="#95A5FF"/>
<stop offset="1" stop-color="#674FFB"/>
</linearGradient>
<linearGradient id="paint2_linear" x1="798.728" y1="159.352" x2="820.265" y2="264.345" gradientUnits="userSpaceOnUse">
<stop stop-color="#7C90FB"/>
<stop offset="1" stop-color="#95A5FF"/>
</linearGradient>
<linearGradient id="paint3_linear" x1="925.343" y1="734.971" x2="871.73" y2="732.448" gradientUnits="userSpaceOnUse">
<stop stop-color="#899BFB"/>
<stop offset="1" stop-color="#7C90FB"/>
</linearGradient>
</defs>
</svg>
