<svg width="2000" height="1458" viewBox="0 0 2000 1458" fill="none" xmlns="http://www.w3.org/2000/svg">
<g clip-path="url(#clip0)">
<path d="M357.886 131.498C-198.697 338.183 157.864 563.234 146.602 785.925C137.132 973.171 -149.967 1140.07 105.825 1320.44C425.564 1545.92 1132.05 1440.17 1522.84 1374.4C1913.64 1308.64 2067.59 1030.19 1972.85 785.925C1878.11 541.659 2032.68 272.42 1618.2 131.498C1203.72 -9.42258 914.47 -75.1861 357.886 131.498Z" fill="#F1F1F8"/>
<path d="M948.003 357.329L960.313 387.018L949.727 393.576L936.769 362.056C930.9 365.968 921.882 368.258 915.554 362.504C900.156 348.504 931.135 319.94 953.457 330.989C971.315 339.828 959.932 353.533 948.003 357.329Z" fill="#FFAB48"/>
<ellipse cx="419.78" cy="850.549" rx="160.44" ry="24.1758" fill="#DBDBEE"/>
<ellipse cx="542.857" cy="1263.74" rx="125.275" ry="24.1758" fill="#DBDBEE"/>
<ellipse cx="1000" cy="1325.27" rx="164.835" ry="24.1758" fill="#DBDBEE"/>
<ellipse cx="1294.51" cy="1180.22" rx="164.835" ry="24.1758" fill="#DBDBEE"/>
<ellipse cx="1646.15" cy="1109.89" rx="125.275" ry="24.1758" fill="#DBDBEE"/>
<ellipse cx="1531.87" cy="802.198" rx="125.275" ry="24.1758" fill="#DBDBEE"/>
<ellipse cx="1261.54" cy="714.286" rx="202.198" ry="24.1758" fill="#DBDBEE"/>
<ellipse cx="703.297" cy="551.648" rx="131.868" ry="24.1758" fill="#DBDBEE"/>
<ellipse cx="703.297" cy="1043.96" rx="153.846" ry="24.1758" fill="#DBDBEE"/>
<path fill-rule="evenodd" clip-rule="evenodd" d="M298.901 833.443V729.047L313.897 735.755C326.273 741.292 341.31 746.435 359.1 751.134C376.604 755.758 392.315 757.986 406.301 757.986C423.093 757.986 434.48 754.327 441.885 748.454C448.796 742.973 452.778 734.846 452.778 722.316C452.778 711.238 448.926 703.516 441.508 697.829L441.439 697.776L441.37 697.721C434.133 691.981 421.871 688.19 402.698 688.19C394.231 688.19 385.943 689.13 377.817 691.005L377.664 691.04L377.511 691.071C369.192 692.735 361.805 694.545 355.323 696.49L351.312 697.693L304.592 674.662L319.707 463.611H549.726V567.764H423.697L421.337 592.419L423.951 591.929L424.007 591.919C430.796 590.721 440.485 590.213 452.618 590.213C474.867 590.213 495.354 595.237 513.853 605.43C532.471 615.689 547.241 630.516 558.112 649.635C569.183 669.104 574.429 692.468 574.429 719.228C574.429 762.635 561.316 797.422 533.801 821.88C506.357 846.274 465.934 857.507 414.535 857.507C370.972 857.507 334.239 850.67 304.882 836.359L298.901 833.443ZM409.389 605.492L414.02 557.116H539.078V474.259H329.619L315.724 668.279L352.264 686.291C359.125 684.232 366.845 682.345 375.422 680.63C384.343 678.571 393.435 677.542 402.698 677.542C422.941 677.542 438.037 681.488 447.987 689.379C458.28 697.27 463.426 708.249 463.426 722.316C463.426 737.412 458.451 748.906 448.501 756.797C438.552 764.688 424.485 768.634 406.301 768.634C391.205 768.634 374.565 766.232 356.381 761.429C342.906 757.869 330.845 754.027 320.196 749.903C316.474 748.461 312.925 746.985 309.548 745.475V826.788C336.996 840.169 371.991 846.859 414.535 846.859C464.627 846.859 502.024 835.88 526.727 813.922C551.429 791.964 563.781 760.399 563.781 719.228C563.781 693.839 558.806 672.396 548.856 654.898C538.907 637.4 525.526 624.019 508.714 614.756C491.903 605.492 473.204 600.861 452.618 600.861C440.61 600.861 431.69 601.375 425.857 602.405L409.389 605.492Z" fill="#0D96E2"/>
<path d="M452.619 600.861C473.205 600.861 491.903 605.493 508.715 614.757C525.527 624.02 538.907 637.401 548.857 654.899C558.807 672.396 563.782 693.84 563.782 719.229C563.782 760.4 551.43 791.965 526.727 813.923C502.025 835.881 464.628 846.86 414.536 846.86C371.992 846.86 336.997 840.169 309.549 826.789V745.475C322.587 751.308 338.197 756.626 356.381 761.429C374.565 766.233 391.205 768.634 406.302 768.634C424.486 768.634 438.552 764.689 448.502 756.798C458.452 748.906 463.427 737.413 463.427 722.317C463.427 708.25 458.28 697.271 447.987 689.38C438.038 681.488 422.942 677.543 402.699 677.543C393.436 677.543 384.344 678.572 375.423 680.631C366.846 682.346 359.126 684.233 352.264 686.292L315.725 668.279L329.62 474.26H539.079V557.117H414.021L409.389 605.493C414.879 604.464 420.368 603.435 425.858 602.405C431.691 601.376 440.611 600.861 452.619 600.861Z" fill="#50C0FF"/>
<mask id="mask0" mask-type="alpha" maskUnits="userSpaceOnUse" x="309" y="474" width="255" height="373">
<path d="M452.618 600.863C473.204 600.863 491.903 605.495 508.714 614.758C525.526 624.022 538.906 637.402 548.856 654.9C558.806 672.398 563.781 693.841 563.781 719.23C563.781 760.401 551.429 791.966 526.727 813.924C502.024 835.882 464.627 846.861 414.535 846.861C371.991 846.861 336.996 840.171 309.548 826.79V745.477C322.586 751.309 338.197 756.627 356.381 761.431C374.565 766.234 391.205 768.636 406.301 768.636C424.485 768.636 438.552 764.69 448.501 756.799C458.451 748.908 463.426 737.414 463.426 722.318C463.426 708.251 458.279 697.272 447.987 689.381C438.037 681.49 422.941 677.544 402.698 677.544C393.435 677.544 384.343 678.574 375.422 680.632C366.845 682.348 359.125 684.235 352.263 686.293L315.724 668.281L329.619 474.261H539.078V557.118H414.02L409.389 605.495C414.878 604.465 420.368 603.436 425.857 602.407C431.69 601.377 440.61 600.863 452.618 600.863Z" fill="#50C0FF"/>
</mask>
<g mask="url(#mask0)">
<ellipse rx="8.22625" ry="10.9683" transform="matrix(0.792261 -0.610182 0.610183 0.79226 523.104 633.49)" fill="#78DFFF"/>
<ellipse cx="550.247" cy="716.531" rx="12.3181" ry="16.424" transform="rotate(-6.05439 550.247 716.531)" fill="#78DFFF"/>
<ellipse cx="501.639" cy="768.958" rx="18.9865" ry="25.3154" transform="rotate(21.3908 501.639 768.958)" fill="#78DFFF"/>
<ellipse cx="447.579" cy="822.197" rx="13.8502" ry="18.4669" transform="rotate(76.4098 447.579 822.197)" fill="#78DFFF"/>
<ellipse rx="8.72598" ry="11.6347" transform="matrix(-0.623859 0.781537 -0.781538 -0.623857 520.035 528.364)" fill="#78DFFF"/>
<g style="mix-blend-mode:multiply">
<path d="M364.834 850.549C563.516 797.802 515.018 660.073 465.933 597.802L545.054 593.406C564.835 604.395 605.714 639.12 610.988 690.109C617.582 753.846 556.043 857.142 487.911 868.131C433.406 876.923 383.149 860.073 364.834 850.549Z" fill="#2AABF3" fill-opacity="0.5"/>
</g>
<g style="mix-blend-mode:multiply">
<path d="M448.351 560.439C464.175 546.373 510.622 491.575 531.867 465.934L540.659 470.329L538.461 562.637L448.351 560.439Z" fill="#2AABF3" fill-opacity="0.5"/>
</g>
</g>
<ellipse cx="342.857" cy="540.658" rx="8.79121" ry="8.79117" fill="#78DFFF"/>
<ellipse rx="12.0445" ry="16.0593" transform="matrix(0.773999 0.633187 -0.633186 0.774 344.766 622.255)" fill="#78DFFF"/>
<ellipse rx="12.0445" ry="16.0593" transform="matrix(0.79226 -0.610184 0.610182 0.792262 379.929 569.502)" fill="#78DFFF"/>
<ellipse cx="483.539" cy="690.633" rx="14.537" ry="19.3828" transform="rotate(-6.05435 483.539 690.633)" fill="#78DFFF"/>
<ellipse rx="11.623" ry="15.4974" transform="matrix(0.295874 0.955227 -0.955227 0.295873 361.1 780.524)" fill="#78DFFF"/>
<ellipse rx="8.72599" ry="11.6346" transform="matrix(-0.623858 0.781538 -0.781537 -0.623859 326.626 818.474)" fill="#78DFFF"/>
<path d="M373.229 620.426C390.899 633.541 438.89 635.51 467.284 620.424C461.281 638.437 440.665 665.678 417.595 665.678C397.605 665.678 372.269 629.659 373.229 620.426Z" fill="#006EAB"/>
<path d="M398.961 656.802C414.045 644.381 432.948 650.636 441.552 655.917C438.555 659.954 423.271 666.545 416.595 666.011C409.92 665.476 401.282 659.63 398.961 656.802Z" fill="#0D96E2"/>
<ellipse cx="389.24" cy="473.37" rx="39.929" ry="47.0275" fill="white"/>
<path d="M422.754 446.336C392.95 442.984 363.421 469.335 350.742 484.882C350.006 485.785 348.622 485.776 348.01 484.784C338.865 469.968 341.622 439.079 367.947 426.342C393.687 413.889 418.132 430.701 424.559 444.06C425.134 445.255 424.071 446.484 422.754 446.336Z" fill="#77CEFF"/>
<circle cx="393.679" cy="465.384" r="8.87311" fill="#161E33"/>
<ellipse rx="39.929" ry="47.0275" transform="matrix(-1 0 0 1 485.071 474.187)" fill="white"/>
<path d="M451.56 447.151C481.364 443.8 510.894 470.15 523.572 485.698C524.308 486.601 525.692 486.591 526.304 485.6C535.449 470.784 532.692 439.894 506.368 427.158C480.627 414.704 456.182 431.516 449.755 444.876C449.181 446.07 450.243 447.299 451.56 447.151Z" fill="#77CEFF"/>
<circle r="8.87311" transform="matrix(-1 0 0 1 480.634 466.201)" fill="#161E33"/>
<path fill-rule="evenodd" clip-rule="evenodd" d="M594.851 212.047C584.156 225.157 578.808 241.717 578.808 261.728C578.808 283.118 584.328 301.231 595.369 316.067C604.026 327.7 614.062 337.955 625.478 346.83C628.62 349.273 631.866 351.611 635.217 353.845C631.578 355.665 628.055 357.57 624.648 359.561C609.969 368.14 597.449 378.31 587.088 390.071C574.323 404.216 567.94 424.054 567.94 449.585C567.94 479.945 578.636 504.614 600.026 523.589C621.417 542.564 655.572 552.052 702.494 552.052C733.544 552.052 758.902 547.567 778.568 538.597C798.578 529.627 813.414 517.379 823.074 501.853C832.734 485.983 837.564 468.215 837.564 448.55C837.564 432.334 833.769 418.361 826.179 406.631C818.589 394.556 809.101 384.206 797.716 375.581C789.874 369.402 781.951 363.797 773.946 358.764C770.328 356.49 766.694 354.333 763.042 352.292C766.904 350.433 770.618 348.455 774.183 346.359C787.818 338.341 799.285 328.588 808.584 317.102C820.659 302.611 826.696 284.326 826.696 262.245C826.696 231.885 815.311 209.287 792.541 194.451C769.77 179.616 740.099 172.198 703.529 172.198C679.378 172.198 657.815 175.648 638.84 182.548C620.209 189.104 605.546 198.936 594.851 212.047ZM635.233 172.467C615.085 179.565 598.679 190.416 586.554 205.278C574.027 220.635 568.101 239.721 568.101 261.728C568.101 285.046 574.155 305.496 586.779 322.459C595.146 333.703 604.726 343.741 615.5 352.565C601.526 361.184 589.365 371.299 579.096 382.945C564.056 399.641 557.233 422.345 557.233 449.585C557.233 482.794 569.084 510.453 592.921 531.599C617.191 553.129 654.524 562.759 702.494 562.759C734.442 562.759 761.452 558.164 782.978 548.354C804.525 538.689 821.176 525.171 832.165 507.51L832.193 507.466L832.22 507.421C842.962 489.773 848.271 470.059 848.271 448.55C848.271 430.635 844.063 414.589 835.207 400.875C826.952 387.757 816.623 376.487 804.263 367.108C797.687 361.93 791.038 357.128 784.317 352.705C796.926 344.663 807.802 335.071 816.858 323.897C830.769 307.174 837.404 286.353 837.404 262.245C837.404 228.765 824.586 202.55 798.385 185.48C773.371 169.183 741.476 161.491 703.529 161.491C678.39 161.491 655.573 165.079 635.233 172.467ZM715.638 286.261L715.742 286.173C720.073 282.492 722.32 277.801 722.32 271.043C722.32 265.866 720.585 262.51 717.138 259.829L717.02 259.738L716.905 259.643C713.047 256.466 708.582 254.84 703.011 254.84C697.036 254.84 692.171 256.508 687.972 259.734C684.888 262.32 683.185 265.699 683.185 271.043C683.185 276.164 684.86 280.938 688.76 285.656C692.539 289.622 696.952 293.327 702.039 296.751C706.678 293.715 711.178 290.252 715.537 286.352L715.638 286.261ZM701.976 309.339C693.696 304.509 686.623 298.989 680.758 292.779C675.238 286.223 672.478 278.978 672.478 271.043C672.478 262.763 675.41 256.208 681.276 251.378C687.486 246.547 694.731 244.132 703.011 244.132C710.946 244.132 717.846 246.547 723.712 251.378C729.922 256.208 733.027 262.763 733.027 271.043C733.027 280.703 729.577 288.466 722.677 294.331C716.121 300.196 709.221 305.199 701.976 309.339ZM708.186 400.421L701.458 396.281C690.073 402.146 680.241 409.046 671.96 416.981C663.68 424.917 659.54 434.404 659.54 445.445C659.54 455.795 663.163 464.248 670.408 470.803C677.998 477.013 688.348 480.118 701.458 480.118C716.639 480.118 727.852 477.185 735.097 471.32C742.342 465.455 745.965 457.52 745.965 447.515C745.965 439.925 743.722 433.024 739.237 426.814C734.752 420.604 729.577 415.256 723.712 410.771C717.846 406.286 712.671 402.836 708.186 400.421ZM677.393 462.682C682.51 466.775 690.137 469.411 701.458 469.411C715.616 469.411 723.895 466.612 728.36 462.998C732.89 459.331 735.257 454.561 735.257 447.515C735.257 442.198 733.737 437.487 730.557 433.083C726.661 427.689 722.211 423.103 717.207 419.277C711.612 414.997 706.928 411.904 703.11 409.848L702.838 409.702L701.121 408.646C692.791 413.414 685.559 418.779 679.369 424.712C673.104 430.716 670.247 437.448 670.247 445.445C670.247 452.869 672.668 458.319 677.393 462.682Z" fill="#68A800"/>
<path d="M602.198 158.242C602.198 160.439 644.396 169.231 646.154 169.231C658.608 167.765 687.912 164.835 705.495 164.835C723.077 164.835 756.777 175.091 771.429 180.22C771.429 180.22 806.594 173.628 806.594 171.428C806.594 169.229 756.044 162.637 756.044 162.637C756.044 162.637 773.627 153.845 773.627 151.648C773.627 149.452 734.066 153.846 734.066 153.846C734.066 153.846 767.033 134.066 767.033 131.868C767.033 129.67 692.308 156.044 692.308 156.044C692.308 156.044 679.121 147.253 676.923 147.253C674.725 147.253 679.121 153.846 679.121 153.846C668.865 149.45 648.352 140.659 646.154 140.659C643.956 140.659 655.678 152.381 661.539 158.242L661.539 158.242C661.539 158.242 602.198 156.044 602.198 158.242Z" fill="#68A800"/>
<path d="M703.53 172.195C740.101 172.195 769.771 179.613 792.542 194.448C815.312 209.284 826.698 231.882 826.698 262.242C826.698 284.323 820.66 302.608 808.585 317.099C796.855 331.589 781.674 343.319 763.044 352.289C774.774 358.845 786.332 366.607 797.717 375.578C809.102 384.203 818.59 394.553 826.18 406.628C833.77 418.359 837.565 432.331 837.565 448.547C837.565 468.212 832.735 485.98 823.075 501.851C813.415 517.376 798.58 529.624 778.569 538.594C758.904 547.564 733.546 552.049 702.495 552.049C655.574 552.049 621.418 542.561 600.027 523.586C578.637 504.611 567.942 479.942 567.942 449.582C567.942 424.051 574.324 404.213 587.09 390.068C599.855 375.578 615.898 363.502 635.218 353.842C619.693 343.492 606.41 330.899 595.37 316.064C584.329 301.228 578.809 283.115 578.809 261.725C578.809 241.714 584.157 225.154 594.852 212.044C605.547 198.933 620.21 189.101 638.841 182.545C657.816 175.645 679.379 172.195 703.53 172.195ZM703.012 244.129C694.732 244.129 687.487 246.544 681.277 251.375C675.412 256.205 672.479 262.76 672.479 271.04C672.479 278.975 675.239 286.22 680.759 292.776C686.624 298.986 693.697 304.506 701.977 309.336C709.222 305.196 716.123 300.193 722.678 294.328C729.578 288.463 733.028 280.7 733.028 271.04C733.028 262.76 729.923 256.205 723.713 251.375C717.848 246.544 710.947 244.129 703.012 244.129ZM659.541 445.442C659.541 455.792 663.164 464.245 670.409 470.8C677.999 477.01 688.349 480.115 701.46 480.115C716.64 480.115 727.853 477.182 735.098 471.317C742.343 465.452 745.966 457.517 745.966 447.512C745.966 439.922 743.723 433.021 739.238 426.811C734.753 420.601 729.578 415.253 723.713 410.768C717.848 406.283 712.673 402.833 708.187 400.418L701.46 396.278C690.074 402.143 680.242 409.043 671.962 416.978C663.681 424.914 659.541 434.401 659.541 445.442Z" fill="#81BD1E"/>
<mask id="mask1" mask-type="alpha" maskUnits="userSpaceOnUse" x="567" y="172" width="271" height="381">
<path d="M703.529 172.197C740.1 172.197 769.771 179.614 792.541 194.45C815.312 209.285 826.697 231.883 826.697 262.244C826.697 284.324 820.659 302.61 808.584 317.1C796.854 331.59 781.674 343.321 763.043 352.291C774.773 358.846 786.331 366.609 797.716 375.579C809.102 384.204 818.589 394.554 826.18 406.63C833.77 418.36 837.565 432.333 837.565 448.548C837.565 468.214 832.735 485.982 823.075 501.852C813.414 517.377 798.579 529.625 778.569 538.595C758.903 547.566 733.545 552.051 702.494 552.051C655.573 552.051 621.417 542.563 600.027 523.587C578.636 504.612 567.941 479.944 567.941 449.583C567.941 424.053 574.324 404.215 587.089 390.069C599.854 375.579 615.897 363.504 635.218 353.843C619.692 343.493 606.409 330.9 595.369 316.065C584.329 301.23 578.809 283.117 578.809 261.726C578.809 241.716 584.156 225.155 594.852 212.045C605.547 198.935 620.21 189.102 638.84 182.547C657.816 175.647 679.379 172.197 703.529 172.197ZM703.012 244.131C694.732 244.131 687.486 246.546 681.276 251.376C675.411 256.206 672.479 262.761 672.479 271.042C672.479 278.977 675.239 286.222 680.759 292.777C686.624 298.987 693.697 304.507 701.977 309.337C709.222 305.197 716.122 300.195 722.677 294.33C729.577 288.464 733.027 280.702 733.027 271.042C733.027 262.761 729.922 256.206 723.712 251.376C717.847 246.546 710.947 244.131 703.012 244.131ZM659.541 445.443C659.541 455.793 663.163 464.246 670.408 470.801C677.999 477.011 688.349 480.116 701.459 480.116C716.64 480.116 727.852 477.184 735.097 471.319C742.343 465.454 745.965 457.518 745.965 447.513C745.965 439.923 743.723 433.023 739.238 426.813C734.752 420.603 729.577 415.255 723.712 410.77C717.847 406.285 712.672 402.835 708.187 400.42L701.459 396.279C690.074 402.145 680.241 409.045 671.961 416.98C663.681 424.915 659.541 434.403 659.541 445.443Z" fill="#81BD1E"/>
</mask>
<g mask="url(#mask1)">
<path d="M791.209 230.769C776.037 197.897 722.344 175.091 698.901 167.033L795.605 162.637C816.85 180.952 859.78 218.022 861.539 219.78C863.297 221.538 846.154 301.099 837.363 340.659L771.429 351.648C785.348 324.542 817.583 287.912 791.209 230.769Z" fill="#72AF0D"/>
<path d="M789.011 468.132C813.627 427.692 784.616 373.626 767.033 351.648C787.546 354.579 835.165 364.395 861.539 380.22C894.506 400 890.11 454.945 883.517 483.516C876.923 512.088 841.758 562.637 749.451 571.428C675.605 578.461 632.235 561.172 619.78 551.648C707.692 562.637 758.242 518.681 789.011 468.132Z" fill="#72AF0D"/>
</g>
<ellipse cx="743.568" cy="335.405" rx="31.9432" ry="33.7178" fill="white"/>
<ellipse cx="734.695" cy="331.856" rx="8.87311" ry="8.87312" fill="#161E33"/>
<ellipse cx="667.259" cy="335.405" rx="31.9432" ry="33.7178" fill="white"/>
<ellipse cx="676.131" cy="331.856" rx="8.87311" ry="8.87312" fill="#161E33"/>
<path d="M1025.75 829.044H907.777V616.564C907.777 612.551 907.777 605.328 907.777 594.894C907.777 584.461 907.977 572.823 908.379 559.982C908.78 547.141 909.181 535.705 909.583 525.672C904.366 531.692 899.55 536.908 895.136 541.323C891.123 545.737 886.91 549.75 882.496 553.361L833.74 593.69L773.547 519.653L921.019 399.268H1025.75V829.044Z" fill="#FF9820"/>
<mask id="mask2" mask-type="alpha" maskUnits="userSpaceOnUse" x="773" y="399" width="253" height="431">
<path d="M1025.75 829.042H907.776V616.561C907.776 612.549 907.776 605.326 907.776 594.892C907.776 584.459 907.977 572.821 908.378 559.98C908.779 547.139 909.181 535.703 909.582 525.67C904.365 531.69 899.55 536.906 895.136 541.321C891.123 545.735 886.909 549.748 882.495 553.359L833.739 593.688L773.546 519.651L921.019 399.266H1025.75V829.042Z" fill="#FF9820"/>
</mask>
<g mask="url(#mask2)">
<path d="M982.417 716.483C1026.37 676.923 1028.57 560.439 1026.37 496.703L1043.96 786.813L1028.57 804.395H887.911V736.263C902.563 739.194 938.461 756.043 982.417 716.483Z" fill="#ED8913"/>
</g>
<path d="M926.636 564.796C958.866 572.296 993.183 543.749 1006.31 528.538C1008.83 556.979 1006.4 612.948 976.56 609.293C946.724 605.638 930.846 578.105 926.636 564.796Z" fill="#A65A00"/>
<path d="M959.968 604.057C958.811 580.772 988.584 579.207 1003.62 581.335C1001.9 588.699 996.092 604.243 986.565 607.506C977.038 610.769 964.864 606.566 959.968 604.057Z" fill="#E17A00"/>
<ellipse cx="919.309" cy="456.024" rx="31.9432" ry="33.7178" fill="white"/>
<circle cx="924.632" cy="456.023" r="14.197" fill="#161E33"/>
<path fill-rule="evenodd" clip-rule="evenodd" d="M1038.21 841.497H895.323V594.893C895.323 584.304 895.527 572.535 895.931 559.592C895.946 559.106 895.961 558.621 895.977 558.138C894.158 559.813 892.302 561.426 890.409 562.977C890.4 562.984 890.391 562.991 890.382 562.999L831.999 611.29L756.043 517.864L916.581 386.813H1038.21V841.497ZM882.496 553.36C886.91 549.748 891.123 545.736 895.136 541.321C895.615 540.843 896.098 540.354 896.587 539.857C900.6 535.766 904.932 531.038 909.582 525.671C909.344 531.636 909.105 538.097 908.867 545.055C908.704 549.799 908.541 554.775 908.379 559.981C907.977 572.822 907.777 584.46 907.777 594.893V829.043H1025.75V399.266H921.019L773.547 519.652L833.74 593.689L882.496 553.36Z" fill="#E17A00"/>
<path d="M998.031 351.087L975.618 400.041C975.618 400.041 975.823 406.597 980.218 408.795C984.614 410.992 991.209 408.794 991.209 408.794L1012.31 357.507C1019.73 362.714 1031.24 365.935 1039.55 358.741C1059.76 341.237 1020.86 303.587 991.844 317.085C968.632 327.884 982.827 345.841 998.031 351.087Z" fill="#FF9820"/>
<path d="M548.142 862.947C548.142 839.598 549.864 816.25 553.309 792.901C556.754 769.552 562.878 747.543 571.682 726.874C580.485 706.205 592.925 688.024 609.001 672.33C625.078 656.254 645.556 643.623 670.435 634.436C695.698 625.25 726.51 620.657 762.873 620.657C770.911 620.657 780.671 621.231 792.154 622.379C804.02 623.145 813.781 624.102 821.436 625.25V711.946C813.781 710.415 805.168 709.267 795.599 708.501C786.03 707.353 774.356 706.779 760.576 706.779C733.017 706.779 711.2 710.989 695.124 719.41C679.047 727.448 667.373 739.314 660.101 755.007C653.211 770.318 649.192 788.882 648.043 810.7H651.488C658.761 797.303 668.521 786.011 680.77 776.825C693.401 767.639 710.626 763.045 732.443 763.045C768.423 763.045 796.556 774.72 816.843 798.068C837.129 821.034 847.273 853.761 847.273 896.248C847.273 942.179 834.259 977.968 808.231 1003.61C782.585 1029.26 747.371 1042.08 702.587 1042.08C673.497 1042.08 647.278 1035.77 623.929 1023.13C600.581 1010.12 582.017 990.408 568.237 963.997C554.84 937.586 548.142 903.903 548.142 862.947ZM700.291 954.237C712.157 954.237 721.726 949.835 728.998 941.031C736.271 931.845 739.907 917.682 739.907 898.544C739.907 882.851 736.845 870.602 730.721 861.799C724.596 852.995 714.836 848.593 701.439 848.593C687.66 848.593 676.942 853.187 669.287 862.373C662.014 871.559 658.378 881.703 658.378 892.803C658.378 902.372 659.718 911.941 662.397 921.51C665.459 931.079 670.052 938.926 676.177 945.05C682.684 951.174 690.722 954.237 700.291 954.237Z" fill="#F15555"/>
<mask id="mask3" mask-type="alpha" maskUnits="userSpaceOnUse" x="548" y="620" width="300" height="423">
<path d="M548.143 862.949C548.143 839.6 549.865 816.251 553.31 792.903C556.755 769.554 562.879 747.545 571.683 726.876C580.486 706.206 592.926 688.025 609.002 672.332C625.078 656.256 645.556 643.624 670.436 634.438C695.699 625.252 726.511 620.658 762.874 620.658C770.912 620.658 780.672 621.233 792.155 622.381C804.021 623.146 813.781 624.103 821.437 625.252V711.948C813.781 710.417 805.169 709.269 795.6 708.503C786.031 707.355 774.357 706.781 760.577 706.781C733.018 706.781 711.201 710.991 695.124 719.412C679.048 727.45 667.374 739.316 660.101 755.009C653.212 770.319 649.193 788.884 648.044 810.701H651.489C658.762 797.304 668.522 786.013 680.771 776.827C693.402 767.64 710.626 763.047 732.444 763.047C768.424 763.047 796.557 774.721 816.844 798.07C837.13 821.036 847.273 853.762 847.273 896.249C847.273 942.181 834.259 977.969 808.231 1003.61C782.586 1029.26 747.372 1042.08 702.588 1042.08C673.498 1042.08 647.279 1035.77 623.93 1023.14C600.581 1010.12 582.017 990.409 568.238 963.998C554.841 937.588 548.143 903.904 548.143 862.949ZM700.292 954.238C712.157 954.238 721.727 949.836 728.999 941.033C736.272 931.846 739.908 917.684 739.908 898.546C739.908 882.852 736.846 870.604 730.722 861.8C724.597 852.997 714.837 848.595 701.44 848.595C687.66 848.595 676.943 853.188 669.288 862.374C662.015 871.561 658.379 881.704 658.379 892.804C658.379 902.373 659.719 911.942 662.398 921.512C665.46 931.081 670.053 938.927 676.178 945.052C682.685 951.176 690.723 954.238 700.292 954.238Z" fill="#F15555"/>
</mask>
<g mask="url(#mask3)">
<path d="M654.944 771.427C656.703 699.339 775.824 672.526 835.164 668.13L852.747 729.669C844.688 734.064 816.703 741.976 769.23 738.46C721.758 734.943 673.259 758.973 654.944 771.427Z" fill="#E84141"/>
<path d="M810.988 882.032C814.505 809.944 777.289 755.292 758.241 736.977C775.823 734.779 821.098 731.702 861.538 736.977C912.087 743.57 903.296 807.306 907.692 890.823C912.087 974.339 852.747 1077.64 723.076 1073.24C619.34 1069.72 590.475 1019.03 589.01 994.119C753.845 1031.48 806.593 972.141 810.988 882.032Z" fill="#E84141"/>
</g>
<path d="M582.25 731.561C592.134 744.755 626.173 756.426 649.786 751.662C641.625 763.313 620.999 778.468 604.434 773.537C590.081 769.264 579.587 737.985 582.25 731.561Z" fill="#B90000"/>
<path d="M592.952 763.183C606.437 757.488 618.674 766.019 623.723 771.65C620.708 773.909 608.325 775.375 603.646 773.564C598.967 771.754 594.014 765.709 592.952 763.183Z" fill="#D63434"/>
<path fill-rule="evenodd" clip-rule="evenodd" d="M809.557 709.978C805.156 709.385 800.503 708.892 795.599 708.5C786.03 707.352 774.356 706.778 760.576 706.778C733.017 706.778 711.2 710.988 695.124 719.409C679.048 727.447 667.373 739.313 660.101 755.006C655.386 765.483 652.016 777.483 649.99 791.007C649.608 793.557 649.273 796.161 648.987 798.819C648.634 802.092 648.354 805.447 648.146 808.884C648.11 809.486 648.076 810.091 648.044 810.698H651.488C654.373 805.384 657.65 800.401 661.317 795.75C666.896 788.675 673.38 782.366 680.77 776.823C693.401 767.637 710.626 763.044 732.443 763.044C768.423 763.044 796.556 774.718 816.843 798.067C837.129 821.033 847.273 853.759 847.273 896.246C847.273 942.178 834.259 977.966 808.231 1003.61C782.585 1029.26 747.371 1042.08 702.588 1042.08C673.497 1042.08 647.278 1035.76 623.929 1023.13C600.581 1010.12 582.017 990.406 568.237 963.995C554.84 937.585 548.142 903.901 548.142 862.946C548.142 839.597 549.864 816.248 553.309 792.9C556.754 769.551 562.878 747.542 571.682 726.873C580.486 706.203 592.925 688.022 609.002 672.329C625.078 656.253 645.556 643.621 670.435 634.435C695.698 625.249 726.51 620.655 762.873 620.655C770.911 620.655 780.672 621.23 792.155 622.378C804.02 623.143 813.781 624.1 821.436 625.249V711.945C817.704 711.198 813.744 710.543 809.557 709.978ZM793.128 610.537C781.493 609.379 771.384 608.777 762.873 608.777C725.582 608.777 693.309 613.478 666.376 623.271L666.348 623.281L666.321 623.291C640.123 632.964 618.12 646.428 600.653 663.878C583.479 680.656 570.162 700.127 560.753 722.218C551.532 743.868 545.143 766.863 541.558 791.166C538.029 815.082 536.263 839.01 536.263 862.946C536.263 905.093 543.141 940.78 557.643 969.369L557.674 969.43L557.705 969.49C572.43 997.713 592.545 1019.24 618.146 1033.51L618.211 1033.55L618.277 1033.58C643.524 1047.24 671.717 1053.96 702.588 1053.96C749.72 1053.96 788.229 1040.39 816.599 1012.04C845.421 983.626 859.152 944.478 859.152 896.246C859.152 852.004 848.591 816.088 825.779 790.24C802.861 763.884 771.224 751.165 732.443 751.165C709.085 751.165 689.109 756.07 673.783 767.217L673.713 767.268L673.643 767.32C670.948 769.341 668.36 771.456 665.879 773.664C667.322 768.754 669.001 764.183 670.906 759.941C677.002 746.82 686.686 736.909 700.436 730.034L700.536 729.983L700.636 729.931C714.355 722.745 734.027 718.656 760.576 718.656C774.066 718.656 785.237 719.221 794.184 720.294L794.418 720.322L794.652 720.341C803.858 721.078 811.997 722.171 819.106 723.593L833.315 726.435V615.019L823.198 613.501C815.134 612.291 805.079 611.312 793.128 610.537ZM728.998 941.03C736.271 931.843 739.907 917.681 739.907 898.543C739.907 882.849 736.845 870.601 730.721 861.797C724.597 852.994 714.836 848.592 701.439 848.592C687.66 848.592 676.942 853.185 669.287 862.371C662.015 871.558 658.378 881.701 658.378 892.801C658.378 902.37 659.718 911.939 662.397 921.509C665.459 931.078 670.053 938.924 676.177 945.049C682.684 951.173 690.722 954.235 700.291 954.235C712.157 954.235 721.726 949.833 728.998 941.03ZM684.445 936.517C688.56 940.335 693.582 942.356 700.291 942.356C708.727 942.356 714.857 939.447 719.76 933.561C724.568 927.42 728.028 916.478 728.028 898.543C728.028 884.205 725.203 874.666 720.969 868.581C717.623 863.77 712.038 860.471 701.439 860.471C690.652 860.471 683.541 863.885 678.505 869.865C672.861 877.042 670.257 884.579 670.257 892.801C670.257 901.177 671.418 909.598 673.777 918.092C676.327 925.971 679.958 931.984 684.445 936.517Z" fill="#D63535"/>
<ellipse cx="736.283" cy="621.104" rx="39.929" ry="47.0275" transform="rotate(-21.7267 736.283 621.104)" fill="white"/>
<ellipse rx="8.87315" ry="8.87313" transform="matrix(0.928961 -0.370178 0.37018 0.92896 728.801 614.982)" fill="#161E33"/>
<ellipse cx="645.776" cy="653.05" rx="39.929" ry="47.0275" transform="rotate(-21.7267 645.776 653.05)" fill="white"/>
<ellipse rx="8.87315" ry="8.87313" transform="matrix(0.928961 -0.370178 0.37018 0.92896 650.717 645.15)" fill="#161E33"/>
<path fill-rule="evenodd" clip-rule="evenodd" d="M1444.81 712.706H1108.58V618.823L1216.66 509.492C1238.22 486.738 1254.9 468.659 1266.77 455.215L1266.83 455.139L1266.9 455.064C1279.02 441.774 1286.76 431.138 1290.82 423.018C1294.79 415.071 1296.72 406.951 1296.72 398.526C1296.72 388.604 1293.66 383.908 1289.63 381.224L1289.51 381.145L1289.4 381.064C1283.77 377.125 1276.73 374.897 1267.68 374.897C1256.47 374.897 1244.91 378.007 1232.87 384.738C1220.24 391.794 1205.32 402.637 1188.05 417.555L1178.59 425.725L1098.9 332.507L1107.85 324.394C1121.03 312.456 1135.01 301.148 1149.8 290.468L1149.86 290.42L1149.93 290.374C1165.87 279.175 1184.2 270.255 1204.8 263.517C1226.11 256.142 1251.59 252.649 1280.9 252.649C1311.57 252.649 1338.75 258.106 1362.03 269.507C1385.02 280.369 1403.26 295.58 1416.26 315.262C1429.72 335.05 1436.39 357.526 1436.39 382.297C1436.39 408.682 1431.5 432.75 1421.42 454.25C1411.91 474.971 1397.43 495.484 1378.33 515.828C1360.01 535.372 1337.12 557.646 1309.72 582.631L1309.7 582.649L1299.06 592.261H1444.81V712.706ZM1270.08 604.698V601.692L1301.34 573.441C1328.59 548.596 1351.23 526.557 1369.26 507.322C1387.69 487.687 1401.32 468.252 1410.13 449.017C1419.35 429.382 1423.96 407.141 1423.96 382.297C1423.96 359.856 1417.95 339.82 1405.93 322.188C1394.31 304.557 1377.88 290.732 1356.64 280.714C1335.4 270.295 1310.15 265.085 1280.9 265.085C1252.45 265.085 1228.41 268.492 1208.77 275.304C1189.14 281.715 1171.9 290.131 1157.08 300.549C1142.65 310.968 1129.03 321.988 1116.2 333.609L1179.92 408.143C1181.22 407.015 1182.52 405.908 1183.8 404.822C1199.85 391.245 1214.19 380.931 1226.8 373.881C1240.43 366.268 1254.05 362.461 1267.68 362.461C1278.9 362.461 1288.51 365.266 1296.53 370.876C1304.94 376.486 1309.15 385.703 1309.15 398.526C1309.15 408.945 1306.75 418.963 1301.94 428.58C1297.13 438.197 1288.51 449.818 1276.09 463.443C1264.07 477.067 1247.24 495.3 1225.6 518.142L1121.01 623.932V700.27H1432.37V604.698H1270.08Z" fill="#643EFF"/>
<path d="M1432.38 700.275H1121.01V623.937L1225.6 518.146C1247.24 495.305 1264.07 477.072 1276.09 463.448C1288.52 449.823 1297.13 438.202 1301.94 428.585C1306.75 418.968 1309.15 408.95 1309.15 398.531C1309.15 385.708 1304.95 376.491 1296.53 370.881C1288.52 365.271 1278.9 362.466 1267.68 362.466C1254.05 362.466 1240.43 366.273 1226.81 373.886C1213.18 381.5 1197.55 392.921 1179.92 408.148L1116.21 333.614C1129.03 321.993 1142.65 310.973 1157.08 300.554C1171.91 290.135 1189.14 281.72 1208.77 275.309C1228.41 268.496 1252.45 265.09 1280.9 265.09C1310.16 265.09 1335.4 270.3 1356.64 280.718C1377.88 290.736 1394.31 304.561 1405.93 322.193C1417.95 339.825 1423.96 359.861 1423.96 382.301C1423.96 407.146 1419.35 429.386 1410.14 449.022C1401.32 468.256 1387.7 487.691 1369.26 507.327C1351.23 526.562 1328.59 548.601 1301.34 573.446L1270.08 601.697V604.702H1432.38V700.275Z" fill="#8465FF"/>
<mask id="mask4" mask-type="alpha" maskUnits="userSpaceOnUse" x="1116" y="263" width="317" height="436">
<path d="M1432.65 698.921H1121.29V622.584L1225.88 516.793C1247.52 493.952 1264.35 475.719 1276.37 462.094C1288.79 448.47 1297.41 436.849 1302.22 427.232C1307.03 417.614 1309.43 407.596 1309.43 397.177C1309.43 384.354 1305.22 375.138 1296.81 369.528C1288.79 363.917 1279.18 361.112 1267.96 361.112C1254.33 361.112 1240.71 364.919 1227.08 372.533C1213.46 380.147 1197.83 391.567 1180.2 406.795L1116.48 332.26C1129.31 320.639 1142.93 309.62 1157.36 299.201C1172.18 288.782 1189.41 280.367 1209.05 273.955C1228.69 267.143 1252.73 263.737 1281.18 263.737C1310.43 263.737 1335.68 268.946 1356.92 279.365C1378.15 289.383 1394.58 303.208 1406.21 320.84C1418.23 338.472 1424.24 358.508 1424.24 380.948C1424.24 405.793 1419.63 428.033 1410.41 447.668C1401.6 466.903 1387.97 486.338 1369.54 505.974C1351.51 525.208 1328.87 547.248 1301.62 572.093L1270.36 600.344V603.349H1432.65V698.921Z" fill="#8465FF"/>
</mask>
<g mask="url(#mask4)">
<path d="M1274.73 599.999C1188.6 625.205 1136.26 678.689 1129.67 707.993L1450.55 707.993V595.606C1426.37 580.954 1364.83 573.628 1274.73 599.999Z" fill="#6E4CF4"/>
<path d="M1402.2 393.407C1400.66 345.829 1374.36 293.041 1362.64 276.924L1413.19 287.913L1461.54 334.067L1435.16 463.737L1373.63 575.825L1274.73 600.001C1318.68 547.986 1404.4 461.539 1402.2 393.407Z" fill="#6E4CF4"/>
</g>
<path d="M1326.94 404.379C1348.94 404.379 1366.87 380.718 1373.08 368.887C1378.99 386.929 1385.86 423.545 1365.98 425.675C1346.1 427.804 1331.67 412.365 1326.94 404.379Z" fill="#4223BC"/>
<path d="M1354.44 424.787C1350.19 409.88 1369.23 404.379 1379.29 403.491C1379.29 408.519 1377.87 419.463 1372.19 423.012C1366.51 426.561 1357.99 425.674 1354.44 424.787Z" fill="#684AE0"/>
<ellipse cx="1172.64" cy="307.325" rx="40.8163" ry="43.0839" transform="rotate(-18.6443 1172.64 307.325)" fill="white"/>
<ellipse rx="18.1405" ry="18.1406" transform="matrix(0.947521 -0.319693 0.319691 0.947522 1186.46 308.175)" fill="#161E33"/>
<ellipse rx="40.8163" ry="43.0839" transform="matrix(-0.947522 0.319692 0.319692 0.947522 1291.73 287.809)" fill="white"/>
<ellipse rx="18.1406" ry="18.1406" transform="matrix(-0.947522 0.319691 0.319692 0.947521 1288.74 294.335)" fill="#161E33"/>
<path fill-rule="evenodd" clip-rule="evenodd" d="M1460.43 807.192L1587.59 519.661H1432.97V415.143H1721.73V487.204L1587.87 807.192H1460.43ZM1604.08 508.923L1476.92 796.454H1580.72L1711 485.048V425.881H1443.7V508.923H1604.08Z" fill="#DEB41D"/>
<path d="M1718.68 443.31C1725.73 425.241 1746.6 391.241 1773.63 399.794C1800.66 408.348 1748.26 432.369 1718.68 443.31Z" fill="#DEB31D"/>
<path d="M1718.68 444.836C1733.39 437.726 1765.75 428.698 1777.53 449.469C1789.31 470.241 1743.21 455.035 1718.68 444.836Z" fill="#DEB31D"/>
<path d="M1718.46 448.349C1734.16 452.874 1764.29 467.757 1759.19 491.087C1754.1 514.417 1729.92 472.316 1718.46 448.349Z" fill="#DEB31D"/>
<path d="M1476.92 796.453L1604.08 508.922H1443.71V425.88H1711V485.047L1580.73 796.453H1476.92Z" fill="#F1CF55"/>
<path d="M1546.1 669.224C1562.45 690.894 1599.07 690.959 1615.34 688.282C1601.97 707.517 1571.01 741.489 1554.14 723.499C1537.27 705.508 1541.75 679.819 1546.1 669.224Z" fill="#A37E00"/>
<path d="M1546.44 711.481C1557.96 696.208 1577.53 710.877 1585.88 720.12C1580.93 723.857 1569.1 730.593 1561.38 727.638C1553.66 724.684 1548.21 715.636 1546.44 711.481Z" fill="#DEB31D"/>
<ellipse rx="49.2634" ry="58.0214" transform="matrix(-0.864249 0.503065 0.503065 0.864248 1641 434.985)" fill="white"/>
<path d="M1588.48 426.958C1618.18 404.886 1666.02 414.655 1689.19 423.364C1690.54 423.87 1692.01 423.001 1692.05 421.564C1692.6 400.09 1670.49 368.864 1634.52 371.622C1599.34 374.319 1583.71 407.418 1585.15 425.652C1585.28 427.282 1587.17 427.933 1588.48 426.958Z" fill="#FBD963"/>
<circle r="10.9474" transform="matrix(-0.864249 0.503065 0.503065 0.864249 1631.31 429.221)" fill="#161E33"/>
<ellipse cx="1522.13" cy="434.985" rx="49.2634" ry="58.0214" transform="rotate(30.203 1522.13 434.985)" fill="white"/>
<path d="M1574.64 426.958C1544.94 404.886 1497.1 414.655 1473.93 423.364C1472.59 423.87 1471.12 423.001 1471.08 421.564C1470.52 400.09 1492.64 368.864 1528.61 371.622C1563.79 374.319 1579.42 407.418 1577.98 425.652C1577.85 427.282 1575.95 427.933 1574.64 426.958Z" fill="#FBD963"/>
<circle cx="1531.81" cy="429.221" r="10.9474" transform="rotate(30.203 1531.81 429.221)" fill="#161E33"/>
<path d="M1746.31 1032.36H1705.65V1103.38H1607.87V1032.36H1461.2V959.277L1614.05 735.923H1705.65V958.248H1746.31V1032.36ZM1607.87 958.248V915.533C1607.87 910.386 1608.04 903.696 1608.38 895.462C1608.73 886.884 1609.07 879.165 1609.41 872.303C1609.76 865.441 1609.93 861.838 1609.93 861.495H1607.36C1603.92 869.043 1600.84 875.219 1598.09 880.022C1595.69 884.826 1592.26 890.658 1587.8 897.52L1547.14 958.248H1607.87Z" fill="#B853E8"/>
<mask id="mask5" mask-type="alpha" maskUnits="userSpaceOnUse" x="1463" y="734" width="286" height="368">
<path d="M1748.85 1030.5H1708.19V1101.52H1610.41V1030.5H1463.74V957.421L1616.58 734.067H1708.19V956.392H1748.85V1030.5ZM1610.41 956.392V913.676C1610.41 908.53 1610.58 901.84 1610.92 893.605C1611.27 885.028 1611.61 877.308 1611.95 870.447C1612.3 863.585 1612.47 859.982 1612.47 859.639H1609.89C1606.46 867.187 1603.38 873.363 1600.63 878.166C1598.23 882.97 1594.8 888.802 1590.34 895.664L1549.68 956.392H1610.41Z" fill="#B853E8"/>
</mask>
<g mask="url(#mask5)">
<path d="M1775.82 907.794C1687.91 904.278 1602.93 1005.96 1571.43 1057.24L1441.76 1077.03C1527.91 897.685 1700.37 889.479 1775.82 907.794Z" fill="#D353E8"/>
<path d="M1736.66 871.804C1657.8 832.798 1538.78 891.071 1489.13 925.084L1362.64 890.354C1514.35 761.631 1675.2 824.353 1736.66 871.804Z" fill="#D353E8"/>
<path d="M1744.47 814.554C1671.91 764.807 1545.85 805.697 1491.9 832.361L1371.57 780.125C1539.93 674.104 1690.32 758.902 1744.47 814.554Z" fill="#D353E8"/>
<g style="mix-blend-mode:multiply">
<path d="M1654.95 1035.17C1679.56 1015.83 1698.9 931.869 1705.49 892.309L1806.59 982.418L1789.01 1127.47L1573.63 1134.07V1065.93C1590.48 1063.74 1630.33 1054.51 1654.95 1035.17Z" fill="#AC43DE" fill-opacity="0.4"/>
</g>
<g style="mix-blend-mode:multiply">
<path d="M1534.07 925.276C1534.07 890.111 1525.27 862.272 1520.88 852.748L1485.71 892.309L1454.95 1048.35C1516.48 1057.14 1534.07 969.232 1534.07 925.276Z" fill="#AC43DE" fill-opacity="0.4"/>
</g>
</g>
<path fill-rule="evenodd" clip-rule="evenodd" d="M1756.96 1043H1716.3V1114.02H1597.22V1043H1450.55V955.983L1608.43 725.276H1716.3V947.6H1756.96V1043ZM1705.65 958.248V735.923H1614.05L1461.2 959.277V1032.36H1607.87V1103.38H1705.65V1032.36H1746.31V958.248H1705.65ZM1596.69 903.384L1567.08 947.6H1597.22V915.533C1597.22 911.799 1597.31 907.337 1597.48 902.162C1597.23 902.546 1596.98 902.934 1596.73 903.323L1596.69 903.384ZM1608.38 895.462C1608.04 903.696 1607.87 910.387 1607.87 915.533V958.248H1547.14L1587.8 897.521C1592.26 890.659 1595.69 884.826 1598.09 880.023C1598.2 879.837 1598.3 879.65 1598.41 879.46C1599.67 877.238 1600.99 874.736 1602.38 871.952C1603.95 868.822 1605.61 865.336 1607.36 861.496H1609.93C1609.93 861.597 1609.91 861.98 1609.88 862.645C1609.81 864.223 1609.66 867.389 1609.42 872.143C1609.42 872.196 1609.42 872.25 1609.41 872.303C1609.25 875.493 1609.1 878.869 1608.94 882.43C1608.75 886.529 1608.57 890.873 1608.38 895.462Z" fill="#9415CF"/>
<path d="M1636.62 867.18C1657.48 874.17 1681.99 857.428 1691.64 848.183C1691.52 867.17 1686.39 904.069 1666.87 899.775C1647.35 895.48 1638.57 876.255 1636.62 867.18Z" fill="#7500AC"/>
<path d="M1656.21 895.268C1656.91 879.78 1676.72 880.614 1686.54 882.968C1684.94 887.735 1680.12 897.661 1673.61 899.222C1667.09 900.784 1659.3 897.237 1656.21 895.268Z" fill="#9315CF"/>
<ellipse cx="1646.65" cy="795.371" rx="39.9291" ry="47.0275" fill="white"/>
<ellipse cx="1647.54" cy="785.609" rx="8.87311" ry="8.87314" fill="#161E33"/>
<path d="M1498.14 876.227C1498.14 936.473 1489.13 988.654 1471.1 1032.77C1453.07 1076.41 1424.61 1110.09 1385.71 1133.81C1346.81 1157.06 1295.82 1168.68 1232.73 1168.68C1222.29 1168.68 1210.2 1168.44 1196.44 1167.97C1182.68 1167.49 1171.06 1166.54 1161.57 1165.12V1056.25C1171.53 1058.15 1181.5 1059.57 1191.46 1060.52C1201.42 1061.47 1213.04 1061.94 1226.32 1061.94C1264.75 1061.94 1294.4 1056.49 1315.27 1045.58C1336.14 1034.67 1350.85 1019.49 1359.39 1000.04C1367.92 980.589 1372.91 958.294 1374.33 933.152H1370.06C1361.05 950.229 1348.95 964.461 1333.77 975.845C1318.59 986.756 1296.53 992.211 1267.59 992.211C1224.9 992.211 1190.75 977.98 1165.13 949.518C1139.99 920.581 1127.42 879.548 1127.42 826.418C1127.42 769.968 1143.31 725.851 1175.09 694.068C1207.35 662.285 1251.47 646.394 1307.44 646.394C1343.02 646.394 1375.04 654.458 1403.5 670.587C1432.44 686.716 1455.45 711.62 1472.52 745.301C1489.6 778.981 1498.14 822.623 1498.14 876.227ZM1311 755.974C1294.87 755.974 1282.3 761.429 1273.29 772.34C1264.75 783.25 1260.48 800.802 1260.48 824.995C1260.48 843.97 1264.51 859.15 1272.58 870.535C1281.11 881.445 1293.45 886.901 1309.58 886.901C1324.76 886.901 1337.09 880.971 1346.58 869.112C1356.54 857.252 1361.52 844.682 1361.52 831.399C1361.52 819.065 1359.62 807.206 1355.83 795.821C1352.51 784.436 1347.05 774.949 1339.46 767.359C1332.35 759.769 1322.86 755.974 1311 755.974Z" fill="#37C6A3"/>
<mask id="mask6" mask-type="alpha" maskUnits="userSpaceOnUse" x="1125" y="646" width="371" height="523">
<path d="M1495.99 876.227C1495.99 936.473 1486.98 988.654 1468.96 1032.77C1450.93 1076.41 1422.47 1110.09 1383.57 1133.81C1344.67 1157.06 1293.68 1168.68 1230.58 1168.68C1220.15 1168.68 1208.05 1168.44 1194.29 1167.97C1180.54 1167.49 1168.92 1166.54 1159.43 1165.12V1056.25C1169.39 1058.15 1179.35 1059.57 1189.31 1060.52C1199.28 1061.47 1210.9 1061.94 1224.18 1061.94C1262.6 1061.94 1292.25 1056.49 1313.12 1045.58C1334 1034.67 1348.7 1019.49 1357.24 1000.04C1365.78 980.589 1370.76 958.294 1372.18 933.152H1367.91C1358.9 950.23 1346.8 964.461 1331.62 975.846C1316.45 986.756 1294.39 992.211 1265.45 992.211C1222.76 992.211 1188.6 977.98 1162.99 949.518C1137.84 920.581 1125.27 879.548 1125.27 826.418C1125.27 769.968 1141.16 725.851 1172.95 694.069C1205.2 662.286 1249.32 646.394 1305.3 646.394C1340.88 646.394 1372.9 654.458 1401.36 670.587C1430.29 686.716 1453.3 711.62 1470.38 745.301C1487.46 778.981 1495.99 822.623 1495.99 876.227ZM1308.86 755.974C1292.73 755.974 1280.16 761.429 1271.14 772.34C1262.6 783.25 1258.33 800.802 1258.33 824.995C1258.33 843.97 1262.37 859.15 1270.43 870.535C1278.97 881.446 1291.3 886.901 1307.43 886.901C1322.61 886.901 1334.95 880.971 1344.43 869.112C1354.39 857.253 1359.38 844.682 1359.38 831.399C1359.38 819.066 1357.48 807.206 1353.68 795.821C1350.36 784.436 1344.91 774.949 1337.32 767.359C1330.2 759.769 1320.71 755.974 1308.86 755.974Z" fill="#37C6A3"/>
</mask>
<g mask="url(#mask6)">
<path d="M1395.6 1076.92C1476.48 1001.32 1493.77 852.015 1492.31 786.813C1507.69 838.828 1538.46 944.176 1538.46 949.45C1538.46 956.044 1518.68 1076.92 1479.12 1125.27C1439.56 1173.63 1375.82 1191.21 1309.89 1191.21C1257.14 1191.21 1205.86 1179.49 1186.81 1173.63C1222.71 1172.89 1314.72 1152.53 1395.6 1076.92Z" fill="#17B68F"/>
</g>
<path d="M1227.61 868.104C1252 905.812 1312.42 910.289 1339.58 907.815C1315.23 937.956 1260.09 990.314 1234.4 958.617C1208.72 926.92 1219.17 885.068 1227.61 868.104Z" fill="#017E60"/>
<path d="M1223.13 937.86C1243.95 914.033 1274.5 940.573 1287.17 956.821C1278.56 962.396 1258.23 972.097 1245.85 966.301C1233.47 960.505 1225.55 944.925 1223.13 937.86Z" fill="#01A87F"/>
<path fill-rule="evenodd" clip-rule="evenodd" d="M1484.69 1038.46L1484.68 1038.48C1465.51 1084.9 1435.02 1121.07 1393.35 1146.47L1393.3 1146.51L1393.24 1146.54C1351.33 1171.58 1297.46 1183.49 1232.7 1183.49C1222.06 1183.49 1209.78 1183.25 1195.91 1182.77C1181.81 1182.29 1169.59 1181.31 1159.37 1179.77L1146.83 1177.89V1038.55L1164.3 1041.88C1173.82 1043.7 1183.33 1045.05 1192.83 1045.96C1202.21 1046.85 1213.34 1047.32 1226.3 1047.32C1263.68 1047.32 1290.59 1041.95 1308.43 1032.62C1326.67 1023.08 1338.84 1010.26 1345.88 994.213C1347.75 989.963 1349.44 985.54 1350.94 980.942C1348.25 983.292 1345.47 985.551 1342.58 987.716L1342.46 987.806L1342.34 987.893C1323.62 1001.35 1298.01 1007.03 1267.57 1007.03C1221.24 1007.03 1182.91 991.4 1154.16 959.459L1154.08 959.364L1153.99 959.266C1125.76 926.774 1112.67 881.822 1112.67 826.511C1112.67 767.21 1129.45 718.96 1164.66 683.751L1164.7 683.713L1164.74 683.675C1200.37 648.568 1248.54 631.765 1307.42 631.765C1345.29 631.765 1379.84 640.372 1410.69 657.846C1442.51 675.596 1467.43 702.835 1485.63 738.736C1504.1 775.16 1512.84 821.311 1512.84 876.32C1512.84 937.99 1503.62 992.148 1484.71 1038.43L1484.69 1038.46ZM1403.48 670.68C1375.02 654.551 1343 646.487 1307.42 646.487C1251.44 646.487 1207.33 662.378 1175.07 694.161C1143.29 725.944 1127.39 770.061 1127.39 826.511C1127.39 879.641 1139.97 920.674 1165.11 949.611C1190.72 978.073 1224.88 992.304 1267.57 992.304C1296.51 992.304 1318.57 986.849 1333.75 975.938C1342.77 969.17 1350.71 961.395 1357.55 952.615C1362.22 946.626 1366.38 940.17 1370.04 933.245H1374.3C1374.26 933.975 1374.22 934.703 1374.17 935.428C1373.89 939.691 1373.51 943.87 1373.03 947.967C1372.6 951.565 1372.09 955.099 1371.51 958.569C1368.96 973.627 1364.92 987.481 1359.36 1000.13C1350.82 1019.58 1336.12 1034.76 1315.25 1045.67C1294.37 1056.58 1264.72 1062.04 1226.3 1062.04C1213.02 1062.04 1201.4 1061.56 1191.43 1060.61C1186.38 1060.13 1181.33 1059.53 1176.27 1058.8C1171.36 1058.1 1166.46 1057.28 1161.55 1056.34V1165.21C1171.04 1166.64 1182.66 1167.58 1196.42 1168.06C1210.17 1168.53 1222.27 1168.77 1232.7 1168.77C1295.8 1168.77 1346.79 1157.15 1385.69 1133.9C1424.59 1110.19 1453.05 1076.51 1471.08 1032.86C1489.1 988.747 1498.12 936.566 1498.12 876.32C1498.12 822.716 1489.58 779.074 1472.5 745.393C1455.42 711.713 1432.42 686.809 1403.48 670.68ZM1335.17 859.87L1335.28 859.736C1343.4 850.065 1346.78 840.75 1346.78 831.492C1346.78 820.696 1345.12 810.412 1341.84 800.57L1341.75 800.305L1341.67 800.036C1338.97 790.772 1334.69 783.524 1329.03 777.862L1328.86 777.694L1328.7 777.521C1324.77 773.327 1319.39 770.789 1310.98 770.789C1298.64 770.789 1290.54 774.723 1284.74 781.655C1279.32 788.698 1275.18 802.147 1275.18 825.088C1275.18 841.887 1278.71 853.69 1284.36 861.825C1289.62 868.395 1297.28 872.272 1309.55 872.272C1320.26 872.272 1328.36 868.377 1335.06 860.008L1335.17 859.87ZM1273.26 772.433C1282.28 761.522 1294.85 756.067 1310.98 756.067C1322.84 756.067 1332.32 759.862 1339.44 767.452C1347.03 775.042 1352.48 784.529 1355.8 795.914C1359.6 807.299 1361.5 819.158 1361.5 831.492C1361.5 844.775 1356.52 857.345 1346.55 869.205C1337.07 881.064 1324.73 886.994 1309.55 886.994C1293.42 886.994 1281.09 881.538 1272.55 870.628C1264.49 859.243 1260.46 844.063 1260.46 825.088C1260.46 800.895 1264.72 783.343 1273.26 772.433Z" fill="#01A87F"/>
<path fill-rule="evenodd" clip-rule="evenodd" d="M1156.08 985.555L1156.03 985.629C1144.73 1004.12 1129.82 1019.52 1111.46 1031.76L1111.42 1031.79L1111.38 1031.81C1106.28 1035.17 1101.02 1038.28 1095.59 1041.16C1117.24 1048.01 1135.69 1058.05 1150.56 1071.59C1176.04 1093.88 1188 1125.27 1188 1163.56C1188 1193.19 1179.79 1220.66 1163.5 1245.63C1147.29 1271.21 1122.34 1290.89 1089.87 1305.17C1057.29 1319.69 1015.98 1326.54 966.686 1326.54C934.111 1326.54 905.778 1324.18 881.867 1319.3L881.73 1319.28L881.593 1319.24C858.208 1314 835.518 1307.07 813.531 1298.47L804.399 1294.89V1150.5L825.301 1161.18C846.072 1171.78 867.207 1179.71 888.717 1184.99C910.564 1189.88 930.045 1192.24 947.241 1192.24C963.089 1192.24 975.807 1191.12 985.631 1189.07C995.6 1187 1001.6 1184.17 1004.93 1181.5L1005.04 1181.42L1005.15 1181.34C1013.5 1174.91 1017.6 1166.69 1017.6 1155.22C1017.6 1146.86 1015.39 1140.54 1011.52 1135.48L1011.24 1135.11L1010.98 1134.72C1008.2 1130.54 1001.68 1125.62 987.906 1121.86L987.851 1121.85L987.796 1121.83C974.905 1118.21 954.723 1116.12 926.408 1116.12H881.483V986.686H927.102C964.815 986.686 987.392 981.674 998.387 974.458L998.471 974.403L998.556 974.349C1010.58 966.695 1014.82 958.362 1014.82 948.97C1014.82 939.805 1011.75 935.215 1006.6 932.173L1006.4 932.052L1006.2 931.925C999.035 927.368 988.567 924.448 973.631 924.448C960.206 924.448 947.549 926.33 935.594 930.032C923.266 933.998 912.736 938.323 903.907 942.947L903.665 943.074L903.418 943.192C893.884 947.732 887.09 951.374 882.732 954.147L870.468 961.951L799.999 848.32L811.367 840.569C832.835 825.932 857.292 813.615 884.634 803.541L884.672 803.527L884.71 803.514C913.714 793.012 950.5 788.072 994.464 788.072C1047.09 788.072 1090.38 798.567 1122.79 821.185C1156.25 844.207 1173.42 876.613 1173.42 917.025C1173.42 942.74 1167.85 965.749 1156.12 985.48L1156.08 985.555ZM931.269 916.33C944.695 912.164 958.816 910.08 973.631 910.08C990.298 910.08 1003.72 913.321 1013.91 919.803C1024.09 925.821 1029.19 935.544 1029.19 948.97C1029.19 964.248 1021.55 976.748 1006.27 986.471C991.455 996.193 965.066 1001.05 927.102 1001.05H895.852V1101.75H926.408C955.112 1101.75 976.871 1103.83 991.686 1108C1006.96 1112.17 1017.38 1118.42 1022.94 1126.75C1028.96 1134.62 1031.96 1144.11 1031.96 1155.22C1031.96 1170.96 1025.95 1183.46 1013.91 1192.72C1002.33 1201.98 980.112 1206.61 947.241 1206.61C928.722 1206.61 908.12 1204.07 885.435 1198.97C867.719 1194.64 850.286 1188.6 833.135 1180.88C828.323 1178.71 823.534 1176.41 818.767 1173.97V1285.09C840.064 1293.42 862.055 1300.13 884.74 1305.23C907.426 1309.86 934.741 1312.17 966.686 1312.17C1014.83 1312.17 1053.96 1305.46 1084.05 1292.03C1114.61 1278.6 1137.06 1260.55 1151.41 1237.86C1166.23 1215.18 1173.63 1190.41 1173.63 1163.56C1173.63 1128.37 1162.75 1101.29 1140.99 1082.31C1124.58 1067.32 1102.66 1056.73 1075.24 1050.54C1067.26 1048.74 1058.83 1047.32 1049.93 1046.26C1049.73 1046.24 1049.53 1046.22 1049.33 1046.19V1044.11C1049.41 1044.09 1049.49 1044.06 1049.58 1044.04C1058.02 1041.67 1066.13 1038.85 1073.91 1035.56C1084.37 1031.14 1094.24 1025.89 1103.49 1019.8C1120.16 1008.69 1133.59 994.804 1143.77 978.137C1153.96 961.007 1159.05 940.636 1159.05 917.025C1159.05 881.376 1144.24 853.366 1114.61 832.996C1085.44 812.625 1045.39 802.44 994.464 802.44C951.408 802.44 916.454 807.301 889.601 817.023C863.212 826.746 839.832 838.551 819.461 852.441L875.018 942.025C875.018 942.025 875.017 942.026 875.018 942.025C875.584 941.665 876.181 941.295 876.805 940.917C881.789 937.9 888.601 934.334 897.24 930.22C906.963 925.127 918.306 920.497 931.269 916.33Z" fill="#E734A9"/>
<path d="M827.661 1106.11C800.31 1115.37 799.112 1149.04 801.932 1164.72L812.081 1170.32C828.671 1145.06 855.012 1096.85 827.661 1106.11Z" fill="#E634A9"/>
<path d="M754.494 1132.81C780.882 1121.08 804.582 1145.02 813.133 1158.46L809.468 1169.46C780.149 1162.13 728.106 1144.53 754.494 1132.81Z" fill="#E634A9"/>
<path d="M753.945 1197.32C759.255 1168.94 792.418 1163 808.336 1163.58L815.315 1172.84C792.646 1192.83 748.635 1225.71 753.945 1197.32Z" fill="#E634A9"/>
<path d="M1159.05 917.025C1159.05 940.636 1153.96 961.007 1143.77 978.137C1133.59 994.804 1120.16 1008.69 1103.49 1019.8C1087.29 1030.45 1069.23 1038.55 1049.33 1044.11V1046.19C1089.14 1050.82 1119.7 1062.86 1141 1082.31C1162.75 1101.29 1173.63 1128.37 1173.63 1163.56C1173.63 1190.41 1166.23 1215.18 1151.41 1237.86C1137.06 1260.55 1114.61 1278.6 1084.05 1292.03C1053.96 1305.46 1014.84 1312.17 966.687 1312.17C934.742 1312.17 907.427 1309.86 884.741 1305.23C862.055 1300.13 840.064 1293.42 818.768 1285.09V1173.97C840.527 1185.08 862.75 1193.42 885.435 1198.97C908.121 1204.07 928.723 1206.61 947.242 1206.61C980.113 1206.61 1002.34 1201.98 1013.91 1192.72C1025.95 1183.46 1031.97 1170.96 1031.97 1155.22C1031.97 1144.11 1028.96 1134.62 1022.94 1126.75C1017.38 1118.42 1006.97 1112.17 991.687 1108C976.872 1103.83 955.113 1101.75 926.408 1101.75H895.852V1001.05H927.103C965.066 1001.05 991.456 996.193 1006.27 986.47C1021.55 976.748 1029.19 964.248 1029.19 948.97C1029.19 935.544 1024.1 925.821 1013.91 919.803C1003.72 913.321 990.298 910.08 973.631 910.08C958.816 910.08 944.696 912.164 931.27 916.33C918.306 920.497 906.964 925.127 897.241 930.219C887.519 934.849 880.111 938.784 875.019 942.025L819.462 852.44C839.833 838.551 863.213 826.746 889.602 817.023C916.455 807.301 951.409 802.44 994.465 802.44C1045.39 802.44 1085.44 812.625 1114.61 832.996C1144.24 853.366 1159.05 881.376 1159.05 917.025Z" fill="#FF6DCE"/>
<mask id="mask7" mask-type="alpha" maskUnits="userSpaceOnUse" x="818" y="804" width="356" height="511">
<path d="M1159.05 918.982C1159.05 942.593 1153.96 962.964 1143.77 980.094C1133.59 996.761 1120.16 1010.65 1103.5 1021.76C1087.29 1032.41 1069.24 1040.51 1049.33 1046.07V1048.15C1089.14 1052.78 1119.7 1064.82 1141 1084.26C1162.76 1103.24 1173.64 1130.33 1173.64 1165.51C1173.64 1192.37 1166.23 1217.13 1151.41 1239.82C1137.06 1262.51 1114.61 1280.56 1084.05 1293.99C1053.96 1307.41 1014.84 1314.13 966.688 1314.13C934.743 1314.13 907.428 1311.81 884.742 1307.18C862.056 1302.09 840.065 1295.38 818.769 1287.04V1175.93C840.528 1187.04 862.751 1195.37 885.437 1200.93C908.122 1206.02 928.724 1208.57 947.243 1208.57C980.114 1208.57 1002.34 1203.94 1013.91 1194.68C1025.95 1185.42 1031.97 1172.92 1031.97 1157.18C1031.97 1146.07 1028.96 1136.58 1022.94 1128.71C1017.38 1120.37 1006.97 1114.12 991.688 1109.96C976.873 1105.79 955.114 1103.71 926.409 1103.71H895.853V1003.01H927.104C965.067 1003.01 991.457 998.149 1006.27 988.427C1021.55 978.705 1029.19 966.205 1029.19 950.926C1029.19 937.5 1024.1 927.778 1013.91 921.759C1003.73 915.278 990.299 912.037 973.632 912.037C958.817 912.037 944.697 914.12 931.271 918.287C918.307 922.454 906.965 927.084 897.242 932.176C887.52 936.806 880.112 940.741 875.02 943.982L819.463 854.397C839.834 840.508 863.214 828.702 889.603 818.98C916.456 809.258 951.41 804.396 994.466 804.396C1045.39 804.396 1085.44 814.582 1114.61 834.952C1144.24 855.323 1159.05 883.333 1159.05 918.982Z" fill="#FF6DCE"/>
</mask>
<g mask="url(#mask7)">
<path d="M1123.08 942.858C1133.63 905.935 1104.76 825.642 1090.11 808.792L1193.41 824.177L1208.79 949.451L1112.09 1032.97L1054.94 1043.96C1081.32 1017.58 1112.53 979.781 1123.08 942.858Z" fill="#F159BD"/>
<path d="M1083.52 1237.36C1164.83 1180.22 1142.42 1102.89 1129.24 1064.06C1148.28 1062.59 1191.65 1065.38 1212.75 1088.24C1239.13 1116.81 1232.53 1184.94 1223.74 1222.3C1214.95 1259.66 1181.98 1297.03 1113.85 1327.8C1045.72 1358.56 869.895 1336.59 819.346 1319C778.906 1304.94 790.774 1282.37 801.763 1272.85C858.906 1292.63 1005.51 1292.18 1083.52 1237.36Z" fill="#F159BD"/>
</g>
<path d="M945.747 1038.81C977.977 1046.31 1012.29 1017.77 1025.42 1002.56C1027.94 1031 1025.51 1086.97 995.671 1083.31C965.834 1079.66 949.956 1052.12 945.747 1038.81Z" fill="#B9007A"/>
<path d="M979.079 1078.08C977.922 1054.79 1007.69 1053.23 1022.73 1055.36C1021.01 1062.72 1015.2 1078.26 1005.68 1081.53C996.149 1084.79 983.975 1080.59 979.079 1078.08Z" fill="#E634A9"/>
<ellipse cx="1029.79" cy="818.837" rx="49.1512" ry="57.8892" transform="rotate(20.83 1029.79 818.837)" fill="white"/>
<circle cx="1035.08" cy="807.995" r="15.2783" transform="rotate(20.83 1035.08 807.995)" fill="#161E33"/>
<ellipse cx="930.984" cy="807.323" rx="35.153" ry="41.4024" transform="rotate(20.83 930.984 807.323)" fill="white"/>
<ellipse rx="7.81179" ry="7.8118" transform="matrix(0.93464 0.355597 -0.355595 0.93464 934.771 799.57)" fill="#161E33"/>
<ellipse cx="1345.17" cy="720.5" rx="31.9432" ry="33.7178" fill="white"/>
<circle cx="1336.29" cy="709.853" r="8.87311" fill="#161E33"/>
<ellipse cx="1260.87" cy="709.8" rx="47.0275" ry="49.6401" fill="white"/>
<ellipse cx="1274.82" cy="706.94" rx="13.0632" ry="13.0632" fill="#161E33"/>
<path d="M660.224 1098.97C660.224 1133.33 656.456 1162.87 648.921 1187.58C641.687 1212.3 629.48 1231.29 612.3 1244.55C595.421 1257.81 572.514 1264.44 543.579 1264.44C503.191 1264.44 473.653 1249.82 454.966 1220.59C436.279 1191.35 426.935 1150.81 426.935 1098.97C426.935 1064.01 430.552 1034.17 437.786 1009.45C445.321 984.737 457.679 965.748 474.859 952.486C492.039 939.224 514.946 932.593 543.579 932.593C583.968 932.593 613.506 947.212 632.193 976.448C650.88 1005.68 660.224 1046.53 660.224 1098.97ZM513.74 1098.97C513.74 1130.62 515.699 1154.58 519.618 1170.86C523.536 1186.83 531.523 1194.82 543.579 1194.82C555.636 1194.82 563.623 1186.83 567.541 1170.86C571.459 1154.88 573.419 1130.92 573.419 1098.97C573.419 1067.02 571.459 1042.91 567.541 1026.63C563.623 1010.36 555.636 1002.22 543.579 1002.22C531.523 1002.22 523.536 1010.36 519.618 1026.63C515.699 1042.91 513.74 1067.02 513.74 1098.97Z" fill="#EBA742"/>
<mask id="mask8" mask-type="alpha" maskUnits="userSpaceOnUse" x="426" y="932" width="235" height="333">
<path d="M660.224 1098.97C660.224 1133.33 656.457 1162.87 648.922 1187.58C641.688 1212.3 629.481 1231.29 612.301 1244.55C595.422 1257.81 572.515 1264.44 543.58 1264.44C503.192 1264.44 473.654 1249.82 454.967 1220.59C436.28 1191.35 426.936 1150.81 426.936 1098.97C426.936 1064.01 430.553 1034.17 437.787 1009.45C445.322 984.737 457.679 965.748 474.86 952.486C492.04 939.225 514.947 932.594 543.58 932.594C583.969 932.594 613.506 947.212 632.194 976.448C650.881 1005.68 660.224 1046.53 660.224 1098.97ZM513.741 1098.97C513.741 1130.62 515.7 1154.58 519.618 1170.86C523.537 1186.83 531.524 1194.82 543.58 1194.82C555.636 1194.82 563.624 1186.83 567.542 1170.86C571.46 1154.88 573.419 1130.92 573.419 1098.97C573.419 1067.02 571.46 1042.91 567.542 1026.63C563.624 1010.36 555.636 1002.22 543.58 1002.22C531.524 1002.22 523.537 1010.36 519.618 1026.63C515.7 1042.91 513.741 1067.02 513.741 1098.97Z" fill="#EBA742"/>
</mask>
<g mask="url(#mask8)">
<path d="M621.978 1180.22C650.11 1111.65 642.491 1009.52 635.165 967.033L690.11 1017.58L696.703 1189.01C686.447 1226.37 646.593 1299.78 569.231 1294.51C491.868 1289.23 438.828 1255.68 421.978 1239.56C487.912 1261.54 586.813 1265.93 621.978 1180.22Z" fill="#E09627"/>
</g>
<path d="M497.439 1200.08C515.109 1213.2 563.101 1215.17 591.494 1200.08C585.491 1218.09 564.875 1245.33 541.805 1245.33C521.816 1245.33 496.48 1209.31 497.439 1200.08Z" fill="#A86500"/>
<path d="M523.173 1236.46C538.257 1224.04 557.16 1230.29 565.764 1235.58C562.767 1239.61 547.483 1246.2 540.807 1245.67C534.132 1245.13 525.494 1239.29 523.173 1236.46Z" fill="#D48207"/>
<path fill-rule="evenodd" clip-rule="evenodd" d="M428.824 1006.77L428.84 1006.72C436.83 980.515 450.153 959.742 469.144 945.082C488.417 930.205 513.539 923.24 543.581 923.24C586.549 923.24 619.364 939.007 640.076 971.411C660.098 1002.74 669.579 1045.59 669.579 1098.97C669.579 1133.95 665.751 1164.44 657.885 1190.26C650.204 1216.47 637.039 1237.26 618.047 1251.93C599.032 1266.86 573.868 1273.8 543.581 1273.8C500.613 1273.8 467.797 1258.03 447.086 1225.63C427.072 1194.31 417.582 1151.77 417.582 1098.97C417.582 1063.41 421.255 1032.64 428.81 1006.83L428.824 1006.77ZM612.301 1244.55C629.481 1231.29 641.688 1212.3 648.922 1187.58C656.457 1162.87 660.225 1133.33 660.225 1098.97C660.225 1046.53 650.881 1005.69 632.194 976.449C613.507 947.212 583.969 932.594 543.581 932.594C514.947 932.594 492.04 939.225 474.86 952.487C457.68 965.749 445.322 984.737 437.787 1009.45C430.553 1034.17 426.936 1064.01 426.936 1098.97C426.936 1150.81 436.28 1191.35 454.967 1220.59C473.654 1249.82 503.192 1264.44 543.581 1264.44C572.516 1264.44 595.423 1257.81 612.301 1244.55ZM528.708 1168.65C525.056 1153.46 523.095 1130.4 523.095 1098.97C523.095 1067.22 525.059 1044 528.713 1028.82C530.45 1021.61 532.846 1017.3 535.224 1014.87C537.349 1012.71 539.903 1011.57 543.581 1011.57C547.258 1011.57 549.812 1012.71 551.937 1014.87C554.315 1017.3 556.712 1021.61 558.448 1028.82C562.102 1044 564.066 1067.22 564.066 1098.97C564.066 1130.73 562.1 1153.78 558.458 1168.63C556.731 1175.67 554.353 1179.86 551.999 1182.21C549.886 1184.33 547.313 1185.46 543.581 1185.46C539.848 1185.46 537.275 1184.33 535.162 1182.21C532.81 1179.86 530.434 1175.67 528.708 1168.65ZM519.619 1170.86C515.701 1154.58 513.741 1130.62 513.741 1098.97C513.741 1067.02 515.701 1042.91 519.619 1026.63C523.537 1010.36 531.524 1002.22 543.581 1002.22C555.637 1002.22 563.624 1010.36 567.542 1026.63C571.461 1042.91 573.42 1067.02 573.42 1098.97C573.42 1130.92 571.461 1154.88 567.542 1170.86C563.624 1186.83 555.637 1194.82 543.581 1194.82C531.524 1194.82 523.537 1186.83 519.619 1170.86Z" fill="#D58207"/>
<path d="M391.966 1063.74C393.725 1053.19 414.677 1032.97 424.933 1024.18L423.26 1047.6C423.839 1047.11 424.398 1046.62 424.933 1046.15C424.385 1046.9 423.803 1047.7 423.193 1048.55L420.538 1085.71V1138.46C413.212 1156.78 396.802 1190.33 389.769 1178.02C382.736 1165.71 405.885 1115.75 418.339 1092.31C405.885 1108.42 382.295 1135.38 387.57 1114.29C392.563 1094.32 412.389 1063.58 423.193 1048.55L423.26 1047.6C411.162 1057.98 390.289 1073.8 391.966 1063.74Z" fill="#D48207"/>
<path d="M692.308 1063.74C690.549 1053.19 669.597 1032.97 659.341 1024.18L661.014 1047.6C660.435 1047.11 659.876 1046.62 659.341 1046.15C659.889 1046.9 660.471 1047.7 661.081 1048.55L663.736 1085.71V1138.46C671.062 1156.78 687.472 1190.33 694.505 1178.02C701.538 1165.71 678.389 1115.75 665.935 1092.31C678.389 1108.42 701.979 1135.38 696.704 1114.29C691.712 1094.32 671.885 1063.58 661.081 1048.55L661.014 1047.6C673.112 1057.98 693.986 1073.8 692.308 1063.74Z" fill="#D48207"/>
<ellipse cx="579.072" cy="974.703" rx="31.9432" ry="33.7178" fill="white"/>
<circle cx="570.199" cy="971.158" r="12.4224" fill="#161E33"/>
<ellipse rx="31.9432" ry="33.7178" transform="matrix(-1 0 0 1 508.09 974.703)" fill="white"/>
<circle r="12.4224" transform="matrix(-1 0 0 1 516.962 971.158)" fill="#161E33"/>
<path d="M516.075 919.739C483.559 906.491 468.75 920.401 463.741 932.87C463.063 934.557 465.159 935.637 466.494 934.403C485.696 916.663 515.289 919.423 516.075 919.739Z" fill="#161E33"/>
<path d="M562.199 919.585C592.132 901.233 609.003 912.552 615.971 924.043C616.913 925.597 615.021 927.003 613.503 926.002C591.676 911.617 562.923 919.146 562.199 919.585Z" fill="#161E33"/>
<path d="M619.162 455.65C659.827 520.586 724.061 491.709 751.096 469.154C712.059 531.04 651.147 525.391 632.825 504.419C614.504 483.447 619.953 466.309 619.162 455.65Z" fill="#487205"/>
<path d="M626.442 520.814C635.315 521.11 640.639 485.32 687.667 517.266C678.498 517.857 643.479 535.721 626.442 520.814Z" fill="#68A800"/>
</g>
<defs>
<clipPath id="clip0">
<rect width="2000" height="1457.47" fill="white"/>
</clipPath>
</defs>
</svg>
