<svg width="1000" height="1000" viewBox="0 0 1000 1000" fill="none" xmlns="http://www.w3.org/2000/svg">
<mask id="mask0" mask-type="alpha" maskUnits="userSpaceOnUse" x="0" y="0" width="1000" height="1000">
<rect width="1000" height="1000" fill="#C4C4C4"/>
</mask>
<g mask="url(#mask0)">
<path d="M485.112 29.7735L643.067 187.732C648.493 159.077 662.295 131.695 684.473 109.518C743.195 50.7957 838.402 50.7957 897.124 109.518C955.846 168.24 955.846 263.447 897.124 322.17C874.947 344.347 847.565 358.149 818.91 363.575L970.223 514.885L801.319 683.802C803.914 642.241 789.332 599.808 757.572 568.048C698.849 509.326 603.642 509.326 544.92 568.048C486.198 626.77 486.198 721.977 544.92 780.7C576.68 812.46 619.113 827.042 660.674 824.447L485.112 999.997L79.7444 594.629C35.7028 550.588 35.7028 479.182 79.7444 435.141L485.112 29.7735Z" fill="#5588FB"/>
<mask id="mask1" mask-type="alpha" maskUnits="userSpaceOnUse" x="46" y="29" width="925" height="971">
<path d="M485.112 29.7735L643.067 187.732C648.493 159.077 662.295 131.695 684.473 109.518C743.195 50.7957 838.402 50.7957 897.124 109.518C955.846 168.24 955.846 263.447 897.124 322.17C874.947 344.347 847.565 358.149 818.91 363.575L970.223 514.885L801.319 683.802C803.914 642.241 789.332 599.808 757.572 568.048C698.849 509.326 603.642 509.326 544.92 568.048C486.198 626.77 486.198 721.977 544.92 780.7C576.68 812.46 619.113 827.042 660.674 824.447L485.112 999.997L79.7444 594.629C35.7028 550.588 35.7028 479.182 79.7444 435.141L485.112 29.7735Z" fill="#5588FB"/>
</mask>
<g mask="url(#mask1)">
<path fill-rule="evenodd" clip-rule="evenodd" d="M1092.65 87.2388L-21.8571 764.686L611.878 1245.38L1280.39 -8.96734L1092.65 87.2388Z" fill="#267DE4"/>
</g>
</g>
</svg>
