<svg width="1000" height="1000" viewBox="0 0 1000 1000" fill="none" xmlns="http://www.w3.org/2000/svg">
<ellipse cx="503.267" cy="577.957" rx="199" ry="26.5825" fill="#DBDBEE"/>
<path fill-rule="evenodd" clip-rule="evenodd" d="M665.704 573.166H354.915V486.387L454.824 385.331C474.748 364.299 490.17 347.588 501.135 335.161L501.197 335.091L501.26 335.021C512.46 322.737 519.611 312.906 523.363 305.401C527.036 298.055 528.817 290.549 528.817 282.762C528.817 273.591 525.99 269.25 522.268 266.769L522.159 266.696L522.052 266.622C516.851 262.98 510.347 260.921 501.976 260.921C491.616 260.921 480.935 263.796 469.803 270.017C458.132 276.539 444.339 286.562 428.372 300.351L419.628 307.903L345.972 221.739L354.246 214.24C366.423 203.205 379.347 192.753 393.016 182.881L393.076 182.837L393.137 182.794C407.869 172.443 424.816 164.198 443.86 157.97C463.556 151.153 487.104 147.924 514.199 147.924C542.552 147.924 567.67 152.968 589.188 163.506C610.44 173.546 627.299 187.607 639.311 205.799C651.76 224.089 657.926 244.865 657.926 267.761C657.926 292.149 653.399 314.396 644.08 334.269C635.294 353.422 621.909 372.383 604.258 391.187C587.322 409.252 566.163 429.841 540.834 452.935L540.816 452.951L530.986 461.836H665.704V573.166ZM504.198 473.331V470.553L533.089 444.44C558.276 421.476 579.204 401.104 595.872 383.325C612.91 365.175 625.503 347.211 633.652 329.432C642.171 311.282 646.431 290.725 646.431 267.761C646.431 247.018 640.875 228.499 629.763 212.201C619.021 195.904 603.835 183.125 584.204 173.865C564.573 164.235 541.238 159.42 514.199 159.42C487.901 159.42 465.677 162.568 447.527 168.865C429.378 174.791 413.451 182.569 399.746 192.2C386.412 201.83 373.818 212.016 361.966 222.757L420.859 291.651C422.066 290.609 423.263 289.586 424.45 288.582C439.286 276.032 452.535 266.499 464.195 259.982C476.789 252.945 489.382 249.426 501.976 249.426C512.347 249.426 521.236 252.019 528.644 257.204C536.423 262.39 540.312 270.909 540.312 282.762C540.312 292.392 538.09 301.652 533.645 310.542C529.2 319.431 521.236 330.173 509.754 342.766C498.642 355.36 483.086 372.213 463.084 393.325L366.41 491.11V561.671H654.209V473.331H504.198Z" fill="#01A87F"/>
<path d="M654.215 561.676H366.416V491.115L463.09 393.33C483.091 372.218 498.648 355.365 509.76 342.771C521.242 330.178 529.206 319.436 533.65 310.547C538.095 301.657 540.318 292.397 540.318 282.767C540.318 270.914 536.428 262.395 528.65 257.209C521.242 252.024 512.353 249.431 501.981 249.431C489.388 249.431 476.794 252.95 464.201 259.987C451.607 267.025 437.162 277.581 420.864 291.656L361.971 222.762C373.824 212.021 386.417 201.835 399.752 192.205C413.456 182.574 429.384 174.796 447.533 168.87C465.682 162.573 487.906 159.424 514.205 159.424C541.244 159.424 564.579 164.24 584.21 173.87C603.841 183.13 619.027 195.909 629.768 212.206C640.88 228.504 646.436 247.023 646.436 267.766C646.436 290.73 642.177 311.287 633.658 329.437C625.509 347.216 612.915 365.18 595.877 383.33C579.209 401.109 558.282 421.481 533.095 444.445L504.204 470.558V473.336H654.215V561.676Z" fill="#37C6A3"/>
<mask id="mask0" mask-type="alpha" maskUnits="userSpaceOnUse" x="362" y="158" width="293" height="403">
<path d="M654.47 560.426H366.672V489.865L463.345 392.08C483.347 370.968 498.903 354.114 510.015 341.521C521.498 328.927 529.461 318.186 533.906 309.296C538.351 300.407 540.573 291.147 540.573 281.517C540.573 269.664 536.684 261.145 528.906 255.959C521.498 250.774 512.608 248.181 502.237 248.181C489.644 248.181 477.05 251.7 464.456 258.737C451.863 265.775 437.417 276.331 421.12 290.406L362.227 221.512C374.08 210.771 386.673 200.585 400.007 190.954C413.712 181.324 429.639 173.546 447.789 167.619C465.938 161.323 488.162 158.174 514.46 158.174C541.499 158.174 564.834 162.989 584.465 172.62C604.096 181.88 619.283 194.658 630.024 210.956C641.136 227.253 646.692 245.773 646.692 266.516C646.692 289.48 642.432 310.037 633.913 328.187C625.765 345.966 613.171 363.93 596.133 382.079C579.465 399.859 558.537 420.23 533.35 443.195L504.459 469.308V472.086H654.47V560.426Z" fill="#37C6A3"/>
</mask>
<g mask="url(#mask0)">
<path d="M507.854 470.333C428.245 493.631 379.87 543.068 373.776 570.154L670.372 570.154V466.272C648.026 452.729 591.144 445.957 507.854 470.333Z" fill="#17B68F"/>
<path d="M626.321 278.03C624.902 234.053 600.588 185.259 589.754 170.361L636.478 180.519L681.171 223.18L656.793 343.037L599.911 446.643L508.495 468.989C549.124 420.911 628.352 341.006 626.321 278.03Z" fill="#17B68F"/>
</g>
<path d="M556.756 288.172C577.096 288.172 593.663 266.301 599.404 255.366C604.872 272.043 611.214 305.888 592.843 307.856C574.471 309.825 561.13 295.554 556.756 288.172Z" fill="#017E60"/>
<path d="M582.18 307.036C578.243 293.257 595.849 288.172 605.144 287.352C605.144 292 603.832 302.115 598.583 305.396C593.334 308.676 585.46 307.856 582.18 307.036Z" fill="#01A87F"/>
<ellipse cx="422.982" cy="214.853" rx="37.7275" ry="39.8235" transform="rotate(-18.6443 422.982 214.853)" fill="white"/>
<circle cx="435.751" cy="215.639" r="16.7678" transform="rotate(-18.6443 435.751 215.639)" fill="#161E33"/>
<ellipse rx="37.7275" ry="39.8235" transform="matrix(-0.947522 0.319692 0.319692 0.947522 533.06 196.813)" fill="white"/>
<circle r="16.7678" transform="matrix(-0.947522 0.319692 0.319692 0.947522 530.289 202.847)" fill="#161E33"/>
<ellipse cx="771.336" cy="932.828" rx="196.197" ry="33.3952" fill="#DBDBEE"/>
<path fill-rule="evenodd" clip-rule="evenodd" d="M937.325 619.353L937.283 619.422C926.808 636.562 912.993 650.831 895.979 662.174L895.942 662.198L895.905 662.222C891.175 665.33 886.296 668.217 881.268 670.883C901.334 677.233 918.433 686.534 932.214 699.083C955.826 719.742 966.911 748.835 966.911 784.318C966.911 811.783 959.297 837.237 944.201 860.384C929.177 884.09 906.063 902.327 875.962 915.559C845.772 929.02 807.487 935.363 761.804 935.363C731.615 935.363 705.357 933.181 683.198 928.658L683.07 928.632L682.944 928.604C661.271 923.739 640.243 917.321 619.867 909.347L611.403 906.036V772.221L630.775 782.113C650.024 791.943 669.611 799.285 689.546 804.177C709.793 808.715 727.847 810.905 743.784 810.905C758.47 810.905 770.257 809.864 779.362 807.967C788.6 806.043 794.161 803.423 797.251 800.951L797.35 800.872L797.45 800.795C805.192 794.84 808.987 787.225 808.987 776.595C808.987 768.848 806.946 762.988 803.358 758.296L803.096 757.953L802.856 757.594C800.275 753.722 794.237 749.159 781.47 745.677L781.419 745.663L781.369 745.649C769.422 742.289 750.717 740.354 724.476 740.354H682.842V620.401H725.12C760.071 620.401 780.994 615.756 791.184 609.069L791.262 609.018L791.34 608.968C802.487 601.875 806.412 594.152 806.412 585.448C806.412 576.954 803.566 572.7 798.795 569.881L798.605 569.769L798.42 569.651C791.785 565.428 782.083 562.722 768.24 562.722C755.799 562.722 744.069 564.466 732.99 567.897C721.565 571.573 711.805 575.58 703.624 579.866L703.399 579.984L703.17 580.093C694.334 584.3 688.038 587.675 683.999 590.246L672.634 597.478L607.326 492.169L617.861 484.986C637.757 471.421 660.423 460.006 685.762 450.67L685.797 450.657L685.832 450.644C712.712 440.912 746.804 436.334 787.548 436.334C836.32 436.334 876.436 446.06 906.473 467.022C937.483 488.357 953.396 518.39 953.396 555.842C953.396 579.674 948.239 600.998 937.366 619.284L937.325 619.353ZM728.981 555.199C741.424 551.337 754.51 549.406 768.24 549.406C783.687 549.406 796.129 552.41 805.569 558.417C815.008 563.994 819.728 573.005 819.728 585.448C819.728 599.607 812.648 611.191 798.489 620.202C784.759 629.212 760.303 633.717 725.12 633.717H696.158V727.038H724.476C751.078 727.038 771.244 728.969 784.974 732.831C799.133 736.692 808.787 742.485 813.936 750.208C819.513 757.502 822.302 766.298 822.302 776.595C822.302 791.183 816.724 802.768 805.569 811.349C794.842 819.93 774.247 824.221 743.784 824.221C726.621 824.221 707.528 821.861 686.504 817.142C670.086 813.121 653.929 807.53 638.035 800.369C633.575 798.361 629.137 796.228 624.719 793.972V896.947C644.456 904.67 664.836 910.892 685.86 915.611C706.884 919.902 732.199 922.047 761.804 922.047C806.427 922.047 842.683 915.826 870.572 903.383C898.89 890.94 919.7 874.207 933 853.183C946.73 832.159 953.595 809.204 953.595 784.318C953.595 751.709 943.512 726.609 923.347 709.018C908.132 695.126 887.818 685.314 862.404 679.581C855.017 677.915 847.198 676.593 838.949 675.616C838.764 675.594 838.578 675.572 838.392 675.551V673.62C838.47 673.598 838.547 673.577 838.624 673.555C846.45 671.361 853.967 668.742 861.174 665.697C870.874 661.6 880.013 656.732 888.592 651.094C904.039 640.797 916.482 627.925 925.921 612.479C935.36 596.603 940.08 577.725 940.08 555.842C940.08 522.804 926.35 496.846 898.89 477.967C871.859 459.089 834.745 449.649 787.548 449.649C747.645 449.649 715.251 454.154 690.365 463.165C665.909 472.175 644.241 483.116 625.362 495.988L676.85 579.012C676.85 579.011 676.85 579.012 676.85 579.012C677.375 578.678 677.928 578.335 678.506 577.985C683.125 575.188 689.438 571.884 697.445 568.071C706.455 563.351 716.967 559.06 728.981 555.199Z" fill="#D63434"/>
<path d="M632.962 731.082C607.614 739.664 606.504 770.868 609.118 785.396L618.524 790.589C633.898 767.177 658.31 722.499 632.962 731.082Z" fill="#D63434"/>
<path d="M565.153 755.819C589.608 744.95 611.572 767.141 619.498 779.595L616.101 789.788C588.929 782.994 540.698 766.688 565.153 755.819Z" fill="#D63434"/>
<path d="M564.644 815.611C569.565 789.305 600.3 783.804 615.052 784.342L621.519 792.921C600.511 811.445 559.723 841.916 564.644 815.611Z" fill="#D63434"/>
<path d="M940.083 555.842C940.083 577.724 935.363 596.603 925.924 612.478C916.485 627.925 904.042 640.797 888.596 651.094C873.578 660.962 856.845 668.471 838.395 673.62V675.551C875.295 679.841 903.613 690.997 923.35 709.018C943.516 726.609 953.599 751.709 953.599 784.318C953.599 809.204 946.734 832.159 933.004 853.183C919.703 874.207 898.893 890.94 870.575 903.383C842.686 915.826 806.43 922.047 761.808 922.047C732.202 922.047 706.887 919.902 685.863 915.611C664.839 910.892 644.459 904.67 624.722 896.947V793.972C644.888 804.269 665.483 811.993 686.507 817.141C707.531 821.861 726.624 824.221 743.787 824.221C774.25 824.221 794.845 819.93 805.572 811.349C816.728 802.768 822.305 791.183 822.305 776.595C822.305 766.297 819.516 757.502 813.939 750.208C808.79 742.484 799.136 736.692 784.977 732.83C771.247 728.969 751.081 727.038 724.479 727.038H696.161V633.717H725.123C760.306 633.717 784.762 629.212 798.492 620.202C812.651 611.191 819.731 599.606 819.731 585.447C819.731 573.005 815.011 563.994 805.572 558.416C796.133 552.41 783.69 549.406 768.243 549.406C754.513 549.406 741.427 551.337 728.984 555.199C716.97 559.06 706.458 563.351 697.448 568.07C688.438 572.361 681.573 576.008 676.853 579.011L625.366 495.988C644.244 483.116 665.912 472.175 690.369 463.165C715.254 454.154 747.648 449.649 787.551 449.649C834.748 449.649 871.862 459.088 898.893 477.967C926.353 496.846 940.083 522.804 940.083 555.842Z" fill="#F15555"/>
<mask id="mask1" mask-type="alpha" maskUnits="userSpaceOnUse" x="624" y="451" width="330" height="473">
<path d="M940.083 557.654C940.083 579.537 935.363 598.415 925.924 614.291C916.485 629.737 904.042 642.609 888.596 652.906C873.578 662.775 856.845 670.283 838.395 675.432V677.363C875.295 681.654 903.613 692.809 923.35 710.83C943.516 728.421 953.599 753.522 953.599 786.13C953.599 811.016 946.734 833.971 933.004 854.995C919.703 876.019 898.893 892.753 870.575 905.195C842.686 917.638 806.43 923.86 761.808 923.86C732.202 923.86 706.887 921.714 685.863 917.424C664.839 912.704 644.459 906.483 624.722 898.759V795.784C644.888 806.082 665.483 813.805 686.507 818.954C707.531 823.673 726.624 826.033 743.787 826.033C774.25 826.033 794.845 821.743 805.572 813.161C816.728 804.58 822.305 792.995 822.305 778.407C822.305 768.11 819.516 759.314 813.939 752.02C808.79 744.297 799.136 738.504 784.977 734.643C771.247 730.781 751.081 728.851 724.479 728.851H696.161V635.529H725.123C760.306 635.529 784.762 631.024 798.492 622.014C812.651 613.004 819.731 601.419 819.731 587.26C819.731 574.817 815.011 565.807 805.572 560.229C796.133 554.222 783.69 551.219 768.243 551.219C754.513 551.219 741.427 553.149 728.984 557.011C716.97 560.872 706.458 565.163 697.448 569.883C688.438 574.173 681.573 577.82 676.853 580.824L625.366 497.8C644.244 484.928 665.912 473.987 690.369 464.977C715.254 455.967 747.648 451.461 787.551 451.461C834.748 451.461 871.862 460.901 898.893 479.78C926.353 498.658 940.083 524.617 940.083 557.654Z" fill="#FF6DCE"/>
</mask>
<g mask="url(#mask1)">
<path d="M906.74 579.783C916.517 545.564 889.766 471.151 876.187 455.536L971.919 469.793L986.176 585.893L896.556 663.293L843.598 673.477C868.04 649.035 896.963 614.001 906.74 579.783Z" fill="#E84141"/>
<path d="M870.078 852.719C945.441 799.761 924.67 728.092 912.449 692.108C930.102 690.75 970.296 693.33 989.849 714.513C1014.29 740.992 1008.18 804.134 1000.03 838.76C991.886 873.386 961.333 908.012 898.192 936.528C835.05 965.044 672.102 944.675 625.255 928.381C587.777 915.345 598.776 894.434 608.961 885.607C661.918 903.939 797.781 903.523 870.078 852.719Z" fill="#E84141"/>
</g>
<path d="M742.4 668.711C772.269 675.662 804.072 649.206 816.24 635.109C818.571 661.467 816.319 713.337 788.667 709.949C761.016 706.562 746.301 681.046 742.4 668.711Z" fill="#C50C0C"/>
<path d="M773.293 705.1C772.22 683.521 799.812 682.07 813.743 684.042C812.154 690.867 806.771 705.273 797.941 708.297C789.112 711.32 777.83 707.425 773.293 705.1Z" fill="#DF1E1E"/>
<ellipse cx="820.289" cy="505.947" rx="45.5514" ry="53.6494" transform="rotate(20.83 820.289 505.947)" fill="white"/>
<circle cx="825.195" cy="495.899" r="14.1593" transform="rotate(20.83 825.195 495.899)" fill="#161E33"/>
<ellipse cx="728.714" cy="495.276" rx="32.5784" ry="38.3702" transform="rotate(20.83 728.714 495.276)" fill="white"/>
<circle cx="732.229" cy="488.09" r="7.23965" transform="rotate(20.83 732.229 488.09)" fill="#161E33"/>
<ellipse cx="284.759" cy="864.782" rx="183.373" ry="31.2125" fill="#DBDBEE"/>
<path d="M233.194 377.682L245.65 407.722L234.938 414.357L221.827 382.465C215.889 386.423 206.764 388.74 200.361 382.918C184.781 368.752 216.126 339.85 238.713 351.029C256.782 359.973 245.264 373.841 233.194 377.682Z" fill="#FFAB48"/>
<path d="M311.867 854.979H192.493V639.984C192.493 635.924 192.493 628.615 192.493 618.058C192.493 607.501 192.696 595.726 193.102 582.733C193.508 569.74 193.914 558.168 194.32 548.017C189.041 554.108 184.169 559.386 179.703 563.853C175.642 568.319 171.379 572.38 166.912 576.034L117.579 616.84L56.6743 541.927L205.892 420.117H311.867V854.979Z" fill="#FF9820"/>
<mask id="mask2" mask-type="alpha" maskUnits="userSpaceOnUse" x="56" y="420" width="256" height="435">
<path d="M311.867 854.977H192.493V639.982C192.493 635.921 192.493 628.613 192.493 618.056C192.493 607.499 192.696 595.724 193.102 582.731C193.508 569.738 193.914 558.166 194.32 548.015C189.041 554.106 184.169 559.384 179.703 563.85C175.642 568.317 171.379 572.377 166.912 576.031L117.579 616.838L56.6743 541.925L205.892 420.114H311.867V854.977Z" fill="#FF9820"/>
</mask>
<g mask="url(#mask2)">
<path d="M268.016 741.085C312.492 701.056 314.716 583.194 312.492 518.704L330.282 812.247L314.716 830.037H172.392V761.099C187.217 764.064 223.539 781.114 268.016 741.085Z" fill="#ED8913"/>
</g>
<path d="M211.575 587.603C244.186 595.192 278.908 566.307 292.193 550.916C294.738 579.694 292.279 636.325 262.09 632.626C231.9 628.928 215.834 601.07 211.575 587.603Z" fill="#A65A00"/>
<path d="M245.3 627.33C244.129 603.77 274.254 602.186 289.463 604.339C287.729 611.79 281.851 627.519 272.211 630.82C262.571 634.121 250.254 629.869 245.3 627.33Z" fill="#E17A00"/>
<ellipse cx="204.158" cy="477.543" rx="32.3212" ry="34.1168" fill="white"/>
<circle cx="209.543" cy="477.543" r="14.365" fill="#161E33"/>
<path fill-rule="evenodd" clip-rule="evenodd" d="M324.465 867.579H179.889V618.057C179.889 607.343 180.095 595.434 180.504 582.339C180.52 581.846 180.535 581.356 180.55 580.868C178.71 582.563 176.832 584.195 174.916 585.763C174.907 585.771 174.898 585.778 174.889 585.785L115.816 634.649L38.961 540.117L201.399 407.515H324.465V867.579ZM166.91 576.033C171.376 572.378 175.64 568.318 179.7 563.852C180.184 563.367 180.674 562.873 181.168 562.37C185.228 558.231 189.611 553.446 194.317 548.016C194.076 554.052 193.834 560.589 193.593 567.629C193.428 572.43 193.264 577.464 193.099 582.732C192.693 595.725 192.49 607.5 192.49 618.057V854.978H311.864V420.116H205.889L56.6717 541.926L117.577 616.839L166.91 576.033Z" fill="#E17A00"/>
<path d="M283.813 371.366L261.135 420.899C261.135 420.899 261.342 427.532 265.79 429.756C270.237 431.98 276.91 429.756 276.91 429.756L298.265 377.862C305.769 383.13 317.417 386.39 325.823 379.11C346.273 361.399 306.91 323.304 277.553 336.962C254.066 347.888 268.429 366.057 283.813 371.366Z" fill="#FF9820"/>
</svg>
