<svg width="1000" height="1000" viewBox="0 0 1000 1000" fill="none" xmlns="http://www.w3.org/2000/svg">
<mask id="mask0" mask-type="alpha" maskUnits="userSpaceOnUse" x="0" y="-1" width="1000" height="1001">
<rect y="-0.00255775" width="1000" height="1000" fill="#C4C4C4"/>
</mask>
<g mask="url(#mask0)">
<mask id="mask1" mask-type="alpha" maskUnits="userSpaceOnUse" x="195" y="18" width="489" height="488">
<path d="M509.463 21.2851L247.341 101.424C208.887 113.18 187.245 153.884 199.001 192.337L279.14 454.459C290.897 492.913 331.6 514.555 370.053 502.799L632.176 422.66C670.629 410.903 692.272 370.2 680.515 331.747L600.376 69.6244C588.62 31.1709 547.917 9.52864 509.463 21.2851Z" fill="white"/>
</mask>
<g mask="url(#mask1)">
<path d="M509.463 21.2851L247.341 101.424C208.887 113.18 187.245 153.884 199.001 192.337L279.14 454.459C290.897 492.913 331.6 514.555 370.053 502.799L632.176 422.66C670.629 410.903 692.272 370.2 680.515 331.747L600.376 69.6244C588.62 31.1709 547.917 9.52864 509.463 21.2851Z" fill="#DA334C"/>
<path fill-rule="evenodd" clip-rule="evenodd" d="M568.236 -63.4745L384.076 553.249L893.729 381.937L568.236 -63.4745Z" fill="#C7233B"/>
</g>
<path d="M545.418 329.128C551.545 327.255 556.363 323.516 559.871 317.911C563.379 312.306 564.224 306.53 562.406 300.583C561.415 297.339 559.584 294.253 556.916 291.325L440.76 166.633C436.93 162.484 432.273 159.819 426.788 158.638C421.304 157.458 415.859 157.694 410.452 159.347C404.866 161.055 400.174 163.918 396.378 167.935C392.582 171.953 390.256 176.753 389.401 182.335L362.83 350.663C362.255 354.583 362.464 358.165 363.455 361.408C365.274 367.355 369.294 371.644 375.517 374.273C381.74 376.903 387.915 377.281 394.042 375.408C398.187 374.141 401.686 371.889 404.539 368.652C407.392 365.415 409.148 361.331 409.808 356.4L413.896 325.297L501.477 298.52L521.988 322.103C525.293 325.822 528.988 328.239 533.073 329.355C537.158 330.471 541.273 330.395 545.418 329.128ZM473.313 266.341L419.25 282.87L427.852 214.325L473.313 266.341Z" fill="white"/>
<mask id="mask2" mask-type="alpha" maskUnits="userSpaceOnUse" x="492" y="511" width="478" height="479">
<path d="M914.738 579.816L648.781 513.505C609.765 503.778 570.25 527.52 560.522 566.536L494.211 832.494C484.484 871.51 508.226 911.025 547.243 920.752L813.2 987.063C852.216 996.791 891.731 973.048 901.459 934.032L967.769 668.075C977.497 629.058 953.754 589.544 914.738 579.816Z" fill="white"/>
</mask>
<g mask="url(#mask2)">
<path d="M914.738 579.816L648.781 513.505C609.765 503.778 570.25 527.52 560.522 566.536L494.211 832.494C484.484 871.51 508.226 911.025 547.243 920.752L813.2 987.063C852.216 996.791 891.731 973.048 901.459 934.032L967.769 668.075C977.497 629.058 953.754 589.544 914.738 579.816Z" fill="#FF9F40"/>
<path fill-rule="evenodd" clip-rule="evenodd" d="M985.824 523.333L630.352 1000.87L957.986 1035.13L985.824 523.333Z" fill="#FE8A17"/>
</g>
<path d="M725.846 848.76C749.068 854.549 770.982 853.507 791.59 845.633C795.245 844.214 798.089 842.35 800.121 840.04C802.154 837.731 803.649 834.656 804.606 830.817C806.019 825.148 805.616 819.95 803.396 815.221C801.177 810.492 797.781 807.557 793.21 806.418C790.65 805.78 788.365 805.598 786.354 805.874C784.344 806.149 781.168 806.814 776.826 807.868C767.869 809.519 760.614 810.575 755.062 811.035C749.509 811.496 743.99 811.042 738.504 809.674C722.231 805.617 711.337 797.706 705.822 785.94C700.308 774.175 700.058 758.236 705.072 738.123C710.041 718.193 717.722 704.328 728.115 696.529C738.508 688.73 751.841 686.859 768.114 690.916C774.148 692.421 779.794 694.702 785.052 697.761C790.31 700.82 795.66 705.067 801.102 710.502C803.572 713.06 805.801 715.024 807.79 716.394C809.779 717.764 812.145 718.791 814.888 719.475C819.459 720.614 823.834 719.618 828.014 716.484C832.194 713.351 834.991 708.95 836.404 703.282C837.407 699.259 837.542 695.797 836.809 692.895C836.076 689.993 834.429 687.058 831.867 684.089C817.368 667.462 798.508 656.253 775.287 650.464C755.905 645.631 737.943 645.425 721.401 649.846C704.859 654.267 690.742 662.983 679.05 675.993C667.358 689.003 659.027 705.473 654.058 725.404C649.044 745.517 648.644 764.061 652.859 781.038C657.075 798.014 665.448 812.337 677.978 824.007C690.509 835.676 706.465 843.927 725.846 848.76Z" fill="white"/>
<mask id="mask3" mask-type="alpha" maskUnits="userSpaceOnUse" x="2" y="569" width="430" height="431">
<path d="M346.695 570.032L72.7632 579.597C32.5772 581.001 1.13762 614.716 2.54095 654.902L12.1069 928.834C13.5102 969.02 47.225 1000.46 87.4111 999.056L361.343 989.49C401.529 988.087 432.969 954.372 431.566 914.186L422 640.254C420.596 600.068 386.881 568.628 346.695 570.032Z" fill="white"/>
</mask>
<g mask="url(#mask3)">
<path d="M346.695 570.032L72.7632 579.597C32.5772 581.001 1.13762 614.716 2.54095 654.902L12.1069 928.834C13.5102 969.02 47.225 1000.46 87.4111 999.056L361.343 989.49C401.529 988.087 432.969 954.372 431.566 914.186L422 640.254C420.596 600.068 386.881 568.628 346.695 570.032Z" fill="#5588FB"/>
<path fill-rule="evenodd" clip-rule="evenodd" d="M354.111 553.261L135.688 1080.05L504.009 1009.38L476.17 527.565L354.111 553.261Z" fill="#267DE4"/>
</g>
<path d="M241.558 877.953C255.871 877.453 268.269 874.757 278.752 869.866C289.234 864.974 297.205 858.332 302.663 849.939C308.121 841.546 310.659 831.888 310.277 820.965C309.85 808.724 306.382 798.522 299.875 790.358C293.367 782.194 284.213 776.527 272.412 773.357C282.08 769.437 289.508 763.473 294.697 755.467C299.885 747.461 302.302 738.373 301.947 728.203C301.394 712.383 294.788 700.028 282.127 691.136C269.466 682.245 252.683 678.164 231.778 678.894L159.46 681.42C151.739 681.689 145.879 683.968 141.88 688.256C137.882 692.544 136.017 698.548 136.287 706.27L141.565 857.403C141.834 865.125 144.113 870.985 148.401 874.983C152.689 878.982 158.694 880.846 166.415 880.577L241.558 877.953ZM225.754 757.45L188.747 758.743L187.386 719.759L224.392 718.466C234.185 718.124 241.398 719.475 246.03 722.519C250.661 725.563 253.099 730.569 253.342 737.537C253.572 744.128 251.48 749.01 247.065 752.181C242.651 755.352 235.547 757.108 225.754 757.45ZM233.69 838.913L191.598 840.383L190.118 798.009L232.21 796.539C242.568 796.178 250.017 797.567 254.558 800.708C259.099 803.85 261.501 809.187 261.764 816.72C262.027 824.253 260.003 829.745 255.693 833.195C251.382 836.645 244.048 838.551 233.69 838.913Z" fill="white"/>
</g>
</svg>
