<svg width="2000" height="1458" viewBox="0 0 2000 1458" fill="none" xmlns="http://www.w3.org/2000/svg">
<g clip-path="url(#clip0)">
<path d="M1642.11 131.498C2198.7 338.183 1842.14 563.235 1853.4 785.925C1862.87 973.171 2149.97 1140.07 1894.17 1320.44C1574.44 1545.92 867.948 1440.17 477.155 1374.4C86.3627 1308.64 -67.5879 1030.19 27.1504 785.925C121.889 541.659 -32.6773 272.42 381.802 131.498C796.281 -9.42257 1085.53 -75.1861 1642.11 131.498Z" fill="#F1F1F8"/>
<mask id="mask0" mask-type="alpha" maskUnits="userSpaceOnUse" x="0" y="0" width="2000" height="1458">
<path d="M1642.11 131.498C2198.7 338.183 1842.14 563.235 1853.4 785.925C1862.87 973.171 2149.97 1140.07 1894.17 1320.44C1574.44 1545.92 867.948 1440.17 477.155 1374.4C86.3627 1308.64 -67.5879 1030.19 27.1504 785.925C121.889 541.659 -32.6773 272.42 381.802 131.498C796.281 -9.42257 1085.53 -75.1861 1642.11 131.498Z" fill="#DEDEF8"/>
</mask>
<g mask="url(#mask0)">
<path d="M534.13 575.623C566.808 554.252 597.152 569.321 608.239 579.527C653.999 570.448 751.814 552.901 776.993 555.348C802.172 557.795 807.214 586.125 806.588 599.985C819.449 588.572 851.772 568.423 878.177 579.135C904.581 589.846 874.066 621.155 855.508 635.471C878.871 627.734 932.715 613.772 961.185 619.82C989.656 625.868 969.267 669.169 955.513 690.063C1020.44 678.511 1065.79 705.401 1065.53 734.694C1065.33 758.128 1036.58 787.403 1022.23 799.111C1050.86 803.622 1108.07 821.69 1107.92 857.874C1107.77 894.057 1092.28 917.689 1084.55 924.982C1118.99 924.795 1171.64 962.2 1169.06 1014.55C1167 1056.43 1130.64 1073.13 1112.72 1076.24C1136.04 1088.89 1173.75 1125.27 1138.04 1169.57C1102.33 1213.88 1052.52 1212.68 1032.08 1206.55C1049.71 1224.76 1075.02 1265.28 1035.18 1281.7C995.329 1298.11 965.446 1286.67 955.486 1278.9C964.044 1292.71 974.839 1322.65 949.558 1331.92C924.277 1341.18 904.117 1327.64 897.196 1319.71C887.195 1332.33 858.671 1358.99 824.589 1364.69C790.507 1370.38 765.126 1345.91 756.696 1332.96C748.98 1342.91 724.65 1363.25 689.062 1364.99C653.475 1366.74 640.962 1332.44 639.154 1315.08C633.563 1329.04 611.955 1356.37 570.245 1354.01C528.534 1351.65 516.658 1299.95 515.934 1274.4C506.102 1283 479.282 1298.42 450.659 1291.34C422.035 1284.26 415.238 1248.74 415.418 1231.87C407.669 1233.85 387.165 1233.49 367.138 1216.2C347.111 1198.9 361.445 1159.73 371.116 1142.3C353.301 1140.96 315.222 1131.06 305.425 1102.17C295.627 1073.27 313.246 1056.75 323.279 1052.1C317.763 1053.64 304.438 1042.81 295.277 987.211C286.115 931.608 320.453 921.959 338.768 924.085C326.681 912.306 303.279 876.896 306.363 829.496C309.447 782.097 360.264 777.154 385.287 780.607C378.536 768.655 370.213 736.279 390.926 702.395C411.639 668.512 440.479 680.157 452.311 690.216C440.149 675.349 422.485 644.029 449.118 637.681C475.751 631.334 494.89 646.766 501.13 655.275C498.514 637.628 501.452 596.993 534.13 575.623Z" fill="#DBDBE8"/>
<path d="M533.174 584.868C563.425 565.085 591.516 579.035 601.779 588.483C644.141 580.078 734.69 563.834 758 566.099C781.309 568.364 785.976 594.591 785.397 607.421C797.303 596.855 827.225 578.204 851.668 588.119C876.112 598.035 847.863 627.019 830.683 640.272C852.311 633.109 902.156 620.184 928.511 625.783C954.867 631.382 935.993 671.467 923.261 690.809C983.363 680.114 1025.34 705.008 1025.11 732.125C1024.92 753.818 998.307 780.919 985.023 791.758C1011.52 795.933 1064.49 812.659 1064.35 846.156C1064.21 879.652 1049.87 901.529 1042.71 908.28C1074.59 908.107 1123.33 942.733 1120.95 991.195C1119.04 1029.96 1085.38 1045.42 1068.79 1048.3C1090.38 1060.01 1125.29 1093.69 1092.23 1134.7C1059.17 1175.72 1013.06 1174.61 994.139 1168.93C1010.46 1185.79 1033.89 1223.31 997.007 1238.5C960.119 1253.7 932.456 1243.11 923.236 1235.91C931.158 1248.7 941.151 1276.41 917.748 1284.99C894.345 1293.57 875.681 1281.03 869.275 1273.69C860.016 1285.37 833.611 1310.05 802.06 1315.33C770.509 1320.6 747.014 1297.95 739.21 1285.96C732.067 1295.17 709.544 1313.99 676.6 1315.61C643.655 1317.22 632.072 1285.48 630.398 1269.4C625.223 1282.33 605.22 1307.62 566.607 1305.44C527.995 1303.26 517 1255.4 516.33 1231.74C507.228 1239.7 482.401 1253.98 455.903 1247.43C429.405 1240.87 423.114 1207.99 423.28 1192.37C416.107 1194.21 397.125 1193.87 378.585 1177.86C360.046 1161.85 373.316 1125.59 382.268 1109.46C365.777 1108.22 330.526 1099.05 321.456 1072.3C312.386 1045.56 328.696 1030.26 337.984 1025.96C332.877 1027.38 320.543 1017.36 312.062 965.887C303.58 914.414 335.368 905.482 352.323 907.45C341.134 896.545 319.47 863.765 322.325 819.886C325.179 776.007 372.222 771.431 395.386 774.628C389.137 763.563 381.432 733.592 400.607 702.225C419.781 670.858 446.48 681.639 457.432 690.95C446.174 677.188 429.822 648.194 454.477 642.318C479.132 636.442 496.849 650.727 502.625 658.604C500.204 642.269 502.923 604.652 533.174 584.868Z" fill="white"/>
<path d="M551.437 383.634C560.931 324.623 611.859 281.232 671.629 281.232H674.513C731.971 281.232 781.605 321.406 793.578 377.603L825.471 527.306C841.608 603.05 783.85 674.409 706.406 674.409H680.735H647.546C572.598 674.409 515.451 607.333 527.355 533.337L551.437 383.634Z" fill="#FAC7C5"/>
<mask id="mask1" mask-type="alpha" maskUnits="userSpaceOnUse" x="525" y="281" width="304" height="394">
<path d="M551.437 383.634C560.931 324.623 611.859 281.232 671.629 281.232H674.513C731.971 281.232 781.605 321.406 793.578 377.603L825.471 527.306C841.608 603.05 783.85 674.409 706.406 674.409H680.735H647.546C572.598 674.409 515.451 607.333 527.355 533.337L551.437 383.634Z" fill="#FFDBD9"/>
</mask>
<g mask="url(#mask1)">
<path d="M550.069 329.113C561.458 267.945 617.25 225.289 679.265 230.336V230.336C737.81 235.101 784.545 281.098 790.243 339.559L808.225 524.065C815.608 599.821 752.44 663.698 676.607 657.161L657.187 655.487L625.761 652.777C554.081 646.598 503.367 579.937 516.537 509.207L550.069 329.113Z" fill="#FFDBD9"/>
<path d="M664.862 180.192C629.305 182.243 635.231 214.666 642.639 230.621C630.388 222.359 598.023 209.082 566.569 222.074C535.115 235.066 563.149 260.537 581.098 271.648C561.154 267.09 520.071 264.127 515.284 288.743C510.498 313.359 557.166 324.642 581.098 327.206C553.746 329.77 541.78 355.412 592.209 363.105C632.553 369.259 665.431 352.563 676.828 343.446C684.805 353.988 708.624 375.071 740.078 375.071C771.532 375.071 777.116 358.546 775.977 350.284C784.239 359.686 805.038 373.874 822.132 355.412C839.227 336.95 815.009 311.251 800.764 300.709C820.138 297.005 858.031 283.957 854.612 261.392C851.193 238.827 803.613 241.163 780.25 245.152C794.781 240.308 817.004 226.518 789.652 210.108C762.301 193.697 718.995 207.259 700.76 216.091C703.609 203.27 700.419 178.141 664.862 180.192Z" fill="#FAC7C5"/>
</g>
<path d="M673.896 563.299V614.583" stroke="#202842" stroke-width="3.04342" stroke-linecap="round" stroke-linejoin="round"/>
<ellipse cx="711.829" cy="421.406" rx="27.8262" ry="34.7827" transform="rotate(-15.7407 711.829 421.406)" fill="white"/>
<circle cx="707.029" cy="420.078" r="10.4348" transform="rotate(-15.7407 707.029 420.078)" fill="#202842"/>
<ellipse rx="27.8261" ry="34.7827" transform="matrix(-0.962499 -0.271284 -0.271283 0.9625 636.617 421.406)" fill="white"/>
<circle r="10.4348" transform="matrix(-0.962499 -0.271284 -0.271284 0.962499 641.417 420.078)" fill="#202842"/>
<path d="M568.985 355.856C575.686 350.44 577.564 341.089 573.589 333.444L561.701 310.585C557.956 303.383 549.943 299.522 542.033 301.344C513.934 307.815 449.368 324.571 426.173 346.554C396.173 374.986 397.028 401.744 413.352 420.551C429.677 439.358 451.816 433.37 474.893 423.969C492.647 416.737 545.531 374.814 568.985 355.856Z" fill="#FED2C4"/>
<path d="M460.359 354.735C478.137 336.957 539.804 317.13 577.697 306.019L607.372 317.982C599.11 324.535 563.225 351.309 517.626 382.087C449.247 428.239 438.136 376.958 460.359 354.735Z" fill="#E4938E"/>
<path d="M782.371 355.856C775.67 350.44 773.792 341.089 777.767 333.444L789.655 310.585C793.4 303.383 801.413 299.522 809.323 301.344C837.422 307.815 901.988 324.571 925.183 346.554C955.183 374.986 954.328 401.744 938.004 420.551C921.679 439.358 899.54 433.37 876.463 423.969C858.709 416.737 805.825 374.814 782.371 355.856Z" fill="#FED2C4"/>
<path d="M890.997 354.735C873.219 336.957 811.552 317.13 773.659 306.019L743.984 317.982C752.246 324.535 788.131 351.309 833.73 382.087C902.109 428.239 913.22 376.958 890.997 354.735Z" fill="#E4938E"/>
<path d="M652.874 170.233C617.317 172.285 623.243 204.707 630.651 220.662C618.4 212.4 586.035 199.123 554.581 212.115C523.126 225.107 551.161 250.578 569.11 261.69C549.166 257.131 508.083 254.168 503.296 278.784C498.51 303.401 545.178 314.683 569.11 317.247C541.758 319.811 529.792 345.453 580.221 353.146C620.565 359.3 653.443 342.604 664.84 333.487C672.817 344.029 696.636 365.112 728.09 365.112C759.544 365.112 765.128 348.587 763.989 340.325C772.251 349.727 793.049 363.916 810.144 345.453C827.239 326.991 803.021 301.292 788.776 290.751C808.15 287.047 846.043 273.998 842.624 251.433C839.205 228.868 791.625 231.204 768.262 235.193C782.793 230.35 805.016 216.56 777.664 200.149C750.313 183.738 707.006 197.3 688.772 206.132C691.621 193.311 688.43 168.182 652.874 170.233Z" fill="white"/>
<path fill-rule="evenodd" clip-rule="evenodd" d="M624.955 262.438C635.189 266.801 645.259 278.812 652.092 285.645C652.766 286.319 652.766 287.413 652.092 288.088C651.417 288.763 650.323 288.763 649.648 288.088C642.944 281.384 632.483 272.817 622.841 268.706C618.006 266.644 613.625 265.811 610.109 266.634C606.748 267.42 603.855 269.796 602.042 274.98C601.727 275.881 600.741 276.355 599.84 276.04C598.94 275.725 598.465 274.74 598.78 273.839C600.906 267.762 605.645 261.304 610.369 260.2C614.937 259.131 619.852 260.262 624.955 262.438Z" fill="#DCDCDC"/>
<path fill-rule="evenodd" clip-rule="evenodd" d="M560.587 699.219C570.821 703.583 580.891 715.594 587.724 722.426C588.398 723.101 588.398 724.195 587.724 724.869C587.049 725.544 585.955 725.544 585.28 724.869C578.576 718.166 568.115 709.598 558.473 705.487C553.638 703.426 549.257 702.593 545.741 703.415C542.38 704.201 539.487 706.578 537.674 711.762C537.359 712.662 536.373 713.137 535.473 712.822C534.572 712.507 534.097 711.521 534.412 710.621C536.538 704.544 541.277 698.086 546.001 696.981C550.569 695.913 555.485 697.043 560.587 699.219Z" fill="#DCDCDC"/>
<path fill-rule="evenodd" clip-rule="evenodd" d="M880.707 724.764C888.566 728.115 896.3 737.339 901.547 742.586C902.065 743.104 902.065 743.944 901.547 744.463C901.029 744.981 900.189 744.981 899.671 744.463C894.522 739.314 886.488 732.735 879.083 729.577C875.37 727.994 872.005 727.354 869.305 727.986C866.724 728.59 864.502 730.415 863.109 734.396C862.867 735.088 862.111 735.452 861.419 735.21C860.727 734.968 860.363 734.211 860.605 733.52C862.237 728.853 865.877 723.893 869.504 723.045C873.013 722.224 876.788 723.093 880.707 724.764Z" fill="#DCDCDC"/>
<path fill-rule="evenodd" clip-rule="evenodd" d="M678.408 1106.37C686.267 1109.72 694.001 1118.95 699.248 1124.2C699.767 1124.71 699.767 1125.55 699.248 1126.07C698.73 1126.59 697.89 1126.59 697.372 1126.07C692.223 1120.92 684.189 1114.34 676.784 1111.19C673.071 1109.6 669.706 1108.96 667.006 1109.6C664.425 1110.2 662.203 1112.02 660.811 1116.01C660.569 1116.7 659.812 1117.06 659.12 1116.82C658.428 1116.58 658.064 1115.82 658.306 1115.13C659.938 1110.46 663.578 1105.5 667.206 1104.65C670.714 1103.83 674.489 1104.7 678.408 1106.37Z" fill="#DCDCDC"/>
<path fill-rule="evenodd" clip-rule="evenodd" d="M611.036 855.541C600.803 859.905 590.732 871.916 583.9 878.748C583.225 879.423 583.225 880.516 583.9 881.191C584.574 881.866 585.668 881.866 586.343 881.191C593.047 874.487 603.509 865.92 613.15 861.809C617.985 859.748 622.366 858.915 625.883 859.737C629.243 860.523 632.136 862.9 633.95 868.083C634.265 868.984 635.25 869.459 636.151 869.144C637.052 868.829 637.526 867.843 637.211 866.942C635.085 860.865 630.346 854.408 625.623 853.303C621.054 852.235 616.139 853.365 611.036 855.541Z" fill="#DCDCDC"/>
<path fill-rule="evenodd" clip-rule="evenodd" d="M637.614 981.844C631.989 984.242 626.454 990.844 622.699 994.599C622.328 994.97 622.328 995.571 622.699 995.942C623.07 996.313 623.671 996.313 624.042 995.942C627.727 992.258 633.476 987.549 638.776 985.289C641.433 984.156 643.841 983.698 645.774 984.15C647.621 984.582 649.211 985.889 650.208 988.738C650.381 989.233 650.923 989.494 651.418 989.321C651.913 989.147 652.174 988.606 652 988.111C650.832 984.771 648.227 981.221 645.631 980.614C643.12 980.027 640.418 980.648 637.614 981.844Z" fill="#DCDCDC"/>
<path fill-rule="evenodd" clip-rule="evenodd" d="M654.062 736.635C659.687 739.033 665.221 745.635 668.977 749.39C669.348 749.761 669.348 750.362 668.977 750.733C668.606 751.104 668.005 751.104 667.634 750.733C663.949 747.048 658.199 742.34 652.9 740.08C650.242 738.947 647.834 738.489 645.902 738.941C644.055 739.373 642.465 740.679 641.468 743.529C641.295 744.024 640.753 744.284 640.258 744.111C639.763 743.938 639.502 743.396 639.675 742.901C640.844 739.561 643.448 736.012 646.045 735.405C648.556 734.818 651.257 735.439 654.062 736.635Z" fill="#DCDCDC"/>
<path fill-rule="evenodd" clip-rule="evenodd" d="M812.838 686.06C807.214 688.458 801.679 695.06 797.923 698.815C797.552 699.186 797.552 699.787 797.923 700.158C798.294 700.529 798.895 700.529 799.266 700.158C802.951 696.474 808.701 691.765 814 689.505C816.658 688.372 819.066 687.914 820.998 688.366C822.846 688.798 824.436 690.105 825.432 692.954C825.605 693.449 826.147 693.71 826.642 693.537C827.137 693.363 827.398 692.822 827.225 692.327C826.056 688.987 823.452 685.437 820.855 684.83C818.344 684.243 815.643 684.864 812.838 686.06Z" fill="#DCDCDC"/>
<path fill-rule="evenodd" clip-rule="evenodd" d="M564.562 1104.45C558.938 1106.85 553.403 1113.45 549.647 1117.21C549.277 1117.58 549.277 1118.18 549.647 1118.55C550.018 1118.92 550.619 1118.92 550.99 1118.55C554.675 1114.86 560.425 1110.16 565.724 1107.9C568.382 1106.76 570.79 1106.31 572.722 1106.76C574.57 1107.19 576.16 1108.5 577.156 1111.34C577.33 1111.84 577.871 1112.1 578.366 1111.93C578.861 1111.75 579.122 1111.21 578.949 1110.72C577.781 1107.38 575.176 1103.83 572.58 1103.22C570.069 1102.63 567.367 1103.26 564.562 1104.45Z" fill="#DCDCDC"/>
<path fill-rule="evenodd" clip-rule="evenodd" d="M711.206 233.21C704.03 238.139 699.337 249.944 695.749 256.767C695.394 257.441 695.73 258.426 696.498 258.969C697.266 259.511 698.177 259.404 698.531 258.731C702.052 252.036 708.127 243.296 714.887 238.652C718.277 236.323 721.667 235.145 724.844 235.544C727.881 235.924 731.017 237.784 734.116 242.278C734.654 243.059 735.62 243.391 736.272 243.019C736.925 242.648 737.017 241.713 736.479 240.932C732.846 235.663 726.923 230.306 722.654 229.771C718.526 229.254 714.783 230.752 711.206 233.21Z" fill="#DCDCDC"/>
<path fill-rule="evenodd" clip-rule="evenodd" d="M716.882 299.75C722.54 303.637 726.241 312.946 729.07 318.325C729.349 318.856 729.085 319.634 728.479 320.061C727.873 320.489 727.156 320.405 726.876 319.874C724.1 314.595 719.31 307.704 713.979 304.042C711.306 302.205 708.634 301.277 706.128 301.591C703.734 301.891 701.261 303.357 698.818 306.901C698.393 307.517 697.632 307.778 697.117 307.485C696.603 307.192 696.53 306.455 696.954 305.84C699.819 301.685 704.489 297.461 707.855 297.039C711.111 296.631 714.061 297.812 716.882 299.75Z" fill="#DCDCDC"/>
<path d="M701.424 546.854C696.012 553.932 684.2 566.807 673.906 566.992C663.392 567.18 650.827 553.971 645.385 546.854C631.361 528.513 649.12 518.034 673.906 518.888C698.692 519.743 715.176 528.868 701.424 546.854Z" fill="#202842"/>
<path d="M610.65 590.636C623.678 609.681 662.489 619.347 697.337 612.228C713.744 608.875 726.347 602.4 733.732 594.498" stroke="#202842" stroke-width="3.04342" stroke-linecap="round" stroke-linejoin="round"/>
<path d="M694.37 662.157C692.531 724.686 589.39 764.839 538.049 777.1C493.604 805.452 441.959 884.683 590.924 882.844C777.131 880.545 696.669 583.996 694.37 662.157Z" fill="#FEB642"/>
<mask id="mask2" mask-type="alpha" maskUnits="userSpaceOnUse" x="491" y="649" width="223" height="234">
<path d="M694.37 662.157C692.531 724.686 589.39 764.839 538.049 777.1C493.604 805.452 441.959 884.683 590.924 882.844C777.131 880.545 696.669 583.996 694.37 662.157Z" fill="#FEB642"/>
</mask>
<g mask="url(#mask2)">
<g style="mix-blend-mode:screen">
<path d="M691.169 639.87C680.57 701.521 572.812 726.796 520.258 731.728C472.274 753.56 410.016 824.755 557.765 843.848C742.45 867.715 704.419 562.806 691.169 639.87Z" fill="#FEB642" fill-opacity="0.4"/>
</g>
<g style="mix-blend-mode:multiply">
<path d="M668.968 897.314C659.773 803.521 603.834 761.682 577.014 752.487C580.846 746.356 589.428 734.556 593.106 736.395C661.152 747.429 707.283 819.153 721.842 853.636L668.968 897.314Z" fill="#874C16" fill-opacity="0.5"/>
</g>
<g style="mix-blend-mode:multiply">
<path d="M723.091 789.119C699.828 736.631 659.47 723.135 642.199 722.948C643.242 718.669 645.948 710.202 648.427 710.562C689.894 703.925 730.297 736.583 745.315 753.741L723.091 789.119Z" fill="#874C16" fill-opacity="0.5"/>
</g>
</g>
<path d="M152.573 662.157C154.412 724.686 257.554 764.839 308.895 777.1C353.34 805.452 404.985 884.683 256.019 882.844C69.8126 880.545 150.274 583.996 152.573 662.157Z" fill="#FEB642"/>
<mask id="mask3" mask-type="alpha" maskUnits="userSpaceOnUse" x="133" y="649" width="222" height="234">
<path d="M152.573 662.157C154.412 724.686 257.554 764.839 308.895 777.1C353.34 805.452 404.985 884.683 256.019 882.844C69.8126 880.545 150.274 583.996 152.573 662.157Z" fill="#FEB642"/>
</mask>
<g mask="url(#mask3)">
<g style="mix-blend-mode:screen">
<path d="M155.774 639.87C166.374 701.521 274.131 726.796 326.685 731.728C374.67 753.56 436.927 824.755 289.179 843.848C104.494 867.715 142.525 562.806 155.774 639.87Z" fill="#FEB642" fill-opacity="0.4"/>
</g>
<g style="mix-blend-mode:multiply">
<path d="M177.975 897.314C187.171 803.521 243.109 761.682 269.929 752.487C266.098 746.356 257.516 734.556 253.837 736.395C185.791 747.429 139.661 819.153 125.102 853.636L177.975 897.314Z" fill="#874C16" fill-opacity="0.5"/>
</g>
<g style="mix-blend-mode:multiply">
<path d="M123.852 789.119C147.116 736.631 187.474 723.135 204.745 722.948C203.702 718.669 200.996 710.202 198.516 710.562C157.049 703.925 116.647 736.583 101.629 753.741L123.852 789.119Z" fill="#874C16" fill-opacity="0.5"/>
</g>
</g>
<ellipse cx="457.474" cy="1358.62" rx="296.552" ry="319.54" fill="#E75F4D"/>
<mask id="mask4" mask-type="alpha" maskUnits="userSpaceOnUse" x="160" y="1039" width="595" height="640">
<ellipse cx="457.474" cy="1358.62" rx="296.552" ry="319.54" fill="#E75F4D"/>
</mask>
<g mask="url(#mask4)">
<g style="mix-blend-mode:multiply">
<ellipse cx="454.778" cy="946.216" rx="215.695" ry="191.429" fill="#F26A58" fill-opacity="0.4"/>
</g>
</g>
<path d="M291.589 721.262C291.589 726.655 334.728 726.654 350.905 750.92L512.678 756.312C512.678 756.312 540.884 736.919 569.296 723.986C595.915 711.87 620.534 707.809 617.829 702.388C609.743 686.183 458.215 710.477 456.058 710.477C455.101 710.477 457.254 704.092 461.449 699.721C466.706 694.243 472.233 689.805 469.539 688.907C461.454 686.212 421.008 705.084 421.008 705.084C421.008 705.084 409.972 685.896 391.348 675.455C370.047 663.514 340.482 660.355 334.728 664.671C328.477 669.359 350.905 675.454 364.386 691.632C377.867 707.811 377.869 726.654 377.869 726.654C329.335 705.084 291.589 715.868 291.589 721.262Z" fill="#F26A58"/>
<ellipse cx="429.888" cy="918.005" rx="195.402" ry="190.805" fill="#F26A58"/>
<mask id="mask5" mask-type="alpha" maskUnits="userSpaceOnUse" x="220" y="722" width="387" height="383">
<ellipse cx="413.796" cy="913.407" rx="193.103" ry="190.805" fill="#FA7766"/>
</mask>
<g mask="url(#mask5)">
<path d="M602.297 905.747C602.297 1007.32 507.608 1089.66 390.803 1089.66C273.998 1089.66 179.309 1007.32 179.309 905.747C179.309 804.178 268.964 740.229 397.7 735.633C526.435 731.036 602.297 804.178 602.297 905.747Z" fill="#FF8676"/>
</g>
<path d="M377.517 1019.87L386.671 996.655C370.437 990.422 359.41 979.023 355.925 974.103L336.791 995.765C332.272 1000.88 333.58 1008.85 339.495 1012.26L362.099 1025.27C367.808 1028.55 375.102 1026 377.517 1019.87Z" fill="white"/>
<path d="M522.063 998.72L503.951 981.55C492.1 994.277 477.406 1000.24 471.54 1001.64L484.478 1027.48C487.533 1033.58 495.417 1035.35 500.786 1031.14L521.302 1015.04C526.483 1010.97 526.843 1003.25 522.063 998.72Z" fill="white"/>
<path d="M323.293 929.863C352.609 983.383 403.403 1015.23 453.875 1005.8C487.569 999.507 514.754 976.003 531.488 943.076" stroke="#202842" stroke-width="5.39433"/>
<ellipse cx="426.506" cy="856.485" rx="66.66" ry="83.3251" transform="rotate(4.12658 426.506 856.485)" fill="white"/>
<ellipse cx="429.511" cy="849.065" rx="24.9975" ry="24.9975" transform="rotate(4.12659 429.511 849.065)" fill="#202842"/>
<ellipse cx="1343.58" cy="872.82" rx="263.117" ry="262.069" fill="#EA847D"/>
<mask id="mask6" mask-type="alpha" maskUnits="userSpaceOnUse" x="1080" y="613" width="527" height="785">
<ellipse cx="1343.58" cy="1005.83" rx="263.117" ry="391.875" fill="#F29993"/>
</mask>
<g mask="url(#mask6)">
<ellipse cx="1306.01" cy="992.076" rx="263.117" ry="391.875" fill="#F29993"/>
</g>
<ellipse cx="1344.83" cy="1078.16" rx="186.207" ry="319.54" fill="#F8AEA9"/>
<path d="M1543.62 350.609C1496.79 346.66 1455 371.528 1439.96 384.456C1460.64 419.478 1504.27 487.831 1513.3 481.062C1524.58 472.6 1602.14 355.545 1543.62 350.609Z" fill="#F29993"/>
<path d="M1141.92 350.609C1188.74 346.66 1230.53 371.528 1245.57 384.456C1224.89 419.478 1181.26 487.831 1172.24 481.062C1160.96 472.6 1083.39 355.545 1141.92 350.609Z" fill="#F29993"/>
<ellipse cx="1342.52" cy="524.552" rx="208.555" ry="158.98" fill="#ED8C85"/>
<mask id="mask7" mask-type="alpha" maskUnits="userSpaceOnUse" x="1133" y="365" width="419" height="319">
<ellipse cx="1342.52" cy="524.654" rx="208.554" ry="158.98" fill="#F8AEA9"/>
</mask>
<g mask="url(#mask7)">
<ellipse cx="1311.23" cy="501.666" rx="208.555" ry="158.98" fill="#F8AEA9"/>
<path d="M1304.26 469.364C1297.61 459.315 1287.71 453.89 1278.95 456.585C1270.49 459.191 1265.41 468.676 1265.22 480.196" stroke="black" stroke-width="4.81189" stroke-linecap="round" stroke-linejoin="round"/>
<path d="M1400.34 480.473C1399.91 468.428 1394.3 458.634 1385.43 456.362C1376.85 454.165 1367.57 459.603 1361.39 469.329" stroke="black" stroke-width="4.81189" stroke-linecap="round" stroke-linejoin="round"/>
</g>
<ellipse cx="1468.09" cy="523.847" rx="19.8466" ry="32.105" transform="rotate(80.3711 1468.09 523.847)" fill="#FFCBC8"/>
<ellipse rx="19.8466" ry="32.1051" transform="matrix(-0.167266 0.985912 0.985912 0.167266 1216.8 523.847)" fill="#FFCBC8"/>
<ellipse cx="1342.53" cy="562.69" rx="80.3448" ry="61.5406" fill="#FFDBD9"/>
<mask id="mask8" mask-type="alpha" maskUnits="userSpaceOnUse" x="1262" y="501" width="161" height="124">
<ellipse cx="1342.53" cy="562.69" rx="80.3448" ry="61.5406" fill="#FFDBD9"/>
</mask>
<g mask="url(#mask8)">
<ellipse cx="1330.14" cy="553.495" rx="80.3447" ry="61.5406" fill="#FFEAE9"/>
</g>
<path d="M1356.94 585.16C1344.5 580.368 1346.86 537.677 1370.9 550.647C1394.94 563.616 1369.38 589.952 1356.94 585.16Z" fill="#CD928F"/>
<path d="M1320.41 585.16C1332.85 580.368 1330.5 537.677 1306.45 550.647C1282.41 563.616 1307.97 589.952 1320.41 585.16Z" fill="#CD928F"/>
<path d="M1483.68 398.558C1497.22 382.763 1550.67 361.185 1555.61 370.352C1560.54 379.519 1530.93 438.047 1522.46 445.098C1510.05 420.277 1491.44 403.729 1483.68 398.558Z" fill="#E17A73"/>
<path d="M1201.86 398.558C1188.32 382.763 1134.87 361.185 1129.94 370.352C1125 379.519 1154.62 438.047 1163.08 445.098C1175.49 420.277 1194.1 403.729 1201.86 398.558Z" fill="#E17A73"/>
<ellipse cx="1538.99" cy="1763.2" rx="415.118" ry="698.152" fill="#AF6A2A"/>
<mask id="mask9" mask-type="alpha" maskUnits="userSpaceOnUse" x="1123" y="1065" width="832" height="1397">
<ellipse cx="1538.99" cy="1763.2" rx="415.118" ry="698.152" fill="#AF6A2A"/>
</mask>
<g mask="url(#mask9)">
<ellipse cx="1458.71" cy="1765.34" rx="415.117" ry="698.152" transform="rotate(7.06107 1458.71 1765.34)" fill="#C0742D"/>
<g style="mix-blend-mode:multiply">
<path d="M1453.38 810.302C1502.16 776.424 1689.15 771.007 1724.38 810.302C1759.61 849.598 1840.91 1006.78 1773.16 1089.44C1705.4 1172.09 1458.79 1155.83 1396.46 1089.44C1334.13 1023.04 1404.6 844.181 1453.38 810.302Z" fill="#BE7B3C" fill-opacity="0.2"/>
</g>
<path d="M1859.76 1756.91C1859.76 2055.64 1716.14 2297.82 1538.98 2297.82C1361.83 2297.82 1218.21 2055.64 1218.21 1756.91C1218.21 1596.87 1259.43 1453.06 1324.94 1354.02C1328.58 1348.52 1380.12 1322.91 1383.91 1317.68C1388.99 1310.67 1346.39 1324.17 1351.72 1317.68C1404.42 1253.69 1469.09 1216 1538.98 1216C1575.97 1216 1611.5 1226.55 1644.56 1245.98C1648.28 1248.16 1633.12 1252.76 1636.78 1255.17C1640.13 1257.38 1662.31 1257.38 1665.6 1259.77C1779.8 1342.58 1859.76 1534 1859.76 1756.91Z" fill="#DA9C63"/>
</g>
<path d="M1670.43 727.885C1661.58 735.308 1660.36 758.492 1659.22 772.01L1699.23 826.575C1719.98 820.273 1761.98 804.657 1763.95 792.61C1766.42 777.551 1751.31 749.463 1732.5 737.415C1713.68 725.366 1679.27 720.461 1670.43 727.885Z" fill="#AF6A2A"/>
<path d="M1409.21 727.885C1418.06 735.308 1419.29 758.492 1420.42 772.01L1380.41 826.575C1359.66 820.273 1317.66 804.657 1315.69 792.61C1313.23 777.551 1328.33 749.463 1347.15 737.415C1365.96 725.366 1400.37 720.461 1409.21 727.885Z" fill="#AF6A2A"/>
<path d="M1407.41 778.12C1456.19 744.241 1643.18 738.824 1678.41 778.12C1713.64 817.415 1794.94 974.597 1727.18 1057.25C1659.43 1139.91 1412.82 1123.65 1350.49 1057.25C1288.16 990.857 1358.62 811.998 1407.41 778.12Z" fill="#A76528"/>
<mask id="mask10" mask-type="alpha" maskUnits="userSpaceOnUse" x="1325" y="750" width="429" height="364">
<path d="M1407.41 778.12C1456.19 744.241 1643.18 738.824 1678.41 778.12C1713.64 817.415 1794.94 974.597 1727.18 1057.25C1659.43 1139.91 1412.82 1123.65 1350.49 1057.25C1288.16 990.857 1358.62 811.998 1407.41 778.12Z" fill="#EBB25C"/>
</mask>
<g mask="url(#mask10)">
<path d="M1361.43 764.327C1410.21 730.448 1597.2 725.031 1632.43 764.327C1667.66 803.622 1748.96 960.804 1681.21 1043.46C1613.45 1126.12 1366.84 1109.86 1304.51 1043.46C1242.18 977.064 1312.65 798.205 1361.43 764.327Z" fill="#C0742D"/>
<ellipse rx="10.4348" ry="10.4348" transform="matrix(0.962499 -0.271284 0.271283 0.9625 1571.49 855.484)" fill="#202842"/>
<ellipse rx="10.4348" ry="10.4348" transform="matrix(-0.9625 -0.271283 -0.271284 0.962499 1502.99 855.484)" fill="#202842"/>
</g>
<path d="M1635.42 1004.37C1616.86 1028.67 1576.34 1057.6 1541.04 1058.23C1504.98 1058.88 1461.88 1028.81 1443.21 1004.37C1395.11 941.409 1456.02 905.434 1541.04 908.368C1626.05 911.303 1682.59 942.627 1635.42 1004.37Z" fill="#FFDA9D"/>
<path d="M1562.66 972.409C1558.37 978.02 1549.01 988.226 1540.85 988.372C1532.51 988.521 1522.55 978.051 1518.24 972.41C1507.12 957.872 1521.2 949.565 1540.85 950.243C1560.49 950.92 1573.56 958.153 1562.66 972.409Z" fill="#202842"/>
<path d="M1610.52 981.363C1610.52 987.503 1608.95 993.275 1606.19 998.301C1600.2 1009.2 1588.61 1016.59 1575.29 1016.59C1555.83 1016.59 1540.06 1000.82 1540.06 981.363" stroke="#202842" stroke-width="3.04342"/>
<path d="M1469.6 981.363C1469.6 987.503 1471.17 993.275 1473.93 998.301C1479.92 1009.2 1491.51 1016.59 1504.83 1016.59C1524.29 1016.59 1540.06 1000.82 1540.06 981.363" stroke="#202842" stroke-width="3.04342"/>
<path d="M1687.77 748.308C1674.89 751.696 1682.34 774.05 1683.7 776.086C1685.05 778.121 1698.61 795.74 1704.7 799.121C1710.8 802.502 1741.55 793.487 1739.93 784.216C1735.19 757.118 1700.64 744.92 1687.77 748.308Z" fill="#84470F"/>
<path d="M1391.87 748.308C1404.75 751.696 1397.3 774.05 1395.94 776.086C1394.59 778.121 1381.03 795.74 1374.94 799.121C1368.84 802.502 1338.09 793.487 1339.71 784.216C1344.45 757.118 1379 744.92 1391.87 748.308Z" fill="#84470F"/>
<ellipse cx="989.462" cy="1727.99" rx="299.807" ry="698.152" fill="#E78A1D"/>
<mask id="mask11" mask-type="alpha" maskUnits="userSpaceOnUse" x="691" y="1036" width="601" height="1397">
<ellipse cx="991.427" cy="1734.39" rx="299.807" ry="698.152" fill="#E78A1D"/>
</mask>
<g mask="url(#mask11)">
<ellipse cx="883.299" cy="1727.2" rx="337.931" ry="698.851" transform="rotate(7.49139 883.299 1727.2)" fill="#FD9B29"/>
<path d="M1222.18 1721.7C1222.18 2020.44 1118.46 2262.61 990.513 2262.61C862.565 2262.61 758.844 2020.44 758.844 1721.7C758.844 1576.31 783.41 1444.33 823.378 1347.13C827.672 1336.69 855.131 1306.16 859.768 1296.55C861.617 1292.72 850.573 1294.25 836.78 1303.45C825.286 1278.16 934.188 1180.79 990.513 1180.79C1055.2 1180.79 1113.7 1242.7 1155.73 1342.53C1158.57 1349.26 1135.25 1337.77 1137.93 1344.83C1139.36 1348.61 1143.38 1342.53 1168.24 1374.71C1193.1 1406.9 1222.18 1589.64 1222.18 1721.7Z" fill="#FFDA9D"/>
<g style="mix-blend-mode:multiply">
<path d="M896.527 716.241C903.853 718.907 911.386 721.648 911.11 723.847C911.001 724.716 907.022 724.425 900.792 723.97C888.113 723.045 866.112 721.438 848.435 727.531C817.712 738.121 813.41 756.956 814.025 760.627C814.639 764.298 844.133 762.466 844.133 762.466C844.133 762.466 798.049 774.111 763.639 817.012C729.229 859.914 725.543 903.423 729.844 907.107C743.977 916.913 786.989 878.907 786.989 878.907C786.989 878.907 772.856 899.139 751.35 960.428C738.447 1008.23 750.12 1032.73 757.495 1037.03C764.869 1041.33 796.82 1010.68 796.82 1010.68C796.82 1010.68 784.531 1037.03 782.073 1089.13C779.616 1141.23 802.35 1156.54 809.724 1155.93C827.543 1154.47 837.374 1116.09 837.374 1116.09C837.374 1116.09 837.374 1144.29 841.062 1161.45C844.749 1178.61 856.423 1192.09 860.11 1192.1C863.797 1192.1 866.868 1166.96 866.868 1166.96C866.868 1166.96 877.929 1214.77 917.869 1242.97C928.273 1242.97 927.133 1225.91 926.36 1214.36C925.924 1207.83 925.605 1203.06 927.554 1204.13C930.278 1205.62 932.19 1210.02 934.87 1216.18C938.892 1225.43 944.644 1238.66 957.47 1251.99C978.838 1274.22 1000.21 1274.22 1000.21 1274.22C1000.21 1274.22 1021.57 1274.22 1042.94 1251.99C1055.77 1238.66 1061.52 1225.43 1065.54 1216.18C1068.22 1210.02 1070.13 1205.62 1072.86 1204.13C1074.81 1203.06 1074.49 1207.83 1074.05 1214.36C1073.28 1225.91 1072.14 1242.97 1082.54 1242.97C1122.48 1214.77 1133.54 1166.96 1133.54 1166.96C1133.54 1166.96 1136.62 1192.1 1140.3 1192.1C1143.99 1192.09 1155.66 1178.61 1159.35 1161.45C1163.04 1144.29 1163.04 1116.09 1163.04 1116.09C1163.04 1116.09 1172.87 1154.47 1190.69 1155.93C1198.06 1156.54 1220.8 1141.23 1218.34 1089.13C1215.88 1037.03 1203.59 1010.68 1203.59 1010.68C1203.59 1010.68 1235.54 1041.33 1242.92 1037.03C1250.29 1032.73 1261.97 1008.23 1249.06 960.428C1227.56 899.139 1213.42 878.907 1213.42 878.907C1213.42 878.907 1256.44 916.913 1270.57 907.107C1274.87 903.423 1271.18 859.914 1236.77 817.012C1202.36 774.111 1156.28 762.466 1156.28 762.466C1156.28 762.466 1185.77 764.298 1186.39 760.627C1187 756.956 1182.7 738.121 1151.98 727.531C1134.3 721.438 1112.3 723.045 1099.62 723.97C1093.39 724.425 1089.41 724.716 1089.3 723.847C1089.03 721.648 1096.56 718.907 1103.89 716.241C1112.87 712.972 1121.54 709.816 1115.11 707.912C1098.25 702.922 1074.73 705.14 1053.35 709.302C1050.95 709.769 1055.53 701.2 1060 692.857C1064.25 684.889 1068.4 677.128 1066.26 677.639C1066.26 677.639 1051.83 677.642 1029.06 690.512C1006.28 703.382 1000.21 716.252 1000.21 716.252C1000.21 716.252 994.133 703.382 971.356 690.512C948.579 677.642 934.153 677.639 934.153 677.639C932.009 677.128 936.158 684.889 940.417 692.857C944.878 701.2 949.459 709.769 947.06 709.302C925.686 705.14 902.162 702.922 885.302 707.912C878.871 709.816 887.543 712.972 896.527 716.241Z" fill="#6D3B0C" fill-opacity="0.2"/>
</g>
</g>
<path d="M885.035 700.695C892.361 703.361 899.893 706.102 899.617 708.301C899.509 709.17 895.53 708.879 889.3 708.424C876.621 707.499 854.62 705.892 836.943 711.985C806.22 722.575 801.918 741.41 802.533 745.081C803.147 748.752 832.641 746.92 832.641 746.92C832.641 746.92 786.557 758.564 752.147 801.466C717.737 844.368 714.051 887.877 718.352 891.561C732.485 901.367 775.496 863.361 775.496 863.361C775.496 863.361 761.364 883.593 739.858 944.882C726.955 992.687 738.628 1017.19 746.002 1021.49C753.376 1025.78 785.328 995.132 785.328 995.132C785.328 995.132 773.039 1021.49 770.581 1073.59C768.123 1125.69 790.858 1140.99 798.232 1140.38C816.051 1138.92 825.882 1100.55 825.882 1100.55C825.882 1100.55 825.882 1128.75 829.57 1145.91C833.257 1163.07 844.931 1176.55 848.618 1176.55C852.305 1176.56 855.376 1151.42 855.376 1151.42C855.376 1151.42 866.437 1199.23 906.377 1227.42C916.781 1227.42 915.64 1210.36 914.868 1198.81C914.432 1192.28 914.113 1187.52 916.062 1188.58C918.786 1190.07 920.698 1194.47 923.377 1200.63C927.4 1209.88 933.152 1223.11 945.978 1236.45C967.346 1258.67 988.714 1258.67 988.714 1258.67C988.714 1258.67 1010.08 1258.67 1031.45 1236.45C1044.28 1223.11 1050.03 1209.88 1054.05 1200.63C1056.73 1194.47 1058.64 1190.07 1061.37 1188.58C1063.32 1187.52 1063 1192.28 1062.56 1198.81C1061.79 1210.36 1060.65 1227.42 1071.05 1227.42C1110.99 1199.23 1122.05 1151.42 1122.05 1151.42C1122.05 1151.42 1125.12 1176.56 1128.81 1176.55C1132.5 1176.55 1144.17 1163.07 1147.86 1145.91C1151.55 1128.75 1151.55 1100.55 1151.55 1100.55C1151.55 1100.55 1161.38 1138.92 1179.2 1140.38C1186.57 1140.99 1209.31 1125.69 1206.85 1073.59C1204.39 1021.49 1192.1 995.132 1192.1 995.132C1192.1 995.132 1224.05 1025.78 1231.43 1021.49C1238.8 1017.19 1250.47 992.687 1237.57 944.882C1216.06 883.593 1201.93 863.361 1201.93 863.361C1201.93 863.361 1244.94 901.367 1259.08 891.561C1263.38 887.877 1259.69 844.368 1225.28 801.466C1190.87 758.564 1144.79 746.92 1144.79 746.92C1144.79 746.92 1174.28 748.752 1174.9 745.081C1175.51 741.41 1171.21 722.575 1140.49 711.985C1122.81 705.892 1100.81 707.499 1088.13 708.424C1081.9 708.879 1077.92 709.17 1077.81 708.301C1077.54 706.102 1085.07 703.361 1092.39 700.695C1101.38 697.426 1110.05 694.27 1103.62 692.366C1086.76 687.376 1063.23 689.594 1041.86 693.756C1039.46 694.223 1044.04 685.654 1048.5 677.31C1052.76 669.343 1056.91 661.582 1054.77 662.093C1054.77 662.093 1040.34 662.096 1017.57 674.966C994.788 687.836 988.714 700.706 988.714 700.706C988.714 700.706 982.64 687.836 959.863 674.966C937.087 662.096 922.661 662.093 922.661 662.093C920.517 661.582 924.666 669.343 928.925 677.31C933.386 685.654 937.967 694.223 935.568 693.756C914.194 689.594 890.67 687.376 873.81 692.366C867.379 694.27 876.051 697.426 885.035 700.695Z" fill="#6D3B0C"/>
<mask id="mask12" mask-type="alpha" maskUnits="userSpaceOnUse" x="716" y="662" width="545" height="597">
<path d="M885.035 700.695C892.361 703.361 899.893 706.102 899.617 708.301C899.509 709.17 895.53 708.879 889.3 708.424C876.621 707.499 854.62 705.892 836.943 711.985C806.22 722.575 801.918 741.41 802.533 745.081C803.147 748.752 832.641 746.92 832.641 746.92C832.641 746.92 786.557 758.564 752.147 801.466C717.737 844.368 714.051 887.877 718.352 891.561C732.485 901.367 775.496 863.361 775.496 863.361C775.496 863.361 761.364 883.593 739.858 944.882C726.955 992.687 738.628 1017.19 746.002 1021.49C753.376 1025.78 785.328 995.132 785.328 995.132C785.328 995.132 773.039 1021.49 770.581 1073.59C768.123 1125.69 790.858 1140.99 798.232 1140.38C816.051 1138.92 825.882 1100.55 825.882 1100.55C825.882 1100.55 825.882 1128.75 829.57 1145.91C833.257 1163.07 844.931 1176.55 848.618 1176.55C852.305 1176.56 855.376 1151.42 855.376 1151.42C855.376 1151.42 866.437 1199.23 906.377 1227.42C916.781 1227.42 915.64 1210.36 914.868 1198.81C914.432 1192.28 914.113 1187.52 916.062 1188.58C918.786 1190.07 920.698 1194.47 923.377 1200.63C927.4 1209.88 933.152 1223.11 945.978 1236.45C967.346 1258.67 988.714 1258.67 988.714 1258.67C988.714 1258.67 1010.08 1258.67 1031.45 1236.45C1044.28 1223.11 1050.03 1209.88 1054.05 1200.63C1056.73 1194.47 1058.64 1190.07 1061.37 1188.58C1063.32 1187.52 1063 1192.28 1062.56 1198.81C1061.79 1210.36 1060.65 1227.42 1071.05 1227.42C1110.99 1199.23 1122.05 1151.42 1122.05 1151.42C1122.05 1151.42 1125.12 1176.56 1128.81 1176.55C1132.5 1176.55 1144.17 1163.07 1147.86 1145.91C1151.55 1128.75 1151.55 1100.55 1151.55 1100.55C1151.55 1100.55 1161.38 1138.92 1179.2 1140.38C1186.57 1140.99 1209.31 1125.69 1206.85 1073.59C1204.39 1021.49 1192.1 995.132 1192.1 995.132C1192.1 995.132 1224.05 1025.78 1231.43 1021.49C1238.8 1017.19 1250.47 992.687 1237.57 944.882C1216.06 883.593 1201.93 863.361 1201.93 863.361C1201.93 863.361 1244.94 901.367 1259.08 891.561C1263.38 887.877 1259.69 844.368 1225.28 801.466C1190.87 758.564 1144.79 746.92 1144.79 746.92C1144.79 746.92 1174.28 748.752 1174.9 745.081C1175.51 741.41 1171.21 722.575 1140.49 711.985C1122.81 705.892 1100.81 707.499 1088.13 708.424C1081.9 708.879 1077.92 709.17 1077.81 708.301C1077.54 706.102 1085.07 703.361 1092.39 700.695C1101.38 697.426 1110.05 694.27 1103.62 692.366C1086.76 687.376 1063.23 689.594 1041.86 693.756C1039.46 694.223 1044.04 685.654 1048.5 677.31C1052.76 669.343 1056.91 661.582 1054.77 662.093C1054.77 662.093 1040.34 662.096 1017.57 674.966C994.788 687.836 988.714 700.706 988.714 700.706C988.714 700.706 982.64 687.836 959.863 674.966C937.087 662.096 922.661 662.093 922.661 662.093C920.517 661.582 924.666 669.343 928.925 677.31C933.386 685.654 937.967 694.223 935.568 693.756C914.194 689.594 890.67 687.376 873.81 692.366C867.379 694.27 876.051 697.426 885.035 700.695Z" fill="#874C16"/>
</mask>
<g mask="url(#mask12)">
<path d="M868.917 674.86C876.242 677.525 883.775 680.267 883.499 682.466C883.39 683.334 879.411 683.044 873.181 682.589C860.502 681.663 838.501 680.057 820.824 686.15C790.101 696.74 785.799 715.575 786.414 719.246C787.028 722.917 816.522 721.085 816.522 721.085C816.522 721.085 770.438 732.729 736.028 775.631C701.618 818.533 697.932 862.042 702.233 865.726C716.366 875.532 759.378 837.526 759.378 837.526C759.378 837.526 745.245 857.758 723.739 919.046C710.836 966.851 722.509 991.353 729.883 995.65C737.258 999.947 769.209 969.297 769.209 969.297C769.209 969.297 756.92 995.65 754.462 1047.75C752.005 1099.85 774.739 1115.16 782.113 1114.55C799.933 1113.08 809.763 1074.71 809.763 1074.71C809.763 1074.71 809.763 1102.91 813.451 1120.07C817.138 1137.23 828.812 1150.71 832.499 1150.72C836.186 1150.72 839.257 1125.58 839.257 1125.58C839.257 1125.58 850.318 1173.39 890.258 1201.59C900.662 1201.59 899.522 1184.53 898.749 1172.98C898.313 1166.45 897.994 1161.68 899.943 1162.75C902.667 1164.24 904.579 1168.64 907.259 1174.8C911.281 1184.05 917.033 1197.27 929.859 1210.61C951.227 1232.84 972.595 1232.84 972.595 1232.84C972.595 1232.84 993.964 1232.84 1015.33 1210.61C1028.16 1197.27 1033.91 1184.05 1037.93 1174.8C1040.61 1168.64 1042.52 1164.24 1045.25 1162.75C1047.2 1161.68 1046.88 1166.45 1046.44 1172.98C1045.67 1184.53 1044.53 1201.59 1054.93 1201.59C1094.87 1173.39 1105.93 1125.58 1105.93 1125.58C1105.93 1125.58 1109 1150.72 1112.69 1150.72C1116.38 1150.71 1128.05 1137.23 1131.74 1120.07C1135.43 1102.91 1135.43 1074.71 1135.43 1074.71C1135.43 1074.71 1145.26 1113.08 1163.08 1114.55C1170.45 1115.16 1193.19 1099.85 1190.73 1047.75C1188.27 995.65 1175.98 969.297 1175.98 969.297C1175.98 969.297 1207.93 999.947 1215.31 995.65C1222.68 991.353 1234.36 966.851 1221.45 919.046C1199.95 857.758 1185.81 837.526 1185.81 837.526C1185.81 837.526 1228.83 875.532 1242.96 865.726C1247.26 862.042 1243.57 818.533 1209.16 775.631C1174.75 732.729 1128.67 721.085 1128.67 721.085C1128.67 721.085 1158.16 722.917 1158.78 719.246C1159.39 715.575 1155.09 696.74 1124.37 686.15C1106.69 680.057 1084.69 681.663 1072.01 682.589C1065.78 683.044 1061.8 683.334 1061.69 682.466C1061.42 680.267 1068.95 677.525 1076.27 674.86C1085.26 671.59 1093.93 668.435 1087.5 666.531C1070.64 661.541 1047.12 663.759 1025.74 667.921C1023.34 668.388 1027.92 659.819 1032.38 651.475C1036.64 643.508 1040.79 635.747 1038.65 636.258C1038.65 636.258 1024.22 636.261 1001.45 649.131C978.669 662.001 972.595 674.871 972.595 674.871C972.595 674.871 966.522 662.001 943.745 649.131C920.968 636.261 906.542 636.258 906.542 636.258C904.398 635.747 908.547 643.508 912.806 651.475C917.267 659.819 921.848 668.388 919.449 667.921C898.075 663.759 874.551 661.541 857.691 666.531C851.26 668.435 859.932 671.59 868.917 674.86Z" fill="#874C16"/>
</g>
<path d="M1117.78 782.59C1077.43 780.539 1061.08 802.249 1057.95 813.36L1106.67 884.302C1133.16 849.258 1168.21 785.154 1117.78 782.59Z" fill="#ED8E20"/>
<path d="M841.697 782.59C882.041 780.539 898.395 802.249 901.529 813.36L852.809 884.302C826.312 849.258 791.268 785.154 841.697 782.59Z" fill="#ED8E20"/>
<path d="M1110.55 1064.89C1059.4 1122.69 911.239 1122.69 860.088 1064.89C808.937 1007.08 827.393 888.024 878.544 830.218C929.695 772.411 1040.8 772.411 1091.95 830.218C1143.1 888.024 1161.7 1007.08 1110.55 1064.89Z" fill="#FD9B29"/>
<mask id="mask13" mask-type="alpha" maskUnits="userSpaceOnUse" x="829" y="786" width="312" height="323">
<path d="M1110.55 1064.89C1059.4 1122.69 911.239 1122.69 860.088 1064.89C808.937 1007.08 827.393 888.024 878.544 830.218C929.695 772.411 1040.8 772.411 1091.95 830.218C1143.1 888.024 1161.7 1007.08 1110.55 1064.89Z" fill="#FD9B29"/>
</mask>
<g mask="url(#mask13)">
<ellipse cx="987.854" cy="1098.84" rx="187.186" ry="151.288" fill="#FFCC91"/>
<g style="mix-blend-mode:screen" opacity="0.4">
<path d="M1078.16 1038.4C1027.01 1096.2 878.848 1096.2 827.697 1038.4C776.546 980.59 795.003 861.534 846.154 803.727C897.305 745.921 1008.4 745.921 1059.56 803.727C1110.71 861.534 1129.31 980.59 1078.16 1038.4Z" fill="#FFAD4D"/>
</g>
</g>
<ellipse cx="1022.9" cy="897.981" rx="10.2567" ry="11.9662" fill="#202842"/>
<ellipse cx="951.112" cy="897.981" rx="10.2567" ry="11.9662" fill="#202842"/>
<path d="M1012.64 964.559C1012.64 981.501 1001.55 975.637 987.856 975.637C974.166 975.637 963.068 981.501 963.068 964.559C963.068 947.616 974.166 933.882 987.856 933.882C1001.55 933.882 1012.64 947.616 1012.64 964.559Z" fill="#202842"/>
<path d="M1034.87 1005.68C1026.64 1030.81 1007.54 1048.41 985.295 1048.41C963.048 1048.41 943.948 1030.81 935.721 1005.68" stroke="#202842" stroke-width="4.81189" stroke-linecap="round"/>
<path d="M1027.88 947.303C1043.23 940.193 1083.24 927.242 1120.5 932.32" stroke="black" stroke-width="1.52171"/>
<path d="M1029.15 956.971C1061.55 957.648 1134.8 964.122 1168.58 984.598" stroke="black" stroke-width="1.52171"/>
<path d="M1025.73 969.442C1049.95 971.018 1103.96 981.484 1126.2 1010.74" stroke="black" stroke-width="1.52171"/>
<path d="M947.445 949.031C932.138 941.836 892.202 928.665 854.911 933.537" stroke="black" stroke-width="1.52171"/>
<path d="M946.123 958.684C913.719 959.182 840.438 965.251 806.54 985.54" stroke="black" stroke-width="1.52171"/>
<path d="M949.474 971.173C925.239 972.615 871.17 982.782 848.772 1011.91" stroke="black" stroke-width="1.52171"/>
<path d="M1116.92 802.247C1105.98 800.196 1090.14 807.09 1083.58 810.794C1102.05 817.632 1113.5 834.157 1116.92 841.565C1121.48 829.314 1127.86 804.298 1116.92 802.247Z" fill="#CF7916"/>
<path d="M842.542 802.247C853.483 800.196 869.324 807.09 875.876 810.794C857.414 817.632 845.961 834.157 842.542 841.565C837.983 829.314 831.601 804.298 842.542 802.247Z" fill="#CF7916"/>
<path d="M662.309 1395.91C662.309 1531.81 563.467 1641.97 441.539 1641.97C319.612 1641.97 220.77 1531.81 220.77 1395.91C220.77 1329.88 244.102 1269.93 282.079 1225.73C283.842 1223.68 304.033 1218.52 305.858 1216.53C308.293 1213.89 292.385 1214.45 294.928 1211.93C333.917 1173.31 385.27 1149.84 441.539 1149.84C513.023 1149.84 576.572 1187.71 616.919 1246.43C619.914 1250.79 595.185 1244.15 597.918 1248.73C600.235 1252.61 630.053 1267.69 632.174 1271.73C651.329 1308.18 662.309 1350.61 662.309 1395.91Z" fill="#FA7766"/>
</g>
</g>
<defs>
<clipPath id="clip0">
<rect width="2000" height="1457.47" fill="white"/>
</clipPath>
</defs>
</svg>
