<svg xmlns="http://www.w3.org/2000/svg" xmlns:xlink="http://www.w3.org/1999/xlink" viewBox="0 0 619 823.27"><defs><clipPath id="clip-path" transform="translate(20.88)"><path d="M180.12,253.27s-17-11-10-50,35-105,47-129,26-57,53-54,35,36,46,77,46,103,49,110,10,17,5,24-9,26-9,26l46-1s-17-35-30-54-45-128-55-146-23-48-46-47-37-5-63,47-52,123-53,148-16,37-16,37l5,15Z" style="fill:#f49c1c"/></clipPath><clipPath id="clip-path-2" transform="translate(20.88)"><path d="M17.12,423.27c-6.58-30.56-29-150-9-162s131,1,196,0,286,2,310,0,71-7,59,45-28,154-28,195-11,98-17,122,5,111,4,132-8,30-84,30-327-3-354,0-66,13-64-56S51.12,581.27,17.12,423.27Z" style="fill:#4d88ce"/></clipPath><clipPath id="clip-path-3" transform="translate(20.88)"><path d="M95.81,257.43s-17.69,43.84-16.69,49.84,5,19,17,21,58,7,67,0,27.43-67,27.43-67Z" style="fill:#c15c00"/></clipPath><clipPath id="clip-path-4" transform="translate(20.88)"><path d="M355.54,261.53s14.58,57.74,27.58,62.74,56,6,66,3,23-9,17-29A195,195,0,0,0,450.8,262Z" style="fill:#c15c00"/></clipPath></defs><g id="Layer_2" data-name="Layer 2"><g id="bag"><g id="Layer_4" data-name="Layer 4"><path d="M180.12,253.27s-17-11-10-50,35-105,47-129,26-57,53-54,35,36,46,77,46,103,49,110,10,17,5,24-9,26-9,26l46-1s-17-35-30-54-45-128-55-146-23-48-46-47-37-5-63,47-52,123-53,148-16,37-16,37l5,15Z" transform="translate(20.88)" style="fill:#f49c1c"/><g style="clip-path:url(#clip-path)"><path d="M155.78,200.28s50.34-107,66.34-125,73-26,76-23,44,101,95,199c57.44,110.36-11-64-11-64l-31.24-51.4L296.23,17.17l-29.11-9.9-34,16.93-79,159.07,1.66,17" transform="translate(20.88)" style="fill:#f78f1e"/></g><path d="M22.78,257.43s38.34-8.16,205.34-11.16,272.49,3.53,328.75,15.26l-13.75,16.74-523-6Z" transform="translate(20.88)" style="fill:#0d6099"/><path d="M17.12,423.27c-6.58-30.56-29-150-9-162s131,1,196,0,286,2,310,0,71-7,59,45-28,154-28,195-11,98-17,122,5,111,4,132-8,30-84,30-327-3-354,0-66,13-64-56S51.12,581.27,17.12,423.27Z" transform="translate(20.88)" style="fill:#4d88ce"/><g style="clip-path:url(#clip-path-2)"><path d="M-20.88,332.27c13-2,221-8,294-16S531.9,334.54,564.51,348.4s10.61,45.87,10.61,45.87-135-49-211-46-246,10-274,11-111,11-111,11Z" transform="translate(20.88)" style="fill:#fff;opacity:0.7000000000000001"/><path d="M.12,467.27s102-33,190-27,245,6,278,13,101,24,101,24l-12,35s-93-20-146-24-178,5-229,2-176,11-176,11Z" transform="translate(20.88)" style="fill:#fff;opacity:0.7000000000000001"/><path d="M13.12,604.27c16-5,161-14,202-18S429,591.8,451.58,596s91.54,29.24,91.54,29.24l-5,32s-79.52-27.64-99.26-28.82-211.74-5.18-230.74-4.18-188,15-188,15Z" transform="translate(20.88)" style="fill:#fff;opacity:0.7000000000000001"/><path d="M9.12,736.27c21-7,218-14,246-15s241-6,302,19l-7,35s-151-22-329-22-221,21-221,21Z" transform="translate(20.88)" style="fill:#fff;opacity:0.7000000000000001"/><path d="M348.12,226.27c13,31,95,179,102,251s-6,203-66,255-364,34-364,34l29,57,547-3,2-603Z" transform="translate(20.88)" style="fill:#0d6099;opacity:0.5"/></g><path d="M95.81,257.43s-17.69,43.84-16.69,49.84,5,19,17,21,58,7,67,0,27.43-67,27.43-67Z" transform="translate(20.88)" style="fill:#c15c00"/><g style="clip-path:url(#clip-path-3)"><path d="M157.85,251.86s24.27,100.41-78.73,66.41l11,14,84,4,29-84-45.27-.41" transform="translate(20.88)" style="fill:#a05000"/><path d="M113.12,256.27s-12,12-8,22,62,4,62,4l2.56-26.12Z" transform="translate(20.88)" style="fill:#a05000"/></g><path d="M355.54,261.53s14.58,57.74,27.58,62.74,56,6,66,3,23-9,17-29A195,195,0,0,0,450.8,262Z" transform="translate(20.88)" style="fill:#c15c00"/><g style="clip-path:url(#clip-path-4)"><path d="M379.12,259.27s2,20,8,22,53.17-2,55.09-3-1.09-21-1.09-21Z" transform="translate(20.88)" style="fill:#a05000"/><path d="M436.12,260.27s12,33,9,46-26,25-53,23l51,3,26-10,5-17-17-48Z" transform="translate(20.88)" style="fill:#a05000"/></g><path d="M109.12,277.27c0-2-1-10,3-13s18-18,19-25,38-119,67-171,43-74,84-67,54,74,61,94,47,106,56,118,14,33,21,39,15,16,16,19,1,6-5,6-43,2-44,0-4-19,8-34c0,0-55-102-69-149s-30-81-57-80-43,26-74,90-50,119-44,132,11,25,10,30-3,12-3,12Z" transform="translate(20.88)" style="fill:#ffae2c"/></g></g></g></svg>