<svg xmlns="http://www.w3.org/2000/svg" xmlns:xlink="http://www.w3.org/1999/xlink" viewBox="0 0 745 784"><defs><clipPath id="clip-path" transform="translate(18 60)"><circle cx="325" cy="325" r="325" style="fill:#7f1dff"/></clipPath><clipPath id="clip-path-2" transform="translate(18 60)"><ellipse cx="417" cy="119.5" rx="46" ry="37.5" style="fill:#fff"/></clipPath></defs><g id="Layer_2" data-name="Layer 2"><g id="ball"><g id="Layer_4" data-name="Layer 4"><circle cx="343" cy="385" r="325" style="fill:#7f1dff"/><g style="clip-path:url(#clip-path)"><path d="M233,0S513,41,500,306C490.51,499.35,188,694-18,423L0,538,290,724,622,599,727,325,684,82,440-60Z" transform="translate(18 60)" style="fill:#4a00bf;opacity:0.7000000000000001"/></g><circle cx="354" cy="366" r="46" style="fill:#fff"/><ellipse cx="435" cy="179.5" rx="46" ry="37.5" style="fill:#fff"/><g style="clip-path:url(#clip-path-2)"><path d="M233,0S513,41,500,306C490.51,499.35,188,694-18,423L0,538,290,724,622,599,727,325,684,82,440-60Z" transform="translate(18 60)" style="fill:#b9b9ea"/></g><ellipse cx="128.42" cy="198.39" rx="46" ry="37.5" transform="translate(-84.67 208.91) rotate(-45)" style="fill:#fff"/><ellipse cx="157.42" cy="480.39" rx="37.5" ry="46" transform="translate(-324.58 465.84) rotate(-63.38)" style="fill:#fff"/><ellipse cx="388.42" cy="538.39" rx="46" ry="37.5" transform="translate(-91.24 159) rotate(-12.75)" style="fill:#b9b9ea"/><ellipse cx="551.42" cy="352.39" rx="46" ry="37.5" transform="matrix(0.54, -0.84, 0.84, 0.54, -25.39, 685.23)" style="fill:#b9b9ea"/></g></g></g></svg>