<svg xmlns="http://www.w3.org/2000/svg" xmlns:xlink="http://www.w3.org/1999/xlink" viewBox="0 0 753.54 733.94"><defs><clipPath id="clip-path" transform="translate(63.54 22)"><circle cx="328" cy="328" r="328" style="fill:#ff8b00"/></clipPath></defs><g id="Layer_2" data-name="Layer 2"><g id="Layer_3" data-name="Layer 3"><circle cx="391.54" cy="350" r="328" style="fill:#ff8b00"/><g style="clip-path:url(#clip-path)"><ellipse cx="300.26" cy="200.71" rx="357.61" ry="211.33" transform="translate(40.78 61.17) rotate(-7.19)" style="fill:none;stroke:#a05000;stroke-miterlimit:10;stroke-width:16px"/><path d="M176-22s224-1,322,235S406,584,328,597,25,564,25,564L328,691l238-99L690,366,619,121,403-21Z" transform="translate(63.54 22)" style="fill:#d85107;opacity:0.35000000000000003"/><path d="M7.71,149c2.7-6.64,14.38-.77,21.69-.5C146,152.85,236.29,270.05,231,410.23c-3.5,92.7-47.91,172.24-111.32,214.21C87.2,645.93-101,416,7.71,149Z" transform="translate(63.54 22)" style="fill:none;stroke:#a05000;stroke-miterlimit:10;stroke-width:16px"/><path d="M661,413.33c-35.26-46.86-60.63-105.12-71-170.29-8.22-51.71-6.1-102.21,4.62-148.57C621.72-22.61,724.38,497.51,661,413.33Z" transform="translate(63.54 22)" style="fill:none;stroke:#a05000;stroke-miterlimit:10;stroke-width:16px"/><path d="M36,505C-100,306,48,94,126,39c17-12,68.72-50,88.24-44.84C364.42,34.11,473,198.25,465.75,390.25,461,516.22,407.43,626.49,328,695.48,270.64,745.31,74.3,561,36,505Z" transform="translate(63.54 22)" style="fill:none;stroke:#a05000;stroke-miterlimit:10;stroke-width:16px"/></g></g></g></svg>