<svg xmlns="http://www.w3.org/2000/svg" xmlns:xlink="http://www.w3.org/1999/xlink" viewBox="0 0 745.42 756.87"><defs><clipPath id="clip-path" transform="translate(41.95 41.63)"><circle cx="330.5" cy="330.5" r="330.5" style="fill:#c9c9f4"/></clipPath><clipPath id="clip-path-2" transform="translate(41.95 41.63)"><path d="M16,95.87s294.34,123.62,612.22,0L692.12,254,649.23,508.78S275.84,613.06,0,492.81C0,492.81-104.28,206.88,16,95.87Z" style="fill:#7900ff"/></clipPath></defs><g id="Layer_2" data-name="Layer 2"><g id="biliard-ball"><g id="Layer_4" data-name="Layer 4"><circle cx="372.45" cy="372.13" r="330.5" style="fill:#c9c9f4"/><g style="clip-path:url(#clip-path)"><path d="M241.78-13.88S510.05,103,494.91,330.92,214.49,681.4,13.5,490.5l189,171h202L579,610.12,661.42,463l42.05-184.17L627.78,95.45,415.5.5Z" transform="translate(41.95 41.63)" style="fill:#b9b9ea"/><path d="M16,95.87s294.34,123.62,612.22,0L692.12,254,649.23,508.78S275.84,613.06,0,492.81C0,492.81-104.28,206.88,16,95.87Z" transform="translate(41.95 41.63)" style="fill:#7900ff"/><g style="clip-path:url(#clip-path-2)"><path d="M241.78-13.88S510.05,103,494.91,330.92,200.57,681.6-.42,490.7L47.51,672.35,402.4,715.24,579,610.12,661.42,463l.08-203.45-33.72-164L420.06-41.63Z" transform="translate(41.95 41.63)" style="fill:#4a00bf;opacity:0.7000000000000001"/></g><circle cx="371.71" cy="392.8" r="145.49" style="fill:#fff"/><path d="M337.46,428.86V397.72H274.13v-26l67.13-98.27h24.91v98.17h19.21v26.07H366.17v31.14Zm0-57.21V318.76l-35.57,52.89Z" transform="translate(41.95 41.63)" style="fill:#2e2835"/></g></g></g></g></svg>