<svg width="1000" height="1001" viewBox="0 0 1000 1001" fill="none" xmlns="http://www.w3.org/2000/svg">
<path fill-rule="evenodd" clip-rule="evenodd" d="M8.23463 280.925C3.69434 266.075 12.0525 250.355 26.9031 245.815L501.95 100.578C544.026 87.7143 588.565 111.396 601.429 153.473L765.848 691.261L286.691 823.053L167.173 800.788L8.23463 280.925V280.925Z" fill="#FFAB55"/>
<mask id="mask0" mask-type="alpha" maskUnits="userSpaceOnUse" x="6" y="97" width="760" height="727">
<path fill-rule="evenodd" clip-rule="evenodd" d="M8.22487 280.96C3.68458 266.11 12.0428 250.39 26.8934 245.85L501.94 100.614C544.017 87.7495 588.555 111.431 601.419 153.508L765.838 691.296L286.681 823.088L167.163 800.823L8.22487 280.96V280.96Z" fill="#FFAB55"/>
</mask>
<g mask="url(#mask0)">
<path fill-rule="evenodd" clip-rule="evenodd" d="M110.129 712.289L433.487 56.2009L611.568 89.0053L773.247 663.082L49.207 841.163L110.129 712.289V712.289Z" fill="#F29C44"/>
<path d="M614.718 36.6977L507.16 69.5814L714.054 746.299L821.611 713.415L614.718 36.6977Z" fill="#E8821A"/>
</g>
<path fill-rule="evenodd" clip-rule="evenodd" d="M149.144 325.685L422.52 242.106C432.413 239.081 442.902 244.658 445.927 254.552L492.512 406.925C495.537 416.819 489.96 427.307 480.066 430.332L206.69 513.911C196.796 516.936 186.308 511.36 183.283 501.466L136.698 349.092C133.673 339.199 139.25 328.71 149.144 325.685V325.685Z" fill="white"/>
<path fill-rule="evenodd" clip-rule="evenodd" d="M270.686 566.05L458.912 508.503C467.569 505.857 476.746 510.736 479.393 519.393C482.04 528.05 477.16 537.228 468.503 539.874L280.277 597.421C271.62 600.068 262.443 595.188 259.796 586.531C257.149 577.874 262.029 568.697 270.686 566.05Z" fill="white"/>
<g opacity="0.9">
<path opacity="0.9" fill-rule="evenodd" clip-rule="evenodd" d="M167.159 800.792L662.283 649.417C698.221 638.43 736.557 659.619 747.908 696.746C759.258 733.873 739.326 772.877 703.388 783.864L208.263 935.239C208.263 935.239 219.18 898.815 208.563 864.09C197.947 829.365 167.159 800.792 167.159 800.792V800.792Z" fill="white"/>
<g opacity="0.9">
<path opacity="0.9" fill-rule="evenodd" clip-rule="evenodd" d="M351.476 747.437L271.808 759.153L248.376 913.802L473.321 841.164L351.476 747.437Z" fill="#F6F7FF"/>
<path opacity="0.9" fill-rule="evenodd" clip-rule="evenodd" d="M320.939 848.139C369.037 834.151 457.907 807.278 470.434 800.895C482.961 794.512 470.513 811.374 439.157 822.091C407.8 832.808 283.359 867.287 283.359 867.287C283.359 867.287 272.84 862.127 320.939 848.139Z" fill="#DDDFED"/>
<path opacity="0.9" fill-rule="evenodd" clip-rule="evenodd" d="M264.778 841.164C264.778 841.164 357.852 811.733 410.126 795.618C462.4 779.502 539.728 750.621 539.728 750.621C539.728 750.621 663.066 708.815 666.257 715.079C669.448 721.342 609.847 738.561 511.602 772.841C413.357 807.12 233.49 856.69 233.49 856.69L264.778 841.164Z" fill="#DDDFED"/>
</g>
</g>
<path d="M185.085 795.311L662.283 649.417C698.221 638.429 736.557 659.619 747.908 696.746C759.258 733.872 739.326 772.876 703.387 783.864L226.19 929.758" stroke="#E8821A" stroke-width="37.9242" stroke-linecap="round"/>
<path fill-rule="evenodd" clip-rule="evenodd" d="M399.764 130.782C402.461 115.489 417.045 105.278 432.338 107.974L921.543 194.234C964.874 201.875 993.807 243.195 986.167 286.526L888.514 840.344L401.75 740.238L305.366 666.139L399.764 130.782V130.782Z" fill="#13D9C7"/>
<mask id="mask1" mask-type="alpha" maskUnits="userSpaceOnUse" x="302" y="109" width="683" height="734">
<path fill-rule="evenodd" clip-rule="evenodd" d="M397.158 133.099C399.854 117.806 414.438 107.594 429.731 110.291L918.937 196.551C962.268 204.191 991.2 245.512 983.56 288.843L885.907 842.66L399.143 742.555L302.76 668.456L397.158 133.099V133.099Z" fill="#13D9C7"/>
</mask>
<g mask="url(#mask1)">
<path d="M305.366 666.14L399.764 130.783C402.461 115.489 417.044 105.278 432.338 107.974" stroke="#63E8DB" stroke-width="18.9621" stroke-linecap="round"/>
<path fill-rule="evenodd" clip-rule="evenodd" d="M968.981 281.213L247.284 688.925L882.283 780.309L968.981 281.213V281.213Z" fill="#0ED0BF"/>
<path d="M1051.04 188.514L940.272 168.983L817.392 865.871L928.156 885.401L1051.04 188.514Z" fill="#0FC2B1"/>
</g>
<path fill-rule="evenodd" clip-rule="evenodd" d="M515.154 232.025L796.678 281.666C806.867 283.462 813.68 293.193 811.884 303.381L793.167 409.53C791.371 419.719 781.64 426.532 771.451 424.735L489.927 375.095C479.739 373.299 472.925 363.568 474.722 353.379L493.439 247.231C495.235 237.042 504.966 230.229 515.154 232.025V232.025Z" fill="white"/>
<path fill-rule="evenodd" clip-rule="evenodd" d="M469.717 476.221L755.856 526.675C764.771 528.247 770.733 536.761 769.161 545.676C767.589 554.591 759.075 560.553 750.16 558.981L464.02 508.527C455.105 506.955 449.144 498.441 450.716 489.526C452.288 480.611 460.802 474.649 469.717 476.221Z" fill="white"/>
<path fill-rule="evenodd" clip-rule="evenodd" d="M506.103 539.741L699.939 573.919C708.854 575.491 714.816 584.006 713.244 592.921C711.672 601.836 703.158 607.797 694.243 606.225L500.407 572.047C491.492 570.475 485.53 561.961 487.102 553.046C488.674 544.131 497.188 538.169 506.103 539.741Z" fill="white"/>
<path fill-rule="evenodd" clip-rule="evenodd" d="M305.366 666.139L815.248 756.045C852.257 762.571 876.795 798.855 870.053 837.088C863.312 875.321 827.844 901.025 790.835 894.499L280.953 804.593C280.953 804.593 307.216 777.096 313.521 741.336C319.827 705.576 305.366 666.139 305.366 666.139V666.139Z" fill="white"/>
<path fill-rule="evenodd" clip-rule="evenodd" d="M845.884 768.525L505.032 841.23L821.361 897.466L863.538 867.005L845.884 768.525Z" fill="#F6F7FF"/>
<path fill-rule="evenodd" clip-rule="evenodd" d="M352.726 719.385C352.726 719.385 542.523 740.474 591.73 747.503C640.936 754.533 645.623 766.249 645.623 766.249L352.726 719.385V719.385Z" fill="#DDDFED"/>
<path fill-rule="evenodd" clip-rule="evenodd" d="M369.129 761.562C369.129 761.562 467.542 787.337 521.435 796.71C575.328 806.083 657.339 815.455 657.339 815.455C657.339 815.455 786.213 834.201 786.213 841.23C786.213 848.26 725.291 836.544 622.191 822.485C519.092 808.426 336.324 770.935 336.324 770.935L369.129 761.562V761.562Z" fill="#DDDFED"/>
<path fill-rule="evenodd" clip-rule="evenodd" d="M547.21 770.935C596.416 780.308 687.8 796.71 701.859 796.71C715.918 796.71 697.173 806.083 664.368 801.396C631.564 796.71 505.032 770.935 505.032 770.935C505.032 770.935 498.003 761.562 547.21 770.935V770.935Z" fill="#DDDFED"/>
<path fill-rule="evenodd" clip-rule="evenodd" d="M748.722 834.201L720.604 871.691L711.231 831.858L748.722 834.201Z" fill="#DDDFED"/>
<path d="M323.827 669.394L815.248 756.045C852.258 762.571 876.795 798.855 870.053 837.088C863.312 875.321 827.844 901.025 790.835 894.499L299.414 807.849" stroke="#0FC2B1" stroke-width="37.9242" stroke-linecap="round"/>
<path fill-rule="evenodd" clip-rule="evenodd" d="M618.451 813.971L607.051 912.578C606.664 915.921 609.823 918.57 613.048 917.606L664.518 902.221L707.492 925.792C710.563 927.476 714.328 925.32 714.43 921.819L717.135 828.653L618.451 813.971V813.971Z" fill="#E53B54"/>
<mask id="mask2" mask-type="alpha" maskUnits="userSpaceOnUse" x="607" y="813" width="111" height="114">
<path fill-rule="evenodd" clip-rule="evenodd" d="M618.451 813.971L607.051 912.578C606.664 915.921 609.823 918.57 613.048 917.606L664.518 902.221L707.492 925.792C710.563 927.476 714.328 925.32 714.43 921.819L717.135 828.653L618.451 813.971V813.971Z" fill="#E53B54"/>
</mask>
<g mask="url(#mask2)">
<path fill-rule="evenodd" clip-rule="evenodd" d="M670.147 815.389L663.117 906.773L727.118 961.452L753.604 854.145L758.735 821.744L670.147 815.389Z" fill="#C7233B"/>
</g>
</svg>
