<svg width="1000" height="781" viewBox="0 0 1000 781" fill="none" xmlns="http://www.w3.org/2000/svg">
<path fill-rule="evenodd" clip-rule="evenodd" d="M582.037 772.853C806.521 772.853 909.56 771.1 909.56 717.223C909.56 698.777 923.113 674.066 886.046 662.4C814.85 639.993 620.488 625.314 472.863 625.314C345.94 625.314 236.675 641.983 162.137 658.369C104.841 670.964 39.5255 697.436 39.5255 720.851C39.5255 774.728 357.554 772.853 582.037 772.853Z" fill="#49557F" fill-opacity="0.08"/>
<mask id="mask0" mask-type="alpha" maskUnits="userSpaceOnUse" x="0" y="0" width="1000" height="727">
<path d="M500 0C537.641 0 571.395 16.6895 594.312 43.0941C615.357 26.9109 641.688 17.2956 670.259 17.2956C739.294 17.2956 795.259 73.436 795.259 142.689L795.257 143.35C799.504 142.914 803.82 142.689 808.19 142.689C877.225 142.689 933.19 198.829 933.19 268.082C933.19 288.919 928.123 308.569 919.158 325.86C966.403 343.757 1000 389.542 1000 443.2C1000 503.778 957.178 554.322 900.243 566.035C903.452 577.139 905.172 588.879 905.172 601.022C905.172 670.275 849.208 726.415 780.172 726.415C740.423 726.415 705.008 707.804 682.113 678.794C659.217 707.804 623.801 726.415 584.052 726.415C550.09 726.415 519.292 712.829 496.764 690.779C474.242 712.829 443.444 726.415 409.483 726.415C373.868 726.415 341.732 711.474 318.964 687.499C296.199 711.474 264.063 726.415 228.448 726.415C159.413 726.415 103.448 670.275 103.448 601.022C103.448 589.39 105.027 578.127 107.982 567.438C46.9987 559.115 0 506.663 0 443.2C0 389.542 33.5967 343.757 80.8391 325.856C71.8769 308.569 66.8103 288.919 66.8103 268.082C66.8103 198.829 122.775 142.689 191.81 142.689C195.443 142.689 199.04 142.844 202.594 143.149L202.586 142.689C202.586 73.436 258.551 17.2956 327.586 17.2956C356.744 17.2956 383.569 27.31 404.832 44.0972C427.751 17.1147 461.883 0 500 0Z" fill="white"/>
</mask>
<g mask="url(#mask0)">
<path d="M500 0C537.641 0 571.395 16.6895 594.312 43.0941C615.357 26.9109 641.688 17.2956 670.259 17.2956C739.294 17.2956 795.259 73.436 795.259 142.689L795.257 143.35C799.504 142.914 803.82 142.689 808.19 142.689C877.225 142.689 933.19 198.829 933.19 268.082C933.19 288.919 928.123 308.569 919.158 325.86C966.403 343.757 1000 389.542 1000 443.2C1000 503.778 957.178 554.322 900.243 566.035C903.452 577.139 905.172 588.879 905.172 601.022C905.172 670.275 849.208 726.415 780.172 726.415C740.423 726.415 705.008 707.804 682.113 678.794C659.217 707.804 623.801 726.415 584.052 726.415C550.09 726.415 519.292 712.829 496.764 690.779C474.242 712.829 443.444 726.415 409.483 726.415C373.868 726.415 341.732 711.474 318.964 687.499C296.199 711.474 264.063 726.415 228.448 726.415C159.413 726.415 103.448 670.275 103.448 601.022C103.448 589.39 105.027 578.127 107.982 567.438C46.9987 559.115 0 506.663 0 443.2C0 389.542 33.5967 343.757 80.8391 325.856C71.8769 308.569 66.8103 288.919 66.8103 268.082C66.8103 198.829 122.775 142.689 191.81 142.689C195.443 142.689 199.04 142.844 202.594 143.149L202.586 142.689C202.586 73.436 258.551 17.2956 327.586 17.2956C356.744 17.2956 383.569 27.31 404.832 44.0972C427.751 17.1147 461.883 0 500 0Z" fill="#FFAB99"/>
<path fill-rule="evenodd" clip-rule="evenodd" d="M596.708 -91.9985C742.935 308.945 607.714 628.914 191.048 867.907C194.192 867.907 540.891 820.737 1231.14 726.398L1188.69 167.436L596.708 -91.9985Z" fill="#FE998B"/>
<path d="M156.559 134.404C223.938 134.404 281.572 181.975 295.108 247.311C297.071 256.785 298.068 266.486 298.068 276.306C298.068 285.424 290.993 302.25 285.374 301.857C279.756 301.464 275.94 285.031 275.94 275.913C275.94 268.347 275.174 260.889 273.667 253.617C263.288 203.518 208.19 167.423 156.559 167.423C140.505 167.423 124.976 170.914 110.769 177.563C102.51 181.428 92.6826 177.867 88.8176 169.608C84.9526 161.35 88.5141 151.522 96.7723 147.657C115.338 138.968 135.642 134.404 156.559 134.404Z" fill="#E75F4D"/>
<path d="M240.425 327.725C263.815 285.529 314.292 266.327 360.842 281.048C367.591 283.183 374.152 286.003 380.442 289.49C386.282 292.727 394.604 303.132 392.401 306.511C390.199 309.89 378.349 306.445 372.509 303.207C367.662 300.521 362.619 298.353 357.438 296.714C321.745 285.426 279.498 307.115 261.575 339.448C256.003 349.502 252.848 360.466 252.176 371.724C251.785 378.268 246.092 383.158 239.46 382.647C232.829 382.135 227.77 376.415 228.161 369.871C229.04 355.159 233.165 340.823 240.425 327.725Z" fill="#E75F4D"/>
<path d="M799.546 311.037C841.772 327.246 866.365 371.133 859.018 415.625C857.953 422.076 856.228 428.439 853.849 434.637C851.64 440.391 843.13 449.308 839.704 447.708C836.278 446.109 837.868 434.82 840.077 429.065C841.91 424.29 843.236 419.399 844.054 414.447C849.687 380.331 823.903 344.296 791.547 331.876C781.487 328.014 770.909 326.482 760.395 327.261C754.283 327.713 748.987 323.101 748.566 316.96C748.144 310.818 752.757 305.472 758.869 305.019C772.609 304.002 786.439 306.005 799.546 311.037Z" fill="#E75F4D"/>
<path d="M529.618 605.701C498.772 638.78 448.867 645.141 410.367 621.663C404.785 618.259 399.532 614.275 394.676 609.748C390.168 605.544 385.089 594.313 387.855 591.736C390.622 589.159 400.493 594.862 405.001 599.066C408.742 602.554 412.78 605.616 417.065 608.23C446.587 626.232 489.656 615.825 513.293 590.477C520.643 582.596 526.026 573.363 529.242 563.322C531.112 557.486 537.372 554.303 543.224 556.214C549.077 558.124 552.305 564.403 550.436 570.239C546.232 583.36 539.194 595.432 529.618 605.701Z" fill="#E75F4D"/>
<path d="M614.528 365.901C583.681 332.822 533.777 326.461 495.277 349.939C489.694 353.343 484.441 357.326 479.586 361.854C475.078 366.058 469.998 377.289 472.765 379.866C475.531 382.443 485.402 376.74 489.91 372.536C493.651 369.047 497.689 365.985 501.975 363.372C531.496 345.369 574.566 355.777 598.203 381.124C605.552 389.005 610.935 398.238 614.152 408.279C616.021 414.115 622.281 417.298 628.134 415.388C633.986 413.478 637.215 407.199 635.345 401.362C631.142 388.242 624.103 376.169 614.528 365.901Z" fill="#E75F4D"/>
<path d="M956.435 178.653C912.23 127.801 838.517 115.513 780.326 148.162C771.889 152.896 763.913 158.508 756.501 164.951C749.62 170.932 741.564 187.311 745.546 191.293C749.529 195.276 764.434 187.375 771.315 181.393C777.026 176.429 783.157 172.115 789.634 168.481C834.254 143.446 897.642 161.348 931.515 200.315C942.047 212.431 949.601 226.441 953.903 241.526C956.404 250.294 965.54 255.375 974.308 252.874C983.076 250.373 988.157 241.237 985.656 232.469C980.033 212.757 970.158 194.439 956.435 178.653Z" fill="#E75F4D"/>
<path d="M695.404 -12.3776C628.28 -6.50505 575.012 45.908 567.222 112.176C566.092 121.784 565.945 131.536 566.8 141.318C567.595 150.402 576.11 166.546 581.673 165.665C587.236 164.784 589.605 148.081 588.81 138.998C588.15 131.46 588.264 123.965 589.131 116.588C595.105 65.7755 646.847 25.0156 698.282 20.5156C714.274 19.1165 730.048 21.2408 744.781 26.6267C753.345 29.7572 762.825 25.3528 765.955 16.7891C769.086 8.22545 764.681 -1.25454 756.118 -4.38506C736.865 -11.423 716.241 -14.2006 695.404 -12.3776Z" fill="#E75F4D"/>
<path d="M234.17 16.3612C291.926 -18.342 365.828 -7.24919 411.082 41.7835C417.643 48.8929 423.495 56.6951 428.553 65.1126C433.249 72.9282 435.85 90.9946 430.831 93.5514C425.813 96.1082 414.079 83.988 409.383 76.1724C405.486 69.6866 400.988 63.6893 395.951 58.2313C361.251 20.634 295.433 18.0717 251.176 44.6639C237.416 52.932 225.903 63.9224 217.149 76.9396C212.061 84.5058 201.803 86.5148 194.236 81.4267C186.67 76.3386 184.661 66.0803 189.749 58.5141C201.188 41.5039 216.241 27.134 234.17 16.3612Z" fill="#E75F4D"/>
<path d="M865.895 728.077C918.259 685.674 933.111 612.434 902.513 553.14C898.077 544.542 892.746 536.375 886.566 528.743C880.828 521.658 864.741 513.034 860.622 516.876C856.503 520.717 863.879 535.889 869.617 542.975C874.379 548.855 878.476 555.133 881.882 561.733C905.344 607.199 885.241 669.924 845.116 702.417C832.64 712.52 818.375 719.579 803.148 723.353C794.298 725.546 788.902 734.499 791.095 743.349C793.289 752.199 802.241 757.595 811.091 755.402C830.988 750.471 849.64 741.24 865.895 728.077Z" fill="#E75F4D"/>
<path d="M1026.76 411.183C1001.52 348.709 935.821 313.093 870.171 325.018C860.652 326.747 851.284 329.456 842.179 333.135C833.725 336.551 820.775 349.414 823.244 354.476C825.713 359.538 842.378 356.92 850.832 353.504C857.848 350.67 865.049 348.587 872.357 347.26C922.696 338.116 976.803 375.68 996.144 423.552C1002.16 438.436 1004.74 454.142 1003.9 469.806C1003.41 478.911 1010.39 486.689 1019.49 487.179C1028.6 487.669 1036.38 480.685 1036.87 471.58C1037.97 451.111 1034.59 430.576 1026.76 411.183Z" fill="#E75F4D"/>
<path d="M-51.3962 458.154C-46.696 390.938 4.77939 336.763 70.901 327.818C80.4882 326.521 90.2357 326.203 100.032 326.888C109.128 327.524 125.419 335.756 124.635 341.333C123.85 346.91 107.192 349.57 98.0962 348.934C90.5481 348.406 83.0556 348.651 75.6953 349.647C24.9945 356.506 -14.8561 408.951 -18.4577 460.457C-19.5776 476.471 -17.1783 492.206 -11.5361 506.843C-8.2566 515.351 -12.4949 524.906 -21.0026 528.186C-29.5103 531.465 -39.0658 527.227 -42.3453 518.719C-49.7181 499.592 -52.8552 479.019 -51.3962 458.154Z" fill="#E75F4D"/>
<path d="M136.016 716.67C86.7379 670.717 77.0306 596.619 111.69 539.604C116.716 531.337 122.603 523.561 129.3 516.379C135.519 509.711 152.168 502.231 156.009 506.35C159.85 510.47 151.434 525.09 145.215 531.758C140.055 537.292 135.53 543.269 131.672 549.615C105.095 593.334 120.774 657.309 158.535 692.521C170.276 703.47 184.014 711.507 198.94 716.334C207.615 719.139 212.374 728.446 209.569 737.122C206.763 745.797 197.456 750.556 188.78 747.751C169.276 741.444 151.314 730.935 136.016 716.67Z" fill="#E75F4D"/>
<path d="M484.894 789.145C419.241 804.302 352.383 770.915 324.496 710.298C320.453 701.509 317.299 692.281 315.09 682.712C313.039 673.828 316.148 655.842 321.711 654.961C327.274 654.08 334.688 669.233 336.739 678.118C338.441 685.49 340.866 692.584 343.97 699.331C365.353 745.811 427.158 768.587 477.466 756.972C493.108 753.361 507.454 746.466 519.801 736.791C526.979 731.168 537.356 732.427 542.979 739.604C548.603 746.781 547.343 757.158 540.166 762.782C524.031 775.425 505.274 784.44 484.894 789.145Z" fill="#E75F4D"/>
<path d="M643.366 760.615C576.642 769.992 512.949 730.905 490.451 668.088C487.19 658.98 484.852 649.512 483.485 639.787C482.216 630.758 486.881 613.112 492.5 612.719C498.118 612.326 504.183 628.068 505.452 637.097C506.505 644.59 508.302 651.868 510.807 658.86C528.057 707.027 587.642 735.103 638.771 727.917C654.668 725.683 669.56 720.065 682.704 711.502C690.344 706.526 700.572 708.685 705.549 716.325C710.525 723.965 708.366 734.192 700.726 739.169C683.55 750.358 664.079 757.704 643.366 760.615Z" fill="#E75F4D"/>
<path d="M534.428 779.475C601.152 788.852 664.845 749.765 687.343 686.948C690.605 677.841 692.943 668.372 694.309 658.648C695.578 649.618 690.913 631.972 685.295 631.579C679.676 631.187 673.611 646.928 672.342 655.957C671.289 663.45 669.492 670.728 666.988 677.72C649.737 725.887 590.152 753.963 539.023 746.777C523.126 744.543 508.234 738.925 495.09 730.363C487.45 725.386 477.223 727.545 472.246 735.185C467.269 742.825 469.428 753.053 477.068 758.029C494.244 769.218 513.715 776.564 534.428 779.475Z" fill="#E75F4D"/>
</g>
</svg>
