<svg xmlns="http://www.w3.org/2000/svg" xmlns:xlink="http://www.w3.org/1999/xlink" viewBox="0 0 690.6 747.01"><defs><clipPath id="clip-path" transform="translate(0 67.33)"><path d="M313,0C140.13,0,0,140.13,0,313S140.13,626,313,626,626,485.87,626,313,485.87,0,313,0Zm0,534.1c-122.11,0-221.1-99-221.1-221.1S190.89,91.9,313,91.9s221.1,99,221.1,221.1S435.11,534.1,313,534.1Z" style="fill:#2bbf11"/></clipPath><clipPath id="clip-path-2" transform="translate(0 67.33)"><path d="M313,82.8C185.86,82.8,82.8,185.86,82.8,313S185.86,543.2,313,543.2,543.2,440.14,543.2,313,440.14,82.8,313,82.8ZM252,409.9a38.67,38.67,0,1,1,38.67-38.67A38.67,38.67,0,0,1,252,409.9Zm0-116.46a38.67,38.67,0,1,1,38.67-38.67A38.67,38.67,0,0,1,252,293.44ZM374,409.9a38.67,38.67,0,1,1,38.67-38.67A38.67,38.67,0,0,1,374,409.9Zm0-116.46a38.67,38.67,0,1,1,38.67-38.67A38.68,38.68,0,0,1,374,293.44Z" style="fill:#28aa09"/></clipPath></defs><g id="Layer_2" data-name="Layer 2"><g id="button"><g id="Layer_4" data-name="Layer 4"><path d="M313,0C140.13,0,0,140.13,0,313S140.13,626,313,626,626,485.87,626,313,485.87,0,313,0Zm0,534.1c-122.11,0-221.1-99-221.1-221.1S190.89,91.9,313,91.9s221.1,99,221.1,221.1S435.11,534.1,313,534.1Z" transform="translate(0 67.33)" style="fill:#2bbf11"/><g style="clip-path:url(#clip-path)"><path d="M137.39,17.29s209.28-49.14,349.4,59.14S626,463.13,462.22,558.67c-143.82,83.89-292.07,38.21-435.83-55.5L172.88,653.3l225.65,26.38L599.61,543.2l91-303L525.91,0,252-67.33Z" transform="translate(0 67.33)" style="fill:#176800;opacity:0.5"/><path d="M291.16,25.11c-34.48,2-69.87,7.48-101.65,21.63-35,15.59-67.76,37.46-94,65.46a273.56,273.56,0,0,0-57.27,92.57c-6.7,18.21-9.57,38-11.77,57.19-2.16,18.86-2.79,37.67-.62,56.55C30.27,357.32,42,394.29,59.56,429.15c2.42,4.8,10.49,1.46,8.74-3.69-10.36-30.58-16.83-62.3-17.39-94.65a424.55,424.55,0,0,1,2.62-52.63,281.16,281.16,0,0,1,10.38-51.41c9.56-31,23.81-60.75,44.12-86.05,22.2-27.63,50.48-49.56,80.69-67.84,32.09-19.42,66-35.55,103.27-41.69,3.43-.57,2.64-6.28-.83-6.08Z" transform="translate(0 67.33)" style="fill:#42d823"/><path d="M390.67,539.57c9.9-3,19.51-6.14,28.64-11,8.76-4.69,17.44-9.67,25.95-14.79,17.39-10.47,34.61-22.53,48.61-37.34,7.27-7.68,12-16.44,17.58-25.31,5-8,10.3-16.52,13-25.62a114.81,114.81,0,0,1,6.27-15.67c2-4.44,4.11-8.94,5.82-13.52,3.44-9.2,5.35-19.22,8.23-28.63a190.69,190.69,0,0,0,6.8-34c1.27-11,1.58-23.61-1.69-34.25-1-3.27-6.25-3.68-7,0-2.05,9.52-1.72,19.3-2.52,29s-1.42,19.15-2.23,28.72c-.85,9.95-2,19.52-5.13,29s-5.49,19-8.68,28.43c-1.66,4.89-4.81,8.84-7.27,13.35s-4.74,8.72-7.08,13.1a134.63,134.63,0,0,1-16.88,24.35c-12.76,15-29.38,27.19-45.58,38.2a220.21,220.21,0,0,1-28.86,16.78c-10,4.78-19.79,10-29.8,14.78-2.46,1.18-.73,5.14,1.84,4.37Z" transform="translate(0 67.33)" style="fill:#42d823"/></g><path d="M313,82.8C185.86,82.8,82.8,185.86,82.8,313S185.86,543.2,313,543.2,543.2,440.14,543.2,313,440.14,82.8,313,82.8ZM252,409.9a38.67,38.67,0,1,1,38.67-38.67A38.67,38.67,0,0,1,252,409.9Zm0-116.46a38.67,38.67,0,1,1,38.67-38.67A38.67,38.67,0,0,1,252,293.44ZM374,409.9a38.67,38.67,0,1,1,38.67-38.67A38.67,38.67,0,0,1,374,409.9Zm0-116.46a38.67,38.67,0,1,1,38.67-38.67A38.68,38.68,0,0,1,374,293.44Z" transform="translate(0 67.33)" style="fill:#28aa09"/><g style="clip-path:url(#clip-path-2)"><polygon points="486.79 143.76 252.04 630.55 420.37 624.18 556.4 509.44 578.54 310.51 486.79 143.76" style="fill:#176800;opacity:0.5"/></g></g></g></g></svg>