<svg xmlns="http://www.w3.org/2000/svg" xmlns:xlink="http://www.w3.org/1999/xlink" viewBox="0 0 573.12 898"><defs><clipPath id="clip-path" transform="translate(0 22)"><path d="M322.76,313.05s104.7,23.27,121.63-29.61-1.06-185.08,73-183-2.12,235.85-60.28,257-158.64-6.35-158.64-6.35Z" style="fill:#2bbf11"/></clipPath><clipPath id="clip-path-2" transform="translate(0 22)"><path d="M261.42,517.17s-190.37,26.44-221-82.5S-28.44,69.8,34,69.8c100.47,0,45.83,196,69.8,308.82,18,84.61,92,103.64,148.06,100.47S261.42,517.17,261.42,517.17Z" style="fill:#2bbf11"/></clipPath><clipPath id="clip-path-3" transform="translate(0 22)"><path d="M261.42,661s-40.15-280-48.65-363.81C198,151.24,205.37,1.06,311.13,0s-14.81,546.78,32.78,661Z" style="fill:#2bbf11"/></clipPath><clipPath id="clip-path-4" transform="translate(0 22)"><path d="M299.6,650H175.53l19.24,177.35a6.33,6.33,0,0,0,6.29,5.65h192a6.43,6.43,0,0,0,6.39-5.73L418.7,650Z" style="fill:#ffba1f"/></clipPath><clipPath id="clip-path-5" transform="translate(0 22)"><path d="M172.68,650H420.86a4.55,4.55,0,0,1,4.5,5.2l-5.65,38.73A4.75,4.75,0,0,1,415,698H179.13a4.73,4.73,0,0,1-4.67-4L168,655.48A4.71,4.71,0,0,1,172.68,650Z" style="fill:#ffd522"/></clipPath></defs><g id="Layer_2" data-name="Layer 2"><g id="cactus"><g id="Layer_4" data-name="Layer 4"><path d="M322.76,313.05s104.7,23.27,121.63-29.61-1.06-185.08,73-183-2.12,235.85-60.28,257-158.64-6.35-158.64-6.35Z" transform="translate(0 22)" style="fill:#2bbf11"/><g style="clip-path:url(#clip-path)"><path d="M473.12,111s57-20,58,29c.64,31.39-39,186-81,202s-104,16-152,9,82,42,82,42l119-22,74-109-5-145-40-41Z" transform="translate(0 22)" style="fill:#176800;opacity:0.5"/><path d="M525.71,95.51c-8.5,4.79-11.13,13.88-14.17,22.54-4.56,13-7,26.84-10.41,40.18-7.07,27.89-12.74,56.19-20.7,83.84-3.49,12.12-6.8,24.31-10.79,36.27-3.9,11.7-8.3,23.27-16,33.08-16,20.37-41.73,26.2-66.24,27.94-15.54,1.1-31.19-.93-46.65-2.22-16.55-1.39-33.21-3.38-49.82-3.58-2.2,0-2.83,3.61-.54,4,14.37,2.18,28.92,2.81,43.38,4.08s28.64,2.41,43,2.88c24.74.81,50.57-2,71-17.39,19.17-14.47,26.71-37.1,31.45-59.72,2.92-13.92,5.51-27.91,8.89-41.73,3.45-14.14,7.29-28.18,10.82-42.3,4-16.05,7.81-32.15,11.79-48.21,3.14-12.62,3.43-30.16,16.55-37,1.71-.89.18-3.54-1.51-2.59Z" transform="translate(0 22)" style="fill:#229e08"/><path d="M520.88,98.93c7.07,13.33,12.57,28,12.47,43.25-.1,15.13-4.61,29.52-9.85,43.56-5.35,14.36-9.47,29.07-14.39,43.57-4.06,12-8.31,23.85-12.33,35.82s-7.27,23.68-12.92,34.9a105.54,105.54,0,0,1-20,28c-8.17,8-19.05,15.72-30.35,18.28-6.12,1.39-12.44,1.49-18.68,1.85-6.59.37-13,1.5-19.48,2.5a301.47,301.47,0,0,1-51.63,3.63c-8.42-.17-16.81-1-25.21-1.23a239,239,0,0,1-25.11-1.49c-1.67-.23-1.65,2.4,0,2.62,8.18,1.1,16.24,2.68,24.47,3.59a202.86,202.86,0,0,0,23.91.73c16.22-.13,32.28-.85,48.44-2.44,7.12-.7,14.2-1.84,21.35-2.21,6.24-.32,12.52-.4,18.72-1.29,12-1.73,22.84-8.31,32.05-16,18.93-15.84,28.29-38.13,35.9-60.95,4.18-12.55,7.46-25.38,11.5-38,4.78-14.93,10.68-29.47,15.47-44.4,5.14-16,10.81-33.1,11.14-50.08.32-16.64-6.63-30.71-13-45.65-.71-1.68-3.4-.22-2.51,1.47Z" transform="translate(0 22)" style="fill:#1e8903"/><path d="M521.35,95.6c-15.65,4-26.25,16.88-32.73,31C481,143.33,476.27,161.43,471,179c-5.63,18.61-11.26,37.5-15.15,56.56-3.46,17-6,34.33-16.42,48.71-1,1.37,1.26,3.12,2.36,1.82,10.07-12,13.58-27.5,16.7-42.47,3.75-18,7.26-36,12.1-53.78a526.7,526.7,0,0,1,17.24-52.19c6.31-16.23,16.32-33.5,35-36.58,3.5-.57,2.07-6.34-1.5-5.42Z" transform="translate(0 22)" style="fill:#229e08"/><path d="M315.14,325.28c25.83,8.85,54.83,7.88,81.39,2.8,21.23-4.06,45.31-21.32,41.29-45.74-.36-2.19-3.56-1.49-3.68.5-1.46,23.93-22,39.44-44.21,44.05-24.74,5.13-50.09,1.86-74.76-1.71a.05.05,0,0,0,0,.1Z" transform="translate(0 22)" style="fill:#229e08"/></g><path d="M261.42,517.17s-190.37,26.44-221-82.5S-28.44,69.8,34,69.8c100.47,0,45.83,196,69.8,308.82,18,84.61,92,103.64,148.06,100.47S261.42,517.17,261.42,517.17Z" transform="translate(0 22)" style="fill:#2bbf11"/><g style="clip-path:url(#clip-path-2)"><path d="M.12,115s28-34,51-15,14,226,21,273,32,118,179,119l-6-41-91-26-45-104-9-247-44-30L.12,54Z" transform="translate(0 22)" style="fill:#176800;opacity:0.5"/><path d="M45.33,66.36c-5.9,3.08-11.28,8.51-13.14,15.08C30,89.32,28.7,97.92,27.28,106c-1.86,10.65-2.85,21.36-3.86,32.12-1,11-2.81,22.06-3.18,33.1A293.1,293.1,0,0,0,25.45,235c2.06,11,4.12,22,5.15,33.15,1,11,1.45,22,2.36,33.05a286.28,286.28,0,0,0,12.3,62.64c6.34,20.06,14.13,39.68,21.86,59.23,6.94,17.52,16,33.34,31.06,45.06,14.5,11.27,31.94,18.45,49.06,24.72,43.73,16,90.67,23.59,136.88,15.16,2.55-.47,1.46-4.32-1.08-3.89-39.67,6.78-80.64,1.69-119-9.86-18.07-5.44-36.48-11.83-52.72-21.59-16.76-10.08-28.31-24-36.87-41.42-8.78-17.87-15.26-37-21.21-56s-11.1-38.6-13.94-58.38c-2.94-20.5-3.1-41.3-6.23-61.78S25.21,214.49,24,193.6c-1.41-23.71-2.39-48.39,2.16-71.83,1.9-9.8,2.21-20.07,5-29.69,1.31-4.53,3.95-8.13,6.45-12a27.63,27.63,0,0,1,10-9.87c2.49-1.37.28-5.11-2.23-3.8Z" transform="translate(0 22)" style="fill:#229e08"/><path d="M42,68.53C58.08,76.27,59.72,97.7,61.94,113.2a360.8,360.8,0,0,1,3.94,64.17c-.76,21.31-2.81,42.59-2.35,63.93.45,20.55,4.71,40.28,7.78,60.51,3.22,21.27,1.07,42.57,2.77,63.91,1.54,19.3,8.2,37.39,15.82,55,3.66,8.49,8,16.65,14.51,23.29,6.07,6.16,13.17,10.81,20.42,15.44a213.81,213.81,0,0,0,46.44,22.14,232.82,232.82,0,0,0,29.17,8.26c9.26,1.83,18.75,2.65,28.13,3.56,20.33,2,40.84,3.13,61.26,2,1.8-.1,1.81-2.91,0-2.81-17.65,1-35.34,1.79-53,.48-18.39-1.35-36.17-5.95-54.05-10.14a171.65,171.65,0,0,1-49.36-20.35c-16.65-10.06-32.09-22.62-40-40.8-8.31-19.05-15-39-16-59.92-1-20.13.69-40.08-2.26-60.13-3.08-20.86-7.53-41.19-8-62.38-.41-21,1.19-42,1.54-63a405.51,405.51,0,0,0-5.15-68.72C61.25,92.81,58.49,73.74,42.9,67c-1-.44-1.93,1-.89,1.51Z" transform="translate(0 22)" style="fill:#1e8903"/><path d="M46.23,73.28c12.16,8.12,24.37,18.39,26.3,33.79,0,.35.6.36.56,0C71.43,91,60,79.91,47.51,71.09c-1.33-.93-2.64,1.28-1.28,2.19Z" transform="translate(0 22)" style="fill:#229e08"/><path d="M47.5,72.15c19.54,6.6,28.09,26.66,32.08,45.3,4.44,20.7,7.19,41.92,9.31,63s3.64,42.07,3.73,63.16c.09,21.29-1.64,42.52-1.72,63.79-.06,18.28,2.93,41.17,17.74,53.86.67.58,1.93-.19,1.33-1-5.76-7.83-10.26-15.59-12.7-25.09-2.65-10.31-3.19-21-3-31.57.28-21.64,1.56-43.17.92-64.84S93.43,195.28,91,173.64c-2.32-20.69-4.73-41.85-10-62C76.43,94,66.61,76,47.82,71a.6.6,0,0,0-.32,1.15Z" transform="translate(0 22)" style="fill:#1e8903"/><path d="M41.45,66.93c-29.3,18.51-35,55.88-34.14,87.76.56,20.53,2.37,40.78,1.6,61.35-.76,20.1-.24,39.85,3,59.74,3.35,20.33,8.21,40.46,12.8,60.55,4.54,19.81,8.93,39.68,14.72,59.17,5.36,18,10.86,36.63,19.19,53.53,3.76,7.64,8.08,15,14.18,21,5.9,5.83,12.93,10.34,20.11,14.4a354.45,354.45,0,0,0,57,25.51c20.46,7.2,42,13.75,63.46,17,.58.09.85-.75.25-.91-17.77-4.49-35.42-8.61-52.76-14.66-17.79-6.21-34.78-13.89-51.85-21.79-15.91-7.37-32.39-15.45-42.45-30.46-5-7.53-8.07-16.16-11.13-24.63Q50.64,421,46.56,407.36c-11-36.58-20-73.92-27.83-111.29-4.13-19.61-7.22-39.38-7.42-59.46-.2-19.55,1-39.08.61-58.64C11.13,140.61,7.7,93.49,42.87,69.36c1.47-1,.13-3.41-1.42-2.43Z" transform="translate(0 22)" style="fill:#229e08"/></g><path d="M261.42,661s-40.15-280-48.65-363.81C198,151.24,205.37,1.06,311.13,0s-14.81,546.78,32.78,661Z" transform="translate(0 22)" style="fill:#2bbf11"/><g style="clip-path:url(#clip-path-3)"><path d="M378.12,217l-31-239-111,8-15,31s73-26,93,41-16,339-10,401c4.14,42.8,30.9,165.44,10.45,178.22s-45.65,7.55-69.45,6.78c-31-1,2,17,2,17l68.21-6.27c.5,12,.79,19.27.79,19.27l59-13-19-263Z" transform="translate(0 22)" style="fill:#176800;opacity:0.5"/><path d="M305.63-11.84c-54.24,61.38-59.31,149-58.86,226.87.28,48.36,3.45,96.63,7.79,144.78s9.05,96.55,14,144.77c5.56,53.82,11,107.65,19.4,161.12.08.52.94.4.92-.12-4.55-95-17.34-189.39-26.65-284-4.67-47.45-8.75-95.06-9.86-142.74-1-43.16,0-86.7,6.55-129.42C265.64,66.17,278.67,24,307.69-9.78c1.21-1.41-.81-3.47-2.06-2.06Z" transform="translate(0 22)" style="fill:#229e08"/><path d="M296-3.06c22.67,38.74,12.22,83.35,4.67,124.66-8,43.74-10.37,87.7-10.9,132.09-.54,45.34-1.46,90.67-1.72,136-.25,44.76-.27,90,5.77,134.45,3.31,24.4,8.54,48.51,10.43,73.1,2,25.55-.43,50.65-1.48,76.13-.14,3.22,4.7,3.15,5,0A507.94,507.94,0,0,0,309,605c-1.17-21.88-4.93-43.52-8.34-65.13-3.58-22.7-7-45.52-8.06-68.5-1-22.59-1-45.3-.8-67.92.46-46,.59-92,1.09-138,.5-45.58,1.2-91.37,9.86-136.26,8.36-43.37,19.54-93-4.84-133.4A1.13,1.13,0,0,0,296-3.06Z" transform="translate(0 22)" style="fill:#229e08"/><path d="M291,.38c22.2-1.51,35,20.06,38.38,39.21,1.88,10.75,1.63,21.83,1.95,32.7q.51,17.61.62,35.23c.31,46.33-.41,92.77-3,139-5.16,92.88-11.25,185.9-12.64,278.92-.39,26-.07,52.14.94,78.12,1,25.41,1.7,51.23,5.76,76.36.22,1.36,2.45,1,2.39-.32-1-24.07-3.6-48.06-4.61-72.14-1-23.79-1-47.48-1.3-71.27C319,488.3,321,440.3,323.66,392.46c5.37-95.53,13.18-191.14,12-286.9-.16-13.37-.36-26.77-1-40.12-.57-11.44-1.23-23.08-4.35-34.16-5-17.72-19.42-35-39.37-34.08-2.05.09-2,3.32,0,3.18Z" transform="translate(0 22)" style="fill:#1e8903"/><path d="M290.68-3.67c-47.54,42.11-70.07,108.77-71.86,171A832,832,0,0,0,224,285.08c4.62,40.62,10.56,81.11,13.47,121.92,1.64,23,2.93,45.92,3.39,68.94.47,23.34.58,46.71,1.67,70a.47.47,0,0,0,.94,0c1.77-40.37.29-80.92-1.45-121.26-1.72-39.7-7.16-79.09-12.44-118.43q-4-30-7.4-60.15c-2.19-20-3.86-40.38-2.85-60.52,1.61-32.3,6.83-65.34,16.92-96.1,11.32-34.56,29.87-66.18,56.67-91,1.47-1.36-.7-3.5-2.19-2.19Z" transform="translate(0 22)" style="fill:#229e08"/></g><path d="M299.6,650H175.53l19.24,177.35a6.33,6.33,0,0,0,6.29,5.65h192a6.43,6.43,0,0,0,6.39-5.73L418.7,650Z" transform="translate(0 22)" style="fill:#ffba1f"/><g style="clip-path:url(#clip-path-4)"><path d="M383.12,609s-58,239-208,224l62,43,206-28,7-246Z" transform="translate(0 22)" style="fill:#f78f1e;opacity:0.6000000000000001"/><rect x="178.12" y="715" width="238" height="11" style="fill:#efa511;opacity:0.6000000000000001"/></g><path d="M172.68,650H420.86a4.55,4.55,0,0,1,4.5,5.2l-5.65,38.73A4.75,4.75,0,0,1,415,698H179.13a4.73,4.73,0,0,1-4.67-4L168,655.48A4.71,4.71,0,0,1,172.68,650Z" transform="translate(0 22)" style="fill:#ffd522"/><g style="clip-path:url(#clip-path-5)"><path d="M383.12,609s-58,239-208,224l62,43,206-28,7-246Z" transform="translate(0 22)" style="fill:#ffba1f;opacity:0.6000000000000001"/></g><path d="M481.83,210.81c-1.55,4.72-.48,12.26,4.66,14.46.76.33,1.95-.43,1.31-1.31-1.27-1.77-2.81-3.27-3.65-5.32a11.32,11.32,0,0,1-.43-7.31,1,1,0,0,0-1.89-.52Z" transform="translate(0 22)" style="fill:#ffba1f"/><path d="M488,225.49c6.53-1.07,11.26-7.08,13.2-13.1.25-.79-.9-1.53-1.45-.84-3.67,4.62-6.3,9.93-12.31,11.91a1.05,1.05,0,0,0,.56,2Z" transform="translate(0 22)" style="fill:#ffba1f"/><path d="M490.92,210c-3.92,4-6.45,9.78-4.8,15.41a.84.84,0,0,0,1.65-.23c.36-5.32.69-10.29,3.18-15.15,0,0,0,0,0,0Z" transform="translate(0 22)" style="fill:#ffba1f"/><path d="M496.28,277.31c4.67,1.4,10.77-1.23,11-6.65a.42.42,0,0,0-.78-.21c-2.17,3.75-5.23,6.42-9.87,5.55a.68.68,0,0,0-.36,1.31Z" transform="translate(0 22)" style="fill:#ffba1f"/><path d="M497.15,275.76c-2.48-2.89-3.1-6.3-3.2-10a.9.9,0,0,0-1.66-.45c-2.2,4.28-.65,9.43,2.61,12.69,1.46,1.47,3.57-.71,2.25-2.25Z" transform="translate(0 22)" style="fill:#ffba1f"/><path d="M497.28,276.84a17.44,17.44,0,0,0,5.52-7.93c.22-.66-.72-1-1.08-.45a53,53,0,0,1-5.6,7.22.82.82,0,0,0,1.16,1.16Z" transform="translate(0 22)" style="fill:#ffba1f"/><path d="M548.26,167.83c4.92-3.31,7.29-8.61,9-14.1.23-.75-1-1.29-1.29-.54-2.11,5-4,10.33-8.34,13.79-.48.38.14,1.19.65.85Z" transform="translate(0 22)" style="fill:#ffba1f"/><path d="M547.28,166.23a16.54,16.54,0,0,1-5.46-7.64.51.51,0,0,0-1,.28,17.14,17.14,0,0,0,4.79,9c1.1,1.08,2.82-.73,1.66-1.66Z" transform="translate(0 22)" style="fill:#ffba1f"/><path d="M548.16,166.39a37.07,37.07,0,0,0,1.65-10.22c0-1-1.49-1-1.6,0-.35,3.29-.67,6.61-1.31,9.87a.65.65,0,0,0,1.26.35Z" transform="translate(0 22)" style="fill:#ffba1f"/><path d="M474.73,124.85c-2.77-3.75-3.71-8.1-3.81-12.7a.8.8,0,0,0-1.57-.21c-1.31,5.15.48,10.14,3.8,14.14.72.87,2.27-.3,1.58-1.23Z" transform="translate(0 22)" style="fill:#ffba1f"/><path d="M475.21,125.62a16.81,16.81,0,0,1,1.29-7.41c.45-1.09-1.17-1.53-1.76-.74a10.34,10.34,0,0,0-1.87,8.47c.23,1.32,2.43,1,2.34-.32Z" transform="translate(0 22)" style="fill:#ffba1f"/><path d="M474.22,127.09c3.73.5,7.48-3.32,9.8-5.79a.85.85,0,0,0-1.19-1.2c-1.28,1.05-2.63,2-4,3s-2.86,2.24-4.65,2.06c-1.28-.13-1.23,1.81,0,2Z" transform="translate(0 22)" style="fill:#ffba1f"/><path d="M411.58,325.18c3.59,1.05,7.14,1.75,10.87,1.1.48-.08.34-.81-.12-.83a63.74,63.74,0,0,1-10.6-.82.29.29,0,0,0-.15.55Z" transform="translate(0 22)" style="fill:#ffba1f"/><path d="M413.24,322.35a90.08,90.08,0,0,0,5.39-11.47c.08-.2-.24-.27-.32-.08A89,89,0,0,1,412.63,322c-.23.39.39.75.61.36Z" transform="translate(0 22)" style="fill:#ffba1f"/><path d="M411.4,325.31c3.84-2.71,8-4.64,12.14-6.84a.8.8,0,0,0-.61-1.45c-4.6,1.15-8.77,3.75-12.54,6.55-1,.76-.06,2.5,1,1.74Z" transform="translate(0 22)" style="fill:#ffba1f"/><path d="M448.15,361.08c3.91,3.84,9.23,6.19,14.76,5.51a.94.94,0,0,0,0-1.88c-5-.33-9.46-1.8-13.14-5.26-1.07-1-2.68.59-1.62,1.63Z" transform="translate(0 22)" style="fill:#ffba1f"/><path d="M447.84,359.9a15.14,15.14,0,0,0,4.35-4c1.85-2.57,4-6.62,7.81-5.2.1,0,.17-.13.07-.17a5,5,0,0,0-5.54,1,13.4,13.4,0,0,0-2.55,3.34,22.88,22.88,0,0,1-4.17,5.08s0,.06,0,0Z" transform="translate(0 22)" style="fill:#ffba1f"/><path d="M449.08,361.18c3.85-1.16,7.72-1,11.69-.87,1.35,0,1.42-1.78.3-2.21-4.28-1.65-8.74-.72-12.82,1.11-1.12.5-.32,2.32.83,2Z" transform="translate(0 22)" style="fill:#ffba1f"/><path d="M336.06,35.61c-1.65,5.49-5.9,9.28-10.32,12.63a.54.54,0,0,0,.42,1c6.17-1.65,9.7-7.45,11-13.31a.59.59,0,0,0-1.13-.31Z" transform="translate(0 22)" style="fill:#ffba1f"/><path d="M319.67,32.12a12.77,12.77,0,0,0,.57,10.06c1.32,2.85,3.6,6.51,6.62,7.69,1.08.42,1.63-1.43.48-1.76-6-1.75-7.42-10.64-7.62-16,0,0,0,0-.05,0Z" transform="translate(0 22)" style="fill:#ffba1f"/><path d="M327,33.53a40.86,40.86,0,0,1-.34,8.27c-.28,2.2-1.06,4.46-.63,6.65a.83.83,0,0,0,1.37.36c3.12-3.9,1.64-11,.75-15.44a.59.59,0,0,0-1.15.16Z" transform="translate(0 22)" style="fill:#ffba1f"/><path d="M363.32,103a50.52,50.52,0,0,1-6.61,9.53,19.7,19.7,0,0,1-4.15,3.41c-1.3.76-2.26.85-3,2.19a.76.76,0,0,0,.45,1.1c2.94,1,6.6-3.1,8.25-5.12,2.65-3.25,4.14-7,5.5-10.91.1-.28-.33-.45-.47-.2Z" transform="translate(0 22)" style="fill:#ffba1f"/><path d="M344,100c-1.45,6.32-.36,15.52,5.77,19.24a.54.54,0,0,0,.65-.85,22.07,22.07,0,0,1-5.4-18.25c.07-.58-.89-.7-1-.14Z" transform="translate(0 22)" style="fill:#ffba1f"/><path d="M353.19,99c.17,3.5-1.25,7.35-1.78,10.84a24.13,24.13,0,0,1-2.57,8.13.9.9,0,0,0,1.4,1.08c2.52-2,2.81-5.68,3.31-8.62.66-3.78,1.57-7.78.6-11.57a.49.49,0,0,0-1,.14Z" transform="translate(0 22)" style="fill:#ffba1f"/><path d="M284.13,146.63a30.2,30.2,0,0,0,9.33,21.87c.21.2.58-.06.41-.31a58.81,58.81,0,0,1-9.05-21.66c-.07-.39-.7-.3-.69.1Z" transform="translate(0 22)" style="fill:#ffba1f"/><path d="M304.29,146.81c-1.36,7.81-5.6,14.46-11.3,19.74-.94.88.43,2.17,1.4,1.39,6.56-5.24,9.89-12.81,10.5-21.05,0-.34-.54-.42-.6-.08Z" transform="translate(0 22)" style="fill:#ffba1f"/><path d="M294.65,142.43c-2.18,7.71-3.35,17.45-2.16,25.39a.24.24,0,0,0,.46,0c.61-3.89.5-7.84.82-11.76.36-4.54,1.26-9,1.62-13.53,0-.43-.62-.5-.74-.1Z" transform="translate(0 22)" style="fill:#ffba1f"/><path d="M326.87,234.88a23.73,23.73,0,0,1-7.11,9.72c-2.61,2.28-6,3.58-8.44,6a.64.64,0,0,0,.61,1.06c3.74-.83,7.43-3.55,10-6.3,2.77-2.93,4.07-6.57,5.23-10.36.07-.21-.24-.29-.31-.09Z" transform="translate(0 22)" style="fill:#ffba1f"/><path d="M307.85,232.36a21.37,21.37,0,0,0,3.58,19,.17.17,0,0,0,.29-.17,34.31,34.31,0,0,1-3.27-18.74c0-.34-.51-.4-.6-.08Z" transform="translate(0 22)" style="fill:#ffba1f"/><path d="M315.78,234a47.68,47.68,0,0,1-2.65,8.43c-1,2.43-2.64,4.69-3.15,7.28a.73.73,0,0,0,1.21.71c4.12-3.63,4.91-11.16,5.42-16.3.05-.47-.73-.58-.83-.12Z" transform="translate(0 22)" style="fill:#ffba1f"/><path d="M350.8,296.68a17.65,17.65,0,0,1-5.43,5.65c-1.89,1.25-4,2.18-5.82,3.53a.85.85,0,0,0,.65,1.55c5.12-.73,8.84-6.26,11-10.52a.21.21,0,0,0-.36-.21Z" transform="translate(0 22)" style="fill:#ffba1f"/><path d="M336.7,294.66c-1.31,4.36-1.48,8.95,1.39,12.72.22.29.78.14.64-.27-1.31-4-2.44-8.1-1.48-12.3a.29.29,0,0,0-.55-.15Z" transform="translate(0 22)" style="fill:#ffba1f"/><path d="M340.93,296.33a30,30,0,0,0-2.77,6.18c-.58,1.92-1.36,4.14-.83,6.12a.78.78,0,0,0,1.41.18c1-1.69,1-3.84,1.49-5.72a58.41,58.41,0,0,1,1.95-6.23c.28-.73-.87-1.18-1.25-.53Z" transform="translate(0 22)" style="fill:#ffba1f"/><path d="M253.08,65.68c-1.11,7.08-.12,14.38,5.09,19.63a.35.35,0,0,0,.55-.42c-2.79-6.16-5.24-12.25-5-19.12,0-.34-.55-.43-.6-.09Z" transform="translate(0 22)" style="fill:#ffba1f"/><path d="M270.92,66A43.2,43.2,0,0,1,266,76.69c-2.09,3-5,4.82-7.34,7.53-.08.1,0,.29.12.28,8.06-.58,12.63-11.56,13.44-18.35.09-.77-1.06-.83-1.29-.17Z" transform="translate(0 22)" style="fill:#ffba1f"/><path d="M261.69,68.47c-2,5.11-4.69,11.84-3.23,17.39a.66.66,0,0,0,1.27,0c.7-2.47.49-5.09.77-7.63a61.48,61.48,0,0,1,1.68-9.62.25.25,0,0,0-.49-.14Z" transform="translate(0 22)" style="fill:#ffba1f"/><path d="M206.69,86.49c-2.52,7,2.69,22.57,10.83,24.26.32.07.71-.3.48-.62-2.21-3-5-5.34-6.63-8.84-2-4.17-4.33-10-3.76-14.67.07-.56-.75-.59-.92-.13Z" transform="translate(0 22)" style="fill:#ffba1f"/><path d="M223.8,88.32a29.62,29.62,0,0,1-1.05,12.17c-1.07,3.19-3.44,5.51-4.53,8.62-.13.35.25.65.57.57,8.3-2.07,7-15.41,5.7-21.45-.08-.38-.73-.3-.69.09Z" transform="translate(0 22)" style="fill:#ffba1f"/><path d="M217.23,91.14c-.65,3.12-1.63,6.14-1.63,9.35a15.84,15.84,0,0,0,.52,4.17c.42,1.52,1.64,3,1.18,4.65s2.62,2,2.26,0c-.48-2.59-1.4-5-1.74-7.67a38.61,38.61,0,0,1,.13-10.3c.06-.46-.63-.68-.72-.2Z" transform="translate(0 22)" style="fill:#ffba1f"/><path d="M227.29,190.35c-1.6,5.27-5.23,8.74-8.6,12.85a.78.78,0,0,0,.94,1.22c5.27-2.35,7.8-8.49,8.61-13.81a.49.49,0,0,0-1-.26Z" transform="translate(0 22)" style="fill:#ffba1f"/><path d="M209.4,188.87c-.76,4.15.88,7.77,3,11.28,1.38,2.29,3.31,5.62,6.41,4.95a.21.21,0,0,0,.09-.35c-4.59-4.15-7.81-9.39-8.39-15.73-.05-.58-1-.82-1.1-.15Z" transform="translate(0 22)" style="fill:#ffba1f"/><path d="M217,185.71c-.69,5.36-1.65,13.78,2,18.36.12.15.37,0,.31-.18-.93-3-.75-5.9-1-9a80.89,80.89,0,0,1-.41-9.21c0-.59-.82-.55-.9,0Z" transform="translate(0 22)" style="fill:#ffba1f"/><path d="M218.42,203.37l-.3-1.31a.55.55,0,0,0-.69-.39.57.57,0,0,0-.39.69l.21,1.33a.61.61,0,0,0,.75.43.62.62,0,0,0,.42-.75Z" transform="translate(0 22)" style="fill:#ffba1f"/><path d="M231.12,274.41a19.53,19.53,0,0,1-2.42,8.82c-1.15,2.11-3.13,3.67-4,5.88-.26.63.48,1.24,1.06,1.07,2.75-.82,4.46-4.07,5.52-6.53a18.81,18.81,0,0,0,1.28-9.24.71.71,0,0,0-1.41,0Z" transform="translate(0 22)" style="fill:#ffba1f"/><path d="M215,274.92a20.39,20.39,0,0,0,4.24,10.43c2,2.56,5.82,5.89,9.31,4.81a.92.92,0,0,0-.24-1.8c-6.47-.3-11.22-7.86-12.48-13.55-.1-.46-.89-.37-.83.11Z" transform="translate(0 22)" style="fill:#ffba1f"/><path d="M223.22,272.68a80.71,80.71,0,0,1,.1,8.66c-.12,2.56-.49,5.18.13,7.69.24,1,1.49.79,1.81,0,1.91-4.84.28-11.58-.61-16.55-.14-.8-1.48-.62-1.43.2Z" transform="translate(0 22)" style="fill:#ffba1f"/><path d="M211.49,361.74a25.88,25.88,0,0,0,4.87,8.35c2,2.36,4.07,5.14,7.26,5.73a1.06,1.06,0,0,0,.56-2c-2.81-1.17-4.73-3.2-6.78-5.37a25.88,25.88,0,0,1-5.18-7c-.18-.41-.87-.12-.73.31Z" transform="translate(0 22)" style="fill:#ffba1f"/><path d="M228.18,357.41c.16,6.61-2.72,11.31-5.27,17.12-.15.34.19.86.58.58,5.44-3.91,6.45-11.63,5.62-17.83-.08-.52-.94-.39-.93.13Z" transform="translate(0 22)" style="fill:#ffba1f"/><path d="M220.39,360.44c.33,5-.29,12.52,3.52,16.36a.37.37,0,0,0,.62-.37c-1.67-5.18-2.25-10.58-2.87-16-.09-.79-1.32-.83-1.27,0Z" transform="translate(0 22)" style="fill:#ffba1f"/><path d="M271,400.17a29.63,29.63,0,0,1-4.42,11c-2,3-5.51,5.2-7.05,8.29a1,1,0,0,0,1.17,1.51c3.54-1,6.17-5.58,7.77-8.69a33.73,33.73,0,0,0,3.4-12c0-.5-.78-.61-.87-.12Z" transform="translate(0 22)" style="fill:#ffba1f"/><path d="M251.19,402.28c-.69,6.14,1.73,17.58,9.29,18.65a.9.9,0,0,0,.69-1.63c-4.88-3.54-9.83-10.73-9.93-17,0,0,0,0-.05,0Z" transform="translate(0 22)" style="fill:#ffba1f"/><path d="M260.91,402.81c-.5,5.5-2.61,11.86-1.73,17.35a.76.76,0,0,0,1.37.18c2.5-5,1.77-12.13,1.81-17.53,0-.95-1.37-.92-1.45,0Z" transform="translate(0 22)" style="fill:#ffba1f"/><path d="M227.48,467.14c1.83,4.73,7.2,11.63,13.07,9.88a.54.54,0,0,0-.14-1.06c-5.38-.52-10.06-4.3-12.41-9-.14-.28-.63-.08-.52.22Z" transform="translate(0 22)" style="fill:#ffba1f"/><path d="M243.28,460a23.13,23.13,0,0,1-2.38,10.39c-1,2-2.8,3.81-2.39,6.12a.84.84,0,0,0,1,.58c2.7-.59,3.57-4.3,4.18-6.68a30.88,30.88,0,0,0,.65-10.41c-.06-.68-1.08-.71-1.07,0Z" transform="translate(0 22)" style="fill:#ffba1f"/><path d="M235.26,459.54c-.1,6.37-.56,13.58,5,18,.45.36,1.18-.08.84-.65-3.13-5.34-4.32-11.16-4.68-17.31a.59.59,0,0,0-1.18,0Z" transform="translate(0 22)" style="fill:#ffba1f"/><path d="M300.74,471.3a17,17,0,0,1-4.85,8c-1.83,1.86-4.54,3.5-5.63,5.88a.88.88,0,0,0,1,1.27c2.79-.82,5.15-3.83,6.73-6.15a20.72,20.72,0,0,0,3.45-8.83c.06-.43-.57-.64-.68-.18Z" transform="translate(0 22)" style="fill:#ffba1f"/><path d="M280.63,470c1.18,5.27,4.33,17,11.8,15.87.72-.11.58-1.11,0-1.31a11.19,11.19,0,0,1-7.13-5.87,52.64,52.64,0,0,1-3.72-8.95.49.49,0,0,0-.95.26Z" transform="translate(0 22)" style="fill:#ffba1f"/><path d="M290.41,472.62l-.68,7.17c-.2,2.07-.76,4.3-.18,6.31.13.44.87.63,1.07.14.8-1.88.57-3.92.62-5.94l.2-7.68c0-.68-1-.65-1,0Z" transform="translate(0 22)" style="fill:#ffba1f"/><path d="M339.65,511.8a19.72,19.72,0,0,1-5.26,7.95c-2.09,1.91-4.7,3.09-6.75,5a1.09,1.09,0,0,0,.76,1.84c6.68-.55,11.15-8.67,12.38-14.48a.59.59,0,0,0-1.13-.31Z" transform="translate(0 22)" style="fill:#ffba1f"/><path d="M324.54,509.41c-.66,4.11-1.52,8.72-.43,12.83.64,2.36,2.85,5.75,5.62,4a.52.52,0,0,0,.19-.7c-.59-1-1.53-1.74-2.15-2.76a11.73,11.73,0,0,1-1.23-3.88,32.43,32.43,0,0,1-.8-9.36c.05-.68-1.09-.85-1.2-.16Z" transform="translate(0 22)" style="fill:#ffba1f"/><path d="M331.62,514.48a27.42,27.42,0,0,1-2,4.61,18.66,18.66,0,0,0-1.84,3.72c-.15.48.45.74.78.46,2.35-2,3.16-5.71,3.71-8.61a.33.33,0,0,0-.63-.18Z" transform="translate(0 22)" style="fill:#ffba1f"/><path d="M285.06,548.7a26.44,26.44,0,0,1-2.61,8.06c-1.35,2.4-3.65,3.86-5,6.14a.84.84,0,0,0,.93,1.21c6.37-1.29,7.34-9.92,8-15,.12-.88-1.18-1.29-1.35-.38Z" transform="translate(0 22)" style="fill:#ffba1f"/><path d="M267.06,551.73c1.31,3,2.69,6.3,5.13,8.59,1.76,1.65,4.74,3.34,7.19,2.46a.66.66,0,0,0,0-1.27,33.41,33.41,0,0,1-3.78-1,12.84,12.84,0,0,1-3.31-2.3,25.73,25.73,0,0,1-4.66-6.81c-.21-.38-.74,0-.57.33Z" transform="translate(0 22)" style="fill:#ffba1f"/><path d="M274.66,548.06a29.59,29.59,0,0,1,.8,8.75c0,2.29-.08,4.63,1.26,6.58.44.62,1.58.64,1.76-.23.55-2.7-.06-5.68-.37-8.4a23.89,23.89,0,0,0-1.95-7.33c-.39-.85-1.77-.24-1.5.63Z" transform="translate(0 22)" style="fill:#ffba1f"/><path d="M313.37,591.7a24.57,24.57,0,0,1-3.53,8.11c-1.52,2.31-3.51,4.16-5.17,6.35-.67.89.6,1.93,1.45,1.45,5.22-3,7.81-9.86,8.79-15.49.17-1-1.3-1.43-1.54-.42Z" transform="translate(0 22)" style="fill:#ffba1f"/><path d="M294.56,595c1.46,5.63,5.33,13.25,12.36,12.71.49,0,.84-.81.28-1-2.56-1.1-4.78-2-6.85-4a17.63,17.63,0,0,1-4.84-8,.49.49,0,0,0-.95.27Z" transform="translate(0 22)" style="fill:#ffba1f"/><path d="M302.65,592.7c-.55,4.3-.88,11,2.29,14.41a.64.64,0,0,0,1.08-.44c0-2.12-.95-4.07-1.38-6.12a29.13,29.13,0,0,1-.49-7.85c.06-1-1.39-.93-1.5,0Z" transform="translate(0 22)" style="fill:#ffba1f"/><path d="M250.59,621.6c1.9,4,4.59,8.09,9.6,7.82a.92.92,0,0,0,.24-1.8,18.29,18.29,0,0,1-9.8-6s0,0,0,0Z" transform="translate(0 22)" style="fill:#ffba1f"/><path d="M260.83,617.22a38.29,38.29,0,0,1-.57,6.23,48.88,48.88,0,0,0-1,5.07c-.06,1,1.31,1.24,1.79.48,2.16-3.36,1.77-8.2,1-11.94-.13-.72-1.24-.53-1.24.16Z" transform="translate(0 22)" style="fill:#ffba1f"/><path d="M255.7,620.12c.13,2.55.85,7,3.56,8.1.64.25,1.11-.47,1-1-.22-1.17-1.14-2.05-1.7-3.07a10.76,10.76,0,0,1-1.28-4c-.12-1-1.65-1-1.59,0Z" transform="translate(0 22)" style="fill:#ffba1f"/><path d="M332.55,372.87c-1,3.93-3.56,7.61-6.13,10.69-2.12,2.53-5.25,4.35-7.05,7.06-.56.85.37,1.74,1.22,1.58,3.53-.65,6.61-4.41,8.55-7.22,2.52-3.66,3.46-7.57,4.4-11.84.14-.64-.83-.92-1-.27Z" transform="translate(0 22)" style="fill:#ffba1f"/><path d="M313.33,373.32c.21,6,.74,16.5,8.22,18.15a.62.62,0,0,0,.6-1c-2-2-3.9-3.74-5.15-6.33-1.63-3.39-2.1-7.1-2.55-10.8-.08-.7-1.15-.74-1.12,0Z" transform="translate(0 22)" style="fill:#ffba1f"/><path d="M322.33,374.47c-1.1,5-3.44,11-2.85,16.13.1.79,1.23,1.33,1.66.45,2.31-4.67,2.16-11.26,2.8-16.36.12-.92-1.41-1.11-1.61-.22Z" transform="translate(0 22)" style="fill:#ffba1f"/><path d="M71.87,119.18a30.12,30.12,0,0,1-2.82,10.12c-1.19,2.32-3,4.14-4.31,6.35-.51.87.55,2.06,1.45,1.45,5.28-3.62,5.45-12.2,6-17.92,0-.18-.26-.17-.28,0Z" transform="translate(0 22)" style="fill:#ffba1f"/><path d="M55.67,119.18c.37,5.71,3,18.65,11.12,17.26.9-.15.78-1.48,0-1.71-6.1-1.79-9-10-9.84-15.72-.1-.73-1.33-.56-1.28.17Z" transform="translate(0 22)" style="fill:#ffba1f"/><path d="M64.59,120.84a33.41,33.41,0,0,1-1.23,9.73c-.55,2.36-1.26,4.31-.1,6.55a1.45,1.45,0,0,0,2.62-.34c1.34-5.06.25-10.83-.22-15.94-.06-.68-1.12-.7-1.07,0Z" transform="translate(0 22)" style="fill:#ffba1f"/><path d="M99.93,163.59c-.35,4.5-3,8.22-5.89,11.51-1.91,2.16-4.44,3.89-5.47,6.64a1.28,1.28,0,0,0,1.56,1.56c3.38-1.28,6-5.19,7.89-8.2a24,24,0,0,0,3.36-11.51c.05-.94-1.38-.92-1.45,0Z" transform="translate(0 22)" style="fill:#ffba1f"/><path d="M83.5,165.45a22.4,22.4,0,0,0,2.13,12.83c1.18,2.38,3.09,5.86,6.22,5.09a.85.85,0,0,0,.2-1.54c-5-3-7.47-10.79-7.19-16.38,0-.9-1.25-.84-1.36,0Z" transform="translate(0 22)" style="fill:#ffba1f"/><path d="M90.88,167c-.66,2.73-1.22,5.47-1.69,8.24-.38,2.19-1.08,4.53-.47,6.7a.94.94,0,0,0,1.71.22c.91-1.91.75-4,1-6.06.28-2.89.73-5.76,1.25-8.62.21-1.14-1.48-1.64-1.76-.48Z" transform="translate(0 22)" style="fill:#ffba1f"/><path d="M32.17,179.89a28,28,0,0,1-4,10.34c-1.62,2.63-4.26,4.85-5.22,7.78-.4,1.21,1,2,2,1.5,3-1.38,4.79-5.43,6-8.37a46.25,46.25,0,0,0,2.69-10.87c.15-.91-1.25-1.31-1.4-.38Z" transform="translate(0 22)" style="fill:#ffba1f"/><path d="M14.91,181.9c.23,3.91.54,7.25,2.34,10.82,1.25,2.48,3.62,5.81,6.72,5.62.68-.05,1.35-.86.87-1.52-1.52-2.06-3.67-3.32-5.09-5.56a22.93,22.93,0,0,1-3.57-9.36c-.08-.8-1.32-.83-1.27,0Z" transform="translate(0 22)" style="fill:#ffba1f"/><path d="M23.6,183.54q-.39,3.92-.77,7.83c-.19,2.08-.66,4.17.32,6.1a1,1,0,0,0,1.88-.25c.82-4.29-.12-9.35-.36-13.68a.54.54,0,0,0-1.07,0Z" transform="translate(0 22)" style="fill:#ffba1f"/><path d="M3.18,84.77c-3,8-2.09,20,6.13,24.72a.8.8,0,0,0,1.09-1.09c-4.09-7.6-7.71-14.18-5.5-23.16a.89.89,0,0,0-1.72-.47Z" transform="translate(0 22)" style="fill:#ffba1f"/><path d="M16.88,92.14a19.32,19.32,0,0,1-4.08,10.15A19.59,19.59,0,0,1,9.14,106c-1.21,1-1.86,1.18-2.31,2.63a.89.89,0,0,0,.62,1.1c3.26.57,6.21-3.59,7.84-6,2.3-3.43,3.05-7.54,3.23-11.6,0-1.06-1.58-1-1.64,0Z" transform="translate(0 22)" style="fill:#ffba1f"/><path d="M10.63,90.35c-2.27,4.91-4.5,11.3-2.46,16.63.23.6,1.33.82,1.45,0,.79-5.53.18-10.74,2.17-16.14.24-.67-.86-1.14-1.16-.49Z" transform="translate(0 22)" style="fill:#ffba1f"/><path d="M0,265.64a19.94,19.94,0,0,0,5.61,11.87c2.68,2.6,6.86,5.33,10.73,4.55a.81.81,0,0,0,.19-1.46c-3-2.11-6.49-2.86-9.25-5.45a19,19,0,0,1-5.7-9.94c-.22-1.06-1.73-.58-1.58.43Z" transform="translate(0 22)" style="fill:#ffba1f"/><path d="M16.25,263.09C17.53,269,16,275.79,14,281.36c-.37,1,1,1.6,1.69,1,4.78-4.34,4.08-14.12,2.18-19.69a.83.83,0,0,0-1.59.44Z" transform="translate(0 22)" style="fill:#ffba1f"/><path d="M8.88,267.43c.37,4.77,1.83,10.34,5.91,13.28,1,.69,2.12-.64,1.57-1.57-2.33-4-4.95-7.18-5.69-11.95-.15-1-1.87-.78-1.79.24Z" transform="translate(0 22)" style="fill:#ffba1f"/><path d="M85.65,303.68a23.26,23.26,0,0,1-5.19,10c-2,2.39-5,3.82-6.67,6.31-.63.92.4,1.89,1.32,1.72,3.19-.58,5.93-4.33,7.64-6.88,2.19-3.27,3.15-7.1,3.85-10.92.11-.62-.82-.89-.95-.26Z" transform="translate(0 22)" style="fill:#ffba1f"/><path d="M64.93,306.19c0,5.28,2.89,13.67,9.33,13.81.39,0,.61-.61.21-.78-4.54-2-7.71-8.36-8.28-13-.09-.79-1.27-.84-1.26,0Z" transform="translate(0 22)" style="fill:#ffba1f"/><path d="M74.23,306.74a43,43,0,0,1-.22,7.35c-.29,2.41-1.24,4.84-1.18,7.26a.83.83,0,0,0,1.53.41c2.24-4.09,1.54-10.57,1-15-.08-.73-1.2-.77-1.17,0Z" transform="translate(0 22)" style="fill:#ffba1f"/><path d="M29.51,384.08a18.57,18.57,0,0,0,5.6,10.55c2.48,2.32,7.09,5.26,10.57,3.87a1,1,0,0,0,0-1.9c-3.6-1-6.63-1.63-9.55-4.22a15.93,15.93,0,0,1-5-8.74c-.22-1-1.76-.58-1.58.44Z" transform="translate(0 22)" style="fill:#ffba1f"/><path d="M46.58,378.58a29.62,29.62,0,0,1-.9,10.64c-.81,3.14-2.89,5.9-3.35,9.08-.11.73.66,1.67,1.45,1.11,5.86-4.24,5.32-14.76,3.95-21-.14-.64-1.22-.51-1.15.15Z" transform="translate(0 22)" style="fill:#ffba1f"/><path d="M38,383c.19,5.31.92,12.58,5,16.43a.9.9,0,0,0,1.49-.87c-.63-2.47-2.08-4.75-3-7.14A34.43,34.43,0,0,1,39.37,383c-.1-.88-1.44-.93-1.41,0Z" transform="translate(0 22)" style="fill:#ffba1f"/><path d="M103.58,420.48a32.67,32.67,0,0,1,.41,10.67c-.36,3.2-1.74,6.18-1.92,9.37-.09,1.51,1.83,1.68,2.57.7,4.25-5.66,2.48-15,.57-21.19a.85.85,0,0,0-1.63.45Z" transform="translate(0 22)" style="fill:#ffba1f"/><path d="M82.83,431.41c4.43,4.85,12.55,14.15,20.12,9.65a1,1,0,0,0-.52-1.92c-3.87-.51-7.06-.28-10.63-2.3a45.45,45.45,0,0,1-8.28-6.12.49.49,0,0,0-.69.69Z" transform="translate(0 22)" style="fill:#ffba1f"/><path d="M93.78,423.18c0,6.33,1.92,12.73,6.8,17,.49.43,1.36-.12,1-.74-3.28-5-5.82-10.16-6.22-16.26a.77.77,0,0,0-1.54,0Z" transform="translate(0 22)" style="fill:#ffba1f"/><path d="M101.67,498.76c4.14,1.52,8,2.8,12.33,1.23,3-1.07,5.54-3.09,5.67-6.41a1,1,0,0,0-1.76-.73c-2,1.6-3.64,3.61-6.13,4.49a16.78,16.78,0,0,1-9.75.11c-.85-.24-1.17,1-.36,1.31Z" transform="translate(0 22)" style="fill:#ffba1f"/><path d="M104.39,480.37c3.27,1.64,6.28,3.52,8.43,6.56,1.71,2.41,3,5.08,4.72,7.49a.59.59,0,0,0,1.07-.45,20.88,20.88,0,0,0-4.31-9.29c-2.5-3.08-5.66-4.42-9.35-5.64a.73.73,0,0,0-.56,1.33Z" transform="translate(0 22)" style="fill:#ffba1f"/><path d="M100.93,489.19c4.08,4,11.1,7.65,16.88,5.42.65-.25.86-1.38,0-1.53-2.51-.44-5.06-.4-7.53-1.08a19.42,19.42,0,0,1-7.86-4.3c-1-.9-2.47.53-1.49,1.49Z" transform="translate(0 22)" style="fill:#ffba1f"/><path d="M174.58,474.13a58.54,58.54,0,0,1,6.63,6.06c2.09,2.23,3.85,4.81,6.19,6.79.76.64,2-.17,1.44-1.11a39.27,39.27,0,0,0-6.42-7.51A20,20,0,0,0,175,473.5c-.34-.11-.66.4-.37.63Z" transform="translate(0 22)" style="fill:#ffba1f"/><path d="M173.13,487.44c5,2.4,14.14,4.86,18.16-.46.64-.85-.63-2.08-1.48-1.47-4.4,3.15-11.27,2.25-16.08.52-.82-.3-1.39,1-.6,1.41Z" transform="translate(0 22)" style="fill:#ffba1f"/><path d="M175.07,483c4.15,2.7,9.54,5.16,14.59,4.27a.9.9,0,0,0,0-1.72c-4.86-1.19-9.26-1.46-13.76-4a.82.82,0,0,0-.83,1.42Z" transform="translate(0 22)" style="fill:#ffba1f"/></g></g></g></svg>