<svg width="1000" height="1000" viewBox="0 0 1000 1000" fill="none" xmlns="http://www.w3.org/2000/svg">
<path d="M273.365 301.962L48.1921 392.937C25.1626 402.242 14.0363 428.454 23.3408 451.483L161.489 793.412C170.793 816.441 197.005 827.567 220.035 818.263L445.207 727.287C468.237 717.983 479.363 691.771 470.059 668.741L331.911 326.813C322.606 303.783 296.394 292.657 273.365 301.962Z" fill="#F6F7FF"/>
<mask id="mask0" mask-type="alpha" maskUnits="userSpaceOnUse" x="20" y="298" width="454" height="524">
<path d="M273.365 301.963L48.1921 392.938C25.1626 402.243 14.0363 428.455 23.3408 451.484L161.489 793.413C170.794 816.442 197.005 827.569 220.035 818.264L445.207 727.289C468.237 717.984 479.363 691.772 470.059 668.743L331.911 326.814C322.606 303.784 296.394 292.658 273.365 301.963Z" fill="#F6F7FF"/>
</mask>
<g mask="url(#mask0)">
<path fill-rule="evenodd" clip-rule="evenodd" d="M195.885 284.667L240.858 819.85L541.078 706.795L358.994 232.677L195.885 284.667Z" fill="#EDEFFE"/>
<path d="M611.612 259.211L380.642 184.165C357.019 176.489 331.647 189.417 323.972 213.039L210.012 563.772C202.337 587.394 215.264 612.766 238.887 620.442L469.857 695.488C493.479 703.164 518.851 690.236 526.527 666.614L640.486 315.881C648.162 292.259 635.234 266.887 611.612 259.211Z" fill="#DBDEF3"/>
</g>
<mask id="mask1" mask-type="alpha" maskUnits="userSpaceOnUse" x="199" y="599" width="157" height="114">
<path d="M252.489 686.254L319.207 659.298C326.116 656.507 333.98 659.844 336.771 666.753C339.562 673.662 336.225 681.526 329.316 684.317L262.598 711.273C255.689 714.064 247.825 710.726 245.034 703.817C242.243 696.909 245.581 689.045 252.489 686.254ZM207.703 652.374L336.969 600.147C343.877 597.356 351.741 600.694 354.532 607.603C357.324 614.512 353.986 622.375 347.077 625.167L217.811 677.393C210.902 680.185 203.039 676.847 200.248 669.938C197.456 663.029 200.794 655.166 207.703 652.374Z" fill="white"/>
</mask>
<g mask="url(#mask1)">
<path opacity="0.648182" d="M252.489 686.254L319.207 659.298C326.116 656.507 333.98 659.844 336.771 666.753C339.562 673.662 336.225 681.526 329.316 684.317L262.598 711.273C255.689 714.064 247.825 710.726 245.034 703.817C242.243 696.909 245.581 689.045 252.489 686.254ZM207.703 652.374L336.969 600.147C343.877 597.356 351.741 600.694 354.532 607.603C357.324 614.512 353.986 622.375 347.077 625.167L217.811 677.393C210.902 680.185 203.039 676.847 200.248 669.938C197.456 663.029 200.794 655.166 207.703 652.374Z" fill="#49557F"/>
<path d="M611.61 259.213L380.64 184.166C357.018 176.491 331.646 189.418 323.97 213.041L210.01 563.773C202.335 587.396 215.263 612.768 238.885 620.443L469.855 695.49C493.478 703.165 518.85 690.238 526.525 666.615L640.485 315.883C648.16 292.26 635.233 266.888 611.61 259.213Z" fill="#6977A6"/>
</g>
<path d="M230.031 429.778C230.031 429.778 301.658 431.098 299.54 471.519C297.422 511.94 297.431 554.723 253.941 568.206C210.451 581.69 174.404 582.052 158.087 549.672C151.599 536.798 171.771 521.32 169.423 505.231C165.867 480.857 135.622 464.056 163.971 437.393C179.917 420.42 230.031 429.778 230.031 429.778Z" fill="#40A1FF"/>
<mask id="mask2" mask-type="alpha" maskUnits="userSpaceOnUse" x="151" y="429" width="149" height="150">
<path d="M229.888 431.809C229.888 431.809 301.515 433.129 299.396 473.55C297.278 513.971 297.288 556.754 253.798 570.237C210.308 583.721 174.26 584.083 157.943 551.703C151.455 538.829 171.627 523.351 169.279 507.262C165.723 482.888 135.479 466.087 163.828 439.424C179.773 422.452 229.888 431.809 229.888 431.809Z" fill="#40A1FF"/>
</mask>
<g mask="url(#mask2)">
<path d="M611.607 259.205L380.637 184.159C357.014 176.483 331.642 189.411 323.967 213.033L210.007 563.766C202.332 587.388 215.259 612.76 238.882 620.436L469.852 695.482C493.475 703.158 518.846 690.23 526.522 666.608L640.482 315.875C648.157 292.253 635.23 266.881 611.607 259.205Z" fill="#2A8EEF"/>
</g>
<path d="M134.137 516.488C142.944 509.607 144.506 496.888 137.625 488.08C130.743 479.273 118.025 477.711 109.217 484.592C100.409 491.474 98.8477 504.192 105.729 513C112.61 521.808 125.329 523.369 134.137 516.488Z" fill="#40A1FF"/>
<path d="M653.616 233.504L421.371 162.5C397.618 155.238 372.476 168.606 365.214 192.359L257.393 545.027C250.131 568.78 263.499 593.922 287.252 601.184L519.497 672.188C543.249 679.45 568.392 666.082 575.654 642.329L683.475 289.661C690.737 265.908 677.369 240.766 653.616 233.504Z" fill="#F6F7FF"/>
<mask id="mask3" mask-type="alpha" maskUnits="userSpaceOnUse" x="244" y="149" width="453" height="537">
<path d="M653.614 233.504L421.37 162.5C397.617 155.238 372.474 168.606 365.212 192.359L257.391 545.027C250.129 568.78 263.498 593.922 287.25 601.184L519.495 672.188C543.248 679.45 568.39 666.082 575.652 642.329L683.474 289.661C690.736 265.908 677.367 240.766 653.614 233.504Z" fill="#F6F7FF"/>
</mask>
<g mask="url(#mask3)">
<path fill-rule="evenodd" clip-rule="evenodd" d="M607.39 185.729L358.627 638.043L606.896 716.594L763.763 233.545L607.39 185.729Z" fill="#EDEFFE"/>
<path d="M904.882 531.946L755.364 340.572C740.073 320.999 711.809 317.529 692.237 332.821L401.632 559.866C382.06 575.158 378.589 603.421 393.881 622.994L543.399 814.367C558.69 833.94 586.954 837.41 606.527 822.118L897.131 595.073C916.703 579.782 920.174 551.518 904.882 531.946Z" fill="#DBDEF3"/>
</g>
<mask id="mask4" mask-type="alpha" maskUnits="userSpaceOnUse" x="364" y="463" width="161" height="104">
<path d="M395.554 519.013L464.367 540.052C471.493 542.23 475.503 549.773 473.325 556.899C471.146 564.025 463.604 568.035 456.478 565.857L387.664 544.818C380.539 542.64 376.528 535.097 378.707 527.971C380.885 520.845 388.428 516.835 395.554 519.013ZM382.069 464.499L515.395 505.261C522.521 507.439 526.531 514.982 524.353 522.108C522.174 529.234 514.631 533.244 507.505 531.066L374.18 490.304C367.054 488.125 363.043 480.583 365.222 473.457C367.401 466.331 374.943 462.32 382.069 464.499Z" fill="white"/>
</mask>
<g mask="url(#mask4)">
<path opacity="0.648182" d="M395.554 519.013L464.367 540.052C471.493 542.23 475.503 549.773 473.325 556.899C471.146 564.025 463.604 568.035 456.478 565.857L387.664 544.818C380.539 542.64 376.528 535.097 378.707 527.971C380.885 520.845 388.428 516.835 395.554 519.013ZM382.069 464.499L515.395 505.261C522.521 507.439 526.531 514.982 524.353 522.108C522.174 529.234 514.631 533.244 507.505 531.066L374.18 490.304C367.054 488.125 363.043 480.583 365.222 473.457C367.401 466.331 374.943 462.32 382.069 464.499Z" fill="#49557F"/>
</g>
<path fill-rule="evenodd" clip-rule="evenodd" d="M441.319 366.421C418.904 326.852 413.392 300.449 451.179 285.944C488.967 271.439 528.048 254.028 558.055 288.274C588.061 322.52 603.054 355.303 580.11 383.38C570.987 394.544 548.644 382.411 534.901 391.1C514.08 404.262 511.034 438.726 475.145 423.672C453.154 416.009 447.198 412.842 441.319 366.421Z" fill="#A340FF"/>
<path d="M405.011 403.754C416.186 403.949 425.404 395.047 425.599 383.872C425.794 372.696 416.893 363.479 405.717 363.284C394.542 363.089 385.324 371.99 385.129 383.165C384.934 394.341 393.835 403.558 405.011 403.754Z" fill="#A340FF"/>
<path d="M959.583 533.72L810.066 342.346C794.774 322.774 766.511 319.303 746.938 334.595L456.334 561.64C436.761 576.932 433.291 605.195 448.583 624.768L598.1 816.141C613.392 835.714 641.655 839.184 661.228 823.893L951.832 596.848C971.405 581.556 974.875 553.293 959.583 533.72Z" fill="#F6F7FF"/>
<mask id="mask5" mask-type="alpha" maskUnits="userSpaceOnUse" x="420" y="306" width="568" height="546">
<path d="M959.584 533.72L810.067 342.346C794.775 322.774 766.511 319.303 746.939 334.595L456.335 561.64C436.762 576.932 433.292 605.195 448.584 624.768L598.101 816.141C613.393 835.714 641.656 839.184 661.229 823.893L951.833 596.848C971.406 581.556 974.876 553.293 959.584 533.72Z" fill="#F6F7FF"/>
</mask>
<g mask="url(#mask5)">
<path fill-rule="evenodd" clip-rule="evenodd" d="M971.679 403.844L470.226 772.626L644.229 902.646L1049.79 596.93L971.679 403.844Z" fill="#EDEFFE"/>
</g>
<path opacity="0.648182" d="M690.485 677.048L604.651 567.185C600.063 561.313 591.584 560.272 585.712 564.86C579.84 569.447 578.799 577.926 583.387 583.798L669.221 693.661C673.808 699.532 682.287 700.573 688.159 695.986C694.031 691.398 695.072 682.919 690.485 677.048Z" fill="#49557F"/>
<path opacity="0.648182" d="M628.732 676.284L584.43 619.581C579.843 613.709 571.364 612.668 565.492 617.255C559.62 621.843 558.579 630.322 563.166 636.194L607.468 692.897C612.055 698.769 620.534 699.81 626.406 695.222C632.278 690.635 633.319 682.156 628.732 676.284Z" fill="#49557F"/>
<path fill-rule="evenodd" clip-rule="evenodd" d="M768.648 610.726C726.345 627.416 699.432 629.2 690.327 589.761C681.221 550.322 669.419 509.198 707.508 484.25C745.597 459.302 780.148 449.018 804.758 475.645C814.543 486.233 799.419 506.671 806.111 521.489C816.248 543.939 849.951 551.752 830.05 585.197C819.401 605.907 815.435 611.365 768.648 610.726Z" fill="#FB6159"/>
<path d="M851.041 541.482C860.083 548.052 872.739 546.047 879.309 537.005C885.879 527.962 883.874 515.306 874.832 508.736C865.789 502.166 853.133 504.171 846.563 513.213C839.994 522.256 841.998 534.912 851.041 541.482Z" fill="#FB6159"/>
</svg>
