<svg xmlns="http://www.w3.org/2000/svg" xmlns:xlink="http://www.w3.org/1999/xlink" viewBox="0 0 2052.06 1495.53"><defs><linearGradient id="linear-gradient" x1="1061.48" y1="570.39" x2="1516.43" y2="570.39" gradientTransform="translate(-119.94 612.17) rotate(-25.57)" gradientUnits="userSpaceOnUse"><stop offset="0" stop-color="#fff"/><stop offset="1" stop-color="#ebe8ff"/></linearGradient><linearGradient id="linear-gradient-2" x1="871.95" y1="288.98" x2="1298.88" y2="288.98" gradientTransform="translate(-30.37 159.92) rotate(-8.31)" xlink:href="#linear-gradient"/><linearGradient id="linear-gradient-3" x1="1324.01" y1="487.58" x2="1733.49" y2="487.58" gradientTransform="translate(325.22 1548.87) rotate(-59.1)" xlink:href="#linear-gradient"/><linearGradient id="linear-gradient-4" x1="538.93" y1="891.75" x2="994.76" y2="891.75" gradientTransform="translate(-323.55 450.94) rotate(-27.29)" xlink:href="#linear-gradient"/><linearGradient id="linear-gradient-5" x1="608.06" y1="500.54" x2="1043.78" y2="500.54" gradientTransform="translate(121.68 -160.31) rotate(11.96)" xlink:href="#linear-gradient"/><linearGradient id="linear-gradient-6" x1="915" y1="1031.78" x2="1335.03" y2="1031.78" gradientTransform="translate(-98.48 118.93) rotate(-5.8)" xlink:href="#linear-gradient"/><linearGradient id="linear-gradient-7" x1="1219.11" y1="1087.04" x2="1675.13" y2="1087.04" gradientTransform="translate(845.04 -619.8) rotate(33.66)" xlink:href="#linear-gradient"/><linearGradient id="linear-gradient-8" x1="805.56" y1="730.93" x2="1228.73" y2="730.93" gradientTransform="translate(-80.54 127.66) rotate(-6.91)" xlink:href="#linear-gradient"/><clipPath id="clip-path"><rect x="1088.19" y="437.92" width="401.53" height="264.94" rx="32.4" transform="translate(372.41 -500.45) rotate(25.57)" style="fill:url(#linear-gradient)"/></clipPath><clipPath id="clip-path-2"><path d="M1183.37,633.75s40.36-110,58.68-140.43,60.69-39.65,86-15.29-6.35,93.25-6.54,96.93,31.82-11.44,45.08,1.49-58.2,39.81-76.82,58.29c-3,3-20.68,40-20.68,40Z" style="fill:none"/></clipPath><clipPath id="clip-path-3"><path d="M1183.67,607.89s57.4,13.14,102.95,49.25l-16.82,22.93-89.41-44Z" style="fill:none"/></clipPath><clipPath id="clip-path-4"><rect x="924.25" y="899.31" width="401.53" height="264.94" rx="32.4" transform="matrix(0.99, 0.1, -0.1, 0.99, 109.99, -108.37)" style="fill:url(#linear-gradient-6)"/></clipPath><clipPath id="clip-path-5"><path d="M1204.63,934.69c-48.64-18-72.78,38.13-73.91,40.84-.56-2.87-12.91-62.72-64.19-54.87-52.53,8.05-64.66,60.19-58.73,83.36,17.6,68.77,90.31,132.11,106.45,133.75,15.72,1.61,100.11-45.79,131.16-109.62C1255.88,1006.64,1254.48,953.12,1204.63,934.69Z" style="fill:none"/></clipPath><clipPath id="clip-path-6"><rect x="1246.35" y="954.58" width="401.53" height="264.94" rx="32.4" transform="translate(-359.88 984.25) rotate(-33.66)" style="fill:url(#linear-gradient-7)"/></clipPath><clipPath id="clip-path-7"><path d="M1446.1,1078.28s-46.34-17.74-55.67-22.94a29.28,29.28,0,0,1-14.11-29.53c2-12.44,14-34.28,31-34.38a79.1,79.1,0,0,1,20.48,3.05s11.29-11.62,24.53-12.82,30.14,6.57,35.68,18.4-.7,35.88-18,53.51S1446.1,1078.28,1446.1,1078.28Z" style="fill:none"/></clipPath><clipPath id="clip-path-8"><path d="M1448.8,1083.22s25.09-29.59,36.72-39.38,28.73-15.32,41.83-7.07,27.76,25.43,5.51,50.48a33.65,33.65,0,0,1,7,29.87c-4.21,18.3-21.78,30.61-41,24.1s-34.64-27.85-41.24-40.43S1448.8,1083.22,1448.8,1083.22Z" style="fill:none"/></clipPath><clipPath id="clip-path-9"><path d="M1442.51,1084.77s-29.86-15-45.94-18.88-42.23-.57-47.32,23,6.2,30.4,10.32,33.52a117.63,117.63,0,0,0,10.27,6.63s-1.16,26.83,12.21,35.49,37.1,4.27,51.23-11.87S1442.51,1084.77,1442.51,1084.77Z" style="fill:none"/></clipPath><clipPath id="clip-path-10"><rect x="816.38" y="598.47" width="401.53" height="264.94" rx="32.4" transform="translate(95.31 -117.04) rotate(6.91)" style="fill:url(#linear-gradient-8)"/></clipPath><clipPath id="clip-path-11"><path d="M1108.73,762.14c-1.51,12.46-4,23.77-10.25,33.58-16.15,25.1-46.06,39.89-79.63,35.82-20.55-2.49-38.92-11.41-52.2-24.67-8.84-8.83-13.42-19.57-16.87-31.64-2.55-8.94-5.39-18.61-4.16-28.74,4.87-40.18,33.08-73.93,70.9-70.53,3.71.34,12.92.22,15.25.38,5.54.38,10.77.61,18.11,1,28.95,1.62,50.16,21.43,58,48.74C1111.05,737.1,1110.27,749.4,1108.73,762.14Z" style="fill:none"/></clipPath><clipPath id="clip-path-12"><path d="M931.37,651.8s28.93-20.89,53.89-24.29,45.37,31.08,33.35,48.83c-7.31,10.81-31.79,15.77-43.71-3.36S955.59,652.3,931.37,651.8Z" style="fill:none"/></clipPath><clipPath id="clip-path-13"><rect x="884.65" y="156.51" width="401.53" height="264.94" rx="32.4" transform="translate(53.17 -153.85) rotate(8.31)" style="fill:url(#linear-gradient-2)"/></clipPath><clipPath id="clip-path-14"><path d="M1079.83,300.71s-36,40.58-81,31.4-27.17-92.13,5.48-88.8,75.23,39.23,75.23,39.23Z" style="fill:none"/></clipPath><clipPath id="clip-path-15"><path d="M1072,286.8s-88.86-48.94-48.39-88.68,82.95-18.91,89.41,3.86-17.1,88.13-17.1,88.13Z" style="fill:none"/></clipPath><clipPath id="clip-path-16"><path d="M1094.76,306.37s33.41,55.62,5.23,78.56c-40.22,32.73-89.36-5.57-84.91-36s55.19-50.43,55.19-50.43Z" style="fill:none"/></clipPath><clipPath id="clip-path-17"><path d="M1098.27,283.26s71.3-21.57,92.32,23.86-59.44,88.43-84.5,36.06c-10.37-21.69-19.08-46.87-19.08-46.87Z" style="fill:none"/></clipPath><clipPath id="clip-path-18"><circle cx="1088.08" cy="288.97" r="25.66" style="fill:none"/></clipPath><clipPath id="clip-path-19"><rect x="1327.98" y="355.11" width="401.53" height="264.94" rx="32.4" transform="translate(1161.94 -1074.55) rotate(59.1)" style="fill:url(#linear-gradient-3)"/></clipPath><clipPath id="clip-path-20"><path d="M1622.66,519.19s-3.6-10.08-23.6-10.45-77.23-11.06-105-43.8-46.62-53.34-56.82-50.15-25.32,14.32-10.7,62.12c0,0,60.49,58.88,110.1,59.24S1622.66,519.19,1622.66,519.19Z" style="fill:none"/></clipPath><clipPath id="clip-path-21"><path d="M1628.68,531.72s1.39,42.95-68.31,55.08-144.8-41-155.92-114.57c-3.4-22.52,23.36-20,48.38.69s55.4,46.23,107.45,44.48c52.59-1.75,50.68-3.9,56.54-.18,0,0,15.78-15.29,15.92-31.24l25.47,17.46S1645,525.11,1628.68,531.72Z" style="fill:none"/></clipPath><clipPath id="clip-path-22"><rect x="566.08" y="759.28" width="401.53" height="264.94" rx="32.4" transform="translate(494.31 -252.36) rotate(27.29)" style="fill:url(#linear-gradient-4)"/></clipPath><clipPath id="clip-path-23"><path d="M633.79,877.66c3.55-10.4,20.42-36.38,39.65-56.1,0,0,17.93,30.66,35.21,35.46s38.56,3.43,60.25,22,89.5,38.77,56,97.24-100.89,8.86-130.8-6.58S614.41,934.35,633.79,877.66Z" style="fill:none"/></clipPath><clipPath id="clip-path-24"><path d="M866.19,896.33c-13.71,26.57-39.47,34.8-66.05,21.09s-53.06-42.34-39.35-68.9,59.24-46,85.81-32.28S879.91,869.76,866.19,896.33Z" style="fill:none"/></clipPath><clipPath id="clip-path-25"><path d="M851.41,893c10.51-14.15,19.25-15.28,21.93-13.9s13.18,11.67,18.41,12.38,13.2,3.82,12.37,7-13.93,9.17-29.26,4.45c0,0,19.85,12.87,13.72,19.87-1,1.1-14.44-6.86-21.24-8s-16,.06-16,.06S844.92,901.74,851.41,893Z" style="fill:none"/></clipPath><clipPath id="clip-path-26"><rect x="625.15" y="368.07" width="401.53" height="264.94" rx="32.4" transform="translate(-85.81 182.05) rotate(-11.96)" style="fill:url(#linear-gradient-5)"/></clipPath><clipPath id="clip-path-27"><path d="M730.91,481s-13.18-22.77,7.54-31.67c14.51-6.24,25.2-.59,25.2-.59s5.33-12.21,19.29-13.58c0,0,.92-25.53,28.2-31.31s40.63,19.89,40.63,19.89,14.51-6.24,23.78,7.63c0,0,19-15.1,36.13-1.33s15,33.25-1,47.71c0,0-.93,25.53-19,37.28s-41,.77-41,.77A30.32,30.32,0,0,1,828.37,530c-15.47,1.7-20.43-6.75-20.43-6.75s-7.49,9.5-26.31,10.33S756,524.77,756,524.77s-24.79,10-32.55-4.2S716.72,488.77,730.91,481Z" style="fill:none"/></clipPath><clipPath id="clip-path-28"><path d="M781.19,555.46s-8.23,28.94,5.51,26S781.19,555.46,781.19,555.46Z" style="fill:none"/></clipPath><clipPath id="clip-path-29"><path d="M815.65,575.35s-8.23,28.94,5.51,26S815.65,575.35,815.65,575.35Z" style="fill:none"/></clipPath><clipPath id="clip-path-30"><path d="M834.7,544.13s-8.23,28.93,5.51,26S834.7,544.13,834.7,544.13Z" style="fill:none"/></clipPath><clipPath id="clip-path-31"><path d="M889.08,532.6s-8.23,28.94,5.52,26S889.08,532.6,889.08,532.6Z" style="fill:none"/></clipPath><clipPath id="clip-path-32"><path d="M869.16,564s-8.23,28.93,5.51,26S869.16,564,869.16,564Z" style="fill:none"/></clipPath><linearGradient id="linear-gradient-17" x1="324.77" y1="688.74" x2="777.29" y2="688.74" gradientTransform="translate(555.01 -193.29) rotate(38.92)" xlink:href="#linear-gradient"/><clipPath id="clip-path-33"><path d="M584.72,628.28S548,581,524.21,613.78c-7.34,10.13,6.52,27.71,22.34,23.66S570.17,623.86,584.72,628.28Z" style="fill:none"/></clipPath><clipPath id="clip-path-34"><path d="M488.48,687.24S459,659.39,475.35,642.56c8.84-9.07,19.81-4.64,20.07,8C495.62,660.46,484.73,673.78,488.48,687.24Z" style="fill:none"/></clipPath><clipPath id="clip-path-35"><path d="M602.91,671.52c-1.64-.77-59.36-14.64-94.69-50.66l0,0L498.67,609a5.87,5.87,0,0,0-8.27-.88l-1.17.94a6.94,6.94,0,0,0-1.06,9.76h0l8.91,11c19.06,62.84,11.89,100,12.06,101.79l5.28-4.27c4.88-49.2-11.66-102.11-11.66-102.11l.07-.06c7.85,6.13,50.95,38.66,94.24,49.8Z" style="fill:none"/></clipPath><clipPath id="clip-path-36"><path d="M575.14,731.71c11.15,26.22,5.89,42.12-13.24,60.46-19.5,18.72-56,20-71.63,2.57-18.09-20.09-28.83-47.52-7.8-64.51,11.75-9.48,24.19-3.68,31.58-7.71,7.88-4.3,16.39-18.34,25.61-18.74C554,703.17,567.16,713,575.14,731.71Z" style="fill:none"/></clipPath><clipPath id="clip-path-37"><path d="M653.14,641.54c24.64,14.31,29.94,30.19,25.64,56.35-4.39,26.67-32.83,49.52-55.81,45-26.51-5.24-51.55-20.77-44.89-47,3.72-14.62,17.14-17.44,20.66-25.11,3.73-8.16,2.13-24.5,9.27-30.34C619.14,631.34,635.51,631.3,653.14,641.54Z" style="fill:none"/></clipPath><linearGradient id="linear-gradient-18" x1="1189.34" y1="812" x2="1624.92" y2="812" gradientTransform="translate(197.67 -272.7) rotate(11.9)" xlink:href="#linear-gradient"/><mask id="mask" x="1447.21" y="739.92" width="32.59" height="33.29" maskUnits="userSpaceOnUse"><g id="mask0"><rect x="1446.01" y="750.41" width="29.84" height="13.32" transform="translate(29.87 1569.2) rotate(-56.97)" style="fill:#687def"/></g></mask><mask id="mask-2" x="1451.74" y="724.1" width="37.82" height="33.69" maskUnits="userSpaceOnUse"><g id="mask1"><ellipse cx="1473.19" cy="737.72" rx="11.19" ry="18.11" transform="translate(51.68 1570.68) rotate(-56.97)" style="fill:#627af8"/></g></mask><mask id="mask-3" x="1315.62" y="726.95" width="227.51" height="192.1" maskUnits="userSpaceOnUse"><g id="mask2"><path d="M1360.51,760.5l-13.31,2.12,21.08-7.8c.68-.44,1.37-.87,2.06-1.29l-22.62-6,30.23-.39c-6-5.81-17.59-17.42-16.22-17.37s21.79,7.4,31.83,11.07L1420.83,727l-8.2,14.55,27.24-4.48-8.26,8,19.7-.75L1441,750.08c20.85,8.38,40.08,23.31,53.79,39.51l15.69,6.66-8.33,1.37L1515.83,808l-5.79-.2L1526,826.6l-9-3.62,3.63,15-5.13-2.35c-1.7,37.51-22.61,52.39-79.35,67.26-49.14,12.88-83.65,15.12-103.55-8.93l-2,3.73-5.82-16.12c-.09-.19-.18-.39-.28-.58l-5.17,7.21,1.43-17.35-5.08,3.14,3.18-21.78C1318.81,821.29,1333.66,782.57,1360.51,760.5Z" style="fill:#95a5ff"/></g></mask><mask id="mask-4" x="1315.41" y="760.9" width="39.82" height="39.68" maskUnits="userSpaceOnUse"><g id="mask3"><path d="M1315.41,775.71l8.83-11.17,25,19.78s1.59,4-1,7.18-7.82,4-7.82,4Z" style="fill:#687def"/></g></mask><linearGradient id="linear-gradient-19" x1="591.2" y1="1179.76" x2="1035.17" y2="1179.76" gradientTransform="translate(-296.42 273.19) rotate(-16.17)" xlink:href="#linear-gradient"/><clipPath id="clip-path-38"><path d="M761.19,1140.21s-48.9,4.77-55.8-12.19c-9.13-22.47,31.27-54.2,71.94-52.7C777.32,1075.31,783.83,1132.42,761.19,1140.21Z" style="fill:#ff8b00"/></clipPath><clipPath id="clip-path-39"><path d="M914.32,1182.3a16.77,16.77,0,0,0,1.44-3.88c7.78-33.46-15.2-30.61-25.78-47.84-9.78-15.94-7.35-44.87-42.25-43.94-1.15,0-2.28.11-3.39.24-15.33-11.84-47.14-33.39-66.05-25.07-5.56,2.44-10.08,7.51-13.71,14.08-35.87,4.5-67.36,32-59.19,52.13,5.07,12.45,32.77,13.19,47.14,12.7.33,6,1.13,10.9,2.31,13.71,4.49,10.69,22.52,15.46,36,16.57a19,19,0,0,0,1.94,6.14c5.49,10,16.67,16.9,30.15,21.06-4.69,14.14-9.68,37.5,0,45.41,2.36,1.92,6.76,4.08,12.48,6.09-4.55,13.65-11.72,40.41-1.21,48.81,17,13.55,52.29-8.83,66.79-41.94,7.33-1.61,13.48-4.51,17.4-9.14C931.6,1231.77,921,1198.79,914.32,1182.3Z" style="fill:none"/></clipPath><clipPath id="clip-path-40"><path d="M761.19,1140.21s-48.9,4.77-55.8-12.19c-9.13-22.47,31.27-54.2,71.94-52.7C777.32,1075.31,783.83,1132.42,761.19,1140.21Z" style="fill:none"/></clipPath><clipPath id="clip-path-41"><path d="M838.32,1241.55s-18.46,45.53-4.17,57c18.94,15.14,60.85-14.57,71-54C905.12,1244.52,852.22,1222.06,838.32,1241.55Z" style="fill:#ff8b00"/></clipPath><clipPath id="clip-path-43"><path d="M838.32,1241.55s-18.46,45.53-4.17,57c18.94,15.14,60.85-14.57,71-54C905.12,1244.52,852.22,1222.06,838.32,1241.55Z" style="fill:none"/></clipPath><clipPath id="clip-path-44"><path d="M826,1189.92c-4.57,10.25-15.16,43.87-3.15,53.69s77.38,25.18,95.46,3.82S910,1172.5,910,1172.5Z" style="fill:#ff8b00"/></clipPath><clipPath id="clip-path-46"><path d="M826,1189.92c-4.57,10.25-15.16,43.87-3.15,53.69s77.38,25.18,95.46,3.82S910,1172.5,910,1172.5Z" style="fill:none"/></clipPath><clipPath id="clip-path-47"><path d="M802.15,1171c-11.12,1.47-41.31-2.24-47.31-16.53s-2.16-81.35,23.45-92.62,74.85,32.24,74.85,32.24Z" style="fill:#ff8b00"/></clipPath><clipPath id="clip-path-49"><path d="M802.15,1171c-11.12,1.47-41.31-2.24-47.31-16.53s-2.16-81.35,23.45-92.62,74.85,32.24,74.85,32.24Z" style="fill:none"/></clipPath><clipPath id="clip-path-50"><path d="M792.75,1177.14c-10-18.22,11.93-89.36,55-90.5,34.9-.93,32.47,28,42.25,43.94,10.58,17.23,33.56,14.38,25.78,47.84C908.59,1209.26,812.8,1213.57,792.75,1177.14Z" style="fill:#ff8b00"/></clipPath></defs><g id="Layer_2" data-name="Layer 2"><g id="Layer_2-2" data-name="Layer 2"><path d="M1050.76.13C896-3,621.31,50.66,457.11,110.65S141.34,227.49,94,394.85,76.38,686.18,33.08,785.24s-71.73,304.3,98.79,465.35,571.54,202.09,1054.67,240,925.21-148.41,858.9-328.4-227.36-312.61-104.2-549.44,9.47-426.29-360-517.87S1050.76.13,1050.76.13Z" style="fill:#dfdef9"/><polyline points="662.91 659.55 1028.69 311.53 1220.69 468.53 1383.66 762.55 1504.69 943.53 1368.69 1087.53 1048.83 1087.87 917.69 1179.53 778.69 940.53 598.69 716.53 662.91 659.55" style="fill:#8c8caf;opacity:0.4"/><rect x="1088.19" y="437.92" width="401.53" height="264.94" rx="32.4" transform="translate(372.41 -500.45) rotate(25.57)" style="fill:url(#linear-gradient)"/><g style="clip-path:url(#clip-path)"><g id="fc5dd864-07ec-47ca-b5cf-cb0ca9938d22"><g id="b85aa05b-ecb6-4aea-8241-7f133e048f38"><path d="M1183.37,633.75s40.36-110,58.68-140.43,60.69-39.65,86-15.29-6.35,93.25-6.54,96.93,31.82-11.44,45.08,1.49-58.2,39.81-76.82,58.29c-3,3-20.68,40-20.68,40Z" style="fill:#2bbf11"/><g style="clip-path:url(#clip-path-2)"><path d="M1233.65,492.93l-.29-4.06c.54,0,13.44-.89,34.28,4.61a191.6,191.6,0,0,1,36.82,14.08,247.17,247.17,0,0,1,44.91,29.28l-2.56,3.16a243.57,243.57,0,0,0-44-28.73,188.78,188.78,0,0,0-36-13.8C1250.62,493.17,1238,492.62,1233.65,492.93Z" style="fill:#ffd522"/><path d="M1240,479.62l-.29-4.06c.54,0,13.44-.89,34.28,4.61a191.6,191.6,0,0,1,36.82,14.08,247.17,247.17,0,0,1,44.91,29.28l-2.56,3.16a243,243,0,0,0-44-28.73,188.12,188.12,0,0,0-36-13.8C1257,479.86,1244.41,479.31,1240,479.62Z" style="fill:#ffd522"/><path d="M1183.67,607.89s57.4,13.14,102.95,49.25l-16.82,22.93-89.41-44Z" style="fill:#62e03f"/><g style="clip-path:url(#clip-path-3)"><path d="M1195.75,633.85c1.21-2.35,2.53-4.6,3.68-7a49.52,49.52,0,0,0,3.2-7c.39-1.27-1.47-1.63-2.06-.67a52,52,0,0,0-3,7c-1,2.37-1.77,4.78-2.69,7.17a.5.5,0,0,0,.9.43Z" style="fill:#62e03f"/><path d="M1192.31,633c.43-.55,1-1,1.37-1.52s.68-1,1-1.49c.8-1.25,1.48-2.6,2.17-3.9s1.35-2.45,2-3.7,1.22-2.35.77-3.64a1,1,0,0,0-1.33-.63,4.33,4.33,0,0,0-2,2.74c-.5,1.31-.93,2.65-1.46,3.95s-1.13,2.56-1.67,3.86c-.26.64-.5,1.31-.74,2s-.3,1.36-.54,2.07c-.09.27.25.57.46.3Z" style="fill:#229e08"/><path d="M1204.41,637.91a63.11,63.11,0,0,0,5.14-7.2c.79-1.18,1.43-2.44,2.11-3.67a15.92,15.92,0,0,0,1.92-4.25c.37-1.73-1.77-2.42-2.87-1.38a15.41,15.41,0,0,0-2.48,3.69c-.75,1.3-1.55,2.57-2.19,3.93a67.39,67.39,0,0,0-3.41,8c-.31,1,1.15,1.53,1.77.84Z" style="fill:#229e08"/><path d="M1222.8,625.75a64.49,64.49,0,0,0-9.6,16.75,1.82,1.82,0,1,0,3.45,1.11,96.65,96.65,0,0,1,7.62-16.89.89.89,0,0,0-1.47-1Z" style="fill:#229e08"/><path d="M1233.23,630.5c-.85,1.56-1.84,3-2.67,4.61s-1.58,3.18-2.31,4.78-1.33,3.1-2,4.61c-.65,1.35-2,3-1.83,4.59a.81.81,0,0,0,.87.74.77.77,0,0,0,.39-.14c1.26-.78,1.74-2.74,2.38-4,.78-1.59,1.66-3.11,2.49-4.69s1.5-3,2.23-4.53,1.36-3.47,2.1-5.17a.89.89,0,0,0-1.6-.77Z" style="fill:#229e08"/><path d="M1243.54,635.54a48.57,48.57,0,0,0-4.78,9.93c-.61,1.62-1.28,3.21-2,4.81-.36.88-.72,1.76-1.15,2.6a2,2,0,0,0-.3,1.79.65.65,0,0,0,.65.42c1.44-.13,2.22-2.12,2.84-3.26a34.7,34.7,0,0,0,2-5.06c1.26-3.55,2.57-7.1,4.13-10.52a.81.81,0,0,0-1.46-.71Z" style="fill:#229e08"/><path d="M1253.6,640.13a46.31,46.31,0,0,0-5.79,9.12,48.54,48.54,0,0,0-2.42,4.84c-.34.84-.6,1.7-1,2.54a3.85,3.85,0,0,0-.61,2.45,1.17,1.17,0,0,0,1.79.85,3.27,3.27,0,0,0,1.37-1.78c.39-.79.87-1.58,1.34-2.37,1-1.61,1.66-3.41,2.46-5.11a62.13,62.13,0,0,0,4.07-9.94C1255,640,1254,639.64,1253.6,640.13Z" style="fill:#229e08"/><path d="M1264.37,647.55c-.53.68-1.19,1.28-1.69,2s-.81,1.37-1.2,2.05c-.83,1.47-1.61,3-2.51,4.39a46.38,46.38,0,0,0-2.5,4.39c-.61,1.29-1.8,2.93-1.25,4.36a1.07,1.07,0,0,0,1.36.65c1.4-.5,1.81-2.24,2.43-3.5.73-1.52,1.35-3.08,2-4.65a46.94,46.94,0,0,1,2-4.31c.4-.78.89-1.55,1.22-2.36s.52-1.7.85-2.53c.17-.43-.4-.88-.72-.47Z" style="fill:#229e08"/><path d="M1273.79,652.94a39.73,39.73,0,0,0-2.78,3.57c-.91,1.42-1.68,2.88-2.48,4.37a25.4,25.4,0,0,0-1.83,4.09c-.41,1.31-1.41,2.74-1,4.11a.87.87,0,0,0,1.12.52.76.76,0,0,0,.18-.09c1.06-.76,1.21-2.28,1.91-3.36.84-1.3,1.6-2.6,2.37-3.94s1.5-2.59,2.14-3.94a39.27,39.27,0,0,0,1.63-4.48c.26-.78-.69-1.61-1.31-.86Z" style="fill:#229e08"/></g><path d="M1339.51,608.45c7.14-19.53-4.43-42.14-4.55-42.36l3.61-1.89a72.85,72.85,0,0,1,5.33,14.71c2.85,11.42,2.66,22.12-.57,30.94Z" style="fill:#ffd522"/><path d="M1351.11,604.37c7.14-19.54-4.43-42.15-4.55-42.38l3.61-1.88a72.56,72.56,0,0,1,5.33,14.71c2.85,11.42,2.65,22.12-.57,30.95Z" style="fill:#ffd522"/><path d="M1249,541.34l32.22-17.06a5.17,5.17,0,0,1,7,2.15,5.49,5.49,0,0,1,.41,1l9.62,34.67a5.19,5.19,0,0,1-2.07,5.68l-32.33,22a5.2,5.2,0,0,1-7.95-3.09l-9.52-39.62A5.19,5.19,0,0,1,1249,541.34Z" style="fill:#239e09"/><path d="M1264.8,576.47a3.66,3.66,0,0,1-1.48-1.29,3.59,3.59,0,0,1-.56-1.3l-4.72-22a3.78,3.78,0,0,1,1.73-4l18.07-11.06a2.67,2.67,0,0,1,3.66.87,3,3,0,0,1,.28.63l6.57,21.16a4,4,0,0,1-1.57,4.48l-18.25,12.29A3.76,3.76,0,0,1,1264.8,576.47Zm-2.74-25.27,4.58,21.37,17.81-12-6-19.39Zm0-.2Zm15.87-11.54v0Zm2.08.78h0Z" style="fill:#ffd522"/><path d="M1268.58,554.28l5.23-3.32a1.75,1.75,0,0,1,2.42.54,1.92,1.92,0,0,1,.21.46l1.63,5.67a1.76,1.76,0,0,1-.7,1.94l-5.35,3.65a1.29,1.29,0,0,1-1.81-.34,1.08,1.08,0,0,1-.16-.3l-2.19-6.23A1.75,1.75,0,0,1,1268.58,554.28Z" style="fill:#ffd522"/><g style="opacity:0.5;isolation:isolate"><path d="M1247.87,469.43s57.11-3.34,67.34,35.73-27.64,112.12-50.29,131.38c-14.46,12.29-86.83-10.88-86.83-10.88l-3.57,11.74,99.38,47.54,22.69-43.77L1384,583.66l-23.15-23.06-29.55,2.52,19.41-77.2-35.66-30.51-48.71-.79Z" style="fill:#176800"/></g></g></g></g><polygon points="1493.31 643.25 1353.69 425.53 1330.69 432.53 1459.69 649.53 1235.19 696.03 1252.19 731.03 1496.19 682.03 1504.19 641.03 1493.31 643.25" style="fill:#9090d3;opacity:0.4"/><path d="M1120.69,441.53s90,12,105,15,50-10,55-30,2-31,2-31l-142.16-28.32Z" style="fill:#9090d3;opacity:0.4"/><path d="M1051.69,592.53s148,21,162,21,26,24,26,47-7,54-7,54l-183-91Z" style="fill:#9090d3;opacity:0.4"/></g><rect x="924.25" y="899.31" width="401.53" height="264.94" rx="32.4" transform="matrix(0.99, 0.1, -0.1, 0.99, 109.99, -108.37)" style="fill:url(#linear-gradient-6)"/><g style="clip-path:url(#clip-path-4)"><g id="Layer_3" data-name="Layer 3"><path d="M1204.63,934.69c-48.64-18-72.78,38.13-73.91,40.84-.56-2.87-12.91-62.72-64.19-54.87-52.53,8.05-64.66,60.19-58.73,83.36,17.6,68.77,90.31,132.11,106.45,133.75,15.72,1.61,100.11-45.79,131.16-109.62C1255.88,1006.64,1254.48,953.12,1204.63,934.69Z" style="fill:#f23636"/><g style="clip-path:url(#clip-path-5)"><path d="M1141.09,944.24l-7.45,12s41.34-36.52,67.8,4.26c44,67.78-69.14,189.81-118.61,198.89l103.82-24.23,77.71-106.27-6.71-92.2-57.09-22.53-46,4.51Z" style="fill:#c10505;opacity:0.46000000834465;isolation:isolate"/><ellipse cx="1054.64" cy="962.01" rx="12.85" ry="9.78" transform="translate(-371.25 1029.55) rotate(-45.08)" style="fill:#fff;opacity:0.449999988079071;isolation:isolate"/><ellipse cx="1039.85" cy="982.77" rx="6.92" ry="5.27" transform="translate(-311.27 1453.5) rotate(-62.59)" style="fill:#fff;opacity:0.449999988079071;isolation:isolate"/></g></g><path d="M893.69,1055.53s120,25,135,31,31,22,14,80c-14.53,49.58-175.5-58.5-175.5-58.5l30.3-59.92" style="fill:#9090d3;opacity:0.4"/><path d="M1204.69,887.53l7,71s11,41,66,32c45.17-7.39,84.84-25.94,75-19l-16.5-43.5-116.51-49.35Z" style="fill:#9090d3;opacity:0.4"/><path d="M1331,990.61l-102.3,63.92s-36,29-22,54,53.5,83.5,53.5,83.5l88-12,24-140L1331,990.61" style="fill:#9090d3;opacity:0.4"/><polygon points="1017.69 876.53 917.19 1064.03 893.19 1030.03 931.19 869.03 1017.69 876.53" style="fill:#9090d3;opacity:0.4"/></g><rect x="1246.35" y="954.58" width="401.53" height="264.94" rx="32.4" transform="translate(-359.88 984.25) rotate(-33.66)" style="fill:url(#linear-gradient-7)"/><g style="clip-path:url(#clip-path-6)"><polygon points="1385.19 966.03 1596.19 924.03 1567.19 887.03 1407.19 924.03 1385.19 966.03" style="fill:#9090d3;opacity:0.4"/></g><g id="aa63d7bf-2ca1-47b8-93e9-2a9280b4f540"><g id="b8930095-c36b-4d0b-a65c-019dc1de2efc"><path d="M1444.35,1066s4,45.61,20.71,67.58,46.22,25.29,59.52,23c2.36-.41,2.83,4.25-.55,5.33s-31.29,8-55.46-19.56S1443.2,1071.73,1444.35,1066Z" style="fill:#176800;opacity:0.5;isolation:isolate"/><path d="M1439.8,1084.42s9.54-1.27,13.46-4.17l-.61,3a69.07,69.07,0,0,1-11.75,2.57Z" style="fill:#176800;opacity:0.5;isolation:isolate"/><path d="M1446.1,1078.28s-46.34-17.74-55.67-22.94a29.28,29.28,0,0,1-14.11-29.53c2-12.44,14-34.28,31-34.38a79.1,79.1,0,0,1,20.48,3.05s11.29-11.62,24.53-12.82,30.14,6.57,35.68,18.4-.7,35.88-18,53.51S1446.1,1078.28,1446.1,1078.28Z" style="fill:#2bbf11"/><g style="clip-path:url(#clip-path-7)"><path d="M1423.24,988.12s28.16,41,22.86,90.16c-4.73,43.9,10.22-6.8,10.22-6.8l42.24-48.91-4.84-43.32-45.67-10.58Z" style="fill:#176800;opacity:0.5;isolation:isolate"/><path d="M1397.68,1040.37a62.63,62.63,0,0,0,5.52-12.07c.15-.47-.65-.75-.82-.28a96.49,96.49,0,0,1-5.11,12.14C1397.12,1040.43,1397.53,1040.62,1397.68,1040.37Z" style="fill:#2bbf11"/><path d="M1441.08,1025.3a109.14,109.14,0,0,1,4.59,26.41c.25,4.32.24,8.69.16,13-.08,4.48-.59,8.93-.67,13.4,0,.62.87.6,1,.07a57.35,57.35,0,0,0,1.64-13.12,87,87,0,0,0-.59-13.69,125.08,125.08,0,0,0-6.13-26.1s0,0,0,0Z" style="fill:#1e8c07"/></g><path d="M1448.8,1083.22s25.09-29.59,36.72-39.38,28.73-15.32,41.83-7.07,27.76,25.43,5.51,50.48a33.65,33.65,0,0,1,7,29.87c-4.21,18.3-21.78,30.61-41,24.1s-34.64-27.85-41.24-40.43S1448.8,1083.22,1448.8,1083.22Z" style="fill:#2bbf11"/><g style="clip-path:url(#clip-path-8)"><path d="M1448.19,1083.62a717.58,717.58,0,0,0,91.09,3.17l8.24,18.52-5.35,27.57-24.87,14.51-24.66-4.08-29.2-23.59-15.25-36.1" style="fill:#176800;opacity:0.5;isolation:isolate"/><path d="M1497,1086.47a107.78,107.78,0,0,0-12.41-1.38c-4.35-.21-8.7-.35-13-.6s-8.63-.73-12.93-1.16c-2.12-.21-4.23-.48-6.34-.75-1.8-.23-4.38-1-6.11-.29a.83.83,0,0,0-.28,1.38c1.38,1.31,4.07,1.33,5.86,1.56,2.19.28,4.4.48,6.6.64,4.19.32,8.38.32,12.58.45s8.53.28,12.8.51,8.82.32,13.23.53c.51,0,.56-.81.06-.9Z" style="fill:#1e8c07"/></g><path d="M1442.51,1084.77s-29.86-15-45.94-18.88-42.23-.57-47.32,23,6.2,30.4,10.32,33.52a117.63,117.63,0,0,0,10.27,6.63s-1.16,26.83,12.21,35.49,37.1,4.27,51.23-11.87S1442.51,1084.77,1442.51,1084.77Z" style="fill:#2bbf11"/><g style="clip-path:url(#clip-path-9)"><path d="M1365.45,1131.69a515.65,515.65,0,0,0,78.89-48.13c39.89-29.78,5,41.76,5,41.76l-7.6,41.35-37,12.62-25.41,2.29Z" style="fill:#176800;opacity:0.5;isolation:isolate"/><path d="M1405.16,1110.22c7.2-3.79,14.36-7.63,21.2-12.06,3.36-2.17,6.7-4.37,10-6.65,1.61-1.11,3.15-2.3,4.67-3.53a16.06,16.06,0,0,0,4.18-4.16c.41-.7-.43-1.76-1.21-1.39a20.79,20.79,0,0,0-4.54,3.52c-1.49,1.32-3,2.58-4.55,3.87a109,109,0,0,1-9.63,7.19c-6.67,4.46-13.48,8.71-20.25,13-.14.09,0,.28.14.21Z" style="fill:#1e8c07"/></g></g></g><rect x="816.38" y="598.47" width="401.53" height="264.94" rx="32.4" transform="translate(95.31 -117.04) rotate(6.91)" style="fill:url(#linear-gradient-8)"/><g style="clip-path:url(#clip-path-10)"><polygon points="803.99 652.57 1054.37 598.16 830.41 529.98 803.99 652.57" style="fill:#9090d3;opacity:0.4"/><path d="M798.19,748c192.76,91.2,187.66,93.79,195.5,98.5,10,6,14,30,10,47s-95.5-13.5-95.5-13.5l-146-103Z" style="fill:#9090d3;opacity:0.4"/><path d="M1232.19,696a227.91,227.91,0,0,0-24.5,4.5c-12,3-39.5,12.5-31.5,57.5s28,124,28,124l35-56Z" style="fill:#9090d3;opacity:0.4"/></g><g id="b6199ead-45b5-4577-9013-b14c1804e649"><path d="M1108.73,762.14c-1.51,12.46-4,23.77-10.25,33.58-16.15,25.1-46.06,39.89-79.63,35.82-20.55-2.49-38.92-11.41-52.2-24.67-8.84-8.83-13.42-19.57-16.87-31.64-2.55-8.94-5.39-18.61-4.16-28.74,4.87-40.18,33.08-73.93,70.9-70.53,3.71.34,12.92.22,15.25.38,5.54.38,10.77.61,18.11,1,28.95,1.62,50.16,21.43,58,48.74C1111.05,737.1,1110.27,749.4,1108.73,762.14Z" style="fill:#ff8b00"/><g style="clip-path:url(#clip-path-11)"><path d="M988.16,664.88s90.52.82,94.3,56.72c5.07,74.74-55.49,113.28-142.31,62.76L989.9,839.8l69.63,5.5,46.86-39.62,16.16-46L1116,702.43l-29.56-32.71L1008.19,667" style="fill:#d85107;opacity:0.349999994039536;isolation:isolate"/><path d="M1057.76,761.74A12.37,12.37,0,0,1,1059,759a6.45,6.45,0,0,1,.71-1c.5-.53.25-.38.27.18a6.23,6.23,0,0,1-2.48,4.57h1.23c-1.21-1.06,1.35-3.71,2.07-4.46l-1.68-.2a1.2,1.2,0,0,0,.84.85.76.76,0,0,0,.86-.23,1.34,1.34,0,0,0,.1-1.4,1,1,0,0,0-1.5-.38c-1.77,1.73-4.71,5.27-1.91,7.42a1,1,0,0,0,1.23,0,8.62,8.62,0,0,0,2.49-3.82c.34-1.13.72-2.92,0-4-1.73-2.73-4.34,3.61-4.69,4.73-.25.78.92,1.28,1.19.48Z" style="fill:#ff8b00"/><g style="opacity:0.349999994039536"><path d="M1061.14,767.23a10.82,10.82,0,0,1,1-3.7c.33-.71,1-1.49,1.72-1.31s1,1.09,1,1.84a6.65,6.65,0,0,1-1.62,4.14c-.43.49-1.25.91-1.66.4a1.28,1.28,0,0,1,0-1.16,11.91,11.91,0,0,1,2.34-4.77,6.25,6.25,0,0,1-1.49,4.85,5.16,5.16,0,0,1,1.17-3.32" style="fill:#ff8b00"/></g><g style="opacity:0.349999994039536"><path d="M1024,765.88a10.9,10.9,0,0,1,3.4-1.76c.75-.23,1.74-.29,2.13.39s-.16,1.46-.73,2a6.69,6.69,0,0,1-4.14,1.58c-.66,0-1.52-.31-1.42-1,0-.39.47-.62.84-.79a11.44,11.44,0,0,1,5.11-1.47,6.35,6.35,0,0,1-4.59,2.16,5.1,5.1,0,0,1,3.22-1.37" style="fill:#ff8b00"/></g><g style="opacity:0.349999994039536"><path d="M1070.23,730.35a.84.84,0,0,1,1.18,0v0a.78.78,0,0,1-.11,1.09l-.09.06a.72.72,0,0,1-1-.35,1.21,1.21,0,0,1,0-.18.68.68,0,0,1,.66-.71.59.59,0,0,1,.23,0,.29.29,0,0,1,.19.18.38.38,0,0,1,0,.18,1,1,0,0,1-.53.69.56.56,0,0,1-.72-.29v0a.78.78,0,0,1,.71-.42" style="fill:#ff8b00"/></g><g style="opacity:0.349999994039536"><path d="M1056.79,704.75a.74.74,0,0,1,1,.32.76.76,0,0,1-.32,1,.78.78,0,0,1-.65,0,.79.79,0,0,1,.57-1h0a.4.4,0,0,1,0,.58.56.56,0,0,1-.2.11" style="fill:#ff8b00"/></g><g style="opacity:0.349999994039536"><path d="M1049.29,747.2a.34.34,0,0,1,.47.07.32.32,0,0,1-.07.46l0,0c-.13,0-.27-.16-.17-.26s.23.15.1.14" style="fill:#ff8b00"/></g><g style="opacity:0.349999994039536"><path d="M1038.37,783.47a.55.55,0,0,1,.77,0,.54.54,0,0,1-.46.92c-.18-.12,0-.46.22-.34" style="fill:#ff8b00"/></g><g style="opacity:0.349999994039536"><path d="M1008.1,797.6a9.57,9.57,0,0,1,2-1.09,1.48,1.48,0,0,1,1.86.86,1.3,1.3,0,0,1-.52,1.24,2.87,2.87,0,0,1-1.32.49,6.93,6.93,0,0,1-1.93,0,1,1,0,0,1-.5-.17c-.36-.29-.18-.89.14-1.22a2.33,2.33,0,0,1,2.71-.45,2,2,0,0,1-1.68.79" style="fill:#ff8b00"/></g><g style="opacity:0.349999994039536"><path d="M984.77,795.92a.49.49,0,1,1,1,.05.46.46,0,0,1,0,.2.34.34,0,0,1-.45-.19h0" style="fill:#ff8b00"/></g><g style="opacity:0.349999994039536"><path d="M964.21,784.79a.78.78,0,0,1,1.51.42.91.91,0,0,1-.13.26.67.67,0,0,1-.75.24.51.51,0,0,1-.28-.66v0c0-.08.15-.15.23-.09s-.09.18-.1.09" style="fill:#ff8b00"/></g><g style="opacity:0.349999994039536"><path d="M1038.81,734.57a.84.84,0,0,0,1.07-.42.33.33,0,0,0-.22-.41.33.33,0,0,0-.39.16l0,.06h0l-.06,0a.11.11,0,0,1-.08,0H1039a.29.29,0,0,0-.38.16.28.28,0,0,0,.16.37Z" style="fill:#ff8b00"/></g><g style="opacity:0.349999994039536"><path d="M1039,717.26l.09-.13c.07-.09,0,0,0,0l.1-.08c.11-.1-.09,0,0,0l.12-.06s.1,0,0,0a.83.83,0,0,0,.53-.29.59.59,0,0,0-.11-.81,1,1,0,0,0-1.1,0,1.82,1.82,0,0,0-.69.63.61.61,0,1,0,1,.74Z" style="fill:#ff8b00"/></g><g style="opacity:0.349999994039536"><path d="M1029,698.86a1,1,0,0,1,.22-.09l-.5-.13a1.19,1.19,0,0,0,.65.45h0l.15.06a1.58,1.58,0,0,1,.46.25.68.68,0,0,0,1.07-.63,1.55,1.55,0,0,0-1.54-1.21.8.8,0,0,0-.8.47l-.08.19.22-.23a2,2,0,0,0-.32.17c-.39.25,0,.91.42.7Z" style="fill:#ff8b00"/></g><g style="opacity:0.349999994039536"><path d="M1000.41,740.58l.43-.16a1,1,0,0,0,.44-.35.43.43,0,0,0-.09-.6l-.09-.05a1,1,0,0,0-.58-.07l-.45.07a.61.61,0,0,0-.52.69.63.63,0,0,0,.7.53l.16,0Z" style="fill:#ff8b00"/></g><g style="opacity:0.349999994039536"><path d="M985.52,760.23a4.82,4.82,0,0,0-.65.77.26.26,0,0,0,0,.29.25.25,0,0,0,.29.08,5.07,5.07,0,0,0,.85-.68.34.34,0,0,0,0-.48.35.35,0,0,0-.48-.05l-.05.06Z" style="fill:#ff8b00"/></g><g style="opacity:0.349999994039536"><path d="M964.71,738.85a9.57,9.57,0,0,0-1.49,1.87c-.2.38.31.68.61.47a10.62,10.62,0,0,0,1.65-1.76c.4-.47-.36-1-.77-.58Z" style="fill:#ff8b00"/></g><g style="opacity:0.349999994039536"><path d="M978,715A4.15,4.15,0,0,0,979,713.2c.05-.21-.26-.29-.37-.14a15.44,15.44,0,0,1-1.18,1.49.34.34,0,0,0,0,.48.35.35,0,0,0,.48.06Z" style="fill:#ff8b00"/></g><g style="opacity:0.349999994039536"><path d="M985.59,698A13.49,13.49,0,0,1,988,696c.55-.4,0-1.13-.57-1a6.06,6.06,0,0,0-2.84,2.16c-.5.61.44,1.3,1,.73Z" style="fill:#ff8b00"/></g><g style="opacity:0.349999994039536"><path d="M995.54,716.76a2.32,2.32,0,0,0-1.22,1.83.58.58,0,0,0,.66.5.34.34,0,0,0,.17-.05,2.43,2.43,0,0,0,.75-.64,3.68,3.68,0,0,1,.59-.45.76.76,0,0,0-.93-1.19Z" style="fill:#ff8b00"/></g><ellipse cx="993.73" cy="703.92" rx="11.65" ry="8.87" transform="translate(-210.17 887.26) rotate(-43.97)" style="fill:#fff;opacity:0.449999988079071;isolation:isolate"/></g><path d="M1012.73,690.57c-2.78-3.5,7.54-9.54,17-9s21.09,4.74,20,9S1021.41,701.5,1012.73,690.57Z" style="fill:#d85107;opacity:0.349999994039536;isolation:isolate"/><path d="M1034,660.43s-2.13,10.33-2,11.24,1,11.29,1,11.29-11.33-7.32-11.06-8.87c0,0-3.26,3.32-3.36,4.19s12.13,9.11,12.13,9.11l1.24,4.27s2.18,1.44,4,.78a3.72,3.72,0,0,0,2.31-2.07s-2.27-15.28-1.37-17.81,2.27-11.49,2.27-11.49A4.83,4.83,0,0,1,1034,660.43Z" style="fill:#a05000"/><ellipse cx="1036.6" cy="660.75" rx="1.17" ry="2.63" transform="translate(255.96 1610.34) rotate(-83.09)" style="fill:#b25d10"/><path d="M931.37,651.8s28.93-20.89,53.89-24.29,45.37,31.08,33.35,48.83c-7.31,10.81-31.79,15.77-43.71-3.36S955.59,652.3,931.37,651.8Z" style="fill:#35a31a"/><g style="clip-path:url(#clip-path-12)"><path d="M922.7,656s51.52-23.69,72.11-10.17c18.4,12.07,18.26,41.55,1,44.92s19.78,4,19.78,4l16-48.1L991.2,622.23,951,628Z" style="fill:#428e06"/></g><path d="M957.07,645.37c10.48-2.32,22.48-4.87,32.46.54,9.35,5.07,14.8,14.74,20.15,23.51,1.22,2,2.34,4.23,4.18,5.77,1.63,1.37,3.7,2.14,5.52,3.21,2,1.18,4.3-1.64,2.25-3-1.61-1-3.41-1.88-5-3s-2.63-3.22-3.69-4.91a115.92,115.92,0,0,0-9.78-14.18,38.45,38.45,0,0,0-11.72-9.62,31.28,31.28,0,0,0-15.76-2.86,56.91,56.91,0,0,0-18.84,3.75c-.41.17-.23.85.21.76Z" style="fill:#327c01"/></g><rect x="884.65" y="156.51" width="401.53" height="264.94" rx="32.4" transform="translate(53.17 -153.85) rotate(8.31)" style="fill:url(#linear-gradient-2)"/><g style="clip-path:url(#clip-path-13)"><g id="Layer_3-2" data-name="Layer 3"><path d="M1079.83,300.71s-36,40.58-81,31.4-27.17-92.13,5.48-88.8,75.23,39.23,75.23,39.23Z" style="fill:#ea2727"/><g style="clip-path:url(#clip-path-14)"><path d="M1073.09,287.07s-80.65,55.06-107.1-8.44l2.89,55.16,59.24,8.66,50-29.83Z" style="fill:#c10505;opacity:0.46000000834465;isolation:isolate"/><path d="M1010.06,239.26s39.23,62.78,74,49.42l-.48-14.48Z" style="fill:#c10505;opacity:0.46000000834465;isolation:isolate"/></g><path d="M1072,286.8s-88.86-48.94-48.39-88.68,82.95-18.91,89.41,3.86-17.1,88.13-17.1,88.13Z" style="fill:#ea2727"/><g style="clip-path:url(#clip-path-15)"><path d="M1022.62,192.69a97.91,97.91,0,0,1,53.79-1.36c29.13,7.71,24.79,53.17,14.06,81.28l14,11.09,22.21-28.55-6.57-79.33-68.32-15.45Z" style="fill:#c10505;opacity:0.46000000834465;isolation:isolate"/></g><path d="M1094.76,306.37s33.41,55.62,5.23,78.56c-40.22,32.73-89.36-5.57-84.91-36s55.19-50.43,55.19-50.43Z" style="fill:#ea2727"/><g style="clip-path:url(#clip-path-16)"><path d="M1085.32,307.87s25.45,97.93-52.76,83.05c0,0,68.75,24.45,85.84,12s4.41-81.47-7.69-91.31S1085.32,307.87,1085.32,307.87Z" style="fill:#c10505;opacity:0.46000000834465;isolation:isolate"/></g><path d="M1098.27,283.26s71.3-21.57,92.32,23.86-59.44,88.43-84.5,36.06c-10.37-21.69-19.08-46.87-19.08-46.87Z" style="fill:#ea2727"/><g style="clip-path:url(#clip-path-17)"><path d="M1092.37,297.09s94.46-13.57,98.83,47.28c0,0,19.16-54.24-11.68-68s-78.85-11.52-78.85-11.52Z" style="fill:#c10505;opacity:0.46000000834465;isolation:isolate"/></g><path d="M1095.79,273.68s14.45-69.34,56.72-62.88,47.26,47.24,36.6,67c-13.87,25.7-89.82,9.35-89.82,9.35Z" style="fill:#ea2727"/><path d="M1104.49,277a74.54,74.54,0,0,1,24.06-24.85c.77-.49-.06-1.55-.83-1.11a64.29,64.29,0,0,0-24.36,25.46c-.37.71.74,1.16,1.13.5Z" style="fill:#ce0808"/><path d="M1109,283.69a92.69,92.69,0,0,1,27.82-10.23c9.68-2,19.48-2.13,29.33-1.56a1,1,0,0,0,.27-1.9c-10-1.71-20.45-.88-30.34,1.28a94.62,94.62,0,0,0-27.9,11.3c-.77.46.06,1.55.83,1.11Z" style="fill:#ce0808"/><path d="M1077.53,270.85c-1-10.18-3.09-20.46-7.42-29.77a1,1,0,0,0-1.84.74c2.78,9.69,5.7,19.31,7.46,29.26a.91.91,0,0,0,1.8-.23Z" style="fill:#ce0808"/><path d="M1070.44,289.2c-18-6.19-39.2-5.38-55.74,4.49-.77.46,0,1.7.77,1.36a89.13,89.13,0,0,1,26.66-7,75,75,0,0,1,27.63,2.66c1,.3,1.72-1.19.68-1.54Z" style="fill:#ce0808"/><path d="M1068.4,293.76c-14.74.25-29.64,5.63-40.22,16-.63.63.38,1.64,1.07,1.11,11.41-8.77,24.94-14.46,39.44-14.81,1.51,0,1.21-2.37-.29-2.35Z" style="fill:#ce0808"/><path d="M1080.32,302.92c-11,9.66-19.15,23.14-21,37.79a.88.88,0,0,0,1.74.26c3.39-13.82,9.9-26.75,20.31-36.61.81-.78-.2-2.21-1.07-1.44Z" style="fill:#ce0808"/><path d="M1102,302.82c9.71,5,15.83,14.8,17.57,25.4a.61.61,0,0,0,1.2-.15c0-11.51-7.83-22.08-18.07-26.84C1101.67,300.75,1101,302.31,1102,302.82Z" style="fill:#ce0808"/><circle cx="1088.08" cy="288.97" r="25.66" style="fill:#ffae2c"/><g style="clip-path:url(#clip-path-18)"><path d="M1068.59,268.55s17-5.59,29.74,5.5-5,50.66-32.47,39.24l33.17,7.25,18.43-15.75,4-26.52-17.56-20.41-26.53.16Z" style="fill:#ef8e0c"/><path d="M1081.26,273l.64,0-.83-.84a.59.59,0,0,1,0,.13h0s-.13.19,0,.07-.17.17,0,.05l-.11.09c-.13.08-.07.06.18-.07l.7.2s-.1-.14,0,0a.71.71,0,0,1,.12.75l-.6.44h0c.18,0-.24,0-.07,0a.93.93,0,0,0,.93-.44.89.89,0,0,0-.05-1,1.29,1.29,0,0,0-.82-.48,1.18,1.18,0,0,0-1,.43,1.3,1.3,0,0,0,.2,1.81,1.1,1.1,0,0,0,1.29,0,1,1,0,0,0,.3-.38c-.07.12-.07.14,0,.06a.75.75,0,0,0,.15-.2,2.16,2.16,0,0,0,.36-1.42.75.75,0,0,0-1-.6l-.44.11a.69.69,0,0,0-.59.76.68.68,0,0,0,.76.59h0Z" style="fill:#ef8e0c"/><path d="M1095.63,275.73h0l-.18.1h0l-.21.06h-.13l-.22-.06,0,0-.18-.12,0,0-.15-.16,0,.05-.11-.19,0,0-.06-.22s0,0,0,0v-.19l.06-.23v0l.12-.2,0,0,.17-.16,0,0,.2-.12a2.2,2.2,0,0,0-.26.15l.2-.12,0,0,.23-.06h.19a.73.73,0,0,0-.36,0,.89.89,0,0,0-.31.15.91.91,0,0,0-.18,1.27l.16.17a.84.84,0,0,0,.43.19h.06a1.41,1.41,0,0,0,.29,0,1,1,0,0,0,.37-.12.88.88,0,0,0,.29-.25,1.07,1.07,0,0,0,.16-1.06,1.11,1.11,0,0,0-.82-.63,1,1,0,0,0-.53.05.93.93,0,0,0-.41.3.79.79,0,0,0-.17.61.83.83,0,0,0,.22.46.77.77,0,0,0,.46.24h.22a.9.9,0,0,0,.39-.16Z" style="fill:#ef8e0c"/><path d="M1085.39,287a1.7,1.7,0,0,0,.49-3.36A1.7,1.7,0,0,0,1085.39,287Z" style="fill:#ef8e0c"/><path d="M1073.28,287v.17l.06.21a.56.56,0,0,0,.18.27.39.39,0,0,0,.17.14.6.6,0,0,0,.32.12h.23l.21-.05a.58.58,0,0,0,.27-.19.61.61,0,0,0,.19-.26l0-.16a.89.89,0,0,0,.07-.46.91.91,0,0,0-.17-.42l-.16-.16a.8.8,0,0,0-.42-.18.6.6,0,0,0-.35,0,.69.69,0,0,0-.3.14.86.86,0,0,0-.35.81Z" style="fill:#ef8e0c"/><path d="M1078.24,303.73a1.7,1.7,0,0,0,.49-3.36A1.7,1.7,0,0,0,1078.24,303.73Z" style="fill:#ef8e0c"/><path d="M1095.83,295.26a1.7,1.7,0,0,0,.5-3.36A1.7,1.7,0,0,0,1095.83,295.26Z" style="fill:#ef8e0c"/><path d="M1104.67,288a1.7,1.7,0,0,0,.49-3.36A1.7,1.7,0,0,0,1104.67,288Z" style="fill:#d37505"/><path d="M1105.2,302.56a1.7,1.7,0,0,0,.49-3.36A1.7,1.7,0,0,0,1105.2,302.56Z" style="fill:#d37505"/><path d="M1091,308.87a1.7,1.7,0,0,0,.49-3.36A1.7,1.7,0,0,0,1091,308.87Z" style="fill:#ef8e0c"/><path d="M1105.82,277.3a1.7,1.7,0,0,0,.49-3.36A1.7,1.7,0,0,0,1105.82,277.3Z" style="fill:#d37505"/><path d="M1070.88,278.53a1.7,1.7,0,0,0,.49-3.36A1.7,1.7,0,0,0,1070.88,278.53Z" style="fill:#ef8e0c"/><path d="M1068.91,294.82a1.7,1.7,0,0,0,.49-3.36A1.7,1.7,0,0,0,1068.91,294.82Z" style="fill:#ef8e0c"/></g></g><path d="M850.19,348l93-20s43.5-13.5,59,4c10.38,11.72,29,106,29,106l-53-4-130-42Z" style="fill:#9090d3;opacity:0.4"/></g><rect x="1327.98" y="355.11" width="401.53" height="264.94" rx="32.4" transform="translate(1161.94 -1074.55) rotate(59.1)" style="fill:url(#linear-gradient-3)"/><g style="clip-path:url(#clip-path-19)"><path d="M1448.19,657l77-16s54.28-16.58,65,19c12.5,41.5,21.5,61.5,21.5,61.5l-52.5,11.5-106-44.51Z" style="fill:#9090d3;opacity:0.4"/></g><g id="e304be5f-f070-4b33-b479-ba7812c383ab"><g id="ac98c32a-9a9c-4aff-92db-a2181af8f7a9"><path d="M1622.66,519.19s-3.6-10.08-23.6-10.45-77.23-11.06-105-43.8-46.62-53.34-56.82-50.15-25.32,14.32-10.7,62.12c0,0,60.49,58.88,110.1,59.24S1622.66,519.19,1622.66,519.19Z" style="fill:#ffd522"/><g style="clip-path:url(#clip-path-20)"><path d="M1633.74,504.51s-92.66,18.74-134.73-6.19-72.27-63.24-73-90.46l-23.1,34.07,25.92,48.72,66,49.9,150.16-5.48Z" style="fill:#ffba1f;opacity:0.600000023841858;isolation:isolate"/><path d="M1431.13,411.07s43,47.51,53.36,56.22S1514,496.5,1554,497.24s-117.17-95.38-117.17-95.38Z" style="fill:#fff;opacity:0.409999996423721;isolation:isolate"/><polygon points="1440.71 409.51 1441.01 421 1430.71 427.3 1419.27 426.65 1422.28 417.45 1435.05 408.24 1440.71 409.51" style="fill:#a05000"/><path d="M1534.37,417.31c1.33,2.22,4.78.16,3.45-2.07S1533,415.08,1534.37,417.31Z" style="fill:#ff9e16"/><path d="M1534.37,417.31c1.33,2.22,4.78.16,3.45-2.07S1533,415.08,1534.37,417.31Z" style="fill:#ff9e16"/></g><path d="M1628.68,531.72s1.39,42.95-68.31,55.08-144.8-41-155.92-114.57c-3.4-22.52,23.36-20,48.38.69s55.4,46.23,107.45,44.48c52.59-1.75,50.68-3.9,56.54-.18,0,0,15.78-15.29,15.92-31.24l25.47,17.46S1645,525.11,1628.68,531.72Z" style="fill:#ffd522"/><g style="clip-path:url(#clip-path-21)"><path d="M1649.94,553.21s-28.83-31.46-27.19-27c0,0-21.2,32.75-75.75,31.46S1419.88,513.16,1405.74,454l-18.88,38.24s65,108,92.9,116.92S1636.84,567.82,1649.94,553.21Z" style="fill:#ffba1f;opacity:0.600000023841858;isolation:isolate"/><path d="M1417,462.91s27.61,23.57,44.85,35.24c34.59,23.43,57,44.35,154.72,18.06,7.42-2-8.08-12-8.08-12s-94.42,7.27-111.08-3.72-76.88-54-76.76-53.62-14.89,7.1-14.89,7.1Z" style="fill:#fff;opacity:0.409999996423721;isolation:isolate"/><path d="M1415.58,454.43s1.7,7.95,1.4,8.47-5.41,7.25-5.46,7.66-8.14,2.63-9.28,1.61S1401.4,454.28,1415.58,454.43Z" style="fill:#a05000"/><path d="M1647.57,490.19S1642,512,1622.73,526l11.75,14.09L1665.61,503Z" style="fill:#ffba1f;opacity:0.600000023841858;isolation:isolate"/></g><path d="M1652.21,505.09c1.11.94,7.59,2.15,7.83-6.39.22-8.12-10.75-12.51-16.68-15.19s-12.69-.14-10.26,7S1652.21,505.09,1652.21,505.09Z" style="fill:#a05000"/></g></g><rect x="566.08" y="759.28" width="401.53" height="264.94" rx="32.4" transform="translate(494.31 -252.36) rotate(27.29)" style="fill:url(#linear-gradient-4)"/><g style="clip-path:url(#clip-path-22)"><polyline points="531.69 887.53 752.69 709.53 704.19 689.03 535.19 832.03 540.19 889.03" style="fill:#9090d3;opacity:0.4"/><polyline points="644.69 981.53 951.69 1071.53 924.19 1108.03 628.19 1029.03 651.95 981.53" style="fill:#9090d3;opacity:0.4"/></g><g id="eebc5092-1883-4a92-be74-f8e6fc744d0e"><g id="eae289ab-f1c0-455d-8200-e3c690acc114"><path d="M633.79,877.66c3.55-10.4,20.42-36.38,39.65-56.1,0,0,17.93,30.66,35.21,35.46s38.56,3.43,60.25,22,89.5,38.77,56,97.24-100.89,8.86-130.8-6.58S614.41,934.35,633.79,877.66Z" style="fill:#ffd522"/><g style="clip-path:url(#clip-path-23)"><path d="M702.8,852.09s33.57-4.45,89.94,41.26c33.73,27.35-18.76,101.56-93.22,67.1s-86.23-85.27-86.23-85.27l-6.18,53.41,191.15,99.83,56.79-73.22-14-50.37-117.8-65.54Z" style="fill:#ffba1f;opacity:0.600000023841858;isolation:isolate"/></g><path d="M866.19,896.33c-13.71,26.57-39.47,34.8-66.05,21.09s-53.06-42.34-39.35-68.9,59.24-46,85.81-32.28S879.91,869.76,866.19,896.33Z" style="fill:#ffd522"/><g style="clip-path:url(#clip-path-24)"><path d="M828.83,802.71,814,812.9s18.08-3.38,36.22,18.25,1.65,68.15-25.1,68.58-56.88-20.21-67.71-58.28L743.8,864.81l22.27,47.24,51.24,28.82,43-12.67,31.79-49.31L881.71,826Z" style="fill:#ffba1f;opacity:0.600000023841858;isolation:isolate"/></g><path d="M851.41,893c10.51-14.15,19.25-15.28,21.93-13.9s13.18,11.67,18.41,12.38,13.2,3.82,12.37,7-13.93,9.17-29.26,4.45c0,0,19.85,12.87,13.72,19.87-1,1.1-14.44-6.86-21.24-8s-16,.06-16,.06S844.92,901.74,851.41,893Z" style="fill:#ea2727"/><g style="clip-path:url(#clip-path-25)"><path d="M897.94,914.47S851.09,890,847.27,893.76,839,908,834.29,905.3L850.37,927l41.25,5.86Z" style="fill:#ce0909"/></g><path d="M680.19,881.86s29.89,17.06,57.74,14.15,51.4,23.24,40.34,44.68C762.5,971.25,688.86,946.42,680.19,881.86Z" style="fill:#fff;opacity:0.490000009536743;isolation:isolate"/><ellipse cx="834.18" cy="849.19" rx="13.54" ry="10.64" transform="translate(-231.35 1379.86) rotate(-71.99)" style="fill:#fff"/><ellipse cx="839.43" cy="852.13" rx="5.94" ry="2.94" transform="translate(-230.52 1386.88) rotate(-71.99)" style="fill:#232533"/></g></g><rect x="625.15" y="368.07" width="401.53" height="264.94" rx="32.4" transform="translate(-85.81 182.05) rotate(-11.96)" style="fill:url(#linear-gradient-5)"/><g style="clip-path:url(#clip-path-26)"><path d="M596.85,469.76s33-19,53,4,153,190,153,190l-44,11Z" style="fill:#9090d3;opacity:0.4"/></g><g id="e72c54f4-2faf-497e-883c-040a0ba109ca"><g id="fa5c5d9a-9aec-4764-8ef3-bf0653369e37"><path d="M730.91,481s-13.18-22.77,7.54-31.67c14.51-6.24,25.2-.59,25.2-.59s5.33-12.21,19.29-13.58c0,0,.92-25.53,28.2-31.31s40.63,19.89,40.63,19.89,14.51-6.24,23.78,7.63c0,0,19-15.1,36.13-1.33s15,33.25-1,47.71c0,0-.93,25.53-19,37.28s-41,.77-41,.77A30.32,30.32,0,0,1,828.37,530c-15.47,1.7-20.43-6.75-20.43-6.75s-7.49,9.5-26.31,10.33S756,524.77,756,524.77s-24.79,10-32.55-4.2S716.72,488.77,730.91,481Z" style="fill:#4d88ce"/><g style="clip-path:url(#clip-path-27)"><path d="M726.32,478s7.07-18.91,22.54-20.61,19.79,3.73,19.79,3.73,4.05-18.27,25.35-14.87c0,0-1.14-20.34,19.2-21.48S838.58,440,838.58,440s11.16-7.11,25,5.79c0,0,6.93-4.63,15.15-3.21,0,0,6.76-20.43,29.25-18.86l-94.57-35.38-69.2,32.08L719,451.06Z" style="fill:#61a2e2;opacity:0.699999988079071;isolation:isolate"/><path d="M725.76,482.88s-.6,27,18.22,26.22S767.5,493,767.5,493s1.15,20.34,18.46,19.84,20.89-6,20.89-6S813,513.48,823,508.2s10.11-19.55,10.11-19.55,7,3.26,22.41-6.33a26.81,26.81,0,0,0,25.84,2.44c14.51-6.25,8.92-17.72,8.92-17.72s21.3,3.4,23.83-14.55a49.72,49.72,0,0,0-6.74-31.82l30.34,23.65-8.88,47.79-22.14,30L882,540l-53.68,8.2-52.8,4.86-33.19-7.22-25.71-16.72-9.68-23.28,9.46-22.59Z" style="fill:#2874bf"/></g><path d="M781.19,555.46s-8.23,28.94,5.51,26S781.19,555.46,781.19,555.46Z" style="fill:#a9e2ff"/><g style="clip-path:url(#clip-path-28)"><path d="M781.21,565.35c-.36,2.44-.5,4.92-.8,7.37-.23,1.93-.46,4.28,1.42,5.47a1.48,1.48,0,0,0,2.1-1.9A14.77,14.77,0,0,1,783,574c-.2-.93-.27-1.91-.38-2.85-.22-1.94-.31-3.88-.59-5.81-.07-.5-.77-.38-.83.06Z" style="fill:#ccf1ff"/></g><path d="M815.65,575.35s-8.23,28.94,5.51,26S815.65,575.35,815.65,575.35Z" style="fill:#a9e2ff"/><g style="clip-path:url(#clip-path-29)"><path d="M816.23,584.21a62.92,62.92,0,0,1-1.1,7.09,7.79,7.79,0,0,0,1.12,6,1.24,1.24,0,0,0,1.2.39,1.44,1.44,0,0,0,.59-.3,1.26,1.26,0,0,0,.39-1.2c-.5-2.13-1.34-4-1.42-6.23a47.2,47.2,0,0,0-.45-5.81.17.17,0,0,0-.21-.12.15.15,0,0,0-.12.14Z" style="fill:#ccf1ff"/></g><path d="M834.7,544.13s-8.23,28.93,5.51,26S834.7,544.13,834.7,544.13Z" style="fill:#a9e2ff"/><g style="clip-path:url(#clip-path-30)"><path d="M834.86,554.44c.2,2.69-.66,5.35-.58,8,.05,1.59.13,4.25,2.13,4.53a.57.57,0,0,0,.59-.4,3.05,3.05,0,0,0-.18-2.29,17.42,17.42,0,0,1-.54-3.52,23.54,23.54,0,0,0-.94-6.47.25.25,0,0,0-.29-.18.23.23,0,0,0-.18.28Z" style="fill:#ccf1ff"/></g><path d="M889.08,532.6s-8.23,28.94,5.52,26S889.08,532.6,889.08,532.6Z" style="fill:#a9e2ff"/><g style="clip-path:url(#clip-path-31)"><path d="M889.18,542a70.15,70.15,0,0,0-.8,8c0,1.94.4,4.77,2.28,5.77a1,1,0,0,0,1.37-.33,1.11,1.11,0,0,0,.15-.43,4.54,4.54,0,0,0-.66-2.57,11.29,11.29,0,0,1-.95-3.37c-.27-2.39-.43-4.78-.75-7.16C889.77,541.57,889.23,541.66,889.18,542Z" style="fill:#ccf1ff"/></g><path d="M869.16,564s-8.23,28.93,5.51,26S869.16,564,869.16,564Z" style="fill:#a9e2ff"/><g style="clip-path:url(#clip-path-32)"><path d="M869.28,573.29c-.13,1.47-.22,2.94-.38,4.41s-.45,2.67-.49,4c-.06,1.91.28,5.52,2.72,5.72a1.11,1.11,0,0,0,1.09-.74c.37-1.13-.23-1.81-.62-2.83a18.5,18.5,0,0,1-.89-3.34c-.47-2.41-.06-4.93-.85-7.28a.3.3,0,0,0-.37-.19.3.3,0,0,0-.21.24Z" style="fill:#ccf1ff"/><path d="M887.86,564.18a1.79,1.79,0,0,0-.74-3.49A1.79,1.79,0,0,0,887.86,564.18Z" style="fill:#ccf1ff"/></g></g></g><rect x="350.26" y="556.27" width="401.53" height="264.94" rx="32.4" transform="translate(-310.38 499.06) rotate(-38.92)" style="fill:url(#linear-gradient-17)"/><g id="Layer_3-3" data-name="Layer 3"><path d="M584.72,628.28S548,581,524.21,613.78c-7.34,10.13,6.52,27.71,22.34,23.66S570.17,623.86,584.72,628.28Z" style="fill:#35a31a"/><g style="clip-path:url(#clip-path-33)"><path d="M519.79,618.32s5.66-4.58,25.36-3S588,629.16,588,629.16l2.19-12.11L546.87,595.8l-23,12.41Z" style="fill:#2d9110"/></g><path d="M488.48,687.24S459,659.39,475.35,642.56c8.84-9.07,19.81-4.64,20.07,8C495.62,660.46,484.73,673.78,488.48,687.24Z" style="fill:#35a31a"/><g style="clip-path:url(#clip-path-34)"><path d="M487.07,636.66a71.28,71.28,0,0,0-4.31,18.67c-.83,9.24,0,26.47,7.86,35.36l4.62-19.9,5.26-17.51-6-17.08-12.52.87" style="fill:#2d9110"/></g><path d="M483.61,672.92a73.58,73.58,0,0,1,1.91-27.83,74.53,74.53,0,0,1,4.68-12.93,64.46,64.46,0,0,1,3.3-6.2c.59-1,1.21-2,1.85-2.91a6.38,6.38,0,0,0,1.37-2.69.82.82,0,0,0-.74-.89.86.86,0,0,0-.39.06c-1.51.74-2.38,2.64-3.24,4-1,1.55-1.85,3.13-2.69,4.74a69.3,69.3,0,0,0-7.76,32.37A72.84,72.84,0,0,0,483.19,673a.22.22,0,0,0,.25.17.23.23,0,0,0,.17-.23Z" style="fill:#358706"/><path d="M503.06,619c9.09-3.63,19.09-4.43,28.79-4.1,4.94.17,9.83.7,14.73,1.36a115.42,115.42,0,0,1,14.9,2.69c2.68.72,5.31,1.61,7.91,2.59a57,57,0,0,0,8.05,2.92c.8.17,1.21-1,.56-1.47a34.26,34.26,0,0,0-6.87-3.1c-2.45-.9-4.92-1.76-7.45-2.42a110.77,110.77,0,0,0-15.15-2.6c-10-1.19-20.13-2.19-30.17-.91a56,56,0,0,0-15.6,4.32.38.38,0,0,0-.16.53.39.39,0,0,0,.47.19Z" style="fill:#358706"/><path d="M602.91,671.52c-1.64-.77-59.36-14.64-94.69-50.66l0,0L498.67,609a5.87,5.87,0,0,0-8.27-.88l-1.17.94a6.94,6.94,0,0,0-1.06,9.76h0l8.91,11c19.06,62.84,11.89,100,12.06,101.79l5.28-4.27c4.88-49.2-11.66-102.11-11.66-102.11l.07-.06c7.85,6.13,50.95,38.66,94.24,49.8Z" style="fill:#35a31a"/><g style="clip-path:url(#clip-path-35)"><path d="M485.61,616.83s5.73-8.51,10.35-4.81,53,46.43,61,51.58,44.25,12.75,44.25,12.75l1-11.16s-45.62-11.65-53.89-19.5-43.8-35.43-43.8-35.43L495,602.8l-12.05,5.51Z" style="fill:#2d9110;stroke:#35a31a;stroke-miterlimit:10"/></g><path d="M575.14,731.71c11.15,26.22,5.89,42.12-13.24,60.46-19.5,18.72-56,20-71.63,2.57-18.09-20.09-28.83-47.52-7.8-64.51,11.75-9.48,24.19-3.68,31.58-7.71,7.88-4.3,16.39-18.34,25.61-18.74C554,703.17,567.16,713,575.14,731.71Z" style="fill:#ea2828"/><g style="clip-path:url(#clip-path-36)"><path d="M501.25,721.87s27.58-15.49,49.19,11.68,8.52,67.79-16.17,81.26c0,0,35-17.56,44.91-32.06s8.44-35.59,2-48.79-22.54-33.52-31.51-35S501.25,721.87,501.25,721.87Z" style="fill:#c10505;opacity:0.46000000834465;isolation:isolate"/></g><path d="M653.14,641.54c24.64,14.31,29.94,30.19,25.64,56.35-4.39,26.67-32.83,49.52-55.81,45-26.51-5.24-51.55-20.77-44.89-47,3.72-14.62,17.14-17.44,20.66-25.11,3.73-8.16,2.13-24.5,9.27-30.34C619.14,631.34,635.51,631.3,653.14,641.54Z" style="fill:#ea2828"/><g style="clip-path:url(#clip-path-37)"><path d="M595.25,662.13l-.37,7s7.54-10.52,24.68-15.31,38.54,24.5,40.79,46.91-9.91,39.36-24.49,46.93l30.52-16.25,21.09-33.52-7.61-44.27-42.35-27.22L604.84,636Z" style="fill:#c10505;opacity:0.46000000834465;isolation:isolate"/></g><ellipse cx="595.38" cy="701.32" rx="6.41" ry="8.42" transform="translate(-181.62 208.78) rotate(-17.3)" style="fill:#fff;opacity:0.449999988079071;isolation:isolate"/><ellipse cx="602.9" cy="716.24" rx="3.45" ry="4.54" transform="translate(-300.98 472.34) rotate(-34.81)" style="fill:#fff;opacity:0.449999988079071;isolation:isolate"/><ellipse cx="489.02" cy="749.53" rx="8.42" ry="6.41" transform="translate(-262.21 1235.93) rotate(-89.8)" style="fill:#fff;opacity:0.449999988079071;isolation:isolate"/><ellipse cx="491.71" cy="766.02" rx="3.45" ry="4.54" transform="translate(-205.65 181) rotate(-17.31)" style="fill:#fff;opacity:0.449999988079071;isolation:isolate"/></g><rect x="1206.36" y="679.53" width="401.53" height="264.94" rx="32.4" transform="matrix(0.98, -0.21, 0.21, 0.98, -137.19, 307.6)" style="fill:url(#linear-gradient-18)"/><rect x="1446.01" y="750.41" width="29.84" height="13.32" transform="translate(29.87 1569.2) rotate(-56.97)" style="fill:#687def"/><g style="mask:url(#mask)"><path d="M1464.25,766.51l-2.39-26.59L1479.8,748Z" style="fill:#5a70eb"/></g><ellipse cx="1473.19" cy="737.72" rx="11.19" ry="18.11" transform="translate(51.68 1570.68) rotate(-56.97)" style="fill:#6b81f3"/><g style="mask:url(#mask-2)"><ellipse cx="1468.11" cy="744.17" rx="11.19" ry="18.11" transform="translate(43.96 1569.35) rotate(-56.97)" style="fill:#7489f9"/></g><path d="M1360.51,760.5l-13.31,2.12,21.08-7.8c.68-.44,1.37-.87,2.06-1.29l-22.62-6,30.23-.39c-6-5.81-17.59-17.42-16.22-17.37s21.79,7.4,31.83,11.07L1420.83,727l-8.2,14.55,27.24-4.48-8.26,8,19.7-.75L1441,750.08c20.85,8.38,40.08,23.31,53.79,39.51l15.69,6.66-8.33,1.37L1515.83,808l-5.79-.2L1526,826.6l-9-3.62,3.63,15-5.13-2.35c-1.7,37.51-22.61,52.39-79.35,67.26-49.14,12.88-83.65,15.12-103.55-8.93l-2,3.73-5.82-16.12c-.09-.19-.18-.39-.28-.58l-5.17,7.21,1.43-17.35-5.08,3.14,3.18-21.78C1318.81,821.29,1333.66,782.57,1360.51,760.5Z" style="fill:#95a5ff"/><g style="mask:url(#mask-3)"><path d="M1487.05,826.09c-2-38.49-24.53-65.44-35.55-74.1l49.38,9.15L1543.13,809l-11.35,65-81,41.94c-24.64,2.19-79.53,5.38-101.89.64s-25.31-18.54-24-24.85C1385.77,929.45,1489.54,874.22,1487.05,826.09Z" style="fill:#8293f5"/></g><ellipse cx="1433.89" cy="792.08" rx="26.6" ry="33.25" transform="translate(-197.63 645.22) rotate(-23.77)" style="fill:#6577e0"/><ellipse cx="1393.07" cy="805.8" rx="19.31" ry="24.14" transform="translate(-206.63 629.93) rotate(-23.77)" style="fill:#6577e0"/><ellipse cx="1430.01" cy="793.92" rx="19.37" ry="24.22" transform="translate(-198.7 643.81) rotate(-23.77)" style="fill:#fff"/><ellipse cx="1395.18" cy="803.62" rx="14.07" ry="17.58" transform="translate(-205.57 630.59) rotate(-23.77)" style="fill:#fff"/><ellipse cx="1397.13" cy="804.04" rx="5.16" ry="6.45" transform="translate(-205.57 631.41) rotate(-23.77)" style="fill:#5a5a70"/><ellipse cx="1422.48" cy="797.13" rx="5.16" ry="6.45" transform="translate(-200.63 641.05) rotate(-23.77)" style="fill:#5a5a70"/><path d="M1366.92,864.62c-2.22-1.8,0-15.4,1.34-22a94.76,94.76,0,0,0,18,11.5C1380.73,858.39,1369.13,866.42,1366.92,864.62Z" style="fill:#fff"/><path d="M1354.6,829.29c12.85,15.74,52.78,51.59,113.57,21.3" style="fill:none;stroke:#3b50c1;stroke-linecap:round;stroke-linejoin:round;stroke-width:1.43457996845245px"/><path d="M1315.41,775.71l8.83-11.17,25,19.78s1.59,4-1,7.18-7.82,4-7.82,4Z" style="fill:#687def"/><g style="mask:url(#mask-4)"><path d="M1347.13,800.58,1323.51,765l1.8-4.08,29.92,20.91Z" style="fill:#5a71eb"/></g><ellipse cx="1312.94" cy="765.05" rx="19.37" ry="11.97" transform="translate(-101.3 1320.96) rotate(-51.69)" style="fill:#7d92ff"/><ellipse cx="1311.56" cy="761.89" rx="9.74" ry="4.6" transform="translate(-99.35 1318.67) rotate(-51.69)" style="fill:#657cf1"/><rect x="612.42" y="1047.29" width="401.53" height="264.94" rx="32.4" transform="translate(360.78 -179.81) rotate(16.17)" style="fill:url(#linear-gradient-19)"/><g id="bbb86af8-56d4-40c5-9e80-f4382cd2c1df"><g id="b9640530-c98c-4f96-95aa-0b6996e7dc1e"><path d="M761.19,1140.21s-48.9,4.77-55.8-12.19c-9.13-22.47,31.27-54.2,71.94-52.7C777.32,1075.31,783.83,1132.42,761.19,1140.21Z" style="fill:#ff8b00"/><g style="clip-path:url(#clip-path-38)"><path d="M914.32,1182.3a16.77,16.77,0,0,0,1.44-3.88c7.78-33.46-15.2-30.61-25.78-47.84-9.78-15.94-7.35-44.87-42.25-43.94-1.15,0-2.28.11-3.39.24-15.33-11.84-47.14-33.39-66.05-25.07-5.56,2.44-10.08,7.51-13.71,14.08-35.87,4.5-67.36,32-59.19,52.13,5.07,12.45,32.77,13.19,47.14,12.7.33,6,1.13,10.9,2.31,13.71,4.49,10.69,22.52,15.46,36,16.57a19,19,0,0,0,1.94,6.14c5.49,10,16.67,16.9,30.15,21.06-4.69,14.14-9.68,37.5,0,45.41,2.36,1.92,6.76,4.08,12.48,6.09-4.55,13.65-11.72,40.41-1.21,48.81,17,13.55,52.29-8.83,66.79-41.94,7.33-1.61,13.48-4.51,17.4-9.14C931.6,1231.77,921,1198.79,914.32,1182.3Z" style="fill:#d85107;opacity:0.349999994039536;isolation:isolate"/><g style="clip-path:url(#clip-path-39)"><g style="opacity:0.26"><path d="M693.7,1125s55.46-28.88,93.87-10,67.41,38.73,78.8,68.88,14.74,46.71,2.39,68.67-38.88,64.48-38.88,64.48l-43.43-107.83-52.57-53.13S684.63,1162.37,693.7,1125Z" style="fill:#ffa33e"/></g></g></g><g style="clip-path:url(#clip-path-40)"><path d="M762.06,1068.7s-27.34,40.57-15.25,77l24.16-1.49,14.9-72.15Z" style="fill:#d85107;opacity:0.349999994039536;isolation:isolate"/></g><path d="M838.32,1241.55s-18.46,45.53-4.17,57c18.94,15.14,60.85-14.57,71-54C905.12,1244.52,852.22,1222.06,838.32,1241.55Z" style="fill:#ff8b00"/><g style="clip-path:url(#clip-path-41)"><path d="M914.32,1182.3a16.77,16.77,0,0,0,1.44-3.88c7.78-33.46-15.2-30.61-25.78-47.84-9.78-15.94-7.35-44.87-42.25-43.94-1.15,0-2.28.11-3.39.24-15.33-11.84-47.14-33.39-66.05-25.07-5.56,2.44-10.08,7.51-13.71,14.08-35.87,4.5-67.36,32-59.19,52.13,5.07,12.45,32.77,13.19,47.14,12.7.33,6,1.13,10.9,2.31,13.71,4.49,10.69,22.52,15.46,36,16.57a19,19,0,0,0,1.94,6.14c5.49,10,16.67,16.9,30.15,21.06-4.69,14.14-9.68,37.5,0,45.41,2.36,1.92,6.76,4.08,12.48,6.09-4.55,13.65-11.72,40.41-1.21,48.81,17,13.55,52.29-8.83,66.79-41.94,7.33-1.61,13.48-4.51,17.4-9.14C931.6,1231.77,921,1198.79,914.32,1182.3Z" style="fill:#d85107;opacity:0.349999994039536;isolation:isolate"/><g style="clip-path:url(#clip-path-39)"><g style="opacity:0.26"><path d="M693.7,1125s55.46-28.88,93.87-10,67.41,38.73,78.8,68.88,14.74,46.71,2.39,68.67-38.88,64.48-38.88,64.48l-43.43-107.83-52.57-53.13S684.63,1162.37,693.7,1125Z" style="fill:#ffa33e"/></g></g></g><g style="clip-path:url(#clip-path-43)"><path d="M907.22,1259.14S877,1289,817.61,1243.42L837,1220.37l53.71,2.83,23,9.85Z" style="fill:#d85107;opacity:0.349999994039536;isolation:isolate"/></g><path d="M826,1189.92c-4.57,10.25-15.16,43.87-3.15,53.69s77.38,25.18,95.46,3.82S910,1172.5,910,1172.5Z" style="fill:#ff8b00"/><g style="clip-path:url(#clip-path-44)"><path d="M914.32,1182.3a16.77,16.77,0,0,0,1.44-3.88c7.78-33.46-15.2-30.61-25.78-47.84-9.78-15.94-7.35-44.87-42.25-43.94-1.15,0-2.28.11-3.39.24-15.33-11.84-47.14-33.39-66.05-25.07-5.56,2.44-10.08,7.51-13.71,14.08-35.87,4.5-67.36,32-59.19,52.13,5.07,12.45,32.77,13.19,47.14,12.7.33,6,1.13,10.9,2.31,13.71,4.49,10.69,22.52,15.46,36,16.57a19,19,0,0,0,1.94,6.14c5.49,10,16.67,16.9,30.15,21.06-4.69,14.14-9.68,37.5,0,45.41,2.36,1.92,6.76,4.08,12.48,6.09-4.55,13.65-11.72,40.41-1.21,48.81,17,13.55,52.29-8.83,66.79-41.94,7.33-1.61,13.48-4.51,17.4-9.14C931.6,1231.77,921,1198.79,914.32,1182.3Z" style="fill:#d85107;opacity:0.349999994039536;isolation:isolate"/><g style="clip-path:url(#clip-path-39)"><g style="opacity:0.26"><path d="M693.7,1125s55.46-28.88,93.87-10,67.41,38.73,78.8,68.88,14.74,46.71,2.39,68.67-38.88,64.48-38.88,64.48l-43.43-107.83-52.57-53.13S684.63,1162.37,693.7,1125Z" style="fill:#ffa33e"/></g></g></g><g style="clip-path:url(#clip-path-46)"><path d="M816.13,1203.34s71.21,40.12,106.62-19.71l-3.08-23.56-68-1-39.14,22.64Z" style="fill:#d85107;opacity:0.349999994039536;isolation:isolate"/></g><path d="M802.15,1171c-11.12,1.47-41.31-2.24-47.31-16.53s-2.16-81.35,23.45-92.62,74.85,32.24,74.85,32.24Z" style="fill:#ff8b00"/><g style="clip-path:url(#clip-path-47)"><path d="M914.32,1182.3a16.77,16.77,0,0,0,1.44-3.88c7.78-33.46-15.2-30.61-25.78-47.84-9.78-15.94-7.35-44.87-42.25-43.94-1.15,0-2.28.11-3.39.24-15.33-11.84-47.14-33.39-66.05-25.07-5.56,2.44-10.08,7.51-13.71,14.08-35.87,4.5-67.36,32-59.19,52.13,5.07,12.45,32.77,13.19,47.14,12.7.33,6,1.13,10.9,2.31,13.71,4.49,10.69,22.52,15.46,36,16.57a19,19,0,0,0,1.94,6.14c5.49,10,16.67,16.9,30.15,21.06-4.69,14.14-9.68,37.5,0,45.41,2.36,1.92,6.76,4.08,12.48,6.09-4.55,13.65-11.72,40.41-1.21,48.81,17,13.55,52.29-8.83,66.79-41.94,7.33-1.61,13.48-4.51,17.4-9.14C931.6,1231.77,921,1198.79,914.32,1182.3Z" style="fill:#d85107;opacity:0.349999994039536;isolation:isolate"/><g style="clip-path:url(#clip-path-39)"><g style="opacity:0.26"><path d="M693.7,1125s55.46-28.88,93.87-10,67.41,38.73,78.8,68.88,14.74,46.71,2.39,68.67-38.88,64.48-38.88,64.48l-43.43-107.83-52.57-53.13S684.63,1162.37,693.7,1125Z" style="fill:#ffa33e"/></g></g></g><g style="clip-path:url(#clip-path-49)"><path d="M848.05,1079.83s-43.19-1.2-60.48,35.21,2.85,69.51,2.85,69.51l54.2-50.13Z" style="fill:#d85107;opacity:0.349999994039536;isolation:isolate"/></g><path d="M792.75,1177.14c-10-18.22,11.93-89.36,55-90.5,34.9-.93,32.47,28,42.25,43.94,10.58,17.23,33.56,14.38,25.78,47.84C908.59,1209.26,812.8,1213.57,792.75,1177.14Z" style="fill:#ff8b00"/><g style="clip-path:url(#clip-path-50)"><path d="M914.32,1182.3a16.77,16.77,0,0,0,1.44-3.88c7.78-33.46-15.2-30.61-25.78-47.84-9.78-15.94-7.35-44.87-42.25-43.94-1.15,0-2.28.11-3.39.24-15.33-11.84-47.14-33.39-66.05-25.07-5.56,2.44-10.08,7.51-13.71,14.08-35.87,4.5-67.36,32-59.19,52.13,5.07,12.45,32.77,13.19,47.14,12.7.33,6,1.13,10.9,2.31,13.71,4.49,10.69,22.52,15.46,36,16.57a19,19,0,0,0,1.94,6.14c5.49,10,16.67,16.9,30.15,21.06-4.69,14.14-9.68,37.5,0,45.41,2.36,1.92,6.76,4.08,12.48,6.09-4.55,13.65-11.72,40.41-1.21,48.81,17,13.55,52.29-8.83,66.79-41.94,7.33-1.61,13.48-4.51,17.4-9.14C931.6,1231.77,921,1198.79,914.32,1182.3Z" style="fill:#d85107;opacity:0.349999994039536;isolation:isolate"/><g style="clip-path:url(#clip-path-39)"><g style="opacity:0.26"><path d="M693.7,1125s55.46-28.88,93.87-10,67.41,38.73,78.8,68.88,14.74,46.71,2.39,68.67-38.88,64.48-38.88,64.48l-43.43-107.83-52.57-53.13S684.63,1162.37,693.7,1125Z" style="fill:#ffa33e"/></g></g></g></g></g></g></g></svg>