<svg xmlns="http://www.w3.org/2000/svg" xmlns:xlink="http://www.w3.org/1999/xlink" viewBox="0 0 779.5 897"><defs><clipPath id="clip-path" transform="translate(11.5 8.4)"><path d="M483.06,385.93S525.62,425,539.85,372c0,0,47.41,56.48,62.11-18,0,0,85,61.49,71.35-33.48,0,0,90.43,2.5,77.29-42.25s-93.25-17.2-93.25-17.2,11.1-29.57-14.4-35.36-66.81,17.37-71.81,54.92c0,0-16.27-21.28-36.3-14.39S497,299.41,512.63,325.38c0,0-67,.63-32.39,45.84,0,0-26.6,20.34-41.15,39.9l6.11,8Z" style="fill:#35a31a"/></clipPath><clipPath id="clip-path-2" transform="translate(11.5 8.4)"><path d="M454.23,339.37s-60.33-31.49-7.29-68.46c0,0-81.5-29.91-4.91-76,0,0-102-69.49,8.55-92.39,0,0-38.93-99.13,15.88-102.47s56.33,96.38,56.33,96.38,28.31-24.13,44.91,1.8,7.48,80.92-32.09,101.47c0,0,30.06,9.51,30.45,34.44s-21.59,55.19-56.61,48.25c0,0,26.08,74.4-37.81,54.19,0,0-11.89,37.58-27.73,61.51l-11.27-3.56Z" style="fill:#35a31a"/></clipPath><clipPath id="clip-path-3" transform="translate(11.5 8.4)"><path d="M18,861.48c-48.88,3.76,16-78.12,28.41-100.31S137.83,612.92,160,588.07c20.83-23.33,48.82-41.72,63-69.24s93.2-159.78,124.27-175.76,128.72,14.2,166,74.56-4.44,109.19-51.48,129.61S301.16,647.54,289.62,664.41,187.54,745.19,166.23,769.16,52.61,858.81,18,861.48Z" style="fill:#ff8b00"/></clipPath></defs><g id="Layer_2" data-name="Layer 2"><g id="Layer_3" data-name="Layer 3"><path d="M483.06,385.93S525.62,425,539.85,372c0,0,47.41,56.48,62.11-18,0,0,85,61.49,71.35-33.48,0,0,90.43,2.5,77.29-42.25s-93.25-17.2-93.25-17.2,11.1-29.57-14.4-35.36-66.81,17.37-71.81,54.92c0,0-16.27-21.28-36.3-14.39S497,299.41,512.63,325.38c0,0-67,.63-32.39,45.84,0,0-26.6,20.34-41.15,39.9l6.11,8Z" transform="translate(11.5 8.4)" style="fill:#35a31a"/><g style="clip-path:url(#clip-path)"><path d="M427,431.1s122-161,341-147l-24,38-55,13-14,54-69,14-109,16Z" transform="translate(11.5 8.4)" style="fill:#2d9110"/><path d="M435.5,424.54c16.6-15,32.53-30.69,50.09-44.67a492.27,492.27,0,0,1,54.7-37.78c20.59-12.27,42.22-23.53,64.62-32.15,22.14-8.53,45.89-11.42,69.18-15.08,27.64-4.34,55.44-7.84,83.27-10.76,4.16-.44,4.38-6.66,0-6.65-25.23,0-50,3.69-74.81,7.86-24.11,4.05-49.2,7.09-72.32,15.29-22.41,7.94-43.69,19.85-64.11,31.9a501.57,501.57,0,0,0-55.2,37.82c-20.18,15.89-40.28,33.13-56.48,53.16a.75.75,0,0,0,1.06,1.06Z" transform="translate(11.5 8.4)" style="fill:#327c01"/></g><path d="M454.23,339.37s-60.33-31.49-7.29-68.46c0,0-81.5-29.91-4.91-76,0,0-102-69.49,8.55-92.39,0,0-38.93-99.13,15.88-102.47s56.33,96.38,56.33,96.38,28.31-24.13,44.91,1.8,7.48,80.92-32.09,101.47c0,0,30.06,9.51,30.45,34.44s-21.59,55.19-56.61,48.25c0,0,26.08,74.4-37.81,54.19,0,0-11.89,37.58-27.73,61.51l-11.27-3.56Z" transform="translate(11.5 8.4)" style="fill:#35a31a"/><g style="clip-path:url(#clip-path-2)"><path d="M462.43-1.23c22.46,58.3,33.83,121.77,31.7,184.26-1,30.32-5.48,60.54-14.6,89.53-5.08,16.15-10.61,32.15-16.11,48.16-3.74,10.88-7.51,21.75-11.4,32.58-1.56,4.33-3.08,8.68-4.61,13-.53,1.52-1.11,3-1.65,4.54-.22.64-.45,1.29-.66,1.94-.12.37-.82,2.05-.27.87-2.64,5.58,5.68,10.49,8.34,4.87,7-14.83,11.33-30.87,16.05-46.54,5.46-18.15,10.64-36.38,16.1-54.52,17.26-57.38,17.56-118.08,8-176.9A460.86,460.86,0,0,0,464.42-1.78c-.5-1.2-2.47-.7-2,.55Z" transform="translate(11.5 8.4)" style="fill:#327c01"/><path d="M458.5-8.4s35.15,58.46,38.08,160.73S444.5,381.6,444.5,381.6l43-13s42-61,43-62,37-34,37-34,14-46,14-48-11-32-11-32l29-61-12-39-32-23-61-77Z" transform="translate(11.5 8.4)" style="fill:#327c01;opacity:0.35000000000000003"/></g><path d="M18,861.48c-48.88,3.76,16-78.12,28.41-100.31S137.83,612.92,160,588.07c20.83-23.33,48.82-41.72,63-69.24s93.2-159.78,124.27-175.76,128.72,14.2,166,74.56-4.44,109.19-51.48,129.61S301.16,647.54,289.62,664.41,187.54,745.19,166.23,769.16,52.61,858.81,18,861.48Z" transform="translate(11.5 8.4)" style="fill:#ff8b00"/><g style="clip-path:url(#clip-path-3)"><path d="M255.76,457.83c17.24,8.48,33.21,19.24,49.3,29.65,1.5,1,3.1-1.2,1.88-2.43-14-14.1-31.27-23.66-49.55-31.07-2.21-.9-3.76,2.8-1.63,3.85Z" transform="translate(11.5 8.4)" style="fill:#ce6b00"/><path d="M318.48,464.62c14.45,9.44,27.65,20.25,40.48,31.76.8.72,2-.44,1.19-1.19-12.46-11.94-26.58-22.25-41.19-31.38-.52-.32-1,.49-.48.81Z" transform="translate(11.5 8.4)" style="fill:#ce6b00"/><path d="M297,404.55c11.47,2.81,22.38,7.37,33.29,11.81,2.41,1,3.69-2.73,1.7-4-10.26-6.67-21.8-10.08-33.82-12-2.73-.44-4,3.56-1.17,4.25Z" transform="translate(11.5 8.4)" style="fill:#ce6b00"/><path d="M336.85,378.17c16.91,7.31,33.71,14.95,50.61,22.31,1.62.71,3.07-1.62,1.42-2.43a341.9,341.9,0,0,0-52-20,0,0,0,0,0,0,.09Z" transform="translate(11.5 8.4)" style="fill:#ce6b00"/><path d="M370.33,439.37c33.1,11.45,52.52,42,81.31,59.89,1.37.86,3.06-1.22,1.76-2.28-13.66-11.22-26.53-23.27-40-34.76-12.68-10.86-26.31-20.46-42.36-25.57-1.74-.55-2.44,2.13-.75,2.72Z" transform="translate(11.5 8.4)" style="fill:#ce6b00"/><path d="M448.46,418c22.57,13,38.38,33.69,52.13,55.32,1.12,1.74,4.31.65,3.52-1.49-9.48-25.42-30.8-43.86-54.09-56.5a1.55,1.55,0,0,0-1.56,2.67Z" transform="translate(11.5 8.4)" style="fill:#ce6b00"/><path d="M377.9,520.76c16.54,6.35,25.8,22.82,35.6,36.53a1.78,1.78,0,0,0,3.08-1.8C408.31,538.82,397.23,523.3,379,517c-2.42-.83-3.38,2.91-1.05,3.8Z" transform="translate(11.5 8.4)" style="fill:#ce6b00"/><path d="M329.23,556.9c8.38,4.78,16.33,10.19,24.25,15.69,1.51,1,3.45-1.41,2-2.58a157.21,157.21,0,0,0-24.67-15.78c-1.76-.93-3.3,1.68-1.56,2.67Z" transform="translate(11.5 8.4)" style="fill:#ce6b00"/><path d="M265.91,527.6c11.82,5.68,21.57,14.38,31.3,23a.75.75,0,0,0,1.06-1.06c-8.68-10.17-20.3-16.57-32.31-22-.06,0-.11.06,0,.09Z" transform="translate(11.5 8.4)" style="fill:#ce6b00"/><path d="M232.08,589.79a366.11,366.11,0,0,1,34.54,23.67c1.51,1.15,3.55-1.46,2.05-2.65a272.8,272.8,0,0,0-35.27-23.28,1.31,1.31,0,0,0-1.32,2.26Z" transform="translate(11.5 8.4)" style="fill:#ce6b00"/><path d="M299.76,599.22c12.69,9.68,23.43,21.44,33.56,33.72,1.39,1.68,4.23-.52,3-2.33-9.18-13.77-21.36-24.87-34.83-34.39-1.85-1.31-3.49,1.67-1.75,3Z" transform="translate(11.5 8.4)" style="fill:#ce6b00"/><path d="M195.79,539.48a52,52,0,0,1,27.07,10.63c1.58,1.2,3.51-1.39,2.1-2.72-8.13-7.69-18-11.21-29.17-10.91a1.5,1.5,0,0,0,0,3Z" transform="translate(11.5 8.4)" style="fill:#ce6b00"/><path d="M135.42,616.08a107.74,107.74,0,0,1,38.54,13,1.4,1.4,0,0,0,1.42-2.42,86.05,86.05,0,0,0-40-12.53c-1.28-.1-1.22,1.81,0,2Z" transform="translate(11.5 8.4)" style="fill:#ce6b00"/><path d="M207.89,630.69c12.56,6.24,22.86,15.12,33.78,23.73,1.24,1,3.59-.34,2.43-1.88-8.71-11.61-21.91-19-35.31-24-1.23-.47-2.08,1.55-.9,2.14Z" transform="translate(11.5 8.4)" style="fill:#ce6b00"/><path d="M215.4,696.53a150.59,150.59,0,0,1,12.41,13c3.83,4.61,7.16,9.57,11.55,13.67a1.65,1.65,0,0,0,2.57-2c-4.85-10.7-15.16-19.67-23.74-27.44-1.87-1.7-4.64,1-2.79,2.78Z" transform="translate(11.5 8.4)" style="fill:#ce6b00"/><path d="M271.93,652c6,5.34,9.7,12.61,12.18,20.18.73,2.21,4.37,2,4.24-.57-.51-9.82-5.86-17.47-13.58-23.29-2.12-1.6-4.82,1.93-2.84,3.68Z" transform="translate(11.5 8.4)" style="fill:#ce6b00"/><path d="M132.75,666.35A165,165,0,0,1,164.8,679c1.71.88,3.2-1.61,1.52-2.59a127.81,127.81,0,0,0-32.72-13.18,1.6,1.6,0,0,0-.85,3.08Z" transform="translate(11.5 8.4)" style="fill:#ce6b00"/><path d="M136.85,715.3c11.11,5.43,22.08,11.18,33.06,16.85,2.14,1.1,4-2,1.9-3.24a367.18,367.18,0,0,0-33.21-16.6c-2-.9-3.78,2-1.75,3Z" transform="translate(11.5 8.4)" style="fill:#ce6b00"/><path d="M126.83,767c8.29,6,15,13.55,22.47,20.52a1.7,1.7,0,0,0,2.65-2c-5.34-9.43-14-16.36-22.9-22.27-2.4-1.59-4.48,2.17-2.22,3.8Z" transform="translate(11.5 8.4)" style="fill:#ce6b00"/><path d="M55.82,723.6a82.91,82.91,0,0,1,24.87,13.33c1.82,1.38,4.14-1.66,2.44-3.17a60.8,60.8,0,0,0-26.36-13.6,1.79,1.79,0,0,0-1,3.44Z" transform="translate(11.5 8.4)" style="fill:#ce6b00"/><path d="M72.09,782.5c6.3,5.28,12.59,10.56,19,15.65.78.62,1.91-.44,1.12-1.13-6.15-5.44-12.46-10.67-18.77-15.91-1-.81-2.37.57-1.4,1.39Z" transform="translate(11.5 8.4)" style="fill:#ce6b00"/><path d="M11.24,814.08c9.92,1.41,19.25,4.86,28.33,9.06A1.45,1.45,0,0,0,41,820.63c-8.76-6.19-18.68-9.16-29.26-10.51-2.23-.29-2.78,3.64-.53,4Z" transform="translate(11.5 8.4)" style="fill:#ce6b00"/><path d="M66.93,823.94a31.92,31.92,0,0,1,12,7.52c1.51,1.46,4.36-.5,3-2.33a25.78,25.78,0,0,0-13.81-9.62c-2.84-.88-4,3.51-1.22,4.43Z" transform="translate(11.5 8.4)" style="fill:#ce6b00"/><path d="M347.5,338.6c0,4,100.91,39,110.46,80.5S288.5,613.6,197.5,667.6s-161,208-209,221l95-5,157-120,199-157,88-53,40-73-28-109-175-62Z" transform="translate(11.5 8.4)" style="fill:#d85107;opacity:0.35000000000000003"/></g></g></g></svg>