<svg xmlns="http://www.w3.org/2000/svg" xmlns:xlink="http://www.w3.org/1999/xlink" viewBox="0 0 1075 266.46"><defs><clipPath id="clip-path"><path d="M174,129.16S143.92,96.9,143.92,77.45s20.33-31.82,38.89-31.82S218.16,62,218.16,77.45,205.35,108.39,189,129.16Z" style="fill:#fff"/></clipPath><clipPath id="clip-path-2"><path d="M865.16,208.17s-3.33,31.64-10.82,40.8h32.47s-10.82-21.65-9.16-40.8Z" style="fill:#bf6728"/></clipPath><clipPath id="clip-path-3"><path d="M831,186.52S820.2,164,844.35,158.21c0,0,1.66-11.66,11.65-11.66a16.37,16.37,0,0,1,14.16,7.5s20-2.5,27.48,10.82,0,20.82,0,20.82,15,15.82,3.33,27.48-23.32-1.67-23.32-1.67a12.74,12.74,0,0,1-12.49.84S851,235.65,833.52,223.16,824.36,189.85,831,186.52Z" style="fill:#5aa800"/></clipPath><clipPath id="clip-path-4"><path d="M304.57,115.28s-1.6,15.21-5.21,19.62H315s-5.21-10.41-4.41-19.62Z" style="fill:#bf6728"/></clipPath><clipPath id="clip-path-5"><path d="M288.15,104.87s-5.2-10.81,6.41-13.61c0,0,.8-5.6,5.6-5.6a7.87,7.87,0,0,1,6.81,3.6s9.61-1.2,13.21,5.2,0,10,0,10,7.21,7.61,1.6,13.21-11.21-.8-11.21-.8a6.12,6.12,0,0,1-6,.4s-6.81,11.21-15.21,5.21S285,106.47,288.15,104.87Z" style="fill:#5aa800"/></clipPath><clipPath id="clip-path-6"><path d="M485.84,224.76s-2,18.78-6.42,24.21h19.27s-6.42-12.85-5.44-24.21Z" style="fill:#bf6728"/></clipPath><clipPath id="clip-path-7"><path d="M465.58,211.91s-6.43-13.34,7.91-16.8c0,0,1-6.92,6.91-6.92a9.74,9.74,0,0,1,8.41,4.45s11.86-1.49,16.3,6.42,0,12.35,0,12.35,8.9,9.39,2,16.31-13.84-1-13.84-1a7.55,7.55,0,0,1-7.41.5s-8.4,13.84-18.78,6.42S461.62,213.89,465.58,211.91Z" style="fill:#5aa800"/></clipPath><clipPath id="clip-path-8"><rect x="617.62" y="236.48" width="8.33" height="12.49" style="fill:#bf6728"/></clipPath><clipPath id="clip-path-9"><path d="M622.25,238.15s-23.32-1.67-20.82-15.82,18.32-78.28,20.82-78.28,19.15,77.44,20,80.78S638.9,237.32,622.25,238.15Z" style="fill:#5aa800"/></clipPath><clipPath id="clip-path-10"><rect x="639.52" y="237.32" width="3.33" height="12.49" style="fill:#bf6728"/></clipPath><clipPath id="clip-path-11"><path d="M641.38,243.14s-9.7-.69-8.66-6.58S640.34,204,641.38,204s8,32.21,8.31,33.59S648.3,242.8,641.38,243.14Z" style="fill:#3a8900"/></clipPath><clipPath id="clip-path-12"><path d="M243.75,146.15s-10.79-.77-9.64-7.32,8.48-36.22,9.64-36.22S252.61,138.45,253,140,251.46,145.77,243.75,146.15Z" style="fill:#3a8900"/></clipPath><clipPath id="clip-path-13"><rect x="669.48" y="58.29" width="3.33" height="12.49" style="fill:#bf6728"/></clipPath><clipPath id="clip-path-14"><path d="M671.34,64.12s-9.7-.7-8.66-6.58S670.3,25,671.34,25s8,32.21,8.31,33.6S678.26,63.77,671.34,64.12Z" style="fill:#5aa800"/></clipPath></defs><g id="Layer_2" data-name="Layer 2"><g id="Layer_1-2" data-name="Layer 1"><rect width="1075" height="266.46" style="fill:#eeeefd"/><ellipse cx="526.68" cy="248.56" rx="450.9" ry="14.57" style="fill:#d2d2fc"/><rect x="373.46" y="89.1" width="93.26" height="155.39" style="fill:#91e2e0"/><rect x="384.29" y="51.21" width="71.61" height="26.24" style="fill:#91e2e0"/><rect x="367.63" y="77.02" width="104.92" height="12.08" style="fill:#9ff7f2"/><rect x="385.95" y="101.17" width="7.49" height="143.64" style="fill:#63c9c1"/><rect x="400.94" y="101.17" width="7.49" height="143.64" style="fill:#63c9c1"/><rect x="415.93" y="101.17" width="7.49" height="143.64" style="fill:#63c9c1"/><rect x="430.92" y="101.17" width="7.49" height="143.64" style="fill:#63c9c1"/><rect x="445.9" y="101.17" width="7.49" height="143.64" style="fill:#63c9c1"/><rect x="390.11" y="57.04" width="8.33" height="14.99" style="fill:#63c9c1"/><rect x="403.23" y="57.04" width="8.33" height="14.99" style="fill:#63c9c1"/><rect x="416.34" y="57.04" width="8.33" height="14.99" style="fill:#63c9c1"/><rect x="429.46" y="57.04" width="8.33" height="14.99" style="fill:#63c9c1"/><rect x="442.57" y="57.04" width="8.33" height="14.99" style="fill:#63c9c1"/><rect x="382.62" y="46.21" width="74.94" height="5" style="fill:#9ff7f2"/><rect x="418.43" y="32.06" width="4.16" height="14.16" style="fill:#91e2e0"/><polygon points="385.4 88.67 466.88 211.3 466.88 244.81 373.04 244.81 373.04 89.1 385.4 88.67" style="fill:#33758c;opacity:0.24"/><polygon points="373.31 135.24 390.53 135.24 390.53 198.34 448.82 198.18 449.43 245.03 390.53 244.28 373.04 244.81 373.31 135.24" style="fill:#0e477f;opacity:0.24"/><rect x="647.41" y="116.36" width="78.27" height="131.47" style="fill:#59c3c6"/><rect x="655.74" y="70.78" width="61.62" height="45.58" style="fill:#91e2e0"/><rect x="679.06" y="221.08" width="15.82" height="26.65" style="fill:#fff"/><rect x="651.58" y="120.32" width="6.66" height="6.66" style="fill:#ffe8d3"/><rect x="660.74" y="120.32" width="6.66" height="6.66" style="fill:#91e2e0"/><rect x="669.9" y="120.32" width="6.66" height="6.66" style="fill:#aff2ee"/><rect x="679.06" y="120.32" width="6.66" height="6.66" style="fill:#ffe8d3"/><rect x="688.22" y="120.32" width="6.66" height="6.66" style="fill:#aff2ee"/><rect x="697.38" y="120.32" width="6.66" height="6.66" style="fill:#aff2ee"/><rect x="706.54" y="120.32" width="6.66" height="6.66" style="fill:#91e2e0"/><rect x="715.7" y="120.32" width="6.66" height="6.66" style="fill:#91e2e0"/><rect x="651.58" y="129.48" width="6.66" height="6.66" style="fill:#fff"/><rect x="660.74" y="129.48" width="6.66" height="6.66" style="fill:#fff"/><rect x="669.9" y="129.48" width="6.66" height="6.66" style="fill:#fff"/><rect x="679.06" y="129.48" width="6.66" height="6.66" style="fill:#fff"/><rect x="688.22" y="129.48" width="6.66" height="6.66" style="fill:#fff"/><rect x="697.38" y="129.48" width="6.66" height="6.66" style="fill:#aff2ee"/><rect x="706.54" y="129.48" width="6.66" height="6.66" style="fill:#aff2ee"/><rect x="715.7" y="129.48" width="6.66" height="6.66" style="fill:#fff"/><rect x="651.58" y="138.64" width="6.66" height="6.66" style="fill:#fff"/><rect x="660.74" y="138.64" width="6.66" height="6.66" style="fill:#fff"/><rect x="669.9" y="138.64" width="6.66" height="6.66" style="fill:#fff"/><rect x="679.06" y="138.64" width="6.66" height="6.66" style="fill:#fff"/><rect x="688.22" y="138.64" width="6.66" height="6.66" style="fill:#fff"/><rect x="697.38" y="138.64" width="6.66" height="6.66" style="fill:#fff"/><rect x="706.54" y="138.64" width="6.66" height="6.66" style="fill:#ffe8d3"/><rect x="715.7" y="138.64" width="6.66" height="6.66" style="fill:#fff"/><rect x="651.58" y="147.8" width="6.66" height="6.66" style="fill:#fff"/><rect x="660.74" y="147.8" width="6.66" height="6.66" style="fill:#fff"/><rect x="669.9" y="147.8" width="6.66" height="6.66" style="fill:#fff"/><rect x="679.06" y="147.8" width="6.66" height="6.66" style="fill:#fff"/><rect x="688.22" y="147.8" width="6.66" height="6.66" style="fill:#fff"/><rect x="697.38" y="147.8" width="6.66" height="6.66" style="fill:#fff"/><rect x="706.54" y="147.8" width="6.66" height="6.66" style="fill:#50bcb2"/><rect x="715.7" y="147.8" width="6.66" height="6.66" style="fill:#fff"/><rect x="651.58" y="156.96" width="6.66" height="6.66" style="fill:#fff"/><rect x="660.74" y="156.96" width="6.66" height="6.66" style="fill:#fff"/><rect x="669.9" y="156.96" width="6.66" height="6.66" style="fill:#fff"/><rect x="679.06" y="156.96" width="6.66" height="6.66" style="fill:#fff"/><rect x="688.22" y="156.96" width="6.66" height="6.66" style="fill:#fff"/><rect x="697.38" y="156.96" width="6.66" height="6.66" style="fill:#fff"/><rect x="706.54" y="156.96" width="6.66" height="6.66" style="fill:#fff"/><rect x="715.7" y="156.96" width="6.66" height="6.66" style="fill:#fff"/><rect x="651.58" y="166.12" width="6.66" height="6.66" style="fill:#fff"/><rect x="660.74" y="166.12" width="6.66" height="6.66" style="fill:#fff"/><rect x="669.9" y="166.12" width="6.66" height="6.66" style="fill:#fff"/><rect x="679.06" y="166.12" width="6.66" height="6.66" style="fill:#fff"/><rect x="688.22" y="166.12" width="6.66" height="6.66" style="fill:#fff"/><rect x="697.38" y="166.12" width="6.66" height="6.66" style="fill:#aff2ee"/><rect x="706.54" y="166.12" width="6.66" height="6.66" style="fill:#fff"/><rect x="715.7" y="166.12" width="6.66" height="6.66" style="fill:#fff"/><rect x="651.58" y="175.28" width="6.66" height="6.66" style="fill:#fff"/><rect x="660.74" y="175.28" width="6.66" height="6.66" style="fill:#fff"/><rect x="669.9" y="175.28" width="6.66" height="6.66" style="fill:#aff2ee"/><rect x="679.06" y="175.28" width="6.66" height="6.66" style="fill:#aff2ee"/><rect x="688.22" y="175.28" width="6.66" height="6.66" style="fill:#fff"/><rect x="697.38" y="175.28" width="6.66" height="6.66" style="fill:#aff2ee"/><rect x="706.54" y="175.28" width="6.66" height="6.66" style="fill:#fff"/><rect x="715.7" y="175.28" width="6.66" height="6.66" style="fill:#fff"/><rect x="651.58" y="184.44" width="6.66" height="6.66" style="fill:#91e2e0"/><rect x="660.74" y="184.44" width="6.66" height="6.66" style="fill:#fff"/><rect x="669.9" y="184.44" width="6.66" height="6.66" style="fill:#aff2ee"/><rect x="679.06" y="184.44" width="6.66" height="6.66" style="fill:#91e2e0"/><rect x="688.22" y="184.44" width="6.66" height="6.66" style="fill:#91e2e0"/><rect x="697.38" y="184.44" width="6.66" height="6.66" style="fill:#91e2e0"/><rect x="706.54" y="184.44" width="6.66" height="6.66" style="fill:#ffe8d3"/><rect x="715.7" y="184.44" width="6.66" height="6.66" style="fill:#fff"/><rect x="651.58" y="193.6" width="6.66" height="6.66" style="fill:#50bcb2"/><rect x="660.74" y="193.6" width="6.66" height="6.66" style="fill:#fff"/><rect x="669.9" y="193.6" width="6.66" height="6.66" style="fill:#aff2ee"/><rect x="679.06" y="193.6" width="6.66" height="6.66" style="fill:#aff2ee"/><rect x="688.22" y="193.6" width="6.66" height="6.66" style="fill:#ffe8d3"/><rect x="697.38" y="193.6" width="6.66" height="6.66" style="fill:#aff2ee"/><rect x="706.54" y="193.6" width="6.66" height="6.66" style="fill:#aff2ee"/><rect x="715.7" y="193.6" width="6.66" height="6.66" style="fill:#fff"/><rect x="651.58" y="202.76" width="6.66" height="6.66" style="fill:#50bcb2"/><rect x="660.74" y="202.76" width="6.66" height="6.66" style="fill:#ffe8d3"/><rect x="669.9" y="202.76" width="6.66" height="6.66" style="fill:#91e2e0"/><rect x="679.06" y="202.76" width="6.66" height="6.66" style="fill:#fff"/><rect x="688.22" y="202.76" width="6.66" height="6.66" style="fill:#fff"/><rect x="697.38" y="202.76" width="6.66" height="6.66" style="fill:#ffe8d3"/><rect x="706.54" y="202.76" width="6.66" height="6.66" style="fill:#50bcb2"/><rect x="715.7" y="202.76" width="6.66" height="6.66" style="fill:#fff"/><rect x="651.58" y="211.92" width="6.66" height="6.66" style="fill:#aff2ee"/><rect x="660.74" y="211.92" width="6.66" height="6.66" style="fill:#aff2ee"/><rect x="669.9" y="211.92" width="6.66" height="6.66" style="fill:#fff"/><rect x="651.58" y="221.08" width="6.66" height="6.66" style="fill:#ffe8d3"/><rect x="660.74" y="221.08" width="6.66" height="6.66" style="fill:#ffe8d3"/><rect x="669.9" y="221.08" width="6.66" height="6.66" style="fill:#50bcb2"/><rect x="651.58" y="230.24" width="6.66" height="6.66" style="fill:#91e2e0"/><rect x="660.74" y="230.24" width="6.66" height="6.66" style="fill:#aff2ee"/><rect x="669.9" y="230.24" width="6.66" height="6.66" style="fill:#50bcb2"/><rect x="651.58" y="239.4" width="6.66" height="6.66" style="fill:#fff"/><rect x="660.74" y="239.4" width="6.66" height="6.66" style="fill:#aff2ee"/><rect x="669.9" y="239.4" width="6.66" height="6.66" style="fill:#ffe8d3"/><rect x="697.38" y="221.08" width="6.66" height="6.66" style="fill:#fff"/><rect x="706.54" y="221.08" width="6.66" height="6.66" style="fill:#ffe8d3"/><rect x="715.7" y="221.08" width="6.66" height="6.66" style="fill:#fff"/><rect x="697.38" y="230.24" width="6.66" height="6.66" style="fill:#ffe8d3"/><rect x="706.54" y="230.24" width="6.66" height="6.66" style="fill:#aff2ee"/><rect x="715.7" y="230.24" width="6.66" height="6.66" style="fill:#fff"/><rect x="697.38" y="239.4" width="6.66" height="6.66" style="fill:#91e2e0"/><rect x="706.54" y="239.4" width="6.66" height="6.66" style="fill:#91e2e0"/><rect x="715.7" y="239.4" width="6.66" height="6.66" style="fill:#fff"/><rect x="679.06" y="211.92" width="6.66" height="6.66" style="fill:#aff2ee"/><rect x="688.22" y="211.92" width="6.66" height="6.66" style="fill:#aff2ee"/><rect x="697.38" y="211.92" width="6.66" height="6.66" style="fill:#aff2ee"/><rect x="706.54" y="211.92" width="6.66" height="6.66" style="fill:#aff2ee"/><rect x="715.7" y="211.92" width="6.66" height="6.66" style="fill:#fff"/><rect x="659.91" y="74.53" width="32.47" height="18.32" style="fill:#59c3c6"/><rect x="681.55" y="95.34" width="32.47" height="18.32" style="fill:#59c3c6"/><rect x="695.71" y="74.53" width="18.32" height="18.32" style="fill:#59c3c6"/><rect x="659.91" y="95.34" width="18.32" height="18.32" style="fill:#59c3c6"/><polygon points="655.33 70.78 670.72 70.78 717.25 98.55 717.25 116.58 655.33 116.58 655.33 70.78" style="fill:#33758c;opacity:0.24"/><polygon points="670.93 116.25 725.72 171.73 725.72 248.14 647 248.14 647 116.58 670.93 116.25" style="fill:#33758c;opacity:0.24"/><rect x="647.83" y="134.06" width="59.95" height="51.63" style="fill:#094784;opacity:0.58"/><rect x="281.24" y="134.55" width="99.92" height="110.88" style="fill:#59c3c6"/><rect x="318.09" y="211.09" width="26.23" height="34.14" style="fill:#fff"/><rect x="291.02" y="143.64" width="15.82" height="15.82" style="fill:#91e2e0"/><rect x="312.95" y="143.64" width="15.82" height="15.82" style="fill:#ffe8d3"/><rect x="334.88" y="143.64" width="15.82" height="15.82" style="fill:#91e2e0"/><rect x="356.81" y="143.64" width="15.82" height="15.82" style="fill:#91e2e0"/><rect x="291.02" y="164.46" width="15.82" height="15.82" style="fill:#fff"/><rect x="312.95" y="164.46" width="15.82" height="15.82" style="fill:#91e2e0"/><rect x="334.88" y="164.46" width="15.82" height="15.82" style="fill:#ffe8d3"/><rect x="356.81" y="164.46" width="15.82" height="15.82" style="fill:#ffe8d3"/><rect x="291.02" y="186.11" width="15.82" height="15.82" style="fill:#fff"/><rect x="291.02" y="207.76" width="15.82" height="15.82" style="fill:#91e2e0"/><rect x="356.81" y="207.76" width="15.82" height="15.82" style="fill:#ffe8d3"/><rect x="312.95" y="186.11" width="15.82" height="15.82" style="fill:#ffe8d3"/><rect x="334.88" y="186.11" width="15.82" height="15.82" style="fill:#91e2e0"/><rect x="356.81" y="186.11" width="15.82" height="15.82" style="fill:#91e2e0"/><polygon points="292.42 134.51 378.04 207.6 378.04 245.64 281.45 245.64 281.45 134.9 292.42 134.51" style="fill:#094784;opacity:0.32"/><rect x="714.86" y="129.79" width="118.24" height="118.35" style="fill:#6a72ad"/><path d="M174,129.16S143.92,96.9,143.92,77.45s20.33-31.82,38.89-31.82S218.16,62,218.16,77.45,205.35,108.39,189,129.16Z" style="fill:#fff"/><g style="clip-path:url(#clip-path)"><path d="M160.59,112.79s23.59,6.34,41.28-.14l.46,2.37L190,129.61l-16.79.44L159.9,113.69Z" style="fill:#fff"/></g><rect x="173.97" y="129.16" width="15.03" height="2.21" style="fill:#fff"/><rect x="175.96" y="140.21" width="11.05" height="8.84" style="fill:#bf6728"/><line x1="175.66" y1="131.32" x2="177.08" y2="140.21" style="fill:none;stroke:#bf6728;stroke-miterlimit:10"/><line x1="187.52" y1="131.15" x2="186.21" y2="140.28" style="fill:none;stroke:#bf6728;stroke-miterlimit:10"/><line x1="181.53" y1="140.15" x2="181.53" y2="131.38" style="fill:none;stroke:#bf6728;stroke-miterlimit:10"/><rect x="535" y="129.51" width="3.33" height="28.26" transform="translate(11.91 326.04) rotate(-34.15)" style="fill:#4d538e"/><rect x="558.32" y="129.51" width="3.33" height="28.26" transform="matrix(-0.83, -0.56, 0.56, -0.83, 942.77, 576.87)" style="fill:#4d538e"/><rect x="487.96" y="150.95" width="119.07" height="97.61" style="fill:#4d538e"/><rect x="495.45" y="158.21" width="22.48" height="22.48" style="fill:#6671aa"/><rect x="522.93" y="158.21" width="22.48" height="22.48" style="fill:#6671aa"/><rect x="550.41" y="158.21" width="22.48" height="22.48" style="fill:#6671aa"/><rect x="577.89" y="158.21" width="22.48" height="22.48" style="fill:#ffe8d3"/><rect x="495.87" y="186.11" width="22.48" height="22.48" style="fill:#6671aa"/><rect x="523.34" y="186.11" width="22.48" height="22.48" style="fill:#ffe8d3"/><rect x="550.82" y="186.11" width="22.48" height="22.48" style="fill:#6671aa"/><rect x="578.3" y="186.11" width="22.48" height="22.48" style="fill:#6671aa"/><rect x="495.87" y="213.58" width="22.48" height="22.48" style="fill:#6671aa"/><rect x="578.3" y="213.58" width="22.48" height="22.48" style="fill:#ffe8d3"/><rect x="534.17" y="218.58" width="28.31" height="29.98" style="fill:#fff"/><rect x="512.74" y="73.09" width="70.78" height="70.78" style="fill:#fff"/><polygon points="500.21 150.92 607.12 228.34 607.12 248.97 487.95 248.97 487.95 150.72 500.21 150.92" style="fill:#252e75;opacity:0.39"/><rect x="770.65" y="109.5" width="6.66" height="20.82" style="fill:#4d538e"/><rect x="721.52" y="135.31" width="10.82" height="21.23" style="fill:#4d538e"/><rect x="740.18" y="135.31" width="10.82" height="21.23" style="fill:#4d538e"/><rect x="758.83" y="135.31" width="10.82" height="21.23" style="fill:#ffe8d3"/><rect x="777.48" y="135.31" width="10.82" height="21.23" style="fill:#4d538e"/><rect x="796.13" y="135.31" width="10.82" height="21.23" style="fill:#4d538e"/><rect x="814.79" y="135.31" width="10.82" height="21.23" style="fill:#91e2e0"/><rect x="721.52" y="161.13" width="10.82" height="21.23" style="fill:#4d538e"/><rect x="740.18" y="161.13" width="10.82" height="21.23" style="fill:#4d538e"/><rect x="758.83" y="161.13" width="10.82" height="21.23" style="fill:#4d538e"/><rect x="777.48" y="161.13" width="10.82" height="21.23" style="fill:#ffe8d3"/><rect x="796.13" y="161.13" width="10.82" height="21.23" style="fill:#4d538e"/><rect x="814.79" y="161.13" width="10.82" height="21.23" style="fill:#ffe8d3"/><circle cx="773.72" cy="76.97" r="37.47" style="fill:#fff"/><polygon points="715.28 129.9 744.61 129.9 832.97 197.21 833.52 248.14 714.45 248.14 715.28 129.9" style="fill:#252e75;opacity:0.39"/><rect x="714.45" y="189.85" width="119.07" height="58.29" style="fill:#fff"/><rect x="360.74" y="195.3" width="82.44" height="54.96" style="fill:#fff"/><rect x="400.07" y="116.81" width="102.17" height="53.26" style="fill:#fff"/><rect x="225.63" y="152.93" width="82.44" height="46.63" style="fill:#fff"/><rect x="637.53" y="129.54" width="63.7" height="49.54" style="fill:#fff"/><path d="M248,246.48s17.9-15.46,13-16.27-17.9,4.88-17.9,4.88,11.39-17.08,4.07-18.71S232.57,231,232.57,231s-.81-19.52-4.88-19.52-6.51,21.15-6.51,21.15-8.13-17.89-13-16.27,1.63,18.71,1.63,18.71-17.08-8.13-17.08-3.25,14.64,14.64,14.64,14.64Z" style="fill:#3a8900"/><path d="M227.69,246.48s18.71-17.9,12.2-21.15-17.08,10.57-17.08,10.57,2.44-13.82-3.25-15.45-4.07,16.27-4.07,16.27S209,225.33,203.29,227s7.32,12.2,7.32,12.2-15.45-1.63-19.52.81,16.27,6.51,16.27,6.51Z" style="fill:#5aa800"/><path d="M253.82,246.48s-12.75-11-9.27-11.6,12.75,3.48,12.75,3.48-8.12-12.17-2.9-13.33,10.43,10.43,10.43,10.43.58-13.9,3.48-13.9S273,236.62,273,236.62s5.79-12.75,9.27-11.59-1.16,13.33-1.16,13.33,12.17-5.79,12.17-2.32-10.43,10.44-10.43,10.44Z" style="fill:#5aa800"/><path d="M268.31,246.48s-13.33-12.75-8.69-15.07,12.17,7.53,12.17,7.53-1.74-9.85,2.31-11,2.9,11.59,2.9,11.59,4.64-8.11,8.7-7-5.22,8.69-5.22,8.69,11-1.16,13.91.58-11.59,4.64-11.59,4.64Z" style="fill:#3a8900"/><path d="M704.13,70.78s8-6.86,5.78-7.22S702,65.72,702,65.72s5.06-7.58,1.81-8.3-6.5,6.5-6.5,6.5-.36-8.67-2.17-8.67-2.89,9.39-2.89,9.39-3.61-8-5.78-7.22.73,8.3.73,8.3-7.59-3.61-7.59-1.44,6.5,6.5,6.5,6.5Z" style="fill:#5aa800"/><path d="M695.1,70.78s8.31-8,5.42-9.39-7.59,4.69-7.59,4.69,1.09-6.14-1.44-6.86-1.81,7.22-1.81,7.22-2.89-5-5.41-4.33,3.25,5.42,3.25,5.42-6.87-.72-8.67.36,7.22,2.89,7.22,2.89Z" style="fill:#3a8900"/><path d="M865.16,208.17s-3.33,31.64-10.82,40.8h32.47s-10.82-21.65-9.16-40.8Z" style="fill:#bf6728"/><g style="clip-path:url(#clip-path-2)"><path d="M863.5,216.5s3.33,3.33,9.16,1.66c0,0,4.16,17.49,0,31.65h17.48l-10-30-.83-10-16.66.83Z" style="fill:#a84d0f"/></g><path d="M889.31,214.83s-7.49,6.66-12.49,7.5l2.5,5.83s8.33-9.16,10-11.66S889.31,214.83,889.31,214.83Z" style="fill:#a84d0f"/><path d="M851.84,223.16s5.83,8.33,10.82,7.49l-1.66,5a19.82,19.82,0,0,1-10-12.49Z" style="fill:#bf6728"/><path d="M831,186.52S820.2,164,844.35,158.21c0,0,1.66-11.66,11.65-11.66a16.37,16.37,0,0,1,14.16,7.5s20-2.5,27.48,10.82,0,20.82,0,20.82,15,15.82,3.33,27.48-23.32-1.67-23.32-1.67a12.74,12.74,0,0,1-12.49.84S851,235.65,833.52,223.16,824.36,189.85,831,186.52Z" style="fill:#5aa800"/><g style="clip-path:url(#clip-path-3)"><path d="M819.36,209.84s14.16-21.65,27.48-17.49c0,0-1.66-19.15,12.49-17.49,0,0-1.66-16.65,11.66-10,0,0,8.33-8.32,15-.83,0,0,3.33-7.49,10.82-2.5L886,153.21l-15-1.66s-11.66-9.16-12.49-8.33-15,4.17-15,4.17l-.83,8.32-12.49,6.66-5.83,14.16,2.5,10L819.36,199Z" style="fill:#79c418"/></g><path d="M304.57,115.28s-1.6,15.21-5.21,19.62H315s-5.21-10.41-4.41-19.62Z" style="fill:#bf6728"/><g style="clip-path:url(#clip-path-4)"><path d="M303.71,118.8s2.72,1.94,5.22,1.11c0,0,1.66,13.32-.84,15.82h8.33l-3.33-10.83-.83-5-.83-4.17H303.1Z" style="fill:#a84d0f"/></g><path d="M316.18,118.48s-3.61,3.2-6,3.61l1.2,2.8s4-4.41,4.81-5.61S316.18,118.48,316.18,118.48Z" style="fill:#a84d0f"/><path d="M298.16,122.49s2.8,4,5.21,3.6l-.8,2.4a9.52,9.52,0,0,1-4.81-6Z" style="fill:#bf6728"/><path d="M288.15,104.87s-5.2-10.81,6.41-13.61c0,0,.8-5.6,5.6-5.6a7.87,7.87,0,0,1,6.81,3.6s9.61-1.2,13.21,5.2,0,10,0,10,7.21,7.61,1.6,13.21-11.21-.8-11.21-.8a6.12,6.12,0,0,1-6,.4s-6.81,11.21-15.21,5.21S285,106.47,288.15,104.87Z" style="fill:#5aa800"/><g style="clip-path:url(#clip-path-5)"><path d="M284,120.74s4.16-12.49,9.16-10.83c0,0-3.33-10,3.33-10,0,0,2.49-5.83,9.16-3.33,0,0,4.16-7.49,15-3.33l-5.82-4.16-7.5-1.67-5.83-3.33-7.49,2.5-2.5,3.33-5.83,5.83-.83,8.33-2.5,9.16Z" style="fill:#79c418"/></g><path d="M485.84,224.76s-2,18.78-6.42,24.21h19.27s-6.42-12.85-5.44-24.21Z" style="fill:#bf6728"/><g style="clip-path:url(#clip-path-6)"><path d="M484.62,229.82s3.34,1.67,5.83.83c0,0,3.33,13.33-.83,19.16l12-.59-6.21-19.4-1.67-5-10,1.66Z" style="fill:#a84d0f"/></g><path d="M500.17,228.71s-4.45,4-7.41,4.45l1.48,3.46s4.94-5.44,5.93-6.92S500.17,228.71,500.17,228.71Z" style="fill:#a84d0f"/><path d="M477.93,233.65s3.46,4.95,6.43,4.45l-1,3a11.77,11.77,0,0,1-5.93-7.42Z" style="fill:#bf6728"/><path d="M465.58,211.91s-6.43-13.34,7.91-16.8c0,0,1-6.92,6.91-6.92a9.74,9.74,0,0,1,8.41,4.45s11.86-1.49,16.3,6.42,0,12.35,0,12.35,8.9,9.39,2,16.31-13.84-1-13.84-1a7.55,7.55,0,0,1-7.41.5s-8.4,13.84-18.78,6.42S461.62,213.89,465.58,211.91Z" style="fill:#5aa800"/><g style="clip-path:url(#clip-path-7)"><path d="M461.31,229.82s-.83-13.32,9.16-15c0,0-1.67-10,4.16-9.16,0,0,5-9.16,12.49-3.33,0,0,6.66-6.66,10,0,0,0,5-5,10.83,1.67l-3.33-9.16-8.33-4.16-6.66.83s-5-5-5.83-5-6.66.83-6.66.83L473,190.69l-2.5,4.16-5.83,3.33-2.5,8.33,1.67,4.16-5,6.66Z" style="fill:#79c418"/></g><rect x="617.62" y="236.48" width="8.33" height="12.49" style="fill:#bf6728"/><g style="clip-path:url(#clip-path-8)"><path d="M617,238.15a53.4,53.4,0,0,0,5.83,1.66c.83,0,.83,10.83.83,10.83l4.17-.83V235.65l-12.49-.83Z" style="fill:#a84d0f"/></g><path d="M622.25,238.15s-23.32-1.67-20.82-15.82,18.32-78.28,20.82-78.28,19.15,77.44,20,80.78S638.9,237.32,622.25,238.15Z" style="fill:#5aa800"/><g style="clip-path:url(#clip-path-9)"><path d="M619.52,141.56s8.33,28.31,5,59.12S596.2,224,596.2,224Z" style="fill:#79c418"/></g><rect x="639.52" y="237.32" width="3.33" height="12.49" style="fill:#bf6728"/><g style="clip-path:url(#clip-path-10)"><polygon points="638.67 243.98 641.17 244.81 642 250.64 643.67 250.64 643.67 242.31 638.67 241.48 638.67 243.98" style="fill:#a84d0f"/></g><path d="M641.38,243.14s-9.7-.69-8.66-6.58S640.34,204,641.38,204s8,32.21,8.31,33.59S648.3,242.8,641.38,243.14Z" style="fill:#3a8900"/><g style="clip-path:url(#clip-path-11)"><path d="M647,216.5c.83,0,4.16,30-15,23.31l3.33,3.33,10,1.67L652,239Z" style="fill:#316d03"/></g><rect x="241.61" y="145.38" width="3.85" height="5.78" style="fill:#bf6728"/><path d="M243.75,146.15s-10.79-.77-9.64-7.32,8.48-36.22,9.64-36.22S252.61,138.45,253,140,251.46,145.77,243.75,146.15Z" style="fill:#3a8900"/><g style="clip-path:url(#clip-path-12)"><path d="M248.14,116.58s5.83,35-15.82,25l5,5,9.16.84,10-5Z" style="fill:#316d03"/></g><rect x="251.74" y="145.77" width="1.54" height="5.78" style="fill:#bf6728"/><path d="M252.6,148.47s-4.49-.32-4-3.05,3.53-15.07,4-15.07,3.69,14.91,3.85,15.55S255.81,148.31,252.6,148.47Z" style="fill:#5aa800"/><rect x="669.48" y="58.29" width="3.33" height="12.49" style="fill:#bf6728"/><g style="clip-path:url(#clip-path-13)"><rect x="671.15" y="62.45" width="3.33" height="8.33" style="fill:#a84d0f"/></g><path d="M671.34,64.12s-9.7-.7-8.66-6.58S670.3,25,671.34,25s8,32.21,8.31,33.6S678.26,63.77,671.34,64.12Z" style="fill:#5aa800"/><g style="clip-path:url(#clip-path-14)"><path d="M671.15,23.32s5,40-10,35.8l.84-7.49,5.83-23.32Z" style="fill:#79c418"/></g><path d="M321.72,134.5s-6.13-5.41-4.47-7.08,5,5,5,5,1.67-5.83,3.33-5.83-1.66,5.83-1.66,5.83,2.49-2.5,5-2.5-1.66,2.5-1.66,2.5,4.16-.83,4.16,0-3.73,2.08-3.73,2.08Z" style="fill:#3a8900"/><path d="M316.87,134.5s-3.78-3.77-1.28-4.6,4.16,2.5,4.16,2.5-.83-5,1.67-5,0,5.83,0,5.83,5.83-3.33,5.83-1.67-3.31,2.94-3.31,2.94Z" style="fill:#5aa800"/></g></g></svg>