<svg width="2000" height="1458" viewBox="0 0 2000 1458" fill="none" xmlns="http://www.w3.org/2000/svg">
<g clip-path="url(#clip0)">
<path d="M1644.1 127.428C2202.92 334.941 1844.93 560.895 1856.23 784.479C1865.74 972.476 2153.99 1140.04 1897.17 1321.14C1576.15 1547.52 866.831 1441.35 474.471 1375.32C82.1111 1309.29 -72.4569 1029.72 22.6613 784.479C117.78 539.234 -37.4063 268.915 378.735 127.428C794.876 -14.0581 1085.29 -80.0854 1644.1 127.428Z" fill="#F1F1F8"/>
<mask id="mask0" mask-type="alpha" maskUnits="userSpaceOnUse" x="-5" y="-5" width="2009" height="1464">
<path d="M1644.1 127.428C2202.92 334.941 1844.93 560.896 1856.23 784.479C1865.74 972.476 2153.99 1140.04 1897.17 1321.14C1576.15 1547.52 866.831 1441.35 474.471 1375.32C82.1115 1309.29 -72.4563 1029.72 22.6619 784.479C117.78 539.234 -37.4057 268.915 378.736 127.428C794.877 -14.0581 1085.29 -80.0854 1644.1 127.428Z" fill="#DEDEF8"/>
</mask>
<g mask="url(#mask0)">
<path d="M96.4824 879.175C-222.484 864.99 -312.428 945.27 -284.383 1052.84C-189.478 1251.38 286.797 1420.97 593.28 1498.98C899.762 1576.99 1724.9 1544.18 2011.04 1470.71C2297.19 1397.23 2267.82 1191.65 2211.59 1032.76C2155.36 873.873 1946.53 868.104 1810.99 868.263C1675.45 868.422 1058.64 942.028 920.182 936.742C781.73 931.457 415.449 893.36 96.4824 879.175Z" fill="#DBDBEE"/>
</g>
<ellipse cx="1255.49" cy="1111.79" rx="331.354" ry="64.3168" fill="#C6C6EB"/>
<path d="M1010.66 1067.32C1028.55 1048.48 1109.04 1052.8 1143.18 1057.9L1148.37 931.962L1197.81 944.909C1197.81 944.909 1164.36 1061.43 1160.14 1067.32C1155.92 1073.2 1065.75 1121.46 1036.56 1121.46C1007.37 1121.46 995.361 1115.97 993.007 1113.22C991.438 1105.77 992.772 1086.15 1010.66 1067.32Z" fill="#F6A01F"/>
<mask id="mask1" mask-type="alpha" maskUnits="userSpaceOnUse" x="992" y="931" width="206" height="191">
<path d="M1010.66 1067.32C1028.55 1048.48 1109.04 1052.8 1143.18 1057.9L1148.37 931.962L1197.81 944.909C1197.81 944.909 1164.36 1061.43 1160.14 1067.32C1155.92 1073.2 1065.75 1121.46 1036.56 1121.46C1007.37 1121.46 995.361 1115.97 993.007 1113.22C991.438 1105.77 992.772 1086.15 1010.66 1067.32Z" fill="#FD9B29"/>
</mask>
<g mask="url(#mask1)">
<path d="M1064.53 1076.11C1076.86 1069.53 1137.49 1067.89 1166.27 1067.89L1039.86 1134.68L1008.01 1127.49C1021.71 1113.1 1052.2 1082.68 1064.53 1076.11Z" fill="#F3880B"/>
</g>
<path d="M1495.1 1074.38C1477.21 1055.55 1397.41 1058.69 1363.28 1063.79L1357.39 939.028L1307.96 951.975C1307.96 951.975 1340.92 1068.5 1345.62 1074.38C1350.33 1080.27 1440.02 1128.53 1469.21 1128.53C1498.4 1128.53 1510.41 1123.03 1512.76 1120.29C1514.33 1112.83 1513 1093.21 1495.1 1074.38Z" fill="#F6A01F"/>
<mask id="mask2" mask-type="alpha" maskUnits="userSpaceOnUse" x="1307" y="939" width="207" height="190">
<path d="M1495.1 1074.38C1477.21 1055.55 1397.41 1058.69 1363.28 1063.79L1357.39 939.026L1307.96 951.973C1307.96 951.973 1340.91 1068.49 1345.62 1074.38C1350.33 1080.27 1440.02 1128.52 1469.21 1128.52C1498.4 1128.52 1510.4 1123.03 1512.76 1120.29C1514.33 1112.83 1512.99 1093.21 1495.1 1074.38Z" fill="#FD9B29"/>
</mask>
<g mask="url(#mask2)">
<path d="M1482.79 1086.39C1481.15 1074.06 1460.87 1061.38 1450.93 1056.59L1512.59 1064.81L1534.18 1112.08L1512.59 1134.69L1459.15 1137.78C1467.72 1125.79 1484.44 1098.72 1482.79 1086.39Z" fill="#F4921F"/>
</g>
<ellipse cx="1561.7" cy="1244.59" rx="6.51312" ry="6.51306" fill="white"/>
<path d="M1529.86 806.102C1529.86 948.36 1407.02 1008.49 1255.49 1008.49C1103.97 1008.49 981.128 948.36 981.128 806.102C981.128 663.844 1103.97 490.696 1255.49 490.696C1407.02 490.696 1529.86 663.844 1529.86 806.102Z" fill="#1FCFF6"/>
<mask id="mask3" mask-type="alpha" maskUnits="userSpaceOnUse" x="981" y="490" width="549" height="519">
<path d="M1529.86 806.102C1529.86 948.36 1407.02 1008.49 1255.49 1008.49C1103.97 1008.49 981.128 948.36 981.128 806.102C981.128 663.844 1103.97 490.696 1255.49 490.696C1407.02 490.696 1529.86 663.844 1529.86 806.102Z" fill="#1FCFF6"/>
</mask>
<g mask="url(#mask3)">
<path d="M1371.19 874.964C1467.26 777.268 1445.82 633.437 1438.77 569.663L1542.16 636.422C1560.07 697.482 1588.41 838.328 1558.45 913.228C1521 1006.85 1306.06 1045.12 1190.46 1033.72C1097.97 1024.6 1014.06 959.906 983.665 928.697C1127.77 960.448 1291.67 955.835 1371.19 874.964Z" fill="#11C1E8"/>
<rect x="1022.25" y="586.733" width="35.1208" height="533.957" transform="rotate(-32.8445 1022.25 586.733)" fill="#11C1E8"/>
<path d="M1412.72 865.2C1443.65 835.891 1465.36 779.173 1472.96 742.265C1455.32 765.604 1416.62 817.003 1402.95 835.891C1389.27 854.779 1310.41 896.408 1272.69 914.862C1340.26 938.472 1381.78 894.509 1412.72 865.2Z" fill="#00ACD1"/>
<path d="M1160.34 878.222C1210.81 886.364 1215.85 870.838 1251.52 858.681C1222.46 855.304 1196.75 842.532 1173.53 840.315C1150.32 838.098 1074.46 791.217 1039.43 768.054C1053.33 838.271 1109.86 870.081 1160.34 878.222Z" fill="#11C1E8"/>
</g>
<ellipse cx="1255.59" cy="632.359" rx="105.838" ry="105.838" fill="#00B9E1"/>
<path d="M1337.77 738.332C1280.89 776.733 1219.7 763.375 1196.22 751.895C1190.2 769.977 1226.16 837.582 1267.53 823.321C1308.89 809.06 1347.88 737.363 1337.77 738.332Z" fill="#0094B5"/>
<mask id="mask4" mask-type="alpha" maskUnits="userSpaceOnUse" x="1195" y="738" width="145" height="88">
<path d="M1337.77 738.332C1280.89 776.733 1219.7 763.375 1196.22 751.895C1190.2 769.977 1226.16 837.582 1267.53 823.321C1308.89 809.06 1347.88 737.363 1337.77 738.332Z" fill="#F6A01F"/>
</mask>
<g mask="url(#mask4)">
<path d="M1265.27 783.395L1261.78 763.993L1298.53 757.013L1303.84 777.379C1304.33 779.258 1303.08 781.146 1301.16 781.421L1268.93 786.04C1267.2 786.288 1265.58 785.119 1265.27 783.395Z" fill="white"/>
<path d="M1254.46 800.092C1233.33 799.238 1221.44 814.68 1218.14 822.508C1246.32 837.879 1281.98 828.913 1296.29 822.508C1291.16 815.392 1275.6 800.946 1254.46 800.092Z" fill="#13AFD1"/>
</g>
<circle cx="1256.31" cy="642.128" r="86.2985" fill="white"/>
<ellipse cx="1256.41" cy="671.44" rx="20.3535" ry="22.7958" fill="#202643"/>
<path d="M1471.63 1029.52C1477.08 1047.03 1506.12 1078.46 1521.86 1084.07C1519.73 1089.43 1517.65 1094.77 1515.61 1100.08C1514.46 1103.05 1508.58 1106.68 1508.58 1106.68C1508.58 1106.68 1510.98 1112.24 1510.36 1113.89C1508.51 1118.84 1506.69 1123.77 1504.91 1128.67C1504.62 1129.46 1502.11 1129.21 1501.82 1130C1501.82 1130 1501.35 1138.57 1500.04 1142.31C1497.89 1148.46 1489.31 1158.49 1489.31 1158.49C1489.31 1158.49 1490.71 1169.89 1489.25 1174.48C1488.98 1175.32 1488.71 1176.16 1488.45 1176.99C1487.95 1178.56 1481.46 1178.67 1480.98 1180.23C1480.98 1180.23 1483.49 1193.06 1481.86 1198.66C1481.53 1199.8 1481.2 1200.93 1480.88 1202.06C1479.42 1207.15 1478.03 1212.19 1476.7 1217.17C1475.36 1222.21 1474.09 1227.2 1472.9 1232.13C1472.74 1232.79 1468.09 1232.43 1468.09 1232.43C1468.09 1232.43 1471.95 1236.09 1471.71 1237.07C1470.44 1242.5 1469.26 1247.85 1468.17 1253.11C1467.86 1254.63 1461.12 1253.19 1461.12 1253.19C1461.12 1253.19 1466.38 1262.16 1465.97 1264.4C1463.92 1275.53 1462.34 1286.28 1461.27 1296.6L1406.85 1265.15L1381.29 1232.75L1471.63 1029.52Z" fill="#72799F"/>
<mask id="mask5" mask-type="alpha" maskUnits="userSpaceOnUse" x="1381" y="1029" width="141" height="268">
<path d="M1521.86 1084.07C1490.5 1163.29 1467.47 1237.14 1461.27 1296.6L1406.85 1265.15L1381.29 1232.75L1471.63 1029.52C1477.08 1047.03 1506.12 1078.46 1521.86 1084.07Z" fill="#72799F"/>
</mask>
<g mask="url(#mask5)">
<g style="mix-blend-mode:multiply">
<path d="M1485.1 1208.21C1496.29 1132.4 1472.06 1070.14 1458.55 1048.49L1470.09 1017.77L1542.71 1056.41L1530.96 1117.39L1485.1 1208.21Z" fill="#72799F" fill-opacity="0.14"/>
</g>
</g>
<path d="M1377.18 1270.82C1373.35 1282.23 1314.76 1291.44 1302.42 1283.49C1290.08 1275.53 1295.25 1264.6 1303.24 1264.21C1301.96 1259.47 1301.93 1250.06 1312.07 1250.43C1318.28 1250.66 1321.06 1252.42 1322.09 1254.24C1321.99 1249.1 1323.81 1242.39 1331.69 1242.01C1341.37 1241.55 1345.95 1249.88 1347.03 1254.1C1351.35 1252.65 1360.28 1251.22 1361.41 1257.15C1368.17 1255.23 1381.02 1259.42 1377.18 1270.82Z" fill="white"/>
<path d="M1373.35 1284.09C1360.34 1281.91 1333.26 1244.07 1326.96 1226.1L1387.66 1222.89C1395.96 1246.97 1448.45 1288.84 1461.27 1296.59L1440.47 1293.64L1428.63 1286.77L1427.23 1291.75L1404.2 1288.47L1395.91 1284.97L1373.35 1284.09Z" fill="#646B8D"/>
<path d="M1394.34 1234.11L1325.28 1228.73C1321.84 1228.46 1319.76 1224.79 1321.29 1221.7L1416.14 1029.85C1416.93 1028.25 1418.53 1027.21 1420.31 1027.14L1471.04 1025.09C1474.55 1024.95 1477.05 1028.44 1475.79 1031.71L1399.27 1231C1398.5 1233.01 1396.49 1234.28 1394.34 1234.11Z" fill="#F6A01F"/>
<mask id="mask6" mask-type="alpha" maskUnits="userSpaceOnUse" x="1264" y="1006" width="275" height="254">
<path d="M1394.34 1234.11L1325.28 1228.73C1321.84 1228.46 1319.76 1224.79 1321.29 1221.7L1416.14 1029.85C1416.93 1028.25 1418.53 1027.21 1420.31 1027.14L1471.04 1025.09C1474.55 1024.95 1477.05 1028.44 1475.79 1031.71L1399.27 1231C1398.5 1233.01 1396.49 1234.28 1394.34 1234.11Z" fill="#E7AF45"/>
</mask>
<g mask="url(#mask6)">
<g style="mix-blend-mode:multiply">
<path d="M1413.64 1016.47L1382.18 1243L1407.55 1252.43L1500.29 1032.19L1473.71 1011.76L1413.64 1016.47Z" fill="#F08406" fill-opacity="0.21"/>
</g>
</g>
<path d="M1381.77 1135.89L942.93 435.376C942.93 435.376 949.296 427.406 955.302 424.885C961.307 422.364 971.456 423.402 971.456 423.402L1411.85 1117.08C1411.85 1117.08 1411.56 1126.92 1400.93 1133.14C1390.3 1139.37 1381.77 1135.89 1381.77 1135.89Z" fill="#F6A01F"/>
<mask id="mask7" mask-type="alpha" maskUnits="userSpaceOnUse" x="941" y="365" width="476" height="828">
<path d="M1381.77 1135.88L942.925 435.374C942.925 435.374 949.292 427.403 955.298 424.882C961.303 422.362 971.451 423.4 971.451 423.4L1411.84 1117.08C1411.84 1117.08 1411.56 1126.91 1400.93 1133.14C1390.3 1139.37 1381.77 1135.88 1381.77 1135.88Z" fill="#D69F36"/>
</mask>
<g mask="url(#mask7)">
<path d="M1391.61 1164.39L1253.98 856.692L1420.1 1090.85L1422.7 1129.64L1391.61 1164.39Z" fill="#F08406"/>
</g>
<path d="M1585.89 1173.81C1578.55 1190.67 1487.08 1197.35 1469.06 1183.71C1451.04 1170.07 1460.38 1154.1 1472.75 1154.51C1471.37 1147.13 1472.5 1132.84 1488.08 1134.67C1497.63 1135.79 1501.68 1138.8 1503.06 1141.71C1503.54 1133.87 1507.19 1123.91 1519.38 1124.32C1534.36 1124.82 1540.37 1138.06 1541.51 1144.61C1548.35 1142.94 1562.29 1141.89 1563.28 1151.05C1573.94 1148.97 1593.23 1156.95 1585.89 1173.81Z" fill="white"/>
<path d="M1620.43 1300.79C1610.75 1321.22 1477.9 1334.06 1450.83 1318.82C1423.75 1303.57 1436.39 1284.08 1454.44 1283.92C1451.98 1275.22 1452.78 1258.17 1475.58 1259.51C1489.56 1260.33 1495.65 1263.69 1497.83 1267.07C1498.06 1257.74 1502.77 1245.7 1520.57 1245.53C1542.41 1245.33 1551.97 1260.74 1554.02 1268.47C1563.89 1266.12 1584.13 1264.12 1586.13 1274.95C1601.54 1271.91 1630.11 1280.36 1620.43 1300.79Z" fill="white"/>
<ellipse rx="8.14142" ry="8.14139" transform="matrix(0.917709 -0.397254 0.397258 0.917707 1575.5 1109.64)" fill="white"/>
<ellipse rx="5.6989" ry="5.69893" transform="matrix(0.917707 -0.397259 0.397253 0.917709 1307.04 1239.06)" fill="white"/>
<path d="M1207.01 869.73C1217.06 874.764 1229.38 875.051 1238.9 873.438C1253.86 870.901 1259.34 861.334 1255.49 855.432C1252.92 851.498 1250.18 850.712 1248.69 850.369C1247.94 850.197 1247.51 850.137 1247.57 849.851C1247.66 849.418 1248.18 849.412 1249.09 849.405C1250.52 849.393 1252.9 849.37 1256.05 847.656C1261.19 844.848 1261.08 831.857 1254.68 830.194C1251.16 829.281 1247.91 830.076 1245.62 830.842C1243.75 831.472 1242.52 832.083 1242.33 831.707C1241.92 830.897 1247.53 829.306 1250.69 823.646C1253.86 817.982 1249.98 811.453 1243.28 811.469C1238.48 811.481 1234.25 814.655 1232.01 816.328C1231.13 816.993 1230.56 817.422 1230.39 817.326C1229.8 816.999 1239.48 809.01 1230.39 803.318C1221.3 797.625 1214.78 801.699 1206.04 808.441C1201.87 811.653 1196.64 818.497 1193.29 826.724C1118.27 825.194 1065.4 760.687 1044.5 721.331C1041.81 716.275 1036.77 712.522 1031.28 714.151C1025.84 715.766 1019.17 719.608 1014.84 728.582C1006.45 745.962 1019.28 764.277 1019.28 764.277C1074.86 858.59 1162.89 874.039 1207.01 869.73Z" fill="#47DEFF"/>
<mask id="mask8" mask-type="alpha" maskUnits="userSpaceOnUse" x="1011" y="713" width="249" height="162">
<path d="M1207.01 869.73C1217.06 874.764 1229.38 875.051 1238.9 873.438C1253.86 870.901 1259.34 861.334 1255.49 855.432C1252.92 851.498 1250.18 850.712 1248.69 850.369C1247.94 850.197 1247.51 850.137 1247.57 849.851C1247.66 849.418 1248.18 849.412 1249.09 849.405C1250.52 849.393 1252.9 849.37 1256.05 847.656C1261.19 844.848 1261.08 831.857 1254.68 830.194C1251.16 829.281 1247.91 830.076 1245.62 830.842C1243.75 831.472 1242.52 832.083 1242.33 831.707C1241.92 830.897 1247.53 829.306 1250.69 823.646C1253.86 817.982 1249.98 811.453 1243.28 811.469C1238.48 811.481 1234.25 814.655 1232.01 816.328C1231.13 816.993 1230.56 817.422 1230.39 817.326C1229.8 816.999 1239.48 809.01 1230.39 803.318C1221.3 797.625 1214.78 801.699 1206.04 808.441C1201.87 811.653 1196.64 818.497 1193.29 826.724C1118.27 825.194 1065.4 760.687 1044.5 721.331C1041.81 716.275 1036.77 712.522 1031.28 714.151C1025.84 715.766 1019.17 719.608 1014.84 728.582C1006.45 745.962 1019.28 764.277 1019.28 764.277C1074.86 858.59 1162.89 874.039 1207.01 869.73Z" fill="#47DEFF"/>
</mask>
<g mask="url(#mask8)">
<path d="M1187.2 839.959C1150.08 835.4 1110.4 800.609 1095.2 783.784L1184.76 807.393L1222.21 788.668C1232.25 790.297 1256.08 797.624 1271.06 813.907C1286.04 830.189 1277.3 841.859 1271.06 845.658C1242.56 827.747 1233.61 845.658 1187.2 839.959Z" fill="#6CE5FF"/>
</g>
<path d="M1295.17 922.028C1293.07 930.538 1288.98 937.957 1285.38 941.713C1277.75 949.689 1271.92 954.695 1262.08 950.43C1254.2 947.015 1257.99 940.342 1259.5 937.697C1259.87 937.035 1260.1 936.625 1259.98 936.577C1259.8 936.507 1259.3 937.016 1258.52 937.805C1256.56 939.799 1252.86 943.574 1248.11 944.302C1241.49 945.323 1236.67 939.452 1238.95 933.378C1240.43 929.441 1243.18 927.043 1244.79 925.64C1245.66 924.88 1246.2 924.413 1246.01 924.152C1245.83 923.901 1245.18 924.26 1244.15 924.826C1242.06 925.968 1238.43 927.955 1234.03 927.498C1227.45 926.814 1225.4 913.988 1230.06 910.442C1234.72 906.893 1238.05 908.136 1238.11 907.001C1238.16 906.12 1234.14 907.926 1229.44 902.67C1224.75 897.409 1228.73 887.131 1243.15 882.377C1251.19 879.727 1261.58 878.198 1271.23 880.204C1345.51 872.238 1423.43 769.571 1437.82 723.009C1439.51 717.536 1443.19 712.438 1448.92 712.39C1454.6 712.343 1462.1 714.063 1468.87 721.375C1481.98 735.539 1475.07 756.805 1475.07 756.805C1424.84 876.938 1334.18 918.555 1295.17 922.028Z" fill="#47DEFF"/>
<mask id="mask9" mask-type="alpha" maskUnits="userSpaceOnUse" x="1227" y="712" width="250" height="240">
<path d="M1295.17 922.028C1293.07 930.538 1288.98 937.957 1285.38 941.713C1277.75 949.689 1271.92 954.695 1262.08 950.43C1254.2 947.015 1257.99 940.342 1259.5 937.697C1259.87 937.035 1260.1 936.625 1259.98 936.577C1259.8 936.507 1259.3 937.016 1258.52 937.805C1256.56 939.799 1252.86 943.574 1248.11 944.302C1241.49 945.323 1236.67 939.452 1238.95 933.378C1240.43 929.441 1243.18 927.043 1244.79 925.64C1245.66 924.88 1246.2 924.413 1246.01 924.152C1245.83 923.901 1245.18 924.26 1244.15 924.826C1242.06 925.968 1238.43 927.955 1234.03 927.498C1227.45 926.814 1225.4 913.988 1230.06 910.442C1234.72 906.893 1238.05 908.136 1238.11 907.001C1238.16 906.12 1234.14 907.926 1229.44 902.67C1224.75 897.409 1228.73 887.131 1243.15 882.377C1251.19 879.727 1261.58 878.198 1271.23 880.204C1345.51 872.238 1423.43 769.571 1437.82 723.009C1439.51 717.536 1443.19 712.438 1448.92 712.39C1454.6 712.343 1462.1 714.063 1468.87 721.375C1481.98 735.539 1475.07 756.805 1475.07 756.805C1424.84 876.938 1334.18 918.555 1295.17 922.028Z" fill="#47DEFF"/>
</mask>
<g mask="url(#mask9)">
<path d="M1393.18 826.931C1426.4 786.549 1437.96 726.52 1439.59 701.554L1309.32 854.611L1223.02 880.664L1218.14 901.017C1253.96 906.716 1351.66 877.407 1393.18 826.931Z" fill="#6CE5FF"/>
</g>
<path d="M1084.62 508.861C1084.32 502.607 1090.91 498.377 1096.47 501.246L1161.65 534.861C1161.65 534.861 1153.82 550.132 1131.03 565.6C1108.23 581.069 1088.1 582.119 1088.1 582.119L1084.62 508.861Z" fill="#F6A01F"/>
<path d="M1435.2 508.861C1435.5 502.607 1428.92 498.377 1423.35 501.246L1358.17 534.861C1358.17 534.861 1360.61 551.76 1388.29 568.857C1415.97 585.954 1431.72 582.119 1431.72 582.119L1435.2 508.861Z" fill="#F6A01F"/>
<path d="M1248.3 449.163C1251.43 443.741 1259.25 443.741 1262.39 449.164L1299.06 512.678C1299.06 512.678 1286.53 521.634 1255.34 521.634C1224.16 521.634 1211.63 512.678 1211.63 512.678L1248.3 449.163Z" fill="#F6A01F"/>
<mask id="mask10" mask-type="alpha" maskUnits="userSpaceOnUse" x="1084" y="500" width="78" height="83">
<path d="M1084.61 508.862C1084.32 502.608 1090.9 498.377 1096.47 501.247L1161.65 534.862C1161.65 534.862 1153.82 550.132 1131.02 565.601C1108.23 581.07 1088.09 582.12 1088.09 582.12L1084.61 508.862Z" fill="#F6A01F"/>
</mask>
<g mask="url(#mask10)">
<path d="M1144.05 563.973L1083.81 495.586L1178.25 528.965L1144.05 563.973Z" fill="#F3880B"/>
</g>
<mask id="mask11" mask-type="alpha" maskUnits="userSpaceOnUse" x="1358" y="500" width="78" height="83">
<path d="M1435.21 508.862C1435.5 502.608 1428.92 498.377 1423.35 501.247L1358.17 534.862C1358.17 534.862 1360.61 551.761 1388.29 568.858C1415.97 585.955 1431.73 582.12 1431.73 582.12L1435.21 508.862Z" fill="#F6A01F"/>
</mask>
<g mask="url(#mask11)">
<path d="M1395.62 591.658L1439.58 485.82L1460.75 591.658H1395.62Z" fill="#F3880B"/>
</g>
<mask id="mask12" mask-type="alpha" maskUnits="userSpaceOnUse" x="1211" y="445" width="89" height="77">
<path d="M1248.3 449.163C1251.43 443.741 1259.25 443.741 1262.39 449.164L1299.06 512.678C1299.06 512.678 1286.53 521.634 1255.34 521.634C1224.16 521.634 1211.63 512.678 1211.63 512.678L1248.3 449.163Z" fill="#F6A01F"/>
</mask>
<g mask="url(#mask12)">
<path d="M1271.06 530.586L1258.85 424.748L1319.91 511.861L1271.06 530.586Z" fill="#F3880B"/>
</g>
<ellipse cx="605.803" cy="1012.68" rx="260.975" ry="64.2275" fill="#C6C6EB"/>
<path d="M844.827 1001.3V829.756L606.616 796.423V950.081L844.827 1001.3Z" fill="#ABABAB"/>
<path d="M607.428 948.455V796.423L369.217 829.756V1002.11L607.428 948.455Z" fill="#BABABA"/>
<path d="M359.458 855.772V782.601L616.369 767.967V830.569L359.458 855.772Z" fill="#4E5786"/>
<path d="M855.398 856.585V782.733L616.374 767.967V831.133L855.398 856.585Z" fill="#4E5786"/>
<path d="M607.428 1072.03V867.153L369.217 829.754V1002.11L607.428 1072.03Z" fill="white"/>
<path d="M448.08 1024.87L555.397 880.159L606.616 886.663V1072.84L448.08 1024.87Z" fill="#FCFCFF"/>
<path d="M606.617 1072.03V867.154L844.828 829.755V1002.11L606.617 1072.03Z" fill="#E8E8FD"/>
<path d="M616.372 888.29V798.914L855.397 782.599V857.788L616.372 888.29Z" fill="#DADAF7"/>
<path d="M606.611 1072.03V867.154L844.822 829.755V1002.11L606.611 1072.03Z" fill="#E8E8FD"/>
<path d="M616.366 888.29V798.914L855.39 782.599V857.788L616.366 888.29Z" fill="#DADAF7"/>
<path d="M616.366 888.29V798.914L359.456 782.599V857.788L616.366 888.29Z" fill="#F6F7FF"/>
<g style="mix-blend-mode:multiply">
<path d="M487.1 824.875C487.1 822.274 507.154 803.195 517.181 793.981L511.49 782.599L468.401 785.038C460 800.214 443.198 831.054 443.198 833.005C443.198 835.444 447.263 858.209 448.076 860.648C448.889 863.087 473.279 858.209 481.409 858.209C489.539 858.209 487.1 828.127 487.1 824.875Z" fill="#DADAF6" fill-opacity="0.51"/>
</g>
<g style="mix-blend-mode:multiply">
<path d="M664.34 1054.96L844.015 783.411L855.397 782.598V858.186L844.735 858.897L844.015 1002.54L664.34 1054.96Z" fill="#F2F2FF" fill-opacity="0.94"/>
</g>
<path d="M518.811 736.257C513.12 738.696 507.429 751.704 510.681 758.208L512.307 792.354L616.372 798.859L737.51 790.728C738.052 789.102 738.973 785.2 738.323 782.598C737.51 779.346 735.071 764.712 733.445 757.395C731.819 750.078 712.307 724.062 712.307 722.436C712.307 720.81 691.169 705.363 681.412 702.111C671.656 698.859 663.526 700.485 653.77 707.802C644.014 715.119 622.063 714.306 618.811 707.802C615.559 701.298 609.868 692.354 604.99 689.915C600.112 687.476 572.469 702.923 563.526 705.363C554.583 707.802 545.64 721.623 536.697 726.501C527.754 731.379 524.502 733.818 518.811 736.257Z" fill="#84C022"/>
<mask id="mask13" mask-type="alpha" maskUnits="userSpaceOnUse" x="509" y="689" width="230" height="110">
<path d="M518.811 736.257C513.12 738.696 507.429 751.704 510.681 758.208L512.307 792.354L616.372 798.859L737.51 790.728C738.052 789.102 738.973 785.2 738.323 782.598C737.51 779.346 735.071 764.712 733.445 757.395C731.819 750.078 712.307 724.062 712.307 722.436C712.307 720.81 691.169 705.363 681.412 702.111C671.656 698.859 663.526 700.485 653.77 707.802C644.014 715.119 622.063 714.306 618.811 707.802C615.559 701.298 609.868 692.354 604.99 689.915C600.112 687.476 572.469 702.923 563.526 705.363C554.583 707.802 545.64 721.623 536.697 726.501C527.754 731.379 524.502 733.818 518.811 736.257Z" fill="#318ACB"/>
</mask>
<g mask="url(#mask13)">
<path d="M648.893 722.438C645.099 725.419 637.348 731.543 636.698 732.194V741.137L611.494 742.763L647.267 760.649L650.519 742.763L674.096 724.064L648.893 722.438Z" fill="#6DAA09"/>
<path d="M570.033 739.511C566.781 739.511 544.829 746.557 534.26 750.08L577.35 803.739H598.488L603.366 761.462L587.106 745.202C584.667 742.763 574.098 739.511 570.033 739.511Z" fill="#6DAA09"/>
<path d="M691.172 737.886C696.863 736.26 718.001 728.943 729.383 731.382L744.018 747.641L713.123 802.926L651.335 815.121C649.167 810.514 644.831 800.974 644.831 799.674C644.831 798.048 654.587 764.714 657.026 759.023C659.465 753.332 685.481 739.512 691.172 737.886Z" fill="#6DAA09"/>
</g>
<path d="M451.332 754.14C431.82 755.766 422.877 780.97 421.251 802.108C421.251 812.675 428.568 805.361 430.194 811.865C431.82 818.369 421.251 826.5 421.251 841.947C421.251 857.394 456.21 852.516 464.34 849.264C472.47 846.012 464.34 826.5 473.283 816.743C480.438 808.939 497.402 796.689 504.991 791.54C504.991 791.54 567.592 796.418 569.218 796.418C570.844 796.418 594.421 797.231 594.421 797.231C594.421 794.792 593.608 760.646 587.104 754.14C580.6 747.635 563.527 738.695 541.576 745.197C519.625 751.7 510.682 754.14 492.795 745.197C474.909 736.254 470.844 752.514 451.332 754.14Z" fill="#DA6363"/>
<mask id="mask14" mask-type="alpha" maskUnits="userSpaceOnUse" x="421" y="742" width="174" height="111">
<path d="M451.332 754.14C431.82 755.766 422.877 780.97 421.251 802.108C421.251 812.675 428.568 805.361 430.194 811.865C431.82 818.369 421.251 826.5 421.251 841.947C421.251 857.394 456.21 852.516 464.34 849.264C472.47 846.012 464.34 826.5 473.283 816.743C480.438 808.939 497.402 796.689 504.991 791.54C504.991 791.54 567.592 796.418 569.218 796.418C570.844 796.418 594.421 797.231 594.421 797.231C594.421 794.792 593.608 760.646 587.104 754.14C580.6 747.635 563.527 738.695 541.576 745.197C519.625 751.7 510.682 754.14 492.795 745.197C474.909 736.254 470.844 752.514 451.332 754.14Z" fill="#DA6363"/>
</mask>
<g mask="url(#mask14)">
<path d="M527.755 756.579L510.681 762.27L507.429 766.335L529.381 760.644L527.755 756.579Z" fill="#D24A4A"/>
<path d="M471.656 817.555L477.347 787.474L485.477 785.035V793.165L496.046 797.23L471.656 817.555Z" fill="#D24A4A"/>
<path d="M501.738 793.161L597.673 767.145L602.551 806.17H514.746L501.738 793.161Z" fill="#D24A4A"/>
</g>
<path d="M783.037 972.031C780.436 969.429 778.159 958.21 778.159 953.332L783.037 946.828L826.94 927.315C829.65 934.091 833.444 945.852 833.444 948.454C833.444 951.706 821.249 963.901 813.119 965.527C804.988 967.153 786.289 975.283 783.037 972.031Z" fill="#B271F2"/>
<mask id="mask15" mask-type="alpha" maskUnits="userSpaceOnUse" x="778" y="927" width="56" height="46">
<path d="M783.037 972.031C780.436 969.429 778.159 958.21 778.159 953.332L783.037 946.828L826.94 927.315C829.65 934.091 833.444 945.852 833.444 948.454C833.444 951.706 821.249 963.901 813.119 965.527C804.988 967.153 786.289 975.283 783.037 972.031Z" fill="#B271F2"/>
</mask>
<g mask="url(#mask15)">
<g style="mix-blend-mode:multiply">
<path d="M829.373 927.314L839.129 947.639L828.56 964.712L812.3 967.151C812.3 967.151 820.43 960.647 818.804 954.143C817.178 947.639 812.3 942.761 812.3 942.761L829.373 927.314Z" fill="#B271F2" fill-opacity="0.15"/>
</g>
</g>
<path d="M705.804 763.085C696.698 768.288 685.75 786.933 681.414 795.605L742.389 791.54C743.473 793.979 746.78 799.345 751.333 801.296C757.024 803.735 758.65 854.142 758.65 863.085C758.65 872.028 761.089 896.418 762.715 914.304C764.341 932.19 754.585 957.394 775.723 958.207C796.861 959.02 836.698 930.564 831.007 923.247C825.316 915.93 826.129 891.54 826.129 885.036C826.129 878.532 829.381 850.89 831.007 842.76C832.633 834.63 831.007 814.304 831.007 808.613C831.007 802.922 827.755 776.093 826.129 771.215C824.503 766.337 804.178 755.768 795.235 754.142C786.292 752.516 745.641 748.451 734.259 748.451C722.877 748.451 717.186 756.581 705.804 763.085Z" fill="#C696F5"/>
<mask id="mask16" mask-type="alpha" maskUnits="userSpaceOnUse" x="681" y="748" width="151" height="211">
<path d="M705.804 763.085C696.698 768.288 685.75 786.933 681.414 795.605L742.389 791.54C743.473 793.979 746.78 799.345 751.333 801.296C757.024 803.735 758.65 854.142 758.65 863.085C758.65 872.028 761.089 896.418 762.715 914.304C764.341 932.19 754.585 957.394 775.723 958.207C796.861 959.02 836.698 930.564 831.007 923.247C825.316 915.93 826.129 891.54 826.129 885.036C826.129 878.532 829.381 850.89 831.007 842.76C832.633 834.63 831.007 814.304 831.007 808.613C831.007 802.922 827.755 776.093 826.129 771.215C824.503 766.337 804.178 755.768 795.235 754.142C786.292 752.516 745.641 748.451 734.259 748.451C722.877 748.451 717.186 756.581 705.804 763.085Z" fill="#E3C9FD"/>
</mask>
<g mask="url(#mask16)">
<path d="M727.752 763.085C727.752 772.841 719.079 789.915 714.743 797.232L704.987 798.045L710.678 754.955L727.752 744.386V763.085Z" fill="#B271F2"/>
<path d="M780.598 875.284C775.395 877.885 760.544 890.46 753.769 896.422L750.517 867.966C756.75 858.752 769.379 840.161 770.029 839.511C770.842 838.698 789.541 830.568 799.297 829.755C807.102 829.105 828.566 832.736 838.322 834.633L834.257 865.528C830.734 864.173 822.549 861.463 817.997 861.463C812.305 861.463 787.102 872.032 780.598 875.284Z" fill="#B271F2"/>
<path d="M792.792 786.667C782.386 787.967 759.188 805.637 748.89 814.309L743.199 803.74C753.226 792.9 773.443 771.057 774.093 770.406C774.906 769.593 791.979 763.902 802.548 763.902C811.004 763.902 823.416 764.986 828.565 765.528L835.882 795.61C833.714 793.171 828.727 787.967 826.126 786.667C822.874 785.041 805.8 785.041 792.792 786.667Z" fill="#B271F2"/>
<g style="mix-blend-mode:multiply">
<path d="M812.306 788.284C812.957 776.576 804.989 759.015 778.973 750.072L834.257 754.95L838.322 780.154V923.243V933.812L793.607 960.641C791.439 957.931 789.542 946.007 800.111 926.495C810.68 906.983 803.363 881.78 807.428 867.958C811.493 854.137 811.493 802.918 812.306 788.284Z" fill="#B271F2" fill-opacity="0.2"/>
</g>
</g>
</g>
<defs>
<clipPath id="clip0">
<rect width="2000" height="1457.47" fill="white"/>
</clipPath>
</defs>
</svg>
