<svg xmlns="http://www.w3.org/2000/svg" xmlns:xlink="http://www.w3.org/1999/xlink" viewBox="0 0 798.02 702.72"><defs><clipPath id="clip-path" transform="translate(38.3 49.23)"><path d="M57.57,196.91s-27.35-83.66,46.64-98.45C156,88.09,187.12,114,187.12,114S213,77.73,259.67,82.91c0,0,20.72-82.91,114-82.91S492.85,93.27,492.85,93.27s51.82-10.36,72.55,41.46c0,0,72.55-36.27,119.19,20.73s25.91,119.18-36.28,155.46c0,0-20.73,82.91-88.09,108.82s-134.73-25.91-134.73-25.91-31.09,36.27-82.91,31.09-62.19-36.27-62.19-36.27-31.09,25.91-93.27,15.54-77.73-46.64-77.73-46.64S21.3,373.1,5.75,321.28,5.75,212.46,57.57,196.91Z" style="fill:#4d88ce"/></clipPath><clipPath id="clip-path-2" transform="translate(38.3 49.23)"><path d="M170.5,475.5s-47,89,0,89S170.5,475.5,170.5,475.5Z" style="fill:#a9e2ff"/></clipPath><clipPath id="clip-path-3" transform="translate(38.3 49.23)"><path d="M269.5,564.5s-47,89,0,89S269.5,564.5,269.5,564.5Z" style="fill:#a9e2ff"/></clipPath><clipPath id="clip-path-4" transform="translate(38.3 49.23)"><path d="M353.5,475.5s-47,89,0,89S353.5,475.5,353.5,475.5Z" style="fill:#a9e2ff"/></clipPath><clipPath id="clip-path-5" transform="translate(38.3 49.23)"><path d="M539.5,475.5s-47,89,0,89S539.5,475.5,539.5,475.5Z" style="fill:#a9e2ff"/></clipPath><clipPath id="clip-path-6" transform="translate(38.3 49.23)"><path d="M452.5,564.5s-47,89,0,89S452.5,564.5,452.5,564.5Z" style="fill:#a9e2ff"/></clipPath></defs><g id="Layer_2" data-name="Layer 2"><g id="cloud"><g id="Layer_4" data-name="Layer 4"><path d="M57.57,196.91s-27.35-83.66,46.64-98.45C156,88.09,187.12,114,187.12,114S213,77.73,259.67,82.91c0,0,20.72-82.91,114-82.91S492.85,93.27,492.85,93.27s51.82-10.36,72.55,41.46c0,0,72.55-36.27,119.19,20.73s25.91,119.18-36.28,155.46c0,0-20.73,82.91-88.09,108.82s-134.73-25.91-134.73-25.91-31.09,36.27-82.91,31.09-62.19-36.27-62.19-36.27-31.09,25.91-93.27,15.54-77.73-46.64-77.73-46.64S21.3,373.1,5.75,321.28,5.75,212.46,57.57,196.91Z" transform="translate(38.3 49.23)" style="fill:#4d88ce"/><g style="clip-path:url(#clip-path)"><path d="M44.62,184s36.27-57,88.09-51.82,62.18,25.91,62.18,25.91,25.91-57,93.28-31.09c0,0,10.36-67.37,77.73-57s72.54,67.36,72.54,67.36,41.46-15.54,77.73,36.28c0,0,25.91-10.37,51.82,0,0,0,36.28-62.19,108.82-41.46l-285-181.37-248.74,57L39.43,90.68Z" transform="translate(38.3 49.23)" style="fill:#61a2e2;opacity:0.7000000000000001"/><path d="M39.43,199.5S18.71,287.6,80.89,298,169,261.69,169,261.69s-10.36,67.36,46.64,77.73,72.55-5.18,72.55-5.18,15.54,25.9,51.82,15.54,46.63-57,46.63-57,20.73,15.55,77.73-5.18c0,0,31.09,36.27,82.91,25.91s41.46-51.82,41.46-51.82,67.36,25.91,88.09-31.09,0-108.82,0-108.82l82.91,98.45L697.54,370.51l-93.27,82.91L511,494.88,329.62,484.51,153.44,463.78,49.8,417.15-22.75,344.6-38.3,261.69,8.34,194.32Z" transform="translate(38.3 49.23)" style="fill:#2874bf"/></g><path d="M170.5,475.5s-47,89,0,89S170.5,475.5,170.5,475.5Z" transform="translate(38.3 49.23)" style="fill:#a9e2ff"/><g style="clip-path:url(#clip-path-2)"><path d="M163.72,507.87c-2.87,7.76-5.06,15.76-7.72,23.59-2.08,6.14-4.49,13.69.85,18.87,3.78,3.68,8.89-.16,8.19-4.76-.44-2.87-1.39-5.32-1.39-8.31,0-3.18.45-6.42.75-9.58.62-6.49,1.67-12.92,2.08-19.44.11-1.68-2.24-1.77-2.76-.37Z" transform="translate(38.3 49.23)" style="fill:#ccf1ff"/></g><path d="M269.5,564.5s-47,89,0,89S269.5,564.5,269.5,564.5Z" transform="translate(38.3 49.23)" style="fill:#a9e2ff"/><g style="clip-path:url(#clip-path-3)"><path d="M265.25,593.9c-2.17,7.74-5.44,15-8.5,22.42-2.76,6.66-3.41,13.84-.53,20.56a4.14,4.14,0,0,0,3.66,2.1,4.6,4.6,0,0,0,2.14-.58,4.18,4.18,0,0,0,2.1-3.66c-.15-7.31-1.59-14-.31-21.35a156.08,156.08,0,0,0,2.55-19.34.57.57,0,0,0-1.11-.15Z" transform="translate(38.3 49.23)" style="fill:#ccf1ff"/></g><path d="M353.5,475.5s-47,89,0,89S353.5,475.5,353.5,475.5Z" transform="translate(38.3 49.23)" style="fill:#a9e2ff"/><g style="clip-path:url(#clip-path-4)"><path d="M346.88,509.35c-1.2,8.95-5.87,17.07-7.47,25.94-.94,5.21-2.51,14,3.83,16.3a2,2,0,0,0,2.22-.9c1.75-2.36,1.17-4.84,1-7.63a55.11,55.11,0,0,1,.67-11.89c1.08-7.48,2.35-14.26,1.39-21.82a.8.8,0,0,0-1.6,0Z" transform="translate(38.3 49.23)" style="fill:#ccf1ff"/></g><path d="M539.5,475.5s-47,89,0,89S539.5,475.5,539.5,475.5Z" transform="translate(38.3 49.23)" style="fill:#a9e2ff"/><g style="clip-path:url(#clip-path-5)"><path d="M533.31,506.32c-3,8.41-6.22,17.07-8.2,25.78-1.44,6.31-2,15.87,3.46,20.46a3.34,3.34,0,0,0,5.49-1.45c1.09-3.13.33-5.71-.36-8.87a36.52,36.52,0,0,1-.77-11.7c.76-8,1.88-15.93,2.5-23.93.1-1.28-1.73-1.37-2.12-.29Z" transform="translate(38.3 49.23)" style="fill:#ccf1ff"/></g><path d="M452.5,564.5s-47,89,0,89S452.5,564.5,452.5,564.5Z" transform="translate(38.3 49.23)" style="fill:#a9e2ff"/><g style="clip-path:url(#clip-path-6)"><path d="M446.47,594.93c-1.46,4.72-2.77,9.48-4.31,14.18-1.39,4.27-3.31,8.42-4.39,12.78-1.52,6.21-2.91,18.26,4.94,20.6a3.69,3.69,0,0,0,4.08-1.66c2-3.44.5-6.1-.07-9.71a66.38,66.38,0,0,1-.6-11.53c.16-8.21,3.24-16.16,2.28-24.4a1,1,0,0,0-1.93-.26Z" transform="translate(38.3 49.23)" style="fill:#ccf1ff"/><path d="M513.6,578c7.66,0,7.67-11.9,0-11.9s-7.67,11.9,0,11.9Z" transform="translate(38.3 49.23)" style="fill:#ccf1ff"/></g></g></g></g></svg>