<svg width="1000" height="1000" viewBox="0 0 1000 1000" fill="none" xmlns="http://www.w3.org/2000/svg">
<g clip-path="url(#clip0)">
<path d="M406.766 174.453C406.766 174.453 442.448 99.5225 383.616 67.5037C406.304 49.6135 475.165 45.3957 484.615 86.078C494.066 126.76 465.844 171.934 450.552 189.436L406.766 174.453Z" fill="#F0C24D"/>
<mask id="mask0" mask-type="alpha" maskUnits="userSpaceOnUse" x="340" y="24" width="177" height="177">
<path d="M406.766 174.453C406.766 174.453 442.448 99.5225 383.616 67.5037C406.304 49.6135 475.165 45.3957 484.615 86.078C494.066 126.76 465.844 171.934 450.552 189.436L406.766 174.453Z" fill="#F4B14C"/>
</mask>
<g mask="url(#mask0)">
<path d="M404.729 153.937L406.124 139.169C406.124 139.169 435.061 131.345 450.569 134.914C466.078 138.483 489.201 151.128 489.201 151.128L476.354 182.32C476.354 182.32 459.51 163.667 443.384 158.669C427.258 153.672 404.729 153.937 404.729 153.937Z" fill="#B83574"/>
<path d="M413.502 111.94L409.527 98.2469C409.527 98.2469 435.554 86.6938 451.845 86.8818C468.136 87.0699 493.325 91.341 493.325 91.341L490.308 125.314C490.308 125.314 465.289 113.937 451.422 112.202C437.554 110.468 413.502 111.94 413.502 111.94Z" fill="#B83574"/>
<path d="M398.976 92.8041L397.201 86.1184C397.201 86.1184 404.217 69.4689 413.854 60.6134C423.492 51.758 454.802 33.9463 454.802 33.9463L469.39 50.5163C469.39 50.5163 441.259 58.5897 428.085 66.8794C414.911 75.1692 398.976 92.8041 398.976 92.8041Z" fill="#B83574"/>
<g style="mix-blend-mode:multiply">
<path d="M449.712 69.4098C427.192 55.3877 384.382 64.6296 374.29 69.4098L393.942 38.6037L468.833 38.6037L507.075 77.3769L474.675 206.444L410.939 187.854C442.483 177.625 477.862 86.9374 449.712 69.4098Z" fill="#F0C24D" fill-opacity="0.58"/>
</g>
</g>
<path d="M171.906 289.845C171.906 289.845 90.3653 274.389 99.2708 208.003C71.4343 215.747 27.3642 268.826 54.6132 300.478C81.8622 332.13 134.984 336.034 158.139 334.029L171.906 289.845Z" fill="#F0C24D"/>
<mask id="mask1" mask-type="alpha" maskUnits="userSpaceOnUse" x="45" y="207" width="128" height="128">
<path d="M171.906 289.845C171.906 289.845 90.3653 274.389 99.2708 208.003C71.4343 215.747 27.3642 268.826 54.6132 300.478C81.8622 332.13 134.984 336.034 158.139 334.029L171.906 289.845Z" fill="#F4B14C"/>
</mask>
<g mask="url(#mask1)">
<path d="M156.551 276.086L143.809 268.49C143.809 268.49 120.407 287.222 114.128 301.845C107.849 316.467 104.398 342.596 104.398 342.596L137.157 350.648C137.157 350.648 132.051 326.04 137.542 310.075C143.032 294.11 156.551 276.086 156.551 276.086Z" fill="#B83574"/>
<path d="M117.477 258.364L108.774 247.069C108.774 247.069 84.0803 261.25 74.6112 274.508C65.1421 287.765 53.7133 310.615 53.7133 310.615L82.9107 328.244C82.9107 328.244 88.505 301.335 95.2947 289.119C102.084 276.904 117.477 258.364 117.477 258.364Z" fill="#B83574"/>
<path d="M110.616 235.341L106.268 229.961C106.268 229.961 88.689 225.79 75.8512 228.338C63.0133 230.885 30.1486 245.634 30.1486 245.634L34.9058 267.191C34.9058 267.191 58.0338 249.258 72.5037 243.522C86.9735 237.787 110.616 235.341 110.616 235.341Z" fill="#B83574"/>
<g style="mix-blend-mode:multiply">
<path d="M83.2263 273.367C70.9039 249.997 90.8393 216.181 102.347 202.195L187.861 262.745L183.081 308.423C154.93 306.475 95.5487 296.737 83.2263 273.367Z" fill="#F0C24D" fill-opacity="0.58"/>
</g>
</g>
<ellipse cx="323.914" cy="311.725" rx="176.767" ry="173.164" transform="rotate(-28.3296 323.914 311.725)" fill="#899BFB"/>
<mask id="mask2" mask-type="alpha" maskUnits="userSpaceOnUse" x="86" y="75" width="476" height="474">
<ellipse cx="323.914" cy="311.723" rx="176.767" ry="173.164" transform="rotate(-28.3296 323.914 311.723)" fill="#899BFB"/>
</mask>
<g mask="url(#mask2)">
<ellipse cx="290.08" cy="303.744" rx="172.993" ry="153.649" transform="rotate(-28.3296 290.08 303.744)" fill="#98A8FF"/>
</g>
<circle cx="331.268" cy="220.252" r="39.3043" fill="#667BEF"/>
<circle cx="247.346" cy="242.56" r="55.2385" fill="#667BEF"/>
<path d="M414.79 234.803C432.719 273.113 401.039 314.348 345.558 340.313C290.077 366.278 231.804 367.14 213.875 328.83C213.875 328.83 264.505 319.86 319.986 293.895C375.467 267.93 414.79 234.803 414.79 234.803Z" fill="#631414"/>
<path d="M178.822 831.674C-92.9899 864.237 30.6194 879.388 25.9595 904.618C22.0411 925.832 -26.5552 931.789 99.4214 947.789C256.892 967.788 539.961 970.098 731.113 956.158C922.265 942.218 1034.64 897.627 987.299 871.747C939.959 845.866 937.872 811.113 734.326 802.208C530.779 793.303 450.634 799.111 178.822 831.674Z" fill="#23335F"/>
<path d="M644.328 901.705L625.749 920.283C622.034 931.431 636.896 931.431 648.044 935.146C659.191 938.862 666.622 931.431 674.054 931.431C681.485 931.431 685.201 920.283 681.485 920.283C677.769 920.283 674.054 909.136 670.338 905.42C667.365 902.448 651.759 901.705 644.328 901.705Z" fill="#FFBF5D"/>
<path d="M241.159 894.274L231.6 902.282C229.688 907.086 237.335 907.086 243.071 908.688C248.806 910.29 252.629 907.086 256.453 907.086C260.276 907.086 262.188 902.282 260.276 902.282C258.365 902.282 256.453 897.477 254.541 895.875C253.012 894.594 244.982 894.274 241.159 894.274Z" fill="#FFBF5D"/>
<path d="M94.9936 909.136L83.0451 921.148C80.6554 928.356 90.2142 928.356 97.3833 930.758C104.552 933.16 109.332 928.356 114.111 928.356C118.891 928.356 121.28 921.148 118.891 921.148C116.501 921.148 114.111 913.941 111.721 911.539C109.81 909.617 99.773 909.136 94.9936 909.136Z" fill="#FFBF5D"/>
<path d="M728.884 872.674L722.629 877.397C719.501 885.267 725.757 886.842 728.884 886.842C732.012 886.842 747.65 885.268 750.778 880.545C753.905 875.823 746.086 874.249 742.959 872.674C740.456 871.415 732.533 872.15 728.884 872.674Z" fill="#FFBF5D"/>
<path d="M793.99 894.621L789.299 896.983C786.953 900.918 791.645 901.705 793.99 901.705C796.336 901.705 808.065 900.918 810.411 898.557C812.756 896.196 806.892 895.408 804.546 894.621C802.67 893.992 796.727 894.359 793.99 894.621Z" fill="#FFBF5D"/>
<path d="M279.443 909.484L276.316 911.845C274.752 915.78 277.879 916.568 279.443 916.568C281.007 916.568 288.826 915.781 290.39 913.419C291.954 911.058 288.044 910.271 286.48 909.484C285.229 908.854 281.268 909.222 279.443 909.484Z" fill="#FFBF5D"/>
<path d="M829.205 847.667C832.594 842.06 685.199 763.547 640.326 773.312L573.148 857.116C573.148 857.116 774.123 860.832 799.808 857.116C825.492 853.401 825.816 853.274 829.205 847.667Z" fill="#8295FF"/>
<path d="M184.15 895.259C176.888 835.608 310.773 786.721 356.669 788.297L428.316 846.012L184.15 895.259Z" fill="#677EFC"/>
<path d="M190.428 879.411C199.345 861.575 223.87 831.106 257.311 819.959C270.687 815.5 276.929 813.419 279.605 812.527L279.605 812.527C279.605 812.527 283.618 811.19 279.605 812.527L294.468 827.39L279.605 845.969L253.595 860.832C228.824 874.456 181.51 897.246 190.428 879.411Z" fill="#98A8FF"/>
<path d="M794.422 581.427C794.422 593.456 780.613 617.014 780.613 617.014C780.613 617.014 770.779 728.022 731.748 761.484C722.064 775.256 715.806 792.482 704.129 804.544C673.264 836.426 635.844 861.924 594.042 878.865C576.566 885.948 536.82 878.865 536.82 878.865C536.82 878.865 496.188 902.236 473.614 902.236C415.838 902.236 361.628 886.962 314.803 860.233C304.519 854.362 294.591 847.939 285.06 841.003C264.026 825.698 265.146 800.995 248.411 781.136C242.365 773.962 220.357 773.424 214.949 765.733C201.296 746.314 190.081 720.533 180.956 698.278C165.576 660.768 152.806 624.478 152.806 581.427C152.806 565.551 161.733 551.539 163.96 536.281C169.112 500.98 160.997 467.546 176.666 436.957C181.624 427.279 209.067 422.134 214.949 413.056C221.837 402.426 220.127 379.747 228.189 370.034C255.137 337.565 291.279 319.752 328.571 303.571C372.713 284.419 419.766 269.923 473.614 269.923C500.163 269.923 525.958 263.844 550.629 269.923C576.233 276.232 600.626 285.615 623.395 297.658C631.205 301.789 635.106 317.492 642.516 322.231C653.431 329.212 667.612 325.576 677.572 333.788C718.267 367.344 750.55 410.737 770.779 460.328C775.007 470.691 767.638 485.574 770.779 496.445C778.965 524.773 798.671 527.782 794.422 581.427Z" fill="#F4B14C"/>
<mask id="mask3" mask-type="alpha" maskUnits="userSpaceOnUse" x="152" y="267" width="644" height="636">
<path d="M794.422 581.427C794.422 593.456 780.613 617.014 780.613 617.014C780.613 617.014 770.779 728.022 731.748 761.484C722.064 775.256 715.806 792.482 704.129 804.544C673.264 836.426 635.844 861.924 594.042 878.865C576.566 885.948 536.82 878.865 536.82 878.865C536.82 878.865 496.188 902.236 473.614 902.236C415.838 902.236 361.628 886.962 314.803 860.233C304.519 854.362 294.591 847.939 285.06 841.003C264.026 825.698 265.146 800.995 248.411 781.136C242.365 773.962 220.357 773.424 214.949 765.733C201.296 746.314 190.081 720.533 180.956 698.278C165.576 660.768 152.806 624.478 152.806 581.427C152.806 565.551 161.733 551.539 163.96 536.281C169.112 500.98 160.997 467.546 176.666 436.957C181.624 427.279 209.067 422.134 214.949 413.056C221.837 402.426 220.127 379.747 228.189 370.034C255.137 337.565 291.279 323.324 328.571 307.143C372.713 287.99 419.766 269.923 473.614 269.923C500.163 269.923 525.958 263.844 550.629 269.923C576.233 276.232 600.626 285.615 623.395 297.658C631.205 301.789 635.106 317.492 642.516 322.231C653.431 329.212 667.612 325.576 677.572 333.788C718.267 367.344 750.55 410.737 770.779 460.328C775.007 470.691 767.638 485.574 770.779 496.445C778.965 524.773 798.671 527.782 794.422 581.427Z" fill="#F4B14C"/>
</mask>
<g mask="url(#mask3)">
<g style="mix-blend-mode:multiply">
<path d="M659.63 336.04C657.93 328.392 675.033 310.191 682.469 302.578C693.8 296.028 703.608 287.175 705.308 287.175C707.008 287.175 769.399 303.11 800.382 311.077C808.172 347.548 823.433 422.297 822.159 429.521C820.565 438.55 815.254 456.609 807.818 457.671C800.382 458.734 786.041 468.294 758.953 462.983C743.775 460.007 742.488 444.393 726.554 435.895C710.619 427.396 692.561 424.209 688.843 411.993C685.125 399.777 683.531 375.876 678.22 367.909C672.908 359.942 661.755 345.601 659.63 336.04Z" fill="#F4B14C" fill-opacity="0.8"/>
</g>
<g style="mix-blend-mode:multiply">
<path d="M190.426 604.448C186.379 611.156 145.328 611.499 134.693 611.878C121.972 608.801 109.35 628.419 108.12 627.246C106.889 626.073 72.7254 571.49 55.7972 544.344C75.3245 512.571 115.856 447.937 121.763 443.588C129.147 438.152 145.452 428.746 151.567 433.108C157.682 437.47 185.633 444.43 201.575 466.965C210.507 479.592 189.69 487.798 195.36 504.944C201.029 522.089 211.901 536.857 206.163 548.264C200.425 559.672 192.081 557.858 190.428 567.29C188.775 576.721 195.486 596.062 190.426 604.448Z" fill="#F4B14C" fill-opacity="0.8"/>
</g>
</g>
<ellipse cx="454.494" cy="561.775" rx="241.137" ry="249.104" fill="#FFBF5E"/>
<g style="mix-blend-mode:multiply">
<path d="M427.458 389.187C410.462 386.532 386.561 405.44 380.718 417.125C372.751 425.8 367.121 453.243 380.718 477.888C397.714 508.694 411.866 501.576 440.017 494.671C468.909 487.584 470.481 473.638 474.73 459.829C478.979 446.019 477.728 422.436 468.698 415C459.669 407.564 444.455 391.843 427.458 389.187Z" fill="#F4B14C" fill-opacity="0.8"/>
</g>
<g style="mix-blend-mode:multiply">
<path d="M308.274 612.08C291.364 609.96 267.586 625.052 261.773 634.378C253.847 641.302 248.245 663.206 261.773 682.876C278.682 707.464 292.762 701.783 320.768 696.272C349.512 690.616 351.076 679.485 355.303 668.463C359.53 657.441 358.286 638.618 349.302 632.683C340.319 626.748 325.183 614.2 308.274 612.08Z" fill="#F4B14C" fill-opacity="0.8"/>
</g>
<g style="mix-blend-mode:multiply">
<path d="M538.648 678.963C521.739 676.844 497.96 691.935 492.148 701.262C484.221 708.186 478.62 730.089 492.147 749.76C509.057 774.348 523.136 768.667 551.143 763.156C579.887 757.499 581.45 746.368 585.678 735.346C589.905 724.324 588.66 705.501 579.677 699.566C570.694 693.631 555.558 681.083 538.648 678.963Z" fill="#F4B14C" fill-opacity="0.8"/>
</g>
<g style="mix-blend-mode:multiply">
<path d="M724.435 530.334C707.525 528.214 683.746 543.305 677.934 552.632C670.008 559.556 664.406 581.46 677.934 601.13C694.843 625.718 708.923 620.037 736.929 614.526C765.673 608.87 767.237 597.739 771.464 586.717C775.691 575.694 774.446 556.871 765.463 550.936C756.48 545.001 741.344 532.453 724.435 530.334Z" fill="#F4B14C" fill-opacity="0.8"/>
</g>
<path d="M249.061 318.68L290.47 305.099L295.833 321.449C298.333 329.072 294.18 337.279 286.557 339.779V339.779C271.311 344.779 254.897 336.474 249.897 321.227L249.061 318.68Z" fill="white"/>
<path d="M305.554 297.783L338.119 282.359L348.389 304.043C351.304 310.196 348.678 317.547 342.525 320.462L332.243 325.332C326.09 328.246 318.739 325.621 315.824 319.468L305.554 297.783Z" fill="white"/>
<path d="M353.472 272.994L387.198 252.146L389.637 256.092C396.575 267.316 393.101 282.04 381.877 288.978L380.428 289.873C373.826 293.954 365.165 291.911 361.084 285.308L353.472 272.994Z" fill="white"/>
<ellipse cx="254.033" cy="245.388" rx="41.8187" ry="44.7534" transform="rotate(-24.5029 254.033 245.388)" fill="white"/>
<ellipse cx="267.337" cy="260.899" rx="16.8742" ry="18.3415" transform="rotate(-24.5029 267.337 260.899)" fill="#403E3E"/>
<ellipse rx="26.8408" ry="28.7243" transform="matrix(-0.884476 0.466587 0.466587 0.884476 330.171 228.439)" fill="white"/>
<ellipse rx="10.8305" ry="11.7723" transform="matrix(-0.884476 0.466587 0.466587 0.884476 333.39 242.421)" fill="#403E3E"/>
<path d="M166.435 182.598C179.704 202.725 213.697 195.289 213.697 195.289L290.181 155.453C290.181 155.453 319.394 131.021 313.254 111.687C307.114 92.353 288.654 149.08 288.654 149.08C288.654 149.08 293.175 131.794 287.525 123.585C281.875 115.376 274.206 147.672 274.206 147.672C274.206 147.672 280.844 106.924 271.863 101.632C262.883 96.3406 254.683 151.905 254.683 151.905C254.683 151.905 251.408 126.241 228.521 109.041C205.634 91.8417 240.625 161.431 240.625 161.431C240.625 161.431 231.756 150.142 220.615 137.926C209.475 125.71 184.789 118.999 181.828 123.585C178.966 128.019 203.181 139.211 212.121 152.798C220.252 165.156 221.883 170.956 221.883 170.956C221.883 170.956 195.638 149.08 188.202 158.109C180.766 167.138 212.121 181.01 212.121 181.01C212.121 181.01 153.166 162.471 166.435 182.598Z" fill="#98A8FF"/>
<path d="M421.217 380.869C404.221 378.213 380.32 397.121 374.477 408.806C366.51 417.482 360.88 444.924 374.477 469.569C391.474 500.375 405.626 493.258 433.776 486.353C462.668 479.266 464.24 465.32 468.489 451.511C472.738 437.701 471.487 414.118 462.457 406.682C453.428 399.246 438.214 383.525 421.217 380.869Z" fill="#5F4F37"/>
<path d="M409.327 393.564C399.313 391.873 385.232 403.917 381.79 411.361C377.096 416.887 373.779 434.368 381.789 450.067C391.803 469.691 400.141 465.157 416.726 460.758C433.748 456.244 434.674 447.361 437.178 438.564C439.681 429.767 438.944 414.744 433.624 410.007C428.304 405.271 419.341 395.256 409.327 393.564Z" fill="#6B5A40"/>
<path d="M289.942 598.952C271.884 595.765 259.667 607.45 251.169 621.791C247.982 627.456 242.246 642.08 244.796 655.253C247.982 671.718 251.169 687.652 277.195 692.432C303.221 697.213 327.653 691.37 343.056 669.062C358.459 646.754 336.683 640.381 326.591 626.571C316.499 612.761 308.001 602.139 289.942 598.952Z" fill="#5F4F37"/>
<path d="M282.854 607.333C270.524 604.853 262.183 613.945 256.381 625.104C254.205 629.513 250.288 640.892 252.029 651.142C254.205 663.954 256.381 676.353 274.15 680.073C291.92 683.793 308.602 679.246 319.118 661.888C329.635 644.529 314.767 639.57 307.876 628.824C300.986 618.078 295.184 609.812 282.854 607.333Z" fill="#6B5A40"/>
<path d="M744.159 515.765C728.756 501.424 695.294 497.175 673.518 519.483C651.741 541.791 665.657 567.179 670.331 590.124C676.173 618.806 709.104 601.81 733.005 602.341C756.907 602.872 765.936 579.502 763.28 561.443C760.625 543.384 759.562 530.106 744.159 515.765Z" fill="#5F4F37"/>
<path d="M727.259 519.695C716.2 508.304 692.177 504.929 676.542 522.648C660.908 540.367 670.898 560.532 674.254 578.757C678.449 601.538 702.091 588.038 719.251 588.46C736.411 588.882 742.893 570.32 740.987 555.976C739.08 541.632 738.317 531.085 727.259 519.695Z" fill="#6B5A40"/>
<path d="M576.652 719.523C575.059 712.087 571.872 689.248 545.315 668.003C520.378 648.053 485.801 657.437 473.08 684.999C466.707 698.809 472.881 715 478.193 739.432C483.504 763.864 523.007 760.421 551.158 757.765C579.308 755.109 578.246 726.959 576.652 719.523Z" fill="#5F4F37"/>
<path d="M550.694 713.368C549.586 707.498 547.37 689.471 528.906 672.702C511.569 656.955 487.528 664.362 478.684 686.117C474.253 697.017 478.546 709.797 482.239 729.082C485.932 748.367 513.397 745.649 532.968 743.553C552.54 741.456 551.802 719.237 550.694 713.368Z" fill="#6B5A40"/>
<path d="M326.486 836.374C311.614 832.656 295.149 831.063 289.306 840.092C283.464 849.122 290.793 854.752 300.991 866.65C313.739 881.522 339.764 886.302 356.761 890.02C373.757 893.738 371.102 884.708 372.164 877.804C373.226 870.899 354.636 866.649 350.918 860.275C347.2 853.902 341.358 840.092 326.486 836.374Z" fill="#5F4F37"/>
<path d="M321.617 839.567C311.02 836.886 299.288 835.737 295.124 842.247C290.961 848.756 300.19 849.574 307.456 858.151C316.539 868.872 326.916 870.342 339.027 873.023C351.138 875.703 352.286 876.938 353.043 871.96C353.8 866.983 341.676 861.392 339.027 856.797C336.377 852.202 332.214 842.247 321.617 839.567Z" fill="#6B5A40"/>
<path d="M718.751 754.308C710.376 759.631 701.007 770.808 689.118 788.302C684.454 797.308 676.457 817.135 681.775 824.4C688.423 833.481 705.968 818.153 712.265 815.127C718.562 812.102 742.537 788.711 747.598 781.62C752.658 774.53 752.497 753.725 750.333 746.611C748.17 739.497 727.125 748.986 718.751 754.308Z" fill="#5F4F37"/>
<path d="M719.479 765.197C712.149 771.427 703.808 780.904 693.133 794.518C688.888 800.887 688.766 808.665 693.133 809.817C698.591 811.257 706.784 801.448 712.269 797.232C717.753 793.016 738.958 771.267 743.492 765.643C748.026 760.019 745.156 757.043 743.492 754.579C741.828 752.114 726.808 758.967 719.479 765.197Z" fill="#6B5A40"/>
<path d="M542.473 262.202C527.42 260.027 521.069 268.442 524.75 275.645C528.432 282.849 547.094 291.638 559.219 297.27C571.344 302.901 611.554 307.571 617.626 302.901C623.699 298.231 616.272 290.748 612.096 284.11C607.921 277.472 591.629 272.718 583.465 270.077C575.301 267.435 557.526 264.378 542.473 262.202Z" fill="#5F4F37"/>
<path d="M544.41 265.686C533.963 264.176 529.555 270.016 532.11 275.016C534.665 280.015 547.616 286.114 556.031 290.022C564.446 293.93 592.351 297.171 596.565 293.93C600.78 290.69 595.625 285.497 592.728 280.89C589.83 276.283 578.523 272.984 572.858 271.151C567.192 269.317 554.857 267.196 544.41 265.686Z" fill="#6B5A40"/>
<path d="M760.429 358.881C776.722 378.863 795.484 429.872 780.612 438.552C765.74 447.231 742.324 429.959 716.434 398.207C690.545 366.456 681.451 336.484 701.022 326.171C720.593 315.858 744.136 338.899 760.429 358.881Z" fill="#677EFC"/>
<path d="M718.524 340.834C721.355 352.564 717.63 364.93 704.758 367.51C691.885 370.09 679.155 362.672 676.324 350.942C673.492 339.212 681.632 327.612 694.505 325.032C707.377 322.452 715.693 329.104 718.524 340.834Z" fill="#98A8FF"/>
<path d="M710.15 340.16C712.226 348.761 709.494 357.828 700.056 359.719C690.617 361.611 681.283 356.172 679.207 347.572C677.131 338.971 683.099 330.465 692.538 328.573C701.976 326.681 708.074 331.559 710.15 340.16Z" fill="#B6C1FF"/>
<path d="M744.385 379.93C752.921 391.585 757.176 405.036 744.385 412.813C731.595 420.591 714.307 417.448 705.772 405.793C697.237 394.137 700.686 378.384 713.476 370.606C726.267 362.828 735.85 368.275 744.385 379.93Z" fill="#98A8FF"/>
<path d="M734.991 380.532C740.85 388.532 743.771 397.765 734.991 403.104C726.212 408.443 714.345 406.285 708.486 398.285C702.627 390.284 704.995 379.47 713.774 374.131C722.554 368.792 729.133 372.531 734.991 380.532Z" fill="#B6C1FF"/>
<path d="M765.941 420.193C777.866 421.962 785.665 425.558 783.724 436.424C781.782 447.291 770.541 454.665 758.616 452.896C746.692 451.127 738.599 440.883 740.541 430.017C742.482 419.151 754.017 418.423 765.941 420.193Z" fill="#98A8FF"/>
<path d="M761.674 422.408C770.526 423.721 776.316 426.39 774.875 434.457C773.433 442.523 765.089 447.998 756.237 446.684C747.385 445.371 741.377 437.767 742.818 429.7C744.26 421.634 752.822 421.094 761.674 422.408Z" fill="#B6C1FF"/>
<path d="M124.162 531.414C126.005 505.697 147.326 455.703 164.102 459.583C180.878 463.463 186.079 492.092 183.152 532.956C180.224 573.82 166.291 601.871 144.974 595.958C123.657 590.044 122.32 557.13 124.162 531.414Z" fill="#677EFC"/>
<path d="M142.287 573.283C148.27 562.803 159.461 556.357 170.599 563.306C181.738 570.255 185.918 584.383 179.935 594.862C173.953 605.342 160.073 608.204 148.935 601.255C137.796 594.307 136.305 583.762 142.287 573.283Z" fill="#98A8FF"/>
<path d="M145.287 576.188C149.673 568.505 156.87 563.149 163.009 566.979C169.148 570.808 170.569 580.142 166.182 587.826C161.796 595.51 153.263 598.634 147.124 594.805C140.985 590.975 140.9 583.872 145.287 576.188Z" fill="#B6C1FF"/>
<path d="M150.273 527.092C152.052 512.756 158.178 500.048 172.821 503.157C187.464 506.266 197.892 520.409 196.113 534.745C194.333 549.081 181.02 558.183 166.377 555.073C151.734 551.964 148.493 541.428 150.273 527.092Z" fill="#98A8FF"/>
<path d="M153.782 526.278C155.004 516.437 158.604 507.586 166.657 509.296C174.71 511.005 180.248 520.369 179.027 530.21C177.805 540.051 170.287 546.643 162.233 544.933C154.18 543.223 152.561 536.119 153.782 526.278Z" fill="#B6C1FF"/>
<path d="M162.189 483.005C154.722 473.541 151.511 465.575 160.376 458.997C169.24 452.419 182.479 454.759 189.945 464.224C197.412 473.689 196.279 486.694 187.414 493.272C178.55 499.85 169.655 492.47 162.189 483.005Z" fill="#98A8FF"/>
<path d="M161.528 476.978C156.991 471.228 155.054 466.378 160.502 462.335C165.95 458.293 174.043 459.677 178.58 465.428C183.116 471.178 182.377 479.117 176.93 483.159C171.482 487.202 166.064 482.728 161.528 476.978Z" fill="#B6C1FF"/>
</g>
<defs>
<clipPath id="clip0">
<rect width="1000" height="1000" fill="white"/>
</clipPath>
</defs>
</svg>
