<svg xmlns="http://www.w3.org/2000/svg" xmlns:xlink="http://www.w3.org/1999/xlink" viewBox="0 0 875 535"><defs><clipPath id="clip-path" transform="translate(35.1 55.94)"><rect x="14.93" y="164.04" width="676.67" height="123.24" transform="translate(-63.92 184.68) rotate(-26.96)" style="fill:#68afea"/></clipPath><clipPath id="clip-path-2" transform="translate(35.1 55.94)"><rect x="22.01" y="333.84" width="31.39" height="104.64" transform="translate(-170.97 59.06) rotate(-26.96)" style="fill:#0d6099;opacity:0.5"/></clipPath><clipPath id="clip-path-3" transform="translate(35.1 55.94)"><path d="M759.64.21,663.71,20.48l-4.61-9.07-28,14.23,47.44,93.27,28-14.23-4.61-9.06L774.8,30C784.5,21.29,772.4-2.48,759.64.21Z" style="fill:#0d6099;opacity:0.5"/></clipPath><clipPath id="clip-path-4" transform="translate(35.1 55.94)"><rect x="121.1" y="277.1" width="19.77" height="123.24" transform="translate(-139.33 96.19) rotate(-26.96)" style="fill:#232533"/></clipPath><clipPath id="clip-path-5" transform="translate(35.1 55.94)"><rect x="152.19" y="261.29" width="19.77" height="123.24" transform="translate(-128.78 108.56) rotate(-26.96)" style="fill:#232533"/></clipPath><clipPath id="clip-path-6" transform="translate(35.1 55.94)"><rect x="500.39" y="84.19" width="19.77" height="123.24" transform="translate(-10.65 247.18) rotate(-26.96)" style="fill:#232533"/></clipPath><clipPath id="clip-path-7" transform="translate(35.1 55.94)"><rect x="531.48" y="68.37" width="19.77" height="123.24" transform="translate(-0.1 259.55) rotate(-26.96)" style="fill:#232533"/></clipPath></defs><g id="Layer_2" data-name="Layer 2"><g id="crayon"><g id="Layer_4" data-name="Layer 4"><rect x="14.93" y="164.04" width="676.67" height="123.24" transform="translate(-28.81 240.62) rotate(-26.96)" style="fill:#68afea"/><g style="clip-path:url(#clip-path)"><path d="M654.16-14S382.68,288.21,32.83,420.84c-.67.12-.67,13.12-.67,13.12l30,18L761.9,111.06S788.16,33,788.16,27s-32-48-32-48Z" transform="translate(35.1 55.94)" style="fill:#0d6099;opacity:0.5"/></g><rect x="22.01" y="333.84" width="31.39" height="104.64" transform="translate(-135.87 115) rotate(-26.96)" style="fill:#0d6099;opacity:0.5"/><g style="clip-path:url(#clip-path-2)"><path d="M715.9-55.94s-369,384-751,500l73,35,724-368s78-96,78-102-62-65-62-65Z" transform="translate(35.1 55.94)" style="fill:#1a6bad"/></g><path d="M759.64.21,663.71,20.48l-4.61-9.07-28,14.23,47.44,93.27,28-14.23-4.61-9.06L774.8,30C784.5,21.29,772.4-2.48,759.64.21Z" transform="translate(35.1 55.94)" style="fill:#0d6099;opacity:0.5"/><g style="clip-path:url(#clip-path-3)"><path d="M715.9-55.94s-369,384-751,500l73,35,724-368s78-96,78-102-62-65-62-65Z" transform="translate(35.1 55.94)" style="fill:#0d6099"/></g><rect x="121.1" y="277.1" width="19.77" height="123.24" transform="translate(-104.22 152.13) rotate(-26.96)" style="fill:#232533"/><g style="clip-path:url(#clip-path-4)"><path d="M715.9-55.94s-369,384-751,500l73,35,724-368s78-96,78-102-62-65-62-65Z" transform="translate(35.1 55.94)" style="fill:#0e0f16"/></g><rect x="152.19" y="261.29" width="19.77" height="123.24" transform="translate(-93.68 164.51) rotate(-26.96)" style="fill:#232533"/><g style="clip-path:url(#clip-path-5)"><path d="M715.9-55.94s-369,384-751,500l73,35,724-368s78-96,78-102-62-65-62-65Z" transform="translate(35.1 55.94)" style="fill:#0e0f16"/></g><rect x="500.39" y="84.19" width="19.77" height="123.24" transform="translate(24.45 303.12) rotate(-26.96)" style="fill:#232533"/><g style="clip-path:url(#clip-path-6)"><path d="M715.9-55.94s-369,384-751,500l73,35,724-368s78-96,78-102-62-65-62-65Z" transform="translate(35.1 55.94)" style="fill:#0e0f16"/></g><rect x="531.48" y="68.37" width="19.77" height="123.24" transform="translate(35 315.5) rotate(-26.96)" style="fill:#232533"/><g style="clip-path:url(#clip-path-7)"><path d="M715.9-55.94s-369,384-751,500l73,35,724-368s78-96,78-102-62-65-62-65Z" transform="translate(35.1 55.94)" style="fill:#0e0f16"/></g></g></g></g></svg>