<svg xmlns="http://www.w3.org/2000/svg" xmlns:xlink="http://www.w3.org/1999/xlink" viewBox="0 0 740.83 696.38"><defs><clipPath id="clip-path" transform="translate(23.92)"><path d="M179.21,253.08S45,306.6,11.62,264.37c-44.21-56,43.9-178.7,160-207.8C171.61,56.57,236.77,212.54,179.21,253.08Z" style="fill:#ff8b00"/></clipPath><clipPath id="clip-path-2" transform="translate(23.92)"><path d="M480.07,476.14S465.22,619.88,515,640.45c65.89,27.25,159.92-91,156.23-210.64C671.19,429.81,503.36,409.7,480.07,476.14Z" style="fill:#ff8b00"/></clipPath><clipPath id="clip-path-3" transform="translate(23.92)"><path d="M403.08,340.38c-4.5,32.69-6.87,136.32,35.08,154.21s239.18,7.74,272.75-67.38-84.83-204.83-84.83-204.83Z" style="fill:#ff8b00"/></clipPath><clipPath id="clip-path-4" transform="translate(23.92)"><path d="M320.08,306.38c-30.22,13.26-118.51,27.53-147.18-7.94s-72.74-228-9.63-280.79S401.08,47.38,401.08,47.38Z" style="fill:#ff8b00"/></clipPath><clipPath id="clip-path-5" transform="translate(23.92)"><path d="M646.21,246.54a49.78,49.78,0,0,0,.87-12.16c-5.42-100.86-68-74-112-114-40.69-37-57.52-120.7-155.34-89.49-3.21,1-6.33,2.18-9.38,3.45-53-20.87-160.49-55.69-207.09-16.69-13.68,11.44-22.32,29.46-27.18,51-97.61,42.06-164,145.63-124.47,195.71,24.5,31,103.34,10.4,143.54-2.74,5.89,16.82,12.11,29.84,17.74,36.81,21.45,26.53,76.26,25.23,115.17,17.34a56.52,56.52,0,0,0,10.52,15.77c23.69,23.69,60.93,34.08,102.42,34.78-1.68,43.78,3.35,113.84,37.15,128.26,8.23,3.52,22.46,6,40.25,7-1.67,42.26,0,123.74,36.55,138.84,59,24.39,140.47-67.78,154.29-173.17,19.41-10.55,34.39-23.78,41.66-40.07C735.54,372.12,678.41,287.66,646.21,246.54Z" style="fill:#d85107;opacity:0.35000000000000003"/></clipPath></defs><g style="isolation:isolate"><g id="Layer_2" data-name="Layer 2"><g id="Layer_3" data-name="Layer 3"><g id="Layer_4" data-name="Layer 4"><path d="M179.21,253.08S45,306.6,11.62,264.37c-44.21-56,43.9-178.7,160-207.8C171.61,56.57,236.77,212.54,179.21,253.08Z" transform="translate(23.92)" style="fill:#ff8b00"/><g style="clip-path:url(#clip-path)"><path d="M123.08,50.38s-44,137,20,230l67-24-17-216Z" transform="translate(23.92)" style="fill:#d85107;opacity:0.35000000000000003"/></g><path d="M480.07,476.14S465.22,619.88,515,640.45c65.89,27.25,159.92-91,156.23-210.64C671.19,429.81,503.36,409.7,480.07,476.14Z" transform="translate(23.92)" style="fill:#ff8b00"/><g style="clip-path:url(#clip-path-2)"><path d="M689.08,469.38s-61,109-266,29l36-81,154-36,73,9Z" transform="translate(23.92)" style="fill:#d85107;opacity:0.35000000000000003"/></g><path d="M403.08,340.38c-4.5,32.69-6.87,136.32,35.08,154.21s239.18,7.74,272.75-67.38-84.83-204.83-84.83-204.83Z" transform="translate(23.92)" style="fill:#ff8b00"/><g style="clip-path:url(#clip-path-3)"><path d="M386.08,386.38s234,55,285-143l-28-64-193,53-92,96Z" transform="translate(23.92)" style="fill:#d85107;opacity:0.35000000000000003"/></g><path d="M320.08,306.38c-30.22,13.26-118.51,27.53-147.18-7.94s-72.74-228-9.63-280.79S401.08,47.38,401.08,47.38Z" transform="translate(23.92)" style="fill:#ff8b00"/><g style="clip-path:url(#clip-path-4)"><path d="M375.08,11.38s-123,32-142,149,65,194,65,194l112-186Z" transform="translate(23.92)" style="fill:#d85107;opacity:0.35000000000000003"/></g><path d="M298.59,331.55c-43.25-43.24-39.51-262.17,81.15-300.66C477.56-.32,494.39,83.38,535.08,120.38c44,40,106.58,13.14,112,114C652.08,327.38,385.06,418,298.59,331.55Z" transform="translate(23.92)" style="fill:#ff8b00"/><g style="mix-blend-mode:soft-light"><path d="M646.21,246.54a49.78,49.78,0,0,0,.87-12.16c-5.42-100.86-68-74-112-114-40.69-37-57.52-120.7-155.34-89.49-3.21,1-6.33,2.18-9.38,3.45-53-20.87-160.49-55.69-207.09-16.69-13.68,11.44-22.32,29.46-27.18,51-97.61,42.06-164,145.63-124.47,195.71,24.5,31,103.34,10.4,143.54-2.74,5.89,16.82,12.11,29.84,17.74,36.81,21.45,26.53,76.26,25.23,115.17,17.34a56.52,56.52,0,0,0,10.52,15.77c23.69,23.69,60.93,34.08,102.42,34.78-1.68,43.78,3.35,113.84,37.15,128.26,8.23,3.52,22.46,6,40.25,7-1.67,42.26,0,123.74,36.55,138.84,59,24.39,140.47-67.78,154.29-173.17,19.41-10.55,34.39-23.78,41.66-40.07C735.54,372.12,678.41,287.66,646.21,246.54Z" transform="translate(23.92)" style="fill:#d85107;opacity:0.35000000000000003"/><g style="clip-path:url(#clip-path-5)"><path d="M-23.92,265.38s133-127,257-105,222.15,54.19,279,130c57,76,79.88,119.87,63,192s-57,214-57,214l-211-269-192-107S-18.92,378.38-23.92,265.38Z" transform="translate(23.92)" style="fill:#ff8b00"/></g></g></g></g></g></g></svg>