<svg xmlns="http://www.w3.org/2000/svg" xmlns:xlink="http://www.w3.org/1999/xlink" viewBox="0 0 686.45 701.57"><defs><clipPath id="clip-path"><path d="M241.51,148.4C120.39,27.28,0,118.76,0,118.76L135.58,254.33,271.16,389.91S362.63,269.52,241.51,148.4Z" style="fill:#2abf12"/></clipPath><clipPath id="clip-path-2"><path d="M275.3,196.37s-30.71-10.61-50.93-30.83-30.83-50.93-30.83-50.93l58-58s31.73,20.13,46.67,35.08,35.08,46.68,35.08,46.68Z" style="fill:#45cc29"/></clipPath><clipPath id="clip-path-3"><path d="M527.22,408.52h32.36a9.82,9.82,0,0,1,9.82,9.82V636.52a0,0,0,0,1,0,0h-52a0,0,0,0,1,0,0V418.34A9.82,9.82,0,0,1,527.22,408.52Z" style="fill:#2abf12"/></clipPath><clipPath id="clip-path-4"><rect x="274.9" y="626.02" width="392" height="69" rx="12.43" style="fill:#2abf12"/></clipPath></defs><g id="Layer_2" data-name="Layer 2"><g id="desk-lamp"><g id="Layer_4" data-name="Layer 4"><path d="M274.9,111s145.73-166,234-67c65.5,73.5,20.5,637.5,20.5,637.5" style="fill:none;stroke:#4a4c54;stroke-miterlimit:10;stroke-width:25px"/><path d="M241.51,148.4C120.39,27.28,0,118.76,0,118.76L135.58,254.33,271.16,389.91S362.63,269.52,241.51,148.4Z" style="fill:#2abf12"/><g style="clip-path:url(#clip-path)"><path d="M198.45,100.76s50,69,60,142-106,56-106,56l131,110,41-88-16-124Z" style="fill:#176800;opacity:0.5"/><path d="M146.45,100.76c18.08-2.46-61.24-23-121,15-11,7,30,38,42,51S43.45,114.76,146.45,100.76Z" style="fill:#60db42"/></g><path d="M275.3,196.37s-30.71-10.61-50.93-30.83-30.83-50.93-30.83-50.93l58-58s31.73,20.13,46.67,35.08,35.08,46.68,35.08,46.68Z" style="fill:#45cc29"/><g style="clip-path:url(#clip-path-2)"><path d="M274.45,56.76s22,128-50,109h0l1,16,60,25.91,31-21.91,28-50-28-50Z" style="fill:#176800;opacity:0.5"/><path d="M251.45,66.76s-47,47-48,50,13,31,16,32-7-24,3-38S261.45,66.76,251.45,66.76Z" style="fill:#60db42"/></g><rect x="324.9" y="612.02" width="40" height="24" style="fill:#232533"/><path d="M527.22,408.52h32.36a9.82,9.82,0,0,1,9.82,9.82V636.52a0,0,0,0,1,0,0h-52a0,0,0,0,1,0,0V418.34A9.82,9.82,0,0,1,527.22,408.52Z" style="fill:#2abf12"/><g style="clip-path:url(#clip-path-3)"><path d="M534.45,401.76s15,7,22,48,4,156-1,166-47,5-47,5l9,16L583.84,626l3.61-53.26-11-173Z" style="fill:#176800;opacity:0.5"/></g><rect x="274.9" y="626.02" width="392" height="69" rx="12.43" style="fill:#2abf12"/><g style="clip-path:url(#clip-path-4)"><path d="M583.45,625.76s48-4,50,35c.88,17.24-124,46-224,40l277-3-20-83Z" style="fill:#176800;opacity:0.5"/></g></g></g></g></svg>