<svg width="140" height="140" viewBox="0 0 140 140" fill="none" xmlns="http://www.w3.org/2000/svg">
<ellipse cx="71.5296" cy="115.188" rx="34.5893" ry="6.27312" fill="#DBDBEE"/>
<path d="M65.4396 114.062C61.835 111.544 54.7676 107.671 55.3341 112.312C55.9007 116.953 62.3072 115.412 65.4396 114.062Z" fill="#161E33"/>
<path d="M65.4403 102.396L65.4396 114.062M65.4396 114.062C61.835 111.544 54.7676 107.671 55.3341 112.312C55.9007 116.953 62.3072 115.412 65.4396 114.062Z" stroke="#161E33" stroke-width="0.697013"/>
<path d="M75.2831 114.06C78.8876 111.543 85.9551 107.669 85.3885 112.311C84.822 116.952 78.4155 115.411 75.2831 114.06Z" fill="#161E33"/>
<path d="M75.2825 102.483L75.2831 114.06M75.2831 114.06C78.8876 111.543 85.9551 107.669 85.3885 112.311C84.822 116.952 78.4155 115.411 75.2831 114.06Z" stroke="#161E33" stroke-width="0.697013"/>
<path d="M82.9431 35.0312C82.9431 41.9603 77.326 47.5774 70.3969 47.5774C63.4678 47.5774 57.8507 41.9603 57.8507 35.0312C57.8507 28.1021 63.4678 22.4849 70.3969 22.4849C77.326 22.4849 82.9431 28.1021 82.9431 35.0312Z" fill="#37C6A3"/>
<path d="M115.877 57.5099C116.839 57.5099 117.62 58.2901 117.62 59.2524V73.5412C117.62 74.5035 116.839 75.2837 115.877 75.2837H24.7425C23.7802 75.2837 23 74.5035 23 73.5412V59.2524C23 58.2901 23.7802 57.5099 24.7425 57.5099H115.877Z" fill="#37C6A3"/>
<path d="M70.3969 106.998C77.326 106.998 82.9431 101.381 82.9431 94.4516C82.9431 87.5224 77.326 81.9053 70.3969 81.9053C63.4678 81.9053 57.8507 87.5224 57.8507 94.4516C57.8507 101.381 63.4678 106.998 70.3969 106.998Z" fill="#37C6A3"/>
<ellipse cx="79.2836" cy="62.7378" rx="6.62163" ry="6.97013" fill="#17B68F"/>
<ellipse cx="63.7492" cy="60.7832" rx="9.20896" ry="9.72057" fill="#17B68F"/>
<ellipse cx="78.0339" cy="63.1261" rx="4.90957" ry="5.18232" fill="white"/>
<circle cx="76.67" cy="61.4895" r="1.36377" fill="#161E33"/>
<ellipse cx="65.0786" cy="61.4802" rx="7.22797" ry="7.62953" fill="white"/>
<circle cx="67.2219" cy="61.0405" r="2.00777" fill="#161E33"/>
<mask id="mask0" mask-type="alpha" maskUnits="userSpaceOnUse" x="23" y="22" width="95" height="85">
<path d="M82.9431 35.0318C82.9431 41.9609 77.326 47.578 70.3969 47.578C63.4678 47.578 57.8507 41.9609 57.8507 35.0318C57.8507 28.1027 63.4678 22.4856 70.3969 22.4856C77.326 22.4856 82.9431 28.1027 82.9431 35.0318Z" fill="#37C6A3"/>
<path d="M115.877 57.5105C116.839 57.5105 117.62 58.2907 117.62 59.253V73.4546C117.62 74.417 116.839 75.1972 115.877 75.1972H24.7425C23.7802 75.1972 23 74.417 23 73.4546V59.253C23 58.2907 23.7802 57.5105 24.7425 57.5105H115.877Z" fill="#37C6A3"/>
<path d="M70.3969 106.998C77.326 106.998 82.9431 101.381 82.9431 94.4522C82.9431 87.523 77.326 81.9059 70.3969 81.9059C63.4678 81.9059 57.8507 87.523 57.8507 94.4522C57.8507 101.381 63.4678 106.998 70.3969 106.998Z" fill="#37C6A3"/>
</mask>
<g mask="url(#mask0)">
<path d="M48.2677 94.7954C99.8021 83.0824 108.999 42.1732 107.156 23.1827L119.537 51.7603V74.239L94.4448 101.422L66.2158 111.878L48.2677 94.7954Z" fill="#17B68F"/>
</g>
<path d="M62.735 26.1864C62.8947 26.2644 62.7809 26.2864 62.2891 26.2315C62.4378 26.214 62.5863 26.1991 62.735 26.1864C61.8526 25.756 52.6232 23.6202 52.6232 23.3171C52.6232 22.9591 62.2891 23.3171 62.2891 23.3171C61.3344 22.3625 59.4251 20.4532 59.7831 20.4532C60.1411 20.4532 63.4824 21.8851 65.153 22.6011C65.153 22.6011 64.437 21.5272 64.795 21.5272C65.153 21.5272 67.301 22.9591 67.301 22.9591C67.301 22.9591 79.4728 18.6632 79.4728 19.0212C79.4728 19.3792 74.1029 22.6011 74.1029 22.6011C74.1029 22.6011 80.5468 21.8854 80.5468 22.2431C80.5468 22.6009 77.6828 24.0331 77.6828 24.0331C77.6828 24.0331 85.9167 25.1069 85.9167 25.4651C85.9167 25.8233 80.1888 26.8971 80.1888 26.8971C77.8021 26.0617 72.0412 26.2315 69.1773 26.2315C66.5233 26.2315 64.6149 26.0266 62.735 26.1864Z" fill="#37C6A3"/>
</svg>
