<svg xmlns="http://www.w3.org/2000/svg" xmlns:xlink="http://www.w3.org/1999/xlink" viewBox="0 0 772.07 553.32"><defs><clipPath id="clip-path" transform="translate(8.84 14.8)"><path d="M693.53,80.64H21.18V434.5h0a4.89,4.89,0,0,0,0,.54c0,25.17,150.51,59.51,336.18,59.51S693.53,460.21,693.53,435a4.89,4.89,0,0,0,0-.54h0Z" style="fill:#7f1dff"/></clipPath><clipPath id="clip-path-2" transform="translate(8.84 14.8)"><polygon points="7.24 330.49 79.09 190.01 171.31 377.67 283.9 196.45 387.92 386.25 500.51 190.01 588.44 379.81 673.15 172.86 706.39 260.79 706.39 324.06 674.23 243.63 588.44 435.58 499.44 250.06 381.48 437.72 280.68 258.64 163.8 437.72 78.02 261.86 9.39 379.81 7.24 330.49" style="fill:#b180ff"/></clipPath><clipPath id="clip-path-3" transform="translate(8.84 14.8)"><path d="M5.1,105.3s104,67.56,363.51,62.2c231.58-4.79,344.22-62.2,344.22-62.2l-5.36-32.17H1.88Z" style="fill:#a360ff"/></clipPath><clipPath id="clip-path-4" transform="translate(8.84 14.8)"><path d="M5.1,410.91s82.31,56.84,351.72,56.84c272.37,0,378.53-77.21,378.53-77.21l-26.81,98.65L357,494.28l-351-10Z" style="fill:#a360ff"/></clipPath><clipPath id="clip-path-5" transform="translate(8.84 14.8)"><path d="M693.53,81.17c0,25.17-150.51,59.52-336.17,59.52S21.18,106.34,21.18,81.17s151-63.8,336.65-63.8S693.53,56,693.53,81.17Z" style="fill:#ffba1f"/></clipPath><clipPath id="clip-path-6" transform="translate(8.84 14.8)"><path d="M654.92,79.1c0,19.7-133.22,46.58-297.56,46.58S59.79,98.8,59.79,79.1s133.64-49.93,298-49.93S654.92,59.4,654.92,79.1Z" style="fill:#ffd522"/></clipPath><clipPath id="clip-path-7" transform="translate(8.84 14.8)"><path d="M718.43,22.29,440.2,63.21l-1.59-9.52L714.66.21a11.2,11.2,0,0,1,13.14,8.9h0A11.21,11.21,0,0,1,718.43,22.29Z" style="fill:#7f1dff"/></clipPath><clipPath id="clip-path-8" transform="translate(8.84 14.8)"><circle cx="424.51" cy="60.4" r="28.82" style="fill:#7f1dff"/></clipPath><clipPath id="clip-path-9" transform="translate(8.84 14.8)"><path d="M9.57,39.45,287.8,80.36l1.59-9.51-276-53.49A11.2,11.2,0,0,0,.2,26.27h0A11.21,11.21,0,0,0,9.57,39.45Z" style="fill:#7f1dff"/></clipPath><clipPath id="clip-path-10" transform="translate(8.84 14.8)"><circle cx="303.49" cy="77.56" r="28.82" style="fill:#7f1dff"/></clipPath></defs><g id="Layer_2" data-name="Layer 2"><g id="drums"><g id="Layer_4" data-name="Layer 4"><path d="M693.53,80.64H21.18V434.5h0a4.89,4.89,0,0,0,0,.54c0,25.17,150.51,59.51,336.18,59.51S693.53,460.21,693.53,435a4.89,4.89,0,0,0,0-.54h0Z" transform="translate(8.84 14.8)" style="fill:#7f1dff"/><g style="clip-path:url(#clip-path)"><path d="M453.33,132.11s100.8,356-308.83,356L390,503.28l260-28,50-28,7-384Z" transform="translate(8.84 14.8)" style="fill:#4a00bf;opacity:0.7000000000000001"/><polygon points="16.09 345.29 87.93 204.81 180.15 392.47 292.74 211.25 396.76 401.05 509.35 204.81 597.28 394.61 682 187.66 715.24 275.59 715.24 338.85 683.07 258.43 597.28 450.38 508.28 264.86 390.32 452.52 289.53 273.44 172.64 452.52 86.86 276.66 18.23 394.61 16.09 345.29" style="fill:#b180ff"/><g style="clip-path:url(#clip-path-2)"><path d="M453.33,132.11s100.8,356-308.83,356L404,538.52l289.53-44,69.7-83.64L727.84,48.47Z" transform="translate(8.84 14.8)" style="fill:#4a00bf;opacity:0.44"/></g><path d="M5.1,105.3s104,67.56,363.51,62.2c231.58-4.79,344.22-62.2,344.22-62.2l-5.36-32.17H1.88Z" transform="translate(8.84 14.8)" style="fill:#a360ff"/><g style="clip-path:url(#clip-path-3)"><path d="M453.33,132.11s100.8,356-308.83,356L404,538.52l289.53-44,69.7-83.64L727.84,48.47Z" transform="translate(8.84 14.8)" style="fill:#4a00bf;opacity:0.5"/></g><path d="M5.1,410.91s82.31,56.84,351.72,56.84c272.37,0,378.53-77.21,378.53-77.21l-26.81,98.65L357,494.28l-351-10Z" transform="translate(8.84 14.8)" style="fill:#a360ff"/><g style="clip-path:url(#clip-path-4)"><path d="M453.33,132.11s100.8,356-308.83,356L404,538.52l289.53-44,69.7-83.64L727.84,48.47Z" transform="translate(8.84 14.8)" style="fill:#4a00bf;opacity:0.5"/></g></g><path d="M693.53,81.17c0,25.17-150.51,59.52-336.17,59.52S21.18,106.34,21.18,81.17s151-63.8,336.65-63.8S693.53,56,693.53,81.17Z" transform="translate(8.84 14.8)" style="fill:#ffba1f"/><g style="clip-path:url(#clip-path-5)"><polygon points="462.17 0 283.09 168.35 637.91 155.49 744.19 104.02 591.92 15.01 462.17 0" style="fill:#d87100;opacity:0.38"/></g><path d="M654.92,79.1c0,19.7-133.22,46.58-297.56,46.58S59.79,98.8,59.79,79.1s133.64-49.93,298-49.93S654.92,59.4,654.92,79.1Z" transform="translate(8.84 14.8)" style="fill:#ffd522"/><g style="clip-path:url(#clip-path-6)"><polygon points="462.17 0 283.09 168.35 637.91 155.49 689.86 96.83 591.92 15.01 462.17 0" style="fill:#f78f1e;opacity:0.38"/></g><path d="M718.43,22.29,440.2,63.21l-1.59-9.52L714.66.21a11.2,11.2,0,0,1,13.14,8.9h0A11.21,11.21,0,0,1,718.43,22.29Z" transform="translate(8.84 14.8)" style="fill:#7f1dff"/><g style="clip-path:url(#clip-path-7)"><path d="M737.49,4.5c-2.14,0-292.74,55.76-292.74,55.76l8.58,12.87L745,29.17Z" transform="translate(8.84 14.8)" style="fill:#4a00bf;opacity:0.7000000000000001"/></g><circle cx="433.35" cy="75.2" r="28.82" style="fill:#7f1dff"/><g style="clip-path:url(#clip-path-8)"><path d="M402.42,31.6s27.32,5.07,35.9,22.23-18.23,38.6-18.23,38.6l18.23,9.65,22.51-34.31-7.5-31.1L428.09,19.21Z" transform="translate(8.84 14.8)" style="fill:#4a00bf;opacity:0.7000000000000001"/></g><path d="M9.57,39.45,287.8,80.36l1.59-9.51-276-53.49A11.2,11.2,0,0,0,.2,26.27h0A11.21,11.21,0,0,0,9.57,39.45Z" transform="translate(8.84 14.8)" style="fill:#7f1dff"/><g style="clip-path:url(#clip-path-9)"><polygon points="4.29 39.68 298.11 95.44 279.88 109.38 0 63.27 4.29 39.68" style="fill:#4a00bf;opacity:0.7000000000000001"/></g><circle cx="312.33" cy="92.35" r="28.82" style="fill:#7f1dff"/><g style="clip-path:url(#clip-path-10)"><path d="M295.7,48.47S322,60.33,319.29,80.64c-4.29,32.17-45,15-45,15L296.77,116l29-4.28,21.45-22.52-4.29-29-19.3-20.37L295.7,37.75Z" transform="translate(8.84 14.8)" style="fill:#4a00bf;opacity:0.7000000000000001"/></g></g></g></g></svg>