<svg xmlns="http://www.w3.org/2000/svg" xmlns:xlink="http://www.w3.org/1999/xlink" viewBox="0 0 755 631"><defs><clipPath id="clip-path" transform="translate(12 8.39)"><path d="M1.23,450c-4.77-32.17,4.32-123.32,28.12-201.21,0,0,88.71,56.25,140.64,45.43S276,251,358.22,270.45,646,251,637.33,450,384.19,610.14,284.66,610.14,27.19,625.29,1.23,450Z" style="fill:#ffd522"/></clipPath><clipPath id="clip-path-2" transform="translate(12 8.39)"><path d="M637.33,183.91c0,88.42-56.54,145-145,145S295.48,289.64,295.48,201.22,388.8,0,477.22,0,637.33,95.48,637.33,183.91Z" style="fill:#ffd522"/></clipPath><clipPath id="clip-path-3" transform="translate(12 8.39)"><path d="M594,195.25c8.43-51.42,29.85-66.25,38.77-66.24s50.48,12.78,65.17,7.54,39.89-7.85,42,1.6-24.16,43-70.87,51.38c0,0,69.64,6.91,63,33.63-1.06,4.19-47.23,1.54-66.65,7.82s-41.94,21.83-41.94,21.83S588.76,227,594,195.25Z" style="fill:#ea2727"/></clipPath></defs><g id="Layer_2" data-name="Layer 2"><g id="Layer_3" data-name="Layer 3"><g id="Layer_4" data-name="Layer 4"><path d="M1.23,450c-4.77-32.17,4.32-123.32,28.12-201.21,0,0,88.71,56.25,140.64,45.43S276,251,358.22,270.45,646,251,637.33,450,384.19,610.14,284.66,610.14,27.19,625.29,1.23,450Z" transform="translate(12 8.39)" style="fill:#ffd522"/><g style="clip-path:url(#clip-path)"><path d="M440.26,275.7c121.83,40.61,88.43,292.35-154,302.75S-12,507.61-12,507.61l122,105,483,10,68-192L582.79,240.33S413,266.61,440.26,275.7Z" transform="translate(12 8.39)" style="fill:#ffba1f;opacity:0.6000000000000001"/></g><path d="M637.33,183.91c0,88.42-56.54,145-145,145S295.48,289.64,295.48,201.22,388.8,0,477.22,0,637.33,95.48,637.33,183.91Z" transform="translate(12 8.39)" style="fill:#ffd522"/><g style="clip-path:url(#clip-path-2)"><path d="M421,6.61,386.92,35.47s42.94-33.39,119.93-1.14,96.75,176.87,27,214.32-176.79,24.27-256.9-61l-4.11,79.46L433,336.61l140-7,76-92-25-172-117-74Z" transform="translate(12 8.39)" style="fill:#ffba1f;opacity:0.6000000000000001"/></g><path d="M594,195.25c8.43-51.42,29.85-66.25,38.77-66.24s50.48,12.78,65.17,7.54,39.89-7.85,42,1.6-24.16,43-70.87,51.38c0,0,69.64,6.91,63,33.63-1.06,4.19-47.23,1.54-66.65,7.82s-41.94,21.83-41.94,21.83S588.76,227,594,195.25Z" transform="translate(12 8.39)" style="fill:#ea2727"/><g style="clip-path:url(#clip-path-3)"><path d="M718,188.61s-128.91-.78-133.9,14.2-2.56,48.7-18.45,47.93L637,259.61l106-31Z" transform="translate(12 8.39)" style="fill:#ce0909"/></g><path d="M128.88,398.11S230.57,402.44,299.81,357s166.6-8.62,166.6,62.74C466.41,521.43,239.22,556.05,128.88,398.11Z" transform="translate(12 8.39)" style="fill:#fff;opacity:0.49"/><ellipse cx="489.26" cy="103.46" rx="31.46" ry="40.03" transform="translate(1.72 88.62) rotate(-9.28)" style="fill:#fff"/><ellipse cx="507.05" cy="104.06" rx="8.68" ry="17.57" transform="translate(1.86 91.49) rotate(-9.28)" style="fill:#232533"/></g></g></g></svg>