<svg xmlns="http://www.w3.org/2000/svg" xmlns:xlink="http://www.w3.org/1999/xlink" viewBox="0 0 1348.45 1894.77"><defs><clipPath id="clip-path"><circle cx="930.14" cy="391.01" r="87.72" style="fill:#ffcd59"/></clipPath><clipPath id="clip-path-2"><path d="M267.39,472.28s128-418.2,312.1-468.14,343.3,368.27,343.3,368.27-28.09,43.7-134.2-18.72c0,0,34.33,84.26,18.73,146.68Z" style="fill:#ff0080"/></clipPath><clipPath id="clip-path-3"><path d="M201.51,591.54S183.13,547.18,127,537.82,83.26,431.71,83.26,431.71s-237.73,316.4,90.23,393.83l56.45-53.65Z" style="fill:#00d3d4"/></clipPath><clipPath id="clip-path-4"><path d="M1241.92,1132.35c-7-36.19-26.64-218-5.83-333.72s-27.37-158.25-54.84-202.39-120.51-201.94-73.36-278.39,172.42,1.36,207.2,92.7S1334,549.29,1291.4,748.1s-13.07,278.47,4.36,317,46.57,89,15.57,109.68S1248.91,1168.69,1241.92,1132.35Z" style="fill:#e68d00"/></clipPath><clipPath id="clip-path-5"><path d="M1111.35,351.82c-6.07,28.61,1.48,117.52,59,192.88s102.55,61.2,118.2,22.22-3.85-164.86-78.23-225.41S1119.17,315,1111.35,351.82Z" style="fill:#ffb94d"/></clipPath><clipPath id="clip-path-6"><path d="M1281.6,855.5c-16.59-15-58.09-41.39-72.22-28.44s-44.71,178.81,61.52,137.32C1286.88,958.14,1308.58,879.84,1281.6,855.5Z" style="fill:#3d3c3f"/></clipPath><clipPath id="clip-path-7"><path d="M362.58,1045s-134.2,415.08-115.47,465,174.77,81.14,346.42,74.9,293.37-71.78,305.85-90.51-31.21-202.86-149.8-480.62Z" style="fill:#00d3d4"/></clipPath><clipPath id="clip-path-8"><path d="M296.1,491.32s-81.76-34.64-125.46-9.67c0,0,30.84-39.37,209.11-28.09,0,0-37.45-59.3-149.81-81.15,0,0,121.72-34.33,246.56,62.42,0,0,65.54-128,231-90.51,0,0-83.78,62.84-68.67,103,0,0,152.93-59.29,221.59-15.6,0,0-57.16,12.65-112.35,40.57,0,0,81.14,6.24,134.2,34.33,0,0-75.19,3.3-84.27,18.73,0,0,203.59,193.68,33.14,429.22S321.57,1132.4,221.14,949,156.28,582.15,296.1,491.32Z" style="fill:#00d3d4"/></clipPath></defs><g id="Layer_2" data-name="Layer 2"><g id="elf"><circle cx="930.14" cy="391.01" r="87.72" style="fill:#ffcd59"/><g style="clip-path:url(#clip-path)"><path d="M922.47,299.21s48.68,33.47,45.64,91.28-88.24,73-133.88,18.25l18.26,57.82,63.9,27.38,97.36-24.34,21.3-100.41-45.64-66.94Z" style="fill:#cc7a00;opacity:0.48"/></g><path d="M267.39,472.28s128-418.2,312.1-468.14,343.3,368.27,343.3,368.27-28.09,43.7-134.2-18.72c0,0,34.33,84.26,18.73,146.68Z" style="fill:#ff0080"/><g style="clip-path:url(#clip-path-2)"><path d="M361.58,242.7s258.48-51.3,427,111l34.33,37.45H810.44S654.39,207,289.24,347.44C289.24,347.44,306,250.31,361.58,242.7Z" style="fill:#ffcd59"/><path d="M411,100.89s290.24,37.45,377.63,252.8c0,0,18.73-212.23-271.52-346.43C517.07,7.26,411,44.71,411,100.89Z" style="fill:#ffcd59"/><path d="M866.61,200.76s-3.12,137.32-78,152.93c0,0,84.27,3.12,121.72-87.39Z" style="fill:#ffcd59"/><path d="M679.06,168.37c-20.66-2.75-52,59.83-81.21,132.32-120.5,30.11-128.74,95.88-128.74,95.88-60.85-54.76-179.52-48.68-179.52-48.68L228.74,524.37l297.51-19.84c-1.53,4.92-2.37,7.67-2.37,7.67L816,579.13l15.21-146h91.28S816,186.63,679.06,168.37Z" style="fill:#a300a6;opacity:0.34"/></g><path d="M843,591.54s18.38-44.36,74.56-53.72,43.69-106.11,43.69-106.11S1199,748.11,871,825.54l-56.44-53.65Z" style="fill:#00a3b8"/><path d="M201.51,591.54S183.13,547.18,127,537.82,83.26,431.71,83.26,431.71s-237.73,316.4,90.23,393.83l56.45-53.65Z" style="fill:#00d3d4"/><g style="clip-path:url(#clip-path-3)"><path d="M88.78,411.79s-45.64,94.32,0,164.3,106.92,254.56-21.3,216c0,0,12.17,27.39,33.47,33.47s143,48.68,167.34-12.17,15.22-255.58-70-279.93S88.78,411.79,88.78,411.79Z" style="fill:#00a3b8"/></g><path d="M353.22,1144.85s-206,112.35-212.23,156,103,143.57,140.45,159.17" style="fill:none;stroke:#3d3c3f;stroke-miterlimit:10;stroke-width:27.3841481208801px"/><path d="M438.22,1840.5c9.37-28.12-129.69-74.11-170.46,0S423.4,1885,438.22,1840.5Z" style="fill:#3d3c3f"/><line x1="425" y1="1843.94" x2="443.73" y2="1556.81" style="fill:none;stroke:#3d3c3f;stroke-miterlimit:10;stroke-width:27.3841481208801px"/><path d="M725.44,1849.63c-9.38-28.13,129.69-74.11,170.45,0S740.26,1894.09,725.44,1849.63Z" style="fill:#3d3c3f"/><line x1="738.66" y1="1843.94" x2="719.93" y2="1556.81" style="fill:none;stroke:#3d3c3f;stroke-miterlimit:10;stroke-width:27.3841481208801px"/><g id="hand"><path d="M795.12,1154.44s236.76,85,466.41-226.51" style="fill:none;stroke:#3d3c3f;stroke-miterlimit:10;stroke-width:27.3841481208801px"/><path d="M1241.92,1132.35c-7-36.19-26.64-218-5.83-333.72s-27.37-158.25-54.84-202.39-120.51-201.94-73.36-278.39,172.42,1.36,207.2,92.7S1334,549.29,1291.4,748.1s-13.07,278.47,4.36,317,46.57,89,15.57,109.68S1248.91,1168.69,1241.92,1132.35Z" style="fill:#e68d00"/><g style="clip-path:url(#clip-path-4)"><path d="M1096.33,328.06s33.48-71.12,127.73,10.09,104.49,194.5,76.77,310.4-91.59,295.58,15.3,538.42l24.75-48.63-55.21-181.63,25.76-199.31,37-169.52-2.18-158.48-50.54-72.61-74.92-62L1149,272.19l-52.29,36.1Z" style="fill:#b86800"/></g><path d="M1111.35,351.82c-6.07,28.61,1.48,117.52,59,192.88s102.55,61.2,118.2,22.22-3.85-164.86-78.23-225.41S1119.17,315,1111.35,351.82Z" style="fill:#ffb94d"/><g style="clip-path:url(#clip-path-5)"><path d="M1252.26,366.17s-69.2-37.52-75.87,70.24,60.22,172.77,91.33,169.74-40.85,36.06-40.85,36.06l-100.22-110-44.88-134.69L1117,270.31l86.88,13.53Z" style="fill:#ffca78"/></g><path d="M1261,854.37s-22.29-57.12-2.29-68.44,29.36,8.13,26.77,32.71,1.34,63.61,1.34,63.61Z" style="fill:#3d3c3f"/><path d="M1281.6,855.5c-16.59-15-58.09-41.39-72.22-28.44s-44.71,178.81,61.52,137.32C1286.88,958.14,1308.58,879.84,1281.6,855.5Z" style="fill:#3d3c3f"/><g style="clip-path:url(#clip-path-6)"><path d="M1274.15,847.09s8,143.46-84.06,80l13.73,41.74,44.65,6.21,44.83-17.25,4.5-99.93-23.65-10.79" style="fill:#252526"/></g></g><path d="M362.58,1045s-134.2,415.08-115.47,465,174.77,81.14,346.42,74.9,293.37-71.78,305.85-90.51-31.21-202.86-149.8-480.62Z" style="fill:#00d3d4"/><g style="clip-path:url(#clip-path-7)"><path d="M310.89,1084.22s112.58,109.54,380.34,60.85c0,0,270.8,623.75-496,322.53l12.17,88.24,158.22,60.85,508.13-30.43L952.9,1467.6,743,953.38,292.64,989.9Z" style="fill:#00a3b8"/><path d="M382.42,1212c-3.73,8.37-8.9,17.82-8.86,27.1,0,4.33,6.42,6.48,8.51,2.3,4-8,4.6-18,6.87-26.65,1-3.76-4.82-6.56-6.52-2.75Z" style="fill:#bd0097"/><path d="M418.64,1305.84c-1.16,3.48-2.26,6.92-3.74,10.28a21.41,21.41,0,0,0-1.73,10.17c.12,4.36,6.29,6.43,8.5,2.3,1.84-3.41,2.94-5.9,3.18-9.77.22-3.69.68-7.28,1.22-10.94.71-4.8-5.83-6.86-7.43-2Z" style="fill:#bd0097"/><path d="M333.14,1399.91c-2,8.38-6,18.07-3.35,26.64,1.1,3.57,5.85,5.17,8.58,2.26,6.19-6.56,6.91-16.56,8.8-25,2-9.1-11.83-13-14-3.86Z" style="fill:#bd0097"/><path d="M371.6,1320.75l-.93,3.37a7.14,7.14,0,0,0-.46,3.65,2,2,0,0,0,3.34.89,7.58,7.58,0,0,0,1.72-3.27l1.28-3.28a2.57,2.57,0,0,0-1.79-3.15,2.6,2.6,0,0,0-3.16,1.79Z" style="fill:#bd0097"/><path d="M387.24,1463.2l-1,3.88a2.43,2.43,0,0,0,4.68,1.29l1-3.88a2.43,2.43,0,0,0-4.68-1.29Z" style="fill:#bd0097"/><path d="M351.15,1497.31c-1,3-2.65,8.44-.21,11a1.28,1.28,0,0,0,2-.26c.77-1.47.43-2.89.43-4.5a20.06,20.06,0,0,1,.8-5.44c.54-2-2.37-2.72-3-.83Z" style="fill:#bd0097"/><path d="M279.66,1475.91c1-1.79,1.92-3.58,2.84-5.38,1.07-2.09,1.73-3.63.46-5.81a2.2,2.2,0,0,0-2.42-1c-2.44.63-3,2.15-3.75,4.38-.64,1.92-1.23,3.87-1.82,5.81-.84,2.76,3.31,4.56,4.69,2Z" style="fill:#bd0097"/><path d="M299,1352c.62-3.15,2.11-7.24,1.06-10.35a4.48,4.48,0,0,0-7.39-1.95c-2.43,2.19-3.12,6.38-4.12,9.42a5.46,5.46,0,0,0,3.78,6.66c2.69.62,6.08-.81,6.67-3.78Z" style="fill:#bd0097"/><path d="M764.74,1143.6l1,1.94a.86.86,0,0,0,1.17.3.87.87,0,0,0,.31-1.17l-1-1.93a.86.86,0,0,0-1.17-.31.88.88,0,0,0-.31,1.17Z" style="fill:#de6400"/><path d="M795.32,1252.21c.12,1.36.17,2.75.36,4.1s.2.39,0,1.65c-.61,3.6-1,6.73-.2,10.37,1.18,5.41,7.77,9.07,13,7.38a10.81,10.81,0,0,0,7.37-13,21.05,21.05,0,0,0-3.64-7.36,20.6,20.6,0,0,1-2.29-5.12c-1.24-3.47-4.33-5.89-8.14-5.31-3.37.5-6.76,3.55-6.43,7.28Z" style="fill:#a6007f"/><path d="M781.71,1352.31a39.86,39.86,0,0,0,3.33,6.38,1.43,1.43,0,0,0,2.6-1.1,39.58,39.58,0,0,0-2.28-6.82,2,2,0,1,0-3.65,1.54Z" style="fill:#a6007f"/><path d="M829.59,1347.72c1.68,6,2.92,12.31,5.84,17.87,1.74,3.32,7.4,1.86,7.17-1.94-.37-6.3-2.53-12.31-4.2-18.36-1.57-5.65-10.38-3.25-8.81,2.43Z" style="fill:#a6007f"/><path d="M801.26,1451.25c-.16,7.3-1.71,15.25,4.27,20.7a5.07,5.07,0,0,0,7.85-1c4.11-7.11.38-14-2-21-1.85-5.39-10-4.61-10.09,1.36Z" style="fill:#a6007f"/><path d="M713.07,1172.45c.21.59.4,1.18.56,1.78.06.25.4,2.53.32,1.41s0,.9,0,1.13a11,11,0,0,0,1.29,4.67c2.53,5.15,10.1,4.49,12.8,0,2.26-3.75,1.38-9.15.15-13.16s-5.54-6.81-9.65-5.48c-3.82,1.24-6.94,5.51-5.48,9.65Z" style="fill:#a6007f"/><path d="M762.59,1178.33c1.6,4.44,1.85,9.5,4.67,13.32,2.16,2.94,7,2.88,8.08-1.06a12.3,12.3,0,0,0-.52-8.45,65.3,65.3,0,0,0-3.37-7.55c-2.51-4.79-10.74-1.49-8.86,3.74Z" style="fill:#a6007f"/><path d="M753.61,1275.57l1.72,7.78a18.91,18.91,0,0,0,3.4,7.31c2.7,3.76,7.66,2.15,8.24-2.23a18.56,18.56,0,0,0-.51-8.15l-2.13-7.67c-1.92-6.92-12.27-4-10.72,3Z" style="fill:#a6007f"/><path d="M860.6,1437.29c2,3.47,2.49,7.56,4.62,10.89a3.32,3.32,0,0,0,6-.79c1.69-4.71-.81-10.35-3-14.56-2.59-5-10.54-.48-7.64,4.46Z" style="fill:#a6007f"/><path d="M737.12,1523.9c1.12,4.33,1.89,9,3.53,13.16.76,1.91,2.36,3.29,4.54,3,1.88-.28,3.76-2,3.58-4.06-.4-4.85-1.84-9.73-2.84-14.49-1.21-5.71-10.28-3.3-8.81,2.43Z" style="fill:#a6007f"/><path d="M746.16,1441.77l2.26,12.32" style="fill:#ac6b00"/><path d="M725.89,1077.8c1.09,3.86,1.75,10.16,5.87,11.93,3,1.27,5.67.71,7.61-2,2.69-3.76,0-9.37-1.1-13.34-.92-3.23-4.59-5.55-7.9-4.48a6.52,6.52,0,0,0-4.48,7.89Z" style="fill:#a6007f"/></g><path d="M296.1,491.32s-81.76-34.64-125.46-9.67c0,0,30.84-39.37,209.11-28.09,0,0-37.45-59.3-149.81-81.15,0,0,121.72-34.33,246.56,62.42,0,0,65.54-128,231-90.51,0,0-83.78,62.84-68.67,103,0,0,152.93-59.29,221.59-15.6,0,0-57.16,12.65-112.35,40.57,0,0,81.14,6.24,134.2,34.33,0,0-75.19,3.3-84.27,18.73,0,0,203.59,193.68,33.14,429.22S321.57,1132.4,221.14,949,156.28,582.15,296.1,491.32Z" style="fill:#00d3d4"/><g style="clip-path:url(#clip-path-8)"><path d="M730.78,341.81l24.34-18.26,106.6,38.89s54.67,174.1,60.75,265.38,9.13,286-79.11,386.42-270.8,118.66-270.8,118.66L387,1102.48c303.52,15.41,492.77-316.91,386.42-523.35C721.65,478.73,639.5,448.3,639.5,448.3s-33.47-42.6-9.13-73S730.78,341.81,730.78,341.81Z" style="fill:#00a3b8"/><path d="M269.89,560.45c-6.83,6.13-13.82,12.69-17.77,21.07-1.89,4,3,8.62,6.5,5,6.12-6.4,10.89-13.9,16.92-20.43,3.5-3.79-1.82-9.08-5.65-5.65Z" style="fill:#bd0097"/><path d="M211.47,701.21c-4,7.57-8.91,17.6-8,26.35.59,5.91,4.08,11,10.35,11.73,5.43.65,12-2.63,13.1-8.55a78.37,78.37,0,0,0,.85-12.41,34.27,34.27,0,0,1,2-9.43c3.39-10.71-13-17.75-18.25-7.69Z" style="fill:#bd0097"/><path d="M265.32,655.43a13.12,13.12,0,0,1-.84,3.3,32.65,32.65,0,0,0-1,3.64c-.53,2.14,1.94,4.45,4,3.06a9.16,9.16,0,0,0,3.61-3.92,19.91,19.91,0,0,0,1.53-5.09c.33-2.2-.67-4.3-3.08-4.63s-4,1.42-4.2,3.64Z" style="fill:#bd0097"/><path d="M254.8,804.51c1.25,3.22,2.2,7.07,4.16,9.93a1.58,1.58,0,0,0,2.87-1.21c-.46-3.29-2.26-6.62-3.45-9.71-.85-2.2-4.44-1.24-3.58,1Z" style="fill:#bd0097"/><path d="M195.92,825.91c1.34,8,1.56,17.88,8.12,23.55,5.58,4.82,13.37,2.79,15.82-4.18,2.89-8.2-1.89-17.08-4.68-24.68-4.48-12.14-21.39-7.35-19.26,5.31Z" style="fill:#bd0097"/><path d="M257.8,900.75l3.18,7.7c1.26,3,2.63,6,5.73,7.56a5.3,5.3,0,0,0,7.66-3.11c1.78-5.63-2.6-12.07-4.84-17.09-2.92-6.56-14.51-1.79-11.73,4.94Z" style="fill:#bd0097"/><path d="M341.05,1043.32a29,29,0,0,1,3.66,2.12c.74.49-1-.88-.36-.27.27.25.56.49.84.73a8.36,8.36,0,0,0,4.08,2.24,6.55,6.55,0,0,0,5.52-1.13,6.15,6.15,0,0,0,2.49-5,8.46,8.46,0,0,0-2.22-5.68,23.7,23.7,0,0,0-1.68-1.79,30.29,30.29,0,0,0-5-3.8,7.34,7.34,0,0,0-9.95,2.61c-1.69,3.21-1.07,8.24,2.61,10Z" style="fill:#bd0097"/><path d="M275.57,989.06a17.5,17.5,0,0,0,3,5.35c2.3,2.85,6.07,4,9.44,2.18a5.84,5.84,0,0,0,2.86-3.4c.06-.2.13-.4.19-.59a7.09,7.09,0,0,0-.07-3.82,9.63,9.63,0,0,0-1.94-3.25l1.07,1.4a9.47,9.47,0,0,1-1.13-2l.7,1.68a11.16,11.16,0,0,1-.41-1.36,7.13,7.13,0,0,0-13-1.71,7,7,0,0,0-.72,5.5Z" style="fill:#bd0097"/><path d="M316.39,980a96.31,96.31,0,0,0,9.38,8.35c1,.74,2.49-.74,1.76-1.76a97.57,97.57,0,0,0-8.31-9.41c-1.77-1.88-4.7,1-2.83,2.82Z" style="fill:#bd0097"/><path d="M313.22,712.46l-1,2.88a1.86,1.86,0,0,0,1.3,2.28,1.9,1.9,0,0,0,2.28-1.3l1-2.87a1.86,1.86,0,0,0-1.29-2.28,1.89,1.89,0,0,0-2.28,1.29Z" style="fill:#bd0097"/><path d="M337.73,513.4c-3.45,5.52-7.1,11-10.13,16.73a3.15,3.15,0,0,0,4.93,3.8c5-4.24,9.51-9,14.16-13.62,5.8-5.73-4.48-14.07-9-6.91Z" style="fill:#bd0097"/><path d="M829.43,871.13c-2,3.55-4.77,6.4-7.39,9.46-2.31,2.69.54,6,3.63,4.7,4.64-2,7.89-6,10.41-10.28s-4.27-8.23-6.65-3.88Z" style="fill:#a6007f"/><path d="M746.63,986c6.45-3.47,14.42-6.76,17.85-13.66,4.06-8.16-2.62-17.72-11.87-15.44-7.63,1.88-12.5,8.68-17.38,14.32-3.1,3.57-3.73,8.48-.74,12.36A9.46,9.46,0,0,0,746.63,986Z" style="fill:#a6007f"/><path d="M829,795.42a14.3,14.3,0,0,1-3.76,7.75" style="fill:#a57100"/><path d="M877.53,719.67a81.81,81.81,0,0,1-.51,12.52,40.25,40.25,0,0,0,.92,13.34c1.33,6.47,9.55,6.08,12.78,1.67,6-8.21,5.64-17.84,4.5-27.53-.56-4.74-3.67-8.84-8.85-8.84a8.94,8.94,0,0,0-8.84,8.84Z" style="fill:#a6007f"/><path d="M823.32,650.66c.81,5.34,1.23,10.66,3.35,15.66,1.13,2.65,4.51.85,4.79-1.3.64-5.1-.49-10.23-1.14-15.31a3.55,3.55,0,1,0-7,.95Z" style="fill:#a6007f"/><path d="M788.77,559.41a52.65,52.65,0,0,0,4.39,6.1,21.86,21.86,0,0,0,5.66,4.69c3.72,2.29,8.94-2.44,6.24-6.25a114.61,114.61,0,0,1-6.93-10c-3.44-6.06-13-.5-9.36,5.48Z" style="fill:#a6007f"/><path d="M709.18,476.23c2.2,3.68,4.09,7.89,7.29,10.78,1.39,1.25,4,.06,3.34-1.94-1.39-4.12-4.42-7.49-6.94-11-1.57-2.19-5.13-.25-3.69,2.16Z" style="fill:#a6007f"/><path d="M830,707.17l-1.41,10.62c-.28,2.16,3.19,2.19,3.42,0l1.13-10.62c.21-2-2.88-2-3.14,0Z" style="fill:#a6007f"/><path d="M667.79,1040.64c8.16-5.81,21.91-10.91,23.34-22,.3-2.38-1.85-4.19-3.77-5-10.36-4.11-22,8.66-28.73,15-6.1,5.77,2,16.94,9.16,11.88Z" style="fill:#a6007f"/><path d="M362.62,965.56c-15.09-6.4-51.35-30.32,15.21-109.54a141.58,141.58,0,0,0,85.2,21.3C468.62,876.93,463,1008.15,362.62,965.56Z" style="fill:#00a3b8"/><path d="M481.28,880.36s-7.43,64.7,42.6,60.85c39.55-3,18.26-63.89,18.26-63.89Z" style="fill:#00a3b8"/><ellipse cx="641.67" cy="648.22" rx="134.74" ry="96.35" transform="translate(-100.05 1179.04) rotate(-80.88)" style="fill:#00a3b8"/><ellipse cx="419.56" cy="648.22" rx="96.35" ry="134.74" transform="translate(-97.44 74.69) rotate(-9.12)" style="fill:#00a3b8"/></g><ellipse cx="630.98" cy="648.62" rx="113.91" ry="70.22" transform="translate(-127.62 1141.93) rotate(-78.83)" style="fill:#fff"/><ellipse cx="610.11" cy="632.92" rx="25.77" ry="15.88" transform="translate(-129.04 1108.8) rotate(-78.83)" style="fill:#3d3c3f"/><ellipse cx="434.36" cy="648.62" rx="70.22" ry="113.91" transform="translate(-117.47 96.48) rotate(-11.17)" style="fill:#fff"/><ellipse cx="461.32" cy="632.92" rx="15.88" ry="25.77" transform="matrix(0.98, -0.19, 0.19, 0.98, -113.91, 101.4)" style="fill:#3d3c3f"/><path d="M369.67,853.89S305.59,937,373.35,961.44s80.77-85.08,80.77-85.08Z" style="fill:#fff"/><path d="M475.34,884s-2,56.14,35.58,54.33,24-61.62,24-61.62Z" style="fill:#fff"/><path d="M323.06,786c0,.54,30.49,186.71,413.46,28.61" style="fill:none;stroke:#3d3c3f;stroke-linecap:round;stroke-miterlimit:10;stroke-width:12.1707324981689px"/></g></g></svg>