<svg width="1000" height="740" viewBox="0 0 1000 740" fill="none" xmlns="http://www.w3.org/2000/svg">
<path d="M200.595 514.619C210.321 517.349 234.376 518.521 245.249 514.774C253.124 512.06 253.956 507.341 253.276 504.731L246.82 470.308L184.493 320.816C177.71 322.703 161.19 326.143 149.377 324.807C137.564 323.472 119.295 327.064 111.637 329.028C113.62 338.706 118.054 360.199 119.918 368.747C122.249 379.432 139.942 430.776 147.268 455.958C153.129 476.104 154.409 502.828 154.316 513.672C166.189 508.905 190.869 511.889 200.595 514.619Z" fill="#419BEF"/>
<mask id="mask0" mask-type="alpha" maskUnits="userSpaceOnUse" x="111" y="320" width="143" height="198">
<path d="M200.604 514.616C210.33 517.346 234.385 518.518 245.258 514.771C253.134 512.057 253.966 507.338 253.285 504.728L246.83 470.304L184.503 320.812C177.719 322.699 161.2 326.139 149.387 324.804C137.573 323.469 119.304 327.061 111.646 329.024C113.63 338.703 118.063 360.196 119.927 368.744C122.258 379.429 139.951 430.773 147.277 455.955C153.138 476.1 154.418 502.825 154.326 513.669C166.198 508.902 190.878 511.885 200.604 514.616Z" fill="#419BEF"/>
</mask>
<g mask="url(#mask0)">
<path d="M231.631 428.534C209.004 432.777 153.67 434.743 128.831 435.196C125.101 449.029 118.159 476.66 120.232 476.526L234.262 469.136C242.813 453.835 254.258 424.292 231.631 428.534Z" fill="#D1E0FF"/>
<g style="mix-blend-mode:multiply">
<path d="M122.818 549.606C114.089 509.698 180.496 375.008 214.79 312.652L222.587 312.652L306.768 519.987C249.088 546.489 131.547 589.514 122.818 549.606Z" fill="#784646" fill-opacity="0.08"/>
</g>
</g>
<path d="M200.598 495.017C195.55 491.351 195.371 484.429 196.018 481.729L203.434 475.794C217.466 471.409 245.617 463.285 245.966 465.868C246.403 469.097 253.019 503.984 253.227 504.588C249.125 498.568 206.908 499.601 200.598 495.017Z" fill="#117ADC"/>
<path d="M290.272 290.447C337.476 290.94 376.382 280.821 389.935 275.701L428.758 478.569C402.429 492.372 268.364 481.806 243.268 477.615C223.191 474.261 203.084 479.974 195.842 483.145C192.292 464.997 188.333 439.781 186.88 415.953C185.426 392.126 182.606 332.955 179.986 313.585C177.889 298.089 178.699 292.854 179.365 292.174C187.781 285.219 231.268 289.831 290.272 290.447Z" fill="#53A5F1"/>
<mask id="mask1" mask-type="alpha" maskUnits="userSpaceOnUse" x="178" y="275" width="251" height="211">
<path d="M290.264 290.451C337.467 290.943 376.374 280.825 389.927 275.704L428.749 478.572C402.421 492.376 268.356 481.81 243.259 477.618C223.182 474.265 203.076 479.977 195.834 483.149C192.283 465 188.324 439.784 186.871 415.957C185.418 392.13 182.598 332.958 179.977 313.588C177.881 298.092 178.69 292.858 179.357 292.177C187.773 285.223 231.26 289.835 290.264 290.451Z" fill="#FFDB5A"/>
</mask>
<g mask="url(#mask1)">
<path d="M290.304 396.979C330.318 398.723 408.447 386.141 434.928 379.798L454.781 418.417C417.107 426.063 324.145 437.293 289.31 435.213C254.475 433.133 199.291 433.818 177.481 436.388C174.338 423.579 169.279 390.075 174.682 393.194C180.085 396.314 250.291 395.235 290.304 396.979Z" fill="#D1E0FF"/>
<g style="mix-blend-mode:soft-light">
<path d="M211.676 501.292C196.71 441.43 317.681 312.145 380.037 254.985L409.656 247.19L130.612 247.19C46.4317 278.369 226.641 561.154 211.676 501.292Z" fill="white" fill-opacity="0.25"/>
</g>
</g>
<path d="M331.851 321.81L340.784 345.042L365.64 343.725L346.305 359.4L355.238 382.632L334.356 369.088L315.021 384.763L321.45 360.717L300.567 347.172L325.423 345.856L331.851 321.81Z" fill="#D1E0FF"/>
<rect width="27.1378" height="370.464" transform="matrix(0.984888 -0.173192 0.20024 0.979747 384.757 261.404)" fill="#ADB9E6"/>
<mask id="mask2" mask-type="alpha" maskUnits="userSpaceOnUse" x="384" y="256" width="103" height="372">
<rect width="27.1378" height="374.007" transform="matrix(0.984888 -0.173192 0.20024 0.979747 384.761 261.409)" fill="#F9C16E"/>
</mask>
<g mask="url(#mask2)">
<path d="M473.691 699.473L421.17 307.726L534.208 557.819L561.623 702.437L473.691 699.473Z" fill="#7684BB"/>
</g>
<path d="M422.622 229.123C426.92 254.735 413.86 258.01 397.532 260.75C381.204 263.49 367.79 264.658 363.493 239.045C359.195 213.432 375.295 180.299 382.391 179.109C389.486 177.918 418.324 203.51 422.622 229.123Z" fill="#7684BB"/>
<mask id="mask3" mask-type="alpha" maskUnits="userSpaceOnUse" x="362" y="179" width="62" height="84">
<path d="M422.609 229.124C426.907 254.737 413.847 258.012 397.519 260.752C381.191 263.491 367.777 264.659 363.48 239.047C359.182 213.434 375.283 180.301 382.378 179.11C389.473 177.92 418.311 203.512 422.609 229.124Z" fill="#F4B14C"/>
</mask>
<g mask="url(#mask3)">
<path d="M407.143 218.489C411.441 244.102 398.382 247.377 382.054 250.117C365.725 252.856 352.312 254.024 348.014 228.412C343.716 202.799 359.817 169.666 366.913 168.475C374.008 167.285 402.845 192.877 407.143 218.489Z" fill="#ADB9E6"/>
</g>
<path d="M928.181 256.265C883.061 215.091 810.572 208.926 772.002 204.287L696.069 416.452C692.329 424.223 744.381 418.602 770.783 423.977C825.247 435.063 881.423 452.503 893.434 474.099C919.862 405.551 949.469 275.691 928.181 256.265Z" fill="#ED7A74"/>
<mask id="mask4" mask-type="alpha" maskUnits="userSpaceOnUse" x="697" y="203" width="241" height="270">
<path d="M930.004 255.008C884.883 213.834 812.395 207.669 773.825 203.03L697.891 415.195C694.152 422.966 746.204 417.345 772.606 422.72C827.07 433.806 883.246 451.246 895.257 472.842C921.685 404.294 951.292 274.433 930.004 255.008Z" fill="#FF908A"/>
</mask>
<g mask="url(#mask4)">
<path d="M930.802 344.133C851.915 278.577 756.521 289.804 710.059 302.939L696.643 371.731C833.684 333.991 908.598 383.3 928.925 412.672L930.802 344.133Z" fill="#F9D24A"/>
<g style="mix-blend-mode:multiply">
<path d="M627.172 551.936C696.084 392.458 878.686 276.435 961.373 238.358L721.326 165.509C661.228 360.767 558.26 711.414 627.172 551.936Z" fill="#784646" fill-opacity="0.08"/>
</g>
</g>
<path d="M786.914 404.621C787.138 380.231 732.947 367.854 705.5 363.911C705.5 363.911 689.212 432.619 697.941 412.565C706.67 392.511 786.699 427.959 786.914 404.621Z" fill="#DA514A"/>
<path d="M817.968 170.786C769.002 134.268 679.614 149.093 640.774 148.284L588.086 368.376C654.816 353.759 767.341 374.642 788.253 404.789C807.784 333.966 841.069 188.014 817.968 170.786Z" fill="#FF908A"/>
<mask id="mask5" mask-type="alpha" maskUnits="userSpaceOnUse" x="588" y="145" width="239" height="260">
<path d="M818.179 170.797C769.213 134.279 679.825 149.104 640.986 148.295L588.297 368.386C655.027 353.77 767.553 374.653 788.464 404.8C807.995 333.977 841.28 188.025 818.179 170.797Z" fill="#FF908A"/>
</mask>
<g mask="url(#mask5)">
<path d="M835.195 257.963C758.328 202.837 646.186 215.326 599.723 228.461L586.308 297.253C723.349 259.513 798.263 308.821 818.59 338.193L835.195 257.963Z" fill="#FFDD65"/>
<g style="mix-blend-mode:soft-light">
<path d="M547.496 451.792C616.408 292.314 799.01 176.291 881.697 138.214L641.649 65.3645C581.551 260.623 478.583 611.269 547.496 451.792Z" fill="white" fill-opacity="0.25"/>
</g>
</g>
<rect width="30.2846" height="493.264" transform="matrix(0.980405 0.196993 -0.225229 0.974306 621.508 137.971)" fill="#ADB9E7"/>
<mask id="mask6" mask-type="alpha" maskUnits="userSpaceOnUse" x="510" y="137" width="142" height="489">
<rect width="30.2846" height="494.69" transform="matrix(0.980405 0.196993 -0.225229 0.974306 621.493 137.963)" fill="#F4B14C"/>
</mask>
<g mask="url(#mask6)">
<path d="M429.647 814.736L684.885 213.861L634.369 692.434L549.29 873.228L429.647 814.736Z" fill="#7684BB"/>
</g>
<circle cx="639.226" cy="112.824" r="34.5636" fill="#7684BB"/>
<mask id="mask7" mask-type="alpha" maskUnits="userSpaceOnUse" x="604" y="78" width="70" height="70">
<circle cx="639.226" cy="112.824" r="34.5636" fill="#E29F39"/>
</mask>
<g mask="url(#mask7)">
<ellipse cx="631.721" cy="96.8712" rx="29.2461" ry="29.2461" fill="#ADB9E6"/>
</g>
<mask id="mask8" mask-type="alpha" maskUnits="userSpaceOnUse" x="302" y="544" width="379" height="121">
<path d="M387.777 657.555C334.061 635.344 305.845 622.603 303.129 619.333C300.414 616.064 318.048 616.064 356.034 619.333C325.439 589.516 316.757 574.607 329.988 574.607C343.219 574.607 376.319 589.516 429.287 619.333C414.591 598.55 409.436 587.707 413.822 586.805C418.208 585.903 432.587 594.848 456.96 613.641C468.423 593.446 476.291 582.874 480.563 581.926C484.836 580.977 486.735 589.38 486.261 607.135C536.725 564.285 565.484 543.412 572.536 544.518C579.588 545.623 564.667 568.664 527.771 613.641C581.592 604.671 611.435 600.605 617.302 601.443C623.168 602.28 606.618 608.244 567.653 619.333C639.961 615.575 677.673 616.659 680.787 622.586C683.902 628.514 651.888 638.272 584.745 651.862C584.745 651.862 534.422 663.737 512.558 664.731C490.693 665.724 387.777 657.555 387.777 657.555Z" fill="white"/>
</mask>
<g mask="url(#mask8)">
<path d="M387.777 657.555C334.061 635.344 305.845 622.603 303.129 619.333C300.414 616.064 318.048 616.064 356.034 619.333C325.439 589.516 316.757 574.607 329.988 574.607C343.219 574.607 376.319 589.516 429.287 619.333C414.591 598.55 409.436 587.707 413.822 586.805C418.208 585.903 432.587 594.848 456.96 613.641C468.423 593.446 476.291 582.874 480.563 581.925C484.836 580.977 486.735 589.38 486.261 607.135C536.725 564.285 565.484 543.412 572.536 544.518C579.588 545.623 564.667 568.664 527.771 613.641C581.592 604.671 611.435 600.605 617.302 601.443C623.168 602.28 606.618 608.244 567.653 619.333C639.961 615.575 677.673 616.659 680.787 622.586C683.902 628.514 651.888 638.272 584.745 651.862C584.745 651.862 515.539 664.73 494.669 663.737C473.798 662.743 387.777 657.555 387.777 657.555Z" fill="#76BC1E"/>
<path fill-rule="evenodd" clip-rule="evenodd" d="M347.056 675.446C423.022 635.327 476.469 614.997 507.398 614.455C538.327 613.913 599.099 613.913 689.716 614.455L714.947 657.555L371.474 704.722L347.056 675.446Z" fill="#6BB112"/>
</g>
</svg>
