<svg width="2001" height="1120" viewBox="0 0 2001 1120" fill="none" xmlns="http://www.w3.org/2000/svg">
<path d="M150.652 845.896C261.691 847.143 310.349 810.962 351.521 804.724L1637.83 769.79C1852.43 774.781 2055.79 853.382 1987.17 879.582C1918.55 905.782 1780.06 903.287 1676.51 912.02C1572.96 920.754 1587.93 940.716 1506.83 959.431C1425.73 978.145 1292.24 970.659 1140.03 969.412C987.815 968.164 849.327 991.869 533.676 994.364C218.024 996.86 15.9073 949.449 2.1833 914.516C-11.5407 879.582 39.6123 844.648 150.652 845.896Z" fill="#6978B4"/>
<rect width="71.6764" height="22.0702" transform="matrix(0.96862 0.220258 -0.145554 0.985574 299.645 551.342)" fill="#D37F00"/>
<path d="M148.685 566.895C157.1 565.733 180.006 556.151 190.407 551.505L108.959 447.764C87.911 463.811 48.9158 469.46 32.0492 470.278L115.219 574.348C122.868 572.348 140.269 568.057 148.685 566.895Z" fill="#AA74F0"/>
<mask id="mask0" mask-type="alpha" maskUnits="userSpaceOnUse" x="33" y="446" width="159" height="128">
<path d="M149.218 564.971C157.734 563.518 181.032 553.091 191.617 548.059L111.328 446.203C89.7856 463.086 50.3203 470.086 33.2805 471.476L115.302 573.605C123.059 571.333 140.702 566.424 149.218 564.971Z" fill="#AA74F0"/>
</mask>
<g mask="url(#mask0)">
<g style="mix-blend-mode:soft-light">
<path d="M131.972 610.962C101.375 568.962 145.364 435.43 171.184 373.914L189.867 359.627L-10.4996 437.579C-60.6062 485.148 162.568 652.963 131.972 610.962Z" fill="white" fill-opacity="0.25"/>
</g>
</g>
<path d="M168.651 537.238C164.222 528.762 170.243 512.973 172.759 509.407L195.272 544.92C183.636 550.503 173.08 545.714 168.651 537.238Z" fill="#8D46E8"/>
<path d="M103.331 396.777C124.07 378.227 178.93 367.854 203.767 364.986L271.021 492.242C254.79 493.532 216.409 497.97 192.738 505.401C169.067 512.832 169.999 529.492 173.424 536.894L89.3455 427.531C85.3662 425.009 82.5923 415.328 103.331 396.777Z" fill="#C18FFF"/>
<mask id="mask1" mask-type="alpha" maskUnits="userSpaceOnUse" x="86" y="366" width="186" height="170">
<path d="M102.465 391.307C122.567 374.216 176.756 367.62 201.337 366.458L271.434 498.041C255.355 498.218 217.37 500.019 194.066 505.815C170.762 511.61 172.123 528.298 175.717 535.917L89.3866 421.037C85.3703 418.248 82.363 408.398 102.465 391.307Z" fill="#FF908A"/>
</mask>
<g mask="url(#mask1)">
<ellipse rx="31.3135" ry="26.8794" transform="matrix(0.951763 0.132366 0.0919359 1.0465 176.21 438.007)" fill="#ECD574"/>
<g style="mix-blend-mode:soft-light">
<path d="M168.76 566.334C136.874 518.911 174.407 383.591 197.16 321.86L214.918 308.91L21.2361 368.794C-25.996 413.232 200.646 613.758 168.76 566.334Z" fill="white" fill-opacity="0.25"/>
</g>
</g>
<rect width="16.1255" height="317.27" transform="matrix(0.830742 -0.408658 0.504991 0.942297 196.364 354.493)" fill="#ADB9E6"/>
<ellipse rx="18.2228" ry="16.7909" transform="matrix(0.682165 -0.53868 0.619691 0.775411 198.818 340.501)" fill="#E29F39"/>
<mask id="mask2" mask-type="alpha" maskUnits="userSpaceOnUse" x="182" y="324" width="34" height="33">
<ellipse rx="18.2738" ry="16.8058" transform="matrix(0.680969 -0.537876 0.618372 0.773963 198.816 340.501)" fill="#E29F39"/>
</mask>
<g mask="url(#mask2)">
<ellipse rx="15.4624" ry="14.2203" transform="matrix(0.680969 -0.537876 0.618372 0.773963 191.346 336.925)" fill="#F9C16E"/>
</g>
<path d="M573.377 517.278C577.004 528.124 611.087 605.239 612.017 615.87C616.907 671.758 567.808 667.774 515.506 681.014C464.377 693.956 434.185 713.991 403.379 666.615C396.678 656.309 383.872 619.787 371.058 581.465C348.363 513.595 371.069 450.99 433.32 435.233C495.57 419.475 550.682 449.408 573.377 517.278Z" fill="#FFC01D"/>
<path fill-rule="evenodd" clip-rule="evenodd" d="M490.89 530.675C509.207 535.316 525.255 526.792 526.733 511.637C528.212 496.481 514.562 480.434 496.245 475.794C479.969 471.67 465.485 477.941 461.422 490.023C453.508 483.817 444.359 478.973 435.461 476.721C411.277 470.601 394.433 480.438 392.506 500.167C390.579 519.895 412.291 546.354 436.475 552.475C460.515 558.559 481.574 547.694 483.717 528.186C486.004 529.206 488.404 530.045 490.89 530.675Z" fill="#FB9A09"/>
<path d="M579.951 406.441C579.951 406.441 563.728 406.406 569.184 439.784C574.64 473.162 541.546 486.49 520.036 467.481C499.298 468.132 498.579 456.62 495.67 436.659C492.761 416.698 500.817 394.417 518.345 383.334C535.872 372.25 577.042 386.481 579.951 406.441Z" fill="#FFC01D"/>
<mask id="mask3" mask-type="alpha" maskUnits="userSpaceOnUse" x="496" y="380" width="83" height="96">
<path d="M578.571 409.965C578.571 409.965 562.695 408.729 568.814 441.784C574.933 474.84 542.86 485.428 521.366 465.239C501.088 464.34 500.115 453.026 496.802 433.284C493.489 413.542 500.851 392.342 517.745 382.798C534.638 373.254 575.258 390.223 578.571 409.965Z" fill="#EC5377"/>
</mask>
<g mask="url(#mask3)">
<path d="M530.198 406.558C538.513 388.577 579.612 394.762 596.094 398.263L596.4 480.27L547.344 466.532C545.755 451.597 513.77 442.082 530.198 406.558Z" fill="#FB9A09"/>
</g>
<ellipse rx="20.5751" ry="19.1197" transform="matrix(0.938095 0.159338 0.0815734 1.05789 496.135 506.128)" fill="white"/>
<ellipse rx="13.0073" ry="13.4747" transform="matrix(0.889956 -0.0907039 0.298574 1.07011 494.241 506.353)" fill="#7896FF"/>
<ellipse rx="5.17053" ry="5.35631" transform="matrix(0.889956 -0.090704 0.298573 1.07011 494.242 506.356)" fill="#222222"/>
<ellipse rx="31.2255" ry="32.9547" transform="matrix(0.889334 -0.341233 0.373101 0.956556 441.194 517.358)" fill="white"/>
<ellipse rx="19.2907" ry="18.7512" transform="matrix(0.783371 -0.573493 0.594729 0.810646 446.375 519.026)" fill="#7896FF"/>
<ellipse rx="7.66823" ry="7.45376" transform="matrix(0.783371 -0.573493 0.594729 0.810646 446.38 519.028)" fill="#222222"/>
<path d="M289.411 492.26C289.411 492.26 303.458 484.682 319.031 514.186C334.605 543.691 371.414 539.058 378.504 513.69C396.885 504.564 390.506 494.929 380.886 477.449C371.266 459.969 350.725 445.717 328.782 444.92C306.839 444.123 279.791 474.78 289.411 492.26Z" fill="#FFC01D"/>
<mask id="mask4" mask-type="alpha" maskUnits="userSpaceOnUse" x="287" y="443" width="104" height="94">
<path d="M289.913 488.789C289.913 488.789 303.637 482.081 319.815 513.25C335.993 544.419 372.341 542.346 378.721 517.019C396.698 509.046 390.133 498.775 380.159 480.28C370.184 461.786 349.472 445.794 327.713 443.405C305.954 441.016 279.938 470.295 289.913 488.789Z" fill="#EC5377"/>
</mask>
<g mask="url(#mask4)">
<path d="M285.013 474.183C342.524 464.692 380.286 495.044 391.978 511.406L389.457 468.088C378.022 454.954 347.771 428.241 318.25 426.461C288.728 424.681 283.791 457.534 285.013 474.183Z" fill="#FB9A09"/>
</g>
<path d="M371.31 442.937C370.787 448.371 422.209 463.922 422.209 463.922L472.332 450.685C472.332 450.685 487.35 416.265 483.044 413.431C478.738 410.596 458.501 435.801 458.501 435.801C458.501 435.801 455.766 406.069 451.851 404.455C447.937 402.841 436.051 436.433 436.051 436.433C436.051 436.433 410.343 412.768 406.949 416.312C403.555 419.857 423.52 439.742 423.52 439.742C423.52 439.742 371.833 437.502 371.31 442.937Z" fill="#FFC01D"/>
<path d="M321.33 546.811C325.853 555.967 311.905 560.637 312.334 561.568C314.334 565.914 323.35 555.8 325.595 562.63C327.84 569.459 321.894 577.141 315.425 580.533C304.659 586.179 293.691 578.588 286.186 565.61C278.681 552.631 277.481 539.18 288.247 533.534C295.183 529.897 307.256 528.733 311.058 535.836C314.859 542.939 302.571 543.613 303.481 544.371C306.35 546.76 316.807 537.655 321.33 546.811Z" fill="#FFDA7B"/>
<mask id="mask5" mask-type="alpha" maskUnits="userSpaceOnUse" x="280" y="530" width="47" height="54">
<path d="M320.887 547.978C325.591 557.536 311.924 561.259 312.372 562.229C314.46 566.754 323.113 557.19 325.506 564.239C327.899 571.288 322.218 578.616 315.911 581.579C305.414 586.512 294.38 578.077 286.631 564.453C278.882 550.828 277.353 537.173 287.849 532.241C294.612 529.063 306.515 528.744 310.453 536.179C314.392 543.614 302.263 543.423 303.182 544.252C306.079 546.866 316.182 538.421 320.887 547.978Z" fill="#EC5377"/>
</mask>
<g mask="url(#mask5)">
<path d="M317.715 586.529C309.394 550.607 284.46 534.207 273.034 530.497L295.423 525.398L325.873 535.465L343.533 569.453L317.715 586.529Z" fill="#FFCD4E"/>
</g>
<ellipse rx="13.5284" ry="10.0686" transform="matrix(0.96789 0.229218 -0.139995 0.987238 379.995 554.707)" fill="#FFDC82"/>
<ellipse rx="20.2885" ry="11.8409" transform="matrix(0.944546 -0.103225 0.206926 1.02437 468.381 456.159)" fill="#FFDC82"/>
<ellipse rx="8.40084" ry="7.77245" transform="matrix(0.945096 -0.100751 0.212037 1.02393 546.801 513.931)" fill="#FFDC82"/>
<ellipse rx="4.81341" ry="4.45334" transform="matrix(0.945096 -0.10075 0.212039 1.02393 562.756 486.637)" fill="#FFDC82"/>
<ellipse rx="4.8134" ry="4.45334" transform="matrix(0.945096 -0.10075 0.212038 1.02393 402.31 557.175)" fill="#FFDC82"/>
<mask id="mask6" mask-type="alpha" maskUnits="userSpaceOnUse" x="548" y="276" width="883" height="619">
<path d="M548.928 511.116L763.738 336.046L928.068 276.973L1165.43 311.342L1382.39 463.858L1430.72 618.521L1382.39 819.368L1210.54 882.737L1185.84 894.552H905.513L805.626 840.849L703.592 819.368H591.89L548.928 511.116Z" fill="white"/>
</mask>
<g mask="url(#mask6)">
<path d="M548.928 511.116L763.738 336.046L928.068 276.973L1165.43 311.342L1382.39 463.858L1430.72 618.521L1382.39 819.368L1210.54 882.737L1185.84 894.552H905.513L805.626 840.849L703.592 819.368H591.89L548.928 511.116Z" fill="#D8D8D8"/>
<path fill-rule="evenodd" clip-rule="evenodd" d="M519.927 518.634L870.068 442.377V630.336L740.108 757.074L704.664 859.109L497.372 903.145L519.927 518.634Z" fill="#D8D8E1"/>
<path fill-rule="evenodd" clip-rule="evenodd" d="M870.07 630.336L740.109 757.074L684.259 885.96L806.701 853.738L870.07 630.336Z" fill="#BFBFCA"/>
<path fill-rule="evenodd" clip-rule="evenodd" d="M870.07 630.336L914.106 742.037L905.513 894.552L791.664 861.257L870.07 630.336Z" fill="#A8A8B5"/>
<path fill-rule="evenodd" clip-rule="evenodd" d="M928.068 276.973L870.07 442.377L527.448 516.486L612.298 371.489L791.664 289.861L928.068 276.973Z" fill="#FAFAFF"/>
<path fill-rule="evenodd" clip-rule="evenodd" d="M914.104 742.036L1204.1 690.482V903.144L899.067 914.958L914.104 742.036Z" fill="#C8C8D0"/>
<path fill-rule="evenodd" clip-rule="evenodd" d="M1204.1 690.482L1323.32 705.519L1382.39 819.368L1276.06 903.144H1204.1V690.482Z" fill="#B4B4B4"/>
<path fill-rule="evenodd" clip-rule="evenodd" d="M1382.39 455.264L1323.32 705.518L1390.98 837.626L1462.94 606.705L1382.39 455.264Z" fill="#D8D8E1"/>
<path fill-rule="evenodd" clip-rule="evenodd" d="M936.659 247.972L870.068 442.375V630.334L914.104 742.035L1204.1 690.481L1323.32 705.518L1393.13 442.375L1212.69 276.972L936.659 247.972Z" fill="#EEEEF5"/>
<path d="M1354.93 437.916L1339.96 425.44L1290.06 612.585H1312.51L1354.93 437.916Z" fill="#D8D8E1"/>
<g style="mix-blend-mode:multiply">
<path d="M743.591 575.156L545.217 553.947L527.75 601.357L767.296 879.579L820.944 862.112V678.71L743.591 575.156Z" fill="#C4C4C4" fill-opacity="0.3"/>
</g>
</g>
<path fill-rule="evenodd" clip-rule="evenodd" d="M1153.25 306.036C1142.4 310.134 1111.27 318.232 1073.49 317.838C1059.17 317.688 1046 317.245 1034.4 316.855C1007.74 315.957 989.419 315.341 984.726 319.22C984.192 319.764 983.545 323.953 985.222 336.355C985.463 338.138 985.707 340.342 985.95 342.876C979.576 344.382 968.783 346.247 960.726 345.336C951.272 344.267 936.651 347.143 930.522 348.714C932.109 356.459 935.657 373.661 937.149 380.503C938.148 385.079 942.666 398.973 947.55 413.99C951.794 427.036 956.312 440.93 959.038 450.3C963.729 466.423 964.753 487.811 964.679 496.49C974.181 492.675 993.934 495.062 1001.72 497.248C1009.5 499.433 1028.75 500.37 1037.45 497.372C1043.76 495.2 1044.42 491.423 1043.88 489.334L1039.92 468.225C1067.44 471.854 1164.4 478.839 1184.32 468.397L1153.25 306.036Z" fill="#D8D8E1"/>
<path d="M990.56 483.918C998.474 485.848 1018.14 486.169 1027.11 482.903C1033.6 480.537 1034.37 476.752 1033.86 474.687L1029.18 447.391L980.782 329.73C975.196 331.409 961.613 334.574 951.966 333.81C942.32 333.047 927.302 336.378 920.999 338.14C922.453 345.81 925.704 362.842 927.081 369.613C928.801 378.078 942.382 418.583 947.937 438.484C952.381 454.405 952.96 475.691 952.694 484.344C962.497 480.238 982.647 481.989 990.56 483.918Z" fill="#419BEF"/>
<mask id="mask7" mask-type="alpha" maskUnits="userSpaceOnUse" x="921" y="329" width="113" height="156">
<path d="M989.827 482.86C997.821 484.472 1017.75 484.026 1026.88 480.427C1033.49 477.82 1034.31 474.023 1033.82 471.988L1029.44 445.01L981.965 329.813C976.283 331.701 962.476 335.38 952.711 334.995C942.946 334.61 927.684 338.51 921.273 340.509C922.645 348.084 925.714 364.906 927.018 371.59C928.649 379.945 941.874 419.723 947.239 439.309C951.531 454.978 951.835 476.137 951.451 484.757C961.438 480.29 981.834 481.247 989.827 482.86Z" fill="#FCCC51"/>
</mask>
<g mask="url(#mask7)">
<path d="M1017.56 416.366C999.178 420.34 954.454 424.37 934.39 425.887C930.997 435.429 924.63 454.465 926.307 454.273L1018.56 443.712C1025.89 432.941 1035.94 412.392 1017.56 416.366Z" fill="#D1E0FF"/>
<g style="mix-blend-mode:multiply">
<path d="M929.88 513.38C924.25 483.514 978.539 377.465 1006.39 328.174L1012.35 327.746L1071.28 480.781C1026.5 504.091 935.51 543.246 929.88 513.38Z" fill="#784646" fill-opacity="0.08"/>
</g>
</g>
<path d="M991.517 469.657C987.51 466.908 987.485 461.483 988.053 459.348L994.137 454.507C1005.53 450.715 1028.37 443.636 1028.61 445.654C1028.91 448.175 1033.64 475.376 1033.8 475.844C1030.59 471.225 996.527 473.094 991.517 469.657Z" fill="#117ADC"/>
<path d="M1065.15 306.659C1103.33 305.857 1134.99 296.898 1146.04 292.519L1173.93 451.496C1152.39 463.043 1044.1 458.093 1023.87 455.421C1007.68 453.283 991.317 458.294 985.403 460.977C982.845 446.757 980.079 426.975 979.317 408.225C978.554 389.475 977.299 342.891 975.515 327.684C974.088 315.518 974.833 311.371 975.384 310.818C982.314 305.122 1017.42 307.661 1065.15 306.659Z" fill="#53A5F1"/>
<mask id="mask8" mask-type="alpha" maskUnits="userSpaceOnUse" x="975" y="291" width="199" height="172">
<path d="M1066.14 308.235C1104.57 305.982 1136.54 295.978 1147.72 291.258L1173.69 446.128C1151.86 458.283 1042.97 457.586 1022.65 455.742C1006.39 454.267 989.86 459.812 983.874 462.671C981.487 448.82 978.966 429.522 978.446 411.159C977.926 392.796 977.278 347.149 975.683 332.301C974.408 320.423 975.213 316.326 975.775 315.762C982.822 309.909 1018.11 311.052 1066.14 308.235Z" fill="#79A0F0"/>
</mask>
<g mask="url(#mask8)">
<path d="M1063.81 393.915C1095.92 393.207 1159.04 381.891 1180.49 376.764L1195.38 399.866C1164.9 406.304 1089.9 417.444 1061.96 417.713C1034.03 417.981 989.668 420.878 972.073 423.452C969.899 415.635 966.756 395.048 971.011 396.744C975.267 398.44 1031.71 394.624 1063.81 393.915Z" fill="#D1E0FF"/>
<g style="mix-blend-mode:soft-light">
<path d="M998.428 469.087C988.389 425.642 1085.84 323.642 1135.83 278.073L1159.05 270.734L942.182 285.604C875.928 313.134 1008.47 512.533 998.428 469.087Z" fill="white" fill-opacity="0.25"/>
</g>
</g>
<path d="M1095.19 338.478C1095.9 336.125 1099.12 335.864 1099.98 338.091L1103.59 347.457C1103.98 348.456 1104.97 349.068 1106.05 348.98L1116.39 348.143C1118.88 347.942 1119.99 351.085 1117.98 352.666L1110.04 358.937C1109.13 359.659 1108.77 360.886 1109.18 361.936L1112.64 370.925C1113.51 373.179 1110.97 375.382 1108.91 374.156L1100.04 368.869C1099.16 368.341 1098.01 368.434 1097.17 369.101L1088.7 375.791C1086.73 377.343 1084.05 375.563 1084.77 373.18L1087.62 363.679C1087.96 362.57 1087.52 361.407 1086.57 360.836L1078.25 355.88C1076.16 354.631 1077.05 351.327 1079.53 351.125L1089.88 350.288C1090.96 350.201 1091.9 349.433 1092.22 348.377L1095.19 338.478Z" fill="#D1E0FF"/>
<rect x="1139.13" y="282.415" width="21.7719" height="377.404" transform="rotate(-10.7347 1139.13 282.415)" fill="#ADB9E6"/>
<mask id="mask9" mask-type="alpha" maskUnits="userSpaceOnUse" x="1139" y="278" width="92" height="376">
<rect x="1139.13" y="282.417" width="21.7719" height="377.404" transform="rotate(-10.7347 1139.13 282.417)" fill="#F9C16E"/>
</mask>
<g mask="url(#mask9)">
<path d="M1210.31 660.383L1168.28 322.38L1258.75 538.163L1280.69 662.941L1210.31 660.383Z" fill="#7684BB"/>
</g>
<path d="M1169.44 256.285C1172.88 276.783 1162.42 279.404 1149.36 281.597C1136.29 283.79 1125.55 284.724 1122.11 264.226C1118.67 243.727 1131.56 217.21 1137.24 216.257C1142.92 215.304 1166 235.786 1169.44 256.285Z" fill="#7684BB"/>
<mask id="mask10" mask-type="alpha" maskUnits="userSpaceOnUse" x="1121" y="216" width="50" height="67">
<path d="M1169.44 256.281C1172.88 276.779 1162.42 279.4 1149.36 281.593C1136.29 283.785 1125.55 284.72 1122.11 264.221C1118.67 243.723 1131.56 217.206 1137.24 216.253C1142.92 215.3 1166 235.782 1169.44 256.281Z" fill="#F4B14C"/>
</mask>
<g mask="url(#mask10)">
<path d="M1157.05 247.768C1160.49 268.266 1150.04 270.887 1136.97 273.08C1123.91 275.272 1113.17 276.207 1109.73 255.709C1106.29 235.21 1119.18 208.693 1124.86 207.74C1130.54 206.787 1153.61 227.269 1157.05 247.768Z" fill="#ADB9E6"/>
</g>
<mask id="mask11" mask-type="alpha" maskUnits="userSpaceOnUse" x="259" y="562" width="550" height="390">
<path d="M259.197 726.218L279.869 889.754L413.09 951.944H688.718L801.266 857.508L808.156 684.758L730.062 594.929L521.044 562.682L371.745 583.412L316.62 634.085L279.869 684.758L259.197 726.218Z" fill="white"/>
</mask>
<g mask="url(#mask11)">
<path d="M259.197 726.218L279.869 889.754L413.09 951.944H688.718L801.266 857.508L808.156 684.758L730.062 594.929L521.044 562.682L371.745 583.412L316.62 634.085L279.869 684.758L259.197 726.218Z" fill="#332F2F"/>
<path fill-rule="evenodd" clip-rule="evenodd" d="M356.856 575.159L518.705 732.714L428.532 817.201L266.683 664.212L356.856 575.159Z" fill="#EEEEF5"/>
<path fill-rule="evenodd" clip-rule="evenodd" d="M251.988 727.139L308.825 640.037L395.217 713.386L433.866 809.657L381.576 837.163L229.254 770.69L251.988 727.139Z" fill="#D8D8E1"/>
<path fill-rule="evenodd" clip-rule="evenodd" d="M721.487 572.664L820.634 686.781L696.123 782.267L638.479 672.808L721.487 572.664Z" fill="#EEEEF5"/>
<path fill-rule="evenodd" clip-rule="evenodd" d="M251.711 724.876L324.573 777.696L433.866 807.551L417.927 961.419L383.773 984.384L251.711 887.93V724.876Z" fill="#C8C8D0"/>
<path fill-rule="evenodd" clip-rule="evenodd" d="M823.127 689.942L809.206 884.655L690.878 969.412L697.838 740.339L823.127 689.942Z" fill="#C8C8D0"/>
<path fill-rule="evenodd" clip-rule="evenodd" d="M341.541 562.487L519.485 525.254L748.27 562.487L676.63 704.437L498.686 732.361L341.541 562.487Z" fill="#FAFAFF"/>
<path fill-rule="evenodd" clip-rule="evenodd" d="M408.914 970.838L434.234 810.963L500.987 727.55L680.53 697.428L705.851 739.135L692.04 989.375L408.914 970.838Z" fill="#BFBFCA"/>
</g>
<mask id="mask12" mask-type="alpha" maskUnits="userSpaceOnUse" x="1360" y="736" width="441" height="135">
<path d="M1360.86 834.665V870.846H1786.3L1800.02 853.379L1760.1 805.969L1627.85 774.778L1575.45 736.102L1445.7 768.54L1360.86 834.665Z" fill="white"/>
</mask>
<g mask="url(#mask12)">
<path d="M1360.86 834.665V870.846H1786.3L1800.02 853.379L1760.1 805.969L1627.85 774.778L1575.45 736.102L1445.7 768.54L1360.86 834.665Z" fill="#D8D8D8"/>
<path fill-rule="evenodd" clip-rule="evenodd" d="M1449.44 761.055L1402.03 888.314C1365.43 885.819 1347.13 884.571 1347.13 884.571C1347.13 884.571 1341.31 867.104 1329.67 832.171L1449.44 761.055Z" fill="#848484"/>
<path fill-rule="evenodd" clip-rule="evenodd" d="M1436.96 764.798L1475.64 790.999L1564.22 803.475L1693.97 853.38L1710.19 878.333L1402.03 880.828L1436.96 764.798Z" fill="#C8C8D0"/>
<path fill-rule="evenodd" clip-rule="evenodd" d="M1766.34 797.237L1686.49 852.133L1705.2 892.057L1803.77 879.581L1821.23 838.409L1766.34 797.237Z" fill="#BFBFCA"/>
<path fill-rule="evenodd" clip-rule="evenodd" d="M1576.7 719.883L1562.97 808.465L1686.49 852.132L1776.32 797.237L1576.7 719.883Z" fill="#D8D8E1"/>
<path fill-rule="evenodd" clip-rule="evenodd" d="M1429.48 756.065L1475.64 790.998L1565.47 808.465L1575.45 728.617L1429.48 756.065Z" fill="#FAFAFF"/>
</g>
<path d="M1382.14 851.563C1379.2 859.412 1459.65 887.863 1459.65 887.863C1480.06 897.421 1534.87 894.462 1559.72 891.788C1559.72 891.788 1653.91 878.052 1652.93 872.166C1651.95 866.279 1547.95 872.166 1547.95 872.166C1547.95 872.166 1586.21 855.487 1581.31 851.563C1576.4 847.639 1521.46 862.355 1521.46 862.355C1521.46 862.355 1556.78 825.073 1551.87 821.149C1546.97 817.224 1490.07 870.204 1490.07 870.204C1490.07 870.204 1437.09 834.884 1433.16 839.79C1429.24 844.695 1459.65 867.26 1459.65 867.26C1459.65 867.26 1385.09 843.714 1382.14 851.563Z" fill="#76BC1E"/>
<mask id="mask13" mask-type="alpha" maskUnits="userSpaceOnUse" x="1382" y="820" width="271" height="75">
<path d="M1382.14 851.563C1379.2 859.412 1459.65 887.863 1459.65 887.863C1480.06 897.421 1534.87 894.462 1559.72 891.788C1559.72 891.788 1653.91 878.052 1652.93 872.166C1651.95 866.279 1547.95 872.166 1547.95 872.166C1547.95 872.166 1586.21 855.487 1581.31 851.563C1576.4 847.639 1521.46 862.355 1521.46 862.355C1521.46 862.355 1556.78 825.073 1551.87 821.149C1546.97 817.224 1490.07 870.204 1490.07 870.204C1490.07 870.204 1437.09 834.884 1433.16 839.79C1429.24 844.695 1459.65 867.26 1459.65 867.26C1459.65 867.26 1385.09 843.714 1382.14 851.563Z" fill="#76BC1E"/>
</mask>
<g mask="url(#mask13)">
<path d="M1557.68 848.409C1517.65 850.764 1476.91 882.748 1461.53 898.445L1580.25 916.105L1670.51 877.842L1651.87 860.183C1637.15 855.277 1597.71 846.055 1557.68 848.409Z" fill="#6BB112"/>
</g>
<mask id="mask14" mask-type="alpha" maskUnits="userSpaceOnUse" x="855" y="810" width="332" height="107">
<path d="M1112.3 909.97C1159.33 890.522 1184.04 879.367 1186.42 876.504C1188.79 873.641 1173.35 873.641 1140.09 876.504C1166.88 850.396 1174.48 837.342 1162.9 837.342C1151.31 837.342 1122.33 850.396 1075.95 876.504C1088.82 858.306 1093.34 848.812 1089.5 848.022C1085.66 847.233 1073.06 855.065 1051.72 871.52C1041.69 853.837 1034.8 844.581 1031.06 843.75C1027.32 842.92 1025.65 850.277 1026.07 865.823C981.884 828.304 956.703 810.029 950.528 810.997C944.354 811.964 957.419 832.139 989.724 871.52C942.6 863.666 916.469 860.106 911.333 860.839C906.196 861.572 920.687 866.794 954.804 876.504C891.492 873.213 858.473 874.162 855.746 879.352C853.019 884.542 881.05 893.086 939.839 904.985C939.839 904.985 983.9 915.382 1003.04 916.253C1022.19 917.123 1112.3 909.97 1112.3 909.97Z" fill="white"/>
</mask>
<g mask="url(#mask14)">
<path d="M1112.3 909.97C1159.33 890.522 1184.04 879.367 1186.42 876.504C1188.79 873.641 1173.35 873.641 1140.09 876.504C1166.88 850.396 1174.48 837.342 1162.9 837.342C1151.31 837.342 1122.33 850.396 1075.95 876.504C1088.82 858.306 1093.34 848.812 1089.5 848.022C1085.66 847.233 1073.06 855.065 1051.72 871.52C1041.69 853.837 1034.8 844.581 1031.06 843.75C1027.32 842.92 1025.65 850.277 1026.07 865.823C981.884 828.304 956.703 810.029 950.528 810.997C944.354 811.964 957.419 832.139 989.724 871.52C942.6 863.666 916.469 860.106 911.333 860.839C906.196 861.572 920.687 866.794 954.804 876.504C891.492 873.213 858.473 874.162 855.746 879.352C853.019 884.542 881.05 893.086 939.839 904.985C939.839 904.985 1000.43 916.253 1018.71 915.382C1036.98 914.512 1112.3 909.97 1112.3 909.97Z" fill="#76BC1E"/>
<path fill-rule="evenodd" clip-rule="evenodd" d="M1147.93 925.63C1081.42 890.503 1034.62 872.702 1007.54 872.228C980.462 871.753 927.25 871.753 847.909 872.228L825.817 909.966L1126.55 951.264L1147.93 925.63Z" fill="#6BB112"/>
</g>
<rect x="1375.47" y="167.554" width="26.1953" height="548.988" transform="rotate(12.1623 1375.47 167.554)" fill="#ADB9E7"/>
<mask id="mask15" mask-type="alpha" maskUnits="userSpaceOnUse" x="1259" y="167" width="143" height="543">
<rect x="1375.46" y="167.552" width="26.1953" height="548.988" transform="rotate(12.1623 1375.46 167.552)" fill="#F4B14C"/>
</mask>
<g mask="url(#mask15)">
<path d="M1223.76 709.189L1428.04 228.293L1387.61 611.307L1319.52 756.002L1223.76 709.189Z" fill="#7684BB"/>
</g>
<path d="M1630.29 264.87C1591.29 232.054 1531.58 226.094 1499.74 221.863L1447.91 386.047C1445.23 392.045 1487.62 388.492 1509.52 393.102C1554.7 402.612 1601.59 417.102 1612.49 434.128C1630.79 381.112 1648.69 280.352 1630.29 264.87Z" fill="#ED7A74"/>
<mask id="mask16" mask-type="alpha" maskUnits="userSpaceOnUse" x="1449" y="221" width="192" height="212">
<path d="M1631.67 269.761C1591.51 236.025 1530.88 227.279 1498.53 221.595L1449.18 378.091C1446.58 383.769 1489.47 382.437 1511.75 387.993C1557.73 399.456 1605.54 415.829 1616.92 432.868C1634.43 382.412 1650.62 285.677 1631.67 269.761Z" fill="#FF908A"/>
</mask>
<g mask="url(#mask16)">
<path d="M1631.68 338.891C1566.21 291.347 1492.55 294.11 1457.13 300.56L1450.86 345.699C1555.37 327.341 1616.76 363.871 1634.38 384.431L1631.68 338.891Z" fill="#F9D24A"/>
<g style="mix-blend-mode:multiply">
<path d="M1409.78 480.447C1452.24 366.02 1582.74 290.056 1642.68 266.378L1457.91 199.174C1424.18 340.61 1367.32 594.875 1409.78 480.447Z" fill="#784646" fill-opacity="0.08"/>
</g>
</g>
<path d="M1521.35 382.29C1520.34 363.95 1475.76 353.809 1453.3 350.421C1453.3 350.421 1443.42 401.846 1449.53 386.897C1455.64 371.949 1522.31 399.839 1521.35 382.29Z" fill="#DA514A"/>
<path d="M1540.28 199.877C1498.1 170.806 1425.13 180.878 1393.06 179.637L1360.48 349.342C1414.78 339.073 1508.59 357.035 1527.32 380.726C1539.93 326.158 1560.18 213.592 1540.28 199.877Z" fill="#FF908A"/>
<mask id="mask17" mask-type="alpha" maskUnits="userSpaceOnUse" x="1360" y="180" width="190" height="201">
<path d="M1540.43 206.755C1496.96 176.707 1422.94 182.836 1390.3 180.074L1360.5 341.857C1415.53 334.625 1511.3 356.503 1530.82 380.226C1542.57 328.309 1560.94 220.932 1540.43 206.755Z" fill="#FF908A"/>
</mask>
<g mask="url(#mask17)">
<path d="M1552.82 274.104C1489.49 233.924 1402.75 236.676 1367.3 243.074L1361.02 287.854C1465.65 269.645 1527.1 305.886 1544.74 326.284L1552.82 274.104Z" fill="#FFDD65"/>
<g style="mix-blend-mode:soft-light">
<path d="M1343.85 402.06C1386.31 287.635 1516.81 211.678 1576.75 188.002L1391.98 120.794C1358.24 262.226 1301.39 516.484 1343.85 402.06Z" fill="white" fill-opacity="0.25"/>
</g>
</g>
<circle cx="1391.49" cy="147.434" r="27.6622" fill="#7684BB"/>
<mask id="mask18" mask-type="alpha" maskUnits="userSpaceOnUse" x="1363" y="119" width="57" height="57">
<circle cx="1391.49" cy="147.434" r="27.6622" fill="#E29F39"/>
</mask>
<g mask="url(#mask18)">
<circle cx="1385.49" cy="134.664" r="23.4065" fill="#ADB9E6"/>
</g>
<mask id="mask19" mask-type="alpha" maskUnits="userSpaceOnUse" x="1012" y="607" width="493" height="343">
<path d="M1026.75 667.658L1012.77 811.803L1074.71 929.922L1248.56 949.942L1312.5 937.93L1360.46 921.914H1472.36L1504.33 857.849V779.771L1466.37 743.734L1438.39 661.652L1404.42 631.621H1258.55L1142.65 607.597L1026.75 667.658Z" fill="white"/>
</mask>
<g mask="url(#mask19)">
<path d="M1026.75 667.658L1012.77 811.803L1074.71 929.922L1248.56 949.942L1312.5 937.93L1360.46 921.914H1472.36L1504.33 857.849V779.771L1466.37 743.734L1438.39 661.652L1404.42 631.621H1258.55L1142.65 607.597L1026.75 667.658Z" fill="#D8D8D8"/>
<path fill-rule="evenodd" clip-rule="evenodd" d="M1012.77 713.706L1100.69 767.76L1072.71 949.944L956.816 793.786L1012.77 713.706Z" fill="#D8D8E1"/>
<path fill-rule="evenodd" clip-rule="evenodd" d="M1100.69 767.759H1184.61L1250.56 821.813L1266.54 857.849L1250.56 971.964L1052.73 949.942L1100.69 767.759Z" fill="#C8C8D0"/>
<path fill-rule="evenodd" clip-rule="evenodd" d="M1448.38 651.644L1242.56 819.813L1272.54 869.864L1406.42 767.761L1490.35 749.743L1448.38 651.644Z" fill="#EEEEF5"/>
<path fill-rule="evenodd" clip-rule="evenodd" d="M1260.55 863.857L1312.5 827.82L1322.49 945.939L1248.56 963.958L1260.55 863.857Z" fill="#A8A8B5"/>
<path fill-rule="evenodd" clip-rule="evenodd" d="M1306.51 831.823L1378.45 819.811L1520.32 869.862L1466.37 955.948L1322.5 949.942L1306.51 831.823Z" fill="#C8C8D0"/>
<path fill-rule="evenodd" clip-rule="evenodd" d="M1306.51 831.825L1406.42 749.742H1504.34L1550.29 791.785L1504.34 869.863L1384.44 825.819L1306.51 831.825Z" fill="#D8D8E1"/>
<path fill-rule="evenodd" clip-rule="evenodd" d="M1012.77 713.706L1028.75 651.643L1144.65 595.586L1266.54 607.599L1434.4 613.605L1450.38 655.647L1244.56 819.812L1184.62 767.76H1100.69L1012.77 713.706Z" fill="#FAFAFF"/>
</g>
<mask id="mask20" mask-type="alpha" maskUnits="userSpaceOnUse" x="1162" y="563" width="230" height="74">
<path d="M1213.95 632.458C1181.39 618.997 1164.29 611.277 1162.65 609.295C1161 607.313 1171.69 607.313 1194.71 609.295C1176.17 591.225 1170.91 582.19 1178.93 582.19C1186.94 582.19 1207 591.225 1239.1 609.295C1230.2 596.7 1227.07 590.129 1229.73 589.582C1232.39 589.035 1241.1 594.456 1255.87 605.845C1262.82 593.607 1267.59 587.2 1270.18 586.625C1272.77 586.05 1273.92 591.143 1273.63 601.903C1304.21 575.934 1321.64 563.285 1325.91 563.955C1330.19 564.625 1321.14 578.588 1298.79 605.845C1331.4 600.409 1349.49 597.945 1353.04 598.453C1356.6 598.96 1346.57 602.574 1322.95 609.295C1366.77 607.017 1389.63 607.674 1391.52 611.266C1393.4 614.858 1374 620.772 1333.31 629.008C1333.31 629.008 1302.82 636.204 1289.57 636.806C1276.32 637.409 1213.95 632.458 1213.95 632.458Z" fill="white"/>
</mask>
<g mask="url(#mask20)">
<path d="M1213.95 632.458C1181.39 618.997 1164.29 611.277 1162.65 609.295C1161 607.313 1171.69 607.313 1194.71 609.295C1176.17 591.225 1170.91 582.19 1178.93 582.19C1186.94 582.19 1207 591.225 1239.1 609.295C1230.2 596.7 1227.07 590.129 1229.73 589.582C1232.39 589.035 1241.1 594.456 1255.87 605.845C1262.82 593.607 1267.59 587.2 1270.18 586.625C1272.77 586.05 1273.92 591.143 1273.63 601.903C1304.21 575.934 1321.64 563.285 1325.91 563.955C1330.19 564.625 1321.14 578.588 1298.79 605.845C1331.4 600.409 1349.49 597.945 1353.04 598.453C1356.6 598.96 1346.57 602.574 1322.95 609.295C1366.77 607.017 1389.63 607.674 1391.52 611.266C1393.4 614.858 1374 620.772 1333.31 629.008C1333.31 629.008 1291.37 636.806 1278.72 636.204C1266.08 635.602 1213.95 632.458 1213.95 632.458Z" fill="#76BC1E"/>
<path fill-rule="evenodd" clip-rule="evenodd" d="M1189.28 643.297C1235.32 618.985 1267.71 606.664 1286.45 606.336C1305.2 606.007 1342.03 606.007 1396.94 606.336L1412.23 632.455L1204.08 661.039L1189.28 643.297Z" fill="#6BB112"/>
</g>
<mask id="mask21" mask-type="alpha" maskUnits="userSpaceOnUse" x="572" y="533" width="235" height="64">
<path d="M623.797 580.786C591.272 564.709 574.219 555.729 572.639 553.846C571.059 551.964 581.956 553.608 605.329 558.78C587.319 541.069 582.401 532.83 590.577 534.064C598.752 535.298 618.758 545.814 650.593 565.612C642.136 553.885 639.276 548.001 642.013 547.961C644.75 547.92 653.366 553.719 667.863 565.356C675.552 556.362 680.731 551.828 683.399 551.754C686.068 551.679 686.989 556.044 686.164 564.847C718.631 548.201 737.027 540.482 741.352 541.691C745.676 542.899 735.765 552.989 711.618 571.96C745.143 572.51 763.706 573.267 767.306 574.231C770.906 575.196 760.501 576.624 736.091 578.516C780.884 583.387 804.153 587.444 805.9 590.688C807.647 593.932 787.573 595.809 745.677 596.319C745.677 596.319 714.226 597.543 700.686 595.999C687.146 594.455 623.797 580.786 623.797 580.786Z" fill="white"/>
</mask>
<g mask="url(#mask21)">
<path d="M623.628 584.947C591.472 568.63 574.623 559.473 573.082 557.474C571.541 555.475 582.384 556.844 605.612 561.582C587.973 542.901 583.221 534.075 591.356 535.102C599.492 536.13 619.258 546.852 650.655 567.27C642.436 554.764 639.693 548.435 642.425 548.282C645.157 548.13 653.647 554.138 667.894 566.307C675.737 556.154 680.991 550.984 683.655 550.797C686.32 550.61 687.157 555.353 686.167 565.024C718.882 545.512 737.386 536.332 741.679 537.484C745.972 538.636 735.891 550.076 711.435 571.805C744.882 571.08 763.392 571.174 766.966 572.088C770.54 573.001 760.13 574.977 735.734 578.015C780.344 581.575 803.489 585.096 805.171 588.579C806.853 592.062 786.785 594.912 744.965 597.129C744.965 597.129 701.905 598.792 689.111 596.628C676.317 594.464 623.628 584.947 623.628 584.947Z" fill="#76BC1E"/>
<path fill-rule="evenodd" clip-rule="evenodd" d="M596.871 594.345C645.059 578.63 678.653 571.805 697.653 573.867C716.653 575.93 753.944 580.554 809.526 587.739L823.317 612.75L610.705 611.887L596.871 594.345Z" fill="#6BB112"/>
</g>
<mask id="mask22" mask-type="alpha" maskUnits="userSpaceOnUse" x="204" y="825" width="434" height="139">
<path d="M301.546 955.423C240.033 929.988 207.722 915.399 204.612 911.654C201.503 907.91 221.697 907.91 265.196 911.654C230.161 877.508 220.219 860.436 235.37 860.436C250.521 860.436 288.425 877.508 349.08 911.654C332.252 887.854 326.349 875.437 331.371 874.404C336.393 873.371 352.86 883.615 380.77 905.135C393.897 882.009 402.907 869.903 407.799 868.817C412.692 867.73 414.867 877.353 414.324 897.685C472.113 848.616 505.045 824.714 513.121 825.979C521.197 827.245 504.109 853.63 461.858 905.135C523.491 894.864 557.666 890.208 564.384 891.167C571.101 892.126 552.15 898.955 507.529 911.654C590.332 907.35 633.517 908.591 637.084 915.379C640.65 922.167 603.99 933.342 527.102 948.904C527.102 948.904 469.475 962.502 444.437 963.64C419.4 964.778 301.546 955.423 301.546 955.423Z" fill="white"/>
</mask>
<g mask="url(#mask22)">
<path d="M301.546 955.423C240.033 929.988 207.722 915.399 204.612 911.654C201.503 907.91 221.697 907.91 265.196 911.654C230.161 877.508 220.219 860.436 235.37 860.436C250.521 860.436 288.425 877.508 349.08 911.654C332.252 887.854 326.349 875.437 331.371 874.404C336.393 873.371 352.86 883.615 380.77 905.135C393.897 882.009 402.907 869.903 407.799 868.817C412.692 867.73 414.867 877.353 414.324 897.685C472.113 848.616 505.045 824.714 513.121 825.979C521.197 827.245 504.109 853.63 461.858 905.135C523.491 894.864 557.666 890.208 564.384 891.167C571.101 892.126 552.15 898.955 507.529 911.654C590.332 907.35 633.517 908.591 637.084 915.379C640.65 922.167 603.99 933.342 527.102 948.904C527.102 948.904 447.852 963.64 423.952 962.502C400.052 961.364 301.546 955.423 301.546 955.423Z" fill="#76BC1E"/>
<path fill-rule="evenodd" clip-rule="evenodd" d="M254.943 975.907C341.934 929.965 403.139 906.684 438.557 906.063C473.975 905.442 543.568 905.442 647.336 906.063L676.229 955.419L282.904 1009.43L254.943 975.907Z" fill="#6BB112"/>
</g>
</svg>
