<svg xmlns="http://www.w3.org/2000/svg" xmlns:xlink="http://www.w3.org/1999/xlink" viewBox="0 0 707.26 729"><defs><clipPath id="clip-path" transform="translate(0 16.7)"><path d="M178.74,278.82S196.55,100.73,284.32,165.6c73.76,54.53,20.35,105.58-80.14,142.47Z" style="fill:#4d88ce"/></clipPath><clipPath id="clip-path-2" transform="translate(0 16.7)"><path d="M197.53,305.77s187.27-45.12,160.89,62.54c-29.76,121.46-176.59-42.94-176.59-42.94Z" style="fill:#4d88ce"/></clipPath><clipPath id="clip-path-3" transform="translate(0 16.7)"><path d="M186.37,322.07S323.75,476,218.17,497.61c-91.95,18.83-106.85-75.05-53.42-175.54Z" style="fill:#4d88ce"/></clipPath><clipPath id="clip-path-4" transform="translate(0 16.7)"><path d="M159.11,297.33S-20.26,245.05,1.9,358.78c11.23,57.65,73.23,75.38,164.23-31.5l-4.85-20.68Z" style="fill:#4d88ce"/></clipPath><clipPath id="clip-path-5" transform="translate(0 16.7)"><path d="M178.75,311.52S-30.72,252.19,63.23,172.59C158,92.3,190.88,306.1,190.88,306.1Z" style="fill:#4d88ce"/></clipPath><clipPath id="clip-path-6" transform="translate(0 16.7)"><path d="M529.78,158.56s163.2-73.48,150.81,35c-10.41,91.13-81.32,70.34-163.45,1.69Z" style="fill:#4d88ce"/></clipPath><clipPath id="clip-path-7" transform="translate(0 16.7)"><path d="M515.81,188.3S648.4,328,542,358.93c-120.1,34.85-51-174.44-51-174.44Z" style="fill:#4d88ce"/></clipPath><clipPath id="clip-path-8" transform="translate(0 16.7)"><path d="M496.24,187S431.79,383.41,360.1,302.31c-62.45-70.64,11.43-130.48,125.3-134.15Z" style="fill:#4d88ce"/></clipPath><clipPath id="clip-path-9" transform="translate(0 16.7)"><path d="M504,150.8S459.68-30.72,372.21,45.26C327.86,83.78,343.46,146.35,481.5,171.83L497,157.31Z" style="fill:#4d88ce"/></clipPath><clipPath id="clip-path-10" transform="translate(0 16.7)"><path d="M501.46,174.9S448.28-36.21,564.15,5.44C681,47.46,512.21,182.7,512.21,182.7Z" style="fill:#4d88ce"/></clipPath><clipPath id="clip-path-11" transform="translate(0 16.7)"><path d="M422.66,548.2s-167.88,62-148-45.29c16.68-90.2,86-64.56,163.18,9.61Z" style="fill:#4d88ce"/></clipPath><clipPath id="clip-path-12" transform="translate(0 16.7)"><path d="M438.65,519.51S316,370.94,424.36,347.48C546.58,321,463.15,525,463.15,525Z" style="fill:#4d88ce"/></clipPath><clipPath id="clip-path-13" transform="translate(0 16.7)"><path d="M458.19,522.39s78.15-190.94,143.86-105.51c57.22,74.41-20.64,128.94-134.38,125Z" style="fill:#4d88ce"/></clipPath><clipPath id="clip-path-14" transform="translate(0 16.7)"><path d="M447.9,557.73S479.51,741.88,572,672.12c46.9-35.36,35.66-98.86-100.28-133.82l-16.47,13.42Z" style="fill:#4d88ce"/></clipPath><clipPath id="clip-path-15" transform="translate(0 16.7)"><path d="M452.05,533.86s38.46,214.29-74.26,164.72c-113.69-50,64.07-173.24,64.07-173.24Z" style="fill:#4d88ce"/></clipPath><clipPath id="clip-path-16" transform="translate(0 16.7)"><circle cx="181.28" cy="309.35" r="33.07" style="fill:#ffba1f"/></clipPath><clipPath id="clip-path-17" transform="translate(0 16.7)"><circle cx="504.6" cy="176.01" r="33.07" style="fill:#ffba1f"/></clipPath><clipPath id="clip-path-18" transform="translate(0 16.7)"><circle cx="448.99" cy="532.54" r="33.07" style="fill:#ffba1f"/></clipPath></defs><g id="Layer_2" data-name="Layer 2"><g id="flowers"><g id="Layer_4" data-name="Layer 4"><path d="M178.74,278.82S196.55,100.73,284.32,165.6c73.76,54.53,20.35,105.58-80.14,142.47Z" transform="translate(0 16.7)" style="fill:#4d88ce"/><g style="clip-path:url(#clip-path)"><path d="M237.26,146.3s51,16,52,69-98,93-98,93h47l71-42,31-43-16-39-40-33-43-17Z" transform="translate(0 16.7)" style="fill:#0d6099;opacity:0.5"/></g><path d="M197.53,305.77s187.27-45.12,160.89,62.54c-29.76,121.46-176.59-42.94-176.59-42.94Z" transform="translate(0 16.7)" style="fill:#4d88ce"/><g style="clip-path:url(#clip-path-2)"><path d="M264.26,293.3s67-5,65,61-80.81,31.42-96.9,18.71h0l9.9,17.29,40,28,58,2,21-25,14-41-14-25-18-26-35-18Z" transform="translate(0 16.7)" style="fill:#0d6099;opacity:0.5"/></g><path d="M186.37,322.07S323.75,476,218.17,497.61c-91.95,18.83-106.85-75.05-53.42-175.54Z" transform="translate(0 16.7)" style="fill:#4d88ce"/><g style="clip-path:url(#clip-path-3)"><path d="M190.88,327.3s43.38,76,42.38,131-100,38-103-5l13,42s52,26,53,26,48-16,48-16l20-23,7-41-30-53-41-67-9.38,6" transform="translate(0 16.7)" style="fill:#0d6099;opacity:0.5"/></g><path d="M159.11,297.33S-20.26,245.05,1.9,358.78c11.23,57.65,73.23,75.38,164.23-31.5l-4.85-20.68Z" transform="translate(0 16.7)" style="fill:#4d88ce"/><g style="clip-path:url(#clip-path-4)"><path d="M44.26,285.3s65-3,82,32-28,78-28,78l36-28,32-40,7-42-79-3Z" transform="translate(0 16.7)" style="fill:#0d6099;opacity:0.5"/></g><path d="M178.75,311.52S-30.72,252.19,63.23,172.59C158,92.3,190.88,306.1,190.88,306.1Z" transform="translate(0 16.7)" style="fill:#4d88ce"/><g style="clip-path:url(#clip-path-5)"><path d="M58.26,172.3s65.73-48.94,128.36,116h0l4.64-26-57-116-45-7Z" transform="translate(0 16.7)" style="fill:#0d6099;opacity:0.5"/></g><path d="M529.78,158.56s163.2-73.48,150.81,35c-10.41,91.13-81.32,70.34-163.45,1.69Z" transform="translate(0 16.7)" style="fill:#4d88ce"/><g style="clip-path:url(#clip-path-6)"><path d="M567.75,142.93s99.51-14.63,91.51,46.37-69,60-69,60l73,20,44-67-33-74-53-7-53.51,21.63" transform="translate(0 16.7)" style="fill:#0d6099;opacity:0.5"/></g><path d="M515.81,188.3S648.4,328,542,358.93c-120.1,34.85-51-174.44-51-174.44Z" transform="translate(0 16.7)" style="fill:#4d88ce"/><g style="clip-path:url(#clip-path-7)"><path d="M514.26,194.3s39,59,47,98-24,69-47,75l46-7,39-44-5-37-77-91Z" transform="translate(0 16.7)" style="fill:#0d6099;opacity:0.5"/></g><path d="M496.24,187S431.79,383.41,360.1,302.31c-62.45-70.64,11.43-130.48,125.3-134.15Z" transform="translate(0 16.7)" style="fill:#4d88ce"/><g style="clip-path:url(#clip-path-8)"><path d="M435.26,172.3s62,20,5,126,15-8,15-8l44-96,5-35Z" transform="translate(0 16.7)" style="fill:#0d6099;opacity:0.5"/></g><path d="M504,150.8S459.68-30.72,372.21,45.26C327.86,83.78,343.46,146.35,481.5,171.83L497,157.31Z" transform="translate(0 16.7)" style="fill:#4d88ce"/><g style="clip-path:url(#clip-path-9)"><path d="M364.26,44.3s59-22,90,27,41,101,41,101l15-25-12-43-64-99Z" transform="translate(0 16.7)" style="fill:#0d6099;opacity:0.5"/></g><path d="M501.46,174.9S448.28-36.21,564.15,5.44C681,47.46,512.21,182.7,512.21,182.7Z" transform="translate(0 16.7)" style="fill:#4d88ce"/><g style="clip-path:url(#clip-path-10)"><path d="M491.26,26.3s68-37,88,21-57,121-57,121l49-14,60-73-26-88-78-10-38,17Z" transform="translate(0 16.7)" style="fill:#0d6099;opacity:0.5"/></g><path d="M422.66,548.2s-167.88,62-148-45.29c16.68-90.2,86-64.56,163.18,9.61Z" transform="translate(0 16.7)" style="fill:#4d88ce"/><g style="clip-path:url(#clip-path-11)"><path d="M377.26,460.3s28,28,27,54-36,50-60,55l53.5-8.12,43.5-13.88L442.88,500Z" transform="translate(0 16.7)" style="fill:#0d6099;opacity:0.5"/></g><path d="M438.65,519.51S316,370.94,424.36,347.48C546.58,321,463.15,525,463.15,525Z" transform="translate(0 16.7)" style="fill:#4d88ce"/><g style="clip-path:url(#clip-path-12)"><path d="M401.26,351.3s50-8,67,25S467,509.49,467,509.49l17.23-8.19,15-132-41-35Z" transform="translate(0 16.7)" style="fill:#0d6099;opacity:0.5"/></g><path d="M458.19,522.39s78.15-190.94,143.86-105.51c57.22,74.41-20.64,128.94-134.38,125Z" transform="translate(0 16.7)" style="fill:#4d88ce"/><g style="clip-path:url(#clip-path-13)"><path d="M533.26,405.3s31-9,53,27-4.08,84.35-61,110l55-10,39-31,13-40-19-48-34-29-45,4Z" transform="translate(0 16.7)" style="fill:#0d6099;opacity:0.5"/></g><path d="M447.9,557.73S479.51,741.88,572,672.12c46.9-35.36,35.66-98.86-100.28-133.82l-16.47,13.42Z" transform="translate(0 16.7)" style="fill:#4d88ce"/><g style="clip-path:url(#clip-path-14)"><path d="M511.26,547.3s61,39,69,86-61,62-76,49l22,12h28l34-24,14-32v-25l-21-35Z" transform="translate(0 16.7)" style="fill:#0d6099;opacity:0.5"/></g><path d="M452.05,533.86s38.46,214.29-74.26,164.72c-113.69-50,64.07-173.24,64.07-173.24Z" transform="translate(0 16.7)" style="fill:#4d88ce"/><g style="clip-path:url(#clip-path-15)"><path d="M438.26,558.3s11,78-13,119-85-3-85-3l36,34,40,4,39-13,8-59-1.1-92.25Z" transform="translate(0 16.7)" style="fill:#0d6099;opacity:0.5"/></g><path d="M196,286.54c9.34-17.89,21.23-34.1,31.43-51.46a1.13,1.13,0,0,0-1.77-1.36c-15.29,13.64-25.39,32.68-32.92,51.45-.75,1.88,2.33,3.15,3.26,1.37Z" transform="translate(0 16.7)" style="fill:#2874bf"/><path d="M201.92,293.53c8-11.12,19.46-19.17,29.46-28.32,1-.88-.27-2.39-1.37-1.77-12.49,7-20.21,18.53-28.18,30,0,0,0,.1.09,0Z" transform="translate(0 16.7)" style="fill:#2874bf"/><path d="M155.73,311.18c-20.65,1.56-40.31,6.55-58.45,16.68-2.46,1.38-.3,4.87,2.18,3.73,17.75-8.18,36.82-14.45,56.27-16.75,2.28-.27,2.38-3.84,0-3.66Z" transform="translate(0 16.7)" style="fill:#2874bf"/><path d="M153.4,320.45c-15.72,3.93-30.06,10.48-42.53,20.93-1,.85.36,2.66,1.42,1.84,12.4-9.49,26.41-17.16,41.56-21.14a.85.85,0,0,0-.45-1.63Z" transform="translate(0 16.7)" style="fill:#2874bf"/><path d="M199.4,323.19c9.22-.58,18-1.35,27.19,0,8.8,1.29,17.36,3.74,26.14,5.11a1,1,0,0,0,.55-2,102.87,102.87,0,0,0-28-6.65c-8.71-.79-18-.84-25.86,3.43a0,0,0,0,0,0,.09Z" transform="translate(0 16.7)" style="fill:#2874bf"/><path d="M203.15,322.84c4.54,12,13.67,22,26.35,25.23a1.13,1.13,0,0,0,.59-2.17c-11.13-4.42-20.74-12.23-25.31-23.51-.4-1-2-.57-1.63.45Z" transform="translate(0 16.7)" style="fill:#2874bf"/><path d="M508.94,152.14c-2-16.8,3-33.08,7-49.21a.94.94,0,0,0-1.81-.5c-5.13,16.18-9,32.83-6.33,49.86.1.62,1.18.48,1.1-.15Z" transform="translate(0 16.7)" style="fill:#2874bf"/><path d="M519.62,153.08c9.06-12.2,16.5-25.3,21.06-39.83.29-.94-1.23-1.63-1.63-.69-5.93,13.75-12.63,27.18-21.21,39.48-.76,1.1,1,2.09,1.78,1Z" transform="translate(0 16.7)" style="fill:#2874bf"/><path d="M529.54,180.85c9.91-2.43,20.59-3,30.77-2.85,1.17,0,1.11-1.65,0-1.78-11-1.26-20.57.57-30.79,4.53a.05.05,0,0,0,0,.1Z" transform="translate(0 16.7)" style="fill:#2874bf"/><path d="M533.6,192.52a66.55,66.55,0,0,0,24.3,11.14,1.27,1.27,0,0,0,.67-2.44,80.92,80.92,0,0,1-23.93-10.48c-1.13-.74-2.1,1-1,1.78Z" transform="translate(0 16.7)" style="fill:#2874bf"/><path d="M476,185.7a167.71,167.71,0,0,0-36,22.43c-1.36,1.12.57,3,1.92,1.92a244.17,244.17,0,0,1,34.74-23.22c.76-.4.09-1.48-.66-1.13Z" transform="translate(0 16.7)" style="fill:#2874bf"/><path d="M438.67,537.8c-17,13.36-30,31.38-36.23,52.17-.57,1.87,2.24,2.58,2.89.79,7.25-19.79,19.16-37.4,35.59-50.71,1.61-1.3-.66-3.5-2.25-2.25Z" transform="translate(0 16.7)" style="fill:#2874bf"/><path d="M466.06,530.66c8-7.63,16.39-15,24.78-22.2.91-.79-.32-2.43-1.31-1.69a267.91,267.91,0,0,0-25.46,21.9c-1.3,1.26.68,3.23,2,2Z" transform="translate(0 16.7)" style="fill:#2874bf"/><path d="M475.77,536.51c17.63-7.39,35.1-14.63,51.18-25.11a1.5,1.5,0,0,0-1.51-2.59c-17.11,8.06-33.39,17.73-50.43,25.9-1,.48-.27,2.24.76,1.8Z" transform="translate(0 16.7)" style="fill:#2874bf"/><path d="M447.42,509.37c-6.68-22.32-8.95-45.1-10-68.28a1.64,1.64,0,0,0-3.28,0c-3,23.38,1.09,47.41,8.76,69.53,1,2.82,5.4,1.67,4.52-1.25Z" transform="translate(0 16.7)" style="fill:#2874bf"/><circle cx="181.28" cy="326.04" r="33.07" style="fill:#ffba1f"/><g style="clip-path:url(#clip-path-16)"><path d="M171.84,276.27s20.42,7,24.42,29-15,37-15,37L201,345.11l19.24-20.81v-34l-15-18-33.42,4" transform="translate(0 16.7)" style="fill:#f78f1e"/></g><circle cx="504.6" cy="192.71" r="33.07" style="fill:#ffba1f"/><g style="clip-path:url(#clip-path-17)"><path d="M496.24,140.32s24.12,11.63,26.07,33.81-24,39.17-24,39.17l35.39-4.21,13.61-36.79-22-35Z" transform="translate(0 16.7)" style="fill:#f78f1e"/></g><circle cx="448.99" cy="549.24" r="33.07" style="fill:#ffba1f"/><g style="clip-path:url(#clip-path-18)"><path d="M442.8,499.46s20.46,9.84,25.46,32.84-20,36-20,36l28,1,15-34-16-30-26-14-6.46,8.16" transform="translate(0 16.7)" style="fill:#f78f1e"/></g></g></g></g></svg>