<svg width="1000" height="1000" viewBox="0 0 1000 1000" fill="none" xmlns="http://www.w3.org/2000/svg">
<path d="M54.2947 828.437C-70.3877 648.607 185.825 334.421 394.248 348.878C487.945 355.377 468 413.584 509.927 471.5C557.6 537.353 648.006 524.655 658.845 601.207C658.538 714.679 555.753 674.504 419.856 737.021C299.476 792.399 178.977 1008.27 54.2947 828.437Z" fill="#5F6AC8"/>
<mask id="mask0" mask-type="alpha" maskUnits="userSpaceOnUse" x="21" y="348" width="638" height="551">
<path d="M54.2947 828.437C-70.3877 648.607 185.825 334.421 394.248 348.878C487.945 355.377 468 413.584 509.927 471.5C557.6 537.353 648.006 524.655 658.845 601.207C658.538 714.679 555.753 674.503 419.856 737.021C299.476 792.399 178.977 1008.27 54.2947 828.437Z" fill="#D1D5F4"/>
</mask>
<g mask="url(#mask0)">
<path d="M54.2947 936.531C-70.3877 756.7 185.825 442.514 394.248 456.971C487.945 463.47 468 521.677 509.927 579.593C557.6 645.446 648.006 632.748 658.845 709.3C658.538 822.772 555.753 782.597 419.856 845.114C299.476 900.492 178.977 1116.36 54.2947 936.531Z" fill="#A5ACE8"/>
</g>
<ellipse rx="110.662" ry="134.289" transform="matrix(0.160514 0.987034 -0.986861 0.161571 849.712 579.812)" fill="#5F6AC8"/>
<ellipse rx="80.6751" ry="97.8587" transform="matrix(0.888434 0.459005 -0.456567 0.889689 478.009 215.003)" fill="#5F6AC8"/>
<ellipse rx="115.674" ry="113.636" transform="matrix(0.601798 0.798649 -0.796694 0.604383 699.429 337.886)" fill="#5F6AC8"/>
<mask id="mask1" mask-type="alpha" maskUnits="userSpaceOnUse" x="715" y="468" width="269" height="224">
<ellipse rx="110.662" ry="134.289" transform="matrix(0.160514 0.987034 -0.986861 0.161571 849.71 579.813)" fill="#A5ACE8"/>
</mask>
<g mask="url(#mask1)">
<ellipse rx="110.662" ry="134.289" transform="matrix(0.160514 0.987034 -0.986861 0.161571 849.71 670.721)" fill="#A5ACE8"/>
</g>
<mask id="mask2" mask-type="alpha" maskUnits="userSpaceOnUse" x="393" y="120" width="170" height="190">
<ellipse rx="80.6751" ry="97.8587" transform="matrix(0.888434 0.459005 -0.456567 0.889689 478.009 215.003)" fill="#A5ACE8"/>
</mask>
<g mask="url(#mask2)">
<ellipse rx="80.6751" ry="97.8587" transform="matrix(0.888434 0.459005 -0.456567 0.889689 478.009 305.912)" fill="#A5ACE8"/>
</g>
<mask id="mask3" mask-type="alpha" maskUnits="userSpaceOnUse" x="585" y="222" width="229" height="232">
<ellipse rx="115.674" ry="113.636" transform="matrix(0.601797 0.798649 -0.796694 0.604383 699.425 337.886)" fill="#A5ACE8"/>
</mask>
<g mask="url(#mask3)">
<ellipse rx="115.674" ry="113.636" transform="matrix(0.601798 0.798649 -0.796694 0.604383 699.429 428.79)" fill="#A5ACE8"/>
</g>
</svg>
