<svg xmlns="http://www.w3.org/2000/svg" xmlns:xlink="http://www.w3.org/1999/xlink" viewBox="0 0 696.5 730.89"><defs><clipPath id="clip-path" transform="translate(0 18.89)"><path d="M57.58,190.75H633.42a0,0,0,0,1,0,0V675.23A24.77,24.77,0,0,1,608.65,700H82.35a24.77,24.77,0,0,1-24.77-24.77V190.75A0,0,0,0,1,57.58,190.75Z" style="fill:#ea2727"/></clipPath><clipPath id="clip-path-2" transform="translate(0 18.89)"><rect y="133.16" width="691" height="128.66" rx="14.54" style="fill:#f43838"/></clipPath><clipPath id="clip-path-3" transform="translate(0 18.89)"><rect x="282.52" y="126.86" width="125.96" height="573.14" style="fill:#ffae2c"/></clipPath><clipPath id="clip-path-4" transform="translate(0 18.89)"><path d="M472.68,2.12C400.41-18.49,350.19,117.51,346,129.32c32.45,3.5,78.64-102.16,113.14-89.14,36.16,13.65,32.28,44.53,18.08,61.76C463.38,118.71,356.08,129.38,350,130c0,.14-4.33.19-4.33.19s43.07,23.51,115.37,12.73S548.21,23.67,472.68,2.12Z" style="fill:#ffae2c"/></clipPath><clipPath id="clip-path-5" transform="translate(0 18.89)"><path d="M232.72,2.12C305-18.49,355.21,117.51,359.42,129.32,327,132.82,280.78,27.16,246.28,40.18,210.12,53.83,214,84.71,228.2,101.94c13.82,16.77,121.12,27.44,127.18,28,.05.14,4.33.19,4.33.19s-43.07,23.51-115.37,12.73S157.19,23.67,232.72,2.12Z" style="fill:#ffae2c"/></clipPath><clipPath id="clip-path-6" transform="translate(0 18.89)"><path d="M332.9,135.86c-.89-12.6-3.59-23.39,15.3-23.39S377,118.77,377,131.36,374.29,153,356.3,153C342.53,153,334.3,155.46,332.9,135.86Z" style="fill:#ffae2c"/></clipPath></defs><g style="isolation:isolate"><g id="Layer_2" data-name="Layer 2"><g id="Layer_3" data-name="Layer 3"><path d="M57.58,209.64H633.42a0,0,0,0,1,0,0V694.13a24.77,24.77,0,0,1-24.77,24.77H82.35a24.77,24.77,0,0,1-24.77-24.77V209.64A0,0,0,0,1,57.58,209.64Z" style="fill:#ea2727"/><g style="clip-path:url(#clip-path)"><polygon points="429.5 225.9 185.5 730.89 638.5 718.89 654.11 216.84 429.5 225.9" style="fill:#c10505;opacity:0.46;mix-blend-mode:multiply"/><polygon points="47.69 289.29 662.21 316.28 645.12 231.71 47.69 253.3 47.69 289.29" style="fill:#c90d0d"/></g><rect y="152.06" width="691" height="128.66" rx="14.54" style="fill:#f43838"/><g style="clip-path:url(#clip-path-2)"><polygon points="578.5 145.9 499.5 305.89 691.5 284.89 696.5 149.9 578.5 145.9" style="fill:#e00e0e"/></g><rect x="393.19" y="152.06" width="27.89" height="566.84" style="fill:#cc0d0d;opacity:0.46;mix-blend-mode:multiply"/><path d="M345.1,131.36l-.36,0-.3-.75Z" transform="translate(0 18.89)" style="fill:#ffab50"/><rect x="282.52" y="145.76" width="125.96" height="573.14" style="fill:#ffae2c"/><g style="clip-path:url(#clip-path-3)"><path d="M383.93,102.74S366.77,704.2,261.5,706l186-1-21-605.13Z" transform="translate(0 18.89)" style="fill:#ef8e0c"/><path d="M278.92,158.35s41.39-2.69,49.49-8.09c0,0,10,11.2,24.29,9.89A147.67,147.67,0,0,0,384.19,153c13.06-4.9,18.82,8.26,30.59,6.29,32.39-5.39,6.3-46.78,6.3-46.78H270.82Z" transform="translate(0 18.89)" style="fill:#ef8e0c"/></g><path d="M472.68,2.12C400.41-18.49,350.19,117.51,346,129.32c32.45,3.5,78.64-102.16,113.14-89.14,36.16,13.65,32.28,44.53,18.08,61.76C463.38,118.71,356.08,129.38,350,130c0,.14-4.33.19-4.33.19s43.07,23.51,115.37,12.73S548.21,23.67,472.68,2.12Z" transform="translate(0 18.89)" style="fill:#ffae2c"/><g style="clip-path:url(#clip-path-4)"><path d="M393.19,19.79S448.07-1.8,471.47,15.3s40.48,39.58,36,68.38-57.59,64.09-86.38,69.38l62.08-7.3,49.49-33.29L527.25,8.1l-59.38-27L421.08-11.7Z" transform="translate(0 18.89)" style="fill:#ef8e0c"/></g><path d="M345.5,130l.26,0c.05-.13.12-.34.22-.6Z" transform="translate(0 18.89)" style="fill:#ffab50"/><path d="M232.72,2.12C305-18.49,355.21,117.51,359.42,129.32,327,132.82,280.78,27.16,246.28,40.18,210.12,53.83,214,84.71,228.2,101.94c13.82,16.77,121.12,27.44,127.18,28,.05.14,4.33.19,4.33.19s-43.07,23.51-115.37,12.73S157.19,23.67,232.72,2.12Z" transform="translate(0 18.89)" style="fill:#ffae2c"/><g style="clip-path:url(#clip-path-5)"><path d="M197.94,10.8S250.13,9.9,278,63.88s68,65.44,68,65.44l8.64-12.47L354.5,81,277.12-11.7,210.54-9.9Z" transform="translate(0 18.89)" style="fill:#ef8e0c"/></g><path d="M359.9,130l-.26,0c-.05-.13-.12-.34-.22-.6Z" transform="translate(0 18.89)" style="fill:#ffab50"/><path d="M332.9,135.86c-.89-12.6-3.59-23.39,15.3-23.39S377,118.77,377,131.36,374.29,153,356.3,153C342.53,153,334.3,155.46,332.9,135.86Z" transform="translate(0 18.89)" style="fill:#ffae2c"/><g style="clip-path:url(#clip-path-6)"><path d="M335.6,111.57s18.9-4.5,24.3,18-7.2,30.59-7.2,30.59L377,149.36l6.3-36.89-28.79-11.7Z" transform="translate(0 18.89)" style="fill:#ef8e0c"/></g></g></g></g></svg>