<svg xmlns="http://www.w3.org/2000/svg" xmlns:xlink="http://www.w3.org/1999/xlink" viewBox="0 0 837.45 569.91"><defs><clipPath id="clip-path" transform="translate(21.95)"><path d="M135.71,81.46S142.43,32,170.43,14s135,15,180-14c0,0,1,29-22,38,0,0,12,20,37,7,0,0-4,34-88,36S135.71,81.46,135.71,81.46Z" style="fill:#ff8b00"/></clipPath><clipPath id="clip-path-2" transform="translate(21.95)"><path d="M154.43,337c0,5-10,52,30,77s93,19,101,14-90-41-17-98Z" style="fill:#ff8b00"/></clipPath><clipPath id="clip-path-3" transform="translate(21.95)"><path d="M2,207.74a20.61,20.61,0,0,1,1.34-20C23.43,156.71,95.16,62,220.51,62c149.85,0,280.12,135.38,280.12,135.38S384.83,360,222.21,360C84.61,360,18.94,243.57,2,207.74Z" style="fill:#ff8b00"/></clipPath><clipPath id="clip-path-4" transform="translate(21.95)"><path d="M501.17,177.16S521.51,79.68,597.8,62.73,712.23,177.16,759.7,189c0,0-35.6,45.77-101.72,11,0,0,15.26,188.17,125.45,214.45,0,0-119.36,193-305.15,82.22C394.36,446.71,501.17,177.16,501.17,177.16Z" style="fill:#ff8b00"/></clipPath></defs><g id="Layer_2" data-name="Layer 2"><g id="Layer_3" data-name="Layer 3"><g id="Layer_4" data-name="Layer 4"><path d="M135.71,81.46S142.43,32,170.43,14s135,15,180-14c0,0,1,29-22,38,0,0,12,20,37,7,0,0-4,34-88,36S135.71,81.46,135.71,81.46Z" transform="translate(21.95)" style="fill:#ff8b00"/><g style="clip-path:url(#clip-path)"><path d="M270,28.89a226,226,0,0,1,25.29,2.9c8.36,1.57,16.28,4.35,24.47,6.58,13.93,3.81,30.17,5.06,43.75-.73,1.46-.62.71-3.07-.8-3-7.83.5-15.51,1.64-23.38,1.4a104.4,104.4,0,0,1-23.83-3.62c-7.13-1.87-14.2-3.73-21.55-4.4-8-.74-16-.67-23.95-.66a.75.75,0,0,0,0,1.5Z" transform="translate(21.95)" style="fill:#ea7a00"/><path d="M283.89,52.37a71.63,71.63,0,0,1,23.42,2.91c7.44,2.22,13.79,6.14,20.6,9.7a56.52,56.52,0,0,0,40.39,4.35,1.32,1.32,0,0,0-.35-2.58c-7.65,0-15.33.75-22.95-.31-8.15-1.13-14.86-4.62-22-8.45a68.66,68.66,0,0,0-39.11-8.24c-1.66.14-1.71,2.69,0,2.62Z" transform="translate(21.95)" style="fill:#ea7a00"/></g><path d="M154.43,337c0,5-10,52,30,77s93,19,101,14-90-41-17-98Z" transform="translate(21.95)" style="fill:#ff8b00"/><g style="clip-path:url(#clip-path-2)"><path d="M203.45,370.65c17.08,8,38.59,7,56.11.77,1.83-.65,1.7-3.7-.49-3.59-9.22.48-18.22,2.75-27.48,3.2s-18.07-.44-26.62-4c-2-.84-3.53,2.66-1.52,3.6Z" transform="translate(21.95)" style="fill:#ea7a00"/><path d="M208.72,392.6c19,4.52,38.29,9.79,57.7,4a1.22,1.22,0,0,0-.65-2.35c-18.79,2.67-38.14.43-56.73-2.83-.76-.14-1.1,1-.32,1.17Z" transform="translate(21.95)" style="fill:#ea7a00"/><path d="M225.18,417.82c24.54,10.53,54.09,14.87,79.32,4,2.22-1,.55-4.09-1.55-3.69-25.91,5-51.61,7.1-76.87-2.44-1.23-.47-2.12,1.62-.9,2.14Z" transform="translate(21.95)" style="fill:#ea7a00"/></g><path d="M2,207.74a20.61,20.61,0,0,1,1.34-20C23.43,156.71,95.16,62,220.51,62c149.85,0,280.12,135.38,280.12,135.38S384.83,360,222.21,360C84.61,360,18.94,243.57,2,207.74Z" transform="translate(21.95)" style="fill:#ff8b00"/><g style="clip-path:url(#clip-path-3)"><path d="M35.43,84s95,31,91,127c-3.83,92-109,119-109,119s-55-121-35-164S35.43,84,35.43,84Z" transform="translate(21.95)" style="fill:#ffaa39"/><path d="M97.43,82s150-13,200,34,70,111,64,146-116,118-278,56c0,0,47,48,98,63s188-3,217-29,122-125,122-164-108-144-178-147S97.43,82,97.43,82Z" transform="translate(21.95)" style="fill:#d85107;opacity:0.35000000000000003"/><circle cx="97.38" cy="177" r="8" style="fill:#232533"/></g><path d="M501.17,177.16S521.51,79.68,597.8,62.73,712.23,177.16,759.7,189c0,0-35.6,45.77-101.72,11,0,0,15.26,188.17,125.45,214.45,0,0-119.36,193-305.15,82.22C394.36,446.71,501.17,177.16,501.17,177.16Z" transform="translate(21.95)" style="fill:#ff8b00"/><g style="clip-path:url(#clip-path-4)"><path d="M632,140.16c10.61,14.48,14.78,32.24,19.92,49.15,4.56,15,10.12,33.17,23.7,42.54,1.52,1.05,3.6-1,2.56-2.57-4.66-6.87-9.44-13.5-12.95-21.09a240,240,0,0,1-9.46-25.14c-5.25-15.77-10.84-31.6-21.86-44.37-.89-1-2.73.35-1.91,1.48Z" transform="translate(21.95)" style="fill:#ea7a00"/><path d="M630.11,265.53c10.27,25.43,13.73,52.88,17.09,79.93s5.49,54.19,11.1,80.84c9.87,46.8,32.77,91.65,77.58,113.14A208.5,208.5,0,0,0,813,559.18c3,.16,3.4-4.26.68-5.07-22.36-6.65-45.57-9.57-67.29-18.51s-40.55-23.46-54.08-42.91c-29.52-42.42-33.12-95.55-39.87-145.16-3.85-28.31-10.28-56-21.66-82.29-.16-.39-.84-.11-.68.29Z" transform="translate(21.95)" style="fill:#ea7a00"/><path d="M595.79,267.37c2.09,52.69-16.43,103.69-16.33,156.32.09,42.8,14.12,88.6,51.85,112.85,20.4,13.11,44.36,20.06,68,24.58a1.78,1.78,0,0,0,.94-3.43c-19.55-7.38-39.87-13.26-58.05-23.8a103.53,103.53,0,0,1-41.85-44.55c-21-43-13.75-92.36-8-137.95,3.52-28,6.49-55.8,4.13-84,0-.42-.68-.43-.66,0Z" transform="translate(21.95)" style="fill:#ea7a00"/><path d="M555,299.09c-1,20.88-6.16,41.62-11.49,61.77-5.27,19.88-12,39.28-18.79,58.68-6.54,18.7-12.63,37.8-13.54,57.75a114.51,114.51,0,0,0,8.81,48.9,104.76,104.76,0,0,0,33.54,43.25c2.42,1.85,5.43-2.15,3.23-4.2-24-22.38-39.25-54.86-38.08-87.95.7-19.84,6.87-39.07,12.91-57.82s11.9-37.32,16.48-56.37c5.08-21.13,7.22-42.33,8-64,0-.67-1-.66-1,0Z" transform="translate(21.95)" style="fill:#ea7a00"/><path d="M527.59,261.45a554.67,554.67,0,0,1-21.16,58.86c-8,19.27-17.83,37.66-27.32,56.21C461.43,411.07,444.33,447.64,442,487c-1.22,20.79,1.77,41.47,11.36,60.11,1.19,2.32,5.25.7,4.28-1.81-13.62-35.49-9.57-74.28,2.62-109.56,12.88-37.33,33.55-71.39,48.21-108,8.61-21.49,14.4-43.6,19.9-66a.42.42,0,0,0-.82-.22Z" transform="translate(21.95)" style="fill:#ea7a00"/><path d="M534.43,48c22-6,89,61,75.5,136.5s41.5,217.5,29,272-133.5,44.5-193-13c0,0-1.5,66.5,28,80s266.5,16.5,316-68,14.5-125.5-32-152-63.5-80.5-35-85,97.5-46.5,72-66S682.43,2,620.93,12.5,534.43,48,534.43,48Z" transform="translate(21.95)" style="fill:#d85107;opacity:0.35000000000000003"/></g></g></g></g></svg>