<svg xmlns="http://www.w3.org/2000/svg" xmlns:xlink="http://www.w3.org/1999/xlink" viewBox="0 0 783.53 469.9"><defs><clipPath id="clip-path" transform="translate(16.2 23.27)"><path d="M264.55,103.73s-233-43-253-36-34,53,137,108,152,165,226,206,258.63-8.16,388,63c40,22-184-154-184-154Z" style="fill:#4d88ce"/></clipPath><clipPath id="clip-path-2" transform="translate(16.2 23.27)"><path d="M264.55,103.73s124-152,269-88c142.79,63,45,275,45,275S270.55,223.73,264.55,103.73Z" style="fill:#4d88ce"/></clipPath><clipPath id="clip-path-3" transform="translate(16.2 23.27)"><path d="M251.32,104.48s14.23-31.75,31.23-33.75,22,33,112,95,192.48,73,202,78c17,9-4,57-13,58S426,261.86,343.27,202.29,245.1,116.23,251.32,104.48Z" style="fill:#ffba1f"/></clipPath><clipPath id="clip-path-4" transform="translate(16.2 23.27)"><path d="M527.79,278.09s19.41,30.27,12.87,47.34-28.19,26.73-41.32,18.43,3.26-8.53-2.24-36.74-7.93-38.93-5.75-44.62S527.79,278.09,527.79,278.09Z" style="fill:#ffba1f"/></clipPath><clipPath id="clip-path-5" transform="translate(16.2 23.27)"><path d="M400.46,229.31s-34.66,9.57-41.2,26.64,3.12,38.72,18.43,41.32,3.27-8.54,26.22-25.85,31.91-23.67,34.09-29.36S400.46,229.31,400.46,229.31Z" style="fill:#ffba1f"/></clipPath><clipPath id="clip-path-6" transform="translate(16.2 23.27)"><path d="M470.34,219.37s-20-50.07-48.31-52.76-38.75,58.57-33.27,65.56,30.33,23,68.93,11.72l6.1-18s-46.07-16-44.68-36.7,32.81-.48,46.86,31Z" style="fill:#ffba1f"/></clipPath><clipPath id="clip-path-7" transform="translate(16.2 23.27)"><path d="M482.43,224s48.32-23.92,71.2-7-10.29,69.47-19,71-38-3.12-59.12-37.33L483,233.19s45,18.86,57.76,2.55-24.09-22.28-55.58-8.24Z" style="fill:#ffba1f"/></clipPath><clipPath id="clip-path-8" transform="translate(16.2 23.27)"><ellipse cx="470.31" cy="236.49" rx="22.09" ry="18.28" transform="translate(81.24 591.09) rotate(-69.04)" style="fill:#ffba1f"/></clipPath></defs><g id="Layer_2" data-name="Layer 2"><g id="hat"><g id="Layer_4" data-name="Layer 4"><path d="M264.55,103.73s-233-43-253-36-34,53,137,108,152,165,226,206,258.63-8.16,388,63c40,22-184-154-184-154Z" transform="translate(16.2 23.27)" style="fill:#4d88ce"/><g style="clip-path:url(#clip-path)"><path d="M11.55,67.73s81,32,141,72S276.07,263,276.07,263L96.55,175.73s-123.46-52.49-112-84C-7.45,69.73,11.55,67.73,11.55,67.73Z" transform="translate(16.2 23.27)" style="fill:#2874bf"/></g><path d="M264.55,103.73s124-152,269-88c142.79,63,45,275,45,275S270.55,223.73,264.55,103.73Z" transform="translate(16.2 23.27)" style="fill:#4d88ce"/><g style="clip-path:url(#clip-path-2)"><path d="M408.55-.27s116-1,140,85-70,182-186,162c0,0,16,42,87,62s194-15,194-15l-14-214-79-95-127-8Z" transform="translate(16.2 23.27)" style="fill:#2874bf"/></g><path d="M251.32,104.48s14.23-31.75,31.23-33.75,22,33,112,95,192.48,73,202,78c17,9-4,57-13,58S426,261.86,343.27,202.29,245.1,116.23,251.32,104.48Z" transform="translate(16.2 23.27)" style="fill:#ffba1f"/><g style="clip-path:url(#clip-path-3)"><path d="M437.55,153.73s-33,66-113,60l109,67,116,42,62-21v-64Z" transform="translate(16.2 23.27)" style="fill:#d67500"/></g><path d="M527.79,278.09s19.41,30.27,12.87,47.34-28.19,26.73-41.32,18.43,3.26-8.53-2.24-36.74-7.93-38.93-5.75-44.62S527.79,278.09,527.79,278.09Z" transform="translate(16.2 23.27)" style="fill:#ffba1f"/><g style="clip-path:url(#clip-path-4)"><path d="M537.55,291.73s3,52-45,43l-2,7,18,7,19-2,17-14,5-14Z" transform="translate(16.2 23.27)" style="fill:#f78f1e"/></g><path d="M400.46,229.31s-34.66,9.57-41.2,26.64,3.12,38.72,18.43,41.32,3.27-8.54,26.22-25.85,31.91-23.67,34.09-29.36S400.46,229.31,400.46,229.31Z" transform="translate(16.2 23.27)" style="fill:#ffba1f"/><g style="clip-path:url(#clip-path-5)"><path d="M437.55,253.73s-61,2-68-17,44-19,44-19l39,15Z" transform="translate(16.2 23.27)" style="fill:#f78f1e"/></g><path d="M470.34,219.37s-20-50.07-48.31-52.76-38.75,58.57-33.27,65.56,30.33,23,68.93,11.72l6.1-18s-46.07-16-44.68-36.7,32.81-.48,46.86,31Z" transform="translate(16.2 23.27)" style="fill:#ffba1f"/><g style="clip-path:url(#clip-path-6)"><path d="M454,249.8s-71.39-56.28-31.32-68.14c2.57-.76,47.35,41.48,47.35,41.48l-.74,23.38L454,249.8" transform="translate(16.2 23.27)" style="fill:#f78f1e"/></g><path d="M482.43,224s48.32-23.92,71.2-7-10.29,69.47-19,71-38-3.12-59.12-37.33L483,233.19s45,18.86,57.76,2.55-24.09-22.28-55.58-8.24Z" transform="translate(16.2 23.27)" style="fill:#ffba1f"/><g style="clip-path:url(#clip-path-7)"><path d="M525.26,210.75s31.79-.83,29.33,26.71-35.16,48.07-69.8,29.32l17.54,19.42,29.21,11.3,15.12-13.86,16.21-27.83,5-37.73-28.51-20.27-14,12.94" transform="translate(16.2 23.27)" style="fill:#f78f1e"/></g><ellipse cx="470.31" cy="236.49" rx="22.09" ry="18.28" transform="translate(97.44 614.37) rotate(-69.04)" style="fill:#ffba1f"/><g style="clip-path:url(#clip-path-8)"><path d="M459.68,215.68S475,211.86,482,225.44s-13,38.1-31.17,26.66l17,13.36,15.34-3.82,13-38.11-25.07-13Z" transform="translate(16.2 23.27)" style="fill:#f78f1e"/></g></g></g></g></svg>