<svg xmlns="http://www.w3.org/2000/svg" xmlns:xlink="http://www.w3.org/1999/xlink" viewBox="0 0 772.83 684"><defs><clipPath id="clip-path" transform="translate(0 15.44)"><path d="M587.58,5.78C433.71-34,377.52,144.6,374.91,153.18,372.31,144.6,316.11-34,162.25,5.78,4.6,46.57-16.24,209.27,9,278.07,84,482.27,325.21,652.83,374.91,652.83c48.41.06,291-170.56,365.9-374.76C766.07,209.27,745.22,46.57,587.58,5.78Z" style="fill:#f23636"/></clipPath></defs><g style="isolation:isolate"><g id="Layer_2" data-name="Layer 2"><g id="Layer_3" data-name="Layer 3"><path d="M587.58,5.78C433.71-34,377.52,144.6,374.91,153.18,372.31,144.6,316.11-34,162.25,5.78,4.6,46.57-16.24,209.27,9,278.07,84,482.27,325.21,652.83,374.91,652.83c48.41.06,291-170.56,365.9-374.76C766.07,209.27,745.22,46.57,587.58,5.78Z" transform="translate(0 15.44)" style="fill:#f23636"/><g style="clip-path:url(#clip-path)"><path d="M396.83,54.56l-19,39s114.74-124.12,208-8c155,193-90,540-238,583l313-161,112-274-52-159-114-75-100-15Z" transform="translate(0 15.44)" style="fill:#c10505;opacity:0.46;mix-blend-mode:multiply"/><ellipse cx="138.78" cy="135.48" rx="39.36" ry="29.96" transform="translate(-53.89 173.12) rotate(-50.88)" style="fill:#fff;opacity:0.45"/><ellipse cx="100.13" cy="203.36" rx="21.21" ry="16.14" transform="translate(-125.82 237) rotate(-68.39)" style="fill:#fff;opacity:0.45"/></g></g></g></g></svg>