<svg xmlns="http://www.w3.org/2000/svg" xmlns:xlink="http://www.w3.org/1999/xlink" viewBox="0 0 793.33 742.07"><defs><clipPath id="clip-path" transform="translate(15.1)"><path d="M684.59,735.61,232.52,624.47c-10.76-2.51-24.05-9.16-21.54-19.91h0c2.51-10.76,18.49-9,29.25-6.53l453.45,98.62a20,20,0,0,1,14.93,24h0A20,20,0,0,1,684.59,735.61Z" style="fill:#a05000"/></clipPath><clipPath id="clip-path-2" transform="translate(15.1)"><path d="M44.65,515.28C36.26,513.64,9,542.66,1.91,570.21c-9.06,35.21,16.72,61.74,22,62.66s13-48.77,16-64.13C44.84,543.58,53,516.92,44.65,515.28Z" style="fill:#ea7a00"/></clipPath><clipPath id="clip-path-3" transform="translate(15.1)"><path d="M102.63,499.3c-4.39-6.22-25-7.14-32.76-.2S53,553.28,49.62,575.88c0,0-5.44,26-10.94,57.85s23,38.85,28.56,37.54S75.43,644.6,81,622.2,107,505.52,102.63,499.3Z" style="fill:#ea7a00"/></clipPath><clipPath id="clip-path-4" transform="translate(15.1)"><path d="M163.27,513.74c-1.44-9.11-36.71-23.74-43-17-8.91,9.57-11,47-19.35,77.83,0,0-6.45,29.49-11.5,66.31s-.7,41.26,15.42,41.79,18.48-10.94,28.83-46.84S164.71,522.85,163.27,513.74Z" style="fill:#ea7a00"/></clipPath><clipPath id="clip-path-5" transform="translate(15.1)"><path d="M179.74,520.93c-10.42-4.07-10.22,15.69-15.27,45.79,0,0-13.5,56.27-18,77s-9.24,28.37-5,31,35.38-4.06,39-10,30.67-103.24,31.13-113.53S190.15,525,179.74,520.93Z" style="fill:#ea7a00"/></clipPath><clipPath id="clip-path-6" transform="translate(15.1)"><path d="M219.37,565.28c-3.08-.72-9.24,28.37-10.36,35.9,0,0-14.22,44.09-8.87,47.53s29.05-11.63,36.26-42.42S222.45,566,219.37,565.28Z" style="fill:#ea7a00"/></clipPath></defs><g style="isolation:isolate"><g id="Layer_2" data-name="Layer 2"><g id="Layer_3" data-name="Layer 3"><g id="Layer_4" data-name="Layer 4"><path d="M775.77,216.74c-21-76-100-144-100-144s-149,27-220,27-230-27-230-27-79,68-100,144c-18.25,66.07,70.81,358.13,94.39,433.31a41.05,41.05,0,0,0,24.12,25.88c31.65,12.48,103.39,34.81,211.49,34.81,105.22,0,171.08-21.16,201-33.79a43.76,43.76,0,0,0,24.7-27.25C705.23,574,794,282.71,775.77,216.74Z" transform="translate(15.1)" style="fill:#f4ddc1;opacity:0.73"/><path d="M242.68.23c55.36,8.8,254.75,36,415.12,1a17.79,17.79,0,0,1,20.88,12.37c4.82,16.41,8.74,42-5.85,59.13,0,0-188,75-445,0,0,0-15.84-24.88-6.25-58.94A18.86,18.86,0,0,1,242.68.23Z" transform="translate(15.1)" style="fill:#f4ddc1;opacity:0.73"/><polygon points="161.38 333.74 245.38 652.74 686.38 652.74 770.38 333.74 161.38 333.74" style="fill:#ffd522"/><path d="M671.27,648.74c0,22.64-94,49-215.78,49s-225.22-26.36-225.22-49,98.72-41,220.5-41S671.27,626.1,671.27,648.74Z" transform="translate(15.1)" style="fill:#ffd522"/><ellipse cx="465.88" cy="333.74" rx="304.5" ry="41" style="fill:#ffba1f"/><path d="M247.27,107.74c-29-.51-77,90-72,156s81,389,101,398-48-319.87-29.5-358.44S360.27,109.74,247.27,107.74Z" transform="translate(15.1)" style="fill:#fff;opacity:0.49"/><path d="M684.59,735.61,232.52,624.47c-10.76-2.51-24.05-9.16-21.54-19.91h0c2.51-10.76,18.49-9,29.25-6.53l453.45,98.62a20,20,0,0,1,14.93,24h0A20,20,0,0,1,684.59,735.61Z" transform="translate(15.1)" style="fill:#a05000"/><g style="clip-path:url(#clip-path)"><path d="M678.27,682.74c2,4,25,31,0,35s-487-108-487-108l20.37,39.45,493.47,92.88,10.16-48.33Z" transform="translate(15.1)" style="fill:#843f00"/></g><path d="M18.51,567.29S33.84,515.67,80.68,514s90,2.57,144,67.49L206.85,641s-17.32,19.68-55.58,20.79-90.27,2.21-132-54Z" transform="translate(15.1)" style="fill:#a05000"/><path d="M44.65,515.28C36.26,513.64,9,542.66,1.91,570.21c-9.06,35.21,16.72,61.74,22,62.66s13-48.77,16-64.13C44.84,543.58,53,516.92,44.65,515.28Z" transform="translate(15.1)" style="fill:#ea7a00"/><g style="clip-path:url(#clip-path-2)"><path d="M238.27,575.74s-31,85-125,60S15.11,599.07,2.11,570.07c0,0-23,38,30,86,29.06,26.31,114.1,34.84,143,22C211.11,662.07,260.27,607.74,238.27,575.74Z" transform="translate(15.1)" style="fill:#c15c00"/><path d="M19.27,548.74c-.22-6.17,24.73-44.79,90-43s89,50,66,77S21.13,599.92,19.27,548.74Z" transform="translate(15.1)" style="fill:#ff9239"/></g><path d="M102.63,499.3c-4.39-6.22-25-7.14-32.76-.2S53,553.28,49.62,575.88c0,0-5.44,26-10.94,57.85s23,38.85,28.56,37.54S75.43,644.6,81,622.2,107,505.52,102.63,499.3Z" transform="translate(15.1)" style="fill:#ea7a00"/><g style="clip-path:url(#clip-path-3)"><path d="M238.27,575.74s-31,85-125,60S15.11,599.07,2.11,570.07c0,0-31,38,22,83s131,41,157,23S260.27,607.74,238.27,575.74Z" transform="translate(15.1)" style="fill:#c15c00"/><path d="M19.27,548.74c-.22-6.17,24.73-44.79,90-43s89,50,66,77S21.13,599.92,19.27,548.74Z" transform="translate(15.1)" style="fill:#ff9239"/></g><path d="M163.27,513.74c-1.44-9.11-36.71-23.74-43-17-8.91,9.57-11,47-19.35,77.83,0,0-6.45,29.49-11.5,66.31s-.7,41.26,15.42,41.79,18.48-10.94,28.83-46.84S164.71,522.85,163.27,513.74Z" transform="translate(15.1)" style="fill:#ea7a00"/><g style="clip-path:url(#clip-path-4)"><path d="M238.27,575.74s-31,85-125,60-109-55-122-84c0,0-26,82,27,127s162,40,188,22S260.27,607.74,238.27,575.74Z" transform="translate(15.1)" style="fill:#c15c00"/><path d="M19.27,548.74c-.22-6.17,24.73-44.79,90-43s89,50,66,77S21.13,599.92,19.27,548.74Z" transform="translate(15.1)" style="fill:#ff9239"/></g><path d="M179.74,520.93c-10.42-4.07-10.22,15.69-15.27,45.79,0,0-13.5,56.27-18,77s-9.24,28.37-5,31,35.38-4.06,39-10,30.67-103.24,31.13-113.53S190.15,525,179.74,520.93Z" transform="translate(15.1)" style="fill:#ea7a00"/><g style="clip-path:url(#clip-path-5)"><path d="M238.27,575.74s-31,85-125,60-109-55-122-84c0,0-26,82,27,127s162,40,188,22S260.27,607.74,238.27,575.74Z" transform="translate(15.1)" style="fill:#c15c00"/><path d="M19.27,548.74c-.22-6.17,24.73-44.79,90-43s89,50,66,77S21.13,599.92,19.27,548.74Z" transform="translate(15.1)" style="fill:#ff9239"/></g><path d="M219.37,565.28c-3.08-.72-9.24,28.37-10.36,35.9,0,0-14.22,44.09-8.87,47.53s29.05-11.63,36.26-42.42S222.45,566,219.37,565.28Z" transform="translate(15.1)" style="fill:#ea7a00"/><g style="clip-path:url(#clip-path-6)"><path d="M238.27,575.74s-31,85-125,60-109-55-122-84c0,0-26,82,27,127s162,40,188,22S260.27,607.74,238.27,575.74Z" transform="translate(15.1)" style="fill:#c15c00"/></g><path d="M671.27,97.74c-26,6-86,17-200,19,0,0,77,192,85,295S482.71,686,482.71,686s98.11,3.67,164.83-36.79S755.65,259.76,755.27,234.74C754.27,167.74,671.27,97.74,671.27,97.74Z" transform="translate(15.1)" style="fill:#ffd522;opacity:0.25;mix-blend-mode:multiply"/><path d="M305.5,413.52c7.66,0,7.67-11.91,0-11.91s-7.68,11.91,0,11.91Z" transform="translate(15.1)" style="fill:#ffba1f"/><path d="M300.74,432.53c7.66,0,7.68-11.91,0-11.91s-7.67,11.91,0,11.91Z" transform="translate(15.1)" style="fill:#ffba1f"/><path d="M341.15,415.89c7.66,0,7.67-11.9,0-11.9s-7.68,11.9,0,11.9Z" transform="translate(15.1)" style="fill:#ffba1f"/><path d="M274.6,402.82c7.66,0,7.67-11.91,0-11.91s-7.68,11.91,0,11.91Z" transform="translate(15.1)" style="fill:#f78f1e"/><path d="M481.38,429c7.66,0,7.67-11.9,0-11.9s-7.68,11.9,0,11.9Z" transform="translate(15.1)" style="fill:#f78f1e"/><path d="M348.28,559.69c7.66,0,7.67-11.91,0-11.91s-7.68,11.91,0,11.91Z" transform="translate(15.1)" style="fill:#f78f1e"/><path d="M471.87,590.58c7.66,0,7.67-11.9,0-11.9s-7.67,11.9,0,11.9Z" transform="translate(15.1)" style="fill:#f78f1e"/><path d="M200.92,478.88c7.66,0,7.67-11.91,0-11.91s-7.68,11.91,0,11.91Z" transform="translate(15.1)" style="fill:#f78f1e"/><path d="M543.17,387.37c7.66,0,7.68-11.9,0-11.9s-7.67,11.9,0,11.9Z" transform="translate(15.1)" style="fill:#f78f1e"/><path d="M349.47,577.21c5.74,0,5.75-8.93,0-8.93s-5.76,8.93,0,8.93Z" transform="translate(15.1)" style="fill:#f78f1e"/><path d="M499.2,423.61c3.83,0,3.84-5.95,0-5.95s-3.84,5.95,0,5.95Z" transform="translate(15.1)" style="fill:#f78f1e"/><path d="M504,607.81c3.83,0,3.83-5.95,0-5.95s-3.84,5.95,0,5.95Z" transform="translate(15.1)" style="fill:#f78f1e"/><path d="M319.76,672c3.83,0,3.83-6,0-6s-3.84,6,0,6Z" transform="translate(15.1)" style="fill:#f78f1e"/><path d="M191.41,433.12c3.83,0,3.84-5.95,0-5.95s-3.84,5.95,0,5.95Z" transform="translate(15.1)" style="fill:#f78f1e"/><path d="M400.57,430.74c3.83,0,3.83-5.95,0-5.95s-3.84,5.95,0,5.95Z" transform="translate(15.1)" style="fill:#f78f1e"/><path d="M527.72,513.93c3.83,0,3.84-5.95,0-5.95s-3.83,5.95,0,5.95Z" transform="translate(15.1)" style="fill:#f78f1e"/><path d="M610.91,459.26c3.83,0,3.84-5.95,0-5.95s-3.84,5.95,0,5.95Z" transform="translate(15.1)" style="fill:#f78f1e"/><path d="M631.11,542.45c3.83,0,3.84-6,0-6s-3.83,6,0,6Z" transform="translate(15.1)" style="fill:#f78f1e"/><path d="M695.28,431.93c3.84,0,3.84-5.95,0-5.95s-3.83,5.95,0,5.95Z" transform="translate(15.1)" style="fill:#f78f1e"/><path d="M553.87,612.56c3.83,0,3.83-5.95,0-5.95s-3.84,5.95,0,5.95Z" transform="translate(15.1)" style="fill:#f78f1e"/><path d="M678.65,511.85c5.74,0,5.75-8.93,0-8.93s-5.76,8.93,0,8.93Z" transform="translate(15.1)" style="fill:#f78f1e"/><path d="M575.26,620c5.74,0,5.75-8.93,0-8.93s-5.76,8.93,0,8.93Z" transform="translate(15.1)" style="fill:#f78f1e"/><path d="M628.74,400.14c5.74,0,5.75-8.93,0-8.93s-5.76,8.93,0,8.93Z" transform="translate(15.1)" style="fill:#f78f1e"/></g></g></g></g></svg>