<svg xmlns="http://www.w3.org/2000/svg" xmlns:xlink="http://www.w3.org/1999/xlink" viewBox="0 0 1885.65 1559.66"><defs><clipPath id="clip-path" transform="translate(0 44.29)"><path d="M305.45,1168.21s-128,3-177,23-60,89,23,85,205.5,3.5,172.5,21.5-94.5,14.5-67.5,62.5,113,160,516,155,523-29,439-54,2-41,69-25,306,40,395-14,3.5-69.5-67.5-90.5,39.5-42.5,139.5-48.5,258-105-120-128S305.45,1168.21,305.45,1168.21Z" style="fill:#5ae7ff"/></clipPath><clipPath id="clip-path-2" transform="translate(0 44.29)"><path d="M1690.45,1142.21s-28,81-32,90-52,43-110,29l15-115Z" style="fill:#21bcf0"/></clipPath><clipPath id="clip-path-3" transform="translate(0 44.29)"><path d="M215.45,1114.21s19,58,22,79,33,39,68,40,61-15,61-15l-12-91Z" style="fill:#21bcf0"/></clipPath><clipPath id="clip-path-4" transform="translate(0 44.29)"><path d="M603.45,1167.21l18,116s67,53,138,24l2-121Z" style="fill:#21bcf0"/></clipPath><clipPath id="clip-path-5" transform="translate(0 44.29)"><path d="M1314.45,1168.21l-14,132s221,47,260-34c0,0,0-69,14-115Z" style="fill:#21bcf0"/></clipPath><clipPath id="clip-path-6" transform="translate(0 44.29)"><path d="M323.45,1130.21l19.46,99.43s47.54,57.57,131.54,65.57,147-12,147-12l-18-116Z" style="fill:#21bcf0"/></clipPath><clipPath id="clip-path-7" transform="translate(0 44.29)"><path d="M761.45,1185.21l-2,123s49,85,283,72,258-80,258-80l14-132Z" style="fill:#21bcf0"/></clipPath><clipPath id="clip-path-8" transform="translate(0 44.29)"><path d="M1123.45,908.21c-208-8-585,5-751,63s-191,94-208,110-30.75,75.65,159.12,62.33c0,0,97.88,68.67,271.88,37.67,0,0,18,39,157,26,0,0,60,36,265,36s314-52,314-52,115,32,251-17c0,0,86,6,133-44,0,0,129.61-90-141-159C1319.45,906.21,1123.45,908.21,1123.45,908.21Z" style="fill:#a6e6fe"/></clipPath><clipPath id="clip-path-9" transform="translate(0 44.29)"><polygon points="673.93 985.29 602.95 649.71 680.76 384.41 955.95 278.71 1299.95 384.71 1333.17 714.25 1267.95 1001.71 1191.95 1011.71 673.93 985.29" style="fill:#27497a"/></clipPath><clipPath id="clip-path-10" transform="translate(0 44.29)"><path d="M1374.45,900.21s46,1,58,19,58,22,77,28,64,23,51,29-61-12-92-6-113,7-113,7Z" style="fill:#e7f6fb"/></clipPath><clipPath id="clip-path-11" transform="translate(0 44.29)"><path d="M363.45,982.21c-11-5-19-13,10-22s84-18,95-31,43.61-40.77,69.8-39.88,65.2,39.88,70.2,48.88,0,72,0,72-116,10-146,6-63-23-78-28S363.45,982.21,363.45,982.21Z" style="fill:#e7f6fb"/></clipPath><clipPath id="clip-path-12" transform="translate(0 44.29)"><path d="M572.45,1026.21c-2-8-172-592-74-786s779.26-393.41,975,81c59,143-107,690-107,690h-172s205-547-230-547-192,547-192,547Z" style="fill:#97f2ff"/></clipPath><clipPath id="clip-path-13" transform="translate(0 44.29)"><path d="M720.52,1015.1S601.45,783.21,661.45,587.21s225.67-225.8,344.83-225.8,242.17,85.8,283.17,229.8-50,423.89-50,423.89l-102,11.11Z" style="fill:#7ae5f5"/></clipPath><clipPath id="clip-path-14" transform="translate(0 44.29)"><path d="M474.45,396.21c-10.71,2.52-21-12-15-48s-48-110-9-147,114-91,133-112,100-34,122-48,75-44,118-41,107,20.27,122,30.13S877.22,48.18,858.33,64.2s-65.88,97-75.88,134-89,35-127,77-128,51-144,73S491.45,392.21,474.45,396.21Z" style="fill:#e7f6fb"/></clipPath><clipPath id="clip-path-15" transform="translate(0 44.29)"><path d="M1119.45,61.21c-20-7-47-20-6-30s77,13,101,15,65,21,81,35,50,45,51,56-40-19-70-18-47-8-74-23S1119.45,61.21,1119.45,61.21Z" style="fill:#c5effb"/></clipPath><clipPath id="clip-path-16" transform="translate(0 44.29)"><path d="M632.45,1026.21s77,9,89,5,36-9,48-8,43.89.72,48.45-6.64-41.45-14.36-65.45-16.36-23-7-54-9-72-6-77,8S632.45,1026.21,632.45,1026.21Z" style="fill:#edfcff"/></clipPath><clipPath id="clip-path-17" transform="translate(0 44.29)"><path d="M653.45,1040.21c-26.94-2.65-60,0-83,2s-113,11-101-3,27-32,51-37,66.47,3.92,87.74,0,50.26,3,66.26,12S714.45,1046.21,653.45,1040.21Z" style="fill:#e7f6fb"/></clipPath><clipPath id="clip-path-18" transform="translate(0 44.29)"><path d="M354.45,1114.21c-27,1-52-2-36-20s35-35,58-33,41,9,56,7,52-10,50,6-36,23-60,27S354.45,1114.21,354.45,1114.21Z" style="fill:#e7f6fb"/></clipPath><clipPath id="clip-path-19" transform="translate(0 44.29)"><path d="M1170.45,1031.21c-14-.88-32-11-11-30s60-58,94-60,81,15,119,18,126,15,146,32,30,42-76,40-159-10-192-7S1186.45,1032.21,1170.45,1031.21Z" style="fill:#e7f6fb"/></clipPath><clipPath id="clip-path-20" transform="translate(0 44.29)"><path d="M1250.45,1065.21c3.58-12.54,17-19,35-16s41,11,62,8,57-5,47,5-53,13-87,13S1246.45,1079.21,1250.45,1065.21Z" style="fill:#e7f6fb"/></clipPath><clipPath id="clip-path-21" transform="translate(0 44.29)"><path d="M1319.52,817.58c-8.06-16.26-41.3-99.94-46.64-157.56s-33.78-71.48-52.61-88.81-83.72-80-71.4-122.44,82-22,110.49,16.75,27.19,63.33,33.13,163.26,30.4,133.82,43.73,149.8,33.79,36.12,21.8,50S1327.61,833.9,1319.52,817.58Z" style="fill:#e68d00"/></clipPath><clipPath id="clip-path-22" transform="translate(0 44.29)"><path d="M1155,464.43c.88,14.37,16.14,55.56,53.34,83.76s56.7,15.55,59-5-23.49-77.71-66.74-96.66S1153.85,446,1155,464.43Z" style="fill:#ffb94d"/></clipPath><clipPath id="clip-path-23" transform="translate(0 44.29)"><path d="M1302,681c-9.84-4.92-33-12-38-4s2.29,90.7,47.24,57.06C1318,729,1318,689,1302,681Z" style="fill:#fff"/></clipPath><clipPath id="clip-path-24" transform="translate(0 44.29)"><path d="M803.24,939.58s15.34-23.86,15.34-39.2S793,658.32,895.29,619.12s206.26-15.35,209.66,104,27.28,143.18,27.28,143.18-11.93-1.7-18.75-10.22c0,0-1.71,23.86,29,80.11,0,0-13.64,0-25.57-15.34,0,0-1.71,34.09,25.57,69.89,0,0-13.64,6.82-20.46-5.11,0,0,6.82,35.79,20.46,56.25s10.22,37.5,10.22,37.5-17-6.82-22.16-17c0,0,11.94,40.91,18.75,58,0,0-27.27-8.52-34.09-15.34,0,0,1.71,11.93,6.82,15.34,0,0-25.57-6.82-34.09-13.64,0,0,6.82,11.94,6.82,18.75,0,0-32.39-6.81-39.21-13.63,0,0,5.12,10.22,5.12,17,0,0-22.16-18.75-27.28-15.34s-10.23,15.34-10.23,15.34-1.7-13.63-8.52-17c0,0-6.82,15.34-13.64,15.34,0,0-8.52-8.52-10.22-13.64,0,0-3.41,11.93-6.82,11.93,0,0-6.82-15.34-13.64-15.34,0,0-1.7,13.64,1.71,20.46,0,0-18.76-10.23-22.16-20.46,0,0-11.94,13.64-10.23,18.75,0,0-15.34-13.63-17.05-18.75,0,0-8.52,17-15.34,18.75,0,0-11.93-11.93-11.93-17,0,0-8.52,15.34-17,17,0,0,0-13.63-5.11-18.75,0,0-15.34,18.75-29,18.75,0,0,6.82-15.34,5.11-22.16,0,0-25.57,17-40.91,18.75,0,0,6.82-13.63,6.82-22.16,0,0-15.34,11.94-30.68,13.64,0,0,29-30.68,39.2-64.77,0,0-5.11,5.11-15.34,3.41,0,0,17-29,20.46-49.44,0,0-5.12,6.82-13.64,8.52,0,0,10.23-49.43,10.23-61.36a34.42,34.42,0,0,1-17,8.52s11.94-23.86,13.64-34.09C822,927.65,815.17,939.58,803.24,939.58Z" style="fill:#fff"/></clipPath><clipPath id="clip-path-25" transform="translate(0 44.29)"><path d="M900.4,719.69s22.14,22.16,88.64,22.16c46,0,69.89-29,69.89-29s6.82,86.93-29,100.57S922.56,822,910.63,801.51,900.4,719.69,900.4,719.69Z" style="fill:#2b5a9e"/></clipPath><clipPath id="clip-path-26" transform="translate(0 44.29)"><path d="M918,812.71s13-18,20-20,16,32,16,32S918,826.71,918,812.71Z" style="fill:#fff"/></clipPath><clipPath id="clip-path-27" transform="translate(0 44.29)"><path d="M1009,820.71s1-30,5-33,30,22,30,22S1020,825.71,1009,820.71Z" style="fill:#fff"/></clipPath><clipPath id="clip-path-28" transform="translate(0 44.29)"><path d="M919,727.71s2,24,10,28,25-21,25-21Z" style="fill:#fff"/></clipPath><clipPath id="clip-path-29" transform="translate(0 44.29)"><path d="M1008,735.71s12,17,22,18,9-31,9-31Z" style="fill:#fff"/></clipPath></defs><g id="Layer_2" data-name="Layer 2"><g id="igloo"><path d="M305.45,1168.21s-128,3-177,23-60,89,23,85,205.5,3.5,172.5,21.5-94.5,14.5-67.5,62.5,113,160,516,155,523-29,439-54,2-41,69-25,306,40,395-14,3.5-69.5-67.5-90.5,39.5-42.5,139.5-48.5,258-105-120-128S305.45,1168.21,305.45,1168.21Z" transform="translate(0 44.29)" style="fill:#5ae7ff"/><g style="clip-path:url(#clip-path)"><path d="M237,1160.71s-75,13-82,38,127,43,163,43-1.89,77.69,135,90c89,8,144.25-48.25,173-31,30,18,21,81,127,25,7.55-4,0,89,235,107s301-119,320-119,142.79,57.57,202,32c44-19,45-78,60-76s274-44,96.51-66.33c-105.88-13.32-157.51,29.33-157.51,29.33l-738,38Z" transform="translate(0 44.29)" style="fill:#0c64e0;opacity:0.36"/><path d="M1029,1478.41l31.33-.28a.15.15,0,0,0,0-.29l-31.33-.28a.43.43,0,0,0,0,.85Z" transform="translate(0 44.29)" style="fill:#9cf0ff"/><path d="M389.31,1320.57A231.63,231.63,0,0,0,347,1331.3c-11.51,4.14-24.82,9-27.5,22.49-5.93,29.88,27.46,44.65,48.3,56.8a548.65,548.65,0,0,0,166,64,846.74,846.74,0,0,0,89.53,13c29.23,2.78,58.52,3.51,87.84,4.63q94.3,3.58,188.64,2.72c17.26-.13,34.53-.39,51.79-.66,17.92-.28,35.87.19,53.78-.23s35.83-1.2,53.79-1.34,35.83-1.48,53.79-2.87a1,1,0,0,0,0-2c-15.27-1-30.52-2.32-45.82-2.38s-30.56,0-45.82-.72c-29.85-1.48-59.77-1.39-89.64-2.51-60.73-2.26-121.43-4.64-182.17-6.72-56.37-1.93-113-5.26-168.71-14.38s-108.65-27.31-159.94-50.69c-14.5-6.62-28.83-13.57-43.32-20.2q-11-5-21.89-10.15c-5.83-2.76-11.88-5.24-17-9.24-4.71-3.69-9.25-9.11-8-15.51,1.36-7.18,9.13-10.42,15.06-13.15a223.36,223.36,0,0,1,45.41-15.11c4.31-1,2.4-7.17-1.8-6.51Z" transform="translate(0 44.29)" style="fill:#b3f3ff"/><path d="M1574,1355.12c15.78-.77,31.1.78,46.13,5.75,12.36,4.08,31.65,12.6,23.58,29-6.11,12.45-23,14.89-35.35,16.39-15,1.83-30.27,2.85-45.34,3.49-31.72,1.35-63.72.75-95.43-.58-31.51-1.31-63.07-4.91-94.45-7.89-17.69-1.68-35.36-3.56-53-5.54-18.19-2-36.66-4.84-54.91-2.75-8.46,1-10.37,11.85-2,14.92,16.9,6.21,35.18,7.88,53,9.94,17.33,2,34.67,3.9,52,5.63,35.09,3.49,70,5,105.28,6.12,34.8,1.12,69.6.92,104.14-4a203.35,203.35,0,0,0,47.32-13c11.35-4.56,23.19-12.27,25.53-25.22,1.09-6,.48-12.59-4.17-17-5.29-5-13-7.18-19.69-9.36-16.9-5.47-34.83-8.89-52.63-9-2,0-2,3.19,0,3.09Z" transform="translate(0 44.29)" style="fill:#b3f3ff"/><path d="M750.94,1349.38a282.29,282.29,0,0,0,94.8,47.45c36.78,10.4,76.15,14,114.26,14.56,11,.17,22,.15,33,0,11.62-.12,23.45.27,35-1.23,5.91-.77,6-8.59,0-9.28-9.65-1.11-19.44-.73-29.15-.85s-19.43-.29-29.14-.6c-19.72-.62-39.44-1.41-59.08-3.36a456,456,0,0,1-104.92-23.28,208,208,0,0,1-52.64-27.08c-2.24-1.6-4.23,2-2.13,3.64Z" transform="translate(0 44.29)" style="fill:#9cf0ff"/><path d="M511,1322.09a287.18,287.18,0,0,0,56.61-1.54,242.66,242.66,0,0,0,26.2-4.77c7.76-1.91,18.82-3.87,23.89-10.61a3,3,0,0,0-1.77-4.34c-7.84-1.45-17.2,3.69-24.55,6.14-8.41,2.81-16.9,5.31-25.54,7.3a228.43,228.43,0,0,1-54.84,5.85c-1.28,0-1.25,1.88,0,2Z" transform="translate(0 44.29)" style="fill:#9cf0ff"/><path d="M116.3,1228.86c-4.15,4.21-4.33,10.36-1.73,15.51,3.56,7.05,11.52,9.77,18.85,10.82,20,2.87,41.35.64,60.76-4.45,4-1.06,3.34-8-1-7.46-15.11,1.76-30.34,3.44-45.56,3.69-6.76.11-14.08,1.32-20.71-.49s-12.87-8.9-8-15.58c1.15-1.57-1.34-3.38-2.65-2Z" transform="translate(0 44.29)" style="fill:#b3f3ff"/><path d="M1688.38,1229.65c4.06.37,8.33.9,11.79,3.26,5.15,3.53,5.29,9.24,1.24,13.78-5.38,6-14.71,7.86-22.34,8.75-8.91,1-17.8,1.57-26.66,3-9.27,1.52-19.4,3-27.34,8.24-3.24,2.15-3.26,8.12,1.18,9,12.1,2.38,26-1.48,37.68-4.79,10.41-3,22.24-5.93,31.32-12.05,6.73-4.54,11.69-12.14,9.83-20.5-1.67-7.49-9.67-10.18-16.25-12-2.3-.65-3,3.08-.45,3.31Z" transform="translate(0 44.29)" style="fill:#b3f3ff"/><path d="M1327.59,1322.37c31.3,10.2,65.11,12.2,97,3.38,1.93-.53,1.11-3.37-.83-3-31.64,6.42-64.34,6.15-95.39-3.12-1.74-.52-2.46,2.16-.75,2.72Z" transform="translate(0 44.29)" style="fill:#9cf0ff"/><path d="M1282.32,1343a50.12,50.12,0,0,0,21.51-17c.55-.78-.7-1.75-1.32-1a63.94,63.94,0,0,1-21.09,16.5c-1.05.49-.14,2,.9,1.54Z" transform="translate(0 44.29)" style="fill:#9cf0ff"/><path d="M1047.45,1408.19c20.25-.83,40.53-1,60.32-5.81,1.55-.37.88-2.62-.64-2.35-19.83,3.62-39.6,5-59.68,6.2-1.25.07-1.27,2,0,2Z" transform="translate(0 44.29)" style="fill:#9cf0ff"/><path d="M421.5,1298.67a226.49,226.49,0,0,0,35.22,12.66,1.27,1.27,0,0,0,.68-2.44c-11.85-3.57-23.75-7.21-35.25-11.76-.88-.35-1.52,1.15-.65,1.54Z" transform="translate(0 44.29)" style="fill:#9cf0ff"/><path d="M224.54,1195.53c-3.91,6.46-3.21,14.44.22,21,4.11,7.84,12.54,12.63,19.87,17,.68.41,1.27-.63.62-1-11.6-7.48-29.32-20.82-20.22-36.67a.28.28,0,0,0-.49-.29Z" transform="translate(0 44.29)" style="fill:#9cf0ff"/></g><path d="M1690.45,1142.21s-28,81-32,90-52,43-110,29l15-115Z" transform="translate(0 44.29)" style="fill:#21bcf0"/><g style="clip-path:url(#clip-path-2)"><path d="M1570.5,1175.37s42.45,5.34,70.45,2.34-5,54-18,66-74,17-74,17l13,18,87-28,18-18,28-90-49,19-62,7-13.45,6.66" transform="translate(0 44.29)" style="fill:#0089d4"/><path d="M1588.52,1208.68a209,209,0,0,1,9.6-35.69c.23-.65-.81-.93-1-.28a191.22,191.22,0,0,0-9.1,35.82c-.06.35.48.5.54.15Z" transform="translate(0 44.29)" style="fill:#0089d4"/><path d="M1596.49,1239.87c3.72-26.57,10.86-52.26,17.32-78.23a.77.77,0,0,0-1.49-.41c-10.34,24.78-14.73,51.89-16.89,78.5,0,.6,1,.75,1.06.14Z" transform="translate(0 44.29)" style="fill:#0089d4"/><path d="M1620.22,1226.26c-3.78,10.34-8,21.48-8,32.63a.66.66,0,0,0,1.29.17c2.92-10.8,4-21.89,7.53-32.58.18-.52-.62-.73-.81-.22Z" transform="translate(0 44.29)" style="fill:#0089d4"/><path d="M1639.23,1199.77c3.85-13.52,8.58-27.13,11.12-41a.63.63,0,0,0-1.22-.34c-4.84,13.21-7.68,27.34-11.22,41a.68.68,0,0,0,1.32.36Z" transform="translate(0 44.29)" style="fill:#0089d4"/></g><path d="M215.45,1114.21s19,58,22,79,33,39,68,40,61-15,61-15l-12-91Z" transform="translate(0 44.29)" style="fill:#21bcf0"/><g style="clip-path:url(#clip-path-3)"><path d="M220.19,1143.84s31.76,5.87,58.76,6.87,37,49,31,61-46.8,17.93-74-9,6,15,6,15l41,21,41,5,29-13-14-91-11-6-106.37.88-1.39,9.25" transform="translate(0 44.29)" style="fill:#0089d4"/><path d="M251.41,1147.19c.76,5.65,1.74,11.26,2.44,16.92.56,4.54.58,9.23,1.62,13.69a1.2,1.2,0,0,0,2.35-.31c0-4.89-1.22-9.82-2-14.62-.87-5.38-1.79-10.75-3-16-.22-.91-1.48-.49-1.36.37Z" transform="translate(0 44.29)" style="fill:#0089d4"/><path d="M278.11,1192.4c1.35,11.36,2,22.82,5.47,33.82a.87.87,0,0,0,1.67-.47c-1.64-11.24-5.14-22.17-7.09-33.36,0,0-.05,0-.05,0Z" transform="translate(0 44.29)" style="fill:#0089d4"/><path d="M286.36,1181.94c1.35,7.41,2.26,14.89,3.5,22.31s1.55,15.08,3.23,22.29a1,1,0,0,0,2-.27c-.22-7.11-2.08-14.54-3.22-21.57-1.24-7.74-3.16-15.3-4.87-22.94-.1-.45-.75-.26-.67.18Z" transform="translate(0 44.29)" style="fill:#0089d4"/><path d="M292.53,1157.62c1.41,10,2.22,20.45,4.51,30.33.14.58,1.12.47,1.06-.15-.94-10.12-3.44-20.26-5.26-30.27,0-.21-.34-.11-.31.09Z" transform="translate(0 44.29)" style="fill:#0089d4"/></g><path d="M603.45,1167.21l18,116s67,53,138,24l2-121Z" transform="translate(0 44.29)" style="fill:#21bcf0"/><g style="clip-path:url(#clip-path-4)"><path d="M604,1189.92s9,15.79,54,23.79,70,18,76,36-36.62,59.71-123,22l3,25,101,29,58-16-1-107-26-9-142-3.79" transform="translate(0 44.29)" style="fill:#0089d4"/><path d="M627.09,1230.35c-1.16-10.3-1.16-20.84-3.13-31-.08-.39-.62-.26-.65.09-.86,10.31,1.12,20.9,2.72,31.08.09.59,1.13.46,1.06-.15Z" transform="translate(0 44.29)" style="fill:#0089d4"/><path d="M641.11,1208c.35,14.33,1.53,28.59,2.5,42.89.94,13.68,1.63,27.58,4.19,41.07.18.93,1.69.72,1.66-.23-.56-14-2.69-27.91-4.06-41.81s-2.09-27.95-3.21-41.92c-.05-.68-1.09-.7-1.08,0Z" transform="translate(0 44.29)" style="fill:#0089d4"/><path d="M656.81,1246c-.53,17.09.08,35,3.12,51.86.19,1.06,2,.83,1.89-.25-1-8.6-2.39-17.08-3-25.74s-1-17.25-1.22-25.87a.38.38,0,0,0-.75,0Z" transform="translate(0 44.29)" style="fill:#0089d4"/><path d="M680.25,1220.63c.34,12,.46,24.13,2.92,35.89a.8.8,0,0,0,1.57-.21c-.51-11.94-2.68-23.8-3.88-35.68,0-.39-.62-.4-.61,0Z" transform="translate(0 44.29)" style="fill:#0089d4"/><path d="M691.16,1238.9c-.79-7.17-1.12-14.51-2.37-21.62-.08-.46-.77-.32-.79.11-.32,7.2,1,14.58,2.52,21.6.07.35.68.28.64-.09Z" transform="translate(0 44.29)" style="fill:#0089d4"/><path d="M716.63,1279.89c.21,4.82.22,9.64.73,14.44a.26.26,0,0,0,.52,0c-.06-4.83-.65-9.63-1-14.44,0-.15-.25-.15-.24,0Z" transform="translate(0 44.29)" style="fill:#0089d4"/><path d="M716,1262.5c.16,11.64.1,23.16.86,34.78a.36.36,0,0,0,.71,0c.23-11.67-.49-23.14-1.15-34.78,0-.27-.43-.27-.42,0Z" transform="translate(0 44.29)" style="fill:#0089d4"/></g><path d="M1314.45,1168.21l-14,132s221,47,260-34c0,0,0-69,14-115Z" transform="translate(0 44.29)" style="fill:#21bcf0"/><g style="clip-path:url(#clip-path-5)"><path d="M1301,1203.71s36,4,95,7,128-8,135,8-21,112-235,72l-13,19,183,13,90-23,22-47-6-89.72-155,24.72-94-6-8.5,11.14" transform="translate(0 44.29)" style="fill:#0089d4"/><path d="M1335.88,1248.38c-4.72,21.86-11.35,43.69-13,66.13-.05.76,1.08.85,1.29.17,6.76-21.41,8.65-44.11,12.34-66.13.07-.41-.54-.59-.63-.17Z" transform="translate(0 44.29)" style="fill:#0089d4"/><path d="M1360.47,1227.79c-3.47,16.31-7.48,32.43-10.41,48.87-1.43,8-2.87,16.11-4,24.19-1.14,7.75-2.76,15.82-2.83,23.66a.71.71,0,0,0,1.38.19c2.17-7.78,3-16.1,4.32-24.07s2.62-16.14,4-24.2c2.81-16.08,5.16-32.4,8.56-48.37.14-.65-.86-.92-1-.27Z" transform="translate(0 44.29)" style="fill:#0089d4"/><path d="M1369,1275c-2.41,11.39-5.22,22.65-6.69,34.22-.1.82,1.23,1,1.43.19,2.85-11.25,4.32-22.71,6.21-34.15.1-.61-.81-.89-1-.26Z" transform="translate(0 44.29)" style="fill:#0089d4"/><path d="M1411.26,1250.67c2.87-17.43,7.9-34.28,12.34-51.34a.73.73,0,0,0-1.4-.38c-6.57,16.39-9.81,33.93-12.34,51.33-.13.91,1.25,1.32,1.4.39Z" transform="translate(0 44.29)" style="fill:#0089d4"/><path d="M1461,1240.31c3.07-16.12,8-31.63,12-47.53.09-.39-.52-.69-.69-.29-6.36,15-9.48,31.56-12,47.62-.08.46.63.68.72.2Z" transform="translate(0 44.29)" style="fill:#0089d4"/><path d="M1475.28,1221.26a67.22,67.22,0,0,0,4.26-18.64c0-.34-.54-.42-.6-.08a98.3,98.3,0,0,1-5,18.36c-.31.81,1,1.17,1.31.36Z" transform="translate(0 44.29)" style="fill:#0089d4"/><path d="M1497.66,1238.1a294.91,294.91,0,0,0-12.41,31.83c-3.38,10.38-8,22.11-8.29,33.1,0,1,1.21,1,1.52.21,2.17-5.18,3.08-10.92,4.49-16.35s3-10.9,4.69-16.3c3.38-10.76,7.29-21.39,11.5-31.86.34-.86-1.12-1.48-1.5-.63Z" transform="translate(0 44.29)" style="fill:#0089d4"/></g><path d="M323.45,1130.21l19.46,99.43s47.54,57.57,131.54,65.57,147-12,147-12l-18-116Z" transform="translate(0 44.29)" style="fill:#21bcf0"/><g style="clip-path:url(#clip-path-6)"><path d="M339,1147.71s3,16,48,30,137,24,154,38,31,56,4,63-121,13-209-65l-6,28,92,52,77,15,112-15,30-14-38-112-87,14-122-13Z" transform="translate(0 44.29)" style="fill:#0089d4"/><path d="M357.2,1167.33c.8,7.45,1.76,14.86,2.8,22.28,1.1,7.92,1.55,16.15,3.21,24a.73.73,0,0,0,1.42-.19c-.12-7.66-1.64-15.59-2.63-23.19s-2.28-15.36-3.88-23c-.11-.51-1-.4-.92.13Z" transform="translate(0 44.29)" style="fill:#0089d4"/><path d="M374.58,1209.07c.75,8.26,1.18,16.55,2,24.81.74,7.69.76,15.61,2,23.23.19,1.19,2.07.88,2.07-.28,0-7.9-1.37-16-2.09-23.9-.74-8-2-15.89-3.07-23.86-.07-.52-.9-.55-.85,0Z" transform="translate(0 44.29)" style="fill:#0089d4"/><path d="M385.25,1232.15c.19,9.69,0,21,3.37,30.23a.61.61,0,0,0,1.2-.16c.07-9.89-2.68-20.23-3.77-30.07-.06-.5-.81-.53-.8,0Z" transform="translate(0 44.29)" style="fill:#0089d4"/><path d="M416.09,1216.14c.16,8.42.19,16.83.43,25.25.22,7.81-.13,15.63,1,23.38.05.33.53.22.55-.07.68-8.09-.22-16.19-.49-24.28s-.76-16.18-1.11-24.28a.19.19,0,0,0-.38,0Z" transform="translate(0 44.29)" style="fill:#0089d4"/><path d="M435.87,1215.32c-.2-10.71-.62-22.19-3.1-32.65a.4.4,0,0,0-.78.1c.77,10.88,2.39,21.62,2.89,32.55a.5.5,0,0,0,1,0Z" transform="translate(0 44.29)" style="fill:#0089d4"/><path d="M443.74,1220c-.56-10.79-.41-22.06-2.32-32.71-.1-.56-.95-.4-1,.13-.32,10.78,1.51,21.86,2.54,32.58.05.47.78.49.75,0Z" transform="translate(0 44.29)" style="fill:#0089d4"/><path d="M497.58,1239.2c-.2,9.16-.4,18.28-.12,27.44.14,4.57.35,9.14.45,13.71.09,3.94-.29,8,.72,11.85.08.31.62.35.68,0,.62-3.9-.1-7.91-.31-11.85-.25-4.56-.32-9.14-.4-13.71-.16-9.15-.54-18.29-.7-27.44a.16.16,0,0,0-.32,0Z" transform="translate(0 44.29)" style="fill:#0089d4"/><path d="M505.82,1230.52c-.54,11.1-.69,22.16-.67,33.27,0,10.48-.35,21.17,1.1,31.56.16,1.15,2,.83,2-.27.14-10.74-1.27-21.52-1.6-32.27s-.42-21.53-.39-32.29a.21.21,0,0,0-.42,0Z" transform="translate(0 44.29)" style="fill:#0089d4"/><path d="M540.48,1260.08c-.71,9.65-3.16,19.81-1.48,29.46.09.57,1,.54,1.13,0,2.15-9.53.43-19.78.67-29.46,0-.21-.31-.2-.32,0Z" transform="translate(0 44.29)" style="fill:#0089d4"/><path d="M527.86,1217.76c-.07-2.71,0-5.43.19-8.14,0-.31-.43-.29-.47,0a41.78,41.78,0,0,0-.14,8.14c0,.27.43.28.42,0Z" transform="translate(0 44.29)" style="fill:#0089d4"/><path d="M457.11,1209.08c.14-7.19.35-14.45-1.05-21.54-.1-.52-.94-.4-.92.13.2,7.15,1.27,14.25,1.5,21.41a.24.24,0,0,0,.47,0Z" transform="translate(0 44.29)" style="fill:#0089d4"/></g><path d="M761.45,1185.21l-2,123s49,85,283,72,258-80,258-80l14-132Z" transform="translate(0 44.29)" style="fill:#21bcf0"/><g style="clip-path:url(#clip-path-7)"><path d="M756,1296.71s148,114,436,39c31.21-8.13,37-95-24-85s-373,23-418-32,11-34,11-34l291,43,225-39,64-11-26,148-165,56-230,6-190-44" transform="translate(0 44.29)" style="fill:#0089d4"/><path d="M797,1249.41c-.27,15.51-.75,31-.77,46.51,0,7.43-.09,14.87.06,22.3.14,6.88-.1,14.53,2.1,21.13a.69.69,0,0,0,1.34-.18c.37-7.22-.87-14.66-1-21.91-.15-7.44-.1-14.89-.12-22.33,0-15.19-.52-30.34-.78-45.52a.4.4,0,0,0-.8,0Z" transform="translate(0 44.29)" style="fill:#0089d4"/><path d="M810.37,1286.46c-.31,17.58-1.5,35.46-.15,53a.45.45,0,0,0,.89,0c1.62-17.52.69-35.42.66-53a.7.7,0,0,0-1.4,0Z" transform="translate(0 44.29)" style="fill:#0089d4"/><path d="M849.54,1300.54c.21-18.78,2.41-37.52,2.57-56.32,0-.65-.92-.62-1,0-2,18.74-1.24,37.53-1.64,56.32,0,0,0,0,0,0Z" transform="translate(0 44.29)" style="fill:#0089d4"/><path d="M863.19,1293.88c-.33-13.47,0-26.93.27-40.39,0-.4-.56-.38-.61,0a244.29,244.29,0,0,0-.74,40.39.54.54,0,0,0,1.08,0Z" transform="translate(0 44.29)" style="fill:#0089d4"/><path d="M914.08,1305.39c-2.45,21.82-5.59,45-2.4,66.91.14,1,1.55.65,1.61-.22.72-11.07.05-22.28.2-33.38s.37-22.21,1.34-33.31c0-.49-.7-.48-.75,0Z" transform="translate(0 44.29)" style="fill:#0089d4"/><path d="M998.21,1326.12c-.68,15.65-.92,31.44.44,47.06.05.57.91.58.89,0-.59-15.7-1.33-31.34-1-47.06a.15.15,0,0,0-.29,0Z" transform="translate(0 44.29)" style="fill:#0089d4"/><path d="M1004.18,1344.64c.27,8.29.41,16.57,1,24.84,0,.32.53.33.52,0-.13-8.29-.69-16.56-1.12-24.84,0-.24-.38-.24-.37,0Z" transform="translate(0 44.29)" style="fill:#0089d4"/><path d="M1019.88,1314.26c-.68,20.75-.6,41.6,1.86,62.24.08.7,1.16.74,1.12,0-.9-20.75-2.2-41.46-2.28-62.24a.35.35,0,0,0-.7,0Z" transform="translate(0 44.29)" style="fill:#0089d4"/><path d="M1051.43,1268.31c.73-11.36,1.57-22.73,2.17-34.09,0-.46-.67-.45-.71,0-.89,11.35-1.54,22.73-2.31,34.09,0,.54.81.54.85,0Z" transform="translate(0 44.29)" style="fill:#0089d4"/><path d="M1063.65,1313.51c.22-25.24,1.94-50.8-1-76a.59.59,0,0,0-1.18,0c-1.06,25.28,1.37,50.69,1.15,76a.5.5,0,0,0,1,0Z" transform="translate(0 44.29)" style="fill:#0089d4"/><path d="M1074.43,1290.15c2,25.6,2.78,51.24,5.82,76.77.11.84,1.4.89,1.36,0-.92-25.71-4.11-51.16-6.1-76.77,0-.69-1.13-.69-1.08,0Z" transform="translate(0 44.29)" style="fill:#0089d4"/><path d="M1163.87,1303.51c.63,19.44.41,39.57,3.56,58.8.15,1,1.68.71,1.66-.22-.45-19.52-3.52-39.09-4.8-58.58,0-.27-.43-.27-.42,0Z" transform="translate(0 44.29)" style="fill:#0089d4"/><path d="M1173.7,1315.74c.11,8.2.17,16.42.94,24.59.7,7.39,1,15.71,3.43,22.78.35,1,2,.92,2-.27-.22-7.79-2.35-15.72-3.28-23.46s-1.91-15.72-2.31-23.64a.38.38,0,0,0-.75,0Z" transform="translate(0 44.29)" style="fill:#0089d4"/><path d="M1188.48,1263.12c-.71-8.81-1.15-17.7-2.55-26.43-.09-.53-1-.4-.92.12.36,8.8,1.71,17.57,2.77,26.31,0,.44.74.45.7,0Z" transform="translate(0 44.29)" style="fill:#0089d4"/><path d="M1200.9,1293.51c.17-18-.41-37.74-6-55-.21-.64-1.3-.57-1.24.17.75,9.13,2.66,18.17,3.65,27.27s1.81,18.35,2.22,27.55a.71.71,0,0,0,1.41,0Z" transform="translate(0 44.29)" style="fill:#0089d4"/><path d="M1038.08,1311.47c-.49-14.37-.42-28.76-.94-43.14-.49-13.7-.15-27.82-2.05-41.4-.14-1-1.6-.67-1.66.22-.89,13.91.56,28.25,1.13,42.16.58,14.07,1.71,28.1,2.3,42.16,0,.78,1.24.79,1.22,0Z" transform="translate(0 44.29)" style="fill:#0089d4"/></g><path d="M1123.45,908.21c-208-8-585,5-751,63s-191,94-208,110-30.75,75.65,159.12,62.33c0,0,97.88,68.67,271.88,37.67,0,0,18,39,157,26,0,0,60,36,265,36s314-52,314-52,115,32,251-17c0,0,86,6,133-44,0,0,129.61-90-141-159C1319.45,906.21,1123.45,908.21,1123.45,908.21Z" transform="translate(0 44.29)" style="fill:#a6e6fe"/><g style="clip-path:url(#clip-path-8)"><path d="M352,974.71s3,17,23,22,46,19,57,23,62,10,77,4-17-18-17-18l-130-34Z" transform="translate(0 44.29)" style="fill:#0c64e0;opacity:0.36"/><path d="M815,1013.71l-118,9S682.64,1027,681,1031l-5.85-.54C645,1027.71,469,1040.71,469,1040.71s-4,3,10,8c15.1,5.39,48,4,69,2s75-6,86-7,58,3,69-3c3.13-1.71,4.67-3,4.59-4.17,13.87-1.13,25.37-5.72,32.41-7.83,10-3,33-1,51-3s37-4,44-8S815,1013.71,815,1013.71Z" transform="translate(0 44.29)" style="fill:#0c64e0;opacity:0.36"/><path d="M316.09,1109.05s2.86,6.66,18.86,7.66,41-2,55-4,46-11,68-13,41-9,51-10-14-11-44-8-148.86,27.34-148.86,27.34" transform="translate(0 44.29)" style="fill:#0c64e0;opacity:0.36"/><path d="M1174.18,1031.33a175.76,175.76,0,0,0,44.77.38c24-3,74-3,104,0s143,8,177,6,71-12,65-22-79-12-79-12l-315,14,3.23,13.62" transform="translate(0 44.29)" style="fill:#0c64e0;opacity:0.36"/><path d="M1258.29,1074.64s4.66,3.07,43.66,3.07,60-2,74-4,35-10,16-13-133.66,13.93-133.66,13.93" transform="translate(0 44.29)" style="fill:#0c64e0;opacity:0.36"/><path d="M1569,966.71s19,10,8,15-63-5-80-9-38,2-38,2l-3-7,98-6Z" transform="translate(0 44.29)" style="fill:#0c64e0;opacity:0.36"/><path d="M1619,952.71s244,179-70,160c0,0-66,75-226,29,0,0-271,130-556,9,0,0-134,59-163-3,0,0-119.5,44.38-256-29,0,0-203,14-159-72l-54,57,13.47,38.5,130.63,27L436,1213.71l145,19,112,7,201,25h243l233-32,225-29,164-53v-118Z" transform="translate(0 44.29)" style="fill:#75cdfc"/><path d="M533,1113.71c-33-3-51,15-32,16s65-3,69-12S533,1113.71,533,1113.71Z" transform="translate(0 44.29)" style="fill:#0c64e0;opacity:0.36"/><path d="M597,1118.71c-8.36-3.34-22,11-16,11S627,1130.71,597,1118.71Z" transform="translate(0 44.29)" style="fill:#0c64e0;opacity:0.36"/><path d="M1420,1061.71c-.78-8.57,36-7,39-3S1421,1072.71,1420,1061.71Z" transform="translate(0 44.29)" style="fill:#0c64e0;opacity:0.36"/><path d="M1478,1048.71c-7,0-9,6-1,7S1485,1048.71,1478,1048.71Z" transform="translate(0 44.29)" style="fill:#0c64e0;opacity:0.36"/><path d="M1597,1035.71c23.57-5.44,50,7,41,13S1558,1044.71,1597,1035.71Z" transform="translate(0 44.29)" style="fill:#0c64e0;opacity:0.36"/><path d="M827,1083.71c-26,3-63,14-74,23s-19,22,49,29,125,6,167,8,154-6,172-9,117.81-19.83,125-32c13-22,21-19-158-33S827,1083.71,827,1083.71Z" transform="translate(0 44.29)" style="fill:#0c64e0;opacity:0.54"/></g><path d="M244.45,1306.21c-25,7-60,27-54,53s52,34,66,35-79,27-104-26,73-70,113-71S244.45,1306.21,244.45,1306.21Z" transform="translate(0 44.29)" style="fill:#5ae7ff"/><path d="M189.45,1151.21c-28.39-3.7-155-12-179-4s-5,28,40,20,142-10,155-9S212.45,1154.21,189.45,1151.21Z" transform="translate(0 44.29)" style="fill:#5ae7ff"/><path d="M1698.45,1321.21c16,3,67,34,67,60s-69,51-63,61,90-14,90-56-81-75-107-73S1698.45,1321.21,1698.45,1321.21Z" transform="translate(0 44.29)" style="fill:#5ae7ff"/><path d="M1745.45,1143.21c10.88-2.59,110-4,134,9s-27,6-62,8S1724.45,1148.21,1745.45,1143.21Z" transform="translate(0 44.29)" style="fill:#5ae7ff"/><polygon points="673.93 1029.58 602.95 694 680.76 428.7 955.95 323 1299.95 429 1333.17 758.55 1267.95 1046 1191.95 1056 673.93 1029.58" style="fill:#27497a"/><g style="clip-path:url(#clip-path-9)"><path d="M801.49,474.87S1089,680.71,929,1046.71l324,2,61-196-76.37-368.2L977,409.71,801.49,474.87" transform="translate(0 44.29)" style="fill:#183866"/></g><path d="M1374.45,900.21s46,1,58,19,58,22,77,28,64,23,51,29-61-12-92-6-113,7-113,7Z" transform="translate(0 44.29)" style="fill:#e7f6fb"/><g style="clip-path:url(#clip-path-10)"><path d="M1382,935.71s44,13,55,20,77,8,85,11,41,15,41,15l-54-3-147-7Z" transform="translate(0 44.29)" style="fill:#005de0;opacity:0.1"/><path d="M1380,920.71s33,11,51,15,59,3,59,3l-96.67-44.32Z" transform="translate(0 44.29)" style="fill:#edfcff"/></g><path d="M363.45,982.21c-11-5-19-13,10-22s84-18,95-31,43.61-40.77,69.8-39.88,65.2,39.88,70.2,48.88,0,72,0,72-116,10-146,6-63-23-78-28S363.45,982.21,363.45,982.21Z" transform="translate(0 44.29)" style="fill:#e7f6fb"/><g style="clip-path:url(#clip-path-11)"><path d="M588,969.71c7,6-53.71-19.66-63-8s-82,47-75,58,144.86-7.07,144.86-7.07L594,937.71Z" transform="translate(0 44.29)" style="fill:#005de0;opacity:0.1"/><path d="M390,1000.71s7-24,45-33,64-38,67-49,48-29,48-29l-139-29L339.89,986.19Z" transform="translate(0 44.29)" style="fill:#edfcff"/></g><path d="M572.45,1026.21c-2-8-172-592-74-786s779.26-393.41,975,81c59,143-107,690-107,690h-172s205-547-230-547-192,547-192,547Z" transform="translate(0 44.29)" style="fill:#97f2ff"/><g style="clip-path:url(#clip-path-12)"><polygon points="972.95 300 956.95 377 787.3 392.86 977.95 404 972.95 300" style="fill:#46a2e3"/><path d="M777,170.71l200,11,139-22-38-90.38s27,5.38,61,92.38l170.52-11.15L1215,178.71l-219,20Z" transform="translate(0 44.29)" style="fill:#46a2e3"/><polygon points="1301.71 239.17 1333.95 368 1128.21 402.8 1281.95 400 1403.95 373 1455.58 340.7 1374.95 348 1301.71 239.17" style="fill:#46a2e3"/><polygon points="598.95 347 737.45 388.5 554.45 365.5 598.95 347" style="fill:#46a2e3"/><polygon points="1254.15 480.68 1277.95 557 1452.36 526.69 1249.95 586 1254.15 480.68" style="fill:#46a2e3"/><polygon points="1410.95 646 1418.78 738.79 1351.36 757.09 1391.95 732 1410.95 646" style="fill:#46a2e3"/><path d="M670,414.71l-11,102,39,14-10,19L541.44,503S627,508.71,627,506.71,670,414.71,670,414.71Z" transform="translate(0 44.29)" style="fill:#46a2e3"/><polygon points="525.76 655.77 538.95 734 610.67 768.23 490.95 747 488.95 727 510.95 730 525.76 655.77" style="fill:#46a2e3"/><polygon points="961.56 91.93 881.95 104 807.95 136 899.95 72 961.56 91.93" style="fill:#46a2e3"/><polygon points="685.95 957 547.55 945.21 641.95 973 697.95 975 685.95 957" style="fill:#46a2e3"/><polyline points="621.52 1048.73 618.72 970.59 650.95 1039 621.52 1048.73" style="fill:#46a2e3"/><polygon points="1282.14 889.54 1281.6 962.5 1246.95 966 1282.14 889.54" style="fill:#46a2e3"/><polygon points="1299.02 959.78 1329.95 962 1322.95 1002 1333.95 1002 1349.95 959 1393.28 938.68 1299.02 959.78" style="fill:#46a2e3"/><polygon points="976.48 374.71 964.62 232.03 1118.55 225.69 1025.95 277 976.48 374.71" style="fill:#cff9ff"/><path d="M752.91,170.68c38.57,6.2,77.23,13.52,116.21,16.53q59.19,4.57,118.6,4.32c78.57-.33,156.9-7.62,234.47-19.9,21.92-3.47,43.2-9.36,64.89-13.93,10.81-2.28,21.77-4.38,32.42-7.33,11-3,22.12-5.47,33.07-8.62a1.78,1.78,0,0,0-.94-3.44c-9.55,2.28-18.94,5.25-28.58,7.11s-19.16,4.23-28.75,6.37c-10,2.23-20,4.59-30.11,5.9q-14,1.8-28.06,4c-38.82,6.2-77.43,12.45-116.6,16.09A1480.64,1480.64,0,0,1,886.17,181c-44.32-2.9-88.86-5.18-132.78-12.06-1.12-.17-1.61,1.54-.48,1.72Z" transform="translate(0 44.29)" style="fill:#1d6b91"/><path d="M907.82,43.88c14.29,2.51,28.26,5.17,42.78,5.82a379,379,0,0,0,43.69-.22,288,288,0,0,0,42-6.33c7.25-1.62,14.49-3.32,21.67-5.24a65.87,65.87,0,0,0,9-2.84c3.39-1.46,7.22-2.09,10.45-3.86a.28.28,0,0,0-.15-.52c-3.67.35-7,1.88-10.71,2.38-2.88.38-5.65,1.12-8.48,1.78-6.95,1.63-13.94,3.1-21,4.21-14.17,2.24-28.5,3.67-42.81,4.76A374.37,374.37,0,0,1,952.46,45c-14.68-.51-29.64-.78-44.19-2.78-1-.15-1.53,1.43-.45,1.62Z" transform="translate(0 44.29)" style="fill:#1d6b91"/><path d="M565.87,310.73c33.21,8.78,66.76,15.67,100.2,23.45a686.78,686.78,0,0,0,100,15.4c33.87,2.79,67.85,4.66,101.76,6.81,33.54,2.12,67.09,3.86,100.68,4.86,18.66.55,37.34.67,56,1s37.37,1.42,55.9.34a1.41,1.41,0,0,0,0-2.82c-16-1.09-32.28-.61-48.37-.91-16.74-.32-33.47-.9-50.2-1.6-33.3-1.42-66.61-2.66-99.9-4.42-68.21-3.62-135.82-10.9-203.49-20.05-37.88-5.12-75.2-14.24-112.37-23a.47.47,0,0,0-.25.9Z" transform="translate(0 44.29)" style="fill:#1d6b91"/><path d="M1066,361.77c14.9.43,29.55.52,44.46,0,14.49-.53,29-1.33,43.43-2.3,28.89-1.94,57.85-4,86.65-7.05,51.57-5.4,102.83-14.43,152.57-29.33a438.3,438.3,0,0,0,80.42-33.21c2.71-1.44.28-5.62-2.42-4.13-45,24.95-95.94,40.6-146.63,48.52-53.6,8.37-107.66,14.6-161.72,19.09-15.78,1.32-31.58,2.44-47.36,3.67-7.9.62-15.8,1.18-23.71,1.75-8.63.61-17.09,1.91-25.69,2.82-.11,0-.12.19,0,.19Z" transform="translate(0 44.29)" style="fill:#1d6b91"/><path d="M461,472.46c27.12,13.84,55.83,23.72,84.33,34.29a462,462,0,0,0,90.42,23.36c17,2.65,34.11,4.62,51.25,6.21,2.8.26,2.69-4,0-4.32-38.91-4.91-77.24-14.08-115.25-23.6-18.53-4.63-37.15-9.11-55.13-15.67-18.49-6.74-36.68-14.54-54.86-22.07-1-.43-1.75,1.29-.76,1.8Z" transform="translate(0 44.29)" style="fill:#1d6b91"/><path d="M1235.57,532.07c66.59-12.28,133.52-22.94,198.68-41.75,9.31-2.68,18.43-5.8,27.54-9.09s18.49-5.66,27.69-8.55c1.84-.57,1-3.49-.8-2.89-32.13,10.58-65.33,17.36-98.17,25.36s-65.68,16-98.64,23.51c-18.85,4.3-37.77,8.05-56.7,12-1,.2-.54,1.62.4,1.45Z" transform="translate(0 44.29)" style="fill:#1d6b91"/><path d="M1299.74,721.41c27.88-.4,55.25-7.13,82.23-13.66,13.75-3.33,27.36-7.21,41-11q10.45-2.89,20.9-5.85c6-1.67,14.24-2.44,18.68-7.07a2.37,2.37,0,0,0-1-3.92c-6-1.45-12.89,2-18.62,3.77-6.92,2.11-13.85,4.2-20.76,6.33q-19.85,6.12-39.69,12.23a470.49,470.49,0,0,1-82.7,17.47c-1,.13-1.11,1.71,0,1.69Z" transform="translate(0 44.29)" style="fill:#1d6b91"/><path d="M1253.91,923.53c28.85-3.21,57.55-7.15,86-12.71,14.44-2.82,28.9-5.84,43.12-9.62,6.8-1.81,13.61-3.62,20.33-5.71,6-1.88,14.35-3.21,19-7.63,1.22-1.15.77-3.82-1.07-4.07-6.25-.86-13.12,2.35-19.11,4-6.79,1.86-13.53,3.88-20.32,5.72-13.9,3.78-27.76,7.6-41.78,10.92a756.09,756.09,0,0,1-86.27,15.63c-2.18.26-2.22,3.71,0,3.47Z" transform="translate(0 44.29)" style="fill:#1d6b91"/><path d="M680.85,923.39c-28.14-5.29-56.55-9-84.57-14.94q-20.79-4.41-41.42-9.56-10.32-2.57-20.58-5.36c-6.8-1.86-13.62-4.16-20.73-4.33-3.08-.07-4.32,4.37-1.59,5.86,6.25,3.39,13.3,4.71,20.17,6.27s13.85,3.11,20.79,4.59q21.32,4.53,42.77,8.3c28,5,56.33,10.11,84.81,11.75,1.46.08,1.81-2.31.35-2.58Z" transform="translate(0 44.29)" style="fill:#1d6b91"/><path d="M643.82,729.45c-15.63-3.13-31.12-7.42-46.63-11.11s-30.79-7.58-46.05-11.9c-15-4.23-29.81-8.85-44.61-13.61q-11.11-3.57-22.19-7.22c-4-1.32-8-2.54-12.08-3.68-3.47-1-6.4-2.11-9.95-1.3a2.37,2.37,0,0,0-1,3.92c2.41,2.66,5.68,3.4,9,4.58,3.67,1.29,7.34,2.51,11.08,3.63q11.64,3.48,23.29,6.88,22.85,6.66,45.83,12.82c15.32,4.1,30.72,8,46.25,11.2s31.15,4.85,46.95,6.8c.57.08.7-.89.14-1Z" transform="translate(0 44.29)" style="fill:#1d6b91"/><path d="M548.27,505.69c-12.43,31.63-22.76,64.51-27.71,98.24-1.19,8.12-1,16.08-1.37,24.23-.38,7.82-1.43,16.24-.2,24,2.75,17.22,1,34.63,6,51.54.62,2.08,3.88,1.19,3.26-.9a192.43,192.43,0,0,1-5.5-26c-1.37-9-.21-17.49,1-26.4,1-7.63.73-15.47,1.42-23.14.73-8.07,2.26-16.05,2.95-24.15,2.81-33.05,9.79-66,21.94-96.89.44-1.12-1.37-1.61-1.81-.5Z" transform="translate(0 44.29)" style="fill:#1d6b91"/><path d="M717.34,340c-23.59,22.79-42.65,50.88-54,81.69-6.46,17.57-10.63,36.64-13.59,55.11-1.5,9.37-2.94,18.76-4.39,28.13-1.3,8.43-3.25,18.45-.93,26.81.86,3.12,5.38,2.39,5.52-.75.22-4.68-.39-9.3.08-14s1.25-9.4,2.14-14.06c1.71-9,3.64-17.91,5.62-26.84,3.84-17.32,8.17-34.29,13.32-51.27,9.44-31.16,22.27-61.88,47.87-83.15,1.15-1-.56-2.72-1.65-1.66Z" transform="translate(0 44.29)" style="fill:#1d6b91"/><path d="M970.09,189.16a105.29,105.29,0,0,0-1.94,20c.17,7.36,1.09,14.61,1.72,21.93a419.55,419.55,0,0,1,1.3,43.42c-.24,14.59.92,29.3,2.3,43.82.63,6.69,1.1,13.51,2.25,20.14.79,4.53,1.77,8.9,1.87,13.51.08,4,.14,7.9.5,11.88.06.65,1.06.67,1,0-.29-7.64-1.76-15.11-1.12-22.77s.18-15.21-.07-22.76c-.45-14.31-1.5-28.57-1.81-42.89A424.47,424.47,0,0,0,972.76,233c-1.74-14.25-3.26-29.45-2.12-43.78,0-.32-.5-.39-.55-.08Z" transform="translate(0 44.29)" style="fill:#1d6b91"/><path d="M1224.84,350.89c12.33,26.93,19.83,56.42,26.27,85.26,3.2,14.36,5.72,28.82,8.59,43.24,3.12,15.64,5.71,31.28,4.69,47.27-.14,2.31,3.77,2.11,3.32-.45-1.54-8.77.13-17.44.29-26.26.14-7.59-1.1-14.72-2.54-22.14-2.85-14.73-5.9-29.43-8.88-44.13s-6-29.47-10.67-43.83a290.08,290.08,0,0,0-17-41.33c-1.39-2.72-5.29-.33-4.05,2.37Z" transform="translate(0 44.29)" style="fill:#1d6b91"/><path d="M1390.64,497.53c5.5,16,11.16,31.35,12.34,48.36,1.21,17.42,1.13,35,1.84,52.45.7,17.19,0,34.33-.08,51.51a109.62,109.62,0,0,1-3.36,25.93c-1,4.14-2.33,8.2-3.39,12.33s-1.15,8.38-2.12,12.52a.47.47,0,0,0,.9.25c1.54-4.32,3.87-8.16,5.27-12.59,1.3-4.07,2.5-8.17,3.69-12.27a157.11,157.11,0,0,0,4.92-25.23c2.09-17.51,1.48-35.76,1.14-53.38s-.77-35.63-2.19-53.32a97.84,97.84,0,0,0-16.82-47.47c-.71-1-2.6-.43-2.14.91Z" transform="translate(0 44.29)" style="fill:#1d6b91"/><path d="M1341.53,905.77c-2.44,9.69-5,19.34-7.92,28.88-1.49,4.77-2.94,9.58-4.9,14.19-1.63,3.83-4.81,7.41-3.78,11.67a2.23,2.23,0,0,0,3.23,1.32c3.8-1.87,4.34-6.51,5.63-10.27,1.66-4.85,3.41-9.66,4.8-14.6,2.78-9.91,4.66-20.08,6.64-30.17.48-2.4-3.09-3.45-3.7-1Z" transform="translate(0 44.29)" style="fill:#1d6b91"/><path d="M617.15,915.89c-.55,16.1,1.47,32.23,4.8,48,1.64,7.79,3.64,15.51,6,23.11,1.26,4.09,2.61,8.15,4.1,12.16,1.09,2.92,1.78,5.68,5.21,6.28a2.41,2.41,0,0,0,2.59-1c1.87-2.71.78-4.55-.39-7.36-1.64-4-3.3-7.87-4.8-11.88q-4-10.77-7-21.87c-4.19-15.54-6.61-31.42-8.68-47.36a.89.89,0,0,0-1.78,0Z" transform="translate(0 44.29)" style="fill:#1d6b91"/><path d="M1270.07,160.38c12.11,9,20.94,21.3,28.94,33.94,8.38,13.25,16,27.14,23,41.16,7.49,14.92,14,30.45,18,46.7a136.8,136.8,0,0,1,3.84,25.36c.45,8.47-1.13,16.8-1,25.21.05,3.56,5.52,4.51,6.35.86,1.92-8.34.63-17.68-.38-26.07a183.48,183.48,0,0,0-5-25.44,266.35,266.35,0,0,0-18.32-47.6c-13.46-27.62-28.2-58.27-54.32-76.06-1.22-.83-2.27,1.09-1.14,1.94Z" transform="translate(0 44.29)" style="fill:#1d6b91"/><path d="M1048.67,41.7c18.75,18.34,35.67,38.67,49,61.34s27.89,49,27.53,76.17c-.06,4.22,6.63,4.23,6.56,0-.23-14.62-4.44-28.18-9.85-41.64-5-12.5-10.51-25-17.46-36.58-14.08-23.44-31.94-44.66-53.37-61.68-1.65-1.32-4,.83-2.38,2.39Z" transform="translate(0 44.29)" style="fill:#1d6b91"/><polygon points="1269.95 515 1253.95 436 1239.95 404 1282.95 407 1404.95 379 1294.95 436 1269.95 515" style="fill:#cff9ff"/><polygon points="1309.95 574 1386.95 551 1396.95 592 1397.95 652 1352.95 595 1309.95 574" style="fill:#cff9ff"/><path d="M1343,722.71l68-17-43,98s-73,5-72,4S1343,722.71,1343,722.71Z" transform="translate(0 44.29)" style="fill:#cff9ff"/><path d="M651.78,796.66S653,990.71,675,1000.71s61.7-11.6,61.7-11.6Z" transform="translate(0 44.29)" style="fill:#0c64e0;opacity:0.36"/><path d="M785.62,415.56s289.54-139.85,464.44,6.15,49.89,579,49.89,579l-383.1-94.64Z" transform="translate(0 44.29)" style="fill:#0c64e0;opacity:0.36"/><path d="M720.52,1015.1S601.45,783.21,661.45,587.21s225.67-225.8,344.83-225.8,242.17,85.8,283.17,229.8-50,423.89-50,423.89l-102,11.11Z" transform="translate(0 44.29)" style="fill:#7ae5f5"/><g style="clip-path:url(#clip-path-13)"><polygon points="854.31 433.11 902.95 500 952.83 510.5 896.07 519.43 870.09 470.86 854.31 433.11" style="fill:#46a2e3"/><polyline points="1143 443.59 1105.49 468.04 1129.38 436.19 1143 443.59" style="fill:#46a2e3"/><polyline points="1179.95 589.28 1250.88 562.79 1196.83 611.54 1179.95 589.28" style="fill:#46a2e3"/><polyline points="1299.78 709.12 1266.76 723.58 1300.06 724.67 1299.78 709.12" style="fill:#46a2e3"/><polyline points="1239.28 858.19 1280.68 872.43 1237.62 872.84 1239.28 858.19" style="fill:#46a2e3"/><polygon points="691.72 585.35 722.95 615 723.95 654 754.45 615.5 691.72 585.35" style="fill:#46a2e3"/><polygon points="656.29 734.98 709.45 747.5 719.79 736.25 656.29 734.98" style="fill:#46a2e3"/><polygon points="716.95 836 701.95 863 675.43 884.21 737.95 868 716.95 836" style="fill:#46a2e3"/><polygon points="719.35 1021.15 761.95 1014 757.36 1001.27 719.35 1021.15" style="fill:#46a2e3"/><polygon points="1271.8 723.72 1252.95 738 1240.95 791 1231.25 729.96 1271.8 723.72" style="fill:#46a2e3"/><path d="M851,384.23c8.29,16.8,14.59,34.72,22.25,51.85,3.83,8.56,7.87,17,12.25,25.3,3.94,7.48,7.68,16.89,13.76,22.83a1.79,1.79,0,0,0,3-1.73c-2-8.29-8.19-16.23-12.24-23.73-4.45-8.24-8.58-16.64-12.49-25.16-7.87-17.13-15.72-33.81-25.12-50.17-.52-.9-1.83-.11-1.38.81Z" transform="translate(0 44.29)" style="fill:#1d6b91"/><path d="M743.12,569.62a363.23,363.23,0,0,0-34.85-22.51q-9-5.16-18.1-10.07c-4.68-2.53-11.22-7.7-16.69-7.15-1.54.15-2.91,1.79-1.9,3.31,3.1,4.7,10.71,6.49,15.68,8.83,6.26,2.94,12.46,6,18.6,9.19,12.29,6.35,24.39,13,36.6,19.53a.65.65,0,0,0,.66-1.13Z" transform="translate(0 44.29)" style="fill:#1d6b91"/><path d="M637.6,690.94c16.51.41,33,2.1,49.5,2.78,7.91.32,15.83.68,23.74,1s16.41,1.56,24.31,0c2.19-.43,1.92-3.58,0-4.16-7.4-2.24-15.65-1.73-23.32-2-8.24-.26-16.48-.35-24.73-.33-16.57,0-33,1.63-49.5,2.42a.14.14,0,0,0,0,.28Z" transform="translate(0 44.29)" style="fill:#1d6b91"/><path d="M653.58,848.12c13.46-3.57,27-6.66,40.47-10.36,6.56-1.81,13.16-3.48,19.7-5.38,6.34-1.85,13.2-3.3,18.89-6.79a2.23,2.23,0,0,0-1.12-4.11c-6.68-.25-13.38,1.95-19.77,3.66-6.57,1.77-13,3.89-19.52,6-13.36,4.34-26.21,9.75-39.15,15.17-1.08.45-.71,2.13.5,1.81Z" transform="translate(0 44.29)" style="fill:#1d6b91"/><path d="M701.18,989.16c11.12-5.39,22-11.3,32.87-17.1q8-4.23,16-8.24c5.21-2.58,11-4.64,15.55-8.32,2-1.61-.22-4.32-2.28-3.92-5.72,1.12-11.08,4.54-16.25,7.14q-8.05,4.06-16,8.35a244.8,244.8,0,0,0-31.33,19.74,1.36,1.36,0,0,0,1.38,2.35Z" transform="translate(0 44.29)" style="fill:#1d6b91"/><path d="M1203.22,947.46c19.83,6.29,39.32,13.41,59.91,17a1.83,1.83,0,0,0,1-3.52c-19.7-7-40.19-10.38-60.55-14.65a.61.61,0,0,0-.33,1.17Z" transform="translate(0 44.29)" style="fill:#1d6b91"/><path d="M1234.35,820.13c12.48,2.56,24.8,5.88,37.25,8.6,6.07,1.32,12.15,2.62,18.24,3.85,5.84,1.18,12.12,3.24,18.12,2.82,2-.14,3.26-3.1,1.11-4.1-5.47-2.55-11.88-2.94-17.79-3.93-6.16-1-12.32-2-18.49-3-12.69-1.95-25.48-3.27-38.14-5.38-.7-.11-1,.94-.3,1.09Z" transform="translate(0 44.29)" style="fill:#1d6b91"/><path d="M1228,687.26q21.82-3.6,43.8-6.57c13.91-1.86,28.7-2.24,42.25-6.05a1.22,1.22,0,0,0-.33-2.39c-14-1.22-29,2-42.78,4.24-14.63,2.4-29,5.44-43.42,9-1.13.29-.63,1.9.48,1.72Z" transform="translate(0 44.29)" style="fill:#1d6b91"/><path d="M1187.39,564c12.66-9.82,26.87-17.89,40.22-26.74,13-8.62,26.45-16.71,38.88-26.18a1.83,1.83,0,0,0-1.85-3.16c-14.77,6.74-28.31,16-41.55,25.31-12.93,9.12-24.48,19.84-36.95,29.51-.91.7.36,2,1.25,1.26Z" transform="translate(0 44.29)" style="fill:#1d6b91"/><path d="M1065.81,479.63c9.87-14.25,21.11-27.81,31.65-41.58s21.14-27.47,30.73-41.92a1.13,1.13,0,0,0-1.77-1.37c-11.71,12.63-22.08,26.36-32.08,40.36-10.27,14.38-19.46,29.44-29.5,43.95-.41.59.56,1.15,1,.56Z" transform="translate(0 44.29)" style="fill:#1d6b91"/><polygon points="846.95 441 779.95 472 707.95 547 816.95 494 868.95 482 846.95 441" style="fill:#cff9ff"/><polygon points="681.95 589 664.95 637 651.95 706 678.95 636 706.95 603 692.95 590 681.95 589" style="fill:#cff9ff"/><polygon points="646.95 739 668.95 740 655.95 752 659.44 858.33 652.95 837 646.95 739" style="fill:#cff9ff"/><polygon points="694.95 887 667.95 895 689.95 977 687.95 911 694.95 887" style="fill:#cff9ff"/><polygon points="884.95 465 865.95 433 950.95 416 1051.95 418 946.95 431 888.95 472 884.95 465" style="fill:#cff9ff"/></g><path d="M1092.69,46S1093,56.71,1112,64.71s77,27,89,43,65,31,92,30,69,29,78,15-71-53-71-53L1092.69,46" transform="translate(0 44.29)" style="fill:#0c64e0;opacity:0.36"/><polygon points="1112.95 237 1218.95 232 1264.95 217 1234.95 243 1073.95 257 1112.95 237" style="fill:#cff9ff"/><path d="M1404,504.71l64-21-34,36s-17,93-17,92-3-93-3-93Z" transform="translate(0 44.29)" style="fill:#cff9ff"/><polygon points="825.95 231 956.95 243 959.95 289 927.95 260 825.95 231" style="fill:#cff9ff"/><polygon points="720.95 395 849.95 406 734.95 438 668.95 536 682.95 449 720.95 395" style="fill:#cff9ff"/><polygon points="589.95 375 696.95 390 660.95 435 626.95 515 623.95 425 589.95 375" style="fill:#cff9ff"/><polygon points="553.95 560 630.95 584 573.95 607 539.95 705 530.95 656 553.95 560" style="fill:#cff9ff"/><polygon points="507.95 759 614.95 777 552.95 812 549.95 934 539.95 928 507.95 759" style="fill:#cff9ff"/><polygon points="549.95 954 600.95 964 593.95 982 568.95 1039 549.95 954" style="fill:#cff9ff"/><polygon points="472.95 526 520.95 548 489.95 574 483.95 629 472.95 526" style="fill:#cff9ff"/><path d="M1563,938.71l-32-648-155-250-353-85-154,72s25,3.25,64,13H840L778,147.94l-2-3.23-299,207-18,74s42-33,60-74c6.85-15.59,71-21,85-32.26s60-39.74,88-53.74,94-37,103-57l-4.11-26.44c20.72-35.56,56.39-84,64.11-98.56,6.27-11.84,65.86-28,101.48-36.78,130.21,36.45,366,135.26,424.52,380.78,82,344-80,573-80,573Z" transform="translate(0 44.29)" style="fill:#0c64e0;opacity:0.36"/></g><path d="M894,40.54s-99.24,51.72-108.41,134.7" transform="translate(0 44.29)" style="fill:none;stroke:#2f88d7;stroke-miterlimit:10"/><path d="M474.45,396.21c-10.71,2.52-21-12-15-48s-48-110-9-147,114-91,133-112,100-34,122-48,75-44,118-41,107,20.27,122,30.13S877.22,48.18,858.33,64.2s-65.88,97-75.88,134-89,35-127,77-128,51-144,73S491.45,392.21,474.45,396.21Z" transform="translate(0 44.29)" style="fill:#e7f6fb"/><g style="clip-path:url(#clip-path-14)"><path d="M863-.29s51,16,24,29-97,66-98,93,14,54,14,54l77-102,109-56Z" transform="translate(0 44.29)" style="fill:#005de0;opacity:0.1"/><path d="M623,305.71s35-88,60-111,95,13,103,11-38.36,22.17-38.36,22.17L656,277.71" transform="translate(0 44.29)" style="fill:#005de0;opacity:0.1"/><path d="M599.56,310.09S563,297.71,537,304.71s-40.89,69.39-40.89,69.39l103.5-64" transform="translate(0 44.29)" style="fill:#005de0;opacity:0.1"/><path d="M426,221.71c-9.61-13,17-35,48-59s102-85,114-95,77-35,100-43,96-41,130-45,60,22,22,44-99,90-109,108-70,18-91,36-153,18-191,15-83,39-96,74S449,252.71,426,221.71Z" transform="translate(0 44.29)" style="fill:#edfcff"/></g><path d="M1119.45,61.21c-20-7-47-20-6-30s77,13,101,15,65,21,81,35,50,45,51,56-40-19-70-18-47-8-74-23S1119.45,61.21,1119.45,61.21Z" transform="translate(0 44.29)" style="fill:#c5effb"/><g style="clip-path:url(#clip-path-15)"><path d="M1119,15.71s-24,24-1,31,69,27,89,25,40-19,80-15S1119,15.71,1119,15.71Z" transform="translate(0 44.29)" style="fill:#e3fbff"/></g><path d="M632.45,1026.21s77,9,89,5,36-9,48-8,43.89.72,48.45-6.64-41.45-14.36-65.45-16.36-23-7-54-9-72-6-77,8S632.45,1026.21,632.45,1026.21Z" transform="translate(0 44.29)" style="fill:#edfcff"/><g style="clip-path:url(#clip-path-16)"><path d="M620.48,991.66S683,1001.71,693,1007.71s33,31,33,31l-46-2-72-26Z" transform="translate(0 44.29)" style="fill:#005de0;opacity:0.1"/><path d="M746,1026.21s14-10.5,26-9.5,54,0,54,0l-15,13-65-3.5" transform="translate(0 44.29)" style="fill:#005de0;opacity:0.1"/></g><path d="M653.45,1040.21c-26.94-2.65-60,0-83,2s-113,11-101-3,27-32,51-37,66.47,3.92,87.74,0,50.26,3,66.26,12S714.45,1046.21,653.45,1040.21Z" transform="translate(0 44.29)" style="fill:#e7f6fb"/><g style="clip-path:url(#clip-path-17)"><path d="M475,1023.71s37,6,55,2,78-25,78-25l-82-7Z" transform="translate(0 44.29)" style="fill:#edfcff"/><path d="M552,1052.71s41-24,51.5-26.5,50.5,13.5,50.5,13.5l-30,10Z" transform="translate(0 44.29)" style="fill:#005de0;opacity:0.1"/></g><path d="M354.45,1114.21c-27,1-52-2-36-20s35-35,58-33,41,9,56,7,52-10,50,6-36,23-60,27S354.45,1114.21,354.45,1114.21Z" transform="translate(0 44.29)" style="fill:#e7f6fb"/><g style="clip-path:url(#clip-path-18)"><path d="M313,1087.71s31,7,46,5,24-14,31-18,30-11,30-11l-54-10-40,14Z" transform="translate(0 44.29)" style="fill:#edfcff"/><path d="M376,1113.71s24-26,29-26h77l-48,19-58,7" transform="translate(0 44.29)" style="fill:#005de0;opacity:0.1"/></g><path d="M1170.45,1031.21c-14-.88-32-11-11-30s60-58,94-60,81,15,119,18,126,15,146,32,30,42-76,40-159-10-192-7S1186.45,1032.21,1170.45,1031.21Z" transform="translate(0 44.29)" style="fill:#e7f6fb"/><g style="clip-path:url(#clip-path-19)"><path d="M1150,1003.71s47-16,75-26,75-18,92-19,39-7,39-7l-106-18-82,36Z" transform="translate(0 44.29)" style="fill:#edfcff"/><path d="M1469,969.71s17,23-10,32-134,15-161,16-107-1-117,19l125,1,199,4,34-19-3-37-53-13Z" transform="translate(0 44.29)" style="fill:#005de0;opacity:0.1"/></g><path d="M1250.45,1065.21c3.58-12.54,17-19,35-16s41,11,62,8,57-5,47,5-53,13-87,13S1246.45,1079.21,1250.45,1065.21Z" transform="translate(0 44.29)" style="fill:#e7f6fb"/><g style="clip-path:url(#clip-path-20)"><path d="M1245,1069.71s18-13,30-13,48-2,48-2l-49-12-21,6Z" transform="translate(0 44.29)" style="fill:#edfcff"/><path d="M1384,1052.71s13,12-26,16-81.31,7-81.31,7l33.31,6,75-9,17-11-2-9Z" transform="translate(0 44.29)" style="fill:#005de0;opacity:0.1"/></g><g id="hand"><path d="M1092.45,826.21S1234,896,1302,718" transform="translate(0 44.29)" style="fill:none;stroke:#fff;stroke-miterlimit:10;stroke-width:9px"/><path d="M1319.52,817.58c-8.06-16.26-41.3-99.94-46.64-157.56s-33.78-71.48-52.61-88.81-83.72-80-71.4-122.44,82-22,110.49,16.75,27.19,63.33,33.13,163.26,30.4,133.82,43.73,149.8,33.79,36.12,21.8,50S1327.61,833.9,1319.52,817.58Z" transform="translate(0 44.29)" style="fill:#e68d00"/><g style="clip-path:url(#clip-path-21)"><path d="M1144.73,455.14s6.53-38.15,61.92-12,75.14,78.55,77.22,137.17-4.6,152.28,78,253.44l5.35-26.33-50.07-78.91-14-98-4.72-85.29-21.87-74.9-33.51-27.8L1199.41,423l-37-1.28-20.06,24Z" transform="translate(0 44.29)" style="fill:#b86800"/></g><path d="M1155,464.43c.88,14.37,16.14,55.56,53.34,83.76s56.7,15.55,59-5-23.49-77.71-66.74-96.66S1153.85,446,1155,464.43Z" transform="translate(0 44.29)" style="fill:#ffb94d"/><g style="clip-path:url(#clip-path-22)"><path d="M1223.72,452.72S1186,444,1197,496s51.28,74.05,65.64,68.52S1248,587,1248,587l-62-39-39-58V425l43-5Z" transform="translate(0 44.29)" style="fill:#ffca78"/></g><path d="M1292,683.19S1274,659,1282,651s15,0,17,12,9,30,9,30Z" transform="translate(0 44.29)" style="fill:#fff"/><path d="M1302,681c-9.84-4.92-33-12-38-4s2.29,90.7,47.24,57.06C1318,729,1318,689,1302,681Z" transform="translate(0 44.29)" style="fill:#fff"/><g style="clip-path:url(#clip-path-23)"><path d="M1297.31,678S1320,745,1268,727l12,18,22-2.93L1321,728l-11-48-12.64-2" transform="translate(0 44.29)" style="fill:#005de0;opacity:0.2"/></g></g><path d="M803.24,939.58s15.34-23.86,15.34-39.2S793,658.32,895.29,619.12s206.26-15.35,209.66,104,27.28,143.18,27.28,143.18-11.93-1.7-18.75-10.22c0,0-1.71,23.86,29,80.11,0,0-13.64,0-25.57-15.34,0,0-1.71,34.09,25.57,69.89,0,0-13.64,6.82-20.46-5.11,0,0,6.82,35.79,20.46,56.25s10.22,37.5,10.22,37.5-17-6.82-22.16-17c0,0,11.94,40.91,18.75,58,0,0-27.27-8.52-34.09-15.34,0,0,1.71,11.93,6.82,15.34,0,0-25.57-6.82-34.09-13.64,0,0,6.82,11.94,6.82,18.75,0,0-32.39-6.81-39.21-13.63,0,0,5.12,10.22,5.12,17,0,0-22.16-18.75-27.28-15.34s-10.23,15.34-10.23,15.34-1.7-13.63-8.52-17c0,0-6.82,15.34-13.64,15.34,0,0-8.52-8.52-10.22-13.64,0,0-3.41,11.93-6.82,11.93,0,0-6.82-15.34-13.64-15.34,0,0-1.7,13.64,1.71,20.46,0,0-18.76-10.23-22.16-20.46,0,0-11.94,13.64-10.23,18.75,0,0-15.34-13.63-17.05-18.75,0,0-8.52,17-15.34,18.75,0,0-11.93-11.93-11.93-17,0,0-8.52,15.34-17,17,0,0,0-13.63-5.11-18.75,0,0-15.34,18.75-29,18.75,0,0,6.82-15.34,5.11-22.16,0,0-25.57,17-40.91,18.75,0,0,6.82-13.63,6.82-22.16,0,0-15.34,11.94-30.68,13.64,0,0,29-30.68,39.2-64.77,0,0-5.11,5.11-15.34,3.41,0,0,17-29,20.46-49.44,0,0-5.12,6.82-13.64,8.52,0,0,10.23-49.43,10.23-61.36a34.42,34.42,0,0,1-17,8.52s11.94-23.86,13.64-34.09C822,927.65,815.17,939.58,803.24,939.58Z" transform="translate(0 44.29)" style="fill:#fff"/><g style="clip-path:url(#clip-path-24)"><path d="M941,596.71s122-6,136,95,13,329-11,355-171,80-270,28l-34,56,48,13,189.33,7.5,153.67-9.5,27-41-35-81,8-42-3-104-25-174-37-90-84-28Z" transform="translate(0 44.29)" style="fill:#1268e0;opacity:0.2"/><path d="M1014.45,652.71a34.51,34.51,0,0,0-33.88,28,30,30,0,1,0-28.62,39c14.41,0,26.44-8.41,29.33-23a34.5,34.5,0,1,0,33.17-44Z" transform="translate(0 44.29)" style="fill:#005de0;opacity:0.32"/></g><path d="M900.4,719.69s22.14,22.16,88.64,22.16c46,0,69.89-29,69.89-29s6.82,86.93-29,100.57S922.56,822,910.63,801.51,900.4,719.69,900.4,719.69Z" transform="translate(0 44.29)" style="fill:#2b5a9e"/><g style="clip-path:url(#clip-path-25)"><path d="M977,732.71s25,10,26,34-54,63-103,22l7,32,70,15h45l50-32-5-105-70,33Z" transform="translate(0 44.29)" style="fill:#214c8a"/><path d="M918,812.71s13-18,20-20,16,32,16,32S918,826.71,918,812.71Z" transform="translate(0 44.29)" style="fill:#fff"/><g style="clip-path:url(#clip-path-26)"><path d="M945,795.71s6,18-1,18-24-5-24-5l-2,2,8,5,17,4,9,2,4-3Z" transform="translate(0 44.29)" style="fill:#005de0;opacity:0.32"/></g><path d="M1009,820.71s1-30,5-33,30,22,30,22S1020,825.71,1009,820.71Z" transform="translate(0 44.29)" style="fill:#fff"/><g style="clip-path:url(#clip-path-27)"><path d="M1024,788.71s22,25-20,27l2,7,27-4,15-12Z" transform="translate(0 44.29)" style="fill:#005de0;opacity:0.32"/></g><path d="M919,727.71s2,24,10,28,25-21,25-21Z" transform="translate(0 44.29)" style="fill:#fff"/><g style="clip-path:url(#clip-path-28)"><path d="M918,733.71s10,5,19,6-7,19-14,10v3l7,6,5-2,11-8,8-11-31-8-6-1Z" transform="translate(0 44.29)" style="fill:#005de0;opacity:0.32"/></g><path d="M1008,735.71s12,17,22,18,9-31,9-31Z" transform="translate(0 44.29)" style="fill:#fff"/><g style="clip-path:url(#clip-path-29)"><path d="M1011,742.71s14-3,19-6c3.64-2.18,10,4,1,18l7-6,2-7,1-18-31.7,13.74Z" transform="translate(0 44.29)" style="fill:#005de0;opacity:0.32"/></g></g><circle cx="1006.92" cy="735.17" r="24.17" style="fill:#fff"/><circle cx="996.84" cy="737.07" r="6.35"/><circle cx="959.73" cy="734.96" r="18.96" style="fill:#fff"/><circle cx="965.72" cy="736.96" r="4.98"/><path d="M835.45,821.21S748,874.52,742.7,917.37s100.75,71.84,100.75,71.84" transform="translate(0 44.29)" style="fill:none;stroke:#fff;stroke-miterlimit:10;stroke-width:9px"/></g></g></svg>