<?xml version="1.0" encoding="utf-8"?>
<!-- Generator: Adobe Illustrator 25.0.1, SVG Export Plug-In . SVG Version: 6.00 Build 0)  -->
<svg version="1.1" id="indigo" xmlns="http://www.w3.org/2000/svg" xmlns:xlink="http://www.w3.org/1999/xlink" x="0px" y="0px"
	 viewBox="0 0 1000 1000" style="enable-background:new 0 0 1000 1000;" xml:space="preserve">
<style type="text/css">
	.st0{clip-path:url(#XMLID_3_);fill:#7900FF;}
	.st1{clip-path:url(#XMLID_4_);fill:#B9B9EA;}
	.st2{clip-path:url(#XMLID_5_);fill:#B9B9EA;}
	.st3{fill:#D4D4F4;}
	.st4{opacity:0.7;clip-path:url(#XMLID_6_);fill:#4A00BF;}
	.st5{fill:#E9E9FF;}
	.st6{clip-path:url(#XMLID_7_);fill:#B9B9EA;}
	.st7{clip-path:url(#XMLID_7_);}
	.st8{opacity:0.7;clip-path:url(#XMLID_8_);fill:#4A00BF;}
	.st9{clip-path:url(#XMLID_7_);fill:#FFFFFF;}
	.st10{fill:#2E2835;}
	.st11{fill:#4A00BF;}
	.st12{clip-path:url(#XMLID_9_);fill:#B9B9EA;}
	.st13{clip-path:url(#XMLID_10_);fill:#B9B9EA;}
	.st14{clip-path:url(#XMLID_11_);fill:#B9B9EA;}
	.st15{clip-path:url(#XMLID_12_);fill:#B9B9EA;}
	.st16{fill:#B9B9EA;}
	.st17{opacity:0.7;clip-path:url(#XMLID_13_);fill:#4A00BF;}
	.st18{opacity:0.25;clip-path:url(#XMLID_14_);fill:#B9B9EA;}
	.st19{fill:#C9C9F4;}
	.st20{fill:#9B9BD1;}
	.st21{opacity:0.7;clip-path:url(#XMLID_15_);fill:#4A00BF;}
	.st22{clip-path:url(#XMLID_15_);}
	.st23{clip-path:url(#XMLID_16_);fill:#F78F1E;}
	.st24{opacity:0.7;clip-path:url(#XMLID_17_);fill:#4A00BF;}
	.st25{clip-path:url(#XMLID_18_);fill:#7900FF;}
	.st26{clip-path:url(#XMLID_19_);fill:#B9B9EA;}
	.st27{opacity:0.7;clip-path:url(#XMLID_20_);fill:#4A00BF;}
	.st28{fill:none;}
	.st29{opacity:0.5;clip-path:url(#XMLID_21_);fill:#176800;}
	.st30{clip-path:url(#XMLID_21_);}
	.st31{fill:#327C01;}
	.st32{opacity:0.5;clip-path:url(#XMLID_22_);fill:#176800;}
	.st33{clip-path:url(#XMLID_22_);}
	.st34{opacity:0.5;clip-path:url(#XMLID_23_);fill:#176800;}
	.st35{clip-path:url(#XMLID_23_);}
	.st36{opacity:0.5;clip-path:url(#XMLID_24_);fill:#176800;}
	.st37{clip-path:url(#XMLID_24_);}
	.st38{opacity:0.5;clip-path:url(#XMLID_25_);fill:#176800;}
	.st39{clip-path:url(#XMLID_25_);}
	.st40{opacity:0.7;clip-path:url(#XMLID_26_);fill:#4A00BF;}
	.st41{clip-path:url(#XMLID_26_);fill:#B694F7;}
	.st42{opacity:0.7;clip-path:url(#XMLID_27_);fill:#4A00BF;}
	.st43{opacity:0.7;clip-path:url(#XMLID_28_);fill:#4A00BF;}
	.st44{clip-path:url(#XMLID_28_);fill:#B694F7;}
	.st45{fill:#B694F7;}
	.st46{fill:#3B00AD;}
	.st47{opacity:0.7;clip-path:url(#XMLID_29_);fill:#4A00BF;}
	.st48{fill:#FFFFFF;}
	.st49{opacity:0.56;}
	.st50{opacity:0.7;clip-path:url(#XMLID_30_);fill:#4A00BF;}
	.st51{clip-path:url(#XMLID_31_);fill:#F78F1C;}
	.st52{clip-path:url(#XMLID_32_);fill:#F78F1C;}
	.st53{opacity:0.7;clip-path:url(#XMLID_33_);fill:#4A00BF;}
	.st54{opacity:0.7;clip-path:url(#XMLID_34_);fill:#4A00BF;}
	.st55{fill:none;stroke:#3B3B3B;stroke-width:2.59;stroke-linecap:round;stroke-linejoin:round;stroke-miterlimit:10;}
	.st56{opacity:0.7;clip-path:url(#XMLID_35_);fill:#4A00BF;}
	.st57{clip-path:url(#XMLID_36_);fill:#B9B9EA;}
	.st58{opacity:0.7;clip-path:url(#XMLID_39_);fill:#4A00BF;}
	.st59{clip-path:url(#XMLID_39_);}
	.st60{opacity:0.44;clip-path:url(#XMLID_40_);fill:#4A00BF;}
	.st61{opacity:0.5;clip-path:url(#XMLID_41_);fill:#4A00BF;}
	.st62{opacity:0.5;clip-path:url(#XMLID_42_);fill:#4A00BF;}
	.st63{opacity:0.38;clip-path:url(#XMLID_43_);fill:#D87100;}
	.st64{opacity:0.38;clip-path:url(#XMLID_44_);fill:#F78F1E;}
	.st65{opacity:0.7;clip-path:url(#XMLID_45_);fill:#4A00BF;}
	.st66{opacity:0.7;clip-path:url(#XMLID_46_);fill:#4A00BF;}
	.st67{opacity:0.7;clip-path:url(#XMLID_54_);fill:#4A00BF;}
	.st68{opacity:0.7;clip-path:url(#XMLID_79_);fill:#4A00BF;}
</style>
<g id="Layer_4">
	<g>
		<g>
			<defs>
				<path id="XMLID_47_" d="M156.11,871.46c0,0-4.3-15.91,7.52-34.6c0,0,0.64,6.66,2.15,7.95c0,0,0.86-9.89,0-10.96
					c0,0,17.84-18.91,17.84-43.85c0,0,9.89,16.34,9.67,31.38l-3.65,5.37l3.65-4.08v4.08l-6.45,7.95l6.45-5.37
					c0,0-1.93,16.98-21.71,34.17l-5.27,1.18h4.08c0,0-8.81,6.02-11.39,8.17c-2.58,2.15-6.88,15.48-5.8,22.57s-4.3-6.02,1.5-19.34
					c5.8-13.33,14.4-22.14,17.84-26.44c3.44-4.3,12.9-18.7,14.19-31.17c0,0-3.6,14.7-10.1,23.21
					C169.55,850.97,158.63,862.89,156.11,871.46z"/>
			</defs>
			<use xlink:href="#XMLID_47_"  style="overflow:visible;opacity:0.7;fill:#7900FF;"/>
			<clipPath id="XMLID_3_">
				<use xlink:href="#XMLID_47_"  style="overflow:visible;opacity:0.7;"/>
			</clipPath>
			<path class="st0" d="M182.92,787.36c0,0,6.63,23.2,3.49,33.48s-10.9,26-22.49,38.14c-2.97,3.11-13.82,21.39-13.82,21.39
				l1.87,9.72l19.36-3.95l28.37-40.48l3.11-39.44L182.92,787.36z"/>
		</g>
		<g>
			<defs>
				<path id="XMLID_37_" d="M165.26,893.48c-3.61,0-20.19,0-20.19,0s-16.59,0-20.19,0c-3.61,0-17.67-0.36-17.67,8.29
					s3.25,29.93,3.25,29.93s0.72,8.29,10.82,8.29s23.8,0,23.8,0s13.7,0,23.8,0c10.1,0,10.82-8.29,10.82-8.29s3.25-21.28,3.25-29.93
					S168.87,893.48,165.26,893.48z"/>
			</defs>
			<use xlink:href="#XMLID_37_"  style="overflow:visible;fill:#C9C9F4;"/>
			<clipPath id="XMLID_4_">
				<use xlink:href="#XMLID_37_"  style="overflow:visible;"/>
			</clipPath>
			<path class="st1" d="M162.19,891.06c0,0,5.5,1.41,8.17,9.58S150.09,942.9,105,938.03l10.68,3.77l63-0.31l4.24-8.8l3.77-41.63
				H162.19z"/>
		</g>
		<g>
			<defs>
				<path id="XMLID_1_" d="M160.21,897.45h-29.57v-13.24c0-0.82,0.66-1.48,1.48-1.48h26.6c0.82,0,1.48,0.66,1.48,1.48V897.45z"/>
			</defs>
			<use xlink:href="#XMLID_1_"  style="overflow:visible;fill:#C9C9F4;"/>
			<clipPath id="XMLID_5_">
				<use xlink:href="#XMLID_1_"  style="overflow:visible;"/>
			</clipPath>
			<rect x="129.35" y="886.03" class="st2" width="31.74" height="2.04"/>
		</g>
		<path class="st3" d="M162.96,886.06h-35.43c-0.53,0-0.96-0.43-0.96-0.96v-3.77c0-0.53,0.43-0.96,0.96-0.96h35.43
			c0.53,0,0.96,0.43,0.96,0.96v3.77C163.92,885.63,163.49,886.06,162.96,886.06z"/>
		<g>
			<defs>
				<path id="XMLID_38_" d="M110.5,914.94c0,0,24.82-2.83,32.37-2.51c7.54,0.31,34.56,2.2,37.08,0l-2.51,19.17
					c0,0-1.73,6.44-9.27,6.44c-7.54,0-46.82,0-46.82,0s-7.7-0.63-8.64-6.6C111.76,925.46,110.5,914.94,110.5,914.94z"/>
			</defs>
			<use xlink:href="#XMLID_38_"  style="overflow:visible;fill:#7900FF;"/>
			<clipPath id="XMLID_6_">
				<use xlink:href="#XMLID_38_"  style="overflow:visible;"/>
			</clipPath>
			<path class="st4" d="M162.19,891.06c0,0,5.5,1.41,8.17,9.58S150.09,942.9,105,938.03l10.68,3.77l63-0.31l4.24-8.8l3.77-41.63
				H162.19z"/>
		</g>
		<path class="st5" d="M110.43,908.46c0,0-4.19-11.76,4.67-11.76c5.36,0,12.63-0.86,12.63-0.86s-7.78,1.56-13.15,5.36
			C111.25,903.55,110.43,908.46,110.43,908.46z"/>
		<path class="st5" d="M127.73,884.93v-2.45c0-0.66,0.53-1.19,1.19-1.19h10.58C139.49,881.3,128.6,881.47,127.73,884.93z"/>
	</g>
	<g>
		<g>
			<defs>
				<circle id="XMLID_49_" cx="150.25" cy="150.33" r="75"/>
			</defs>
			<use xlink:href="#XMLID_49_"  style="overflow:visible;fill:#C9C9F4;"/>
			<clipPath id="XMLID_7_">
				<use xlink:href="#XMLID_49_"  style="overflow:visible;"/>
			</clipPath>
			<path class="st6" d="M130.12,72.18c0,0,60.88,26.53,57.44,78.24s-66.79,79.58-112.4,36.26l10.88,41.22l80.53,9.73l40.08-23.85
				l18.7-33.4l9.54-41.79l-17.18-41.6l-47.14-31.11L130.12,72.18z"/>
			<g class="st7">
				<defs>
					<path id="XMLID_48_" d="M78.88,97.09c0,0,66.79,28.05,138.93,0l14.5,35.88l-9.73,57.82c0,0-84.73,23.66-147.33-3.63
						C75.25,187.17,51.59,122.28,78.88,97.09z"/>
				</defs>
				<use xlink:href="#XMLID_48_"  style="overflow:visible;fill:#7900FF;"/>
				<clipPath id="XMLID_8_">
					<use xlink:href="#XMLID_48_"  style="overflow:visible;"/>
				</clipPath>
				<path class="st8" d="M130.12,72.18c0,0,60.88,26.53,57.44,78.24s-66.79,79.58-112.4,36.26l10.88,41.22l80.53,9.73l40.08-23.85
					l18.7-33.4l9.54-41.79l-17.18-41.6l-47.14-31.11L130.12,72.18z"/>
			</g>
			<circle class="st9" cx="150.08" cy="155.02" r="33.02"/>
			<g class="st7">
				<path class="st10" d="M151.83,172.65v-7.07h-14.37v-5.89l15.23-22.3h5.65v22.28h4.36v5.92h-4.36v7.07H151.83z M151.83,159.67
					v-12l-8.07,12H151.83z"/>
			</g>
		</g>
	</g>
	<g>
		<g>
			<path class="st11" d="M556.79,348.68c0,0-1.01,5.54-4.53,9.07s-20.4,19.64-20.4,19.64l-12.84-11.58l19.89-21.4
				c0,0,4.03-5.79,8.06-4.53L556.79,348.68z"/>
			<g>
				<defs>
					<path id="XMLID_50_" d="M513.48,342.89c0,0,15.61-12.84,24.43-4.28c8.81,8.56,22.16,21.4,22.16,21.4s2.52,4.03,0,11.58
						s-5.04,10.07-5.04,10.07L513.48,342.89z"/>
				</defs>
				<use xlink:href="#XMLID_50_"  style="overflow:visible;fill:#C9C9F4;"/>
				<clipPath id="XMLID_9_">
					<use xlink:href="#XMLID_50_"  style="overflow:visible;"/>
				</clipPath>
				<path class="st12" d="M539.45,339.69c0,0,12.49,15.07,13,22.63c0.5,7.55-6.8,14.1-6.8,14.1l9.82,9.07l11.58-23.17l-8.06-8.81
					L539.45,339.69"/>
			</g>
		</g>
		<g>
			<path class="st11" d="M436.79,348.68c0,0,1.01,5.54,4.53,9.07s20.4,19.64,20.4,19.64l12.84-11.58l-19.89-21.4
				c0,0-4.03-5.79-8.06-4.53L436.79,348.68z"/>
			<g>
				<defs>
					<path id="XMLID_51_" d="M480.1,342.89c0,0-15.61-12.84-24.43-4.28c-8.81,8.56-22.16,21.4-22.16,21.4s-2.52,4.03,0,11.58
						c2.52,7.55,5.04,10.07,5.04,10.07L480.1,342.89z"/>
				</defs>
				<use xlink:href="#XMLID_51_"  style="overflow:visible;fill:#C9C9F4;"/>
				<clipPath id="XMLID_10_">
					<use xlink:href="#XMLID_51_"  style="overflow:visible;"/>
				</clipPath>
				<path class="st13" d="M451.46,339.65c0,0,23.95-4.35,14.24,18.22c-9.71,22.57,0,0,0,0l13.46-8.9l4.03-9.32l-14.86-8.06
					l-12.09,1.01L451.46,339.65z"/>
			</g>
		</g>
		<g>
			<defs>
				<path id="XMLID_56_" d="M524.05,472.21l11.57,11.57c2.51,2.51,6.57,2.51,9.08,0l0,0c2.51-2.51,2.51-6.57,0-9.08l-11.57-11.57
					c-2.51-2.51-6.57-2.51-9.08,0l0,0C521.55,465.64,521.55,469.7,524.05,472.21z"/>
			</defs>
			<use xlink:href="#XMLID_56_"  style="overflow:visible;fill:#C9C9F4;"/>
			<clipPath id="XMLID_11_">
				<use xlink:href="#XMLID_56_"  style="overflow:visible;"/>
			</clipPath>
			<path class="st14" d="M530.03,463.04c0,0,12.34,11.84,12.09,15.86s-4.53,6.55-8.81,4.03l4.03,5.54l8.31,0.25l5.54-8.31
				l-5.54-10.83l-11.33-8.31L530.03,463.04z"/>
		</g>
		<g>
			<defs>
				<path id="XMLID_55_" d="M469.42,472.21l-11.57,11.57c-2.51,2.51-6.57,2.51-9.08,0l0,0c-2.51-2.51-2.51-6.57,0-9.08l11.57-11.57
					c2.51-2.51,6.57-2.51,9.08,0l0,0C471.92,465.64,471.92,469.7,469.42,472.21z"/>
			</defs>
			<use xlink:href="#XMLID_55_"  style="overflow:visible;fill:#C9C9F4;"/>
			<clipPath id="XMLID_12_">
				<use xlink:href="#XMLID_55_"  style="overflow:visible;"/>
			</clipPath>
			<path class="st15" d="M470.35,464.56c0,0-17.63,25.69-25.94,12.34l-1.51,5.29l12.09,8.81l12.09-8.56l9.07-15.11L470.35,464.56"/>
		</g>
		<rect x="490.82" y="353.47" class="st16" width="15.86" height="8.81"/>
		<g>
			<defs>
				<circle id="XMLID_53_" cx="496.86" cy="417.68" r="59.93"/>
			</defs>
			<use xlink:href="#XMLID_53_"  style="overflow:visible;fill:#7900FF;"/>
			<clipPath id="XMLID_13_">
				<use xlink:href="#XMLID_53_"  style="overflow:visible;"/>
			</clipPath>
			<polygon class="st17" points="518.95,357.78 480.17,485.46 513.41,485.46 553.45,466.07 571.33,415.7 556.72,385.48 			"/>
		</g>
		<g>
			<defs>
				<circle id="XMLID_52_" cx="497.2" cy="417.68" r="48.35"/>
			</defs>
			<use xlink:href="#XMLID_52_"  style="overflow:visible;fill:#FFFFFF;"/>
			<clipPath id="XMLID_14_">
				<use xlink:href="#XMLID_52_"  style="overflow:visible;"/>
			</clipPath>
			<polygon class="st18" points="514.92,368.11 484.96,468.08 507.62,470.85 533.31,457 548.92,435.6 550.68,414.19 540.36,387.75 
							"/>
		</g>
		<rect x="486.79" y="348.93" class="st19" width="23.92" height="5.79"/>
		<g>
			<rect x="496.06" y="375.12" class="st20" width="2.27" height="14.1"/>
			<rect x="496.06" y="447.14" class="st20" width="2.27" height="14.1"/>
		</g>
		<g>
			
				<rect x="532.07" y="411.13" transform="matrix(-1.836970e-16 1 -1 -1.836970e-16 951.3916 -115.0231)" class="st20" width="2.27" height="14.1"/>
			
				<rect x="460.05" y="411.13" transform="matrix(-1.836970e-16 1 -1 -1.836970e-16 879.3716 -43.0032)" class="st20" width="2.27" height="14.1"/>
		</g>
		<g>
			<g>
				
					<rect x="515.31" y="380.35" transform="matrix(0.8628 0.5056 -0.5056 0.8628 265.7072 -208.2363)" class="st19" width="2.27" height="9.99"/>
				
					<rect x="476.8" y="446.08" transform="matrix(0.8628 0.5056 -0.5056 0.8628 293.6453 -179.749)" class="st19" width="2.27" height="9.94"/>
			</g>
			<g>
				
					<rect x="528.93" y="432.48" transform="matrix(-0.5056 0.8628 -0.8628 -0.5056 1175.4871 201.3023)" class="st19" width="2.27" height="9.93"/>
				
					<rect x="463.24" y="393.93" transform="matrix(-0.5056 0.8628 -0.8628 -0.5056 1043.3656 200.0162)" class="st19" width="2.27" height="10.03"/>
			</g>
		</g>
		<g>
			<g>
				
					<rect x="528.68" y="393.59" transform="matrix(0.5146 0.8574 -0.8574 0.5146 598.9704 -260.7869)" class="st19" width="2.27" height="10.05"/>
				
					<rect x="463.39" y="432.84" transform="matrix(0.5146 0.8574 -0.8574 0.5146 600.8737 -185.7875)" class="st19" width="2.27" height="9.91"/>
			</g>
			<g>
				
					<rect x="515.71" y="446.04" transform="matrix(-0.8574 0.5146 -0.5146 -0.8574 1192.0408 571.6044)" class="st19" width="2.27" height="9.76"/>
				
					<rect x="476.47" y="380.55" transform="matrix(-0.8574 0.5146 -0.5146 -0.8574 1085.5186 470.355)" class="st19" width="2.27" height="9.98"/>
			</g>
		</g>
		<circle class="st10" cx="497.11" cy="417.68" r="5.29"/>
		<polygon class="st10" points="497.74,415.67 495.6,403.32 497.74,394.01 499.88,403.32 		"/>
		<polygon class="st10" points="495.55,417.08 519.92,420.94 537.4,427.51 518.89,425.1 		"/>
	</g>
	<g>
		<g>
			<defs>
				<path id="XMLID_57_" d="M877.24,181.37c0,0,5.09-24.38,40.98-54.91c0,0-6.16-21.16-31.88-37.23s-49.29-15-58.93-12.32
					c0,0-4.82,50.36-28.13,69.91L877.24,181.37z"/>
			</defs>
			<use xlink:href="#XMLID_57_"  style="overflow:visible;fill:#7900FF;"/>
			<clipPath id="XMLID_15_">
				<use xlink:href="#XMLID_57_"  style="overflow:visible;"/>
			</clipPath>
			<path class="st21" d="M899.17,89.72c0,0-24.97,64.45-71.39,69.73c-46.42,5.28,0,0,0,0l74.42,30.66l33.34-66.67L899.17,89.72z"/>
			<g class="st22">
				<defs>
					<path id="XMLID_58_" d="M889.56,162.89c0,0-25.18-42.32-80.63-34.02l-9.38,17.95l77.95,34.55L889.56,162.89z"/>
				</defs>
				<use xlink:href="#XMLID_58_"  style="overflow:visible;fill:#FFBA1F;"/>
				<clipPath id="XMLID_16_">
					<use xlink:href="#XMLID_58_"  style="overflow:visible;"/>
				</clipPath>
				<path class="st23" d="M899.17,89.72c0,0-24.97,64.45-71.39,69.73c-46.42,5.28,0,0,0,0l74.42,30.66l33.34-66.67L899.17,89.72z"/>
			</g>
		</g>
		<g>
			<defs>
				<path id="XMLID_59_" d="M905.1,205.21c-3.01,5.73-16.07,27.32-55.18,17.68c-39.11-9.64-72.32-33.75-78.75-56.25
					c-6.43-22.5-1.34-44.2,13.66-38.3c15,5.89,30.27,22.77,52.5,26.79C859.56,159.14,921.71,173.6,905.1,205.21z"/>
			</defs>
			<use xlink:href="#XMLID_59_"  style="overflow:visible;fill:#7900FF;"/>
			<clipPath id="XMLID_17_">
				<use xlink:href="#XMLID_59_"  style="overflow:visible;"/>
			</clipPath>
			<path class="st24" d="M816.41,144.73c0,0,51.71,20.37,60.04,49.16s-31.6,31.49-80.2,4.19c-48.6-27.3,0,0,0,0l-3.14,16.27
				l77.28,26.14l51.14-17.8l-7.96-46.22l-61.33-25.8L816.41,144.73"/>
		</g>
		<path class="st11" d="M865.46,203.6c-4.09,4.98-20.09,11.52-43.39-1.61c-23.3-13.13-36.21-34.63-24.64-41.79
			c5.63-3.48,13.66,5.63,31.88,13.66C842.85,179.85,877.78,188.6,865.46,203.6z"/>
	</g>
	<g>
		<g>
			<defs>
				<path id="XMLID_62_" d="M162.68,390.4h-24.85v-35.48c0-1.58,0.68-3.09,1.86-4.15l15.75-14c2.81-2.5,7.24-0.5,7.24,3.25V390.4z"
					/>
			</defs>
			<use xlink:href="#XMLID_62_"  style="overflow:visible;fill:#A361FF;"/>
			<clipPath id="XMLID_18_">
				<use xlink:href="#XMLID_62_"  style="overflow:visible;"/>
			</clipPath>
			<path class="st25" d="M155.43,328.61c0,0,6.9,52.47-23.82,44.18l8.28,12.08l29-1.73v-52.12L155.43,328.61z"/>
		</g>
		<g>
			<defs>
				<path id="XMLID_60_" d="M164.42,437h-28.34c-2.47,0-4.47-2-4.47-4.47V381.4c0-2.47,2-4.47,4.47-4.47h28.34
					c2.47,0,4.47,2,4.47,4.47v51.12C168.89,435,166.89,437,164.42,437z"/>
			</defs>
			<use xlink:href="#XMLID_60_"  style="overflow:visible;fill:#C9C9F4;"/>
			<clipPath id="XMLID_19_">
				<use xlink:href="#XMLID_60_"  style="overflow:visible;"/>
			</clipPath>
			<path class="st26" d="M158.88,373.83c0,0,7.59,48.67-30.03,49.02l0.35,8.63l43.15-1.38L172,374.52L158.88,373.83z"/>
		</g>
		<g>
			<defs>
				<path id="XMLID_61_" d="M170.29,485.67h-40.08c-2.47,0-4.47-2-4.47-4.47v-51.12c0-2.47,2-4.47,4.47-4.47h40.08
					c2.47,0,4.47,2,4.47,4.47v51.12C174.76,483.67,172.76,485.67,170.29,485.67z"/>
			</defs>
			<use xlink:href="#XMLID_61_"  style="overflow:visible;fill:#7900FF;"/>
			<clipPath id="XMLID_20_">
				<use xlink:href="#XMLID_61_"  style="overflow:visible;"/>
			</clipPath>
			<path class="st27" d="M164.4,420.77c0,0,1.04,51.09-7.25,54.88c-8.28,3.8-38.32,3.8-38.32,3.8l12.77,12.77l40.73-1.73l10.7-7.94
				l-2.76-62.13L164.4,420.77z"/>
		</g>
	</g>
	<g>
		<circle class="st28" cx="473.73" cy="144.03" r="30.45"/>
		<circle class="st28" cx="520.3" cy="144.03" r="30.45"/>
		<circle class="st28" cx="500.15" cy="172.69" r="30.45"/>
		<g>
			<defs>
				<path id="XMLID_69_" d="M447.76,133.28c0,0-7.61-3.13-9.85-28.21c0,0,4.48,2.24,12.54,3.13c8.06,0.9,16.12,10.75,16.12,10.75
					L447.76,133.28z"/>
			</defs>
			<use xlink:href="#XMLID_69_"  style="overflow:visible;fill:#35A31A;"/>
			<clipPath id="XMLID_21_">
				<use xlink:href="#XMLID_69_"  style="overflow:visible;"/>
			</clipPath>
			<path class="st29" d="M434.76,101.56c0,0,12.84,11.88,15.03,14.06c2.18,2.18-7.4,18.21-7.4,18.21l9.01-0.54l15.17-19.7
				l-7.08-5.48l-16.24-6.3L434.76,101.56z"/>
			<g class="st30">
				<g>
					<path class="st31" d="M438.01,105.75c6.2,3.47,10.45,10.53,15.03,15.78c0.35,0.4,1.06-0.13,0.75-0.58
						c-4.08-5.75-9.14-12.35-15.54-15.61C437.98,105.2,437.74,105.6,438.01,105.75L438.01,105.75z"/>
				</g>
			</g>
			<g class="st30">
				<g>
					<path class="st31" d="M449.03,109.79c0.05,2.09-0.33,4.13-0.38,6.2c-0.01,0.43,0.66,0.53,0.75,0.1
						c0.47-2.06,0.25-4.22,0.09-6.3C449.46,109.5,449.02,109.49,449.03,109.79L449.03,109.79z"/>
				</g>
			</g>
			<g class="st30">
				<g>
					<path class="st31" d="M441.75,112.65c1.71,0.65,3.09,1.04,4.94,0.82c0.29-0.03,0.3-0.46,0-0.46c-1.57,0.02-3.38-0.09-4.86-0.66
						C441.64,112.28,441.56,112.58,441.75,112.65L441.75,112.65z"/>
				</g>
			</g>
			<g class="st30">
				<g>
					<path class="st31" d="M445.51,119.55c2.07,0.58,3.94,0.71,6,0.04c0.12-0.04,0.11-0.25-0.03-0.23c-1.92,0.24-3.99,0.33-5.9-0.05
						C445.41,119.27,445.35,119.51,445.51,119.55L445.51,119.55z"/>
				</g>
			</g>
		</g>
		<g>
			<defs>
				<path id="XMLID_70_" d="M445.97,135.52c0,0-9.85-3.13-14.33-0.9c-4.48,2.24-9.85,2.24-9.85,2.24s7.16,6.72,8.96,10.75
					c1.79,4.03,10.3,10.3,18.81,8.96C458.06,155.22,445.97,135.52,445.97,135.52z"/>
			</defs>
			<use xlink:href="#XMLID_70_"  style="overflow:visible;fill:#35A31A;"/>
			<clipPath id="XMLID_22_">
				<use xlink:href="#XMLID_70_"  style="overflow:visible;"/>
			</clipPath>
			<path class="st32" d="M417.07,135.97c0,0,20.36,0.97,22.78,4.36c2.42,3.39-1.7,18.9,3.39,20.11l10.66-3.64l-6.05-17.95
				l-3.73-9.52l-15.42,1.05L417.07,135.97z"/>
			<g class="st33">
				<g>
					<path class="st31" d="M420.8,136.96c9.13,3.04,17.61,5.86,26.01,10.69c0.25,0.15,0.55-0.21,0.32-0.41
						c-7.05-6.31-17.21-8.8-26.28-10.46C420.73,136.76,420.69,136.92,420.8,136.96L420.8,136.96z"/>
				</g>
			</g>
			<g class="st33">
				<g>
					<path class="st31" d="M432.53,136.09c1.87,1.39,3.58,3.39,4.45,5.57c0.19,0.48,0.87,0.2,0.65-0.28
						c-1.09-2.43-2.59-4.29-4.91-5.63C432.51,135.63,432.34,135.95,432.53,136.09L432.53,136.09z"/>
				</g>
			</g>
			<g class="st33">
				<g>
					<path class="st31" d="M433.4,145.85c2.86,0.3,5.1-0.57,7.47-2.18c0.27-0.18,0-0.62-0.25-0.43c-2,1.52-4.72,2.2-7.22,2.31
						C433.21,145.57,433.21,145.83,433.4,145.85L433.4,145.85z"/>
				</g>
			</g>
		</g>
		<g>
			<defs>
				<path id="XMLID_68_" d="M492.54,133.8c0,0-8.06-15.22-5.37-25.07c2.69-9.85,1.34-12.99,1.34-12.99s10.75,7.16,17.91,11.64
					s4.48,17.46,4.48,17.46L492.54,133.8z"/>
			</defs>
			<use xlink:href="#XMLID_68_"  style="overflow:visible;fill:#35A31A;"/>
			<clipPath id="XMLID_23_">
				<use xlink:href="#XMLID_68_"  style="overflow:visible;"/>
			</clipPath>
			<path class="st34" d="M486.63,91.62c0,0,12.6,18.9,17.93,34.9s11.88-11.63,11.88-11.63l-12.12-16.48L486.63,91.62z"/>
			<g class="st35">
				<g>
					<path class="st31" d="M488.45,95.13c2.84,5.02,5.43,10.2,7.94,15.39c2.46,5.1,4.3,10.88,7.36,15.62
						c0.23,0.36,0.75,0.12,0.67-0.28c-1.05-5.29-4-10.45-6.44-15.22c-2.78-5.43-5.95-10.55-9.26-15.67
						C488.62,94.79,488.34,94.95,488.45,95.13L488.45,95.13z"/>
				</g>
			</g>
			<g class="st35">
				<g>
					<path class="st31" d="M489.8,111.67c2.22,1.28,5.96,4.33,8.7,3.11c0.27-0.12,0.17-0.52-0.08-0.59
						c-1.3-0.39-2.64-0.53-3.94-0.96c-1.53-0.51-3.13-1.01-4.57-1.75C489.78,111.41,489.67,111.59,489.8,111.67L489.8,111.67z"/>
				</g>
			</g>
			<g class="st35">
				<g>
					<path class="st31" d="M491.45,118.13c2.74,1.4,6.34,3.39,9.53,2.7c0.35-0.07,0.32-0.58,0-0.67c-1.44-0.41-3.04-0.32-4.52-0.59
						c-1.74-0.32-3.35-0.73-4.95-1.54C491.44,117.99,491.38,118.09,491.45,118.13L491.45,118.13z"/>
				</g>
			</g>
			<g class="st35">
				<g>
					<path class="st31" d="M502.78,109.48c0.19,1.53,0.06,3.03-0.44,4.49c-0.49,1.45-1.45,2.54-2.34,3.76
						c-0.21,0.3,0.21,0.7,0.5,0.5c2.94-2.02,3.09-5.6,2.51-8.78C502.99,109.32,502.77,109.35,502.78,109.48L502.78,109.48z"/>
				</g>
			</g>
		</g>
		<g>
			<defs>
				<path id="XMLID_66_" d="M538.21,125.22c0,0,11.19-5.82,17.91-4.93c6.72,0.9,12.99,2.24,15.67,0.9c0,0-4.93,8.51-7.61,14.78
					c-2.69,6.27-10.75,12.09-16.12,9.4C542.69,142.69,538.21,125.22,538.21,125.22z"/>
			</defs>
			<use xlink:href="#XMLID_66_"  style="overflow:visible;fill:#35A31A;"/>
			<clipPath id="XMLID_24_">
				<use xlink:href="#XMLID_66_"  style="overflow:visible;"/>
			</clipPath>
			<path class="st36" d="M540.19,139.12c0,0,28.6-11.88,35.87-23.51c0,0-8.24,32.72-16.72,33.44
				C550.85,149.78,540.91,146.15,540.19,139.12z"/>
			<g class="st37">
				<g>
					<path class="st31" d="M571.13,121.42c-4.47,2.88-9.04,5.74-13.75,8.2c-4.74,2.48-9.78,4.07-14.65,6.2
						c-0.5,0.22-0.11,0.88,0.34,0.81c10.38-1.54,20.26-8.59,28.22-15.01C571.4,121.53,571.25,121.34,571.13,121.42L571.13,121.42z"
						/>
				</g>
			</g>
			<g class="st37">
				<g>
					<path class="st31" d="M551.47,133.04c0.45-2.61,1.51-5.07,3.07-7.22c0.09-0.13-0.11-0.28-0.21-0.17
						c-1.91,2.08-2.99,4.52-3.32,7.32C550.97,133.24,551.42,133.3,551.47,133.04L551.47,133.04z"/>
				</g>
			</g>
			<g class="st37">
				<g>
					<path class="st31" d="M556.29,132.16c2.56,1.51,5.12,2.69,8.12,2.9c0.3,0.02,0.36-0.46,0.07-0.52
						c-2.77-0.59-5.58-1.21-8.11-2.51C556.28,131.99,556.2,132.11,556.29,132.16L556.29,132.16z"/>
				</g>
			</g>
			<g class="st37">
				<g>
					<path class="st31" d="M562.22,123.69c-1.08,1.52-1.9,3.12-2.01,5.01c-0.01,0.25,0.38,0.3,0.44,0.06
						c0.42-1.71,0.85-3.43,1.76-4.96C562.48,123.68,562.3,123.58,562.22,123.69L562.22,123.69z"/>
				</g>
			</g>
		</g>
		<g>
			<defs>
				<path id="XMLID_67_" d="M530.15,178.51c0,0,12.09,3.58,17.91,0c5.82-3.58,10.75-8.96,13.88-8.96c0,0-10.75-6.72-19.25-13.88
					C542.69,155.67,518.54,163.49,530.15,178.51z"/>
			</defs>
			<use xlink:href="#XMLID_67_"  style="overflow:visible;fill:#35A31A;"/>
			<clipPath id="XMLID_25_">
				<use xlink:href="#XMLID_67_"  style="overflow:visible;"/>
			</clipPath>
			<path class="st38" d="M524.33,163.3c0,0,21.19,5.63,47.36,6.84l-20.11,16.96l-22.65-4.2l-8.61-14.95L524.33,163.3"/>
			<g class="st39">
				<g>
					<path class="st31" d="M537.22,165.99c8.71,2.56,18.39,3.95,27.45,4.58c0.32,0.02,0.4-0.51,0.08-0.57
						c-8.98-1.76-18.37-3.44-27.49-4.26C537.11,165.72,537.09,165.95,537.22,165.99L537.22,165.99z"/>
				</g>
			</g>
			<g class="st39">
				<g>
					<path class="st31" d="M547.79,163.81c-1.17,0.87-3.19,2.04-3.21,3.7c0,0.19,0.24,0.29,0.38,0.16c0.51-0.52,0.82-1.22,1.25-1.8
						c0.5-0.69,1.1-1.29,1.73-1.87C548.03,163.91,547.9,163.73,547.79,163.81L547.79,163.81z"/>
				</g>
			</g>
			<g class="st39">
				<g>
					<path class="st31" d="M552.16,165.74c-0.95,0.56-2.49,1.23-2.5,2.52c0,0.21,0.29,0.35,0.44,0.18c0.35-0.39,0.61-0.86,0.95-1.25
						c0.38-0.44,0.83-0.79,1.3-1.12C552.55,165.93,552.37,165.62,552.16,165.74L552.16,165.74z"/>
				</g>
			</g>
			<g class="st39">
				<g>
					<path class="st31" d="M549.76,173.53c-0.63-1.08-1.05-2.21-1.4-3.41c-0.28-0.95-0.37-2-0.8-2.89c-0.1-0.2-0.44-0.15-0.48,0.06
						c-0.48,2.19,1.13,4.74,2.27,6.48C549.52,174.02,549.92,173.79,549.76,173.53L549.76,173.53z"/>
				</g>
			</g>
			<g class="st39">
				<g>
					<path class="st31" d="M542.85,176.09c-0.96-1.59-1.53-3.49-1.87-5.31c-0.28-1.5-0.05-3.25-0.81-4.6
						c-0.18-0.32-0.64-0.22-0.75,0.1c-0.54,1.59,0.15,3.85,0.58,5.43c0.49,1.81,1.33,3.2,2.48,4.66
						C542.66,176.58,542.99,176.31,542.85,176.09L542.85,176.09z"/>
				</g>
			</g>
		</g>
		<g>
			<defs>
				<circle id="XMLID_64_" cx="472.61" cy="143.81" r="30.22"/>
			</defs>
			<use xlink:href="#XMLID_64_"  style="overflow:visible;fill:#7900FF;"/>
			<clipPath id="XMLID_26_">
				<use xlink:href="#XMLID_64_"  style="overflow:visible;"/>
			</clipPath>
			<path class="st40" d="M503.35,124.58l-6.25-1.56c0,0-8.55,8.41-9.93,20.24c-26.95,11.18-21.63,35.6-21.63,35.6l11.63-1.21
				l14.08-24.48l-0.77-6l11.41-6.36L503.35,124.58z"/>
			<path class="st41" d="M448.02,150.17c-3.62-3.44-3.18-9.7,0.68-17.07c5.5-10.48,0.96,1.78,3.26,10.59
				C452.85,147.1,452.33,154.26,448.02,150.17z"/>
		</g>
		<g>
			<defs>
				<circle id="XMLID_63_" cx="522.31" cy="143.36" r="29.33"/>
			</defs>
			<use xlink:href="#XMLID_63_"  style="overflow:visible;fill:#7900FF;"/>
			<clipPath id="XMLID_27_">
				<use xlink:href="#XMLID_63_"  style="overflow:visible;"/>
			</clipPath>
			<path class="st42" d="M551.64,120.47l-9.28-5.1c0,0,8.66,26.82-8.27,36.42c-16.74-17.89-41.65-10.98-41.65-10.98l-0.97,8.24
				L522,157.5l8.49,21.13l20.36-4.12l7.76-23.27L551.64,120.47z"/>
		</g>
		<g>
			<defs>
				<circle id="XMLID_65_" cx="502.84" cy="173.58" r="31.34"/>
			</defs>
			<use xlink:href="#XMLID_65_"  style="overflow:visible;fill:#7F1DFF;"/>
			<clipPath id="XMLID_28_">
				<use xlink:href="#XMLID_65_"  style="overflow:visible;"/>
			</clipPath>
			<path class="st43" d="M534.13,164.33c0,0-11.13,54.86-59,27.19l2.78,7.71l17.93,8.48l18.9,1.45l15.75-9.69l7.72-19.48
				L534.13,164.33z"/>
			<path class="st44" d="M476.05,174.32c-4.15-7.71,3.36-18.97,12.05-23.51c12.36-6.46-0.26,2.37-3.95,12.45
				C482.72,167.16,480.2,182.03,476.05,174.32z"/>
		</g>
		<path class="st10" d="M494.62,154.39c-0.97-1.45,0-6.3,4.12-2.91c3.11,2.56,4.76,1.16,6.06-0.73c2.67-3.88,6.79-0.24,5.09,2.91
			s1.45,3.64,3.64,3.64c2.18,0,1.4,6.02-2.57,4.51c-4.21-1.6-3.98,1.24-4.45,3.49c-0.97,4.6-6.81,2.49-5.82-0.97
			c1.45-5.09-4.5-0.26-6.06-2.18c-3.15-3.88,3.15-1.94,3.64-4.36C498.74,155.36,495.59,155.84,494.62,154.39z"/>
		<path class="st10" d="M523.6,121.57c-0.43-1.26,1.85-3.5,4.5,0.31c2,2.88,3.87,2.87,5.57,2.43c3.5-0.91,6.07,3.03,3.65,3.99
			c-2.42,0.96,0.22,2.7,2.15,3.72c1.93,1.02-0.53,4-3.6,1.31c-3.25-2.86-3.88-1.17-4.96-0.14c-2.21,2.11-6.75-1.79-4.86-3.25
			c2.78-2.15-3.9-2.25-4.72-4.04c-1.65-3.63,3.35,0.39,4.49-0.73C526.96,124.03,524.03,122.83,523.6,121.57z"/>
		<path class="st10" d="M472.83,122.65c1.3,0.28,2.06,3.38-2.57,3.7c-3.5,0.24-4.45,1.86-4.94,3.54c-1.01,3.47-5.72,3.66-5.3,1.08
			c0.42-2.57-2.43-1.2-4.29-0.06s-3.16-2.51,0.72-3.76c4.12-1.33,3-2.73,2.67-4.19c-0.68-2.98,5-4.88,5.29-2.5
			c0.42,3.49,3.93-2.2,5.89-1.98c3.96,0.44-2.06,2.68-1.68,4.23C468.99,124.27,471.53,122.38,472.83,122.65z"/>
		<path class="st45" d="M500.2,133.55c-1.02-4.89,2.9-9.78,10.28-13.64c10.49-5.48-0.22,2.01-3.35,10.57
			C505.91,133.78,501.41,139.36,500.2,133.55z"/>
		<g>
			<g>
				<path class="st31" d="M564.41,134.87c0.1,0,0.1-0.15,0-0.15C564.31,134.72,564.31,134.87,564.41,134.87L564.41,134.87z"/>
			</g>
		</g>
		<g>
			<g>
				<path class="st31" d="M556.33,132.18c0.1,0,0.1-0.15,0-0.15C556.23,132.02,556.23,132.18,556.33,132.18L556.33,132.18z"/>
			</g>
		</g>
		<g>
			<g>
				<path class="st31" d="M498.33,114.61c0.14,0,0.14-0.22,0-0.22C498.19,114.39,498.19,114.61,498.33,114.61L498.33,114.61z"/>
			</g>
		</g>
		<g>
			<g>
				<path class="st31" d="M489.85,111.68c0.14,0,0.14-0.22,0-0.22C489.71,111.46,489.71,111.68,489.85,111.68L489.85,111.68z"/>
			</g>
		</g>
	</g>
	<g>
		<path class="st46" d="M822.93,397.22c0,0-4.67,11.02-13.82,11.77c-9.15,0.75-23.9-0.37-35.11,14.19
			c-11.21,14.57-2.89,28.51,0.37,26.33c1.12-0.75-6.35-10.27,8.78-25.03s30.44-2.43,30.44-2.43l9.71-6.54l1.49-15.31L822.93,397.22z
			"/>
		<path class="st46" d="M860.47,403.95c0,0,3.36,8.96,11.39,10.46c8.03,1.49,14.57,0,18.68-11.58
			c4.11-11.58,11.02-18.68,19.24-16.25c8.22,2.43,3.55,3.36-2.43,4.3s-9.92,7.09-11.58,20.36c-0.37,2.99-13.07,18.3-32.87,10.46
			C862.9,421.69,853.56,413.1,860.47,403.95z"/>
		<g>
			<defs>
				<path id="XMLID_71_" d="M783.15,403.2c0.37-3.36,2.24-13.26,9.15-16.43c6.91-3.17,9.71-1.87,11.95-1.31
					c2.24,0.56,0.93-5.42-6.16-6.16c-7.1-0.75-16.99,3.92-21.48,15.13c-4.48,11.21-3.74,25.03,6.54,34.55
					c10.27,9.52,32.12,5.98,44.45-8.59c0,0-13.45,15.5-13.63,28.39c-0.19,12.89,2.61,20.36,16.25,19.8
					c13.63-0.56,14.94-8.96,15.87-16.25c0.93-7.28-6.16-9.52-10.46-8.03c-4.3,1.49-5.42,5.6-3.55,5.23
					c1.87-0.37,4.67-3.17,6.72-1.49c2.05,1.68,2.61,10.64-4.48,12.89c-7.1,2.24-13.26-3.17-11.02-12.7
					c2.24-9.52,6.91-19.05,18.12-26.52c0,0,2.05,16.06,14.19,23.53c12.14,7.47,30.63,3.36,36.23-2.43
					c5.6-5.79,11.58-15.69,8.4-25.96c-3.17-10.27-13.94-15.29-20.17-11.39c-2.99,1.87-4.48,5.79-1.87,4.86s9.9-3.36,14.75,6.91
					c4.86,10.27-4.48,22.78-21.29,22.41c-16.81-0.37-18.49-15.13-18.3-19.61c0,0,9.9,18.82,29.32,19.24
					c8.78,0.19,14.57,0.75,17.55-0.93c2.99-1.68,8.78-5.6,12.33-3.36s4.11,4.3,5.42,3.55c1.31-0.75-1.12-7.84-6.91-8.4
					c-5.79-0.56-11.77,3.17-15.5,3.36c-3.74,0.19-22.22,0.19-29.88-11.21s-2.8-25.03-1.49-29.69c1.31-4.67,5.6-26.52-6.54-34.74
					c-12.14-8.22-29.88-6.54-35.67,5.6c-5.79,12.14-4.48,24.28-2.24,29.51c2.24,5.23,4.3,15.69-3.17,24.28s-22.22,9.9-28.2,2.24
					C782.4,411.79,783.15,403.2,783.15,403.2z"/>
			</defs>
			<use xlink:href="#XMLID_71_"  style="overflow:visible;fill:#7F1DFF;"/>
			<clipPath id="XMLID_29_">
				<use xlink:href="#XMLID_71_"  style="overflow:visible;"/>
			</clipPath>
			<path class="st47" d="M800.62,384.73c0,0-18.22-1.88-20.46,16.79s8.95,31.84,33.98,29.74l-15.31,5.56l-17.55-5.23l-8.03-13.63
				l-0.93-19.61l8.78-16.06l19.05-5.6l7.1,5.6l-1.68,4.67L800.62,384.73z"/>
			<path class="st47" d="M814.15,442.42c0,0-1.49,22.22,13.45,22.6c14.94,0.37,11.77-12.51,11.77-12.51l-8.22,0.37l-2.05-6.91
				l4.48-4.11h6.72l9.34,4.3l-1.12,9.15l-6.91,13.63l-19.05,2.43l-9.52-7.84l-2.99-13.82L814.15,442.42z"/>
			<path class="st47" d="M849.64,441.86c0,0,22.78,7.84,36.42-1.87c13.63-9.71,11.64-32.45-4.73-30.51l-0.31,1.75l-6.16,0.19
				l0.56-3.74l5.23-4.3l5.04-0.56l2.61,0.37l13.07,8.22l2.99,12.14l-8.96,21.29l-16.25,7.66l-18.86-2.8L849.64,441.86z"/>
			<path class="st47" d="M818.54,366.5c0,0,11.58-13.82,32.5-2.8c20.92,11.02,11.95,37.72,11.95,37.72l7.1-15.31l-2.99-24.09
				l-15.87-14.19l-26.52,2.43L818.54,366.5z"/>
		</g>
		<g>
			<ellipse class="st48" cx="851.22" cy="379.76" rx="4.3" ry="5.42"/>
			
				<ellipse transform="matrix(0.9669 -0.2552 0.2552 0.9669 -68.982 229.7524)" class="st10" cx="850.85" cy="380.7" rx="0.89" ry="0.93"/>
		</g>
		<g>
			<ellipse class="st48" cx="834.23" cy="379.76" rx="4.3" ry="5.42"/>
			
				<ellipse transform="matrix(0.2552 -0.9669 0.9669 0.2552 253.5144 1090.5028)" class="st10" cx="834.6" cy="380.7" rx="0.93" ry="0.89"/>
		</g>
		<g>
			<g>
				<path class="st10" d="M833.89,394.41c6.28,3.8,14.98,3.78,20.17-1.95c0.13-0.14-0.04-0.4-0.21-0.27
					c-6.21,4.42-12.82,5.94-19.87,2.08C833.88,394.21,833.79,394.36,833.89,394.41L833.89,394.41z"/>
			</g>
		</g>
		<g class="st49">
			<g>
				<path class="st45" d="M826.66,364.68c0.97-1.24,1.85-2.71,3.22-3.56c0.27-0.17,0.66-0.44,0.97-0.48
					c0.42-0.26,0.6-0.11,0.55,0.45c0.23,0.28,0.24,0.53,0.04,0.74c-0.21,0.68-1.31,1.38-1.88,1.72c-0.7,0.41-1.44,0.72-2.2,0.98
					c-0.23,0.08-0.46,0.15-0.69,0.22c-0.3,0.1-0.31,0.09-0.03-0.01c0.16-0.21,0.56-0.49,0.78-0.71c0.56-0.56,1.19-1.06,1.87-1.47
					c0.39-0.24,1.46-0.91,1.69-0.87c-0.18-0.18-0.35-0.35-0.53-0.53c0.13,0.36-1.49,1.64-1.74,1.83c-0.7,0.53-1.46,0.91-2.28,1.21
					c0.33,0.26,0.67,0.51,1,0.77c0.09-0.68,1.31-1.56,1.8-1.98c0.71-0.6,1.48-1.11,2.28-1.57c-0.4-0.23-0.8-0.46-1.19-0.68
					c-0.05,1.34-1.62,2.17-2.63,2.7c-0.81,0.43-0.25,1.84,0.63,1.5c1.73-0.65,3.54-2.25,3.59-4.21c0.02-0.6-0.68-0.98-1.19-0.68
					c-1.04,0.61-2.01,1.32-2.89,2.13c-0.75,0.69-1.8,1.53-1.95,2.58c-0.08,0.54,0.34,1.2,0.98,0.98c1.77-0.62,3.32-1.69,4.48-3.18
					c0.4-0.52,0.89-1.11,0.59-1.8c-0.21-0.47-0.61-0.63-1.1-0.56c-1.45,0.2-8.08,4.71-5.12,6.09c0.78,0.36,1.83-0.15,2.54-0.42
					c0.93-0.34,1.83-0.76,2.63-1.36c1.14-0.85,2.74-2.57,2.21-4.17c-0.48-1.44-1.99-1.26-3.1-0.74c-1.89,0.89-3.13,2.69-4.03,4.51
					C825.71,364.55,826.31,365.12,826.66,364.68L826.66,364.68z"/>
			</g>
		</g>
		<g class="st49">
			<g>
				<path class="st45" d="M839.91,356.57c0.64-0.12,3.33-0.64,3.71,0.15c-0.02-0.19-0.05-0.37-0.07-0.56
					c0.01-0.03-1.5-0.05-1.76-0.08c-0.76-0.07-1.48-0.3-2.19-0.56c0,0.53,0,1.07,0,1.6c1.14-0.32,2.32-0.34,3.49-0.27
					c0.95,0.06,0.93-1.39,0-1.47c-1.26-0.11-2.46-0.01-3.71,0.11c-0.97,0.09-1.09,1.27-0.22,1.63c1.13,0.47,5.74,1.61,5.81-0.68
					c0.06-2.31-4.2-1.05-5.27-0.68C839.19,355.95,839.39,356.67,839.91,356.57L839.91,356.57z"/>
			</g>
		</g>
		<g class="st49">
			<g>
				<path class="st45" d="M852.93,359.16c0.67,0.19,1.25,0.73,1.61,1.31c0.26-0.26,0.52-0.52,0.78-0.78
					c-0.28-0.18-0.62-0.28-0.93-0.43c-0.31-0.16-0.62-0.38-0.97-0.44c-0.65-0.11-1.08,0.58-0.64,1.1c0.27,0.31,0.7,0.46,1.08,0.59
					c0.37,0.13,0.77,0.26,1.16,0.25c0.49-0.01,0.75-0.61,0.4-0.97c-0.68-0.7-1.5-0.95-2.46-0.93
					C852.8,358.85,852.76,359.11,852.93,359.16L852.93,359.16z"/>
			</g>
		</g>
		<g class="st49">
			<g>
				<path class="st45" d="M843.5,362.78c0.44-0.06,0.86-0.05,1.29,0c0.25,0.03,0.49,0.07,0.74,0.13c0.14,0.04,0.28,0.08,0.42,0.13
					c0.25,0.21,0.35,0.15,0.31-0.15c0.07-0.4-0.09-0.26-0.43-0.3c-0.22-0.02-0.42-0.06-0.63-0.11c-0.45-0.12-0.85-0.31-1.25-0.55
					c-0.06,0.48-0.13,0.97-0.19,1.45c0.52-0.12,1.11,0.05,1.56-0.26c0.25-0.17,0.39-0.52,0.21-0.79c-0.43-0.64-1.28-0.6-1.98-0.52
					c-0.71,0.09-1.18,1.07-0.4,1.48c0.89,0.47,3.93,1.5,4.18-0.22c0.25-1.72-3.07-1.11-3.89-0.79
					C843.2,362.39,843.2,362.82,843.5,362.78L843.5,362.78z"/>
			</g>
		</g>
		<g class="st49">
			<g>
				<path class="st45" d="M855.71,364.93c1.28,0.1,3.61,0.97,3.95,2.41c0.27-0.35,0.54-0.7,0.8-1.05c-1.67,0.03-3.23-0.44-4.14-1.89
					c-0.17,0.41-0.34,0.83-0.51,1.24c0.84-0.13,1.61,0.53,2.21,1.03c0.27-0.46,0.53-0.91,0.8-1.37c-0.54-0.22-1.08-0.43-1.62-0.64
					c-1.04-0.4-1.54,1.33-0.47,1.69c0.55,0.18,1.1,0.37,1.65,0.53c0.93,0.28,1.37-0.99,0.63-1.49c-1.08-0.74-2.09-1.31-3.42-1.41
					c-0.44-0.03-0.88,0.42-0.85,0.85c0.17,2.53,3.85,3.65,5.94,3.1c0.55-0.14,0.73-0.75,0.5-1.22c-0.92-1.86-3.62-2.26-5.47-2.26
					C855.39,364.44,855.4,364.9,855.71,364.93L855.71,364.93z"/>
			</g>
		</g>
	</g>
	<g>
		<g>
			<defs>
				<polygon id="XMLID_75_" points="178.35,675.84 146.03,669.7 171.39,646.25 				"/>
			</defs>
			<use xlink:href="#XMLID_75_"  style="overflow:visible;fill:#7F1DFF;"/>
			<clipPath id="XMLID_30_">
				<use xlink:href="#XMLID_75_"  style="overflow:visible;"/>
			</clipPath>
			<polygon class="st50" points="153.38,652.04 178.43,675.81 185.87,670.37 171.53,639.15 			"/>
		</g>
		<g>
			<defs>
				<polygon id="XMLID_73_" points="206.05,646.23 173.17,645.49 194.33,618.19 				"/>
			</defs>
			<use xlink:href="#XMLID_73_"  style="overflow:visible;fill:#FFBA1F;"/>
			<clipPath id="XMLID_31_">
				<use xlink:href="#XMLID_73_"  style="overflow:visible;"/>
			</clipPath>
			<polygon class="st51" points="208.92,647.5 177.34,628.08 192.58,613.02 200.2,621.37 			"/>
		</g>
		<g>
			<defs>
				<polygon id="XMLID_72_" points="144,700.79 114.38,686.49 144.96,670.41 				"/>
			</defs>
			<use xlink:href="#XMLID_72_"  style="overflow:visible;fill:#FFBA1F;"/>
			<clipPath id="XMLID_32_">
				<use xlink:href="#XMLID_72_"  style="overflow:visible;"/>
			</clipPath>
			<polygon class="st52" points="129.61,673.82 143.94,700.86 149.21,697.41 146.85,671.82 144.12,666.19 			"/>
		</g>
		<g>
			<defs>
				<polygon id="XMLID_76_" points="107.56,718.59 80.89,699.34 113.8,688.84 				"/>
			</defs>
			<use xlink:href="#XMLID_76_"  style="overflow:visible;fill:#7F1DFF;"/>
			<clipPath id="XMLID_33_">
				<use xlink:href="#XMLID_76_"  style="overflow:visible;"/>
			</clipPath>
			<polygon class="st53" points="97.3,688.88 109.46,724.09 117.81,700.86 119.26,678.35 			"/>
		</g>
		<g>
			<defs>
				<polygon id="XMLID_74_" points="225.25,614.39 192.54,617.88 210.03,588.08 				"/>
			</defs>
			<use xlink:href="#XMLID_74_"  style="overflow:visible;fill:#7F1DFF;"/>
			<clipPath id="XMLID_34_">
				<use xlink:href="#XMLID_74_"  style="overflow:visible;"/>
			</clipPath>
			<polygon class="st54" points="227.61,615.38 196.39,600.68 210.19,583.98 215.09,587.97 			"/>
		</g>
		<path class="st55" d="M213.91,582.07c0,0-37.21,97.64-138.66,117.97"/>
	</g>
	<g>
		<g>
			<defs>
				<circle id="XMLID_77_" cx="496.79" cy="650.33" r="75"/>
			</defs>
			<use xlink:href="#XMLID_77_"  style="overflow:visible;fill:#7F1DFF;"/>
			<clipPath id="XMLID_35_">
				<use xlink:href="#XMLID_77_"  style="overflow:visible;"/>
			</clipPath>
			<path class="st56" d="M475.56,575.33c0,0,64.62,9.46,61.62,70.62c-2.19,44.62-72,89.54-119.54,27l4.15,26.54l66.92,42.92
				l76.62-28.85l24.23-63.23l-9.92-56.08l-56.31-32.77L475.56,575.33z"/>
		</g>
		<circle class="st48" cx="499.33" cy="645.95" r="10.62"/>
		<g>
			<defs>
				<ellipse id="XMLID_78_" cx="518.02" cy="602.91" rx="10.62" ry="8.65"/>
			</defs>
			<use xlink:href="#XMLID_78_"  style="overflow:visible;fill:#FFFFFF;"/>
			<clipPath id="XMLID_36_">
				<use xlink:href="#XMLID_78_"  style="overflow:visible;"/>
			</clipPath>
			<path class="st57" d="M475.56,575.33c0,0,64.62,9.46,61.62,70.62c-2.19,44.62-72,89.54-119.54,27l4.15,26.54l66.92,42.92
				l76.62-28.85l24.23-63.23l-9.92-56.08l-56.31-32.77L475.56,575.33z"/>
		</g>
		
			<ellipse transform="matrix(0.7071 -0.7071 0.7071 0.7071 -306.9747 501.1273)" class="st48" cx="451.43" cy="621.11" rx="10.62" ry="8.65"/>
		
			<ellipse transform="matrix(0.4481 -0.894 0.894 0.4481 -360.6108 788.2393)" class="st48" cx="458.12" cy="686.19" rx="8.65" ry="10.62"/>
		
			<ellipse transform="matrix(0.9753 -0.2207 0.2207 0.9753 -141.781 130.1169)" class="st16" cx="511.43" cy="699.58" rx="10.62" ry="8.65"/>
		
			<ellipse transform="matrix(0.5414 -0.8408 0.8408 0.5414 -300.2984 762.7738)" class="st16" cx="549.04" cy="656.65" rx="10.62" ry="8.65"/>
	</g>
	<g>
		<g>
			<defs>
				<path id="XMLID_80_" d="M911.23,616H772.7v72.91h0.01c0,0.04-0.01,0.07-0.01,0.11c0,5.19,31.01,12.26,69.27,12.26
					s69.27-7.08,69.27-12.26c0-0.04,0-0.07-0.01-0.11h0.01V616z"/>
			</defs>
			<use xlink:href="#XMLID_80_"  style="overflow:visible;fill:#7F1DFF;"/>
			<clipPath id="XMLID_39_">
				<use xlink:href="#XMLID_80_"  style="overflow:visible;"/>
			</clipPath>
			<path class="st58" d="M861.74,626.6c0,0,20.77,73.35-63.63,73.35l53.47,10.38l59.66-9.06l14.36-17.23l-7.29-74.68L861.74,626.6z"
				/>
			<g class="st59">
				<defs>
					<polygon id="XMLID_81_" points="769.83,667.48 784.63,638.53 803.63,677.2 826.83,639.86 848.26,678.97 871.46,638.53 
						889.58,677.64 907.03,635 913.88,653.12 913.88,666.15 907.25,649.58 889.58,689.13 871.24,650.91 846.94,689.57 
						826.17,652.68 802.08,689.57 784.41,653.34 770.27,677.64 					"/>
				</defs>
				<use xlink:href="#XMLID_81_"  style="overflow:visible;fill:#B180FF;"/>
				<clipPath id="XMLID_40_">
					<use xlink:href="#XMLID_81_"  style="overflow:visible;"/>
				</clipPath>
				<path class="st60" d="M861.74,626.6c0,0,20.77,73.35-63.63,73.35l53.47,10.38l59.66-9.06l14.36-17.23l-7.29-74.68L861.74,626.6z
					"/>
			</g>
			<g class="st59">
				<defs>
					<path id="XMLID_83_" d="M769.38,621.08c0,0,21.43,13.92,74.9,12.81c47.71-0.99,70.92-12.81,70.92-12.81l-1.1-6.63H768.72
						L769.38,621.08z"/>
				</defs>
				<use xlink:href="#XMLID_83_"  style="overflow:visible;fill:#A360FF;"/>
				<clipPath id="XMLID_41_">
					<use xlink:href="#XMLID_83_"  style="overflow:visible;"/>
				</clipPath>
				<path class="st61" d="M861.74,626.6c0,0,20.77,73.35-63.63,73.35l53.47,10.38l59.66-9.06l14.36-17.23l-7.29-74.68L861.74,626.6z
					"/>
			</g>
			<g class="st59">
				<defs>
					<path id="XMLID_82_" d="M769.38,684.05c0,0,16.96,11.71,72.47,11.71c56.12,0,77.99-15.91,77.99-15.91l-5.52,20.33l-70.48,9.28
						l-74.24-10.38L769.38,684.05z"/>
				</defs>
				<use xlink:href="#XMLID_82_"  style="overflow:visible;fill:#A360FF;"/>
				<clipPath id="XMLID_42_">
					<use xlink:href="#XMLID_82_"  style="overflow:visible;"/>
				</clipPath>
				<path class="st62" d="M861.74,626.6c0,0,20.77,73.35-63.63,73.35l53.47,10.38l59.66-9.06l14.36-17.23l-7.29-74.68L861.74,626.6z
					"/>
			</g>
		</g>
		<g>
			<defs>
				<path id="XMLID_114_" d="M911.23,616.11c0,5.19-31.01,12.26-69.27,12.26s-69.27-7.08-69.27-12.26
					c0-5.19,31.11-13.15,69.36-13.15C880.32,602.96,911.23,610.92,911.23,616.11z"/>
			</defs>
			<use xlink:href="#XMLID_114_"  style="overflow:visible;fill:#FFBA1F;"/>
			<clipPath id="XMLID_43_">
				<use xlink:href="#XMLID_114_"  style="overflow:visible;"/>
			</clipPath>
			<polygon class="st63" points="861.74,596.33 824.84,631.02 897.95,628.37 919.85,617.77 888.47,599.43 			"/>
		</g>
		<g>
			<defs>
				<path id="XMLID_89_" d="M903.28,615.68c0,4.06-27.45,9.6-61.31,9.6s-61.31-5.54-61.31-9.6s27.54-10.29,61.4-10.29
					S903.28,611.62,903.28,615.68z"/>
			</defs>
			<use xlink:href="#XMLID_89_"  style="overflow:visible;fill:#FFD522;"/>
			<clipPath id="XMLID_44_">
				<use xlink:href="#XMLID_89_"  style="overflow:visible;"/>
			</clipPath>
			<polygon class="st64" points="861.74,596.33 824.84,631.02 897.95,628.37 908.65,616.28 888.47,599.43 			"/>
		</g>
		<g>
			<g>
				<defs>
					<path id="XMLID_87_" d="M916.36,603.98l-57.33,8.43l-0.33-1.96l56.88-11.02c1.25-0.24,2.47,0.58,2.71,1.83l0,0
						C918.54,602.55,917.66,603.78,916.36,603.98z"/>
				</defs>
				<use xlink:href="#XMLID_87_"  style="overflow:visible;fill:#7F1DFF;"/>
				<clipPath id="XMLID_45_">
					<use xlink:href="#XMLID_87_"  style="overflow:visible;"/>
				</clipPath>
				<path class="st65" d="M920.29,600.31c-0.44,0-60.32,11.49-60.32,11.49l1.77,2.65l60.1-9.06L920.29,600.31z"/>
			</g>
			<g>
				<defs>
					<circle id="XMLID_86_" cx="855.8" cy="611.83" r="5.94"/>
				</defs>
				<use xlink:href="#XMLID_86_"  style="overflow:visible;fill:#7F1DFF;"/>
				<clipPath id="XMLID_46_">
					<use xlink:href="#XMLID_86_"  style="overflow:visible;"/>
				</clipPath>
				<path class="st66" d="M851.25,605.9c0,0,5.63,1.04,7.4,4.58c1.77,3.54-3.76,7.95-3.76,7.95l3.76,1.99l4.64-7.07l-1.55-6.41
					l-5.2-3.6L851.25,605.9z"/>
			</g>
		</g>
		<g>
			<g>
				<defs>
					<path id="XMLID_88_" d="M770.31,607.51l57.33,8.43l0.33-1.96l-56.88-11.02c-1.25-0.24-2.47,0.58-2.71,1.83l0,0
						C768.13,606.09,769.01,607.32,770.31,607.51z"/>
				</defs>
				<use xlink:href="#XMLID_88_"  style="overflow:visible;fill:#7F1DFF;"/>
				<clipPath id="XMLID_54_">
					<use xlink:href="#XMLID_88_"  style="overflow:visible;"/>
				</clipPath>
				<polygon class="st67" points="767.4,604.51 827.93,616 824.18,618.87 766.51,609.37 				"/>
			</g>
			<g>
				<defs>
					<circle id="XMLID_85_" cx="830.87" cy="615.36" r="5.94"/>
				</defs>
				<use xlink:href="#XMLID_85_"  style="overflow:visible;fill:#7F1DFF;"/>
				<clipPath id="XMLID_79_">
					<use xlink:href="#XMLID_85_"  style="overflow:visible;"/>
				</clipPath>
				<path class="st68" d="M829.26,609.37c0,0,5.42,2.44,4.86,6.63c-0.88,6.63-9.28,3.09-9.28,3.09l4.64,4.2l5.97-0.88l4.42-4.64
					l-0.88-5.97l-3.98-4.2l-5.74-0.44V609.37z"/>
			</g>
		</g>
	</g>
</g>
</svg>
