<svg xmlns="http://www.w3.org/2000/svg" xmlns:xlink="http://www.w3.org/1999/xlink" viewBox="0 0 484.36 806.73"><defs><clipPath id="clip-path" transform="translate(11.49 13.78)"><path d="M255.48,425.51S233,342.43,294.78,244.75c0,0,3.37,34.81,11.23,41.54,0,0,4.49-51.64,0-57.26,0,0,93.18-98.79,93.18-229,0,0,51.65,85.33,50.52,163.92L430.63,192l19.08-21.33V192L416,233.53l33.68-28.07S439.61,294.15,336.32,384l-27.51,6.17h21.33s-46,31.44-59.5,42.67-35.93,80.83-30.31,117.88-22.46-31.43,7.86-101S323.41,334,341.37,311.55s67.36-97.67,74.1-162.79c0,0-18.83,76.79-52.77,121.25C325.71,318.48,268.65,380.77,255.48,425.51Z" style="fill:#7900ff;opacity:0.7000000000000001"/></clipPath><clipPath id="clip-path-2" transform="translate(11.49 13.78)"><path d="M303.27,540.54H92.3c-18.84,0-92.3-1.89-92.3,43.32S17,740.2,17,740.2s3.77,43.33,56.51,43.33H322.11c52.74,0,56.51-43.33,56.51-43.33s16.95-111.13,16.95-156.34S322.11,540.54,303.27,540.54Z" style="fill:#c9c9f4"/></clipPath><clipPath id="clip-path-3" transform="translate(11.49 13.78)"><path d="M130.18,484.37h139a7.74,7.74,0,0,1,7.74,7.74v69.14a0,0,0,0,1,0,0H122.44a0,0,0,0,1,0,0V492.11A7.74,7.74,0,0,1,130.18,484.37Z" style="fill:#c9c9f4"/></clipPath><clipPath id="clip-path-4" transform="translate(11.49 13.78)"><path d="M17.23,652.61s129.67-14.77,169.06-13.13S366.84,651,380,639.48L366.84,739.6s-9,33.65-48.42,33.65H73.86S33.65,770,28.72,738.78,17.23,652.61,17.23,652.61Z" style="fill:#7900ff"/></clipPath></defs><g id="Layer_2" data-name="Layer 2"><g id="ink"><g id="Layer_4" data-name="Layer 4"><path d="M255.48,425.51S233,342.43,294.78,244.75c0,0,3.37,34.81,11.23,41.54,0,0,4.49-51.64,0-57.26,0,0,93.18-98.79,93.18-229,0,0,51.65,85.33,50.52,163.92L430.63,192l19.08-21.33V192L416,233.53l33.68-28.07S439.61,294.15,336.32,384l-27.51,6.17h21.33s-46,31.44-59.5,42.67-35.93,80.83-30.31,117.88-22.46-31.43,7.86-101S323.41,334,341.37,311.55s67.36-97.67,74.1-162.79c0,0-18.83,76.79-52.77,121.25C325.71,318.48,268.65,380.77,255.48,425.51Z" transform="translate(11.49 13.78)" style="fill:#7900ff;opacity:0.7000000000000001"/><g style="clip-path:url(#clip-path)"><path d="M395.5-13.78s34.63,121.17,18.22,174.89S356.81,296.93,296.27,360.32c-15.54,16.27-72.19,111.74-72.19,111.74l9.77,50.75L335,502.2,472.87,189.76l-33-128Z" transform="translate(11.49 13.78)" style="fill:#7900ff"/></g><path d="M303.27,540.54H92.3c-18.84,0-92.3-1.89-92.3,43.32S17,740.2,17,740.2s3.77,43.33,56.51,43.33H322.11c52.74,0,56.51-43.33,56.51-43.33s16.95-111.13,16.95-156.34S322.11,540.54,303.27,540.54Z" transform="translate(11.49 13.78)" style="fill:#c9c9f4"/><g style="clip-path:url(#clip-path-2)"><path d="M287.24,527.87s28.72,7.38,42.67,50.06S224.05,798.69-11.49,773.25L44.32,793l329.09-1.64,22.16-46,19.69-217.48Z" transform="translate(11.49 13.78)" style="fill:#b9b9ea"/></g><path d="M141.67,498.15h139a7.74,7.74,0,0,1,7.74,7.74V575a0,0,0,0,1,0,0H133.93a0,0,0,0,1,0,0V505.9A7.74,7.74,0,0,1,141.67,498.15Z" style="fill:#c9c9f4"/><g style="clip-path:url(#clip-path-3)"><rect x="127.21" y="515.39" width="165.78" height="10.67" style="fill:#b9b9ea"/></g><rect x="112.68" y="485.84" width="195.08" height="29.7" rx="5" style="fill:#d4d4f4"/><path d="M17.23,652.61s129.67-14.77,169.06-13.13S366.84,651,380,639.48L366.84,739.6s-9,33.65-48.42,33.65H73.86S33.65,770,28.72,738.78,17.23,652.61,17.23,652.61Z" transform="translate(11.49 13.78)" style="fill:#7900ff"/><g style="clip-path:url(#clip-path-4)"><path d="M287.24,527.87s28.72,7.38,42.67,50.06S224.05,798.69-11.49,773.25L44.32,793l329.09-1.64,22.16-46,19.69-217.48Z" transform="translate(11.49 13.78)" style="fill:#4a00bf;opacity:0.7000000000000001"/></g><path d="M16.87,618.76S-5,557.32,41.27,557.32c28,0,66-4.52,66-4.52s-40.67,8.13-68.68,28C21.17,593.15,16.87,618.76,16.87,618.76Z" transform="translate(11.49 13.78)" style="fill:#e9e9ff"/><path d="M107.24,495.87V483.1a6.2,6.2,0,0,1,6.2-6.21h55.24S111.75,477.8,107.24,495.87Z" transform="translate(11.49 13.78)" style="fill:#e9e9ff"/></g></g></g></svg>