<svg xmlns="http://www.w3.org/2000/svg" xmlns:xlink="http://www.w3.org/1999/xlink" viewBox="0 0 3000 2000"><defs><clipPath id="clip-path"><path d="M693.5,413.14v.36s-531,111-531,357v855.35h531v-.35h531V770.14C1224.5,524.14,693.5,413.14,693.5,413.14Z" style="fill:#5c3801"/></clipPath><clipPath id="clip-path-2"><path d="M1573,247l77,4,208-14,235-63,112-17,164,47,185,34,125,14,77.61,6.72,11.4,13.65V322l19,512-9,750s-56,71-210,27c-80.46-23-454.48,88.92-594,70-236-32-379-67-379-67l-70-284,12-465,45-606Z" style="fill:#91001f"/></clipPath><clipPath id="clip-path-3"><path d="M2179.5,116.5s-313,130-606,130c0,0,290,54,606-65,0,0,218,80,585,77C2764.5,258.5,2436.5,229.5,2179.5,116.5Z" style="fill:#e30031"/></clipPath><clipPath id="clip-path-4"><path d="M1573.5,246.5s-93,610-110,753-41,634-50,737-50,263-50,263h332s-66-513-63-657,13.73-676.57,2-765C1621.5,479.5,1573.5,246.5,1573.5,246.5Z" style="fill:#e30031"/></clipPath><clipPath id="clip-path-5"><path d="M2764.5,258.5s-23,463-38,697,15,1044,15,1044h204s-25-597-54-869-53-565-81-692S2764.5,258.5,2764.5,258.5Z" style="fill:#e30031"/></clipPath><clipPath id="clip-path-6"><circle cx="1573.5" cy="242.5" r="34" style="fill:#ffc61f"/></clipPath><clipPath id="clip-path-7"><circle cx="2764.5" cy="251.5" r="34" style="fill:#ffc61f"/></clipPath><clipPath id="clip-path-8"><circle cx="2179.5" cy="114.5" r="23" style="fill:#ffc61f"/></clipPath><clipPath id="clip-path-9"><path d="M2208.94,74.45C2208.88,56.45,2180,20,2180,20l-.5-.5s-30,37-30,55c0,16.65,25.65,20.46,29.5,20.94v.11l.44-.06h.06C2183.35,95,2209,91.1,2208.94,74.45Z" style="fill:#ffc61f"/></clipPath><clipPath id="clip-path-10"><path d="M556.62,966s-18.09-98-36.18-125.49c0,0,40.2-6.12,78.38,24.48,0,0,22.11-52,42.2-64.27,0,0,30.15,30.61,42.21,55.09,0,0,12.06-76.52,36.17-88.76,0,0,30.15,39.79,32.16,88.76,0,0,28.13-61.21,48.23-64.27,0,0,22.11,45.91,20.1,85.7,0,0,38.18-36.73,64.31-21.43,0,0-46.23,58.16-38.19,137.74l-92.44,21.42-170.83,18.37Z" style="fill:#ffc61f"/></clipPath><clipPath id="clip-path-11"><path d="M504.47,1149.73s-72.16-105.27-13.75-157.64,117-14.6,117-14.6,59-66.43,121.35-61.51S775,970.11,775,970.11s93.47-27.07,127.9,54.13-3.28,128-27.88,140.26c0,0,91.83,155-18,177.16,0,0,6.56,123-96.75,135.33s-119.71-27.06-119.71-27.06-126.27,88.58-118.07-86.12c0,0-65.59-41.83-21.31-88.59,0,0-52.48-32-39.36-83.66S504.47,1149.73,504.47,1149.73Z" style="fill:#66ffe6"/></clipPath><clipPath id="clip-path-12"><path d="M1117.61,1188.68c-8.06-16.27-41.33-100-46.67-157.69s-33.8-71.53-52.65-88.88-83.79-80-71.46-122.53,82.05-22,110.58,16.76,27.21,63.39,33.15,163.39,30.43,133.93,43.77,149.92,33.82,36.14,21.82,50S1125.72,1205,1117.61,1188.68Z" style="fill:#ad6200"/></clipPath><clipPath id="clip-path-13"><path d="M953,835.26c.88,14.38,16.15,55.6,53.38,83.82s56.75,15.56,59.05-5-23.51-77.77-66.79-96.74S951.82,816.77,953,835.26Z" style="fill:#e3a545"/></clipPath><clipPath id="clip-path-14"><path d="M1100,1052c-9.84-4.92-33-12-38-4s2.3,90.77,47.28,57.11C1116.05,1100.05,1116.05,1060,1100,1052Z" style="fill:#111112"/></clipPath><clipPath id="clip-path-15"><path d="M563.07,1165.55s112.54,65.1,269.3-4.65c0,0-30.14,86-74.36,104.62s-142.69,18.6-164.79,0S563.07,1165.55,563.07,1165.55Z" style="fill:#003f57"/></clipPath><clipPath id="clip-path-16"><path d="M595.23,1173s16.07,34.16,32.15,40.19S665.57,1183,665.57,1183Z" style="fill:#fff"/></clipPath><clipPath id="clip-path-17"><path d="M723.85,1183s28.13,26.12,46.22,24.11,20.1-40.19,20.1-40.19Z" style="fill:#fff"/></clipPath><clipPath id="clip-path-18"><path d="M609.29,1283.49s20.1-32.15,32.16-36.17,28.13,42.2,28.13,42.2Z" style="fill:#fff"/></clipPath><clipPath id="clip-path-19"><path d="M717.82,1285.5s4-42.2,20.09-46.22,36.18,34.16,36.18,34.16Z" style="fill:#fff"/></clipPath><clipPath id="clip-path-20"><path d="M359.5,1415.5S302,1563,282,1595s-123,140-129,148,13.5,32.5,21.5,33.5,25,0,25,0-19,64-23,76-2,31,26,34,115,8,129-5,42-40,59-44c0,0-13,43-10,48s48,80,57,81,28,3,47,9,57,2,77,8,63,14,101,0,85-35,88-40-11-78,10-86,35,13,27,32-14,38,20,42,45-12,62-11,29,18,56,24,130,17,147-5S1130,1881,1120,1863s-1-39,15-35,22.5-4.5,59.5-5.5,42-12,41-18-51-44-71-50-29-27-41-47-49-85-70-148-70-157-70-157Z" style="fill:#cceaff"/></clipPath></defs><g id="Layer_2" data-name="Layer 2"><g id="inside-castle"><g id="Layer_9" data-name="Layer 9"><polygon points="3000 1580 0 1579 0 0 3000 0 3000 1580" style="fill:#e68d02"/><path d="M111.5,47.5c25,0,241-12,245,0s13,97,0,110-252.94,15.65-263,0C84.5,143.5,86.5,47.5,111.5,47.5Z" style="fill:#e6a033"/><path d="M309.5,197.5c18-1,194-12,212,0s12,94,7,100-232,14-234,4S291.5,198.5,309.5,197.5Z" style="fill:#e6a033"/><path d="M641.5,133.5c-31.54-9.7-96.39-8.53-104,5-9,16-11,54,12,57s90,2,97-4S654.5,137.5,641.5,133.5Z" style="fill:#e6a033"/><path d="M1674.5,629.5c25,0,241-12,245,0s13,97,0,110-252.94,15.65-263,0C1647.5,725.5,1649.5,629.5,1674.5,629.5Z" style="fill:#e6a033"/><path d="M1872.5,779.5c18-1,194-12,212,0s12,94,7,100-232,14-234,4S1854.5,780.5,1872.5,779.5Z" style="fill:#e6a033"/><path d="M2204.5,715.5c-31.54-9.7-96.39-8.53-104,5-9,16-11,54,12,57s90,2,97-4S2217.5,719.5,2204.5,715.5Z" style="fill:#e6a033"/><path d="M991.5,338.5c44.81-4.64,286-14,302,0s18,127,8,144-291,17.85-313,1C971.5,470.5,962.5,341.5,991.5,338.5Z" style="fill:#e6a033"/><path d="M1293.5,293.5c-5.89-20.18-10-72,21-80s195-11,201,0,13,87-4,91S1300.5,317.5,1293.5,293.5Z" style="fill:#e6a033"/><path d="M1573.5,338.5c-30-4-234-11-240,0s-17,139,10,149,212,10,225,4S1573.5,338.5,1573.5,338.5Z" style="fill:#e6a033"/><path d="M1194.5,835.5c17,1,103-9,113,0s4,148,0,154-109,14-122,4S1194.5,835.5,1194.5,835.5Z" style="fill:#e6a033"/><path d="M310.5,572.5c-28,0-184-12-193,8s-18,176,0,181,156,0,156,0Z" style="fill:#e6a033"/><path d="M1552,0s-10.5,70.5-.5,75.5,243,4,252,0S1809,0,1809,0Z" style="fill:#e6a033"/><path d="M1813.5,196.5c16,2,228,2,235,0s24-85,7-95-237-15-250-3C1796.41,106.89,1797.5,194.5,1813.5,196.5Z" style="fill:#e6a033"/><path d="M2425.5,217.5c-.91-28.27-10-101,22-103s261-8,275,7,33,141,0,145S2427.5,279.5,2425.5,217.5Z" style="fill:#e6a033"/><path d="M1687.5,1290.5c-.91-28.27-10-101,22-103s261-8,275,7,33,141,0,145S1689.5,1352.5,1687.5,1290.5Z" style="fill:#e6a033"/><path d="M2740.5,333.5c54,2,122-7,145,0s2,115,0,129-155,5-155,5Z" style="fill:#e6a033"/><path d="M1483.5,1024.5c-22-3-205-16-210,0s-12,151,12,154,208-7,208-7Z" style="fill:#e6a033"/><path d="M1198.5,1457.5c16-1,134-10,143,0s4,135,0,141-150,6-150,6Z" style="fill:#e6a033"/><path d="M0,949s54.87-5.23,67.5-.5c16,6,22,123,5,128C61.15,1079.84,0,1078,0,1078Z" style="fill:#e6a033"/><path d="M170.5,1150.5c-23-4-72-10-77,9s-10,127,10,130,101,0,101,0Z" style="fill:#e6a033"/><polygon points="0 1536 3000 1356 3000 1747 0 1683 0 1536" style="fill:#783501;opacity:0.30000000000000004"/><path d="M134.06,705.63S159,572,342,473,702,345,702,345s593,118,593,356v928l-116-27,6-982L710,394,294,540Z" style="fill:#783501;opacity:0.15"/><path d="M693.5,366v.38S121.21,486,121.21,751.14V1673H693.5v-.38h572.29V750.76C1265.79,485.63,693.5,366,693.5,366Z" style="fill:#995501"/><path d="M333.5,745.5c49-5,233-1,238,8s14,112-1,120-275,16-279,7S284.5,750.5,333.5,745.5Z" style="fill:#784901"/><path d="M588.5,732.5c-15-24-13-115,11-125,13.44-5.6,250-11,266-1s9,131-2,139S604.62,758.29,588.5,732.5Z" style="fill:#784901"/><path d="M873.5,1088.5c-4.91-34.36-3-136,5-140s269-17,286-5,16,148,6,154S876.5,1109.5,873.5,1088.5Z" style="fill:#784901"/><path d="M628.5,765.5c28-1,143-2,151,8s12,68-1,76-160,13-168,5S600.5,766.5,628.5,765.5Z" style="fill:#784901"/><path d="M801.5,1106.5c13-2,154-3,159,8s17,90,5,98-171,20-176,3S788.5,1108.5,801.5,1106.5Z" style="fill:#784901"/><path d="M693.5,413.14v.36s-531,111-531,357v855.35h531v-.35h531V770.14C1224.5,524.14,693.5,413.14,693.5,413.14Z" style="fill:#5c3801"/><g style="clip-path:url(#clip-path)"><path d="M438.28,314.62S956.19,1141.49,628,1605s572.58,78.17,572.58,78.17L1325,1557l-3-924L846,315,579,297Z" style="fill:#402701;opacity:0.51"/></g><path d="M2956.5,366v.38S2384.21,486,2384.21,751.14V1673H2956.5v-.38H3000V376.37Z" style="fill:#995501"/><path d="M2596.5,745.5c49-5,233-1,238,8s14,112-1,120-275,16-279,7S2547.5,750.5,2596.5,745.5Z" style="fill:#784901"/><path d="M2956.5,413.14v.36s-531,111-531,357v855.35h531v-.35H3000V423.58Z" style="fill:#5c3801"/><rect x="2227" y="259" width="773" height="1334" style="fill:none"/><polygon points="697.3 0 449 1599 937 1599 729.77 0 697.3 0" style="fill:#e6e5e1;opacity:0.23"/><polygon points="57.3 0 0 368.99 0 1599 297 1599 89.77 0 57.3 0" style="fill:#e6e5e1;opacity:0.23"/><polygon points="1366 0 1119 1593 1607 1593 1401 0 1366 0" style="fill:#e6e5e1;opacity:0.23"/><polygon points="2116.3 0 1868 1599 2356 1599 2148.77 0 2116.3 0" style="fill:#e6e5e1;opacity:0.23"/><polygon points="2791.3 0 2543 1599 3000 1599 2999.52 1356.06 2823.77 0 2791.3 0" style="fill:#e6e5e1;opacity:0.23"/><rect y="1578" width="3000" height="422" style="fill:#e6b66a"/><path d="M71.24,1834.83c41.23-19.49,82.55-38.72,123.11-59.6,3-1.55.37-5.76-2.6-4.45-41.81,18.37-82.82,38.37-124,58.14-4,1.91-.5,7.78,3.46,5.91Z" style="fill:#e6b66a"/><rect y="1578" width="3000" height="47" style="fill:#e67402;opacity:0.54"/><polyline points="2314 1578 3000 1578 3000 2000 1532 2000 2314 1578" style="fill:#e67402;opacity:0.54"/><path d="M1551,227s21-44,56-19c14,10,19,27,19,27s373-43,543-126l17-29-7-60s31,26,35,51-12,25-12,25,14,12,12,25c0,0,201,72,324,96s210,31,210,31l19.94-30.33S2790,217,2798,229s19,41-15,60l68,247,106,1090-46,9L2765,258l-65.63.16L2269,194l-126-37-240.43,72.46-264.2,21.95L1582,259Z" style="fill:#783501;opacity:0.35000000000000003"/><path d="M1573,247l77,4,208-14,235-63,112-17,164,47,185,34,125,14,77.61,6.72,11.4,13.65V322l19,512-9,750s-56,71-210,27c-80.46-23-454.48,88.92-594,70-236-32-379-67-379-67l-70-284,12-465,45-606Z" style="fill:#91001f"/><g style="clip-path:url(#clip-path-2)"><path d="M1985.11,91.5S2313,650,2270,962s-354,792-354,792l401-10,448-114,34-1442Z" style="fill:#80001b"/></g><path d="M2179.5,116.5s-313,130-606,130c0,0,290,54,606-65,0,0,218,80,585,77C2764.5,258.5,2436.5,229.5,2179.5,116.5Z" style="fill:#e30031"/><g style="clip-path:url(#clip-path-3)"><path d="M1588.38,249.5S1900,267,2035,209s144.5-44.06,144.5-44.06S2562,267,2679,265l-172.42-5.93L2179,203l-187,44-208,25-148-3-47.62-19.5" style="fill:#c9002b"/></g><path d="M1573.5,246.5s-93,610-110,753-41,634-50,737-50,263-50,263h332s-66-513-63-657,13.73-676.57,2-765C1621.5,479.5,1573.5,246.5,1573.5,246.5Z" style="fill:#e30031"/><g style="clip-path:url(#clip-path-4)"><path d="M1460.85,1994.6c21.68-90.79,53.86-251.18,64.15-437.6,16-290,52-749,64-622,11.15,118-70.09,853.4-15,1059.6C1574,1994,1461,1995,1460.85,1994.6Z" style="fill:#c9002b"/><path d="M1607,317s-5,224,0,399-7,693,0,824c5.64,105.62,23.64,362.07,30.4,457.46-.4-.46,100,2,100,2L1727,1882l-51-327-3-357,3-451-31-335Z" style="fill:#c9002b"/></g><path d="M2764.5,258.5s-23,463-38,697,15,1044,15,1044h204s-25-597-54-869-53-565-81-692S2764.5,258.5,2764.5,258.5Z" style="fill:#e30031"/><g style="clip-path:url(#clip-path-5)"><path d="M2905.93,1995.59c1.51-44.16.08-127.14-17.93-257.59-29-210-37-700-54-866s13-374,13-374l116,1267v229.54S2906,1996,2905.93,1995.59Z" style="fill:#c9002b"/><path d="M2796.58,1996.11c-4.39-86.86-7-283-.58-373.11,8-112,11,200,24,261,7.16,33.6,16.75,78.42,23.92,111.91C2844,1996,2797,1996,2796.58,1996.11Z" style="fill:#c9002b"/></g><circle cx="1573.5" cy="242.5" r="34" style="fill:#ffc61f"/><g style="clip-path:url(#clip-path-6)"><path d="M1566,206s27,18,26,36-28,35-55,14l6,16,18,9,17,2,21-10,13.73-23.94L1612,237l-11-25-25-10Z" style="fill:#f5a300"/></g><circle cx="2764.5" cy="251.5" r="34" style="fill:#ffc61f"/><g style="clip-path:url(#clip-path-7)"><path d="M2762,212s35,29,16,51-56-1-56-1l15,33,50,6,20-27V243l-11-29Z" style="fill:#f5a300"/></g><circle cx="2179.5" cy="114.5" r="23" style="fill:#ffc61f"/><g style="clip-path:url(#clip-path-8)"><path d="M2165,94s21,1,27,18-24,26-38,9l5,13,10,8h19l11-8,6-14V101l-15-11-18.8-2.5Z" style="fill:#f5a300"/></g><path d="M2208.94,74.45C2208.88,56.45,2180,20,2180,20l-.5-.5s-30,37-30,55c0,16.65,25.65,20.46,29.5,20.94v.11l.44-.06h.06C2183.35,95,2209,91.1,2208.94,74.45Z" style="fill:#ffc61f"/><g style="clip-path:url(#clip-path-9)"><path d="M2179,13s15,39,14,56-18,27-49,9l7,18,25,7,29-9,11-20-22-45Z" style="fill:#f5a300"/></g><path d="M152,1743s11.31,35,20.66,39S190,1818,188,1834s87.05,53.8,87.05,53.8S311,1897,330,1893s43-9,67-5,224,99,224,99,34,14,56,4,76.19-39.7,137.09-63.35S827,1928,827,1928s10,8,23,4,67,4,78,5,120,15,151,16,71-16,139-29,136-20,159-33,88-97-45-131-271.59-25.82-271.59-25.82L293,1722l-141,21" style="fill:#e67402;opacity:0.54"/><path d="M556.62,966s-18.09-98-36.18-125.49c0,0,40.2-6.12,78.38,24.48,0,0,22.11-52,42.2-64.27,0,0,30.15,30.61,42.21,55.09,0,0,12.06-76.52,36.17-88.76,0,0,30.15,39.79,32.16,88.76,0,0,28.13-61.21,48.23-64.27,0,0,22.11,45.91,20.1,85.7,0,0,38.18-36.73,64.31-21.43,0,0-46.23,58.16-38.19,137.74l-92.44,21.42-170.83,18.37Z" style="fill:#ffc61f"/><g style="clip-path:url(#clip-path-10)"><path d="M541,945.86s52.26-8,66.32,18.09c0,0,64.31-74.36,138.67-60.29s40.2,56.27,40.2,56.27,52.25-22.11,70.34-4l-2,32.16H766.05l-10-48.24-66.32-6-82.4,60.29L543,972Z" style="fill:#f5a300"/><path d="M896.68,847.39s-86.42,50.24-90.44,110.53l42.21,2s28.13-80.39,38.18-94.45S896.68,847.39,896.68,847.39Z" style="fill:#f5a300"/><path d="M798.21,787.1s16.07,76.37,8,102.49c0,0,20.1-14.07,24.12-26.12S812.27,795.14,798.21,787.1Z" style="fill:#f5b400"/><path d="M717.82,763s26.12,86.42,24.11,108.52c0,0,12.06-12,14.07-36.17S725.86,765,717.82,763Z" style="fill:#f5b400"/><path d="M640.41,796.71s35.2,64.75,35.2,78.81c0,0,14.07-10,4-46.22S640.41,796.71,640.41,796.71Z" style="fill:#f5b400"/><path d="M516.85,839.35s74.36,22.11,80.39,44.21c0,0,9.82-25.46-14.19-37.85S516.85,839.35,516.85,839.35Z" style="fill:#f5b400"/><path d="M516.85,839.35S557,871.5,563.07,905.67,547,947.87,547,947.87Z" style="fill:#ffe494"/><path d="M597.24,863.47v20.09s32.15-78.38,46.22-84.4l-14.07,6-32.15,58.29" style="fill:#ffe494"/><path d="M683.65,855.43a70.62,70.62,0,0,1-8,20.09s18.09-10,18.09-16.07S707.77,761,727.87,761l-16.08,4-26.13,54.26Z" style="fill:#ffe494"/><path d="M806.24,791.12S792.18,779.06,758,861.46c0,0-6,8-16.08,10A98.53,98.53,0,0,0,756,839.35C760,821.26,790.17,779.06,806.24,791.12Z" style="fill:#ffe494"/><path d="M806.24,889.59s32.16-38.18,60.3-40.19,24.11,8,24.11,8-20.1-16.08-82.4,38.18C808.25,895.62,800.22,893.61,806.24,889.59Z" style="fill:#ffe494"/></g><path d="M504.47,1149.73s-72.16-105.27-13.75-157.64,117-14.6,117-14.6,59-66.43,121.35-61.51S775,970.11,775,970.11s93.47-27.07,127.9,54.13-3.28,128-27.88,140.26c0,0,91.83,155-18,177.16,0,0,6.56,123-96.75,135.33s-119.71-27.06-119.71-27.06-126.27,88.58-118.07-86.12c0,0-65.59-41.83-21.31-88.59,0,0-52.48-32-39.36-83.66S504.47,1149.73,504.47,1149.73Z" style="fill:#66ffe6"/><g style="clip-path:url(#clip-path-11)"><path d="M488.71,1279.47s112.54,44.22,221.07,32.16,144.7-66.32,136.66-146.71c0,0,112.54-160.78-94.46-168.81,0,0-18.08-78.38-144.7-2,0,0-50.24-40.2-116.56-14.07l88.43-44.22,148.72-35.67,104.5,48.69,78.38,45.27,42,78.37L902.71,1171l32.16,116.56-32.16,68.33-34.16,58.28-36.18,56.28L490.72,1396l-30.14-58.28Z" style="fill:#18dbbb"/></g><g id="hand"><path d="M889.87,1263.18S1032,1267.18,1100,1089" style="fill:none;stroke:#111112;stroke-linecap:round;stroke-miterlimit:10;stroke-width:9px"/><path d="M1117.61,1188.68c-8.06-16.27-41.33-100-46.67-157.69s-33.8-71.53-52.65-88.88-83.79-80-71.46-122.53,82.05-22,110.58,16.76,27.21,63.39,33.15,163.39,30.43,133.93,43.77,149.92,33.82,36.14,21.82,50S1125.72,1205,1117.61,1188.68Z" style="fill:#ad6200"/><g style="clip-path:url(#clip-path-12)"><path d="M942.69,826s6.54-38.17,62-12,75.2,78.61,77.28,137.28-4.6,152.39,78.09,253.63l5.36-26.35-50.11-79-14-98-4.73-85.36-21.88-75-33.55-27.83-43.72-19.58-37.06-1.29-20.08,24Z" style="fill:#915200"/></g><path d="M953,835.26c.88,14.38,16.15,55.6,53.38,83.82s56.75,15.56,59.05-5-23.51-77.77-66.79-96.74S951.82,816.77,953,835.26Z" style="fill:#e3a545"/><g style="clip-path:url(#clip-path-13)"><path d="M1021.74,823.54s-37.8-8.71-26.79,43.33,51.32,74.11,65.69,68.58S1046,957.94,1046,957.94l-62-39-39-58V795.81l43-5Z" style="fill:#ffca78"/></g><path d="M1090.11,1054.18S1072,1030,1080,1022s15,0,17,12,9,30,9,30Z" style="fill:#111112"/><path d="M1100,1052c-9.84-4.92-33-12-38-4s2.3,90.77,47.28,57.11C1116.05,1100.05,1116.05,1060,1100,1052Z" style="fill:#111112"/><g style="clip-path:url(#clip-path-14)"><path d="M1095.39,1049s22.66,67.07-29.38,49.06l12,18,22-2.93,19-14.08-11-48-12.65-2"/></g></g><circle cx="644.46" cy="1069.46" r="65.32" style="fill:#0ec9ab"/><circle cx="744.95" cy="1079.51" r="37.18" style="fill:#0ec9ab"/><circle cx="732.89" cy="1081.52" r="25.12" style="fill:#fff"/><circle cx="671.59" cy="1068.46" r="38.18" style="fill:#fff"/><circle cx="684.66" cy="1077.5" r="13.06"/><circle cx="727.87" cy="1082.52" r="10.05"/><path d="M563.07,1165.55s112.54,65.1,269.3-4.65c0,0-30.14,86-74.36,104.62s-142.69,18.6-164.79,0S563.07,1165.55,563.07,1165.55Z" style="fill:#003f57"/><g style="clip-path:url(#clip-path-15)"><path d="M711.79,1181s-6,100.48-132.64,82.4l20.1,16.07,60.29,10,90.43-8,46.23-22.1,44.21-102.5-32.16,4Z" style="fill:#002b3b"/><path d="M595.23,1173s16.07,34.16,32.15,40.19S665.57,1183,665.57,1183Z" style="fill:#fff"/><g style="clip-path:url(#clip-path-16)"><path d="M609.29,1199.09s28.14,26.12,42.21-14.07l14.07,6-8,10-14.07,16.07-16.08,2-14.07-10Z" style="fill:#5a70e0;opacity:0.32"/></g><path d="M723.85,1183s28.13,26.12,46.22,24.11,20.1-40.19,20.1-40.19Z" style="fill:#fff"/><g style="clip-path:url(#clip-path-17)"><path d="M743.94,1203.11s42.21,12.05,32.16-30.15h18.09V1187l-10.05,18.08-12.06,6-20.1-2Z" style="fill:#5a70e0;opacity:0.32"/></g><path d="M609.29,1283.49s20.1-32.15,32.16-36.17,28.13,42.2,28.13,42.2Z" style="fill:#fff"/><g style="clip-path:url(#clip-path-18)"><path d="M609.29,1269.43s40.2,8,44.22,2-6-28.14-18.09-26.13l12.06-2,18.09,14.07,4,26.12H653.51l-44.22-6Z" style="fill:#5a70e0;opacity:0.32"/></g><path d="M717.82,1285.5s4-42.2,20.09-46.22,36.18,34.16,36.18,34.16Z" style="fill:#fff"/><g style="clip-path:url(#clip-path-19)"><path d="M711.79,1269.43s40.19-4,42.2-10-6-20.1-22.1-20.1,14.06-10,24.11-4,20.1,28.14,20.1,28.14l-34.17,14.06-28.13,2Z" style="fill:#5a70e0;opacity:0.32"/></g></g><path d="M359.5,1415.5S302,1563,282,1595s-123,140-129,148,13.5,32.5,21.5,33.5,25,0,25,0-19,64-23,76-2,31,26,34,115,8,129-5,42-40,59-44c0,0-13,43-10,48s48,80,57,81,28,3,47,9,57,2,77,8,63,14,101,0,85-35,88-40-11-78,10-86,35,13,27,32-14,38,20,42,45-12,62-11,29,18,56,24,130,17,147-5S1130,1881,1120,1863s-1-39,15-35,22.5-4.5,59.5-5.5,42-12,41-18-51-44-71-50-29-27-41-47-49-85-70-148-70-157-70-157Z" style="fill:#cceaff"/><g style="clip-path:url(#clip-path-20)"><path d="M756,1490c112,10,134,77,220,323,15.93,45.57,31,100-10,116s-93-40-112-27-61,48-83,24l43,40,181,25,135-43-2-121,108,18,25-49-117-99L988,1374l-57-20S644,1480,756,1490Z" style="fill:#b3d6ff"/><path d="M189,1789s153-221,162-282-64,124-106,169-93,97-93,97Z" style="fill:#b3d6ff"/><path d="M390,1838s35-107,44-162-52,22-74,88-37,119-113,131l61,16,52-28Z" style="fill:#b3d6ff"/><path d="M767,1865s-28-193-32-258-27-17-31,90,7,267,26,273,39-26,39-26Z" style="fill:#b3d6ff"/><path d="M554,1991s14-58,14-114-19,24-27,58-33,56-33,56Z" style="fill:#b3d6ff"/><path d="M1155,1843s-70-79-102-146,30,121,76,163S1155,1843,1155,1843Z" style="fill:#cceaff"/></g><ellipse cx="674" cy="1417.5" rx="314.5" ry="75" style="fill:#edf7ff"/></g></g></g></svg>