<svg xmlns="http://www.w3.org/2000/svg" xmlns:xlink="http://www.w3.org/1999/xlink" viewBox="0 0 1958.58 1594.77"><defs><clipPath id="clip-path"><path d="M1668.57,1161.85c-120,0-1442.29-59.88-1442.29-59.88s-168.71,60.88-215.71,87.88c-21.36,12.27,27.72,54.91,129.49,101.06-55.13,2.84-121.16,8.55-134.68,19.82-24,20,32,114,173,137s-52,78,0,114,441-5,541-32,281-109,471-64c184.32,43.65,645.33,1.66,528.47-81.23,119.41-32.82,210.7-81.24,219.72-120.65C1957.57,1180.85,1788.57,1161.85,1668.57,1161.85Z" style="fill:#59e7ff"/></clipPath><clipPath id="clip-path-2"><path d="M101.05,1188.6c-45.53-37.68,229.75-261.25,344.62-314s503-86.16,639.23-95.42,503,144.52,561.4,172.31,176,246.42,176,271.44-234.23,73.49-420.44,75.35-484.41-98.71-700-61C591.88,1256.47,208.51,1277.54,101.05,1188.6Z" style="fill:#ffcf6d"/></clipPath><clipPath id="clip-path-3"><path d="M1219.88,845.23s20-455,279-507l14,20s-199-22-248,487Z" style="fill:#e68d02"/></clipPath><clipPath id="clip-path-4"><path d="M1495.08,78.2s66.75,18.45,86.81,77.31-25.25,136.16-81,195.18l12.83-26.8,12.43-73.11,23.64-7.06-23-3.84s4.93-33.35.42-49.56l26.13,5.6s-6.16-14-26-20.37C1527.32,175.55,1521.61,116.28,1495.08,78.2Z" style="fill:#41a500"/></clipPath><clipPath id="clip-path-5"><path d="M1513.31,332s64.16-61.48,118.12-62,91,23.85,117.14,51.87c0,0-36.11-10.46-67.63,8.17,0,0-20.23-34.55-36.79-35.81,0,0,19.23,25.86,18,37.19,0,0-38.38,11.23-52.76,7.34s-52.89,4-64.78,12.76l-35.44-9.84Z" style="fill:#41a500"/></clipPath><clipPath id="clip-path-6"><path d="M1243.45,153.41s92.27-56.62,163.1-40.61S1537,182.4,1507,345.67l-30-36.12,26.51-34.42-31.73,20.52S1429.42,254,1408.21,247c0,0,14.42-23.77,46.71-54.25,0,0-14-3.37-70.28,37.94,0,0-37.83-35-70-46.93L1369.46,148s-53.85,17.73-63.43,27.22Z" style="fill:#41a500"/></clipPath><clipPath id="clip-path-7"><path d="M1507.1,345.62s2.38-22.65,83.11,3.47,116.35,41.3,121.76,85.27,8.4,88.17-18.11,172.68a319.43,319.43,0,0,0-27.49-56.31s25.93-60.72,10-91c0,0-4.13,43.93-17.2,82.15l-40.51-45.75s15.2-49.44,6.3-64.68c0,0-6.36,38-16,52.69l-27.87-34.4s23.27-49.07,17.41-65.91c0,0-16,43.16-24.17,57.57L1546.46,407Z" style="fill:#41a500"/></clipPath><clipPath id="clip-path-8"><path d="M1223.6,433.71s11.1-51.31,30.76-75,49.35-33.94,49.35-33.94-26.52-1.83-34.74,8.28c0,0,25.72-26.88,61-35.58s113.79-34.34,142.1-13.24,40.74,70.24,40.74,70.24-36.25-22.07-84.77,26.74c0,0-5.85-30.67-17.38-48.09,0,0,8.34,43.32,4.39,49.11s-42.18,24.67-51,22.32c0,0,1-55.22-8.6-68.16l-9.5,72.46-46.68,8.46s20.39-39.83,14.13-52.89L1292,423.23l-19.59.33s18.06-44.86,26.87-60.63c0,0-33.71,39.4-41.42,62.92C1257.81,425.85,1230.65,439.22,1223.6,433.71Z" style="fill:#41a500"/></clipPath><clipPath id="clip-path-9"><path d="M1509.21,341.62s37.45,13.39,49.73,50.93,12.13,80,9.08,95.4-3.21,39.73-6.84,47-22.08,37.75-26.07,53.08c0,0,3.32-22.55-8.51-37.15,0,0,1.76,46.93-7.2,55s-33.22,16.55-33.22,16.55-38.88-52.25-46.44-71.17c0,0,31-32,44.48-42.08s27.21-22.9,9.14-14.3S1444.3,526,1444.3,526l24.58-75.17,41.95-27.08L1473.2,437l10.16-33.27,47.4-10.77s-30.57-13.23-41.12-8.13Z" style="fill:#41a500"/></clipPath><clipPath id="clip-path-10"><path d="M958.88,842.23s89-532-267-544l16-27s309-3,352,454v118Z" style="fill:#e68d02"/></clipPath><clipPath id="clip-path-11"><path d="M697.21,289.54s-39.36,70.16-55.21,118l13.51,3L635.27,422l-10,45.61,22.13-4-26.22,22.57-3.95,46.07,33.46-19.2L622,562.6s40.6,85.11,96.67,116c0,0,37.6-58.14,47.06-117.17L705,519.75l68.6,6.25s3.11-38.29-1.79-48.22l-51.53-11.35,42.85-13.59-15.48-50.35-32.46,2.6,25.3-18.35Z" style="fill:#41a500"/></clipPath><clipPath id="clip-path-12"><path d="M517.72,640.16s-27.2-93.67-26.64-140.49S517.44,400.08,585,354.73,696.7,289.87,696.7,289.87L627.88,409.34,595,405.65,614,432l-14.85,31.27-36.61-10.72L583.11,496l-11,25.92L536.3,495.46l17.19,58.69Z" style="fill:#41a500"/></clipPath><clipPath id="clip-path-13"><path d="M381.67,489.76s15.75-103.7,64.77-173.51S534,244.31,595,256.86s106.43,23.43,106.43,23.43l-86.69,43.79-10.26-13.77-5.12,19.25L555.81,354.5,538.42,333,533,369.84l-41.22,26.35-17.16-42.75L465,416.88Z" style="fill:#41a500"/></clipPath><clipPath id="clip-path-14"><path d="M696.7,289.87l-70.47-50.06,11.91-54.06-28.46,32.71S588,188,611.94,127.73,717.33,47.31,717.33,47.31L719,84l-42.22,50.93,42.74-25.14-8.93,40.55-25.94,25.29L713.34,166Z" style="fill:#41a500"/></clipPath><clipPath id="clip-path-15"><path d="M697.21,289.54s33.26-167.16,79.48-232.27,97-78.71,223.15-20c0,0-65.45,15.7-90,38.64L847.41,49.82l39.38,34.35-30.16,24.36L801,83.87l33.95,42.9-33.15,29.9-45.43-10.88,27.55,31.75S754.43,190.54,697.21,289.54Z" style="fill:#368a00"/></clipPath><clipPath id="clip-path-16"><path d="M697.21,289.54s56.36-62.88,75.84-79l2.46,12.94,9.65-7.62,4.47-20.27,44.13-27.48-4,30.12s23.65-39.07,35.74-49.7,77.63-22.76,77.63-22.76l-55.41,66.63,91.82-63s78.12,31.37,94.49,53.57c0,0-54.5,54.43-96.57,80.59L882.58,232l63.89,47.72s-57.94,21.79-66.59,12.8-55-39.58-55-39.58l25.23,46.3-40.82-3.68-35.72-38.86,7.86,40.7Z" style="fill:#41a500"/></clipPath><clipPath id="clip-path-17"><path d="M993.74,779.8s10-107.72-33.45-169.27-139.41-60.37-139.41-60.37,150.56-71,239.78,69.84c0,0-40.15-114.83-142.75-139.68,0,0,166.17-78.13,188.47,142,0,0,45.72-181.11,203-124.29,0,0-85.87,10.66-170.63,165.73,0,0,137.17-42.62,209.66,32,0,0-166.16-43.8-203,148Z" style="fill:#4ac200"/></clipPath><clipPath id="clip-path-18"><path d="M650.88,705.23s-118-51-12-81,173,15,173,15,119-61,170-25-11,65-11,65,124,4,144,42-53,66-53,66,115,25,111,78-158,58-158,58-244-20-308-18-128-27-128-27c-31-8-89-65-20-70,0,0-100.86-62.55-6-91,60-18,98-12,98-12" style="fill:#4ac200"/></clipPath><clipPath id="clip-path-19"><path d="M1287.88,908.23c-5-17,77-143,124-137s97,134,97,176S1297.88,942.23,1287.88,908.23Z" style="fill:#98998b"/></clipPath><clipPath id="clip-path-20"><path d="M1322.88,834.23s25-13,34-17,18,27,16,42c0,0,14-23,15-38,0,0,21,6,29,20,0,0,8-12,5-24,0,0,40,18,41,48,0,0,16-28,14-48s-47-59-79-51S1322.88,834.23,1322.88,834.23Z" style="fill:#53d900"/></clipPath><clipPath id="clip-path-21"><path d="M1397.88,1006.23s48-230,155-213,122,245,122,245-75,14-145,15S1397.88,1006.23,1397.88,1006.23Z" style="fill:#a1a293"/></clipPath><clipPath id="clip-path-22"><path d="M1421.88,913.23s35-36,60-40c0,0-15,26,6,50,0,0,19-52,35-50,0,0,45,38,40,82,0,0,16-40,13-68,0,0,53,1,55,36,0,0,13-26,13-50,0,0-32-89-100-88s-114,88-122,112S1421.88,913.23,1421.88,913.23Z" style="fill:#53d900"/></clipPath><clipPath id="clip-path-23"><polygon points="343.88 1466.22 475.38 1397.22 475.38 1362.09 151.49 1238.34 38.88 1283.22 38.88 1306.22 343.88 1466.22" style="fill:#e68d02"/></clipPath><clipPath id="clip-path-24"><polygon points="161.35 1234.41 485.68 1356.79 485.68 1389.04 568.38 1343.39 568.38 1314.25 237.18 1204.18 161.35 1234.41" style="fill:#e68d02"/></clipPath><clipPath id="clip-path-25"><polygon points="246.22 1200.58 576.67 1309.98 576.67 1340.71 650.13 1298.25 650.13 1272.19 321.47 1170.58 246.22 1200.58" style="fill:#e68d02"/></clipPath><clipPath id="clip-path-26"><polygon points="327.1 1168.34 657.51 1268.39 657.51 1294.17 719.49 1259.95 719.49 1236.51 388.48 1143.87 327.1 1168.34" style="fill:#e68d02"/></clipPath><clipPath id="clip-path-27"><polygon points="396.5 1140.67 727.62 1233.01 727.62 1255.65 796.88 1217.22 796.88 1196.22 472.88 1110.22 396.5 1140.67" style="fill:#e68d02"/></clipPath><clipPath id="clip-path-28"><path d="M251.27,892.71s34.11-14,67.11,0,35,31.43,35,31.43,4-1.43,6-3.43,2-10,2-11-16-24-47-30-58.44.91-61.22,2.95S247.15,891.69,251.27,892.71Z" style="fill:#4ac200"/></clipPath><clipPath id="clip-path-29"><path d="M341.9,1122.09s48.22-8.69,51.83-47.08S382,985.35,433.48,963.67s92.37,25.74,99.37,46.29,2.48,40.43-12.2,50.59-29.58-10.16-38.84-9.26S460.13,1059,457,1087.43s-40.88,96.66-105.25,87.17Z" style="fill:#bfbfbf"/></clipPath><clipPath id="clip-path-30"><path d="M381.65,1093.19S423.88,1069.47,432,1146l-9.71,11.07s7.68-63.46-53.3-52.62Z" style="fill:#5c5c5c"/></clipPath><clipPath id="clip-path-31"><path d="M389.1,1011.66s33.65-16.49,49.91,0,24.17,34.78,24.84,60.75l-6.09,23.71s-11.3-46.3-36.59-50.81-35,20.1-35,20.1Z" style="fill:#5c5c5c"/></clipPath><clipPath id="clip-path-32"><path d="M434.27,959.26s50.59-.9,59.17,32.07-19,65-19,65h7s26.65-6.55,35.91-32.52-7.91-55.1-7.91-55.1L479,956.1l-21.22-3.16-14.91,3.61Z" style="fill:#5c5c5c"/></clipPath><clipPath id="clip-path-33"><path d="M255.86,896.25s-14.91-75,5.42-124.89c0,0,21.68-12.19,26.19-12.19,0,0-30.26,83.33-15.35,120.37Z" style="fill:#368a00"/></clipPath><clipPath id="clip-path-34"><path d="M312.77,759.17s14.32-6.47,29.23-4.89L324.74,858.54l-31.85,3.16L290,818.34Z" style="fill:#368a00"/></clipPath><clipPath id="clip-path-35"><path d="M351.39,921.55s121.72-62.79,197.61-54l-28.91-39.75S384.13,847.7,346,881.35Z" style="fill:#328000"/></clipPath><clipPath id="clip-path-36"><path d="M341.9,889.93s43.36-36.36,189.93-57.59L509,800.72s-85.59,3.39-167.12,64.37Z" style="fill:#368a00"/></clipPath><clipPath id="clip-path-37"><path d="M335.84,861.7S464.67,783.8,485,786.28s20,21.44,20,21.44L335.8,874.8Z" style="fill:#307a00"/></clipPath><clipPath id="clip-path-38"><path d="M346,852.28s117-62,175-54c0,0-27.7-41.2-67.35-9.1,0,0-32.65-8.9-37.65,6.1,0,0-28.68-.89-24.34,23.06,0,0-20.79-1-24.23,12C367.43,830.32,344,838.28,346,852.28Z" style="fill:#ffbc21"/></clipPath><clipPath id="clip-path-39"><path d="M330.09,845.78s-18.31-85.59-49-102.37c0,0,35.49-16.74,35.51,19.61,0,0,19.73,6.54,13.62,18.38,0,0,13.46,10.32-1.85,24.52,0,0,9.94,7.26,4.27,17.16C332.65,823.08,338.8,837.27,330.09,845.78Z" style="fill:#ffbc21"/></clipPath><clipPath id="clip-path-40"><path d="M338.9,812.7s10-64.82,27.39-83.57-20.32,87-20.32,87Z" style="fill:#4ac200"/></clipPath><clipPath id="clip-path-41"><path d="M344.47,811.38s52.53-86.77,64.28-93.77-60.3,103.89-60.3,103.89Z" style="fill:#4ac200"/></clipPath><clipPath id="clip-path-42"><path d="M352.74,810.43s41.55-63.68,60.3-72.49-58.27,80.4-58.27,80.4Z" style="fill:#4ac200"/></clipPath><clipPath id="clip-path-43"><path d="M356.58,812.92s69.33-61.88,91-67.08-85.36,72.5-85.36,72.5Z" style="fill:#4ac200"/></clipPath><clipPath id="clip-path-44"><path d="M358.61,818.34S451,761.2,477.18,761s-118.57,63-118.57,63Z" style="fill:#4ac200"/></clipPath><clipPath id="clip-path-45"><path d="M297.86,1184.65s3.61,27.55,21.23,59.17c0,0-36.13-4.29-41.55,2.71s2,7.45,13.32,7,39.75.23,39.75.23-21.23-46.53-15.58-67.3Z" style="fill:#bfbfbf"/></clipPath><clipPath id="clip-path-46"><path d="M360.64,1179.91s45.4,45.39,49.24,56.68,41.55,10.62,49,12.2,6.09-7.91-7-9.71-32.29-4.52-32.29-4.52S391.13,1183.75,369,1172Z" style="fill:#bfbfbf"/></clipPath><clipPath id="clip-path-47"><path d="M315.25,852.89s18.07-43.27,26.65-48.06,24.16-8.17,28-5.91,4.3,19.64,3.39,23.26-37.49,45.39-37.49,45.39Z" style="fill:#ed6e05"/></clipPath><clipPath id="clip-path-48"><path d="M212.27,1001s-26.88-7.9-42.23-50.59-17.62-71.81-17.62-71.81l-6.1,4.06s5.42,67.75,26.2,100.73,38.17,28.45,38.17,28.45Z" style="fill:#bfbfbf"/></clipPath><clipPath id="clip-path-49"><path d="M346,852.21c-14.76-8.37-57.14-20.55-101,51.72s-56,161.7-34.77,219.52,85.81,74.75,127.59,69.56,54.43-38.17,34.78-69.56-51.26-81.53-36.81-136S377.81,870.28,346,852.21Z" style="fill:#ccc"/></clipPath><clipPath id="clip-path-50"><path d="M198.27,1066.76s8.35-35.68,40.42-35.68,89.66,98.92,97.79,119-1.58,53.52-46.75,43.81S192.17,1150.55,198.27,1066.76Z" style="fill:#f0f0f0"/></clipPath><clipPath id="clip-path-51"><path d="M247.24,900.34s35.26-10.86,64.4,0,39.11,36.12,39.11,36.12l7.86-2.25,10.16-42.68-3.83-32.29-26-19-26.42-1.58-29.36,9.49L259.24,874.8l-16.48,21.45Z" style="fill:#ffbc21"/></clipPath><clipPath id="clip-path-52"><path d="M253.37,1006.69c-24.2-1.05-43.85-25.14-34.69-47.69s12.33.49,36.27,9.07,49.46-21.68,59.62-18.74S331.74,1010.08,253.37,1006.69Z" style="fill:#782900"/></clipPath><clipPath id="clip-path-53"><path d="M332.19,1107.64s20.1,10.16,20.78,19.42-3.17,3.39-5.88,1.13-19.64-11.52-19.64-11.52Z" style="fill:#b8b8b8"/></clipPath><clipPath id="clip-path-54"><path d="M326.09,1037c-7.94-5-16.94-12-12-20.78s8.36-9,23,6.33,25.52,25.29,23.48,42.23-33.19,51.94-33.19,51.94-4.75-.67-3.84-3.39,26.42-37,28.68-43.36S350.93,1052.76,326.09,1037Z" style="fill:#bfbfbf"/></clipPath><clipPath id="clip-path-55"><path d="M126,911.64c5.16-3.19,29.4-21.1,41.1-36.54s22.23-14.34,30.64-15.94,37.93-7.93,41.93-22.18-19.4-20.74-34.36-14.76S186.34,835.41,167,862.76s-32.29,32.66-38.91,34.85-16,4.29-15,10.35S120.76,914.85,126,911.64Z" style="fill:#e68d00"/></clipPath><clipPath id="clip-path-56"><path d="M235.12,840.35c-2.79,3.93-14.41,12.94-30,14.38s-18.87-5.6-15.89-11.85,20.41-17.93,36-15.67S238.7,835.3,235.12,840.35Z" style="fill:#ffb94d"/></clipPath><clipPath id="clip-path-57"><path d="M153,867.58c4.26.1,13.47,1.9,13.73,5.55s-17.3,30.62-26.55,10.92C138.81,881.09,146.1,867.4,153,867.58Z" style="fill:#ccc"/></clipPath><clipPath id="clip-path-58"><path d="M251.88,893.27s34.12-14,67.12,0,35,31.44,35,31.44,4-1.44,6-3.44,2-10,2-11-16-24-47-30-58.45.92-61.23,3S247.76,892.25,251.88,893.27Z" style="fill:#4ac200"/></clipPath></defs><g id="Layer_2" data-name="Layer 2"><g id="island"><path d="M1668.57,1161.85c-120,0-1442.29-59.88-1442.29-59.88s-168.71,60.88-215.71,87.88c-21.36,12.27,27.72,54.91,129.49,101.06-55.13,2.84-121.16,8.55-134.68,19.82-24,20,32,114,173,137s-52,78,0,114,441-5,541-32,281-109,471-64c184.32,43.65,645.33,1.66,528.47-81.23,119.41-32.82,210.7-81.24,219.72-120.65C1957.57,1180.85,1788.57,1161.85,1668.57,1161.85Z" style="fill:#59e7ff"/><g style="clip-path:url(#clip-path)"><path d="M141.53,1143.87s-62.15,44.86-62.15,74.86,165.79,64.18,252.4,72.09,438.6,88.91,503.6,95.91,452,12,624-14c142.55-21.55,374-115,363-148s-97-27-97-27l-858-36-725.85-17.86" style="fill:#0c64e0;opacity:0.36"/><path d="M331.38,1517.73s-2,17,1,25,26,5,28,2-3-23.77-3-26c0-4-5-6-5-6Z" style="fill:#0c64e0;opacity:0.36"/><path d="M741.88,1281.91s-1.5,26.82.5,28.82,28-1,30-3-4-27-4-27l-26.5,1.18" style="fill:#0c64e0;opacity:0.36"/><path d="M65.88,1365.8s-1.5,17.93-.5,21.93,28,4,30,2-3-26-3-26l-26.5,2.07" style="fill:#0c64e0;opacity:0.36"/></g><path d="M101.05,1188.6c-45.53-37.68,229.75-261.25,344.62-314s503-86.16,639.23-95.42,503,144.52,561.4,172.31,176,246.42,176,271.44-234.23,73.49-420.44,75.35-484.41-98.71-700-61C591.88,1256.47,208.51,1277.54,101.05,1188.6Z" style="fill:#ffcf6d"/><g style="clip-path:url(#clip-path-2)"><path d="M602.38,751.73s-203.11,93.12-61,138c76,24,136,33,136,33s426.53,74.29,573,41c22-5,15-58-53-73l90,17s6,44,128,71l-17,27s4,45,143,63,193,10,213-15-80-114-80-114l-326-205.18-574-16.82Z" style="fill:#f7ae19"/><path d="M1766.72,1090.23s-34.15,164.2-627.34,78.5c-263-38-949,170-1060-38l-13,56,55,53,260.29,56.88,470.71-31.88,346,39L1504.75,1325l243.63-42.31,110-54-91.66-138.5" style="fill:#f7ae19"/><path d="M1793.52,1130.73s10.86,84-107.14,102-230,68-424,34-469.49-82.15-585.25-42.08,120.25,56.08,120.25,56.08l613,77,456-102-72.86-125" style="fill:#b06208;opacity:0.51"/><path d="M698.38,1107.73c-11-2.46,14-22,38-17S734.38,1115.73,698.38,1107.73Z" style="fill:#f7ae19"/><path d="M755.38,1074.73c1.41-3.88,26-9,26-2S751.38,1085.73,755.38,1074.73Z" style="fill:#f7ae19"/><path d="M1349.38,1169.73c-9.38-3.46,22-17,37-8S1368.38,1176.73,1349.38,1169.73Z" style="fill:#f7ae19"/><path d="M1617.38,1090.73c-11-2-24,4-15,7S1628.38,1092.73,1617.38,1090.73Z" style="fill:#f7ae19"/><path d="M1570.38,1079.73c-11,0,0,6,8,5S1581.38,1079.73,1570.38,1079.73Z" style="fill:#f7ae19"/><path d="M1365.38,983.73c-14.88,2.12-7,6,5,6S1372.38,982.73,1365.38,983.73Z" style="fill:#f7ae19"/><path d="M1330.38,1162.73c-9.28-3.72-1,7,4,6S1335.38,1164.73,1330.38,1162.73Z" style="fill:#f7ae19"/><path d="M724.38,1068.73c-13,3-6,6,5,5S724.38,1068.73,724.38,1068.73Z" style="fill:#f7ae19"/><path d="M920.38,991.73c-15.32-5.11-9-20,43-15s75,19,66,25S935.38,996.73,920.38,991.73Z" style="fill:#f7ae19"/><path d="M1033.38,979.73c11.68-7.79,57-2,55,6S1024.38,985.73,1033.38,979.73Z" style="fill:#f7ae19"/><path d="M1052.38,1000.73c-9-1.81-2,6,7,6S1057.38,1001.73,1052.38,1000.73Z" style="fill:#f7ae19"/><path d="M1281.38,958.73c-12,0-7,9,6,9S1297.38,958.73,1281.38,958.73Z" style="fill:#f7ae19"/><path d="M682.38,940.73c-14,2-40,9-19,11s39,2,42-3S682.38,940.73,682.38,940.73Z" style="fill:#f7ae19"/><path d="M625.38,961.73c-12,0-6,8,4,6S633.38,961.73,625.38,961.73Z" style="fill:#f7ae19"/><path d="M657.38,956.73c-7,2,2,6,8,5S664.38,954.73,657.38,956.73Z" style="fill:#f7ae19"/><path d="M644.38,967.73c-4.47,0,3,5,8,3S648.38,967.73,644.38,967.73Z" style="fill:#f7ae19"/></g><path d="M357.88,1520.23s-1.5,4.5-13.5,4.5-13.5-4.5-13.5-4.5v-71h27Z" style="fill:#8c4e06"/><path d="M768.88,1283.23s-2.5,4.5-13.5,4.5-13.5-4.5-13.5-4.5v-72h27Z" style="fill:#8c4e06"/><path d="M1219.88,845.23s20-455,279-507l14,20s-199-22-248,487Z" style="fill:#e68d02"/><g style="clip-path:url(#clip-path-3)"><path d="M1247.88,638.23s41-11,54,11l2-9s-18-21-56-7Z" style="fill:#b06208"/><path d="M1265.88,578.23s43-10,51,11l4-8s-15-21-54-8Z" style="fill:#b06208"/><path d="M1290.88,526.23s28-9,46,6l2-6s-13-17-48-6Z" style="fill:#b06208"/><path d="M1323.88,465.23s32-4,35,17l3-4s-4-22-37-17Z" style="fill:#b06208"/><path d="M1361.88,417.23s27-1,29,16l4-5s-4-17-34-14Z" style="fill:#b06208"/><path d="M1403.88,378.23s19,0,22,20l3-2s-2-21-23-20Z" style="fill:#b06208"/><path d="M1446.88,350.23s18,1,18,24l3-2s1-22-18-25Z" style="fill:#b06208"/><path d="M1360.38,413.73s19-14,8,21-38,66-53,113-25,117-81,92l-20.7,80.93-2.3,118.07,70,7,19-53,28-177,61-159,45-54,47-32L1528,355.57,1513.31,332l-115.93,34.77Z" style="fill:#8a4d06;opacity:0.51"/></g><path d="M1495.08,78.2s66.75,18.45,86.81,77.31-25.25,136.16-81,195.18l12.83-26.8,12.43-73.11,23.64-7.06-23-3.84s4.93-33.35.42-49.56l26.13,5.6s-6.16-14-26-20.37C1527.32,175.55,1521.61,116.28,1495.08,78.2Z" style="fill:#41a500"/><g style="clip-path:url(#clip-path-4)"><path d="M1479.38,69.73s73,38,82,99-59.83,189.78-59.83,189.78l17.83-135.78Z" style="fill:#368a00"/></g><path d="M1513.31,332s64.16-61.48,118.12-62,91,23.85,117.14,51.87c0,0-36.11-10.46-67.63,8.17,0,0-20.23-34.55-36.79-35.81,0,0,19.23,25.86,18,37.19,0,0-38.38,11.23-52.76,7.34s-52.89,4-64.78,12.76l-35.44-9.84Z" style="fill:#41a500"/><g style="clip-path:url(#clip-path-5)"><path d="M1762.38,333.73s-104.3-102.32-278.15,21.84h0l65.21-66,79.94-38.81,92,20Z" style="fill:#368a00"/></g><path d="M1243.45,153.41s92.27-56.62,163.1-40.61S1537,182.4,1507,345.67l-30-36.12,26.51-34.42-31.73,20.52S1429.42,254,1408.21,247c0,0,14.42-23.77,46.71-54.25,0,0-14-3.37-70.28,37.94,0,0-37.83-35-70-46.93L1369.46,148s-53.85,17.73-63.43,27.22Z" style="fill:#41a500"/><g style="clip-path:url(#clip-path-6)"><path d="M1223.38,156.73s127-33,188-12,98.34,136.56,90.17,213.78h0L1352.38,245.73Z" style="fill:#368a00"/></g><path d="M1507.1,345.62s2.38-22.65,83.11,3.47,116.35,41.3,121.76,85.27,8.4,88.17-18.11,172.68a319.43,319.43,0,0,0-27.49-56.31s25.93-60.72,10-91c0,0-4.13,43.93-17.2,82.15l-40.51-45.75s15.2-49.44,6.3-64.68c0,0-6.36,38-16,52.69l-27.87-34.4s23.27-49.07,17.41-65.91c0,0-16,43.16-24.17,57.57L1546.46,407Z" style="fill:#41a500"/><g style="clip-path:url(#clip-path-7)"><path d="M1694.38,630.73s59-292.22-210-289.11l52-29.09,166,58.2,46,94Z" style="fill:#368a00"/><path d="M1498.88,338.23s66.5,17.5,74.5,64.5,4,64,4,64l-41-42-37.5-86.5" style="fill:#368a00"/></g><path d="M1223.6,433.71s11.1-51.31,30.76-75,49.35-33.94,49.35-33.94-26.52-1.83-34.74,8.28c0,0,25.72-26.88,61-35.58s113.79-34.34,142.1-13.24,40.74,70.24,40.74,70.24-36.25-22.07-84.77,26.74c0,0-5.85-30.67-17.38-48.09,0,0,8.34,43.32,4.39,49.11s-42.18,24.67-51,22.32c0,0,1-55.22-8.6-68.16l-9.5,72.46-46.68,8.46s20.39-39.83,14.13-52.89L1292,423.23l-19.59.33s18.06-44.86,26.87-60.63c0,0-33.71,39.4-41.42,62.92C1257.81,425.85,1230.65,439.22,1223.6,433.71Z" style="fill:#41a500"/><g style="clip-path:url(#clip-path-8)"><path d="M1203.38,455.73s158.83-244.4,321.92-95.7h0l-55.92,33.7-162,41Z" style="fill:#368a00"/></g><path d="M1509.21,341.62s37.45,13.39,49.73,50.93,12.13,80,9.08,95.4-3.21,39.73-6.84,47-22.08,37.75-26.07,53.08c0,0,3.32-22.55-8.51-37.15,0,0,1.76,46.93-7.2,55s-33.22,16.55-33.22,16.55-38.88-52.25-46.44-71.17c0,0,31-32,44.48-42.08s27.21-22.9,9.14-14.3S1444.3,526,1444.3,526l24.58-75.17,41.95-27.08L1473.2,437l10.16-33.27,47.4-10.77s-30.57-13.23-41.12-8.13Z" style="fill:#41a500"/><g style="clip-path:url(#clip-path-9)"><path d="M1498.88,338.23s39.5,1.5,42.5,96.5-65,214-65,214l-62-103,51-145Z" style="fill:#368a00"/></g><path d="M958.88,842.23s89-532-267-544l16-27s309-3,352,454v118Z" style="fill:#e68d02"/><g style="clip-path:url(#clip-path-10)"><path d="M781.88,319.23s-1-33,26-33l4,4s-21-2-26,32Z" style="fill:#b06208"/><path d="M826.88,343.23s12-33,31-28l5,4s-17-6-33,27Z" style="fill:#b06208"/><path d="M862.88,371.23s26-32,45-21l3,5s-22-9-44,22Z" style="fill:#b06208"/><path d="M903.88,429.23s27-39,52-26l4,6s-25-12-52,26Z" style="fill:#b06208"/><path d="M939.88,508.23s40-36,65-19l4,7s-25-14-67,20Z" style="fill:#b06208"/><path d="M958.88,646.23s54-40,93-11l2,8s-40-20-95,14Z" style="fill:#b06208"/><path d="M956.88,766.23s60-43,108-10v11s-46-29-108,11Z" style="fill:#b06208"/><path d="M668.09,297.15s79.29-21.42,139.29,9.58,120,136,143,145,37-9,74,6,50,175,50,175l-57.69,82.66-70.31-6.66-14-150.6-8-68.4-57-98-82-64-66-16-51.29-14.58" style="fill:#8a4d06;opacity:0.51"/></g><path d="M697.21,289.54s-39.36,70.16-55.21,118l13.51,3L635.27,422l-10,45.61,22.13-4-26.22,22.57-3.95,46.07,33.46-19.2L622,562.6s40.6,85.11,96.67,116c0,0,37.6-58.14,47.06-117.17L705,519.75l68.6,6.25s3.11-38.29-1.79-48.22l-51.53-11.35,42.85-13.59-15.48-50.35-32.46,2.6,25.3-18.35Z" style="fill:#41a500"/><g style="clip-path:url(#clip-path-11)"><path d="M701.46,280.29s-21.08,189.44-18.08,281.44,48,145,48,145,60-95,68-118-9-159-9-159l-63-114-25.92-35.44" style="fill:#368a00"/></g><path d="M517.72,640.16s-27.2-93.67-26.64-140.49S517.44,400.08,585,354.73,696.7,289.87,696.7,289.87L627.88,409.34,595,405.65,614,432l-14.85,31.27-36.61-10.72L583.11,496l-11,25.92L536.3,495.46l17.19,58.69Z" style="fill:#41a500"/><g style="clip-path:url(#clip-path-12)"><path d="M680.12,297.94S506.38,385.73,554.38,522.73l25,24,101-208,33-56-33.26,15.21" style="fill:#368a00"/></g><path d="M381.67,489.76s15.75-103.7,64.77-173.51S534,244.31,595,256.86s106.43,23.43,106.43,23.43l-86.69,43.79-10.26-13.77-5.12,19.25L555.81,354.5,538.42,333,533,369.84l-41.22,26.35-17.16-42.75L465,416.88Z" style="fill:#41a500"/><g style="clip-path:url(#clip-path-13)"><path d="M377.38,509.73s65-209,176-220,159-7,159-7l-112,55-119,84-86,88Z" style="fill:#368a00"/></g><path d="M696.7,289.87l-70.47-50.06,11.91-54.06-28.46,32.71S588,188,611.94,127.73,717.33,47.31,717.33,47.31L719,84l-42.22,50.93,42.74-25.14-8.93,40.55-25.94,25.29L713.34,166Z" style="fill:#41a500"/><g style="clip-path:url(#clip-path-14)"><path d="M731.38,30.73s-73,58-71,138,44.3,137.59,44.3,137.59l14.7-129.59Z" style="fill:#368a00"/></g><path d="M697.21,289.54s33.26-167.16,79.48-232.27,97-78.71,223.15-20c0,0-65.45,15.7-90,38.64L847.41,49.82l39.38,34.35-30.16,24.36L801,83.87l33.95,42.9-33.15,29.9-45.43-10.88,27.55,31.75S754.43,190.54,697.21,289.54Z" style="fill:#368a00"/><g style="clip-path:url(#clip-path-15)"><path d="M1015.38,38.73s-155-39-231,64-85.82,205.14-85.82,205.14l84.82-130.14,65-48,84-49Z" style="fill:#3b9600"/></g><path d="M697.21,289.54s56.36-62.88,75.84-79l2.46,12.94,9.65-7.62,4.47-20.27,44.13-27.48-4,30.12s23.65-39.07,35.74-49.7,77.63-22.76,77.63-22.76l-55.41,66.63,91.82-63s78.12,31.37,94.49,53.57c0,0-54.5,54.43-96.57,80.59L882.58,232l63.89,47.72s-57.94,21.79-66.59,12.8-55-39.58-55-39.58l25.23,46.3-40.82-3.68-35.72-38.86,7.86,40.7Z" style="fill:#41a500"/><g style="clip-path:url(#clip-path-16)"><path d="M1094.38,185.73S895.86,157.16,680.12,297.94l46.26,15.79,180-2,126-41Z" style="fill:#368a00"/></g><path d="M1163.88,855.23s8-138-116-195c0,0,79-18,148,118,0,0,23-111-54-162,0,0,107-13,95,162,0,0,50-159,143-135,0,0-85,45-127,176,0,0,69-115,145-85,0,0-94,29-110,104,0,0,67-80,134-46,0,0-110,36-118,99C1303.88,891.23,1212.88,889.23,1163.88,855.23Z" style="fill:#3b9600"/><path d="M993.74,779.8s10-107.72-33.45-169.27-139.41-60.37-139.41-60.37,150.56-71,239.78,69.84c0,0-40.15-114.83-142.75-139.68,0,0,166.17-78.13,188.47,142,0,0,45.72-181.11,203-124.29,0,0-85.87,10.66-170.63,165.73,0,0,137.17-42.62,209.66,32,0,0-166.16-43.8-203,148Z" style="fill:#4ac200"/><g style="clip-path:url(#clip-path-17)"><path d="M1324.38,498.73s-129-23-200,141-98,191-98,191l155,22,42-129,132-26-51-42-69-16-80,16,90-114Z" style="fill:#41a500"/><path d="M902.38,483.73s61-19,119,29,38,107,38,107l-16.21-28-76.79-71Z" style="fill:#41a500"/><path d="M797.38,552.73s110-22,181,27,46,130,46,130l-68-20-44-103Z" style="fill:#41a500"/></g><path d="M650.88,705.23s-118-51-12-81,173,15,173,15,119-61,170-25-11,65-11,65,124,4,144,42-53,66-53,66,115,25,111,78-158,58-158,58-244-20-308-18-128-27-128-27c-31-8-89-65-20-70,0,0-100.86-62.55-6-91,60-18,98-12,98-12" style="fill:#4ac200"/><g style="clip-path:url(#clip-path-18)"><path d="M820.38,622.73s201-40,121,68c0,0,172.16,31.2,82.08,101.6,0,0,155.92,126.4-316.08,113.4l189,35,196,11,110-66L1173,792.33l-41.43-97.84L1027,655.29l-48.6-75.56Z" style="fill:#3b9600"/><path d="M621.38,863.73s5,9,20,9,26-13,26-13Z" style="fill:#3b9600"/><path d="M712.93,783.39s13.45,11.34,13.45,20.34-6.63,11.66-6.63,11.66-11.37-5.66-10.37-15.66A65.35,65.35,0,0,1,712.93,783.39Z" style="fill:#3b9600"/><path d="M655.38,672.73a9.13,9.13,0,0,0,8,2c5-1,9.68-12.06,10.84-15S655.38,672.73,655.38,672.73Z" style="fill:#3b9600"/><path d="M857.38,685.73s4,3,11,2,11.1-22.3,11.1-22.3l-13.1,6.3Z" style="fill:#3b9600"/><path d="M956.38,766.73s2.26,3.67,10.13,3.83,20.87-7.83,24.87-21.83Z" style="fill:#3b9600"/><path d="M947.38,869.73s-7,5-23,4-18-20-18-20Z" style="fill:#3b9600"/><path d="M868.6,771s5.78,14.75,12.78,18.75c0,0,5.87-11.51,2.94-23.76Z" style="fill:#3b9600"/><path d="M792.38,855.73s4,3,13,3,16-17,16-17Z" style="fill:#3b9600"/><path d="M720.38,717.73l-3,2a40.22,40.22,0,0,0,21,4c12-1,20.27-23.87,20.27-23.87Z" style="fill:#3b9600"/><path d="M602.26,763.91s5.12,22.82,21.12,26.82c0,0,5-28-13-28Z" style="fill:#3b9600"/><path d="M620.38,787.73s-23-13-18-36C602.38,751.73,630.38,761.73,620.38,787.73Z" style="fill:#55de00"/><path d="M717.38,719.73s16-29,42-22C759.38,697.73,751.38,727.73,717.38,719.73Z" style="fill:#55de00"/><path d="M718.38,811.73s-16-6-10-31C708.38,780.73,734.38,792.73,718.38,811.73Z" style="fill:#55de00"/><path d="M621.38,863.73s24-18,46-4C667.38,859.73,640.38,881.73,621.38,863.73Z" style="fill:#55de00"/><path d="M792.38,855.73s9-28,32-22C824.38,833.73,821.38,860.73,792.38,855.73Z" style="fill:#55de00"/><path d="M906.38,853.73s28-7,41,16C947.38,869.73,914.38,879.73,906.38,853.73Z" style="fill:#55de00"/><path d="M880.38,785.73s-25-19-9-41C871.38,744.73,895.38,768.73,880.38,785.73Z" style="fill:#55de00"/><path d="M956.38,766.73s19-24.1,35.5-17.55C991.88,749.18,981.38,773.73,956.38,766.73Z" style="fill:#55de00"/><path d="M857.38,685.73s-1-27,23-28C880.38,657.73,880.38,686.73,857.38,685.73Z" style="fill:#55de00"/><path d="M655.38,672.73s2-23,21-23C676.38,649.73,674.38,676.73,655.38,672.73Z" style="fill:#55de00"/></g><path d="M1287.88,908.23c-5-17,77-143,124-137s97,134,97,176S1297.88,942.23,1287.88,908.23Z" style="fill:#98998b"/><g style="clip-path:url(#clip-path-19)"><path d="M1326.38,833.73s28-2,43-11c0,0,10,23,4,36,0,0,22-20,27-28l17,10s9-13,9-16,34,22,34,36c0,0,6-14,3-19s-43-31-43-31-58-7-58-6-29,10-29,10C1332.38,815.73,1326.38,833.73,1326.38,833.73Z" style="fill:#898a76"/><path d="M1281.38,910.73s93,36,125,12,34-98,22-115L1479,852.88l-57.66,121.85-115-33Z" style="fill:#898a76"/><path d="M1322.88,834.23s25-13,34-17,18,27,16,42c0,0,14-23,15-38,0,0,21,6,29,20,0,0,8-12,5-24,0,0,40,18,41,48,0,0,16-28,14-48s-47-59-79-51S1322.88,834.23,1322.88,834.23Z" style="fill:#53d900"/><g style="clip-path:url(#clip-path-20)"><path d="M1392.38,770.73s43.5-3,42.75,74.5l27.8,41.7,33.45-41.2-18-40-50-43-36,8" style="fill:#4ac200"/></g></g><path d="M1397.88,1006.23s48-230,155-213,122,245,122,245-75,14-145,15S1397.88,1006.23,1397.88,1006.23Z" style="fill:#a1a293"/><g style="clip-path:url(#clip-path-21)"><path d="M1421.38,918.73s46-43,63-38l3,42s31-50,44-45c0,0,47,35,31,77,0,0,27-47,22-61,0,0,42,10,46,29,0,0,5-22-1-34s-25-40-76-41-97,18-97,18-36,28-37,38S1421.38,918.73,1421.38,918.73Z" style="fill:#898a76"/><path d="M1403.38,1015.73s168,24,201,11,58-124-20-148c0,0,46-32,62-24s43,193,43,193l-125,18-86-6Z" style="fill:#898a76"/><path d="M1421.88,913.23s35-36,60-40c0,0-15,26,6,50,0,0,19-52,35-50,0,0,45,38,40,82,0,0,16-40,13-68,0,0,53,1,55,36,0,0,13-26,13-50,0,0-32-89-100-88s-114,88-122,112S1421.88,913.23,1421.88,913.23Z" style="fill:#53d900"/><g style="clip-path:url(#clip-path-22)"><path d="M1500.38,797.73s30-11,63,31-4,139-4,139,100-43,110-62-59-122-116-127-53,19-53,19" style="fill:#4ac200"/></g></g><path d="M92.88,1367.23s-6.5,4.5-13.5,4.5-13.5-4.5-13.5-4.5v-59h27Z" style="fill:#8c4e06"/><polygon points="485.38 1388.72 161.38 1255.72 161.38 1234.72 175.38 1232.72 497.24 1352.28 485.38 1388.72" style="fill:#8c4e06"/><polygon points="576.38 1340.72 246.38 1218.72 246.38 1199.72 268.38 1199.72 587.78 1305.01 587.38 1325.72 576.38 1340.72" style="fill:#8c4e06"/><polygon points="657.38 1293.72 327.38 1179.72 327.38 1168.72 365.38 1163.72 671.38 1269.72 657.38 1293.72" style="fill:#8c4e06"/><polygon points="727.38 1255.72 396.38 1155.72 396.38 1140.72 442.38 1139.72 741.88 1228.72 727.38 1255.72" style="fill:#8c4e06"/><polygon points="343.88 1466.22 475.38 1397.22 475.38 1362.09 151.49 1238.34 38.88 1283.22 38.88 1306.22 343.88 1466.22" style="fill:#e68d02"/><g style="clip-path:url(#clip-path-23)"><polygon points="34.38 1282.72 351.38 1431.72 347.38 1474.72 30.38 1307.72 34.38 1282.72" style="fill:#f7ae19"/><polyline points="475.38 1361.72 344.38 1428.72 344.38 1472.72 481.38 1396.72 475.38 1361.72" style="fill:#b06208"/><path d="M349.38,1393.73s37-5,42,0-37.4,17.87-53.2,12.93S349.38,1393.73,349.38,1393.73Z" style="fill:#b06208;opacity:0.51"/><path d="M76.51,1288.23s38.87,6.5,48.87-3.5-42-8-42-8l-6.87,11.5" style="fill:#b06208;opacity:0.51"/></g><polygon points="161.35 1234.41 485.68 1356.79 485.68 1389.04 568.38 1343.39 568.38 1314.25 237.18 1204.18 161.35 1234.41" style="fill:#e68d02"/><g style="clip-path:url(#clip-path-24)"><polygon points="484.22 1357.54 568.38 1314.72 570.38 1345.72 482.38 1393.72 484.22 1357.54" style="fill:#b06208"/><path d="M281.28,1243.33s40.9,16.4,82.25,21.65,293.45-13.9,335.9-39.83-76.79-55.92-170.17-55.92S317.68,1236.43,281.28,1243.33Z" style="fill:#874b06;opacity:0.51"/></g><polygon points="246.22 1200.58 576.67 1309.98 576.67 1340.71 650.13 1298.25 650.13 1272.19 321.47 1170.58 246.22 1200.58" style="fill:#e68d02"/><g style="clip-path:url(#clip-path-25)"><polyline points="576.38 1309.72 653.17 1270.63 654.38 1308.72 572.38 1347.72 576.38 1309.72" style="fill:#b06208"/><path d="M281.28,1243.33s40.9,16.4,82.25,21.65,293.45-13.9,335.9-39.83-76.79-55.92-170.17-55.92S317.68,1236.43,281.28,1243.33Z" style="fill:#8a4d06;opacity:0.51"/></g><polygon points="327.1 1168.34 657.51 1268.39 657.51 1294.17 719.49 1259.95 719.49 1236.51 388.48 1143.87 327.1 1168.34" style="fill:#e68d02"/><g style="clip-path:url(#clip-path-26)"><polygon points="654.92 1269.72 722.52 1234.95 722.38 1264.72 654.38 1298.72 654.92 1269.72" style="fill:#b06208"/><path d="M281.28,1243.33s40.9,16.4,82.25,21.65,293.45-13.9,335.9-39.83-76.79-55.92-170.17-55.92S317.68,1236.43,281.28,1243.33Z" style="fill:#945207;opacity:0.51"/></g><polygon points="396.5 1140.67 727.62 1233.01 727.62 1255.65 796.88 1217.22 796.88 1196.22 472.88 1110.22 396.5 1140.67" style="fill:#e68d02"/><g style="clip-path:url(#clip-path-27)"><polyline points="724.52 1233.92 800.38 1193.72 800.38 1224.72 725.38 1260.72 724.52 1233.92" style="fill:#b06208"/><path d="M755.38,1203.73s33,1,45-6-34-10-43-8-2,14-2,14" style="fill:#b06208;opacity:0.51"/><path d="M281.28,1243.33s40.9,16.4,82.25,21.65,293.45-13.9,335.9-39.83-76.79-55.92-170.17-55.92S317.68,1236.43,281.28,1243.33Z" style="fill:#965407;opacity:0.51"/></g><ellipse cx="475.38" cy="1125.23" rx="13.5" ry="5" style="fill:#b06208"/><rect x="461.88" y="1096.23" width="27" height="29" style="fill:#b06208"/><ellipse cx="475.38" cy="1095.23" rx="13.5" ry="5" style="fill:#e6bb78"/><path d="M330.88,1373.23v29c0,2.76,6.05,5,13.5,5s13.5-2.24,13.5-5v-29Z" style="fill:#b06208"/><ellipse cx="344.38" cy="1372.23" rx="13.5" ry="5" style="fill:#e6bb78"/><path d="M65.88,1254.23v29c0,2.76,6.05,5,13.5,5s13.5-2.24,13.5-5v-29Z" style="fill:#b06208"/><ellipse cx="79.38" cy="1253.23" rx="13.5" ry="5" style="fill:#e6bb78"/><path d="M741.88,1170.23v29c0,2.76,6,5,13.5,5s13.5-2.24,13.5-5v-29Z" style="fill:#b06208"/><ellipse cx="755.38" cy="1169.23" rx="13.5" ry="5" style="fill:#e6bb78"/><path d="M417.38,1585.73c71-2,340-25,451-66,182.77-67.51,250-40,6,23C578.35,1619.16,262,1590.1,417.38,1585.73Z" style="fill:#59e7ff"/><path d="M1758.38,1392.73s73,82-280,100,146,28,272-32S1758.38,1392.73,1758.38,1392.73Z" style="fill:#59e7ff"/><path d="M1808.38,1153.73c49,0,143-6,150,12S1781.38,1153.73,1808.38,1153.73Z" style="fill:#59e7ff"/><path d="M82.38,1431.73c7,4,104,31,126,34s-25,45-39,47,48-34,17-40S82.38,1431.73,82.38,1431.73Z" style="fill:#59e7ff"/><path d="M326.38,1508.73c-2-3-50-3-41,17,5.15,11.42,94,14,112,9s-86-1-90-15S326.38,1508.73,326.38,1508.73Z" style="fill:#b3f3ff"/><path d="M726.38,1278.73s-20,13-7,23,112,2,134,0-81.57,26-161,2C639.38,1287.73,726.38,1278.73,726.38,1278.73Z" style="fill:#b3f3ff"/><path d="M1628.38,1378.73s74,11,77,33-263,73-447,29,52-10,140-3,246-2,268-26S1628.38,1378.73,1628.38,1378.73Z" style="fill:#b3f3ff"/><path d="M596.38,1528.73s249-59,327-79,135-13,152-13-12.74-28.92-162-1C774.38,1461.73,482.38,1555.73,596.38,1528.73Z" style="fill:#b3f3ff"/><path d="M251.27,892.71s34.11-14,67.11,0,35,31.43,35,31.43,4-1.43,6-3.43,2-10,2-11-16-24-47-30-58.44.91-61.22,2.95S247.15,891.69,251.27,892.71Z" style="fill:#4ac200"/><g style="clip-path:url(#clip-path-28)"><path d="M331.38,882.73s.52,12.68-26,7.89c-5-.89,34,7.11,51,45.11,0,0,21-17,12-29S331.38,882.73,331.38,882.73Z" style="fill:#3da100"/></g><path d="M341.9,1122.09s48.22-8.69,51.83-47.08S382,985.35,433.48,963.67s92.37,25.74,99.37,46.29,2.48,40.43-12.2,50.59-29.58-10.16-38.84-9.26S460.13,1059,457,1087.43s-40.88,96.66-105.25,87.17Z" style="fill:#bfbfbf"/><g style="clip-path:url(#clip-path-29)"><path d="M362,1172.28s78-23,81-88,62-126,90-39l-5,22-20,2-27-13-11,11-14,44-17,36-18.62,17.5-28.95,10.72L353,1180.71Z" style="fill:#a1a1a1"/><path d="M381.65,1093.19S423.88,1069.47,432,1146l-9.71,11.07s7.68-63.46-53.3-52.62Z" style="fill:#5c5c5c"/><g style="clip-path:url(#clip-path-30)"><path d="M362,1172.28s78-23,81-88,62-126,90-39l-5,22-20,2-27-13-11,11-14,44-17,36-18.62,17.5-28.95,10.72L353,1180.71Z" style="fill:#424242"/></g><path d="M389.1,1011.66s33.65-16.49,49.91,0,24.17,34.78,24.84,60.75l-6.09,23.71s-11.3-46.3-36.59-50.81-35,20.1-35,20.1Z" style="fill:#5c5c5c"/><g style="clip-path:url(#clip-path-31)"><path d="M362,1172.28s78-23,81-88,62-126,90-39l-5,22-20,2-27-13-11,11-14,44-17,36-18.62,17.5-28.95,10.72L353,1180.71Z" style="fill:#424242"/></g><path d="M434.27,959.26s50.59-.9,59.17,32.07-19,65-19,65h7s26.65-6.55,35.91-32.52-7.91-55.1-7.91-55.1L479,956.1l-21.22-3.16-14.91,3.61Z" style="fill:#5c5c5c"/><g style="clip-path:url(#clip-path-32)"><path d="M362,1172.28s78-23,81-88,62-126,90-39l-5,22-20,2-27-13-11,11-14,44-17,36-18.62,17.5-28.95,10.72L353,1180.71Z" style="fill:#424242"/></g></g><path d="M255.86,896.25s-14.91-75,5.42-124.89c0,0,21.68-12.19,26.19-12.19,0,0-30.26,83.33-15.35,120.37Z" style="fill:#368a00"/><g style="clip-path:url(#clip-path-33)"><path d="M271,759.28s-26,92-9,127l7-8-6-33,27-86-1-5Z" style="fill:#276300"/></g><path d="M312.77,759.17s14.32-6.47,29.23-4.89L324.74,858.54l-31.85,3.16L290,818.34Z" style="fill:#368a00"/><g style="clip-path:url(#clip-path-34)"><path d="M339,749.28s-50,72-33,109l-13.85-1.53-1.28-29.83L315,745.28Z" style="fill:#2a6b00"/></g><path d="M365.81,750.58s49,3.39,61.46,17.4L342,840.28l-11-4Z" style="fill:#2d7300"/><path d="M276.63,772s32.52-20.55,42.23-21.45-20.1,53.52-21,81.75.9,35.68.9,35.68l-33.15,18.2s-5.92-18.2-6.37-36.49S276.63,772,276.63,772Z" style="fill:#2e7500"/><path d="M351.39,921.55s121.72-62.79,197.61-54l-28.91-39.75S384.13,847.7,346,881.35Z" style="fill:#328000"/><g style="clip-path:url(#clip-path-35)"><path d="M355,886.28s97-47,187-36l-21-22-72,16-82.07,26.14L351,875.28Z" style="fill:#276300"/></g><path d="M341.9,889.93s43.36-36.36,189.93-57.59L509,800.72s-85.59,3.39-167.12,64.37Z" style="fill:#368a00"/><g style="clip-path:url(#clip-path-36)"><path d="M524,812.28s-144,44-173,63l-1-10s65-31,94-41,60-32,60-32Z" style="fill:#286600"/></g><path d="M335.84,861.7S464.67,783.8,485,786.28s20,21.44,20,21.44L335.8,874.8Z" style="fill:#307a00"/><g style="clip-path:url(#clip-path-37)"><path d="M345.87,861.7S418,810.28,525,803.28l-25-15-79.62,22.13L342,852.28Z" style="fill:#2a6b00"/></g><polygon points="415.3 764.59 441 777.28 350 830.28 342 827.28 415.3 764.59" style="fill:#368a00"/><path d="M346,852.28s117-62,175-54c0,0-27.7-41.2-67.35-9.1,0,0-32.65-8.9-37.65,6.1,0,0-28.68-.89-24.34,23.06,0,0-20.79-1-24.23,12C367.43,830.32,344,838.28,346,852.28Z" style="fill:#ffbc21"/><g style="clip-path:url(#clip-path-38)"><path d="M342,852.28s133-91,190-60l-9,11-70,11-87,32-24.1,12.13Z" style="fill:#ff9421"/></g><path d="M330.09,845.78s-18.31-85.59-49-102.37c0,0,35.49-16.74,35.51,19.61,0,0,19.73,6.54,13.62,18.38,0,0,13.46,10.32-1.85,24.52,0,0,9.94,7.26,4.27,17.16C332.65,823.08,338.8,837.27,330.09,845.78Z" style="fill:#ffbc21"/><g style="clip-path:url(#clip-path-39)"><path d="M283,731.28s22.25-8.44,48.62,99.28L321,833.28l-20-59-24-26Z" style="fill:#ff9421"/></g><path d="M338.9,812.7s10-64.82,27.39-83.57-20.32,87-20.32,87Z" style="fill:#4ac200"/><g style="clip-path:url(#clip-path-40)"><path d="M377,719.28s-27,44-33,89h-8l12-51,9-28Z" style="fill:#63e810"/></g><path d="M344.47,811.38s52.53-86.77,64.28-93.77-60.3,103.89-60.3,103.89Z" style="fill:#4ac200"/><g style="clip-path:url(#clip-path-41)"><polygon points="414 713.28 352.74 806.87 347.81 805.91 350.32 792.67 404 719.28 414 713.28" style="fill:#63e810"/></g><path d="M352.74,810.43s41.55-63.68,60.3-72.49-58.27,80.4-58.27,80.4Z" style="fill:#4ac200"/><g style="clip-path:url(#clip-path-42)"><path d="M348,821.28s62-94,81-90l-27,10-40,47-16,27.8Z" style="fill:#63e810"/></g><path d="M356.58,812.92s69.33-61.88,91-67.08-85.36,72.5-85.36,72.5Z" style="fill:#4ac200"/><g style="clip-path:url(#clip-path-43)"><path d="M360.38,813.4S438,747.28,456,743.28H441l-21,13-63,57Z" style="fill:#63e810"/></g><path d="M358.61,818.34S451,761.2,477.18,761s-118.57,63-118.57,63Z" style="fill:#4ac200"/><g style="clip-path:url(#clip-path-44)"><polygon points="357 821.28 487.11 759.17 453 763.28 418 780.28 354.88 816.08 357 821.28" style="fill:#63e810"/></g><path d="M297.86,1184.65s3.61,27.55,21.23,59.17c0,0-36.13-4.29-41.55,2.71s2,7.45,13.32,7,39.75.23,39.75.23-21.23-46.53-15.58-67.3Z" style="fill:#bfbfbf"/><g style="clip-path:url(#clip-path-45)"><path d="M295,1188.28s29,65,39,68l-14-37-5-33Z" style="fill:#a8a8a8"/></g><path d="M360.64,1179.91s45.4,45.39,49.24,56.68,41.55,10.62,49,12.2,6.09-7.91-7-9.71-32.29-4.52-32.29-4.52S391.13,1183.75,369,1172Z" style="fill:#bfbfbf"/><g style="clip-path:url(#clip-path-46)"><path d="M361,1177.28s22,7,57,60c0,0,44,2,49,12l-8-12-38-6-22-34-15-18-14-9Z" style="fill:#a8a8a8"/></g><path d="M315.25,852.89s18.07-43.27,26.65-48.06,24.16-8.17,28-5.91,4.3,19.64,3.39,23.26-37.49,45.39-37.49,45.39Z" style="fill:#ed6e05"/><g style="clip-path:url(#clip-path-47)"><path d="M344,803.28s17,3,19,10-21,39-21,39l6,4,29-34-3.31-27.42L348,798.28Z" style="fill:#ed4b05"/></g><path d="M212.27,1001s-26.88-7.9-42.23-50.59-17.62-71.81-17.62-71.81l-6.1,4.06s5.42,67.75,26.2,100.73,38.17,28.45,38.17,28.45Z" style="fill:#bfbfbf"/><g style="clip-path:url(#clip-path-48)"><path d="M146,907.28s20,92,64,95l-4,14-16-6-25-29-15-49Z" style="fill:#adadad"/></g><path d="M346,852.21c-14.76-8.37-57.14-20.55-101,51.72s-56,161.7-34.77,219.52,85.81,74.75,127.59,69.56,54.43-38.17,34.78-69.56-51.26-81.53-36.81-136S377.81,870.28,346,852.21Z" style="fill:#ccc"/><g style="clip-path:url(#clip-path-49)"><path d="M240,886.28s80.79-.32,82.89,62.84S288,1017.28,306,1111.28s1.57,89-17.22,93.5c0,0,95.22,1.5,108.22-21.5s-23-104-23-104l-32-67,19-91S322,862.28,240,886.28Z" style="fill:#b0b0b0"/><path d="M198.27,1066.76s8.35-35.68,40.42-35.68,89.66,98.92,97.79,119-1.58,53.52-46.75,43.81S192.17,1150.55,198.27,1066.76Z" style="fill:#f0f0f0"/><g style="clip-path:url(#clip-path-50)"><path d="M240,886.28s80.79-.32,82.89,62.84S288,1017.28,306,1111.28s1.57,89-17.22,93.5c0,0,95.22,1.5,108.22-21.5s-23-104-23-104l-32-67,19-91S322,862.28,240,886.28Z" style="fill:#b0b0b0;opacity:0.48"/></g><path d="M247.24,900.34s35.26-10.86,64.4,0,39.11,36.12,39.11,36.12l7.86-2.25,10.16-42.68-3.83-32.29-26-19-26.42-1.58-29.36,9.49L259.24,874.8l-16.48,21.45Z" style="fill:#ffbc21"/><g style="clip-path:url(#clip-path-51)"><path d="M312,846.28s25.8,2.61,29.9,18.81S331,905.49,305,902.28l27,15,20.74,26.13,13.05-39.36,1.39-40.92-18.85-16L313,838.28Z" style="fill:#ff9421"/></g><ellipse cx="292.85" cy="926.64" rx="30.7" ry="22.56" transform="translate(-677.26 984.08) rotate(-75.85)" style="fill:#757575"/><ellipse cx="252.59" cy="919.8" rx="28.33" ry="19.52" transform="translate(-692.75 792.62) rotate(-66.98)" style="fill:#757575"/></g><ellipse cx="288.78" cy="931.28" rx="23.2" ry="17.16" transform="translate(-684.83 983.65) rotate(-75.85)" style="fill:#fff"/><ellipse cx="289.94" cy="932.53" rx="5.08" ry="5.06" transform="translate(-685.18 985.71) rotate(-75.85)"/><ellipse cx="252.71" cy="923.33" rx="23.2" ry="15.4" transform="translate(-691.28 764.35) rotate(-65.13)" style="fill:#fff"/><ellipse cx="253.48" cy="924.72" rx="5.08" ry="4.54" transform="translate(-692.1 765.84) rotate(-65.13)"/><path d="M253.37,1006.69c-24.2-1.05-43.85-25.14-34.69-47.69s12.33.49,36.27,9.07,49.46-21.68,59.62-18.74S331.74,1010.08,253.37,1006.69Z" style="fill:#782900"/><g style="clip-path:url(#clip-path-52)"><path d="M243.21,1006.91S271.89,983,280.7,982.07s22.36,3.62,29.81,15.58C310.51,997.65,276,1016.85,243.21,1006.91Z" style="fill:#a83800"/><path d="M233.27,950.45s-.45,22.14,5.42,24.17,12-12,12-12Z" style="fill:#fff"/><path d="M278.89,963.55s5.42,12.88,14.23,9.71,7.45-22.81,7.45-22.81Z" style="fill:#fff"/><path d="M287.47,1005.33s3.39-15.58,8.13-15.35,13.55,7.67,13.55,7.67S297.41,1006.69,287.47,1005.33Z" style="fill:#fff"/><path d="M220.17,990s11.52-7,14.68-3.39,3.84,19,3.84,19S221.3,996.53,220.17,990Z" style="fill:#fff"/><path d="M238.69,1005.56s9-6.55,12-6.1,8.58,9.71,8.58,9.71S244.56,1011.43,238.69,1005.56Z" style="fill:#fff"/></g><path d="M332.19,1107.64s20.1,10.16,20.78,19.42-3.17,3.39-5.88,1.13-19.64-11.52-19.64-11.52Z" style="fill:#b8b8b8"/><g style="clip-path:url(#clip-path-53)"><path d="M322,1117.28s19-6,32,9l-1-6-14-12-8-3-7,2Z" style="fill:#9c9c9c"/></g><path d="M326.09,1037c-7.94-5-16.94-12-12-20.78s8.36-9,23,6.33,25.52,25.29,23.48,42.23-33.19,51.94-33.19,51.94-4.75-.67-3.84-3.39,26.42-37,28.68-43.36S350.93,1052.76,326.09,1037Z" style="fill:#bfbfbf"/><g style="clip-path:url(#clip-path-54)"><path d="M314,1016.28s6-6,21,10,26,30,23,41-11.12,24.79-11.12,24.79L358,1079.28l5-12v-11l-5-16-30-28-10-5-5,5,1,4" style="fill:#a6a6a6"/></g><g id="hand"><path d="M126,911.64c5.16-3.19,29.4-21.1,41.1-36.54s22.23-14.34,30.64-15.94,37.93-7.93,41.93-22.18-19.4-20.74-34.36-14.76S186.34,835.41,167,862.76s-32.29,32.66-38.91,34.85-16,4.29-15,10.35S120.76,914.85,126,911.64Z" style="fill:#e68d00"/><g style="clip-path:url(#clip-path-55)"><path d="M239.67,839.52s4.89-12-15.47-14.35-35.24,9-46.19,25.34-25.6,44.09-67,58.23l3.13-8.42,28.17-13.58,21.28-25.37L180.05,838l19.45-17.43,14.44-2,15.88,2.16,10.75,6.18L242,837.27Z" style="fill:#b86800"/></g><path d="M235.12,840.35c-2.79,3.93-14.41,12.94-30,14.38s-18.87-5.6-15.89-11.85,20.41-17.93,36-15.67S238.7,835.3,235.12,840.35Z" style="fill:#ffb94d"/><g style="clip-path:url(#clip-path-56)"><path d="M217.65,824.88s12.27,4.2,0,17-27.66,12-30.77,7.88.19,9,.19,9l24.52-.12,21.33-9.6,11.49-18.47-11.34-9Z" style="fill:#ffca78"/></g></g><path d="M156,870.12s10.59-5,9.3-9.17-5.13-2.73-8,1a75.46,75.46,0,0,1-8.54,8.63Z" style="fill:#bfbfbf"/><path d="M153,867.58c4.26.1,13.47,1.9,13.73,5.55s-17.3,30.62-26.55,10.92C138.81,881.09,146.1,867.4,153,867.58Z" style="fill:#ccc"/><g style="clip-path:url(#clip-path-57)"><path d="M155.16,867.39s-19.94,18.81,1.13,22.12l-7.39,4-7-5L138,880.2l12.5-14.42,4.69,1.61" style="fill:#999"/></g><path d="M251.88,893.27s34.12-14,67.12,0,35,31.44,35,31.44,4-1.44,6-3.44,2-10,2-11-16-24-47-30-58.45.92-61.23,3S247.76,892.25,251.88,893.27Z" style="fill:#4ac200"/><g style="clip-path:url(#clip-path-58)"><path d="M332,883.28s.52,12.69-26,7.9c-5-.9,34,7.1,51,45.1,0,0,21-17,12-29S332,883.28,332,883.28Z" style="fill:#3da100"/></g></g></g></svg>