<svg xmlns="http://www.w3.org/2000/svg" xmlns:xlink="http://www.w3.org/1999/xlink" viewBox="0 0 759.44 803.52"><defs><clipPath id="clip-path" transform="translate(0 25.29)"><path d="M658.91,46.16,353.64.25A22.58,22.58,0,0,0,328.4,17.06L199.65,527.66,708.4,399.38a24.68,24.68,0,0,0,18.37-27.61L681.15,68.4A26.48,26.48,0,0,0,658.91,46.16Z" style="fill:#ff8b00"/></clipPath></defs><g id="Layer_2" data-name="Layer 2"><g id="Layer_3" data-name="Layer 3"><path d="M236.73,473.27c-15.33,23.69-30.52,48-50.85,67.78a139.06,139.06,0,0,1-34.54,25c-14.27,7.18-29.63,11.79-44.5,17.5-23.67,9.08-49,23-59.25,47.72-5.39,13-4.71,26.94-3.16,40.63,1.59,14.1,4.23,29.1-.86,42.8C34.55,739,3.64,748.7,0,775.85c-.38,2.89,4.06,3.19,4.88.66,7.15-22,29.69-33.43,41.2-52.67,15.07-25.2.11-53.74,6-80.48,6.09-27.76,33.37-43,57.61-52.88,13.93-5.66,28.24-10.47,41.71-17.2a141.62,141.62,0,0,0,33.84-23.9c22.45-21.22,38.71-48.09,53.77-74.79a1.31,1.31,0,0,0-2.27-1.32Z" transform="translate(0 25.29)" style="fill:#232533"/><path d="M658.91,46.16,353.64.25A22.58,22.58,0,0,0,328.4,17.06L199.65,527.66,708.4,399.38a24.68,24.68,0,0,0,18.37-27.61L681.15,68.4A26.48,26.48,0,0,0,658.91,46.16Z" transform="translate(0 25.29)" style="fill:#ff8b00"/><g style="clip-path:url(#clip-path)"><polygon points="734.65 421.93 331.58 18.86 350.44 0 684.57 71.59 759.44 397.14 734.65 421.93" style="fill:#ff9a00"/><line x1="678.24" y1="74.36" x2="199.65" y2="552.95" style="fill:none;stroke:#232533;stroke-miterlimit:10;stroke-width:5px"/><line x1="333.4" y1="21.59" x2="731.01" y2="419.2" style="fill:none;stroke:#232533;stroke-miterlimit:10;stroke-width:5px"/><polygon points="677.76 74.37 181.76 572.37 493.76 499.37 731.76 419.37 677.76 74.37" style="fill:#d85107;opacity:0.35000000000000003"/></g><polygon points="96.95 579.69 155.59 593.31 121.52 641.21 96.95 579.69" style="fill:#ea2727"/><polygon points="29.02 634.03 88.06 622.29 76.74 679.97 29.02 634.03" style="fill:#ea2727"/></g></g></svg>