<svg xmlns="http://www.w3.org/2000/svg" xmlns:xlink="http://www.w3.org/1999/xlink" viewBox="0 0 788.1 797.9"><defs><clipPath id="clip-path"><circle cx="290.15" cy="289.48" r="119" style="fill:#232533"/></clipPath><clipPath id="clip-path-2"><path d="M683.28,257.55c106.82,106.82,116.58,274,29.28,391.79-8.78,11.85-214.21-159-214.21-159S661.47,703.53,649.79,712.23c-117.87,87.65-285.28,78-392.24-29C140,565.72,154.63,389.75,272.19,272.19S565.72,140,683.28,257.55Z" style="fill:#ea2727"/></clipPath></defs><g style="isolation:isolate"><g id="Layer_2" data-name="Layer 2"><g id="Layer_3" data-name="Layer 3"><circle cx="469.75" cy="469.09" r="278.93" style="fill:#232533"/><path d="M271.23,192.35c-11-29.13-13.18-61.32-4.84-91.42a146.21,146.21,0,0,1,17-38.3c7.66-12.28,17.81-22.14,26.72-33.41,1.51-1.91-.37-5-2.79-3.61-12.34,7.39-21.73,20-29.33,32a148,148,0,0,0-11.51,136.06c1.2,2.87,5.94,1.71,4.79-1.32Z" style="fill:#232533"/><circle cx="290.15" cy="289.48" r="119" style="fill:#232533"/><g style="clip-path:url(#clip-path)"><path d="M150,212.81s189.09-26.34,223,105.36,57.39-141.1,57.39-141.1l-175-48-92.19,53.62Z" style="fill:#13141c"/></g><path d="M683.28,257.55c106.82,106.82,116.58,274,29.28,391.79-8.78,11.85-214.21-159-214.21-159S661.47,703.53,649.79,712.23c-117.87,87.65-285.28,78-392.24-29C140,565.72,154.63,389.75,272.19,272.19S565.72,140,683.28,257.55Z" style="fill:#ea2727"/><g style="clip-path:url(#clip-path-2)"><path d="M258.47,249.49S444.73,171.4,565.15,305s3.76,360.3-113.83,397-267.17-9.41-267.17-9.41L473.45,797.9l225-86L788.1,575,762.45,351.9l-91-123-183-83Z" style="fill:#c10505;opacity:0.46;mix-blend-mode:multiply"/></g><circle cx="488.38" cy="271.52" r="33.87" style="fill:#232533"/><circle cx="530.95" cy="409.88" r="33.87" style="fill:#232533"/><circle cx="682.61" cy="423.19" r="33.87" style="fill:#232533"/><circle cx="276.18" cy="483.72" r="33.87" style="fill:#232533"/><circle cx="414.54" cy="526.29" r="33.87" style="fill:#232533"/><circle cx="427.84" cy="677.96" r="33.87" style="fill:#232533"/><path d="M363.23,352.76c22.12,24.16,45.9,46.64,69,69.88,22.88,23,45.25,46.72,66.61,71.17,12.27,14.05,23.94,28.55,37.7,41.14,1.64,1.51,4.63-.48,3.23-2.5-9.16-13.22-19.87-24.94-30.62-36.92-11-12.22-21.84-24.52-32.84-36.7-22.22-24.58-45.18-48.47-69.77-70.71-13.75-12.43-28.6-23.86-41.78-36.88a1.08,1.08,0,0,0-1.52,1.52Z" style="fill:#232533"/><path d="M184.77,266.26c-56.05-18.17-122.91-1.38-160.9,44.46-2.39,2.88,1.42,6.9,4.17,4.17,40.06-39.56,100.18-57.33,154.81-41.67,4.49,1.29,6.31-5.53,1.92-7Z" style="fill:#232533"/><circle cx="310.77" cy="25.4" r="25.4" style="fill:#232533"/><circle cx="25.4" cy="311.43" r="25.4" style="fill:#232533"/></g></g></g></svg>