<svg xmlns="http://www.w3.org/2000/svg" xmlns:xlink="http://www.w3.org/1999/xlink" viewBox="0 0 1387.23 1231.62"><defs><clipPath id="clip-path" transform="translate(0 3.5)"><rect width="1298.77" height="947.13" rx="9.96" style="fill:#b8bdf4"/></clipPath><clipPath id="clip-path-2" transform="translate(0 3.5)"><path d="M50.13,60.55,64.87,897.66a7.37,7.37,0,0,0,7.47,7.24l1166.12-16.5a7.37,7.37,0,0,0,7.26-7.62L1218,67.9a7.37,7.37,0,0,0-7.31-7.12L57.55,53.05A7.37,7.37,0,0,0,50.13,60.55Z" style="fill:#d1d2ff"/></clipPath><clipPath id="clip-path-3" transform="translate(0 3.5)"><path d="M930,208c-48-8.95-79.83,45.23-68,165,8,81-45,363-65,448s-9,148,87,194c0,0,31,31,8,134,0,0-67.78-38.31-77.75,21.38a4.18,4.18,0,0,0,.8,3.22c4.53,6,25.62,25.63,97.76,6a4.3,4.3,0,0,0,3-2.81c2.81-8.45,13-43.58,28.22-145.79,0,0,15,4,36,0l27.39,147.7a4.46,4.46,0,0,0,4,3.64c16,1.52,84.89,6.78,107.44-12.26a3.9,3.9,0,0,0,1.38-2.63c.94-10,2.3-64-84.18-18.45,0,0-13-77,3-134,0,0,172-46,111-249s-86-301-114-393S989,219,930,208Z" style="fill:#f84350"/></clipPath><clipPath id="clip-path-4" transform="translate(0 3.5)"><path d="M1053,904c-1-11,4-41,19-49s39-2,41,15-11,40-34,48S1053,904,1053,904Z" style="fill:#ffbf6b"/></clipPath><clipPath id="clip-path-5" transform="translate(0 3.5)"><path d="M1057.5,1189.5s-9-7-3-14c5.37-6.26,20-1,22,5s-5,7-5,7Z" style="fill:#ffbf6b"/></clipPath><clipPath id="clip-path-6" transform="translate(0 3.5)"><path d="M784.37,575.38A83.57,83.57,0,0,1,757,572c-59.28-17-89-126-152-88-55.89,33.71,7.85,152.43,186.35,134.8C814.05,616.55,838.77,572.7,784.37,575.38Z" style="fill:#f84350"/></clipPath><clipPath id="clip-path-7" transform="translate(0 3.5)"><path d="M593,562s7-23,40-18,45,50,43,74C676,618,619,606,593,562Z" style="fill:#ffbf6b"/></clipPath><clipPath id="clip-path-8" transform="translate(0 3.5)"><path d="M802.13,561.88s-10.42-3.48-15.86-1.58c-4.09,1.43-10.27,3.24-13.1,4.05a3.65,3.65,0,0,0-2.54,2.6c-1,4.15-5.93,16.6,1.41,50.34,7.69,35.42,14.51,33.44,18.69,35.77,2.59,1.45,10.22,4.26,15.08,1.38,3.65-2.15,10.47-3.48,13.65-4a2.46,2.46,0,0,0,2-2.07c.75-5.22,2.24-21.39-3.58-43.69C810.78,577.32,807.33,563.19,802.13,561.88Z" style="fill:#fff"/></clipPath><clipPath id="clip-path-9" transform="translate(0 3.5)"><path d="M822,650.36c3.46-.75,2-21.11-3.27-45.49s-12.33-43.54-15.78-42.79-4.86,21.54.41,45.92S818.5,651.1,822,650.36Z" style="fill:#9aa3e2"/></clipPath><clipPath id="clip-path-10" transform="translate(0 3.5)"><polyline points="803.5 565.5 798.5 569.5 798.5 580.5 798.5 595.5 802.5 621.5 812.5 647.5 819.46 650.42 823.6 636.66 819.5 618.5 806.41 567.14 803.5 565.5" style="fill:#fff"/></clipPath><clipPath id="clip-path-11" transform="translate(0 3.5)"><polygon points="765.5 616.5 795.15 631.15 822.22 624.34 828.5 646.5 822 658.69 799.5 661.5 777.5 651.5 765.5 616.5" style="fill:#ebecff"/></clipPath><clipPath id="clip-path-12" transform="translate(0 3.5)"><path d="M822.22,549.25c-1.72,1.25-18.72,16.25-18.72,16.25v43l18.7,30.39,10.3-16.39,8-40Z" style="fill:#fff"/></clipPath><clipPath id="clip-path-13" transform="translate(0 3.5)"><path d="M626.94,475.84c-11.49-1.3-39.32,4.89-45.88,35.67s-7.87,58.31,39.86,60C661.48,572.9,669.94,480.73,626.94,475.84Z" style="fill:#f84350"/></clipPath><clipPath id="clip-path-14" transform="translate(0 3.5)"><path d="M923,600c-3,0-88-33-88-33s-20,113-43,168-31,75-31,75,77.78,63.49,160,78c34,6,173.76-81.18,230-92,26-5,24-31,24-31l-46.92-120.54L1172,601l-90-107-60,59Z" style="fill:#fff"/></clipPath><clipPath id="clip-path-15" transform="translate(0 3.5)"><path d="M888.43,620.57s-37.55,68.09-39.24,77,37.16,120.56,39.24,121.74,51.89-102.08,56.48-109.45-35.55-86-35.55-86Z" style="fill:#7d53f1"/></clipPath><clipPath id="clip-path-16" transform="translate(0 3.5)"><path d="M882,577s42.82,9,62.91,0a95.55,95.55,0,0,1-4.58,23.54c-4.12,12.35-15.83,20-26.53,30.44-3.13,3.06-8.92,1.9-14.3,1.52-6.53-.46-12.62-.78-15.25-4.3-5.75-7.7-6.75-13.7-10-24.73C870.48,590.52,882,577,882,577Z" style="fill:#7d53f1"/></clipPath><clipPath id="clip-path-17" transform="translate(0 3.5)"><path d="M1064.41,470.53S1088,490,1036,524s-118,51-120,54,15,21.71,18,33,5.13,36.88,36.07,17.94S1055,557,1074,538s21-35,18-40-14.21-19.87-20-30c-4-7-9.71-4.93-9.71-4.93Z" style="fill:#fff"/></clipPath><clipPath id="clip-path-18" transform="translate(0 3.5)"><path d="M1110.16,671.25c3,15.25,6,34.49,8.84,58.75,13,113,53,134,67,128s55-26,14-146c-10.9-31.9-25.32-63-40.63-91.43Z" style="fill:#f84350"/></clipPath><clipPath id="clip-path-19" transform="translate(0 3.5)"><path d="M1198,684c-2.21-5.58-26.59,10.9-28.8,36s23.29,52.31,48.54,42.68C1217.74,762.63,1215,727,1198,684Z" style="fill:#ffbf6b"/></clipPath><clipPath id="clip-path-20" transform="translate(0 3.5)"><path d="M1094.27,640.78s-.84,11.73,2.59,16.86c2.57,3.86,6.09,9.78,7.69,12.49a3.88,3.88,0,0,0,3.36,2c4.58,0,18.79,1.72,51.82-14.87,34.66-17.41,30.79-24,32.1-28.9.81-3.07,1.69-11.73-2.59-16-3.21-3.2-6.4-9.91-7.8-13.07a2.61,2.61,0,0,0-2.68-1.55c-5.6.62-22.77,3.38-44.33,15.35C1108,627.7,1094.25,635,1094.27,640.78Z" style="fill:#fff"/></clipPath><clipPath id="clip-path-21" transform="translate(0 3.5)"><path d="M1180.71,596.66c-1.69-3.38-22.41,3.57-46.28,15.51s-41.85,24.37-40.16,27.75,23.63-.7,47.5-12.65S1182.4,600,1180.71,596.66Z" style="fill:#9aa3e2"/></clipPath><clipPath id="clip-path-22" transform="translate(0 3.5)"><polyline points="1169.9 598.5 1176.5 605.5 1167.5 619.5 1132.35 637.5 1104.5 644.5 1091.5 643.5 1094.18 634.89 1110.16 623.13 1140.5 605.5 1169.9 598.5" style="fill:#fff"/></clipPath><clipPath id="clip-path-23" transform="translate(0 3.5)"><path d="M903.33,423.89c36.77,24.1,66.35-2.77,82.45-18.94s40.54-11.75,32.77,32.06-54.93,66.66-93.8,68-53-40.21-55.51-63.84S877.52,407,903.33,423.89Z" style="fill:#7f1f2a"/></clipPath></defs><g id="Layer_2" data-name="Layer 2"><g id="lecturer"><path d="M1113,1123.28C953.34,1121,808,1117.8,676.21,1136c-115.83,16-201.5,47.72-90.86,73.8s650.65,25.29,763.65-8.32S1307,1126,1113,1123.28Z" transform="translate(0 3.5)" style="fill:#ebebf2"/><rect y="3.5" width="1298.77" height="947.13" rx="9.96" style="fill:#b8bdf4"/><g style="clip-path:url(#clip-path)"><polygon points="1202.5 2 346.84 975.41 1330.5 975.41 1298.5 0 1202.5 2" style="fill:#a2abea"/></g><path d="M50.13,60.55,64.87,897.66a7.37,7.37,0,0,0,7.47,7.24l1166.12-16.5a7.37,7.37,0,0,0,7.26-7.62L1218,67.9a7.37,7.37,0,0,0-7.31-7.12L57.55,53.05A7.37,7.37,0,0,0,50.13,60.55Z" transform="translate(0 3.5)" style="fill:#d1d2ff"/><g style="clip-path:url(#clip-path-2)"><path d="M1202.14-1.5c-7.64,0-873.64,993-873.64,993l948-13-21-903Z" transform="translate(0 3.5)" style="fill:#bdc0f9"/></g><path d="M141.27,160.16l7,82.12a2.91,2.91,0,0,0,2.9,2.66H430.12A2.89,2.89,0,0,0,433,242.5l13.35-82.13a2.91,2.91,0,0,0-2.87-3.37H144.17A2.91,2.91,0,0,0,141.27,160.16Z" transform="translate(0 3.5)" style="fill:#5162e0;opacity:0.2"/><path d="M138.27,157.16l7,82.12a2.91,2.91,0,0,0,2.9,2.66H427.12A2.89,2.89,0,0,0,430,239.5l13.35-82.13a2.91,2.91,0,0,0-2.87-3.37H141.17A2.91,2.91,0,0,0,138.27,157.16Z" transform="translate(0 3.5)" style="fill:#ebecff"/><path d="M144,540.2V760.68a1.54,1.54,0,0,0,1.54,1.54H695.25a1.54,1.54,0,0,0,1.54-1.44l15.42-249.06a1.53,1.53,0,0,0-1.61-1.63L145.46,538.67A1.53,1.53,0,0,0,144,540.2Z" transform="translate(0 3.5)" style="fill:#5162e0;opacity:0.2"/><rect x="141" y="309.89" width="357.7" height="29.17" rx="1.36" style="fill:#5162e0;opacity:0.2"/><rect x="139" y="307.89" width="357.7" height="29.17" rx="1.36" style="fill:#ebecff"/><path d="M141,381.46V412l323.76-8.87-7.15-35.4-315.06,12.1A1.61,1.61,0,0,0,141,381.46Z" transform="translate(0 3.5)" style="fill:#5162e0;opacity:0.2"/><path d="M138.5,378.46V409l323.76-8.87-7.15-35.4-315.06,12.1A1.61,1.61,0,0,0,138.5,378.46Z" transform="translate(0 3.5)" style="fill:#ebecff"/><path d="M141,535.2V755.68a1.54,1.54,0,0,0,1.54,1.54H692.25a1.54,1.54,0,0,0,1.54-1.44l15.42-249.06a1.53,1.53,0,0,0-1.61-1.63L142.46,533.67A1.53,1.53,0,0,0,141,535.2Z" transform="translate(0 3.5)" style="fill:#ebecff"/><path d="M125.65,793.56c1.85,10,6.1,64.09,6.71,72a1,1,0,0,0,1,1H346.84V792.12h-220A1.22,1.22,0,0,0,125.65,793.56Z" transform="translate(0 3.5)" style="fill:#5162e0;opacity:0.2"/><path d="M121.65,789.56c1.85,10,6.1,64.09,6.71,72a1,1,0,0,0,1,1H342.84V788.12h-220A1.22,1.22,0,0,0,121.65,789.56Z" transform="translate(0 3.5)" style="fill:#ebecff"/><path d="M652.41,128.31a3,3,0,0,0-3,3C649.77,164,646.5,445.5,648,447.06c3.7,3.88,123-.47,144.18-.06a3,3,0,0,0,3.05-2.92l7.15-312.71a3,3,0,0,0-3-3.06Z" transform="translate(0 3.5)" style="fill:#5162e0;opacity:0.2"/><path d="M650.41,125.5a3,3,0,0,0-3,3c.35,32.64-2.92,314.17-1.43,315.73,3.7,3.88,123-.47,144.18-.06a3,3,0,0,0,3.05-2.92l7.15-312.71a3,3,0,0,0-3-3.06Z" transform="translate(0 3.5)" style="fill:#ebecff"/><path d="M902,121.88v34.4a.72.72,0,0,0,.72.72h265.54a.72.72,0,0,0,.71-.82l-4.91-34.4a.72.72,0,0,0-.71-.62H902.7A.72.72,0,0,0,902,121.88Z" transform="translate(0 3.5)" style="fill:#5162e0;opacity:0.2"/><path d="M899,119.88v34.4a.72.72,0,0,0,.72.72h265.54a.72.72,0,0,0,.71-.82l-4.91-34.4a.72.72,0,0,0-.71-.62H899.7A.72.72,0,0,0,899,119.88Z" transform="translate(0 3.5)" style="fill:#ebecff"/><path d="M1018.56,207.05a1.13,1.13,0,0,0-1.13,1c-.46,7.08-2.83,47.45,2.61,45.28,5.65-2.26,140-.16,153.85.06a1.13,1.13,0,0,0,1.15-1.13V208.18a1.14,1.14,0,0,0-1.14-1.13Z" transform="translate(0 3.5)" style="fill:#5162e0;opacity:0.2"/><path d="M1016,204.5a1.13,1.13,0,0,0-1.13,1.05c-.45,7.08-2.82,47.45,2.61,45.28,5.66-2.26,140-.16,153.86.06a1.12,1.12,0,0,0,1.14-1.13V205.63a1.14,1.14,0,0,0-1.13-1.13Z" transform="translate(0 3.5)" style="fill:#ebecff"/><polygon points="849.14 502.74 863.5 494 1065.5 470 1074.05 482.5 1074.05 502.74 1023.5 546 845.98 551.79 833.5 525 849.14 502.74" style="fill:#9aa3e2"/><path d="M930,208c-48-8.95-79.83,45.23-68,165,8,81-45,363-65,448s-9,148,87,194c0,0,31,31,8,134,0,0-67.78-38.31-77.75,21.38a4.18,4.18,0,0,0,.8,3.22c4.53,6,25.62,25.63,97.76,6a4.3,4.3,0,0,0,3-2.81c2.81-8.45,13-43.58,28.22-145.79,0,0,15,4,36,0l27.39,147.7a4.46,4.46,0,0,0,4,3.64c16,1.52,84.89,6.78,107.44-12.26a3.9,3.9,0,0,0,1.38-2.63c.94-10,2.3-64-84.18-18.45,0,0-13-77,3-134,0,0,172-46,111-249s-86-301-114-393S989,219,930,208Z" transform="translate(0 3.5)" style="fill:#f84350"/><g style="clip-path:url(#clip-path-3)"><path d="M1175,765l-64.84,27.12s-4.66,65.38-77.66,143.38-221.89,22.63-221.89,22.63,14.89,32.37,61.89,51.37c84,49,166.5,5.5,166.5,5.5l104.34-51.48,40.16-88Z" transform="translate(0 3.5)" style="fill:#ed2648"/><path d="M1072.5,1128.5s21,1,23,22-24,37-24,37l47-8,6.61-11.69-3.61-21.31-11-18-26-5Z" transform="translate(0 3.5)" style="fill:#ed2648"/><path d="M1098.5,1163.5s-37,22-97,14l4,8,54.23,2.61,24.73-2.82Z" transform="translate(0 3.5)" style="fill:#ed2648"/><path d="M813,839s-13,19,3,26,25.62-13,25.62-13Z" transform="translate(0 3.5)" style="fill:#ffbf6b"/><path d="M827,935c-8.9-11.22-8.73-41.35,22.14-41.67s54.27,30.72,48.07,52.7S850,964,827,935Z" transform="translate(0 3.5)" style="fill:#ffbf6b"/><path d="M1017,884c-2.77-4.62,3-12,9-11s6.46,11.59,3.23,15.3S1020,889,1017,884Z" transform="translate(0 3.5)" style="fill:#ffbf6b"/><path d="M1053,904c-1-11,4-41,19-49s39-2,41,15-11,40-34,48S1053,904,1053,904Z" transform="translate(0 3.5)" style="fill:#ffbf6b"/><g style="clip-path:url(#clip-path-4)"><path d="M1092,850s-18.8,40.2-38.65,61.36l4.14,8.15,10,5,24-7,20-20,6-26-7.34-15Z" transform="translate(0 3.5)" style="fill:#efa750"/></g><path d="M1016.29,976c3.06-7.38,9.71-18,24.71-19s29,12,20,27-29,11-35,9S1012.57,984.92,1016.29,976Z" transform="translate(0 3.5)" style="fill:#efa750"/><path d="M982,1078c5-7,11-13,16-6s-1,25-11,22S982,1078,982,1078Z" transform="translate(0 3.5)" style="fill:#ffbf6b"/><path d="M910,949c0-4.12,2-8,7-8s4,10.54,0,11.77S910,953,910,949Z" transform="translate(0 3.5)" style="fill:#ffbf6b"/><path d="M835,1135s2,18,16,21,29-9,29-17S835,1135,835,1135Z" transform="translate(0 3.5)" style="fill:#ffbf6b"/><path d="M875,1165c-1-3,3-6.31,5-6.16s5,5.16,0,8.06C876.06,1169.19,875,1165,875,1165Z" transform="translate(0 3.5)" style="fill:#ffbf6b"/><path d="M1016,293c-4.46-5.49-20,7-20,22s29,65,43,42C1039,357,1029,309,1016,293Z" transform="translate(0 3.5)" style="fill:#ffbf6b"/><path d="M996,363c-1-4.86,1-8.95,4-7.95s6,8.71,4.48,11.36S997,367.91,996,363Z" transform="translate(0 3.5)" style="fill:#ffbf6b"/><path d="M858.7,363S866,359,873,366s4,25.66,0,30.33S854,395,854,387,858.7,363,858.7,363Z" transform="translate(0 3.5)" style="fill:#ffbf6b"/><path d="M911.51,242.74C905,239.5,906,228,914,226s19,2,21,11S919,246.48,911.51,242.74Z" transform="translate(0 3.5)" style="fill:#ffbf6b"/><path d="M1057.5,1189.5s-9-7-3-14c5.37-6.26,20-1,22,5s-5,7-5,7Z" transform="translate(0 3.5)" style="fill:#ffbf6b"/><g style="clip-path:url(#clip-path-5)"><path d="M1071,1173.9s-13.32,3.8-18.9,3.7l-1.58,2.9,3,6h8l17-2v-3l-4-7Z" transform="translate(0 3.5)" style="fill:#efa750"/></g><path d="M943.12,1036.86s-25.79,133.25-76.62,155.64l50.35-8.06,9.72-16.63L950.5,1038.5l-7.38-1.64" transform="translate(0 3.5)" style="fill:#ed2648"/><path d="M902.5,1160.5s-11,33-96,15l19,11,41,6,28.85-4.39Z" transform="translate(0 3.5)" style="fill:#ed2648"/><polygon points="1143.5 812 1067.5 839 952.73 885.22 1042.5 836 1138.5 797 1143.5 812" style="fill:#d6193a"/><path d="M949.21,882.94s-23.05,10.22-23.88,9.89-23.2-2.74-33-4.53-64.81-36.8-64.81-36.8l69.71,26.18Z" transform="translate(0 3.5)" style="fill:#d6193a"/><path d="M1120.5,811.5s20,56,45,57l2-25-18-41Z" transform="translate(0 3.5)" style="fill:#d6193a"/><path d="M1004.48,244.94s119,303.56-131,332.56l23.71,20.17,56.56-12.28,120.28-69.47L1093.13,476Z" transform="translate(0 3.5)" style="fill:#ed2648"/><path d="M1045.5,380.5s6,108,0,124.5S924,580.92,924,580.92l68.56-21.19,64.84-41.56L1078.69,488Z" transform="translate(0 3.5)" style="fill:#d6193a"/><path d="M849.14,523.59s25.47,41.91,43.91,47.91l-27.63-11.77-24.92-23.2,8.64-12.94" transform="translate(0 3.5)" style="fill:#d6193a"/><path d="M944.45,286.34s16,11.16,20,41.16-26.62,59.81-57.81,25.9l19.81,1.1,22-13,5.27-31.06Z" transform="translate(0 3.5)" style="fill:#d6193a"/></g><path d="M784.37,575.38A83.57,83.57,0,0,1,757,572c-59.28-17-89-126-152-88-55.89,33.71,7.85,152.43,186.35,134.8C814.05,616.55,838.77,572.7,784.37,575.38Z" transform="translate(0 3.5)" style="fill:#f84350"/><g style="clip-path:url(#clip-path-6)"><path d="M780,594.07s-31.68,29.6-143.47,4.43L735,633l60.17-1.88Z" transform="translate(0 3.5)" style="fill:#ed2648"/><path d="M593,562s7-23,40-18,45,50,43,74C676,618,619,606,593,562Z" transform="translate(0 3.5)" style="fill:#ffbf6b"/><g style="clip-path:url(#clip-path-7)"><polygon points="677.82 609.45 652.09 605.26 663.5 610 677.5 614 677.82 609.45" style="fill:#efa750"/></g><path d="M701,518s-15,16-2,27,25.93-1.71,25.93-1.71Z" transform="translate(0 3.5)" style="fill:#ffbf6b"/><path d="M654.44,507.55s11.06,38.95,1.06,63.95-37,15-37,15l-23-23,35.27-3.77,23.67-52.18" transform="translate(0 3.5)" style="fill:#ed2648"/></g><path d="M802.13,561.88s-10.42-3.48-15.86-1.58c-4.09,1.43-10.27,3.24-13.1,4.05a3.65,3.65,0,0,0-2.54,2.6c-1,4.15-5.93,16.6,1.41,50.34,7.69,35.42,14.51,33.44,18.69,35.77,2.59,1.45,10.22,4.26,15.08,1.38,3.65-2.15,10.47-3.48,13.65-4a2.46,2.46,0,0,0,2-2.07c.75-5.22,2.24-21.39-3.58-43.69C810.78,577.32,807.33,563.19,802.13,561.88Z" transform="translate(0 3.5)" style="fill:#fff"/><g style="clip-path:url(#clip-path-8)"><path d="M822,650.36c3.46-.75,2-21.11-3.27-45.49s-12.33-43.54-15.78-42.79-4.86,21.54.41,45.92S818.5,651.1,822,650.36Z" transform="translate(0 3.5)" style="fill:#9aa3e2"/><g style="clip-path:url(#clip-path-9)"><polyline points="803.5 569 798.5 573 798.5 584 798.5 599 802.5 625 812.5 651 819.46 653.92 823.6 640.16 819.5 622 806.41 570.64 803.5 569" style="fill:#fff"/><g style="clip-path:url(#clip-path-10)"><polygon points="798.5 581 804.5 609 822.5 645 817.5 660 809.5 633 800.5 610 799.5 596 798.5 581" style="fill:#c3c6ea"/></g></g><polygon points="765.5 620 795.15 634.65 822.22 627.84 828.5 650 822 662.19 799.5 665 777.5 655 765.5 620" style="fill:#ebecff"/><g style="clip-path:url(#clip-path-11)"><polygon points="798.5 581 804.5 609 822.5 645 817.5 660 809.5 633 800.5 610 799.5 596 798.5 581" style="fill:#c3c6ea"/></g></g><path d="M822.22,549.25c-1.72,1.25-18.72,16.25-18.72,16.25v43l18.7,30.39,10.3-16.39,8-40Z" transform="translate(0 3.5)" style="fill:#fff"/><g style="clip-path:url(#clip-path-12)"><polygon points="826.5 562 803.5 612 821.5 652 832.5 626 840.5 586 826.5 562" style="fill:#ebecff"/></g><path d="M549.88,239.3c-3.25,1,93.29,333.28,106.62,377.24,2,6.69,3.84,12.81,6,18.15,6,14.81,16,10.81,13.32-4.21-1-5.63-3.06-11.63-5.07-18.26C657.42,568.26,552.5,242.5,551.5,240.5S549.88,239.3,549.88,239.3Z" transform="translate(0 3.5)" style="fill:#3a161b"/><path d="M626.94,475.84c-11.49-1.3-39.32,4.89-45.88,35.67s-7.87,58.31,39.86,60C661.48,572.9,669.94,480.73,626.94,475.84Z" transform="translate(0 3.5)" style="fill:#f84350"/><g style="clip-path:url(#clip-path-13)"><path d="M626.94,475.84S647.5,501.5,633,544s-55.5,14.5-55.5,14.5L597.15,577l12.49,5.86L634.25,577l21.25-21.17,5-32.24-5-50-28.56,2.27" transform="translate(0 3.5)" style="fill:#d6193a"/><path d="M613,488.88s6.42,15.46,14.47,22.62c4.09,3.64,26.72,7.63,32,6,6.32-2-1-13-1-13L613,488.88" transform="translate(0 3.5)" style="fill:#d6193a"/><path d="M670.5,494.5s-3.48-3.79-15-11c-8.64-5.41-28.8-17.77-40.94-15.4s-.51,36.61,20.75,38.75a59.13,59.13,0,0,0,13.52,0S672,512.13,670.5,494.5Z" transform="translate(0 3.5)" style="fill:#f84350"/></g><path d="M923,600c-3,0-88-33-88-33s-20,113-43,168-31,75-31,75,77.78,63.49,160,78c34,6,173.76-81.18,230-92,26-5,24-31,24-31l-46.92-120.54L1172,601l-90-107-60,59Z" transform="translate(0 3.5)" style="fill:#fff"/><g style="clip-path:url(#clip-path-14)"><polyline points="1110.16 822.83 1145.43 822.83 1143.34 723.45 1100.5 651 1080.5 605 1086.5 711 1020.5 806 989.5 877 1097.5 830" style="fill:#ebecff"/><polygon points="1119.5 538 1135.51 597.57 1132.54 651.7 1187.5 620 1181.5 595 1119.5 538" style="fill:#ebecff"/><path d="M911.5,612.5s34,34,38,32,28-12,37-18,39-36,39-36,64-62,65-68,6-15,6-15l-8.7-6.89L1015.67,581,958.5,610.5l-18.17-10Z" transform="translate(0 3.5)" style="fill:#c3c6ea"/><path d="M1080.5,601.5,1097,639.33l35.55,43.17s8,124,7,123-9.14,0-9.57,0-16.43-71-16.43-71l-12-57-15-30Z" transform="translate(0 3.5)" style="fill:#c3c6ea"/><path d="M827.5,572.5l19,48s10,18,15,18,35-25,35-25l-27.63-15.83L833.5,577Z" transform="translate(0 3.5)" style="fill:#c3c6ea"/></g><path d="M933.18,629.31,922.5,640.5l22.78,66.83L920.5,777.5s-32.15,41.64-32.07,41.82S906.5,766.5,906.5,766.5l31-58-29.62-79.19L922.5,613.5Z" transform="translate(0 3.5)" style="fill:#c3c6ea"/><path d="M888.43,620.57s-37.55,68.09-39.24,77,37.16,120.56,39.24,121.74,51.89-102.08,56.48-109.45-35.55-86-35.55-86Z" transform="translate(0 3.5)" style="fill:#7d53f1"/><g style="clip-path:url(#clip-path-15)"><polygon points="915.84 637.88 909.21 640 888.43 636.53 887.29 632.81 914.5 632 915.84 637.88" style="fill:#50369c"/></g><path d="M882,577s42.82,9,62.91,0a95.55,95.55,0,0,1-4.58,23.54c-4.12,12.35-15.83,20-26.53,30.44-3.13,3.06-8.92,1.9-14.3,1.52-6.53-.46-12.62-.78-15.25-4.3-5.75-7.7-6.75-13.7-10-24.73C870.48,590.52,882,577,882,577Z" transform="translate(0 3.5)" style="fill:#7d53f1"/><g style="clip-path:url(#clip-path-16)"><path d="M922.5,585.5s-12.89,34.47-17,37.73-21.3,5-21.3,5l4.18,4.83,20.78,2.31,9.67-4.19L938.5,610.5,931,594.07Z" transform="translate(0 3.5)" style="fill:#6d44db"/><path d="M916.55,581s8,18.54,10,21.54,3.21,18.07,3.21,18.07l8.79-10.07-5-11-11-14-6-4.54" transform="translate(0 3.5)" style="fill:#50369c"/><polyline points="899.22 586.98 882.5 616 878.5 626 875.5 618 899.22 586.98" style="fill:#50369c"/></g><path d="M855.45,488s-38,42.55-40,49.55,37,97.76,48.5,91.5c11-6,29.08-37.45,37-48,6-8-17-14-32.5-27.5-6.6-5.74-42.12-35.4-14.81-51.45Z" transform="translate(0 3.5)" style="fill:#fff"/><path d="M1064.41,470.53S1088,490,1036,524s-118,51-120,54,15,21.71,18,33,5.13,36.88,36.07,17.94S1055,557,1074,538s21-35,18-40-14.21-19.87-20-30c-4-7-9.71-4.93-9.71-4.93Z" transform="translate(0 3.5)" style="fill:#fff"/><g style="clip-path:url(#clip-path-17)"><path d="M1051.41,479s-17.13,105.85-82.91,162.5c-36,31,74.61-33.79,74.61-33.79L1095.78,539l20.66-45-49.81-46.92h-19.37Z" transform="translate(0 3.5)" style="fill:#ebecff"/></g><path d="M1110.16,671.25c3,15.25,6,34.49,8.84,58.75,13,113,53,134,67,128s55-26,14-146c-10.9-31.9-25.32-63-40.63-91.43Z" transform="translate(0 3.5)" style="fill:#f84350"/><g style="clip-path:url(#clip-path-18)"><path d="M1163.5,637.5s42,109,33,158-41,43.27-61,31.13l34.36,39.86h22.64l25.24-21.63,6.76-42.36-50-171Z" transform="translate(0 3.5)" style="fill:#ed2648"/><path d="M1198,684c-2.21-5.58-26.59,10.9-28.8,36s23.29,52.31,48.54,42.68C1217.74,762.63,1215,727,1198,684Z" transform="translate(0 3.5)" style="fill:#ffbf6b"/><g style="clip-path:url(#clip-path-19)"><path d="M1180.61,688.57s14.76,51.4,16.82,81.67l20.31-1.53-3.24-19.21-13-40L1189.8,681Z" transform="translate(0 3.5)" style="fill:#efa750"/></g><path d="M1126,794s12-7,19,6-1,26.27-9.5,26.63S1126,794,1126,794Z" transform="translate(0 3.5)" style="fill:#ffbf6b"/><path d="M1191,825c0-3.16,1-8,4-7s4,7,2,10S1191,829,1191,825Z" transform="translate(0 3.5)" style="fill:#efa750"/></g><path d="M1094.27,640.78s-.84,11.73,2.59,16.86c2.57,3.86,6.09,9.78,7.69,12.49a3.88,3.88,0,0,0,3.36,2c4.58,0,18.79,1.72,51.82-14.87,34.66-17.41,30.79-24,32.1-28.9.81-3.07,1.69-11.73-2.59-16-3.21-3.2-6.4-9.91-7.8-13.07a2.61,2.61,0,0,0-2.68-1.55c-5.6.62-22.77,3.38-44.33,15.35C1108,627.7,1094.25,635,1094.27,640.78Z" transform="translate(0 3.5)" style="fill:#fff"/><g style="clip-path:url(#clip-path-20)"><path d="M1180.71,596.66c-1.69-3.38-22.41,3.57-46.28,15.51s-41.85,24.37-40.16,27.75,23.63-.7,47.5-12.65S1182.4,600,1180.71,596.66Z" transform="translate(0 3.5)" style="fill:#9aa3e2"/><g style="clip-path:url(#clip-path-21)"><polyline points="1169.9 602 1176.5 609 1167.5 623 1132.35 641 1104.5 648 1091.5 647 1094.18 638.39 1110.16 626.63 1140.5 609 1169.9 602" style="fill:#fff"/><g style="clip-path:url(#clip-path-22)"><polygon points="1134.78 610.88 1132.88 645.49 1181.5 614 1173.5 597 1134.78 610.88" style="fill:#ebecff"/><polygon points="1176.5 604 1143.5 627 1099.64 646.09 1113.4 645.76 1163.95 621.94 1180.83 608.52 1176.5 604" style="fill:#c3c6ea"/></g></g></g><ellipse cx="924.02" cy="318.32" rx="34" ry="45.19" transform="matrix(0.97, -0.26, 0.26, 0.97, -50.87, 253.04)" style="fill:#fff"/><ellipse cx="911.51" cy="306.39" rx="9.5" ry="10.61" transform="translate(-48.21 249.4) rotate(-14.97)" style="fill:#3a161b"/><path d="M903.33,423.89c36.77,24.1,66.35-2.77,82.45-18.94s40.54-11.75,32.77,32.06-54.93,66.66-93.8,68-53-40.21-55.51-63.84S877.52,407,903.33,423.89Z" transform="translate(0 3.5)" style="fill:#7f1f2a"/><g style="clip-path:url(#clip-path-23)"><path d="M964,412s32.55,101.5-90.46,64l8.89,12.24,23.71,19.15,23.39,4.1L975.86,500l37-27.2,17.44-40.05L1020,389.89H993.23Z" transform="translate(0 3.5)" style="fill:#6b1621"/><path d="M896.56,412l-6.63,18.71a9.35,9.35,0,0,0,5.14,11.72l10.3,4.4a9.78,9.78,0,0,0,12.8-5.05L926,424Z" transform="translate(0 3.5)" style="fill:#fff"/><path d="M942,423l4.71,18.28a7.69,7.69,0,0,0,11,4.9l18.47-9.63a6.68,6.68,0,0,0,2.35-9.8L968,412Z" transform="translate(0 3.5)" style="fill:#fff"/><path d="M1002.56,411.45h0a7.14,7.14,0,0,0,1.07-10L996.89,393,980,400l11.77,11.08A8.19,8.19,0,0,0,1002.56,411.45Z" transform="translate(0 3.5)" style="fill:#fff"/><path d="M956,505l-9.37-20.39a3,3,0,0,1,1.6-4l13.36-5.27a3.57,3.57,0,0,1,4.68,2.15L973,497Z" transform="translate(0 3.5)" style="fill:#fff"/></g></g></g></svg>