<svg width="1000" height="1000" viewBox="0 0 1000 1000" fill="none" xmlns="http://www.w3.org/2000/svg">
<path fill-rule="evenodd" clip-rule="evenodd" d="M6.07482 476.941C192.136 379.872 356.021 331.338 497.73 331.338C639.275 331.338 804.647 379.76 993.847 476.605C999.396 479.445 1001.6 486.256 998.763 491.818C998.694 491.953 998.622 492.087 998.548 492.22L960.322 560.304L994.509 655.541C996.618 661.417 993.575 667.894 987.712 670.008C984.773 671.068 981.526 670.859 978.747 669.431C800.615 577.907 642.63 532.145 504.79 532.145C366.234 532.145 204.613 578.384 19.9277 670.862C14.3539 673.653 7.57803 671.387 4.79333 665.8C3.50663 663.219 3.2532 660.243 4.08493 657.48L33.3441 560.304L1.0815 491.797C-1.50497 486.304 0.699687 479.745 6.07482 476.941Z" fill="url(#paint0_linear)"/>
<path opacity="0.9" fill-rule="evenodd" clip-rule="evenodd" d="M932.118 581.034C783.065 555.907 637.03 543.344 494.013 543.344C350.995 543.344 209.974 555.907 70.9499 581.034L84.1118 526.383L482.731 402.006L845.625 479.271L932.118 581.034Z" fill="#D4D4E9"/>
<mask id="mask0" mask-type="alpha" maskUnits="userSpaceOnUse" x="139" y="97" width="724" height="806">
<path d="M546.291 109.433L817.536 265.681C845.547 281.816 862.816 311.726 862.816 344.106V655.894C862.816 688.274 845.547 718.184 817.536 734.319L546.291 890.567C518.445 906.608 484.19 906.608 456.343 890.567L185.099 734.319C157.088 718.184 139.819 688.274 139.819 655.894V344.106C139.819 311.726 157.088 281.816 185.099 265.681L456.343 109.433C484.19 93.3924 518.445 93.3924 546.291 109.433Z" fill="white"/>
</mask>
<g mask="url(#mask0)">
<path d="M546.291 109.433L817.536 265.681C845.547 281.816 862.816 311.726 862.816 344.106V655.894C862.816 688.274 845.547 718.184 817.536 734.319L546.291 890.567C518.445 906.608 484.19 906.608 456.343 890.567L185.099 734.319C157.088 718.184 139.819 688.274 139.819 655.894V344.106C139.819 311.726 157.088 281.816 185.099 265.681L456.343 109.433C484.19 93.3924 518.445 93.3924 546.291 109.433Z" fill="#80B2FF"/>
<path fill-rule="evenodd" clip-rule="evenodd" d="M121.501 709.179L367.818 577.264L520.12 662.066L548.325 939.087H356.536L121.501 709.179Z" fill="#66A3FE"/>
<path fill-rule="evenodd" clip-rule="evenodd" d="M130.902 285.168L320.811 390.7L321.751 607.417L113.98 729.909L83.8954 337.934L130.902 285.168Z" fill="#88B8FF"/>
</g>
<mask id="mask1" mask-type="alpha" maskUnits="userSpaceOnUse" x="497" y="97" width="366" height="806">
<path d="M497.557 98.6025C525.761 98.6025 518.445 93.3925 546.292 109.433L817.536 265.681C845.547 281.816 862.816 311.726 862.816 344.106V655.894C862.816 688.274 845.547 718.184 817.536 734.32L546.292 890.567C518.445 906.608 527.642 901.398 497.557 901.398" fill="white"/>
</mask>
<g mask="url(#mask1)">
<path d="M497.557 98.6025C525.761 98.6025 518.445 93.3925 546.292 109.433L817.536 265.681C845.547 281.816 862.816 311.726 862.816 344.106V655.894C862.816 688.274 845.547 718.184 817.536 734.32L546.292 890.567C518.445 906.608 527.642 901.398 497.557 901.398" fill="#5196FC"/>
<path fill-rule="evenodd" clip-rule="evenodd" d="M704.388 607.417L918.74 754.407L486.275 939.088L476.874 714.833L704.388 607.417Z" fill="#3986F8"/>
<path fill-rule="evenodd" clip-rule="evenodd" d="M698.747 394.469L888.656 279.515L488.156 57.1444L482.515 279.515L698.747 394.469Z" fill="#69A6FF"/>
</g>
<path fill-rule="evenodd" clip-rule="evenodd" d="M529.366 261.704L694.415 356.507C711.956 366.582 722.776 385.295 722.776 405.557V594.443C722.776 614.705 711.956 633.418 694.415 643.493L529.366 738.296C511.992 748.275 490.642 748.275 473.269 738.296L308.219 643.493C290.678 633.418 279.859 614.705 279.859 594.443V405.557C279.859 385.295 290.678 366.582 308.219 356.507L473.269 261.704C490.642 251.725 511.992 251.725 529.366 261.704Z" fill="#D5E6FF"/>
<path d="M510.39 571.429C515.584 571.429 520.26 572.727 524.416 575.325C528.571 577.836 531.818 581.385 534.156 585.974C536.58 590.476 537.792 595.584 537.792 601.299C537.792 607.359 536.407 612.814 533.636 617.662C530.952 622.424 527.143 626.147 522.208 628.831C517.359 631.515 511.861 632.857 505.714 632.857C493.506 632.857 484.069 628.874 477.403 620.909C470.823 612.944 467.532 601.602 467.532 586.883C467.532 577.013 469.134 568.485 472.338 561.299C475.541 554.113 480.13 548.615 486.104 544.805C492.165 540.909 499.264 538.961 507.403 538.961C513.117 538.961 518.658 539.827 524.026 541.558C529.481 543.203 534.069 545.584 537.792 548.701L530.39 565.584C526.407 562.814 522.554 560.779 518.831 559.481C515.108 558.095 511.645 557.403 508.442 557.403C503.333 557.403 499.351 559.351 496.494 563.247C493.636 567.056 491.948 572.771 491.429 580.39C493.333 577.619 495.974 575.455 499.351 573.896C502.727 572.251 506.407 571.429 510.39 571.429ZM504.416 614.545C507.792 614.545 510.476 613.42 512.468 611.169C514.459 608.918 515.455 605.931 515.455 602.208C515.455 598.398 514.459 595.411 512.468 593.247C510.563 590.996 507.879 589.87 504.416 589.87C501.039 589.87 498.312 590.996 496.234 593.247C494.242 595.498 493.247 598.485 493.247 602.208C493.247 605.844 494.242 608.831 496.234 611.169C498.312 613.42 501.039 614.545 504.416 614.545Z" fill="#202842"/>
<mask id="mask2" mask-type="alpha" maskUnits="userSpaceOnUse" x="67" y="255" width="866" height="327">
<path d="M71.5064 384.606C211.251 298.841 352.734 255.958 495.955 255.958C639.189 255.958 783.581 298.848 929.133 384.627C931.431 385.981 932.842 388.453 932.842 391.125V574.255C932.842 578.418 929.474 581.793 925.321 581.793C923.963 581.793 922.631 581.425 921.466 580.727C783.341 498.086 643.863 456.766 503.031 456.766C362.084 456.766 220.815 498.154 79.2237 580.929C75.6357 583.027 71.0304 581.812 68.9375 578.216C68.2665 577.063 67.913 575.753 67.913 574.418V391.035C67.913 388.411 69.274 385.977 71.5064 384.606Z" fill="white"/>
</mask>
<g mask="url(#mask2)">
<g filter="url(#filter0_d)">
<path d="M71.5064 384.606C211.251 298.841 352.734 255.958 495.955 255.958C639.189 255.958 783.581 298.848 929.133 384.627C931.431 385.981 932.842 388.453 932.842 391.125V574.255C932.842 578.418 929.474 581.793 925.321 581.793C923.963 581.793 922.631 581.425 921.466 580.727C783.341 498.086 643.863 456.766 503.031 456.766C362.084 456.766 220.815 498.154 79.2237 580.929C75.6357 583.027 71.0304 581.812 68.9375 578.216C68.2665 577.063 67.913 575.753 67.913 574.418V391.035C67.913 388.411 69.274 385.977 71.5064 384.606Z" fill="black"/>
</g>
<path d="M71.5064 384.606C211.251 298.841 352.734 255.958 495.955 255.958C639.189 255.958 783.581 298.848 929.133 384.627C931.431 385.981 932.842 388.453 932.842 391.125V574.255C932.842 578.418 929.474 581.793 925.321 581.793C923.963 581.793 922.631 581.425 921.466 580.727C783.341 498.086 643.863 456.766 503.031 456.766C362.084 456.766 220.815 498.154 79.2237 580.929C75.6357 583.027 71.0304 581.812 68.9375 578.216C68.2665 577.063 67.913 575.753 67.913 574.418V391.035C67.913 388.411 69.274 385.977 71.5064 384.606Z" fill="#F8F8FB"/>
<path fill-rule="evenodd" clip-rule="evenodd" d="M499.654 226.748V496.23L960.322 607.416V366.2C865.335 308.976 792.005 272.543 740.329 256.9C688.654 241.257 608.429 231.206 499.654 226.748Z" fill="#F1F1F8"/>
</g>
<path d="M410.307 411.429V391.95H371.821V320.189H347.783V411.429H410.307ZM453.779 412.454C458.382 412.454 462.984 411.77 467.587 410.403C472.19 409.036 476.111 407.157 479.35 404.765L473.469 389.387C470.826 391.267 467.886 392.741 464.647 393.809C461.408 394.876 458.168 395.41 454.929 395.41C450.156 395.41 446.533 394.3 444.061 392.079C441.589 389.857 440.14 386.227 439.714 381.186H480.501V378.111C480.501 371.362 479.265 365.446 476.793 360.362C474.321 355.279 470.784 351.371 466.181 348.637C461.578 345.903 456.208 344.536 450.071 344.536C443.763 344.536 438.158 345.989 433.257 348.893C428.356 351.798 424.52 355.835 421.75 361.003C418.98 366.172 417.595 372.045 417.595 378.623C417.595 385.543 419.044 391.545 421.942 396.628C424.84 401.711 429.017 405.619 434.472 408.353C439.927 411.087 446.363 412.454 453.779 412.454ZM460.683 370.422H439.97C441.419 363.758 444.999 360.427 450.71 360.427C456.506 360.427 459.831 363.758 460.683 370.422ZM529.471 411.429L558.367 346.459H535.608L520.521 383.877L505.945 346.459H481.908L510.42 411.429H529.471ZM595.958 412.454C600.561 412.454 605.164 411.77 609.767 410.403C614.37 409.036 618.291 407.157 621.53 404.765L615.648 389.387C613.006 391.267 610.065 392.741 606.826 393.809C603.587 394.876 600.348 395.41 597.109 395.41C592.335 395.41 588.712 394.3 586.241 392.079C583.769 389.857 582.32 386.227 581.893 381.186H622.68V378.111C622.68 371.362 621.444 365.446 618.972 360.362C616.501 355.279 612.963 351.371 608.36 348.637C603.757 345.903 598.387 344.536 592.25 344.536C585.942 344.536 580.338 345.989 575.436 348.893C570.535 351.798 566.699 355.835 563.929 361.003C561.159 366.172 559.774 372.045 559.774 378.623C559.774 385.543 561.223 391.545 564.121 396.628C567.019 401.711 571.196 405.619 576.651 408.353C582.106 411.087 588.542 412.454 595.958 412.454ZM602.862 370.422H582.149C583.598 363.758 587.178 360.427 592.889 360.427C598.686 360.427 602.01 363.758 602.862 370.422ZM656.563 411.429V317.113H633.421V411.429H656.563Z" fill="#202842"/>
<defs>
<filter id="filter0_d" x="30.7813" y="248.532" width="939.192" height="400.263" filterUnits="userSpaceOnUse" color-interpolation-filters="sRGB">
<feFlood flood-opacity="0" result="BackgroundImageFix"/>
<feColorMatrix in="SourceAlpha" type="matrix" values="0 0 0 0 0 0 0 0 0 0 0 0 0 0 0 0 0 0 127 0"/>
<feOffset dy="29.7054"/>
<feGaussianBlur stdDeviation="18.5658"/>
<feColorMatrix type="matrix" values="0 0 0 0 0.809003 0 0 0 0 0.809003 0 0 0 0 0.914459 0 0 0 1 0"/>
<feBlend mode="normal" in2="BackgroundImageFix" result="effect1_dropShadow"/>
<feBlend mode="normal" in="SourceGraphic" in2="effect1_dropShadow" result="shape"/>
</filter>
<linearGradient id="paint0_linear" x1="0" y1="558.471" x2="1000" y2="558.471" gradientUnits="userSpaceOnUse">
<stop stop-color="#F0F0F8"/>
<stop offset="1" stop-color="#DDDDEE"/>
</linearGradient>
</defs>
</svg>
