<svg width="1000" height="1000" viewBox="0 0 1000 1000" fill="none" xmlns="http://www.w3.org/2000/svg">
<path fill-rule="evenodd" clip-rule="evenodd" d="M6.07482 476.297C192.136 379.393 356.021 330.941 497.73 330.941C639.275 330.941 804.647 379.281 993.847 475.962C999.396 478.797 1001.6 485.596 998.763 491.148C998.694 491.283 998.622 491.417 998.548 491.55L960.322 559.518L994.509 654.594C996.618 660.46 993.575 666.926 987.712 669.036C984.773 670.094 981.526 669.885 978.747 668.459C800.615 577.091 642.63 531.407 504.79 531.407C366.234 531.407 204.613 577.568 19.9277 669.888C14.3539 672.674 7.57803 670.412 4.79333 664.835C3.50663 662.259 3.2532 659.287 4.08493 656.529L33.3441 559.518L1.0815 491.127C-1.50497 485.644 0.699687 479.096 6.07482 476.297Z" fill="url(#paint0_linear)"/>
<path opacity="0.9" fill-rule="evenodd" clip-rule="evenodd" d="M932.118 580.212C783.065 555.128 637.03 542.586 494.013 542.586C350.995 542.586 209.974 555.128 70.9497 580.212L84.1117 525.654L482.731 401.489L845.625 478.622L932.118 580.212Z" fill="#D4D4E9"/>
<mask id="mask0" mask-type="alpha" maskUnits="userSpaceOnUse" x="139" y="97" width="724" height="805">
<path d="M546.291 109.413L817.536 265.395C845.546 281.503 862.815 311.362 862.815 343.687V654.946C862.815 687.271 845.546 717.13 817.536 733.238L546.291 889.22C518.444 905.234 484.19 905.234 456.343 889.22L185.098 733.238C157.088 717.13 139.819 687.271 139.819 654.946V343.687C139.819 311.362 157.088 281.503 185.098 265.395L456.343 109.413C484.19 93.3992 518.444 93.3992 546.291 109.413Z" fill="white"/>
</mask>
<g mask="url(#mask0)">
<path d="M546.291 109.413L817.536 265.395C845.546 281.503 862.815 311.362 862.815 343.687V654.946C862.815 687.271 845.546 717.13 817.536 733.238L546.291 889.22C518.444 905.234 484.19 905.234 456.343 889.22L185.098 733.238C157.088 717.13 139.819 687.271 139.819 654.946V343.687C139.819 311.362 157.088 281.503 185.098 265.395L456.343 109.413C484.19 93.3992 518.444 93.3992 546.291 109.413Z" fill="#C3F881"/>
<path fill-rule="evenodd" clip-rule="evenodd" d="M121.5 708.141L367.817 576.45L520.119 661.108L548.324 937.659H356.535L121.5 708.141Z" fill="#ADE468"/>
<path fill-rule="evenodd" clip-rule="evenodd" d="M130.902 284.849L320.81 390.201L321.75 606.55L113.979 728.835L83.8948 337.525L130.902 284.849Z" fill="#BDEF7E"/>
</g>
<mask id="mask1" mask-type="alpha" maskUnits="userSpaceOnUse" x="497" y="97" width="366" height="804">
<path d="M497.556 98.6004C525.76 98.6004 518.444 93.3992 546.291 109.413L817.535 265.395C845.546 281.503 862.815 311.362 862.815 343.687V654.946C862.815 687.271 845.546 717.13 817.535 733.238L546.291 889.22C518.444 905.234 527.641 900.033 497.556 900.033" fill="white"/>
</mask>
<g mask="url(#mask1)">
<path d="M497.556 98.6004C525.76 98.6004 518.444 93.3992 546.291 109.413L817.535 265.395C845.546 281.503 862.815 311.362 862.815 343.687V654.946C862.815 687.271 845.546 717.13 817.535 733.238L546.291 889.22C518.444 905.234 527.641 900.033 497.556 900.033" fill="#87C638"/>
<path fill-rule="evenodd" clip-rule="evenodd" d="M704.387 606.55L918.739 753.291L486.274 937.658L476.873 713.784L704.387 606.55Z" fill="#7FC02D"/>
<path fill-rule="evenodd" clip-rule="evenodd" d="M698.746 393.964L888.654 279.205L488.155 57.2117L482.514 279.205L698.746 393.964Z" fill="#96CF4E"/>
</g>
<path fill-rule="evenodd" clip-rule="evenodd" d="M529.364 261.425L694.414 356.067C711.955 366.125 722.774 384.806 722.774 405.034V593.599C722.774 613.827 711.955 632.508 694.414 642.566L529.364 737.208C511.991 747.17 490.641 747.17 473.268 737.208L308.218 642.566C290.677 632.508 279.858 613.827 279.858 593.599V405.034C279.858 384.806 290.677 366.125 308.218 356.067L473.268 261.425C490.641 251.463 511.991 251.463 529.364 261.425Z" fill="#D3FAA1"/>
<path d="M532.244 629.126V610.065H512.554V538.041H498.489L470.36 554.032V574.629L488.644 564.139V610.065H469.082V629.126H532.244Z" fill="#202842"/>
<mask id="mask2" mask-type="alpha" maskUnits="userSpaceOnUse" x="67" y="255" width="866" height="327">
<path d="M71.507 384.119C211.251 298.499 352.734 255.689 495.956 255.689C639.189 255.689 783.582 298.505 929.133 384.139C931.431 385.491 932.842 387.958 932.842 390.626V573.445C932.842 577.601 929.475 580.97 925.321 580.97C923.964 580.97 922.632 580.603 921.466 579.907C783.342 497.406 643.863 456.155 503.031 456.155C362.084 456.155 220.815 497.473 79.2242 580.108C75.6362 582.202 71.0309 580.989 68.938 577.4C68.2671 576.249 67.9136 574.94 67.9136 573.608V390.536C67.9135 387.917 69.2746 385.486 71.507 384.119Z" fill="white"/>
</mask>
<g mask="url(#mask2)">
<g filter="url(#filter0_d)">
<path d="M71.507 384.119C211.251 298.499 352.734 255.689 495.956 255.689C639.189 255.689 783.582 298.505 929.133 384.139C931.431 385.491 932.842 387.958 932.842 390.626V573.445C932.842 577.601 929.475 580.97 925.321 580.97C923.964 580.97 922.632 580.603 921.466 579.907C783.342 497.406 643.863 456.155 503.031 456.155C362.084 456.155 220.815 497.473 79.2242 580.108C75.6362 582.202 71.0309 580.989 68.938 577.4C68.2671 576.249 67.9136 574.94 67.9136 573.608V390.536C67.9135 387.917 69.2746 385.486 71.507 384.119Z" fill="black"/>
</g>
<path d="M71.507 384.119C211.251 298.499 352.734 255.689 495.956 255.689C639.189 255.689 783.582 298.505 929.133 384.139C931.431 385.491 932.842 387.958 932.842 390.626V573.445C932.842 577.601 929.475 580.97 925.321 580.97C923.964 580.97 922.632 580.603 921.466 579.907C783.342 497.406 643.863 456.155 503.031 456.155C362.084 456.155 220.815 497.473 79.2242 580.108C75.6362 582.202 71.0309 580.989 68.938 577.4C68.2671 576.249 67.9136 574.94 67.9136 573.608V390.536C67.9135 387.917 69.2746 385.486 71.507 384.119Z" fill="#F8F8FB"/>
<path fill-rule="evenodd" clip-rule="evenodd" d="M499.654 226.528V495.554L960.322 606.55V365.744C865.335 308.617 792.005 272.246 740.329 256.629C688.654 241.013 608.429 230.979 499.654 226.528Z" fill="#F1F1F8"/>
</g>
<path d="M410.306 410.896V391.45H371.821V319.811H347.783V410.896H410.306ZM453.778 411.919C458.381 411.919 462.984 411.237 467.587 409.872C472.19 408.507 476.111 406.631 479.35 404.243L473.469 388.892C470.826 390.768 467.885 392.239 464.646 393.305C461.407 394.371 458.168 394.904 454.929 394.904C450.156 394.904 446.533 393.796 444.061 391.578C441.589 389.361 440.14 385.736 439.714 380.704H480.501V377.634C480.501 370.897 479.265 364.991 476.793 359.916C474.321 354.842 470.784 350.94 466.181 348.211C461.578 345.482 456.208 344.117 450.07 344.117C443.763 344.117 438.158 345.567 433.257 348.467C428.356 351.366 424.52 355.396 421.75 360.556C418.979 365.716 417.594 371.579 417.594 378.146C417.594 385.054 419.043 391.045 421.941 396.12C424.84 401.194 429.016 405.096 434.472 407.825C439.927 410.554 446.363 411.919 453.778 411.919ZM460.683 369.958H439.97C441.419 363.306 444.999 359.98 450.71 359.98C456.506 359.98 459.83 363.306 460.683 369.958ZM529.471 410.896L558.367 346.036H535.608L520.521 383.391L505.945 346.036H481.907L510.42 410.896H529.471ZM595.958 411.919C600.561 411.919 605.163 411.237 609.766 409.872C614.369 408.507 618.29 406.631 621.529 404.243L615.648 388.892C613.006 390.768 610.065 392.239 606.826 393.305C603.587 394.371 600.347 394.904 597.108 394.904C592.335 394.904 588.712 393.796 586.24 391.578C583.768 389.361 582.319 385.736 581.893 380.704H622.68V377.634C622.68 370.897 621.444 364.991 618.972 359.916C616.5 354.842 612.963 350.94 608.36 348.211C603.757 345.482 598.387 344.117 592.25 344.117C585.942 344.117 580.337 345.567 575.436 348.467C570.535 351.366 566.699 355.396 563.929 360.556C561.159 365.716 559.774 371.579 559.774 378.146C559.774 385.054 561.223 391.045 564.121 396.12C567.019 401.194 571.196 405.096 576.651 407.825C582.106 410.554 588.542 411.919 595.958 411.919ZM602.862 369.958H582.149C583.598 363.306 587.178 359.98 592.889 359.98C598.685 359.98 602.01 363.306 602.862 369.958ZM656.563 410.896V316.74H633.42V410.896H656.563Z" fill="#202842"/>
<defs>
<filter id="filter0_d" x="3.04344" y="242.715" width="994.669" height="455.186" filterUnits="userSpaceOnUse" color-interpolation-filters="sRGB">
<feFlood flood-opacity="0" result="BackgroundImageFix"/>
<feColorMatrix in="SourceAlpha" type="matrix" values="0 0 0 0 0 0 0 0 0 0 0 0 0 0 0 0 0 0 127 0"/>
<feOffset dy="51.8961"/>
<feGaussianBlur stdDeviation="32.4351"/>
<feColorMatrix type="matrix" values="0 0 0 0 0.809003 0 0 0 0 0.809003 0 0 0 0 0.914459 0 0 0 1 0"/>
<feBlend mode="normal" in2="BackgroundImageFix" result="effect1_dropShadow"/>
<feBlend mode="normal" in="SourceGraphic" in2="effect1_dropShadow" result="shape"/>
</filter>
<linearGradient id="paint0_linear" x1="0" y1="557.688" x2="1000" y2="557.688" gradientUnits="userSpaceOnUse">
<stop stop-color="#F0F0F8"/>
<stop offset="1" stop-color="#DDDDEE"/>
</linearGradient>
</defs>
</svg>
