<svg xmlns="http://www.w3.org/2000/svg" xmlns:xlink="http://www.w3.org/1999/xlink" viewBox="0 0 215 614"><defs><clipPath id="clip-path" transform="translate(10.08 4.28)"><path d="M149.08,220.91H48.76V77.7A22.4,22.4,0,0,1,56.28,61l63.56-56.5A17.57,17.57,0,0,1,149.08,17.6Z" style="fill:#a361ff"/></clipPath><clipPath id="clip-path-2" transform="translate(10.08 4.28)"><rect x="23.69" y="166.57" width="150.47" height="242.43" rx="18.04" style="fill:#c9c9f4"/></clipPath><clipPath id="clip-path-3" transform="translate(10.08 4.28)"><rect y="363.02" width="197.84" height="242.43" rx="18.04" style="fill:#7900ff"/></clipPath></defs><g id="Layer_2" data-name="Layer 2"><g id="lipstick"><g id="Layer_4" data-name="Layer 4"><path d="M149.08,220.91H48.76V77.7A22.4,22.4,0,0,1,56.28,61l63.56-56.5A17.57,17.57,0,0,1,149.08,17.6Z" transform="translate(10.08 4.28)" style="fill:#a361ff"/><g style="clip-path:url(#clip-path)"><path d="M121.92-4.28s26,187.44-98,154l33.2,48.89,117-7L148.92-3.28Z" transform="translate(10.08 4.28)" style="fill:#7900ff"/></g><rect x="33.76" y="170.85" width="150.47" height="242.43" rx="18.04" style="fill:#c9c9f4"/><g style="clip-path:url(#clip-path-2)"><path d="M133.75,154S164.4,350.48,12.54,351.87l1.39,34.83,174.16-5.57L186.7,156.82Z" transform="translate(10.08 4.28)" style="fill:#b9b9ea"/></g><rect x="10.08" y="367.3" width="197.84" height="242.43" rx="18.04" style="fill:#7900ff"/><g style="clip-path:url(#clip-path-3)"><path d="M156,343.51S160.22,549.72,126.79,565-10.08,580.72-10.08,580.72l10,27,198,2,7-48-1-209Z" transform="translate(10.08 4.28)" style="fill:#4a00bf;opacity:0.7000000000000001"/></g></g></g></g></svg>