<svg xmlns="http://www.w3.org/2000/svg" xmlns:xlink="http://www.w3.org/1999/xlink" viewBox="0 0 651.79 828.8"><defs><clipPath id="clip-path" transform="translate(33.59 45.15)"><path d="M30.69,757.42s-40.82-430-28.3-560.36S141.11-31.37,264.19,9.31,391.44,329.53,396.66,342.05s87.61-88.66,152.28-66.76-130.21,225-162.71,316c-5.22,14.61-5.08,166.09-5.08,166.09Z" style="fill:#2bbf11"/></clipPath><clipPath id="clip-path-2" transform="translate(33.59 45.15)"><path d="M-9.47,670.94s211.81-47.61,420.71,0l-19.43,103L24.54,770.05Z" style="fill:#62e03f"/></clipPath></defs><g id="Layer_2" data-name="Layer 2"><g id="mitten"><g id="Layer_4" data-name="Layer 4"><path d="M30.69,757.42s-40.82-430-28.3-560.36S141.11-31.37,264.19,9.31,391.44,329.53,396.66,342.05s87.61-88.66,152.28-66.76-130.21,225-162.71,316c-5.22,14.61-5.08,166.09-5.08,166.09Z" transform="translate(33.59 45.15)" style="fill:#2bbf11"/><g style="clip-path:url(#clip-path)"><path d="M-29.88,202.62s165.18-94.25,456.67-24.29" transform="translate(33.59 45.15)" style="fill:none;stroke:#ffd522;stroke-miterlimit:10;stroke-width:15px"/><path d="M-29.88,148.21S135.3,54,426.79,123.92" transform="translate(33.59 45.15)" style="fill:none;stroke:#ffd522;stroke-miterlimit:10;stroke-width:15px"/><path d="M-9.47,670.94s211.81-47.61,420.71,0l-19.43,103L24.54,770.05Z" transform="translate(33.59 45.15)" style="fill:#62e03f"/><g style="clip-path:url(#clip-path-2)"><path d="M72,738.06c.31-9.73,1.11-19.34,1.14-29.09,0-9.25,1-19.09-.42-28.23-.74-4.83-7.49-3.06-7.92,1.07-.94,9.07.61,19,1.07,28.13.48,9.45,1.73,18.71,2.47,28.12a1.83,1.83,0,0,0,3.66,0Z" transform="translate(33.59 45.15)" style="fill:#62e03f"/><path d="M59.23,740.66c.55-2.5,1.67-4.71,2.12-7.23.38-2.17.69-4.37,1-6.56.68-5.44.78-11,1-16.43.22-5.15.6-10.3.74-15.46.12-4.75.31-9.78-3.23-13.34-1.34-1.35-4.14-1.63-5.43,0-3,3.79-2.74,7.7-2.38,12.37.41,5.16,1.11,10.29,1.43,15.46s.29,10.32.57,15.47c.15,2.57.43,5.15.67,7.72s1.18,5,1.5,7.73c.13,1.06,1.75,1.51,2,.27Z" transform="translate(33.59 45.15)" style="fill:#229e08"/><path d="M107.26,737.78c3-10.31,4.12-21.51,5.65-32.14.74-5.14.86-10.37,1.16-15.56.33-5.68,1-11.59-.37-17.18-1.53-6.34-9.73-5.2-11.75,0-1.94,5-2,10.91-2.38,16.21-.42,5.5-1,11-1,16.54.19,10.65-.15,21.58,1.42,32.13.57,3.85,6.28,3.27,7.23,0Z" transform="translate(33.59 45.15)" style="fill:#229e08"/><path d="M149.07,668.07c-5.85,23.14-6.51,47.18-5.28,71,.5,9.65,14.7,8.05,13.26-1.8-3.32-22.65-2.61-45.49-1.53-68.29.17-3.71-5.54-4.44-6.45-.87Z" transform="translate(33.59 45.15)" style="fill:#229e08"/><path d="M191.32,667.3c-.33,6.54-1.3,13.05-1.56,19.57s-.18,13.07-.07,19.58c.11,6.19.51,12.4.51,18.59,0,5.53-1.78,13.3,1.21,18.15a3,3,0,0,0,5.18,0c2.94-4.61,1.4-11.88,1.48-17.17.09-6.53.59-13,.81-19.57.21-6.2.22-12.4.24-18.6,0-6.83-1-13.71-1.24-20.55-.14-4.24-6.35-4.22-6.56,0Z" transform="translate(33.59 45.15)" style="fill:#229e08"/><path d="M233.62,667.65c-1.84,13.74-1.34,26.84-.11,40.61.57,6.38.89,12.73,1.2,19.12.18,3.5.38,7,.3,10.48-.06,2.8-.18,4.32,1.85,6.4a2.37,2.37,0,0,0,2.84.36c4.58-2.71,4-10.57,4.24-15.33.32-6.68-.58-13.44-1.29-20.07-1.47-13.8-2.77-27.69-3-41.57-.08-4-5.51-3.71-6,0Z" transform="translate(33.59 45.15)" style="fill:#229e08"/><path d="M274.39,666.91c-3.59,12.82-4.24,26.26-4.75,39.54-.25,6.58-.84,13.35-.37,19.93.23,3.33.74,6.63.85,10,.12,3.53-.3,6.16,1.86,9.11,1.95,2.64,5.36,2.75,7.29,0s1.69-4.86,1.73-8.11.37-6.64.69-10c.65-6.89.09-14,.06-20.92-.08-13.24.08-26.5-2.29-39.54-.48-2.65-4.41-2.36-5.07,0Z" transform="translate(33.59 45.15)" style="fill:#229e08"/><path d="M322,674.43c-.66,3.11-1.91,6.14-2.46,9.27a87.51,87.51,0,0,0-.72,8.74c-.43,6.2-.64,12.41-1.36,18.58a158.55,158.55,0,0,0-1.33,18.6c0,5.24-1.34,12.61,2.75,16.49a4,4,0,0,0,5.57,0c3.87-3.92,2.46-10.36,2.5-15.51,0-6.23-.39-12.39-.81-18.6-.4-5.87-.26-11.72-.1-17.61.08-3.21.48-6.56.32-9.77s-1-6.49-1.23-9.77c-.11-1.69-2.73-2.28-3.13-.42Z" transform="translate(33.59 45.15)" style="fill:#229e08"/><path d="M361.91,677.36c-1.31,5.42-2.89,10.79-3.57,16.33-.76,6.14-1,12.25-1.29,18.44a91.38,91.38,0,0,0,.44,16.54c.71,5-.35,11.32,3.32,15.2a3.22,3.22,0,0,0,5-.65c2.32-4.22.4-9.49,1-14.23.73-5.63,1.2-11.19,1.62-16.86.4-5.51.88-11,.85-16.5,0-5.88-1-11.67-1.7-17.49-.37-3-4.86-4.24-5.71-.78Z" transform="translate(33.59 45.15)" style="fill:#229e08"/></g><path d="M431.65,285.21s77.73,58.29,85.5,138.94" transform="translate(33.59 45.15)" style="fill:none;stroke:#ffd522;stroke-miterlimit:10;stroke-width:15px"/><path d="M463.71,253.14s77.73,58.3,85.5,139" transform="translate(33.59 45.15)" style="fill:none;stroke:#ffd522;stroke-miterlimit:10;stroke-width:15px"/><path d="M101.86,345.69l80-108a19.09,19.09,0,0,1,29.74-1.17l87.14,100a19.08,19.08,0,0,1,2.11,22.15L228.4,483.32a19.1,19.1,0,0,1-31.34,2.43L102.37,369.1A19.11,19.11,0,0,1,101.86,345.69Z" transform="translate(33.59 45.15)" style="fill:#239e09"/><path d="M154.32,354.23l42.5-65.52a2.33,2.33,0,0,1,3.68-.32l55.55,59.95a7.17,7.17,0,0,1,.92,8.5l-41.13,69.92a6.34,6.34,0,0,1-10.48.66l-50.73-65.71A6.45,6.45,0,0,1,154.32,354.23Z" transform="translate(33.59 45.15)" style="fill:none;stroke:#ffd522;stroke-miterlimit:10;stroke-width:15px"/><path d="M187.59,357.59l12.11-19.37a6.48,6.48,0,0,1,10.34-.87l14.45,16.25a6.49,6.49,0,0,1,.76,7.57l-12,20.66a4.8,4.8,0,0,1-7.54,1L188.5,365.61A6.49,6.49,0,0,1,187.59,357.59Z" transform="translate(33.59 45.15)" style="fill:#ffd522"/><path d="M-16.27,108.37S168.34,6.35,264.53,120,351,536.86,306.31,636.94C277.77,700.84.24,739,.24,739l6.81,44.69H413.19L419,602,618.2,271.6,504.52,231.77l-94.25,55.38L352-.45,184.85-45.15,21.62,29.67Z" transform="translate(33.59 45.15)" style="fill:#176800;opacity:0.5"/></g></g></g></g></svg>