<svg width="1000" height="1000" viewBox="0 0 1000 1000" fill="none" xmlns="http://www.w3.org/2000/svg">
<g clip-path="url(#clip0)">
<ellipse cx="503.247" cy="870.13" rx="379.87" ry="25.974" fill="#DBDBEE"/>
<mask id="mask0" mask-type="alpha" maskUnits="userSpaceOnUse" x="615" y="328" width="276" height="334">
<path d="M665.049 378.584L738.495 397.345C735.118 388.042 734.407 377.661 737.041 367.349C744.015 340.045 771.804 323.564 799.109 330.538C826.413 337.513 842.894 365.302 835.919 392.606C833.285 402.918 827.682 411.686 820.258 418.23L890.615 436.201L870.556 514.742C864.119 502.162 852.517 492.301 837.75 488.529C810.445 481.554 782.657 498.035 775.682 525.339C768.707 552.644 785.188 580.433 812.493 587.407C827.26 591.179 842.17 588.09 853.851 580.139L832.997 661.767L644.51 613.621C624.032 608.39 611.671 587.549 616.902 567.07L665.049 378.584Z" fill="white"/>
</mask>
<g mask="url(#mask0)">
<path d="M665.049 378.584L738.495 397.345C735.118 388.042 734.407 377.661 737.041 367.349C744.015 340.045 771.804 323.564 799.109 330.538C826.413 337.513 842.894 365.302 835.919 392.606C833.285 402.918 827.682 411.686 820.258 418.23L890.615 436.201L870.556 514.742C864.119 502.162 852.517 492.301 837.75 488.529C810.445 481.554 782.657 498.035 775.682 525.339C768.707 552.644 785.188 580.433 812.493 587.407C827.26 591.179 842.17 588.09 853.851 580.139L832.997 661.767L644.51 613.621C624.032 608.39 611.671 587.549 616.902 567.07L665.049 378.584Z" fill="#FFDC5A"/>
<path fill-rule="evenodd" clip-rule="evenodd" d="M833.971 332.367L671.862 704.512L993.156 653.406L963.081 311.688L833.971 332.367Z" fill="#FFC843"/>
</g>
<path d="M582.834 634.845L661.98 830.201C670.722 851.779 695.302 862.185 716.88 853.442L915.491 772.978L883.331 693.592C877.578 706.217 867.168 716.749 853.294 722.37C824.523 734.026 791.75 720.152 780.094 691.381C768.437 662.61 782.312 629.837 811.083 618.181C824.957 612.56 839.762 612.876 852.68 617.936L820.516 538.552L737.759 572.083C744.709 558.155 745.873 541.423 739.568 525.863C727.912 497.091 695.139 483.217 666.368 494.873C637.597 506.53 623.723 539.302 635.379 568.073C641.683 583.634 654.165 594.838 668.849 600.001L582.834 634.845Z" fill="#04BCCF"/>
<mask id="mask1" mask-type="alpha" maskUnits="userSpaceOnUse" x="499" y="435" width="469" height="482">
<path d="M582.834 634.845L661.98 830.201C670.722 851.779 695.302 862.185 716.88 853.442L915.491 772.978L883.331 693.592C877.578 706.217 867.168 716.749 853.294 722.37C824.523 734.026 791.75 720.152 780.094 691.381C768.437 662.61 782.312 629.837 811.083 618.181C824.957 612.56 839.762 612.876 852.68 617.936L820.516 538.552L737.759 572.083C744.709 558.155 745.873 541.423 739.568 525.863C727.912 497.091 695.139 483.217 666.368 494.873C637.597 506.53 623.723 539.302 635.379 568.073C641.683 583.634 654.165 594.838 668.849 600.001L582.834 634.845Z" fill="#04BCCF"/>
</mask>
<g mask="url(#mask1)">
<path fill-rule="evenodd" clip-rule="evenodd" d="M825.138 506.579L637.778 942.64L1015.42 777.924L825.138 506.579Z" fill="#00A9BA"/>
</g>
<mask id="mask2" mask-type="alpha" maskUnits="userSpaceOnUse" x="117" y="337" width="328" height="313">
<path d="M294.408 640.394C278.066 653.798 253.952 651.416 240.548 635.074L117.178 484.657L173.325 438.607C163.829 435.819 155.043 430.245 148.293 422.015C130.422 400.226 133.598 368.074 155.387 350.202C177.177 332.331 209.329 335.507 227.2 357.297C233.95 365.526 237.697 375.233 238.574 385.091L297.185 337.018L444.824 517.024L294.408 640.394Z" fill="white"/>
</mask>
<g mask="url(#mask2)">
<path d="M294.408 640.394C278.066 653.798 253.952 651.416 240.548 635.074L117.178 484.657L173.325 438.607C163.829 435.819 155.043 430.245 148.293 422.015C130.422 400.226 133.598 368.074 155.387 350.202C177.177 332.331 209.329 335.507 227.2 357.297C233.95 365.526 237.697 375.233 238.574 385.091L297.185 337.018L444.824 517.024L294.408 640.394Z" fill="#FF9F40"/>
<path fill-rule="evenodd" clip-rule="evenodd" d="M378.239 308.615L148.329 788.963L695.424 658.806L632.756 372.884L378.239 308.615Z" fill="#FE8A17"/>
</g>
<path d="M91.8759 774.421L124.267 697.103C113.545 699.294 102.073 698.395 91.2171 693.847C62.4732 681.805 48.9333 648.742 60.9749 619.998C73.0165 591.254 106.08 577.714 134.824 589.756C145.679 594.304 154.367 601.85 160.326 611.029L191.353 536.963L274.035 571.597C259.233 576.606 246.571 587.705 240.058 603.252C228.016 631.995 241.556 665.059 270.3 677.1C299.044 689.142 332.107 675.602 344.149 646.858C350.662 631.312 349.691 614.502 342.879 600.438L428.811 636.441L345.686 834.864C336.655 856.422 311.857 866.577 290.299 857.546L91.8759 774.421Z" fill="#5588FB"/>
<mask id="mask3" mask-type="alpha" maskUnits="userSpaceOnUse" x="10" y="502" width="419" height="372">
<path d="M91.877 774.422L124.269 697.103C113.546 699.294 102.074 698.395 91.2183 693.847C62.4743 681.806 48.9344 648.743 60.976 619.999C73.0177 591.255 106.081 577.715 134.825 589.756C145.681 594.304 154.368 601.85 160.327 611.03L191.355 536.964L274.036 571.598C259.234 576.607 246.572 587.706 240.059 603.252C228.017 631.996 241.557 665.059 270.301 677.101C299.045 689.143 332.108 675.603 344.15 646.859C350.663 631.312 349.692 614.503 342.88 600.439L428.812 636.441L345.687 834.865C336.656 856.423 311.858 866.578 290.301 857.547L91.877 774.422Z" fill="#5588FB"/>
</mask>
<g mask="url(#mask3)">
<path fill-rule="evenodd" clip-rule="evenodd" d="M367.074 583.595L119.983 950.789L478.93 852.838L458.937 558.527L367.074 583.595Z" fill="#267DE4"/>
</g>
<rect x="310.115" y="173.745" width="373.526" height="704.456" rx="11.4679" fill="white" stroke="#7D889A" stroke-width="9.82962"/>
<path fill-rule="evenodd" clip-rule="evenodd" d="M682.001 178.66L311.752 178.66L311.752 217.979L682.001 217.979L682.001 178.66ZM682.001 820.862L311.752 820.862L311.752 873.287L682.001 873.287L682.001 820.862Z" fill="#7D889A"/>
<circle cx="498.516" cy="195.043" r="9.82962" fill="#5F6E85"/>
<rect x="452.645" y="837.245" width="91.7431" height="29.4889" rx="14.7444" fill="#5F6E85"/>
<mask id="mask4" mask-type="alpha" maskUnits="userSpaceOnUse" x="305" y="168" width="384" height="716">
<rect x="310.116" y="173.745" width="373.526" height="704.456" rx="11.4679" fill="white" stroke="#7D889A" stroke-width="9.82962"/>
<path fill-rule="evenodd" clip-rule="evenodd" d="M682.003 178.66L311.754 178.66L311.754 217.979L682.003 217.979L682.003 178.66ZM682.003 820.862L311.754 820.862L311.754 873.287L682.003 873.287L682.003 820.862Z" fill="#7D889A"/>
<circle cx="498.517" cy="195.043" r="9.82962" fill="#5F6E85"/>
<rect x="452.647" y="837.245" width="91.7431" height="29.4889" rx="14.7444" fill="#5F6E85"/>
</mask>
<g mask="url(#mask4)">
<g style="mix-blend-mode:multiply">
<path d="M318.189 912.337C402.604 658.008 572.734 148.051 577.929 142.857L733.773 142.857L733.773 912.337L318.189 912.337Z" fill="#98A8FF" fill-opacity="0.1"/>
</g>
</g>
</g>
<defs>
<clipPath id="clip0">
<rect width="1000" height="1000" fill="white"/>
</clipPath>
</defs>
</svg>
