<svg xmlns="http://www.w3.org/2000/svg" xmlns:xlink="http://www.w3.org/1999/xlink" viewBox="0 0 1579.91 1967.6"><defs><clipPath id="clip-path" transform="translate(15.2 11.57)"><path d="M796.1,1583.55S820.82,1746,817.29,1777.8s-99.46-50.9-185.71,1.06,94.76,179.06,266.94,41.32c17.66-14.13-24.51-107-38.85-212.41Z" style="fill:none"/></clipPath><clipPath id="clip-path-2" transform="translate(15.2 11.57)"><path d="M1046.86,1594.14s17.65,180.12,0,197.78S895,1806.05,902.05,1908.47s240.16-67.1,250.76-84.76-42.38-141.27-42.38-272Z" style="fill:none"/></clipPath><clipPath id="clip-path-3" transform="translate(15.2 11.57)"><path d="M804.93,787.12S684.84,688.23,713.1,536.36l53-10.59S726.84,679.4,874.47,787.12c0,0-7.74,8.83-36,8.83S804.93,787.12,804.93,787.12Z" style="fill:none"/></clipPath><clipPath id="clip-path-4" transform="translate(15.2 11.57)"><circle cx="723.69" cy="462.19" r="121.85" style="fill:none"/></clipPath><clipPath id="clip-path-5" transform="translate(15.2 11.57)"><path d="M98.88,949c15.79-39.76,77.7-242.84,79-379.28s65.55-174.51,106.45-219S465.62,146.59,428.43,49.18,231.54,13.33,172.06,109.93,120.42,264,125.83,500,80.34,820.46,52.08,860.58-20.35,952,10.51,982.29,83,988.89,98.88,949Z" style="fill:none"/></clipPath><clipPath id="clip-path-6" transform="translate(15.2 11.57)"><path d="M417.13,87.29C417.84,121.23,389.94,221,308,294.4s-130.22,47.53-139.61-.32S208.54,106.89,306.48,53.92,416.18,43.64,417.13,87.29Z" style="fill:none"/></clipPath><clipPath id="clip-path-7" transform="translate(15.2 11.57)"><path d="M113.71,624.69c22.15-13.49,75.2-34.61,88.51-16.77s12.19,213.6-99.95,143.25C85.39,740.57,77.65,646.59,113.71,624.69Z" style="fill:none"/></clipPath><clipPath id="clip-path-8" transform="translate(15.2 11.57)"><path d="M563.1,1482.89C452.63,1352.21,443.41,900.14,701.2,787.12S1358.11,720,1404,1055.54s-153.46,575.69-402,579.22C760.21,1638.18,673.68,1613.57,563.1,1482.89Z" style="fill:none"/></clipPath><clipPath id="clip-path-9" transform="translate(15.2 11.57)"><path d="M1098.07,787.12s120.08-98.89,91.82-250.76l-53-10.59s39.24,153.63-108.43,261.35c0,0,7.77,8.83,36,8.83S1098.07,787.12,1098.07,787.12Z" style="fill:none"/></clipPath><clipPath id="clip-path-10" transform="translate(15.2 11.57)"><circle cx="1179.3" cy="462.19" r="121.85" style="fill:none"/></clipPath><clipPath id="clip-path-11" transform="translate(15.2 11.57)"><path d="M690.14,965.48s148.34,127.14,515.65,21.19c0,0-61.6,324.93-360.25,289.61C637.16,1251.55,690.14,965.48,690.14,965.48Z" style="fill:none"/></clipPath><clipPath id="clip-path-12" transform="translate(15.2 11.57)"><path d="M736.06,1251.55s60-67.1,84.76-67.1,53,106,53,106S757.25,1286.87,736.06,1251.55Z" style="fill:none"/></clipPath><clipPath id="clip-path-13" transform="translate(15.2 11.57)"><path d="M1004.47,1272.75s-17.66-84.77,7.07-102.43,113,35.32,113,35.32S1053.92,1276.28,1004.47,1272.75Z" style="fill:none"/></clipPath></defs><g id="Layer_2" data-name="Layer 2"><g id="monster-with-spoon"><g id="Layer_28" data-name="Layer 28"><path d="M796.1,1583.55S820.82,1746,817.29,1777.8s-99.46-50.9-185.71,1.06,94.76,179.06,266.94,41.32c17.66-14.13-24.51-107-38.85-212.41Z" transform="translate(15.2 11.57)" style="fill:#6a89ff"/><g style="clip-path:url(#clip-path)"><path d="M873.8,1650.65s2.26,121-4.17,143.5-94.72,61.35-154.77,26-116.55-14.13-120.08,0,63.58,63.57,63.58,63.57L747.92,1897,842,1883.75l69.89-43.83L926,1799.69Z" transform="translate(15.2 11.57)" style="fill:#426aff"/></g><path d="M1046.86,1594.14s17.65,180.12,0,197.78S895,1806.05,902.05,1908.47s240.16-67.1,250.76-84.76-42.38-141.27-42.38-272Z" transform="translate(15.2 11.57)" style="fill:#6a89ff"/><g style="clip-path:url(#clip-path-2)"><path d="M895,1866.09s31.78,35.32,67.1,31.79c27.51-2.76,151.87-60,162.47-77.7s-14.13-141.28,10.59-158.93,45.91,123.61,45.91,123.61l-21.19,77.7-147.52,81s-39.66,17.94-75,10.88S887.92,1908.47,895,1866.09Z" transform="translate(15.2 11.57)" style="fill:#426aff"/></g><path d="M804.93,787.12S684.84,688.23,713.1,536.36l53-10.59S726.84,679.4,874.47,787.12c0,0-7.74,8.83-36,8.83S804.93,787.12,804.93,787.12Z" transform="translate(15.2 11.57)" style="fill:#6a89ff"/><g style="clip-path:url(#clip-path-3)"><path d="M693.67,598.17s31.79,7.06,45.92,24.72,24.72,116.55,88.29,137.74,3.53-49.44,3.53-49.44S789,668.8,782,615.83s-26.28-83.07-26.28-83.07L676,562.85Z" transform="translate(15.2 11.57)" style="fill:#426aff"/></g><circle cx="738.89" cy="473.76" r="121.85" style="fill:#6989ff"/><g style="clip-path:url(#clip-path-4)"><path d="M612.44,372.13s127.15-21.19,180.12,35.32-42.38,211.91-166,137.74h0L654.82,584l42.39,14.13L792.56,584l45.92-53,24.72-60-17.66-84.76L782,322.69l-88.3,3.53Z" transform="translate(15.2 11.57)" style="fill:#426aff"/></g><g id="hand"><path d="M603.54,1071.11s-288.41,45.64-482.69-359.5" transform="translate(15.2 11.57)" style="fill:none;stroke:#3d3c3f;stroke-miterlimit:10;stroke-width:31.7863628811807px"/><path d="M98.88,949c15.79-39.76,77.7-242.84,79-379.28s65.55-174.51,106.45-219S465.62,146.59,428.43,49.18,231.54,13.33,172.06,109.93,120.42,264,125.83,500,80.34,820.46,52.08,860.58-20.35,952,10.51,982.29,83,988.89,98.88,949Z" transform="translate(15.2 11.57)" style="fill:#e68d00"/><g style="clip-path:url(#clip-path-5)"><path d="M439.42,63.45S416.67-24.84,291.58,47.24,130.21,246.33,136.67,384.53,177,741.45,2.46,995.14L-15.2,934.33,87.23,739.19l13.88-232.85L95.7,305,132.57,124.9l73.36-71.83L304.82-1.39,391.6-11.57,443.23,41Z" transform="translate(15.2 11.57)" style="fill:#b86800"/></g><path d="M417.13,87.29C417.84,121.23,389.94,221,308,294.4s-130.22,47.53-139.61-.32S208.54,106.89,306.48,53.92,416.18,43.64,417.13,87.29Z" transform="translate(15.2 11.57)" style="fill:#ffb94d"/><g style="clip-path:url(#clip-path-6)"><path d="M253.4,73.06s87.06-27.76,71.27,96.56-106.17,183.93-141,173.73,38.85,50,38.85,50L360.69,289.7l80.42-143.85L428.54-6.9l-102-3.53Z" transform="translate(15.2 11.57)" style="fill:#ffca78"/></g><path d="M137.41,627.87s37.83-60.32,17.48-77.7-35.31,2.9-37.64,31.5-15.33,72.23-15.33,72.23Z" transform="translate(15.2 11.57)" style="fill:#3d3c3f"/><path d="M113.71,624.69c22.15-13.49,75.2-34.61,88.51-16.77s12.19,213.6-99.95,143.25C85.39,740.57,77.65,646.59,113.71,624.69Z" transform="translate(15.2 11.57)" style="fill:#3d3c3f"/><g style="clip-path:url(#clip-path-7)"><path d="M124,616.67S83.8,778.5,202.5,726.16l-24.72,44.61-52.27-2.62L78.15,738.77,94.71,623.84,124,616.78" transform="translate(15.2 11.57)" style="fill:#252526"/></g></g><path d="M563.1,1482.89C452.63,1352.21,443.41,900.14,701.2,787.12S1358.11,720,1404,1055.54s-153.46,575.69-402,579.22C760.21,1638.18,673.68,1613.57,563.1,1482.89Z" transform="translate(15.2 11.57)" style="fill:#6989ff"/><g style="clip-path:url(#clip-path-8)"><path d="M845.54,725.31s346.12,7.07,430.88,240.17c43.27,119-18.15,783.81-688.7,586.28L708.79,1635s182.67,54.46,278,47.4,322.42-119.45,362.51-146.26,82.5-185.73,93.1-238.71,24.72-226,10.59-300.21-91.82-215.44-176.59-229.56-309.35-64.07-309.35-64.07Z" transform="translate(15.2 11.57)" style="fill:#426aff"/><path d="M1008,1502.31c6.49-13,17.65-53,38.85-49.44s35.31,24.72,21.19,38.85S1000.94,1516.44,1008,1502.31Z" transform="translate(15.2 11.57)" style="fill:#426aff"/><path d="M1099.83,1449.34c-1.55-7.74,21.19-21.19,28.26-17.66S1103.36,1467,1099.83,1449.34Z" transform="translate(15.2 11.57)" style="fill:#426aff"/><path d="M1241.11,1209.17c0-11.16,0-35.32,10.59-35.32s0,35.32-3.53,45.92S1241.11,1216.24,1241.11,1209.17Z" transform="translate(15.2 11.57)" style="fill:#426aff"/><path d="M1255.23,1149.13c-4.73-1.59,0-38.85,10.6-28.25S1265.83,1152.66,1255.23,1149.13Z" transform="translate(15.2 11.57)" style="fill:#426aff"/><path d="M958.56,1555.29c-12.64-6.32-17.66-24.72,3.53-28.25s31.79,7.06,28.26,17.66S965.62,1558.82,958.56,1555.29Z" transform="translate(15.2 11.57)" style="fill:#426aff"/><path d="M972.69,1505.85c-4.74-1.59,7.06-14.13,14.12-10.6S983.28,1509.38,972.69,1505.85Z" transform="translate(15.2 11.57)" style="fill:#426aff"/></g><path d="M1340,1089.09s220,169.18,208.37,257.82c-22.95,174.83-206.61,83-206.61,83" transform="translate(15.2 11.57)" style="fill:none;stroke:#3d3c3f;stroke-miterlimit:10;stroke-width:31.7863628811807px"/><path d="M1098.07,787.12s120.08-98.89,91.82-250.76l-53-10.59s39.24,153.63-108.43,261.35c0,0,7.77,8.83,36,8.83S1098.07,787.12,1098.07,787.12Z" transform="translate(15.2 11.57)" style="fill:#6a89ff"/><g style="clip-path:url(#clip-path-9)"><path d="M1131.62,584s24.72,35.32,38.85,49.45-46.27,127.14-46.27,127.14l56.86-49.44,35.32-148.34-84.76-14.13Z" transform="translate(15.2 11.57)" style="fill:#426aff"/></g><circle cx="1194.5" cy="473.76" r="121.85" style="fill:#6989ff"/><g style="clip-path:url(#clip-path-10)"><path d="M1102.13,367.89s114.25-31.08,142.51,53.69-31.79,187.18-158.93,130.67L1121,584l48.46,17,54-2.89,49.44-31.4,42.38-67.49,3.54-70.64L1287,350.94l-91.83-31.79-84.76,21.2-8.3,27.54" transform="translate(15.2 11.57)" style="fill:#426aff"/></g><path d="M690.14,965.48s148.34,127.14,515.65,21.19c0,0-61.6,324.93-360.25,289.61C637.16,1251.55,690.14,965.48,690.14,965.48Z" transform="translate(15.2 11.57)" style="fill:#2e5aff"/><g style="clip-path:url(#clip-path-11)"><path d="M983.28,1007.86s-24.72,261.35-300.2,187.19c0,0,35.32,95.35,176.59,106s211.91-49.45,264.89-95.36,113-215.44,109.48-240.16S983.28,1007.86,983.28,1007.86Z" transform="translate(15.2 11.57)" style="fill:#1b49f5"/><path d="M743.12,986.67s31.79,91.83,56.51,91.83,67.1-63.58,67.1-63.58Z" transform="translate(15.2 11.57)" style="fill:#fff"/><path d="M1022.13,1011.39s31.79,56.51,63.58,60,35.31-77.7,35.31-77.7Z" transform="translate(15.2 11.57)" style="fill:#fff"/><path d="M736.06,1251.55s60-67.1,84.76-67.1,53,106,53,106S757.25,1286.87,736.06,1251.55Z" transform="translate(15.2 11.57)" style="fill:#fff"/><g style="clip-path:url(#clip-path-12)"><path d="M757.25,1223.3s56.51,42.38,116.55,38.85l7.06,28.25-60-4.94-63.57-26.84-24.73-24.72Z" transform="translate(15.2 11.57)" style="fill:#dee4ff"/></g><path d="M1004.47,1272.75s-17.66-84.77,7.07-102.43,113,35.32,113,35.32S1053.92,1276.28,1004.47,1272.75Z" transform="translate(15.2 11.57)" style="fill:#fff"/><g style="clip-path:url(#clip-path-13)"><path d="M1096.3,1177.39s-70.64,63.57-105.95,67.1l3.53,28.26,45.91-17.66,53-38.85L1114,1188Z" transform="translate(15.2 11.57)" style="fill:#dee4ff"/></g></g><ellipse cx="1185.67" cy="463.16" rx="81.23" ry="79.47" style="fill:#fff"/><ellipse cx="737.13" cy="463.16" rx="81.23" ry="79.47" style="fill:#fff"/><ellipse cx="737.13" cy="439.43" rx="17.66" ry="25.5" style="fill:#3d3c3f"/><ellipse cx="1189.2" cy="429.01" rx="17.66" ry="25.5" style="fill:#3d3c3f"/></g></g></g></svg>