<svg xmlns="http://www.w3.org/2000/svg" xmlns:xlink="http://www.w3.org/1999/xlink" viewBox="0 0 1581.79 1961.22"><defs><clipPath id="clip-path" transform="translate(7.04 14.49)"><path d="M499.41,633.56s123.22-50.5,242.41.06S868.19,747.15,868.19,747.15s14.5-5.17,21.72-12.4,7.22-36.12,7.22-39.73-57.79-86.68-169.75-108.35-211.1,3.3-221.13,10.68S484.54,629.9,499.41,633.56Z" style="fill:#4ac200"/></clipPath><clipPath id="clip-path-2" transform="translate(7.04 14.49)"><path d="M826.76,1462.05s174.15-31.4,187.2-170.07-42.41-323.83,143.57-402.13,333.61,93,358.9,167.21,9,146-44,182.72-106.85-36.71-140.3-33.45-78.3,27.74-89.72,130.51S1094.72,1686,862.25,1651.7Z" style="fill:#bfbfbf"/></clipPath><clipPath id="clip-path-3" transform="translate(7.04 14.49)"><path d="M970.32,1357.64s152.54-85.64,181.9,190.88l-35.07,40s27.73-229.21-192.5-190.06Z" style="fill:#5c5c5c"/></clipPath><clipPath id="clip-path-4" transform="translate(7.04 14.49)"><path d="M997.24,1063.18s121.54-59.55,180.27,0,87.28,125.62,89.73,219.42l-22,85.65s-40.78-167.22-132.14-183.53-126.43,72.59-126.43,72.59Z" style="fill:#5c5c5c"/></clipPath><clipPath id="clip-path-5" transform="translate(7.04 14.49)"><path d="M1160.38,873.94s182.72-3.26,213.71,115.83-68.52,234.92-68.52,234.92h25.29s96.25-23.66,129.7-117.46-28.55-199-28.55-199l-110.12-45.68-76.68-11.42-53.83,13Z" style="fill:#5c5c5c"/></clipPath><clipPath id="clip-path-6" transform="translate(7.04 14.49)"><path d="M516,646.36s-53.83-270.81,19.58-451.08c0,0,78.31-44,94.62-44,0,0-109.3,301-55.47,434.76Z" style="fill:#368a00"/></clipPath><clipPath id="clip-path-7" transform="translate(7.04 14.49)"><path d="M721.54,151.24s51.73-23.35,105.57-17.64L764.77,510.14l-115,11.42L639.15,365Z" style="fill:#368a00"/></clipPath><clipPath id="clip-path-8" transform="translate(7.04 14.49)"><path d="M861,737.72s439.66-226.76,713.73-195L1470.34,399.21S979.3,471,841.45,592.53Z" style="fill:#328000"/></clipPath><clipPath id="clip-path-9" transform="translate(7.04 14.49)"><path d="M826.76,623.52s156.62-131.32,686-208l-82.39-114.2S1121.23,313.56,826.76,533.8Z" style="fill:#368a00"/></clipPath><clipPath id="clip-path-10" transform="translate(7.04 14.49)"><path d="M804.87,521.56S1270.18,240.2,1343.6,249.17s72.09,77.44,72.09,77.44L804.74,568.87Z" style="fill:#307a00"/></clipPath><clipPath id="clip-path-11" transform="translate(7.04 14.49)"><path d="M841.55,487.55s422.59-223.93,632.07-195c0,0-100-148.82-243.24-32.87,0,0-117.94-32.15-136,22,0,0-103.57-3.22-87.9,83.27,0,0-75.07-3.57-87.49,43.27C919,408.22,834.33,437,841.55,487.55Z" style="fill:#ffbc21"/></clipPath><clipPath id="clip-path-12" transform="translate(7.04 14.49)"><path d="M784.11,464.07S718,154.94,607.15,94.33c0,0,128.19-60.46,128.28,70.83,0,0,71.24,23.61,49.19,66.36,0,0,48.62,37.29-6.69,88.59,0,0,35.92,26.22,15.42,61.95C793.35,382.06,815.57,433.34,784.11,464.07Z" style="fill:#ffbc21"/></clipPath><clipPath id="clip-path-13" transform="translate(7.04 14.49)"><path d="M815.92,344.59s36.13-234.14,98.94-301.84-73.41,314-73.41,314Z" style="fill:#4ac200"/></clipPath><clipPath id="clip-path-14" transform="translate(7.04 14.49)"><path d="M836,339.83S1025.79,26.44,1068.21,1.15,850.42,376.37,850.42,376.37Z" style="fill:#4ac200"/></clipPath><clipPath id="clip-path-15" transform="translate(7.04 14.49)"><path d="M865.92,336.4s150.08-230,217.79-261.84S873.26,365,873.26,365Z" style="fill:#4ac200"/></clipPath><clipPath id="clip-path-16" transform="translate(7.04 14.49)"><path d="M879.78,345.37s250.42-223.5,328.73-242.26S900.17,365,900.17,365Z" style="fill:#4ac200"/></clipPath><clipPath id="clip-path-17" transform="translate(7.04 14.49)"><path d="M887.12,365s333.62-206.37,428.24-207.19S887.12,385.34,887.12,385.34Z" style="fill:#4ac200"/></clipPath><clipPath id="clip-path-18" transform="translate(7.04 14.49)"><path d="M667.7,1688s13,99.51,76.68,213.71c0,0-130.51-15.5-150.09,9.79s7.34,26.92,48.13,25.29,143.56.81,143.56.81-76.68-168-56.28-243.07Z" style="fill:#bfbfbf"/></clipPath><clipPath id="clip-path-19" transform="translate(7.04 14.49)"><path d="M894.47,1670.87s164,164,177.82,204.74,150.08,38.34,177,44.05,22-28.55-25.29-35.08-116.64-16.31-116.64-16.31-102.78-183.53-182.71-226Z" style="fill:#bfbfbf"/></clipPath><clipPath id="clip-path-20" transform="translate(7.04 14.49)"><path d="M730.51,489.75s65.26-156.29,96.25-173.58S914,286.64,927.91,294.8s15.5,71,12.23,84-135.4,164-135.4,164Z" style="fill:#ed6e05"/></clipPath><clipPath id="clip-path-21" transform="translate(7.04 14.49)"><path d="M358.56,1024.84S261.49,996.29,206,842.13,142.4,582.74,142.4,582.74l-22,14.68S140,842.13,215,961.22,352.85,1064,352.85,1064Z" style="fill:#bfbfbf"/></clipPath><clipPath id="clip-path-22" transform="translate(7.04 14.49)"><path d="M841.45,487.3c-53.31-30.24-206.37-74.23-364.62,186.79s-202.29,584-125.62,792.86,310,270,460.87,251.23S1008.66,1580.33,937.7,1467s-185.17-294.47-133-491.05S956.46,552.56,841.45,487.3Z" style="fill:#ccc"/></clipPath><clipPath id="clip-path-23" transform="translate(7.04 14.49)"><path d="M308,1262.21s30.18-128.88,146-128.88,323.83,357.27,353.2,429.87-5.71,193.32-168.85,158.24S286,1564.83,308,1262.21Z" style="fill:#f0f0f0"/></clipPath><clipPath id="clip-path-24" transform="translate(7.04 14.49)"><path d="M484.85,661.12s127.39-39.23,232.61-.08S858.71,791.52,858.71,791.52l28.41-8.12,36.71-154.17L910,512.59l-93.8-68.52-95.44-5.71-106,34.26-86.46,96.25-59.55,77.49Z" style="fill:#ffbc21"/></clipPath><clipPath id="clip-path-25" transform="translate(7.04 14.49)"><path d="M507,1045.23c-87.42-3.77-158.39-90.78-125.28-172.23s44.53,1.76,131,32.75,178.64-78.31,215.34-67.7S790.06,1057.47,507,1045.23Z" style="fill:#782900"/></clipPath><clipPath id="clip-path-26" transform="translate(7.04 14.49)"><path d="M791.69,1409.85s72.59,36.71,75,70.15-11.42,12.23-21.21,4.08-71-41.6-71-41.6Z" style="fill:#b8b8b8"/></clipPath><clipPath id="clip-path-27" transform="translate(7.04 14.49)"><path d="M769.66,1154.54c-28.68-18.25-61.17-43.23-43.23-75s30.18-32.62,83.2,22.84,92.18,91.36,84.84,152.54-119.91,187.61-119.91,187.61-17.13-2.45-13.87-12.24,95.44-133.77,103.59-156.61S859.39,1211.64,769.66,1154.54Z" style="fill:#bfbfbf"/></clipPath><clipPath id="clip-path-28" transform="translate(7.04 14.49)"><path d="M46.79,701.94C65.44,690.41,153,625.72,195.23,570s80.29-51.82,110.69-57.58,137-28.65,151.44-80.11S387.26,357.36,333.25,379,264.91,426.61,195,525.39,78.42,643.37,54.53,651.26-3.21,666.76.24,688.66,28.06,713.53,46.79,701.94Z" style="fill:#e68d00"/></clipPath><clipPath id="clip-path-29" transform="translate(7.04 14.49)"><path d="M441.09,444.47c-10.07,14.19-52,46.72-108.22,51.92s-68.13-20.22-57.37-42.79S349.22,388.83,405.7,397,454,426.22,441.09,444.47Z" style="fill:#ffb94d"/></clipPath><clipPath id="clip-path-30" transform="translate(7.04 14.49)"><path d="M144.59,542.79c15.4.39,48.68,6.87,49.6,20.05S131.7,673.43,98.28,602.29C93.25,591.58,119.56,542.15,144.59,542.79Z" style="fill:#ccc"/></clipPath><clipPath id="clip-path-31" transform="translate(7.04 14.49)"><path d="M501.62,635.58s123.22-50.51,242.41.06S870.4,749.17,870.4,749.17s14.5-5.18,21.72-12.4,7.22-36.12,7.22-39.73-57.79-86.68-169.75-108.35-211.1,3.3-221.13,10.67S486.75,631.91,501.62,635.58Z" style="fill:#4ac200"/></clipPath></defs><g id="Layer_2" data-name="Layer 2"><g id="monster-with-spoon-4"><path d="M499.41,633.56s123.22-50.5,242.41.06S868.19,747.15,868.19,747.15s14.5-5.17,21.72-12.4,7.22-36.12,7.22-39.73-57.79-86.68-169.75-108.35-211.1,3.3-221.13,10.68S484.54,629.9,499.41,633.56Z" transform="translate(7.04 14.49)" style="fill:#4ac200"/><g style="clip-path:url(#clip-path)"><path d="M788.78,597.5s1.88,45.83-94,28.52c-17.93-3.23,122.93,25.66,184.33,162.91,0,0,75.85-61.4,43.35-104.74S788.78,597.5,788.78,597.5Z" transform="translate(7.04 14.49)" style="fill:#3da100"/></g><path d="M826.76,1462.05s174.15-31.4,187.2-170.07-42.41-323.83,143.57-402.13,333.61,93,358.9,167.21,9,146-44,182.72-106.85-36.71-140.3-33.45-78.3,27.74-89.72,130.51S1094.72,1686,862.25,1651.7Z" transform="translate(7.04 14.49)" style="fill:#bfbfbf"/><g style="clip-path:url(#clip-path-2)"><path d="M899.34,1643.34s281.72-83.08,292.56-317.84S1415.83,870.41,1517,1184.63l-18.06,79.46-72.23,7.23-97.52-47-39.73,39.73L1238.88,1423l-61.43,130-67.23,63.21-104.55,38.69L867,1673.79Z" transform="translate(7.04 14.49)" style="fill:#a1a1a1"/><path d="M970.32,1357.64s152.54-85.64,181.9,190.88l-35.07,40s27.73-229.21-192.5-190.06Z" transform="translate(7.04 14.49)" style="fill:#5c5c5c"/><g style="clip-path:url(#clip-path-3)"><path d="M899.34,1643.34s281.72-83.08,292.56-317.84S1415.83,870.41,1517,1184.63l-18.06,79.46-72.23,7.23-97.52-47-39.73,39.73L1238.88,1423l-61.43,130-67.23,63.21-104.55,38.69L867,1673.79Z" transform="translate(7.04 14.49)" style="fill:#424242"/></g><path d="M997.24,1063.18s121.54-59.55,180.27,0,87.28,125.62,89.73,219.42l-22,85.65s-40.78-167.22-132.14-183.53-126.43,72.59-126.43,72.59Z" transform="translate(7.04 14.49)" style="fill:#5c5c5c"/><g style="clip-path:url(#clip-path-4)"><path d="M899.34,1643.34s281.72-83.08,292.56-317.84S1415.83,870.41,1517,1184.63l-18.06,79.46-72.23,7.23-97.52-47-39.73,39.73L1238.88,1423l-61.43,130-67.23,63.21-104.55,38.69L867,1673.79Z" transform="translate(7.04 14.49)" style="fill:#424242"/></g><path d="M1160.38,873.94s182.72-3.26,213.71,115.83-68.52,234.92-68.52,234.92h25.29s96.25-23.66,129.7-117.46-28.55-199-28.55-199l-110.12-45.68-76.68-11.42-53.83,13Z" transform="translate(7.04 14.49)" style="fill:#5c5c5c"/><g style="clip-path:url(#clip-path-5)"><path d="M899.34,1643.34s281.72-83.08,292.56-317.84S1415.83,870.41,1517,1184.63l-18.06,79.46-72.23,7.23-97.52-47-39.73,39.73L1238.88,1423l-61.43,130-67.23,63.21-104.55,38.69L867,1673.79Z" transform="translate(7.04 14.49)" style="fill:#424242"/></g></g><path d="M516,646.36s-53.83-270.81,19.58-451.08c0,0,78.31-44,94.62-44,0,0-109.3,301-55.47,434.76Z" transform="translate(7.04 14.49)" style="fill:#368a00"/><g style="clip-path:url(#clip-path-6)"><path d="M570.67,151.66s-93.91,332.28-32.51,458.7l25.28-28.9L541.77,462.27l97.52-310.61-3.61-18.06Z" transform="translate(7.04 14.49)" style="fill:#276300"/></g><path d="M721.54,151.24s51.73-23.35,105.57-17.64L764.77,510.14l-115,11.42L639.15,365Z" transform="translate(7.04 14.49)" style="fill:#368a00"/><g style="clip-path:url(#clip-path-7)"><path d="M816.27,115.54s-180.59,260-119.19,393.69l-50-5.56L642.44,396l87.15-294.86Z" transform="translate(7.04 14.49)" style="fill:#2a6b00"/></g><path d="M913.11,120.2s177.12,12.28,222,62.85l-308,261.16-39.73-14.44Z" transform="translate(7.04 14.49)" style="fill:#2d7300"/><path d="M591,197.73s117.46-74.23,152.53-77.49S671,313.56,667.7,415.52,671,544.4,671,544.4L551.23,610.14s-21.38-65.74-23-131.81S591,197.73,591,197.73Z" transform="translate(7.04 14.49)" style="fill:#2e7500"/><path d="M861,737.72s439.66-226.76,713.73-195L1470.34,399.21S979.3,471,841.45,592.53Z" transform="translate(7.04 14.49)" style="fill:#328000"/><g style="clip-path:url(#clip-path-8)"><path d="M874.06,610.36s350.35-169.76,675.41-130l-75.85-79.46-260,57.79-296.39,94.4-57.57,17.57Z" transform="translate(7.04 14.49)" style="fill:#276300"/></g><path d="M826.76,623.52s156.62-131.32,686-208l-82.39-114.2S1121.23,313.56,826.76,533.8Z" transform="translate(7.04 14.49)" style="fill:#368a00"/><g style="clip-path:url(#clip-path-9)"><path d="M1484.46,343.08S964.36,502,859.61,570.63L856,534.51s234.77-112,339.51-148.09,216.71-115.57,216.71-115.57Z" transform="translate(7.04 14.49)" style="fill:#286600"/></g><path d="M804.87,521.56S1270.18,240.2,1343.6,249.17s72.09,77.44,72.09,77.44L804.74,568.87Z" transform="translate(7.04 14.49)" style="fill:#307a00"/><g style="clip-path:url(#clip-path-10)"><path d="M841.12,521.56s260.48-185.7,646.95-211l-90.3-54.18-287.55,79.93L827.11,487.55Z" transform="translate(7.04 14.49)" style="fill:#2a6b00"/></g><polygon points="1098.9 185.3 1191.71 231.16 863.04 422.58 834.14 411.75 1098.9 185.3" style="fill:#368a00"/><path d="M841.55,487.55s422.59-223.93,632.07-195c0,0-100-148.82-243.24-32.87,0,0-117.94-32.15-136,22,0,0-103.57-3.22-87.9,83.27,0,0-75.07-3.57-87.49,43.27C919,408.22,834.33,437,841.55,487.55Z" transform="translate(7.04 14.49)" style="fill:#ffbc21"/><g style="clip-path:url(#clip-path-11)"><path d="M827.11,487.55s480.37-328.67,686.24-216.7l-32.5,39.73L1228,350.31,913.79,465.88l-87,43.81Z" transform="translate(7.04 14.49)" style="fill:#ff9421"/></g><path d="M784.11,464.07S718,154.94,607.15,94.33c0,0,128.19-60.46,128.28,70.83,0,0,71.24,23.61,49.19,66.36,0,0,48.62,37.29-6.69,88.59,0,0,35.92,26.22,15.42,61.95C793.35,382.06,815.57,433.34,784.11,464.07Z" transform="translate(7.04 14.49)" style="fill:#ffbc21"/><g style="clip-path:url(#clip-path-12)"><path d="M614,50.52S694.4,20,789.65,409.09l-38.39,9.84L679,205.83l-86.68-93.9Z" transform="translate(7.04 14.49)" style="fill:#ff9421"/></g><path d="M815.92,344.59s36.13-234.14,98.94-301.84-73.41,314-73.41,314Z" transform="translate(7.04 14.49)" style="fill:#4ac200"/><g style="clip-path:url(#clip-path-13)"><path d="M953.52,7.18S856,166.1,834.33,328.63H805.44l43.34-184.2L881.28,43.3Z" transform="translate(7.04 14.49)" style="fill:#63e810"/></g><path d="M836,339.83S1025.79,26.44,1068.21,1.15,850.42,376.37,850.42,376.37Z" transform="translate(7.04 14.49)" style="fill:#4ac200"/><g style="clip-path:url(#clip-path-14)"><polygon points="1094.19 0 872.95 338.02 855.14 334.55 864.21 286.74 1058.07 21.67 1094.19 0" style="fill:#63e810"/></g><path d="M865.92,336.4s150.08-230,217.79-261.84S873.26,365,873.26,365Z" transform="translate(7.04 14.49)" style="fill:#4ac200"/><g style="clip-path:url(#clip-path-15)"><path d="M848.78,375.59S1072.71,36.08,1141.33,50.52l-97.51,36.12L899.34,256.4,841.45,356.79Z" transform="translate(7.04 14.49)" style="fill:#63e810"/></g><path d="M879.78,345.37s250.42-223.5,328.73-242.26S900.17,365,900.17,365Z" transform="translate(7.04 14.49)" style="fill:#4ac200"/><g style="clip-path:url(#clip-path-16)"><path d="M893.52,347.11s280.32-238.8,345.33-253.24h-54.17l-75.85,46.95L881.28,346.69Z" transform="translate(7.04 14.49)" style="fill:#63e810"/></g><path d="M887.12,365s333.62-206.37,428.24-207.19S887.12,385.34,887.12,385.34Z" transform="translate(7.04 14.49)" style="fill:#4ac200"/><g style="clip-path:url(#clip-path-17)"><polygon points="888.32 390.08 1358.26 165.72 1235.05 180.59 1108.64 241.99 880.7 371.28 888.32 390.08" style="fill:#63e810"/></g><path d="M667.7,1688s13,99.51,76.68,213.71c0,0-130.51-15.5-150.09,9.79s7.34,26.92,48.13,25.29,143.56.81,143.56.81-76.68-168-56.28-243.07Z" transform="translate(7.04 14.49)" style="fill:#bfbfbf"/><g style="clip-path:url(#clip-path-18)"><path d="M657.35,1701.12s104.74,234.77,140.86,245.61l-50.56-133.64L729.59,1693.9Z" transform="translate(7.04 14.49)" style="fill:#a8a8a8"/></g><path d="M894.47,1670.87s164,164,177.82,204.74,150.08,38.34,177,44.05,22-28.55-25.29-35.08-116.64-16.31-116.64-16.31-102.78-183.53-182.71-226Z" transform="translate(7.04 14.49)" style="fill:#bfbfbf"/><g style="clip-path:url(#clip-path-19)"><path d="M895.73,1661.39s79.46,25.29,205.87,216.71c0,0,158.92,7.23,177,43.35l-28.89-43.35-137.25-21.67L1033,1733.63l-54.18-65-50.56-32.51Z" transform="translate(7.04 14.49)" style="fill:#a8a8a8"/></g><path d="M730.51,489.75s65.26-156.29,96.25-173.58S914,286.64,927.91,294.8s15.5,71,12.23,84-135.4,164-135.4,164Z" transform="translate(7.04 14.49)" style="fill:#ed6e05"/><g style="clip-path:url(#clip-path-20)"><path d="M834.33,310.58s61.4,10.83,68.62,36.11-75.84,140.86-75.84,140.86L848.78,502,953.52,379.2l-11.95-99.06-92.79,12.38Z" transform="translate(7.04 14.49)" style="fill:#ed4b05"/></g><path d="M358.56,1024.84S261.49,996.29,206,842.13,142.4,582.74,142.4,582.74l-22,14.68S140,842.13,215,961.22,352.85,1064,352.85,1064Z" transform="translate(7.04 14.49)" style="fill:#bfbfbf"/><g style="clip-path:url(#clip-path-21)"><path d="M119.19,686.2s72.24,332.29,231.16,343.13l-14.45,50.56-57.79-21.67-90.3-104.74-54.17-177Z" transform="translate(7.04 14.49)" style="fill:#adadad"/></g><path d="M841.45,487.3c-53.31-30.24-206.37-74.23-364.62,186.79s-202.29,584-125.62,792.86,310,270,460.87,251.23S1008.66,1580.33,937.7,1467s-185.17-294.47-133-491.05S956.46,552.56,841.45,487.3Z" transform="translate(7.04 14.49)" style="fill:#ccc"/><g style="clip-path:url(#clip-path-22)"><path d="M458.7,610.36s291.81-1.16,299.41,227-126,246.18-61,585.69,5.7,321.46-62.16,337.71c0,0,343.88,5.42,390.84-77.65s-83.08-375.63-83.08-375.63l-115.57-242,68.62-328.68S754.87,523.67,458.7,610.36Z" transform="translate(7.04 14.49)" style="fill:#b0b0b0"/><path d="M308,1262.21s30.18-128.88,146-128.88,323.83,357.27,353.2,429.87-5.71,193.32-168.85,158.24S286,1564.83,308,1262.21Z" transform="translate(7.04 14.49)" style="fill:#f0f0f0"/><g style="clip-path:url(#clip-path-23)"><path d="M458.7,610.36s291.81-1.16,299.41,227-126,246.18-61,585.69,5.7,321.46-62.16,337.71c0,0,343.88,5.42,390.84-77.65s-83.08-375.63-83.08-375.63l-115.57-242,68.62-328.68S754.87,523.67,458.7,610.36Z" transform="translate(7.04 14.49)" style="fill:#b0b0b0;opacity:0.48"/></g><path d="M484.85,661.12s127.39-39.23,232.61-.08S858.71,791.52,858.71,791.52l28.41-8.12,36.71-154.17L910,512.59l-93.8-68.52-95.44-5.71-106,34.26-86.46,96.25-59.55,77.49Z" transform="translate(7.04 14.49)" style="fill:#ffbc21"/><g style="clip-path:url(#clip-path-24)"><path d="M718.75,465.88s93.22,9.41,108,67.92S787.24,679.73,693.47,668.15L791,722.32l74.93,94.36,47.13-142.17,5-147.77-68.09-58L722.36,437Z" transform="translate(7.04 14.49)" style="fill:#ff9421"/></g><ellipse cx="649.6" cy="756.1" rx="110.88" ry="81.49" transform="translate(-235.33 1215.65) rotate(-75.85)" style="fill:#757575"/><ellipse cx="504.18" cy="731.4" rx="102.34" ry="70.5" transform="translate(-359.09 923.94) rotate(-66.98)" style="fill:#757575"/></g><ellipse cx="634.92" cy="772.87" rx="83.78" ry="61.99" transform="translate(-262.67 1214.08) rotate(-75.85)" style="fill:#fff"/><ellipse cx="639.08" cy="777.4" rx="18.33" ry="18.26" transform="translate(-263.93 1221.54) rotate(-75.85)"/><ellipse cx="504.64" cy="744.17" rx="83.78" ry="55.62" transform="translate(-375.71 903.58) rotate(-65.13)" style="fill:#fff"/><ellipse cx="507.4" cy="749.17" rx="18.33" ry="16.39" transform="translate(-378.65 908.99) rotate(-65.13)"/><path d="M507,1045.23c-87.42-3.77-158.39-90.78-125.28-172.23s44.53,1.76,131,32.75,178.64-78.31,215.34-67.7S790.06,1057.47,507,1045.23Z" transform="translate(7.04 14.49)" style="fill:#782900"/><g style="clip-path:url(#clip-path-25)"><path d="M470.31,1046.05s103.59-86.46,135.4-89.73,80.75,13.06,107.67,56.29C713.38,1012.61,588.58,1081.94,470.31,1046.05Z" transform="translate(7.04 14.49)" style="fill:#a83800"/><path d="M434.41,842.13s-1.63,79.94,19.58,87.28,43.23-43.24,43.23-43.24Z" transform="translate(7.04 14.49)" style="fill:#fff"/><path d="M599.18,889.44s19.58,46.49,51.39,35.07,26.92-82.38,26.92-82.38Z" transform="translate(7.04 14.49)" style="fill:#fff"/><path d="M630.18,1040.34s12.24-56.28,29.37-55.47,48.94,27.74,48.94,27.74S666.07,1045.23,630.18,1040.34Z" transform="translate(7.04 14.49)" style="fill:#fff"/><path d="M387.1,984.87s41.6-25.28,53-12.23S454,1041.16,454,1041.16,391.18,1008.53,387.1,984.87Z" transform="translate(7.04 14.49)" style="fill:#fff"/><path d="M454,1041.16s32.63-23.66,43.23-22,31,35.08,31,35.08S475.2,1062.36,454,1041.16Z" transform="translate(7.04 14.49)" style="fill:#fff"/></g><path d="M791.69,1409.85s72.59,36.71,75,70.15-11.42,12.23-21.21,4.08-71-41.6-71-41.6Z" transform="translate(7.04 14.49)" style="fill:#b8b8b8"/><g style="clip-path:url(#clip-path-26)"><path d="M754.87,1444.69s68.62-21.68,115.58,32.5l-3.61-21.67-50.57-43.34-28.89-10.84-25.29,7.23Z" transform="translate(7.04 14.49)" style="fill:#9c9c9c"/></g><path d="M769.66,1154.54c-28.68-18.25-61.17-43.23-43.23-75s30.18-32.62,83.2,22.84,92.18,91.36,84.84,152.54-119.91,187.61-119.91,187.61-17.13-2.45-13.87-12.24,95.44-133.77,103.59-156.61S859.39,1211.64,769.66,1154.54Z" transform="translate(7.04 14.49)" style="fill:#bfbfbf"/><g style="clip-path:url(#clip-path-27)"><path d="M726,1079.89s21.67-21.67,75.84,36.12,93.91,108.35,83.08,148.08-40.16,89.51-40.16,89.51l40.16-46.16L903,1264.09v-39.73l-18.05-57.78L776.54,1065.45l-36.12-18.06-18.06,18.06,3.62,14.44" transform="translate(7.04 14.49)" style="fill:#a6a6a6"/></g><g id="hand"><path d="M46.79,701.94C65.44,690.41,153,625.72,195.23,570s80.29-51.82,110.69-57.58,137-28.65,151.44-80.11S387.26,357.36,333.25,379,264.91,426.61,195,525.39,78.42,643.37,54.53,651.26-3.21,666.76.24,688.66,28.06,713.53,46.79,701.94Z" transform="translate(7.04 14.49)" style="fill:#e68d00"/><g style="clip-path:url(#clip-path-28)"><path d="M457.54,441.46s17.64-43.32-55.9-51.84-127.26,32.66-166.82,91.52S142.35,640.38-7,691.48L4.28,661,106,612l76.86-91.62,59.28-84.53,70.26-62.93,52.15-7.15,57.35,7.8,38.82,22.31L466,433.32Z" transform="translate(7.04 14.49)" style="fill:#b86800"/></g><path d="M441.09,444.47c-10.07,14.19-52,46.72-108.22,51.92s-68.13-20.22-57.37-42.79S349.22,388.83,405.7,397,454,426.22,441.09,444.47Z" transform="translate(7.04 14.49)" style="fill:#ffb94d"/><g style="clip-path:url(#clip-path-29)"><path d="M378,388.57s44.32,15.17-.16,61.53-99.91,43.28-111.12,28.44.68,32.42.68,32.42L356,510.5,433,475.85l41.49-66.72-40.95-32.58Z" transform="translate(7.04 14.49)" style="fill:#ffca78"/></g></g><path d="M155.42,552s38.25-18,33.62-33.12-18.54-9.87-28.9,3.65-30.85,31.15-30.85,31.15Z" transform="translate(7.04 14.49)" style="fill:#bfbfbf"/><path d="M144.59,542.79c15.4.39,48.68,6.87,49.6,20.05S131.7,673.43,98.28,602.29C93.25,591.58,119.56,542.15,144.59,542.79Z" transform="translate(7.04 14.49)" style="fill:#ccc"/><g style="clip-path:url(#clip-path-30)"><path d="M152.31,542.11S80.26,610,156.36,622l-26.67,14.35-25.26-18.09L90.2,588.37l45.16-52.08,16.95,5.82" transform="translate(7.04 14.49)" style="fill:#999"/></g><path d="M501.62,635.58s123.22-50.51,242.41.06S870.4,749.17,870.4,749.17s14.5-5.18,21.72-12.4,7.22-36.12,7.22-39.73-57.79-86.68-169.75-108.35-211.1,3.3-221.13,10.67S486.75,631.91,501.62,635.58Z" transform="translate(7.04 14.49)" style="fill:#4ac200"/><g style="clip-path:url(#clip-path-31)"><path d="M791,599.52s1.88,45.83-94,28.52C679,624.8,819.88,653.7,881.28,791c0,0,75.85-61.4,43.35-104.75S791,599.52,791,599.52Z" transform="translate(7.04 14.49)" style="fill:#3da100"/></g></g></g></svg>