<svg xmlns="http://www.w3.org/2000/svg" xmlns:xlink="http://www.w3.org/1999/xlink" viewBox="0 0 1323.72 1952.17"><defs><clipPath id="clip-path" transform="translate(0 10.72)"><path d="M695.51,1081.72S824.36,1058.49,834,955.89,802.63,716.3,940.23,658.37s246.84,68.8,265.54,123.71,6.64,108-32.59,135.19-79-27.16-103.8-24.75S1011.45,913,1003,989.09,893.76,1247.38,721.76,1222Z" style="fill:#bfbfbf"/></clipPath><clipPath id="clip-path-2" transform="translate(0 10.72)"><path d="M801.73,1004.47s112.85-63.36,134.58,141.22l-25.95,29.58s20.52-169.59-142.43-140.62Z" style="fill:#5c5c5c"/></clipPath><clipPath id="clip-path-3" transform="translate(0 10.72)"><path d="M821.64,786.61s89.93-44.06,133.38,0,64.57,92.94,66.38,162.34l-16.29,63.37S974.93,888.6,907.34,876.53s-93.54,53.71-93.54,53.71Z" style="fill:#5c5c5c"/></clipPath><clipPath id="clip-path-4" transform="translate(0 10.72)"><path d="M942.34,646.6s135.19-2.42,158.12,85.69-50.69,173.81-50.69,173.81h18.71s71.21-17.5,96-86.9-21.12-147.26-21.12-147.26l-81.47-33.79-56.73-8.45-39.83,9.66Z" style="fill:#5c5c5c"/></clipPath><clipPath id="clip-path-5" transform="translate(0 10.72)"><path d="M465.58,478.22s-39.83-200.36,14.48-333.74c0,0,57.94-32.59,70-32.59,0,0-80.87,222.7-41,321.67Z" style="fill:#368a00"/></clipPath><clipPath id="clip-path-6" transform="translate(0 10.72)"><path d="M617.66,111.89s38.28-17.27,78.11-13l-46.12,278.6-85.1,8.44L556.71,270Z" style="fill:#368a00"/></clipPath><clipPath id="clip-path-7" transform="translate(0 10.72)"><path d="M720.86,545.81S1046.15,378,1248.92,401.58l-77.24-106.22s-363.31,53.11-465.3,143Z" style="fill:#328000"/></clipPath><clipPath id="clip-path-8" transform="translate(0 10.72)"><path d="M695.51,461.32s115.87-97.16,507.55-153.89l-61-84.49s-228.72,9.05-446.59,172Z" style="fill:#368a00"/></clipPath><clipPath id="clip-path-9" transform="translate(0 10.72)"><path d="M679.31,385.88s344.27-208.16,398.59-201.52,53.34,57.29,53.34,57.29l-452,179.24Z" style="fill:#307a00"/></clipPath><clipPath id="clip-path-10" transform="translate(0 10.72)"><path d="M706.46,360.72S1019.11,195,1174.1,216.42c0,0-74-110.1-180-24.32,0,0-87.26-23.78-100.63,16.31,0,0-76.63-2.39-65,61.6,0,0-55.54-2.63-64.73,32C763.75,302,701.11,323.31,706.46,360.72Z" style="fill:#ffbc21"/></clipPath><clipPath id="clip-path-11" transform="translate(0 10.72)"><path d="M664,343.35S615,114.64,533,69.79c0,0,94.84-44.73,94.91,52.4,0,0,52.71,17.47,36.39,49.1,0,0,36,27.59-5,65.55,0,0,26.58,19.39,11.41,45.84C670.79,282.68,687.23,320.62,664,343.35Z" style="fill:#ffbc21"/></clipPath><clipPath id="clip-path-12" transform="translate(0 10.72)"><path d="M687.49,255s26.73-173.23,73.2-223.32S706.38,264,706.38,264Z" style="fill:#4ac200"/></clipPath><clipPath id="clip-path-13" transform="translate(0 10.72)"><path d="M702.38,251.43S842.77,19.56,874.15.85,713,278.46,713,278.46Z" style="fill:#4ac200"/></clipPath><clipPath id="clip-path-14" transform="translate(0 10.72)"><path d="M724.48,248.89S835.53,78.7,885.62,55.17,729.91,270,729.91,270Z" style="fill:#4ac200"/></clipPath><clipPath id="clip-path-15" transform="translate(0 10.72)"><path d="M734.74,255.53S920,90.17,978,76.29,749.83,270,749.83,270Z" style="fill:#4ac200"/></clipPath><clipPath id="clip-path-16" transform="translate(0 10.72)"><path d="M740.17,270S987,117.33,1057,116.72,740.17,285.1,740.17,285.1Z" style="fill:#4ac200"/></clipPath><clipPath id="clip-path-17" transform="translate(0 10.72)"><path d="M577.83,1248.89s9.66,73.63,56.73,158.12c0,0-96.56-11.47-111,7.24s5.44,19.92,35.61,18.71,106.22.6,106.22.6-56.73-124.32-41.64-179.84Z" style="fill:#bfbfbf"/></clipPath><clipPath id="clip-path-18" transform="translate(0 10.72)"><path d="M745.6,1236.22s121.31,121.3,131.57,151.48,111,28.36,131,32.59,16.29-21.12-18.71-26-86.3-12.07-86.3-12.07-76-135.79-135.19-167.17Z" style="fill:#bfbfbf"/></clipPath><clipPath id="clip-path-19" transform="translate(0 10.72)"><path d="M624.3,362.35s48.28-115.64,71.21-128.43,64.58-21.84,74.84-15.81,11.46,52.51,9,62.16S679.22,401.58,679.22,401.58Z" style="fill:#ed6e05"/></clipPath><clipPath id="clip-path-20" transform="translate(0 10.72)"><path d="M349.1,758.25s-71.81-21.13-112.85-135.19-47.08-191.91-47.08-191.91L172.88,442s14.48,181,70,269.16,102,76,102,76Z" style="fill:#bfbfbf"/></clipPath><clipPath id="clip-path-21" transform="translate(0 10.72)"><path d="M706.38,360.54c-39.44-22.38-152.69-54.92-269.77,138.2s-149.67,432.11-92.94,586.6,229.33,199.76,341,185.88,145.44-102,92.94-185.88-137-217.86-98.37-363.3S791.47,408.82,706.38,360.54Z" style="fill:#ccc"/></clipPath><clipPath id="clip-path-22" transform="translate(0 10.72)"><path d="M311.68,933.86s22.33-95.35,108-95.35,239.59,264.34,261.32,318-4.23,143-124.93,117.08S295.39,1157.76,311.68,933.86Z" style="fill:#f0f0f0"/></clipPath><clipPath id="clip-path-23" transform="translate(0 10.72)"><path d="M442.55,489.14s94.24-29,172.09-.06,104.51,96.54,104.51,96.54l21-6,27.16-114.06-10.26-86.3-69.4-50.7-70.61-4.22L538.6,349.67l-64,71.22-44.06,57.33Z" style="fill:#ffbc21"/></clipPath><clipPath id="clip-path-24" transform="translate(0 10.72)"><path d="M458.94,773.33c-64.68-2.79-117.19-67.16-92.69-127.42s32.94,1.29,96.91,24.22S595.33,612.2,622.49,620,668.35,782.39,458.94,773.33Z" style="fill:#782900"/></clipPath><clipPath id="clip-path-25" transform="translate(0 10.72)"><path d="M669.56,1043.1s53.71,27.16,55.52,51.9-8.44,9-15.69,3-52.5-30.78-52.5-30.78Z" style="fill:#b8b8b8"/></clipPath><clipPath id="clip-path-26" transform="translate(0 10.72)"><path d="M653.27,854.2c-21.22-13.5-45.27-32-32-55.52s22.33-24.14,61.56,16.9S751,883.17,745.6,928.43s-88.71,138.81-88.71,138.81-12.68-1.81-10.26-9,70.61-99,76.64-115.88S719.65,896.45,653.27,854.2Z" style="fill:#bfbfbf"/></clipPath><clipPath id="clip-path-27" transform="translate(0 10.72)"><path d="M118.44,519.34C132.23,510.81,197,463,228.26,421.7s59.41-38.33,81.9-42.59,101.34-21.2,112-59.27-51.86-55.44-91.82-39.46-50.56,35.26-102.26,108.34S141.84,476,124.17,481.84,81.45,493.31,84,509.52,104.58,527.92,118.44,519.34Z" style="fill:#e68d00"/></clipPath><clipPath id="clip-path-28" transform="translate(0 10.72)"><path d="M410.16,328.85c-7.45,10.5-38.49,34.57-80.06,38.41s-50.41-15-42.45-31.66,54.54-47.92,96.34-41.88S419.75,315.35,410.16,328.85Z" style="fill:#ffb94d"/></clipPath><clipPath id="clip-path-29" transform="translate(0 10.72)"><path d="M190.8,401.59c11.39.29,36,5.09,36.69,14.83s-46.23,81.82-71,29.19C152.81,437.69,172.28,401.12,190.8,401.59Z" style="fill:#ccc"/></clipPath><clipPath id="clip-path-30" transform="translate(0 10.72)"><path d="M455,470.25s91.17-37.37,179.35,0,93.49,84,93.49,84,10.73-3.84,16.08-9.18,5.34-26.72,5.34-29.39-42.75-64.14-125.59-80.17S467.44,438,460,443.45,444,467.53,455,470.25Z" style="fill:#4ac200"/></clipPath><clipPath id="clip-path-31" transform="translate(0 10.72)"><polygon points="0 1718.89 114.11 1168.57 350.9 1168.57 402.25 1229.26 387.99 1941.45 0 1718.89" style="fill:#b7b7b7"/></clipPath><clipPath id="clip-path-32" transform="translate(0 10.72)"><polygon points="898.65 1249.5 1024.17 1836.24 503.39 1737.52 484.98 1140.24 898.65 1249.5" style="fill:#b7b7b7"/></clipPath><clipPath id="clip-path-33" transform="translate(0 10.72)"><polygon points="114.11 1168.57 182.69 1055.88 362.31 986.47 992.79 986.47 1106.9 1063.35 898.65 1249.5 496.39 1196.89 402.25 1229.26 114.11 1168.57" style="fill:#ccc"/></clipPath></defs><g id="Layer_2" data-name="Layer 2"><g id="monster-at-a-stone-table-3"><path d="M695.51,1081.72S824.36,1058.49,834,955.89,802.63,716.3,940.23,658.37s246.84,68.8,265.54,123.71,6.64,108-32.59,135.19-79-27.16-103.8-24.75S1011.45,913,1003,989.09,893.76,1247.38,721.76,1222Z" transform="translate(0 10.72)" style="fill:#bfbfbf"/><g style="clip-path:url(#clip-path)"><path d="M749.21,1215.85s208.44-61.46,216.45-235.16S1131.34,644,1206.17,876.47l-13.36,58.79-53.45,5.34-72.15-34.73-29.39,29.39-37.4,117.58L955,1149l-49.75,46.77-77.35,28.63-102.59,13.94Z" transform="translate(0 10.72)" style="fill:#a1a1a1"/><path d="M801.73,1004.47s112.85-63.36,134.58,141.22l-25.95,29.58s20.52-169.59-142.43-140.62Z" transform="translate(0 10.72)" style="fill:#5c5c5c"/><g style="clip-path:url(#clip-path-2)"><path d="M749.21,1215.85s208.44-61.46,216.45-235.16S1131.34,644,1206.17,876.47l-13.36,58.79-53.45,5.34-72.15-34.73-29.39,29.39-37.4,117.58L955,1149l-49.75,46.77-77.35,28.63-102.59,13.94Z" transform="translate(0 10.72)" style="fill:#424242"/></g><path d="M821.64,786.61s89.93-44.06,133.38,0,64.57,92.94,66.38,162.34l-16.29,63.37S974.93,888.6,907.34,876.53s-93.54,53.71-93.54,53.71Z" transform="translate(0 10.72)" style="fill:#5c5c5c"/><g style="clip-path:url(#clip-path-3)"><path d="M749.21,1215.85s208.44-61.46,216.45-235.16S1131.34,644,1206.17,876.47l-13.36,58.79-53.45,5.34-72.15-34.73-29.39,29.39-37.4,117.58L955,1149l-49.75,46.77-77.35,28.63-102.59,13.94Z" transform="translate(0 10.72)" style="fill:#424242"/></g><path d="M942.34,646.6s135.19-2.42,158.12,85.69-50.69,173.81-50.69,173.81h18.71s71.21-17.5,96-86.9-21.12-147.26-21.12-147.26l-81.47-33.79-56.73-8.45-39.83,9.66Z" transform="translate(0 10.72)" style="fill:#5c5c5c"/><g style="clip-path:url(#clip-path-4)"><path d="M749.21,1215.85s208.44-61.46,216.45-235.16S1131.34,644,1206.17,876.47l-13.36,58.79-53.45,5.34-72.15-34.73-29.39,29.39-37.4,117.58L955,1149l-49.75,46.77-77.35,28.63-102.59,13.94Z" transform="translate(0 10.72)" style="fill:#424242"/></g></g><path d="M465.58,478.22s-39.83-200.36,14.48-333.74c0,0,57.94-32.59,70-32.59,0,0-80.87,222.7-41,321.67Z" transform="translate(0 10.72)" style="fill:#368a00"/><g style="clip-path:url(#clip-path-5)"><path d="M506,112.2S436.56,358.05,482,451.58l18.7-21.38-16-88.18L556.81,112.2l-2.67-13.36Z" transform="translate(0 10.72)" style="fill:#276300"/></g><path d="M617.66,111.89s38.28-17.27,78.11-13l-46.12,278.6-85.1,8.44L556.71,270Z" transform="translate(0 10.72)" style="fill:#368a00"/><g style="clip-path:url(#clip-path-6)"><path d="M687.75,85.48s-133.61,192.4-88.18,291.28l-37-4.11L559.14,293,623.62,74.79Z" transform="translate(0 10.72)" style="fill:#2a6b00"/></g><path d="M759.4,88.93s131,9.08,164.24,46.5L695.77,328.66,666.37,318Z" transform="translate(0 10.72)" style="fill:#2d7300"/><path d="M521.1,146.29S608,91.38,634,89s-53.72,143-56.13,218.47,2.41,95.35,2.41,95.35l-88.59,48.64s-15.81-48.64-17-97.52S521.1,146.29,521.1,146.29Z" transform="translate(0 10.72)" style="fill:#2e7500"/><path d="M720.86,545.81S1046.15,378,1248.92,401.58l-77.24-106.22s-363.31,53.11-465.3,143Z" transform="translate(0 10.72)" style="fill:#328000"/><g style="clip-path:url(#clip-path-7)"><path d="M730.51,451.58S989.72,326,1230.22,355.38l-56.12-58.79L981.7,339.35,762.41,409.19l-42.59,13Z" transform="translate(0 10.72)" style="fill:#276300"/></g><path d="M695.51,461.32s115.87-97.16,507.55-153.89l-61-84.49s-228.72,9.05-446.59,172Z" transform="translate(0 10.72)" style="fill:#368a00"/><g style="clip-path:url(#clip-path-8)"><path d="M1182.12,253.83S797.31,371.41,719.82,422.19l-2.68-26.73s173.7-82.84,251.2-109.56,160.33-85.51,160.33-85.51Z" transform="translate(0 10.72)" style="fill:#286600"/></g><path d="M679.31,385.88s344.27-208.16,398.59-201.52,53.34,57.29,53.34,57.29l-452,179.24Z" transform="translate(0 10.72)" style="fill:#307a00"/><g style="clip-path:url(#clip-path-9)"><path d="M706.13,385.88s192.73-137.39,478.66-156.1L1118,189.7,905.23,248.84,695.77,360.72Z" transform="translate(0 10.72)" style="fill:#2a6b00"/></g><polygon points="891.65 137.1 960.32 171.03 717.14 312.65 695.77 304.64 891.65 137.1" style="fill:#368a00"/><path d="M706.46,360.72S1019.11,195,1174.1,216.42c0,0-74-110.1-180-24.32,0,0-87.26-23.78-100.63,16.31,0,0-76.63-2.39-65,61.6,0,0-55.54-2.63-64.73,32C763.75,302,701.11,323.31,706.46,360.72Z" transform="translate(0 10.72)" style="fill:#ffbc21"/><g style="clip-path:url(#clip-path-10)"><path d="M695.77,360.72s355.41-243.17,507.73-160.33l-24,29.39-187.06,29.4L759.9,344.69,695.51,377.1Z" transform="translate(0 10.72)" style="fill:#ff9421"/></g><path d="M664,343.35S615,114.64,533,69.79c0,0,94.84-44.73,94.91,52.4,0,0,52.71,17.47,36.39,49.1,0,0,36,27.59-5,65.55,0,0,26.58,19.39,11.41,45.84C670.79,282.68,687.23,320.62,664,343.35Z" transform="translate(0 10.72)" style="fill:#ffbc21"/><g style="clip-path:url(#clip-path-11)"><path d="M538.1,37.38S597.58,14.8,668.05,302.67L639.65,310,586.2,152.29,522.07,82.81Z" transform="translate(0 10.72)" style="fill:#ff9421"/></g><path d="M687.49,255s26.73-173.23,73.2-223.32S706.38,264,706.38,264Z" transform="translate(0 10.72)" style="fill:#4ac200"/><g style="clip-path:url(#clip-path-12)"><path d="M789.3,5.31s-72.16,117.58-88.19,237.84H679.73L711.8,106.86,735.85,32Z" transform="translate(0 10.72)" style="fill:#63e810"/></g><path d="M702.38,251.43S842.77,19.56,874.15.85,713,278.46,713,278.46Z" transform="translate(0 10.72)" style="fill:#4ac200"/><g style="clip-path:url(#clip-path-13)"><polygon points="888.17 0 724.48 250.09 711.3 247.53 718.01 212.15 861.45 16.03 888.17 0" style="fill:#63e810"/></g><path d="M724.48,248.89S835.53,78.7,885.62,55.17,729.91,270,729.91,270Z" transform="translate(0 10.72)" style="fill:#4ac200"/><g style="clip-path:url(#clip-path-14)"><path d="M711.8,277.88S877.48,26.69,928.25,37.38L856.1,64.1,749.21,189.7,706.38,264Z" transform="translate(0 10.72)" style="fill:#63e810"/></g><path d="M734.74,255.53S920,90.17,978,76.29,749.83,270,749.83,270Z" transform="translate(0 10.72)" style="fill:#4ac200"/><g style="clip-path:url(#clip-path-15)"><path d="M744.9,256.81S952.3,80.14,1000.4,69.45H960.32L904.2,104.19,735.85,256.51Z" transform="translate(0 10.72)" style="fill:#63e810"/></g><path d="M740.17,270S987,117.33,1057,116.72,740.17,285.1,740.17,285.1Z" transform="translate(0 10.72)" style="fill:#4ac200"/><g style="clip-path:url(#clip-path-16)"><polygon points="735.85 288.6 1083.54 122.61 992.39 133.61 898.86 179.04 730.21 274.7 735.85 288.6" style="fill:#63e810"/></g><path d="M577.83,1248.89s9.66,73.63,56.73,158.12c0,0-96.56-11.47-111,7.24s5.44,19.92,35.61,18.71,106.22.6,106.22.6-56.73-124.32-41.64-179.84Z" transform="translate(0 10.72)" style="fill:#bfbfbf"/><g style="clip-path:url(#clip-path-17)"><path d="M570.17,1258.6s77.5,173.7,104.22,181.72L637,1341.44l-13.36-88.18Z" transform="translate(0 10.72)" style="fill:#a8a8a8"/></g><path d="M745.6,1236.22s121.31,121.3,131.57,151.48,111,28.36,131,32.59,16.29-21.12-18.71-26-86.3-12.07-86.3-12.07-76-135.79-135.19-167.17Z" transform="translate(0 10.72)" style="fill:#bfbfbf"/><g style="clip-path:url(#clip-path-18)"><path d="M746.54,1229.21s58.79,18.7,152.32,160.33c0,0,117.58,5.35,130.94,32.07l-21.38-32.07-101.54-16-58.79-90.86L808,1234.55l-37.41-24Z" transform="translate(0 10.72)" style="fill:#a8a8a8"/></g><path d="M624.3,362.35s48.28-115.64,71.21-128.43,64.58-21.84,74.84-15.81,11.46,52.51,9,62.16S679.22,401.58,679.22,401.58Z" transform="translate(0 10.72)" style="fill:#ed6e05"/><g style="clip-path:url(#clip-path-19)"><path d="M701.11,229.78s45.43,8,50.77,26.73-56.11,104.21-56.11,104.21l16,10.69,77.5-90.85-8.84-73.29-68.66,9.15Z" transform="translate(0 10.72)" style="fill:#ed4b05"/></g><path d="M349.1,758.25s-71.81-21.13-112.85-135.19-47.08-191.91-47.08-191.91L172.88,442s14.48,181,70,269.16,102,76,102,76Z" transform="translate(0 10.72)" style="fill:#bfbfbf"/><g style="clip-path:url(#clip-path-20)"><path d="M172,507.7s53.45,245.85,171,253.86L332.34,799l-42.76-16-66.8-77.49L182.69,574.51Z" transform="translate(0 10.72)" style="fill:#adadad"/></g><path d="M706.38,360.54c-39.44-22.38-152.69-54.92-269.77,138.2s-149.67,432.11-92.94,586.6,229.33,199.76,341,185.88,145.44-102,92.94-185.88-137-217.86-98.37-363.3S791.47,408.82,706.38,360.54Z" transform="translate(0 10.72)" style="fill:#ccc"/><g style="clip-path:url(#clip-path-21)"><path d="M423.2,451.58s215.9-.86,221.52,167.93-93.26,182.14-45.15,433.33,4.22,237.83-46,249.86c0,0,254.43,4,289.17-57.46s-61.46-277.91-61.46-277.91l-85.51-179,50.77-243.18S642.32,387.45,423.2,451.58Z" transform="translate(0 10.72)" style="fill:#b0b0b0"/><path d="M311.68,933.86s22.33-95.35,108-95.35,239.59,264.34,261.32,318-4.23,143-124.93,117.08S295.39,1157.76,311.68,933.86Z" transform="translate(0 10.72)" style="fill:#f0f0f0"/><g style="clip-path:url(#clip-path-22)"><path d="M423.2,451.58s215.9-.86,221.52,167.93-93.26,182.14-45.15,433.33,4.22,237.83-46,249.86c0,0,254.43,4,289.17-57.46s-61.46-277.91-61.46-277.91l-85.51-179,50.77-243.18S642.32,387.45,423.2,451.58Z" transform="translate(0 10.72)" style="fill:#b0b0b0;opacity:0.48"/></g><path d="M442.55,489.14s94.24-29,172.09-.06,104.51,96.54,104.51,96.54l21-6,27.16-114.06-10.26-86.3-69.4-50.7-70.61-4.22L538.6,349.67l-64,71.22-44.06,57.33Z" transform="translate(0 10.72)" style="fill:#ffbc21"/><g style="clip-path:url(#clip-path-23)"><path d="M615.6,344.69s69,7,79.91,50.25-29.24,108-98.62,99.4L669,534.42l55.44,69.81L759.35,499l3.72-109.32L712.7,346.84l-94.43-23.53Z" transform="translate(0 10.72)" style="fill:#ff9421"/></g><ellipse cx="564.43" cy="559.42" rx="82.03" ry="60.29" transform="translate(-115.99 980.69) rotate(-75.85)" style="fill:#757575"/><ellipse cx="456.85" cy="541.14" rx="75.71" ry="52.16" transform="translate(-219.84 760.74) rotate(-66.98)" style="fill:#757575"/></g><ellipse cx="553.57" cy="571.82" rx="61.99" ry="45.86" transform="translate(-136.22 979.53) rotate(-75.85)" style="fill:#fff"/><ellipse cx="556.65" cy="575.17" rx="13.56" ry="13.51" transform="translate(-137.15 985.05) rotate(-75.85)"/><ellipse cx="457.18" cy="550.58" rx="61.99" ry="41.15" transform="translate(-234.6 744.58) rotate(-65.13)" style="fill:#fff"/><ellipse cx="459.23" cy="554.29" rx="13.56" ry="12.13" transform="translate(-236.78 748.58) rotate(-65.13)"/><path d="M458.94,773.33c-64.68-2.79-117.19-67.16-92.69-127.42s32.94,1.29,96.91,24.22S595.33,612.2,622.49,620,668.35,782.39,458.94,773.33Z" transform="translate(0 10.72)" style="fill:#782900"/><g style="clip-path:url(#clip-path-24)"><path d="M431.78,773.94S508.43,710,532,707.55s59.75,9.66,79.67,41.64C611.63,749.19,519.29,800.49,431.78,773.94Z" transform="translate(0 10.72)" style="fill:#a83800"/><path d="M405.23,623.06S404,682.2,419.71,687.64s32-32,32-32Z" transform="translate(0 10.72)" style="fill:#fff"/><path d="M527.14,658.06s14.48,34.4,38,26,19.91-61,19.91-61Z" transform="translate(0 10.72)" style="fill:#fff"/><path d="M550.07,769.71s9-41.64,21.72-41S608,749.19,608,749.19,576.62,773.33,550.07,769.71Z" transform="translate(0 10.72)" style="fill:#fff"/><path d="M370.22,728.67s30.78-18.7,39.23-9,10.26,50.7,10.26,50.7S373.24,746.18,370.22,728.67Z" transform="translate(0 10.72)" style="fill:#fff"/><path d="M419.71,770.32s24.14-17.51,32-16.3,22.93,26,22.93,26S435.4,786,419.71,770.32Z" transform="translate(0 10.72)" style="fill:#fff"/></g><path d="M669.56,1043.1s53.71,27.16,55.52,51.9-8.44,9-15.69,3-52.5-30.78-52.5-30.78Z" transform="translate(0 10.72)" style="fill:#b8b8b8"/><g style="clip-path:url(#clip-path-25)"><path d="M642.32,1068.87s50.77-16,85.51,24.05l-2.67-16-37.41-32.07-21.38-8-18.7,5.34Z" transform="translate(0 10.72)" style="fill:#9c9c9c"/></g><path d="M653.27,854.2c-21.22-13.5-45.27-32-32-55.52s22.33-24.14,61.56,16.9S751,883.17,745.6,928.43s-88.71,138.81-88.71,138.81-12.68-1.81-10.26-9,70.61-99,76.64-115.88S719.65,896.45,653.27,854.2Z" transform="translate(0 10.72)" style="fill:#bfbfbf"/><g style="clip-path:url(#clip-path-26)"><path d="M620.94,799s16-16,56.12,26.72,69.48,80.17,61.46,109.56-29.7,66.22-29.7,66.22l29.7-34.15,13.36-32.07V905.87l-13.36-42.76-80.17-74.82-26.72-13.37-13.36,13.37L620.94,799" transform="translate(0 10.72)" style="fill:#a6a6a6"/></g><g id="hand"><path d="M118.44,519.34C132.23,510.81,197,463,228.26,421.7s59.41-38.33,81.9-42.59,101.34-21.2,112-59.27-51.86-55.44-91.82-39.46-50.56,35.26-102.26,108.34S141.84,476,124.17,481.84,81.45,493.31,84,509.52,104.58,527.92,118.44,519.34Z" transform="translate(0 10.72)" style="fill:#e68d00"/><g style="clip-path:url(#clip-path-27)"><path d="M422.34,326.62s13.05-32.05-41.36-38.36S286.82,312.43,257.55,356,189.14,473.8,78.61,511.6L87,489.08l75.29-36.29L219.14,385,263,322.46l52-46.56,38.59-5.29L396,276.38l28.72,16.51,3.9,27.71Z" transform="translate(0 10.72)" style="fill:#b86800"/></g><path d="M410.16,328.85c-7.45,10.5-38.49,34.57-80.06,38.41s-50.41-15-42.45-31.66,54.54-47.92,96.34-41.88S419.75,315.35,410.16,328.85Z" transform="translate(0 10.72)" style="fill:#ffb94d"/><g style="clip-path:url(#clip-path-28)"><path d="M363.49,287.49s32.79,11.22-.12,45.52-73.91,32-82.21,21.05.51,24,.51,24l65.5-.34,57-25.63,30.7-49.37-30.3-24.1Z" transform="translate(0 10.72)" style="fill:#ffca78"/></g></g><path d="M198.81,408.4s28.3-13.3,24.87-24.51-13.71-7.3-21.38,2.7-22.83,23.05-22.83,23.05Z" transform="translate(0 10.72)" style="fill:#bfbfbf"/><path d="M190.8,401.59c11.39.29,36,5.09,36.69,14.83s-46.23,81.82-71,29.19C152.81,437.69,172.28,401.12,190.8,401.59Z" transform="translate(0 10.72)" style="fill:#ccc"/><g style="clip-path:url(#clip-path-29)"><path d="M196.51,401.09s-53.31,50.26,3,59.1l-19.73,10.62-18.69-13.38-10.52-22.11L184,396.78l12.54,4.31" transform="translate(0 10.72)" style="fill:#999"/></g><path d="M455,470.25s91.17-37.37,179.35,0,93.49,84,93.49,84,10.73-3.84,16.08-9.18,5.34-26.72,5.34-29.39-42.75-64.14-125.59-80.17S467.44,438,460,443.45,444,467.53,455,470.25Z" transform="translate(0 10.72)" style="fill:#4ac200"/><g style="clip-path:url(#clip-path-30)"><path d="M669,443.56s1.39,33.91-69.57,21.1c-13.27-2.39,90.95,19,136.38,120.53,0,0,56.12-45.42,32.07-77.49S669,443.56,669,443.56Z" transform="translate(0 10.72)" style="fill:#3da100"/></g><polygon points="1106.9 1074.07 1323.72 1636.54 1024.17 1846.96 944.29 1737.71 853 1329.01 881.53 1227.84 1106.9 1074.07" style="fill:#84847f"/><polygon points="0 1729.61 114.11 1179.28 350.9 1179.28 402.25 1239.98 387.99 1952.17 0 1729.61" style="fill:#b7b7b7"/><g style="clip-path:url(#clip-path-31)"><path d="M384.61,1223.09c-.1,4.15-.49,8.28-.83,12.41s-.8,8.12-1.35,12.16c-1.08,8.06-2.44,16.06-4,24-3.05,15.77-6.41,31.45-8.59,47.38-2.12,15.51-3.45,31.13-4.82,46.73s-2.85,31.17-5,46.7c-1,7.55-2.34,15.06-3.69,22.57-.66,3.69-1.32,7.37-2.16,11s-1.86,7.18-2.55,10.81a52.53,52.53,0,0,1-1.57,5.65c-.29,1,.93,2.83,1.36,3.66a24.35,24.35,0,0,0,1.36,2.38c.06.09.76,1,.79.87,2.62-7.61,5.11-15.17,7-23s3.6-15.65,4.86-23.62c2.45-15.49,3.88-31.12,5.29-46.72s2.67-31.23,4.58-46.78c1.94-15.84,4.88-31.46,7.94-47.12,1.55-7.92,3.05-15.85,4.21-23.83.57-3.91,1-7.81,1.35-11.75a77,77,0,0,0,.47-11.85c-.14-1.92-.13-3.85-.21-5.78-.06-1.44-1.47-3.1-2.3-4.2-.2-.26-2.2-2.51-2.21-1.76Z" transform="translate(0 10.72)" style="fill:#e3e3e3"/><path d="M350.75,1468.36c.61,6.61.86,13.23,1.52,19.85q.48,4.77,1,9.54c.31,3.08.51,6.46,1.64,9.38a14.24,14.24,0,0,0,2.57,4.1c.19.23,1.92,2.15,2,1.34a47.69,47.69,0,0,0-.61-9.84c-.41-3.17-.83-6.35-1.24-9.52-.81-6.2-2-12.32-2.87-18.51a12.25,12.25,0,0,0-2-4.32,8.49,8.49,0,0,0-1.36-1.89c-.09-.08-.59-.6-.55-.13Z" transform="translate(0 10.72)" style="fill:#e3e3e3"/></g><polygon points="898.65 1260.21 1024.17 1846.96 503.39 1748.24 484.98 1150.96 898.65 1260.21" style="fill:#b7b7b7"/><g style="clip-path:url(#clip-path-32)"><path d="M836,1808.31S802,1557.5,825.2,1517.25s83.6,49.54,102.18,74.31S970.73,1638,970.73,1638l54.18,198.17Z" transform="translate(0 10.72)" style="fill:#ccc"/><path d="M895.08,1247.76q4.29,24.79,9.27,49.45,5,24.46,10.24,48.87t10.79,48.47c3.67,16.18,7.65,32.28,11.55,48.4,2,8.17,4.1,16.3,6.14,24.45,2,7.85,4,15.68,6.64,23.34.64,1.86,1.41,3.68,2.17,5.49a10.92,10.92,0,0,0,3.39,4.09c.47.37,2.44,1.66,1.9.11-5.31-15.48-9.11-31.36-12.81-47.28-1.88-8.1-3.89-16.18-5.81-24.27s-3.66-16.32-5.56-24.47q-5.62-24.15-10.89-48.4t-10.34-48.51c-3.35-16.17-6.47-32.4-10.11-48.51-.45-2-.85-4-1.28-6a8.68,8.68,0,0,0-2.68-4,6.15,6.15,0,0,0-1.83-1.47c-.2-.08-.87-.36-.78.17Z" transform="translate(0 10.72)" style="fill:#e3e3e3"/></g><polygon points="496.39 1179.28 644.74 1774.13 387.99 1952.17 353.75 1494.91 393.69 1203.56 496.39 1179.28" style="fill:#84847f"/><polygon points="114.11 1179.28 182.69 1066.6 362.31 997.19 992.79 997.19 1106.9 1074.07 898.65 1260.21 496.39 1207.61 402.25 1239.98 114.11 1179.28" style="fill:#ccc"/><g style="clip-path:url(#clip-path-33)"><path d="M572.47,1216.63q41.13-9.77,82.27-19.46,11.73-2.76,23.48-5.42c.7-.16-1.69-3.27-1.89-3.49-.65-.73-2.08-2.59-3.23-2.31-27.4,6.65-54.9,12.9-82.37,19.24l-23,5.3c-.62.14,1.56,3.31,1.74,3.54.51.65,1.93,2.85,3,2.6Z" transform="translate(0 10.72)" style="fill:#ccc"/><path d="M499.69,1202.56c26.85,3.61,53.83,6.42,80.82,8.82,26.79,2.37,53.61,4.37,80.43,6.37s53.86,4,80.75,6.53,53.83,5.47,80.58,9.5c26.47,4,52.81,8.94,78.82,15.28,3.79.92,7.55,1.88,11.29,3,1.64.48.31-1.65,0-2.09a8.9,8.9,0,0,0-4.28-3.15c-13.39-3.07-26.67-6.53-40.13-9.32q-19.73-4.08-39.63-7.26c-26.82-4.33-53.8-7.61-80.83-10.33-26.85-2.71-53.75-4.81-80.66-6.81-27.09-2-54.19-3.89-81.25-6.27-26.79-2.36-53.55-5.09-80.19-8.89-3.34-.48-6.67-1-10-1.48-1-.15.78,2.55.91,2.74.67.94,2.1,3.19,3.42,3.36Z" transform="translate(0 10.72)" style="fill:#e3e3e3"/><path d="M115.76,1170.72c9.79,1.2,19.53,3,29.24,4.69s19.47,3.45,29.17,5.39c19.33,3.88,38.51,8.49,57.62,13.35,18.94,4.83,37.85,9.82,56.81,14.57s37.72,9.25,56.71,13.34,38.24,7.75,57.52,10.66l7.13,1c1.44.2,2-.67,1-1.81a8.07,8.07,0,0,0-4.75-2.73c-19.25-2.76-38.39-6.28-57.43-10.29s-38-8.52-56.87-13.23-37.85-9.67-56.77-14.53c-19.19-4.92-38.42-9.75-57.8-13.92s-39.12-7.59-58.77-10.93c-2.53-.43-5.06-.88-7.57-1.41-1.13-.24.89,2.64,1,2.77.83,1,2.29,2.86,3.73,3Z" transform="translate(0 10.72)" style="fill:#e3e3e3"/><path d="M278.76,1205.86c17.6.52,34.9,3.45,52.06,7.29s34.08,8.31,51.09,12.6l14.43,3.64,7.22,1.81a59.43,59.43,0,0,1,8.18,2.29c1.72.71,0-1.94-.3-2.3-.82-1.07-2.57-3.18-4.09-3.3a43.51,43.51,0,0,1-6.75-1.49l-6.47-1.66-12.94-3.3-26.11-6.64c-17.11-4.35-34.26-8.63-51.68-11.62-9.58-1.64-19.23-3-28.93-3.77-.35,0,1.44,3.35,1.6,3.59.52.77,1.6,2.83,2.69,2.86Z" transform="translate(0 10.72)" style="fill:#e3e3e3"/></g></g></g></svg>