<svg xmlns="http://www.w3.org/2000/svg" xmlns:xlink="http://www.w3.org/1999/xlink" viewBox="0 0 1750.19 1945.77"><defs><clipPath id="clip-path" transform="translate(8.42 18.52)"><path d="M1426.38,1384.83c3.18-40.34,35.35-238.59,91.11-355s17.16-175.5,1-230.24-68.72-248.92,3.49-316.12S1704.07,535.17,1714.26,642s-20.45,152.38-123.48,350.45-95,291-87.79,336.85,23.35,107.82-15.5,120.66S1423.19,1425.35,1426.38,1384.83Z" style="fill:#e68d00"/></clipPath><clipPath id="clip-path-2" transform="translate(8.42 18.52)"><path d="M1515.69,520.44c-14.77,28.51-32.7,124.84,6.24,221.4s90.73,94.69,118.66,58,44-175.66-17.11-261.44S1534.68,483.78,1515.69,520.44Z" style="fill:#ffb94d"/></clipPath><clipPath id="clip-path-3" transform="translate(8.42 18.52)"><path d="M1549.09,1103.31c-13.2-20.69-49.43-60.76-68.16-51.17s-99.46,176.27,25.09,163.32C1524.77,1213.51,1570.56,1136.94,1549.09,1103.31Z" style="fill:#3d3c3f"/></clipPath><clipPath id="clip-path-4" transform="translate(8.42 18.52)"><path d="M1231.42,1641.09c-23.9-262.64-257.37-366-261.05-491.75s66.18-324.11,66.18-324.11H641.74s69.86,198.38,66.19,324.11-237.15,229.11-261,491.75,391.57,237.5,391.57,237.5h1.4S1255.32,1903.73,1231.42,1641.09Z" style="fill:#01f27a"/></clipPath><clipPath id="clip-path-5" transform="translate(8.42 18.52)"><path d="M1535.07,245.75s-3.36,286.14-286.14,393.86l-53.86-40.39s289.51-134.66,269.31-377Z" style="fill:#01f296"/></clipPath><clipPath id="clip-path-6" transform="translate(8.42 18.52)"><circle cx="1516.56" cy="136.34" r="136.34" style="fill:#fff"/></clipPath><clipPath id="clip-path-7" transform="translate(8.42 18.52)"><path d="M117.82,245.75S121.19,531.89,404,639.61l53.86-40.39s-289.51-134.66-269.31-377Z" style="fill:#01f296"/></clipPath><clipPath id="clip-path-8" transform="translate(8.42 18.52)"><circle cx="136.34" cy="136.34" r="136.34" style="fill:#fff"/></clipPath><clipPath id="clip-path-9" transform="translate(8.42 18.52)"><path d="M324.34,730.23C220.68,651.77,464.05,509.5,877.57,534.64S1388.88,649.2,1377.7,744.2,726.69,1034.78,324.34,730.23Z" style="fill:#01f27a"/></clipPath><clipPath id="clip-path-10" transform="translate(8.42 18.52)"><path d="M542,760.8c-57.45-29.87-52.74-118,30.3-101,262.57,53.86,309.7,40.4,390.5,37,141.3-5.88,205.35-40.39,232.28-10.1S1121,791.1,979.62,807.93,626.15,804.57,542,760.8Z" style="fill:#243364"/></clipPath><clipPath id="clip-path-11" transform="translate(8.42 18.52)"><path d="M641.3,1917.16c-43.77-6.73-47.13-104.36,16.83-114.46s143.16,52.73,149,90.33S641.3,1917.16,641.3,1917.16Z" style="fill:#0cf280"/></clipPath><clipPath id="clip-path-12" transform="translate(8.42 18.52)"><path d="M1054.55,1917.16c43.77-6.73,47.13-104.36-16.83-114.46s-143.16,52.73-149,90.33S1054.55,1917.16,1054.55,1917.16Z" style="fill:#0cf280"/></clipPath></defs><g id="Layer_2" data-name="Layer 2"><g id="monster-with-spoon-2"><path d="M676.34,1277.83s-269.25,2-337,97.42,302.79,301.3,302.79,301.3" transform="translate(8.42 18.52)" style="fill:none;stroke:#3d3c3f;stroke-miterlimit:10;stroke-width:21.230386329267162px"/><g id="hand"><path d="M905.53,1266.81s267.25,170.22,601.2-92.68" transform="translate(8.42 18.52)" style="fill:none;stroke:#3d3c3f;stroke-miterlimit:10;stroke-width:21.230386329267162px"/><path d="M1426.38,1384.83c3.18-40.34,35.35-238.59,91.11-355s17.16-175.5,1-230.24-68.72-248.92,3.49-316.12S1704.07,535.17,1714.26,642s-20.45,152.38-123.48,350.45-95,291-87.79,336.85,23.35,107.82-15.5,120.66S1423.19,1425.35,1426.38,1384.83Z" transform="translate(8.42 18.52)" style="fill:#e68d00"/><g style="clip-path:url(#clip-path)"><path d="M1506.72,490.91s56.17-65.54,132.28,47.91,53.92,236.38-9.21,351S1446.64,1176,1489,1464.29L1529.4,1420l-5.5-208.38,85.38-203.5,88.6-168.67,43.9-168.42-32.34-91.6L1648.21,492l-69.42-44.85-65.88,23Z" transform="translate(8.42 18.52)" style="fill:#b86800"/></g><path d="M1515.69,520.44c-14.77,28.51-32.7,124.84,6.24,221.4s90.73,94.69,118.66,58,44-175.66-17.11-261.44S1534.68,483.78,1515.69,520.44Z" transform="translate(8.42 18.52)" style="fill:#ffb94d"/><g style="clip-path:url(#clip-path-2)"><path d="M1660.69,576.71s-62.33-59.9-100.81,52.24,13.39,200.46,47.21,206.33-53.76,26.26-53.76,26.26l-74-145.64L1471,560.22l74.41-124.43,88,39.66Z" transform="translate(8.42 18.52)" style="fill:#ffca78"/></g><path d="M1527.62,1096.11s-6.94-67,17.53-73.13,28.71,17.17,18.8,42.43-17.11,67.74-17.11,67.74Z" transform="translate(8.42 18.52)" style="fill:#3d3c3f"/><path d="M1549.09,1103.31c-13.2-20.69-49.43-60.76-68.16-51.17s-99.46,176.27,25.09,163.32C1524.77,1213.51,1570.56,1136.94,1549.09,1103.31Z" transform="translate(8.42 18.52)" style="fill:#3d3c3f"/><g style="clip-path:url(#clip-path-3)"><path d="M1543.66,1092.23s-33.38,154.2-112.32,60.21l2.37,48.19,45.46,19.59,52.49-5.19,33.89-104.48-21.89-18.32" transform="translate(8.42 18.52)" style="fill:#252526"/></g></g><path d="M1231.42,1641.09c-23.9-262.64-257.37-366-261.05-491.75s66.18-324.11,66.18-324.11H641.74s69.86,198.38,66.19,324.11-237.15,229.11-261,491.75,391.57,237.5,391.57,237.5h1.4S1255.32,1903.73,1231.42,1641.09Z" transform="translate(8.42 18.52)" style="fill:#01f27a"/><g style="clip-path:url(#clip-path-4)"><path d="M641.3,920.71s239,124.55,366.93,158.22l47.13-225.55L641.3,826.45Z" transform="translate(8.42 18.52)" style="fill:#00c452"/><path d="M769.22,934.17s121.19,111.09,141.39,269.31,148.12,255.85,97.62,430.9c-20.37,70.65-178.41,296.25-589.11,114.46l84.16,111.09,168.31,33.66,349.64,25.34,172.16-72.46,90.89-131.29L1260.71,1493,1072.2,1267.45l-64-202,57.23-239L708.22,830.8Z" transform="translate(8.42 18.52)" style="fill:#00c452"/></g><path d="M1535.07,245.75s-3.36,286.14-286.14,393.86l-53.86-40.39s289.51-134.66,269.31-377Z" transform="translate(8.42 18.52)" style="fill:#01f296"/><g style="clip-path:url(#clip-path-5)"><path d="M1516.56,274.36s-10.1,245.75-296.24,326.54l106.17,45,62.15-51.69L1493,479.71l60.6-138,13.46-121.19-58.91,16.27" transform="translate(8.42 18.52)" style="fill:#00ab47"/></g><circle cx="1524.98" cy="154.85" r="136.34" style="fill:#fff"/><g style="clip-path:url(#clip-path-6)"><path d="M1493.63,0S1594,18.52,1610.82,116.14s-141.39,158.22-245.75,57.23l40.4,70.69,40.39,30.3,69.38,13.28,61.91-6.55L1631,234l33.66-57.22,6.73-53.87-20.2-77.42L1594-1.68l-77.43-16.84L1493.63,0" transform="translate(8.42 18.52)" style="fill:#e3e3e3"/></g><circle cx="1516.56" cy="122.87" r="45.45"/><path d="M117.82,245.75S121.19,531.89,404,639.61l53.86-40.39s-289.51-134.66-269.31-377Z" transform="translate(8.42 18.52)" style="fill:#01f296"/><g style="clip-path:url(#clip-path-7)"><path d="M116.14,244.06l20.2,10.1s-26.93,239,296.24,343.37l-91.77,48.33-93.38-38.23L156.54,493.18,99.31,368.62,82.48,247.43l33.66-3.37" transform="translate(8.42 18.52)" style="fill:#00ab47"/></g><circle cx="144.75" cy="154.85" r="136.34" style="fill:#fff"/><g style="clip-path:url(#clip-path-8)"><path d="M62.18,22S146.44,1.68,200.3,58.91,220.5,207,186.83,220.5,48.81,234-8.42,163.27l6.74,50.5L52.18,271l50.49,23.57L234,271l38.72-76.08,28.61-58.57-13.46-64-60.6-57.23L146.44-18.52,72.38-1.68,62.18,22" transform="translate(8.42 18.52)" style="fill:#e3e3e3"/></g><circle cx="163.27" cy="122.87" r="45.45"/><path d="M324.34,730.23C220.68,651.77,464.05,509.5,877.57,534.64S1388.88,649.2,1377.7,744.2,726.69,1034.78,324.34,730.23Z" transform="translate(8.42 18.52)" style="fill:#01f27a"/><g style="clip-path:url(#clip-path-9)"><path d="M1045.26,530.21s191.89,83.88,213.77,166.5-375.48,263.07-971.2,38.85l141.38,90.89,340,107.72,430.9-40.39,222.4-117.88-13.69-138L1220.32,530.21Z" transform="translate(8.42 18.52)" style="fill:#00ab47"/></g><path d="M542,760.8c-57.45-29.87-52.74-118,30.3-101,262.57,53.86,309.7,40.4,390.5,37,141.3-5.88,205.35-40.39,232.28-10.1S1121,791.1,979.62,807.93,626.15,804.57,542,760.8Z" transform="translate(8.42 18.52)" style="fill:#243364"/><g style="clip-path:url(#clip-path-10)"><path d="M580.7,641.3s0,70.69,37,80.79,107.73-53.86,107.73-53.86Z" transform="translate(8.42 18.52)" style="fill:#fff"/><path d="M925.78,684.84s18.51,47.55,46.07,44.64,58.35-64.43,58.35-64.43Z" transform="translate(8.42 18.52)" style="fill:#fff"/><path d="M1022.62,679s25,64.24,62.23,60.32,78.84-87.06,78.84-87.06Z" transform="translate(8.42 18.52)" style="fill:#fff"/><path d="M607.63,813s93.93-63.24,243.9-60.23,207.91,61.09,207.91,61.09S715.36,883.68,607.63,813Z" transform="translate(8.42 18.52)" style="fill:#0f1a3d"/></g><path d="M641.3,1917.16c-43.77-6.73-47.13-104.36,16.83-114.46s143.16,52.73,149,90.33S641.3,1917.16,641.3,1917.16Z" transform="translate(8.42 18.52)" style="fill:#0cf280"/><g style="clip-path:url(#clip-path-11)"><path d="M769.22,1836.37s13.47,33.66,6.73,50.49-134.65,37-168.32,3.37l16.84,26.93,20.19,3.37,141.39,6.73,30.3-20.2v-16.83l-20.2-30.3Z" transform="translate(8.42 18.52)" style="fill:#00ab47"/></g><path d="M1054.55,1917.16c43.77-6.73,47.13-104.36-16.83-114.46s-143.16,52.73-149,90.33S1054.55,1917.16,1054.55,1917.16Z" transform="translate(8.42 18.52)" style="fill:#0cf280"/><g style="clip-path:url(#clip-path-12)"><path d="M1004.87,1802.7s50.49,16.83,53.86,40.4-26.93,94.26-178.42,50.49l13.47,23.57,50.49,6.73h138l10.1-26.93,3.37-43.76-16.83-37-33.67-20.2-40.39,6.73" transform="translate(8.42 18.52)" style="fill:#00ab47"/></g></g></g></svg>