<svg xmlns="http://www.w3.org/2000/svg" xmlns:xlink="http://www.w3.org/1999/xlink" viewBox="0 0 2000 2000"><defs><clipPath id="clip-path"><circle cx="1228" cy="683" r="106.5" style="fill:#4174b5"/></clipPath><clipPath id="clip-path-2"><circle cx="1535" cy="865.5" r="55" style="fill:#4152b5"/></clipPath><clipPath id="clip-path-3"><polygon points="870.46 1233.86 82 1448 82.46 1557.86 351.46 1781.86 887.46 1860.86 970.46 1810.86 1587.46 1860.86 1919.46 1627.86 1919 1518 1599.46 1280.86 870.46 1233.86" style="fill:#f57b00"/></clipPath><clipPath id="clip-path-4"><polygon points="877.46 1209.86 358.46 1285.86 82.46 1447.86 351.46 1671.86 887.46 1750.86 970.46 1700.86 1587.46 1750.86 1919.46 1517.86 1836.46 1407.86 1606.46 1256.86 877.46 1209.86" style="fill:#cc5e09"/></clipPath><clipPath id="clip-path-5"><path d="M1562.62,1460.52c1.38-11.94,13.07-70.44,30.89-104.4s7-51.91,2.77-68.34-17.7-74.63,4.46-93.8,53.51,17.32,55.38,49.15-7.72,45-40.45,102.7-31.36,85.35-29.71,99,5.76,32.26-5.91,35.65S1561.23,1472.52,1562.62,1460.52Z" style="fill:#e68d00"/></clipPath><clipPath id="clip-path-6"><path d="M1598.49,1204.89c-4.69,8.3-11.06,36.7-.55,65.79s25.91,29.09,34.6,18.5,15-51.67-2.25-77.8S1604.53,1194.21,1598.49,1204.89Z" style="fill:#ffb94d"/></clipPath><clipPath id="clip-path-7"><path d="M1602.09,1378.28c-3.69-6.28-14-18.57-19.68-15.93s-31.43,51.25,5.68,48.76C1593.68,1410.73,1608.1,1388.5,1602.09,1378.28Z" style="fill:#3d3c3f"/></clipPath><clipPath id="clip-path-8"><path d="M1475.8,1529.49c-7.1-78-76.46-108.72-77.55-146.07s19.66-96.28,19.66-96.28H1300.63s20.75,58.93,19.66,96.28-70.44,68-77.54,146.07S1359.06,1600,1359.06,1600h.42S1482.9,1607.51,1475.8,1529.49Z" style="fill:#01f27a"/></clipPath><clipPath id="clip-path-9"><path d="M1566,1115s-1,85-85,117l-16-12s86-40,80-112Z" style="fill:#01f296"/></clipPath><clipPath id="clip-path-10"><circle cx="1560.5" cy="1082.5" r="40.5" style="fill:#fff"/></clipPath><clipPath id="clip-path-11"><path d="M1145,1115s1,85,85,117l16-12s-86-40-80-112Z" style="fill:#01f296"/></clipPath><clipPath id="clip-path-12"><circle cx="1150.5" cy="1082.5" r="40.5" style="fill:#fff"/></clipPath><clipPath id="clip-path-13"><path d="M636.62,1169.26s-4.31,56.71-40,72.83c0,0,40.29,24.17,57.56,23S729,1255.9,729,1255.9,781.94,1272,790,1272s39.14-6.9,39.14-6.9l38-20.72s-32.19-44.06-34.5-75.13Z" style="fill:#f57b00"/></clipPath><clipPath id="clip-path-14"><ellipse cx="735.9" cy="1175.32" rx="93.24" ry="19.57" style="fill:#7d2900"/></clipPath><clipPath id="clip-path-15"><path d="M469.67,505.71s151.58,318.23,131.38,533.44-94.4,414.49-94.4,414.49H639.51l133.63.39s-69.53-199.67-89.73-414.88S810.12,506.1,810.12,506.1Z" style="fill:#adacd9"/></clipPath><clipPath id="clip-path-16"><path d="M514.42,693s52.83,30.3,253.28,0l-27.19,66.81s-72.25,30.3-221.42,0Z" style="fill:#5c6a99"/></clipPath><clipPath id="clip-path-17"><path d="M635.62,333.31c-16.31,0-21,1.55-21,1.55l21.24-169.37,18.38,167.82-19.42-.78" style="fill:#e7c2f5"/></clipPath><clipPath id="clip-path-18"><path d="M610.76,317.77s24.09-4.66,48.17-.78V340.3l-51.28-3.88Z" style="fill:#ff5100"/></clipPath><clipPath id="clip-path-19"><ellipse cx="639.17" cy="490.82" rx="222.54" ry="22.98" style="fill:#ff9d00"/></clipPath><clipPath id="clip-path-20"><path d="M808.65,487.66a1.25,1.25,0,0,0,0-.19,1.34,1.34,0,0,0-.3-.79c-21.6-81.39-75.86-154.15-168.87-154.15-93.31,0-169.63,71-169.84,154.91v.33h.05c2,7.37,77.1,13.29,169.45,13.29s167.46-5.92,169.46-13.29h0Z" style="fill:#e9ebf5;opacity:0.8"/></clipPath><clipPath id="clip-path-21"><circle cx="635.62" cy="177.15" r="18.65" style="fill:#ff9d00"/></clipPath><clipPath id="clip-path-22"><path d="M586.62,852.6c-50.14,3.67-85.4,12.41-85.4,22.62,0,13.51,61.91,24.47,138.29,24.47s138.29-11,138.29-24.47c0-9.89-33.14-18.41-80.84-22.27l-1.4,7.38c16.18,2.84,26.3,6.89,26.3,11.39,0,8.58-36.87,15.54-82.35,15.54s-82.36-7-82.36-15.54c0-4.91,12.05-9.28,30.86-12.13Z" style="fill:#ff9d00"/></clipPath><clipPath id="clip-path-23"><path d="M602.19,967.28c-36.47,2.39-62.13,8.07-62.13,14.7,0,8.78,45.05,15.9,100.61,15.9s100.62-7.12,100.62-15.9c0-6.43-24.11-12-58.82-14.47l-1,4.8c11.77,1.84,19.14,4.48,19.14,7.4,0,5.57-26.83,10.09-59.92,10.09s-59.91-4.52-59.91-10.09c0-3.19,8.76-6,22.44-7.88Z" style="fill:#ff9d00"/></clipPath><clipPath id="clip-path-24"><path d="M333.5,1393.5s-4.32,56.71-40,72.83c0,0,40.29,24.17,57.55,23s74.82-9.21,74.82-9.21,52.95,16.12,61,16.12,39.13-6.91,39.13-6.91l38-20.72s-32.2-44.05-34.5-75.13Z" style="fill:#f57b00"/></clipPath><clipPath id="clip-path-25"><ellipse cx="432.78" cy="1399.57" rx="93.24" ry="19.57" style="fill:#7d2900"/></clipPath><clipPath id="clip-path-26"><polygon points="568.75 1423.75 650 1381.5 834.17 1362 963.08 1410.75 919.75 1466 667.33 1490.92 568.75 1423.75" style="fill:#ffaa6e"/></clipPath><clipPath id="clip-path-27"><polygon points="667.33 1490.92 652.17 1600.33 973.92 1568.92 919.75 1466 667.33 1490.92" style="fill:#f56200"/></clipPath><clipPath id="clip-path-28"><path d="M1693.5,1369.5s4.5,32.5-14.5,57.5l24,16,36-3,51,8,34.34.48L1845,1430s-11.5-19.5-5.5-52.5Z" style="fill:#f57b00"/></clipPath><clipPath id="clip-path-29"><ellipse cx="1764" cy="1374" rx="67" ry="20" style="fill:#7d2900"/></clipPath><clipPath id="clip-path-30"><path d="M1206.35,1258.92c-30.79-23.31,41.5-65.57,164.33-58.1s151.89,34,148.57,62.25S1325.87,1349.39,1206.35,1258.92Z" style="fill:#01f27a"/></clipPath><clipPath id="clip-path-31"><path d="M1271,1268c-17.07-8.87-15.67-35.06,9-30,78,16,92,12,116,11,42-1.75,61-12,69-3s-22,31-64,36S1296,1281,1271,1268Z" style="fill:#243364"/></clipPath><clipPath id="clip-path-32"><path d="M1300.5,1611.5c-13-2-14-31,5-34s42.53,15.66,44.26,26.83S1300.5,1611.5,1300.5,1611.5Z" style="fill:#0cf280"/></clipPath><clipPath id="clip-path-33"><path d="M1423.26,1611.5c13-2,14-31-5-34s-42.53,15.66-44.26,26.83S1423.26,1611.5,1423.26,1611.5Z" style="fill:#0cf280"/></clipPath></defs><g id="Layer_2" data-name="Layer 2"><g id="monster-on-space-island"><rect width="2000" height="2000" style="fill:#243364"/><path d="M1309.31,1416.71s-74.56-21.56-101.13-.77,58.91,108.12,58.91,108.12" style="fill:none;stroke:#3d3c3f;stroke-miterlimit:10;stroke-width:9px"/><path d="M1246.61,991.08c10.21,0,10.23-15.87,0-15.87s-10.24,15.87,0,15.87Z" style="fill:#192b64"/><path d="M1365.36,867.89c12.77,0,12.79-19.84,0-19.84s-12.79,19.84,0,19.84Z" style="fill:#192b64"/><path d="M534.1,1137.49c12.76,0,12.79-19.84,0-19.84s-12.79,19.84,0,19.84Z" style="fill:#122664"/><path d="M219.56,932.08c12.77,0,12.79-19.84,0-19.84s-12.78,19.84,0,19.84Z" style="fill:#122664"/><path d="M797.27,325.49c12.77,0,12.79-19.84,0-19.84s-12.78,19.84,0,19.84Z" style="fill:#122664"/><path d="M1756.92,717.05c12.76,0,12.79-19.85,0-19.85s-12.79,19.85,0,19.85Z" style="fill:#122664"/><path d="M1172.79,404.5c15.32,0,15.34-23.81,0-23.81s-15.35,23.81,0,23.81Z" style="fill:#122664"/><path d="M469.91,873.09c15.32,0,15.34-23.81,0-23.81s-15.35,23.81,0,23.81Z" style="fill:#122664"/><path d="M1147.11,956.54c15.32,0,15.35-23.82,0-23.82s-15.35,23.82,0,23.82Z" style="fill:#122664"/><path d="M941.7,520c15.32,0,15.35-23.81,0-23.81S926.35,520,941.7,520Z" style="fill:#122664"/><path d="M1728,613.12c15.32,0,15.35-23.81,0-23.81s-15.35,23.81,0,23.81Z" style="fill:#122664"/><path d="M386.46,1226.13c15.32,0,15.35-23.81,0-23.81s-15.35,23.81,0,23.81Z" style="fill:#122664"/><path d="M826.84,903.87c13.41,0,13.43-20.84,0-20.84s-13.43,20.84,0,20.84Z" style="fill:#ac85ff"/><path d="M382.72,1014.2c8.3,0,8.31-12.9,0-12.9s-8.32,12.9,0,12.9Z" style="fill:#ac85ff"/><path d="M1592.62,664.78c8.3,0,8.32-12.9,0-12.9s-8.31,12.9,0,12.9Z" style="fill:#ac85ff"/><path d="M1620.38,684.37c8.3,0,8.31-12.9,0-12.9s-8.31,12.9,0,12.9Z" style="fill:#f829ff"/><path d="M1073.39,281.07c8.3,0,8.32-12.9,0-12.9s-8.31,12.9,0,12.9Z" style="fill:#ac85ff"/><path d="M1769,641.92c8.3,0,8.31-12.9,0-12.9s-8.32,12.9,0,12.9Z" style="fill:#ac85ff"/><path d="M1788.56,858.73c5.75,0,5.75-8.93,0-8.93s-5.76,8.93,0,8.93Z" style="fill:#ac85ff"/><path d="M1494.66,755.86c5.74,0,5.75-8.93,0-8.93s-5.76,8.93,0,8.93Z" style="fill:#ac85ff"/><path d="M1048.9,497.88c5.75,0,5.76-8.93,0-8.93s-5.75,8.93,0,8.93Z" style="fill:#ac85ff"/><path d="M959.1,591.59c4.47,0,4.47-6.94,0-6.94s-4.48,6.94,0,6.94Z" style="fill:#ac85ff"/><g style="opacity:0.14"><path d="M1053.79,565.77c4.47,0,4.48-6.95,0-6.95s-4.47,6.95,0,6.95Z" style="fill:#59aeff"/></g><g style="opacity:0.14"><path d="M950.65,486.78c4.47,0,4.47-6.94,0-6.94s-4.48,6.94,0,6.94Z" style="fill:#59aeff"/></g><g style="opacity:0.14"><path d="M1155.76,482.66c4.47,0,4.48-7,0-7s-4.47,7,0,7Z" style="fill:#59aeff"/></g><g style="opacity:0.14"><path d="M1344.61,918.23c4.46,0,4.47-7,0-7s-4.48,7,0,7Z" style="fill:#59aeff"/></g><g style="opacity:0.14"><path d="M1661,665.38c4.46,0,4.47-7,0-7s-4.48,7,0,7Z" style="fill:#59aeff"/></g><g style="opacity:0.14"><path d="M1831.83,1033.68c4.47,0,4.48-6.94,0-6.94s-4.47,6.94,0,6.94Z" style="fill:#59aeff"/></g><g style="opacity:0.14"><path d="M1417.34,1075.25c4.47,0,4.48-7,0-7s-4.47,7,0,7Z" style="fill:#59aeff"/></g><g style="opacity:0.14"><path d="M865.46,1068.32c4.47,0,4.48-7,0-7s-4.48,7,0,7Z" style="fill:#59aeff"/></g><g style="opacity:0.14"><path d="M314.73,991c4.47,0,4.48-6.94,0-6.94s-4.47,6.94,0,6.94Z" style="fill:#59aeff"/></g><g style="opacity:0.14"><path d="M418.64,1119.12c4.47,0,4.48-6.94,0-6.94s-4.47,6.94,0,6.94Z" style="fill:#59aeff"/></g><g style="opacity:0.14"><path d="M483.3,950.55c4.47,0,4.48-6.94,0-6.94s-4.48,6.94,0,6.94Z" style="fill:#59aeff"/></g><g style="opacity:0.14"><path d="M365.53,687.31c4.47,0,4.48-6.94,0-6.94s-4.47,6.94,0,6.94Z" style="fill:#59aeff"/></g><g style="opacity:0.14"><path d="M326.28,382.51c4.47,0,4.48-6.95,0-6.95s-4.48,6.95,0,6.95Z" style="fill:#59aeff"/></g><g style="opacity:0.14"><path d="M828.64,1146c7.66,0,7.68-11.91,0-11.91s-7.67,11.91,0,11.91Z" style="fill:#59aeff"/></g><g style="opacity:0.14"><path d="M1010.94,517.75c3.19,0,3.19-5,0-5s-3.2,5,0,5Z" style="fill:#85c3ff"/></g><path d="M936.36,668.05c3.2,0,3.2-5,0-5s-3.19,5,0,5Z" style="fill:#f829ff"/><path d="M1254.78,490.5c3.19,0,3.2-5,0-5s-3.2,5,0,5Z" style="fill:#85c3ff"/><path d="M1275.62,919.78c3.19,0,3.2-5,0-5s-3.2,5,0,5Z" style="fill:#85c3ff"/><path d="M1121.41,843.1c3.19,0,3.2-5,0-5s-3.19,5,0,5Z" style="fill:#85c3ff"/><path d="M843.84,1163.18c3.19,0,3.2-5,0-5s-3.2,5,0,5Z" style="fill:#85c3ff"/><path d="M856.34,1135.68c3.19,0,3.2-5,0-5s-3.2,5,0,5Z" style="fill:#85c3ff"/><path d="M413.72,938.12c3.2,0,3.2-5,0-5s-3.19,5,0,5Z" style="fill:#85c3ff"/><path d="M218.67,832.26c3.2,0,3.2-5,0-5s-3.19,5,0,5Z" style="fill:#85c3ff"/><path d="M381.22,744.74c3.19,0,3.19-5,0-5s-3.2,5,0,5Z" style="fill:#85c3ff"/><path d="M376.21,718.9c3.2,0,3.2-5,0-5s-3.19,5,0,5Z" style="fill:#85c3ff"/><path d="M435.4,335.46c3.19,0,3.19-5,0-5s-3.2,5,0,5Z" style="fill:#85c3ff"/><path d="M439.57,359.64c3.19,0,3.19-5,0-5s-3.2,5,0,5Z" style="fill:#85c3ff"/><path d="M455.4,332.13c3.19,0,3.2-5,0-5s-3.19,5,0,5Z" style="fill:#85c3ff"/><path d="M873.85,201.26c3.19,0,3.19-5,0-5s-3.2,5,0,5Z" style="fill:#85c3ff"/><path d="M1600.71,367.14c3.19,0,3.19-5,0-5s-3.2,5,0,5Z" style="fill:#85c3ff"/><path d="M1753.25,503.84c3.19,0,3.19-5,0-5s-3.2,5,0,5Z" style="fill:#85c3ff"/><path d="M1751.58,513c3.19,0,3.2-5,0-5s-3.2,5,0,5Z" style="fill:#85c3ff"/><path d="M1626.55,330.46c3.19,0,3.19-5,0-5s-3.2,5,0,5Z" style="fill:#85c3ff"/><path d="M1880.78,778.44a1.18,1.18,0,0,0,0-2.35,1.18,1.18,0,0,0,0,2.35Z" style="fill:#85c3ff"/><path d="M1604.87,818.09c3.2,0,3.2-5,0-5s-3.19,5,0,5Z" style="fill:#85c3ff"/><path d="M1609,839.76c3.19,0,3.2-5,0-5s-3.2,5,0,5Z" style="fill:#85c3ff"/><path d="M1289,989c3.19,0,3.19-5,0-5s-3.2,5,0,5Z" style="fill:#85c3ff"/><path d="M985.54,1024c3.2,0,3.2-5,0-5s-3.19,5,0,5Z" style="fill:#85c3ff"/><path d="M1084.43,976c4.47,0,4.47-7,0-7s-4.48,7,0,7Z" style="fill:#85c3ff"/><path d="M903.82,774.48c5.74,0,5.75-8.93,0-8.93s-5.76,8.93,0,8.93Z" style="fill:#85c3ff"/><path d="M397.56,840.28c7.66,0,7.67-11.91,0-11.91s-7.68,11.91,0,11.91Z" style="fill:#f829ff"/><path d="M527.54,1090.67c7.66,0,7.68-11.9,0-11.9s-7.67,11.9,0,11.9Z" style="fill:#85c3ff"/><path d="M1433.34,734.92c7.66,0,7.67-11.9,0-11.9s-7.68,11.9,0,11.9Z" style="fill:#85c3ff"/><path d="M890.13,407.91c7.66,0,7.68-11.91,0-11.91s-7.67,11.91,0,11.91Z" style="fill:#85c3ff"/><path d="M1656.36,405.17c7.66,0,7.68-11.9,0-11.9s-7.67,11.9,0,11.9Z" style="fill:#85c3ff"/><path d="M1663.2,923.74c7.67,0,7.68-11.9,0-11.9s-7.67,11.9,0,11.9Z" style="fill:#85c3ff"/><path d="M308.62,480.31c5.75,0,5.76-8.93,0-8.93s-5.75,8.93,0,8.93Z" style="fill:#85c3ff"/><path d="M289.46,546.36c4.47,0,4.48-7,0-7s-4.47,7,0,7Z" style="fill:#85c3ff"/><path d="M299,635c7.66,0,7.68-11.91,0-11.91S291.37,635,299,635Z" style="fill:#85c3ff"/><path d="M1373.13,370.09c8.3,0,8.31-12.9,0-12.9s-8.31,12.9,0,12.9Z" style="fill:#f829ff"/><path d="M441.34,238.86c10.22,0,10.23-15.88,0-15.88s-10.23,15.88,0,15.88Z" style="fill:#85c3ff"/><path d="M232,1200.75c10.21,0,10.23-15.87,0-15.87s-10.23,15.87,0,15.87Z" style="fill:#f829ff"/><path d="M1221.25,873.74c10.22,0,10.24-15.88,0-15.88s-10.23,15.88,0,15.88Z" style="fill:#85c3ff"/><path d="M1675.52,1044.77c10.21,0,10.23-15.88,0-15.88s-10.23,15.88,0,15.88Z" style="fill:#f829ff"/><path d="M1682.36,463.26c10.21,0,10.23-15.88,0-15.88s-10.23,15.88,0,15.88Z" style="fill:#85c3ff"/><circle cx="1228" cy="683" r="106.5" style="fill:#4174b5"/><g style="clip-path:url(#clip-path)"><path d="M1165.5,580.5s84,3,111,65-71.5,145.73-148,105l44,39,30,7h45l56-19,42-72-1-45-20-43-28-26-53-22Z" style="fill:#415cb5"/></g><path d="M1306.53,611.1c39.58-23.67,68-35.34,73.25-28.38,8.68,11.59-50.42,70.49-132,131.56s-154.73,101.17-163.41,89.57c-5.42-7.24,15.63-33,52.09-66.15" style="fill:none;stroke:#8ea8ff;stroke-miterlimit:10;stroke-width:10px;opacity:0.56"/><circle cx="1535" cy="865.5" r="55" style="fill:#4152b5"/><g style="clip-path:url(#clip-path-2)"><path d="M1544.5,805.5s28,30.36,13.5,72.18-82.5,29.82-91.5-1.18l33,59h45l41-15,24-55-19-50Z" style="fill:#3e38a8"/></g><path d="M1495.44,827.27c-29.84-7.8-51.48-9.09-54.24-2-4.1,10.56,35.14,35.66,87.64,56.07s98.39,28.42,102.49,17.86c2.76-7.09-14.06-20.76-41.34-35.16l-.5,9c4.7,3.61,7,6.61,6.3,8.55-2.2,5.66-30.07.11-62.24-12.4s-56.47-27.24-54.26-32.9c.75-1.94,4.51-2.57,10.41-2.05Z" style="fill:#69c1ff;opacity:0.4"/><polygon points="870.46 1233.86 82 1448 82.46 1557.86 351.46 1781.86 887.46 1860.86 970.46 1810.86 1587.46 1860.86 1919.46 1627.86 1919 1518 1599.46 1280.86 870.46 1233.86" style="fill:#f57b00"/><g style="clip-path:url(#clip-path-3)"><polygon points="1588.5 1884.5 1585.5 1707.5 1919.5 1480.5 1954.5 1533.5 1950.5 1647.5 1588.5 1884.5" style="fill:#7d2900"/><rect x="886.5" y="1685.5" width="80" height="190" style="fill:#7d2900"/><polygon points="352.5 1799.5 68.5 1568.5 68.5 1426.5 350.5 1632.5 352.5 1799.5" style="fill:#ff9d57"/><polygon points="448.5 1682.5 478.5 1698.5 491.5 1772.5 496.5 1711.5 524.5 1704.5 558.5 1713.5 575.5 1702.5 448.5 1682.5" style="fill:#ba5100"/><polygon points="662.5 1712.5 699.5 1739.5 722.5 1731.5 734.5 1789.5 748.5 1776.5 768.5 1745.5 783.5 1757.5 825.5 1737.5 662.5 1712.5" style="fill:#ba5100"/><polygon points="120.5 1470.5 122.5 1539.5 129.56 1490.92 142.5 1514.5 173.5 1512.5 120.5 1470.5" style="fill:#ffb682"/><polygon points="217.5 1551.5 223.5 1582.5 236.5 1587.5 229.5 1636.5 242.5 1596.5 263.5 1607.5 263.5 1632.5 277.5 1603.5 217.5 1551.5" style="fill:#ffb682"/><polygon points="1076.5 1703.5 1090.5 1780.5 1090.5 1719.5 1170.88 1717.1 1076.5 1703.5" style="fill:#ba5100"/><polygon points="1276.5 1718.5 1314.5 1826.5 1320.5 1743.5 1344.5 1773.5 1362.5 1750.5 1432.5 1750.5 1458.5 1731.5 1276.5 1718.5" style="fill:#ba5100"/><polygon points="1678.5 1657.5 1689.5 1756.5 1696.5 1693.5 1709.5 1709.5 1765.5 1618.5 1678.5 1657.5" style="fill:#5c1f00"/><polygon points="1872.5 1540.5 1868.5 1624.5 1860.5 1568.5 1820.88 1587.04 1872.5 1540.5" style="fill:#5c1f00"/><polygon points="953.5 1697.5 939.5 1780.5 932.97 1723.44 953.5 1697.5" style="fill:#5c1f00"/></g><polygon points="877.46 1209.86 358.46 1285.86 82.46 1447.86 351.46 1671.86 887.46 1750.86 970.46 1700.86 1587.46 1750.86 1919.46 1517.86 1836.46 1407.86 1606.46 1256.86 877.46 1209.86" style="fill:#cc5e09"/><g style="clip-path:url(#clip-path-4)"><polyline points="345.11 1488.96 568.5 1520.5 596.5 1476.5 520.5 1462.5 370.5 1470.5 345.11 1488.96" style="fill:#a14908"/><polygon points="993.5 1502.5 1216.5 1533.5 1184.5 1594.5 929.5 1630.5 652.5 1600.5 884.5 1512.5 993.5 1502.5" style="fill:#a14908"/><polyline points="1694.54 1438.41 1850.92 1467.48 1897.5 1473.5 1845.5 1403.5 1741.5 1418.5 1694.54 1438.41" style="fill:#a14908"/><path d="M1423.5,1516.5s319,11,309,61-84,55-176,46c-60.54-5.92-256-12-256-12Z" style="fill:#a14908"/><polygon points="402.5 1260.5 890.5 1283.5 1259.5 1352.5 1641.5 1421.5 1679 1556.05 1373.5 1690.5 963.08 1721.98 1109.5 1793.5 1616.5 1791.5 1948.5 1524.5 1804.5 1334.5 1565.5 1209.5 845.5 1188.5 402.5 1260.5" style="fill:#9c3b07;opacity:0.49"/><polygon points="339.5 1567.5 372.5 1549.5 410.5 1558.5 424.5 1587.5 367.5 1588.5 339.5 1567.5" style="fill:#a14908"/><polygon points="432.5 1565.5 446.5 1561.5 450.5 1571.5 436.5 1574.5 432.5 1565.5" style="fill:#a14908"/><polygon points="677.5 1629.5 730.5 1621.5 765.5 1633.5 719.5 1644.5 677.5 1629.5" style="fill:#a14908"/><polygon points="632.5 1624.5 652.5 1633.5 646.5 1639.5 624.5 1644.5 608.5 1637.5 632.5 1624.5" style="fill:#a14908"/><polygon points="672.5 1649.5 680.5 1645.5 692.5 1647.5 687.5 1654.5 672.5 1649.5" style="fill:#a14908"/></g><g id="hand"><path d="M1409.28,1419.85s77.49,53.42,179.47-21" style="fill:none;stroke:#3d3c3f;stroke-miterlimit:10;stroke-width:9px"/><path d="M1562.62,1460.52c1.38-11.94,13.07-70.44,30.89-104.4s7-51.91,2.77-68.34-17.7-74.63,4.46-93.8,53.51,17.32,55.38,49.15-7.72,45-40.45,102.7-31.36,85.35-29.71,99,5.76,32.26-5.91,35.65S1561.23,1472.52,1562.62,1460.52Z" style="fill:#e68d00"/><g style="clip-path:url(#clip-path-5)"><path d="M1596.15,1196s17.38-18.85,38.75,15.65,13.44,70.76-6.54,104.1-57.47,83-48,169l12.47-12.71.62-61.91,27.55-59.49,28.13-49.11,14.85-49.52-8.6-27.54-17.23-26.64L1618,1183.8l-19.81,6.11Z" style="fill:#b86800"/></g><path d="M1598.49,1204.89c-4.69,8.3-11.06,36.7-.55,65.79s25.91,29.09,34.6,18.5,15-51.67-2.25-77.8S1604.53,1194.21,1598.49,1204.89Z" style="fill:#ffb94d"/><g style="clip-path:url(#clip-path-6)"><path d="M1640.92,1223.16s-17.85-18.45-30.49,14.42,1.81,59.65,11.78,61.76-16.24,7.21-16.24,7.21l-20.4-44-.77-46.3,23.44-36.14,25.71,12.73Z" style="fill:#ffca78"/></g><path d="M1595.8,1375.91s-1.34-20,6-21.52,8.34,5.41,5.13,12.8-5.82,19.92-5.82,19.92Z" style="fill:#3d3c3f"/><path d="M1602.09,1378.28c-3.69-6.28-14-18.57-19.68-15.93s-31.43,51.25,5.68,48.76C1593.68,1410.73,1608.1,1388.5,1602.09,1378.28Z" style="fill:#3d3c3f"/><g style="clip-path:url(#clip-path-7)"><path d="M1600.6,1374.93s-11.58,45.42-34,16.66l.18,14.33,13.28,6.31,15.64-1,11.19-30.65-6.3-5.68" style="fill:#252526"/></g></g><path d="M1310.91,1421.59s-80,.59-100.12,28.93,90,89.5,90,89.5" style="fill:none;stroke:#3d3c3f;stroke-miterlimit:10;stroke-width:9px"/><path d="M1475.8,1529.49c-7.1-78-76.46-108.72-77.55-146.07s19.66-96.28,19.66-96.28H1300.63s20.75,58.93,19.66,96.28-70.44,68-77.54,146.07S1359.06,1600,1359.06,1600h.42S1482.9,1607.51,1475.8,1529.49Z" style="fill:#01f27a"/><g style="clip-path:url(#clip-path-8)"><path d="M1300.5,1315.5s71,37,109,47l14-67-123-8Z" style="fill:#00c452"/><path d="M1338.5,1319.5s36,33,42,80,44,76,29,128c-6,21-53,88-175,34l25,33,50,10,103.86,7.53,51.14-21.53,27-39-7-66-56-67-19-60,17-71-106.12,1.29Z" style="fill:#00c452"/></g><path d="M1566,1115s-1,85-85,117l-16-12s86-40,80-112Z" style="fill:#01f296"/><g style="clip-path:url(#clip-path-9)"><path d="M1560.5,1123.5s-3,73-88,97l31.54,13.35,18.46-15.35,31-34,18-41,4-36-17.5,4.83" style="fill:#00ab47"/></g><circle cx="1560.5" cy="1082.5" r="40.5" style="fill:#fff"/><g style="clip-path:url(#clip-path-10)"><path d="M1553.69,1042s29.81,5.5,34.81,34.5-42,47-73,17l12,21,12,9,20.61,3.94,18.39-1.94,16-14,10-17,2-16-6-23-17-14-23-5-6.81,5.5" style="fill:#e3e3e3"/></g><circle cx="1558" cy="1073" r="13.5"/><path d="M1145,1115s1,85,85,117l16-12s-86-40-80-112Z" style="fill:#01f296"/><g style="clip-path:url(#clip-path-11)"><path d="M1144.5,1114.5l6,3s-8,71,88,102l-27.26,14.35-27.74-11.35-27-34-17-37-5-36,10-1" style="fill:#00ab47"/></g><circle cx="1150.5" cy="1082.5" r="40.5" style="fill:#fff"/><g style="clip-path:url(#clip-path-12)"><path d="M1128.47,1048.52s25-6,41,11,6,44-4,48-41,4-58-17l2,15,16,17,15,7,39-7,11.5-22.6,8.5-17.4-4-19-18-17-24-10-22,5-3,7" style="fill:#e3e3e3"/></g><circle cx="1156" cy="1073" r="13.5"/><path d="M636.62,1169.26s-4.31,56.71-40,72.83c0,0,40.29,24.17,57.56,23S729,1255.9,729,1255.9,781.94,1272,790,1272s39.14-6.9,39.14-6.9l38-20.72s-32.19-44.06-34.5-75.13Z" style="fill:#f57b00"/><g style="clip-path:url(#clip-path-13)"><polygon points="782.62 1183.26 794.62 1226.26 758.62 1242.26 692.62 1253.26 665.62 1266.26 729.62 1260.26 788.62 1276.26 833.62 1268.26 877.6 1241.76 849.62 1206.26 833.62 1159.26 827.62 1179.26 782.62 1183.26" style="fill:#7d2900;opacity:0.76"/></g><ellipse cx="735.9" cy="1175.32" rx="93.24" ry="19.57" style="fill:#7d2900"/><g style="clip-path:url(#clip-path-14)"><polygon points="762.62 1149.26 731.62 1207.26 835.71 1184.73 823.62 1159.26 762.62 1149.26" style="fill:#4d1900"/></g><polygon points="651.63 1183.7 644.2 1171.77 685 1160.47 744.67 1155.84 806.41 1162.52 827.57 1171.73 827.57 1178.91 811.8 1186.69 749.91 1194.67 676.37 1190.38 651.63 1183.7" style="fill:none;stroke:#ffaa6e;stroke-miterlimit:10;stroke-width:8px"/><path d="M469.67,505.71s151.58,318.23,131.38,533.44-94.4,414.49-94.4,414.49H639.51l133.63.39s-69.53-199.67-89.73-414.88S810.12,506.1,810.12,506.1Z" style="fill:#adacd9"/><g style="clip-path:url(#clip-path-15)"><path d="M449.16,513.56s170.15,34.18,361.27,27.19l21-49.73H446.05Z" style="fill:#243364;opacity:0.21"/><path d="M706.13,476.51s-44.87,187.77-66.62,490.77,66,543.07,66,543.07l103.33-41.17-77.69-352.73,10.1-337.19L861.71,463.83,706.13,476.51" style="fill:#727bb3;opacity:0.58"/><path d="M514.42,693s52.83,30.3,253.28,0l-27.19,66.81s-72.25,30.3-221.42,0Z" style="fill:#5c6a99"/><g style="clip-path:url(#clip-path-16)"><path d="M706.13,476.51s-44.87,187.77-66.62,490.77,66,543.07,66,543.07l103.33-41.17-77.69-352.73,10.1-337.19L861.71,463.83,706.13,476.51" style="fill:#243364;opacity:0.78"/></g></g><path d="M635.62,333.31c-16.31,0-21,1.55-21,1.55l21.24-169.37,18.38,167.82-19.42-.78" style="fill:#e7c2f5"/><g style="clip-path:url(#clip-path-17)"><polyline points="635.62 186.29 639.51 351.95 667.51 334.86 644.95 181.81 635.62 186.29" style="fill:#8f7cc2;opacity:0.58"/><path d="M610.76,317.77s24.09-4.66,48.17-.78V340.3l-51.28-3.88Z" style="fill:#ff5100"/><g style="clip-path:url(#clip-path-18)"><polyline points="635.62 186.29 639.51 351.95 667.51 334.86 644.95 181.81 635.62 186.29" style="fill:#e30b00"/></g></g><ellipse cx="639.17" cy="490.82" rx="222.54" ry="22.98" style="fill:#ff9d00"/><g style="clip-path:url(#clip-path-19)"><polygon points="770.81 450.6 583.57 525.61 883.46 513.8 870.26 476.99 770.81 450.6" style="fill:#e87f00"/></g><path d="M808.65,487.66a1.25,1.25,0,0,0,0-.19,1.34,1.34,0,0,0-.3-.79c-21.6-81.39-75.86-154.15-168.87-154.15-93.31,0-169.63,71-169.84,154.91v.33h.05c2,7.37,77.1,13.29,169.45,13.29s167.46-5.92,169.46-13.29h0Z" style="fill:#e9ebf5;opacity:0.8"/><g style="clip-path:url(#clip-path-20)"><path d="M598.33,316.56s95.56,10.42,101,76.4-181,125.7-268,58.34S598.33,316.56,598.33,316.56Z" style="fill:#fff;opacity:0.47000000000000003"/><path d="M511.43,419.64c-1.12-8,25.64-65.2,75.22-62.15s-22.8,62.15-44.45,68.26S513.14,431.86,511.43,419.64Z" style="fill:#fff;opacity:0.72"/></g><circle cx="635.62" cy="177.15" r="18.65" style="fill:#ff9d00"/><g style="clip-path:url(#clip-path-21)"><ellipse cx="631.4" cy="168.76" rx="7.77" ry="5.9" transform="translate(89.47 534.08) rotate(-48.95)" style="fill:#ffc261"/><path d="M639.51,157.72a27,27,0,0,1,7,19.43c-.78,11.65-20.2,17.87-31.08,7.77l4.67,7.76,6.21,4.67h15.54l10.1-6.22L656.6,181l.78-9.32-5.44-8.55-10.1-5.44Z" style="fill:#e67700"/></g><path d="M586.62,852.6c-50.14,3.67-85.4,12.41-85.4,22.62,0,13.51,61.91,24.47,138.29,24.47s138.29-11,138.29-24.47c0-9.89-33.14-18.41-80.84-22.27l-1.4,7.38c16.18,2.84,26.3,6.89,26.3,11.39,0,8.58-36.87,15.54-82.35,15.54s-82.36-7-82.36-15.54c0-4.91,12.05-9.28,30.86-12.13Z" style="fill:#ff9d00"/><g style="clip-path:url(#clip-path-22)"><polygon points="730.5 834.5 603.5 906.5 700.5 903.5 759.5 893.5 790.5 876.5 777.5 861.5 730.5 834.5" style="fill:#e87f00"/></g><path d="M602.19,967.28c-36.47,2.39-62.13,8.07-62.13,14.7,0,8.78,45.05,15.9,100.61,15.9s100.62-7.12,100.62-15.9c0-6.43-24.11-12-58.82-14.47l-1,4.8c11.77,1.84,19.14,4.48,19.14,7.4,0,5.57-26.83,10.09-59.92,10.09s-59.91-4.52-59.91-10.09c0-3.19,8.76-6,22.44-7.88Z" style="fill:#ff9d00"/><g style="clip-path:url(#clip-path-23)"><polygon points="639.5 967.5 602.86 1004.25 703.5 999.5 741.5 992.5 748.5 979.5 727.5 967.5 682.68 959.98 639.5 967.5" style="fill:#e87f00"/></g><path d="M333.5,1393.5s-4.32,56.71-40,72.83c0,0,40.29,24.17,57.55,23s74.82-9.21,74.82-9.21,52.95,16.12,61,16.12,39.13-6.91,39.13-6.91l38-20.72s-32.2-44.05-34.5-75.13Z" style="fill:#f57b00"/><g style="clip-path:url(#clip-path-24)"><polygon points="479.5 1407.5 491.5 1450.5 455.5 1466.5 389.5 1477.5 362.5 1490.5 426.5 1484.5 485.5 1500.5 530.5 1492.5 574.47 1466 546.5 1430.5 530.5 1383.5 524.5 1403.5 479.5 1407.5" style="fill:#7d2900;opacity:0.76"/></g><ellipse cx="432.78" cy="1399.57" rx="93.24" ry="19.57" style="fill:#7d2900"/><g style="clip-path:url(#clip-path-25)"><polygon points="459.5 1373.5 428.5 1431.5 532.59 1408.98 520.5 1383.5 459.5 1373.5" style="fill:#4d1900"/></g><polygon points="348.51 1407.95 341.08 1396.01 381.88 1384.72 441.55 1380.09 503.29 1386.77 524.44 1395.98 524.44 1403.16 508.67 1410.94 446.79 1418.92 373.24 1414.63 348.51 1407.95" style="fill:none;stroke:#ffaa6e;stroke-miterlimit:10;stroke-width:8px"/><polygon points="568.75 1423.75 650 1381.5 834.17 1362 963.08 1410.75 919.75 1466 667.33 1490.92 568.75 1423.75" style="fill:#ffaa6e"/><g style="clip-path:url(#clip-path-26)"><polygon points="649.5 1431.5 670.5 1423.5 690.5 1440.5 652.5 1449.5 649.5 1431.5" style="fill:#ff7d45"/><path d="M676.5,1410.5l-9,5Z" style="fill:#ff974f"/><polygon points="679.5 1418.5 689.5 1410.5 667.5 1415.5 679.5 1418.5" style="fill:#ff7d45"/><path d="M930.5,1423.5c0-2-21,6-21,6l20,8,13-11Z" style="fill:#ff7d45"/></g><polygon points="568.75 1423.75 526.5 1525.58 652.17 1600.33 667.33 1490.92 568.75 1423.75" style="fill:#f57b00"/><polygon points="667.33 1490.92 652.17 1600.33 973.92 1568.92 919.75 1466 667.33 1490.92" style="fill:#f56200"/><g style="clip-path:url(#clip-path-27)"><polygon points="902.5 1460.5 886.5 1557.5 652.5 1600.5 986.5 1577.5 919.5 1451.5 902.5 1460.5" style="fill:#7d2900;opacity:0.38"/></g><polygon points="963.08 1410.75 1014 1507.17 973.92 1568.92 919.75 1466 963.08 1410.75" style="fill:#7d2900"/><path d="M1693.5,1369.5s4.5,32.5-14.5,57.5l24,16,36-3,51,8,34.34.48L1845,1430s-11.5-19.5-5.5-52.5Z" style="fill:#f57b00"/><g style="clip-path:url(#clip-path-28)"><polyline points="1812.48 1388.69 1816.5 1422.5 1772.5 1436.5 1735.5 1434.5 1694.54 1438.41 1704.5 1448.5 1742.5 1443.5 1800.5 1453.5 1831 1452.69 1853.02 1429.8 1842.5 1401.5 1841.5 1370.5 1823.94 1376.39 1812.48 1388.69" style="fill:#7d2900;opacity:0.76"/></g><ellipse cx="1764" cy="1374" rx="67" ry="20" style="fill:#7d2900"/><g style="clip-path:url(#clip-path-29)"><polygon points="1790.5 1342.5 1764 1394 1821.5 1387.5 1844.5 1370.5 1809.5 1361.5 1790.5 1342.5" style="fill:#4d1900"/></g><path d="M1206.35,1258.92c-30.79-23.31,41.5-65.57,164.33-58.1s151.89,34,148.57,62.25S1325.87,1349.39,1206.35,1258.92Z" style="fill:#01f27a"/><g style="clip-path:url(#clip-path-30)"><path d="M1420.5,1199.5s57,24.92,63.5,49.46-111.54,78.15-288.5,11.54l42,27,101,32,128-12,66.07-35-4.07-41-56-32Z" style="fill:#00ab47"/></g><path d="M1271,1268c-17.07-8.87-15.67-35.06,9-30,78,16,92,12,116,11,42-1.75,61-12,69-3s-22,31-64,36S1296,1281,1271,1268Z" style="fill:#243364"/><g style="clip-path:url(#clip-path-31)"><path d="M1282.5,1232.5s0,21,11,24,32-16,32-16Z" style="fill:#fff"/><path d="M1385,1245.43s5.5,14.13,13.68,13.27,17.34-19.14,17.34-19.14Z" style="fill:#fff"/><path d="M1413.77,1243.69s7.43,19.08,18.49,17.92,23.42-25.86,23.42-25.86Z" style="fill:#fff"/><path d="M1290.5,1283.5s27.9-18.79,72.45-17.89,61.76,18.14,61.76,18.14S1322.5,1304.5,1290.5,1283.5Z" style="fill:#0f1a3d"/></g><polygon points="1700.57 1380.46 1697 1370.64 1716.55 1359.88 1773.5 1352.5 1809.73 1359.39 1830.5 1366.5 1834.5 1376.5 1821.5 1387.5 1772.28 1394 1712.5 1391.5 1700.57 1380.46" style="fill:none;stroke:#ffaa6e;stroke-miterlimit:10;stroke-width:8px"/><path d="M1300.5,1611.5c-13-2-14-31,5-34s42.53,15.66,44.26,26.83S1300.5,1611.5,1300.5,1611.5Z" style="fill:#0cf280"/><g style="clip-path:url(#clip-path-32)"><path d="M1338.5,1587.5s4,10,2,15-40,11-50,1l5,8,6,1,42,2,9-6v-5l-6-9Z" style="fill:#00ab47"/></g><path d="M1423.26,1611.5c13-2,14-31-5-34s-42.53,15.66-44.26,26.83S1423.26,1611.5,1423.26,1611.5Z" style="fill:#0cf280"/><g style="clip-path:url(#clip-path-33)"><path d="M1408.5,1577.5s15,5,16,12-8,28-53,15l4,7,15,2h41l3-8,1-13-5-11-10-6-12,2" style="fill:#00ab47"/></g><polygon points="323.86 1648.87 386.4 1677.01 356.5 1689.5 351.69 1731.77 323.86 1648.87" style="fill:#ffb682"/><polygon points="1294.5 1660.5 1307.5 1656.5 1314.5 1660.5 1304.5 1665.5 1294.5 1660.5" style="fill:#a14908"/><polygon points="1320.5 1656.5 1367.5 1648.5 1369.5 1658.5 1349.5 1665.5 1320.5 1665.5 1320.5 1656.5" style="fill:#a14908"/><polygon points="886.5 1780.41 900.36 1743.09 865.3 1747.59 886.5 1780.41" style="fill:#ff974d"/><polygon points="1561.18 1748.72 1602.98 1739.96 1586.62 1773.66 1561.18 1748.72" style="fill:#ff974d"/></g></g></svg>