<svg xmlns="http://www.w3.org/2000/svg" xmlns:xlink="http://www.w3.org/1999/xlink" viewBox="0 0 729.19 784"><defs><clipPath id="clip-path" transform="translate(0 13.01)"><path d="M375.67,367.49h-299L139.73,674a29.84,29.84,0,0,0,13.1,19.11c27.42,17.56,100.39,38.17,210.86,37.35C441,729.92,512.33,709.76,545,692.92a36.14,36.14,0,0,0,18.85-24.85l61.84-300.58Z" style="fill:#ea2727"/></clipPath><clipPath id="clip-path-2" transform="translate(0 13.01)"><path d="M7.45,247.65c6-27.49,7-105.53,59.8-126.63S172.78,57.7,193.88,43.63,369.76,15.49,419,15.49,517.5,33.08,545.65,71.77,665.24,180.82,686.35,216,711,325,668.76,360.22s-87.94,0-116.08,17.58-73.87,38.7-130.15,24.63S271.27,420,253.68,423.53s-172.36-21.1-197-35.17S-17.17,360.22,7.45,247.65Z" style="fill:#ff8b00"/></clipPath></defs><g style="isolation:isolate"><g id="Layer_2" data-name="Layer 2"><g id="Layer_3" data-name="Layer 3"><path d="M375.67,367.49h-299L139.73,674a29.84,29.84,0,0,0,13.1,19.11c27.42,17.56,100.39,38.17,210.86,37.35C441,729.92,512.33,709.76,545,692.92a36.14,36.14,0,0,0,18.85-24.85l61.84-300.58Z" transform="translate(0 13.01)" style="fill:#ea2727"/><g style="clip-path:url(#clip-path)"><g style="opacity:0.6000000000000001;mix-blend-mode:multiply"><path d="M207.76,671.47c-16.82-68.3-29.35-137.9-36.21-207.93l-5.1,3.89c6.74,2.8,7.08,12.54,8,18.7q2.15,13.81,4.28,27.63L187,567c5.61,36.16,10.71,72.44,17,108.49,1,5.55,9.79,4.17,9.7-1.31a55.85,55.85,0,0,0-.5-5.91c-.51-4.34-7.61-6.41-8.47-1.15a69.88,69.88,0,0,0-.91,7.06l9.7-1.31c-5.81-38.43-12.87-76.71-19.36-115l-9.66-57c-1.46-8.61-2.36-17.56-4.63-26-1.58-5.91-4.45-12.14-10.3-14.8-2.49-1.13-6.39.13-6.07,3.48,6.74,70.89,19.64,140.84,39.84,209.15a2.3,2.3,0,0,0,4.43-1.22Z" transform="translate(0 13.01)" style="fill:#d61212"/><path d="M171,473.47c2.84,23.92,6.58,47.73,10.46,71.51q2.88,17.64,5.79,35.29l3.05,18.63c1,5.92,1.5,11.9,4,17.41,1.8,4,7.32,1.54,7.6-2,.42-5.68-1.19-11.36-2.22-16.91L196.4,579.8l-6.66-36.08c-4.37-23.69-8.9-47.38-14.32-70.85-.56-2.42-4.73-2-4.42.6Z" transform="translate(0 13.01)" style="fill:#d61212"/><path d="M274.56,681.27c1.34-18.89-.87-37.58-3.13-56.3-2.17-18.09-4.22-36.2-5.94-54.34-1.67-17.62-3.35-35.32-3.94-53-.59-17.39.38-34.19,6.79-50.55l-10.11-1.36c2.06,36.89,2.28,74,3.24,110.89s1.93,73.93,2.89,110.9c.18,7,11.2,7.07,11,0q-1.79-55.46-3.58-110.9c-1.19-36.93-3.13-73.94-3.22-110.89,0-4.79-7.39-7.44-9.59-2.6-7,15.31-8.89,32.46-8.57,49.15.36,18.5,2.51,37.07,4.42,55.46q2.91,27.88,7,55.61c2.85,19.22,5.72,38.49,6.22,57.95.1,4.26,6.26,4.18,6.56,0Z" transform="translate(0 13.01)" style="fill:#d61212"/><path d="M341.6,695.92c-6.52-62.79-14.56-125.72-7.5-188.87a398.78,398.78,0,0,1,9.64-53.13l-7.58-1c4.59,81.22,2.46,162.39-.76,243.6h9.76c-4-35-7.52-70-9.44-105.12q-1.43-25.95-1.33-52c.09-17,1-34.23,5.9-50.65l-8.8-1.19c-.57,25.47-.85,50.95-.19,76.43s1.5,51,4.65,76.26c.71,5.63,9.45,6,9.1,0-1.5-25.44-3.81-50.78-4.67-76.26s-1-51,.07-76.43c.22-5.2-7.3-5.87-8.8-1.19-5.09,16-6.42,32.58-6.51,49.26-.1,17.93.65,35.86,1.54,53.77,1.76,35.77,5.13,71.46,8.72,107.09.62,6.18,9.42,6.38,9.76,0,4.41-81.08,2.11-162.53-1.28-243.6-.18-4.25-6.42-5.36-7.58-1-16.61,62-13.57,127.44-6.13,190.59,2.13,18.06,4.6,36.06,7.56,54,.36,2.16,4.1,1.69,3.87-.53Z" transform="translate(0 13.01)" style="fill:#d61212"/><path d="M431.61,679.32a983.45,983.45,0,0,1-2.19-111.66c1.29-37.34,5.75-74.12,10.16-111.17l-7.72,1c2.61,19,.94,38.6.31,57.69q-.93,27.87-1.93,55.75c-.65,18.59-1.19,37.17-1.73,55.76l-.82,27.88c-.28,9.49-.75,19.42.88,28.79.59,3.36,5.87,3.16,6.6,0,2.12-9.27,2.11-19.31,2.33-28.79l.64-27.88c.43-18.92.86-37.83,1.18-56.75s.64-37.84,1-56.75,1-37.85-.74-56.74c-.38-4.06-6.86-5.75-7.72-1.05-6.67,36.51-9.2,74.19-10.39,111.24A934.91,934.91,0,0,0,425,679.32c.37,4.23,7,4.29,6.65,0Z" transform="translate(0 13.01)" style="fill:#d61212"/><path d="M432.8,544.1a311.12,311.12,0,0,0-6.37,43.71c-1.05,14.36-1.88,30,1.71,44,.74,2.89,4.76,2.07,5-.67,1.06-14-.41-28.29.07-42.39a299.28,299.28,0,0,1,4.68-43.27c.6-3.28-4.33-4.73-5.06-1.4Z" transform="translate(0 13.01)" style="fill:#d61212"/><path d="M509.35,675.31c9.07-36.92,12-75.21,15.18-113,1.56-18.87,3.19-37.81,6-56.54,2.87-19.28,8-37.55,13.1-56.3l-9.62-1.3c.54,9.86-.65,20-1.64,29.79-1,10.13-2.4,20.2-4.05,30.24-3.13,19.11-7,38.08-10.73,57.08-7.53,38.28-14.37,76.89-13.66,116,.12,6.69,10.54,6.71,10.41,0-.78-39.48,6.17-78.46,13.43-117.11,3.57-19,7.22-38.07,10.08-57.24,1.44-9.64,2.75-19.31,3.75-29,1-9.91,1.15-19.9,2.2-29.79.65-6-7.69-5.87-9.61-1.3-7.39,17.55-10.8,37.41-13.63,56.15-2.79,18.46-4.36,37-5.55,55.64-2.47,38.52-3.4,77.07-12.14,114.84-1,4.23,5.47,6,6.51,1.8Z" transform="translate(0 13.01)" style="fill:#d61212"/></g><polygon points="423.19 373 351.19 784 640.18 767 682.18 340 423.19 373" style="fill:#ce1313;opacity:0.6000000000000001"/></g><path d="M261.69,38.49s2-30,12-33,33-8,41-4,28,12,33,23S261.69,38.49,261.69,38.49Z" transform="translate(0 13.01)" style="fill:#232533"/><path d="M559.69,117.49c2-4,23-17,38-12s27,15,28,31-3,30-9,32S559.69,117.49,559.69,117.49Z" transform="translate(0 13.01)" style="fill:#232533"/><path d="M19.69,228.49s-24-20-19-32,12-40,19-44,23,0,28,7S19.69,228.49,19.69,228.49Z" transform="translate(0 13.01)" style="fill:#232533"/><path d="M7.45,247.65c6-27.49,7-105.53,59.8-126.63S172.78,57.7,193.88,43.63,369.76,15.49,419,15.49,517.5,33.08,545.65,71.77,665.24,180.82,686.35,216,711,325,668.76,360.22s-87.94,0-116.08,17.58-73.87,38.7-130.15,24.63S271.27,420,253.68,423.53s-172.36-21.1-197-35.17S-17.17,360.22,7.45,247.65Z" transform="translate(0 13.01)" style="fill:#ff8b00"/><g style="clip-path:url(#clip-path-2)"><path d="M249.19,19c15,3,87,41,109,63s21,74,33,114,18,92-5,125-68,72-125,75-140-7.08-184.52-2-45.48,37-45.48,37l387,19,221-47,81-57,9-118s-68-91-70-92-99-88-99-88-110-61-113-61S249.19,19,249.19,19Z" transform="translate(0 13.01)" style="fill:#d85107;opacity:0.35000000000000003"/><path d="M197.69,150.49c-2.8-5.12,5-23,19-28s31-9,45-4,20,25,20,29S209.69,172.49,197.69,150.49Z" transform="translate(0 13.01)" style="fill:#232533"/><path d="M76.69,261.49c4.48-16.43,35-26,44-25s8,28,7,37S64.69,305.49,76.69,261.49Z" transform="translate(0 13.01)" style="fill:#232533"/><path d="M297.69,278.49c8.67-15.19,43-7,50-4s13,22,10,29S277.69,313.49,297.69,278.49Z" transform="translate(0 13.01)" style="fill:#232533"/><path d="M426.69,75.49c9-10.19,37-4,44,0s10,15,5,23S403.69,101.49,426.69,75.49Z" transform="translate(0 13.01)" style="fill:#232533"/><path d="M556.43,295.11c-.12-11.18,29.6-32.2,35.8-35.6s33.8-1.61,43-1,14.4,9.2,17.6,16.8-59.59,32.21-71.59,31.21S556.64,313.71,556.43,295.11Z" transform="translate(0 13.01)" style="fill:#232533"/><path d="M445.69,229.49c2.41-8.2,20-22,30-21s22,9,19,21S435.69,263.49,445.69,229.49Z" transform="translate(0 13.01)" style="fill:#232533"/><path d="M166.42,176.28c4.87-4,9.62-8.12,14.25-12.37,2.2-2,4.36-4.51,7-6,3.89-2.31,7.54-1.64,11.69-.65,12.08,2.87,24.43,4.83,36.88,4.44s24.08-2.69,35.91-5.92a47.79,47.79,0,0,1,19.61-1.51c6.7.93,13.06,3.23,19.71,4.38,2.15.38,3.64-2.45,1.56-3.68-11.18-6.59-24.57-10-37.45-7.56-7,1.31-13.79,3.65-20.77,5.1a145.05,145.05,0,0,1-21.38,2.64,145.72,145.72,0,0,1-20.58-.24c-6.62-.57-13.7-3-20.32-2.62-4.82.29-8.34,3.33-11.69,6.47-5.49,5.14-10.79,10.52-15.89,16a1.08,1.08,0,0,0,1.52,1.52Z" transform="translate(0 13.01)" style="fill:#a05000"/><path d="M61.37,274.93c22.59,20.61,56.7,16.26,83,5.44,3-1.24,2-5.66-1.37-5-14.51,3-28.32,8-43.35,8-12.69,0-26.51-2.67-36.92-10.27-1-.75-2.3.91-1.37,1.77Z" transform="translate(0 13.01)" style="fill:#a05000"/><path d="M269.07,302.08c17.35-5.22,34.28,5.71,51.26,7.95,17.46,2.3,35.06.92,52.39,4.61a1.69,1.69,0,0,0,.89-3.25c-17.68-6.17-36.86-3.08-55.1-6-16.5-2.66-33.44-11.65-50.29-6.35-2,.61-1.13,3.67.85,3.07Z" transform="translate(0 13.01)" style="fill:#a05000"/><path d="M423.08,250c7-5.86,16.43-3.37,24.48-1.64a46.81,46.81,0,0,0,19.47.39c6.54-1.3,12.75-3.9,18.77-6.68,6.8-3.15,13.66-5.93,20.53-8.9,1.54-.66.69-3.08-.83-3-7.18.11-13.88,4.59-20.14,7.68-7.53,3.73-15.52,7.29-24,8.24-13.23,1.48-28.81-8.26-40.24,2-1.32,1.19.6,3,1.92,1.93Z" transform="translate(0 13.01)" style="fill:#a05000"/><path d="M537,322.14c7.35-10.82,19.71-14.29,32.22-14.71,11.39-.39,22.34-1,33.45-3.83a162.41,162.41,0,0,0,30.44-11.39,146.23,146.23,0,0,0,15.3-8.36c4.45-2.85,9.64-5,13.6-8.49,1.25-1.1-.34-2.7-1.64-2.13-5.27,2.31-9.85,6.24-15,8.83-5.47,2.74-10.81,5.68-16.38,8.22a159.27,159.27,0,0,1-34.86,11.45c-18.7,3.73-46.89.69-58.4,19.65-.5.83.76,1.55,1.3.76Z" transform="translate(0 13.01)" style="fill:#a05000"/><path d="M405.74,91.64c9.21-4.81,18.25,0,26.53,4.35a63.76,63.76,0,0,0,19.12,6.8,199.46,199.46,0,0,0,20.55,2.08c3.69.23,7.39.42,11.05,1,3.93.63,7.7,2.1,11.62,2.64,3.32.45,5.38-3.53,2.35-5.57-6.29-4.24-15.94-4.51-23.29-4.85-8.06-.37-16.11.3-24.16-.42-8.8-.79-16.42-4.24-24.72-6.92-6.49-2.09-13.24-2.92-19.66-.16-.71.3-.1,1.42.61,1Z" transform="translate(0 13.01)" style="fill:#a05000"/></g></g></g></g></svg>