<svg width="1000" height="1000" viewBox="0 0 1000 1000" fill="none" xmlns="http://www.w3.org/2000/svg">
<ellipse cx="496.497" cy="803.621" rx="303.64" ry="40.5604" fill="#DBDBEE"/>
<path d="M662.197 799.593C685.237 782.943 730.523 757.16 727.345 787.225C724.167 817.289 682.589 807.997 662.197 799.593Z" fill="#161E33"/>
<path d="M657.403 600.47L662.197 799.593M662.197 799.593C685.237 782.943 730.523 757.16 727.345 787.225C724.167 817.289 682.589 807.997 662.197 799.593Z" stroke="#161E33" stroke-width="4.50671"/>
<path d="M345.572 799.593C322.532 782.943 277.247 757.16 280.424 787.225C283.602 817.289 325.18 807.997 345.572 799.593Z" fill="#161E33"/>
<path d="M350.367 600.47L345.572 799.593M345.572 799.593C322.532 782.943 277.247 757.16 280.424 787.225C283.602 817.289 325.18 807.997 345.572 799.593Z" stroke="#161E33" stroke-width="4.50671"/>
<path d="M670.716 176.836C666.316 172.436 659.182 172.436 654.782 176.836L503.812 327.807L352.841 176.836C348.441 172.436 341.307 172.436 336.907 176.836L238.119 275.625C233.719 280.025 233.719 287.158 238.119 291.558L389.09 442.529L238.118 593.501C233.718 597.901 233.718 605.034 238.118 609.434L336.906 708.223C341.306 712.623 348.44 712.623 352.84 708.223L503.812 557.251L654.783 708.223C659.183 712.623 666.317 712.623 670.717 708.223L769.506 609.434C773.906 605.034 773.905 597.901 769.506 593.501L618.534 442.529L769.505 291.558C773.905 287.158 773.905 280.025 769.505 275.625L670.716 176.836Z" fill="#50C0FF"/>
<mask id="mask0" mask-type="alpha" maskUnits="userSpaceOnUse" x="234" y="173" width="539" height="539">
<path d="M670.716 176.836C666.316 172.436 659.182 172.436 654.782 176.836L503.812 327.807L352.841 176.836C348.441 172.436 341.307 172.436 336.907 176.836L238.119 275.625C233.719 280.025 233.719 287.158 238.119 291.558L389.09 442.529L238.118 593.501C233.718 597.901 233.718 605.034 238.118 609.434L336.906 708.223C341.306 712.623 348.44 712.623 352.84 708.223L503.812 557.251L654.783 708.223C659.183 712.623 666.317 712.623 670.717 708.223L769.506 609.434C773.906 605.034 773.905 597.901 769.506 593.501L618.534 442.529L769.505 291.558C773.905 287.158 773.905 280.025 769.505 275.625L670.716 176.836Z" fill="#50C0FF"/>
</mask>
<g mask="url(#mask0)">
<g style="mix-blend-mode:multiply">
<path d="M234.546 636.843C567.754 561.109 627.22 296.601 615.302 173.813L661.557 127.62L821.545 285.354L661.557 436.329L799.012 614.344L661.557 747.292L508.329 596.318L350.594 747.292L234.546 636.843Z" fill="#2AABF3" fill-opacity="0.5"/>
</g>
</g>
<path d="M284.264 185.537C293.526 178.393 325.368 177.787 340.131 178.377L321.35 195.905C322.184 195.938 322.992 195.966 323.77 195.989C322.776 196.177 321.715 196.385 320.593 196.611L290.798 224.418L251.532 266.686C232.027 275.909 193.899 290.58 197.426 275.482C200.952 260.384 256.696 237.58 284.128 228.065C262.15 231.709 223.177 235.752 243.11 222.771C261.978 210.485 300.744 200.616 320.593 196.611L321.35 195.905C303.928 195.217 275.424 192.356 284.264 185.537Z" fill="#50C0FF"/>
<path d="M720.804 185.537C711.542 178.393 679.7 177.787 664.937 178.377L683.718 195.905C682.884 195.938 682.076 195.966 681.298 195.989C682.292 196.177 683.353 196.385 684.475 196.611L714.27 224.418L753.536 266.686C773.04 275.909 811.168 290.58 807.642 275.482C804.115 260.384 748.371 237.58 720.94 228.065C742.918 231.709 781.89 235.752 761.957 222.771C743.09 210.485 704.324 200.616 684.475 196.611L683.718 195.905C701.14 195.217 729.643 192.356 720.804 185.537Z" fill="#2E9FF9"/>
<path d="M416.006 388.854C449.562 413.76 540.697 417.499 594.616 388.851C583.217 423.058 544.067 474.789 500.257 474.789C462.297 474.789 414.184 406.388 416.006 388.854Z" fill="#006EAB"/>
<path d="M464.863 457.942C493.508 434.355 529.404 446.232 545.743 456.26C540.052 463.928 511.028 476.444 498.351 475.429C485.674 474.414 469.27 463.312 464.863 457.942Z" fill="#0D96E2"/>
<ellipse cx="355.002" cy="295.517" rx="50.7967" ry="59.8272" fill="white"/>
<path d="M397.639 261.128C359.723 256.863 322.155 290.387 306.026 310.167C305.09 311.315 303.33 311.303 302.552 310.043C290.917 291.194 294.424 251.896 327.914 235.693C360.66 219.85 391.76 241.238 399.935 258.234C400.665 259.754 399.315 261.317 397.639 261.128Z" fill="#77CEFF"/>
<circle cx="360.645" cy="285.36" r="11.2881" fill="#161E33"/>
<ellipse rx="50.7967" ry="59.8272" transform="matrix(-1 0 0 1 652.635 295.517)" fill="white"/>
<path d="M610.009 261.128C647.925 256.863 685.493 290.387 701.622 310.167C702.558 311.315 704.318 311.303 705.096 310.043C716.731 291.194 713.224 251.896 679.734 235.693C646.987 219.85 615.888 241.238 607.713 258.234C606.982 259.754 608.333 261.317 610.009 261.128Z" fill="#77CEFF"/>
<circle r="11.2881" transform="matrix(-1 0 0 1 646.992 285.36)" fill="#161E33"/>
</svg>
