<svg xmlns="http://www.w3.org/2000/svg" xmlns:xlink="http://www.w3.org/1999/xlink" viewBox="0 0 803.2 661.5"><defs><clipPath id="clip-path" transform="translate(0 26.31)"><path d="M79.35,270.19c2-18,12-71,49-88s52-10,64-7,5-29-33-33-91,21-115,81-20,134,35,185,172,32,238-46c0,0-72,83-73,152s14,109,87,106,80-48,85-87-33-51-56-43-29,30-19,28,25-17,36-8,14,57-24,69-71-17-59-68,37-102,97-142c0,0,11,86,76,126s164,18,194-13,62-84,45-139-74.63-81.86-108-61c-16,10-24,31-10,26s53-18,79,37-24,122-114,120-99-81-98-105c0,0,53,100.78,157,103,47,1,78,4,94-5s47-30,66-18,22,23,29,19-6-42-37-45-63,17-83,18-119,1-160-60-15-134-8-159,30-142-35-186-160-35-191,30-24,130-12,158,23,84-17,130-119,53-151,12S79.35,270.19,79.35,270.19Z" style="fill:#7f1dff"/></clipPath></defs><g id="Layer_2" data-name="Layer 2"><g id="octopus"><g id="Layer_4" data-name="Layer 4"><path d="M292.35,238.19s-25,59-74,63-128-2-188,76-15.5,152.66,2,141c6-4-34-55,47-134s163-13,163-13l52-35,8-82Z" transform="translate(0 26.31)" style="fill:#3b00ad"/><path d="M493.35,274.19s18,48,61,56,78,0,100-62,59-100,103-87,19,18-13,23-53.13,38-62,109c-2,16-70,98-176,56C506.35,369.19,456.35,323.19,493.35,274.19Z" transform="translate(0 26.31)" style="fill:#3b00ad"/><path d="M79.35,270.19c2-18,12-71,49-88s52-10,64-7,5-29-33-33-91,21-115,81-20,134,35,185,172,32,238-46c0,0-72,83-73,152s14,109,87,106,80-48,85-87-33-51-56-43-29,30-19,28,25-17,36-8,14,57-24,69-71-17-59-68,37-102,97-142c0,0,11,86,76,126s164,18,194-13,62-84,45-139-74.63-81.86-108-61c-16,10-24,31-10,26s53-18,79,37-24,122-114,120-99-81-98-105c0,0,53,100.78,157,103,47,1,78,4,94-5s47-30,66-18,22,23,29,19-6-42-37-45-63,17-83,18-119,1-160-60-15-134-8-159,30-142-35-186-160-35-191,30-24,130-12,158,23,84-17,130-119,53-151,12S79.35,270.19,79.35,270.19Z" transform="translate(0 26.31)" style="fill:#7f1dff"/><g style="clip-path:url(#clip-path)"><path d="M172.88,171.28S75.35,161.19,63.35,261.19s47.93,170.5,182,159.25l-82,29.75-94-28-43-73-5-105,47-86,102-30,38,30-9,25Z" transform="translate(0 26.31)" style="fill:#4a00bf;opacity:0.7000000000000001"/><path d="M245.35,480.19s-8,119,72,121,63-67,63-67l-44,2-11-37,24-22h36l50,23-6,49-37,73-102,13-51-42-16-74Z" transform="translate(0 26.31)" style="fill:#4a00bf;opacity:0.7000000000000001"/><path d="M435.35,477.19s122,42,195-10S692.66,293.41,605,303.8l-1.66,9.39-33,1,3-20,28-23,27-3,14,2,70,44,16,65-48,114-87,41-101-15Z" transform="translate(0 26.31)" style="fill:#4a00bf;opacity:0.7000000000000001"/><path d="M268.85,73.69s62-74,174-15,64,202,64,202l38-82-16-129-85-76-142,13Z" transform="translate(0 26.31)" style="fill:#4a00bf;opacity:0.7000000000000001"/></g><ellipse cx="443.85" cy="171" rx="23" ry="29" style="fill:#fff"/><ellipse cx="441.85" cy="149.69" rx="4.76" ry="5" transform="translate(-23.57 144.04) rotate(-14.79)" style="fill:#2e2835"/><ellipse cx="352.85" cy="171" rx="23" ry="29" style="fill:#fff"/><ellipse cx="354.85" cy="149.69" rx="5" ry="4.76" transform="matrix(0.26, -0.97, 0.97, 0.26, 119.56, 480.9)" style="fill:#2e2835"/><path d="M351,223.15A89.25,89.25,0,0,0,410.67,237a88.12,88.12,0,0,0,26.91-8.28,80.85,80.85,0,0,0,13-8c3.14-2.34,7.15-4.77,8.69-8.45.28-.65-.53-1.37-1.15-1.15-3.76,1.3-6.67,4.9-9.88,7.17a93.64,93.64,0,0,1-11,6.66,89.36,89.36,0,0,1-27,8.86c-20.26,3.35-41.14-1.06-58.74-11.47a.47.47,0,0,0-.48.81Z" transform="translate(0 26.31)" style="fill:#2e2835"/><g style="opacity:0.56"><path d="M312.3,63.91C317.67,57,322.53,49,330.21,44.4c1.67-1,4.55-2.85,6.62-2.73,5.22.3,2.43,4.95.86,7.35a28.57,28.57,0,0,1-8.91,8.32,60.48,60.48,0,0,1-12.51,5.73c-1.15.39-2.29.75-3.44,1.1q-2.79-.11-1.14,1.77c1.31-1.46,2.37-3.14,3.75-4.58a53.53,53.53,0,0,1,9.7-8.07,55.07,55.07,0,0,1,5.59-3.18c1-.51,4.66-2.18,4.62-2.19l-2.43-1.87.48.81L333,43.72c-.54,3.81-6.08,8.22-9,10.55a45.34,45.34,0,0,1-13,7.09l5.37,4.1c0-3,7.06-8.34,9.27-10.26a77.68,77.68,0,0,1,12.61-8.74l-6.39-3.67c.24,6.88-8.92,11.81-14.1,14.48-4.37,2.25-1.34,9.8,3.39,8.06,8.75-3.22,19.69-12.28,19.2-22.54a4.29,4.29,0,0,0-6.39-3.67,89.77,89.77,0,0,0-16,11.89c-4.08,3.81-9.88,8.47-10.08,14.45a4.28,4.28,0,0,0,5.38,4.1,52.16,52.16,0,0,0,18.42-10.93c3.54-3.27,10.87-9.91,9-15.4-4.12-12-28.67,9.88-32.48,14.26-3.45,4-8.19,11.27-1.52,14.86,3,1.62,6.21.46,9.24-.49a83.14,83.14,0,0,0,11.92-4.6c8.4-4.15,27.54-20.33,16.19-30.59-5.52-5-14.26-.42-19.25,3.2-7.38,5.36-12.37,13-16.35,21-1.15,2.34,2.06,5.37,3.91,3Z" transform="translate(0 26.31)" style="fill:#b694f7"/></g><g style="opacity:0.56"><path d="M383.25,20.5a58,58,0,0,1,11.82-1.11,29,29,0,0,1,4.46.33,10.86,10.86,0,0,1,3.11.79c.95-2,.71-2.8-.73-2.47-1-.48-3.16.07-4.38.06a45,45,0,0,1-5.81-.37,50.86,50.86,0,0,1-10.14-2.82V23.5c6.08-1.72,12.41-1.84,18.69-1.44,5.1.32,5-7.42,0-7.88-6.72-.61-13.19-.07-19.88.58-5.18.5-5.83,6.8-1.18,8.74,6.17,2.59,30.69,8.57,31.08-3.62.41-12.38-22.48-5.59-28.21-3.63a2.21,2.21,0,0,0,1.17,4.25Z" transform="translate(0 26.31)" style="fill:#b694f7"/></g><g style="opacity:0.56"><path d="M453,34.35a15.82,15.82,0,0,1,8.62,7l4.17-4.17c-1.53-1-3.35-1.49-5-2.32s-3.33-2-5.17-2.36a3.55,3.55,0,0,0-3.42,5.88c1.42,1.66,3.75,2.46,5.78,3.16a18.37,18.37,0,0,0,6.23,1.31,3.07,3.07,0,0,0,2.15-5.19c-3.64-3.74-8-5.08-13.17-5a.85.85,0,0,0-.23,1.66Z" transform="translate(0 26.31)" style="fill:#b694f7"/></g><g style="opacity:0.56"><path d="M402.49,53.76a28.61,28.61,0,0,1,6.92,0,27.72,27.72,0,0,1,3.95.72c.75.2,1.49.44,2.22.71,1.31,1.1,1.88.83,1.69-.82.37-2.16-.47-1.42-2.29-1.62a24.73,24.73,0,0,1-3.4-.61,25.35,25.35,0,0,1-6.71-2.92l-1,7.78c2.78-.65,5.92.26,8.34-1.37a3.13,3.13,0,0,0,1.11-4.23c-2.27-3.41-6.86-3.24-10.58-2.76s-6.3,5.74-2.15,7.93c4.75,2.51,21.05,8.05,22.39-1.19s-16.44-5.92-20.82-4.2c-1.24.49-1.25,2.78.35,2.58Z" transform="translate(0 26.31)" style="fill:#b694f7"/></g><g style="opacity:0.56"><path d="M467.87,65.25c6.85.54,19.31,5.22,21.15,12.89l4.3-5.64c-8.88.22-17.32-2.4-22.16-10.13L468.45,69c4.52-.72,8.63,2.81,11.82,5.53l4.26-7.32c-2.88-1.21-5.79-2.33-8.7-3.44-5.58-2.14-8.26,7.12-2.49,9,2.94,1,5.88,2,8.86,2.84,5,1.49,7.32-5.3,3.37-8-5.77-3.95-11.21-7-18.32-7.56a4.55,4.55,0,0,0-4.54,4.53c.89,13.48,20.6,19.63,31.79,16.6a4.52,4.52,0,0,0,2.67-6.55c-4.95-10-19.41-12.09-29.3-12.08a1.31,1.31,0,0,0,0,2.62Z" transform="translate(0 26.31)" style="fill:#b694f7"/></g></g></g></g></svg>