<svg xmlns="http://www.w3.org/2000/svg" xmlns:xlink="http://www.w3.org/1999/xlink" viewBox="0 0 463.97 859.98"><defs><clipPath id="clip-path" transform="translate(11.17 25.74)"><ellipse cx="261.53" cy="236.71" rx="166.08" ry="24.02" style="fill:#f4e1cb"/></clipPath><clipPath id="clip-path-2" transform="translate(11.17 25.74)"><path d="M2.89,21.13,172.73.16a21.17,21.17,0,0,1,23.44,17.35L320.41,726.45H292.29L166.92,36.36,9.92,51.59S-6.48,43.39,2.89,21.13Z" style="fill:#ea2727"/></clipPath><clipPath id="clip-path-5" transform="translate(11.17 25.74)"><path d="M403.59,475.72H115.37L130.6,744h0a5.65,5.65,0,0,0,0,.58c0,13.27,57.7,24,128.88,24s128.88-10.75,128.88-24a3.77,3.77,0,0,0,0-.58h0Z" style="fill:#ff8b00"/></clipPath><clipPath id="clip-path-6" transform="translate(11.17 25.74)"><ellipse cx="259.48" cy="476.31" rx="144.11" ry="24.02" style="fill:#ff9a00"/></clipPath></defs><g id="Layer_2" data-name="Layer 2"><g id="Layer_3" data-name="Layer 3"><g id="Layer_4" data-name="Layer 4"><ellipse cx="270.65" cy="786.75" rx="137.08" ry="24.02" style="fill:#fff1de"/><ellipse cx="272.7" cy="262.45" rx="166.08" ry="24.02" style="fill:#f4e1cb"/><g style="clip-path:url(#clip-path)"><path d="M2.89,21.13,172.73.16a21.17,21.17,0,0,1,23.44,17.35L320.41,726.45H292.29L166.92,36.36,9.92,51.59S-6.48,43.39,2.89,21.13Z" transform="translate(11.17 25.74)" style="fill:#ea2727"/><g style="clip-path:url(#clip-path-2)"><polygon points="196.83 0 265.75 544.64 331.57 510.83 220.27 25.78 196.83 0" style="fill:#ce0909"/><polyline points="176.92 62.1 0 66.78 23.43 84.36 176.92 62.1" style="fill:#ce0909"/></g><path d="M2.89,21.13,172.73.16a21.17,21.17,0,0,1,23.44,17.35L320.41,726.45H292.29L166.92,36.36,9.92,51.59S-6.48,43.39,2.89,21.13Z" transform="translate(11.17 25.74)" style="fill:#ea2727"/><g style="clip-path:url(#clip-path-2)"><polygon points="196.83 0 265.75 544.64 331.57 510.83 220.27 25.78 196.83 0" style="fill:#ce0909"/><polyline points="176.92 62.1 0 66.78 23.43 84.36 176.92 62.1" style="fill:#ce0909"/></g></g><path d="M2.89,21.13,172.73.16a21.17,21.17,0,0,1,23.44,17.35L320.41,726.45H292.29L166.92,36.36,9.92,51.59S-6.48,43.39,2.89,21.13Z" transform="translate(11.17 25.74)" style="fill:#ea2727"/><g style="clip-path:url(#clip-path-2)"><polygon points="196.83 0 265.75 544.64 331.57 510.83 220.27 25.78 196.83 0" style="fill:#ce0909"/><polyline points="176.92 62.1 0 66.78 23.43 84.36 176.92 62.1" style="fill:#ce0909"/></g><path d="M427.61,236.71c0,13.26-74.36,24-166.08,24S95.45,250,95.45,236.71H90.77L122.4,761.6H396.56L428.2,236.71Z" transform="translate(11.17 25.74)" style="fill:#f4ddc1;opacity:0.73"/><path d="M403.59,475.72H115.37L130.6,744h0a5.65,5.65,0,0,0,0,.58c0,13.27,57.7,24,128.88,24s128.88-10.75,128.88-24a3.77,3.77,0,0,0,0-.58h0Z" transform="translate(11.17 25.74)" style="fill:#ff8b00"/><g style="clip-path:url(#clip-path-5)"><polygon points="345.63 200.35 247.22 859.98 463.97 843.58 461.62 203.86 345.63 200.35" style="fill:#d85107;opacity:0.35000000000000003"/></g><ellipse cx="270.65" cy="502.04" rx="144.11" ry="24.02" style="fill:#ff9a00"/><g style="clip-path:url(#clip-path-6)"><path d="M2.89,21.13,192.7-2.3l83.77,478s-4.1,3.52-13.47,4.69a23.7,23.7,0,0,1-16.19-4.1L165.75,30.5,9.92,51.59S-6.48,43.39,2.89,21.13Z" transform="translate(11.17 25.74)" style="fill:#eaa48f"/></g><path d="M108.34,257.8s17.57,11.72,46.87,8.2l10.54,486.23s-14.06,1.17-25.78-7Z" transform="translate(11.17 25.74)" style="fill:#fff;opacity:0.49"/><path d="M229,205.08c10.32-.29,26.95,1.17,32.8,1.17,44.64,0,86.35,3.1,118,7.68,47.28,6.84,53.66,15.35,53.66,22.78,0,13.24-27.13,18.94-53.66,22.78-31.64,4.58-73.65,7.1-118.28,7.1s-86.64-2.52-118.27-7.1C96,252.65,89.59,244.14,89.59,236.71c0-13.24,27.13-18.94,53.67-22.78,16-2.32,33.82-6.48,54.12-7.68L199.73,218c-18,1.06-34.88,4.9-49.52,6.83-34.61,4.58-45.12,9.84-48.06,11.92,2.94,2.08,13.45,7.34,48.06,11.92,30.43,4,70,6.24,111.32,6.24s80.89-2.22,111.32-6.24c34.61-4.58,45.12-9.84,48.06-11.92-2.94-2.08-13.45-7.34-48.06-11.92-30.43-4-70-6.24-111.32-6.24-10,0-20.51-.84-30.17-.59Z" transform="translate(11.17 25.74)" style="fill:#fff2e6"/></g></g></g></svg>