<svg xmlns="http://www.w3.org/2000/svg" xmlns:xlink="http://www.w3.org/1999/xlink" viewBox="0 0 850 605"><defs><clipPath id="clip-path" transform="translate(21.2 3)"><path d="M450.8,428c27,2,124-4,194,0s-33,38-5,57,120-4,152,20-44,91-361,73-448-32.87-429-112C14.8,412,450.8,428,450.8,428Z" style="fill:#2abf12"/></clipPath><clipPath id="clip-path-2" transform="translate(21.2 3)"><path d="M573.8,46H56.8l31,416h0c0,.17,0,.33,0,.5,0,25.68,101.86,46.5,227.5,46.5s227.5-20.82,227.5-46.5c0-.17,0-.33,0-.5h0Z" style="fill:#edeef9"/></clipPath><clipPath id="clip-path-3" transform="translate(21.2 3)"><path d="M234.8,124c-1.9-20,4-43,18-43s208-5,227-8,73-24,66-31-48-17-58-15-2-20,13-21,51,4,73,24,22,65,14,94-8,104-5,162-62,186-74,90,14-128,0-168-60-73-72-26-12,129-44,96-1-99-45-117S238.8,166,234.8,124Z" style="fill:#2bbf11"/></clipPath></defs><g id="Layer_2" data-name="Layer 2"><g id="Layer_3" data-name="Layer 3"><g id="Layer_4" data-name="Layer 4"><path d="M450.8,428c27,2,124-4,194,0s-33,38-5,57,120-4,152,20-44,91-361,73-448-32.87-429-112C14.8,412,450.8,428,450.8,428Z" transform="translate(21.2 3)" style="fill:#2abf12"/><g style="clip-path:url(#clip-path)"><path d="M420.8,399s171,5,172,66-234,80-341,80-273-32-273-32l66,35,255,50,318,4,181-33,30-66-67-44-101-60Z" transform="translate(21.2 3)" style="fill:#176800;opacity:0.5"/></g><path d="M573.8,46H56.8l31,416h0c0,.17,0,.33,0,.5,0,25.68,101.86,46.5,227.5,46.5s227.5-20.82,227.5-46.5c0-.17,0-.33,0-.5h0Z" transform="translate(21.2 3)" style="fill:#edeef9"/><g style="clip-path:url(#clip-path-2)"><path d="M395.76,44.22S375.8,551,56.8,462l35,49,197,33,285-53,33-444-211-2.78" transform="translate(21.2 3)" style="fill:#d8daea"/></g><ellipse cx="336.5" cy="49.5" rx="258.5" ry="46.5" style="fill:#d8daea"/><polygon points="504.79 25.5 503 93 574 63 571 39 504.79 25.5" style="fill:#229e08"/><path d="M234.8,124c-1.9-20,4-43,18-43s208-5,227-8,73-24,66-31-48-17-58-15-2-20,13-21,51,4,73,24,22,65,14,94-8,104-5,162-62,186-74,90,14-128,0-168-60-73-72-26-12,129-44,96-1-99-45-117S238.8,166,234.8,124Z" transform="translate(21.2 3)" style="fill:#2bbf11"/><g style="clip-path:url(#clip-path-3)"><path d="M449,161.78S422.8,156,422.8,177s0,124-52,65l11,35,25,19,19-9L449,161.78" transform="translate(21.2 3)" style="fill:#176800;opacity:0.5"/><path d="M481.8,15s48-5,65,7,41,18,35,79S560,284.3,553.37,320.15,528.8,370,495.8,318l6,64,7,35,34,9,35-43,22-94-7-119,9-95-21-59-79-19-23,7Z" transform="translate(21.2 3)" style="fill:#176800;opacity:0.5"/></g><path d="M272.8,109S117.46,373.5,56.8,296c-18-23,18-97,18-97" transform="translate(21.2 3)" style="fill:none;stroke:#4a4c54;stroke-linecap:round;stroke-miterlimit:10;stroke-width:16px"/><polygon points="88.41 188.7 92.11 238.36 113 211 111 192 95 180 88.41 188.7" style="fill:#edeef9"/></g></g></g></svg>