<svg xmlns="http://www.w3.org/2000/svg" xmlns:xlink="http://www.w3.org/1999/xlink" viewBox="0 0 771.23 691.73"><defs><clipPath id="clip-path"><polygon points="523.96 477.14 361.75 446.34 489.05 328.62 523.96 477.14" style="fill:#7f1dff"/></clipPath><clipPath id="clip-path-2"><polygon points="663.02 328.53 497.96 324.82 604.17 187.77 663.02 328.53" style="fill:#ffba1f"/></clipPath><clipPath id="clip-path-3"><polygon points="351.6 602.38 202.92 530.58 356.39 449.88 351.6 602.38" style="fill:#ffba1f"/></clipPath><clipPath id="clip-path-4"><polygon points="168.66 691.73 34.8 595.08 200 542.41 168.66 691.73" style="fill:#7f1dff"/></clipPath><clipPath id="clip-path-5"><polygon points="759.38 168.72 595.21 186.21 682.97 36.67 759.38 168.72" style="fill:#7f1dff"/></clipPath></defs><g id="Layer_2" data-name="Layer 2"><g id="party-flags"><g id="Layer_4" data-name="Layer 4"><polygon points="523.96 477.14 361.75 446.34 489.05 328.62 523.96 477.14" style="fill:#7f1dff"/><g style="clip-path:url(#clip-path)"><polygon points="398.66 357.66 524.36 477 561.71 449.67 489.75 292.99 398.66 357.66" style="fill:#4a00bf;opacity:0.7000000000000001"/></g><polygon points="663.02 328.53 497.96 324.82 604.17 187.77 663.02 328.53" style="fill:#ffba1f"/><g style="clip-path:url(#clip-path-2)"><polygon points="677.4 334.89 518.9 237.42 595.42 161.81 633.68 203.72 677.4 334.89" style="fill:#f78f1c"/></g><polygon points="351.6 602.38 202.92 530.58 356.39 449.88 351.6 602.38" style="fill:#ffba1f"/><g style="clip-path:url(#clip-path-3)"><polygon points="279.32 466.98 351.29 602.71 377.7 585.4 365.86 456.96 352.2 428.72 279.32 466.98" style="fill:#f78f1c"/></g><polygon points="168.66 691.73 34.8 595.08 200 542.41 168.66 691.73" style="fill:#7f1dff"/><g style="clip-path:url(#clip-path-4)"><polygon points="117.18 542.58 167.94 691.11 220.11 602.71 227.4 489.75 117.18 542.58" style="fill:#4a00bf;opacity:0.7000000000000001"/></g><polygon points="759.38 168.72 595.21 186.21 682.97 36.67 759.38 168.72" style="fill:#7f1dff"/><g style="clip-path:url(#clip-path-5)"><polygon points="771.23 173.66 614.55 99.87 683.78 16.07 708.37 36.1 771.23 173.66" style="fill:#4a00bf;opacity:0.7000000000000001"/></g><path d="M702.45,6.5S515.71,496.58,6.5,598.61" style="fill:none;stroke:#3b3b3b;stroke-linecap:round;stroke-linejoin:round;stroke-width:13px"/></g></g></g></svg>