<svg xmlns="http://www.w3.org/2000/svg" xmlns:xlink="http://www.w3.org/1999/xlink" viewBox="0 0 877 606"><defs><clipPath id="clip-path" transform="translate(0 22.68)"><path d="M71,50.32s202-55,350-50,365,50,365,50,37-10,70,0c0,0-7,46-33,54,0,0,24,121,7,208s-59,194-59,194,28,16,15,43c0,0-50-8-56-43,0,0-284,94-603,0,0,0-21,43-56,43,0,0-15-25,13-40,0,0,102-184-47-406,0,0-36-11-37-54C0,49.32,40,34.32,71,50.32Z" style="fill:#4e88cd"/></clipPath></defs><g id="Layer_2" data-name="Layer 2"><g id="pillow"><g id="Layer_4" data-name="Layer 4"><path d="M45,79.32s-35,62-22,209,66,230,66,230l66-109-52-302Z" transform="translate(0 22.68)" style="fill:#63a2e0"/><path d="M71,50.32s202-55,350-50,365,50,365,50,37-10,70,0c0,0-7,46-33,54,0,0,24,121,7,208s-59,194-59,194,28,16,15,43c0,0-50-8-56-43,0,0-284,94-603,0,0,0-21,43-56,43,0,0-15-25,13-40,0,0,102-184-47-406,0,0-36-11-37-54C0,49.32,40,34.32,71,50.32Z" transform="translate(0 22.68)" style="fill:#4e88cd"/><g style="clip-path:url(#clip-path)"><path d="M192,9.32s330-6,447,97,116,457-398,438l131,27,482,12,23-561-407-45Z" transform="translate(0 22.68)" style="fill:#0d6099;opacity:0.5"/><path d="M53.39,64.85c13.54-9.4,28.19-17.13,43-24.25,1-.49.29-2.28-.78-1.85-15.47,6.38-29.47,15.1-42.82,25.13-.57.42,0,1.39.57,1Z" transform="translate(0 22.68)" style="fill:#0d6099"/><path d="M714.83,81.14c17.59-8.37,35.77-15.92,54-22.75Q782,53.49,795.29,49.2c8.58-2.76,17.84-4.69,26-8.63a1,1,0,0,0-.5-1.84c-9.26.94-18.46,4.67-27.21,7.68q-13.69,4.71-27.16,10.08a542,542,0,0,0-51.82,24.2c-.29.16,0,.59.26.45Z" transform="translate(0 22.68)" style="fill:#0d6099"/><path d="M798.71,95.67c11.83,7.13,27.43,11.23,41,7.08,1.15-.35,1-2.23-.3-2.17-14.09.69-26.88,0-39.64-6.77a1.08,1.08,0,0,0-1.08,1.86Z" transform="translate(0 22.68)" style="fill:#0d6099"/><path d="M757.75,491.68c-7.84,4.35-15.85,8.39-24,12-8,3.56-17.09,6.05-24.73,10.38-1.39.79-.4,2.69,1,2.44,8.36-1.45,16.87-6,24.5-9.62q12.54-6,24.43-13.2a1.17,1.17,0,0,0-1.18-2Z" transform="translate(0 22.68)" style="fill:#0d6099"/><path d="M763.15,505a56.18,56.18,0,0,0,18.65,5.59c1,.1,1.14-1.43.23-1.65a105.44,105.44,0,0,1-17.81-5.76c-1.22-.54-2.3,1.23-1.07,1.82Z" transform="translate(0 22.68)" style="fill:#0d6099"/><path d="M119.05,472.33c5.07,15.68,5.38,31.87,4.92,48.17,0,1,1.54,1.22,1.7.24,2.66-16.47-.7-33-6-48.57-.13-.37-.71-.22-.59.16Z" transform="translate(0 22.68)" style="fill:#0d6099"/><path d="M103.3,504.86c-9.52-.59-18.68.7-27.34,4.84-7.89,3.78-16.69,10.41-20.61,18.42-.31.62.47,1.31,1,.76,6.35-6.56,11.9-12.5,20.24-16.64a53.49,53.49,0,0,1,26.72-5.83c1,.06,1-1.49,0-1.55Z" transform="translate(0 22.68)" style="fill:#0d6099"/><path d="M85.33,132.15a241.24,241.24,0,0,1,28.28,62.18.65.65,0,0,0,1.26-.34,188.26,188.26,0,0,0-28.53-62.43c-.43-.61-1.42-.06-1,.59Z" transform="translate(0 22.68)" style="fill:#0d6099"/><path d="M143.42,288.59c2.33,37.88,4.43,77.23-8.16,113.68-.33,1,1.15,1.33,1.49.41,13.91-36.62,10.62-75.91,7.14-114.09,0-.3-.49-.31-.47,0Z" transform="translate(0 22.68)" style="fill:#0d6099"/><path d="M135,528.32s160-47,233-86,7.63,100-86.19,107S135,528.32,135,528.32Z" transform="translate(0 22.68)" style="fill:#0d6099;opacity:0.5"/><path d="M83,41.32s-42,32-44,38,72-22,109-50Z" transform="translate(0 22.68)" style="fill:#0d6099;opacity:0.5"/></g></g></g></g></svg>