<svg xmlns="http://www.w3.org/2000/svg" xmlns:xlink="http://www.w3.org/1999/xlink" viewBox="0 0 1873.69 1346"><defs><clipPath id="clip-path" transform="translate(44.4 5.13)"><path d="M1404.16,392.43c-8.06-16.25-41.3-99.93-46.63-157.56s-33.78-71.48-52.62-88.81-83.72-80-71.4-122.43,82-22,110.49,16.74,27.2,63.34,33.13,163.26,30.4,133.83,43.73,149.81,33.8,36.11,21.81,50S1412.26,408.76,1404.16,392.43Z" style="fill:#e68d00"/></clipPath><clipPath id="clip-path-2" transform="translate(44.4 5.13)"><path d="M1239.62,39.29c.88,14.37,16.15,55.56,53.35,83.75s56.7,15.56,59-5-23.5-77.7-66.74-96.65S1238.5,20.81,1239.62,39.29Z" style="fill:#ffb94d"/></clipPath><clipPath id="clip-path-3" transform="translate(44.4 5.13)"><path d="M1386.6,255.87c-9.84-4.92-33-12-38-4s2.29,90.71,47.23,57.07C1402.6,303.87,1402.6,263.87,1386.6,255.87Z" style="fill:#3d3c3f"/></clipPath><clipPath id="clip-path-4" transform="translate(44.4 5.13)"><path d="M919.6,697.87c0-5-103.63-255-70.29-303.25S960.22,255.37,1023.1,255.37c68.25,0,161,114.42,177.34,146.34s-64.55,240.47-86.54,273.1S919.6,697.87,919.6,697.87Z" style="fill:#439eff"/></clipPath><clipPath id="clip-path-5" transform="translate(44.4 5.13)"><path d="M887.1,410.37s136,65,267,0c0,0-17,76-28,95-6.41,11.08-56.45,45.9-111,47-39.06.79-80.36-24.76-110-47C893.1,496.37,887.1,410.37,887.1,410.37Z" style="fill:#3b100f"/></clipPath><clipPath id="clip-path-6" transform="translate(44.4 5.13)"><path d="M846.1,409.37c-15,3-50-50.57-87-70-29.5-15.5,57.83-54.63,125.5-136.5,55.1-66.68,90.7-169.28,149.5-180.5,68.9-13.15,116.09,115.39,168.5,204.5,47.22,80.3,134,123,105.5,129.5-29.26,6.68-97,74-110,54s-107-156-175-155S881.25,402.34,846.1,409.37Z" style="fill:#3e3c3f"/></clipPath><clipPath id="clip-path-7" transform="translate(44.4 5.13)"><rect x="517.67" y="20.61" width="40" height="719" rx="9.5" transform="translate(-74.15 136.69) rotate(-13.56)" style="fill:#b86800"/></clipPath><clipPath id="clip-path-8" transform="translate(44.4 5.13)"><path d="M287.51,788.67s16.15,39.42,41.13,91c.87,1.79,14.07,7.42,15,9.24s-6,11.07-5,13c6.7,13.6,12.33,22.53,20,37,.72,1.37,14.27,5.63,15,7,.9,1.7-4.92,10.3-4,12,40.07,74.32,81.49,136,125.76,155.1,119.39,51.43,501.25,47,816-160.87,72.36-47.78,144.22-184.9,181.66-300.34,1.69-5.21-11-4.78-9.45-9.89,1.63-5.38,17.48-16.29,19-21.54,15.44-55.41,21.43-102.77,13.7-128.1C1516.25,492.23,878.77,796.22,287.51,788.67Z" style="fill:#e68d00"/></clipPath><clipPath id="clip-path-9" transform="translate(44.4 5.13)"><path d="M1102.46,655.87s-9.86,161-279.86,293l211,63,306-18,180-227.33,23-284.67-61,10-379.14,164" style="fill:#cc7309"/></clipPath><clipPath id="clip-path-10" transform="translate(44.4 5.13)"><path d="M234.53,718.32l17.8,73.79a12.64,12.64,0,0,0,11,9.61c27.94,2.86,119,11.18,236.81,11.64,3.19,0,8.62-11,11.85-11,11.46,0,21,10.9,32.86,10.74,118.63-1.6,257.66-11.91,385.06-42.65a1369.09,1369.09,0,0,0,131.73-39.32c5.22-1.83,11-12,16.18-13.85,13.88-5,27.09-1.94,40.74-7.28,204.75-80,380.18-190.64,418.55-215.51a13.12,13.12,0,0,0,5.62-14.09l-17.64-73.11a11.4,11.4,0,0,0-17.45-6.79c-32.27,21.68-119.9,78.25-238.76,136.8-8.17,4-5.61,35.53-14.06,39.56-9.5,4.53-30.06-18.42-39.9-13.9-91.58,42-197.46,82.47-308.69,109.31q-31.23,7.53-62.51,13.57c-2.54.5-3,5.46-5.57,5.94-2.74.52-10.27-3-10.27-3L813.55,705s-8.28-12.12-11.63-11.56C675.77,714.31,553.21,719,454.16,717.58c-4.58-.06-8.84,7.44-13.33,7.35-4.25-.09-8.73-7.77-12.88-7.88-87-2.28-152.55-9-181.26-12.43A11.16,11.16,0,0,0,234.53,718.32Z" style="fill:#ffb94d"/></clipPath><clipPath id="clip-path-11" transform="translate(44.4 5.13)"><path d="M112.77,213.61s-34.45,177,65.67,272.19c0,0,190-125,327.43-118.08,0,0,6.45-2-5.39-22.36-19-32.78-46.88-115.49-33.88-183.49,1.5-7.85-5-9-11.85-6.07C454.75,155.8,157.33,133.94,112.77,213.61Z" style="fill:#3d3c3f"/></clipPath><clipPath id="clip-path-12" transform="translate(44.4 5.13)"><path d="M516.56,114.11s8.88-1.38,19,5.4,22.64,20.65,22.61,23.72-19,16.87-45.63,1.8S516.56,114.11,516.56,114.11Z" style="fill:#3d3c3f"/></clipPath><clipPath id="clip-path-13" transform="translate(44.4 5.13)"><path d="M482.13,117.8s-7.1-16.71,2.84-36a114.51,114.51,0,0,1,23.24-30.95S522,76,520.77,87s-6.38,27.65-6.38,27.65S488.91,130,482.13,117.8Z" style="fill:#3d3c3f"/></clipPath><clipPath id="clip-path-14" transform="translate(44.4 5.13)"><path d="M468.67,136.79s1.81-21.16,14.84-21.24,26.25.58,30.63-3.55,8.55,16.37,6.67,24.5S509.28,152.34,504,152.84,469,144.4,468.67,136.79Z" style="fill:#3d3c3f"/></clipPath><clipPath id="clip-path-15" transform="translate(44.4 5.13)"><path d="M455.28,157.68c-3-1.35,2.71-20.61,12.87-23.06s40.63,12.46,42.4,16.64S503.44,179.08,455.28,157.68Z" style="fill:#3d3c3f"/></clipPath><clipPath id="clip-path-16" transform="translate(44.4 5.13)"><path d="M541.67,337.13s-10.79-9.53-11.54-22.69,9.51-25.33,20.53-28c1.72-.42,1.28,17.88,7.88,32.66Z" style="fill:#3d3c3f"/></clipPath><clipPath id="clip-path-17" transform="translate(44.4 5.13)"><path d="M568.91,344.5s29.64,3.37,28.76-19.06c-.12-3-6.11-5.2-15.24-7.85s-22.84-3.58-27.86,6.72S568.91,344.5,568.91,344.5Z" style="fill:#3d3c3f"/></clipPath><clipPath id="clip-path-18" transform="translate(44.4 5.13)"><path d="M537.73,346s1.23-10,6.7-15,12-13.19,13.12-13.47,11.52,7.53,13.76,14.27.86,16.16-4.16,18S537.73,346,537.73,346Z" style="fill:#3d3c3f"/></clipPath><clipPath id="clip-path-19" transform="translate(44.4 5.13)"><path d="M512.06,355.19s2.33-5.42,10.08-8.5,20.49-5.55,29.35-4.05,22,3.19,22,8.05-1.88,19.86-24.8,25.39S512.06,355.19,512.06,355.19Z" style="fill:#3d3c3f"/></clipPath><clipPath id="clip-path-20" transform="translate(44.4 5.13)"><path d="M500.15,371.18c-2.79-1.53-3.2-20.84.55-25.38s35.39,26,51.41,24.59-1.1,13-19.56,14.42S500.15,371.18,500.15,371.18Z" style="fill:#3d3c3f"/></clipPath><clipPath id="clip-path-21" transform="translate(44.4 5.13)"><path d="M12.6,1113.87c-45.38-12.89,35-147,190-136s240-52,280-54-40,80,55,80c111,0,364-181,428-161s-36,154,266,133c83.32-5.79,264-150,116-240s286-39,322,101-45,165-45,165,17,33,66,47,84,117-66,105-427.55-37.58-365-14c61,23,72,11,141,24,166.44,31.36-513,73-767,71-70-.55-315-18-234-40s160-107,31-80S107.6,1140.87,12.6,1113.87Z" style="fill:#00bfe0"/></clipPath><clipPath id="clip-path-22" transform="translate(44.4 5.13)"><path d="M1297.59,1207.89s-188-111-248-155-101,14-88,70S809.78,1037.05,738.19,1014s-106.6,152.92-173.6,156.92-58-37-105-32-63,54-83,54-71-23-100-4-82,36-87,56,347-16,570,15S1423.59,1262.89,1297.59,1207.89Z" style="fill:#01cef2"/></clipPath></defs><g id="Layer_2" data-name="Layer 2"><g id="pirate-on-boat"><g id="hand"><path d="M1176.6,466.87s142,4,210-174" transform="translate(44.4 5.13)" style="fill:none;stroke:#3d3c3f;stroke-miterlimit:10;stroke-width:9px"/><path d="M1404.16,392.43c-8.06-16.25-41.3-99.93-46.63-157.56s-33.78-71.48-52.62-88.81-83.72-80-71.4-122.43,82-22,110.49,16.74,27.2,63.34,33.13,163.26,30.4,133.83,43.73,149.81,33.8,36.11,21.81,50S1412.26,408.76,1404.16,392.43Z" transform="translate(44.4 5.13)" style="fill:#e68d00"/><g style="clip-path:url(#clip-path)"><path d="M1229.38,30s6.53-38.14,61.92-12,75.14,78.54,77.22,137.17-4.6,152.27,78,253.43l5.35-26.33-50.07-78.91-14-97.94-4.72-85.29-21.87-74.9-33.52-27.81L1284.06-2.16l-37-1.28-20.06,24Z" transform="translate(44.4 5.13)" style="fill:#b86800"/></g><path d="M1239.62,39.29c.88,14.37,16.15,55.56,53.35,83.75s56.7,15.56,59-5-23.5-77.7-66.74-96.65S1238.5,20.81,1239.62,39.29Z" transform="translate(44.4 5.13)" style="fill:#ffb94d"/><g style="clip-path:url(#clip-path-2)"><path d="M1308.36,27.58s-37.76-8.71-26.76,43.29,51.28,74,65.64,68.53-14.64,22.47-14.64,22.47l-62-39-39-58v-65l43-5Z" transform="translate(44.4 5.13)" style="fill:#ffca78"/></g><path d="M1376.68,258s-18.08-24.17-10.08-32.17,15,0,17,12,9,30,9,30Z" transform="translate(44.4 5.13)" style="fill:#3d3c3f"/><path d="M1386.6,255.87c-9.84-4.92-33-12-38-4s2.29,90.71,47.23,57.07C1402.6,303.87,1402.6,263.87,1386.6,255.87Z" transform="translate(44.4 5.13)" style="fill:#3d3c3f"/><g style="clip-path:url(#clip-path-3)"><path d="M1382,252.86s22.64,67-29.36,49l12,18,22-2.92,19-14.08-11-48-12.64-2" transform="translate(44.4 5.13)" style="fill:#252526"/></g></g><path d="M866.6,466.87s-100,58-105,108,177,48,177,48" transform="translate(44.4 5.13)" style="fill:none;stroke:#3d3c3f;stroke-miterlimit:10;stroke-width:9px"/><path d="M919.6,697.87c0-5-103.63-255-70.29-303.25S960.22,255.37,1023.1,255.37c68.25,0,161,114.42,177.34,146.34s-64.55,240.47-86.54,273.1S919.6,697.87,919.6,697.87Z" transform="translate(44.4 5.13)" style="fill:#439eff"/><g style="clip-path:url(#clip-path-4)"><path d="M833.6,425.87s62-23,105-89,110-70,145-21-62,299-85,316-110,23-110,23l15,36,273-97.4,41-194.6-107-116-87-34-51,6Z" transform="translate(44.4 5.13)" style="fill:#1082e8"/><path d="M876.6,591.87c-4-12,2-45,11-34s26,38,30,57-25,28-30,21S876.6,591.87,876.6,591.87Z" transform="translate(44.4 5.13)" style="fill:#6bb3ff"/><path d="M860.28,470.7c.32-10,1.32-32.83,8.32-30.83s16,26,14,35S860,480.53,860.28,470.7Z" transform="translate(44.4 5.13)" style="fill:#6bb3ff"/><path d="M961.6,572.87c4.84-9.08,26,3,27,8S953.6,587.87,961.6,572.87Z" transform="translate(44.4 5.13)" style="fill:#6bb3ff"/><path d="M941.6,384.87c4-10,13-2,12,5S935.6,399.87,941.6,384.87Z" transform="translate(44.4 5.13)" style="fill:#6bb3ff"/><path d="M1046.6,413.87c9-5,15-11,19,0s-13,17-22,15S1037.6,418.87,1046.6,413.87Z" transform="translate(44.4 5.13)" style="fill:#6bb3ff"/><path d="M944.6,631.87c2.39-11.15,19-20,25-15s3,15-6,18S941.6,645.87,944.6,631.87Z" transform="translate(44.4 5.13)" style="fill:#6bb3ff"/><path d="M1041.6,605.87c3.67-6.29,15-14,22-11s11,11,6,16S1034.6,617.87,1041.6,605.87Z" transform="translate(44.4 5.13)" style="fill:#0072d9"/><path d="M1085.6,564.87c2.64-3.16,12-11,16-8s4,8,0,13S1080.6,570.87,1085.6,564.87Z" transform="translate(44.4 5.13)" style="fill:#0072d9"/><path d="M1179.25,515.1c-1.65-7.23-19.65-13.23-25.65-3.23s-15,43-9,48,23,4,28-2,6.65-42.77,6.65-42.77" transform="translate(44.4 5.13)" style="fill:#0072d9"/><path d="M1160.6,464.87c4-6.05,13,0,11,2S1156.6,470.87,1160.6,464.87Z" transform="translate(44.4 5.13)" style="fill:#0072d9"/><path d="M1177.6,424.87c5-3,13,1,13,6s-13,7-14,4S1177.6,424.87,1177.6,424.87Z" transform="translate(44.4 5.13)" style="fill:#0072d9"/><path d="M1112.6,365.87c4-2,12,0,12,5s-14,9-16,7S1112.6,365.87,1112.6,365.87Z" transform="translate(44.4 5.13)" style="fill:#0072d9"/><path d="M1159.14,357.43c-2.54,4.44-3.54,20.44,1.46,25.44s21,7,26,2-23.11-32.7-23.11-32.7l-4.35,5.26" transform="translate(44.4 5.13)" style="fill:#0072d9"/><path d="M1101.6,288.87c-1,1-7,18,0,23s28,3,31,1-31-24-31-24" transform="translate(44.4 5.13)" style="fill:#0072d9"/><path d="M975.6,266.87c3,6,7,15,1,21s-31.84,20.94-34.92,20,1.09-15,1.09-15Z" transform="translate(44.4 5.13)" style="fill:#0072d9"/><ellipse cx="1068" cy="339" rx="54" ry="71" style="fill:#006cbc"/></g><ellipse cx="1067.5" cy="344.5" rx="42.42" ry="56" style="fill:#fff"/><path d="M887.1,410.37s136,65,267,0c0,0-17,76-28,95-6.41,11.08-56.45,45.9-111,47-39.06.79-80.36-24.76-110-47C893.1,496.37,887.1,410.37,887.1,410.37Z" transform="translate(44.4 5.13)" style="fill:#3b100f"/><g style="clip-path:url(#clip-path-5)"><path d="M949.1,538.37s24-28,69-27,72,27,72,27S1017.1,579.37,949.1,538.37Z" transform="translate(44.4 5.13)" style="fill:#e8282c"/><path d="M932.1,536.37s-5-30,19-44c0,0-8,25,16,60Z" transform="translate(44.4 5.13)" style="fill:#fff"/><path d="M1107.66,536.37s5-30-19-44c0,0,8,25-16,60Z" transform="translate(44.4 5.13)" style="fill:#fff"/><polygon points="947.5 415.5 959.5 464.5 993.5 428.5 947.5 415.5" style="fill:#fff"/><polygon points="1007.5 431.5 1025.5 471.5 1055.5 435.5 1007.5 431.5" style="fill:#fff"/><polygon points="1078.5 440.5 1101.5 471.5 1123.5 433.5 1078.5 440.5" style="fill:#fff"/><polygon points="1134.5 431.5 1168.5 457.5 1181.5 419.5 1134.5 431.5" style="fill:#fff"/></g><path d="M846.1,409.37c-15,3-50-50.57-87-70-29.5-15.5,57.83-54.63,125.5-136.5,55.1-66.68,90.7-169.28,149.5-180.5,68.9-13.15,116.09,115.39,168.5,204.5,47.22,80.3,134,123,105.5,129.5-29.26,6.68-97,74-110,54s-107-156-175-155S881.25,402.34,846.1,409.37Z" transform="translate(44.4 5.13)" style="fill:#3e3c3f"/><g style="clip-path:url(#clip-path-6)"><path d="M814.6,409.87s124-117,142-162,16-257,174-205l46,80,81,145,75,82-51,45-64,32-41-1L1041.13,282.6l-46.53.27-106,112-60,34Z" transform="translate(44.4 5.13)" style="fill:#252526"/><path d="M757.6,345.87s134-102,168-148,69-160,122-149,92,130,112,162,141,157,141,157" transform="translate(44.4 5.13)" style="fill:none;stroke:#cfbf95;stroke-miterlimit:10;stroke-width:3px"/><path d="M1088.75,127.57c-6.43-14.69-10.1,3.68-10.1,3.68l-7.06,5.88c-8.39-6.35-20-9.78-30.6-9.56-13.44.28-24.57,2.41-32.28,8.73l-7.22-5.05s-2.75-15.62-11.94-3.68c0,0-15.61,7.35,6.43,8.27l7.23,6.57a35.93,35.93,0,0,0-4.93,12.26c-4.6,21.12,15.61,28.47,15.61,28.47L996,199.22c-21.13,1.83-7.35,11-7.35,11,6.43,11.94,11-2.76,11-2.76l23-19.29c4,2,2.92,7.79.4,13.61a10.53,10.53,0,0,0,9.77,14.7l15-.14a9.18,9.18,0,0,0,8.44-12.53,43.38,43.38,0,0,1-2.82-16.09l23.88,18.37s0,9.18,5.51,10.1,4.59-7.35,4.59-7.35,7.35,1.84,7.35-3.67-10.1-3.68-10.1-3.68l-23-18.37s17-5,20.2-14.69c3.31-9.91,1.24-18.36-3.81-25l8-6.72C1105.29,136.76,1088.75,127.57,1088.75,127.57ZM1039.15,179a21.13,21.13,0,1,1,21.13-21.13A21.12,21.12,0,0,1,1039.15,179Z" transform="translate(44.4 5.13)" style="fill:#cfbf95"/><path d="M1039.6,144.87c-8,0-14.89,9.46-14.89,13s6.46,6.43,14.44,6.43,14.45-2.88,14.45-6.43S1047.57,144.87,1039.6,144.87Z" transform="translate(44.4 5.13)" style="fill:#cfbf95"/></g><rect x="517.67" y="20.61" width="40" height="719" rx="9.5" transform="translate(-29.74 141.82) rotate(-13.56)" style="fill:#b86800"/><g style="clip-path:url(#clip-path-7)"><path d="M468.6,27.87s130,549,129,585,5,70-25,78,25,34,25,34l63.35-2,7.65-67-200-628h0" transform="translate(44.4 5.13)" style="fill:#944f00"/><path d="M474.6,34.87s-30,5-11,44,71,375,74,413l-113-465,34-21,16,29" transform="translate(44.4 5.13)" style="fill:#de7d00"/></g><g id="boat"><path d="M287.51,788.67s16.15,39.42,41.13,91c.87,1.79,14.07,7.42,15,9.24s-6,11.07-5,13c6.7,13.6,12.33,22.53,20,37,.72,1.37,14.27,5.63,15,7,.9,1.7-4.92,10.3-4,12,40.07,74.32,81.49,136,125.76,155.1,119.39,51.43,501.25,47,816-160.87,72.36-47.78,144.22-184.9,181.66-300.34,1.69-5.21-11-4.78-9.45-9.89,1.63-5.38,17.48-16.29,19-21.54,15.44-55.41,21.43-102.77,13.7-128.1C1516.25,492.23,878.77,796.22,287.51,788.67Z" transform="translate(44.4 5.13)" style="fill:#e68d00"/><g style="clip-path:url(#clip-path-8)"><path d="M379.29,955.05c73.38,6.07,147,5.79,220.56,3.1,73.76-2.7,147.51-8.48,221.1-14,35.87-2.71,71.72-5.92,107.23-11.73,35.67-5.83,70.72-14.43,105.62-23.74q103.4-27.58,205.09-61.34c66.92-22.23,133-46.88,197.89-74.52a239.65,239.65,0,0,0,24.06-11.59c2.92-1.65,1-6.54-2.32-5.49-16.66,5.34-32.56,12.74-48.76,19.37Q1385,785.2,1359.94,794.9q-49.08,19-98.75,36.39-100.37,35-202.84,63.63c-34.39,9.65-69,18.67-104.07,25.36-36,6.87-72.56,11.18-109,14.65q-109.07,10.38-218.6,16.28c-73.18,3.92-146.28,6.06-219.54,2.81q-13.9-.62-27.8-1.5c-1.64-.11-1.61,2.4,0,2.53Z" transform="translate(44.4 5.13)" style="fill:#ab6902"/><path d="M346.34,890.88c39.67,4.47,79.65,7,119.5,9.14s79.69,3.71,119.58,3.91a1295.45,1295.45,0,0,0,235.72-20.38c76.71-13.78,152.25-33.92,226.78-56.58,72.95-22.17,144.43-48.68,213.5-81.06,67.72-31.75,134.08-65.91,204.57-91.3,8.56-3.08,17.09-6.16,25.74-9,4.45-1.45,2.64-8.23-2-7-71.52,18.37-137.51,53.3-203.43,85.67-33.73,16.57-67.67,32.64-102.46,46.87-35.71,14.61-72.12,27.43-108.83,39.3-74,23.94-149.31,44.49-225.48,60.2a1276.57,1276.57,0,0,1-234.86,25.94c-79.8,1.47-159.41-2.16-239.09-6.08-9.76-.48-19.52-.75-29.29-.92-.86,0-.81,1.22,0,1.31Z" transform="translate(44.4 5.13)" style="fill:#ab6902"/><path d="M1102.46,655.87s-9.86,161-279.86,293l211,63,306-18,180-227.33,23-284.67-61,10-379.14,164" transform="translate(44.4 5.13)" style="fill:#cc7309"/><g style="clip-path:url(#clip-path-9)"><path d="M346.34,890.88c39.67,4.47,79.65,7,119.5,9.14s79.69,3.71,119.58,3.91a1295.45,1295.45,0,0,0,235.72-20.38c76.71-13.78,152.25-33.92,226.78-56.58,72.95-22.17,144.43-48.68,213.5-81.06,67.72-31.75,134.08-65.91,204.57-91.3,8.56-3.08,17.09-6.16,25.74-9,4.45-1.45,2.64-8.23-2-7-71.52,18.37-137.51,53.3-203.43,85.67-33.73,16.57-67.67,32.64-102.46,46.87-35.71,14.61-72.12,27.43-108.83,39.3-74,23.94-149.31,44.49-225.48,60.2a1276.57,1276.57,0,0,1-234.86,25.94c-79.8,1.47-159.41-2.16-239.09-6.08-9.76-.48-19.52-.75-29.29-.92-.86,0-.81,1.22,0,1.31Z" transform="translate(44.4 5.13)" style="fill:#945300"/><path d="M379.29,955.05c73.38,6.07,147,5.79,220.56,3.1,73.76-2.7,147.51-8.48,221.1-14,35.87-2.71,71.72-5.92,107.23-11.73,35.67-5.83,70.72-14.43,105.62-23.74q103.4-27.58,205.09-61.34c66.92-22.23,133-46.88,197.89-74.52a239.65,239.65,0,0,0,24.06-11.59c2.92-1.65,1-6.54-2.32-5.49-16.66,5.34-32.56,12.74-48.76,19.37Q1385,785.2,1359.94,794.9q-49.08,19-98.75,36.39-100.37,35-202.84,63.63c-34.39,9.65-69,18.67-104.07,25.36-36,6.87-72.56,11.18-109,14.65q-109.07,10.38-218.6,16.28c-73.18,3.92-146.28,6.06-219.54,2.81q-13.9-.62-27.8-1.5c-1.64-.11-1.61,2.4,0,2.53Z" transform="translate(44.4 5.13)" style="fill:#945300"/><path d="M1026.42,974c27.64-3.89,55.16-7.61,82.53-13.25q40-8.24,79.41-18.68c53.2-14.09,105.59-30.73,156.81-50.9,14.07-5.55,28-11.34,42-17.23s28.93-11.53,41.54-20.27c1.76-1.22.74-4.22-1.52-3.6-13,3.61-25.24,9.9-37.52,15.38-12.72,5.68-25.55,11.08-38.46,16.3-25.5,10.3-51.32,19.81-77.29,28.87A1401.38,1401.38,0,0,1,1117,955.21c-30,6.7-60.3,13.51-90.68,18.48-.18,0-.1.3.07.27Z" transform="translate(44.4 5.13)" style="fill:#b06300"/></g><path d="M278.6,815.87s421,53,702-41,576-257,576-257l-37-41-406,193-456,117-370,2Z" transform="translate(44.4 5.13)" style="fill:#b06208"/><path d="M327.6,962.87s162-65,180-59-4,54,13,77,384-154,443-152,25,132,168,134S1472.79,835,1325.69,720h0s15.91-74.08,172.91-29.08-68,50-68,50l5,123-84,99L1232,1004.7l-186.88-15.85-90.49-107-142,31-191.44,99-123.56,10-35-75-117,45Z" transform="translate(44.4 5.13)" style="fill:#6d3400;opacity:0.46"/></g><path d="M234.53,718.32l17.8,73.79a12.64,12.64,0,0,0,11,9.61c27.94,2.86,119,11.18,236.81,11.64,3.19,0,8.62-11,11.85-11,11.46,0,21,10.9,32.86,10.74,118.63-1.6,257.66-11.91,385.06-42.65a1369.09,1369.09,0,0,0,131.73-39.32c5.22-1.83,11-12,16.18-13.85,13.88-5,27.09-1.94,40.74-7.28,204.75-80,380.18-190.64,418.55-215.51a13.12,13.12,0,0,0,5.62-14.09l-17.64-73.11a11.4,11.4,0,0,0-17.45-6.79c-32.27,21.68-119.9,78.25-238.76,136.8-8.17,4-5.61,35.53-14.06,39.56-9.5,4.53-30.06-18.42-39.9-13.9-91.58,42-197.46,82.47-308.69,109.31q-31.23,7.53-62.51,13.57c-2.54.5-3,5.46-5.57,5.94-2.74.52-10.27-3-10.27-3L813.55,705s-8.28-12.12-11.63-11.56C675.77,714.31,553.21,719,454.16,717.58c-4.58-.06-8.84,7.44-13.33,7.35-4.25-.09-8.73-7.77-12.88-7.88-87-2.28-152.55-9-181.26-12.43A11.16,11.16,0,0,0,234.53,718.32Z" transform="translate(44.4 5.13)" style="fill:#ffb94d"/><g style="clip-path:url(#clip-path-10)"><path d="M1176.6,561.87s-30,150-85,189c0,0,419-150,490-274l-51-112Z" transform="translate(44.4 5.13)" style="fill:#ef9f35"/><path d="M612.79,754.16c29.6,5.73,65.6,14.45,92.93-3.37,1.52-1,.6-3.77-1.3-3.09-13.69,4.91-27.73,8.17-42.32,8.44-16.37.3-32.57-1.67-48.69-4.24-1.46-.24-2.12,2-.62,2.26Z" transform="translate(44.4 5.13)" style="fill:#ffb94d"/><path d="M741.44,702.21A69.76,69.76,0,0,0,735.92,730c.11,8.27,2,13.78,9.81,17.35,16.09,7.39,35.21,9.66,52.76,8.44,19-1.33,37.35-6.6,55.2-13,17.25-6.19,34.31-14.12,48.09-26.45,13.22-11.83,26.58-33.23,20-51.69a2.07,2.07,0,0,0-4,.55c-1,8-1.67,15.5-4.93,23.05a67.34,67.34,0,0,1-13.37,19.9c-11.27,11.63-25.75,18.93-40.13,25.93-28.8,14-65.39,25.12-97.25,15.88a95.05,95.05,0,0,1-13.89-5.1,19.64,19.64,0,0,1-5.28-3.16c-2.66-2.5-3-5.65-3.26-9.06a65.62,65.62,0,0,1,5.06-29.51c.82-2-2.43-2.87-3.26-.9Z" transform="translate(44.4 5.13)" style="fill:#e68d00"/><path d="M671.72,706.87a178.19,178.19,0,0,0-34,38.84c-8,12.21-10.89,26.72,2,36.62,5.12,3.94,11.32,6.37,17.41,8.37A226.22,226.22,0,0,0,684,798.11c18.16,3.55,36.79,4.63,55.25,4.38,37-.5,74.17-6.6,110.27-14.19,32.73-6.87,66.28-17.54,91-41.18,12.34-11.81,22.82-26.91,27.24-43.58,4.25-16,4.82-35.76-3.64-50.45a1.7,1.7,0,0,0-3.09,1.3c3.81,14.43,5.8,28.94,1.33,43.47-4.36,14.13-11.22,26.7-21.6,37.31-21.42,21.9-51,33.59-80.25,40.45a605.46,605.46,0,0,1-98.71,14.45c-33.21,2.13-67.45,1.53-100.13-5.32-7.15-1.5-15.1-3.31-20.72-8.3-7.57-6.71-5.12-16.4-.75-24.22,8.93-15.94,20.88-30.28,33.26-43.64a1.22,1.22,0,0,0-1.73-1.72Z" transform="translate(44.4 5.13)" style="fill:#e68d00"/><path d="M1063,625.1c8.55,9.12,13.83,19.9,15.08,32.42,1.39,13.86-3.75,25.89-10.1,37.91a163,163,0,0,1-20.09,29.68c-7.61,8.89-17,15.34-26.79,21.54-3,1.88-2,7.34,1.91,7.07,13.79-.93,24.67-10,33.29-20.19,9.13-10.84,16-23.83,20.7-37.16a93.14,93.14,0,0,0,4.43-41.57c-1.59-12-7-24.28-17-31.54-1.12-.81-2.3.91-1.42,1.84Z" transform="translate(44.4 5.13)" style="fill:#e68d00"/><path d="M1192.82,574.42c7.25,8.32,15,16.94,19.45,27.18,4.73,10.9,4.13,22.69,2.34,34.18a142.89,142.89,0,0,1-8.08,30.34,108.74,108.74,0,0,1-7.38,15c-2.7,4.65-6.21,8.78-7.3,14.14-.74,3.62,2.66,5.91,5.85,4.5,5.46-2.41,8.67-7.73,11.73-12.63a104.45,104.45,0,0,0,8.06-16.24c4.55-11.26,7.2-24.07,6.58-36.26-.59-11.62-2.48-23.63-7.8-34.09-5.41-10.63-13.59-19.24-21.86-27.68-1-1-2.54.51-1.59,1.6Z" transform="translate(44.4 5.13)" style="fill:#c7770e"/><path d="M1378.4,477.6c8.48,7.74,12.56,18.67,12.36,30.08-.23,12.94-5.57,25.49-8.65,37.9-2.8,11.27-5.65,22.56-9.38,33.57a164.67,164.67,0,0,1-6.56,16.75c-2.43,5.23-6.6,10.4-6.64,16.32a4.74,4.74,0,0,0,7,4c5.63-3,8.2-10.4,10.69-15.93a186.38,186.38,0,0,0,7-18,320.62,320.62,0,0,0,10.4-39.15c4.35-22.33,4.79-51.54-13.89-68-1.62-1.43-4,.91-2.39,2.39Z" transform="translate(44.4 5.13)" style="fill:#c7770e"/><path d="M527.28,715c-7.71,11.54-14.83,23.87-15.46,38.1-.59,13.49,9.05,24.7,18.8,32.94,10.73,9.06,23.22,15.16,36,20.79,13.67,6,28.32,13.79,43.31,15.53,2.43.29,2.62-3,1.11-4.1-10.95-8.19-24.93-12.71-37.25-18.47-11-5.14-21.81-10.62-31.79-17.56-9.6-6.68-18.32-15.56-22.29-26.78-4.84-13.65,3.75-27.3,10.57-38.7,1.16-1.93-1.76-3.59-3-1.75Z" transform="translate(44.4 5.13)" style="fill:#e68d00"/><path d="M419.21,717c-11.39,15.9-17.86,38.45-14.15,57.87a69.55,69.55,0,0,0,10.88,26c4.71,6.93,12.94,16.08,21.77,17.33a1.9,1.9,0,0,0,2.12-2.75c-1.87-3.33-5.19-6-7.61-9-2.58-3.17-5.24-6.3-7.71-9.57A69.83,69.83,0,0,1,413,773.45a73.89,73.89,0,0,1-2.67-27.18c1.07-10,5.78-19.64,11.49-27.78,1.11-1.59-1.48-3.06-2.6-1.51Z" transform="translate(44.4 5.13)" style="fill:#e68d00"/><path d="M272.74,710.53c6,25.11,16.23,47.32,32.26,67.67a190.62,190.62,0,0,0,26.35,27.31c9.41,8,19.87,16.3,31.45,20.84,2.75,1.07,3.94-3,1.87-4.46-10.12-7.29-20.92-13.24-30.52-21.32A183.83,183.83,0,0,1,309.26,775c-15.13-18.85-27.95-41.75-35.07-64.89a.75.75,0,0,0-1.45.4Z" transform="translate(44.4 5.13)" style="fill:#e68d00"/><path d="M330.24,638.7a112.18,112.18,0,0,1,34.23-22.42c12.58-5.28,25.62-6.8,38.82-9.61,1.65-.35,1.75-3.16,0-3.43-13.79-2.12-28.58,2-41.26,7.26a109.68,109.68,0,0,0-35.77,24.22c-2.56,2.58,1.36,6.49,4,4Z" transform="translate(44.4 5.13)" style="fill:#ffb94d"/></g></g><g id="flag"><path d="M112.77,213.61s-34.45,177,65.67,272.19c0,0,190-125,327.43-118.08,0,0,6.45-2-5.39-22.36-19-32.78-46.88-115.49-33.88-183.49,1.5-7.85-5-9-11.85-6.07C454.75,155.8,157.33,133.94,112.77,213.61Z" transform="translate(44.4 5.13)" style="fill:#3d3c3f"/><g style="clip-path:url(#clip-path-11)"><path d="M468.6,133.87l14,111.39,71.13,150.11L307.6,452.87c-50-111,102-337,105-341l56,22" transform="translate(44.4 5.13)" style="fill:#252526"/><path d="M210.6,477.87c-1-18,7-118,35-141s-19,89,9,120S210.6,477.87,210.6,477.87Z" transform="translate(44.4 5.13)" style="fill:#252526"/><path d="M313.6,139.87c-15,15-35,61-20,52s38-52,51-59S313.6,139.87,313.6,139.87Z" transform="translate(44.4 5.13)" style="fill:#252526"/></g></g><path d="M516.56,114.11s8.88-1.38,19,5.4,22.64,20.65,22.61,23.72-19,16.87-45.63,1.8S516.56,114.11,516.56,114.11Z" transform="translate(44.4 5.13)" style="fill:#3d3c3f"/><g style="clip-path:url(#clip-path-12)"><path d="M530.58,116.74s19,18.13,18,25.13-18,11-21,11l10,1,15-2,9-11-28-27-3,2.87" transform="translate(44.4 5.13)" style="fill:#252526"/></g><path d="M482.13,117.8s-7.1-16.71,2.84-36a114.51,114.51,0,0,1,23.24-30.95S522,76,520.77,87s-6.38,27.65-6.38,27.65S488.91,130,482.13,117.8Z" transform="translate(44.4 5.13)" style="fill:#3d3c3f"/><g style="clip-path:url(#clip-path-13)"><path d="M507.6,50.87s7,57-22,66l28.11-.26,5.89-4.74,5-31-15-34-2,4" transform="translate(44.4 5.13)" style="fill:#252526"/></g><path d="M468.67,136.79s1.81-21.16,14.84-21.24,26.25.58,30.63-3.55,8.55,16.37,6.67,24.5S509.28,152.34,504,152.84,469,144.4,468.67,136.79Z" transform="translate(44.4 5.13)" style="fill:#3d3c3f"/><g style="clip-path:url(#clip-path-14)"><path d="M491.6,112.87s20,2,22,7-10.47,19.63-18,24,10.53,3.63,10.53,3.63l-.51,4.45,9,3.92,8-18,2-19-7-11-13-2Z" transform="translate(44.4 5.13)" style="fill:#252526"/></g><path d="M455.28,157.68c-3-1.35,2.71-20.61,12.87-23.06s40.63,12.46,42.4,16.64S503.44,179.08,455.28,157.68Z" transform="translate(44.4 5.13)" style="fill:#3d3c3f"/><g style="clip-path:url(#clip-path-15)"><path d="M463.6,133.87s26.45,7.3,32,14-9,18-22,17l25,7,12-11,3-10L495,137.57l-28.37-6.7Z" transform="translate(44.4 5.13)" style="fill:#252526"/></g><path d="M541.67,337.13s-10.79-9.53-11.54-22.69,9.51-25.33,20.53-28c1.72-.42,1.28,17.88,7.88,32.66Z" transform="translate(44.4 5.13)" style="fill:#3d3c3f"/><g style="clip-path:url(#clip-path-16)"><path d="M551.6,281.87s-11.45,39.45-2.73,45.23,17.73-15.23,17.73-15.23Z" transform="translate(44.4 5.13)" style="fill:#252526"/></g><path d="M568.91,344.5s29.64,3.37,28.76-19.06c-.12-3-6.11-5.2-15.24-7.85s-22.84-3.58-27.86,6.72S568.91,344.5,568.91,344.5Z" transform="translate(44.4 5.13)" style="fill:#3d3c3f"/><g style="clip-path:url(#clip-path-17)"><path d="M595.6,319.87s3,20-27,17v11l11-1,14-5,7-13-1-9Z" transform="translate(44.4 5.13)" style="fill:#252526"/></g><path d="M537.73,346s1.23-10,6.7-15,12-13.19,13.12-13.47,11.52,7.53,13.76,14.27.86,16.16-4.16,18S537.73,346,537.73,346Z" transform="translate(44.4 5.13)" style="fill:#3d3c3f"/><g style="clip-path:url(#clip-path-18)"><path d="M540,332.65s34.21-8.8,21.6,12.22c-3,5,12,6,12,6l-3-30-10-5-16.28,0Z" transform="translate(44.4 5.13)" style="fill:#252526"/></g><path d="M512.06,355.19s2.33-5.42,10.08-8.5,20.49-5.55,29.35-4.05,22,3.19,22,8.05-1.88,19.86-24.8,25.39S512.06,355.19,512.06,355.19Z" transform="translate(44.4 5.13)" style="fill:#3d3c3f"/><g style="clip-path:url(#clip-path-19)"><path d="M534.6,341.87s23,5,27,13-19,17-19,17l31,8,2-32-33-11-20,5v5" transform="translate(44.4 5.13)" style="fill:#252526"/></g><path d="M500.15,371.18c-2.79-1.53-3.2-20.84.55-25.38s35.39,26,51.41,24.59-1.1,13-19.56,14.42S500.15,371.18,500.15,371.18Z" transform="translate(44.4 5.13)" style="fill:#3d3c3f"/><g style="clip-path:url(#clip-path-20)"><path d="M508.7,345.34s37.9,34.53,9.9,39.53c-18.56,3.32,50-8,50-8l-23.16-17.35Z" transform="translate(44.4 5.13)" style="fill:#252526"/></g><ellipse cx="1067.87" cy="334.8" rx="11.21" ry="14.8" style="fill:#3e3c3f"/><path d="M1550.6,645.87s37-100,96-53S1602.6,595.87,1550.6,645.87Z" transform="translate(44.4 5.13)" style="fill:#01cef2"/><path d="M1568.6,669.87s62-33,70,0S1625.6,670.87,1568.6,669.87Z" transform="translate(44.4 5.13)" style="fill:#01cef2"/><g id="wave-1"><path d="M12.6,1113.87c-45.38-12.89,35-147,190-136s240-52,280-54-40,80,55,80c111,0,364-181,428-161s-36,154,266,133c83.32-5.79,264-150,116-240s286-39,322,101-45,165-45,165,17,33,66,47,84,117-66,105-427.55-37.58-365-14c61,23,72,11,141,24,166.44,31.36-513,73-767,71-70-.55-315-18-234-40s160-107,31-80S107.6,1140.87,12.6,1113.87Z" transform="translate(44.4 5.13)" style="fill:#00bfe0"/><g style="clip-path:url(#clip-path-21)"><path d="M-44.4,1112.87s209,4,279-23,137-54,185-7,263,38,379-39,143,81,288,85,406-52,464-150,119-6,130,19,29-173,29-173L1588.34,710.39,1364.6,645.87l-199,45-473,190-172,100L498,895.09,46.6,973.87Z" transform="translate(44.4 5.13)" style="fill:#01cef2"/><path d="M10.6,1052.87s102-56,160-48,139,4,175-13,116-54,113-27-12,73,70,72,364-159,398-128,119,116.67,276,99.84,297-104.84,274-195.84,177-42,210,94l-6-140-169-98-215-13-633,251-239-17-329,45Z" transform="translate(44.4 5.13)" style="fill:#97f2ff"/></g><path d="M1525.6,1178.87c43.53,14.51,249,3,291,0s-28-19-97-8S1486.6,1165.87,1525.6,1178.87Z" transform="translate(44.4 5.13)" style="fill:#01cef2"/><path d="M367.6,1145.87c-75,2-163,17-231,7s-27,19,26,23,218-25,244-30S367.6,1145.87,367.6,1145.87Z" transform="translate(44.4 5.13)" style="fill:#01cef2"/></g><g id="wave-2"><path d="M1297.59,1207.89s-188-111-248-155-101,14-88,70S809.78,1037.05,738.19,1014s-106.6,152.92-173.6,156.92-58-37-105-32-63,54-83,54-71-23-100-4-82,36-87,56,347-16,570,15S1423.59,1262.89,1297.59,1207.89Z" transform="translate(44.4 5.13)" style="fill:#01cef2"/><g style="clip-path:url(#clip-path-22)"><path d="M1349.06,1226.87s-158-39-231-86-107-37-116,20-227-96-277-86-113,121-172,112-109-33-127-14-36,42-87,22-141,13-141,13l49-78,338-88,131-62,135,32,94,44,66-44Z" transform="translate(44.4 5.13)" style="fill:#97f2ff"/><path d="M153.6,1247.87s192-5,270-13,269-69,338-68,158,66,219,68,82.39-26.66,144.69-19.33,172.31,16.33,194.31,36.33-117,89-117,89-583-4-597-2-465-51-465-51Z" transform="translate(44.4 5.13)" style="fill:#02bfe0"/></g><path d="M216.6,1212.87c28.76-13.15-164.09,19.17-129,46,34,26,124,22,124,15,0-5.1-106-10-90-26S216.6,1212.87,216.6,1212.87Z" transform="translate(44.4 5.13)" style="fill:#01cef2"/><path d="M1345.6,1213.87c-6,7,6,66-121,70s106,22,140-25S1351.6,1206.87,1345.6,1213.87Z" transform="translate(44.4 5.13)" style="fill:#01cef2"/><path d="M476.6,1272.87c-63-4-201-8-198,6s218,6,255,5S476.6,1272.87,476.6,1272.87Z" transform="translate(44.4 5.13)" style="fill:#01cef2"/></g></g></g></svg>