<svg xmlns="http://www.w3.org/2000/svg" xmlns:xlink="http://www.w3.org/1999/xlink" viewBox="0 0 904.06 1463.28"><defs><clipPath id="clip-path" transform="translate(112.25 5.13)"><path d="M744.08,392.43c-8.06-16.25-41.3-99.93-46.64-157.56s-33.78-71.48-52.61-88.81-83.72-80-71.4-122.43,82-22,110.49,16.74,27.19,63.34,33.13,163.26,30.4,133.83,43.73,149.81,33.79,36.11,21.8,50S752.17,408.76,744.08,392.43Z" style="fill:#e68d00"/></clipPath><clipPath id="clip-path-2" transform="translate(112.25 5.13)"><path d="M579.54,39.29c.87,14.37,16.14,55.56,53.34,83.75s56.7,15.56,59-5-23.49-77.7-66.74-96.65S578.41,20.81,579.54,39.29Z" style="fill:#ffb94d"/></clipPath><clipPath id="clip-path-3" transform="translate(112.25 5.13)"><path d="M726.51,255.87c-9.84-4.92-33-12-38-4s2.29,90.71,47.24,57.07C742.51,303.87,742.51,263.87,726.51,255.87Z" style="fill:#3d3c3f"/></clipPath><clipPath id="clip-path-4" transform="translate(112.25 5.13)"><path d="M547,396.15c-12-67-116.75-182-185-182-62.88,0-163.18,120.53-181,186-15.4,56.58,54.53,263.27,78,287s172.78,20.3,194.77-12.34S553.36,431.44,547,396.15ZM466,505.37c-6.41,11.08-56.44,45.9-111,47-39.06.79-80.36-24.76-110-47-12-9-18-95-18-95s136,65,267,0C494,410.37,477,486.37,466,505.37Z" style="fill:#439eff"/></clipPath><clipPath id="clip-path-5" transform="translate(112.25 5.13)"><path d="M186,409.37c-15,3-50-50.57-87-70-29.5-15.5,57.84-54.63,125.5-136.5,55.11-66.68,90.7-169.28,149.5-180.5,68.91-13.15,116.09,115.39,168.5,204.5,47.22,80.3,134,123,105.5,129.5-29.26,6.68-97,74-110,54s-107-156-175-155S221.16,402.34,186,409.37Z" style="fill:#3e3c3f"/></clipPath><clipPath id="clip-path-6" transform="translate(112.25 5.13)"><path d="M633.3,706.25H340.55v.47H48.2s-108.45,291.75,0,610.79c0,36.64,131.07,128.93,292.76,128.93s292.75-92.29,292.75-128.93c0-.49,0-1-.07-1.47C741.53,997.39,633.3,706.25,633.3,706.25Z" style="fill:#e68d02"/></clipPath><clipPath id="clip-path-7" transform="translate(112.25 5.13)"><path d="M541.51,735.62s115.32,527.52-397.84,656l248.77,54.8,286.06-103.3,53-323-61.26-274Z" style="fill:#cd7309"/></clipPath><clipPath id="clip-path-8" transform="translate(112.25 5.13)"><path d="M-25.56,1030.14s258.22,192,727,0l-6.06,43s-90.12,90-343.13,99c-119.74,4.26-316.28-18-377.8-99Z" style="fill:#995507"/></clipPath><clipPath id="clip-path-9" transform="translate(112.25 5.13)"><path d="M42.72,723.16,23,768.14s58.92,85,310.34,98c104.88,5.43,330.86-39,336.93-120l-43.67-57.53L435.42,766.14l-225.29-14L78,706.72Z" style="fill:#995507"/></clipPath><clipPath id="clip-path-10" transform="translate(112.25 5.13)"><path d="M633.71,709.46c0,49.53-131.07,89.68-292.75,89.68S48.2,759,48.2,709.46,179.27,598.78,341,598.78,633.71,659.92,633.71,709.46Z" style="fill:#91521c;stroke:#ffb94d;stroke-miterlimit:10;stroke-width:16px"/></clipPath><clipPath id="clip-path-11" transform="translate(112.25 5.13)"><path d="M615.65,733.45c0,47.43-123,85.87-274.69,85.87s-274.7-38.44-274.7-85.87,123-106,274.7-106S615.65,686,615.65,733.45Z" style="fill:#e68d00"/></clipPath></defs><g id="Layer_2" data-name="Layer 2"><g id="pirate-with-barrel"><polygon points="344.28 527.28 312.28 400.28 371.28 400.28 490.32 423.59 598.28 400.28 618.28 413.28 612.28 470.28 589.28 533.28 516.28 561.28 421.28 569.28 344.28 527.28" style="fill:#3b100f"/><g id="legs"><path d="M305.36,787.25c3.09-9.24-42.62-24.35-56,0S300.49,801.87,305.36,787.25Z" transform="translate(112.25 5.13)" style="fill:#3d3c3f"/><line x1="413.27" y1="793.51" x2="419.42" y2="699.15" style="fill:none;stroke:#3d3c3f;stroke-miterlimit:10;stroke-width:9px"/><path d="M399.76,790.25c-3.08-9.24,42.63-24.35,56,0S404.63,804.87,399.76,790.25Z" transform="translate(112.25 5.13)" style="fill:#3d3c3f"/><line x1="516.35" y1="793.51" x2="510.2" y2="699.15" style="fill:none;stroke:#3d3c3f;stroke-miterlimit:10;stroke-width:9px"/></g><path d="M206.51,466.87s-100,58-105,108,177,48,177,48" transform="translate(112.25 5.13)" style="fill:none;stroke:#3d3c3f;stroke-miterlimit:10;stroke-width:9px"/><g id="hand"><path d="M516.54,466.65s142,4.22,210-173.78" transform="translate(112.25 5.13)" style="fill:none;stroke:#3d3c3f;stroke-miterlimit:10;stroke-width:9px"/><path d="M744.08,392.43c-8.06-16.25-41.3-99.93-46.64-157.56s-33.78-71.48-52.61-88.81-83.72-80-71.4-122.43,82-22,110.49,16.74,27.19,63.34,33.13,163.26,30.4,133.83,43.73,149.81,33.79,36.11,21.8,50S752.17,408.76,744.08,392.43Z" transform="translate(112.25 5.13)" style="fill:#e68d00"/><g style="clip-path:url(#clip-path)"><path d="M569.29,30s6.53-38.14,61.92-12,75.14,78.54,77.22,137.17-4.6,152.27,78,253.43l5.35-26.33-50.07-78.91-14-97.94-4.72-85.29-21.87-74.9L667.67,17.41,624-2.16l-37-1.28-20.06,24Z" transform="translate(112.25 5.13)" style="fill:#b86800"/></g><path d="M579.54,39.29c.87,14.37,16.14,55.56,53.34,83.75s56.7,15.56,59-5-23.49-77.7-66.74-96.65S578.41,20.81,579.54,39.29Z" transform="translate(112.25 5.13)" style="fill:#ffb94d"/><g style="clip-path:url(#clip-path-2)"><path d="M648.28,27.58s-37.77-8.71-26.77,43.29,51.28,74,65.64,68.53-14.64,22.47-14.64,22.47l-62-39-39-58v-65l43-5Z" transform="translate(112.25 5.13)" style="fill:#ffca78"/></g><path d="M716.59,258s-18.08-24.17-10.08-32.17,15,0,17,12,9,30,9,30Z" transform="translate(112.25 5.13)" style="fill:#3d3c3f"/><path d="M726.51,255.87c-9.84-4.92-33-12-38-4s2.29,90.71,47.24,57.07C742.51,303.87,742.51,263.87,726.51,255.87Z" transform="translate(112.25 5.13)" style="fill:#3d3c3f"/><g style="clip-path:url(#clip-path-3)"><path d="M721.87,252.86s22.64,67-29.36,49l12,18,22-2.92,19-14.08-11-48-12.64-2" transform="translate(112.25 5.13)" style="fill:#252526"/></g></g><g id="mouth"><path d="M289,538.37s24-28,69-27,72,27,72,27S357,579.37,289,538.37Z" transform="translate(112.25 5.13)" style="fill:#e8282c"/><polygon points="355.26 415.5 367.26 464.5 401.26 428.5 355.26 415.5" style="fill:#fff"/><polygon points="415.26 431.5 433.26 471.5 463.26 435.5 415.26 431.5" style="fill:#fff"/><polygon points="486.26 440.5 509.26 471.5 531.26 433.5 486.26 440.5" style="fill:#fff"/><polygon points="542.26 431.5 576.26 457.5 589.26 419.5 542.26 431.5" style="fill:#fff"/><path d="M547,396.15c-12-67-116.75-182-185-182-62.88,0-163.18,120.53-181,186-15.4,56.58,54.53,263.27,78,287s172.78,20.3,194.77-12.34S553.36,431.44,547,396.15ZM466,505.37c-6.41,11.08-56.44,45.9-111,47-39.06.79-80.36-24.76-110-47-12-9-18-95-18-95s136,65,267,0C494,410.37,477,486.37,466,505.37Z" transform="translate(112.25 5.13)" style="fill:#439eff"/><g style="clip-path:url(#clip-path-4)"><path d="M173.51,425.87s62-23,105-89,110-70,145-21-59.49,303.08-85,316c-83.47,42.28-110,23-110,23L236,726.15l239-7,82.47-320.28L516,235.15l-138-48-193,48Z" transform="translate(112.25 5.13)" style="fill:#1082e8"/><path d="M216.51,591.87c-4-12,2-45,11-34s26,38,30,57-25,28-30,21S216.51,591.87,216.51,591.87Z" transform="translate(112.25 5.13)" style="fill:#6bb3ff"/><path d="M519.16,515.1c-1.65-7.23-19.65-13.23-25.65-3.23s-15,43-9,48,23,4,28-2,6.65-42.77,6.65-42.77" transform="translate(112.25 5.13)" style="fill:#0072d9"/><path d="M441.51,288.87c-12.47-5.72-7,18,0,23s19.47,15.73,31,1-31-24-31-24" transform="translate(112.25 5.13)" style="fill:#0072d9"/><path d="M305.51,261.87c20.53,1.28,7,15,1,21s-31.84,20.94-34.92,20,1.1-15,1.1-15S285,260.6,305.51,261.87Z" transform="translate(112.25 5.13)" style="fill:#0072d9"/></g><g id="body"><path d="M272,524.15s-5-17.78,19-31.78c0,0-13,12.78,11,47.78,0,0-8.49-3.73-15-7A169,169,0,0,1,272,524.15Z" transform="translate(112.25 5.13)" style="fill:#fff"/><path d="M448,521.15s4.54-14.78-19.46-28.78c0,0,15.46,9.78-8.54,44.78,0,0,13.2-6.83,17-9S448,521.15,448,521.15Z" transform="translate(112.25 5.13)" style="fill:#fff"/><path d="M200.2,470.7c.31-10,1.31-32.83,8.31-30.83s16,26,14,35S199.88,480.53,200.2,470.7Z" transform="translate(112.25 5.13)" style="fill:#6bb3ff"/><path d="M301.51,572.87c4.84-9.08,26,3,27,8S293.51,587.87,301.51,572.87Z" transform="translate(112.25 5.13)" style="fill:#6bb3ff"/><path d="M281.51,384.87c4-10,13-2,12,5S275.51,399.87,281.51,384.87Z" transform="translate(112.25 5.13)" style="fill:#6bb3ff"/><path d="M386.51,413.87c9-5,15-11,19,0s-13,17-22,15S377.51,418.87,386.51,413.87Z" transform="translate(112.25 5.13)" style="fill:#6bb3ff"/><path d="M284.51,631.87c2.39-11.15,19-20,25-15s3,15-6,18S281.51,645.87,284.51,631.87Z" transform="translate(112.25 5.13)" style="fill:#6bb3ff"/><path d="M381.51,605.87c3.67-6.29,15-14,22-11s11,11,6,16S374.51,617.87,381.51,605.87Z" transform="translate(112.25 5.13)" style="fill:#0072d9"/><path d="M425.51,564.87c2.64-3.16,12-11,16-8s4,8,0,13S420.51,570.87,425.51,564.87Z" transform="translate(112.25 5.13)" style="fill:#0072d9"/><path d="M500.51,464.87c4-6.05,13,0,11,2S496.51,470.87,500.51,464.87Z" transform="translate(112.25 5.13)" style="fill:#0072d9"/><path d="M517.51,424.87c5-3,13,1,13,6s-13,7-14,4S517.51,424.87,517.51,424.87Z" transform="translate(112.25 5.13)" style="fill:#0072d9"/><path d="M452.51,365.87c4-2,12,0,12,5s-14,9-16,7S452.51,365.87,452.51,365.87Z" transform="translate(112.25 5.13)" style="fill:#0072d9"/><path d="M499.05,357.43c-2.54,4.44-3.54,20.44,1.46,25.44s21,7,26,2S532,365.15,516,352.15s-17,5.28-17,5.28" transform="translate(112.25 5.13)" style="fill:#0072d9"/></g></g><g id="hat"><path d="M186,409.37c-15,3-50-50.57-87-70-29.5-15.5,57.84-54.63,125.5-136.5,55.11-66.68,90.7-169.28,149.5-180.5,68.91-13.15,116.09,115.39,168.5,204.5,47.22,80.3,134,123,105.5,129.5-29.26,6.68-97,74-110,54s-107-156-175-155S221.16,402.34,186,409.37Z" transform="translate(112.25 5.13)" style="fill:#3e3c3f"/><g style="clip-path:url(#clip-path-5)"><path d="M154.51,409.87s124-117,142-162,16-257,174-205l46,80,81,145,75,82-51,45-64,32-41-1L381,282.6l-46.53.27-106,112-60,34Z" transform="translate(112.25 5.13)" style="fill:#252526"/><path d="M97.51,345.87s134-102,168-148,69-160,122-149,92,130,112,162,141,157,141,157" transform="translate(112.25 5.13)" style="fill:none;stroke:#cfbf95;stroke-miterlimit:10;stroke-width:3px"/><path d="M428.66,127.57c-6.43-14.69-10.1,3.68-10.1,3.68l-7.06,5.88c-8.39-6.35-20-9.78-30.6-9.56-13.44.28-24.56,2.41-32.28,8.73l-7.22-5.05s-2.75-15.62-11.94-3.68c0,0-15.61,7.35,6.43,8.27l7.23,6.57a35.93,35.93,0,0,0-4.93,12.26c-4.59,21.12,15.61,28.47,15.61,28.47l-17.91,16.08c-21.12,1.83-7.35,11-7.35,11,6.43,11.94,11-2.76,11-2.76l23-19.29c4.05,2,2.92,7.79.4,13.61a10.53,10.53,0,0,0,9.77,14.7l15-.14a9.18,9.18,0,0,0,8.44-12.53,43.62,43.62,0,0,1-2.82-16.09l23.88,18.37s0,9.18,5.51,10.1,4.6-7.35,4.6-7.35,7.35,1.84,7.35-3.67-10.11-3.68-10.11-3.68l-23-18.37s17-5,20.21-14.69c3.3-9.91,1.24-18.36-3.82-25l8-6.72C445.2,136.76,428.66,127.57,428.66,127.57ZM379.06,179a21.13,21.13,0,1,1,21.13-21.13A21.13,21.13,0,0,1,379.06,179Z" transform="translate(112.25 5.13)" style="fill:#cfbf95"/><path d="M379.51,144.87c-8,0-14.89,9.46-14.89,13s6.47,6.43,14.44,6.43,14.45-2.88,14.45-6.43S387.49,144.87,379.51,144.87Z" transform="translate(112.25 5.13)" style="fill:#cfbf95"/></g></g><g id="eye"><path d="M313.31,337.8c0-10.12,3.67-74.65,51.43-74.65s51.83,62.4,51.83,74.85-9.05,67.15-54.93,67.15S313.31,347.93,313.31,337.8Z" transform="translate(112.25 5.13)" style="fill:#006cbc"/><path d="M321,342.15c0-8,3-59,42-59s42.34,49.32,42.34,59.16-7.4,53.06-44.87,53.06S321,350.15,321,342.15Z" transform="translate(112.25 5.13)" style="fill:#fff"/><path d="M351.85,330c0-2.16.81-15.89,11.31-15.89s11.4,13.28,11.4,15.93-2,14.29-12.08,14.29S351.85,332.19,351.85,330Z" transform="translate(112.25 5.13)" style="fill:#3e3c3f"/></g><g id="bottle"><path d="M633.3,706.25H340.55v.47H48.2s-108.45,291.75,0,610.79c0,36.64,131.07,128.93,292.76,128.93s292.75-92.29,292.75-128.93c0-.49,0-1-.07-1.47C741.53,997.39,633.3,706.25,633.3,706.25Z" transform="translate(112.25 5.13)" style="fill:#e68d02"/><g style="clip-path:url(#clip-path-6)"><path d="M447,839.64s124,317-11,563" transform="translate(112.25 5.13)" style="fill:none;stroke:#a85f07;stroke-miterlimit:10;stroke-width:7px"/><path d="M541.51,735.62s115.32,527.52-397.84,656l248.77,54.8,286.06-103.3,53-323-61.26-274Z" transform="translate(112.25 5.13)" style="fill:#cd7309"/><g style="clip-path:url(#clip-path-7)"><path d="M447,839.64s124,317-11,563" transform="translate(112.25 5.13)" style="fill:none;stroke:#8f5106;stroke-miterlimit:10;stroke-width:7px"/></g><line x1="453.25" y1="848.77" x2="453.25" y2="1423.77" style="fill:none;stroke:#a85f07;stroke-miterlimit:10;stroke-width:7px"/><path d="M242.74,839.64s-123.74,304,11,563" transform="translate(112.25 5.13)" style="fill:none;stroke:#a85f07;stroke-miterlimit:10;stroke-width:7px"/><path d="M557,828.64s125,256-11,563" transform="translate(112.25 5.13)" style="fill:none;stroke:#8f5106;stroke-miterlimit:10;stroke-width:7px"/><path d="M132.67,828.64s-141.67,260,11,563" transform="translate(112.25 5.13)" style="fill:none;stroke:#a85f07;stroke-miterlimit:10;stroke-width:7px"/><path d="M-6,1111.64s338,183,696-21l-8.5-29.17L412,1140.64H226l-241-64Z" transform="translate(112.25 5.13)" style="fill:#6d3400;opacity:0.30000000000000004"/><path d="M29,1318.15s134.52,78.9,333.59,70c102.9-4.6,216.42-20.41,318.87-124l-74.46,114-172,68-163,12-121-42-76-41Z" transform="translate(112.25 5.13)" style="fill:#995507"/><path d="M-25.56,1030.14s258.22,192,727,0l-6.06,43s-90.12,90-343.13,99c-119.74,4.26-316.28-18-377.8-99Z" transform="translate(112.25 5.13)" style="fill:#995507"/><g style="clip-path:url(#clip-path-8)"><path d="M541.51,735.62s115.32,527.52-397.84,656l248.77,54.8,286.06-103.3,53-323-61.26-274Z" transform="translate(112.25 5.13)" style="fill:#804400"/></g><path d="M14,737.58.5,783.14s351,236,689.5-2.5l-30.5-64.5" transform="translate(112.25 5.13)" style="fill:#6d3400;opacity:0.30000000000000004"/><path d="M42.72,723.16,23,768.14s58.92,85,310.34,98c104.88,5.43,330.86-39,336.93-120l-43.67-57.53L435.42,766.14l-225.29-14L78,706.72Z" transform="translate(112.25 5.13)" style="fill:#995507"/><g style="clip-path:url(#clip-path-9)"><path d="M541.51,735.62s115.32,527.52-397.84,656l248.77,54.8,286.06-103.3,53-323-56-321Z" transform="translate(112.25 5.13)" style="fill:#6d3400;opacity:0.46"/></g></g><path d="M633.71,709.46c0,49.53-131.07,89.68-292.75,89.68S48.2,759,48.2,709.46,179.27,598.78,341,598.78,633.71,659.92,633.71,709.46Z" transform="translate(112.25 5.13)" style="fill:#91521c"/><g style="clip-path:url(#clip-path-10)"><path d="M615.65,733.45c0,47.43-123,85.87-274.69,85.87s-274.7-38.44-274.7-85.87,123-106,274.7-106S615.65,686,615.65,733.45Z" transform="translate(112.25 5.13)" style="fill:#e68d00"/><g style="clip-path:url(#clip-path-11)"><path d="M351.5,577.14S561.8,755.5,95.15,771.82h0L222.5,840.14l261.53.42L691,735.14l-9.52-128Z" transform="translate(112.25 5.13)" style="fill:#cd7309"/><line x1="166.32" y1="695.74" x2="499.2" y2="804.27" style="fill:none;stroke:#a85f07;stroke-miterlimit:10;stroke-width:3px"/><line x1="264.25" y1="652.77" x2="701.25" y2="794.77" style="fill:none;stroke:#a85f07;stroke-miterlimit:10;stroke-width:3px"/><line x1="395.25" y1="624.77" x2="756.38" y2="745.73" style="fill:none;stroke:#a85f07;stroke-miterlimit:10;stroke-width:3px"/></g></g><path d="M633.71,709.46c0,49.53-131.07,89.68-292.75,89.68S48.2,759,48.2,709.46,179.27,598.78,341,598.78,633.71,659.92,633.71,709.46Z" transform="translate(112.25 5.13)" style="fill:none;stroke:#ffb94d;stroke-miterlimit:10;stroke-width:16px"/></g></g></g></svg>