<svg xmlns="http://www.w3.org/2000/svg" xmlns:xlink="http://www.w3.org/1999/xlink" viewBox="0 0 798.25 828.1"><defs><clipPath id="clip-path" transform="translate(0 15.02)"><path d="M291,167.31s60.51-16.94,67.77-46S341.85,63.24,320.07,58.4,288.61,39,295.87,24.51s16.94-26.62,29-24.2,31.47,16.94,60.51,41.15,38.73,62.92,46,77.45,31.46,33.88,67.76,43.56,43.57,33.88-4.84,48.41S177.5,214,291,167.31Z" style="fill:#a05000"/></clipPath><clipPath id="clip-path-2" transform="translate(0 15.02)"><ellipse cx="666.5" cy="470.16" rx="120" ry="262.55" style="fill:#ff8b00"/></clipPath><clipPath id="clip-path-3" transform="translate(0 15.02)"><ellipse cx="546.5" cy="470.16" rx="138" ry="301.93" style="fill:#ff8b00"/></clipPath><clipPath id="clip-path-4" transform="translate(0 15.02)"><ellipse cx="120" cy="470.16" rx="120" ry="262.55" style="fill:#ff8b00"/></clipPath><clipPath id="clip-path-5" transform="translate(0 15.02)"><ellipse cx="240" cy="470.16" rx="138" ry="301.93" style="fill:#ff8b00"/></clipPath><clipPath id="clip-path-6" transform="translate(0 15.02)"><ellipse cx="397.5" cy="470.16" rx="149" ry="326" style="fill:#ff8b00"/></clipPath></defs><g id="Layer_2" data-name="Layer 2"><g id="Layer_3" data-name="Layer 3"><path d="M291,167.31s60.51-16.94,67.77-46S341.85,63.24,320.07,58.4,288.61,39,295.87,24.51s16.94-26.62,29-24.2,31.47,16.94,60.51,41.15,38.73,62.92,46,77.45,31.46,33.88,67.76,43.56,43.57,33.88-4.84,48.41S177.5,214,291,167.31Z" transform="translate(0 15.02)" style="fill:#a05000"/><g style="clip-path:url(#clip-path)"><path d="M282.5,5c14,8,58,23,78,36s44,43,37,70-32,53-24,69,142,37,142,37l25-41-2-32L324.5-15Z" transform="translate(0 15.02)" style="fill:#6b2b00;opacity:0.29"/></g><ellipse cx="666.5" cy="485.18" rx="120" ry="262.55" style="fill:#ff8b00"/><g style="clip-path:url(#clip-path-2)"><path d="M630,198s77.49,51,69.49,291-99,289-99,289l-22-74,68-255-46.45-212.4L630,198" transform="translate(0 15.02)" style="fill:#d85107;opacity:0.35000000000000003"/><path d="M162.25,144.08s295,24,435,151,53,434-162,455-315-17-315-17l156,80,252-17,138-35,120-63s12-308,12-324-42-200-42-200l-325-55Z" transform="translate(0 15.02)" style="fill:#d85107;opacity:0.35000000000000003"/></g><ellipse cx="546.5" cy="485.18" rx="138" ry="301.93" style="fill:#ff8b00"/><g style="clip-path:url(#clip-path-3)"><path d="M486.5,168s62,20,81,223-57,442-114,399l23-110,14-346-22-139Z" transform="translate(0 15.02)" style="fill:#d85107;opacity:0.35000000000000003"/><path d="M162.25,144.08s295,24,435,151,53,434-162,455-315-17-315-17l156,80,252-17,138-35,120-63s12-308,12-324-42-200-42-200l-325-55Z" transform="translate(0 15.02)" style="fill:#d85107;opacity:0.35000000000000003"/></g><ellipse cx="120" cy="485.18" rx="120" ry="262.55" style="fill:#ff8b00"/><g style="clip-path:url(#clip-path-4)"><path d="M152.5,184s-67,88-66,270c1.21,220.58,60,289,60,289l28.44-29.08L156.5,461l29.41-278.09Z" transform="translate(0 15.02)" style="fill:#d85107;opacity:0.35000000000000003"/></g><ellipse cx="240" cy="485.18" rx="138" ry="301.93" style="fill:#ff8b00"/><g style="clip-path:url(#clip-path-5)"><path d="M307.5,161s-77,64-79,300,80,320,80,320l28-48-1-546Z" transform="translate(0 15.02)" style="fill:#d85107;opacity:0.35000000000000003"/><path d="M162.25,144.08s295,24,435,151,53,434-162,455-315-17-315-17l156,80,252-17,138-35,120-63s12-308,12-324-42-200-42-200l-325-55Z" transform="translate(0 15.02)" style="fill:#d85107;opacity:0.35000000000000003"/></g><ellipse cx="397.5" cy="485.18" rx="149" ry="326" style="fill:#ff8b00"/><g style="clip-path:url(#clip-path-6)"><path d="M162.25,144.08s295,24,435,151,53,434-162,455-315-17-315-17l156,80,252-17,138-35,120-63s12-308,12-324-42-200-42-200l-325-55Z" transform="translate(0 15.02)" style="fill:#d85107;opacity:0.35000000000000003"/></g><ellipse cx="201.61" cy="261.32" rx="39.9" ry="30.37" transform="translate(-128.34 267.9) rotate(-50.88)" style="fill:#fff;opacity:0.45"/><ellipse cx="162.42" cy="330.15" rx="21.5" ry="16.37" transform="translate(-204.34 374.59) rotate(-68.39)" style="fill:#fff;opacity:0.45"/></g></g></svg>