<svg xmlns="http://www.w3.org/2000/svg" xmlns:xlink="http://www.w3.org/1999/xlink" viewBox="0 0 551.72 617"><defs><clipPath id="clip-path" transform="translate(0 16.17)"><path d="M322,28.69s62-51,97-17,88,85,88,85,10,16,0,46-20,40-20,40Z" style="fill:#c9c9f4"/></clipPath><clipPath id="clip-path-2" transform="translate(0 16.17)"><path d="M189.44,28.69s-62-51-97-17-88,85-88,85-10,16,0,46,20,40,20,40Z" style="fill:#c9c9f4"/></clipPath><clipPath id="clip-path-3" transform="translate(0 16.17)"><rect x="347" y="521.69" width="116" height="51" rx="25.5" transform="translate(304.46 1220.49) rotate(-135)" style="fill:#c9c9f4"/></clipPath><clipPath id="clip-path-4" transform="translate(0 16.17)"><rect x="48" y="521.69" width="116" height="51" rx="25.5" transform="translate(-355.87 235.22) rotate(-45)" style="fill:#c9c9f4"/></clipPath><clipPath id="clip-path-5" transform="translate(0 16.17)"><circle cx="256" cy="325.69" r="238" style="fill:#7900ff"/></clipPath><clipPath id="clip-path-6" transform="translate(0 16.17)"><circle cx="257.33" cy="325.69" r="192" style="fill:#fff"/></clipPath></defs><g id="Layer_2" data-name="Layer 2"><g id="purple-clock"><g id="Layer_4" data-name="Layer 4"><path d="M494,51.69s-4,22-18,36-81,78-81,78l-51-46,79-85s16-23,32-18Z" transform="translate(0 16.17)" style="fill:#4a00bf"/><path d="M322,28.69s62-51,97-17,88,85,88,85,10,16,0,46-20,40-20,40Z" transform="translate(0 16.17)" style="fill:#c9c9f4"/><g style="clip-path:url(#clip-path)"><path d="M425.11,16s49.61,59.85,51.61,89.85-27,56-27,56l39,36,46-92-32-35L425.11,16" transform="translate(0 16.17)" style="fill:#b9b9ea"/></g><path d="M17.44,51.69s4,22,18,36,81,78,81,78l51-46-79-85s-16-23-32-18Z" transform="translate(0 16.17)" style="fill:#4a00bf"/><path d="M189.44,28.69s-62-51-97-17-88,85-88,85-10,16,0,46,20,40,20,40Z" transform="translate(0 16.17)" style="fill:#c9c9f4"/><g style="clip-path:url(#clip-path-2)"><path d="M75.72,15.83s95.11-17.29,56.55,72.36h0l53.45-35.36,16-37-59-32-48,4Z" transform="translate(0 16.17)" style="fill:#b9b9ea"/></g><rect x="347" y="521.69" width="116" height="51" rx="25.5" transform="translate(304.46 1236.65) rotate(-135)" style="fill:#c9c9f4"/><g style="clip-path:url(#clip-path-3)"><path d="M387.72,505.83s49,47,48,63-18,26-35,16l11,16,42-9,18-17-22-43-45-33Z" transform="translate(0 16.17)" style="fill:#b9b9ea"/></g><rect x="48" y="521.69" width="116" height="51" rx="25.5" transform="translate(-355.87 251.39) rotate(-45)" style="fill:#c9c9f4"/><g style="clip-path:url(#clip-path-4)"><path d="M150.72,511.83s-70,102-103,49l-6,21,40,18,56-17,36-60-23-11" transform="translate(0 16.17)" style="fill:#b9b9ea"/></g><rect x="232" y="86.85" width="63" height="35" style="fill:#b9b9ea"/><circle cx="256" cy="341.85" r="238" style="fill:#7900ff"/><g style="clip-path:url(#clip-path-5)"><polygon points="343.72 104 189.72 611 321.72 611 480.72 534 551.72 334 493.72 214 343.72 104" style="fill:#4a00bf;opacity:0.7000000000000001"/></g><circle cx="257.33" cy="341.85" r="192" style="fill:#fff"/><g style="clip-path:url(#clip-path-6)"><polygon points="327.72 145 208.72 542 298.72 553 400.72 498 462.72 413 469.72 328 428.72 223 327.72 145" style="fill:#b9b9ea;opacity:0.25"/></g><rect x="216" y="68.85" width="95" height="23" style="fill:#c9c9f4"/><rect x="252.83" y="172.85" width="9" height="56" style="fill:#9b9bd1"/><rect x="252.83" y="458.85" width="9" height="56" style="fill:#9b9bd1"/><rect x="395.83" y="299.69" width="9" height="56" transform="translate(728.02 -56.48) rotate(90)" style="fill:#9b9bd1"/><rect x="109.83" y="299.69" width="9" height="56" transform="translate(442.02 229.52) rotate(90)" style="fill:#9b9bd1"/><rect x="329.27" y="177.43" width="9" height="39.65" transform="translate(145.54 -125.52) rotate(30.37)" style="fill:#c9c9f4"/><rect x="176.35" y="438.46" width="9" height="39.46" transform="translate(256.49 -12.39) rotate(30.37)" style="fill:#c9c9f4"/><rect x="383.36" y="384.48" width="9" height="39.41" transform="translate(932.68 290.07) rotate(120.37)" style="fill:#c9c9f4"/><rect x="122.49" y="231.38" width="9" height="39.85" transform="translate(408.01 284.97) rotate(120.37)" style="fill:#c9c9f4"/><rect x="382.34" y="230.01" width="9" height="39.92" transform="translate(402.11 -194.19) rotate(59.03)" style="fill:#c9c9f4"/><rect x="123.08" y="385.88" width="9" height="39.35" transform="translate(409.67 103.64) rotate(59.03)" style="fill:#c9c9f4"/><rect x="330.85" y="438.3" width="9" height="38.77" transform="translate(858.41 693.73) rotate(149.03)" style="fill:#c9c9f4"/><rect x="175.04" y="178.24" width="9" height="39.63" transform="translate(435.4 291.66) rotate(149.03)" style="fill:#c9c9f4"/><circle cx="257" cy="341.85" r="21" style="fill:#2e2835"/><polygon points="259.5 333.85 251 284.83 259.5 247.85 268 284.83 259.5 333.85" style="fill:#2e2835"/><polygon points="250.78 339.46 347.58 354.82 417 380.87 343.47 371.31 250.78 339.46" style="fill:#2e2835"/></g></g></g></svg>