<svg width="1000" height="1000" viewBox="0 0 1000 1000" fill="none" xmlns="http://www.w3.org/2000/svg">
<mask id="mask0" mask-type="alpha" maskUnits="userSpaceOnUse" x="108" y="201" width="417" height="345">
<path d="M171.169 236.443C177.986 211.001 204.137 195.903 229.578 202.72L463.749 265.466L440.327 352.875C451.969 348.803 464.915 348.068 477.726 351.501C511.649 360.59 531.78 395.458 522.69 429.38C513.601 463.303 478.733 483.434 444.811 474.344C431.999 470.911 421.155 463.802 413.109 454.455L388.66 545.703L108.423 470.613L171.169 236.443Z" fill="white"/>
</mask>
<g mask="url(#mask0)">
<path d="M171.169 236.443C177.986 211.001 204.137 195.903 229.578 202.72L463.749 265.466L440.327 352.875C451.969 348.803 464.915 348.068 477.726 351.501C511.649 360.59 531.78 395.458 522.69 429.38C513.601 463.303 478.733 483.434 444.811 474.344C431.999 470.911 421.155 463.802 413.109 454.455L388.66 545.703L108.423 470.613L171.169 236.443Z" fill="#FF9F40"/>
<path fill-rule="evenodd" clip-rule="evenodd" d="M503.675 161.335L0.928284 594.532L690.466 719.722L762.003 362.036L503.675 161.335Z" fill="#FE8A17"/>
</g>
<mask id="mask1" mask-type="alpha" maskUnits="userSpaceOnUse" x="192" y="513" width="474" height="377">
<path d="M267.736 513.301L482.259 570.779C468.883 578.993 458.505 592.144 454.122 608.502C445.033 642.425 465.164 677.293 499.086 686.382C533.008 695.472 567.876 675.341 576.966 641.418C581.349 625.06 578.937 608.482 571.46 594.681L665.058 619.763L602.312 853.934C595.495 879.375 569.344 894.474 543.902 887.657L192.646 793.538L267.736 513.301Z" fill="white"/>
</mask>
<g mask="url(#mask1)">
<path d="M267.736 513.301L482.259 570.779C468.883 578.993 458.505 592.144 454.122 608.502C445.033 642.425 465.164 677.293 499.086 686.382C533.008 695.472 567.876 675.341 576.966 641.418C581.349 625.06 578.937 608.482 571.46 594.681L665.058 619.763L602.312 853.934C595.495 879.375 569.344 894.474 543.902 887.657L192.646 793.538L267.736 513.301Z" fill="#04BCCF"/>
<path fill-rule="evenodd" clip-rule="evenodd" d="M706.364 580.621L275.154 900.551L738.158 954.204L706.364 580.621Z" fill="#00A9BA"/>
</g>
<mask id="mask2" mask-type="alpha" maskUnits="userSpaceOnUse" x="44" y="410" width="345" height="416">
<path d="M108.423 470.613L199.67 495.063C195.599 483.422 194.864 470.475 198.296 457.664C207.386 423.742 242.254 403.611 276.176 412.7C310.098 421.789 330.229 456.657 321.14 490.58C317.707 503.391 310.597 514.235 301.25 522.282L388.66 545.702L362.518 643.278C354.681 627.509 340.368 615.052 322.021 610.136C288.099 601.046 253.231 621.177 244.141 655.1C235.052 689.022 255.183 723.89 289.105 732.979C307.452 737.895 326.076 734.264 340.748 724.525L313.57 825.939L79.3999 763.193C53.9581 756.376 38.8599 730.225 45.677 704.783L108.423 470.613Z" fill="white"/>
</mask>
<g mask="url(#mask2)">
<path d="M108.423 470.613L199.67 495.063C195.599 483.422 194.864 470.475 198.296 457.664C207.386 423.742 242.254 403.611 276.176 412.7C310.098 421.789 330.229 456.657 321.14 490.58C317.707 503.391 310.597 514.235 301.25 522.282L388.66 545.702L362.518 643.278C354.681 627.509 340.368 615.052 322.021 610.136C288.099 601.046 253.231 621.177 244.141 655.1C235.052 689.022 255.183 723.89 289.105 732.979C307.452 737.895 326.076 734.264 340.748 724.525L313.57 825.939L79.3999 763.193C53.9581 756.376 38.8599 730.225 45.677 704.783L108.423 470.613Z" fill="#FFDC5A"/>
<path fill-rule="evenodd" clip-rule="evenodd" d="M392.395 459.406L32.7225 815.104L428.163 904.525L551.366 495.174L392.395 459.406Z" fill="#FFC843"/>
</g>
<path d="M777.193 510.298L710.395 443.499C708.101 455.617 702.264 467.196 692.886 476.575C668.053 501.408 627.791 501.408 602.958 476.575C578.125 451.742 578.125 411.48 602.958 386.647C612.337 377.269 623.916 371.432 636.034 369.138L572.045 305.15L643.473 233.717C642.375 251.293 648.542 269.237 661.973 282.668C686.806 307.501 727.068 307.501 751.901 282.668C776.734 257.836 776.734 217.574 751.901 192.741C738.47 179.31 720.525 173.143 702.95 174.24L777.193 100.003L948.618 271.427C967.242 290.052 967.242 320.249 948.618 338.873L777.193 510.298Z" fill="#5588FB"/>
<mask id="mask3" mask-type="alpha" maskUnits="userSpaceOnUse" x="572" y="100" width="391" height="411">
<path d="M777.192 510.298L710.395 443.499C708.1 455.617 702.264 467.196 692.885 476.575C668.052 501.408 627.79 501.408 602.957 476.575C578.125 451.742 578.125 411.48 602.957 386.647C612.336 377.269 623.915 371.432 636.033 369.138L572.045 305.15L643.472 233.717C642.375 251.293 648.541 269.237 661.972 282.668C686.805 307.501 727.067 307.501 751.9 282.668C776.733 257.836 776.733 217.574 751.9 192.741C738.469 179.31 720.525 173.143 702.949 174.24L777.192 100.003L948.617 271.427C967.242 290.052 967.242 320.249 948.617 338.873L777.192 510.298Z" fill="#5588FB"/>
</mask>
<g mask="url(#mask3)">
<path fill-rule="evenodd" clip-rule="evenodd" d="M940.843 195.116L563.286 521.007L982.573 521.007L1048.15 195.116L940.843 195.116Z" fill="#267DE4"/>
</g>
</svg>
