<svg width="1000" height="1000" viewBox="0 0 1000 1000" fill="none" xmlns="http://www.w3.org/2000/svg">
<rect width="21.4282" height="39.7928" transform="matrix(-0.503919 0.863821 0.863552 0.50414 181.699 254.912)" fill="#F1734B"/>
<mask id="mask0" mask-type="alpha" maskUnits="userSpaceOnUse" x="170" y="254" width="46" height="40">
<rect width="21.4282" height="39.7928" transform="matrix(-0.503919 0.863821 0.863552 0.50414 181.556 254.722)" fill="#F1734B"/>
</mask>
<g mask="url(#mask0)">
<path d="M187.83 290.462L192.42 249.129L172.527 246.833L156.459 272.857L187.83 290.462Z" fill="#D45D38"/>
</g>
<path d="M143.965 246.309C135.861 261.148 134.502 276.134 146 282.412C157.498 288.691 173.389 281.752 181.492 266.913C189.596 252.074 186.844 234.955 175.346 228.676C163.848 222.397 152.069 231.47 143.965 246.309Z" fill="#F1734B"/>
<ellipse rx="5.8536" ry="17.5168" transform="matrix(-0.846494 -0.532284 0.532063 -0.846777 154.167 250.601)" fill="#D45D38"/>
<rect width="21.4283" height="39.7927" transform="matrix(0.640535 0.767929 -0.767692 0.640818 468.574 244.31)" fill="#F1734B"/>
<mask id="mask1" mask-type="alpha" maskUnits="userSpaceOnUse" x="439" y="242" width="45" height="43">
<rect width="21.4283" height="39.7927" transform="matrix(0.640535 0.767929 -0.767692 0.640818 470.102 242.503)" fill="#F1734B"/>
</mask>
<g mask="url(#mask1)">
<path d="M499.213 275.039L479.772 238.282L462.029 247.57L463.371 278.124L499.213 275.039Z" fill="#D45D38"/>
</g>
<path d="M503.838 228.729C514.297 242.012 518.64 257.383 508.346 265.487C498.052 273.592 481.229 269.394 470.771 256.11C460.312 242.826 460.179 225.488 470.473 217.383C480.767 209.279 493.38 215.445 503.838 228.729Z" fill="#F1734B"/>
<ellipse rx="5.8536" ry="17.5168" transform="matrix(0.785593 -0.618744 0.618457 0.785818 496.303 235.395)" fill="#D45D38"/>
<path d="M190.737 702.765C-86.5428 735.603 38.5123 762.951 32.9016 798.332C28.1837 828.082 -21.3948 834.144 106.036 862.802C265.324 898.626 552.829 915.545 747.515 905.096C942.2 894.648 1022.58 832.625 975.38 793.817C928.183 755.008 1093.1 710.2 886.613 687.81C680.128 665.421 468.017 669.927 190.737 702.765Z" fill="#F7F7FF"/>
<path d="M217.532 688.312C1.60611 705.61 132.939 754.683 128.57 773.321C124.896 788.992 86.2873 792.185 185.521 807.282C309.564 826.152 533.453 835.064 685.06 829.56C836.668 824.056 899.26 791.385 862.506 770.942C825.753 750.499 972.485 709.846 811.689 698.052C650.893 686.258 433.458 671.014 217.532 688.312Z" fill="#E5E7F9"/>
<rect width="40.7806" height="133.519" transform="matrix(0.697903 -0.716192 0.71593 0.698172 427.317 707.946)" fill="#D45D38"/>
<rect width="38.1711" height="142.89" transform="matrix(-0.697903 -0.716192 -0.71593 0.698172 223.621 702.692)" fill="#D45D38"/>
<path d="M454.858 334.09C454.858 427.09 396.965 502.481 325.551 502.481C254.137 502.481 196.245 427.09 196.245 334.09C196.245 284.713 201.65 225.05 227.649 194.248C250.617 167.037 292.054 165.7 325.551 165.7C352.228 165.7 395.759 176.22 416.349 194.248C450.879 224.482 454.858 275.831 454.858 334.09Z" fill="#D55D38"/>
<mask id="mask2" mask-type="alpha" maskUnits="userSpaceOnUse" x="196" y="165" width="259" height="338">
<path d="M454.858 334.09C454.858 427.09 396.965 502.481 325.551 502.481C254.137 502.481 196.245 427.09 196.245 334.09C196.245 284.713 201.65 225.05 227.649 194.248C250.617 167.037 292.054 165.7 325.551 165.7C352.228 165.7 395.759 176.22 416.349 194.248C450.879 224.482 454.858 275.831 454.858 334.09Z" fill="#F6A01F"/>
</mask>
<g mask="url(#mask2)">
<path d="M433.434 280.511C433.434 349.838 369.033 406.038 289.591 406.038C210.148 406.038 145.747 349.838 145.747 280.511C145.747 243.702 151.76 199.226 180.681 176.265C206.232 155.98 252.328 154.983 289.591 154.983C319.267 154.983 367.692 162.825 390.597 176.265C429.009 198.802 433.434 237.081 433.434 280.511Z" fill="#F1734B"/>
</g>
<rect width="18.697" height="101.134" transform="matrix(0.427773 0.903886 -0.903762 0.428035 730.19 680.022)" fill="#DD5116"/>
<path d="M877.644 629.148C877.644 686.572 891.263 742.958 839.29 742.958C809.027 742.958 734.011 734.369 702.076 710.642C679.168 693.621 680.035 662.869 702.076 603.856C724.118 544.843 755.015 513.932 806.987 513.932C858.96 513.932 877.644 571.724 877.644 629.148Z" fill="#F6A01F"/>
<path d="M767.274 661.047L763.969 650.604C764.86 649.665 776.785 645.665 781.615 643.318L785.85 654.616C786.583 656.571 785.561 658.747 783.587 659.432L772.035 663.436C770.058 664.122 767.905 663.041 767.274 661.047Z" fill="white"/>
<path fill-rule="evenodd" clip-rule="evenodd" d="M788.57 636.914C788.775 637.312 788.665 637.809 788.316 638.091C760.672 660.476 737.531 649.912 728.746 641.155C728.441 640.851 728.405 640.38 728.642 640.02V640.02C728.971 639.52 729.679 639.457 730.123 639.858C735.468 644.688 746.113 647.717 759.845 646.058C767.998 645.073 777.239 644.333 787.104 636.603C787.584 636.227 788.292 636.372 788.57 636.914V636.914Z" fill="black"/>
<path d="M804.947 716.514C809.429 713.948 815.141 715.501 817.706 719.983V719.983C820.27 724.465 818.717 730.179 814.236 732.745L720.267 786.559L710.979 770.327L804.947 716.514Z" fill="#DD5116"/>
<path d="M729.129 748.928C732.798 769.393 726.767 787.91 713.082 788.724C699.397 789.538 689.497 772.545 689.496 745.58C690.04 744.86 683.347 723.128 690.169 719.963C696.99 716.797 696.508 734.272 700.051 733.637C701.177 733.434 698.929 714.523 709.712 714.569C720.495 714.616 710.42 742.365 716.884 738.994C723.348 735.624 725.01 722.468 731.276 728.052C737.542 733.636 727.955 742.38 729.129 748.928Z" fill="#F65F1F"/>
<path d="M658.874 705.498C660.517 724.601 654.331 741.017 643.046 740.494C631.76 739.97 624.771 723.472 626.572 698.75C627.067 698.141 623.026 677.596 628.836 675.327C634.646 673.058 633.083 689.034 636.032 688.78C636.97 688.699 636.389 671.153 645.235 672.196C654.081 673.239 643.959 697.745 649.489 695.254C655.018 692.764 657.262 680.857 662.031 686.558C666.8 692.259 658.348 699.385 658.874 705.498Z" fill="#F65F1F"/>
<ellipse rx="32.3065" ry="42.1496" transform="matrix(0.915207 0.402984 -0.402731 0.915318 764.604 573.981)" fill="white"/>
<ellipse rx="14.4283" ry="18.8222" transform="matrix(0.831792 0.555087 -0.554799 0.831984 760.399 559.828)" fill="#513535"/>
<path fill-rule="evenodd" clip-rule="evenodd" d="M848.899 615.762C852.725 609.639 859.212 610.44 860.794 612.231L894.807 684.649C902.458 699.957 921.586 725.216 931.533 741.29C932.232 743.574 935.544 747.799 933.26 748.499C930.976 749.198 928.558 747.913 927.859 745.628L887.705 689.676L851.194 631.835C849.613 630.045 845.073 621.885 848.899 615.762Z" fill="#DD5116"/>
<path d="M395.127 358.545C354.914 358.023 329.194 384.667 325.277 404.259L328.541 428.421L555.716 350.709L526.993 338.954C523.729 342.219 515.765 346.007 499.575 350.709C479.338 356.586 445.393 359.198 395.127 358.545Z" fill="#E2E4F9"/>
<path d="M481.95 366.381L505.451 359.851" stroke="#646B76" stroke-width="1.3061"/>
<path d="M377.501 399.033C377.936 394.68 381.94 385.711 394.474 384.666C407.007 383.622 417.975 382.49 421.891 382.054" stroke="#646B76" stroke-width="1.3061"/>
<path d="M346.166 397.727C349.865 390.543 361.442 375.784 378.153 374.217C399.043 372.258 431.03 374.217 451.92 368.34" stroke="#646B76" stroke-width="1.3061"/>
<path d="M251.189 359.198C293.447 358.675 321.161 384.014 325.277 403.605L321.161 429.074L82.4341 351.361L110.505 337.647C113.935 340.913 124.417 346.659 141.43 351.361C162.696 357.239 198.367 359.851 251.189 359.198Z" fill="#E2E4F9"/>
<path d="M156.854 366.381L133.353 359.851" stroke="#646B76" stroke-width="1.3061"/>
<path d="M261.302 399.033C260.867 394.68 256.863 385.711 244.329 384.666C231.796 383.622 220.829 382.49 216.912 382.054" stroke="#646B76" stroke-width="1.3061"/>
<path d="M292.637 397.727C288.938 390.543 277.361 375.784 260.65 374.217C239.76 372.258 207.773 374.217 186.883 368.34" stroke="#646B76" stroke-width="1.3061"/>
<ellipse cx="323.972" cy="439.523" rx="35.2514" ry="36.5707" fill="#646B76"/>
<path d="M329.626 755.599L534.546 667.821L564.203 357.893C564.203 357.893 566.814 354.857 564.203 350.709C561.593 346.561 554.777 349.522 554.777 349.522L323.753 425.278L93.3814 352.32C93.3814 352.32 78.3714 345.008 75.7609 349.627C73.1505 354.247 75.7608 357.135 75.7608 357.135L107.739 667.821L329.626 755.599Z" fill="#F7D55A"/>
<mask id="mask3" mask-type="alpha" maskUnits="userSpaceOnUse" x="75" y="349" width="490" height="412">
<path d="M324.303 427.988C306.654 427.988 75.9058 349.402 75.9058 349.402L107.936 670.68L210.563 703.039L325.61 760.823L440.658 703.039L535.441 670.68L564.203 349.402C564.203 349.402 341.952 427.988 324.303 427.988Z" fill="#F7D55A"/>
</mask>
<g mask="url(#mask3)">
<g style="mix-blend-mode:multiply">
<path d="M373.583 788.252C381.939 670.181 473.679 430.817 518.505 325.894H611.203L645.149 600.174C551.145 712.063 365.227 906.323 373.583 788.252Z" fill="#F7D55A" fill-opacity="0.4"/>
</g>
</g>
<path d="M280.861 425.102C280.861 425.102 313.7 435.156 323.083 435.156C332.466 435.156 363.964 424.473 363.964 424.473L357.263 748.519C357.263 748.519 343.859 756.887 322.748 756.887C301.637 756.887 288.233 748.519 288.233 748.519L280.861 425.102Z" fill="#EEB154"/>
<path d="M504.056 704.767C494.382 758.725 508.417 807.212 541.74 808.863C575.063 810.515 599.799 765.465 600.764 694.541C599.465 692.668 616.555 635.268 600.043 627.187C583.53 619.106 584.08 665.051 575.469 663.506C572.731 663.015 578.886 613.194 552.606 613.702C526.325 614.209 549.886 686.835 534.254 678.201C518.622 669.567 515.039 635.023 499.569 649.935C484.099 664.848 507.152 687.501 504.056 704.767Z" fill="#F1734B"/>
<path d="M142.927 710.971C152.026 761.723 138.717 807.348 107.214 808.93C75.7104 810.512 52.3651 768.153 51.513 701.433C52.7433 699.67 36.636 645.687 52.2529 638.07C67.8698 630.454 67.3111 673.677 75.4526 672.216C78.0411 671.751 72.2648 624.888 97.1089 625.344C121.953 625.799 99.6173 694.14 114.402 686.005C129.188 677.869 132.604 645.37 147.216 659.385C161.828 673.4 140.015 694.73 142.927 710.971Z" fill="#F1734B"/>
<path d="M970.553 744.352C970.553 751.961 966.74 748.179 954.486 748.179C942.231 748.179 926.176 751.961 926.176 744.352C926.176 736.743 936.11 730.575 948.365 730.575C960.619 730.575 970.553 736.743 970.553 744.352Z" fill="#DD5116"/>
<path d="M410.14 295.648C405.106 321.66 383.933 339.439 362.85 335.358C341.767 331.278 328.756 306.883 333.791 280.871C338.825 254.859 346.917 261.957 368.001 266.037C389.084 270.118 415.175 269.636 410.14 295.648Z" fill="white"/>
<circle cx="363.635" cy="309.331" r="12.9658" fill="#513535"/>
<path d="M237.847 295.186C242.74 320.469 263.319 337.75 283.811 333.783C304.304 329.817 316.949 306.106 312.056 280.824C307.163 255.541 291.031 263.344 270.539 267.31C250.046 271.276 232.954 269.904 237.847 295.186Z" fill="white"/>
<circle r="12.6023" transform="matrix(-1 0 0 1 278.807 310.241)" fill="#513535"/>
<path d="M359.946 236.155C360.745 233.895 362.64 232.194 365.03 232.011C368.984 231.708 375.677 231.812 383.44 234.478C391.343 237.192 395.946 241.211 398.261 243.797C399.606 245.3 399.791 247.408 399.119 249.309V249.309C397.59 253.631 392.368 255.353 388.387 253.079C385 251.146 381.126 249.18 378.155 248.368C374.88 247.473 369.768 246.425 365.407 245.588C361.094 244.761 358.481 240.295 359.946 236.155V236.155Z" fill="#513535"/>
<path d="M282.602 236.535C282.164 234.179 280.557 232.204 278.224 231.652C274.365 230.737 267.738 229.799 259.655 231.226C251.425 232.679 246.254 235.934 243.565 238.128C242.003 239.404 241.492 241.457 241.86 243.44V243.44C242.699 247.947 247.589 250.459 251.876 248.833C255.522 247.449 259.655 246.109 262.715 245.769C266.09 245.394 271.302 245.153 275.741 245.005C280.13 244.858 283.405 240.853 282.602 236.535V236.535Z" fill="#513535"/>
<path d="M141.179 464.604C143.594 487.096 106.805 488.594 106.977 490.862C107.78 501.448 137.889 485.201 137.048 501.285C136.208 517.369 115.45 530.262 97.2951 533.597C67.0784 539.148 48.1933 516.071 42.2132 483.519C36.2331 450.966 45.4225 421.265 75.6392 415.714C95.1066 412.138 124.383 417.039 126.94 434.667C129.497 452.295 100.153 446.206 101.606 448.397C106.186 455.302 138.765 442.113 141.179 464.604Z" fill="#F1734B"/>
<path d="M508.447 468.897C507.352 491.054 543.453 490.448 543.413 492.678C543.223 503.087 512.83 488.877 514.56 504.577C516.29 520.276 537.339 531.73 555.302 533.972C585.197 537.705 602.384 514.048 606.403 481.841C610.421 449.634 599.749 421.072 569.854 417.339C550.593 414.935 522.208 421.382 520.699 438.785C519.19 456.188 547.574 448.573 546.275 450.8C542.181 457.819 509.542 446.741 508.447 468.897Z" fill="#F1734B"/>
</svg>
