<svg xmlns="http://www.w3.org/2000/svg" xmlns:xlink="http://www.w3.org/1999/xlink" viewBox="0 0 560.04 408.36"><defs><clipPath id="clip-path" transform="translate(0 5.36)"><polygon points="15.53 390.28 17.22 376.97 28.68 376.97 31.74 367.04 36.32 367.04 41.67 355.58 58.48 346.41 166.96 314.32 238 326.55 276.96 342.59 274.67 355.58 250.99 381.55 15.53 390.28" style="fill:#e0daf7"/></clipPath><clipPath id="clip-path-2" transform="translate(0 5.36)"><path d="M64.21,333,42.05,355.2s37.43,0,69.52-11.46,94.2-43.61,164,6.84l-8.9-27.47L150.91,299.05S100.87,328.46,64.21,333Z" style="fill:#ededfc"/></clipPath><clipPath id="clip-path-3" transform="translate(0 5.36)"><polygon points="298.74 380.79 539.35 388.89 534.79 378.5 525.62 378.5 524.86 368.56 517.22 368.56 514.93 360.16 479.02 344.88 377.42 318.14 294.15 320.44 278.11 352.14 298.74 380.79" style="fill:#e0daf7"/></clipPath><clipPath id="clip-path-4" transform="translate(0 5.36)"><path d="M274.67,355.58s35.14-40.49,85.56-32.85S483.55,362,512.8,357.25l-25-24.59S442,321.2,411.42,304.39s-62.65-1.52-62.65-1.52l-51.18,16.8L277,336.48Z" style="fill:#ededfc"/></clipPath><clipPath id="clip-path-5" transform="translate(0 5.36)"><path d="M206.66,101.32,106.15,98.57l-1.45,52.89h0a.19.19,0,0,0,0,.08c-.1,3.76,22.25,9.51,50,10.27s50.39-3.76,50.49-7.52a.22.22,0,0,0,0-.08h0Z" style="fill:#9552ff"/></clipPath><clipPath id="clip-path-6" transform="translate(0 5.36)"><polygon points="103.05 135.86 114.36 115.16 127.38 143.59 144.95 116.96 159.72 145.75 177.36 116.88 189.72 145.62 203.23 115.03 207.84 128.31 207.58 137.76 203.1 125.61 189.49 153.95 176.95 125.86 158.55 153.42 144.21 126.24 126.01 152.53 113.91 125.89 103.16 143.24 103.05 135.86" style="fill:#e1d2ff"/></clipPath><clipPath id="clip-path-7" transform="translate(0 5.36)"><path d="M103.65,102.19s15.27,10.52,54.08,10.79c34.64.23,51.71-7.89,51.71-7.89l-.67-4.83L103.3,97.37Z" style="fill:#a360ff"/></clipPath><clipPath id="clip-path-8" transform="translate(0 5.36)"><path d="M102.39,147.87s12.08,8.84,52.35,9.94c40.71,1.12,56.9-10,56.9-10l-4.41,14.64-51.32,5.33-53.65-9Z" style="fill:#a360ff"/></clipPath><clipPath id="clip-path-9" transform="translate(0 5.36)"><path d="M206.66,101.4c-.11,3.77-22.75,8.28-50.5,7.52s-50.11-6.51-50-10.27,22.83-8.92,50.59-8.16S206.76,97.64,206.66,101.4Z" style="fill:#ffba1f"/></clipPath><clipPath id="clip-path-10" transform="translate(0 5.36)"><path d="M200.89,100.94c-.08,2.94-20.1,6.41-44.67,5.74s-44.37-5.24-44.29-8.18,20.18-6.92,44.75-6.25S201,98,200.89,100.94Z" style="fill:#ffd522"/></clipPath><clipPath id="clip-path-11" transform="translate(0 5.36)"><path d="M210.62,92.7l-41.76,5-.2-1.43,41.49-6.86a1.67,1.67,0,0,1,1.92,1.38h0A1.67,1.67,0,0,1,210.62,92.7Z" style="fill:#9552ff"/></clipPath><clipPath id="clip-path-12" transform="translate(0 5.36)"><circle cx="166.53" cy="97.2" r="4.31" style="fill:#9552ff"/></clipPath><clipPath id="clip-path-13" transform="translate(0 5.36)"><path d="M104.59,92.36,146,99.62l.28-1.42-41-9.12a1.67,1.67,0,0,0-2,1.27h0A1.68,1.68,0,0,0,104.59,92.36Z" style="fill:#9552ff"/></clipPath><clipPath id="clip-path-14" transform="translate(0 5.36)"><circle cx="148.37" cy="99.26" r="4.31" style="fill:#9552ff"/></clipPath><clipPath id="clip-path-15" transform="translate(0 5.36)"><circle cx="412.78" cy="170.03" r="44.06" style="fill:#9552ff"/></clipPath><clipPath id="clip-path-16" transform="translate(0 5.36)"><ellipse cx="425.25" cy="142.17" rx="6.24" ry="5.08" style="fill:#e1d2ff"/></clipPath><clipPath id="clip-path-17" transform="translate(0 5.36)"><path d="M346,2.25,305,38.62a5,5,0,0,0-.42,7.11l9.87,11.1s6.11,6.17.14,7.62-15.07,5.48-8.92,16.11c3,5.26,12.49,6.13,15.25-.29s5.86-9.86,8.39-7.26c1.7,1.73,7.9,8.81,11.82,13.3a5,5,0,0,0,7.12.47l12.51-11s3.41-3.28.67-4.79-12-4.24-11.18-11.36,9.23-12.36,14.7-9.33,5.07,8.76,5.48,10.18,3.41,3.88,6.82.6c2.18-2.1,7.87-7.3,11.68-10.77a5,5,0,0,0,.36-7.07L353.09,2.66A5,5,0,0,0,346,2.25Z" style="fill:#5688fb"/></clipPath><clipPath id="clip-path-18" transform="translate(0 5.36)"><polygon points="210.26 174.16 194.07 173.21 208.87 180.49 210.26 174.16" style="fill:#ffba1f"/></clipPath><clipPath id="clip-path-19" transform="translate(0 5.36)"><path d="M136.44,230.12,242.73,261s-12.13,11-24.58,16.82-69.76-16.35-72.8-18.43S134.36,249.27,136.44,230.12Z" style="fill:#5688fb"/></clipPath><clipPath id="clip-path-20" transform="translate(0 5.36)"><path d="M223.84,18.42A33.92,33.92,0,0,1,207.1,73.75a1.29,1.29,0,0,0-.36,2.34A41,41,0,1,0,206.53,6a1.15,1.15,0,0,0,.33,2.09A33.77,33.77,0,0,1,223.84,18.42Z" style="fill:#ffd522"/></clipPath><clipPath id="clip-path-21" transform="translate(0 5.36)"><path d="M423,219.87l-2.49,18.69a.89.89,0,0,0,.4.87l15.85,10.2a.89.89,0,0,1-.32,1.63l-18.55,3.4a.88.88,0,0,0-.7.65l-4.81,18.23a.88.88,0,0,1-1.64.19l-9-16.58a.89.89,0,0,0-.83-.47l-18.82,1.06a.89.89,0,0,1-.7-1.5l13-13.65a.9.9,0,0,0,.19-.94l-6.83-17.57A.89.89,0,0,1,389,223l17,8.15a.89.89,0,0,0,.95-.12l14.6-11.92A.89.89,0,0,1,423,219.87Z" style="fill:#ffd522"/></clipPath><clipPath id="clip-path-22" transform="translate(0 5.36)"><path d="M377.83,69.42,394.09,79a.9.9,0,0,0,1,0l15.54-10.66a.89.89,0,0,1,1.38.92L407.92,87.6a.92.92,0,0,0,.33.9L423.2,100a.9.9,0,0,1-.46,1.6L404,103.42a.91.91,0,0,0-.75.59l-6.31,17.77a.89.89,0,0,1-1.66.06l-7.55-17.27a.9.9,0,0,0-.79-.54l-18.85-.51a.89.89,0,0,1-.57-1.56l14.1-12.52a.88.88,0,0,0,.26-.92l-5.34-18.08A.89.89,0,0,1,377.83,69.42Z" style="fill:#ffd522"/></clipPath><clipPath id="clip-path-23" transform="translate(0 5.36)"><path d="M282,11.7l8.07,4.73a.44.44,0,0,0,.47,0l7.72-5.3a.44.44,0,0,1,.68.46l-2,9.14a.44.44,0,0,0,.16.45l7.42,5.7a.44.44,0,0,1-.23.79l-9.31.92a.44.44,0,0,0-.38.29l-3.13,8.82a.44.44,0,0,1-.82,0l-3.75-8.58a.44.44,0,0,0-.39-.26l-9.36-.25a.45.45,0,0,1-.28-.78l7-6.21a.44.44,0,0,0,.13-.46l-2.65-9A.44.44,0,0,1,282,11.7Z" style="fill:#ffd522"/></clipPath><clipPath id="clip-path-24" transform="translate(0 5.36)"><path d="M192.93,38l4,10.17a.53.53,0,0,0,.45.32l10.91.7a.52.52,0,0,1,.3.92l-8.44,6.95a.53.53,0,0,0-.17.53l2.7,10.59a.51.51,0,0,1-.78.56l-9.21-5.87a.52.52,0,0,0-.56,0L182.9,68.7a.52.52,0,0,1-.78-.56l2.74-10.59a.51.51,0,0,0-.17-.52l-8.42-7a.52.52,0,0,1,.3-.92l10.91-.66a.51.51,0,0,0,.45-.33L192,38A.52.52,0,0,1,192.93,38Z" style="fill:#ffd522"/></clipPath><clipPath id="clip-path-25" transform="translate(0 5.36)"><path d="M236.64,279.6l2.26,11.72a.54.54,0,0,0,.42.44l11.57,2.94a.56.56,0,0,1,.13,1l-10.45,5.77a.59.59,0,0,0-.29.54l.78,11.91a.57.57,0,0,1-.95.45l-8.72-8.16a.56.56,0,0,0-.59-.11l-11.09,4.42a.56.56,0,0,1-.72-.76L224.05,299a.57.57,0,0,0-.08-.6l-7.63-9.18a.56.56,0,0,1,.5-.92l11.85,1.47a.56.56,0,0,0,.55-.26l6.37-10.1A.56.56,0,0,1,236.64,279.6Z" style="fill:#ffd522"/></clipPath><clipPath id="clip-path-26" transform="translate(0 5.36)"><path d="M158.5,166.23l2.87,14.85a.71.71,0,0,0,.52.56l14.66,3.73a.71.71,0,0,1,.17,1.32L163.48,194a.7.7,0,0,0-.36.67l1,15.09a.71.71,0,0,1-1.2.57l-11-10.33a.73.73,0,0,0-.76-.14l-14,5.6a.72.72,0,0,1-.92-1l6.41-13.69a.72.72,0,0,0-.09-.76l-9.67-11.63a.71.71,0,0,1,.63-1.17l15,1.87a.74.74,0,0,0,.7-.33L157.2,166A.71.71,0,0,1,158.5,166.23Z" style="fill:#ffd522"/></clipPath><clipPath id="clip-path-27" transform="translate(0 5.36)"><path d="M267.64,287.9c-.58-3.91.53-15,3.42-24.42,0,0,10.76,6.83,17.06,5.52S301,263.74,311,266.11s34.92-2.37,33.87,21.79S314.11,307.33,302,307.33,270.79,309.16,267.64,287.9Z" style="fill:#ffd522"/></clipPath><clipPath id="clip-path-28" transform="translate(0 5.36)"><path d="M344.83,255.61c0,10.73-6.86,17.59-17.59,17.59s-23.89-4.76-23.89-15.49,11.32-24.42,22-24.42S344.83,244.88,344.83,255.61Z" style="fill:#ffd522"/></clipPath><clipPath id="clip-path-29" transform="translate(0 5.36)"><path d="M339.57,257c1-6.24,3.62-8,4.7-8s6.13,1.55,7.91.92,4.84-1,5.09.19-2.93,5.22-8.6,6.24c0,0,8.45.84,7.64,4.08-.13.51-5.73.19-8.09.95a23.9,23.9,0,0,0-5.08,2.65S338.94,260.83,339.57,257Z" style="fill:#ea2727"/></clipPath></defs><g id="Layer_2" data-name="Layer 2"><g id="Layer_1-2" data-name="Layer 1"><path d="M428.15,323.58c5.53.45,11,1,16.59,1.23a.1.1,0,0,0,0-.2c-5.53-.61-11.05-1-16.59-1.37-.22,0-.22.32,0,.34Z" transform="translate(0 5.36)" style="fill:#dadeef"/><polygon points="15.53 395.64 17.22 382.32 28.68 382.32 31.74 372.39 36.32 372.39 41.67 360.93 58.48 351.77 166.96 319.68 238 331.9 276.96 347.95 274.67 360.93 250.99 386.91 15.53 395.64" style="fill:#e0daf7"/><g style="clip-path:url(#clip-path)"><polyline points="212.1 319.92 156.41 395.64 262.72 397.33 283.8 342.58 212.1 319.92" style="fill:#bcb7e2;opacity:0.33"/></g><path d="M64.21,333,42.05,355.2s37.43,0,69.52-11.46,94.2-43.61,164,6.84l-8.9-27.47L150.91,299.05S100.87,328.46,64.21,333Z" transform="translate(0 5.36)" style="fill:#ededfc"/><g style="clip-path:url(#clip-path-2)"><path d="M45.73,332s132-37,236.58,21.29l1-13-52.16-32.85-86.33-10.7-33.61,6.12Z" transform="translate(0 5.36)" style="fill:#cbc5e8"/></g><path d="M55,300.19l38.2-35.9s44.3,10.69,75.63,12.22,92.43,20.63,108.47,60.35l-1.52,13.75s-53.48-47.36-119.94-43.54S81.78,311.65,55,300.19Z" transform="translate(0 5.36)" style="fill:#ededfc"/><polygon points="298.74 386.14 539.35 394.25 534.79 383.85 525.62 383.85 524.86 373.92 517.22 373.92 514.93 365.52 479.02 350.24 377.42 323.5 294.15 325.79 278.11 357.5 298.74 386.14" style="fill:#e0daf7"/><g style="clip-path:url(#clip-path-3)"><polyline points="441.13 323.16 373.73 407.36 551.73 408.36 547.73 363.36 503.73 336.36 441.13 323.16" style="fill:#bcb7e2;opacity:0.33"/></g><path d="M274.67,355.58s35.14-40.49,85.56-32.85S483.55,362,512.8,357.25l-25-24.59S442,321.2,411.42,304.39s-62.65-1.52-62.65-1.52l-51.18,16.8L277,336.48Z" transform="translate(0 5.36)" style="fill:#ededfc"/><g style="clip-path:url(#clip-path-4)"><path d="M331.2,331.13s45.68-18.48,78.53-13.13a142,142,0,0,0,61-4l-48.62-21.07-126,21.4L270,346l2.42,15.7Z" transform="translate(0 5.36)" style="fill:#cbc5e8"/></g><path d="M460.31,264.67l39,35.9s-37.43,13-58.82,9.17-117.42-10-164.9,40.84l1.41-14.1s6.11-39,70.28-52S442,273.84,460.31,264.67Z" transform="translate(0 5.36)" style="fill:#ededfc"/><path d="M247.17,378.5s11.46-22.92,28.26-22.92c27.51,0,35.15,23.68,35.15,23.68s-6.88,18.33-33.62,16S247.17,378.5,247.17,378.5Z" transform="translate(0 5.36)" style="fill:#5818d3"/><path d="M246.64,384.27l-6.58-2.37c.47-1.32,11.82-32.22,37.78-31.35,10.74.35,20.4,5.53,27.93,15a54.24,54.24,0,0,1,8.11,14.1l-6.6,2.34c-.09-.24-8.71-23.74-29.67-24.41-8.58-.26-16.34,4-23.07,12.72A58.47,58.47,0,0,0,246.64,384.27Z" transform="translate(0 5.36)" style="fill:#6934ea"/><path d="M279.25,398.77c-20.83,0-32.26-8.78-36.46-12.89L5.21,395.71a5,5,0,1,1-.42-10l242.48-10,1.58,2.07c.33.42,9,11,30.4,11,20.74,0,26.7-10,26.95-10.39l1.45-2.75,3.07.16,244.46,6.88a5,5,0,0,1-.28,10l-241.83-6.8C309.32,390.36,299.58,398.77,279.25,398.77Z" transform="translate(0 5.36)" style="fill:#9552ff"/><path d="M298.08,352.88a67.43,67.43,0,0,1,32.82-12c12.15-.95,23.18,2.17,34.57,5.91a303.48,303.48,0,0,0,37.59,10.13c12.14,2.33,25.17,4.94,37.58,4.1.52,0,.72-.88.13-1-13.28-2.34-26.72-2.9-39.91-6-6.57-1.53-13.1-3.27-19.54-5.27-6.65-2.07-13-4.89-19.55-7.13-21.34-7.3-46.13-3-64.16,10.4-.47.35,0,1.15.47.81Z" transform="translate(0 5.36)" style="fill:#cbc5e8"/><path d="M329.65,368.44c7.42.21,14.83.05,22.26-.11,9.28-.21,18.74.23,28-.37a.56.56,0,0,0,0-1.11c-9.17-.87-18.79-.34-28-.14-7.45.17-14.85.56-22.26,1.23a.25.25,0,0,0,0,.5Z" transform="translate(0 5.36)" style="fill:#cbc5e8"/><path d="M127.37,362.38a574.05,574.05,0,0,0,66.25-7.82c7.58-1.37,15.13-3.54,22.85-3.85a53,53,0,0,1,16.34,1.94c5.42,1.5,10.59,4.36,16.08,5.49a.85.85,0,0,0,.65-1.54c-4.18-3-9.81-4.63-14.7-6a55.3,55.3,0,0,0-15.6-2.29c-7.28,0-14,1.88-21.08,3.31a705,705,0,0,1-70.79,10.74s0,0,0,0Z" transform="translate(0 5.36)" style="fill:#cbc5e8"/><path d="M93.91,378.1c18-.87,36-1.25,54-2.48s36-1.15,54-1.83a.23.23,0,0,0,0-.46c-18-.07-36,1-54,1.27s-36,1.78-54,3.25c-.16,0-.16.26,0,.25Z" transform="translate(0 5.36)" style="fill:#cbc5e8"/><path d="M59.45,373.85c9.19-.57,18.37-1.27,27.55-1.86,11-.71,22.4-.05,33.36-1.51a.59.59,0,0,0,0-1.18c-11.16-.91-22.84.8-34,1.57-9,.63-18,1.49-26.95,2.73-.14,0-.11.26,0,.25Z" transform="translate(0 5.36)" style="fill:#cbc5e8"/><path d="M111.34,355.11c12.48-2.06,25.11-4.24,37.1-8.42,3.21-1.12,6.3-2.55,9.48-3.73,5.23-1.94,10.72-3.09,15.85-5.24a.81.81,0,0,0-.22-1.58c-9.2-.61-17.21,4.41-25.4,7.84-11.8,4.93-24.66,7.33-37.1,10.1-.68.15-.38,1.15.29,1Z" transform="translate(0 5.36)" style="fill:#cbc5e8"/><path d="M188.73,336.11c3.36.19,6.67,1,10,1.11a.41.41,0,0,0,.11-.81c-3.21-1.17-6.79-1-10.14-.73a.22.22,0,0,0,0,.43Z" transform="translate(0 5.36)" style="fill:#cbc5e8"/><circle cx="291.16" cy="172.38" r="135.21" style="fill:none;stroke:#b792ff;stroke-miterlimit:10"/><circle cx="272.46" cy="165.43" r="130.4" style="fill:none;stroke:#b792ff;stroke-miterlimit:10"/><circle cx="290.63" cy="146.19" r="120.78" style="fill:none;stroke:#b792ff;stroke-miterlimit:10"/><path d="M206.66,101.32,106.15,98.57l-1.45,52.89h0a.19.19,0,0,0,0,.08c-.1,3.76,22.25,9.51,50,10.27s50.39-3.76,50.49-7.52a.22.22,0,0,0,0-.08h0Z" transform="translate(0 5.36)" style="fill:#9552ff"/><g style="clip-path:url(#clip-path-5)"><path d="M170.54,108s13.61,53.63-47.62,52l38.58,8.59L205,163.2,215.72,151l-3.8-54.32Z" transform="translate(0 5.36)" style="fill:#5818d3;opacity:0.49"/><polygon points="103.05 141.22 114.36 120.51 127.38 148.94 144.95 122.31 159.72 151.11 177.36 122.24 189.72 150.97 203.23 120.38 207.84 133.66 207.58 143.12 203.1 130.97 189.49 159.31 176.95 131.21 158.55 158.78 144.21 131.6 126.01 157.89 113.91 131.25 103.16 148.6 103.05 141.22" style="fill:#e1d2ff"/><g style="clip-path:url(#clip-path-6)"><path d="M170.54,108s13.61,53.63-47.62,52l38.58,8.59L205,163.2,215.72,151l-3.8-54.32Z" transform="translate(0 5.36)" style="fill:#4a00bf;opacity:0.44"/></g><path d="M103.65,102.19s15.27,10.52,54.08,10.79c34.64.23,51.71-7.89,51.71-7.89l-.67-4.83L103.3,97.37Z" transform="translate(0 5.36)" style="fill:#a360ff"/><g style="clip-path:url(#clip-path-7)"><path d="M170.54,108s13.61,53.63-47.62,52l38.58,8.59L205,163.2,215.72,151l-3.8-54.32Z" transform="translate(0 5.36)" style="fill:#4a00bf;opacity:0.30000000000000004"/></g><path d="M102.39,147.87s12.08,8.84,52.35,9.94c40.71,1.12,56.9-10,56.9-10l-4.41,14.64-51.32,5.33-53.65-9Z" transform="translate(0 5.36)" style="fill:#a360ff"/><g style="clip-path:url(#clip-path-8)"><path d="M170.54,108s13.61,53.63-47.62,52l38.58,8.59L205,163.2,215.72,151l-3.8-54.32Z" transform="translate(0 5.36)" style="fill:#4a00bf;opacity:0.31"/></g></g><path d="M206.66,101.4c-.11,3.77-22.75,8.28-50.5,7.52s-50.11-6.51-50-10.27,22.83-8.92,50.59-8.16S206.76,97.64,206.66,101.4Z" transform="translate(0 5.36)" style="fill:#ffba1f"/><g style="clip-path:url(#clip-path-9)"><polygon points="171.14 91.43 143.68 115.86 196.78 115.39 212.87 108.13 190.48 94.2 171.14 91.43" style="fill:#d87100;opacity:0.38"/></g><path d="M200.89,100.94c-.08,2.94-20.1,6.41-44.67,5.74s-44.37-5.24-44.29-8.18,20.18-6.92,44.75-6.25S201,98,200.89,100.94Z" transform="translate(0 5.36)" style="fill:#ffd522"/><g style="clip-path:url(#clip-path-10)"><polygon points="171.14 91.43 143.68 115.86 196.78 115.39 204.78 106.84 190.48 94.2 171.14 91.43" style="fill:#f78f1e;opacity:0.38"/></g><path d="M210.62,92.7l-41.76,5-.2-1.43,41.49-6.86a1.67,1.67,0,0,1,1.92,1.38h0A1.67,1.67,0,0,1,210.62,92.7Z" transform="translate(0 5.36)" style="fill:#9552ff"/><g style="clip-path:url(#clip-path-11)"><path d="M213.54,90.12c-.32,0-44,7.14-44,7.14l1.23,2,43.78-5.38Z" transform="translate(0 5.36)" style="fill:#5818d3;opacity:0.49"/></g><circle cx="166.53" cy="102.55" r="4.31" style="fill:#9552ff"/><g style="clip-path:url(#clip-path-12)"><path d="M163.34,92.8s4.07.87,5.28,3.47-2.89,5.7-2.89,5.7l2.69,1.51,3.51-5-1-4.68-3.7-2.72Z" transform="translate(0 5.36)" style="fill:#5818d3;opacity:0.49"/></g><path d="M104.59,92.36,146,99.62l.28-1.42-41-9.12a1.67,1.67,0,0,0-2,1.27h0A1.68,1.68,0,0,0,104.59,92.36Z" transform="translate(0 5.36)" style="fill:#9552ff"/><g style="clip-path:url(#clip-path-13)"><polygon points="102.53 95.48 146.23 105.02 143.44 107.03 101.8 98.99 102.53 95.48" style="fill:#5818d3;opacity:0.49"/></g><circle cx="148.37" cy="104.62" r="4.31" style="fill:#9552ff"/><g style="clip-path:url(#clip-path-14)"><path d="M147.32,94.88s3.88,1.89,3.39,4.91c-.77,4.79-6.79,2.06-6.79,2.06L147.2,105l4.35-.53,3.3-3.27-.53-4.35-2.8-3.12-4.16-.44Z" transform="translate(0 5.36)" style="fill:#5818d3;opacity:0.49"/></g><circle cx="412.78" cy="175.38" r="44.06" style="fill:#9552ff"/><g style="clip-path:url(#clip-path-15)"><path d="M400.3,126s38,5.55,36.2,41.48c-1.28,26.21-42.3,52.6-70.22,15.86l2.44,15.59L408,224.12l45-17L467.28,170l-5.83-32.95-33.08-19.25Z" transform="translate(0 5.36)" style="fill:#5818d3;opacity:0.49"/></g><circle cx="414.27" cy="172.81" r="6.24" style="fill:#e1d2ff"/><ellipse cx="425.25" cy="147.52" rx="6.24" ry="5.08" style="fill:#e1d2ff"/><g style="clip-path:url(#clip-path-16)"><path d="M400.3,126s38,5.55,36.2,41.48c-1.28,26.21-42.3,52.6-70.22,15.86l2.44,15.59L408,224.12l45-17L467.28,170l-5.83-32.95-33.08-19.25Z" transform="translate(0 5.36)" style="fill:#b9b9ea"/></g><ellipse cx="386.13" cy="152.86" rx="6.24" ry="5.08" transform="translate(5 323.16) rotate(-45)" style="fill:#e1d2ff"/><ellipse cx="390.06" cy="191.09" rx="5.08" ry="6.24" transform="translate(44.43 459.51) rotate(-63.38)" style="fill:#e1d2ff"/><ellipse cx="421.37" cy="198.95" rx="6.24" ry="5.08" transform="translate(-33.52 103.25) rotate(-12.75)" style="fill:#d0c2f2"/><ellipse cx="443.47" cy="173.74" rx="6.24" ry="5.08" transform="translate(57.31 457.9) rotate(-57.22)" style="fill:#d0c2f2"/><path d="M346,2.25,305,38.62a5,5,0,0,0-.42,7.11l9.87,11.1s6.11,6.17.14,7.62-15.07,5.48-8.92,16.11c3,5.26,12.49,6.13,15.25-.29s5.86-9.86,8.39-7.26c1.7,1.73,7.9,8.81,11.82,13.3a5,5,0,0,0,7.12.47l12.51-11s3.41-3.28.67-4.79-12-4.24-11.18-11.36,9.23-12.36,14.7-9.33,5.07,8.76,5.48,10.18,3.41,3.88,6.82.6c2.18-2.1,7.87-7.3,11.68-10.77a5,5,0,0,0,.36-7.07L353.09,2.66A5,5,0,0,0,346,2.25Z" transform="translate(0 5.36)" style="fill:#5688fb"/><g style="clip-path:url(#clip-path-17)"><path d="M306.78,35s34.53-1,55.59,18.09l13.86,14.18,13.07-8.12,5.11-14-7-14.64L350.84-5.36,328.18,10.46Z" transform="translate(0 5.36)" style="fill:#277de4"/></g><polygon points="210.26 179.51 194.07 178.56 208.87 185.85 210.26 179.51" style="fill:#ffba1f"/><g style="clip-path:url(#clip-path-18)"><polygon points="209.81 178.49 201.2 182.87 210.32 186.64 211.46 178.97 209.81 178.49" style="fill:#f78f1e"/></g><rect x="198.7" y="171.79" width="1.87" height="78.19" rx="0.87" transform="translate(66.66 -41.91) rotate(16.18)" style="fill:#0e0f16"/><path d="M136.44,230.12,242.73,261s-12.13,11-24.58,16.82-69.76-16.35-72.8-18.43S134.36,249.27,136.44,230.12Z" transform="translate(0 5.36)" style="fill:#5688fb"/><g style="clip-path:url(#clip-path-19)"><rect x="130.54" y="248.23" width="114.17" height="5.89" transform="translate(77.4 -36.97) rotate(16.18)" style="fill:#fff;opacity:0.7000000000000001"/><path d="M222,251.21s-31,29.33-84.54,4.06l7.88,10.51,74.3,17.81,30.24-24.3Z" transform="translate(0 5.36)" style="fill:#277de4;opacity:0.59"/></g><path d="M209.43,180.62s2.48,12.09-2.49,29.21-15.42,32.53-15.42,32.53L235.14,255S247.51,208.77,209.43,180.62Z" transform="translate(0 5.36)" style="fill:#efe9ff"/><path d="M207.36,181.29s-20.83,26.43-17.66,60.91l-41.42-12S176.54,197.25,207.36,181.29Z" transform="translate(0 5.36)" style="fill:#efe9ff"/><path d="M223.84,18.42A33.92,33.92,0,0,1,207.1,73.75a1.29,1.29,0,0,0-.36,2.34A41,41,0,1,0,206.53,6a1.15,1.15,0,0,0,.33,2.09A33.77,33.77,0,0,1,223.84,18.42Z" transform="translate(0 5.36)" style="fill:#ffd522"/><g style="clip-path:url(#clip-path-20)"><path d="M198.81,6.8s32.7-8.18,51.4,12.82.59,62-47.65,59.63c0,0,23.21,10.53,31.07,8s36.86-15,39.27-21.88-.89-39.21-1.79-43.27S247.94.64,247.94.64L217.41-5Z" transform="translate(0 5.36)" style="fill:#ffba1f;opacity:0.6000000000000001"/><g style="opacity:0.45"><path d="M232.6,21.94a.78.78,0,0,0,.59-.93.8.8,0,0,0-.93-.6.79.79,0,0,0-.59.93.8.8,0,0,0,.93.6Z" transform="translate(0 5.36)" style="fill:#f78f1e"/></g><g style="opacity:0.45"><path d="M230.36,14.36a1.6,1.6,0,0,0,1-.68,1.58,1.58,0,0,0,.21-1.18,1.61,1.61,0,0,0-.69-1,1.57,1.57,0,0,0-2.15.48,1.56,1.56,0,0,0-.21,1.17,1.57,1.57,0,0,0,1.86,1.19Z" transform="translate(0 5.36)" style="fill:#f78f1e"/></g><g style="opacity:0.45"><path d="M245,60.69a1.59,1.59,0,0,0,1-.68,1.56,1.56,0,0,0-.48-2.16,1.6,1.6,0,0,0-1.17-.2,1.56,1.56,0,0,0-1,.68,1.58,1.58,0,0,0-.21,1.18,1.51,1.51,0,0,0,.68,1,1.63,1.63,0,0,0,1.18.21Z" transform="translate(0 5.36)" style="fill:#f78f1e"/></g><g style="opacity:0.45"><path d="M224.11,72.76a1.61,1.61,0,0,0,1-.69,1.56,1.56,0,0,0-.47-2.15,1.56,1.56,0,0,0-2.16.48,1.56,1.56,0,0,0,1.65,2.36Z" transform="translate(0 5.36)" style="fill:#f78f1e"/></g><g style="opacity:0.45"><path d="M238.65,53.17a1.81,1.81,0,0,0,.84-.39,1.84,1.84,0,0,0,.63-.64,1.68,1.68,0,0,0,.31-.84,1.79,1.79,0,0,0,0-.92,2.36,2.36,0,0,0-1-1.47,2.44,2.44,0,0,0-1.77-.31,1.82,1.82,0,0,0-.83.39,2.39,2.39,0,0,0-.95,2.4,2.36,2.36,0,0,0,1,1.47,2.41,2.41,0,0,0,1.76.31Z" transform="translate(0 5.36)" style="fill:#f78f1e"/></g><g style="opacity:0.45"><path d="M239.26,17.05a.47.47,0,1,0-.2-.91.47.47,0,0,0-.36.55.48.48,0,0,0,.56.36Z" transform="translate(0 5.36)" style="fill:#f78f1e"/></g><g style="opacity:0.45"><path d="M231.62,64.69a.94.94,0,1,0-1.11-.71.94.94,0,0,0,1.11.71Z" transform="translate(0 5.36)" style="fill:#f78f1e"/></g><g style="opacity:0.45"><path d="M249.91,57a.94.94,0,1,0-1.11-.71,1,1,0,0,0,1.11.71Z" transform="translate(0 5.36)" style="fill:#f78f1e"/></g><g style="opacity:0.45"><path d="M225.79,11.5a.94.94,0,1,0-1.12-.72,1,1,0,0,0,1.12.72Z" transform="translate(0 5.36)" style="fill:#f78f1e"/></g><g style="opacity:0.45"><path d="M245.82,19.32a.94.94,0,1,0-1.12-.71,1,1,0,0,0,1.12.71Z" transform="translate(0 5.36)" style="fill:#f78f1e"/></g></g><path d="M423,219.87l-2.49,18.69a.89.89,0,0,0,.4.87l15.85,10.2a.89.89,0,0,1-.32,1.63l-18.55,3.4a.88.88,0,0,0-.7.65l-4.81,18.23a.88.88,0,0,1-1.64.19l-9-16.58a.89.89,0,0,0-.83-.47l-18.82,1.06a.89.89,0,0,1-.7-1.5l13-13.65a.9.9,0,0,0,.19-.94l-6.83-17.57A.89.89,0,0,1,389,223l17,8.15a.89.89,0,0,0,.95-.12l14.6-11.92A.89.89,0,0,1,423,219.87Z" transform="translate(0 5.36)" style="fill:#ffd522"/><g style="clip-path:url(#clip-path-21)"><path d="M423.84,213.87s-3.23,15.84-12.68,29.55-40,14.71-40,14.71l49.32,22.3L425.2,258l15.12-7.59L428.2,240.37Z" transform="translate(0 5.36)" style="fill:#ffba1f;opacity:0.6000000000000001"/></g><path d="M408.28,233.2c2.13-1.65,4.19-3.39,6.19-5.19,1-.91,2-1.81,3-2.73l1.48-1.39.75-.73a2.73,2.73,0,0,0,.66-.74.34.34,0,0,0-.46-.45,3.08,3.08,0,0,0-.74.66l-.74.74c-.45.46-.92.92-1.38,1.38-1,.94-1.93,1.88-2.93,2.79-2,1.82-4,3.6-6.05,5.37-.16.13.06.41.22.29Z" transform="translate(0 5.36)" style="fill:#ffeb99"/><path d="M420.09,222.36c-2.14,1.65-4.26,3.31-6.45,4.89-1.09.79-2.16,1.62-3.18,2.5l-1.52,1.31c-.52.45-1.31,1-1.24,1.79a.46.46,0,0,0,.33.41c.75.19,1.38-.44,1.92-.89l1.59-1.34c1-.86,2-1.77,2.92-2.72,1.92-1.93,3.89-3.78,5.85-5.66.14-.14-.06-.41-.22-.29Z" transform="translate(0 5.36)" style="fill:#ffeb99"/><path d="M390.19,225.29c.3.21.56.47.86.67l.91.59,1.84,1.13c1.19.72,2.39,1.41,3.61,2.06s2.47,1.28,3.7,1.91a28.37,28.37,0,0,0,3.91,1.83c.6.2.9-.7.39-1a39,39,0,0,0-3.72-1.85c-1.28-.61-2.54-1.25-3.8-1.89s-2.48-1.25-3.73-1.86l-1.86-.93-1-.47c-.33-.16-.68-.25-1-.4a.13.13,0,1,0-.13.22Z" transform="translate(0 5.36)" style="fill:#ffeb99"/><path d="M384.13,256.2a27.28,27.28,0,0,0,3.23-2.75c1.05-1,2.22-1.8,3.33-2.69s2.24-1.76,3.32-2.7q.83-.7,1.62-1.44c.45-.42,1.3-1,1.25-1.68a.52.52,0,0,0-.4-.49c-.72-.13-1.3.58-1.8,1s-1.09.95-1.62,1.45c-1,1-2,2-3,3s-1.94,2.08-3,3a29.5,29.5,0,0,0-3.15,3c-.14.17.05.46.25.32Z" transform="translate(0 5.36)" style="fill:#ffeb99"/><path d="M377.83,69.42,394.09,79a.9.9,0,0,0,1,0l15.54-10.66a.89.89,0,0,1,1.38.92L407.92,87.6a.92.92,0,0,0,.33.9L423.2,100a.9.9,0,0,1-.46,1.6L404,103.42a.91.91,0,0,0-.75.59l-6.31,17.77a.89.89,0,0,1-1.66.06l-7.55-17.27a.9.9,0,0,0-.79-.54l-18.85-.51a.89.89,0,0,1-.57-1.56l14.1-12.52a.88.88,0,0,0,.26-.92l-5.34-18.08A.89.89,0,0,1,377.83,69.42Z" transform="translate(0 5.36)" style="fill:#ffd522"/><g style="clip-path:url(#clip-path-22)"><path d="M372.63,66.28S386,75.39,395,89.41,393,132,393,132l39.65-36.85-18.81-13-1.15-16.88-14,7.28Z" transform="translate(0 5.36)" style="fill:#ffba1f;opacity:0.6000000000000001"/></g><path d="M384.43,88.11q-1-3.92-2.39-7.72c-.44-1.28-.88-2.55-1.35-3.82-.23-.64-.47-1.27-.71-1.9l-.38-1a2.83,2.83,0,0,0-.43-.89.34.34,0,0,0-.59.25,2.64,2.64,0,0,0,.32.93c.13.33.27.65.4,1,.25.6.49,1.21.73,1.81.5,1.25,1,2.51,1.45,3.78.91,2.54,1.76,5.1,2.6,7.66.07.2.41.11.35-.09Z" transform="translate(0 5.36)" style="fill:#ffeb99"/><path d="M379,73c.69,2.61,1.41,5.21,2,7.83.31,1.31.65,2.62,1.07,3.9.2.64.41,1.27.62,1.91s.42,1.6,1.16,1.84a.45.45,0,0,0,.51-.14c.47-.62.13-1.45-.07-2.12s-.42-1.32-.62-2c-.4-1.27-.87-2.52-1.38-3.75-1-2.5-2-5-3-7.58-.07-.18-.4-.1-.35.1Z" transform="translate(0 5.36)" style="fill:#ffeb99"/><path d="M370.15,101.73c.3-.2.64-.33,1-.54l.89-.61c.59-.41,1.17-.83,1.75-1.26,1.12-.82,2.23-1.65,3.3-2.53s2.13-1.78,3.19-2.67a28.3,28.3,0,0,0,3.2-2.89c.42-.49-.3-1.1-.78-.76a36.86,36.86,0,0,0-3.14,2.72c-1.06.94-2.14,1.85-3.22,2.76s-2.1,1.81-3.15,2.72L371.56,100c-.27.23-.55.47-.81.71s-.5.53-.77.77a.14.14,0,0,0,.17.21Z" transform="translate(0 5.36)" style="fill:#ffeb99"/><path d="M396.3,119.28a27.63,27.63,0,0,0-1.29-4c-.48-1.34-.8-2.74-1.19-4.1s-.76-2.76-1.2-4.11c-.22-.69-.46-1.37-.71-2s-.4-1.58-1.06-1.8a.53.53,0,0,0-.61.17c-.4.61,0,1.43.24,2.06s.45,1.37.7,2c.5,1.33,1.06,2.63,1.6,3.94s1.16,2.6,1.6,3.94a29.05,29.05,0,0,0,1.53,4c.1.2.44.14.39-.1Z" transform="translate(0 5.36)" style="fill:#ffeb99"/><path d="M282,11.7l8.07,4.73a.44.44,0,0,0,.47,0l7.72-5.3a.44.44,0,0,1,.68.46l-2,9.14a.44.44,0,0,0,.16.45l7.42,5.7a.44.44,0,0,1-.23.79l-9.31.92a.44.44,0,0,0-.38.29l-3.13,8.82a.44.44,0,0,1-.82,0l-3.75-8.58a.44.44,0,0,0-.39-.26l-9.36-.25a.45.45,0,0,1-.28-.78l7-6.21a.44.44,0,0,0,.13-.46l-2.65-9A.44.44,0,0,1,282,11.7Z" transform="translate(0 5.36)" style="fill:#ffd522"/><g style="clip-path:url(#clip-path-23)"><path d="M279.4,10.14a45,45,0,0,1,11.09,11.48c4.46,7-1,21.15-1,21.15l19.68-18.29L299.87,18l-.57-8.38-6.94,3.62Z" transform="translate(0 5.36)" style="fill:#ffba1f;opacity:0.6000000000000001"/></g><path d="M285.25,21c-.34-1.3-.74-2.57-1.18-3.84-.22-.63-.44-1.26-.67-1.89l-.36-.94-.18-.49a1.4,1.4,0,0,0-.22-.44.16.16,0,0,0-.29.12,1.48,1.48,0,0,0,.16.46c.06.16.13.32.2.49l.36.89c.25.62.49,1.25.72,1.88.45,1.26.87,2.53,1.29,3.8,0,.1.2.05.17,0Z" transform="translate(0 5.36)" style="fill:#ffeb99"/><path d="M282.57,13.49c.34,1.3.69,2.59,1,3.89.15.65.32,1.3.52,1.94.11.31.21.63.31.94s.21.8.58.91a.22.22,0,0,0,.25-.07c.24-.3.07-.72,0-1.05s-.21-.65-.31-1c-.2-.63-.43-1.25-.68-1.86-.52-1.25-1-2.51-1.47-3.77,0-.09-.2,0-.17.05Z" transform="translate(0 5.36)" style="fill:#ffeb99"/><path d="M278.16,27.74c.16-.1.32-.17.47-.27l.45-.3.87-.63c.55-.4,1.1-.82,1.64-1.25L283.17,24a13.6,13.6,0,0,0,1.59-1.44c.21-.24-.15-.54-.39-.37a18.18,18.18,0,0,0-1.56,1.35c-.52.46-1.06.92-1.6,1.37l-1.56,1.35-.79.68-.4.35c-.13.12-.24.26-.38.38a.07.07,0,0,0,.08.11Z" transform="translate(0 5.36)" style="fill:#ffeb99"/><path d="M291.14,36.45a13.79,13.79,0,0,0-.63-2c-.24-.67-.4-1.36-.6-2s-.37-1.36-.59-2c-.11-.34-.23-.68-.35-1s-.2-.78-.53-.89a.27.27,0,0,0-.3.09c-.2.3,0,.71.11,1s.23.68.36,1c.24.66.52,1.3.79,2s.57,1.29.79,2a15.67,15.67,0,0,0,.76,2c.05.1.22.07.19,0Z" transform="translate(0 5.36)" style="fill:#ffeb99"/><path d="M192.93,38l4,10.17a.53.53,0,0,0,.45.32l10.91.7a.52.52,0,0,1,.3.92l-8.44,6.95a.53.53,0,0,0-.17.53l2.7,10.59a.51.51,0,0,1-.78.56l-9.21-5.87a.52.52,0,0,0-.56,0L182.9,68.7a.52.52,0,0,1-.78-.56l2.74-10.59a.51.51,0,0,0-.17-.52l-8.42-7a.52.52,0,0,1,.3-.92l10.91-.66a.51.51,0,0,0,.45-.33L192,38A.52.52,0,0,1,192.93,38Z" transform="translate(0 5.36)" style="fill:#ffd522"/><g style="clip-path:url(#clip-path-24)"><path d="M191.69,34.69a52.66,52.66,0,0,1,1.91,18.55C192.68,62.85,177.46,72,177.46,72l31.27-2.61-3.9-12.68,5.52-8.11-9-1.69Z" transform="translate(0 5.36)" style="fill:#ffba1f;opacity:0.6000000000000001"/></g><path d="M189.25,48.87c.62-1.43,1.17-2.89,1.68-4.37.25-.74.51-1.48.75-2.23.12-.37.24-.74.35-1.12l.18-.58a1.58,1.58,0,0,0,.13-.56.19.19,0,0,0-.36-.1,1.65,1.65,0,0,0-.19.54l-.17.59c-.1.36-.2.72-.31,1.08q-.33,1.13-.69,2.25c-.5,1.48-1,3-1.56,4.42,0,.11.15.19.19.08Z" transform="translate(0 5.36)" style="fill:#ffeb99"/><path d="M192.18,40.06c-.62,1.43-1.22,2.87-1.88,4.29-.33.71-.65,1.43-.91,2.16-.14.37-.27.73-.4,1.09s-.38.89-.13,1.26a.26.26,0,0,0,.28.12c.44-.12.58-.62.73-1l.42-1.12c.28-.72.51-1.46.72-2.21.43-1.51.9-3,1.37-4.51,0-.11-.15-.19-.2-.08Z" transform="translate(0 5.36)" style="fill:#ffeb99"/><path d="M177.86,50c.21,0,.42.08.63.1l.62,0,1.25,0c.81,0,1.61.05,2.42,0l2.41-.08a16,16,0,0,0,2.49-.17c.37-.07.26-.61-.08-.63-.8,0-1.61.07-2.41.12s-1.64.08-2.46.11-1.61.07-2.41.11l-1.21.06-.62,0c-.21,0-.42.06-.63.08a.08.08,0,0,0,0,.15Z" transform="translate(0 5.36)" style="fill:#ffeb99"/><path d="M183.51,67.34a16.82,16.82,0,0,0,.86-2.31c.26-.78.61-1.53.92-2.3s.64-1.52.93-2.3c.14-.39.28-.79.41-1.19s.38-.87.16-1.2a.31.31,0,0,0-.34-.14c-.4.14-.5.67-.63,1s-.28.79-.41,1.19c-.25.79-.46,1.58-.68,2.37s-.41,1.6-.68,2.37a16.73,16.73,0,0,0-.76,2.4c0,.12.15.21.22.09Z" transform="translate(0 5.36)" style="fill:#ffeb99"/><path d="M236.64,279.6l2.26,11.72a.54.54,0,0,0,.42.44l11.57,2.94a.56.56,0,0,1,.13,1l-10.45,5.77a.59.59,0,0,0-.29.54l.78,11.91a.57.57,0,0,1-.95.45l-8.72-8.16a.56.56,0,0,0-.59-.11l-11.09,4.42a.56.56,0,0,1-.72-.76L224.05,299a.57.57,0,0,0-.08-.6l-7.63-9.18a.56.56,0,0,1,.5-.92l11.85,1.47a.56.56,0,0,0,.55-.26l6.37-10.1A.56.56,0,0,1,236.64,279.6Z" transform="translate(0 5.36)" style="fill:#ffd522"/><g style="clip-path:url(#clip-path-25)"><path d="M236,275.81a57.66,57.66,0,0,1-1.67,20.3C231.39,306.24,213.21,313,213.21,313l34.1,3.46-1.64-14.4,7.55-7.6-9.3-3.61Z" transform="translate(0 5.36)" style="fill:#ffba1f;opacity:0.6000000000000001"/></g><path d="M230.51,290.55q1.43-2.13,2.68-4.36c.42-.75.84-1.49,1.25-2.24l.6-1.13.31-.59a1.85,1.85,0,0,0,.25-.58.22.22,0,0,0-.37-.18,1.86,1.86,0,0,0-.31.55c-.1.19-.2.39-.29.59l-.56,1.11c-.38.76-.78,1.52-1.19,2.26-.83,1.5-1.69,3-2.56,4.44-.07.12.12.24.19.13Z" transform="translate(0 5.36)" style="fill:#ffeb99"/><path d="M235.42,281.67c-.95,1.42-1.89,2.84-2.88,4.23-.5.7-1,1.41-1.41,2.14l-.65,1.09c-.23.38-.59.88-.39,1.33a.28.28,0,0,0,.28.18c.49,0,.75-.54,1-.92s.45-.75.68-1.13c.44-.72.84-1.46,1.21-2.22.76-1.54,1.58-3.05,2.37-4.57.06-.12-.11-.24-.19-.13Z" transform="translate(0 5.36)" style="fill:#ffeb99"/><path d="M218.06,289.45c.22.06.43.16.65.22l.66.17,1.34.31c.86.19,1.71.37,2.58.51s1.74.27,2.61.41a18.89,18.89,0,0,0,2.71.31c.4,0,.4-.6,0-.69a25.2,25.2,0,0,0-2.61-.36c-.88-.11-1.77-.24-2.65-.37s-1.75-.25-2.62-.37l-1.3-.18-.68-.09c-.23,0-.46,0-.69,0a.09.09,0,0,0,0,.17Z" transform="translate(0 5.36)" style="fill:#ffeb99"/><path d="M220.64,309.22a17.79,17.79,0,0,0,1.39-2.3c.43-.79,1-1.53,1.45-2.29s1-1.5,1.45-2.28c.24-.4.47-.79.68-1.2s.59-.85.42-1.25a.35.35,0,0,0-.34-.22c-.46.07-.67.61-.88,1s-.46.79-.68,1.2c-.43.79-.81,1.6-1.21,2.4s-.75,1.64-1.2,2.41a17.56,17.56,0,0,0-1.29,2.42c-.06.13.11.27.21.14Z" transform="translate(0 5.36)" style="fill:#ffeb99"/><path d="M158.5,166.23l2.87,14.85a.71.71,0,0,0,.52.56l14.66,3.73a.71.71,0,0,1,.17,1.32L163.48,194a.7.7,0,0,0-.36.67l1,15.09a.71.71,0,0,1-1.2.57l-11-10.33a.73.73,0,0,0-.76-.14l-14,5.6a.72.72,0,0,1-.92-1l6.41-13.69a.72.72,0,0,0-.09-.76l-9.67-11.63a.71.71,0,0,1,.63-1.17l15,1.87a.74.74,0,0,0,.7-.33L157.2,166A.71.71,0,0,1,158.5,166.23Z" transform="translate(0 5.36)" style="fill:#ffd522"/><g style="clip-path:url(#clip-path-26)"><path d="M157.65,161.44a72.84,72.84,0,0,1-2.11,25.71c-3.69,12.84-26.71,21.4-26.71,21.4l43.2,4.39-2.09-18.25,9.56-9.63-11.78-4.57Z" transform="translate(0 5.36)" style="fill:#ffba1f;opacity:0.6000000000000001"/></g><path d="M150.74,180.11q1.8-2.7,3.39-5.53c.53-.94,1.07-1.88,1.58-2.84.26-.47.52-1,.77-1.43l.39-.75a2.15,2.15,0,0,0,.31-.73.27.27,0,0,0-.46-.22,2.36,2.36,0,0,0-.4.69c-.12.25-.24.5-.37.75-.23.47-.46.94-.7,1.4-.49,1-1,1.93-1.51,2.87-1.05,1.89-2.14,3.77-3.24,5.63-.09.14.15.3.24.16Z" transform="translate(0 5.36)" style="fill:#ffeb99"/><path d="M157,168.86c-1.21,1.8-2.4,3.6-3.66,5.36-.62.88-1.23,1.78-1.78,2.71l-.82,1.38c-.29.48-.74,1.11-.49,1.68a.36.36,0,0,0,.35.23c.62,0,.95-.69,1.24-1.16l.87-1.43c.55-.91,1.06-1.86,1.53-2.81,1-2,2-3.87,3-5.8.08-.14-.15-.3-.24-.16Z" transform="translate(0 5.36)" style="fill:#ffeb99"/><path d="M135,178.71c.28.08.54.21.82.29l.84.21c.56.14,1.13.26,1.69.39,1.09.25,2.18.47,3.27.65s2.2.35,3.3.51a25,25,0,0,0,3.44.4c.51,0,.5-.76,0-.87a30.45,30.45,0,0,0-3.3-.46c-1.13-.14-2.25-.3-3.37-.47s-2.21-.32-3.31-.47l-1.65-.23-.86-.11c-.29,0-.58,0-.88-.05a.11.11,0,0,0,0,.21Z" transform="translate(0 5.36)" style="fill:#ffeb99"/><path d="M138.23,203.76a22.07,22.07,0,0,0,1.76-2.91c.55-1,1.23-1.94,1.84-2.9s1.26-1.91,1.85-2.9c.29-.5.58-1,.86-1.51s.73-1.08.52-1.59a.45.45,0,0,0-.43-.28c-.58.09-.84.78-1.11,1.24s-.59,1-.86,1.51c-.54,1-1,2-1.54,3s-1,2.08-1.52,3.06a23.11,23.11,0,0,0-1.64,3.06c-.06.16.15.34.27.18Z" transform="translate(0 5.36)" style="fill:#ffeb99"/><path d="M267.64,287.9c-.58-3.91.53-15,3.42-24.42,0,0,10.76,6.83,17.06,5.52S301,263.74,311,266.11s34.92-2.37,33.87,21.79S314.11,307.33,302,307.33,270.79,309.16,267.64,287.9Z" transform="translate(0 5.36)" style="fill:#ffd522"/><g style="clip-path:url(#clip-path-27)"><path d="M285.44,268.39s10-6.95,35.48-1.65c15.25,3.18,10.73,35.48-18.69,36.74s-41.53-13-41.53-13l6.82,18,77.38.38,6.06-32.7-12.75-13.76-48.35-1.51Z" transform="translate(0 5.36)" style="fill:#ffba1f;opacity:0.6000000000000001"/></g><path d="M344.83,255.61c0,10.73-6.86,17.59-17.59,17.59s-23.89-4.76-23.89-15.49,11.32-24.42,22-24.42S344.83,244.88,344.83,255.61Z" transform="translate(0 5.36)" style="fill:#ffd522"/><g style="clip-path:url(#clip-path-28)"><path d="M317.51,231.9l-3.07,5.69s5.21-4.05,14.56-.13,11.74,21.46,3.28,26-21.46,2.91-31.18-7.45l-.49,9.69,14.88,11.4,21.08.75,11.62-11.11,2-21-12-15.15Z" transform="translate(0 5.36)" style="fill:#ffba1f;opacity:0.6000000000000001"/></g><path d="M339.57,257c1-6.24,3.62-8,4.7-8s6.13,1.55,7.91.92,4.84-1,5.09.19-2.93,5.22-8.6,6.24c0,0,8.45.84,7.64,4.08-.13.51-5.73.19-8.09.95a23.9,23.9,0,0,0-5.08,2.65S338.94,260.83,339.57,257Z" transform="translate(0 5.36)" style="fill:#ea2727"/><g style="clip-path:url(#clip-path-29)"><path d="M357.94,256.17s-19-.09-19.57,1.73-.31,5.91-2.24,5.82l8.69,4.26,14.12-4.92Z" transform="translate(0 5.36)" style="fill:#ce0909"/></g><path d="M283.13,281.6s12.34.52,20.74-5,20.22-1.05,20.22,7.61C324.09,296.56,296.52,300.76,283.13,281.6Z" transform="translate(0 5.36)" style="fill:#fff;opacity:0.49"/><ellipse cx="326.86" cy="245.84" rx="3.82" ry="4.86" transform="translate(-35.36 61.27) rotate(-9.28)" style="fill:#fff"/><ellipse cx="329.02" cy="245.92" rx="1.05" ry="2.13" transform="matrix(0.99, -0.16, 0.16, 0.99, -35.34, 61.62)" style="fill:#232533"/><path d="M405.52,370.28l13.81,2.37" transform="translate(0 5.36)" style="fill:#cbc5e8"/><path d="M443.54,374.18q25.48-.07,51,.85" transform="translate(0 5.36)" style="fill:#cbc5e8"/><path d="M490.33,362.8l13.36.44" transform="translate(0 5.36)" style="fill:#cbc5e8"/></g></g></svg>