<svg xmlns="http://www.w3.org/2000/svg" xmlns:xlink="http://www.w3.org/1999/xlink" viewBox="0 0 805.51 818.7"><defs><clipPath id="clip-path" transform="translate(0 94.3)"><path d="M476.87,53.46,695.35.38A13.09,13.09,0,0,1,711.22,16L661.8,238.38,584.18,270.1,475.52,204.63l-36.44-56.69Z" style="fill:#ffae2c"/></clipPath><clipPath id="clip-path-2" transform="translate(0 94.3)"><circle cx="715.79" cy="-4.58" r="89.72" style="fill:#ea2727"/></clipPath><clipPath id="clip-path-3" transform="translate(0 94.3)"><path d="M661.8,238.38,192,708.2a26.61,26.61,0,0,1-20.93,7.71l-55.65-4.44a22.81,22.81,0,0,1-14.31-6.6L19.41,623.19a22.22,22.22,0,0,1-6.11-11.58L.35,542.52A20.36,20.36,0,0,1,6,524.37L476.87,53.46l26.19,70.89a19.66,19.66,0,0,0,4.51,7.05L593.16,217a20.41,20.41,0,0,0,9.09,5.26Z" style="fill:#ea2727"/></clipPath></defs><g id="Layer_2" data-name="Layer 2"><g id="Layer_3" data-name="Layer 3"><path d="M476.87,53.46,695.35.38A13.09,13.09,0,0,1,711.22,16L661.8,238.38,584.18,270.1,475.52,204.63l-36.44-56.69Z" transform="translate(0 94.3)" style="fill:#ffae2c"/><g style="clip-path:url(#clip-path)"><polygon points="717.29 74.72 528.22 327.05 639.55 363.7 668.55 333.7 718.55 103.7 717.29 74.72" style="fill:#ef8e0c"/><circle cx="715.79" cy="89.72" r="89.72" style="fill:#ea2727"/><g style="clip-path:url(#clip-path-2)"><polygon points="717.29 74.72 528.22 327.05 648.57 383.96 696.29 345.78 748.79 94.76 717.29 74.72" style="fill:#db1616"/></g></g><path d="M661.8,238.38,192,708.2a26.61,26.61,0,0,1-20.93,7.71l-55.65-4.44a22.81,22.81,0,0,1-14.31-6.6L19.41,623.19a22.22,22.22,0,0,1-6.11-11.58L.35,542.52A20.36,20.36,0,0,1,6,524.37L476.87,53.46l26.19,70.89a19.66,19.66,0,0,0,4.51,7.05L593.16,217a20.41,20.41,0,0,0,9.09,5.26Z" transform="translate(0 94.3)" style="fill:#ea2727"/><g style="clip-path:url(#clip-path-3)"><polygon points="597.99 281.83 81.55 804.7 194.55 818.7 668.55 333.7 597.99 281.83" style="fill:#db1616"/><rect x="-42.03" y="352.86" width="692.93" height="130.76" transform="translate(-206.57 432.07) rotate(-45)" style="fill:#f23636"/></g></g></g></svg>