<svg xmlns="http://www.w3.org/2000/svg" xmlns:xlink="http://www.w3.org/1999/xlink" viewBox="0 0 821.44 810.48"><defs><clipPath id="clip-path" transform="translate(24.49 22.45)"><path d="M381.84,431.45s-104.33,159.1-265.33,150.1-141-306-26-311,281,98,281,98Z" style="fill:#ea2727"/></clipPath><clipPath id="clip-path-2" transform="translate(24.49 22.45)"><path d="M347.45,387.17S14.24,262.38,134.57,103.94,412.87-3.76,446.84,72s-14.67,314.57-14.67,314.57Z" style="fill:#ea2727"/></clipPath><clipPath id="clip-path-3" transform="translate(24.49 22.45)"><path d="M436.51,443.55s144.18,176.12,58,270c-123,134-313,26-313-82s166-203,166-203Z" style="fill:#ea2727"/></clipPath><clipPath id="clip-path-4" transform="translate(24.49 22.45)"><path d="M437,361.5s236.51-110.95,332.51,36.05-161.48,337.08-275,168c-47-70-90-153-90-153Z" style="fill:#ea2727"/></clipPath><clipPath id="clip-path-5" transform="translate(24.49 22.45)"><circle cx="404.51" cy="386.55" r="90" style="fill:#ffae2c"/></clipPath></defs><g style="isolation:isolate"><g id="Layer_2" data-name="Layer 2"><g id="Layer_3" data-name="Layer 3"><path d="M381.84,431.45s-104.33,159.1-265.33,150.1-141-306-26-311,281,98,281,98Z" transform="translate(24.49 22.45)" style="fill:#ea2727"/><g style="clip-path:url(#clip-path)"><path d="M351.51,387.55s-252,232-376,25l61,168,187,22L381.84,473.67Z" transform="translate(24.49 22.45)" style="fill:#c10505;opacity:0.46;mix-blend-mode:multiply"/><path d="M108.51,253.55s168,198,282,134l-9-50Z" transform="translate(24.49 22.45)" style="fill:#c10505;opacity:0.46;mix-blend-mode:multiply"/></g><path d="M347.45,387.17S14.24,262.38,134.57,103.94,412.87-3.76,446.84,72s-14.67,314.57-14.67,314.57Z" transform="translate(24.49 22.45)" style="fill:#ea2727"/><g style="clip-path:url(#clip-path-2)"><path d="M128.51,85.55s81-44,186-32,113,172,90,275l54.38,31.37,62.62-110.37-79-230-159-42Z" transform="translate(24.49 22.45)" style="fill:#c10505;opacity:0.46;mix-blend-mode:multiply"/></g><path d="M436.51,443.55s144.18,176.12,58,270c-123,134-313,26-313-82s166-203,166-203Z" transform="translate(24.49 22.45)" style="fill:#ea2727"/><g style="clip-path:url(#clip-path-3)"><path d="M404.51,453.55s138,327-141,315c0,0,172,47,225-5s53-282,6-310S404.51,453.55,404.51,453.55Z" transform="translate(24.49 22.45)" style="fill:#c10505;opacity:0.46;mix-blend-mode:multiply"/></g><path d="M437,361.5s236.51-110.95,332.51,36.05-161.48,337.08-275,168c-47-70-90-153-90-153Z" transform="translate(24.49 22.45)" style="fill:#ea2727"/><g style="clip-path:url(#clip-path-4)"><path d="M423.51,412.55s321-95,367,114c0,0,39-198-75-230s-279.51,0-279.51,0Z" transform="translate(24.49 22.45)" style="fill:#c10505;opacity:0.46;mix-blend-mode:multiply"/></g><path d="M423.51,329.55s15-248,165-247,188,140,161,214c-35.1,96.22-307,78-307,78Z" transform="translate(24.49 22.45)" style="fill:#ea2727"/><g style="mix-blend-mode:multiply"><path d="M455.41,336.7a261.61,261.61,0,0,1,70.92-98.45c2.41-2.08-1-5.35-3.44-3.44a225.49,225.49,0,0,0-71.64,100.74c-.94,2.67,3.13,3.65,4.16,1.15Z" transform="translate(24.49 22.45)" style="fill:#ce0808"/></g><g style="mix-blend-mode:multiply"><path d="M474.45,357.6c27.06-21.47,58.94-37.94,91.37-49.62,32.61-11.74,66.54-17.25,101-20.26,4.27-.37,4.41-6.64,0-6.75-35.62-.85-71.47,7.31-104.68,19.84-33.45,12.61-63.33,31-91.09,53.35-2.45,2,1,5.37,3.44,3.44Z" transform="translate(24.49 22.45)" style="fill:#ce0808"/></g><g style="mix-blend-mode:multiply"><path d="M358.72,329c-8.65-34.84-21.09-69.44-40.87-99.57-2.49-3.8-7.81-.53-6,3.5,14.56,32.21,29.58,64.14,40.71,97.76,1.29,3.88,7.15,2.32,6.15-1.69Z" transform="translate(24.49 22.45)" style="fill:#ce0808"/></g><g style="mix-blend-mode:multiply"><path d="M343.4,396.29c-65.46-12.39-138.79,1.18-191.16,43.83-2.47,2,.7,5.94,3.35,4.34,27.84-16.75,57.29-30.2,89-37.7A262.33,262.33,0,0,1,341.83,402c3.67.53,5.36-5,1.57-5.69Z" transform="translate(24.49 22.45)" style="fill:#ce0808"/></g><g style="mix-blend-mode:multiply"><path d="M338.62,413.14c-51,8.35-100,34.57-131.45,76.08-1.88,2.49,2.17,5.47,4.27,3.3,35.17-36.22,79.24-62.85,129.38-71.42,5.23-.9,3-8.81-2.2-8Z" transform="translate(24.49 22.45)" style="fill:#ce0808"/></g><g style="mix-blend-mode:multiply"><path d="M384.64,438.91C351.42,478,329.93,528.91,331,580.7c.08,4,5.81,3.9,6.19,0C341.91,531,358,482.86,389.08,443.35c2.45-3.11-1.79-7.57-4.44-4.44Z" transform="translate(24.49 22.45)" style="fill:#ce0808"/></g><g style="mix-blend-mode:multiply"><path d="M459.83,427.58c36.22,12.44,62.43,43.33,73.87,79.25.84,2.65,4.45,1.5,4.06-1.13-5.91-39.93-38.37-72.66-76.31-84-3.79-1.13-5.3,4.61-1.62,5.88Z" transform="translate(24.49 22.45)" style="fill:#ce0808"/></g><circle cx="429" cy="409" r="90" style="fill:#ffae2c"/><g style="clip-path:url(#clip-path-5)"><path d="M326.51,325.55s56-28,106,4,8.42,178.36-92.79,152.68l118.79,8.32,56-64,.31-94.07-71.31-61.93-92,14Z" transform="translate(24.49 22.45)" style="fill:#ef8e0c"/><path d="M372.78,334.69c.73-.15,1.46-.31,2.19-.44l-3.3-2.51a3.85,3.85,0,0,1,0,.48q.06-.47,0,0c-.06.16-.37.72-.07.23-.06.11-.5.7-.07.21a3.61,3.61,0,0,1-.33.35c-.42.36-.22.25.59-.33l2.53.33c-.15-.1-.42-.43-.08,0,.58.68,1.23,1.51.8,2.52l-1.86,1.83.16-.06c.6-.14-.88,0-.27,0a3.22,3.22,0,0,0,3-2,3.19,3.19,0,0,0-.67-3.54,4.59,4.59,0,0,0-3.11-1.23,4.2,4.2,0,0,0-3.38,2,4.51,4.51,0,0,0,1.63,6.17,3.75,3.75,0,0,0,4.47-.52,3.28,3.28,0,0,0,.85-1.45c-.18.44-.16.5,0,.19a3,3,0,0,0,.43-.73,7.54,7.54,0,0,0,.54-5.14c-.45-1.78-2.34-2.2-3.83-1.55-.34.15-1,.41-1.45.59a2.46,2.46,0,0,0-1.67,2.94,2.42,2.42,0,0,0,2.94,1.67Z" transform="translate(24.49 22.45)" style="fill:#ef8e0c"/><path d="M424,336.75l0,0-.58.45.09-.05-.69.29.15,0-.77.1h.15l-.78-.1a.76.76,0,0,1,.2.06l-.71-.3a.72.72,0,0,1,.19.11l-.61-.47.15.15-.48-.62a1,1,0,0,1,.08.14l-.31-.74a.83.83,0,0,1,0,.15l-.11-.82a.38.38,0,0,1,0,.15l.11-.83a.17.17,0,0,1,0,.1l.32-.74a.35.35,0,0,1-.05.08l.49-.64-.06.06.64-.49c-.27.21-.56.4-.84.62l.65-.5a.56.56,0,0,1-.17.09l.77-.32-.19.05.85-.12h-.05a3.47,3.47,0,0,0-2.25.93,3.25,3.25,0,0,0-.94,2.26,3.21,3.21,0,0,0,.94,2.25l.64.5a3.24,3.24,0,0,0,1.61.44h.2a5.49,5.49,0,0,0,1-.14,3.7,3.7,0,0,0,1.23-.64,3.29,3.29,0,0,0,.89-1,3.74,3.74,0,0,0,0-3.76,3.86,3.86,0,0,0-3.16-1.79,3.68,3.68,0,0,0-1.81.45,3.49,3.49,0,0,0-1.28,1.25,2.8,2.8,0,0,0,.74,3.69,2.71,2.71,0,0,0,1.73.61l.76-.1a2.89,2.89,0,0,0,1.26-.74Z" transform="translate(24.49 22.45)" style="fill:#ef8e0c"/><path d="M394.17,381c7.66,0,7.67-11.91,0-11.91s-7.67,11.91,0,11.91Z" transform="translate(24.49 22.45)" style="fill:#ef8e0c"/><path d="M352.15,387.24l.09.58.3.72a2.31,2.31,0,0,0,.77.84,1.47,1.47,0,0,0,.67.39,2.3,2.3,0,0,0,1.16.26l.79-.11.72-.3a2.36,2.36,0,0,0,.85-.78,2.27,2.27,0,0,0,.53-1l.09-.58a3.09,3.09,0,0,0-.8-3l-.62-.48a3.1,3.1,0,0,0-1.56-.42,2.35,2.35,0,0,0-1.2.26,2.39,2.39,0,0,0-1,.64,3.09,3.09,0,0,0-.8,3Z" transform="translate(24.49 22.45)" style="fill:#ef8e0c"/><path d="M377.85,442.76c7.66,0,7.67-11.9,0-11.9s-7.68,11.9,0,11.9Z" transform="translate(24.49 22.45)" style="fill:#ef8e0c"/><path d="M434.62,404.44c7.66,0,7.68-11.91,0-11.91s-7.67,11.91,0,11.91Z" transform="translate(24.49 22.45)" style="fill:#ef8e0c"/><path d="M461.59,374.63c7.66,0,7.68-11.9,0-11.9s-7.67,11.9,0,11.9Z" transform="translate(24.49 22.45)" style="fill:#d37505"/><path d="M470.82,425c7.66,0,7.67-11.91,0-11.91s-7.68,11.91,0,11.91Z" transform="translate(24.49 22.45)" style="fill:#d37505"/><path d="M424.69,454.12c7.66,0,7.67-11.91,0-11.91s-7.68,11.91,0,11.91Z" transform="translate(24.49 22.45)" style="fill:#ef8e0c"/><path d="M460.17,337c7.66,0,7.68-11.91,0-11.91s-7.67,11.91,0,11.91Z" transform="translate(24.49 22.45)" style="fill:#d37505"/><path d="M339.52,359c7.66,0,7.68-11.91,0-11.91s-7.67,11.91,0,11.91Z" transform="translate(24.49 22.45)" style="fill:#ef8e0c"/><path d="M340.94,416.5c7.66,0,7.67-11.9,0-11.9s-7.67,11.9,0,11.9Z" transform="translate(24.49 22.45)" style="fill:#ef8e0c"/></g></g></g></g></svg>