<svg xmlns="http://www.w3.org/2000/svg" xmlns:xlink="http://www.w3.org/1999/xlink" viewBox="0 0 655.39 715.22"><defs><clipPath id="clip-path"><path d="M630.39,587.22c-101.69-107-98.48-218.66-141.39-353-45.56-142.63-167.61-124.77-171-125-3.65.24-125.4-17.62-171,125-42.92,134.34-39.71,246.05-141.39,353a20.61,20.61,0,0,0,9.25,34c46.69,13.32,144.61,34,303.06,34h.08c158.45,0,256.36-20.65,303.06-34A20.62,20.62,0,0,0,630.39,587.22Z" style="fill:#ea2727"/></clipPath><clipPath id="clip-path-2"><path d="M332.36,103.61c-3.47-13.89,39.53-78.89,85.53-98.89s115,27,124,77-123,67-201,53Z" style="fill:#ffae2c"/></clipPath><clipPath id="clip-path-3"><path d="M326.14,103.61C329.6,89.72,286.6,24.72,240.6,4.72s-115,27-124,77,123,67,201,53Z" style="fill:#ffae2c"/></clipPath><clipPath id="clip-path-4"><path d="M303.39,117.22c0-12,1.25-26.14,13.13-28.07s23.87.07,28.87,14.07,5,34-7,38S303.39,149.22,303.39,117.22Z" style="fill:#ffae2c"/></clipPath></defs><g style="isolation:isolate"><g id="Layer_2" data-name="Layer 2"><g id="Layer_3" data-name="Layer 3"><circle cx="318.39" cy="655.22" r="60" style="fill:#ffae2c"/><path d="M630.39,587.22c-101.69-107-98.48-218.66-141.39-353-45.56-142.63-167.61-124.77-171-125-3.65.24-125.4-17.62-171,125-42.92,134.34-39.71,246.05-141.39,353a20.61,20.61,0,0,0,9.25,34c46.69,13.32,144.61,34,303.06,34h.08c158.45,0,256.36-20.65,303.06-34A20.62,20.62,0,0,0,630.39,587.22Z" style="fill:#ea2727"/><g style="clip-path:url(#clip-path)"><path d="M178.39,144.22s134-16,200,81,65,228,26,293-168,129-357,150l422-4,186-42-58-100L463.09,81.66l-262.7,26.56Z" style="fill:#c10505;opacity:0.46;mix-blend-mode:multiply"/><path d="M70.39,431.22s262,111,505-11l39,96s-248,180-596,6Z" style="fill:#f75e5e;opacity:0.6000000000000001"/></g><path d="M332.36,103.61c-3.47-13.89,39.53-78.89,85.53-98.89s115,27,124,77-123,67-201,53Z" style="fill:#ffae2c"/><g style="clip-path:url(#clip-path-2)"><path d="M336.39,137.22s148-73,176-67,33,23,25,42-100.14,34.6-100.14,34.6Z" style="fill:#e28307"/></g><path d="M326.14,103.61C329.6,89.72,286.6,24.72,240.6,4.72s-115,27-124,77,123,67,201,53Z" style="fill:#ffae2c"/><g style="clip-path:url(#clip-path-3)"><path d="M326.39,135.22s-88-39-144-49-63,3-61,19,36,39,36,39l171,8Z" style="fill:#e28307"/></g><path d="M342.53,106.64a186.34,186.34,0,0,1,25.1-25.84c1.69-1.44-.53-4.35-2.38-3.09a79.88,79.88,0,0,0-25.07,27.12c-.82,1.42,1.27,3.19,2.35,1.81Z" style="fill:#dd830b"/><path d="M345.59,118.52c8.07-4.62,16.8-7,25.49-10.11a1.7,1.7,0,0,0-.45-3.32c-10-.38-19.26,4.13-27.08,10-2,1.51-.27,4.81,2,3.48Z" style="fill:#dd830b"/><path d="M314,102c-6-9.55-13.65-17.59-24-22.3-2.16-1-5,1.83-2.78,3.61,7.88,6.4,15.33,13.56,20.69,22.24,2.37,3.84,8.48.3,6.07-3.55Z" style="fill:#dd830b"/><path d="M313,115.4c-8.44-8.49-18.57-15.06-30.41-17.5-3-.61-5.44,3.92-2.24,5.32,10,4.37,19.66,9.61,27.68,17.16,3.29,3.1,8.17-1.75,5-5Z" style="fill:#dd830b"/><path d="M303.39,117.22c0-12,1.25-26.14,13.13-28.07s23.87.07,28.87,14.07,5,34-7,38S303.39,149.22,303.39,117.22Z" style="fill:#ffae2c"/><g style="clip-path:url(#clip-path-4)"><path d="M298.39,104.22l8-14s16.32-1.33,26.16,8.33,8.72,36-6.22,45.33h0l4.06,6.34,23-6-2-51-19-13-27,2Z" style="fill:#ea9315"/></g></g></g></g></svg>