<svg xmlns="http://www.w3.org/2000/svg" xmlns:xlink="http://www.w3.org/1999/xlink" viewBox="0 0 886.14 864.58"><defs><clipPath id="clip-path" transform="translate(0 7.34)"><path d="M23.22,11.89S42.43.64,58.14,0s26.33,22,17.8,32.32c-5.18,6.28-20.69,7.9-27-4.69S38.23,13.65,23.22,11.89Z" style="fill:#35a31a"/></clipPath><clipPath id="clip-path-2" transform="translate(0 7.34)"><path d="M73.57,52.85s2.28-28.67,12-29.38c0,0,4.24.71,5.86,4.3,0,0-9.44,1.79-15.62,26.16Z" style="fill:#9e660d"/></clipPath><clipPath id="clip-path-3" transform="translate(0 7.34)"><path d="M123.79,51.41C103.22,37,84.21,46,77.51,50.15a4.78,4.78,0,0,1-5,0C65.79,46,46.78,37,26.21,51.41,8.51,63.78,14,87.69,22,110c7.4,20.48,16,40,32.09,40,11.26,0,16.2-5.39,20.89-5.39,4.15,0,9.63,5.39,20.89,5.39,16.08,0,24.69-19.51,32.09-40C136,87.69,141.49,63.78,123.79,51.41Z" style="fill:#e22020"/></clipPath><clipPath id="clip-path-4" transform="translate(0 7.34)"><path d="M117.23,291.34s.75-39.39-25-32.42c-7.94,2.15-8.11,16.87,1.65,21.34S111.61,283.07,117.23,291.34Z" style="fill:#35a31a"/></clipPath><clipPath id="clip-path-5" transform="translate(0 7.34)"><path d="M43.61,281.75S40,255.3,55.36,253.46c8.27-1,12,5.81,6.94,12.41C58.33,271,47.25,273.31,43.61,281.75Z" style="fill:#35a31a"/></clipPath><clipPath id="clip-path-6" transform="translate(0 7.34)"><path d="M108.67,321c-.52-1.07-24.33-32-27.52-65.05h0v-10A3.86,3.86,0,0,0,77.3,242h-1a4.58,4.58,0,0,0-4.57,4.57v9.33C55.52,296,36.5,312,35.83,313H40.3c22.83-23.16,36.23-57.08,36.23-57.08h.06c1.49,6.37,10.1,40.83,27.65,64.43Z" style="fill:#35a31a"/></clipPath><clipPath id="clip-path-7" transform="translate(0 7.34)"><path d="M69.58,340.31c-5.12,18-14.39,24-31.76,25.48C20.1,367.31.93,352.89.1,337.5c-1-17.75,4.88-36.23,22.66-36.23,9.93,0,13.9,8.11,19.36,9.1,5.81,1.06,16-2.61,20.85,1C70.58,317,73.25,327.42,69.58,340.31Z" style="fill:#ea2828"/></clipPath><clipPath id="clip-path-8" transform="translate(0 7.34)"><path d="M146.76,326.4c6.7,17.51,2.85,27.83-10.16,39.43-13.27,11.83-37.27,11.78-47.15,0-11.4-13.65-17.8-31.94-3.57-42.59,8-5.95,16-1.84,21-4.31,5.29-2.64,11.22-11.66,17.29-11.7C133.58,307.13,142,313.88,146.76,326.4Z" style="fill:#ea2828"/></clipPath><clipPath id="clip-path-9" transform="translate(0 7.34)"><ellipse cx="56.42" cy="522.71" rx="23.14" ry="26.57" style="fill:#232533"/></clipPath><clipPath id="clip-path-10" transform="translate(0 7.34)"><path d="M132.86,515.58c20.77,23.85,22.66,61.16,5.69,87.47-1.71,2.64-41.65-35.49-41.65-35.49s31.72,47.59,29.44,49.53c-22.91,19.57-55.47,17.41-76.26-6.47-22.86-26.24-20-65.53,2.84-91.77S110,489.33,132.86,515.58Z" style="fill:#ea2727"/></clipPath><clipPath id="clip-path-11" transform="translate(0 7.34)"><path d="M13.3,745.07H136.7a0,0,0,0,1,0,0V848.89a5.31,5.31,0,0,1-5.31,5.31H18.61a5.31,5.31,0,0,1-5.31-5.31V745.07A0,0,0,0,1,13.3,745.07Z" style="fill:#ea2727"/></clipPath><clipPath id="clip-path-12" transform="translate(0 7.34)"><rect x="0.96" y="732.73" width="148.07" height="27.57" rx="3.12" style="fill:#f43838"/></clipPath><clipPath id="clip-path-13" transform="translate(0 7.34)"><rect x="61.5" y="731.38" width="26.99" height="122.81" style="fill:#ffae2c"/></clipPath><clipPath id="clip-path-14" transform="translate(0 7.34)"><path d="M102.25,704.65C86.77,700.23,76,729.38,75.1,731.91c7,.75,16.85-21.9,24.25-19.11,7.74,2.93,6.91,9.55,3.87,13.24S77.27,731.92,76,732c0,0-.93,0-.93,0s9.23,5,24.72,2.73S118.44,709.27,102.25,704.65Z" style="fill:#ffae2c"/></clipPath><clipPath id="clip-path-15" transform="translate(0 7.34)"><path d="M50.83,704.65c15.49-4.42,26.25,24.73,27.15,27.26-7,.75-16.85-21.9-24.24-19.11-7.75,2.93-6.92,9.55-3.88,13.24s26,5.88,27.26,6c0,0,.92,0,.92,0s-9.22,5-24.72,2.73S34.65,709.27,50.83,704.65Z" style="fill:#ffae2c"/></clipPath><clipPath id="clip-path-16" transform="translate(0 7.34)"><path d="M72.3,733.31c-.19-2.7-.77-5,3.28-5s6.17,1.35,6.17,4.05S81.17,737,77.31,737C74.36,737,72.6,737.51,72.3,733.31Z" style="fill:#ffae2c"/></clipPath><clipPath id="clip-path-17" transform="translate(0 7.34)"><path d="M343.61,12.86C335.39,4.65,322.51,0,310.88,0s-26.39,5.21-34.61,13.43S263,35.1,263,46.72V143.1c0,3.18,4.76,6.9,7.94,6.9s7.95-3.72,7.95-6.9V46.72a32,32,0,1,1,63.93,0c0,3.19,4.57,6.81,7.76,6.81s7-4.38,7-7.57C357.61,34.34,351.83,21.08,343.61,12.86Z" style="fill:#ea2727"/></clipPath><clipPath id="clip-path-18" transform="translate(0 7.34)"><path d="M380.12,356.52c-21.32-22.43-20.65-45.86-29.65-74-9.55-29.91-35.15-26.16-35.85-26.21s-26.3-3.7-35.86,26.21c-9,28.18-8.33,51.61-29.65,74a4.32,4.32,0,0,0,1.94,7.13c9.79,2.8,30.33,7.13,63.56,7.13h0c33.24,0,53.77-4.33,63.56-7.13A4.31,4.31,0,0,0,380.12,356.52Z" style="fill:#ea2727"/></clipPath><clipPath id="clip-path-19" transform="translate(0 7.34)"><path d="M317.62,255.09c-.73-2.91,8.29-16.54,17.94-20.74s24.12,5.66,26,16.15-25.79,14.05-42.15,11.12Z" style="fill:#ffae2c"/></clipPath><clipPath id="clip-path-20" transform="translate(0 7.34)"><path d="M316.31,255.09c.73-2.91-8.29-16.54-17.93-20.74s-24.12,5.66-26,16.15,25.8,14.05,42.15,11.12Z" style="fill:#ffae2c"/></clipPath><clipPath id="clip-path-21" transform="translate(0 7.34)"><path d="M311.55,258c0-2.52.26-5.49,2.75-5.89s5,0,6.05,2.95,1,7.13-1.46,8S311.55,264.66,311.55,258Z" style="fill:#ffae2c"/></clipPath><clipPath id="clip-path-22" transform="translate(0 7.34)"><path d="M312.07,552.45s-19.8,30.19-50.35,28.48-26.75-58.06-4.93-59,53.32,18.6,53.32,18.6Z" style="fill:#ea2727"/></clipPath><clipPath id="clip-path-23" transform="translate(0 7.34)"><path d="M305.54,544.05s-63.22-23.68-40.39-53.74,52.81-20.44,59.25-6.07-2.78,59.69-2.78,59.69Z" style="fill:#ea2727"/></clipPath><clipPath id="clip-path-24" transform="translate(0 7.34)"><path d="M322.44,554.75s27.36,33.42,11,51.23c-23.34,25.43-59.39,4.93-59.39-15.56s31.49-38.52,31.49-38.52Z" style="fill:#ea2727"/></clipPath><clipPath id="clip-path-25" transform="translate(0 7.34)"><path d="M322.53,539.18s44.88-21,63.1,6.84S355,610,333.45,577.9c-8.92-13.29-17.08-29-17.08-29Z" style="fill:#ea2727"/></clipPath><clipPath id="clip-path-26" transform="translate(0 7.34)"><circle cx="316.37" cy="543.93" r="17.08" style="fill:#ffae2c"/></clipPath><clipPath id="clip-path-27" transform="translate(0 7.34)"><path d="M340,715.39l45.77-11.12a2.74,2.74,0,0,1,3.32,3.27l-10.35,46.59-16.26,6.65L339.7,747.06l-7.63-11.87Z" style="fill:#ffae2c"/></clipPath><clipPath id="clip-path-28" transform="translate(0 7.34)"><circle cx="390.04" cy="703.23" r="18.8" style="fill:#ea2727"/></clipPath><clipPath id="clip-path-29" transform="translate(0 7.34)"><path d="M378.73,754.13,280.3,852.56a5.55,5.55,0,0,1-4.38,1.62l-11.66-.93a4.75,4.75,0,0,1-3-1.39l-17.11-17.11a4.61,4.61,0,0,1-1.28-2.42l-2.72-14.48a4.3,4.3,0,0,1,1.18-3.8L340,715.39l5.48,14.86a4.18,4.18,0,0,0,.95,1.47l17.93,17.93a4.31,4.31,0,0,0,1.9,1.11Z" style="fill:#ea2727"/></clipPath><clipPath id="clip-path-30" transform="translate(0 7.34)"><path d="M587.23,70.16s5.71,7.9,9.36,9.36,10.45,6.8,6.07,11.67-40.72,40.72-40.72,40.72-2.92-8-8.87-10.33-6.2-7.91-3.4-11.19S587.23,70.16,587.23,70.16Z" style="fill:#ea2727"/></clipPath><clipPath id="clip-path-31" transform="translate(0 7.34)"><path d="M550.88,24.58a43.5,43.5,0,0,0,13.37,15.8c9.24,6.56,26.26,17,29.78,21.76a10.64,10.64,0,0,1-.12,13.24c-2.55,2.8-38,38.05-38,38.05s1.34-1.82,0-6.81S541.52,96.9,532.4,90s-19.32-19.33-21.51-25.4Z" style="fill:#f23636"/></clipPath><clipPath id="clip-path-32" transform="translate(0 7.34)"><rect x="502.26" y="-1.46" width="7.05" height="142.51" rx="2.84" transform="translate(197.49 -337.2) rotate(45)" style="fill:#ffae2c"/></clipPath><clipPath id="clip-path-33" transform="translate(0 7.34)"><path d="M620.59,278.46c0,24.9-23.87,54.15-40.26,54.15-15.76,0-40.26-29.25-40.26-54.15s18-45.1,40.26-45.1S620.59,253.55,620.59,278.46Z" style="fill:#ea2727"/></clipPath><clipPath id="clip-path-34" transform="translate(0 7.34)"><path d="M770.36,258.28s-17.9,30-20.29,43.37-8.16,53.72-16.51,59.09c0,0,24.87,7.76,61.67,10.14s88.33-9.74,88.33-9.74-14.72-64.46-19.5-72.82-13.72-25.26-15.32-35Z" style="fill:#ea2727"/></clipPath><clipPath id="clip-path-35" transform="translate(0 7.34)"><path d="M769.17,247.74s39.39-5,82,0c0,0,1.79,10.34,0,14.92,0,0-57.29,3.78-82-1.59C769.17,261.07,766,253.51,769.17,247.74Z" style="fill:#f23636"/></clipPath><clipPath id="clip-path-36" transform="translate(0 7.34)"><path d="M622.88,480.05c-30.78-8-42,27.77-42.55,29.49-.52-1.72-11.76-37.45-42.54-29.49-31.54,8.16-35.71,40.71-30.65,54.47,15,40.85,63.25,75,73.19,75,9.69,0,58.21-34.12,73.2-75C658.58,520.76,654.41,488.21,622.88,480.05Z" style="fill:#f23636"/></clipPath><clipPath id="clip-path-37" transform="translate(0 7.34)"><path d="M818.19,36.46S854-13,873.77,4.06c17.27,14.9,6,21.86,7.81,34.29,1.65,11.36,3.47,17.91,0,29.34C875.9,86.37,847,106.83,817.24,53.26Z" style="fill:#f13636"/></clipPath><clipPath id="clip-path-38" transform="translate(0 7.34)"><path d="M798.93,36.46S763.13-13,743.34,4.06c-17.26,14.9-6,21.86-7.8,34.29-1.66,11.36-3.47,17.91,0,29.34,5.68,18.68,34.57,39.14,64.34-14.43Z" style="fill:#f13636"/></clipPath><clipPath id="clip-path-39" transform="translate(0 7.34)"><path d="M792.52,58.37c-1.65-5.56-4.72-21.82,1.54-26.87,5.18-4.19,22.11-3.4,27.79,1.56s3.2,24.45-1.18,28.63C815.34,66.76,795.59,68.78,792.52,58.37Z" style="fill:#f13636"/></clipPath><clipPath id="clip-path-40" transform="translate(0 7.34)"><path d="M733.56,583.3c.14-2.31,1-5.48,8.74-4.06s41.86,1.83,47.54-5.29,19.51-26.21,25-30.27,15.44-29.46,23.16-32.31,22.56,0,25.81,5.89,11,22-1.83,31.7-33.12,21.74-37.19,29.87-22.55,17.48-32.91,17.07-26.62-4.88-34.34-5.49S733.36,586.76,733.56,583.3Z" style="fill:#f74343"/></clipPath><clipPath id="clip-path-41" transform="translate(0 7.34)"><path d="M839.63,505.89c-3,1.34-6.29,6.87-5.58,8.51s9.84-.59,12.08,1.44,3.45,5.89,4.06,8.13,7.93-.2,9.55.61,2,2.84,2.44,4.47,2.24,1.83,3.25,3.05-2.44,3,0,6.3,4.88-.82,5.89-3.26-3-20.11-5.28-23.57.61-16.25,7.52-15.64,7.31,7.31,7.31,7.31,2.24.61,2.65-.61-2-10.16-10.16-10.16-13.62,8.94-13.62,13.62a21.76,21.76,0,0,1-6.09-.61C850.4,504.67,845.11,503.45,839.63,505.89Z" style="fill:#35a31a"/></clipPath><clipPath id="clip-path-42" transform="translate(0 7.34)"><path d="M655.33,741.69a75,75,0,1,1-150,0h16.22l10.69,22.43,37.6.76,6.68-23.19Z" style="fill:#2d9110"/></clipPath><clipPath id="clip-path-43" transform="translate(0 7.34)"><path d="M575.49,741.69a8,8,0,0,1-7.94,7,7.56,7.56,0,0,1-1.36-.12,12.5,12.5,0,0,1-24.54.24,10.68,10.68,0,0,1-17.56-7.09h-11.7a67.94,67.94,0,1,0,135.88,0Z" style="fill:#ea2727"/></clipPath><clipPath id="clip-path-44" transform="translate(0 7.34)"><path d="M829.47,755.91v56.46c0,14.68-6.24,21.48-20.91,21.48s-21.48-6.8-21.48-21.48V755.91H766.73v56.46a41.83,41.83,0,0,0,83.65,0V755.91Z" style="fill:#ea2727"/></clipPath></defs><g style="isolation:isolate"><g id="Layer_2" data-name="Layer 2"><g id="Layer_3" data-name="Layer 3"><path d="M23.22,11.89S42.43.64,58.14,0s26.33,22,17.8,32.32c-5.18,6.28-20.69,7.9-27-4.69S38.23,13.65,23.22,11.89Z" transform="translate(0 7.34)" style="fill:#35a31a"/><g style="clip-path:url(#clip-path)"><path d="M17.59,14S51,2.32,63,11.94c10.71,8.6,8.87,26.9-2.06,28s12,3.66,12,3.66L85.78,14.64,62.15-2.91,43.82,0Z" transform="translate(0 7.34)" style="fill:#428e06"/></g><path d="M39.56,9.43c11-1.34,20.5-.61,26.92,9.69,2.93,4.71,4.75,14.48,11.32,15.06,1.26.11,1.57-2,.3-2.22-4.66-.63-7.14-9.74-9.29-13.16a26.09,26.09,0,0,0-7.36-8c-6.25-4.13-15-3.69-22-1.82-.26.07-.22.52.07.49Z" transform="translate(0 7.34)" style="fill:#327c01"/><path d="M73.57,52.85s2.28-28.67,12-29.38c0,0,4.24.71,5.86,4.3,0,0-9.44,1.79-15.62,26.16Z" transform="translate(0 7.34)" style="fill:#9e660d"/><g style="clip-path:url(#clip-path-2)"><path d="M93.71,23.42s-7.43,0-12.32,9.28-7.6,22.11-7.6,22.11l6.08-4.56,7.09-16,6.75-5.57Z" transform="translate(0 7.34)" style="fill:#8e5606"/></g><path d="M123.79,51.41C103.22,37,84.21,46,77.51,50.15a4.78,4.78,0,0,1-5,0C65.79,46,46.78,37,26.21,51.41,8.51,63.78,14,87.69,22,110c7.4,20.48,16,40,32.09,40,11.26,0,16.2-5.39,20.89-5.39,4.15,0,9.63,5.39,20.89,5.39,16.08,0,24.69-19.51,32.09-40C136,87.69,141.49,63.78,123.79,51.41Z" transform="translate(0 7.34)" style="fill:#e22020"/><g style="clip-path:url(#clip-path-3)"><path d="M45.86,41.14s14.21,2.56,19.31,8.4,11.47,7.66,17.31,4.38,28.78,2.21,34.42,19.53-6.57,64-18.24,67.58-25.36,1.26-23.72,3.63,21.49,8.58,21.49,8.58l23.91-9.3s18.4-64.86,18.77-65.41-8.2-26.24-8.2-26.24L102.35,37.18Z" transform="translate(0 7.34)" style="fill:#c10505;opacity:0.46;mix-blend-mode:multiply"/></g><ellipse cx="35.21" cy="66.45" rx="7.63" ry="5.81" transform="translate(-39.89 77.82) rotate(-65.16)" style="fill:#fff;opacity:0.45"/><path d="M117.23,291.34s.75-39.39-25-32.42c-7.94,2.15-8.11,16.87,1.65,21.34S111.61,283.07,117.23,291.34Z" transform="translate(0 7.34)" style="fill:#35a31a"/><g style="clip-path:url(#clip-path-4)"><path d="M88.11,259.41s4.8,0,14.23,8.94,16.21,24.81,16.21,24.81l.54-11.49-10.32-23.23-14.37-2.5Z" transform="translate(0 7.34)" style="fill:#2d9110"/></g><path d="M43.61,281.75S40,255.3,55.36,253.46c8.27-1,12,5.81,6.94,12.41C58.33,271,47.25,273.31,43.61,281.75Z" transform="translate(0 7.34)" style="fill:#35a31a"/><g style="clip-path:url(#clip-path-5)"><path d="M63.79,255.28a46.7,46.7,0,0,0-9.92,7.77C49.62,267.44,43,276.62,43.28,284.4l10.59-8.28,9.92-6.78,4-11.25L61,253.36" transform="translate(0 7.34)" style="fill:#2d9110"/></g><path d="M47,272.4a50.23,50.23,0,0,1,13.36-14.09c4.67-3.31,9.79-5,15-7.29.6-.27.13-1.06-.41-1-12,1.78-22.5,12.06-28.15,22.22a.14.14,0,0,0,.24.14Z" transform="translate(0 7.34)" style="fill:#358706"/><path d="M79.28,252.83c8.25,2.68,15.17,8.19,21.19,14.29,2.5,2.54,5,5.13,7.25,7.91,2.83,3.53,4.69,7.55,7.28,11.23.32.45,1.22.19,1-.42-3.18-7.89-9.4-14.19-15.41-20-6.21-6-12.79-11-21.15-13.5a.26.26,0,0,0-.14.5Z" transform="translate(0 7.34)" style="fill:#358706"/><path d="M108.67,321c-.52-1.07-24.33-32-27.52-65.05h0v-10A3.86,3.86,0,0,0,77.3,242h-1a4.58,4.58,0,0,0-4.57,4.57v9.33C55.52,296,36.5,312,35.83,313H40.3c22.83-23.16,36.23-57.08,36.23-57.08h.06c1.49,6.37,10.1,40.83,27.65,64.43Z" transform="translate(0 7.34)" style="fill:#35a31a"/><g style="clip-path:url(#clip-path-6)"><path d="M71.24,244.52s6.45-2,7.28,1.82S86.46,292,88.44,298s17.38,24.82,17.38,24.82l5.12-5.3s-18.53-24.81-19.52-32.26S83.65,249,83.65,249l-1.82-7.77-8.44-2.15Z" transform="translate(0 7.34)" style="fill:#2d9110;stroke:#35a31a;stroke-miterlimit:10;stroke-width:0.18428927314150118px"/></g><path d="M69.58,340.31c-5.12,18-14.39,24-31.76,25.48C20.1,367.31.93,352.89.1,337.5c-1-17.75,4.88-36.23,22.66-36.23,9.93,0,13.9,8.11,19.36,9.1,5.81,1.06,16-2.61,20.85,1C70.58,317,73.25,327.42,69.58,340.31Z" transform="translate(0 7.34)" style="fill:#ea2828"/><g style="clip-path:url(#clip-path-7)"><path d="M35.83,304.75s20.52,3.47,20.35,26.3S38,367.54,19.76,364.23c0,0,19.71,7.19,30.8,3.88s19-14.73,21.17-24.16,2.32-26.47-1.65-30.93S35.83,304.75,35.83,304.75Z" transform="translate(0 7.34)" style="fill:#c10505;opacity:0.46;mix-blend-mode:multiply"/></g><path d="M146.76,326.4c6.7,17.51,2.85,27.83-10.16,39.43-13.27,11.83-37.27,11.78-47.15,0-11.4-13.65-17.8-31.94-3.57-42.59,8-5.95,16-1.84,21-4.31,5.29-2.64,11.22-11.66,17.29-11.7C133.58,307.13,142,313.88,146.76,326.4Z" transform="translate(0 7.34)" style="fill:#ea2828"/><g style="clip-path:url(#clip-path-8)"><path d="M108.63,313l-3.08,3.42s8.21-2.26,19,2.37,9.6,28.45,1.49,40.86-21.34,16.05-31.93,13.9l22.26,4.29,24.72-8.43,11-25.66L145,312.19l-20.68-8.6Z" transform="translate(0 7.34)" style="fill:#c10505;opacity:0.46;mix-blend-mode:multiply"/></g><ellipse cx="92.5" cy="333.12" rx="5.54" ry="4.22" transform="translate(-251.27 303.73) rotate(-68.38)" style="fill:#fff;opacity:0.45"/><ellipse cx="90.18" cy="343.87" rx="2.99" ry="2.27" transform="matrix(0.07, -1, 1, 0.07, -259.27, 416.52)" style="fill:#fff;opacity:0.45"/><ellipse cx="18.15" cy="313.84" rx="5.54" ry="4.22" transform="translate(-236.8 137.27) rotate(-50.88)" style="fill:#fff;opacity:0.45"/><ellipse cx="12.71" cy="323.4" rx="2.99" ry="2.27" transform="translate(-292.64 223.46) rotate(-68.39)" style="fill:#fff;opacity:0.45"/><ellipse cx="91.34" cy="570.15" rx="54.23" ry="62.27" style="fill:#232533"/><ellipse cx="56.42" cy="530.05" rx="23.14" ry="26.57" style="fill:#232533"/><g style="clip-path:url(#clip-path-9)"><path d="M29.16,505.59s36.77-5.88,43.35,23.52,11.16-31.5,11.16-31.5l-34-10.71-17.93,12Z" transform="translate(0 7.34)" style="fill:#13141c"/></g><path d="M132.86,515.58c20.77,23.85,22.66,61.16,5.69,87.47-1.71,2.64-41.65-35.49-41.65-35.49s31.72,47.59,29.44,49.53c-22.91,19.57-55.47,17.41-76.26-6.47-22.86-26.24-20-65.53,2.84-91.77S110,489.33,132.86,515.58Z" transform="translate(0 7.34)" style="fill:#ea2727"/><g style="clip-path:url(#clip-path-10)"><path d="M50.26,513.78s36.21-17.43,59.63,12.39.73,80.44-22.14,88.63-51.94-2.1-51.94-2.1l56.25,23.51L135.81,617l17.43-30.57-5-49.8-17.69-27.46L95,490.65Z" transform="translate(0 7.34)" style="fill:#c10505;opacity:0.46;mix-blend-mode:multiply"/></g><ellipse cx="94.96" cy="526.04" rx="6.58" ry="7.56" style="fill:#232533"/><ellipse cx="103.24" cy="556.93" rx="6.58" ry="7.56" style="fill:#232533"/><ellipse cx="132.73" cy="559.9" rx="6.58" ry="7.56" style="fill:#232533"/><ellipse cx="53.7" cy="573.41" rx="6.58" ry="7.56" style="fill:#232533"/><ellipse cx="80.6" cy="582.92" rx="6.58" ry="7.56" style="fill:#232533"/><ellipse cx="83.19" cy="616.78" rx="6.58" ry="7.56" style="fill:#232533"/><path d="M70.62,536.82c5.5,6.88,11.55,13.29,17.19,20.06s10.37,14.42,16.49,20.61A.43.43,0,0,0,105,577c-4.16-7.27-10.24-13.93-15.53-20.41-5.8-7.1-12.36-13.3-18.52-20-.2-.22-.49.09-.31.31Z" transform="translate(0 7.34)" style="fill:#232533"/><path d="M52.77,501c-4.17-13.52-.75-25.59,7.62-36.55.35-.46-.37-.91-.76-.58-10.42,8.85-12.08,25.15-7.86,37.41.22.62,1.2.36,1-.28Z" transform="translate(0 7.34)" style="fill:#232533"/><path d="M35.94,517.57c-11.66-4-24.11.24-31.42,10-.42.56.49,1.26,1,.75,7.79-8.43,18.78-12.77,30.06-9.32.93.28,1.31-1.14.4-1.46Z" transform="translate(0 7.34)" style="fill:#232533"/><ellipse cx="60.43" cy="471.09" rx="4.94" ry="5.67" style="fill:#232533"/><ellipse cx="4.94" cy="534.95" rx="4.94" ry="5.67" style="fill:#232533"/><path d="M13.3,752.41H136.7a0,0,0,0,1,0,0V856.23a5.31,5.31,0,0,1-5.31,5.31H18.61a5.31,5.31,0,0,1-5.31-5.31V752.41A0,0,0,0,1,13.3,752.41Z" style="fill:#ea2727"/><g style="clip-path:url(#clip-path-11)"><polygon points="99.1 757.62 40.71 864.11 137.79 861.54 141.13 753.95 99.1 757.62" style="fill:#c10505;opacity:0.46;mix-blend-mode:multiply"/><polygon points="11.18 769.48 142.87 775.26 139.2 757.14 11.18 761.77 11.18 769.48" style="fill:#c90d0d"/></g><rect x="0.96" y="740.07" width="148.07" height="27.57" rx="3.12" style="fill:#f43838"/><g style="clip-path:url(#clip-path-12)"><polygon points="124.93 738.75 108 773.04 149.14 768.54 150.21 739.61 124.93 738.75" style="fill:#e00e0e"/></g><rect x="85.22" y="740.07" width="5.98" height="121.47" style="fill:#cc0d0d;opacity:0.46;mix-blend-mode:multiply"/><path d="M74.91,732.34h-.07l-.07-.17A1.66,1.66,0,0,1,74.91,732.34Z" transform="translate(0 7.34)" style="fill:#ffab50"/><rect x="61.5" y="738.72" width="26.99" height="122.81" style="fill:#ffae2c"/><g style="clip-path:url(#clip-path-13)"><path d="M83.23,726.21S79.56,855.09,57,855.48l39.86-.21L92.35,725.6Z" transform="translate(0 7.34)" style="fill:#ef8e0c"/><path d="M60.73,738.13s8.87-.58,10.61-1.74a6.77,6.77,0,0,0,5.2,2.12A31.39,31.39,0,0,0,83.29,737c2.8-1.05,4,1.77,6.56,1.35,6.94-1.16,1.35-10,1.35-10H59Z" transform="translate(0 7.34)" style="fill:#ef8e0c"/></g><path d="M102.25,704.65C86.77,700.23,76,729.38,75.1,731.91c7,.75,16.85-21.9,24.25-19.11,7.74,2.93,6.91,9.55,3.87,13.24S77.27,731.92,76,732c0,0-.93,0-.93,0s9.23,5,24.72,2.73S118.44,709.27,102.25,704.65Z" transform="translate(0 7.34)" style="fill:#ffae2c"/><g style="clip-path:url(#clip-path-14)"><path d="M85.22,708.44s11.76-4.63,16.77-1,8.68,8.49,7.71,14.65S97.37,735.86,91.2,737l13.3-1.56,10.6-7.14L114,705.93l-12.73-5.78-10,1.54Z" transform="translate(0 7.34)" style="fill:#ef8e0c"/></g><path d="M75,732h.06l0-.12A1,1,0,0,0,75,732Z" transform="translate(0 7.34)" style="fill:#ffab50"/><path d="M50.83,704.65c15.49-4.42,26.25,24.73,27.15,27.26-7,.75-16.85-21.9-24.24-19.11-7.75,2.93-6.92,9.55-3.88,13.24s26,5.88,27.26,6c0,0,.92,0,.92,0s-9.22,5-24.72,2.73S34.65,709.27,50.83,704.65Z" transform="translate(0 7.34)" style="fill:#ffae2c"/><g style="clip-path:url(#clip-path-15)"><path d="M43.38,706.51s11.18-.2,17.16,11.37,14.56,14,14.56,14L77,729.23l0-7.68L60.35,701.69l-14.27.38Z" transform="translate(0 7.34)" style="fill:#ef8e0c"/></g><path d="M78.08,732h0l0-.12A1,1,0,0,1,78.08,732Z" transform="translate(0 7.34)" style="fill:#ffab50"/><path d="M72.3,733.31c-.19-2.7-.77-5,3.28-5s6.17,1.35,6.17,4.05S81.17,737,77.31,737C74.36,737,72.6,737.51,72.3,733.31Z" transform="translate(0 7.34)" style="fill:#ffae2c"/><g style="clip-path:url(#clip-path-16)"><path d="M72.88,728.1s4.05-1,5.2,3.86-1.54,6.55-1.54,6.55l5.21-2.31,1.35-7.91-6.17-2.5Z" transform="translate(0 7.34)" style="fill:#ef8e0c"/></g><path d="M343.61,12.86C335.39,4.65,322.51,0,310.88,0s-26.39,5.21-34.61,13.43S263,35.1,263,46.72V143.1c0,3.18,4.76,6.9,7.94,6.9s7.95-3.72,7.95-6.9V46.72a32,32,0,1,1,63.93,0c0,3.19,4.57,6.81,7.76,6.81s7-4.38,7-7.57C357.61,34.34,351.83,21.08,343.61,12.86Z" transform="translate(0 7.34)" style="fill:#ea2727"/><g style="clip-path:url(#clip-path-17)"><path d="M285.35,6.81l-5.3,3.4s19.49-6.62,34.62-1.51,31.21,17,24.21,46.72l18.73-1.51,3-22.13L337,2.84,307.86-2.84Z" transform="translate(0 7.34)" style="fill:#c10505;opacity:0.46;mix-blend-mode:multiply"/><polyline points="279.68 47.12 267.57 159.42 280.05 157.34 279.68 47.12" style="fill:#c10505;opacity:0.46;mix-blend-mode:multiply"/><g style="mix-blend-mode:lighten"><path d="M291.52,120.16c-3.54-9.21-11.88-14.62-20.77-18.11a39.68,39.68,0,0,0-13.65-2.79c-5.09-.14-9.26,1.44-13.76,3.66-2.22,1.1-1.68,4.79.69,5.32,7,1.57,14.12,3.33,21,5.39,6.7,2,14.27,5.67,19.05,10.87,2.9,3.16,9.1-.13,7.47-4.34Z" transform="translate(0 7.34)" style="fill:#ffe1e1"/></g><g style="mix-blend-mode:lighten"><path d="M289.54,83.74c-3.46-7.16-9.44-11.72-16.48-15.06-6.88-3.25-15.66-7-23-3.8-2.6,1.13-3.64,5.42-2,7.67,4.16,5.73,11.57,6.76,18,8.86a154.38,154.38,0,0,1,18.4,7.47,3.79,3.79,0,0,0,5.14-5.14Z" transform="translate(0 7.34)" style="fill:#ffe1e1"/></g><g style="mix-blend-mode:lighten"><path d="M293.87,51.93c-7.17-11.18-21.93-19.19-35.43-18a7.2,7.2,0,0,0-6.59,5,6.27,6.27,0,0,0,0,3.64,6.83,6.83,0,0,0,4.77,4.77c5.26,1.59,10.57,2.62,15.7,4.66,4.94,2,9.73,4.63,14.46,7,4.35,2.23,10-2.47,7.09-7.08Z" transform="translate(0 7.34)" style="fill:#ffe1e1"/></g><g style="mix-blend-mode:lighten"><path d="M298,25.25c-.13-5.69-3.46-10.73-7.32-14.75-3.53-3.67-9.22-8.66-14.69-8-5.06.6-7.88,5-5.61,9.78,1.82,3.84,6.51,6.13,9.49,9,3.13,3.06,5.67,6.53,9.27,9s9-.86,8.86-5.09Z" transform="translate(0 7.34)" style="fill:#ffe1e1"/></g><g style="mix-blend-mode:lighten"><path d="M315.83,21.18c2.49-4.25,4.4-7.66,4.25-12.79C319.93,3.6,318.61-2,315-5.36c-5.26-4.89-13.12,0-11.69,6.8,1.21,5.81,4.75,11.19,3.93,17.41-.62,4.75,6.46,6,8.6,2.33Z" transform="translate(0 7.34)" style="fill:#ffe1e1"/></g><g style="mix-blend-mode:lighten"><path d="M327.22,32.19a24.46,24.46,0,0,0,17-6.09c4.52-4,9.9-10.62,7.9-17C351.28,6.36,348,3.84,345,5.05c-5,2-7.05,6.65-10.64,10.34-3.26,3.35-6.52,6.7-10,9.77-2.82,2.47-.44,6.91,2.91,7Z" transform="translate(0 7.34)" style="fill:#ffe1e1"/></g><g style="mix-blend-mode:lighten"><path d="M331.28,47.59a24.59,24.59,0,0,0,16.77,1.57c5.17-1.18,12.14-3.48,15-8.21a3.33,3.33,0,0,0-2.84-5c-4.61-.36-8.51,2.79-12.69,4.35a33.15,33.15,0,0,1-14.84,2.19c-2.65-.25-3.75,3.93-1.37,5.06Z" transform="translate(0 7.34)" style="fill:#ffe1e1"/></g><g style="mix-blend-mode:lighten"><path d="M288.27,138.8c-7.07-6.9-16.44-12.58-26.66-11.84a4.49,4.49,0,0,0-1.18,8.78c8,2.75,16.07,4.42,23.45,8.74,3.53,2.06,7.36-2.78,4.39-5.68Z" transform="translate(0 7.34)" style="fill:#ffe1e1"/></g></g><circle cx="314.69" cy="378.12" r="12.58" style="fill:#ffae2c"/><path d="M380.12,356.52c-21.32-22.43-20.65-45.86-29.65-74-9.55-29.91-35.15-26.16-35.85-26.21s-26.3-3.7-35.86,26.21c-9,28.18-8.33,51.61-29.65,74a4.32,4.32,0,0,0,1.94,7.13c9.79,2.8,30.33,7.13,63.56,7.13h0c33.24,0,53.77-4.33,63.56-7.13A4.31,4.31,0,0,0,380.12,356.52Z" transform="translate(0 7.34)" style="fill:#ea2727"/><g style="clip-path:url(#clip-path-18)"><path d="M285.33,263.61s28.1-3.36,41.94,17,13.64,47.81,5.46,61.45-35.24,27.05-74.87,31.45l88.5-.83,39-8.81-12.17-21L345,250.49l-55.1,5.57Z" transform="translate(0 7.34)" style="fill:#c10505;opacity:0.46;mix-blend-mode:multiply"/><path d="M262.68,323.8s54.95,23.28,105.91-2.31l8.18,20.14s-52,37.75-125,1.25Z" transform="translate(0 7.34)" style="fill:#f75e5e;opacity:0.6000000000000001"/></g><path d="M317.62,255.09c-.73-2.91,8.29-16.54,17.94-20.74s24.12,5.66,26,16.15-25.79,14.05-42.15,11.12Z" transform="translate(0 7.34)" style="fill:#ffae2c"/><g style="clip-path:url(#clip-path-19)"><path d="M318.47,262.14s31-15.31,36.91-14,6.92,4.82,5.24,8.81-21,7.25-21,7.25Z" transform="translate(0 7.34)" style="fill:#e28307"/></g><path d="M316.31,255.09c.73-2.91-8.29-16.54-17.93-20.74s-24.12,5.66-26,16.15,25.8,14.05,42.15,11.12Z" transform="translate(0 7.34)" style="fill:#ffae2c"/><g style="clip-path:url(#clip-path-20)"><path d="M316.37,261.72s-18.46-8.18-30.2-10.28-13.21.63-12.8,4,7.56,8.18,7.56,8.18l35.86,1.68Z" transform="translate(0 7.34)" style="fill:#e28307"/></g><path d="M319.75,255.73a38.57,38.57,0,0,1,5.27-5.42c.35-.3-.11-.91-.5-.65a16.76,16.76,0,0,0-5.26,5.69c-.17.3.27.67.49.38Z" transform="translate(0 7.34)" style="fill:#dd830b"/><path d="M320.39,258.22a32,32,0,0,1,5.35-2.12.36.36,0,0,0-.09-.7,9.17,9.17,0,0,0-5.68,2.09c-.43.32-.06,1,.42.73Z" transform="translate(0 7.34)" style="fill:#dd830b"/><path d="M313.76,254.75a11.77,11.77,0,0,0-5-4.68c-.45-.21-1,.38-.58.76a19.23,19.23,0,0,1,4.34,4.66c.49.81,1.77.07,1.27-.74Z" transform="translate(0 7.34)" style="fill:#dd830b"/><path d="M313.55,257.57a12.7,12.7,0,0,0-6.38-3.68c-.63-.13-1.14.83-.47,1.12a20.05,20.05,0,0,1,5.81,3.6c.69.65,1.71-.37,1-1Z" transform="translate(0 7.34)" style="fill:#dd830b"/><path d="M311.55,258c0-2.52.26-5.49,2.75-5.89s5,0,6.05,2.95,1,7.13-1.46,8S311.55,264.66,311.55,258Z" transform="translate(0 7.34)" style="fill:#ffae2c"/><g style="clip-path:url(#clip-path-21)"><path d="M310.5,255.22l1.67-2.94s3.43-.28,5.49,1.75,1.83,7.55-1.3,9.51h0l.85,1.33,4.82-1.26-.42-10.7-4-2.72-5.67.41Z" transform="translate(0 7.34)" style="fill:#ea9315"/></g><path d="M312.07,552.45s-19.8,30.19-50.35,28.48-26.75-58.06-4.93-59,53.32,18.6,53.32,18.6Z" transform="translate(0 7.34)" style="fill:#ea2727"/><g style="clip-path:url(#clip-path-22)"><path d="M306.31,544.12s-47.81,44-71.34,4.75l11.57,31.87L282,584.92l30-24.46Z" transform="translate(0 7.34)" style="fill:#c10505;opacity:0.46;mix-blend-mode:multiply"/><path d="M260.21,518.7s31.87,37.57,53.5,25.42l-1.7-9.48Z" transform="translate(0 7.34)" style="fill:#c10505;opacity:0.46;mix-blend-mode:multiply"/></g><path d="M305.54,544.05s-63.22-23.68-40.39-53.74,52.81-20.44,59.25-6.07-2.78,59.69-2.78,59.69Z" transform="translate(0 7.34)" style="fill:#ea2727"/><g style="clip-path:url(#clip-path-23)"><path d="M264,486.82a65.11,65.11,0,0,1,35.29-6.07c19.93,2.27,21.44,32.63,17.08,52.18l10.32,6,11.88-20.94-15-43.64-30.17-8Z" transform="translate(0 7.34)" style="fill:#c10505;opacity:0.46;mix-blend-mode:multiply"/></g><path d="M322.44,554.75s27.36,33.42,11,51.23c-23.34,25.43-59.39,4.93-59.39-15.56s31.49-38.52,31.49-38.52Z" transform="translate(0 7.34)" style="fill:#ea2727"/><g style="clip-path:url(#clip-path-24)"><path d="M316.37,556.65s26.19,62-26.75,59.77c0,0,32.63,8.91,42.69-.95s10.06-53.51,1.14-58.82A16.81,16.81,0,0,0,316.37,556.65Z" transform="translate(0 7.34)" style="fill:#c10505;opacity:0.46;mix-blend-mode:multiply"/></g><path d="M322.53,539.18s44.88-21,63.1,6.84S355,610,333.45,577.9c-8.92-13.29-17.08-29-17.08-29Z" transform="translate(0 7.34)" style="fill:#ea2727"/><g style="clip-path:url(#clip-path-25)"><path d="M320,548.87s60.9-18,69.63,21.63c0,0,7.4-37.57-14.23-43.64s-53,0-53,0Z" transform="translate(0 7.34)" style="fill:#c10505;opacity:0.46;mix-blend-mode:multiply"/></g><path d="M320,533.12s2.84-47.06,31.3-46.87,35.68,26.56,30.55,40.61c-6.66,18.25-58.25,14.8-58.25,14.8Z" transform="translate(0 7.34)" style="fill:#ea2727"/><g style="mix-blend-mode:multiply"><path d="M326,534.57a51.62,51.62,0,0,1,13.5-18.78c.45-.4-.2-1-.66-.65a43.86,43.86,0,0,0-13.59,19.12c-.16.43.57.74.75.31Z" transform="translate(0 7.34)" style="fill:#ce0808"/></g><g style="mix-blend-mode:multiply"><path d="M329.64,538.44c10.67-8.28,23.24-12,36.49-13.26a.64.64,0,0,0,0-1.28c-13.7-.17-26.55,5.54-37.14,13.89-.47.36.19,1,.65.65Z" transform="translate(0 7.34)" style="fill:#ce0808"/></g><g style="mix-blend-mode:multiply"><path d="M307.68,533a62.82,62.82,0,0,0-7.75-18.89.66.66,0,0,0-1.14.66c2.73,6.14,5.57,12.18,7.72,18.55a.61.61,0,0,0,1.17-.32Z" transform="translate(0 7.34)" style="fill:#ce0808"/></g><g style="mix-blend-mode:multiply"><path d="M304.77,545.78c-12.65-2.21-26.06.24-36.27,8.32-.47.37.14,1.11.64.82,11-6.39,22.74-9.68,35.49-8,.62.08.77-1,.14-1.1Z" transform="translate(0 7.34)" style="fill:#ce0808"/></g><g style="mix-blend-mode:multiply"><path d="M303.87,549c-9.75,1.75-18.71,6.46-24.86,14.33-.4.51.24,1.21.73.73,6.88-6.88,14.92-11.75,24.54-13.55,1-.19.57-1.69-.41-1.51Z" transform="translate(0 7.34)" style="fill:#ce0808"/></g><g style="mix-blend-mode:multiply"><path d="M312.6,553.87c-6.29,7.63-10.23,16.91-10.18,26.9a.59.59,0,0,0,1.18,0c1.06-9.62,4-18.43,9.94-26.18.4-.53-.51-1.25-.94-.72Z" transform="translate(0 7.34)" style="fill:#ce0808"/></g><g style="mix-blend-mode:multiply"><path d="M326.87,551.72c6.94,2.5,11.7,8.14,14,15a.4.4,0,0,0,.77-.21c-1.25-7.67-7.2-13.64-14.48-15.94-.71-.22-1,.87-.3,1.12Z" transform="translate(0 7.34)" style="fill:#ce0808"/></g><circle cx="316.37" cy="551.28" r="17.08" style="fill:#ffae2c"/><g style="clip-path:url(#clip-path-26)"><path d="M301.57,532.36s10.63-5.31,20.11.76,1.6,33.84-17.6,29l22.54,1.58,10.62-12.15.06-17.85-13.53-11.75-17.46,2.66Z" transform="translate(0 7.34)" style="fill:#ef8e0c"/><path d="M310.35,534.09l.42-.08-.63-.48v.09c0-.06,0-.06,0,0s-.07.14,0,0-.1.13,0,0l-.06.06c-.08.07,0,.05.11-.06l.48.06s-.08-.08,0,0a.45.45,0,0,1,.15.48l-.35.34h0c.11,0-.17,0-.05,0a.62.62,0,0,0,.56-.38.61.61,0,0,0-.13-.68.86.86,0,0,0-.59-.23.81.81,0,0,0-.64.38.85.85,0,0,0,.31,1.17.71.71,0,0,0,.85-.1.57.57,0,0,0,.16-.27c0,.08,0,.09,0,0a.87.87,0,0,0,.08-.14,1.48,1.48,0,0,0,.1-1,.5.5,0,0,0-.73-.29l-.27.11a.47.47,0,0,0-.32.56.46.46,0,0,0,.56.31Z" transform="translate(0 7.34)" style="fill:#ef8e0c"/><path d="M320.07,534.48h0l-.11.08h0l-.13.06h0l-.14,0h0l-.15,0h0l-.14-.06,0,0-.12-.09,0,0-.09-.12v0l-.05-.14v0l0-.15v0l0-.16v0l.06-.14h0l.09-.12h0l.12-.09a1.67,1.67,0,0,0-.16.12l.13-.1,0,0,.15-.06h0l.16,0h0a.66.66,0,0,0-.43.17.6.6,0,0,0-.18.43.62.62,0,0,0,.18.43l.12.09a.56.56,0,0,0,.31.09h0l.19,0a.84.84,0,0,0,.23-.12.75.75,0,0,0,.17-.19.71.71,0,0,0,0-.72.78.78,0,0,0-.6-.34l-.18,0-.17.07a.62.62,0,0,0-.24.24.5.5,0,0,0-.05.41.51.51,0,0,0,.19.29.49.49,0,0,0,.33.11l.14,0a.49.49,0,0,0,.24-.14Z" transform="translate(0 7.34)" style="fill:#ef8e0c"/><path d="M314.41,542.88a1.13,1.13,0,0,0,0-2.26,1.13,1.13,0,0,0,0,2.26Z" transform="translate(0 7.34)" style="fill:#ef8e0c"/><path d="M306.44,544.06v.11l.06.14a.33.33,0,0,0,.15.16.19.19,0,0,0,.12.07.34.34,0,0,0,.22.05l.15,0,.14-.06a.36.36,0,0,0,.16-.14.47.47,0,0,0,.1-.2l0-.11a.54.54,0,0,0,0-.31.68.68,0,0,0-.15-.26l-.12-.09a.61.61,0,0,0-.3-.08.42.42,0,0,0-.22,0,.52.52,0,0,0-.19.12.5.5,0,0,0-.15.26.54.54,0,0,0,0,.31Z" transform="translate(0 7.34)" style="fill:#ef8e0c"/><path d="M311.31,554.6a1.13,1.13,0,0,0,0-2.26,1.13,1.13,0,0,0,0,2.26Z" transform="translate(0 7.34)" style="fill:#ef8e0c"/><path d="M322.08,547.33a1.13,1.13,0,0,0,0-2.26,1.13,1.13,0,0,0,0,2.26Z" transform="translate(0 7.34)" style="fill:#ef8e0c"/><path d="M327.2,541.67a1.13,1.13,0,0,0,0-2.26,1.13,1.13,0,0,0,0,2.26Z" transform="translate(0 7.34)" style="fill:#d37505"/><path d="M329,551.23a1.13,1.13,0,0,0,0-2.26,1.13,1.13,0,0,0,0,2.26Z" transform="translate(0 7.34)" style="fill:#d37505"/><path d="M320.2,556.75a1.13,1.13,0,0,0,0-2.26,1.13,1.13,0,0,0,0,2.26Z" transform="translate(0 7.34)" style="fill:#ef8e0c"/><path d="M326.93,534.53a1.13,1.13,0,0,0,0-2.26,1.13,1.13,0,0,0,0,2.26Z" transform="translate(0 7.34)" style="fill:#d37505"/><path d="M304,538.71a1.13,1.13,0,0,0,0-2.26,1.13,1.13,0,0,0,0,2.26Z" transform="translate(0 7.34)" style="fill:#ef8e0c"/><path d="M304.31,549.62a1.13,1.13,0,0,0,0-2.26,1.13,1.13,0,0,0,0,2.26Z" transform="translate(0 7.34)" style="fill:#ef8e0c"/></g><path d="M340,715.39l45.77-11.12a2.74,2.74,0,0,1,3.32,3.27l-10.35,46.59-16.26,6.65L339.7,747.06l-7.63-11.87Z" transform="translate(0 7.34)" style="fill:#ffae2c"/><g style="clip-path:url(#clip-path-27)"><polygon points="390.36 707.43 350.74 760.3 374.07 767.98 380.14 761.69 390.62 713.51 390.36 707.43" style="fill:#ef8e0c"/><circle cx="390.04" cy="710.58" r="18.8" style="fill:#ea2727"/><g style="clip-path:url(#clip-path-28)"><polygon points="390.36 707.43 350.74 760.3 375.96 772.22 385.95 764.22 396.95 711.63 390.36 707.43" style="fill:#db1616"/></g></g><path d="M378.73,754.13,280.3,852.56a5.55,5.55,0,0,1-4.38,1.62l-11.66-.93a4.75,4.75,0,0,1-3-1.39l-17.11-17.11a4.61,4.61,0,0,1-1.28-2.42l-2.72-14.48a4.3,4.3,0,0,1,1.18-3.8L340,715.39l5.48,14.86a4.18,4.18,0,0,0,.95,1.47l17.93,17.93a4.31,4.31,0,0,0,1.9,1.11Z" transform="translate(0 7.34)" style="fill:#ea2727"/><g style="clip-path:url(#clip-path-29)"><polygon points="365.36 750.83 257.17 860.37 280.84 863.3 380.14 761.69 365.36 750.83" style="fill:#db1616"/><rect x="231.28" y="778.12" width="145.17" height="27.39" transform="translate(-470.9 454.12) rotate(-45)" style="fill:#f23636"/></g><path d="M587.23,70.16s5.71,7.9,9.36,9.36,10.45,6.8,6.07,11.67-40.72,40.72-40.72,40.72-2.92-8-8.87-10.33-6.2-7.91-3.4-11.19S587.23,70.16,587.23,70.16Z" transform="translate(0 7.34)" style="fill:#ea2727"/><g style="clip-path:url(#clip-path-30)"><polygon points="607.04 91.48 548.95 128.73 544.32 120.41 555.13 107.4 589.54 79.57 597.07 79.57 607.04 91.48" style="fill:#ce1515"/><path d="M556.16,113.14a7.12,7.12,0,0,1-5,2.12c-2.79.12-3.89-1-2.43-4.87s7.17-7.17,7.17-7.17l1.95,5.84Z" transform="translate(0 7.34)" style="fill:#bf0808"/></g><path d="M550.88,24.58a43.5,43.5,0,0,0,13.37,15.8c9.24,6.56,26.26,17,29.78,21.76a10.64,10.64,0,0,1-.12,13.24c-2.55,2.8-38,38.05-38,38.05s1.34-1.82,0-6.81S541.52,96.9,532.4,90s-19.32-19.33-21.51-25.4Z" transform="translate(0 7.34)" style="fill:#f23636"/><g style="clip-path:url(#clip-path-31)"><path d="M573.49,44.27s16.17,15.43,14.83,23.34-27.23,28-37.2,26S515.51,75,515.51,75l18.14,22.3,17.54,17.88,9,3.58L600.87,69,589.35,55.21Z" transform="translate(0 7.34)" style="fill:#d81616;opacity:0.46;mix-blend-mode:multiply"/></g><rect x="502.26" y="-1.46" width="7.05" height="142.51" rx="2.84" transform="translate(197.49 -329.86) rotate(45)" style="fill:#ffae2c"/><g style="clip-path:url(#clip-path-32)"><polygon points="559.78 28.59 451.83 128.39 461.63 131.83 559.78 28.59" style="fill:#e28307"/></g><path d="M581.27,330.09c0,7-2.09,12.44-4.53,18.8-1,2.72-1.25,5.1.19,7.7a24.07,24.07,0,0,0,2.79,3.58c3.29,4,3.72,7.3,1.41,12.07-1.83,3.77-3.73,6.92-2.37,11.19a.24.24,0,0,0,.47-.13c-.87-5.95,4.17-9.83,5-15.3.55-3.46-.94-5.86-3-8.42-2.25-2.73-4.44-4.8-3.62-8.77.45-2.14,1.82-4.33,2.56-6.4A35.87,35.87,0,0,0,582,330.09a.38.38,0,0,0-.76,0Z" transform="translate(0 7.34)" style="fill:#261717"/><path d="M579.66,331.46l-4,6a1.78,1.78,0,0,0,2,1.34,12,12,0,0,1,5,.67c1.18.51,3.19-1.34,3.69-1.67s-3.52-5.87-3.86-7S579.66,331.46,579.66,331.46Z" transform="translate(0 7.34)" style="fill:#ea2727"/><path d="M620.59,278.46c0,24.9-23.87,54.15-40.26,54.15-15.76,0-40.26-29.25-40.26-54.15s18-45.1,40.26-45.1S620.59,253.55,620.59,278.46Z" transform="translate(0 7.34)" style="fill:#ea2727"/><g style="clip-path:url(#clip-path-33)"><path d="M552.32,240s23.82-8.22,45.79,11.41S594,338.74,565.69,328l16.76,7.9L616,314.66l6.55-43.92-12.71-29.66-29.67-10.6Z" transform="translate(0 7.34)" style="fill:#c10505;opacity:0.46;mix-blend-mode:multiply"/><ellipse cx="559.95" cy="261.1" rx="7.54" ry="5.74" transform="translate(110.93 692.82) rotate(-68.38)" style="fill:#fff;opacity:0.45"/><ellipse cx="556.8" cy="275.74" rx="4.06" ry="3.09" transform="translate(241.87 818.68) rotate(-85.89)" style="fill:#fff;opacity:0.45"/></g><path d="M578.17,333.14a10,10,0,0,0,3.11.65c.88,0,2.08.11,2.68-.62a.63.63,0,0,0-.13-1c-.82-.42-1.66,0-2.55,0a15.61,15.61,0,0,1-3,0c-.58-.08-.62.78-.13,1Z" transform="translate(0 7.34)" style="fill:#261717"/><path d="M770.36,258.28s-17.9,30-20.29,43.37-8.16,53.72-16.51,59.09c0,0,24.87,7.76,61.67,10.14s88.33-9.74,88.33-9.74-14.72-64.46-19.5-72.82-13.72-25.26-15.32-35Z" transform="translate(0 7.34)" style="fill:#ea2727"/><g style="clip-path:url(#clip-path-34)"><path d="M827.13,255.52c2.12,4,18,21.26,22.21,33.2s5.57,47.75.4,61.67-16.91,22.28-16.91,22.28l53.31-8.75-19.29-76-16.71-31-23-1.37" transform="translate(0 7.34)" style="fill:#c10505;opacity:0.46;mix-blend-mode:multiply"/><path d="M792.05,373.87c-3.19-2.19,3.58-33.42,10.34-53.32s18.5-42.17,17.11-23.87-5.37,24.27-4.58,46.75,3,27.85,3,27.85Z" transform="translate(0 7.34)" style="fill:#c10505;opacity:0.46;mix-blend-mode:multiply"/><path d="M762.4,368.1c-6.36-7.36-12.53-17.31-13.52-35.61s-1.59-24.67-1.59-24.67S735.75,354.17,735.75,355s-5.57,6.76-5.57,6.76Z" transform="translate(0 7.34)" style="fill:#c10505;opacity:0.46;mix-blend-mode:multiply"/><path d="M766.58,261.86s34,10.55,87.14,2l-1-10.29L766,255.5Z" transform="translate(0 7.34)" style="fill:#c10505;opacity:0.46;mix-blend-mode:multiply"/></g><path d="M769.17,247.74s39.39-5,82,0c0,0,1.79,10.34,0,14.92,0,0-57.29,3.78-82-1.59C769.17,261.07,766,253.51,769.17,247.74Z" transform="translate(0 7.34)" style="fill:#f23636"/><g style="clip-path:url(#clip-path-35)"><path d="M819.1,240.78c4,2.38,12.34,8.15,15.12,12.53s2.59,12.14-1.79,15.92l24.47-5.38-.8-25.66Z" transform="translate(0 7.34)" style="fill:#ea2727"/></g><path d="M622.88,480.05c-30.78-8-42,27.77-42.55,29.49-.52-1.72-11.76-37.45-42.54-29.49-31.54,8.16-35.71,40.71-30.65,54.47,15,40.85,63.25,75,73.19,75,9.69,0,58.21-34.12,73.2-75C658.58,520.76,654.41,488.21,622.88,480.05Z" transform="translate(0 7.34)" style="fill:#f23636"/><g style="clip-path:url(#clip-path-36)"><path d="M584.72,489.81l-3.8,7.8s23-24.83,41.61-1.6c31,38.61-18,108-47.62,116.63l62.62-32.21,22.4-54.81-10.4-31.81-22.8-15-20-3Z" transform="translate(0 7.34)" style="fill:#c10505;opacity:0.46;mix-blend-mode:multiply"/><ellipse cx="533.09" cy="506" rx="7.87" ry="5.99" transform="translate(-195.82 607.73) rotate(-50.88)" style="fill:#fff;opacity:0.45"/><ellipse cx="525.36" cy="519.58" rx="4.24" ry="3.23" transform="matrix(0.37, -0.93, 0.93, 0.37, -151.17, 824.02)" style="fill:#fff;opacity:0.45"/></g><path d="M831.2,60.59s17,34.53,26.73,42.58-13.39,15.65-20.11,29.09c-6.39,12.77-6.62,17.27-6.62,17.27s-.76-39.33-2.61-60.08c-1.89-21.29-15.37-32.17-15.37-32.17l9.93-6.39Z" transform="translate(0 7.34)" style="fill:#f13636"/><path d="M784.21,60.59s-17,34.53-26.73,42.58,13.39,15.65,20.11,29.09c6.39,12.77,6.62,17.27,6.62,17.27s.76-39.33,2.6-60.08c1.9-21.29,15.38-32.17,15.38-32.17l-9.93-6.39Z" transform="translate(0 7.34)" style="fill:#f13636"/><path d="M818.19,36.46S854-13,873.77,4.06c17.27,14.9,6,21.86,7.81,34.29,1.65,11.36,3.47,17.91,0,29.34C875.9,86.37,847,106.83,817.24,53.26Z" transform="translate(0 7.34)" style="fill:#f13636"/><g style="clip-path:url(#clip-path-37)"><path d="M886.07,39.77c-7.57-6.86-35.24-8-43.52-2.12s9.93-2.84,21.76.7a106.32,106.32,0,0,1,21.05,9Z" transform="translate(0 7.34)" style="fill:#c10505;opacity:0.46;mix-blend-mode:multiply"/><path d="M883.56,53.26S878,75.49,857,74.55,818.9,54.68,818.9,54.68l-1.66,14.9L853.9,89.92l17.74-3.78,13.72-16.8-1.8-16.08" transform="translate(0 7.34)" style="fill:#c10505;opacity:0.46;mix-blend-mode:multiply"/><path d="M812.87,49.56C821.67,37.89,833.13,30,846.34,24c.6-.27.17-1.23-.45-1.05-14.08,4-26.1,13.88-34.36,25.8-.58.84.75,1.57,1.34.79Z" transform="translate(0 7.34)" style="fill:#ce0808"/><path d="M813.15,46.4c13.11-4.84,24.24,1.72,36.14,6.44.84.33,1.32-1,.6-1.42C839,44.72,825,39.87,812.62,45.14c-.71.3-.2,1.53.53,1.26Z" transform="translate(0 7.34)" style="fill:#ce0808"/></g><path d="M798.93,36.46S763.13-13,743.34,4.06c-17.26,14.9-6,21.86-7.8,34.29-1.66,11.36-3.47,17.91,0,29.34,5.68,18.68,34.57,39.14,64.34-14.43Z" transform="translate(0 7.34)" style="fill:#f13636"/><g style="clip-path:url(#clip-path-38)"><path d="M731.14,39.77c7.57-6.86,35.15-8,43.43-2.12s-9.94-2.84-21.76.7a104,104,0,0,0-21,9Z" transform="translate(0 7.34)" style="fill:#c10505;opacity:0.46;mix-blend-mode:multiply"/><path d="M733.56,53.26s5.53,22.23,26.58,21.29,38.08-19.87,38.08-19.87l1.66,14.9L769.6,95.12l-23.18-4L732.09,67.45l1.47-14.19" transform="translate(0 7.34)" style="fill:#c10505;opacity:0.46;mix-blend-mode:multiply"/><path d="M802.68,45.56c-7.6-9.74-18.82-18.15-31-20.92-.67-.15-1.19.86-.5,1.18,11.7,5.3,21.79,11.14,30.77,20.51.49.52,1.18-.23.76-.77Z" transform="translate(0 7.34)" style="fill:#ce0808"/><path d="M804.89,50.34c-11-6.67-28.71-1.11-39,4.57-.57.32-.18,1.3.46,1.08,10.64-3.83,27.28-11.08,38-4.67a.57.57,0,0,0,.57-1Z" transform="translate(0 7.34)" style="fill:#ce0808"/></g><path d="M792.52,58.37c-1.65-5.56-4.72-21.82,1.54-26.87,5.18-4.19,22.11-3.4,27.79,1.56s3.2,24.45-1.18,28.63C815.34,66.76,795.59,68.78,792.52,58.37Z" transform="translate(0 7.34)" style="fill:#f13636"/><g style="clip-path:url(#clip-path-39)"><path d="M793.11,28.89s15.14-.23,21.53,5.68,6.13,38.3-22.13,28l18.11,9.59,18.68-4.49,1.42-42.34-22-6.39Z" transform="translate(0 7.34)" style="fill:#c10505;opacity:0.46;mix-blend-mode:multiply"/></g><path d="M733.56,583.3c.14-2.31,1-5.48,8.74-4.06s41.86,1.83,47.54-5.29,19.51-26.21,25-30.27,15.44-29.46,23.16-32.31,22.56,0,25.81,5.89,11,22-1.83,31.7-33.12,21.74-37.19,29.87-22.55,17.48-32.91,17.07-26.62-4.88-34.34-5.49S733.36,586.76,733.56,583.3Z" transform="translate(0 7.34)" style="fill:#f74343"/><g style="clip-path:url(#clip-path-40)"><path d="M863.81,520.92c-3.86,6.5-17.68,30.89-26.42,35.56s-14.63,5.49-19.3,12.39-8.74,18.09-14.43,19.92-21.54,2.44-28.65,2.84-23.12-7.41-27.81-2.69,8.71,9.4,8.71,9.4l51.41-2.24,32.31-25.4L878,538.4Z" transform="translate(0 7.34)" style="fill:#c10505;opacity:0.46;mix-blend-mode:multiply"/></g><path d="M839.63,505.89c-3,1.34-6.29,6.87-5.58,8.51s9.84-.59,12.08,1.44,3.45,5.89,4.06,8.13,7.93-.2,9.55.61,2,2.84,2.44,4.47,2.24,1.83,3.25,3.05-2.44,3,0,6.3,4.88-.82,5.89-3.26-3-20.11-5.28-23.57.61-16.25,7.52-15.64,7.31,7.31,7.31,7.31,2.24.61,2.65-.61-2-10.16-10.16-10.16-13.62,8.94-13.62,13.62a21.76,21.76,0,0,1-6.09-.61C850.4,504.67,845.11,503.45,839.63,505.89Z" transform="translate(0 7.34)" style="fill:#35a31a"/><g style="clip-path:url(#clip-path-41)"><path d="M859.34,526c.4-1.42-1.22-5.28-.61-8.13s4.47-7.51,4.67-9.34,2-9.55,3.66-11,6.7-4.67,8.53-3.25,2.44,7.52,2.44,7.52l.81,26.82-7.72,13H863.4Z" transform="translate(0 7.34)" style="fill:#2d9110"/><path d="M879.05,492.47c.4,2.24,2.23,11,1.62,12.4s4.67-.41,5.28-1.42-1.42-6.1-2.43-7.11S879.05,492.47,879.05,492.47Z" transform="translate(0 7.34)" style="fill:#2d9110"/></g><path d="M655.33,741.69a75,75,0,1,1-150,0h16.22l10.69,22.43,37.6.76,6.68-23.19Z" transform="translate(0 7.34)" style="fill:#2d9110"/><g style="clip-path:url(#clip-path-42)"><path d="M618.41,733.87s-7.83,98.66-105.92,50.38l41.6,42.56,57.45-5L647.6,789.4l15.46-50.76Z" transform="translate(0 7.34)" style="fill:#2d9111;opacity:0.46;mix-blend-mode:multiply"/></g><path d="M649.61,741.69a69.28,69.28,0,1,1-138.55,0h10.49l4,16.7,46.38,6.87,4.58-23.57Z" transform="translate(0 7.34)" style="fill:#79d159"/><path d="M575.49,741.69a8,8,0,0,1-7.94,7,7.56,7.56,0,0,1-1.36-.12,12.5,12.5,0,0,1-24.54.24,10.68,10.68,0,0,1-17.56-7.09h-11.7a67.94,67.94,0,1,0,135.88,0Z" transform="translate(0 7.34)" style="fill:#ea2727"/><g style="clip-path:url(#clip-path-43)"><path d="M618.41,733.87s-7.83,98.66-105.92,50.38l26,23.38L577.66,821l40.65-9.35,31.49-31.11,8.78-40.46Z" transform="translate(0 7.34)" style="fill:#c10505;opacity:0.46;mix-blend-mode:multiply"/><path d="M520.33,754.82c.42-.13.79-.38,1.22-.51a5,5,0,0,1,.64-.16,5.44,5.44,0,0,0,.92,0c.18,0,.2,0,.07-.14H522c-.58,0-1.15,0-1.73,0l.4,1a.79.79,0,0,1,.33-.2.49.49,0,0,0-.12-.89,1,1,0,0,0-1,.29c-.4.33-.05.94.4,1s4.59.17,3.77-1.34c-.32-.59-1.28-.49-1.83-.43a3.51,3.51,0,0,0-2.19,1,.34.34,0,0,0,.33.57Z" transform="translate(0 7.34)" style="fill:#232533"/><path d="M530,776.41c.36-.39.71-.79,1.08-1.18a1.74,1.74,0,0,1,1.18-.7l-.57-.75c-.07.34-.68.64-1,.82l-.49.3a2,2,0,0,1-.53.3.71.71,0,1,0,.61,1.06c.11-.16.52-.31.69-.42l.79-.55a2.11,2.11,0,0,0,1-1.19.6.6,0,0,0-.57-.75c-1.38,0-2.28,1.29-3.13,2.19-.55.58.33,1.46.87.87Z" transform="translate(0 7.34)" style="fill:#232533"/><path d="M547.74,793.24a5.28,5.28,0,0,1,2-2.71l-.88-.5c0,.58-.52,1-.89,1.41s-.86.78-1.26,1.2a.68.68,0,0,0,1,1,10.82,10.82,0,0,0,1.61-1.77A2.77,2.77,0,0,0,550,790a.59.59,0,0,0-.87-.51,6.09,6.09,0,0,0-2.56,3.05c-.39.77.79,1.43,1.14.67Z" transform="translate(0 7.34)" style="fill:#232533"/><path d="M568,802.29a8.87,8.87,0,0,1,.52-3.11l-1.29.34c.06.06-.68,2.11-.75,2.4a.78.78,0,0,0,1.5.41,21.06,21.06,0,0,0,.68-2.35,1.56,1.56,0,0,0-.34-1.56.78.78,0,0,0-1.29.34,7.32,7.32,0,0,0-.43,3.53c.1.87,1.42.92,1.4,0Z" transform="translate(0 7.34)" style="fill:#232533"/><path d="M595,801.25c-.22-.47-.41-.94-.62-1.41-.09-.22-.19-.44-.28-.65l-.15-.35c-.06-.32-.17-.22-.33.28L593,799c.16.08.24.91.28,1.09.1.43.2.86.29,1.3.2,1,1.73.55,1.47-.41s-.58-4.26-2.25-3.29c-.7.4-.55,1.23-.28,1.85a21.56,21.56,0,0,0,1.21,2.4c.49.82,1.63.11,1.26-.73Z" transform="translate(0 7.34)" style="fill:#232533"/><path d="M614.21,788.43c.36.38.72.76,1.11,1.12l.55.5.28.25.13.13c.1.11.11.07,0-.11l.22-.52-.06.07.33-.19q.33,0,.09-.15l-.22-.26c-.13-.14-.25-.3-.37-.45l-.78-1c-.56-.7-1.78.23-1.26,1s2.38,3.4,3.37,2c.48-.69-.18-1.26-.67-1.66-.68-.54-1.35-1.06-2.06-1.55-.53-.37-1.1.43-.67.87Z" transform="translate(0 7.34)" style="fill:#232533"/><path d="M630.32,771.2a3.25,3.25,0,0,1,2.09,1.33v-.59c.25-.06.29-.13.1-.21l-.35-.25a6.49,6.49,0,0,0-.55-.36,4.09,4.09,0,0,0-1.33-.64.62.62,0,0,0-.6,1,3.51,3.51,0,0,0,1,.71,9.93,9.93,0,0,0,1.18.58c.58.25,1.13.3,1.52-.27a.55.55,0,0,0,0-.59,3.65,3.65,0,0,0-1.37-1.12,3.14,3.14,0,0,0-1.72-.1.24.24,0,0,0,0,.48Z" transform="translate(0 7.34)" style="fill:#232533"/><path d="M638.67,749a6,6,0,0,1,1.27-.06,6.14,6.14,0,0,1,.91.12l.51-.89a3.45,3.45,0,0,1-2.13,0c-1.06-.34-1.54,1.43-.46,1.66a5.37,5.37,0,0,0,3-.23.73.73,0,0,0,.51-.89c-.59-1.41-2.57-1.13-3.72-.66-.46.2-.48,1.07.14,1Z" transform="translate(0 7.34)" style="fill:#232533"/><path d="M625.13,756.73a10.74,10.74,0,0,1,2.4.12l-.35-1.31a.39.39,0,0,1-.57.09,2.44,2.44,0,0,0-1-.36.86.86,0,0,0-.23,1.68,4.55,4.55,0,0,0,1.49.34,2.23,2.23,0,0,0,1.46-.65.78.78,0,0,0-.35-1.3,8.89,8.89,0,0,0-3,0c-.76.13-.59,1.41.19,1.36Z" transform="translate(0 7.34)" style="fill:#232533"/><path d="M614.5,773.21c.42.45.84.87,1.29,1.28a2.59,2.59,0,0,1,.9,1l.71-.92c-.28,0-.49-.43-.63-.63-.27-.4-.54-.79-.83-1.17-.55-.7-1.72.21-1.23.94.6.9,1.43,2.4,2.69,2.32a.73.73,0,0,0,.7-.92c-.45-1.37-1.82-2.07-3-2.71a.49.49,0,0,0-.59.76Z" transform="translate(0 7.34)" style="fill:#232533"/><path d="M601.22,788c-.25-.42-.5-.83-.79-1.23-.14-.18-.28-.36-.41-.55a2.48,2.48,0,0,1-.19-.26c-.07-.18-.1-.16-.08,0l-.47.47c.2,0,.56.69.62.82.2.43.34.87.57,1.28a.57.57,0,0,0,1-.57,14,14,0,0,0-.91-2,1.93,1.93,0,0,0-1.53-.87c-.88.12-.69,1.12-.32,1.63a16.94,16.94,0,0,0,1.6,1.9.59.59,0,0,0,.92-.71Z" transform="translate(0 7.34)" style="fill:#232533"/><path d="M580.18,793.49a10.1,10.1,0,0,1,0-1.23c0-.19,0-.37,0-.56s.13-.55,0-.44l-.92-.53a8.18,8.18,0,0,1-.24,2.83.7.7,0,0,0,1.34.37,7.77,7.77,0,0,0,.1-3.36.62.62,0,0,0-.9-.37c-.49.23-.56.8-.62,1.28a11.24,11.24,0,0,0-.09,2c0,.86,1.4.86,1.35,0Z" transform="translate(0 7.34)" style="fill:#232533"/><path d="M561,789.69a3.85,3.85,0,0,1,1.17-2.14l-1-.4c.16.84-.7,1.56-1.12,2.19s.65,1.61,1.21.93a4.35,4.35,0,0,0,1.22-3.49.68.68,0,0,0-1-.4,4.61,4.61,0,0,0-1.74,3,.65.65,0,0,0,1.26.34Z" transform="translate(0 7.34)" style="fill:#232533"/><path d="M543.87,778.87c.45-.3.91-.58,1.35-.89.22-.16.43-.34.64-.5s.38-.36.58-.4L546,777l.07.06-.18-.72a3.56,3.56,0,0,1-1.36,1.25c-.48.33-1.12.56-1.17,1.2a.39.39,0,0,0,.3.39c.64.18,1.31-.55,1.8-.91a4,4,0,0,0,1.33-1.4.56.56,0,0,0-.08-.63c-.49-.57-1.19,0-1.64.32a20,20,0,0,0-1.87,1.46c-.45.38.14,1.16.64.83Z" transform="translate(0 7.34)" style="fill:#232533"/><path d="M529.34,763.59q1.44-.26,2.88-.42l-.58-1c-.11.22-1,.16-1.21.18a2.27,2.27,0,0,0-1.44.41.64.64,0,0,0,.13,1,3.86,3.86,0,0,0,2.25-.12,1.73,1.73,0,0,0,1.43-.82.68.68,0,0,0-.76-1q-1.51.23-3,.54c-.78.17-.44,1.33.33,1.19Z" transform="translate(0 7.34)" style="fill:#232533"/></g><path d="M829.47,755.91v56.46c0,14.68-6.24,21.48-20.91,21.48s-21.48-6.8-21.48-21.48V755.91H766.73v56.46a41.83,41.83,0,0,0,83.65,0V755.91Z" transform="translate(0 7.34)" style="fill:#ea2727"/><g style="clip-path:url(#clip-path-44)"><rect x="764.64" y="762.49" width="24.71" height="21.1" style="fill:#ffe1e1;mix-blend-mode:lighten"/><rect x="827.19" y="762.49" width="24.52" height="21.1" style="fill:#ffe1e1;mix-blend-mode:lighten"/><path d="M781.94,752.86v42.78c0,6.27-1.37,30,16.24,36.67h0l3-20.89-7.22-61.6Z" transform="translate(0 7.34)" style="fill:#c10505;opacity:0.46;mix-blend-mode:multiply"/><path d="M844.3,753.24v49.43c0,5.71.57,31.94-15.78,41.64s-38.59,7.79-52.28-2.47l14.26,13.49,27.18,1.91L845.06,843,854,809l-3.62-57.8Z" transform="translate(0 7.34)" style="fill:#c10505;opacity:0.46;mix-blend-mode:multiply"/></g><polygon points="811.98 711.54 797.34 731.69 818.06 729.03 810.08 746.14 827.95 722.75 805.71 727.51 811.98 711.54" style="fill:#ffae2c"/><polygon points="842.65 730.9 835.55 744.22 845.59 742.46 841.73 753.77 850.38 738.31 839.61 741.46 842.65 730.9" style="fill:#ffae2c"/><polygon points="775.99 730.9 783.08 744.22 773.04 742.46 776.91 753.77 768.25 738.31 779.03 741.46 775.99 730.9" style="fill:#ffae2c"/></g></g></g></svg>