<svg xmlns="http://www.w3.org/2000/svg" xmlns:xlink="http://www.w3.org/1999/xlink" viewBox="0 0 768 509.5"><defs><clipPath id="clip-path" transform="translate(9.5 12.5)"><path d="M0,390.75V50.45A50.45,50.45,0,0,1,50.45,0H560a53,53,0,0,1,53,53V197a37,37,0,0,0,37,37h59.55A41.43,41.43,0,0,1,751,275.43V390.78A45.23,45.23,0,0,1,705.78,436H45.25A45.25,45.25,0,0,1,0,390.75Z" style="fill:#ffd522"/></clipPath><clipPath id="clip-path-2" transform="translate(9.5 12.5)"><rect x="447.51" y="80.5" width="58.99" height="142" rx="29.32" style="fill:#ffe3ab"/></clipPath><clipPath id="clip-path-3" transform="translate(9.5 12.5)"><rect x="375.5" y="235.5" width="58.99" height="164" rx="29.32" style="fill:#ffe3ab"/></clipPath></defs><g id="Layer_2" data-name="Layer 2"><g id="Layer_3" data-name="Layer 3"><g id="Layer_4" data-name="Layer 4"><path d="M0,390.75V50.45A50.45,50.45,0,0,1,50.45,0H560a53,53,0,0,1,53,53V197a37,37,0,0,0,37,37h59.55A41.43,41.43,0,0,1,751,275.43V390.78A45.23,45.23,0,0,1,705.78,436H45.25A45.25,45.25,0,0,1,0,390.75Z" transform="translate(9.5 12.5)" style="fill:#ffd522"/><g style="clip-path:url(#clip-path)"><path d="M524.5-12.5s-116,335-181,376-353,24-353,24l23,62,745-7-3-210-126-10-9-213Z" transform="translate(9.5 12.5)" style="fill:#ffba1f;opacity:0.6000000000000001"/><rect x="568" y="93" width="100" height="142" rx="29.32" style="fill:#ffe3ab"/><rect x="106" y="93" width="100" height="142" rx="29.32" style="fill:#ffe3ab"/><rect x="245" y="95" width="100" height="142" rx="29.32" style="fill:#ffe3ab"/><rect x="385" y="93" width="58.99" height="142" rx="29.32" style="fill:#ffe3ab"/><rect x="457.01" y="93" width="58.99" height="142" rx="29.32" style="fill:#ffe3ab"/><g style="clip-path:url(#clip-path-2)"><path d="M491.52,63.17c-16.89,45.64-37.13,97.89-57.93,146.05-32.08,74.26,107.91,8.28,107.91,8.28S517.47-7,491.52,63.17Z" transform="translate(9.5 12.5)" style="fill:#ffba1f;opacity:0.30000000000000004"/></g><rect x="385" y="248" width="58.99" height="164" rx="29.32" style="fill:#ffe3ab"/><g style="clip-path:url(#clip-path-3)"><path d="M423.71,231.67c-28.95,64.5-58.15,117.92-80.21,131.83a63.82,63.82,0,0,1-11.81,5.58C240,402.89,435.5,408.5,435.5,408.5S480.07,106.1,423.71,231.67Z" transform="translate(9.5 12.5)" style="fill:#ffba1f;opacity:0.30000000000000004"/></g><rect x="457.01" y="248" width="58.99" height="164" rx="29.32" style="fill:#ffe3ab"/><path d="M32.18,222.5H-2.51l-.62-142H32.18A29.32,29.32,0,0,1,61.5,109.82v83.36A29.32,29.32,0,0,1,32.18,222.5Z" transform="translate(9.5 12.5)" style="fill:#ffe3ab"/><line x1="9" y1="318.5" x2="360.5" y2="318.5" style="fill:none;stroke:#232533;stroke-linecap:round;stroke-miterlimit:10;stroke-width:6.79526317119598px"/><line x1="9" y1="288.5" x2="360.5" y2="288.5" style="fill:none;stroke:#232533;stroke-linecap:round;stroke-miterlimit:10;stroke-width:6.79526317119598px"/><line x1="545.5" y1="318.5" x2="760" y2="318.5" style="fill:none;stroke:#232533;stroke-linecap:round;stroke-miterlimit:10;stroke-width:5.30832201242447px"/><line x1="545.5" y1="288.5" x2="760" y2="288.5" style="fill:none;stroke:#232533;stroke-linecap:round;stroke-miterlimit:10;stroke-width:5.30832201242447px"/><rect x="568" y="93" width="100" height="142" rx="29.32" style="fill:#ffba1f;opacity:0.30000000000000004"/><rect x="457.01" y="248" width="58.99" height="164" rx="29.32" style="fill:#ffba1f;opacity:0.30000000000000004"/></g><circle cx="139.5" cy="433.5" r="76" style="fill:#232533"/><circle cx="139.5" cy="433.5" r="33.5" style="fill:#7a7e84"/><circle cx="621.5" cy="433.5" r="76" style="fill:#232533"/><circle cx="621.5" cy="433.5" r="33.5" style="fill:#7a7e84"/></g></g></g></svg>