<svg xmlns="http://www.w3.org/2000/svg" xmlns:xlink="http://www.w3.org/1999/xlink" viewBox="0 0 858 568.5"><defs><clipPath id="clip-path" transform="translate(0.4 11.5)"><path d="M134.6,0s120,60,282,45,241-31,241-31l-44,89-188,24-166-39-108-40Z" style="fill:#1e8c03"/></clipPath><clipPath id="clip-path-2" transform="translate(0.4 11.5)"><path d="M127.6,26c-8,24-15,83-25,110s-40,83-49,124-41,162-40,171,388,59,388,59,7-76,7-92,9-41,9-41,38,104,83,126,296-89,296-89-58-136-71-155-25-54-29-81-36-139-40-144-119,70-233,71-289-85-289-85Z" style="fill:#2bbf11"/></clipPath><clipPath id="clip-path-3" transform="translate(0.4 11.5)"><circle cx="431.6" cy="113" r="14" style="fill:#ffd522"/></clipPath><clipPath id="clip-path-4" transform="translate(0.4 11.5)"><path d="M25.6,469c-12.26-6.61-29-3-25-30s4-43,25-41,167,34,213,40,165,15,170,31,5,55-8,61S140.6,531,25.6,469Z" style="fill:#62e03f"/></clipPath><clipPath id="clip-path-5" transform="translate(0.4 11.5)"><path d="M491.6,505c-5-17-17-33,12-40s163-29,186-41,92-46.82,107-40.91,43,40.91,29,56.91-179,68-217,79-88,17-98,13S491.6,505,491.6,505Z" style="fill:#62e03f"/></clipPath></defs><g id="Layer_2" data-name="Layer 2"><g id="shorts"><g id="Layer_4" data-name="Layer 4"><path d="M134.6,0s120,60,282,45,241-31,241-31l-44,89-188,24-166-39-108-40Z" transform="translate(0.4 11.5)" style="fill:#1e8c03"/><g style="clip-path:url(#clip-path)"><path d="M637.6,11c-2,2-166,62-195,65s-140-1-267-65l-57-19,16,35,289,86,170-53,81-37-12-23Z" transform="translate(0.4 11.5)" style="fill:#176800;opacity:0.5"/></g><path d="M127.6,26c-8,24-15,83-25,110s-40,83-49,124-41,162-40,171,388,59,388,59,7-76,7-92,9-41,9-41,38,104,83,126,296-89,296-89-58-136-71-155-25-54-29-81-36-139-40-144-119,70-233,71-289-85-289-85Z" transform="translate(0.4 11.5)" style="fill:#2bbf11"/><g style="clip-path:url(#clip-path-2)"><path d="M419.65,359.24c16.83-9.65,32.34-20.87,44.94-35.7a1.64,1.64,0,0,0-2.32-2.32c-14.14,12.36-28.76,24.43-45,34-2.6,1.53-.26,5.55,2.36,4.05Z" transform="translate(0.4 11.5)" style="fill:#1e8c03"/><path d="M419.39,355c-8.09-3.58-14.37-11.32-20.58-17.42-7-6.89-14.08-13.63-21.68-19.89a2,2,0,0,0-2.85,2.85c6.84,8.41,14.27,16.15,21.89,23.84,6.3,6.37,12.16,13.25,20.76,16.45,3.35,1.24,5.76-4.36,2.46-5.83Z" transform="translate(0.4 11.5)" style="fill:#1e8c03"/><path d="M121.8,52c29.46,22,65.81,31.63,100.14,43.27,19.79,6.71,39.7,13.11,59.59,19.51,19.08,6.14,38.11,12.48,57.51,17.56,38.78,10.16,78.53,14.59,118.53,11.28C496,140.48,534.14,131,570.68,119,606.88,107.14,643.29,91.31,675,70A1.78,1.78,0,0,0,673.2,67c-15.55,7.75-30.54,16.62-46.14,24.31Q605,102.16,581.89,110.83c-36,13.53-72.86,23.34-111.18,27.46-38.83,4.17-79.78,3.58-117.83-5.95-39-9.78-76.85-23.06-114.93-35.91C217.78,89.62,197.56,83,177.36,76.3c-19.21-6.38-37.78-14.55-55-25.33-.68-.42-1.23.6-.61,1.06Z" transform="translate(0.4 11.5)" style="fill:#1e8c03"/><path d="M400.23,86.54c1,38-1.11,76-8.09,113.4q-2.53,13.6-5.8,27.05c-2.07,8.54-4.88,17.09-6.36,25.75-1.08,6.34-.37,13,4.85,17.4,4.56,3.81,10.81,4.81,16.51,5.55,20.72,2.72,42.57,2.79,63.11-1.39,3.1-.64,2.46-6-.76-5.62-17.31,2.27-34.32,3.81-51.81,2.82-7.07-.4-16.31-.07-22.52-4.05-8.15-5.24-3.92-15.89-1.86-23.31,9-32.33,13.95-66,16.33-99.4a459.46,459.46,0,0,0,.44-58.2c-.15-2.57-4.11-2.61-4,0Z" transform="translate(0.4 11.5)" style="fill:#1e8c03"/><path d="M466.9,145c-3.73,21.82-6.89,43.72-10.14,65.62-1.52,10.22-2.81,20.45-4,30.71-.63,5.52-1.2,11-1.81,16.56-.55,5.14-2.28,11.21-.85,16.24.53,1.88,3.52,2.54,4.45.58,2-4.23,1.61-9.28,1.95-13.9.38-5.2.84-10.39,1.3-15.58,1-11,2.06-22,3.07-33.07,2-22.25,5-44.44,8.19-66.56.21-1.41-1.92-2-2.17-.6Z" transform="translate(0.4 11.5)" style="fill:#1e8c03"/><path d="M280.24,124.24A431.83,431.83,0,0,0,295.29,66c.29-1.57.66-3.28,1.91-4.26,1.47-1.16,3.57-.87,5.41-.52l18.19,3.47c-4,5.42-5.59,12.22-7.14,18.79q-5.1,21.63-11.15,43c-.31,1.09-.78,2.34-1.87,2.64a3.39,3.39,0,0,1-2.23-.46l-15.64-7.27" transform="translate(0.4 11.5)" style="fill:#2bbf11"/><path d="M280.8,124.57c3.21-5,4.37-12.3,6.14-18,2.15-6.89,4.24-13.79,6.14-20.75.91-3.32,1.9-6.62,2.66-10,.68-3,.68-7,2-9.82,2.07-4.46,8.05-1.77,11.5-1,3.6.84,7.2,1.7,10.81,2.48l-1.76-4.33c-7.29,10.64-8.63,25.09-11.74,37.34-1.74,6.87-3.82,13.65-5.92,20.42-.18.59-.82,4.37-1.43,4.62a44.31,44.31,0,0,1-4.66-1.56c-3.5-1.49-6.87-3.41-10.27-5.12s-6.3,3.57-2.93,5c4.07,1.74,8.45,3.22,12.31,5.4,2.56,1.45,4.67,4,7.93,3.11,5.77-1.53,6.24-12.77,7.3-17.21,2-8.47,4.19-16.89,6.24-25.34,2-8.18,3.35-16.67,8.26-23.71a3,3,0,0,0-1.76-4.33c-4.28-.72-8.58-1.32-12.87-2-3.2-.49-7.07-1.77-10.31-1.11-6.3,1.29-6,10-7,14.9-1.7,8.64-3.13,17.3-5.13,25.89-1,4.27-2.12,8.51-3.3,12.74-1.1,4-3.1,7.84-3.39,11.93-.05.68.89.84,1.22.33Z" transform="translate(0.4 11.5)" style="fill:#1e8c03"/><path d="M523.91,62.94l21.27-8.31a4.1,4.1,0,0,1,3.07-.35,4,4,0,0,1,1.72,2c6,11.49,9.48,24.08,12.92,36.57l9,32.5a3.22,3.22,0,0,1-.1,2.8,3.28,3.28,0,0,1-2,.93l-16.34,3.08a3.74,3.74,0,0,1-2.52-.12,3.79,3.79,0,0,1-1.41-2.2,623.54,623.54,0,0,1-19-69.4" transform="translate(0.4 11.5)" style="fill:#2bbf11"/><path d="M524.13,63.76c3.67-.94,7.39-1.69,11-2.64,1.85-.48,3.64-1,5.44-1.65,1.14-.39,4.11-2.14,5.37-1.9,2.91.57,4.66,7,5.72,9.58,1.4,3.43,2.68,6.91,3.89,10.41,5.17,15,9,30.27,13,45.61.58,2.22,1.23,2.53-.46,3.63-1.29.82-4,.7-5.48.92l-5.51.79-2.76.4c-1.76.24-2.73-.42-2.91-2-2-2.84-2.64-8-3.73-11.34-1.19-3.6-2.46-7.18-3.64-10.78-2.4-7.26-4.63-14.38-6.49-21.8-1.93-7.69-2.88-15.56-4.72-23.24-.78-3.26-5.58-1.86-5,1.37,1.86,9.78,5,19.7,7.77,29.28s4.47,19.7,7.51,29.37c.76,2.41,1.64,4.79,2.37,7.2.54,1.8.75,4,1.67,5.7,1.52,2.73,4.18,3,6.95,2.46,4.82-.9,9.58-2.27,14.38-3.27,2.8-.59,5.54-1.07,6-4.38.56-3.84-2-8.7-3.11-12.32-1.55-5.06-3-10.15-4.44-15.23-2.75-9.68-4.59-19.57-7.77-29.14a119,119,0,0,0-5-12.73c-1.35-2.91-2.54-6.17-6-6.87-3.65-.73-8.42,2.29-11.58,3.78-4.53,2.13-8.78,4.85-13.19,7.24a.85.85,0,0,0,.65,1.54Z" transform="translate(0.4 11.5)" style="fill:#1e8c03"/><path d="M574.15,116.41A65.72,65.72,0,0,0,593,144.64c9.38,8.5,20.11,13.81,31.64,18.76a121.09,121.09,0,0,0,18.53,6c7,1.75,13.9,4.15,21,5.79A153.09,153.09,0,0,0,684.87,179c4.91.45,12.75,1.5,16-3a1.61,1.61,0,0,0-.57-2.18c-2.17-1.39-3.74-1-6.26-.86A73.87,73.87,0,0,1,684,173c-6.82-.5-13.51-2-20.21-3.3-6-1.16-12-1.82-17.87-3.41-6.11-1.65-12.09-3.81-18.07-5.85-21.44-7.3-41.71-23.42-49.67-45.09-.9-2.45-4.81-1.46-4,1.1Z" transform="translate(0.4 11.5)" style="fill:#1e8c03"/><path d="M87.18,175.5c28.5-1.18,57.62-6.85,82.53-21.36,10.95-6.39,20.44-14.42,27.71-24.87,7.85-11.29,13.23-25,18.31-37.72,1.24-3.13-3.86-4.53-5.07-1.4-4.77,12.39-9.41,24-17.25,34.79-7.35,10.12-17.37,18.6-28,25.1a148.12,148.12,0,0,1-78.23,21.24c-2.72,0-2.71,4.33,0,4.22Z" transform="translate(0.4 11.5)" style="fill:#1e8c03"/><path d="M456.1,63.5s120,32,186,138,81,194,55,204-123,39-146,42-79,24-79,24l24,55,326-137-161-401Z" transform="translate(0.4 11.5)" style="fill:#176800;opacity:0.5"/><path d="M417.6,357s-51,54-84,71-216-16-239-21-81-18-81-18l8,37,403,54-7-123" transform="translate(0.4 11.5)" style="fill:#176800;opacity:0.5"/><circle cx="434" cy="127.5" r="14" style="fill:#229e08"/><circle cx="432" cy="124.5" r="14" style="fill:#ffd522"/><g style="clip-path:url(#clip-path-3)"><circle cx="429" cy="121.5" r="2" style="fill:#232533"/><circle cx="435" cy="121.5" r="2" style="fill:#232533"/><circle cx="429" cy="127.5" r="2" style="fill:#232533"/><circle cx="435" cy="127.5" r="2" style="fill:#232533"/></g></g><path d="M25.6,469c-12.26-6.61-29-3-25-30s4-43,25-41,167,34,213,40,165,15,170,31,5,55-8,61S140.6,531,25.6,469Z" transform="translate(0.4 11.5)" style="fill:#62e03f"/><g style="clip-path:url(#clip-path-4)"><path d="M320.91,438.63s47.69,21.24,54.69,34.8-9,65.57-159,39.57S-.4,474-.4,474l222,67,190,1,27-62-16-39Z" transform="translate(0.4 11.5)" style="fill:#176800;opacity:0.15"/></g><path d="M491.6,505c-5-17-17-33,12-40s163-29,186-41,92-46.82,107-40.91,43,40.91,29,56.91-179,68-217,79-88,17-98,13S491.6,505,491.6,505Z" transform="translate(0.4 11.5)" style="fill:#62e03f"/><g style="clip-path:url(#clip-path-5)"><path d="M668,415.39S757.6,385,783.6,411s-86.29,83.83-241.15,120.91h0L550.6,557l307-116-51-89Z" transform="translate(0.4 11.5)" style="fill:#176800;opacity:0.15"/></g></g></g></g></svg>