<svg xmlns="http://www.w3.org/2000/svg" xmlns:xlink="http://www.w3.org/1999/xlink" viewBox="0 0 950.07 931.97"><defs><clipPath id="clip-path" transform="translate(77.26 139.17)"><path d="M748.42,319.07H613.51l77.59-77.59a10.34,10.34,0,0,0-14.62-14.62l-92.22,92.21H502.81l73.48-73.48a16.14,16.14,0,0,0,1.18-21.52,16.15,16.15,0,0,0-19.21-8.91L457.89,244.23l39.3-71.34L623,136.45a10.34,10.34,0,0,0-5.76-19.86L511.3,147.27,576.59,28.75a19.39,19.39,0,1,0-34-18.71L477.53,128.2,447,22.8a10.34,10.34,0,0,0-19.87,5.76l36.28,125.26-39.3,71.34L397.8,134.29l.11-.42a16.16,16.16,0,0,0-11.58-19.7,30.35,30.35,0,0,0-11.13.15,16.16,16.16,0,0,0-11,20l.13.42-23.77,91.58-41.28-70.21L332,29.89a10.34,10.34,0,1,0-20-5.19L284.43,130.91,216.05,14.61a19.39,19.39,0,1,0-33.43,19.65l68.59,116.65L144.43,123.2a10.34,10.34,0,0,0-5.19,20L266,176.13l41.28,70.21L213.55,222a16.08,16.08,0,0,0-25.18,5.21,15.94,15.94,0,0,0-1.9,4.45A16.14,16.14,0,0,0,196.94,251l68.05,68H183.55L91.33,226.86a10.34,10.34,0,0,0-14.62,14.62l77.59,77.59H19.39a19.39,19.39,0,1,0,0,38.78H154.71l-78,78a10.34,10.34,0,1,0,14.62,14.63L184,357.85H265.4l-73.89,73.89a16.16,16.16,0,0,0-1.4,21.23,16.14,16.14,0,0,0,19.44,9.4l99.82-28.91-39.3,71.34L144.8,541.08a10.34,10.34,0,1,0,5.76,19.86L256,530.42l-65.1,118.17a19.39,19.39,0,0,0,34,18.71l65.29-118.52,30.68,106A10.34,10.34,0,0,0,340.67,649L304.23,523.16l39.3-71.34L370,543.25l-.11.42a16.16,16.16,0,0,0,11.58,19.7,15.84,15.84,0,0,0,4.07.52c.52,0,1,0,1.54-.08.34,0,.68,0,1,0a15.94,15.94,0,0,0,4.5-.64,16.16,16.16,0,0,0,11-20l-.12-.42,23.9-92.13,41.28,70.21L435.8,647.65a10.34,10.34,0,0,0,7.41,12.61,10.61,10.61,0,0,0,2.61.33,10.35,10.35,0,0,0,10-7.74l27.71-106.78,68.58,116.66a19.39,19.39,0,0,0,33.43-19.66l-68.38-116.3,106.21,27.57a10.73,10.73,0,0,0,2.61.33,10.34,10.34,0,0,0,2.59-20.35L502.34,501.56l-41.28-70.21,93.52,24.27a16.87,16.87,0,1,0,16.59-29l-68.76-68.76h81.44l92.63,92.63a10.34,10.34,0,0,0,14.62-14.63l-78-78H748.42a19.39,19.39,0,0,0,0-38.78ZM514.8,261.39l-57.69,57.68H416.66l19.18-34.81ZM381.9,195.55l20.17,69.64-18.72,34-19.66-33.44ZM258.74,267.12l71.73,18.61,19.6,33.34H310.69Zm-6,149.1,58.37-58.37H351l-19.6,35.59ZM385.91,482l-20.33-70.19,18.87-34.25,19.81,33.71Zm123.44-71.49L437.9,392l-20-34.1h38.86Z" style="fill:#4e88cd"/></clipPath></defs><g id="Layer_2" data-name="Layer 2"><g id="snowflake"><g id="Layer_4" data-name="Layer 4"><path d="M748.42,319.07H613.51l77.59-77.59a10.34,10.34,0,0,0-14.62-14.62l-92.22,92.21H502.81l73.48-73.48a16.14,16.14,0,0,0,1.18-21.52,16.15,16.15,0,0,0-19.21-8.91L457.89,244.23l39.3-71.34L623,136.45a10.34,10.34,0,0,0-5.76-19.86L511.3,147.27,576.59,28.75a19.39,19.39,0,1,0-34-18.71L477.53,128.2,447,22.8a10.34,10.34,0,0,0-19.87,5.76l36.28,125.26-39.3,71.34L397.8,134.29l.11-.42a16.16,16.16,0,0,0-11.58-19.7,30.35,30.35,0,0,0-11.13.15,16.16,16.16,0,0,0-11,20l.13.42-23.77,91.58-41.28-70.21L332,29.89a10.34,10.34,0,1,0-20-5.19L284.43,130.91,216.05,14.61a19.39,19.39,0,1,0-33.43,19.65l68.59,116.65L144.43,123.2a10.34,10.34,0,0,0-5.19,20L266,176.13l41.28,70.21L213.55,222a16.08,16.08,0,0,0-25.18,5.21,15.94,15.94,0,0,0-1.9,4.45A16.14,16.14,0,0,0,196.94,251l68.05,68H183.55L91.33,226.86a10.34,10.34,0,0,0-14.62,14.62l77.59,77.59H19.39a19.39,19.39,0,1,0,0,38.78H154.71l-78,78a10.34,10.34,0,1,0,14.62,14.63L184,357.85H265.4l-73.89,73.89a16.16,16.16,0,0,0-1.4,21.23,16.14,16.14,0,0,0,19.44,9.4l99.82-28.91-39.3,71.34L144.8,541.08a10.34,10.34,0,1,0,5.76,19.86L256,530.42l-65.1,118.17a19.39,19.39,0,0,0,34,18.71l65.29-118.52,30.68,106A10.34,10.34,0,0,0,340.67,649L304.23,523.16l39.3-71.34L370,543.25l-.11.42a16.16,16.16,0,0,0,11.58,19.7,15.84,15.84,0,0,0,4.07.52c.52,0,1,0,1.54-.08.34,0,.68,0,1,0a15.94,15.94,0,0,0,4.5-.64,16.16,16.16,0,0,0,11-20l-.12-.42,23.9-92.13,41.28,70.21L435.8,647.65a10.34,10.34,0,0,0,7.41,12.61,10.61,10.61,0,0,0,2.61.33,10.35,10.35,0,0,0,10-7.74l27.71-106.78,68.58,116.66a19.39,19.39,0,0,0,33.43-19.66l-68.38-116.3,106.21,27.57a10.73,10.73,0,0,0,2.61.33,10.34,10.34,0,0,0,2.59-20.35L502.34,501.56l-41.28-70.21,93.52,24.27a16.87,16.87,0,1,0,16.59-29l-68.76-68.76h81.44l92.63,92.63a10.34,10.34,0,0,0,14.62-14.63l-78-78H748.42a19.39,19.39,0,0,0,0-38.78ZM514.8,261.39l-57.69,57.68H416.66l19.18-34.81ZM381.9,195.55l20.17,69.64-18.72,34-19.66-33.44ZM258.74,267.12l71.73,18.61,19.6,33.34H310.69Zm-6,149.1,58.37-58.37H351l-19.6,35.59ZM385.91,482l-20.33-70.19,18.87-34.25,19.81,33.71Zm123.44-71.49L437.9,392l-20-34.1h38.86Z" transform="translate(77.26 139.17)" style="fill:#4e88cd"/><g style="clip-path:url(#clip-path)"><path d="M616.87-139.17S787.49,548.5-77.26,525.23L182.55,792.8l465.34-63.34L872.8,469.65l-53-272.74Z" transform="translate(77.26 139.17)" style="fill:#0d6099;opacity:0.5"/></g><path d="M318.55,26.53C313.36,44.75,308.43,63,302.69,81.07c-2.81,8.83-6.18,17.44-9.06,26.24-2.59,7.91-6,16.9-5.71,25.3.07,2,3.06,2.54,3.54.48,1-4.43,1.39-9,2.43-13.4s2.52-8.78,3.82-13.15c2.54-8.57,4.67-17.27,7.11-25.88,5.06-17.9,10.2-35.81,14.45-53.93a.37.37,0,0,0-.72-.2Z" transform="translate(77.26 139.17)" style="fill:#d7f4ff"/><path d="M192.57,13.5C186,26.05,191,39.41,197.22,51c8.16,15.09,16.29,30.3,25.44,44.82a.73.73,0,0,0,1.25-.74C218,81.69,211,68.83,204.29,55.83c-6.25-12.14-16-26.94-9-40.74.91-1.8-1.76-3.38-2.71-1.59Z" transform="translate(77.26 139.17)" style="fill:#d7f4ff"/><path d="M140.44,126.47c-2.6,3.7-4,7.83-.51,11.51,3.32,3.54,9.7,5.3,14.35,5.53.53,0,.81-.82.28-1-3.34-1.43-7-2.12-10.24-3.78-2-1-3.69-2.42-4.28-4.65-.68-2.56.73-4.54,2.14-6.54.74-1.07-1-2.08-1.74-1Z" transform="translate(77.26 139.17)" style="fill:#d7f4ff"/><path d="M201.67,224.42c-10.34,3.93-9.35,16.46-2.28,23.14,5.08,4.79,11.34,8.27,16.61,12.86,5.6,4.88,10.55,10.47,16,15.56.2.19.56-.06.4-.31-5.23-8.43-12.76-15.05-20.36-21.31-4.06-3.35-8.23-6.29-10.87-11-2.83-5.05-3.79-12.09,2-15.42,1.83-1.05.61-4.31-1.48-3.52Z" transform="translate(77.26 139.17)" style="fill:#d7f4ff"/><path d="M83.33,227.29c-6.32,2.89-7.15,10.19-2.64,15.07,3.76,4.06,8.27,7.63,12.25,11.51,4.15,4,7.6,9,12.26,12.46.49.36,1.17-.35.84-.84-3.94-5.74-9.93-10.36-14.62-15.54-4.09-4.52-16.29-14.91-6.55-20,1.76-.92.21-3.43-1.54-2.63Z" transform="translate(77.26 139.17)" style="fill:#d7f4ff"/><path d="M16.76,322.82c-4.66,5.15-9.31,11.59-7,18.9,2.38,7.51,10.69,8.7,17.47,9.49,5,.57,9.88.25,14.88.32,5.49.07,10.94.47,16.44.23,5.21-.24,10.37-.46,15.59-.46s10.61.75,15.71-.18a.45.45,0,0,0,0-.86c-7.19-1.43-15.2-.31-22.53-.55-8.13-.26-16.14-.65-24.28-.63-7.15,0-16.11-.29-22.8-2.92C9.73,342,15,331.64,19.7,325.09c1.24-1.72-1.52-3.84-2.94-2.27Z" transform="translate(77.26 139.17)" style="fill:#d7f4ff"/><path d="M84.59,448.3c-2-1.65-4.13-3.36-3.56-6.39.32-1.7,2.23-3.53,3.43-4.67,2.26-2.13,4.08-4.42,6.18-6.69,3.93-4.26,8.32-8.23,11.19-13.33a.35.35,0,0,0-.55-.43c-3.33,3.14-6.22,6.81-9.36,10.14s-7.06,5.41-10.14,8.67c-4.72,5-4.08,10.2,1.22,14.29,1.12.87,2.72-.66,1.59-1.59Z" transform="translate(77.26 139.17)" style="fill:#d7f4ff"/><path d="M200.76,452c-9.61-8.68,3.65-20.33,9.58-26.77,7.42-8,15.36-15.6,22.79-23.63a.75.75,0,0,0-1.06-1.06c-10.8,10.12-20.65,21.22-31.52,31.29-3.44,3.18-7.15,5.84-7.77,10.81a13.79,13.79,0,0,0,5,12.31c2,1.7,5-1.13,2.95-2.95Z" transform="translate(77.26 139.17)" style="fill:#d7f4ff"/><path d="M390.89,122.88c-2.85-3.9-7.75-4.49-11.93-2.14-5.22,2.93-7.35,9.42-8.84,14.83-2.34,8.53-4.39,17.16-6.67,25.72-2.57,9.63-5.83,19.16-7.81,28.92a.91.91,0,0,0,1.76.49c4.66-12.75,7.8-26.23,11.63-39.27,1.57-5.34,9.85-37.83,19.68-26.87,1,1.15,3.11-.4,2.18-1.68Z" transform="translate(77.26 139.17)" style="fill:#d7f4ff"/><path d="M440.61,19.72c-9.36-3.48-7.33,13.63-6.53,17.79,1.22,6.29,3.47,12.36,5.5,18.42,2,5.9,2.89,13,6,18.4a.57.57,0,0,0,1-.29c-.12-4-1.78-7.53-2.83-11.32-1.27-4.6-2.19-9.31-3.32-13.95-1.31-5.39-8.56-26,.11-27.47.88-.15.68-1.33,0-1.58Z" transform="translate(77.26 139.17)" style="fill:#d7f4ff"/><path d="M569.51,9.43c-6.47-4.33-13.17-6-19.71-.78-3.67,2.93-5.83,7.31-8,11.37-2.85,5.37-5.63,10.76-8.57,16.08-5.74,10.36-10.9,21-16.77,31.32-6.17,10.85-12.54,21.6-18.6,32.51a.91.91,0,0,0,1.58.92c11.24-17.08,22-34.65,32.3-52.29a283.91,283.91,0,0,0,13.86-27.42c1.83-4.07,3.6-8.62,6.91-11.75,5.4-5.1,11.19-2.84,16.44,1,.56.4,1.12-.55.54-.93Z" transform="translate(77.26 139.17)" style="fill:#d7f4ff"/><path d="M465.07,164.65c-5.88,11.44-11.95,22.77-17.93,34.16-2.91,5.55-6.21,10.91-9.57,16.21-3.1,4.9-7.68,9.95-9.3,15.55a.92.92,0,0,0,1.52.89c4.19-3.65,6.6-9.67,9.3-14.46,3.23-5.74,6.34-11.56,9.65-17.26a311,311,0,0,0,17.1-34.64c.22-.51-.5-1-.77-.45Z" transform="translate(77.26 139.17)" style="fill:#d7f4ff"/><path d="M405.63,271.9c-5.1,9.93-12.05,19.26-16.29,29.58-.12.28.32.53.51.29,6.92-8.66,11.21-19.79,16.19-29.64.13-.26-.27-.5-.41-.23Z" transform="translate(77.26 139.17)" style="fill:#d7f4ff"/><path d="M530.51,146.27l3.86-1.05s0-.11,0-.09l-3.85,1.05c-.06,0,0,.1,0,.09Z" transform="translate(77.26 139.17)" style="fill:#d7f4ff"/><path d="M540.77,143.26c16.09-4.13,32.11-8.53,47.94-13.5a.19.19,0,0,0-.1-.36c-16.1,4-32.07,8.62-47.94,13.5a.19.19,0,0,0,.1.36Z" transform="translate(77.26 139.17)" style="fill:#d7f4ff"/><path d="M591.5,128.72c3.63-1.37,7.26-2.74,10.87-4.16.2-.08.12-.39-.08-.32-3.65,1.31-7.28,2.68-10.91,4-.28.11-.16.56.12.45Z" transform="translate(77.26 139.17)" style="fill:#d7f4ff"/><path d="M469.47,247.69A363.32,363.32,0,0,1,512.86,235c7.49-1.77,15-3.63,22.4-5.89,7.06-2.17,14.72-4,21.23-7.57.82-.45.21-1.54-.6-1.41-7.54,1.16-15,4.39-22.24,6.76-7.63,2.49-15.18,4.83-23,6.66-14.36,3.38-28,7.44-41.36,13.69-.24.11-.07.52.18.43Z" transform="translate(77.26 139.17)" style="fill:#d7f4ff"/><path d="M474.85,308.86c7.26-5.54,14.25-11.23,21.21-17.15s14.91-11,20.28-18.32c.31-.42-.29-1-.71-.7-7.35,4.67-13.19,11.84-19.63,17.64-6.94,6.25-14.2,12.26-21.35,18.28-.14.11.05.37.2.25Z" transform="translate(77.26 139.17)" style="fill:#d7f4ff"/><path d="M273.77,177.57c5.5,10.31,11.75,20.13,17.85,30.09,2.89,4.72,5.91,9.33,9.06,13.87s6.19,9.61,10.46,13.15a.61.61,0,0,0,1-.74c-2.31-5-6.21-9.18-9.43-13.57q-5.21-7.06-10.22-14.26c-6.49-9.3-12-19.31-17.55-29.21-.41-.74-1.53-.08-1.13.67Z" transform="translate(77.26 139.17)" style="fill:#d7f4ff"/><path d="M336.79,286.09c6.45,7.8,10,17.91,16.95,25.48.68.74,1.64-.2,1.29-1-2.18-5-5.58-9.74-8.53-14.33a66.21,66.21,0,0,0-8.68-11.17c-.68-.68-1.62.32-1,1Z" transform="translate(77.26 139.17)" style="fill:#d7f4ff"/><path d="M340.78,392.08c5.13-9,10.59-18,15.35-27.2a.47.47,0,0,0-.81-.47c-5.58,8.75-10.57,18-15.79,26.94a.72.72,0,0,0,1.25.73Z" transform="translate(77.26 139.17)" style="fill:#d7f4ff"/><path d="M246.76,388.77c11.14-8,19.55-19,29.75-28.1a.14.14,0,0,0-.17-.22c-11.55,7.24-19.48,18.94-30.22,27.23-.63.48,0,1.57.64,1.09Z" transform="translate(77.26 139.17)" style="fill:#d7f4ff"/><path d="M126.56,392.48c5-5.1,10.05-10.09,15.31-14.88s11.15-9,16.06-14.06c.36-.37-.11-1-.57-.73-5.68,3.67-10.66,8.78-15.58,13.39q-8.13,7.62-15.78,15.72c-.35.37.21.93.56.56Z" transform="translate(77.26 139.17)" style="fill:#d7f4ff"/><path d="M198.49,325.08c9.31-.34,18.71-.29,28-.19q6.78.06,13.54.43c4.74.26,9.77,1.25,14.47.74a.82.82,0,0,0,.22-1.61c-8.24-2.5-18.67-1.7-27.26-1.76a224.87,224.87,0,0,0-29,1.88c-.32,0-.34.52,0,.51Z" transform="translate(77.26 139.17)" style="fill:#d7f4ff"/><path d="M84.22,325.93q15.59.4,31.15.38h15.57c4.58,0,9.33.45,13.86-.27a.87.87,0,0,0,0-1.67c-4.53-.7-9.28-.21-13.86-.19l-15.57.07c-10.39.07-20.77.23-31.15.57a.56.56,0,0,0,0,1.12Z" transform="translate(77.26 139.17)" style="fill:#d7f4ff"/></g></g></g></svg>