<svg xmlns="http://www.w3.org/2000/svg" xmlns:xlink="http://www.w3.org/1999/xlink" viewBox="0 0 745.4 900.68"><defs><clipPath id="clip-path" transform="translate(36.76 33.26)"><path d="M258.55,44.34h141a24.1,24.1,0,0,1,24.1,24.38c-1,84.45-2.47,360.8,20.11,386.72C470.47,486.08,605.73,617.62,633.53,663c18.77,30.63-68.19,168-161.08,82-163.1-151-174.92-172.94-198.63-209.5-22.33-34.42-22.76-313.16-39.23-464.44A24.1,24.1,0,0,1,258.55,44.34Z" style="fill:#ff8b00"/></clipPath><clipPath id="clip-path-2" transform="translate(36.76 33.26)"><path d="M27,0H185.23a27,27,0,0,1,27,27.34c-1.11,94.74-2.77,404.73,22.55,433.8,29.93,34.37,181.66,181.92,212.84,232.79,21.06,34.36-76.49,188.45-180.69,92C84,616.61,70.76,592,44.16,550.93c-25-38.61-25.53-351.28-44-521A27,27,0,0,1,27,0Z" style="fill:#ff8b00"/></clipPath></defs><g id="Layer_2" data-name="Layer 2"><g id="Layer_3" data-name="Layer 3"><g id="Layer_4" data-name="Layer 4"><path d="M258.55,44.34h141a24.1,24.1,0,0,1,24.1,24.38c-1,84.45-2.47,360.8,20.11,386.72C470.47,486.08,605.73,617.62,633.53,663c18.77,30.63-68.19,168-161.08,82-163.1-151-174.92-172.94-198.63-209.5-22.33-34.42-22.76-313.16-39.23-464.44A24.1,24.1,0,0,1,258.55,44.34Z" transform="translate(36.76 33.26)" style="fill:#ff8b00"/><g style="clip-path:url(#clip-path)"><path d="M217.49,150.08s152.18,23.72,220.37-7.9L430,14.7H201.68Z" transform="translate(36.76 33.26)" style="fill:#ea2727"/><path d="M238.24,477.18s146.26-6.91,94.87,129.46l-83-66.21Z" transform="translate(36.76 33.26)" style="fill:#ea2727"/><path d="M682.83,656.2s-111-24.75-216.44,125.46l111.91,36,89.11-78.86Z" transform="translate(36.76 33.26)" style="fill:#ea2727"/><path d="M284.69,20.63s84,425.92,99.81,449.64,114.91,97.83,143.29,165c18.77,44.47-73.13,129.46-73.13,129.46l97.83,44.47L708.63,704.47,474.42,441.61,446.75,31.5Z" transform="translate(36.76 33.26)" style="fill:#d85107;opacity:0.35000000000000003"/></g><path d="M27,0H185.23a27,27,0,0,1,27,27.34c-1.11,94.74-2.77,404.73,22.55,433.8,29.93,34.37,181.66,181.92,212.84,232.79,21.06,34.36-76.49,188.45-180.69,92C84,616.61,70.76,592,44.16,550.93c-25-38.61-25.53-351.28-44-521A27,27,0,0,1,27,0Z" transform="translate(36.76 33.26)" style="fill:#ff8b00"/><g style="clip-path:url(#clip-path-2)"><path d="M-19,118.61s170.71,26.61,247.2-8.87l-8.87-143H-36.76Z" transform="translate(36.76 33.26)" style="fill:#ea2727"/><path d="M4.25,485.53s164.06-7.76,106.42,145.21L17.55,556.47Z" transform="translate(36.76 33.26)" style="fill:#ea2727"/><path d="M503,686.33s-124.5-27.75-242.78,140.74L385.7,867.42l100-88.47Z" transform="translate(36.76 33.26)" style="fill:#ea2727"/><path d="M56.35-26.6s94.22,477.77,112,504.37S297.22,587.51,329.05,662.89c21.06,49.88-82,145.22-82,145.22L356.76,858,531.9,740.49,269.19,445.62l-31-460Z" transform="translate(36.76 33.26)" style="fill:#d85107;opacity:0.35000000000000003"/></g></g></g></g></svg>