<svg xmlns="http://www.w3.org/2000/svg" xmlns:xlink="http://www.w3.org/1999/xlink" viewBox="0 0 910.89 898.21"><defs><clipPath id="clip-path"><path d="M773.51,126.27,655.31,353.89a33.61,33.61,0,0,0,6.25,39.44l182.75,180c23.39,23,3.28,62.49-29.1,57.11l-253-42.08a33.62,33.62,0,0,0-35.58,18.13L412,835.85c-14.68,29.37-58.42,22.44-63.31-10L310.49,572.21A33.63,33.63,0,0,0,282.25,544L28.63,505.81c-32.46-4.89-39.39-48.63-10-63.31L248,327.83a33.61,33.61,0,0,0,18.13-35.58l-42.07-253c-5.39-32.38,34.08-52.49,57.11-29.1l180,182.75a33.61,33.61,0,0,0,39.44,6.24L728.19,81C757.32,65.82,788.64,97.14,773.51,126.27Z" style="fill:#ff8b00"/></clipPath></defs><g id="Layer_2" data-name="Layer 2"><g id="Layer_3" data-name="Layer 3"><g id="Layer_4" data-name="Layer 4"><path d="M773.51,126.27,655.31,353.89a33.61,33.61,0,0,0,6.25,39.44l182.75,180c23.39,23,3.28,62.49-29.1,57.11l-253-42.08a33.62,33.62,0,0,0-35.58,18.13L412,835.85c-14.68,29.37-58.42,22.44-63.31-10L310.49,572.21A33.63,33.63,0,0,0,282.25,544L28.63,505.81c-32.46-4.89-39.39-48.63-10-63.31L248,327.83a33.61,33.61,0,0,0,18.13-35.58l-42.07-253c-5.39-32.38,34.08-52.49,57.11-29.1l180,182.75a33.61,33.61,0,0,0,39.44,6.24L728.19,81C757.32,65.82,788.64,97.14,773.51,126.27Z" style="fill:#ff8b00"/><g style="clip-path:url(#clip-path)"><path d="M644.27,215.65,505.39,378.07A13.91,13.91,0,0,0,508.7,399L691,510.54c4.07,2.49.9,8.72-3.51,6.88L490.08,435.53a13.92,13.92,0,0,0-18.87,9.61L421.45,653c-1.12,4.65-8,3.56-7.64-1.21l16.89-213a13.92,13.92,0,0,0-15-15l-213,16.89c-4.77.38-5.86-6.52-1.21-7.63l207.83-49.77a13.91,13.91,0,0,0,9.61-18.86L337,167c-1.83-4.41,4.39-7.59,6.89-3.51L455.47,345.76a13.93,13.93,0,0,0,20.92,3.31L638.81,210.19C642.44,207.08,647.38,212,644.27,215.65Z" style="fill:#ea2727"/><path d="M297.44,109.75c7.66,0,7.67-11.91,0-11.91s-7.68,11.91,0,11.91Z" style="fill:#ffaa39"/><path d="M310.91,243.76c7.66,0,7.67-11.91,0-11.91s-7.67,11.91,0,11.91Z" style="fill:#ffaa39"/><path d="M284,169.16c9.34,0,18.29-8.21,17.85-17.86S294,133.44,284,133.44c-9.35,0-18.3,8.22-17.86,17.86S274,169.16,284,169.16Z" style="fill:#ffaa39"/><path d="M271.91,66.34c9.34,0,18.29-8.21,17.86-17.85s-7.85-17.86-17.86-17.86c-9.34,0-18.29,8.21-17.86,17.86s7.85,17.85,17.86,17.85Z" style="fill:#ffaa39"/><path d="M459.81,265.59c9.35,0,18.3-8.21,17.86-17.86s-7.84-17.86-17.86-17.86c-9.34,0-18.29,8.22-17.85,17.86s7.84,17.86,17.85,17.86Z" style="fill:#ffaa39"/><path d="M686.72,181.92c9.34,0,18.29-8.21,17.86-17.86s-7.85-17.86-17.86-17.86c-9.34,0-18.29,8.22-17.86,17.86s7.84,17.86,17.86,17.86Z" style="fill:#ffaa39"/><path d="M560.5,407.41c9.34,0,18.29-8.22,17.86-17.86s-7.85-17.86-17.86-17.86c-9.34,0-18.29,8.21-17.86,17.86s7.85,17.86,17.86,17.86Z" style="fill:#ffaa39"/><path d="M725,579c9.34,0,18.29-8.21,17.86-17.86S735,543.28,725,543.28c-9.35,0-18.29,8.22-17.86,17.86S715,579,725,579Z" style="fill:#ffaa39"/><path d="M791,606.66c9.34,0,18.29-8.22,17.86-17.86S801,570.94,791,570.94c-9.34,0-18.29,8.21-17.86,17.86s7.85,17.86,17.86,17.86Z" style="fill:#ffaa39"/><path d="M509.45,586.09c9.34,0,18.29-8.21,17.86-17.86s-7.85-17.86-17.86-17.86c-9.34,0-18.29,8.22-17.86,17.86s7.85,17.86,17.86,17.86Z" style="fill:#ffaa39"/><path d="M376.85,702.4a.15.15,0,0,0,0-.3.15.15,0,0,0,0,.3Z" style="fill:#ffaa39"/><path d="M371.18,517.31c9.34,0,18.29-8.21,17.86-17.86s-7.85-17.86-17.86-17.86c-9.34,0-18.29,8.22-17.86,17.86s7.85,17.86,17.86,17.86Z" style="fill:#ffaa39"/><path d="M379.69,735.71c9.34,0,18.29-8.22,17.86-17.86S389.7,700,379.69,700c-9.34,0-18.29,8.21-17.86,17.86s7.85,17.86,17.86,17.86Z" style="fill:#ffaa39"/><path d="M101,493.91c9.34,0,18.29-8.21,17.85-17.86S111,458.2,101,458.2c-9.35,0-18.3,8.21-17.86,17.85S91,493.91,101,493.91Z" style="fill:#ffaa39"/><path d="M281.13,367.7c9.34,0,18.29-8.21,17.86-17.86S291.14,332,281.13,332c-9.34,0-18.29,8.22-17.86,17.86s7.85,17.86,17.86,17.86Z" style="fill:#ffaa39"/><path d="M382.53,175.26c15.32,0,15.34-23.81,0-23.81s-15.35,23.81,0,23.81Z" style="fill:#ffaa39"/><path d="M573.27,238.37c15.32,0,15.34-23.81,0-23.81s-15.35,23.81,0,23.81Z" style="fill:#ffaa39"/><path d="M622.9,424.14c15.32,0,15.35-23.81,0-23.81s-15.35,23.81,0,23.81Z" style="fill:#ffaa39"/><path d="M737.06,138.39c15.32,0,15.35-23.81,0-23.81s-15.35,23.81,0,23.81Z" style="fill:#ffaa39"/><path d="M607.3,537.6c15.32,0,15.35-23.82,0-23.82s-15.35,23.82,0,23.82Z" style="fill:#ffaa39"/><path d="M356.29,619.85c15.32,0,15.35-23.81,0-23.81s-15.35,23.81,0,23.81Z" style="fill:#ffaa39"/><path d="M393.16,841.08c15.32,0,15.35-23.81,0-23.81s-15.35,23.81,0,23.81Z" style="fill:#ffaa39"/><path d="M211.64,492.22c15.32,0,15.35-23.82,0-23.82s-15.35,23.82,0,23.82Z" style="fill:#ffaa39"/><path d="M189.66,402.16c15.32,0,15.35-23.81,0-23.81s-15.35,23.81,0,23.81Z" style="fill:#ffaa39"/><path d="M382.53,371c15.32,0,15.34-23.81,0-23.81s-15.35,23.81,0,23.81Z" style="fill:#ffaa39"/><path d="M273.33,210.43c7.66,0,7.67-11.9,0-11.9s-7.67,11.9,0,11.9Z" style="fill:#ffaa39"/><path d="M333.6,331.68c7.66,0,7.67-11.9,0-11.9s-7.67,11.9,0,11.9Z" style="fill:#ffaa39"/><path d="M349.2,280.63c7.66,0,7.67-11.9,0-11.9s-7.67,11.9,0,11.9Z" style="fill:#ffaa39"/><path d="M441.38,205.47c7.66,0,7.67-11.91,0-11.91s-7.68,11.91,0,11.91Z" style="fill:#ffaa39"/><path d="M387.49,215.4c7.66,0,7.67-11.91,0-11.91s-7.67,11.91,0,11.91Z" style="fill:#ffaa39"/><path d="M484.63,321.05c7.66,0,7.68-11.91,0-11.91s-7.67,11.91,0,11.91Z" style="fill:#ffaa39"/><path d="M518,242.34c7.66,0,7.67-11.9,0-11.9s-7.68,11.9,0,11.9Z" style="fill:#ffaa39"/><path d="M614.39,174.27c7.66,0,7.68-11.9,0-11.9s-7.67,11.9,0,11.9Z" style="fill:#ffaa39"/><path d="M686,223.2c7.66,0,7.67-11.91,0-11.91s-7.68,11.91,0,11.91Z" style="fill:#ffaa39"/><path d="M730,173.56c7.66,0,7.67-11.9,0-11.9s-7.67,11.9,0,11.9Z" style="fill:#ffaa39"/><path d="M692.39,124.64c7.66,0,7.67-11.91,0-11.91s-7.67,11.91,0,11.91Z" style="fill:#ffaa39"/><path d="M603.76,296.94c7.66,0,7.67-11.91,0-11.91s-7.68,11.91,0,11.91Z" style="fill:#ffaa39"/><path d="M666.15,271.41c7.66,0,7.68-11.9,0-11.9s-7.67,11.9,0,11.9Z" style="fill:#ffaa39"/><path d="M611.56,364.3c7.66,0,7.67-11.9,0-11.9s-7.68,11.9,0,11.9Z" style="fill:#ffaa39"/><path d="M640.63,319.63c7.66,0,7.67-11.91,0-11.91s-7.68,11.91,0,11.91Z" style="fill:#ffaa39"/><path d="M566.88,346.58c7.67,0,7.68-11.91,0-11.91s-7.67,11.91,0,11.91Z" style="fill:#ffaa39"/><path d="M683.88,472.08c7.66,0,7.67-11.91,0-11.91s-7.67,11.91,0,11.91Z" style="fill:#ffaa39"/><path d="M636.37,455.77c7.66,0,7.68-11.9,0-11.9s-7.67,11.9,0,11.9Z" style="fill:#ffaa39"/><path d="M762.59,536.61c7.66,0,7.67-11.91,0-11.91s-7.68,11.91,0,11.91Z" style="fill:#ffaa39"/><path d="M655.52,577c7.66,0,7.67-11.9,0-11.9s-7.68,11.9,0,11.9Z" style="fill:#ffaa39"/><path d="M527.89,506.12c7.66,0,7.67-11.91,0-11.91s-7.68,11.91,0,11.91Z" style="fill:#ffaa39"/><path d="M572.56,566.39c7.66,0,7.67-11.91,0-11.91s-7.68,11.91,0,11.91Z" style="fill:#ffaa39"/><path d="M478.25,516c7.66,0,7.67-11.9,0-11.9s-7.67,11.9,0,11.9Z" style="fill:#ffaa39"/><path d="M466.2,677c7.66,0,7.67-11.9,0-11.9s-7.68,11.9,0,11.9Z" style="fill:#ffaa39"/><path d="M461.23,609.64c7.66,0,7.68-11.91,0-11.91s-7.67,11.91,0,11.91Z" style="fill:#ffaa39"/><path d="M419.4,698.27c7.66,0,7.67-11.9,0-11.9s-7.68,11.9,0,11.9Z" style="fill:#ffaa39"/><path d="M422.23,773.44c7.66,0,7.68-11.91,0-11.91s-7.67,11.91,0,11.91Z" style="fill:#ffaa39"/><path d="M364.09,786.2c7.66,0,7.67-11.91,0-11.91s-7.67,11.91,0,11.91Z" style="fill:#ffaa39"/><path d="M347.07,668.49c7.66,0,7.68-11.9,0-11.9s-7.67,11.9,0,11.9Z" style="fill:#ffaa39"/><path d="M392.45,618.86c7.66,0,7.68-11.91,0-11.91s-7.67,11.91,0,11.91Z" style="fill:#ffaa39"/><path d="M328.64,555c7.66,0,7.67-11.9,0-11.9s-7.68,11.9,0,11.9Z" style="fill:#ffaa39"/><path d="M385.36,543.7c7.66,0,7.68-11.91,0-11.91s-7.67,11.91,0,11.91Z" style="fill:#ffaa39"/><path d="M389.62,450.1c7.66,0,7.67-11.91,0-11.91s-7.68,11.91,0,11.91Z" style="fill:#ffaa39"/><path d="M283.26,468.54c7.66,0,7.67-11.91,0-11.91s-7.68,11.91,0,11.91Z" style="fill:#ffaa39"/><path d="M329.35,493.35c7.66,0,7.67-11.9,0-11.9s-7.68,11.9,0,11.9Z" style="fill:#ffaa39"/><path d="M249.22,513.92c7.66,0,7.67-11.91,0-11.91s-7.67,11.91,0,11.91Z" style="fill:#ffaa39"/><path d="M147.11,455.77c7.67,0,7.68-11.9,0-11.9s-7.67,11.9,0,11.9Z" style="fill:#ffaa39"/><path d="M160.59,511.79c7.66,0,7.67-11.91,0-11.91s-7.68,11.91,0,11.91Z" style="fill:#ffaa39"/><path d="M108.12,432.37c7.66,0,7.67-11.9,0-11.9s-7.68,11.9,0,11.9Z" style="fill:#ffaa39"/><path d="M38.63,476.34c7.66,0,7.67-11.91,0-11.91s-7.68,11.91,0,11.91Z" style="fill:#ffaa39"/><path d="M295.31,309c7.66,0,7.67-11.9,0-11.9s-7.67,11.9,0,11.9Z" style="fill:#ffaa39"/><path d="M259.15,399.05c7.66,0,7.67-11.91,0-11.91s-7.68,11.91,0,11.91Z" style="fill:#ffaa39"/><path d="M863.89.22s-613,521-665,736,178,154,178,154,305-51,310-61,224-204,224-204Z" style="fill:#d85107;opacity:0.35000000000000003"/><path d="M525.82,334.62l-50.38,58.91a5.06,5.06,0,0,0,1.21,7.59l66.11,40.46a1.41,1.41,0,0,1-1.27,2.5l-71.6-29.71a5,5,0,0,0-6.84,3.49L445,493.24a1.41,1.41,0,0,1-2.77-.44l6.13-77.27a5.06,5.06,0,0,0-5.43-5.43l-77.27,6.13a1.41,1.41,0,0,1-.44-2.77l75.38-18a5,5,0,0,0,3.48-6.84L414.38,317a1.41,1.41,0,0,1,2.5-1.27l40.46,66.11a5,5,0,0,0,7.59,1.2l58.91-50.37A1.4,1.4,0,0,1,525.82,334.62Z" style="fill:#ce0909"/></g></g></g></g></svg>