<svg xmlns="http://www.w3.org/2000/svg" viewBox="0 0 786.89 772.25"><g id="Layer_2" data-name="Layer 2"><g id="Layer_3" data-name="Layer 3"><g id="Layer_4" data-name="Layer 4"><path d="M27.31,377.58c-41.88-92.45-38.6-189.68,30.88-266.87S243.45-11.7,328.36,2.64,485,109.28,559.94,162.54c83.81,59.55,208.43,79.4,225,215S714.33,741.49,536.79,762.44,200.44,787.8,156.33,594.82C126.16,462.83,58.21,445.8,27.31,377.58Z" style="fill:#efede4"/><circle cx="260.54" cy="260.13" r="149.42" style="fill:#ffd522"/><path d="M170.67,62.19c-24.24,16.94,191.24-9.7,239.76,125.94s13,149-57,222c-48.95,51.05-138.73,201.84-30,303,43,40,255.26,51.52,340.17-63.17S780.29,365.37,721,304.8c-52.94-54-139-67.27-237.1-162.11C403.15,64.7,303.07-30.34,170.67,62.19Z" style="fill:#fff;opacity:0.41000000000000003"/><path d="M210.3,222.12c-3.59,14-3.67,52.86-9.6,58.15s-23.6-3.37-31.6-10c-12.69-10.54-16.95-40.82-7.88-55.47S215.33,202.48,210.3,222.12Z" style="fill:#fff;opacity:0.41000000000000003"/><path d="M282.43,136.13c36,0,88,22,103,91s-49,160-102,159,24-25,45-70c25-53.59,11-95-39-119S246.43,136.13,282.43,136.13Z" style="fill:#ffba1f;opacity:0.6000000000000001"/></g></g></g></svg>