<svg xmlns="http://www.w3.org/2000/svg" xmlns:xlink="http://www.w3.org/1999/xlink" viewBox="0 0 894.84 642.76"><defs><clipPath id="clip-path" transform="translate(35.64)"><path d="M479.1,253.41s33-89.75-22.44-117.47-155.74-30.35-208.53,13.2,0,125.38,0,125.38Z" style="fill:#ffd522"/></clipPath><clipPath id="clip-path-2" transform="translate(35.64)"><path d="M488.34,162.57c3.15,1.21,9.87,12.48-1,20.2,0,0-153.35,9.83-259,0,0,0-9.27-14.61,1.29-20.2S473.82,157,488.34,162.57Z" style="fill:#ea2727"/></clipPath><clipPath id="clip-path-3" transform="translate(35.64)"><path d="M377.39,119.61S390.78,28.74,350.6,16.74,281.12,6.6,281.12,6.6V43.91s46.23-3.58,55.44,7.56,14.74,49.28,10.55,68.14C347.11,119.61,368.18,123,377.39,119.61Z" style="fill:#ffd522"/></clipPath><clipPath id="clip-path-4" transform="translate(35.64)"><path d="M794.54,386.71s52.79-112.19,0-129.34-48.84,85.79-25.08,129.34Z" style="fill:#97e9ff"/></clipPath><clipPath id="clip-path-5" transform="translate(35.64)"><path d="M794.54,418.39s52.79,112.18,0,129.34-48.84-85.79-25.08-129.34Z" style="fill:#97e9ff"/></clipPath><clipPath id="clip-path-6" transform="translate(35.64)"><path d="M741.74,348.81S583.44,208.54,316.92,214.55,6.32,290.7.3,398.91,76.45,591.28,339,591.28,741.74,459,741.74,459Z" style="fill:#ffd522"/></clipPath><clipPath id="clip-path-7" transform="translate(35.64)"><path d="M720.63,491H747V328.64H720.63s-11.88,40.91-10.56,80.51S720.63,491,720.63,491Z" style="fill:#ea2727"/></clipPath><clipPath id="clip-path-8" transform="translate(35.64)"><path d="M-7,387.64C7.53,394.72,17.55,396,34.32,396c67.06,0,121.42-62.64,121.42-139.9A150.2,150.2,0,0,0,150,214.64c-2-7-30,15-70,36C20.62,281.81-50.58,366.4-7,387.64Z" style="fill:#97e9ff;stroke:#ea2727;stroke-miterlimit:10;stroke-width:10px"/></clipPath><clipPath id="clip-path-9" transform="translate(35.64)"><circle cx="251.75" cy="392.33" r="57.73" style="fill:#97e9ff;stroke:#ea2727;stroke-miterlimit:10;stroke-width:15px"/></clipPath><clipPath id="clip-path-10" transform="translate(35.64)"><circle cx="415.09" cy="392.33" r="57.73" style="fill:#97e9ff;stroke:#ea2727;stroke-miterlimit:10;stroke-width:15px"/></clipPath><clipPath id="clip-path-11" transform="translate(35.64)"><circle cx="578.43" cy="392.33" r="57.73" style="fill:#97e9ff;stroke:#ea2727;stroke-miterlimit:10;stroke-width:15px"/></clipPath></defs><g style="isolation:isolate"><g id="Layer_2" data-name="Layer 2"><g id="Layer_3" data-name="Layer 3"><g id="Layer_4" data-name="Layer 4"><path d="M479.1,253.41s33-89.75-22.44-117.47-155.74-30.35-208.53,13.2,0,125.38,0,125.38Z" transform="translate(35.64)" style="fill:#ffd522"/><g style="clip-path:url(#clip-path)"><path d="M364.27,112.19S310.16,129.34,293,168.94s77.87,39.59,211.17,31.67l-15.83,58.08L370.87,274.52l-159.7-18.47L217,158.64l64-43Z" transform="translate(35.64)" style="fill:#ffba1f;opacity:0.6000000000000001"/></g><path d="M488.34,162.57c3.15,1.21,9.87,12.48-1,20.2,0,0-153.35,9.83-259,0,0,0-9.27-14.61,1.29-20.2S473.82,157,488.34,162.57Z" transform="translate(35.64)" style="fill:#ea2727"/><g style="clip-path:url(#clip-path-2)"><polygon points="368.23 142.54 422.35 200.61 244.17 195.34 256.05 145.18 368.23 142.54" style="fill:#ce0909"/></g><path d="M377.39,119.61S390.78,28.74,350.6,16.74,281.12,6.6,281.12,6.6V43.91s46.23-3.58,55.44,7.56,14.74,49.28,10.55,68.14C347.11,119.61,368.18,123,377.39,119.61Z" transform="translate(35.64)" style="fill:#ffd522"/><g style="clip-path:url(#clip-path-3)"><path d="M266.61,0S344,22,348.43,52.79c7.92,55.44,19.8,72.59,19.8,72.59l-39.59-14.51L314.12,62,256.05,50.15Z" transform="translate(35.64)" style="fill:#ffba1f;opacity:0.6000000000000001"/></g><path d="M274.52,5.28S257.43,3,256.05,25.08c-1.32,21.11,21.11,21.11,21.11,21.11Z" transform="translate(35.64)" style="fill:#97e9ff"/><path d="M273.05.93c.72-.59,7.4-1.85,12,.19,0,0,5.83,28.83,0,48.69,0,0-8.68,1.74-12-.25S269.74,3.66,273.05.93Z" transform="translate(35.64)" style="fill:#ea2727"/><rect x="735.14" y="399.91" width="30.36" height="9.24" transform="translate(1536.28 809.05) rotate(-180)" style="fill:#a05000"/><path d="M794.54,386.71s52.79-112.19,0-129.34-48.84,85.79-25.08,129.34Z" transform="translate(35.64)" style="fill:#97e9ff"/><g style="clip-path:url(#clip-path-4)"><path d="M818,283.36c-8.94-7.64-21.76-11.86-36.66,3-29,29-11.88,100.31-11.88,100.31h-4L748,329.64l5-55,24-24,29,8,9.82,16.28S826.49,290.6,818,283.36Z" transform="translate(35.64)" style="fill:#79dbf2;opacity:0.48;mix-blend-mode:multiply"/></g><path d="M794.54,418.39s52.79,112.18,0,129.34-48.84-85.79-25.08-129.34Z" transform="translate(35.64)" style="fill:#97e9ff"/><g style="clip-path:url(#clip-path-5)"><path d="M765.5,418.39S759,565.64,819,524.64l-16,25-35,3-15-30-6-49L765.5,425" transform="translate(35.64)" style="fill:#79dbf2;opacity:0.48;mix-blend-mode:multiply"/></g><path d="M761.54,386.71c4.18-3.14,47.51-8.56,47.51,17.16,0,21.46-37.76,25.78-47.51,18.47C756.26,418.39,745.7,398.59,761.54,386.71Z" transform="translate(35.64)" style="fill:#ea2727"/><path d="M741.74,348.81S583.44,208.54,316.92,214.55,6.32,290.7.3,398.91,76.45,591.28,339,591.28,741.74,459,741.74,459Z" transform="translate(35.64)" style="fill:#ffd522"/><g style="clip-path:url(#clip-path-6)"><path d="M34.32,256.05S26.4,393.31,117.46,467.22c78,63.29,391.17,61.74,629.56-29.53,40-15.31,3.3,25.35,3.3,25.35L704,496.64l-113,57-136,41-180,1-197-30-82-100,4-120Z" transform="translate(35.64)" style="fill:#ffba1f;opacity:0.6000000000000001"/><path d="M720.63,491H747V328.64H720.63s-11.88,40.91-10.56,80.51S720.63,491,720.63,491Z" transform="translate(35.64)" style="fill:#ea2727"/><g style="clip-path:url(#clip-path-7)"><polygon points="733.82 386.71 810.37 456.66 785.3 490.98 731.18 479.1 733.82 386.71" style="fill:#ce0909"/></g><path d="M-7,387.64C7.53,394.72,17.55,396,34.32,396c67.06,0,121.42-62.64,121.42-139.9A150.2,150.2,0,0,0,150,214.64c-2-7-30,15-70,36C20.62,281.81-50.58,366.4-7,387.64Z" transform="translate(35.64)" style="fill:#97e9ff"/><g style="clip-path:url(#clip-path-8)"><path d="M34.32,256.05S26.4,393.31,117.46,467.22s502.86,59.39,741.75-83.15L718,525.29,459.3,629.56l-307.52,13.2L-34.32,534.53l-1.32-213.81Z" transform="translate(35.64)" style="fill:#79dbf2;opacity:0.48;mix-blend-mode:multiply"/></g><path d="M-7,387.64C7.53,394.72,17.55,396,34.32,396c67.06,0,121.42-62.64,121.42-139.9A150.2,150.2,0,0,0,150,214.64c-2-7-30,15-70,36C20.62,281.81-50.58,366.4-7,387.64Z" transform="translate(35.64)" style="fill:none;stroke:#ea2727;stroke-miterlimit:10;stroke-width:10px"/></g><circle cx="287.38" cy="392.33" r="57.73" style="fill:#97e9ff"/><g style="clip-path:url(#clip-path-9)"><polygon points="250.11 321.38 317.42 483.72 195.99 449.4 201.27 345.13 250.11 321.38" style="fill:#79dbf2;opacity:0.48;mix-blend-mode:multiply"/></g><circle cx="287.38" cy="392.33" r="57.73" style="fill:none;stroke:#ea2727;stroke-miterlimit:10;stroke-width:15px"/><circle cx="450.72" cy="392.33" r="57.73" style="fill:#97e9ff"/><g style="clip-path:url(#clip-path-10)"><polygon points="393.97 305.54 479.76 471.84 378.13 465.24 366.25 386.05 393.97 305.54" style="fill:#79dbf2;opacity:0.48;mix-blend-mode:multiply"/></g><circle cx="450.72" cy="392.33" r="57.73" style="fill:none;stroke:#ea2727;stroke-miterlimit:10;stroke-width:15px"/><circle cx="614.06" cy="392.33" r="57.73" style="fill:#97e9ff"/><g style="clip-path:url(#clip-path-11)"><polygon points="572.14 312.14 635.5 470.52 544.43 457.32 535.19 321.38 572.14 312.14" style="fill:#79dbf2;opacity:0.48;mix-blend-mode:multiply"/></g><circle cx="614.06" cy="392.33" r="57.73" style="fill:none;stroke:#ea2727;stroke-miterlimit:10;stroke-width:15px"/><path d="M695.55,335.24c-5.28-18.48-201.93-122.75-425-89.75s105.1,25.91,159.7,29C615,285.08,700.83,353.71,695.55,335.24Z" transform="translate(35.64)" style="fill:#fff;opacity:0.41000000000000003"/><path d="M369.55,67.31c10.1,3.37,1.32-43.55-29-48.83C329.79,16.61,352.39,29,356.35,35.64S365.59,66,369.55,67.31Z" transform="translate(35.64)" style="fill:#fff;opacity:0.41000000000000003"/><path d="M447.42,153.1c5.6,3.73,25.08,2.64,9.24-10.56s-47.51-18.48-52.79-18.48,34.31,13.2,38.27,18.48S443.46,150.46,447.42,153.1Z" transform="translate(35.64)" style="fill:#fff;opacity:0.41000000000000003"/></g></g></g></g></svg>