<svg xmlns="http://www.w3.org/2000/svg" xmlns:xlink="http://www.w3.org/1999/xlink" viewBox="0 0 783.26 783.63"><defs><clipPath id="clip-path" transform="translate(0 0.37)"><path d="M430.77,175.56,390,0,351.52,174.86a221.62,221.62,0,0,1,79.25.7Z" style="fill:#ffd522"/></clipPath><clipPath id="clip-path-2" transform="translate(0 0.37)"><path d="M209.11,517.92,113.53,667.37l151.36-94.26A221.15,221.15,0,0,1,209.11,517.92Z" style="fill:#ffd522"/></clipPath><clipPath id="clip-path-3" transform="translate(0 0.37)"><circle cx="389.26" cy="391.63" r="194" style="fill:#ffd522"/></clipPath></defs><g id="Layer_2" data-name="Layer 2"><g id="Layer_3" data-name="Layer 3"><g id="Layer_4" data-name="Layer 4"><path d="M750.85,236.56,572.68,270.13A218.87,218.87,0,0,1,604,343.84Z" transform="translate(0 0.37)" style="fill:#ffd522"/><path d="M605.69,431.24,783.26,390,605.47,350.88a221.24,221.24,0,0,1,.22,80.36Z" transform="translate(0 0.37)" style="fill:#ffd522"/><path d="M755.56,533.72,605.38,432.86a218.65,218.65,0,0,1-29,74.41Z" transform="translate(0 0.37)" style="fill:#ffd522"/><path d="M571.21,267.94l96.16-154.41L514.91,211A221.17,221.17,0,0,1,571.21,267.94Z" transform="translate(0 0.37)" style="fill:#ffd522"/><path d="M430.77,175.56,390,0,351.52,174.86a221.62,221.62,0,0,1,79.25.7Z" transform="translate(0 0.37)" style="fill:#ffd522"/><g style="clip-path:url(#clip-path)"><polygon points="390.63 0 389.26 198 449.26 176 390.63 0" style="fill:#ffba1f;opacity:0.6000000000000001"/></g><path d="M265.88,209.46l-150-95.93L209.8,264.34A221.29,221.29,0,0,1,265.88,209.46Z" transform="translate(0 0.37)" style="fill:#ffd522"/><path d="M248.64,756.83l100-149a218.63,218.63,0,0,1-73.86-28.33Z" transform="translate(0 0.37)" style="fill:#ffd522"/><path d="M30.22,543.46,205.5,512.61a218.69,218.69,0,0,1-30.78-72.09Z" transform="translate(0 0.37)" style="fill:#ffd522"/><path d="M172.83,352,0,390l172.61,40.13a222.26,222.26,0,0,1,.22-78.12Z" transform="translate(0 0.37)" style="fill:#ffd522"/><path d="M546.17,751.2,512.73,573.73a218.94,218.94,0,0,1-72.83,32Z" transform="translate(0 0.37)" style="fill:#ffd522"/><path d="M239.27,30.58l31,176a219,219,0,0,1,73-30.1Z" transform="translate(0 0.37)" style="fill:#ffd522"/><path d="M26.75,246.81,173.59,348A218.67,218.67,0,0,1,202.72,275Z" transform="translate(0 0.37)" style="fill:#ffd522"/><path d="M535.55,28l-102,148.06a218.53,218.53,0,0,1,73.6,29.75Z" transform="translate(0 0.37)" style="fill:#ffd522"/><path d="M515.87,571.56l153.86,95.81-97.87-153A221.3,221.3,0,0,1,515.87,571.56Z" transform="translate(0 0.37)" style="fill:#ffd522"/><path d="M351.52,608.39,390,783.26,430.77,607.7a221.3,221.3,0,0,1-79.25.69Z" transform="translate(0 0.37)" style="fill:#ffd522"/><path d="M209.11,517.92,113.53,667.37l151.36-94.26A221.15,221.15,0,0,1,209.11,517.92Z" transform="translate(0 0.37)" style="fill:#ffd522"/><g style="clip-path:url(#clip-path-2)"><polygon points="108.63 672 239.26 538 284.26 574 141.26 686 108.63 672" style="fill:#ffba1f;opacity:0.6000000000000001"/></g><path d="M605.38,432.86c.1-.54.21-1.08.31-1.62l-2,.47Z" transform="translate(0 0.37)" style="fill:#ffd522"/><polygon points="466.44 280.4 415.06 260.27 364.09 260.19 316.8 280.42 277.27 320.08 259.81 364.64 259.91 420.06 279.82 466.61 318.89 505.54 365.07 523.81 417.86 523.72 467.03 502.88 502.39 467.64 523.36 414.65 523.44 366.28 502.28 316.36 466.44 280.4" style="fill:#ffd522"/><circle cx="389.26" cy="392" r="194" style="fill:#ffd522"/><g style="clip-path:url(#clip-path-3)"><path d="M283.11,206.57s81.15-11.94,179.15,61.06,35,357-239,249c0,0,53,104,166,92s193-89,204-177-30-199-145-243S283.11,206.57,283.11,206.57Z" transform="translate(0 0.37)" style="fill:#ffba1f;opacity:0.6000000000000001"/></g><path d="M750.85,236.56,572.68,270.13A218.87,218.87,0,0,1,604,343.84Z" transform="translate(0 0.37)" style="fill:#ffba1f;opacity:0.6000000000000001"/><path d="M605.69,431.24,783.26,390,605.47,350.88a221.24,221.24,0,0,1,.22,80.36Z" transform="translate(0 0.37)" style="fill:#ffba1f;opacity:0.6000000000000001"/><path d="M755.56,533.72,605.38,432.86a218.65,218.65,0,0,1-29,74.41Z" transform="translate(0 0.37)" style="fill:#ffba1f;opacity:0.6000000000000001"/><path d="M571.21,267.94l96.16-154.41L514.91,211A221.17,221.17,0,0,1,571.21,267.94Z" transform="translate(0 0.37)" style="fill:#ffba1f;opacity:0.6000000000000001"/><path d="M248.64,756.83l100-149a218.63,218.63,0,0,1-73.86-28.33Z" transform="translate(0 0.37)" style="fill:#ffba1f;opacity:0.6000000000000001"/><path d="M546.17,751.2,512.73,573.73a218.94,218.94,0,0,1-72.83,32Z" transform="translate(0 0.37)" style="fill:#ffba1f;opacity:0.6000000000000001"/><path d="M535.55,28l-102,148.06a218.53,218.53,0,0,1,73.6,29.75Z" transform="translate(0 0.37)" style="fill:#ffba1f;opacity:0.6000000000000001"/><path d="M515.87,571.56l153.86,95.81-97.87-153A221.3,221.3,0,0,1,515.87,571.56Z" transform="translate(0 0.37)" style="fill:#ffba1f;opacity:0.6000000000000001"/><path d="M351.52,608.39,390,783.26,430.77,607.7a221.3,221.3,0,0,1-79.25.69Z" transform="translate(0 0.37)" style="fill:#ffba1f;opacity:0.6000000000000001"/></g></g></g></svg>