<svg xmlns="http://www.w3.org/2000/svg" xmlns:xlink="http://www.w3.org/1999/xlink" viewBox="0 0 841.91 463.73"><defs><clipPath id="clip-path" transform="translate(17.4 20.27)"><path d="M154.86,206c-16-6-145-65.54-115.2-135s100.85-34.72,129-54.55,121.51-39.68,119,55.38S154.86,206,154.86,206Z" style="fill:#37c61a"/></clipPath><clipPath id="clip-path-2" transform="translate(17.4 20.27)"><path d="M651.52,288.11s80.32,33.78,133.46,7,45.48,70-44.37,80.1-129.67-76.46-129.67-76.46Z" style="fill:#37c61a"/></clipPath><clipPath id="clip-path-3" transform="translate(17.4 20.27)"><path d="M618.36,315.67S695.62,375,760.69,361.22s29.28,88.65-70.76,74S571.45,315.67,571.45,315.67Z" style="fill:#37c61a"/></clipPath><clipPath id="clip-path-4" transform="translate(17.4 20.27)"><path d="M188.35,202.14s-94.42,24-148.74-14.34-61.9,69.89,35.79,95.93,156-63.07,156-63.07Z" style="fill:#37c61a"/></clipPath><clipPath id="clip-path-5" transform="translate(17.4 20.27)"><path d="M692,289.59c10.19,54.34-196.81,89.17-297.81,66.34-104.88-23.72-259-138-237.46-187.37C183,108.38,321.48-1.2,469.29,32.22S679.41,222.39,692,289.59Z" style="fill:#83c500"/></clipPath></defs><g id="Layer_2" data-name="Layer 2"><g id="turtle"><g id="Layer_4" data-name="Layer 4"><path d="M154.86,206c-16-6-145-65.54-115.2-135s100.85-34.72,129-54.55,121.51-39.68,119,55.38S154.86,206,154.86,206Z" transform="translate(17.4 20.27)" style="fill:#37c61a"/><g style="clip-path:url(#clip-path)"><path d="M156.21,8.22s73.57-21.49,75.22,11.57-105,167-195.9,105l78.53,81L177.7,214l82.66-47.94,56.21-74.39-8.26-69.44L252.1-17.4Z" transform="translate(17.4 20.27)" style="fill:#176800;opacity:0.5"/></g><path d="M651.52,288.11s80.32,33.78,133.46,7,45.48,70-44.37,80.1-129.67-76.46-129.67-76.46Z" transform="translate(17.4 20.27)" style="fill:#37c61a"/><g style="clip-path:url(#clip-path-2)"><path d="M771,293.12s32.89,0,33.83,13.16-21.61,80.8-168.19,14.09l-4.7,14.09,50.74,39.47,92.08,1.88,32.89-10.34,16.91-41.34-4.69-35.71Z" transform="translate(17.4 20.27)" style="fill:#176800;opacity:0.5"/></g><path d="M618.36,315.67S695.62,375,760.69,361.22s29.28,88.65-70.76,74S571.45,315.67,571.45,315.67Z" transform="translate(17.4 20.27)" style="fill:#37c61a"/><g style="clip-path:url(#clip-path-3)"><path d="M769.08,356.08s-.12,18.64-4.7,31c-9.4,25.37-109,36.65-165.38-47.92L580.21,358,615,411.51l57.31,30.07,60.14,1.88,34.77-14.09,28.19-31.95,1.87-35.71-19.73-9.39Z" transform="translate(17.4 20.27)" style="fill:#176800;opacity:0.5"/></g><path d="M188.35,202.14s-94.42,24-148.74-14.34-61.9,69.89,35.79,95.93,156-63.07,156-63.07Z" transform="translate(17.4 20.27)" style="fill:#37c61a"/><g style="clip-path:url(#clip-path-4)"><path d="M127.31,195.4S69.05,337.28-17.4,186.94L.46,254.6l26.31,45.1L116,302.52l77.45-14,22.58-33.9-53.65-49.52Z" transform="translate(17.4 20.27)" style="fill:#176800;opacity:0.5"/></g><path d="M692,289.59c10.19,54.34-196.81,89.17-297.81,66.34-104.88-23.72-259-138-237.46-187.37C183,108.38,321.48-1.2,469.29,32.22S679.41,222.39,692,289.59Z" transform="translate(17.4 20.27)" style="fill:#83c500"/><g style="clip-path:url(#clip-path-5)"><ellipse cx="442.03" cy="151" rx="155.32" ry="331.74" transform="translate(214.66 569.12) rotate(-77.26)" style="fill:#37c61a;stroke:#229e08;stroke-miterlimit:10;stroke-width:6px"/><path d="M192.2,146.93c-10.47-20.7,94.65-103.37,175-91,26,4-22,69-52,102C288.82,186.94,236.2,233.93,192.2,146.93Z" transform="translate(17.4 20.27)" style="fill:#60db42"/><path d="M505.79,91.1s53.51,137.06,42.93,228.16c0,0,119.31,7.78,166.49-42,0,0-39.67-182.09-147.26-222.75S505.79,91.1,505.79,91.1Z" transform="translate(17.4 20.27)" style="fill:#37c61a;stroke:#229e08;stroke-miterlimit:10;stroke-width:6px"/><path d="M420,66s-107.8,107.27-129.8,198.49c-1.35,5.59,158.55,64.43,258.62,55.2,0,0,75.26-72.81-62.06-249.21Z" transform="translate(17.4 20.27)" style="fill:#37c61a;stroke:#229e08;stroke-miterlimit:10;stroke-width:6px"/><path d="M360.5,15s30.21,54.2,49,65,90.09,27.72,101.07,26.12S575.14,73.3,579.83,67s-95.7-53.48-95.7-53.48Z" transform="translate(17.4 20.27)" style="fill:#37c61a;stroke:#229e08;stroke-miterlimit:10;stroke-width:6px"/><path d="M399.54-13.44S505.2,81.93,498.2,205.93s-211.49,137-336.74,6l-6.26,69,252,104,150,3,125-26,49.21-79.64L694.2,139.93,578.74,24.75Z" transform="translate(17.4 20.27)" style="fill:#176800;opacity:0.5"/></g><circle cx="178.57" cy="68.17" r="8.27" style="fill:#232533"/></g></g></g></svg>