<svg xmlns="http://www.w3.org/2000/svg" xmlns:xlink="http://www.w3.org/1999/xlink" viewBox="0 0 623.3 788"><defs><clipPath id="clip-path" transform="translate(15.82)"><path d="M378.91,255h.29c-1.28-129.1,60.07-221.13,60.07-221.13H124.84s62,91.1,61.35,219.15a4.8,4.8,0,0,0-.21,1.34,4.62,4.62,0,0,0,.07.65C77.53,293.81,0,396.21,0,516.45c0,96,49.4,180.61,124.54,230.58a47.37,47.37,0,0,0,5.32,3C145.45,765.17,208,776.5,282.69,776.5c76,0,139.37-11.72,153.59-27.26a46,46,0,0,0,5.47-3.11C516.14,696.05,565,611.86,565,516.45,565,396.21,487.43,293.81,378.91,255Z" style="fill:#ff8b00"/></clipPath></defs><g id="Layer_2" data-name="Layer 2"><g id="Layer_3" data-name="Layer 3"><path d="M378.91,255h.29c-1.28-129.1,60.07-221.13,60.07-221.13H124.84s62,91.1,61.35,219.15a4.8,4.8,0,0,0-.21,1.34,4.62,4.62,0,0,0,.07.65C77.53,293.81,0,396.21,0,516.45c0,96,49.4,180.61,124.54,230.58a47.37,47.37,0,0,0,5.32,3C145.45,765.17,208,776.5,282.69,776.5c76,0,139.37-11.72,153.59-27.26a46,46,0,0,0,5.47-3.11C516.14,696.05,565,611.86,565,516.45,565,396.21,487.43,293.81,378.91,255Z" transform="translate(15.82)" style="fill:#ff8b00"/><g style="clip-path:url(#clip-path)"><polyline points="9 580.94 66.52 546.43 81.86 619.28 150.88 571.99 172.61 643.57 240.35 588.61 268.47 661.46 323.44 595 365.62 666.58 411.63 591.16 461.48 651.24 483.21 565.6 538.17 598.83 536.89 525.98 586.74 546.43" style="fill:none;stroke:#ea2727;stroke-linecap:round;stroke-linejoin:round;stroke-width:18px"/><path d="M-.43,389.21s282.48,177.67,565-1.28" transform="translate(15.82)" style="fill:none;stroke:#ea2727;stroke-miterlimit:10;stroke-width:47px"/><path d="M213.15,21s77,30,90,92-2,158-2,158,119,48,157,217-66,285-236,300l265.33-18.75,120-259-102-190-103-66,45-251Z" transform="translate(15.82)" style="fill:#d85107;opacity:0.35000000000000003"/><ellipse cx="122.66" cy="378.51" rx="39.9" ry="30.37" transform="translate(-232.59 234.89) rotate(-50.88)" style="fill:#fff;opacity:0.45"/><ellipse cx="83.48" cy="447.34" rx="21.5" ry="16.37" transform="translate(-347.35 360.21) rotate(-68.39)" style="fill:#fff;opacity:0.45"/></g><ellipse cx="297.87" cy="33.87" rx="156.58" ry="33.87" style="fill:#d85107"/></g></g></svg>