<svg xmlns="http://www.w3.org/2000/svg" xmlns:xlink="http://www.w3.org/1999/xlink" viewBox="0 0 1299 415.74"><defs><linearGradient id="linear-gradient" x1="311.09" y1="338.14" x2="211.39" y2="195.76" gradientUnits="userSpaceOnUse"><stop offset="0.59" stop-color="#fff"/><stop offset="0.99" stop-color="#fff" stop-opacity="0"/></linearGradient><clipPath id="clip-path"><polygon points="142 320 137.5 309.5 137.5 247.5 225.5 189.5 269.5 177.5 301.5 177.5 365.5 192.5 365.5 241.5 338 320 142 320" style="fill:#b7bfd1"/></clipPath><linearGradient id="linear-gradient-2" x1="30.19" y1="139.48" x2="110.99" y2="300.14" gradientUnits="userSpaceOnUse"><stop offset="0" stop-color="#fff" stop-opacity="0"/><stop offset="0.04" stop-color="#fff" stop-opacity="0.11"/><stop offset="0.15" stop-color="#fff" stop-opacity="0.34"/><stop offset="0.25" stop-color="#fff" stop-opacity="0.54"/><stop offset="0.35" stop-color="#fff" stop-opacity="0.71"/><stop offset="0.45" stop-color="#fff" stop-opacity="0.84"/><stop offset="0.54" stop-color="#fff" stop-opacity="0.93"/><stop offset="0.63" stop-color="#fff" stop-opacity="0.98"/><stop offset="0.7" stop-color="#fff"/></linearGradient><clipPath id="clip-path-2"><polygon points="99.94 110.17 6.54 152.63 7 198 7 320 58 320 142 320 167.87 186.59 99.94 110.17" style="fill:#99a3af"/></clipPath><linearGradient id="linear-gradient-3" x1="1167.78" y1="79.78" x2="1161.33" y2="220.73" gradientUnits="userSpaceOnUse"><stop offset="0.01" stop-color="#fff" stop-opacity="0"/><stop offset="1" stop-color="#fff"/></linearGradient><clipPath id="clip-path-3"><polygon points="1036.39 76.87 1155.71 63.61 1298 135 1298 231 1298 320 1018 320 1018.71 251.43 1036.39 209.45 1069.53 200.61 1036.39 112.22 1036.39 76.87" style="fill:#a6b2bf"/></clipPath><linearGradient id="linear-gradient-4" x1="130.57" y1="43.46" x2="176.32" y2="281.05" gradientUnits="userSpaceOnUse"><stop offset="0.01" stop-color="#fff" stop-opacity="0"/><stop offset="0.51" stop-color="#fff"/></linearGradient><clipPath id="clip-path-4"><polygon points="247.34 47 148.88 55.83 80.95 52.67 35.19 80 32.04 151.33 66.18 202.16 142.7 232.46 274 168.76 246.83 109.33 247.34 47" style="fill:#a6b2bf"/></clipPath><clipPath id="clip-path-5" transform="translate(0 37.26)"><polygon points="113 239 183 95 199 76 267 54 318 73 400 274 246 316 113 239" style="fill:#afbbc8"/></clipPath><clipPath id="clip-path-6" transform="translate(0 37.26)"><polygon points="99.94 110.17 6.54 152.63 7 201 7 320 55 320 142 320 167.87 186.59 99.94 110.17" style="opacity:0.6000000000000001;fill:url(#linear-gradient-2);clip-path:url(#clip-path-2)"/></clipPath><clipPath id="clip-path-7" transform="translate(0 37.26)"><path d="M178.06,196.78c-1.7,1.7-125.67,45.85-125.67,45.85l5.1,135.85,100.19-45.85Z" style="fill:#4c5865"/></clipPath><clipPath id="clip-path-8" transform="translate(0 37.26)"><polygon points="247.34 47 148.88 55.83 80.95 52.67 35.19 80 32.04 151.33 66.18 202.16 142.7 232.46 274 168.76 246.83 109.33 247.34 47" style="opacity:0.6000000000000001;fill:url(#linear-gradient-4);clip-path:url(#clip-path-4)"/></clipPath><clipPath id="clip-path-9" transform="translate(0 37.26)"><polygon points="168.75 267.85 345 1 435 0 443.23 16.05 445 320 157 320 168.75 267.85" style="fill:#4c5865"/></clipPath><linearGradient id="linear-gradient-7" x1="321.95" y1="32.01" x2="411.08" y2="113.99" xlink:href="#linear-gradient-3"/><clipPath id="clip-path-10" transform="translate(0 37.26)"><path d="M190.15,178.15s8.52-85,41-99.33c0,0-16.87,2.63-33.94,102.9Z" style="fill:#2c7a04"/></clipPath><clipPath id="clip-path-11" transform="translate(0 37.26)"><path d="M147.3,211.26s26.61-14.92,44.48,26.87l-12.93.54S173.93,211.32,147.3,211.26Z" style="fill:#247900"/></clipPath><clipPath id="clip-path-12" transform="translate(0 37.26)"><path d="M182.64,140.54s19.54,5.23,19.34,42.56c0,0-14.15,37.85-13.07,56.39l-15.42-2.08s11.48-41,7.79-59.28S182.64,140.54,182.64,140.54Z" style="fill:#738700"/></clipPath><clipPath id="clip-path-13" transform="translate(0 37.26)"><path d="M180,135s10,16,11,49-4,39-4,39l-12.62,4.87.68-8.15L180,187l-3-23Z" style="fill:#81a000"/></clipPath><clipPath id="clip-path-14" transform="translate(0 37.26)"><path d="M185.81,216.84s10.74-39,30.45-43.78,17.76,0,17.76,0-29,25-33.44,29.4-10.14,8.68-12.14,31.23L183,227.85Z" style="fill:#205e00"/></clipPath><clipPath id="clip-path-15" transform="translate(0 37.26)"><path d="M118.08,186.53s13.61-5.41,29.63,16.37c0,0,8.14,28.12,16.78,38.43l-9.86,5.45s-11-28.78-21.1-37.81S118.08,186.53,118.08,186.53Z" style="fill:#379107"/></clipPath><clipPath id="clip-path-16" transform="translate(0 37.26)"><path d="M152.9,229.51s-10.63-27.33-1.23-38.61S162,183.25,162,183.25s-5.63,21.18-6.3,25.68-2,11.91,5,26.61l-4.66,1.6Z" style="fill:#216800"/></clipPath><clipPath id="clip-path-17" transform="translate(0 37.26)"><polygon points="142 320 137.5 309.5 137.5 247.5 225.5 189.5 269.5 177.5 301.5 177.5 365.5 192.5 365.5 241.5 337 320 142 320" style="opacity:0.6000000000000001;fill:url(#linear-gradient);clip-path:url(#clip-path)"/></clipPath><clipPath id="clip-path-18" transform="translate(0 37.26)"><polygon points="299.5 232.5 265.5 230.5 247.5 245.5 205.5 262.5 204 320 283 320 301.5 283.5 299.5 232.5" style="fill:#828e9b"/></clipPath><clipPath id="clip-path-19" transform="translate(0 37.26)"><polygon points="930 0 895 0 799 0 803 51 802 114 804 203 825 240 967 228 953 73 943 68 930 0" style="fill:#4c5865"/></clipPath><clipPath id="clip-path-20" transform="translate(0 37.26)"><path d="M928.5-23.5c-1,0-3,96-3,96l-11,75-19,30v64l-82,9-19-56,6-130S800-2,801-2s97.5-21.5,97.5-21.5Z" style="fill:#848c97"/></clipPath><linearGradient id="linear-gradient-9" x1="836" y1="170.57" x2="874.81" y2="239.23" gradientUnits="userSpaceOnUse"><stop offset="0" stop-color="#fff" stop-opacity="0"/><stop offset="0.12" stop-color="#fff" stop-opacity="0.14"/><stop offset="0.45" stop-color="#fff" stop-opacity="0.5"/><stop offset="0.71" stop-color="#fff" stop-opacity="0.77"/><stop offset="0.9" stop-color="#fff" stop-opacity="0.94"/><stop offset="1" stop-color="#fff"/></linearGradient><linearGradient id="linear-gradient-11" x1="862.5" y1="27.5" x2="887.36" y2="93.55" gradientUnits="userSpaceOnUse"><stop offset="0.01" stop-color="#fff" stop-opacity="0"/><stop offset="0.13" stop-color="#fff" stop-opacity="0.14"/><stop offset="0.45" stop-color="#fff" stop-opacity="0.5"/><stop offset="0.71" stop-color="#fff" stop-opacity="0.77"/><stop offset="0.9" stop-color="#fff" stop-opacity="0.94"/><stop offset="1" stop-color="#fff"/></linearGradient><clipPath id="clip-path-21" transform="translate(0 37.26)"><polygon points="1046.5 111.5 995.5 111.5 950.5 131.5 891.5 208.5 896.5 292.5 958.5 319.5 1089.5 319.5 1084.5 188.5 1063.5 170.5 1063.5 160.5 1046.5 111.5" style="fill:#99a3af"/></clipPath><linearGradient id="linear-gradient-12" x1="999.35" y1="163.45" x2="989.18" y2="218.13" xlink:href="#linear-gradient-11"/><clipPath id="clip-path-22" transform="translate(0 37.26)"><polygon points="1036.39 76.87 1155.71 63.61 1298 135 1298 320 1017 320 1018.71 251.43 1036.39 209.45 1069.53 200.61 1036.39 112.22 1036.39 76.87" style="opacity:0.6000000000000001;fill:url(#linear-gradient-3);clip-path:url(#clip-path-3)"/></clipPath><linearGradient id="linear-gradient-14" x1="1114.81" y1="259.41" x2="1088.14" y2="347.93" gradientUnits="userSpaceOnUse"><stop offset="0" stop-color="#fff" stop-opacity="0"/><stop offset="1" stop-color="#fff"/></linearGradient><clipPath id="clip-path-23" transform="translate(0 37.26)"><polygon points="1065.11 83.5 1065.11 52.56 1122.56 15 1173.39 17.21 1177.81 32.68 1191.06 32.68 1210.95 52.56 1203.86 88.92 1124.77 101.18 1065.11 83.5" style="fill:#525e6b"/></clipPath><linearGradient id="linear-gradient-15" x1="1147.88" y1="50.61" x2="1136.78" y2="109.7" xlink:href="#linear-gradient-11"/><clipPath id="clip-path-24" transform="translate(0 37.26)"><path d="M1007.72,254.13s18.83-45.49,43.34-48.25,21.41,2.72,21.41,2.72-38.74,25.76-44.78,30.44-13.54,8.94-19.35,35.84L1002.6,267Z" style="fill:#216800"/></clipPath><clipPath id="clip-path-25" transform="translate(0 37.26)"><path d="M993.25,254.9c-1.47-.4,13-47.1-4-83.42,0,0,29.44,8.09,12.67,92.14Z" style="fill:#216800"/></clipPath><clipPath id="clip-path-26" transform="translate(0 37.26)"><path d="M1018.79,208.09s23.09-101.3,64.49-113.67c0,0-20.76.63-56.47,119Z" style="fill:#216800"/></clipPath><clipPath id="clip-path-27" transform="translate(0 37.26)"><path d="M962.09,241.58s34.35-14,49.61,39.13L996,279.41S994.21,245.66,962.09,241.58Z" style="fill:#247900"/></clipPath><clipPath id="clip-path-28" transform="translate(0 37.26)"><path d="M1001.58,280.52,1018.5,284s8.35-24.61,33.78-19.21C1052.28,264.79,1042.56,239.12,1001.58,280.52Z" style="fill:#216800"/></clipPath><clipPath id="clip-path-29" transform="translate(0 37.26)"><path d="M1015.39,161.58s22.79,9.25,16.92,54.26c0,0-22.78,43.54-24.27,66.08l-18.29-4.84s20-47.72,18.33-70.35S1015.39,161.58,1015.39,161.58Z" style="fill:#738700"/></clipPath><clipPath id="clip-path-30" transform="translate(0 37.26)"><path d="M946,274s-7-39-17-41-9,29-9,29-9-22,4-33,23,24,25,30,3,15,3,15Z" style="fill:#205e00"/></clipPath><clipPath id="clip-path-31" transform="translate(0 37.26)"><path d="M958.5,256.5s4-32,19-38,14-2,14-2-20,23-23,27-7,8-6,26l-5-4Z" style="fill:#216800"/></clipPath><clipPath id="clip-path-32" transform="translate(0 37.26)"><path d="M949.5,259.5c-1,0,0-32-17-52,0,0,20,0,24,56Z" style="fill:#216800"/></clipPath><clipPath id="clip-path-33" transform="translate(0 37.26)"><path d="M947.28,196.71s16,1.89,20.11,31.34c0,0-6.83,31.45-3.86,45.95l-12.39.12s4.36-33.62-.64-47.62S947.28,196.71,947.28,196.71Z" style="fill:#738700"/></clipPath><clipPath id="clip-path-34" transform="translate(0 37.26)"><polygon points="803.5 177.5 766.5 195.5 761.5 213.5 751.5 217.5 742.5 245.5 762.5 282.5 799.5 289.5 814.5 301.5 840.5 301.5 872.5 290.5 897.5 292.5 892.5 208.5 803.5 177.5" style="fill:#848c97"/></clipPath><clipPath id="clip-path-35" transform="translate(0 37.26)"><polygon points="807 320 819 287 879 263 988 258 1025 288 1029 320 807 320" style="fill:#848c97"/></clipPath><linearGradient id="linear-gradient-16" x1="946.31" y1="275.24" x2="900.21" y2="358.52" xlink:href="#linear-gradient-3"/><clipPath id="clip-path-36" transform="translate(0 37.26)"><rect x="435" width="368" height="272" style="fill:#cee4f2"/></clipPath><linearGradient id="linear-gradient-17" x1="619" y1="309.26" x2="619" y2="37.26" gradientUnits="userSpaceOnUse"><stop offset="0" stop-color="#fff"/><stop offset="1" stop-color="#fff" stop-opacity="0"/></linearGradient><clipPath id="clip-path-37" transform="translate(0 37.26)"><path d="M806.5,256a37.39,37.39,0,0,0-17.42,4.29A50.5,50.5,0,0,0,716,202.35,77,77,0,0,0,562,203c0,8.13-24.54,117-5,117H833c9.4,0,11-16.36,11-26.5A37.5,37.5,0,0,0,806.5,256Z" style="fill:#e2eff7"/></clipPath><clipPath id="clip-path-38" transform="translate(0 37.26)"><path d="M637.34,320a48,48,0,0,0-62-68.83A65,65,0,1,0,446,242c0,.51,0,1,0,1.52A48,48,0,0,0,392.23,320Z" style="fill:#e2eff7"/></clipPath><clipPath id="clip-path-39" transform="translate(0 37.26)"><path d="M83.44,300.62S76.77,250,97.34,234.81,118,226.14,118,226.14s-21.43,43.24-24.43,50.57S86,291.76,94.77,318.94l-9.26-4.13Z" style="fill:#216800"/></clipPath><clipPath id="clip-path-40" transform="translate(0 37.26)"><path d="M70.86,308.82c-1.53.4-12.81-49-46.85-72.85,0,0,30.63-8,59.17,76.18Z" style="fill:#216800"/></clipPath><clipPath id="clip-path-41" transform="translate(0 37.26)"><path d="M69.51,253.54S37.7,150.57,68.46,118c0,0-18.31,11.33,11,136.21Z" style="fill:#216800"/></clipPath><clipPath id="clip-path-42" transform="translate(0 37.26)"><path d="M36,313s22.54-29,62.09,6.81c0,.16-21,.16-20.74,0C68.82,312.66,54.52,305.24,36,313Z" style="fill:#247900"/></clipPath><clipPath id="clip-path-43" transform="translate(0 37.26)"><path d="M108.37,320c-.64-6.2-.85-25.89,20.63-32.87,0,0-20-16.35-35.15,32.6C94,320,108,320,108.37,320Z" style="fill:#216800"/></clipPath><clipPath id="clip-path-44" transform="translate(0 37.26)"><path d="M42.33,213.52s25.26-3.51,43.35,40c0,0,1.81,43.29,10.2,66.52.12,0-17.88,0-18.21.17-2.7-16.49-8.89-48.24-18.49-62.3C45.92,238.42,42.33,213.52,42.33,213.52Z" style="fill:#81a000"/></clipPath><clipPath id="clip-path-45" transform="translate(0 37.26)"><path d="M1211.38,298.62s17.39-48,42.65-52,22.31,1.81,22.31,1.81-38.93,28.51-45,33.64-13.61,9.9-18.37,38l-6.32-7.93Z" style="fill:#216800"/></clipPath><clipPath id="clip-path-46" transform="translate(0 37.26)"><path d="M1196.43,300.1c-1.54-.35,11.21-49.41-8-86.25,0,0,30.88,7,17.44,94.87Z" style="fill:#216800"/></clipPath><clipPath id="clip-path-47" transform="translate(0 37.26)"><path d="M1220.69,250.4s19.19-106,61.5-120.8c0,0-21.47,1.62-52.93,126Z" style="fill:#216800"/></clipPath><clipPath id="clip-path-48" transform="translate(0 37.26)"><path d="M1163.52,287.76S1194.7,265.68,1213,320h-14S1197,290.48,1163.52,287.76Z" style="fill:#247900"/></clipPath><clipPath id="clip-path-49" transform="translate(0 37.26)"><path d="M1211,320h16s7-11,31-12.42C1258.05,307.58,1251.53,275.19,1211,320Z" style="fill:#216800"/></clipPath><clipPath id="clip-path-50" transform="translate(0 37.26)"><path d="M1215,202.37s24,8.51,20.08,55.43c0,0-16.07,39.2-22.07,62.2h-18s17.35-47.14,14.54-70.51S1215,202.37,1215,202.37Z" style="fill:#216800"/></clipPath><clipPath id="clip-path-51" transform="translate(0 37.26)"><path d="M1144,320s3-41,1-55-8-59-41-60c0,0-4.5,20.5,5.5,35.5s26.56,33.05,32.28,79Z" style="fill:#216800"/></clipPath><clipPath id="clip-path-52" transform="translate(0 37.26)"><path d="M1200.5,250.5s-18-17-38,0-20.12,69.7-20.12,69.7l4.19-.3s9.93-26.4,19.93-36.4,25-16,30-21S1200.5,250.5,1200.5,250.5Z" style="fill:#216800"/></clipPath><clipPath id="clip-path-53" transform="translate(0 37.26)"><path d="M1198.5,299.5s0,14-10,16-33-10-37,5l-6.42.15s2.42-12.15,11.42-16.15S1183.5,288.5,1198.5,299.5Z" style="fill:#738700"/></clipPath><clipPath id="clip-path-54" transform="translate(0 37.26)"><path d="M1139.08,320.5s-3.59-23.77-20.09-27.88-16.49-18.12-2.49-20.12,31,17,27.5,47.5Z" style="fill:#81a000"/></clipPath><clipPath id="clip-path-55" transform="translate(0 37.26)"><path d="M28.17,147s1.62-22.21.54-29.79S24.38,85.25,6.5,84.7c0,0-2.44,11.11,3,19.23S23.87,121.83,27,146.74Z" style="fill:#216800"/></clipPath><clipPath id="clip-path-56" transform="translate(0 37.26)"><path d="M58.78,109.35s-9.76-9.21-20.59,0-10.9,37.76-10.9,37.76l2.27-.17s5.38-14.3,10.8-19.71,13.54-8.67,16.25-11.38A8.28,8.28,0,0,0,58.78,109.35Z" style="fill:#216800"/></clipPath><clipPath id="clip-path-57" transform="translate(0 37.26)"><path d="M57.69,135.89s0,7.59-5.42,8.67-17.87-5.41-20,2.71l-3.48.08s1.31-6.58,6.19-8.75S49.57,129.94,57.69,135.89Z" style="fill:#81a000"/></clipPath><clipPath id="clip-path-58" transform="translate(0 37.26)"><path d="M25.5,147.27s-1.94-12.87-10.88-15.1-8.93-9.82-1.35-10.9,16.79,9.21,14.9,25.73Z" style="fill:#738700"/></clipPath></defs><g id="Layer_2" data-name="Layer 2"><g id="Layer_30" data-name="Layer 30"><rect x="8" y="38.26" width="1290" height="319" style="fill:#83e8ff"/><path d="M963,173c3-2,335-74,335-74V321l-318-2Z" transform="translate(0 37.26)" style="fill:#4c5865"/><polygon points="926 38.26 1299 38.26 1297.79 101.71 897 138.26 926 38.26" style="fill:#e1f8f9"/><polygon points="1297 85.26 944 118.26 936 189.26 1031 213.26 1298.63 149.59 1297 85.26" style="fill:#74bc2f"/><rect x="6" y="37.26" width="441" height="118" style="fill:#e1f8f9"/><polygon points="7.36 123.55 197.23 159.68 191 356.26 7 357.26 7.36 123.55" style="fill:#4c5865"/><polygon points="7 73.26 232 119.26 179 177.26 7 145.26 7 73.26" style="fill:#74bc2f"/><polygon points="113 276.26 183 132.26 199 113.26 267 91.26 318 110.26 400 311.26 246 353.26 113 276.26" style="fill:#afbbc8"/><g style="clip-path:url(#clip-path-5)"><polygon points="179.5 129.76 235.5 142.76 247.5 372.76 99.5 278.76 179.5 129.76" style="fill:#828e9b"/><polygon points="320.5 109.76 235.5 142.76 247.22 371.09 413.5 312.76 320.5 109.76" style="fill:#4c5865"/></g><polygon points="99.94 147.43 6.54 189.89 7 235.26 7 357.26 58 357.26 142 357.26 167.87 223.85 99.94 147.43" style="fill:#99a3af"/><polygon points="99.94 147.43 6.54 189.89 7 238.26 7 357.26 55 357.26 142 357.26 167.87 223.85 99.94 147.43" style="opacity:0.6000000000000001;fill:url(#linear-gradient-2)"/><g style="clip-path:url(#clip-path-6)"><polygon points="7 238.26 52.39 279.89 55 357.26 8 357.26 7 238.26" style="fill:#5c6b7a"/><path d="M178.06,196.78c-1.7,1.7-125.67,45.85-125.67,45.85l5.1,135.85,100.19-45.85Z" transform="translate(0 37.26)" style="fill:#4c5865"/><g style="clip-path:url(#clip-path-7)"><path d="M70,238s15,12,22,27,17-4,17-4l10-13s-10,29-11,43-2.06,22.24-2.06,22.24L124,299s-12,16-9,28l-27,7L64.84,245.12Z" transform="translate(0 37.26)" style="fill:#3d4a56"/></g></g><polygon points="247.34 84.26 148.88 93.09 80.95 89.92 35.19 117.25 32.04 188.59 66.18 239.41 142.7 269.72 274 206.02 246.83 146.58 247.34 84.26" style="fill:#a6b2bf"/><polygon points="247.34 84.26 148.88 93.09 80.95 89.92 35.19 117.25 32.04 188.59 66.18 239.41 142.7 269.72 274 206.02 246.83 146.58 247.34 84.26" style="opacity:0.6000000000000001;fill:url(#linear-gradient-4)"/><g style="clip-path:url(#clip-path-8)"><polygon points="33.46 108.77 60.81 161.32 134 208.61 142.73 279.9 54.3 241.15 20.14 183.53 33.46 108.77" style="fill:#848c97"/><polygon points="134 208.61 223.82 155.66 227.5 238.86 142.02 272.21 134 208.61" style="fill:#4c5865"/><polygon points="247.34 82.56 223.82 155.66 228 245.26 289 226.26 272.3 173.75 247.34 82.56" style="fill:#3e4b56"/></g><polygon points="168.75 305.11 345 38.26 435 37.26 443.23 53.31 445 357.26 157 357.26 168.75 305.11" style="fill:#4c5865"/><g style="clip-path:url(#clip-path-9)"><polygon points="385.95 82.23 406 356.26 329 356.26 385.95 82.23" style="fill:#848c97"/><polygon points="295.78 91.87 385.39 85.07 437.56 13.61 429.62 2.27 394.46 0 340.02 30.62 295.78 91.87" style="fill:#afbbc8"/><polygon points="299.42 91.31 385.39 85.07 338 357.26 157 357.26 164.21 299.44 299.42 91.31" style="fill:#a6b2bf"/><polygon points="295.78 91.87 385.39 85.07 420 38.26 345 38.26 295.78 91.87" style="opacity:0.6000000000000001;fill:url(#linear-gradient-7)"/></g><polygon points="115 196.26 139 205.26 135 213.26 115 196.26" style="fill:#f5fcff"/><path d="M167.13,236.33s-1.67-49.71-13.73-54S137,216.74,137,216.74s-7.22-29,10.92-40.27,24.25,33.95,25.65,41.77,1,19.17,1,19.17Z" transform="translate(0 37.26)" style="fill:#205e00"/><path d="M174.09,219c-1.24-.18,5.77-39.75-11.75-67.66,0,0,24.84,3.6,19.73,73.89Z" transform="translate(0 37.26)" style="fill:#205e00"/><path d="M190.15,178.15s8.52-85,41-99.33c0,0-16.87,2.63-33.94,102.9Z" transform="translate(0 37.26)" style="fill:#2c7a04"/><g style="clip-path:url(#clip-path-10)"><path d="M194,146s7,8,10,17l-4.46,7.48-3.27-9.8L191,152Z" transform="translate(0 37.26)" style="fill:#2b7003"/></g><path d="M188.59,162.7s3.08-30-13.58-46.36c0,0,12.55,27.19,8.25,48.13Z" transform="translate(0 37.26)" style="fill:#216800"/><path d="M186.84,236c.18-1.24,16.08-49.68,44.85-55.65,0,0-28.63,22.48-38.82,57.79Z" transform="translate(0 37.26)" style="fill:#247900"/><path d="M147.3,211.26s26.61-14.92,44.48,26.87l-12.93.54S173.93,211.32,147.3,211.26Z" transform="translate(0 37.26)" style="fill:#247900"/><g style="clip-path:url(#clip-path-11)"><polygon points="163 245.26 163 254.26 154 250.26 154 244.26 163 245.26" style="fill:#236d00"/></g><path d="M183.49,239l14.17,1.12s4.3-20.94,25.6-19.13C223.26,221,212.72,201.05,183.49,239Z" transform="translate(0 37.26)" style="fill:#216800"/><path d="M182.64,140.54s19.54,5.23,19.34,42.56c0,0-14.15,37.85-13.07,56.39l-15.42-2.08s11.48-41,7.79-59.28S182.64,140.54,182.64,140.54Z" transform="translate(0 37.26)" style="fill:#738700"/><g style="clip-path:url(#clip-path-12)"><path d="M180,135s10,16,11,49-4,39-4,39l-12.62,4.87.68-8.15L180,187l-3-23Z" transform="translate(0 37.26)" style="fill:#81a000"/><g style="clip-path:url(#clip-path-13)"><path d="M193,185s-4.52,22.71-19.26,36.85l3.8,4.61,13.82-8.81L197,194Z" transform="translate(0 37.26)" style="fill:#449e0a"/></g></g><path d="M185.81,216.84s10.74-39,30.45-43.78,17.76,0,17.76,0-29,25-33.44,29.4-10.14,8.68-12.14,31.23L183,227.85Z" transform="translate(0 37.26)" style="fill:#205e00"/><g style="clip-path:url(#clip-path-14)"><path d="M239.56,171.14C239,171,195,183.43,186.5,221.22l13.33-11.95,25.49-17.69Z" transform="translate(0 37.26)" style="fill:#1e5100"/></g><path d="M150.47,248.91S128,220.74,119.14,223.46s5.34,27.09,5.34,27.09-16.71-13.71-11.06-28.13,28.77,9.26,33,13.19a82.55,82.55,0,0,1,8.88,10.7Z" transform="translate(0 37.26)" style="fill:#738700"/><path d="M147,235.8c-.8.43-13.84-25.6-36.08-34.25,0,0,16-8.65,43.41,34.42Z" transform="translate(0 37.26)" style="fill:#216800"/><path d="M138.7,205.14s-31.79-53.09-19.08-75.47c0,0-8.67,8.82,24.74,74.48Z" transform="translate(0 37.26)" style="fill:#216800"/><path d="M131.11,196.84s-11.17-18.77-27.93-21.08c0,0,19,10.38,25.6,24.41Z" transform="translate(0 37.26)" style="fill:#216800"/><path d="M161.78,240.21c-.43-.8-12.12-35.82,2-51.73,0,0-6.92,25.44,2.41,50.37Z" transform="translate(0 37.26)" style="fill:#379107"/><path d="M128.1,242.91s9-20.17,37.47-3.61l-7.29,5.9S143.6,231.43,128.1,242.91Z" transform="translate(0 37.26)" style="fill:#247900"/><path d="M161.13,243.39l8.72-5.47s-6.55-14,6.61-22.18C176.46,215.74,161.71,208.7,161.13,243.39Z" transform="translate(0 37.26)" style="fill:#216800"/><path d="M118.08,186.53s13.61-5.41,29.63,16.37c0,0,8.14,28.12,16.78,38.43l-9.86,5.45s-11-28.78-21.1-37.81S118.08,186.53,118.08,186.53Z" transform="translate(0 37.26)" style="fill:#379107"/><g style="clip-path:url(#clip-path-15)"><path d="M113.44,185.94s12.12-1.13,28.41,21.46,12.47,35.19,12.47,35.19l-5.86-4.32-9.61-18.7-13.54-16.08-7.89-10.33Z" transform="translate(0 37.26)" style="fill:#49aa0f"/></g><path d="M152.9,229.51s-10.63-27.33-1.23-38.61S162,183.25,162,183.25s-5.63,21.18-6.3,25.68-2,11.91,5,26.61l-4.66,1.6Z" transform="translate(0 37.26)" style="fill:#216800"/><g style="clip-path:url(#clip-path-16)"><path d="M164.09,181.89s-10.76,9.21-11.94,22.88,3.61,27.93,3.61,27.93L154.33,236l-5.75-14.83-2.91-18.88,3.25-11.2,6.92-9.06Z" transform="translate(0 37.26)" style="fill:#287003"/></g><polygon points="142 357.26 137.5 346.76 137.5 284.76 225.5 226.76 269.5 214.76 301.5 214.76 365.5 229.76 365.5 278.76 338 357.26 142 357.26" style="fill:#b7bfd1"/><polygon points="142 357.26 137.5 346.76 137.5 284.76 225.5 226.76 269.5 214.76 301.5 214.76 365.5 229.76 365.5 278.76 337 357.26 142 357.26" style="opacity:0.6000000000000001;fill:url(#linear-gradient)"/><g style="clip-path:url(#clip-path-17)"><polygon points="127.5 283.76 205.5 299.76 205 357.26 131 357.26 127.5 283.76" style="fill:#a6b2bf"/></g><polygon points="299.5 269.76 265.5 267.76 247.5 282.76 205.5 299.76 204 357.26 283 357.26 301.5 320.76 299.5 269.76" style="fill:#828e9b"/><g style="clip-path:url(#clip-path-18)"><polygon points="245.5 279.76 274.5 330.76 271.5 264.76 263.5 265.76 245.5 279.76" style="fill:#738291"/><polygon points="264.5 261.76 272.09 326.49 270 357.26 284 357.26 284.5 323.76 304.5 271.76 301.5 265.76 264.5 261.76" style="fill:#525e6b"/></g><polygon points="301.5 265.76 279.5 325.76 279 357.26 289 356.26 305.5 320.76 301.5 265.76" style="fill:#b0aaa3"/><polygon points="366 230.26 348.5 243.76 299.5 269.76 279.5 325.76 278 357.26 348 357.26 373.5 273.76 366 230.26" style="fill:#4c5865"/><polygon points="930 37.26 895 37.26 799 37.26 803 88.26 802 151.26 804 240.26 825 277.26 967 265.26 953 110.26 943 105.26 930 37.26" style="fill:#4c5865"/><g style="clip-path:url(#clip-path-19)"><path d="M928.5-23.5c-1,0-3,96-3,96l-11,75-19,30v64l-82,9-19-56,6-130S800-2,801-2s97.5-21.5,97.5-21.5Z" transform="translate(0 37.26)" style="fill:#848c97"/><g style="clip-path:url(#clip-path-20)"><polygon points="914.5 184.76 792.5 200.76 790.5 214.76 903.5 214.76 914.5 184.76" style="fill:#a6b2bf"/><polygon points="914.5 184.76 792.5 200.76 790.5 214.76 903.5 214.76 914.5 184.76" style="opacity:0.6000000000000001;fill:url(#linear-gradient-9)"/><polygon points="914.5 184.76 792.5 200.76 790.5 214.76 903.5 214.76 914.5 184.76" style="opacity:0.6000000000000001;fill:url(#linear-gradient-9)"/></g><path d="M801,70l124.5-8.5s9-89,8-89-36.44,8.89-36.44,8.89L851,32,798,54Z" transform="translate(0 37.26)" style="fill:#a6b2bf"/><path d="M801,70l124.5-8.5S931,1,930,1H879L851,32,798,54Z" transform="translate(0 37.26)" style="opacity:0.6000000000000001;fill:url(#linear-gradient-11)"/></g><polygon points="1046.5 148.76 995.5 148.76 950.5 168.76 891.5 245.76 896.5 329.76 958.5 356.76 1089.5 356.76 1084.5 225.76 1063.5 207.76 1063.5 197.76 1046.5 148.76" style="fill:#99a3af"/><g style="clip-path:url(#clip-path-21)"><polygon points="1047.5 145.76 1042.5 160.76 1025.5 174.76 1002.5 212.76 1000.5 270.76 945.5 316.76 958.5 359.76 1100.5 359.76 1093.5 223.76 1070.5 203.76 1047.5 145.76" style="fill:#4c5865"/><polygon points="1002.5 212.76 951.5 205.76 950.5 168.76 977.5 152.76 998.5 144.76 1050.5 145.76 1042.5 160.76 1025.5 174.76 1002.5 212.76" style="fill:#a6b2bf"/><polygon points="1002.5 212.76 951.5 205.76 950.5 168.76 977.5 152.76 998.5 144.76 1050.5 145.76 1042.5 160.76 1025.5 174.76 1002.5 212.76" style="opacity:0.6000000000000001;fill:url(#linear-gradient-12)"/><polygon points="891.5 245.76 951.5 205.76 950.5 168.76 946.5 163.76 888.5 240.76 891.5 245.76" style="fill:#828e9b"/></g><polygon points="1036.39 114.13 1155.71 100.87 1298 172.26 1298 268.26 1298 357.26 1018 357.26 1018.71 288.69 1036.39 246.71 1069.53 237.87 1036.39 149.48 1036.39 114.13" style="fill:#a6b2bf"/><polygon points="1036.39 114.13 1155.71 100.87 1298 172.26 1298 357.26 1017 357.26 1018.71 288.69 1036.39 246.71 1069.53 237.87 1036.39 149.48 1036.39 114.13" style="opacity:0.6000000000000001;fill:url(#linear-gradient-3)"/><g style="clip-path:url(#clip-path-22)"><polygon points="1035.28 236.76 1099.36 329.57 1097.15 364.93 1002.14 367.13 1013.19 287.59 1035.28 236.76" style="fill:#848c97"/><polyline points="1176.7 329.57 1189.96 360.51 1071.13 360.51 1083.89 333.99 1176.7 329.57" style="fill:#4c5865"/></g><polygon points="1036.39 114.13 1135.82 171.58 1156.81 327.36 1092.73 329.57 1056.27 233.45 1027.55 153.9 1036.39 114.13" style="fill:#848c97"/><polygon points="1135.82 171.58 1184.43 173.79 1154.93 312.76 1135.82 171.58" style="fill:#4c5865"/><polygon points="1184.43 173.79 1248.52 226.82 1190 357.26 1176.7 329.57 1154.6 311.89 1184.43 173.79" style="fill:#848c97"/><polygon points="1248.52 226.82 1290.5 229.03 1298 213.26 1298 357.26 1186 357.26 1248.52 226.82" style="fill:#4c5865"/><polygon points="1069.53 237.87 1175.6 330.68 1082.79 335.1 1049.64 286.48 1036.39 246.71 1069.53 237.87" style="fill:#a6b2bf"/><polygon points="1069.53 237.87 1175.6 330.68 1082.79 335.1 1049.64 286.48 1036.39 246.71 1069.53 237.87" style="opacity:0.6000000000000001;fill:url(#linear-gradient-14)"/><polygon points="1065.11 120.76 1065.11 89.82 1122.56 52.26 1173.39 54.47 1177.81 69.94 1191.06 69.94 1210.95 89.82 1203.86 126.17 1124.77 138.44 1065.11 120.76" style="fill:#525e6b"/><g style="clip-path:url(#clip-path-23)"><polygon points="1060.69 89.82 1131.4 100.87 1124.77 138.44 1111.52 142.85 1056.58 123.76 1060.69 89.82" style="fill:#848c97"/><polygon points="1063.42 91.16 1130.3 106.39 1166.76 98.66 1219.79 87.61 1188.85 61.1 1175.6 47.84 1115.93 47.84 1062.9 83.19 1063.42 91.16" style="fill:#a6b2bf"/><polygon points="1063.42 91.16 1130.3 106.39 1166.76 98.66 1219.79 87.61 1188.85 61.1 1175.6 47.84 1115.93 47.84 1062.9 83.19 1063.42 91.16" style="opacity:0.6000000000000001;fill:url(#linear-gradient-15)"/></g><path d="M982.24,274.83s5.47-60.24-8.44-67.23-25,39-25,39-4.35-36,19.24-46.95S992.2,244.32,992.72,254s-1.65,23.29-1.65,23.29Z" transform="translate(0 37.26)" style="fill:#205e00"/><path d="M1007.72,254.13s18.83-45.49,43.34-48.25,21.41,2.72,21.41,2.72-38.74,25.76-44.78,30.44-13.54,8.94-19.35,35.84L1002.6,267Z" transform="translate(0 37.26)" style="fill:#216800"/><g style="clip-path:url(#clip-path-24)"><path d="M1058.53,199.37C1058,199,1037,212,1019,259l-8.9-6.05L1030,212Z" transform="translate(0 37.26)" style="fill:#1e5600"/></g><path d="M993.25,254.9c-1.47-.4,13-47.1-4-83.42,0,0,29.44,8.09,12.67,92.14Z" transform="translate(0 37.26)" style="fill:#216800"/><g style="clip-path:url(#clip-path-25)"><path d="M997,174s18,26-1,85l13-35,2-23Z" transform="translate(0 37.26)" style="fill:#1e5600"/></g><path d="M1018.79,208.09s23.09-101.3,64.49-113.67c0,0-20.76.63-56.47,119Z" transform="translate(0 37.26)" style="fill:#216800"/><g style="clip-path:url(#clip-path-26)"><path d="M1030,165s8,11,10,29l-11,7-6-23Z" transform="translate(0 37.26)" style="fill:#1e5600"/></g><path d="M1019.23,189.21s8.23-35.73-9.39-58c0,0,11,34.7,2.69,59.32Z" transform="translate(0 37.26)" style="fill:#216800"/><path d="M1006.06,277.42c.41-1.47,26.89-57.52,62.51-60.39,0,0-37.93,22.82-55.55,63.88Z" transform="translate(0 37.26)" style="fill:#98af0c"/><path d="M962.09,241.58s34.35-14,49.61,39.13L996,279.41S994.21,245.66,962.09,241.58Z" transform="translate(0 37.26)" style="fill:#247900"/><g style="clip-path:url(#clip-path-27)"><path d="M987,241s12.45,13.74,5.22,22.37,5.41,1.67,5.41,1.67l4.37-13Z" transform="translate(0 37.26)" style="fill:#1e5600"/></g><path d="M1001.58,280.52,1018.5,284s8.35-24.61,33.78-19.21C1052.28,264.79,1042.56,239.12,1001.58,280.52Z" transform="translate(0 37.26)" style="fill:#216800"/><g style="clip-path:url(#clip-path-28)"><path d="M1040,254s-25.62,17.23-22.81,31.12L1004,274l14.12-11.94Z" transform="translate(0 37.26)" style="fill:#1e5600"/></g><path d="M1015.39,161.58s22.79,9.25,16.92,54.26c0,0-22.78,43.54-24.27,66.08l-18.29-4.84s20-47.72,18.33-70.35S1015.39,161.58,1015.39,161.58Z" transform="translate(0 37.26)" style="fill:#738700"/><g style="clip-path:url(#clip-path-29)"><path d="M1013.91,157s9.09,33,3.09,66-13,51-13,51l8,7,10.21-35.22,14.35-32.29L1037,189l-9-23Z" transform="translate(0 37.26)" style="fill:#81a000"/></g><path d="M946,274s-7-39-17-41-9,29-9,29-9-22,4-33,23,24,25,30,3,15,3,15Z" transform="translate(0 37.26)" style="fill:#205e00"/><g style="clip-path:url(#clip-path-30)"><path d="M926,235s6-8,16,11,6,21,6,21l-7-3-2-13-7-14Z" transform="translate(0 37.26)" style="fill:#1e5100"/></g><path d="M958.5,256.5s4-32,19-38,14-2,14-2-20,23-23,27-7,8-6,26l-5-4Z" transform="translate(0 37.26)" style="fill:#216800"/><g style="clip-path:url(#clip-path-31)"><path d="M977,217s-9,11-12,37l-4-1,5-27Z" transform="translate(0 37.26)" style="fill:#1f5b00"/></g><path d="M949.5,259.5c-1,0,0-32-17-52,0,0,20,0,24,56Z" transform="translate(0 37.26)" style="fill:#216800"/><g style="clip-path:url(#clip-path-32)"><path d="M942,210s11,22,8,48l5,3V232Z" transform="translate(0 37.26)" style="fill:#1f5b00"/></g><path d="M957.5,225.5s-3-68,21-83c0,0-13,4-15,85Z" transform="translate(0 37.26)" style="fill:#216800"/><path d="M954.5,213.5s-1-24-16-35c0,0,13,20,12,37Z" transform="translate(0 37.26)" style="fill:#205e00"/><path d="M961.5,271.5c0-1,7-41,29-49,0,0-20,21-24,50Z" transform="translate(0 37.26)" style="fill:#247900"/><path d="M927.5,256.5s19.27-14.8,38.14,16.1l-10.14,1.9S948.5,253.5,927.5,256.5Z" transform="translate(0 37.26)" style="fill:#247900"/><path d="M947.28,196.71s16,1.89,20.11,31.34c0,0-6.83,31.45-3.86,45.95l-12.39.12s4.36-33.62-.64-47.62S947.28,196.71,947.28,196.71Z" transform="translate(0 37.26)" style="fill:#738700"/><g style="clip-path:url(#clip-path-33)"><path d="M945.13,191.92S960,213,960,228s-3,37-3,37l9.2-3,4.8-40-10-21Z" transform="translate(0 37.26)" style="fill:#81a000"/></g><path d="M959.2,274.24l11.3-.74s1-17,18-18C988.5,255.5,977.91,241,959.2,274.24Z" transform="translate(0 37.26)" style="fill:#216800"/><polygon points="803.5 214.76 766.5 232.76 761.5 250.76 751.5 254.76 742.5 282.76 762.5 319.76 799.5 326.76 814.5 338.76 840.5 338.76 872.5 327.76 897.5 329.76 892.5 245.76 803.5 214.76" style="fill:#848c97"/><g style="clip-path:url(#clip-path-34)"><polygon points="868.5 231.76 875.5 255.76 870.5 271.76 832.5 290.76 841.5 309.76 840.5 340.76 870.5 330.76 898.5 333.76 902.5 320.76 899.5 238.76 868.5 231.76" style="fill:#4c5865"/><path d="M761.5,204.5l54,2,24,16,31,12-38,19s-33-18-34-18-51-19-51-19Z" transform="translate(0 37.26)" style="fill:#a6b2bf"/><polygon points="810.08 278.76 799.5 326.76 814.5 338.76 840.5 338.76 841.5 309.76 832.5 290.76 810.08 278.76" style="fill:#4c5865"/></g><polygon points="807 357.26 819 324.26 879 300.26 988 295.26 1025 325.26 1029 357.26 807 357.26" style="fill:#848c97"/><g style="clip-path:url(#clip-path-35)"><polygon points="863 330.26 862 357.26 1033 357.26 1028.4 319.79 863 330.26" style="fill:#4c5865"/><polygon points="808 321.26 863 340.26 1032 324.26 988 290.26 874 294.26 808 321.26" style="fill:#a6b2bf"/><polygon points="808 321.26 863 340.26 1032 324.26 988 290.26 874 294.26 808 321.26" style="opacity:0.6000000000000001;fill:url(#linear-gradient-16)"/></g><rect x="789" y="37.26" width="36" height="319" style="fill:#4c5865;fill-opacity:0.4"/><rect x="435" y="37.26" width="368" height="272" style="fill:#cee4f2"/><g style="clip-path:url(#clip-path-36)"><g style="opacity:0.5"><path d="M458.5,159.5c-19.69,502.17,5.89-152.64,9-143C471.59,29.2,464,83,463,125s4,129-3,132S458.5,159.5,458.5,159.5Z" transform="translate(0 37.26)" style="fill:#9aa7d6"/><path d="M477,196c2.73-41-10-74-3-99s2,3,2,25,8,60,7,74S476,211,477,196Z" transform="translate(0 37.26)" style="fill:#9aa7d6"/><path d="M479,59c0-23,4-57,6-53s-3,31-4,57S479,59,479,59Z" transform="translate(0 37.26)" style="fill:#9aa7d6"/><path d="M496,183c-1.21-23.05-1-60,0-49s1,51,3,62S497,202,496,183Z" transform="translate(0 37.26)" style="fill:#9aa7d6"/><path d="M492,107c0-33,4-114,8-113s-4,40-5,64,2,60-1,62S492,107,492,107Z" transform="translate(0 37.26)" style="fill:#9aa7d6"/><path d="M507,164c-2-18-6-111-3-121s3,46,3,58,8,76,5,87S507,164,507,164Z" transform="translate(0 37.26)" style="fill:#9aa7d6"/><path d="M517,92c-1-39-4-91,2-98s0,21,1,37,2,82-1,89S517,92,517,92Z" transform="translate(0 37.26)" style="fill:#9aa7d6"/><path d="M528,185c-2-28-3-65-1-54s2,47,3,58S528,185,528,185Z" transform="translate(0 37.26)" style="fill:#9aa7d6"/><path d="M536-5c-1,9,1,33,1,42s0-11,1-20,0-22,0-22Z" transform="translate(0 37.26)" style="fill:#9aa7d6"/><path d="M535,142c-1-9-2-101-1-93s4,97,4,103S535,142,535,142Z" transform="translate(0 37.26)" style="fill:#9aa7d6"/><path d="M549,214c-2.38-30.92,0-128,2-119s0,23,0,38,4,55,4,70S550,227,549,214Z" transform="translate(0 37.26)" style="fill:#9aa7d6"/><path d="M568,177c0-11,1-60,2-46s0,53,0,53Z" transform="translate(0 37.26)" style="fill:#9aa7d6"/><path d="M567,99c-1.67-25,2-50,2-32S569,129,567,99Z" transform="translate(0 37.26)" style="fill:#9aa7d6"/><path d="M548,77c0-20-1-85,1-79s1,37,1,49S548,92,548,77Z" transform="translate(0 37.26)" style="fill:#9aa7d6"/><path d="M563,43c0-13,2-38,2-28s0,31-1,37S563,43,563,43Z" transform="translate(0 37.26)" style="fill:#9aa7d6"/><path d="M581-3c-1,10-3,63-2,77s2-64,4-77Z" transform="translate(0 37.26)" style="fill:#9aa7d6"/><path d="M582,157c-1-21,1-57,1-45s1,39,1,44S582,157,582,157Z" transform="translate(0 37.26)" style="fill:#9aa7d6"/><path d="M589,112c-2-11,0-55,0-49s2,29,1,36,3,24,1,28S589,112,589,112Z" transform="translate(0 37.26)" style="fill:#9aa7d6"/><path d="M600,140c0-13,0-61,1-56s1,64,1,72S600,140,600,140Z" transform="translate(0 37.26)" style="fill:#9aa7d6"/><path d="M599,62c-1.12-12,0-79,1-71s0,37,1,49S602,94,599,62Z" transform="translate(0 37.26)" style="fill:#9aa7d6"/><path d="M612,139s3-117,5-101-2,80-1,98S611,145,612,139Z" transform="translate(0 37.26)" style="fill:#9aa7d6"/><path d="M626,71c1-32,3-88,5-76s0,18-1,36,0,41-2,48S626,71,626,71Z" transform="translate(0 37.26)" style="fill:#9aa7d6"/><path d="M627,134c0-26,2-56,3-43s0,29,0,42S627,134,627,134Z" transform="translate(0 37.26)" style="fill:#9aa7d6"/><path d="M647,132s-2-51-2-67,1-46,2-36,1,51,2,70,4,51,0,55S647,132,647,132Z" transform="translate(0 37.26)" style="fill:#9aa7d6"/><path d="M658-5c-1,11-3,60-1,64s2-53,3-63Z" transform="translate(0 37.26)" style="fill:#9aa7d6"/><path d="M667,142c-2-18-3-109-1-101s1,36,1,62,3,49,1,55S667,142,667,142Z" transform="translate(0 37.26)" style="fill:#9aa7d6"/><path d="M674-5c-1,10,0,12,0,39s1,49,1,38V-3Z" transform="translate(0 37.26)" style="fill:#9aa7d6"/><path d="M681,142c-3-25-2-84-2-73s3,76,5,85S681,142,681,142Z" transform="translate(0 37.26)" style="fill:#9aa7d6"/><path d="M689,118c-1-17-1-55,0-47s3,54,2,58S689,118,689,118Z" transform="translate(0 37.26)" style="fill:#9aa7d6"/><path d="M687-3c-1,8-1,72,1,66s1-65,1-65Z" transform="translate(0 37.26)" style="fill:#9aa7d6"/><path d="M702-3s-2,69-1,56,3-55,3-55Z" transform="translate(0 37.26)" style="fill:#9aa7d6"/><path d="M699,104c-1.46-19,0-49,1-39s5,107,3,107S701,130,699,104Z" transform="translate(0 37.26)" style="fill:#9aa7d6"/><path d="M716,92c-2-26-1-63,0-55s2,64,1,70S716,92,716,92Z" transform="translate(0 37.26)" style="fill:#9aa7d6"/><path d="M714,209c-2-25-2-92,0-83s2,74,3,81S714,209,714,209Z" transform="translate(0 37.26)" style="fill:#9aa7d6"/><path d="M730,205c-1-9,0-48,1-36s3,44,1,46S730,205,730,205Z" transform="translate(0 37.26)" style="fill:#9aa7d6"/><path d="M730,128c-1-17-2-70,0-62s2,42,2,53,1,39-1,33S730,128,730,128Z" transform="translate(0 37.26)" style="fill:#9aa7d6"/><path d="M724-3c-1,16,1,68,1,57s1-57,1-57Z" transform="translate(0 37.26)" style="fill:#9aa7d6"/><path d="M743-4s-1,113,1,120,1-105,2-120Z" transform="translate(0 37.26)" style="fill:#9aa7d6"/><path d="M752,204c-2-18,2-123,2-118s2,122,1,130S752,204,752,204Z" transform="translate(0 37.26)" style="fill:#9aa7d6"/><path d="M764-3c-1,9,3,160,4,149S766-3,766-3Z" transform="translate(0 37.26)" style="fill:#9aa7d6"/><path d="M780-4c-1,12-1,45,1,30a295.62,295.62,0,0,0,2-33Z" transform="translate(0 37.26)" style="fill:#9aa7d6"/><path d="M777,137c-2-25,4-100,4-80s1,101,1,101Z" transform="translate(0 37.26)" style="fill:#9aa7d6"/><path d="M796,128c-1-38,1-121,2-110s3,136,2,136S796,128,796,128Z" transform="translate(0 37.26)" style="fill:#9aa7d6"/><path d="M777,236c0-1,0-77,1-70s1,49,1,65S777,236,777,236Z" transform="translate(0 37.26)" style="fill:#9aa7d6"/><path d="M787,266c0-3-1-80,1-64s1,77,1,77Z" transform="translate(0 37.26)" style="fill:#9aa7d6"/></g><g style="opacity:0.27"><path d="M443,316s-1.17-220,7-200,8.17,150,9.91,203S445.87,375,443,316Z" transform="translate(0 37.26)" style="fill:#8798d8"/><path d="M476.75,202.66C471.78,163.29,484,36,490,55s-6,68-2,116S481.49,240.32,476.75,202.66Z" transform="translate(0 37.26)" style="fill:#8798d8"/><path d="M515,202c6.3-54.64-3-169,7-144s0,130,5,167S512,228,515,202Z" transform="translate(0 37.26)" style="fill:#8798d8"/><path d="M552.8,217.12C553.32,183,560,37,566,61s2,124,0,164S552.6,230.25,552.8,217.12Z" transform="translate(0 37.26)" style="fill:#8798d8"/><path d="M583,170c3-49,9-103,11-68s2,89-7,104S583,170,583,170Z" transform="translate(0 37.26)" style="fill:#8798d8"/><path d="M620,152c-1-33,4.77-143.76,8.39-102.38S639,148,632,181,620,152,620,152Z" transform="translate(0 37.26)" style="fill:#8798d8"/><path d="M668,184c-3-18-11-172-1-148s11,122,9,148S668,184,668,184Z" transform="translate(0 37.26)" style="fill:#8798d8"/><path d="M644,153c-4-35-5.64-85.31,1.18-57.65S659,159,652,170,644,153,644,153Z" transform="translate(0 37.26)" style="fill:#8798d8"/><path d="M696,192c0-2-12-76-2-82s8,65,11,99S696,192,696,192Z" transform="translate(0 37.26)" style="fill:#8798d8"/><path d="M733,229c-2-37,1-191,6-175s3,146,4,173S733,229,733,229Z" transform="translate(0 37.26)" style="fill:#8798d8"/><path d="M768,241s-6.48-146.71,1.76-135.86S792,251,784,264,768,241,768,241Z" transform="translate(0 37.26)" style="fill:#8798d8"/><path d="M746,212c-3-43,7-111.39,6.49-67.2S764,221,755,234,746,212,746,212Z" transform="translate(0 37.26)" style="fill:#8798d8"/></g></g><rect x="435" y="37.26" width="368" height="272" style="fill:url(#linear-gradient-17)"/><path d="M806.5,256a37.39,37.39,0,0,0-17.42,4.29A50.5,50.5,0,0,0,716,202.35,77,77,0,0,0,562,203c0,8.13-24.54,117-5,117H833c9.4,0,11-16.36,11-26.5A37.5,37.5,0,0,0,806.5,256Z" transform="translate(0 37.26)" style="fill:#e2eff7"/><g style="clip-path:url(#clip-path-37)"><path d="M560,178s37,22,32,53c0,0,69-10,92,61s-143,40-143,40Z" transform="translate(0 37.26)" style="fill:#c2dfef"/><ellipse cx="618" cy="228.76" rx="42" ry="38.5" style="fill:#c1deea"/><path d="M775,276.5a51.09,51.09,0,0,1-22.8,43c-.2-.49-50.2-.49-50.42,0a51.08,51.08,0,0,1-22.78-43c0-27.89,21.49-50.5,48-50.5S775,248.61,775,276.5Z" transform="translate(0 37.26)" style="fill:#c1deea"/></g><path d="M637.34,320a48,48,0,0,0-62-68.83A65,65,0,1,0,446,242c0,.51,0,1,0,1.52A48,48,0,0,0,392.23,320Z" transform="translate(0 37.26)" style="fill:#e2eff7"/><g style="clip-path:url(#clip-path-38)"><path d="M536,176s-85,13-74,85c0,0-45-21-58,3s11,60,11,60l-41-2-4-63,9-34,38-10,22,12,17-33,30-19,26-4Z" transform="translate(0 37.26)" style="fill:#f8f9ff"/><ellipse cx="539.82" cy="310.26" rx="38.18" ry="36" style="fill:#c1deea"/><ellipse cx="399.32" cy="299.96" rx="41.68" ry="39.3" style="fill:#c1deea"/></g><circle cx="801" cy="192.26" r="37" style="fill:#fff"/><circle cx="535" cy="306.26" r="37" style="fill:#fff"/><path d="M763,273a52,52,0,0,1-29.73,47H688.73A52,52,0,1,1,763,273Z" transform="translate(0 37.26)" style="fill:#fff"/><circle cx="616" cy="223.26" r="37" style="fill:#fff"/><circle cx="539" cy="189.26" r="14" style="fill:#fff"/><circle cx="810" cy="322.26" r="8" style="fill:#fff"/><circle cx="725" cy="191.26" r="4" style="fill:#fff"/><circle cx="458" cy="219.26" r="4" style="fill:#fff"/><circle cx="553" cy="168.26" r="4" style="fill:#fff"/><circle cx="386.5" cy="286.76" r="48.5" style="fill:#fff"/><polygon points="174.5 292.76 204.5 293.76 235.5 287.76 205.5 317.76 174.5 292.76" style="fill:#f5fcff"/><polyline points="288 269.26 306 266.26 298 275.26 288 269.26" style="fill:#d3dde2"/><polygon points="1123 164.26 1152 172.26 1137 179.26 1123 164.26" style="fill:#f0f7fc"/><polygon points="1235 215.26 1259 227.26 1241 233.26 1235 215.26" style="fill:#f0f7fc"/><polygon points="1108 101.26 1141 104.26 1130 110.26 1108 101.26" style="fill:#f8fcff"/><polygon points="1074 322.26 1085 335.26 1080 342.26 1074 322.26" style="fill:#f0f7fc"/><polygon points="952 200.26 946 209.26 956 206.26 952 200.26" style="fill:#c5d6e2"/><polygon points="857 338.26 877 339.26 862 347.26 857 338.26" style="fill:#f0f7fc"/><path d="M65.09,320c-8.77-16.7-25-44.23-36.24-43.57-13,.76-6.43,31.63-3.41,43.47-.44.1-2.44.1-1.76,0-5.57-9.24-15.93-30.77-4.09-47.61,15.51-22.05,44.84,27.56,50.3,35.95A99.84,99.84,0,0,1,76.2,320Z" transform="translate(0 37.26)" style="fill:#205e00"/><path d="M83.44,300.62S76.77,250,97.34,234.81,118,226.14,118,226.14s-21.43,43.24-24.43,50.57S86,291.76,94.77,318.94l-9.26-4.13Z" transform="translate(0 37.26)" style="fill:#216800"/><g style="clip-path:url(#clip-path-39)"><path d="M100.68,225.08c-.67-.05-12.79,22.52-4.57,74.07L85,298.33l-3.37-47.1Z" transform="translate(0 37.26)" style="fill:#1e5600"/></g><path d="M70.86,308.82c-1.53.4-12.81-49-46.85-72.85,0,0,30.63-8,59.17,76.18Z" transform="translate(0 37.26)" style="fill:#216800"/><g style="clip-path:url(#clip-path-40)"><path d="M32.26,234.22s29.65,14,43.19,76.86L69,272.9,58.84,251.2Z" transform="translate(0 37.26)" style="fill:#1e5600"/></g><path d="M69.51,253.54S37.7,150.57,68.46,118c0,0-18.31,11.33,11,136.21Z" transform="translate(0 37.26)" style="fill:#216800"/><g style="clip-path:url(#clip-path-41)"><path d="M57.22,209s12.9,5.73,24,20.85l-6.25,12L57.68,224.32Z" transform="translate(0 37.26)" style="fill:#1e5600"/></g><path d="M60.11,236.35S49,200,21.59,189.14c0,0,27.92,25.44,33.19,51.88Z" transform="translate(0 37.26)" style="fill:#216800"/><path d="M94,320c-.87-11.35-2.72-65.23,24.86-84.27,0,0-21.55,38.93-17,84C102,319,94,320,94,320Z" transform="translate(0 37.26)" style="fill:#81a000"/><path d="M36,313s22.54-29,62.09,6.81c0,.16-21,.16-20.74,0C68.82,312.66,54.52,305.24,36,313Z" transform="translate(0 37.26)" style="fill:#247900"/><g style="clip-path:url(#clip-path-42)"><path d="M58,299.58s18.3,5.88,16.29,17.38,5.73-1.3,5.73-1.3l-2.84-14Z" transform="translate(0 37.26)" style="fill:#1e5600"/></g><path d="M108.37,320c-.64-6.2-.85-25.89,20.63-32.87,0,0-20-16.35-35.15,32.6C94,320,108,320,108.37,320Z" transform="translate(0 37.26)" style="fill:#216800"/><g style="clip-path:url(#clip-path-43)"><path d="M112.37,283.76S98.31,312.53,108,323.54L90.42,320.4l6.49-18Z" transform="translate(0 37.26)" style="fill:#1e5600"/></g><path d="M42.33,213.52s25.26-3.51,43.35,40c0,0,1.81,43.29,10.2,66.52.12,0-17.88,0-18.21.17-2.7-16.49-8.89-48.24-18.49-62.3C45.92,238.42,42.33,213.52,42.33,213.52Z" transform="translate(0 37.26)" style="fill:#81a000"/><g style="clip-path:url(#clip-path-44)"><path d="M38.62,210.17s25.29,24.93,37,57.68S90.42,320.4,90.42,320.4l10.81,2.14-9.1-36.93-3.86-36.44L76,226.94,56,211Z" transform="translate(0 37.26)" style="fill:#738700"/></g><path d="M1186,320s2.8-61.41-11.94-68-24,41.62-24,41.62-6.19-37.12,17.73-49.55,27.11,45.11,28.1,55.08A92.15,92.15,0,0,1,1195,320Z" transform="translate(0 37.26)" style="fill:#205e00"/><path d="M1211.38,298.62s17.39-48,42.65-52,22.31,1.81,22.31,1.81-38.93,28.51-45,33.64-13.61,9.9-18.37,38l-6.32-7.93Z" transform="translate(0 37.26)" style="fill:#216800"/><g style="clip-path:url(#clip-path-45)"><path d="M1261.46,239.5c-.56-.36-21.71,14.1-38.16,63.64l-9.5-5.85,18.7-43.37Z" transform="translate(0 37.26)" style="fill:#1e5600"/></g><path d="M1196.43,300.1c-1.54-.35,11.21-49.41-8-86.25,0,0,30.88,7,17.44,94.87Z" transform="translate(0 37.26)" style="fill:#216800"/><g style="clip-path:url(#clip-path-46)"><path d="M1196.52,216.1s19.87,26.09,3,88.11l11.83-36.87,1-23.92Z" transform="translate(0 37.26)" style="fill:#1e5600"/></g><path d="M1220.69,250.4s19.19-106,61.5-120.8c0,0-21.47,1.62-52.93,126Z" transform="translate(0 37.26)" style="fill:#216800"/><g style="clip-path:url(#clip-path-47)"><path d="M1230.3,205.23s8.8,11,11.71,29.58L1231,242.57l-7.3-23.55Z" transform="translate(0 37.26)" style="fill:#1e5600"/></g><path d="M1220.27,230.82s6.86-37.41-12.45-59.64c0,0,13.07,35.43,5.57,61.33Z" transform="translate(0 37.26)" style="fill:#216800"/><path d="M1211,320c.35-1.54,24.93-58,61.7-62.67,0,0-34.7,28.67-51.7,62.67Z" transform="translate(0 37.26)" style="fill:#81a000"/><path d="M1163.52,287.76S1194.7,265.68,1213,320h-14S1197,290.48,1163.52,287.76Z" transform="translate(0 37.26)" style="fill:#247900"/><g style="clip-path:url(#clip-path-48)"><path d="M1189.3,286s13.54,13.65,6.46,22.93,5.68,1.48,5.68,1.48l3.92-13.72Z" transform="translate(0 37.26)" style="fill:#1e5600"/></g><path d="M1211,320h16s7-11,31-12.42C1258.05,307.58,1251.53,275.19,1211,320Z" transform="translate(0 37.26)" style="fill:#216800"/><g style="clip-path:url(#clip-path-49)"><path d="M1244.83,297S1225,310,1224,320l-15.54-.62,14.08-13Z" transform="translate(0 37.26)" style="fill:#1e5600"/></g><path d="M1215,202.37s24,8.51,20.08,55.43c0,0-16.07,39.2-22.07,62.2h-18s17.35-47.14,14.54-70.51S1215,202.37,1215,202.37Z" transform="translate(0 37.26)" style="fill:#216800"/><g style="clip-path:url(#clip-path-50)"><path d="M1213.25,197.69s11,33.77,6.29,68.24-11.08,53.45-11.08,53.45l8.62,6.88,8.93-37,13.35-34.13-.69-25.39-10.4-23.41Z" transform="translate(0 37.26)" style="fill:#338702"/></g><path d="M1092,280s18,7,28,13,20,18,23,27l-6.62.12s-9.88-17.62-26.88-25.62S1092,280,1092,280Z" transform="translate(0 37.26)" style="fill:#1e5600"/><path d="M1144,320s13-23,21-28,25-9,31-12,8-7,8-7,1,11-10,14-41,14-43,33Z" transform="translate(0 37.26)" style="fill:#1e5600"/><path d="M1130,320s-20-17-21-16-13,14-15,13,11-18,15-18,23,11,29,21Z" transform="translate(0 37.26)" style="fill:#205e00"/><path d="M1144,320s3-41,1-55-8-59-41-60c0,0-4.5,20.5,5.5,35.5s26.56,33.05,32.28,79Z" transform="translate(0 37.26)" style="fill:#216800"/><g style="clip-path:url(#clip-path-51)"><path d="M1122,205s27,46,14,96l6.1,21.5,5.9-.5V275l-2-30-13-29Z" transform="translate(0 37.26)" style="fill:#1e5600"/></g><path d="M1200.5,250.5s-18-17-38,0-20.12,69.7-20.12,69.7l4.19-.3s9.93-26.4,19.93-36.4,25-16,30-21S1200.5,250.5,1200.5,250.5Z" transform="translate(0 37.26)" style="fill:#216800"/><g style="clip-path:url(#clip-path-52)"><path d="M1207,249.23S1180,252,1164,272s-22.78,51.68-22.78,51.68L1153,321l8.22-25.19L1177,278l19-10Z" transform="translate(0 37.26)" style="fill:#1c5100"/></g><path d="M1198.5,299.5s0,14-10,16-33-10-37,5l-6.42.15s2.42-12.15,11.42-16.15S1183.5,288.5,1198.5,299.5Z" transform="translate(0 37.26)" style="fill:#738700"/><g style="clip-path:url(#clip-path-53)"><path d="M1145.26,323.89S1150,311,1159,307s43-4,43-4l-.79-6.55L1184,292l-28.53,8.28-9.78,9.14L1142,323Z" transform="translate(0 37.26)" style="fill:#81a000"/></g><path d="M1139.08,320.5s-3.59-23.77-20.09-27.88-16.49-18.12-2.49-20.12,31,17,27.5,47.5Z" transform="translate(0 37.26)" style="fill:#81a000"/><g style="clip-path:url(#clip-path-54)"><path d="M1101,278s24,3,32,15,9,29,9,29l-4.18-1.09L1133,309l-9.22-12.76L1110,291.77l-6-4.77Z" transform="translate(0 37.26)" style="fill:#738700"/></g><path d="M0,125.33s9.75,3.79,15.17,7S26,142.12,27.63,147l-3.59.07s-5.35-9.55-14.56-13.88S0,125.33,0,125.33Z" transform="translate(0 37.26)" style="fill:#1e5600"/><path d="M28.17,147s7-12.46,11.37-15.17,13.55-4.87,16.8-6.5a9.73,9.73,0,0,0,4.33-3.79s.54,6-5.42,7.58S33,136.71,32,147Z" transform="translate(0 37.26)" style="fill:#1e5600"/><path d="M20.58,147s-10.83-9.21-11.37-8.67-7,7.59-8.13,7,6-9.75,8.13-9.75,12.46,6,15.71,11.38Z" transform="translate(0 37.26)" style="fill:#205e00"/><path d="M28.17,147s1.62-22.21.54-29.79S24.38,85.25,6.5,84.7c0,0-2.44,11.11,3,19.23S23.87,121.83,27,146.74Z" transform="translate(0 37.26)" style="fill:#216800"/><g style="clip-path:url(#clip-path-55)"><path d="M15,115s11,3,15,20v15l-3-1V136l-9-11Z" transform="translate(0 37.26)" style="fill:#1c5100"/></g><path d="M58.78,109.35s-9.76-9.21-20.59,0-10.9,37.76-10.9,37.76l2.27-.17s5.38-14.3,10.8-19.71,13.54-8.67,16.25-11.38A8.28,8.28,0,0,0,58.78,109.35Z" transform="translate(0 37.26)" style="fill:#216800"/><g style="clip-path:url(#clip-path-56)"><path d="M62,108s-16-1-23,10-11,32-11,32l-2-2,2.74-25.66L36,110l4-4,8-2,10,2Z" transform="translate(0 37.26)" style="fill:#1f5b00"/></g><path d="M57.69,135.89s0,7.59-5.42,8.67-17.87-5.41-20,2.71l-3.48.08s1.31-6.58,6.19-8.75S49.57,129.94,57.69,135.89Z" transform="translate(0 37.26)" style="fill:#81a000"/><g style="clip-path:url(#clip-path-57)"><path d="M30,148s1-5,6-6,22,0,23-6l-2,9-7,2-13-2-4.27,4.61Z" transform="translate(0 37.26)" style="fill:#738700"/></g><path d="M25.5,147.27s-1.94-12.87-10.88-15.1-8.93-9.82-1.35-10.9,16.79,9.21,14.9,25.73Z" transform="translate(0 37.26)" style="fill:#738700"/><g style="clip-path:url(#clip-path-58)"><path d="M3,124a26.11,26.11,0,0,1,17,5c8,6,6,21,6,21l-3-2-3-10L8.29,130.75Z" transform="translate(0 37.26)" style="fill:#81a000"/></g></g></g></svg>