<svg xmlns="http://www.w3.org/2000/svg" xmlns:xlink="http://www.w3.org/1999/xlink" viewBox="0 0 826.5 487"><defs><clipPath id="clip-path" transform="translate(0 41)"><path d="M786,0c0,217.05-176,393-393,393S0,217.05,0,0H85l56,117.5,197,4L373,0Z" style="fill:#2d9110"/></clipPath><clipPath id="clip-path-2" transform="translate(0 41)"><path d="M367.63,0A42,42,0,0,1,326,36.5a42.6,42.6,0,0,1-7.1-.61,65.5,65.5,0,0,1-128.59,1.22A55.75,55.75,0,0,1,154,50.5,56,56,0,0,1,98.27,0H37c0,196.61,159.39,356,356,356S749,196.61,749,0Z" style="fill:#ea2727"/></clipPath></defs><g style="isolation:isolate"><g id="Layer_2" data-name="Layer 2"><g id="Layer_3" data-name="Layer 3"><path d="M786,0c0,217.05-176,393-393,393S0,217.05,0,0H85l56,117.5,197,4L373,0Z" transform="translate(0 41)" style="fill:#2d9110"/><g style="clip-path:url(#clip-path)"><path d="M592.5-41s-41,517-555,264l218,223,301-26,189-170,81-266Z" transform="translate(0 41)" style="fill:#2d9111;opacity:0.46;mix-blend-mode:multiply"/></g><path d="M756,0c0,200.48-162.52,363-363,363S30,200.48,30,0H85l21,87.5,243,36L373,0Z" transform="translate(0 41)" style="fill:#79d159"/><path d="M367.63,0A42,42,0,0,1,326,36.5a42.6,42.6,0,0,1-7.1-.61,65.5,65.5,0,0,1-128.59,1.22A55.75,55.75,0,0,1,154,50.5,56,56,0,0,1,98.27,0H37c0,196.61,159.39,356,356,356S749,196.61,749,0Z" transform="translate(0 41)" style="fill:#ea2727"/><g style="clip-path:url(#clip-path-2)"><path d="M592.5-41s-41,517-555,264L174,345.5l205,70,213-49,165-163,46-212Z" transform="translate(0 41)" style="fill:#c10505;opacity:0.46;mix-blend-mode:multiply"/><path d="M78.57,68.77c2.22-.66,4.15-2,6.38-2.66a28.25,28.25,0,0,1,3.41-.83c1.22-.21,3.72.18,4.81-.27.91.28,1,0,.35-.72-.69,0-1.39,0-2.08,0-1.4,0-2.79,0-4.19,0-3,.07-6.06,0-9.1-.17l2.08,5A5,5,0,0,1,82,68.18c2-.91,1.41-4.17-.6-4.63-2.25-.51-3.6.08-5.33,1.52-2.09,1.73-.26,4.94,2.09,5,3,.12,24.08.85,19.76-7-1.69-3.09-6.68-2.57-9.57-2.22-3.87.47-8.9,1.87-11.51,5-1.08,1.28-.09,3.52,1.74,3Z" transform="translate(0 41)" style="fill:#232533"/><path d="M129.25,181.94c1.88-2.07,3.73-4.18,5.66-6.2,1.7-1.78,3.58-3.65,6.18-3.66l-3-3.93c-.36,1.77-3.57,3.33-5,4.27-.84.55-1.7,1.07-2.57,1.59-.64.38-2,1.53-2.77,1.57a3.74,3.74,0,0,0-3.19,5.57c1.49,2.55,4.83,2.22,6.39,0,.6-.86,2.73-1.65,3.61-2.23,1.4-.93,2.79-1.89,4.15-2.87,2.33-1.67,4.74-3.29,5.39-6.25a3.14,3.14,0,0,0-3-3.92c-7.21-.06-12,6.73-16.41,11.48-2.85,3,1.77,7.66,4.57,4.58Z" transform="translate(0 41)" style="fill:#232533"/><path d="M222.21,270.09c2.45-5.41,5.07-11.21,10.51-14.18l-4.6-2.64c.25,3-2.72,5.39-4.67,7.38-2.12,2.17-4.48,4.11-6.57,6.31-3.21,3.38,1.56,7.93,5,5a60.34,60.34,0,0,0,8.42-9.28c2.22-2.81,4-5.75,3.9-9.45a3.1,3.1,0,0,0-4.6-2.64c-6.62,3.16-10.27,9.66-13.43,15.95-2,4,4.17,7.53,6,3.51Z" transform="translate(0 41)" style="fill:#232533"/><path d="M328.58,317.5a45,45,0,0,1,2.75-16.29l-6.8,1.8c.34.33-3.56,11.05-3.91,12.58-1.18,5.16,6.11,7.08,7.87,2.16A114,114,0,0,0,332,305.43c.71-3,.56-5.9-1.74-8.18s-5.76-1-6.81,1.8a38.77,38.77,0,0,0-2.22,18.45c.52,4.56,7.42,4.83,7.32,0Z" transform="translate(0 41)" style="fill:#232533"/><path d="M469.62,312.09c-1.12-2.46-2.13-4.95-3.21-7.43-.49-1.13-1-2.26-1.5-3.4-.27-.61-.53-1.22-.78-1.84q-.47-2.44-1.74,1.5l-3.14-.41c.84.38,1.26,4.73,1.48,5.68.52,2.27,1,4.54,1.52,6.82,1,5,9.1,2.89,7.71-2.13-1.28-4.66-3-22.34-11.79-17.26-3.65,2.12-2.86,6.43-1.49,9.69a106.45,106.45,0,0,0,6.38,12.61c2.53,4.29,8.55.53,6.56-3.83Z" transform="translate(0 41)" style="fill:#232533"/><path d="M570.5,244.9c1.91,2,3.81,4,5.85,5.86l2.87,2.63,1.44,1.31.72.66c.52.58.54.4,0-.54l1.13-2.73-.3.34,1.71-1c1.17.07,1.33-.2.47-.79l-1.15-1.32q-1-1.17-1.95-2.37c-1.36-1.7-2.73-3.4-4.09-5.11-2.92-3.68-9.31,1.2-6.55,5s12.44,17.81,17.65,10.24c2.48-3.58-.94-6.57-3.53-8.65-3.54-2.82-7.09-5.55-10.8-8.14-2.78-1.94-5.74,2.25-3.52,4.56Z" transform="translate(0 41)" style="fill:#232533"/><path d="M655,154.61c4.08.34,8.63,3.65,10.95,6.95v-3.07c1.3-.33,1.48-.69.52-1.09l-1.87-1.34c-.94-.66-1.88-1.28-2.88-1.86-2.16-1.28-4.42-3-6.92-3.38a3.27,3.27,0,0,0-3.15,5.41c1.38,1.73,3.49,2.62,5.39,3.71a61.75,61.75,0,0,0,6.15,3.06c3.05,1.32,5.94,1.55,8-1.44a3,3,0,0,0,0-3.07,18.48,18.48,0,0,0-7.2-5.85c-2.79-1.26-6-.95-9-.56a1.27,1.27,0,0,0,0,2.53Z" transform="translate(0 41)" style="fill:#232533"/><path d="M698.66,38.22a33.93,33.93,0,0,1,6.68-.32,38.9,38.9,0,0,1,4.79.63l2.64-4.66a17.65,17.65,0,0,1-11.15-.22c-5.58-1.76-8.07,7.52-2.4,8.7a28.08,28.08,0,0,0,15.56-1.18c1.73-.65,3.49-2.63,2.65-4.66C714.36,29.14,704,30.56,698,33.07c-2.42,1-2.53,5.58.7,5.15Z" transform="translate(0 41)" style="fill:#232533"/><path d="M627.72,78.76a56.87,56.87,0,0,1,12.57.64l-1.8-6.85a2.09,2.09,0,0,1-3,.5c-1.88-1-3.27-1.83-5.46-1.91-5.07-.21-6,7.53-1.19,8.8,2.61.68,5,2,7.8,1.79a11.77,11.77,0,0,0,7.65-3.39c2-2,1.3-6.3-1.81-6.84a46.56,46.56,0,0,0-15.71.17c-4,.65-3.09,7.39,1,7.09Z" transform="translate(0 41)" style="fill:#232533"/><path d="M572,165.14c2.18,2.37,4.39,4.57,6.78,6.72,1.79,1.6,3.93,3.15,4.7,5.52l3.7-4.86c-1.45.08-2.56-2.25-3.28-3.3-1.41-2.08-2.84-4.14-4.38-6.13-2.84-3.65-9,1.11-6.43,5,3.12,4.7,7.52,12.56,14.09,12.14,2.34-.14,4.54-2.35,3.7-4.85-2.39-7.15-9.57-10.85-15.81-14.17a2.54,2.54,0,0,0-3.07,4Z" transform="translate(0 41)" style="fill:#232533"/><path d="M502.43,242.87a69.19,69.19,0,0,0-4.15-6.44c-.71-1-1.44-1.92-2.14-2.89-.34-.45-.66-.92-1-1.39-.37-.91-.51-.82-.43.29l-2.44,2.45c1-.29,2.94,3.63,3.25,4.32,1,2.23,1.77,4.55,3,6.7,1.9,3.38,7,.38,5.18-3s-2.48-7.16-4.8-10.22c-1.72-2.28-4.94-5-8-4.59-4.59.62-3.57,5.88-1.67,8.53a86.21,86.21,0,0,0,8.42,10c2.42,2.48,6.53-.7,4.78-3.7Z" transform="translate(0 41)" style="fill:#232533"/><path d="M392.17,271.39a60.16,60.16,0,0,1-.08-6.44c.05-1,.12-1.94.22-2.91,0-.43.7-2.91-.23-2.33L387.27,257A42.4,42.4,0,0,1,386,271.78c-1.05,4.57,5.76,6.49,7.06,1.94,1.64-5.74,1.39-11.78.5-17.62-.34-2.22-3.05-2.7-4.7-1.92-2.56,1.22-2.92,4.18-3.27,6.7a57.69,57.69,0,0,0-.44,10.51c.21,4.51,7.32,4.51,7,0Z" transform="translate(0 41)" style="fill:#232533"/><path d="M291.61,251.51c1.21-3.93,2.51-8.76,6.09-11.21l-5.24-2.13c.83,4.41-3.67,8.18-5.86,11.47-2.5,3.75,3.44,8.48,6.33,4.88,4.28-5.33,7.68-11.22,6.41-18.25-.39-2.2-3.44-3.34-5.24-2.13-5.45,3.65-7.57,9.43-9.09,15.55-1.07,4.28,5.29,6,6.6,1.82Z" transform="translate(0 41)" style="fill:#232533"/><path d="M201.94,194.78c2.34-1.57,4.77-3,7.06-4.66,1.15-.83,2.25-1.74,3.38-2.6.83-.63,2-1.89,3-2.12l-2.16-.28.41.28-1-3.73c-1.52,3-4.38,4.72-7.1,6.54-2.54,1.7-5.87,2.93-6.18,6.25a2.18,2.18,0,0,0,1.59,2.08c3.37,1,6.89-2.91,9.46-4.78,2.8-2,5.36-4.18,6.94-7.34a2.86,2.86,0,0,0-.43-3.3c-2.52-3-6.2.13-8.56,1.68a98.63,98.63,0,0,0-9.8,7.63c-2.38,2,.74,6.09,3.35,4.35Z" transform="translate(0 41)" style="fill:#232533"/><path d="M125.8,114.76c5-.9,10-1.65,15.09-2.23l-3-5.26c-.59,1.19-5.15.88-6.38,1-2.93.26-5.19.21-7.55,2.1-1.6,1.29-1.21,4.55.69,5.38,3.72,1.63,8,.07,11.82-.64,3-.54,6.08-1.31,7.46-4.3s-.86-5.58-3.95-5.13q-8,1.17-15.88,2.85c-4.11.88-2.33,7,1.72,6.24Z" transform="translate(0 41)" style="fill:#232533"/></g></g></g></g></svg>