<svg width="1003" height="1175" viewBox="0 0 1003 1175" fill="none" xmlns="http://www.w3.org/2000/svg">
<path d="M19.129 1063.2C-66.9176 1133.76 160.245 1147.53 246.292 1150.97C332.339 1154.41 969.084 1169.9 994.898 1123.44C1020.71 1076.97 967.363 1063.2 869.27 1073.53C771.177 1083.85 773.174 1066.14 823.081 1030C872.988 993.861 615.884 999.529 500.581 1001.25C385.279 1002.97 315.128 999.529 246.292 1001.25C177.456 1002.97 105.176 992.646 19.129 1063.2Z" fill="#F1F1F8"/>
<path d="M361.402 1044.61C360.714 1039.1 422.495 1021.37 425.077 1018.79C427.658 1016.21 425.077 903.491 425.077 903.491L454.333 901.77C454.333 901.77 456.914 1024.82 454.333 1030.84C451.751 1036.86 398.747 1077.65 396.682 1079.03C394.1 1080.75 389.798 1083.33 384.635 1079.03C380.505 1075.58 397.255 1056.37 406.147 1047.19C396.395 1053.5 376.03 1066.29 372.588 1066.98C368.286 1067.84 363.123 1067.84 363.123 1060.96C363.123 1055.45 389.511 1043.75 402.705 1038.58C382.914 1046.33 362.263 1051.49 361.402 1044.61Z" fill="#F4B14C"/>
<mask id="mask0" mask-type="alpha" maskUnits="userSpaceOnUse" x="361" y="901" width="95" height="181">
<path d="M361.402 1044.61C360.714 1039.1 422.495 1021.37 425.077 1018.79C427.658 1016.21 425.077 903.491 425.077 903.491L454.333 901.77C454.333 901.77 456.914 1024.82 454.333 1030.84C451.751 1036.86 398.747 1077.65 396.682 1079.03C394.1 1080.75 389.798 1083.33 384.635 1079.03C380.505 1075.58 397.255 1056.37 406.147 1047.19C396.395 1053.5 376.03 1066.29 372.588 1066.98C368.286 1067.84 363.123 1067.84 363.123 1060.96C363.123 1055.45 389.511 1043.75 402.705 1038.58C382.914 1046.33 362.263 1051.49 361.402 1044.61Z" fill="#F4B14C"/>
</mask>
<g mask="url(#mask0)">
<path d="M443.081 1030C449.081 1028 455.581 1004.17 458.081 992.5L463.083 1027.5L403.083 1090L365.581 1080C355.581 1070.83 342.581 1052.5 370.581 1052.5C405.581 1052.5 435.581 1032.5 443.081 1030Z" fill="#E49926"/>
<path d="M465.581 917.5L455.581 990C455.581 990 453.081 957.5 445.581 945C438.081 932.5 413.081 927.5 413.081 927.5L465.581 917.5Z" fill="#E49926"/>
</g>
<path d="M578.53 1044.6C579.218 1039.1 517.437 1021.37 514.855 1018.79C512.273 1016.21 514.855 901.767 514.855 901.767L485.599 900.046C485.599 900.046 483.017 1024.81 485.599 1030.84C488.18 1036.86 541.185 1077.65 543.25 1079.02C545.832 1080.74 550.134 1083.33 555.297 1079.02C559.427 1075.58 542.677 1056.36 533.785 1047.19C543.537 1053.5 563.901 1066.29 567.343 1066.98C571.646 1067.84 576.808 1067.84 576.808 1060.95C576.808 1055.45 550.421 1043.74 537.227 1038.58C557.018 1046.33 577.669 1051.49 578.53 1044.6Z" fill="#F4B14C"/>
<mask id="mask1" mask-type="alpha" maskUnits="userSpaceOnUse" x="484" y="900" width="95" height="182">
<path d="M578.531 1044.6C579.219 1039.1 517.438 1021.37 514.856 1018.79C512.275 1016.21 514.856 901.767 514.856 901.767L485.6 900.046C485.6 900.046 483.019 1024.81 485.6 1030.84C488.182 1036.86 541.187 1077.65 543.252 1079.02C545.833 1080.74 550.135 1083.33 555.298 1079.02C559.428 1075.58 542.678 1056.36 533.787 1047.19C543.538 1053.5 563.903 1066.29 567.345 1066.98C571.647 1067.84 576.81 1067.84 576.81 1060.95C576.81 1055.45 550.422 1043.74 537.228 1038.58C557.019 1046.33 577.671 1051.49 578.531 1044.6Z" fill="#F4B14C"/>
</mask>
<g mask="url(#mask1)">
<path d="M525.584 1075C551.584 1063 533.084 1031.67 520.584 1017.5L588.083 1035L593.083 1057.5L578.084 1090C549.751 1090 499.585 1087 525.584 1075Z" fill="#E49826"/>
<path d="M518.083 982.5C512.083 946.5 490.583 932.5 480.583 930L475.583 907.5H525.583L518.083 982.5Z" fill="#E49826"/>
</g>
<path d="M887.19 465.111C873.413 448.563 842.852 417.773 830.824 426.999C814.828 439.269 855.6 471.951 865.126 480.707L887.19 465.111Z" fill="#F4B14C"/>
<path d="M926.632 403.84C926.42 382.308 922.207 339.131 907.054 338.675C886.903 338.069 897.832 389.167 899.678 401.974L926.632 403.84Z" fill="#F4B14C"/>
<path d="M949.928 412.98C959.199 393.546 974.388 352.909 960.977 345.841C943.142 336.442 930.504 387.144 926.535 399.459L949.928 412.98Z" fill="#F4B14C"/>
<path d="M963.331 440.872C979.646 426.819 1009.92 395.744 1000.49 383.872C987.952 368.085 955.961 409.401 947.367 419.074L963.331 440.872Z" fill="#F4B14C"/>
<path d="M803.678 601.881C702.143 625.974 664.934 540.442 625.926 508.318C597.818 491.108 550.193 504.468 670.671 613.295C833.081 759.998 986.418 578.344 978.081 467.5C974.031 413.655 949.743 365.738 888.081 399.998C826.128 434.419 905.213 577.788 803.678 601.881Z" fill="#5E75EF"/>
<mask id="mask2" mask-type="alpha" maskUnits="userSpaceOnUse" x="592" y="388" width="387" height="281">
<path d="M803.678 601.881C702.143 625.974 664.934 540.442 625.926 508.318C597.818 491.108 550.193 504.468 670.671 613.295C833.081 759.998 986.418 578.344 978.081 467.5C974.031 413.655 949.743 365.738 888.081 399.998C826.128 434.419 905.213 577.788 803.678 601.881Z" fill="#5E75EF"/>
</mask>
<g mask="url(#mask2)">
<path d="M910.579 665C816.579 679 774.745 592.5 765.579 547.5L623.079 462.5C601.412 452.5 574.579 463 640.579 585C706.579 707 848.079 689.167 910.579 665Z" fill="#4D66EF"/>
</g>
<rect x="565.566" y="67.8906" width="40.23" height="90.1152" transform="rotate(31.0609 565.566 67.8906)" fill="#687DEF"/>
<mask id="mask3" mask-type="alpha" maskUnits="userSpaceOnUse" x="519" y="67" width="82" height="99">
<rect x="565.567" y="67.8906" width="40.23" height="90.1152" transform="rotate(31.0609 565.567 67.8906)" fill="#687DEF"/>
</mask>
<g mask="url(#mask3)">
<path d="M570.582 145L560.582 65L615.582 87.5L570.582 145Z" fill="#5A70EB"/>
</g>
<ellipse cx="594.564" cy="57.1769" rx="54.7128" ry="33.7932" transform="rotate(31.0609 594.564 57.1769)" fill="#6B81F3"/>
<mask id="mask4" mask-type="alpha" maskUnits="userSpaceOnUse" x="544" y="16" width="101" height="82">
<ellipse cx="594.562" cy="57.1769" rx="54.7128" ry="33.7932" transform="rotate(31.0609 594.562 57.1769)" fill="#627AF8"/>
</mask>
<g mask="url(#mask4)">
<ellipse cx="579.885" cy="77.1769" rx="54.7128" ry="33.7932" transform="rotate(31.0609 579.885 77.1769)" fill="#7489F9"/>
</g>
<path d="M263.734 623.528C266.805 606.387 270.02 589.399 273.149 572.86C278.475 544.715 283.556 517.868 287.266 493.776L542.319 414.746C554.912 431.651 569.676 450.032 585.293 469.476C609.207 499.248 635.122 531.513 658.308 564.784L695.26 594.583L676.159 591.545C679.004 596.026 681.779 600.517 684.472 605.016L701.283 615.235H690.438C703.684 638.531 714.527 661.953 721.432 685.016L746.027 715.049L726.67 706.338C728.307 714.984 729.309 723.557 729.593 732.031L742.585 755.491L729.426 745.402C728.84 755.191 727.207 764.826 724.394 774.263L731.399 809.7L718.775 789.392C715.855 795.908 712.308 802.313 708.086 808.594C627.158 928.984 368.782 956.502 287.266 898.027C260.036 878.493 248.734 841.599 246.514 796.212L239.209 809.699L246.103 781.062C246.072 776.466 246.12 771.799 246.241 767.068L239.209 773.559L246.816 752.702C247.617 737.78 249.048 722.336 250.925 706.609L240.93 710.745L255.995 669.706C257.191 661.904 258.458 654.079 259.775 646.259L247.814 653.094L263.734 623.528Z" fill="#778BF5"/>
<path d="M275.016 930.878C282.149 947.601 293.523 982.417 281.959 987.905C266.582 995.202 257.717 951.985 254.804 941.456C254.804 941.456 257.427 934.651 262.459 931.067C267.491 927.484 275.016 930.878 275.016 930.878Z" fill="#F4B14C"/>
<path d="M246.542 978.471C248.556 999.909 248.827 1043.29 233.802 1045.31C213.822 1048 219.412 996.041 219.924 983.113C219.924 983.113 225.338 976.382 232.308 974.155C239.277 971.927 246.542 978.471 246.542 978.471Z" fill="#F4B14C"/>
<path d="M214.903 974.113C216.603 992.213 216.832 1028.84 204.147 1030.54C187.278 1032.81 191.997 988.947 192.429 978.031C192.429 978.031 197.001 972.348 202.885 970.468C208.769 968.588 214.903 974.113 214.903 974.113Z" fill="#F4B14C"/>
<path d="M195.566 951.249C193.617 969.324 186.525 1005.26 173.755 1004.4C156.773 1003.25 170.159 961.209 172.763 950.6C172.763 950.6 178.378 945.945 184.519 945.278C190.66 944.611 195.566 951.249 195.566 951.249Z" fill="#F4B14C"/>
<path d="M210.578 992.5C133.627 998.419 178.911 708.333 238.078 580L278.082 585C270.582 615.833 243.082 667.5 255.582 777.5C271.148 914.482 308.077 985 210.578 992.5Z" fill="#5E75EF"/>
<mask id="mask5" mask-type="alpha" maskUnits="userSpaceOnUse" x="239" y="414" width="508" height="514">
<path d="M263.734 623.528C266.805 606.387 270.02 589.399 273.149 572.86C278.475 544.715 283.556 517.868 287.266 493.776L542.319 414.746C554.912 431.651 569.676 450.032 585.293 469.476C609.207 499.248 635.122 531.513 658.308 564.784L695.26 594.583L676.159 591.545C679.004 596.026 681.779 600.517 684.472 605.016L701.283 615.235H690.438C703.684 638.531 714.527 661.953 721.432 685.016L746.027 715.049L726.67 706.338C728.307 714.984 729.309 723.557 729.593 732.031L742.585 755.491L729.426 745.402C728.84 755.191 727.207 764.826 724.394 774.263L731.399 809.7L718.775 789.392C715.855 795.908 712.308 802.313 708.086 808.594C627.158 928.984 368.782 956.502 287.266 898.027C260.036 878.493 248.734 841.599 246.514 796.212L239.209 809.699L246.103 781.062C246.072 776.466 246.12 771.799 246.241 767.068L239.209 773.559L246.816 752.702C247.617 737.78 249.048 722.336 250.925 706.609L240.93 710.745L255.995 669.706C257.191 661.904 258.458 654.079 259.775 646.259L247.814 653.094L263.734 623.528Z" fill="#899BFB"/>
</mask>
<g mask="url(#mask5)">
<path d="M580.58 697.5C582.58 621.5 539.747 530.833 518.08 495L623.081 477.5L708.08 557.5L763.081 795C681.414 884.167 581.582 924 455.582 940C298.082 960 35.5803 767.5 223.08 865C410.58 962.5 578.08 792.5 580.58 697.5Z" fill="#5E75EF"/>
</g>
<path d="M256.803 137.649L216.837 145.42L279.666 119.683C281.671 118.287 283.697 116.922 285.743 115.589L216.837 99.815L308.046 95.5126C289.403 78.5901 253.149 44.7451 257.279 44.7451C261.409 44.7451 323.822 64.8227 354.512 74.8614L435.395 30.1172L412.163 74.8614L493.907 58.5126L469.814 83.4661L529.186 79.1638L498.558 97.8394C562.354 120.967 621.965 164.035 665.031 211.519L713.081 230L688.081 235L730.581 265H713.081L763.081 320L735.581 310L748.081 355L732.372 348.454C731.118 461.844 669.535 508.94 499.836 559.722C352.828 603.714 248.886 614.052 186.32 543.523L180.581 555L161.352 506.928C161.049 506.355 160.748 505.779 160.448 505.199L145.581 527.5L148.081 475L133.081 485L140.422 418.932C137.239 325.482 178.049 207.04 256.803 137.649Z" fill="#95A5FF"/>
<mask id="mask6" mask-type="alpha" maskUnits="userSpaceOnUse" x="133" y="30" width="631" height="565">
<path d="M256.803 137.649L216.837 145.42L279.666 119.683C281.671 118.287 283.697 116.922 285.743 115.589L216.837 99.815L308.046 95.5126C289.403 78.5901 253.149 44.7451 257.279 44.7451C261.409 44.7451 323.822 64.8227 354.512 74.8614L435.395 30.1172L412.163 74.8614L493.907 58.5126L469.814 83.4661L529.186 79.1638L498.558 97.8394C562.354 120.967 621.965 164.035 665.031 211.519L713.081 230L688.081 235L730.581 265H713.081L763.081 320L735.581 310L748.081 355L732.372 348.454C731.118 461.844 669.535 508.94 499.836 559.722C352.828 603.714 248.886 614.052 186.32 543.523L180.581 555L161.352 506.928C161.049 506.355 160.748 505.779 160.448 505.199L145.581 527.5L148.081 475L133.081 485L140.422 418.932C137.239 325.482 178.049 207.04 256.803 137.649Z" fill="#95A5FF"/>
</mask>
<g mask="url(#mask6)">
<path d="M645.581 322.5C635.581 206.5 564.748 127.5 530.581 102.5L680.581 125L813.081 265L785.581 462.5L545.581 597.5C471.414 606.667 306.081 622 238.081 610C170.081 598 159.748 556.667 163.081 537.5C350.581 645 658.081 467.5 645.581 322.5Z" fill="#8293F5"/>
</g>
<ellipse cx="481.568" cy="225.355" rx="80.3419" ry="100.427" transform="rotate(-25.7429 481.568 225.355)" fill="#6577E0"/>
<ellipse cx="359.791" cy="271.011" rx="58.3307" ry="72.9134" transform="rotate(-25.7429 359.791 271.011)" fill="#6577E0"/>
<ellipse cx="470.053" cy="231.295" rx="58.5117" ry="73.1396" transform="rotate(-25.7428 470.053 231.295)" fill="white"/>
<ellipse cx="365.934" cy="264.19" rx="42.4814" ry="53.1017" transform="rotate(-25.7429 365.934 264.19)" fill="white"/>
<ellipse rx="15.5915" ry="19.4894" transform="matrix(0.900752 -0.434333 -0.434333 -0.900752 371.859 265.255)" fill="#5A5A70"/>
<ellipse rx="15.5915" ry="19.4894" transform="matrix(0.900752 -0.434333 -0.434333 -0.900752 447.674 241.769)" fill="#5A5A70"/>
<path d="M286.953 451.264C280.076 446.06 285.272 404.785 288.73 384.798C310.336 401.44 334.734 413.637 344.231 417.656C328.004 431.027 293.83 456.468 286.953 451.264Z" fill="white"/>
<path d="M246.094 345.908C286.536 392.087 410.787 496.146 591.141 398.397" stroke="#3B50C1" stroke-width="5.005" stroke-linecap="round" stroke-linejoin="round"/>
<path d="M122.246 188.245L147.742 153.59L225.369 210.7C225.369 210.7 230.581 222.5 223.081 232.5C215.581 242.5 199.874 245.355 199.874 245.355L122.246 188.245Z" fill="#687DEF"/>
<mask id="mask7" mask-type="alpha" maskUnits="userSpaceOnUse" x="122" y="153" width="106" height="93">
<path d="M122.246 188.244L147.742 153.589L225.369 210.699C225.369 210.699 230.581 222.499 223.081 232.499C215.581 242.499 199.874 245.354 199.874 245.354L122.246 188.244Z" fill="#687DEF"/>
</mask>
<g mask="url(#mask7)">
<path d="M220.581 259.999L145.581 154.999L150.581 142.499L243.081 202.499L220.581 259.999Z" fill="#5A71EB"/>
</g>
<ellipse cx="113.692" cy="156.314" rx="58.5117" ry="36.1396" transform="rotate(-53.6582 113.692 156.314)" fill="#7D92FF"/>
<ellipse cx="109.195" cy="146.918" rx="29.4114" ry="13.8854" transform="rotate(-53.6581 109.195 146.918)" fill="#657CF1"/>
</svg>
