<svg xmlns="http://www.w3.org/2000/svg" xmlns:xlink="http://www.w3.org/1999/xlink" viewBox="0 0 819 549.54"><defs><clipPath id="clip-path" transform="translate(0.21)"><path d="M793.57,139.77s-37.44,57.48-12,121.66L379.13,536.83,35.55,349.66S-15.26,268.11,24.85,236L613.09,118.38Z" style="fill:#ffe3ab"/></clipPath><clipPath id="clip-path-2" transform="translate(0.21)"><path d="M361.75,395.12S331,451.69,380.47,531.48c16.32,26.31,68.32-28.69,68.32-28.69l351-244-7-119Z" style="fill:#ffe3ab"/></clipPath><clipPath id="clip-path-3" transform="translate(0.21)"><path d="M447.31.41l354.28,134L355.06,415.17,4.8,236,442.12.75A6.24,6.24,0,0,1,447.31.41Z" style="fill:#ffd522"/></clipPath></defs><g id="Layer_2" data-name="Layer 2"><g id="Layer_3" data-name="Layer 3"><g id="Layer_4" data-name="Layer 4"><path d="M439.29,93,799.4,259.08a1.38,1.38,0,0,1,.2,2.38L382.4,548.86a3.82,3.82,0,0,1-4,.21L35.55,361.69Z" transform="translate(0.21)" style="fill:#f4a70f"/><path d="M16.83,233.35,4.8,236s-22.73,69.52,30.75,125.67H71.64L38.22,233.35Z" transform="translate(0.21)" style="fill:#f78f1e"/><path d="M793.57,139.77s-37.44,57.48-12,121.66L379.13,536.83,35.55,349.66S-15.26,268.11,24.85,236L613.09,118.38Z" transform="translate(0.21)" style="fill:#ffe3ab"/><g style="clip-path:url(#clip-path)"><polygon points="337.89 321.59 95 393.79 382 548.79 451.53 371.05 337.89 321.59" style="fill:#f7d39a"/><path d="M361.75,395.12S331,451.69,380.47,531.48c16.32,26.31,68.32-28.69,68.32-28.69l351-244-7-119Z" transform="translate(0.21)" style="fill:#ffe3ab"/><g style="clip-path:url(#clip-path-2)"><polygon points="650 220.79 588 410.79 800 258.79 802 118.79 650 220.79" style="fill:#f7d39a"/></g></g><path d="M801.59,134.42a25.25,25.25,0,0,1,1.2,4.37,17.36,17.36,0,0,1-1.2,5L354.7,429.33,2.9,243.55,4.8,236Z" transform="translate(0.21)" style="fill:#f2a814"/><path d="M447.31.41l354.28,134L355.06,415.17,4.8,236,442.12.75A6.24,6.24,0,0,1,447.31.41Z" transform="translate(0.21)" style="fill:#ffd522"/><g style="clip-path:url(#clip-path-3)"><path d="M732.79,100.79s-321.23,212.83-733,154l352,190,467-311Z" transform="translate(0.21)" style="fill:#ffba1f;opacity:0.6000000000000001"/></g><polygon points="351.26 126.4 447.52 68.91 646.71 147.79 538.43 211.96 351.26 126.4" style="fill:#fff;opacity:0.49"/><path d="M375.63,447c18.3-13,36.43-26.05,54.42-39.46,17.49-13,35.24-26.1,52-40,.7-.58-.21-1.75-1-1.25-18.61,12.35-36.62,25.91-54.56,39.21-17.62,13.06-35,26.36-52.23,39.84-1,.75.3,2.4,1.3,1.69Z" transform="translate(0.21)" style="fill:#efc689"/><path d="M385.94,485.11a622,622,0,0,0,67.44-49.19c.24-.19-.1-.51-.33-.33-22,17-44.61,33.05-67.65,48.59-.57.39,0,1.3.54.93Z" transform="translate(0.21)" style="fill:#efc689"/><path d="M525.86,392.7c33.75-20.43,67.51-40.81,98.75-65,15.63-12.11,31-24.69,47.73-35.27,14.91-9.42,30.88-16.88,46.51-25,16.78-8.7,33-18.82,46.76-31.85.42-.4-.2-1-.63-.63a191.72,191.72,0,0,1-43.82,28.86c-15.35,7.48-30.8,14.66-45.37,23.62-15.74,9.68-30.31,21-44.84,32.4-15.92,12.46-32.05,24.56-48.81,35.89-18.59,12.56-37.56,24.56-56.59,36.43-.33.2,0,.73.31.52Z" transform="translate(0.21)" style="fill:#efc689"/><path d="M677.91,259.55c4.08-2.95,8.18-5.86,12.2-8.88.63-.48,0-1.56-.64-1.1-4.16,2.82-8.24,5.75-12.34,8.64-.81.57,0,1.92.78,1.34Z" transform="translate(0.21)" style="fill:#efc689"/><path d="M721.68,223.33a364.91,364.91,0,0,1,43.87-36.44c.73-.52,0-1.73-.71-1.21a317.66,317.66,0,0,0-43.82,37,.47.47,0,0,0,.66.67Z" transform="translate(0.21)" style="fill:#efc689"/><path d="M494.89,384.61c11.83-9.27,24.2-17.83,36.56-26.38.49-.33,0-1.12-.48-.81a315.71,315.71,0,0,0-36.81,26.46c-.52.42.21,1.13.73.73Z" transform="translate(0.21)" style="fill:#efc689"/><path d="M570.65,329.17a.21.21,0,0,0,0-.42.21.21,0,0,0,0,.42Z" transform="translate(0.21)" style="fill:#efc689"/><path d="M557.07,343.72c17.58-11.53,35-23.25,52.66-34.69s36.12-21.81,53-34.21a.63.63,0,0,0-.64-1.09c-18.47,9.74-35.85,22.23-53.35,33.6s-35.24,22.92-52.56,34.85c-.93.65-.06,2.18.9,1.54Z" transform="translate(0.21)" style="fill:#efc689"/><path d="M601.61,370.64a735.49,735.49,0,0,0,88.54-59.76c.62-.49-.22-1.58-.86-1.1a1057.58,1057.58,0,0,1-88.37,59.68.68.68,0,0,0,.69,1.18Z" transform="translate(0.21)" style="fill:#efc689"/><path d="M478.05,456.4c5.55-3.51,11.1-7,16.58-10.61.55-.37,0-1.25-.52-.89-5.57,3.47-11.06,7.07-16.56,10.65-.53.35,0,1.19.5.85Z" transform="translate(0.21)" style="fill:#efc689"/><path d="M540.87,413.22a.17.17,0,0,0,0-.33.17.17,0,0,0,0,.33Z" transform="translate(0.21)" style="fill:#efc689"/><path d="M71.24,300.41C79.62,302.48,87,306.6,94.34,311c8,4.87,16.08,9.7,24.09,14.59,15.89,9.69,31.68,19.53,47.7,29,.63.37,1.17-.58.57-1-16.15-10.51-32.54-20.64-49-30.64-14.43-8.77-29.42-19.94-46.17-23.65-.67-.14-1,.88-.28,1Z" transform="translate(0.21)" style="fill:#efc689"/><path d="M56.67,342.54q30.45,16.36,61.1,32.32c20.37,10.6,40.78,21.8,61.85,30.94.46.2.86-.43.41-.68-20-11.31-41.07-21.05-61.57-31.43s-41.07-21-61.5-31.63c-.32-.17-.61.31-.29.48Z" transform="translate(0.21)" style="fill:#efc689"/><path d="M222.84,399c34.6,15.42,68.15,33.15,102.83,48.35.92.4,1.73-.86.81-1.38-33-18.53-68.52-32.93-103.37-47.61-.36-.15-.63.48-.27.64Z" transform="translate(0.21)" style="fill:#efc689"/><path d="M254.58,449.51c16.6,8.07,32.84,16.85,49.42,24.95s32.75,17.26,49.5,24.94c1.46.67,2.73-1.37,1.28-2.18-16-9.05-33.14-16.57-49.65-24.69s-33.67-15.4-50.52-23.07c0,0-.06,0,0,.05Z" transform="translate(0.21)" style="fill:#efc689"/><path d="M177.3,385.06q27.55,14.71,55.71,28.27c18.23,8.76,36.52,17.63,55.42,24.87.74.28,1.26-.95.54-1.29-18.6-8.64-37.58-16.44-56.15-25.16s-36.93-17.88-55.09-27.42c-.48-.26-.91.47-.43.73Z" transform="translate(0.21)" style="fill:#efc689"/><path d="M168.35,348.69c24.55,10.66,48.19,23.43,72.83,33.84.65.27,1.21-.6.57-1-23-13.5-48.53-23.33-73.2-33.34-.27-.11-.47.36-.2.47Z" transform="translate(0.21)" style="fill:#efc689"/></g></g></g></svg>