<svg width="1000" height="1000" viewBox="0 0 1000 1000" fill="none" xmlns="http://www.w3.org/2000/svg">
<path d="M189.433 155.777C-90.5388 286.562 35.7305 395.478 30.0653 536.389C25.3017 654.875 -24.7583 679.016 103.91 793.155C264.745 935.829 555.041 1003.21 751.617 961.598C948.193 919.985 1029.35 672.97 981.695 518.407C934.04 363.843 1100.56 185.389 892.066 96.2183C683.576 7.04719 469.405 24.993 189.433 155.777Z" fill="#F7F7FF"/>
<path d="M75.2589 623.833C15.9506 538.58 137.824 389.632 236.966 396.486C281.535 399.567 272.048 427.161 291.991 454.618C314.668 485.837 357.672 479.817 362.828 516.108C362.682 569.903 313.79 550.856 249.147 580.494C191.885 606.748 134.567 709.086 75.2589 623.833Z" fill="#A5ACE8"/>
<mask id="mask0" mask-type="alpha" maskUnits="userSpaceOnUse" x="6" y="352" width="372" height="354">
<path d="M75.2592 623.832C15.9509 538.579 137.825 389.632 236.966 396.485C281.535 399.566 272.048 427.161 291.992 454.617C314.668 485.836 357.672 479.817 362.828 516.108C362.682 569.902 313.79 550.856 249.147 580.494C191.885 606.747 134.567 709.085 75.2592 623.832Z" fill="#D1D5F4"/>
</mask>
<g mask="url(#mask0)">
<path d="M75.2592 646.476C15.9509 561.223 137.825 412.275 236.966 419.129C281.535 422.21 272.048 449.805 291.992 477.261C314.668 508.48 357.672 502.46 362.828 538.752C362.682 592.546 313.79 573.5 249.147 603.138C191.885 629.391 134.567 731.729 75.2592 646.476Z" fill="#D1D5F4"/>
</g>
<path d="M86.246 564.871L102.615 553.141C109.408 548.273 114.973 545.81 119.31 545.753C123.647 545.696 127.166 547.552 129.867 551.321C131.343 553.381 132.227 555.401 132.518 557.381C132.778 559.318 132.637 561.11 132.094 562.76C131.595 564.377 130.864 565.764 129.901 566.918L130.136 567.247C131.627 566.643 133.275 566.258 135.08 566.092C136.885 565.927 138.737 566.29 140.638 567.184C142.551 568.002 144.402 569.66 146.192 572.158C149.239 576.409 150.042 580.908 148.601 585.655C147.161 590.402 143.68 594.754 138.158 598.711L119.883 611.808L86.246 564.871ZM111.842 573.791L115.654 571.059C117.758 569.551 118.912 568.061 119.117 566.587C119.365 565.083 119.049 563.717 118.17 562.49C116.286 559.86 113.349 559.975 109.361 562.833L105.811 565.377L111.842 573.791ZM118.484 583.06L125.551 592.921L130.021 589.717C132.212 588.147 133.416 586.587 133.633 585.039C133.819 583.447 133.393 581.927 132.357 580.481C131.446 579.21 130.207 578.407 128.639 578.071C127.041 577.691 125.058 578.349 122.691 580.045L118.484 583.06Z" fill="#202842"/>
<path d="M151.452 570.08L144.291 560.088L162.435 547.086L169.596 557.078L151.452 570.08Z" fill="#202842"/>
<path d="M213.9 544.431L205.286 537.271L190.035 548.201L193.981 558.706L180.045 568.693L161.584 510.582L178.478 498.475L227.771 534.491L213.9 544.431ZM195.213 528.769L187.664 522.538C186.848 521.863 185.693 520.899 184.199 519.648C182.674 518.353 181.118 517.014 179.53 515.631C177.942 514.249 176.662 513.11 175.689 512.215C176.267 513.393 176.925 514.911 177.661 516.772C178.441 518.601 179.183 520.424 179.888 522.24C180.637 524.025 181.256 525.538 181.747 526.778L185.221 535.93L195.213 528.769Z" fill="#202842"/>
<path d="M220.079 520.9L212.918 510.907L231.062 497.905L238.222 507.897L220.079 520.9Z" fill="#202842"/>
<path d="M271.809 502.931L259.121 512.024L232.928 475.474L221.49 483.671L214.046 473.284L249.61 447.798L257.054 458.184L245.615 466.381L271.809 502.931Z" fill="#202842"/>
<ellipse cx="453.618" cy="505.965" rx="52.4666" ry="63.8724" transform="rotate(80.7326 453.618 505.965)" fill="#A5ACE8"/>
<ellipse cx="276.81" cy="333.019" rx="38.3479" ry="46.425" transform="rotate(27.2443 276.81 333.019)" fill="#A5ACE8"/>
<ellipse cx="382.133" cy="391.276" rx="54.9053" ry="53.9874" transform="rotate(52.9084 382.133 391.276)" fill="#A5ACE8"/>
<mask id="mask1" mask-type="alpha" maskUnits="userSpaceOnUse" x="390" y="453" width="128" height="106">
<ellipse cx="453.617" cy="505.965" rx="52.4666" ry="63.8724" transform="rotate(80.7326 453.617 505.965)" fill="#A5ACE8"/>
</mask>
<g mask="url(#mask1)">
<ellipse cx="453.617" cy="524.043" rx="52.4666" ry="63.8724" transform="rotate(80.7326 453.617 524.043)" fill="#D1D5F4"/>
</g>
<mask id="mask2" mask-type="alpha" maskUnits="userSpaceOnUse" x="221" y="274" width="112" height="118">
<ellipse cx="276.81" cy="333.019" rx="38.3479" ry="46.425" transform="rotate(27.2443 276.81 333.019)" fill="#A5ACE8"/>
</mask>
<g mask="url(#mask2)">
<ellipse cx="276.81" cy="351.097" rx="38.3479" ry="46.425" transform="rotate(27.2443 276.81 351.097)" fill="#D1D5F4"/>
</g>
<mask id="mask3" mask-type="alpha" maskUnits="userSpaceOnUse" x="305" y="314" width="154" height="154">
<ellipse cx="382.132" cy="391.276" rx="54.9053" ry="53.9874" transform="rotate(52.9084 382.132 391.276)" fill="#A5ACE8"/>
</mask>
<g mask="url(#mask3)">
<ellipse cx="382.133" cy="409.354" rx="54.9053" ry="53.9874" transform="rotate(52.9084 382.133 409.354)" fill="#D1D5F4"/>
</g>
<path d="M567.172 460.963C509.284 385.144 615.063 243.511 706.317 245.77C747.34 246.786 739.756 272.493 759.173 296.877C781.251 324.603 820.467 317.331 826.674 350.423C828.726 399.792 783.088 384.302 724.974 414.126C673.497 440.545 625.06 536.783 567.172 460.963Z" fill="#A5ACE8"/>
<mask id="mask4" mask-type="alpha" maskUnits="userSpaceOnUse" x="550" y="255" width="277" height="245">
<path d="M567.171 470.478C509.282 394.658 615.062 253.026 706.316 255.285C747.339 256.301 739.755 282.008 759.172 306.392C781.249 334.117 820.466 326.846 826.672 359.938C828.725 409.307 783.086 393.817 724.973 423.641C673.495 450.06 625.059 546.297 567.171 470.478Z" fill="#D1D5F4"/>
</mask>
<g mask="url(#mask4)">
<path d="M567.171 482.847C509.283 407.027 615.063 265.395 706.316 267.654C747.34 268.67 739.756 294.377 759.172 318.761C781.25 346.486 820.467 339.214 826.673 372.307C828.726 421.676 783.087 406.186 724.974 436.01C673.496 462.428 625.06 558.666 567.171 482.847Z" fill="#D1D5F4"/>
</g>
<path d="M593.633 412.935C590.653 415.072 589.189 417.98 589.241 421.659C589.292 425.338 590.889 429.368 594.031 433.749C597.205 438.174 600.479 440.935 603.853 442.031C607.196 443.084 610.598 442.369 614.059 439.886C616.118 438.409 617.908 436.695 619.427 434.743C620.99 432.759 622.459 430.644 623.833 428.397L631.516 439.109C630.117 441.506 628.464 443.687 626.556 445.653C624.723 447.631 622.581 449.5 620.127 451.26C615.045 454.905 610.16 456.883 605.472 457.193C600.785 457.503 596.386 456.412 592.275 453.919C588.134 451.383 584.366 447.749 580.972 443.017C577.578 438.285 575.453 433.473 574.597 428.579C573.741 423.686 574.262 419 576.158 414.521C578.067 409.967 581.453 405.946 586.316 402.457C588.594 400.823 591.171 399.373 594.045 398.108C596.919 396.842 599.97 395.915 603.197 395.326L606.484 408.096C604.179 408.489 601.961 409.051 599.831 409.783C597.67 410.47 595.604 411.521 593.633 412.935Z" fill="#202842"/>
<path d="M629.362 424.531L622.197 414.542L640.335 401.532L647.5 411.521L629.362 424.531Z" fill="#202842"/>
<path d="M691.799 398.855L683.182 391.699L667.936 402.635L671.886 413.138L657.954 423.132L639.468 365.029L656.358 352.914L705.665 388.909L691.799 398.855ZM673.106 383.201L665.553 376.974C664.737 376.298 663.582 375.335 662.088 374.085C660.562 372.79 659.005 371.452 657.416 370.07C655.828 368.688 654.547 367.55 653.574 366.656C654.153 367.833 654.811 369.351 655.548 371.211C656.329 373.04 657.072 374.862 657.777 376.679C658.527 378.464 659.147 379.976 659.639 381.216L663.116 390.366L673.106 383.201Z" fill="#202842"/>
<path d="M697.967 375.321L690.802 365.332L708.941 352.322L716.106 362.311L697.967 375.321Z" fill="#202842"/>
<path d="M749.69 357.331L737.006 366.429L710.797 329.89L699.363 338.092L691.915 327.708L727.468 302.207L734.916 312.59L723.481 320.792L749.69 357.331Z" fill="#202842"/>
<ellipse cx="909.573" cy="337.425" rx="48.192" ry="58.6685" transform="rotate(78.1962 909.573 337.425)" fill="#A5ACE8"/>
<mask id="mask5" mask-type="alpha" maskUnits="userSpaceOnUse" x="842" y="293" width="135" height="119">
<ellipse cx="909.572" cy="352.648" rx="48.192" ry="58.6685" transform="rotate(78.1962 909.572 352.648)" fill="#D1D5F4"/>
</mask>
<g mask="url(#mask5)">
<ellipse cx="909.572" cy="337.424" rx="48.192" ry="58.6685" transform="rotate(78.1962 909.572 337.424)" fill="#D1D5F4"/>
</g>
<ellipse cx="740.299" cy="185.912" rx="35.2235" ry="42.6425" transform="rotate(24.7078 740.299 185.912)" fill="#A5ACE8"/>
<mask id="mask6" mask-type="alpha" maskUnits="userSpaceOnUse" x="703" y="155" width="74" height="84">
<ellipse cx="740.299" cy="197.33" rx="35.2236" ry="42.6425" transform="rotate(24.7078 740.299 197.33)" fill="#D1D5F4"/>
</mask>
<g mask="url(#mask6)">
<ellipse cx="740.299" cy="185.913" rx="35.2236" ry="42.6425" transform="rotate(24.7078 740.299 185.913)" fill="#D1D5F4"/>
</g>
<ellipse cx="839.314" cy="235.089" rx="50.4319" ry="49.5888" transform="rotate(50.372 839.314 235.089)" fill="#A5ACE8"/>
<mask id="mask7" mask-type="alpha" maskUnits="userSpaceOnUse" x="768" y="176" width="142" height="142">
<ellipse cx="839.314" cy="247.458" rx="50.4319" ry="49.5888" transform="rotate(50.372 839.314 247.458)" fill="#D1D5F4"/>
</mask>
<g mask="url(#mask7)">
<ellipse cx="839.314" cy="235.089" rx="50.4319" ry="49.5888" transform="rotate(50.372 839.314 235.089)" fill="#D1D5F4"/>
</g>
<path d="M412.464 730.03C414.511 825.4 585.535 870.12 655.451 811.434C686.882 785.052 664.919 769.689 664.885 738.519C664.847 703.077 700.035 684.299 684.245 654.562C655.054 614.694 629.045 655.269 565.019 668.207C508.305 679.668 410.417 634.66 412.464 730.03Z" fill="#A5ACE8"/>
<mask id="mask8" mask-type="alpha" maskUnits="userSpaceOnUse" x="414" y="656" width="277" height="202">
<path d="M414.933 749.372C416.981 844.742 588.004 889.462 657.92 830.776C689.351 804.394 667.388 789.031 667.355 757.861C667.317 722.419 702.505 703.641 686.714 673.904C657.524 634.036 631.514 674.611 567.489 687.549C510.774 699.01 412.886 654.002 414.933 749.372Z" fill="#D1D5F4"/>
</mask>
<g mask="url(#mask8)">
<path d="M412.463 730.031C414.511 825.401 585.534 870.121 655.45 811.435C686.881 785.052 664.918 769.69 664.885 738.519C664.847 703.077 700.035 684.299 684.244 654.563C655.054 614.695 629.044 655.269 565.019 668.208C508.304 679.668 410.416 634.661 412.463 730.031Z" fill="#D1D5F4"/>
</g>
<path d="M465 711.236C480.684 710.791 488.687 716.254 489.01 727.626C489.11 731.129 488.307 734.199 486.602 736.837C484.949 739.419 482.638 741.615 479.669 743.425L497.199 768.09L479.494 768.593L466.69 747.921L462.729 748.033L463.326 769.052L447.723 769.496L446.083 711.774L465 711.236ZM465.093 723.046L462.021 723.134L462.396 736.311L465.306 736.228C467.677 736.161 469.603 735.594 471.083 734.527C472.615 733.404 473.343 731.496 473.267 728.801C473.213 726.915 472.552 725.477 471.283 724.489C470.013 723.446 467.95 722.965 465.093 723.046Z" fill="#202842"/>
<path d="M497.466 752.548L497.117 740.26L519.429 739.626L519.779 751.914L497.466 752.548Z" fill="#202842"/>
<path d="M563.58 766.203L560.443 755.451L541.688 755.984L539.085 766.9L521.946 767.387L539.136 708.887L559.912 708.297L580.638 765.719L563.58 766.203ZM556.846 742.77L554.071 733.382C553.773 732.366 553.354 730.922 552.816 729.049C552.275 727.123 551.734 725.142 551.19 723.108C550.647 721.074 550.222 719.414 549.916 718.128C549.737 719.427 549.433 721.054 549.003 723.008C548.627 724.961 548.223 726.887 547.792 728.787C547.414 730.686 547.082 732.286 546.796 733.589L544.558 743.119L556.846 742.77Z" fill="#202842"/>
<path d="M581.861 750.15L581.512 737.862L603.825 737.228L604.174 749.516L581.861 750.15Z" fill="#202842"/>
<path d="M634.795 764.18L619.193 764.623L617.915 719.675L603.849 720.074L603.486 707.301L647.222 706.059L647.585 718.832L633.518 719.231L634.795 764.18Z" fill="#202842"/>
<ellipse rx="48.1919" ry="58.6685" transform="matrix(-0.450686 -0.892683 -0.892683 0.450686 757.147 613.013)" fill="#A5ACE8"/>
<ellipse rx="35.2235" ry="42.6425" transform="matrix(0.44933 -0.893366 -0.893366 -0.449329 719.349 837.024)" fill="#A5ACE8"/>
<ellipse rx="50.4319" ry="49.5888" transform="matrix(0.0180896 -0.999836 -0.999836 -0.0180896 766.066 736.825)" fill="#A5ACE8"/>
<mask id="mask9" mask-type="alpha" maskUnits="userSpaceOnUse" x="701" y="571" width="115" height="102">
<ellipse rx="48.192" ry="58.6685" transform="matrix(-0.450686 -0.892682 -0.892683 0.450685 758.352 622.451)" fill="#D1D5F4"/>
</mask>
<g mask="url(#mask9)">
<ellipse rx="48.192" ry="58.6685" transform="matrix(-0.450686 -0.892683 -0.892683 0.450686 758.649 624.018)" fill="#D1D5F4"/>
</g>
<mask id="mask10" mask-type="alpha" maskUnits="userSpaceOnUse" x="679" y="809" width="83" height="75">
<ellipse rx="35.2235" ry="42.6425" transform="matrix(0.44933 -0.893366 -0.893366 -0.449329 720.554 846.462)" fill="#D1D5F4"/>
</mask>
<g mask="url(#mask10)">
<ellipse rx="35.2236" ry="42.6425" transform="matrix(0.449329 -0.893366 -0.893366 -0.44933 720.887 847.934)" fill="#D1D5F4"/>
</g>
<mask id="mask11" mask-type="alpha" maskUnits="userSpaceOnUse" x="717" y="695" width="100" height="102">
<ellipse rx="50.4319" ry="49.5888" transform="matrix(0.0180896 -0.999836 -0.999836 -0.0180896 767.271 746.263)" fill="#D1D5F4"/>
</mask>
<g mask="url(#mask11)">
<ellipse rx="50.4319" ry="49.5888" transform="matrix(0.0180896 -0.999836 -0.999836 -0.0180896 768.34 750.977)" fill="#D1D5F4"/>
</g>
</svg>
