<svg width="1000" height="1000" viewBox="0 0 1000 1000" fill="none" xmlns="http://www.w3.org/2000/svg">
<path d="M367.698 546.028C386.101 540.952 400.612 540.909 411.231 545.902C421.85 550.894 429.191 560.751 433.252 575.474C441.601 605.738 427.985 625.777 392.405 635.592L179.538 694.314C143.958 704.129 121.993 693.905 113.645 663.642C109.583 648.919 110.831 636.692 117.389 626.962C123.946 617.231 136.427 609.827 154.83 604.75L204.52 591.043L143.429 369.588L102.306 411.958C96.4822 417.966 89.8894 421.985 82.528 424.015C71.0769 427.174 59.9079 424.974 49.0209 417.416C38.0211 409.448 30.829 399.329 27.4444 387.06C22.8188 370.293 26.4784 355.64 38.423 343.104L120.837 258.976C136.011 243.788 151.573 233.994 167.522 229.594C183.881 225.081 198.322 226.379 210.845 233.486C223.777 240.481 232.555 252.362 237.181 269.13L317.395 559.905L367.698 546.028Z" fill="#FF5148"/>
<path d="M671.71 401.652C690.168 404.434 703.233 410.264 710.905 419.142C719.06 427.664 721.968 439.686 719.629 455.208C717.227 471.149 710.842 482.2 700.475 488.361C690.528 494.584 676.325 496.305 657.866 493.524L428.187 458.915C413.084 456.639 401.792 450.433 394.31 440.296C386.891 429.739 384.225 417.539 386.311 403.695C389.029 385.656 398.626 370.37 415.101 357.837L569.46 238.872C601.509 214.098 619.367 189.546 623.033 165.214C625.182 150.951 622.631 139.412 615.378 130.596C608.546 121.844 597.578 116.33 582.476 114.055C570.31 112.221 558.699 112.402 547.643 114.598C537.069 116.437 524.564 119.701 510.128 124.39L496.595 128.786C494.79 129.372 491.15 130.754 485.673 132.932C480.68 134.754 476.2 136.01 472.235 136.699C468.27 137.389 464.189 137.418 459.994 136.785C449.507 135.205 441.392 129.263 435.652 118.959C429.974 108.236 428.115 96.3721 430.074 83.3674C431.465 74.1382 433.861 66.7768 437.263 61.2829C441.085 55.8524 447.151 51.1889 455.46 47.2927C477.2 36.8395 500.804 29.6705 526.274 25.7858C552.162 21.9643 577.063 21.8551 600.974 25.4582C632.018 30.136 658.496 39.4887 680.408 53.5164C702.383 67.1245 718.209 84.5253 727.887 105.719C738.047 126.556 741.262 149.351 737.532 174.101C733.676 199.691 724.893 222.394 711.181 242.208C697.952 261.666 677.003 282.535 648.333 304.815L545.229 382.593L671.71 401.652Z" fill="#4A82FF"/>
<path d="M836.352 795.436C848.596 818.427 852.738 841.593 848.776 864.933C845.109 888.578 833.529 909.85 814.034 928.749C795.454 946.762 774.438 957.387 750.986 960.624C727.534 963.861 702.994 959.88 677.366 948.683C652.338 937.494 627.864 919.563 603.945 894.891C584.75 875.092 568.883 853.545 556.343 830.249C544.108 806.658 536.519 783.288 533.578 760.141C532.518 751.124 533.086 743.483 535.283 737.216C537.785 730.654 542.082 724.421 548.174 718.515C557.616 709.36 568.046 704.272 579.463 703.248C591.184 701.93 600.736 705.078 608.118 712.693C612.252 716.957 615.182 721.503 616.908 726.33C618.937 730.862 621.235 737.498 623.8 746.238C624.372 748.047 624.939 750.156 625.502 752.565C626.664 754.983 627.822 757.702 628.975 760.72C633.552 775.192 638.16 787.564 642.801 797.837C648.042 808.118 655.388 818.133 664.837 827.88C681.374 844.937 695.927 854.464 708.497 856.459C721.363 858.758 734.192 853.707 746.985 841.304C758.864 829.787 763.702 817.711 761.497 805.076C759.293 792.441 749.775 777.443 732.943 760.081L705.48 731.753C696.621 722.615 692.879 712.357 694.256 700.977C695.632 689.598 700.737 679.626 709.57 671.062C718.404 662.499 728.529 657.705 739.945 656.682C751.362 655.659 761.5 659.716 770.359 668.854L789.849 688.958C806.09 705.711 820.339 715.532 832.595 718.422C844.851 721.312 856.31 717.59 866.97 707.254C878.241 696.328 883.673 684.561 883.269 671.954C883.168 659.052 877.36 646.661 865.843 634.782C857.575 626.253 848.379 619.51 838.255 614.553C828.426 609.9 816.798 605.22 803.37 600.511L789.499 595.346C780.843 592.511 774.129 590.157 769.357 588.283C764.891 586.114 760.59 582.897 756.456 578.633C749.073 571.018 746.07 561.52 747.447 550.141C749.128 538.466 754.69 528.052 764.132 518.897C770.529 512.696 776.893 508.594 783.224 506.592C789.556 504.59 797.211 504.259 806.191 505.598C828.636 509.246 851.164 517.246 873.774 529.597C896.679 542.253 916.991 557.719 934.709 575.995C956.561 598.535 972.101 621.877 981.327 646.022C990.849 670.471 993.338 693.761 988.795 715.892C984.547 738.328 973.59 758.11 955.923 775.237C939.17 791.479 920.115 801.384 898.759 804.953C878.002 808.532 857.199 805.359 836.352 795.436Z" fill="#942EE4"/>
</svg>
