<svg width="1000" height="1000" viewBox="0 0 1000 1000" fill="none" xmlns="http://www.w3.org/2000/svg">
<ellipse cx="499.055" cy="845.696" rx="233.931" ry="43.5221" fill="#DBDBEE"/>
<path d="M461.639 845.138C436.632 827.675 387.599 800.798 391.529 832.999C395.46 865.199 439.907 854.508 461.639 845.138Z" fill="#161E33"/>
<path d="M461.645 764.201L461.639 845.138M461.639 845.138C436.632 827.675 387.599 800.798 391.529 832.999C395.46 865.199 439.907 854.508 461.639 845.138Z" stroke="#161E33" stroke-width="17.707"/>
<path d="M529.929 845.127C554.937 827.663 603.97 800.787 600.039 832.987C596.108 865.188 551.661 854.497 529.929 845.127Z" fill="#161E33"/>
<path d="M529.924 764.801L529.929 845.127M529.929 845.127C554.937 827.663 603.97 800.787 600.039 832.987C596.108 865.188 551.661 854.497 529.929 845.127Z" stroke="#161E33" stroke-width="17.707"/>
<path d="M424.703 114.286C418.027 114.286 412.613 119.699 412.613 126.375V355.471H183.518C176.842 355.471 171.429 360.884 171.429 367.56V517.47C171.429 524.146 176.842 529.559 183.518 529.559H412.613V758.654C412.613 765.331 418.027 770.744 424.703 770.744H574.612C581.289 770.744 586.702 765.331 586.702 758.654V529.559H815.797C822.474 529.559 827.887 524.146 827.887 517.47V367.56C827.887 360.884 822.474 355.471 815.797 355.471H586.702V126.375C586.702 119.699 581.289 114.286 574.612 114.286H424.703Z" fill="#B853E8"/>
<mask id="mask0" mask-type="alpha" maskUnits="userSpaceOnUse" x="171" y="114" width="657" height="657">
<path d="M424.703 114.286C418.027 114.286 412.613 119.699 412.613 126.375V355.471H183.518C176.842 355.471 171.429 360.884 171.429 367.56V517.47C171.429 524.146 176.842 529.559 183.518 529.559H412.613V758.654C412.613 765.331 418.027 770.744 424.703 770.744H574.612C581.289 770.744 586.702 765.331 586.702 758.654V529.559H815.797C822.474 529.559 827.887 524.146 827.887 517.47V367.56C827.887 360.884 822.474 355.471 815.797 355.471H586.702V126.375C586.702 119.699 581.289 114.286 574.612 114.286H424.703Z" fill="#B853E8"/>
</mask>
<g mask="url(#mask0)">
<path d="M829.062 413.432C645.026 406.07 467.126 618.938 401.18 726.292L129.728 767.702C310.082 392.27 671.098 375.092 829.062 413.432Z" fill="#D353E8"/>
<path d="M747.079 338.09C581.987 256.434 224.016 376.923 122.465 510.82L-35.9072 376.923C281.683 107.453 618.413 238.755 747.079 338.09Z" fill="#D353E8"/>
<g style="mix-blend-mode:multiply">
<path d="M260.286 708.481C581.383 637.395 638.687 389.118 627.202 273.865H895.588L936.692 555.549L719.082 579.728L746.283 790.085L402.942 831.189L260.286 708.481Z" fill="#A03BDC" fill-opacity="0.34"/>
</g>
</g>
<path d="M482.077 447.625C518.742 459.908 561.815 430.488 578.768 414.243C578.553 447.607 569.547 512.447 535.241 504.901C500.935 497.354 485.504 463.572 482.077 447.625Z" fill="#7500AC"/>
<path d="M516.521 496.983C517.745 469.768 552.553 471.234 569.804 475.369C566.998 483.747 558.523 501.188 547.08 503.932C535.636 506.676 521.939 500.443 516.521 496.983Z" fill="#9315CF"/>
<ellipse cx="499.704" cy="321.447" rx="70.1643" ry="82.6379" fill="white"/>
<circle cx="501.265" cy="304.283" r="15.5921" fill="#161E33"/>
</svg>
