<svg width="1000" height="1000" viewBox="0 0 1000 1000" fill="none" xmlns="http://www.w3.org/2000/svg">
<mask id="mask0" mask-type="alpha" maskUnits="userSpaceOnUse" x="83" y="200" width="848" height="614">
<path d="M894.413 200H119.868C99.6907 200 83.3333 216.357 83.3333 236.535V777.255C83.3333 797.433 99.6907 813.79 119.868 813.79H894.413C914.591 813.79 930.948 797.433 930.948 777.255V236.535C930.948 216.357 914.591 200 894.413 200Z" fill="white"/>
</mask>
<g mask="url(#mask0)">
<path d="M894.413 200H119.868C99.6907 200 83.3333 216.357 83.3333 236.535V777.255C83.3333 797.433 99.6907 813.79 119.868 813.79H894.413C914.591 813.79 930.948 797.433 930.948 777.255V236.535C930.948 216.357 914.591 200 894.413 200Z" fill="#55608A"/>
<path fill-rule="evenodd" clip-rule="evenodd" d="M777.5 136.064L222.166 976.372L1343.79 813.791L1060.65 97.7025L777.5 136.064Z" fill="#49557F"/>
</g>
<mask id="mask1" mask-type="alpha" maskUnits="userSpaceOnUse" x="140" y="283" width="734" height="451">
<path d="M863.43 283.332H150.973C145.243 283.332 140.598 288.928 140.598 295.832V720.831C140.598 727.735 145.243 733.331 150.973 733.331H863.43C869.161 733.331 873.806 727.735 873.806 720.831V295.832C873.806 288.928 869.161 283.332 863.43 283.332Z" fill="white"/>
</mask>
<g mask="url(#mask1)">
<path d="M863.424 283.332H150.845C145.114 283.332 140.468 288.928 140.468 295.832V720.831C140.468 727.735 145.114 733.331 150.845 733.331H863.424C869.155 733.331 873.801 727.735 873.801 720.831V295.832C873.801 288.928 869.155 283.332 863.424 283.332Z" fill="white"/>
<path fill-rule="evenodd" clip-rule="evenodd" d="M662.412 280.38L222.164 813.793L1035.07 784.565L1000.36 280.38H662.412Z" fill="#F6F7FF"/>
</g>
<mask id="mask2" mask-type="alpha" maskUnits="userSpaceOnUse" x="346" y="344" width="328" height="328">
<path d="M510.171 671.809C600.545 671.809 673.807 598.547 673.807 508.173C673.807 417.799 600.545 344.537 510.171 344.537C419.798 344.537 346.535 417.799 346.535 508.173C346.535 598.547 419.798 671.809 510.171 671.809Z" fill="white"/>
</mask>
<g mask="url(#mask2)">
<path d="M510.171 671.809C600.545 671.809 673.807 598.547 673.807 508.173C673.807 417.799 600.545 344.537 510.171 344.537C419.798 344.537 346.535 417.799 346.535 508.173C346.535 598.547 419.798 671.809 510.171 671.809Z" fill="#DA334C"/>
<path fill-rule="evenodd" clip-rule="evenodd" d="M653.496 344.536L366.54 690.78L746.676 672.153L653.496 344.536Z" fill="#C7233B"/>
</g>
<path d="M575.336 514.122L479.352 571.256C473.315 574.849 465.507 572.868 461.913 566.831C460.742 564.863 460.123 562.615 460.123 560.324V446.057C460.123 439.031 465.819 433.335 472.845 433.335C475.136 433.335 477.384 433.954 479.352 435.125L575.336 492.259C581.374 495.852 583.355 503.66 579.761 509.697C578.678 511.518 577.157 513.039 575.336 514.122Z" fill="white"/>
<mask id="mask3" mask-type="alpha" maskUnits="userSpaceOnUse" x="460" y="433" width="122" height="141">
<path d="M575.339 514.122L479.354 571.256C473.317 574.849 465.51 572.868 461.916 566.831C460.744 564.863 460.126 562.615 460.126 560.324V446.057C460.126 439.031 465.821 433.335 472.848 433.335C475.138 433.335 477.386 433.954 479.354 435.125L575.339 492.259C581.376 495.852 583.357 503.66 579.764 509.697C578.68 511.518 577.159 513.039 575.339 514.122Z" fill="white"/>
</mask>
<g mask="url(#mask3)">
<path fill-rule="evenodd" clip-rule="evenodd" d="M459.171 423.016L566.161 537.384L628.879 482.045L459.171 423.016Z" fill="#E9EAF2"/>
</g>
</svg>
