<svg xmlns="http://www.w3.org/2000/svg" xmlns:xlink="http://www.w3.org/1999/xlink" viewBox="0 0 540.86 842.91"><defs><clipPath id="clip-path" transform="translate(9.85 38.91)"><path d="M426,68C382.56,24.56,314.44,0,253,0S113.44,27.56,70,71,0,185.56,0,247V756.5C0,773.34,25.16,793,42,793s42-19.66,42-36.5V247c0-93.19,75.81-169,169-169s169,75.81,169,169c0,16.84,24.16,36,41,36s37-23.16,37-40C500,181.56,469.44,111.44,426,68Z" style="fill:#ea2727"/></clipPath></defs><g style="isolation:isolate"><g id="Layer_2" data-name="Layer 2"><g id="Layer_3" data-name="Layer 3"><path d="M426,68C382.56,24.56,314.44,0,253,0S113.44,27.56,70,71,0,185.56,0,247V756.5C0,773.34,25.16,793,42,793s42-19.66,42-36.5V247c0-93.19,75.81-169,169-169s169,75.81,169,169c0,16.84,24.16,36,41,36s37-23.16,37-40C500,181.56,469.44,111.44,426,68Z" transform="translate(9.85 38.91)" style="fill:#ea2727"/><g style="clip-path:url(#clip-path)"><path d="M118,36,90,54s103-35,183-8,165,90,128,247l99-8,16-117L391,15,237-15Z" transform="translate(9.85 38.91)" style="fill:#c10505;opacity:0.46;mix-blend-mode:multiply"/><polyline points="97.86 249.19 33.85 842.91 99.85 831.91 97.86 249.19" style="fill:#c10505;opacity:0.46;mix-blend-mode:multiply"/><g style="mix-blend-mode:lighten"><path d="M88.33,563a189.66,189.66,0,0,0-17.89-10.37A313.77,313.77,0,0,0,16,531a132.69,132.69,0,0,0-18.82-3.82c-4.61-.63-11.55,66.66-2.78,69.05l9,2.44A272.17,272.17,0,0,1,37.9,610.59l-8-3.37a377.09,377.09,0,0,1,46,23.47c3.52,2.12,6.9,4.42,10.25,6.76S98.48,569.6,88.33,563Z" transform="translate(9.85 38.91)" style="fill:#ffe1e1"/></g><g style="mix-blend-mode:lighten"><path d="M87.08,381.83c-1.24-2.82-5.16-3.34-7.81-4.89-25.92-15.2-53.56-26-82.27-34.62-1.09-.33-1.48,81.25.42,81.86,17.88,5.75,35.88,11.47,53.2,18.7L42,439.22c8.37,3.54,16.5,8,25.11,10.85,6,2,11.89,4.2,17.71,6.65l-7.33-3.1c3.42,1.47,6.78,3.09,10.13,4.69S92,393,87.08,381.83Z" transform="translate(9.85 38.91)" style="fill:#ffe1e1"/></g><g style="mix-blend-mode:lighten"><path d="M93.56,209.47c-4.56-2.57-9.19-5-13.9-7.25a273.39,273.39,0,0,0-54.79-19.06c-5.72-1.36-11.7-2.81-17.69-3.82C2,178.46-7.66,257.79-3.18,258.63s9,1.65,13.32,2.79c17.49,4.59,34.49,11.1,51.16,18.06L52,275.55a289.33,289.33,0,0,1,26.76,13q6.12,3.38,12.07,7.07C97.29,299.61,103.37,215,93.56,209.47Z" transform="translate(9.85 38.91)" style="fill:#ffe1e1"/></g><g style="mix-blend-mode:lighten"><path d="M177.66,101.3q-3.67-7.78-8-15.23c-7.6-13.09-17.54-24.75-28.37-35.3A193.13,193.13,0,0,0,119.3,32C115,28.86,50.1,80.22,55,84c-2.61-2-1.31-1.3-3.92-3.32,9.26,7.24,18,15,27.37,22.14L70.2,96.45C81.93,105.52,91.68,116,102,126.55c5.09,5.17,10.16,10.28,14.83,15.84,2,2.33,3.67,4.38,5.54,6.29C124.56,150.92,181.45,109.31,177.66,101.3Z" transform="translate(9.85 38.91)" style="fill:#ffe1e1"/></g><g style="mix-blend-mode:lighten"><path d="M279.12,112c2.47-4,4.49-8.23,7.15-12.09a109.42,109.42,0,0,0,7-11.56c2.13-4.11,4.63-8.63,5.71-13a108.11,108.11,0,0,0,2.11-14.94A121.94,121.94,0,0,0,301.68,46c-.21-12.13-1.64-24.56-5.4-36.11-5.63-17.26-12.91-34.39-29.27-44C243.56-47.85,210.7-30.5,211.67-2.36a57.85,57.85,0,0,0,6.66,26c1.58,3.1,3.12,6.19,4.51,9.38l-3.92-9.28a163.68,163.68,0,0,1,11.3,39.91L228.92,54c1,8.1.9,16.38,3.24,24.26a108.36,108.36,0,0,1,3.3,15l-1-7.39a26.8,26.8,0,0,1,.17,6.2c-.08,1-.19,2-.31,3.07.58-4.06.66-4.7.24-1.94-1.87,12.17,2.07,23.68,14.11,28.76a24.48,24.48,0,0,0,30.44-10Z" transform="translate(9.85 38.91)" style="fill:#ffe1e1"/></g><g style="mix-blend-mode:lighten"><path d="M339.33,170.17c14.24.7,28.42,0,41.84-5.15,17.17-6.56,33-14,47-26,11.56-10,22.74-21.68,30.61-34.78a171.34,171.34,0,0,0,8.86-16.8c1.68-3.67,4.05-8.33,5-11.67,2.1-7.41,1.26-13.69.22-21a41.75,41.75,0,0,0-4.81-14c-6.59-12.4-21.77-17-34.73-14.13-11.67,2.62-22.08,10.74-28.65,20.43-2.86,4.21-5.69,8.4-8.8,12.45l6-7.77c-5.78,7.39-11.79,14.58-17.49,22l6.13-7.93c-7.21,9.29-15.9,17-23.51,25.86a174.09,174.09,0,0,1-24.77,23.63l6.37-4.91c-8.9,6.84-16.06,15.3-24.62,22.56-6.57,5.58-7.62,16.36-4.49,23.76,3.45,8.19,11.05,12.94,19.87,13.37Z" transform="translate(9.85 38.91)" style="fill:#ffe1e1"/></g><g style="mix-blend-mode:lighten"><path d="M360.82,251.57c13.33,7,27.89,12.12,43,12.81,15,.68,30.14-1.18,44.74-4.31S477.34,250.9,491.1,245c6.2-2.66,13-5.1,18.59-8.83,8.41-5.56,18.67-11.87,20.87-22.48,1.57-7.56-.84-18.37-8.88-21.83-4.9-2.11-9.37-3.5-14.74-2.9a61,61,0,0,0-13.7,3.46c-7.58,2.6-14.52,6.4-21.67,9.94-5.53,2.74-11.13,5.64-16.9,7.84,3-1.13,1.72-.72-.5.17q-2.16.87-4.35,1.69c-3.2,1.21-6.45,2.32-9.67,3.48-5.76,2.07-11.57,4-17.51,5.46q-4.86,1.23-9.79,2.15c-1.49.28-3,.49-4.47.75-3.27.58,4.89-.42-.89.09-11.53,1-25.18,2.79-35.62,1.38-7.09-1-14,1.09-16.92,8.3-2.55,6.33-.56,14.54,5.87,17.91Z" transform="translate(9.85 38.91)" style="fill:#ffe1e1"/></g><g style="mix-blend-mode:lighten"><path d="M92,699c-9.8-7.47-8.27-5.26-19.59-10.18a305,305,0,0,0-38.36-14.13,143.73,143.73,0,0,0-20.25-4,78.4,78.4,0,0,0-17,.08c-1.42.11-3.74,49.2-.38,50.47,1.91.72,3.82,1.43,5.75,2.1,5.26,1.83,11,2.81,16.45,4.07a256.79,256.79,0,0,1,33.27,10.13c5.26,2,10.44,4.12,15.76,6,2.49.86,5,1.75,7.43,2.69,1.37.52,13.61,4.24,15,4.76,4.2,1.59-5.76-2.22-3-1C97.69,754.72,102.52,707,92,699Z" transform="translate(9.85 38.91)" style="fill:#ffe1e1"/></g></g></g></g></g></svg>