<svg xmlns="http://www.w3.org/2000/svg" xmlns:xlink="http://www.w3.org/1999/xlink" viewBox="0 0 1996 1548.43"><defs><clipPath id="clip-path" transform="translate(84 36)"><path d="M1774.42,1208.77s-26.63,130.23-63.92,167.52c-39.68,39.68-320.72,84.87-435.34,17.64S1263,1170.2,1263,1170.2Z" style="fill:#e68d02"/></clipPath><clipPath id="clip-path-2" transform="translate(84 36)"><path d="M853,1441.32s235.86,86,518,8.82c70.69-19.33,57.31-201.69,57.31-201.69l-587.43-39.68Z" style="fill:#e68d02"/></clipPath><clipPath id="clip-path-3" transform="translate(84 36)"><path d="M61.72,1215.38S65,1331.11,100.29,1373,572,1532.8,859.66,1485.4c60.44-10,60.61-184.05,60.61-184.05l-26.45-136.66-746.14-17.64Z" style="fill:#e68d02"/></clipPath><clipPath id="clip-path-4" transform="translate(84 36)"><path d="M84.86,1250.65s-52.9-24.25-79.35-11c0,0,1.1-23.14,27.55-28.66,0,0-22-1.1-33.06,1.11,0,0,22.13-24.14,32-32,54-43,111.32-80.46,428.73-113.52,346.47-36.09,748.34-24.25,952.23,12.12,0,0,35.27-6.61,62.83-7.71,0,0-27.56,8.81-29.76,12.12,0,0,32-4.41,43-2.21,0,0-15.43,4.41-16.53,6.62,0,0,73.84,12.12,93.68,16.53,0,0,35.27-13.23,65-14.33,0,0-38.58,16.53-30.86,22,0,0,27.55-1.1,48.49-2.2l-9.92,11s69.39,25.09,121.11,48.8c52.91,24.25,65,47.39,65,47.39s-28.66-3.3-39.68,1.1c0,0,15.37,16.7,18.68,21.11,0,0-23.56,10-42,13s-24,7.47-89,17.39c0,0,23.14,4.41,26.45,9.92,0,0-23.15,3.3-45.19-3.31,0,0-18.74,16.53-35.27,16.53,0,0-1.1-11,14.33-16.53,0,0-145,35.53-204.22,23.28,0,0-143.52,35.29-233.89,38.6,0,0,26.45,9.92,35.26,17.64,0,0-32,1.1-57.31-13.23,0,0-17.63,15.43-41.88,15.43,0,0,2.21-12.12,26.45-19.84,0,0-141.6-1.21-237.49-15.56,0,0-131.43,34.17-261.48,32,0,0,16.53,3.31,28.65,12.12,0,0-35.27,13.23-57.31-12.12,0,0-30.86,19.84-59.51,15.43,0,0-7.72-16.53,23.14-19.84C593.76,1349.88,196.18,1303.55,84.86,1250.65Z" style="fill:#4ac200"/></clipPath><clipPath id="clip-path-5" transform="translate(84 36)"><path d="M196.47,592.24c-1.27,3.82,40.71,54.71,66.16,71.25s80.15,40.71,117.05,82.7S434.38,859.42,428,901.4,374,1129.78,374,1129.78l171.76-7.64S513.26,906.49,512,884.86,475.1,619,476.37,529.9L435,529.26S432.48,640,427.39,654s-16.54,52.16-54.71,35.62S283.62,645,267.08,640s-54.71-53.43-54.71-53.43Z" style="fill:#e68d02"/></clipPath><clipPath id="clip-path-6" transform="translate(84 36)"><path d="M665.3,263.36S758.18,156.49,818,161.58s40.72,30.53,40.72,30.53S949,165.4,978.28,246.82c0,0,36.9,7.63,67.43,36.9s7.63,72.52,7.63,72.52,39.44,8.9,21.63,76.33L949,512.73,728.91,427.48Z" style="fill:#358700"/></clipPath><clipPath id="clip-path-7" transform="translate(84 36)"><path d="M119.5,342.24s-50.89-8.91-48.35-42S106.77,271,106.77,271,47,198.47,100.41,138.68s78.88-34.35,78.88-34.35,10.18-45.81,35.63-52.17,26.72,8.91,26.72,8.91,22.9-40.71,64.88-40.71S335.78,45.8,335.78,45.8,370.13,0,446.47,0,557.16,40.71,557.16,40.71s34.35-28,91.6-12.72,0,47.07,0,47.07,62.34,5.09,90.33,35.63-29.26,50.89-29.26,50.89,75.06,58.52,62.34,86.51-33.08,21.63-33.08,21.63,39.44,26.72-22.9,49.62L608.05,522.9s-87.79,53.44-153.95,21.63c0,0-61.06,42-108.14-24.17L151.3,405.85Z" style="fill:#41a500"/></clipPath><clipPath id="clip-path-8" transform="translate(84 36)"><path d="M78.78,371.5s14-45.8,54.71-40.71S151.3,355,151.3,355s24.18-20.35,63.62-11.45,24.17,31.81,24.17,31.81,33.08-19.08,56-7.63,17.81,40.71,17.81,40.71,28-15.27,38.17,0-14,34.35-14,34.35,75.06,35.62,64.88,70-62.34,35.62-62.34,35.62S323.06,612,274.71,613.23s-62.34-17.81-62.34-17.81-22.9,34.35-73.79-11.45c0,0-29.26,29.26-67.43,8.91s-21.63-63.62-21.63-63.62S19,514,21.53,498.73,41.89,472,41.89,472s-22.9-1.27-14-30.53,24.18-29.26,24.18-29.26-28-16.54-11.45-33.08S78.78,371.5,78.78,371.5Z" style="fill:#4ac200"/></clipPath><clipPath id="clip-path-9" transform="translate(84 36)"><path d="M734,1066.16s6.37-155.21-6.36-173-59.79-56-84-78.88l8.91-7.63s61.07,43.26,71.25,48.35,28,3.81,26.71-14,3.82-78.88,5.09-90.33-3.81-81.43-3.81-81.43h28s5.08,76.34,10.17,95.42,17.82,85.25,29.27,91.61,34.35,6.36,48.34,1.27,44.53-39.44,47.08-49.62,21.62-84,21.62-84l5.09-30.53,20.36,8.9L949,726.47s-19.09,90.33-19.09,98S861.23,911,861.23,911l-12.72,150.12S806.52,1099.24,734,1066.16Z" style="fill:#e68d02"/></clipPath><clipPath id="clip-path-10" transform="translate(84 36)"><path d="M653.85,599.24s1.27,54.71,21.63,70,39.44,0,39.44,0,39.44,68.71,109.41,0L839.6,626l-48.34-48.35Z" style="fill:#358700"/></clipPath><clipPath id="clip-path-11" transform="translate(84 36)"><path d="M896.85,441.48s34.36-62.34,64.89-63.62,28,19.09,28,19.09,66.12-24,96.69,12.72c12.73,15.27,8.91,24.17,8.91,24.17s12.81-34.29,70,0c12.73,7.64,17.82,24.18,5.09,33.08,0,0,22.9-2.54,43.26,19.09s5.09,43.25,5.09,43.25,30.53,34.36,19.08,61.07-49.62,19.09-49.62,19.09,44.53,24.17-6.36,29.26c0,0,28,12.72,5.09,21.63,0,0,16.54,12.72-10.18,28s-49.61,11.45-49.61,11.45,3.81,17.81-16.54,30.53S1061,734.1,1061,734.1s-28,19.08-72.52,19.08S921,720.11,921,720.11s-56-6.37-84-20.36-8.91-30.54-8.91-30.54-54.71,0-56-24.17,19.09-68.7,40.71-81.42Z" style="fill:#41a500"/></clipPath><clipPath id="clip-path-12" transform="translate(84 36)"><path d="M554.61,377.86s3.82-59.79,42-64.88,44.53,17.81,44.53,17.81,22.9-33.08,70-25.45,42,14,42,14,16.54-22.9,39.44-15.27,10.18,17.81,10.18,17.81,72.52,5.09,92.87,35.63-12.72,45.8-12.72,45.8,58.52,7.63,67.43,39.44-52.16,70-52.16,70,26.71,5.08,21.63,16.53S893,538.17,893,538.17s16.54,39.44-39.44,39.44c0,0,8.9,16.54-14,24.17s-42-10.17-42-10.17-36.9,34.35-92.88,30.53-72.52-20.36-89.06-57.25c0,0-7.63,12.72-31.8,8.9s-34.36-43.25-29.27-76.33c0,0-40.71,15.27-40.71-16.54S533,444,533,444,482,400.8,513.9,381.68C526.62,374.05,554.61,377.86,554.61,377.86Z" style="fill:#4ac200"/></clipPath><clipPath id="clip-path-13" transform="translate(84 36)"><path d="M449,709.93s-15.27-49.62,5.08-66.16,35.63,3.82,35.63,3.82-2.36-29.49,38.17-38.17c17.81-3.82,28,17.81,28,17.81s29.26-20.36,54.7-14,33.08,36.9,33.08,36.9,33.08-7.63,43.26,8.91-3.82,35.62-3.82,35.62,53.44,3.43,53.44,36.9c0,15.26-22.9,21.62-22.9,21.62s20.35,10.18,14,26.72S678,801.53,678,801.53s-6.36,29.26-34.35,35.62-38.17-7.63-38.17-7.63-12.72,33.08-49.61,26.72-58.53-21.63-57.26-44.53c0,0-31.8,22.9-54.7-3.82s0-49.62,0-49.62-31.81,5.09-21.63-25.44S449,709.93,449,709.93Z" style="fill:#4ac200"/></clipPath><clipPath id="clip-path-14" transform="translate(84 36)"><path d="M606.15,1084s-43.45,4.7-32.88-15.27,43.45-29.35,50.49-30.53c0,0-15.26-29.36,0-42.27,0,0,18.79,0,24.66,8.22,0,0,27-44.63,38.75-49.32s12.92,14.09,12.92,14.09S713,937.19,733,932.49s28.18,4.7,28.18,4.7,24.66-34.05,65.76-22.31,37.58,49.32,37.58,49.32,39.93-1.17,48.15,21.14-9.4,34-9.4,34,21.14,7.05,22.32,18.79-5.88,22.31-5.88,22.31,48.15,5.87,50.5,23.49-11.74,20-11.74,20,38.75,4.7,41.1,29.36-104.52,0-104.52,0-29.35,34-92.77,14.09c0,0-79.85,32.88-139.74,5.87C662.51,1153.26,448.79,1169.7,606.15,1084Z" style="fill:#53d900"/></clipPath><clipPath id="clip-path-15" transform="translate(84 36)"><path d="M327.76,1214.36c-1.11-3.89,23.54-25.34,50.69-25.34s36.21,12.67,27.16,25.34S331.38,1227,327.76,1214.36Z" style="fill:#d8dfd3"/></clipPath><clipPath id="clip-path-16" transform="translate(84 36)"><path d="M307.57,1244.11c-19.91-1.81-48.87-5.43-38-32.58s38-45.26,52.5-39.83,39.82,45.26,38,61.55S307.57,1244.11,307.57,1244.11Z" style="fill:#d8e0d3"/></clipPath><clipPath id="clip-path-17" transform="translate(84 36)"><path d="M227.76,1151.65s-28-51.27,6.62-47.46c0,0-6.38-51.19,36.62-46.19,0,0,37-60,81-23,0,0,28.78-26.45,50.89-21.23S469,1015,465,1041c0,0,70.26,7.74,73.13,30.37,0,0,46.87-33.37,67.87,11.63,0,0,54,18,38,47,0,0,44,38,10,43,0,0-28,21-106,7,0,0-78,22-120-11,0,0-51,24-89-5C339,1164,246.52,1176.31,227.76,1151.65Z" style="fill:#53d900"/></clipPath><clipPath id="clip-path-18" transform="translate(84 36)"><circle cx="1490.52" cy="695.17" r="28.83" style="fill:#ffcd59"/></clipPath><clipPath id="clip-path-19" transform="translate(84 36)"><path d="M1272.7,721.88S1314.76,584.44,1375.28,568s112.83,121,112.83,121-9.24,14.36-44.11-6.16c0,0,11.28,27.7,6.15,48.21Z" style="fill:#ff0080"/></clipPath><clipPath id="clip-path-20" transform="translate(84 36)"><path d="M1251.05,761.08s-6-14.58-24.5-17.66-14.36-34.87-14.36-34.87-78.14,104,29.65,129.43l18.56-17.63Z" style="fill:#00d3d4"/></clipPath><clipPath id="clip-path-21" transform="translate(84 36)"><path d="M1593,938.82c-2.29-11.89-8.76-71.66-1.92-109.68s-9-52-18-66.52-39.61-66.37-24.11-91.49,56.67.44,68.1,30.46,6.21,45.6-7.79,110.94-4.29,91.52,1.43,104.18,15.31,29.26,5.12,36S1595.29,950.76,1593,938.82Z" style="fill:#e68d00"/></clipPath><clipPath id="clip-path-22" transform="translate(84 36)"><path d="M1550.08,682.29c-2,9.4.48,38.62,19.39,63.39s33.7,20.12,38.85,7.3-1.27-54.18-25.71-74.08S1552.65,670.2,1550.08,682.29Z" style="fill:#ffb94d"/></clipPath><clipPath id="clip-path-23" transform="translate(84 36)"><path d="M1606,847.83c-5.45-4.92-19.09-13.6-23.74-9.35s-14.69,58.77,20.22,45.14C1607.77,881.56,1614.9,855.83,1606,847.83Z" style="fill:#3d3c3f"/></clipPath><clipPath id="clip-path-24" transform="translate(84 36)"><path d="M1304,910.1s-44.11,136.42-38,152.83,57.44,26.67,113.85,24.62,96.42-23.59,100.52-29.74-10.25-66.68-49.23-158Z" style="fill:#00d3d4"/></clipPath><clipPath id="clip-path-25" transform="translate(84 36)"><path d="M1282.14,728.14s-26.87-11.39-41.23-3.18c0,0,10.13-12.94,68.72-9.23,0,0-12.31-19.49-49.23-26.67,0,0,40-11.28,81,20.51,0,0,21.54-42.05,75.9-29.74,0,0-27.53,20.65-22.57,33.85,0,0,50.26-19.49,72.83-5.13a178,178,0,0,0-36.93,13.33s26.67,2,44.11,11.29c0,0-24.71,1.08-27.69,6.15,0,0,66.91,63.65,10.89,141.07s-167.46,58.44-200.47-1.82S1236.18,758,1282.14,728.14Z" style="fill:#00d3d4"/></clipPath></defs><g id="Layer_2" data-name="Layer 2"><g id="elf-in-nature"><g id="Layer_11" data-name="Layer 11"><path d="M1774.42,1208.77s-26.63,130.23-63.92,167.52c-39.68,39.68-320.72,84.87-435.34,17.64S1263,1170.2,1263,1170.2Z" transform="translate(84 36)" style="fill:#e68d02"/><g style="clip-path:url(#clip-path)"><path d="M1397,1291s28,29,131,17,152,6,165,14-2,98-301,96l-10.21,27.62L1472,1471l276-76,35-167Z" transform="translate(84 36)" style="fill:#b06208"/><path d="M1477.9,1307.42c-2,16.89-4.55,35.27-1.56,52.18.15.86,1.37.58,1.43-.19.66-8.61,0-17.39.11-26s.26-17.32,1-26c.05-.61-.87-.59-.94,0Z" transform="translate(84 36)" style="fill:#b06208"/><path d="M1491.08,1308.3a71.82,71.82,0,0,0-1.15,20.64c.08.85,1.36.88,1.36,0a97.11,97.11,0,0,1,1.87-20.06c.27-1.36-1.82-1.94-2.08-.58Z" transform="translate(84 36)" style="fill:#b06208"/><path d="M1546.9,1360.58c-.71,17.38-2.66,35.17-1.51,52.54a.49.49,0,0,0,1,0c2-17.3.85-35.15,1-52.54a.21.21,0,0,0-.42,0Z" transform="translate(84 36)" style="fill:#b06208"/><path d="M1562.08,1391c-.16,8.74-.63,17.55.14,26.27a.59.59,0,0,0,1.17,0c.76-8.72.29-17.53.14-26.27a.73.73,0,0,0-1.45,0Z" transform="translate(84 36)" style="fill:#b06208"/><path d="M1612.39,1303.25c-1.24,12.74-2.64,25.46-3.17,38.25,0,.62.86.58.93,0,1.55-12.71,2.23-25.48,3.08-38.25,0-.55-.79-.53-.84,0Z" transform="translate(84 36)" style="fill:#b06208"/><path d="M1645.54,1305.42a170.81,170.81,0,0,0-4,28.89c0,.93,1.29.87,1.4,0,1.26-9.5,2.4-19,4.15-28.46.18-1-1.32-1.44-1.54-.43Z" transform="translate(84 36)" style="fill:#b06208"/><path d="M1669.15,1359.83c-1.57,8.22-3.49,17.46-2.59,25.83.07.69,1.21,1,1.33.18,1.27-8.5,1.07-17.14,2.43-25.68.12-.76-1-1.1-1.17-.33Z" transform="translate(84 36)" style="fill:#b06208"/><path d="M1602.3,1301.19a71.72,71.72,0,0,0-1.18,14c0,.53.85.7,1,.14.94-4.51,1.29-9.11,2-13.66.18-1.15-1.59-1.65-1.76-.49Z" transform="translate(84 36)" style="fill:#b06208"/></g><path d="M853,1441.32s235.86,86,518,8.82c70.69-19.33,57.31-201.69,57.31-201.69l-587.43-39.68Z" transform="translate(84 36)" style="fill:#e68d02"/><g style="clip-path:url(#clip-path-2)"><path d="M906,1315s20,17,70,23c25.37,3,90.65,6.86,158,7.92-4,4.28-9.59,11.3-9,17.08,0,0,37,3,50-12,0,0,34.35,12,62.17,7.5a42.61,42.61,0,0,0-15.74-13.1c32.48-1.1,60.85-3.39,79.57-7.4,70-15-22,188-419,99l-21,45,184,27,314-20,77-46,22-167Z" transform="translate(84 36)" style="fill:#b06208"/><path d="M984.2,1333.23c-1.09,17.08-2.39,34.21-2.23,51.34a.94.94,0,0,0,1.87,0c1.92-17,2.4-34.23,3.08-51.34.07-1.76-2.61-1.73-2.72,0Z" transform="translate(84 36)" style="fill:#b06208"/><path d="M1001.57,1339c-1.94,11-3.49,22.38-2.65,33.57a.73.73,0,0,0,1.45,0c1.24-11.08,1.54-22.26,2.81-33.36.11-.91-1.45-1.12-1.61-.21Z" transform="translate(84 36)" style="fill:#b06208"/><path d="M1064,1343.73c-4.51,23.91-7.62,48.48-7.08,72.86a.68.68,0,0,0,1.36,0c2.06-24.22,3.67-48.41,7-72.51.11-.81-1.11-1.19-1.27-.35Z" transform="translate(84 36)" style="fill:#b06208"/><path d="M1119,1415c-3.89,19.76-7,40.08-6.91,60.27a.54.54,0,0,0,1.08,0c2-20.06,3.62-40,7.28-59.87.17-.94-1.26-1.35-1.45-.4Z" transform="translate(84 36)" style="fill:#b06208"/><path d="M1263.31,1399.25c-.81,13.21-1.76,26.82-.52,40a.49.49,0,0,0,1,0c.59-13.33,0-26.69.62-40,0-.7-1-.69-1.08,0Z" transform="translate(84 36)" style="fill:#b06208"/><path d="M1273.88,1380.55c-1.48,16.54-2.68,33.48-1,50a.45.45,0,0,0,.89,0c.44-16.7-.1-33.36,1-50,0-.6-.88-.59-.94,0Z" transform="translate(84 36)" style="fill:#b06208"/><path d="M1299.45,1337.2c-.58,13.08-1.92,26.26-1.56,39.36a.54.54,0,0,0,1.07,0c1.21-13,.74-26.27,1-39.36,0-.33-.5-.33-.52,0Z" transform="translate(84 36)" style="fill:#b06208"/></g><path d="M61.72,1215.38S65,1331.11,100.29,1373,572,1532.8,859.66,1485.4c60.44-10,60.61-184.05,60.61-184.05l-26.45-136.66-746.14-17.64Z" transform="translate(84 36)" style="fill:#e68d02"/><g style="clip-path:url(#clip-path-3)"><path d="M50.52,1245S146,1297,346,1329s428,23.53,428,79c0,81-448,91-698-54l31,48s150,61,397,94,420,10,437-14-7-195-7-195-213,75-492,23-394-86-394-86l2.52,21" transform="translate(84 36)" style="fill:#b06208"/><path d="M567,1351s-11,19,0,26,60-9,60-9,62,17,79-3l-45-7Z" transform="translate(84 36)" style="fill:#b06208"/><path d="M92.87,1307.26a101.27,101.27,0,0,0-2.6,19.36c-.12,5.76.18,13,3.31,18a2.18,2.18,0,0,0,4-1.09c.56-5.48-1.11-11.38-1.56-16.87a73.85,73.85,0,0,1,.63-18.31c.41-2.45-3.25-3.56-3.8-1Z" transform="translate(84 36)" style="fill:#e68d02"/><path d="M252.16,1310.15c-2.77,17.27-5.67,34.55-5.11,52.12a.66.66,0,0,0,1.31,0c1.89-17.26,2.25-34.69,4.61-51.89.07-.53-.73-.77-.81-.23Z" transform="translate(84 36)" style="fill:#b06208"/><path d="M271.37,1305.52q-4,22.08-6,44.44-1,11.57-1.66,23.15c-.41,7.62-1.23,15.58-.65,23.2,0,.53.93.75,1,.13,1-7,.95-14.3,1.49-21.4q.84-11.11,2-22.19c1.68-15.61,3.8-31.17,6.12-46.69.23-1.49-2-2.17-2.3-.64Z" transform="translate(84 36)" style="fill:#b06208"/><path d="M362.76,1432.3c-1.05,7.42-2.91,15.52-2.14,23,.06.55,1,.8,1.06.15,1.17-7.59.5-15.47,1.31-23.12,0-.13-.21-.17-.23,0Z" transform="translate(84 36)" style="fill:#b06208"/><path d="M375.66,1422.7c-2.18,13.43-5.57,27.76-5.17,41.41,0,.61,1,.8,1.11.15,2.59-13.55,2.49-27.77,4.42-41.46,0-.23-.32-.34-.36-.1Z" transform="translate(84 36)" style="fill:#b06208"/><path d="M453.08,1340.12a320.87,320.87,0,0,0-8.43,37.65c-1.93,12.1-4,24.65-3.55,36.93,0,1.11,1.79,1.47,2,.28,2.45-12.25,3.22-24.87,5.09-37.23s3.95-24.88,6.26-37.24a.73.73,0,0,0-1.4-.39Z" transform="translate(84 36)" style="fill:#b06208"/><path d="M624.93,1367.18c-1.25,13.94-2.77,28.14-2,42.16,0,.49.84.67.92.12,2.14-13.92,2-28.23,2.17-42.28a.54.54,0,0,0-1.08,0Z" transform="translate(84 36)" style="fill:#b06208"/><path d="M637.41,1381c-.76,14.55-1.66,29.1-1.23,43.68a.71.71,0,0,0,1.41,0c.6-14.55.39-29.12.85-43.68,0-.66-1-.66-1,0Z" transform="translate(84 36)" style="fill:#b06208"/><path d="M724.59,1366.36c-1.54,15.35-3.32,31.2-2.22,46.63a.63.63,0,0,0,1.26,0c1.7-15.44,1.62-31.13,2.83-46.63.1-1.21-1.75-1.18-1.87,0Z" transform="translate(84 36)" style="fill:#b06208"/><path d="M733.9,1368.48c-1,8.52-1.94,17.16-1.36,25.75a.73.73,0,0,0,1.45,0c.92-8.56,1.08-17.18,1.88-25.75.12-1.27-1.82-1.24-2,0Z" transform="translate(84 36)" style="fill:#b06208"/><path d="M754.59,1414.06c-1.1,15.24-3.21,30.38-4.4,45.61-.08,1.09,1.76,1.36,1.94.26,2.41-15.18,3-30.53,3.72-45.87,0-.82-1.2-.8-1.26,0Z" transform="translate(84 36)" style="fill:#b06208"/></g><g id="Layer_4" data-name="Layer 4"><path d="M84.86,1250.65s-52.9-24.25-79.35-11c0,0,1.1-23.14,27.55-28.66,0,0-22-1.1-33.06,1.11,0,0,22.13-24.14,32-32,54-43,111.32-80.46,428.73-113.52,346.47-36.09,748.34-24.25,952.23,12.12,0,0,35.27-6.61,62.83-7.71,0,0-27.56,8.81-29.76,12.12,0,0,32-4.41,43-2.21,0,0-15.43,4.41-16.53,6.62,0,0,73.84,12.12,93.68,16.53,0,0,35.27-13.23,65-14.33,0,0-38.58,16.53-30.86,22,0,0,27.55-1.1,48.49-2.2l-9.92,11s69.39,25.09,121.11,48.8c52.91,24.25,65,47.39,65,47.39s-28.66-3.3-39.68,1.1c0,0,15.37,16.7,18.68,21.11,0,0-23.56,10-42,13s-24,7.47-89,17.39c0,0,23.14,4.41,26.45,9.92,0,0-23.15,3.3-45.19-3.31,0,0-18.74,16.53-35.27,16.53,0,0-1.1-11,14.33-16.53,0,0-145,35.53-204.22,23.28,0,0-143.52,35.29-233.89,38.6,0,0,26.45,9.92,35.26,17.64,0,0-32,1.1-57.31-13.23,0,0-17.63,15.43-41.88,15.43,0,0,2.21-12.12,26.45-19.84,0,0-141.6-1.21-237.49-15.56,0,0-131.43,34.17-261.48,32,0,0,16.53,3.31,28.65,12.12,0,0-35.27,13.23-57.31-12.12,0,0-30.86,19.84-59.51,15.43,0,0-7.72-16.53,23.14-19.84C593.76,1349.88,196.18,1303.55,84.86,1250.65Z" transform="translate(84 36)" style="fill:#4ac200"/><g style="clip-path:url(#clip-path-4)"><path d="M1185,1038s408,59,418,123-90,116-182,107c0,0-304,67-501,31,0,0-579.7,28.48-827.86-90.23C32,1180,125.27,1138,132.64,1124.52s-7.37,13.51,0,0S62,1081,62,1081L-84,1193l69,106,488,156,544-27,398.69-33.3L1684,1370l228-125-55-84-216-112Z" transform="translate(84 36)" style="fill:#41a500"/><path d="M396,1213s19-3,20,3-23.71,15.73-64.35,7.87S396,1213,396,1213Z" transform="translate(84 36)" style="fill:#2f7800;opacity:0.76"/><path d="M352,1232s24-2,32,3-22,29.52-99,5Z" transform="translate(84 36)" style="fill:#2f7800;opacity:0.76"/><path d="M1334,1205c-38-1.63-106-23-69-35s238,3,280,5S1614,1217,1334,1205Z" transform="translate(84 36)" style="fill:#41a500"/></g><path d="M1026,1119c-49.59-43.61-168.67-40.68-168.67-40.68l-231.45,40.34L246,1114s-53.83,21.1-54.91,33S226,1191,327,1180c0,0,7,21,102,21,0,0,67,11,119-6,0,0,109.52,10.28,141.17-20.94,25.26,1.85,83.87,4.24,117.33-9.8,0,0,84.5,18.74,111.5-12.26C918,1152,1084,1170,1026,1119Z" transform="translate(84 36)" style="fill:#2f7800;opacity:0.76"/></g></g><path d="M196.47,592.24c-1.27,3.82,40.71,54.71,66.16,71.25s80.15,40.71,117.05,82.7S434.38,859.42,428,901.4,374,1129.78,374,1129.78l171.76-7.64S513.26,906.49,512,884.86,475.1,619,476.37,529.9L435,529.26S432.48,640,427.39,654s-16.54,52.16-54.71,35.62S283.62,645,267.08,640s-54.71-53.43-54.71-53.43Z" transform="translate(84 36)" style="fill:#e68d02"/><g style="clip-path:url(#clip-path-5)"><path d="M203,613s14-9,21,0,32,30,52,46,106,51,114,50,29-19,23-40c0,0-136-34-139-36s-44-44-44-44l-24-7-18,14Z" transform="translate(84 36)" style="fill:#b06208"/><path d="M554,999,508,591l-19-65-67-3v47s25,3,34-5c0,0,14,1,15,44,.12,5.18.28,12.64.49,21.82C460,628.74,431,629.75,435,695c0,0-38.91,23.21-24,58a21,21,0,0,0,20,13s-28.3,51,46.18,63c1.17,27.76,2.46,49.9,3.82,60,5,37,8,116-9,138s50-23-91-22l-39,104,32,38,74,17,100.33-34.22L563,1083Z" transform="translate(84 36)" style="fill:#b06208"/></g><path d="M665.3,263.36S758.18,156.49,818,161.58s40.72,30.53,40.72,30.53S949,165.4,978.28,246.82c0,0,36.9,7.63,67.43,36.9s7.63,72.52,7.63,72.52,39.44,8.9,21.63,76.33L949,512.73,728.91,427.48Z" transform="translate(84 36)" style="fill:#358700"/><g style="clip-path:url(#clip-path-6)"><path d="M1098,367c-1-2-18-69-18-69l-60-74-69-47-70-8-22,23c45,1,54,30,54,30,76,31,42,81,42,81,51,49-28,53-28,53-12-49-94-60-94-60-7.88-13.5-25.88-20.95-45.3-25-3.21-.66-6.46-1.24-9.71-1.73C812,224.64,742,178,742,178l-25,67,6.62,21.74c-2.94.13-4.62.26-4.62.26l-29.94,50.35,66.09,19.71L827,437l85,6,123-10,56.64-16S1099,369,1098,367Z" transform="translate(84 36)" style="fill:#2f7800"/></g><path d="M119.5,342.24s-50.89-8.91-48.35-42S106.77,271,106.77,271,47,198.47,100.41,138.68s78.88-34.35,78.88-34.35,10.18-45.81,35.63-52.17,26.72,8.91,26.72,8.91,22.9-40.71,64.88-40.71S335.78,45.8,335.78,45.8,370.13,0,446.47,0,557.16,40.71,557.16,40.71s34.35-28,91.6-12.72,0,47.07,0,47.07,62.34,5.09,90.33,35.63-29.26,50.89-29.26,50.89,75.06,58.52,62.34,86.51-33.08,21.63-33.08,21.63,39.44,26.72-22.9,49.62L608.05,522.9s-87.79,53.44-153.95,21.63c0,0-61.06,42-108.14-24.17L151.3,405.85Z" transform="translate(84 36)" style="fill:#41a500"/><g style="clip-path:url(#clip-path-7)"><path d="M53,288s112,47,143-1c0,0,82,62,183,16,0,0,101,34,112-61,0,0,142-91,47-132,0,0,18-66-82-70,0,0-23-53-97-14l63-62L578-18,689,22l85,57,5.94,90.85L826,267l-99,88L603.49,539.56,525,591H371l-98-70L99,423Z" transform="translate(84 36)" style="fill:#3a9400"/><path d="M71,336s52-27,96-6c0,0,53-19,87,24,0,0,62-24,73,34,0,0,61,1,44,48,0,0,105,94,2,122l-97-55L101,375Z" transform="translate(84 36)" style="fill:#358700"/><path d="M546,571s-20-31-4-58c0,0-81,10-39-71,0,0-38-47-12-73s50-15,50-15,14-87,107-47c0,0,38-51,112-24l-20,74L607,502Z" transform="translate(84 36)" style="fill:#358700"/><path d="M88,127s0,89,71,47c0,0,61,35,104-38,0,0,64,30,80-40,0,0,110-31,5-85L236,18,108,86Z" transform="translate(84 36)" style="fill:#48b800"/></g><path d="M78.78,371.5s14-45.8,54.71-40.71S151.3,355,151.3,355s24.18-20.35,63.62-11.45,24.17,31.81,24.17,31.81,33.08-19.08,56-7.63,17.81,40.71,17.81,40.71,28-15.27,38.17,0-14,34.35-14,34.35,75.06,35.62,64.88,70-62.34,35.62-62.34,35.62S323.06,612,274.71,613.23s-62.34-17.81-62.34-17.81-22.9,34.35-73.79-11.45c0,0-29.26,29.26-67.43,8.91s-21.63-63.62-21.63-63.62S19,514,21.53,498.73,41.89,472,41.89,472s-22.9-1.27-14-30.53,24.18-29.26,24.18-29.26-28-16.54-11.45-33.08S78.78,371.5,78.78,371.5Z" transform="translate(84 36)" style="fill:#4ac200"/><g style="clip-path:url(#clip-path-8)"><path d="M39,536s53,46,102,11c0,0,54,35,92-18,0,0,54.12-30.05,14.56-66.52,0,0,42.44-49.48-1.56-69.48,0,0-3.21-51.6-79-63h97l107,60,51,82,13,57-64,80-82,30L158,629,34,600Z" transform="translate(84 36)" style="fill:#41a500"/><path d="M18,448s18,32,55,8c0,0,40,16,52-24,0,0,41-11,26-50,0,0,28-11,16-39l-25.35-20.26L79,330,25,380Z" transform="translate(84 36)" style="fill:#66d620"/></g><path d="M734,1066.16s6.37-155.21-6.36-173-59.79-56-84-78.88l8.91-7.63s61.07,43.26,71.25,48.35,28,3.81,26.71-14,3.82-78.88,5.09-90.33-3.81-81.43-3.81-81.43h28s5.08,76.34,10.17,95.42,17.82,85.25,29.27,91.61,34.35,6.36,48.34,1.27,44.53-39.44,47.08-49.62,21.62-84,21.62-84l5.09-30.53,20.36,8.9L949,726.47s-19.09,90.33-19.09,98S861.23,911,861.23,911l-12.72,150.12S806.52,1099.24,734,1066.16Z" transform="translate(84 36)" style="fill:#e68d02"/><g style="clip-path:url(#clip-path-9)"><path d="M928,733a150.32,150.32,0,0,0,10,14c5,6-18,77-22,83s-65,73-73,74-65-21-84,14c0,0-41-4-47,8l20,26,58,10,82-10,12-48,56-74,13.9-110.36L924,710Z" transform="translate(84 36)" style="fill:#b06208"/><path d="M660,836l13-6s46,31,54,33,15-14,15-14l-79-46-9.15,23.34Z" transform="translate(84 36)" style="fill:#b06208"/><path d="M749,705a48.1,48.1,0,0,0,18,5c11,1,14,17,13,31s12,80,10,92,25.33,28.1,38.67,24-47.94-174.94-47.94-174.94L747,682Z" transform="translate(84 36)" style="fill:#b06208"/></g><path d="M653.85,599.24s1.27,54.71,21.63,70,39.44,0,39.44,0,39.44,68.71,109.41,0L839.6,626l-48.34-48.35Z" transform="translate(84 36)" style="fill:#358700"/><g style="clip-path:url(#clip-path-10)"><path d="M649,622s50,35,112,8c0,0-22,58,52,57l27-18,3-37-57.88-54.39L683.84,598,636,590Z" transform="translate(84 36)" style="fill:#2f7800"/><path d="M650,643s48-9.78,58,34-8,8-8,8l-38-9Z" transform="translate(84 36)" style="fill:#2f7800"/></g><path d="M896.85,441.48s34.36-62.34,64.89-63.62,28,19.09,28,19.09,66.12-24,96.69,12.72c12.73,15.27,8.91,24.17,8.91,24.17s12.81-34.29,70,0c12.73,7.64,17.82,24.18,5.09,33.08,0,0,22.9-2.54,43.26,19.09s5.09,43.25,5.09,43.25,30.53,34.36,19.08,61.07-49.62,19.09-49.62,19.09,44.53,24.17-6.36,29.26c0,0,28,12.72,5.09,21.63,0,0,16.54,12.72-10.18,28s-49.61,11.45-49.61,11.45,3.81,17.81-16.54,30.53S1061,734.1,1061,734.1s-28,19.08-72.52,19.08S921,720.11,921,720.11s-56-6.37-84-20.36-8.91-30.54-8.91-30.54-54.71,0-56-24.17,19.09-68.7,40.71-81.42Z" transform="translate(84 36)" style="fill:#41a500"/><g style="clip-path:url(#clip-path-11)"><path d="M911,405s57-2,55,48-44,57-44,57,8,4,7,19-22,21-22,21,5,44-45,40c0,0-1,55-63,32,0,0-21,11-39,11l28-99,76-94Z" transform="translate(84 36)" style="fill:#358700"/><path d="M807,678s110,42,138-9c0,0,96,21,105-43,0,0,73-36,39-68,0,0,38-66-26-96,0,0,28-65-63-73l6-16,99,18,118,35,42,103-17,110-77,88-98,46-118,7L840,731Z" transform="translate(84 36)" style="fill:#3a9400"/></g><path d="M554.61,377.86s3.82-59.79,42-64.88,44.53,17.81,44.53,17.81,22.9-33.08,70-25.45,42,14,42,14,16.54-22.9,39.44-15.27,10.18,17.81,10.18,17.81,72.52,5.09,92.87,35.63-12.72,45.8-12.72,45.8,58.52,7.63,67.43,39.44-52.16,70-52.16,70,26.71,5.08,21.63,16.53S893,538.17,893,538.17s16.54,39.44-39.44,39.44c0,0,8.9,16.54-14,24.17s-42-10.17-42-10.17-36.9,34.35-92.88,30.53-72.52-20.36-89.06-57.25c0,0-7.63,12.72-31.8,8.9s-34.36-43.25-29.27-76.33c0,0-40.71,15.27-40.71-16.54S533,444,533,444,482,400.8,513.9,381.68C526.62,374.05,554.61,377.86,554.61,377.86Z" transform="translate(84 36)" style="fill:#4ac200"/><g style="clip-path:url(#clip-path-12)"><path d="M546,513s34,47,98,16c0,0,65,40,94-10,0,0,89.46-23.32,51.23-68.16,0,0,39.77-74.84-22.23-86.84,0,0-19-62-104.49-61.49L710,284l93,1,108,40,59,73-3,131-95,80-82.41,17.22L702,639l-68-17-67-30-38.7-34.33Z" transform="translate(84 36)" style="fill:#41a500"/><path d="M522,443s43,41,84,6c0,0,49,20,62-22,0,0,48.92-19.8,21-56.4,0,0,24-47.6-35-60.6l-69-4-52,58-43,28Z" transform="translate(84 36)" style="fill:#66d620"/></g><path d="M449,709.93s-15.27-49.62,5.08-66.16,35.63,3.82,35.63,3.82-2.36-29.49,38.17-38.17c17.81-3.82,28,17.81,28,17.81s29.26-20.36,54.7-14,33.08,36.9,33.08,36.9,33.08-7.63,43.26,8.91-3.82,35.62-3.82,35.62,53.44,3.43,53.44,36.9c0,15.26-22.9,21.62-22.9,21.62s20.35,10.18,14,26.72S678,801.53,678,801.53s-6.36,29.26-34.35,35.62-38.17-7.63-38.17-7.63-12.72,33.08-49.61,26.72-58.53-21.63-57.26-44.53c0,0-31.8,22.9-54.7-3.82s0-49.62,0-49.62-31.81,5.09-21.63-25.44S449,709.93,449,709.93Z" transform="translate(84 36)" style="fill:#4ac200"/><g style="clip-path:url(#clip-path-13)"><path d="M412,769s25.84,50.17,91.42,20.09c0,0,52.58,26.91,74.58-14.09,0,0,62,0,59-42,0,0,57-32-12-69,0,0,12-43-61-51l59-13,74,32,35,51,17,50-11,45s-8,45-11,47-83,38-83,38l-86,20-84-26-57-43Z" transform="translate(84 36)" style="fill:#41a500"/><path d="M430,710s-4,42,42,19c0,0,42,14,45-27,0,0,55-2,45-39,0,0,23-50-21-59l-44,9-55,23Z" transform="translate(84 36)" style="fill:#66d620"/></g><path d="M606.15,1084s-43.45,4.7-32.88-15.27,43.45-29.35,50.49-30.53c0,0-15.26-29.36,0-42.27,0,0,18.79,0,24.66,8.22,0,0,27-44.63,38.75-49.32s12.92,14.09,12.92,14.09S713,937.19,733,932.49s28.18,4.7,28.18,4.7,24.66-34.05,65.76-22.31,37.58,49.32,37.58,49.32,39.93-1.17,48.15,21.14-9.4,34-9.4,34,21.14,7.05,22.32,18.79-5.88,22.31-5.88,22.31,48.15,5.87,50.5,23.49-11.74,20-11.74,20,38.75,4.7,41.1,29.36-104.52,0-104.52,0-29.35,34-92.77,14.09c0,0-79.85,32.88-139.74,5.87C662.51,1153.26,448.79,1169.7,606.15,1084Z" transform="translate(84 36)" style="fill:#53d900"/><g style="clip-path:url(#clip-path-14)"><path d="M761,937s76-23,75,50c0,0,88,85-13,98,0,0-24,73-115,45,0,0-101.49,41.46-168.24-7.27L539,1175l147,2,128-8,82-17h81l46-5-37-47-14-38-34-9-13-39-13-52-37-14-34-47-67,2Z" transform="translate(84 36)" style="fill:#41a500"/></g><path d="M791.14,998.32s6-18,23.4-16.19C814.54,982.13,810.34,1006.72,791.14,998.32Z" transform="translate(84 36)" style="fill:#41a500"/><path d="M825.74,1059.08s19.93-16.86,35.26-6.13C861,1053,834.17,1076,825.74,1059.08Z" transform="translate(84 36)" style="fill:#41a500"/><path d="M876.06,1085.5s36.4-10.57,42.28,0C918.34,1085.5,885.46,1100.77,876.06,1085.5Z" transform="translate(84 36)" style="fill:#368a00"/><path d="M790.51,1082.8s28.18,7,29.36,27C819.87,1109.81,783.47,1100.42,790.51,1082.8Z" transform="translate(84 36)" style="fill:#41a500"/><path d="M767,1040.53s-31.71-1.17-35.23,17.61C731.8,1058.14,756.46,1059.32,767,1040.53Z" transform="translate(84 36)" style="fill:#41a500"/><path d="M731.8,981.81s-10.57-20,0-29.35C731.8,952.46,745.89,970.07,731.8,981.81Z" transform="translate(84 36)" style="fill:#41a500"/><path d="M662.51,1038.18s21.14-16.44,39.93-9.39C702.44,1028.79,682.48,1051.1,662.51,1038.18Z" transform="translate(84 36)" style="fill:#41a500"/><path d="M711.83,1095.72s-32.88,8.22-29.35,27C682.48,1122.73,714.18,1119.21,711.83,1095.72Z" transform="translate(84 36)" style="fill:#41a500"/><path d="M327.76,1214.36c-1.11-3.89,23.54-25.34,50.69-25.34s36.21,12.67,27.16,25.34S331.38,1227,327.76,1214.36Z" transform="translate(84 36)" style="fill:#d8dfd3"/><g style="clip-path:url(#clip-path-15)"><path d="M411,1192l-27-8-29,5s31,2,32,13c.78,8.6-8.83,16-25.48,18.31C360.05,1209.62,346,1194,346,1194l-8,6,12.05,21.07c-1.32,0-2.67,0-4.05-.07l10,7,28,1,29.93-15.43Z" transform="translate(84 36)" style="fill:#b3baaf"/></g><path d="M307.57,1244.11c-19.91-1.81-48.87-5.43-38-32.58s38-45.26,52.5-39.83,39.82,45.26,38,61.55S307.57,1244.11,307.57,1244.11Z" transform="translate(84 36)" style="fill:#d8e0d3"/><g style="clip-path:url(#clip-path-16)"><path d="M298,1175s27.27,2.72,35.14,32.86S287,1250,262,1225l9,16,39,10,45-6,13.36-13.26L346,1183l-27.19-17Z" transform="translate(84 36)" style="fill:#bbc2b6"/></g><path d="M227.76,1151.65s-28-51.27,6.62-47.46c0,0-6.38-51.19,36.62-46.19,0,0,37-60,81-23,0,0,28.78-26.45,50.89-21.23S469,1015,465,1041c0,0,70.26,7.74,73.13,30.37,0,0,46.87-33.37,67.87,11.63,0,0,54,18,38,47,0,0,44,38,10,43,0,0-28,21-106,7,0,0-78,22-120-11,0,0-51,24-89-5C339,1164,246.52,1176.31,227.76,1151.65Z" transform="translate(84 36)" style="fill:#53d900"/><g style="clip-path:url(#clip-path-17)"><path d="M205,1118s25,63,131,29c0,0,59,29,86,0,0,0,88,25,106,0,0,0,44-4,18-24,0,0,20-29-14-36,0,0-14-32-67-46l38-14,92.08,26.1L663,1100l19,68-38,35-210-8-111-15-96-10Z" transform="translate(84 36)" style="fill:#41a500"/></g><path d="M298,1075s3-20,18-21C316,1054,317,1079,298,1075Z" transform="translate(84 36)" style="fill:#41a500"/><path d="M390,1064.72s15-18.72,30-6.72C420,1058,398,1076.43,390,1064.72Z" transform="translate(84 36)" style="fill:#41a500"/><path d="M339,1091s-6,21,9,23S351,1096,339,1091Z" transform="translate(84 36)" style="fill:#41a500"/><path d="M429,1096s26-18,34-8C463,1088,460,1104,429,1096Z" transform="translate(84 36)" style="fill:#41a500"/><path d="M393,1114s-5,22,12,21C405,1135,415,1122,393,1114Z" transform="translate(84 36)" style="fill:#41a500"/><path d="M491,1119s25,0,27,11C518,1130,490,1137,491,1119Z" transform="translate(84 36)" style="fill:#41a500"/><path d="M257,1125s7-18,28-11C285,1114,273,1135,257,1125Z" transform="translate(84 36)" style="fill:#41a500"/><path d="M566.27,1109.23S575,1098,587,1103C587,1103,578.54,1120.45,566.27,1109.23Z" transform="translate(84 36)" style="fill:#368a00"/><path d="M569.57,1152s30.43-1,31.43,12C601,1164,565.15,1167.06,569.57,1152Z" transform="translate(84 36)" style="fill:#368a00"/><path d="M847,1107s-6,19,10,21C857,1128,861,1108,847,1107Z" transform="translate(84 36)" style="fill:#368a00"/><path d="M868,1000s5-17,23-9C891,991,879,1010,868,1000Z" transform="translate(84 36)" style="fill:#368a00"/><polygon points="796 1313 751 1299 808 1299 793 1276 833 1301 868 1281 851 1304 899 1298 862 1317 822 1322 796 1313" style="fill:#55de00"/><polygon points="1736 1255 1693 1236 1744 1241 1726 1211 1768 1240 1792 1222 1788 1244 1829 1244 1784 1261 1756 1264 1736 1255" style="fill:#4ac200"/><g id="Layer_8" data-name="Layer 8"><circle cx="1574.52" cy="731.17" r="28.83" style="fill:#ffcd59"/><g style="clip-path:url(#clip-path-18)"><path d="M1488,665s16,11,15,30-29,24-44,6l6,19,21,9,32-8,7-33-15-22Z" transform="translate(84 36)" style="fill:#cc7a00;opacity:0.48"/></g><path d="M1272.7,721.88S1314.76,584.44,1375.28,568s112.83,121,112.83,121-9.24,14.36-44.11-6.16c0,0,11.28,27.7,6.15,48.21Z" transform="translate(84 36)" style="fill:#ff0080"/><g style="clip-path:url(#clip-path-19)"><path d="M1303.66,646.43s84.95-16.86,140.34,36.47l11.28,12.31h-4.1s-51.29-60.51-171.3-14.36C1279.88,680.85,1285.38,648.93,1303.66,646.43Z" transform="translate(84 36)" style="fill:#ffcd59"/><path d="M1319.89,599.82s95.39,12.31,124.11,83.08c0,0,6.15-69.74-89.24-113.85C1354.76,569.05,1319.89,581.36,1319.89,599.82Z" transform="translate(84 36)" style="fill:#ffcd59"/><path d="M1469.64,632.64s-1,45.14-25.64,50.26c0,0,27.69,1,40-28.72Z" transform="translate(84 36)" style="fill:#ffcd59"/><path d="M1408,622c-6.79-.9-17.1,19.66-26.69,43.49C1341.71,675.38,1339,697,1339,697c-20-18-59-16-59-16l-20,58,97.78-6.52L1357,735l96,22,5-48h30S1453,628,1408,622Z" transform="translate(84 36)" style="fill:#a300a6;opacity:0.34"/></g><path d="M1461.88,761.08s6-14.58,24.51-17.66,14.36-34.87,14.36-34.87,78.13,104-29.66,129.43l-18.55-17.63Z" transform="translate(84 36)" style="fill:#00a3b8"/><path d="M1251.05,761.08s-6-14.58-24.5-17.66-14.36-34.87-14.36-34.87-78.14,104,29.65,129.43l18.56-17.63Z" transform="translate(84 36)" style="fill:#00d3d4"/><g style="clip-path:url(#clip-path-20)"><path d="M1214,702s-15,31,0,54,35.14,83.66-7,71c0,0,4,9,11,11s47,16,55-4,5-84-23-92S1214,702,1214,702Z" transform="translate(84 36)" style="fill:#00a3b8"/></g><path d="M1300.91,942.93s-67.7,36.92-69.75,51.28,33.85,47.18,46.16,52.31" transform="translate(84 36)" style="fill:none;stroke:#3d3c3f;stroke-miterlimit:10;stroke-width:9px"/><path d="M1328.85,1171.56c3.08-9.25-42.63-24.36-56,0S1324,1186.17,1328.85,1171.56Z" transform="translate(84 36)" style="fill:#3d3c3f"/><line x1="1408.5" y1="1208.69" x2="1414.66" y2="1114.32" style="fill:none;stroke:#3d3c3f;stroke-miterlimit:10;stroke-width:9px"/><path d="M1423.24,1174.56c-3.08-9.25,42.63-24.36,56,0S1428.11,1189.17,1423.24,1174.56Z" transform="translate(84 36)" style="fill:#3d3c3f"/><line x1="1511.59" y1="1208.69" x2="1505.43" y2="1114.32" style="fill:none;stroke:#3d3c3f;stroke-miterlimit:10;stroke-width:9px"/><g id="hand"><path d="M1446.14,946.08S1524,974,1599.43,871.63" transform="translate(84 36)" style="fill:none;stroke:#3d3c3f;stroke-miterlimit:10;stroke-width:9px"/><path d="M1593,938.82c-2.29-11.89-8.76-71.66-1.92-109.68s-9-52-18-66.52-39.61-66.37-24.11-91.49,56.67.44,68.1,30.46,6.21,45.6-7.79,110.94-4.29,91.52,1.43,104.18,15.31,29.26,5.12,36S1595.29,950.76,1593,938.82Z" transform="translate(84 36)" style="fill:#e68d00"/><g style="clip-path:url(#clip-path-21)"><path d="M1545.14,674.48s11-23.37,42,3.32,34.34,63.92,25.23,102-30.1,97.15,5,177l8.13-16-18.14-59.7,8.47-65.5L1628,759.87l-.72-52.08-16.6-23.87-24.63-20.38-23.59-7.42L1545.28,668Z" transform="translate(84 36)" style="fill:#b86800"/></g><path d="M1550.08,682.29c-2,9.4.48,38.62,19.39,63.39s33.7,20.12,38.85,7.3-1.27-54.18-25.71-74.08S1552.65,670.2,1550.08,682.29Z" transform="translate(84 36)" style="fill:#ffb94d"/><g style="clip-path:url(#clip-path-22)"><path d="M1596.39,687s-22.75-12.33-24.94,23.08,19.79,56.78,30,55.79S1588,777.73,1588,777.73l-32.93-36.14-14.76-44.27,11.59-41.82,28.55,4.45Z" transform="translate(84 36)" style="fill:#ffca78"/></g><path d="M1599.26,847.46s-7.32-18.77-.75-22.5,9.65,2.68,8.8,10.75.44,20.91.44,20.91Z" transform="translate(84 36)" style="fill:#3d3c3f"/><path d="M1606,847.83c-5.45-4.92-19.09-13.6-23.74-9.35s-14.69,58.77,20.22,45.14C1607.77,881.56,1614.9,855.83,1606,847.83Z" transform="translate(84 36)" style="fill:#3d3c3f"/><g style="clip-path:url(#clip-path-23)"><path d="M1603.58,845.06s2.62,47.15-27.62,26.3l4.51,13.72,14.67,2,14.74-5.67,1.47-32.84-7.77-3.55" transform="translate(84 36)" style="fill:#252526"/></g></g><path d="M1304,910.1s-44.11,136.42-38,152.83,57.44,26.67,113.85,24.62,96.42-23.59,100.52-29.74-10.25-66.68-49.23-158Z" transform="translate(84 36)" style="fill:#00d3d4"/><g style="clip-path:url(#clip-path-24)"><path d="M1287,923s37,36,125,20c0,0,89,205-163,106l4,29,52,20,167-10,26-39-69-169-148,12Z" transform="translate(84 36)" style="fill:#00a3b8"/><path d="M1310.51,965c-1.23,2.75-2.93,5.86-2.91,8.91,0,1.42,2.11,2.13,2.79.76,1.32-2.64,1.51-5.91,2.26-8.76.32-1.24-1.58-2.16-2.14-.91Z" transform="translate(84 36)" style="fill:#bd0097"/><path d="M1322.41,995.84c-.38,1.14-.74,2.27-1.23,3.38a7,7,0,0,0-.57,3.34,1.51,1.51,0,0,0,2.8.75,7,7,0,0,0,1-3.21c.08-1.21.23-2.39.4-3.59a1.27,1.27,0,0,0-2.44-.67Z" transform="translate(84 36)" style="fill:#bd0097"/><path d="M1294.31,1026.75c-.66,2.76-2,5.94-1.1,8.76a1.7,1.7,0,0,0,2.82.74c2-2.16,2.27-5.44,2.89-8.23.67-3-3.88-4.27-4.61-1.27Z" transform="translate(84 36)" style="fill:#bd0097"/><path d="M1307,1000.74l-.3,1.1a2.29,2.29,0,0,0-.15,1.21.66.66,0,0,0,1.09.29,2.5,2.5,0,0,0,.57-1.08l.42-1.07a.84.84,0,0,0-.59-1,.86.86,0,0,0-1,.59Z" transform="translate(84 36)" style="fill:#bd0097"/><path d="M1312.09,1047.56l-.32,1.27a.8.8,0,1,0,1.54.42l.32-1.27a.81.81,0,0,0-.56-1,.8.8,0,0,0-1,.56Z" transform="translate(84 36)" style="fill:#bd0097"/><path d="M1300.23,1058.76c-.34,1-.87,2.78-.07,3.63a.43.43,0,0,0,.66-.08,2.86,2.86,0,0,0,.14-1.48,6.36,6.36,0,0,1,.27-1.79.52.52,0,0,0-1-.28Z" transform="translate(84 36)" style="fill:#bd0097"/><path d="M1276.74,1051.73c.31-.59.63-1.17.93-1.77a1.72,1.72,0,0,0,.15-1.9.71.71,0,0,0-.79-.33c-.81.21-1,.71-1.24,1.44s-.4,1.27-.6,1.91a.85.85,0,0,0,1.55.65Z" transform="translate(84 36)" style="fill:#bd0097"/><path d="M1283.1,1011c.2-1,.69-2.38.34-3.4a1.46,1.46,0,0,0-2.42-.64c-.8.72-1,2.09-1.36,3.09a1.8,1.8,0,0,0,1.24,2.19,1.82,1.82,0,0,0,2.2-1.24Z" transform="translate(84 36)" style="fill:#bd0097"/><path d="M1436.16,942.52l.32.63a.27.27,0,0,0,.38.1.29.29,0,0,0,.11-.38l-.32-.64a.3.3,0,0,0-.39-.1.29.29,0,0,0-.1.39Z" transform="translate(84 36)" style="fill:#de6400"/><path d="M1446.21,978.21c0,.45.06.9.12,1.35s.06.13,0,.54a8.51,8.51,0,0,0-.06,3.41,3.49,3.49,0,0,0,4.27,2.42,3.55,3.55,0,0,0,2.42-4.26,6.87,6.87,0,0,0-1.2-2.42,7,7,0,0,1-.75-1.69,2.45,2.45,0,0,0-2.68-1.74,2.41,2.41,0,0,0-2.11,2.39Z" transform="translate(84 36)" style="fill:#a6007f"/><path d="M1441.74,1011.11a13.47,13.47,0,0,0,1.09,2.1.47.47,0,0,0,.86-.36,12.92,12.92,0,0,0-.75-2.25.65.65,0,1,0-1.2.51Z" transform="translate(84 36)" style="fill:#a6007f"/><path d="M1457.48,1009.6a29,29,0,0,0,1.91,5.87,1.27,1.27,0,0,0,2.36-.63,29.36,29.36,0,0,0-1.38-6,1.5,1.5,0,0,0-2.89.8Z" transform="translate(84 36)" style="fill:#a6007f"/><path d="M1448.16,1043.63c-.05,2.39-.56,5,1.41,6.8a1.66,1.66,0,0,0,2.57-.33c1.36-2.34.13-4.61-.66-6.92a1.7,1.7,0,0,0-3.32.45Z" transform="translate(84 36)" style="fill:#a6007f"/><path d="M1419.18,952a5.58,5.58,0,0,1,.18.58c0,.08.14.83.11.46s0,.3,0,.38a3.45,3.45,0,0,0,.43,1.53c.83,1.7,3.31,1.48,4.2,0,.75-1.23.46-3,.05-4.32a2.58,2.58,0,1,0-5,1.37Z" transform="translate(84 36)" style="fill:#a6007f"/><path d="M1435.45,953.93c.53,1.46.61,3.12,1.54,4.38a1.47,1.47,0,0,0,2.65-.35,4,4,0,0,0-.17-2.78,20.33,20.33,0,0,0-1.1-2.48c-.83-1.57-3.53-.49-2.92,1.23Z" transform="translate(84 36)" style="fill:#a6007f"/><path d="M1432.5,985.89l.57,2.55a6.19,6.19,0,0,0,1.12,2.41,1.46,1.46,0,0,0,2.7-.73,6.21,6.21,0,0,0-.16-2.68l-.7-2.52c-.64-2.28-4-1.32-3.53,1Z" transform="translate(84 36)" style="fill:#a6007f"/><path d="M1467.67,1039c.66,1.14.81,2.48,1.51,3.58a1.09,1.09,0,0,0,2-.26c.56-1.55-.26-3.4-1-4.79-.85-1.65-3.47-.16-2.51,1.47Z" transform="translate(84 36)" style="fill:#a6007f"/><path d="M1427.08,1067.5a37.3,37.3,0,0,0,1.16,4.33,1.37,1.37,0,0,0,1.49,1,1.34,1.34,0,0,0,1.18-1.33,38.48,38.48,0,0,0-.93-4.76c-.4-1.88-3.38-1.09-2.9.79Z" transform="translate(84 36)" style="fill:#a6007f"/><path d="M1430.05,1040.51l.75,4" transform="translate(84 36)" style="fill:#ac6b00"/><path d="M1423.39,920.89c.36,1.27.58,3.34,1.93,3.92a1.9,1.9,0,0,0,2.5-.66c.89-1.23,0-3.08-.36-4.38a2.11,2.11,0,0,0-4.07,1.12Z" transform="translate(84 36)" style="fill:#a6007f"/></g><path d="M1282.14,728.14s-26.87-11.39-41.23-3.18c0,0,10.13-12.94,68.72-9.23,0,0-12.31-19.49-49.23-26.67,0,0,40-11.28,81,20.51,0,0,21.54-42.05,75.9-29.74,0,0-27.53,20.65-22.57,33.85,0,0,50.26-19.49,72.83-5.13a178,178,0,0,0-36.93,13.33s26.67,2,44.11,11.29c0,0-24.71,1.08-27.69,6.15,0,0,66.91,63.65,10.89,141.07s-167.46,58.44-200.47-1.82S1236.18,758,1282.14,728.14Z" transform="translate(84 36)" style="fill:#00d3d4"/><g style="clip-path:url(#clip-path-25)"><path d="M1425,679l8-6,35,12.78S1486,743,1488,773s3,94-26,127-89,39-89,39l-61-10c99.76,5.06,162-104.15,127-172-17-33-44-43-44-43s-11-14-3-24S1425,679,1425,679Z" transform="translate(84 36)" style="fill:#00a3b8"/><path d="M1273.53,750.86c-2.25,2-4.55,4.17-5.85,6.92-.62,1.33,1,2.84,2.14,1.65,2-2.1,3.58-4.57,5.56-6.71a1.31,1.31,0,0,0-1.85-1.86Z" transform="translate(84 36)" style="fill:#bd0097"/><path d="M1254.32,797.12c-1.31,2.49-2.92,5.79-2.64,8.66a4,4,0,0,0,3.41,3.86c1.78.21,4-.87,4.3-2.81a25.44,25.44,0,0,0,.28-4.08,11.43,11.43,0,0,1,.65-3.1c1.12-3.52-4.26-5.84-6-2.53Z" transform="translate(84 36)" style="fill:#bd0097"/><path d="M1272,782.08a4.17,4.17,0,0,1-.27,1.08,10,10,0,0,0-.33,1.19c-.18.71.64,1.47,1.31,1a3,3,0,0,0,1.18-1.29,6.46,6.46,0,0,0,.51-1.67,1.22,1.22,0,1,0-2.4-.32Z" transform="translate(84 36)" style="fill:#bd0097"/><path d="M1268.57,831.07a16.14,16.14,0,0,0,1.36,3.26.52.52,0,0,0,1-.39,16,16,0,0,0-1.14-3.19c-.28-.73-1.46-.41-1.17.32Z" transform="translate(84 36)" style="fill:#bd0097"/><path d="M1249.21,838.11c.44,2.61.52,5.87,2.67,7.73a3.15,3.15,0,0,0,5.2-1.37c1-2.69-.62-5.61-1.54-8.11a3.29,3.29,0,0,0-6.33,1.75Z" transform="translate(84 36)" style="fill:#bd0097"/><path d="M1269.55,862.7l1,2.53a4.26,4.26,0,0,0,1.88,2.49,1.75,1.75,0,0,0,2.52-1c.58-1.85-.86-4-1.59-5.61-1-2.16-4.77-.59-3.86,1.62Z" transform="translate(84 36)" style="fill:#bd0097"/><path d="M1296.91,909.56a9,9,0,0,1,1.2.7c.25.16-.33-.29-.11-.09l.27.24a2.81,2.81,0,0,0,1.34.73,2.15,2.15,0,0,0,1.82-.37,2,2,0,0,0,.82-1.63,2.81,2.81,0,0,0-.73-1.87,6.28,6.28,0,0,0-.56-.59,9.93,9.93,0,0,0-1.63-1.25,2.39,2.39,0,1,0-2.42,4.13Z" transform="translate(84 36)" style="fill:#bd0097"/><path d="M1275.39,891.72a5.78,5.78,0,0,0,1,1.76,2.42,2.42,0,0,0,3.1.72,1.9,1.9,0,0,0,.94-1.12,1.39,1.39,0,0,0,.06-.19,2.25,2.25,0,0,0,0-1.26,3,3,0,0,0-.64-1.06l.36.45a3,3,0,0,1-.38-.65l.24.56a3.88,3.88,0,0,1-.14-.45,2.34,2.34,0,0,0-4.28-.56,2.28,2.28,0,0,0-.24,1.8Z" transform="translate(84 36)" style="fill:#bd0097"/><path d="M1288.81,888.76a30.76,30.76,0,0,0,3.08,2.74c.34.24.82-.24.58-.58a33.32,33.32,0,0,0-2.73-3.09c-.58-.62-1.55.35-.93.93Z" transform="translate(84 36)" style="fill:#bd0097"/><path d="M1287.76,800.82l-.31.94a.61.61,0,0,0,.43.75.63.63,0,0,0,.75-.42l.31-1a.62.62,0,0,0-.43-.75.63.63,0,0,0-.75.43Z" transform="translate(84 36)" style="fill:#bd0097"/><path d="M1295.82,735.4c-1.13,1.81-2.33,3.6-3.33,5.49a1,1,0,0,0,1.62,1.25c1.64-1.39,3.13-3,4.66-4.47,1.9-1.89-1.48-4.63-3-2.27Z" transform="translate(84 36)" style="fill:#bd0097"/><path d="M1457.42,853a18.54,18.54,0,0,1-2.43,3.1,1,1,0,0,0,1.2,1.55,7.71,7.71,0,0,0,3.42-3.38,1.27,1.27,0,0,0-2.19-1.27Z" transform="translate(84 36)" style="fill:#a6007f"/><path d="M1430.21,890.71c2.12-1.14,4.74-2.22,5.87-4.49a3.51,3.51,0,0,0-3.9-5.08c-2.51.62-4.11,2.86-5.72,4.71a3.1,3.1,0,0,0,3.75,4.86Z" transform="translate(84 36)" style="fill:#a6007f"/><path d="M1457.27,828.08a4.72,4.72,0,0,1-1.24,2.55" transform="translate(84 36)" style="fill:#a57100"/><path d="M1473.23,803.19a26.87,26.87,0,0,1-.17,4.11,13.24,13.24,0,0,0,.31,4.39c.43,2.12,3.13,2,4.19.55,2-2.7,1.86-5.87,1.48-9a3,3,0,0,0-2.9-2.91,2.94,2.94,0,0,0-2.91,2.91Z" transform="translate(84 36)" style="fill:#a6007f"/><path d="M1455.41,780.51a20.86,20.86,0,0,0,1.11,5.14c.37.88,1.48.28,1.57-.42a20.37,20.37,0,0,0-.37-5,1.17,1.17,0,1,0-2.31.32Z" transform="translate(84 36)" style="fill:#a6007f"/><path d="M1444.06,750.52a17.79,17.79,0,0,0,1.44,2,7.25,7.25,0,0,0,1.86,1.54c1.22.76,2.94-.8,2.05-2a38.59,38.59,0,0,1-2.28-3.29c-1.13-2-4.27-.17-3.07,1.8Z" transform="translate(84 36)" style="fill:#a6007f"/><path d="M1417.9,723.18a14.35,14.35,0,0,0,2.4,3.54c.45.41,1.32,0,1.09-.64a14.28,14.28,0,0,0-2.28-3.61c-.51-.72-1.68-.08-1.21.71Z" transform="translate(84 36)" style="fill:#a6007f"/><path d="M1457.59,799.08l-.46,3.49c-.09.71,1,.72,1.12,0l.37-3.49c.07-.67-.94-.64-1,0Z" transform="translate(84 36)" style="fill:#a6007f"/><path d="M1404.3,908.68c2.68-1.91,7.2-3.59,7.67-7.22.1-.78-.61-1.37-1.24-1.62-3.41-1.36-7.23,2.84-9.44,4.93-2,1.9.67,5.57,3,3.91Z" transform="translate(84 36)" style="fill:#a6007f"/><path d="M1304,884c-5-2.1-16.88-10,5-36a46.56,46.56,0,0,0,28,7C1338.84,854.87,1337,898,1304,884Z" transform="translate(84 36)" style="fill:#00a3b8"/><path d="M1343,856s-2.44,21.26,14,20c13-1,6-21,6-21Z" transform="translate(84 36)" style="fill:#00a3b8"/><ellipse cx="1395.71" cy="779.7" rx="44.28" ry="31.67" transform="translate(488.65 2070.19) rotate(-80.88)" style="fill:#00a3b8"/><ellipse cx="1322.71" cy="779.7" rx="31.67" ry="44.28" transform="translate(-22.86 255.5) rotate(-9.12)" style="fill:#00a3b8"/></g><ellipse cx="1392.2" cy="779.84" rx="37.44" ry="23.08" transform="translate(441.34 2030.51) rotate(-78.83)" style="fill:#fff"/><ellipse cx="1385.34" cy="774.68" rx="8.47" ry="5.22" transform="translate(440.88 2019.62) rotate(-78.83)" style="fill:#3d3c3f"/><ellipse cx="1327.58" cy="779.84" rx="23.08" ry="37.44" transform="translate(-41.96 308.07) rotate(-11.17)" style="fill:#fff"/><ellipse cx="1336.44" cy="774.68" rx="5.22" ry="8.47" transform="translate(-40.79 309.69) rotate(-11.17)" style="fill:#3d3c3f"/><path d="M1306.32,847.3s-21.06,27.3,1.21,35.35,26.54-28,26.54-28Z" transform="translate(84 36)" style="fill:#fff"/><path d="M1341.05,857.18s-.65,18.45,11.69,17.85,7.89-20.25,7.89-20.25Z" transform="translate(84 36)" style="fill:#fff"/><path d="M1291,825c0,.18,10,61.36,135.89,9.4" transform="translate(84 36)" style="fill:none;stroke:#3d3c3f;stroke-linecap:round;stroke-miterlimit:10;stroke-width:4px"/></g></g></g></svg>