<svg width="2000" height="1458" viewBox="0 0 2000 1458" fill="none" xmlns="http://www.w3.org/2000/svg">
<path d="M1000.59 1324.79C1351.84 1324.79 1636.58 1298.76 1636.58 1266.66C1636.58 1234.55 1351.84 1208.52 1000.59 1208.52C649.339 1208.52 364.595 1234.55 364.595 1266.66C364.595 1298.76 649.339 1324.79 1000.59 1324.79Z" fill="#D0D4E0"/>
<path d="M509.404 365.127C525.267 353.77 540.556 347.319 555.268 345.773C569.981 344.226 585.196 347.472 600.915 355.509L694.899 1249.71C681.342 1259.27 666.796 1264.87 651.261 1266.5C635.727 1268.14 619.769 1265.74 603.388 1259.33L509.404 365.127Z" fill="#A37631"/>
<mask id="mask0" mask-type="alpha" maskUnits="userSpaceOnUse" x="509" y="345" width="186" height="922">
<path d="M509.404 365.127C525.267 353.77 540.556 347.319 555.268 345.773C569.981 344.226 585.196 347.472 600.915 355.509L694.899 1249.71C681.342 1259.27 666.796 1264.87 651.261 1266.5C635.727 1268.14 619.769 1265.74 603.388 1259.33L509.404 365.127Z" fill="#A37631"/>
</mask>
<g mask="url(#mask0)">
<path fill-rule="evenodd" clip-rule="evenodd" d="M589.987 310.963L638.702 1279.01L791.611 1266.84L614.344 298.795L589.987 310.963Z" fill="#9B6C25"/>
</g>
<path d="M210.955 437.483L933.53 348.762C943.915 347.487 953.366 354.865 954.64 365.241L957.764 390.687L924.207 410.937L960.748 414.989L985.287 614.844C986.561 625.22 979.176 634.665 968.791 635.94L246.216 724.661C235.832 725.936 226.38 718.559 225.106 708.183L222.475 686.755L259.786 676.006L220.493 670.608L212.195 603.029L232.733 575.957L207.209 562.417L200.239 505.657L257.098 489.424L198.257 489.51L194.459 458.579C193.185 448.203 200.571 438.758 210.955 437.483Z" fill="#F9C16E"/>
<mask id="mask1" mask-type="alpha" maskUnits="userSpaceOnUse" x="194" y="348" width="792" height="377">
<path d="M210.955 437.483L933.53 348.762C943.915 347.487 953.366 354.865 954.64 365.241L957.764 390.687L924.207 410.937L960.748 414.989L985.287 614.844C986.561 625.22 979.176 634.665 968.791 635.94L246.216 724.661C235.832 725.936 226.38 718.559 225.106 708.183L222.475 686.755L259.786 676.006L220.493 670.608L212.195 603.029L232.733 575.957L207.209 562.417L200.239 505.657L257.098 489.424L198.257 489.51L194.459 458.579C193.185 448.203 200.571 438.758 210.955 437.483Z" fill="#F9C16E"/>
</mask>
<g mask="url(#mask1)">
<mask id="mask2" mask-type="alpha" maskUnits="userSpaceOnUse" x="194" y="348" width="792" height="377">
<path d="M210.955 437.483L933.53 348.762C943.915 347.487 953.366 354.865 954.64 365.241L957.764 390.687L924.207 410.937L960.748 414.989L985.287 614.844C986.561 625.22 979.176 634.665 968.791 635.94L246.216 724.661C235.832 725.936 226.38 718.559 225.106 708.183L222.475 686.755L259.786 676.006L220.493 670.608L212.195 603.029L232.733 575.957L207.209 562.417L200.239 505.657L257.098 489.424L198.257 489.51L194.459 458.579C193.185 448.203 200.571 438.758 210.955 437.483Z" fill="#F9C16E"/>
</mask>
<g mask="url(#mask2)">
<path d="M570.608 712.644L874.318 319.54L1007.77 308.046L1129.71 641.379L570.608 712.644Z" fill="#F3B962"/>
</g>
<path d="M924.222 408.308L958.052 389.38" stroke="#EBA742" stroke-width="13.5436"/>
<path d="M255.748 481.317L251.689 490.781L197.561 494.837L196.208 477.261L255.748 481.317Z" fill="#EBA742"/>
<path d="M215.156 661.135L261.001 669.352L255.752 677.359L217.863 674.655L215.156 661.135Z" fill="#EBA742"/>
<path d="M205.684 561.086L232.748 575.958" stroke="#EBA742" stroke-width="13.5436"/>
<path d="M215.156 720.623L891.746 640.855" stroke="#EBA742" stroke-width="13.5436"/>
</g>
<mask id="mask3" mask-type="alpha" maskUnits="userSpaceOnUse" x="934" y="328" width="809" height="852">
<path d="M953.227 621.744C1006 374.326 1254.99 320.245 1335.03 329.823C1453.69 340.196 1558.33 484.76 1601.43 651.71C1606.05 650.808 1610.64 649.363 1615.17 647.253C1681.17 616.502 1727.87 576.988 1740.84 604.766C1753.8 632.543 1706.67 718.811 1624.12 789.115C1623.4 789.498 1622.67 789.88 1621.96 790.261C1622.81 813.189 1622.3 835.974 1620.34 858.347C1599.83 1092.66 1572.98 1188.24 1260.73 1178.35C948.481 1168.46 900.453 869.163 953.227 621.744Z" fill="white"/>
</mask>
<g mask="url(#mask3)">
<path d="M953.227 621.744C1006 374.326 1254.99 320.245 1335.03 329.823C1453.69 340.196 1558.33 484.76 1601.43 651.71C1606.05 650.808 1610.64 649.363 1615.17 647.253C1681.17 616.502 1727.87 576.988 1740.84 604.766C1753.8 632.543 1706.67 718.811 1624.12 789.115C1623.4 789.498 1622.67 789.88 1621.96 790.261C1622.81 813.189 1622.3 835.974 1620.34 858.347C1599.83 1092.66 1572.98 1188.24 1260.73 1178.35C948.481 1168.46 900.453 869.163 953.227 621.744Z" fill="#ADE468"/>
<path d="M1613.3 625.521L1621.08 634.539C1596.43 660.481 1561.61 669.932 1515.75 676.732C1507.73 678.273 1502.76 677.943 1500.83 675.741C1498.91 673.54 1500.72 670.256 1506.27 665.89C1550.2 659.705 1584.72 642.517 1607.88 618.761L1613.3 625.521Z" fill="#9ED854"/>
<path fill-rule="evenodd" clip-rule="evenodd" d="M902.184 891.612C924.564 1143.77 1096.7 1267.97 1301.45 1260.83C1515.06 1253.38 1666.2 1140.8 1656.6 866.18L1519.52 759.435L1461.66 885.915L1266.16 754.746L1232.74 805.967L1196.45 774.765L1096.74 866.179L972.95 810.973L902.184 891.612Z" fill="#9ED854"/>
<path fill-rule="evenodd" clip-rule="evenodd" d="M1626.52 616.519C1560.46 356.949 1365.86 220.452 1183.52 260.997C1001.17 301.542 851.106 579.97 908.286 848.75L961.921 762.719L1096.63 797.692L1181.59 689.805L1216.9 712.715L1237.69 654.393L1453.3 750.972L1480.38 593.534L1564.28 625.983C1583.42 614.722 1596.5 607.06 1603.52 602.999C1610.54 598.937 1618.2 603.443 1626.52 616.519Z" fill="#9ED854"/>
<path d="M1728.32 580.905C1713.88 669.236 1644.87 736.837 1521.28 783.707C1513.16 792.72 1547.89 821.563 1625.48 870.236L1804.1 612.001L1728.32 580.905Z" fill="#9ED854"/>
</g>
<mask id="mask4" mask-type="alpha" maskUnits="userSpaceOnUse" x="911" y="770" width="775" height="508">
<path d="M911.882 894.277C925.441 1147.06 1093.13 1277.19 1298.01 1277.19C1511.75 1277.19 1685.02 1135.56 1685.02 860.772L1633.6 805.339L1603.83 826.971L1533.46 783.707L1471.21 908.092L1280.42 770.187L1245.23 820.211L1210.05 787.763L1107.21 875.644L985.422 816.155L911.882 894.277Z" fill="white"/>
<path d="M911.882 894.277C925.441 1147.06 1093.13 1277.19 1298.01 1277.19C1511.75 1277.19 1685.02 1135.56 1685.02 860.772L1633.6 805.339L1603.83 826.971L1533.46 783.707L1471.21 908.092L1280.42 770.187L1245.23 820.211L1210.05 787.763L1107.21 875.644L985.422 816.155L911.882 894.277Z" fill="url(#paint0_linear)"/>
</mask>
<g mask="url(#mask4)">
<path d="M911.882 894.277C925.441 1147.06 1093.13 1277.19 1298.01 1277.19C1511.75 1277.19 1685.02 1135.56 1685.02 860.772L1633.6 805.339L1603.83 826.971L1533.46 783.707L1471.21 908.092L1280.42 770.187L1245.23 820.211L1210.05 787.763L1107.21 875.644L985.422 816.155L911.882 894.277Z" fill="white"/>
<path d="M911.882 894.277C925.441 1147.06 1093.13 1277.19 1298.01 1277.19C1511.75 1277.19 1685.02 1135.56 1685.02 860.772L1633.6 805.339L1603.83 826.971L1533.46 783.707L1471.21 908.092L1280.42 770.187L1245.23 820.211L1210.05 787.763L1107.21 875.644L985.422 816.155L911.882 894.277Z" fill="#F8F8FB"/>
<path fill-rule="evenodd" clip-rule="evenodd" d="M1298.01 733.682C1320.56 997.776 1238.47 1193.82 1051.73 1321.81C1049.92 1322.71 1277.71 1315.05 1735.08 1298.82L1851.46 739.09L1298.01 733.682Z" fill="#EFF0FA"/>
<path d="M1182.18 984.311C1183.46 983.756 1184.92 984.254 1185.6 985.423L1185.75 985.705L1195.84 1008.74L1182.53 1027.35L1196.42 1046.77L1164.32 1080.08C1163.17 1081.02 1155.05 1078.89 1154.11 1077.73C1153.24 1076.66 1153.32 1075.13 1154.25 1074.16L1154.5 1073.93L1189.06 1045.78L1175.88 1027.35L1189.64 1008.1L1180.79 987.873C1180.23 986.602 1180.73 985.137 1181.9 984.454L1182.18 984.311Z" fill="#E0E0EA"/>
<path d="M1501.97 965.383C1500.7 964.827 1499.23 965.326 1498.55 966.495L1498.4 966.777L1488.32 989.815L1501.62 1008.42L1487.73 1027.84L1519.83 1061.15C1520.99 1062.09 1529.1 1059.96 1530.05 1058.8C1530.92 1057.73 1530.84 1056.2 1529.91 1055.23L1529.66 1055L1495.09 1026.85L1508.27 1008.42L1494.51 989.168L1503.36 968.944C1503.92 967.674 1503.42 966.208 1502.25 965.526L1501.97 965.383Z" fill="#DFDFE9"/>
<path d="M1142.67 1085.49L1125.08 1070.61L1137.26 1057.09" stroke="#E0E0EA" stroke-width="5.41744" stroke-linecap="round"/>
<path d="M1183.27 1031.41H1200.86L1208.98 1021.94" stroke="#E0E0EA" stroke-width="5.41744" stroke-linecap="round"/>
<path d="M1350.89 967.862C1361.29 972.057 1374.71 963.111 1380.87 947.88C1387.02 932.649 1383.59 916.9 1373.2 912.705C1362.8 908.509 1349.39 917.455 1343.23 932.686C1337.07 947.917 1340.5 963.666 1350.89 967.862Z" fill="#D0D4E0"/>
<path d="M997.805 963.484C1009 962.898 1017.38 949.124 1016.52 932.719C1015.66 916.314 1005.88 903.491 994.689 904.077C983.494 904.663 975.116 918.437 975.977 934.842C976.837 951.247 986.61 964.07 997.805 963.484Z" fill="#DCE2E3"/>
<path d="M1349.04 1204.53C1354.77 1209.33 1365.64 1205.8 1373.33 1196.65C1381.01 1187.5 1382.6 1176.19 1376.88 1171.39C1371.15 1166.59 1360.28 1170.12 1352.59 1179.27C1344.91 1188.42 1343.32 1199.73 1349.04 1204.53Z" fill="#D0D4E0"/>
<path d="M1611 917.523C1615.47 917.836 1619.52 912.051 1620.04 904.602C1620.57 897.153 1617.36 890.862 1612.89 890.549C1608.42 890.237 1604.37 896.022 1603.85 903.47C1603.32 910.919 1606.53 917.211 1611 917.523Z" fill="#D0D4E0"/>
<path d="M1554.17 871.555C1558.64 871.867 1562.69 866.082 1563.21 858.634C1563.73 851.185 1560.53 844.893 1556.06 844.58C1551.58 844.268 1547.53 850.053 1547.01 857.502C1546.49 864.951 1549.69 871.242 1554.17 871.555Z" fill="#D0D4E0"/>
</g>
<mask id="mask5" mask-type="alpha" maskUnits="userSpaceOnUse" x="835" y="204" width="834" height="627">
<path d="M1662.84 692.31C1619.7 427.973 1409.04 226.73 1223.85 251.261C1038.67 275.792 864.864 540.117 898.353 812.857L959.295 731.816L1090.44 778.375L1184.49 678.285L1217.66 704.18L1243.47 647.886L1449.81 762.855L1492.24 630.962L1576.24 671.049L1605.5 642.936L1662.84 692.31Z" fill="#F8F8FB"/>
</mask>
<g mask="url(#mask5)">
<path d="M1656.19 630.808C1576.62 375.049 1339.96 205.044 1159.98 255.069C980.01 305.093 844.736 590.987 915.917 856.408L964.972 767.691L1101.33 795.571L1180.52 683.39L1216.98 704.423L1234.69 645.093L1455.06 730.265L1478.69 593.765L1567.46 621.79L1592.53 589.884L1656.19 630.808Z" fill="#F8F8FB"/>
<mask id="mask6" mask-type="alpha" maskUnits="userSpaceOnUse" x="896" y="246" width="761" height="611">
<path d="M1656.11 630.735C1576.57 374.969 1339.94 204.978 1159.97 255.024C980.004 305.069 844.71 590.992 915.86 856.422L964.921 767.695L1101.27 795.563L1180.46 683.368L1216.92 704.398L1234.64 645.062L1454.99 730.218L1478.63 593.708L1567.39 621.725L1592.46 589.815L1656.11 630.735Z" fill="#F8F8FB"/>
</mask>
<g mask="url(#mask6)">
<path fill-rule="evenodd" clip-rule="evenodd" d="M1100.34 169.39C1251.17 272.573 1323.4 479.389 1317.01 789.838C1467.91 760.429 1650.37 728.964 1864.38 695.444L1529.85 92.1791L1100.34 169.39Z" fill="#EFF0FA"/>
</g>
<path d="M1076.75 583.624C1091.19 587.489 1107.44 573.667 1113.05 552.75C1118.66 531.834 1111.51 511.745 1097.07 507.879C1082.63 504.014 1066.38 517.837 1060.77 538.753C1055.16 559.67 1062.32 579.759 1076.75 583.624Z" fill="#DCE2E3"/>
<path d="M1134.73 434.057C1143.4 436.376 1153.24 427.732 1156.72 414.749C1160.2 401.767 1156 389.362 1147.34 387.043C1138.68 384.724 1128.83 393.369 1125.35 406.351C1121.87 419.334 1126.07 431.738 1134.73 434.057Z" fill="#DCE2E3"/>
<path d="M1207.9 619.652C1212.23 620.811 1217.31 615.904 1219.25 608.692C1221.18 601.479 1219.24 594.693 1214.91 593.533C1210.57 592.373 1205.5 597.28 1203.56 604.493C1201.63 611.705 1203.57 618.492 1207.9 619.652Z" fill="#DCE2E3"/>
<path d="M969.742 668.324C974.073 669.484 979.152 664.577 981.086 657.364C983.021 650.152 981.077 643.365 976.746 642.205C972.415 641.046 967.336 645.953 965.402 653.165C963.467 660.378 965.41 667.165 969.742 668.324Z" fill="#DCE2E3"/>
<path d="M998.25 465.035C1003 457.437 1001.72 448.069 995.38 444.112C989.042 440.155 980.052 443.107 975.299 450.706C970.547 458.305 971.832 467.673 978.17 471.63C984.508 475.587 993.498 472.634 998.25 465.035Z" fill="#DCE2E3"/>
<path d="M1510.86 474.745C1514.66 472.371 1514.54 465.313 1510.58 458.98C1506.61 452.648 1500.32 449.439 1496.52 451.813C1492.72 454.187 1492.84 461.245 1496.8 467.578C1500.76 473.91 1507.06 477.119 1510.86 474.745Z" fill="#D0D4E0"/>
<path d="M1299.76 320.615C1303.57 318.241 1303.44 311.183 1299.48 304.85C1295.52 298.518 1289.23 295.309 1285.42 297.684C1281.62 300.058 1281.75 307.116 1285.71 313.448C1289.67 319.78 1295.96 322.989 1299.76 320.615Z" fill="#D0D4E0"/>
<path d="M1477.56 571.928C1483.9 567.971 1483.9 556.55 1477.56 546.418C1471.23 536.286 1460.95 531.281 1454.62 535.238C1448.28 539.194 1448.28 550.616 1454.61 560.747C1460.95 570.879 1471.22 575.885 1477.56 571.928Z" fill="#D0D4E0"/>
<path d="M1405.02 524.618C1425.5 515.507 1431.76 484.896 1418.99 456.246C1406.22 427.596 1379.27 411.757 1358.79 420.868C1338.31 429.979 1332.05 460.591 1344.82 489.241C1357.59 517.891 1384.54 533.73 1405.02 524.618Z" fill="#D0D4E0"/>
</g>
<path d="M1157.56 1120.64C1170.26 1120.64 1180.56 1110.35 1180.56 1097.65C1180.56 1084.96 1170.26 1074.67 1157.56 1074.67C1144.85 1074.67 1134.55 1084.96 1134.55 1097.65C1134.55 1110.35 1144.85 1120.64 1157.56 1120.64Z" fill="#E0E0EA"/>
<path d="M1529.68 1081.43C1542.39 1081.43 1552.69 1071.14 1552.69 1058.45C1552.69 1045.75 1542.39 1035.46 1529.68 1035.46C1516.98 1035.46 1506.68 1045.75 1506.68 1058.45C1506.68 1071.14 1516.98 1081.43 1529.68 1081.43Z" fill="#DFDFE9"/>
<path fill-rule="evenodd" clip-rule="evenodd" d="M1534.51 1046.75C1529.65 1046.97 1525.86 1049.01 1523.14 1052.85C1520.42 1056.69 1519.41 1061.45 1520.11 1067.11L1568.23 1096.49L1574.06 1078.56L1534.51 1046.75Z" fill="#FAA424"/>
<path fill-rule="evenodd" clip-rule="evenodd" d="M1590.1 1011.23L1616.35 936.499C1620.48 933.259 1624.2 931.989 1627.5 932.689C1630.8 933.39 1633.68 936.06 1636.14 940.701L1610.61 1021.76L1651.51 985.144C1656.69 986.122 1659.85 987.479 1660.98 989.215C1662.12 990.951 1662.08 994.375 1660.87 999.486L1593.47 1063.42L1578.61 1113.81C1575.13 1117.19 1571.41 1118.46 1567.45 1117.62C1563.49 1116.78 1559.95 1113.97 1556.83 1109.18L1572.11 1056.83L1566.09 958.776C1569.15 955.016 1572.34 952.95 1575.69 952.577C1579.03 952.204 1582.19 953.561 1585.16 956.648L1590.1 1011.23Z" fill="#FEB444"/>
<path fill-rule="evenodd" clip-rule="evenodd" d="M1150.94 1084.48C1155.72 1083.61 1159.87 1084.74 1163.39 1087.88C1166.9 1091.01 1168.96 1095.41 1169.55 1101.09L1129.28 1140.53L1119.56 1124.37L1150.94 1084.48Z" fill="#FAA424"/>
<path fill-rule="evenodd" clip-rule="evenodd" d="M1088.78 1062.37L1046.38 995.451C1041.62 993.224 1037.71 992.823 1034.65 994.246C1031.59 995.67 1029.39 998.92 1028.04 1003.99L1071.16 1077.25L1023.07 1050.75C1018.24 1052.87 1015.47 1054.91 1014.75 1056.85C1014.04 1058.8 1014.85 1062.13 1017.18 1066.83L1097.24 1113.99L1123.07 1159.74C1127.22 1162.25 1131.12 1162.65 1134.79 1160.95C1138.46 1159.24 1141.28 1155.7 1143.24 1150.34L1116.57 1102.77L1100.36 1005.86C1096.53 1002.89 1092.95 1001.59 1089.61 1001.98C1086.27 1002.37 1083.5 1004.4 1081.3 1008.08L1088.78 1062.37Z" fill="#FEB444"/>
<path d="M561.318 455.535L561.672 458.216L552.079 459.458C529.602 462.307 508.623 464.513 474.156 467.753L424.15 472.383C371.093 477.368 337.634 481.223 302.183 486.894L298.688 487.458L298.253 484.789L301.754 484.224C336.693 478.635 369.682 474.808 421.295 469.936L477.672 459.685C510.157 456.607 531.934 459.315 554.107 456.474L561.318 455.535Z" fill="#EBA742"/>
<path d="M849.773 443.856L849.991 446.551L820.709 448.851C772.295 452.563 724.606 457.765 718.539 458.333L710.69 457.137C703.078 457.983 695.624 459.091 683.709 461.107L614.509 473.112L614.052 470.447L677.943 455.629L690.198 457.288C699.643 455.754 706.15 454.871 713.285 454.141L716.078 453.885C727.404 452.967 780.161 449.282 827.559 445.611L849.773 443.856Z" fill="#EBA742"/>
<path d="M671.178 608.406L671.162 612.978L649.527 617.87L582.159 625.273L581.788 622.594L646.82 615.166L671.178 608.406Z" fill="#EBA742"/>
<path d="M845.656 595.049L846.053 597.723C829.833 600.1 814.843 602.309 801.083 604.35C787.323 606.392 766.19 609.541 737.682 613.8L737.285 611.125C775.575 604.471 802.705 599.959 818.674 597.59C834.644 595.221 843.637 594.374 845.656 595.049Z" fill="#EBA742"/>
<path d="M385.724 649.182L385.928 651.878C380.618 649.864 371.506 649.344 358.593 650.319C345.679 651.294 325.5 654.024 298.055 658.511L297.852 655.815L359.946 646.263L385.724 649.182Z" fill="#EBA742"/>
<path d="M281.265 563.62L281.633 566.299L234.759 572.716L230.041 567.846L281.265 563.62Z" fill="#EBA742"/>
<path d="M925.576 401.548L922.849 408.079L876.882 411.115L876.703 408.417L925.576 401.548Z" fill="#EBA742"/>
<mask id="mask7" mask-type="alpha" maskUnits="userSpaceOnUse" x="356" y="1092" width="630" height="189">
<path d="M497.97 1280.36C408.665 1243.43 361.754 1222.25 357.239 1216.81C352.724 1211.38 382.043 1211.38 445.196 1216.81C394.331 1167.24 379.897 1142.45 401.894 1142.45C423.891 1142.45 478.921 1167.24 566.982 1216.81C542.551 1182.26 533.98 1164.23 541.272 1162.73C548.563 1161.23 572.469 1176.1 612.99 1207.35C632.048 1173.77 645.129 1156.2 652.233 1154.62C659.336 1153.04 662.493 1167.01 661.705 1196.53C745.605 1125.29 793.417 1090.59 805.142 1092.43C816.867 1094.26 792.059 1132.57 730.717 1207.35C820.197 1192.44 869.814 1185.68 879.567 1187.07C889.32 1188.46 861.805 1198.38 797.023 1216.81C917.239 1210.56 979.937 1212.37 985.115 1222.22C990.293 1232.08 937.068 1248.3 825.44 1270.89L497.97 1280.36Z" fill="white"/>
</mask>
<g mask="url(#mask7)">
<path d="M497.97 1280.36C408.665 1243.43 361.754 1222.25 357.239 1216.81C352.724 1211.38 382.043 1211.38 445.196 1216.81C394.331 1167.24 379.897 1142.45 401.894 1142.45C423.891 1142.45 478.921 1167.24 566.982 1216.81C542.551 1182.26 533.98 1164.23 541.272 1162.73C548.563 1161.23 572.469 1176.1 612.99 1207.35C632.048 1173.77 645.129 1156.2 652.233 1154.62C659.336 1153.04 662.493 1167.01 661.705 1196.53C745.605 1125.29 793.417 1090.59 805.142 1092.43C816.867 1094.26 792.059 1132.57 730.717 1207.35C820.197 1192.44 869.814 1185.68 879.567 1187.07C889.32 1188.46 861.805 1198.38 797.023 1216.81C917.239 1210.56 979.937 1212.37 985.115 1222.22C990.293 1232.08 937.068 1248.3 825.44 1270.89L497.97 1280.36Z" fill="#76BC1E"/>
<path fill-rule="evenodd" clip-rule="evenodd" d="M430.31 1310.1C556.607 1243.4 645.466 1209.6 696.886 1208.7C748.307 1207.8 849.345 1207.8 999.999 1208.7L1041.95 1280.36L470.905 1358.77L430.31 1310.1Z" fill="#6BB112"/>
</g>
<g filter="url(#filter0_i)">
<path d="M360.111 526.602C369.363 525.524 376.334 526.749 381.027 530.276C385.778 533.727 388.56 538.936 389.373 545.902C389.858 550.055 389.444 554.075 388.131 557.962C386.81 561.782 384.234 565.035 380.403 567.722C376.638 570.401 371.27 572.146 364.299 572.958L357.762 573.72L360.741 599.239L345.557 601.008L337.185 529.273L360.111 526.602ZM360.761 539.154L353.823 539.962L356.308 561.262L361.336 560.676C365.627 560.176 368.914 558.944 371.199 556.981C373.543 554.943 374.493 552.015 374.047 548.197C373.234 541.231 368.805 538.217 360.761 539.154Z" fill="#946825"/>
<path d="M431.642 534.358C432.379 534.272 433.255 534.204 434.268 534.154C435.281 534.104 436.098 534.111 436.717 534.174L437.252 548.369C436.767 548.29 436.051 548.271 435.105 548.314C434.218 548.281 433.439 548.304 432.769 548.382C430.222 548.679 427.829 549.433 425.593 550.644C423.348 551.788 421.605 553.451 420.365 555.632C419.192 557.805 418.808 560.633 419.215 564.116L422.475 592.047L407.492 593.792L401.09 538.936L412.453 537.612L415.743 546.598L416.447 546.516C417.728 543.515 419.659 540.846 422.24 538.509C424.821 536.171 427.955 534.788 431.642 534.358Z" fill="#946825"/>
<path d="M467.296 530.204C474.871 529.322 481.125 530.8 486.057 534.638C490.982 538.409 493.91 544.28 494.84 552.25L495.684 559.484L460.289 563.608C460.915 567.812 462.542 570.983 465.17 573.121C467.865 575.251 471.324 576.07 475.547 575.578C479.1 575.164 482.279 574.454 485.083 573.449C487.88 572.376 490.734 570.923 493.646 569.09L494.994 580.644C492.469 582.296 489.733 583.6 486.787 584.554C483.915 585.567 480.368 586.32 476.145 586.812C470.648 587.452 465.67 587.014 461.212 585.497C456.747 583.912 453.065 581.184 450.167 577.313C447.269 573.441 445.453 568.358 444.718 562.062C443.967 555.632 444.418 550.182 446.071 545.712C447.783 541.168 450.458 537.597 454.096 535.001C457.734 532.405 462.134 530.806 467.296 530.204ZM468.639 540.842C465.757 541.178 463.453 542.397 461.728 544.499C460.069 546.593 459.303 549.636 459.429 553.626L480.445 551.178C479.988 547.837 478.796 545.192 476.87 543.244C474.936 541.229 472.192 540.428 468.639 540.842Z" fill="#946825"/>
<path d="M503.346 561.545L501.916 549.287L528.261 546.218L529.692 558.475L503.346 561.545Z" fill="#946825"/>
<path d="M556.756 503.692C566.543 502.552 573.957 503.487 578.997 506.498C584.104 509.501 587.079 514.62 587.924 521.853C588.307 525.135 588.006 528.09 587.021 530.716C586.096 533.268 584.696 535.536 582.821 537.519C581.005 539.428 578.987 541.055 576.766 542.4L601.529 571.186L584.636 573.154L564.329 547.617L556.184 548.566L559.396 576.094L544.213 577.863L535.841 506.129L556.756 503.692ZM557.104 516.279L552.478 516.818L554.741 536.208L559.669 535.634C564.696 535.048 568.185 533.793 570.135 531.869C572.152 529.937 572.969 527.33 572.585 524.048C572.187 520.632 570.732 518.357 568.222 517.224C565.771 516.016 562.065 515.701 557.104 516.279Z" fill="#946825"/>
<path d="M625.494 511.773C633.069 510.891 639.323 512.369 644.255 516.207C649.18 519.978 652.107 525.849 653.038 533.819L653.882 541.053L618.486 545.177C619.113 549.381 620.74 552.552 623.368 554.69C626.062 556.82 629.522 557.639 633.745 557.147C637.298 556.733 640.476 556.023 643.281 555.018C646.077 553.945 648.932 552.492 651.843 550.659L653.192 562.213C650.667 563.865 647.931 565.168 644.985 566.123C642.113 567.136 638.566 567.889 634.342 568.381C628.845 569.021 623.868 568.583 619.41 567.066C614.945 565.481 611.263 562.753 608.365 558.882C605.467 555.01 603.65 549.927 602.916 543.63C602.165 537.2 602.616 531.751 604.269 527.281C605.981 522.737 608.656 519.166 612.294 516.57C615.932 513.974 620.332 512.375 625.494 511.773ZM626.837 522.411C623.955 522.747 621.651 523.966 619.925 526.068C618.267 528.162 617.501 531.205 617.627 535.195L638.643 532.747C638.185 529.406 636.993 526.761 635.067 524.813C633.133 522.798 630.39 521.997 626.837 522.411Z" fill="#946825"/>
<path d="M684.791 504.763C692.166 503.904 697.984 504.855 702.248 507.617C706.57 510.305 709.114 514.93 709.881 521.494L714.149 558.065L703.691 559.283L699.907 552.188L699.505 552.235C697.503 555.455 695.272 557.888 692.814 559.532C690.356 561.176 686.848 562.264 682.289 562.795C677.396 563.365 673.176 562.431 669.63 559.993C666.076 557.487 663.955 553.288 663.267 547.394C662.587 541.566 664.131 537.042 667.9 533.819C671.661 530.529 677.615 528.274 685.762 527.054L695.28 525.639L694.998 523.228C694.662 520.348 693.645 518.328 691.947 517.168C690.316 516 688.159 515.572 685.478 515.885C682.796 516.197 680.229 516.904 677.775 518.004C675.314 519.038 672.876 520.272 670.461 521.708L664.35 512.134C667.12 510.25 670.23 508.666 673.682 507.381C677.2 506.089 680.903 505.216 684.791 504.763ZM696.3 534.38L690.491 535.26C685.68 535.957 682.43 537.218 680.74 539.044C679.051 540.87 678.359 543.089 678.664 545.702C678.929 547.979 679.791 549.542 681.249 550.39C682.699 551.172 684.497 551.438 686.642 551.188C689.86 550.813 692.466 549.559 694.459 547.426C696.444 545.225 697.234 542.384 696.828 538.901L696.3 534.38Z" fill="#946825"/>
<path d="M746.998 555.256C740.898 555.967 735.626 554.171 731.183 549.868C726.799 545.491 724.064 538.647 722.977 529.337C721.883 519.96 722.998 512.634 726.324 507.358C729.649 502.083 734.462 499.078 740.764 498.344C744.719 497.883 748.06 498.274 750.787 499.518C753.515 500.762 755.748 502.436 757.489 504.542L757.992 504.483C757.666 503.435 757.251 501.922 756.749 499.944C756.238 497.899 755.858 495.804 755.608 493.661L753.556 476.079L768.538 474.333L777.45 550.69L765.986 552.025L762.238 545.232L761.634 545.302C760.425 547.751 758.675 549.924 756.382 551.82C754.081 553.65 750.953 554.795 746.998 555.256ZM750.832 542.691C754.988 542.207 757.763 540.661 759.158 538.055C760.545 535.381 760.986 531.596 760.483 526.699L760.295 525.091C759.67 519.733 758.355 515.745 756.351 513.127C754.413 510.501 751.233 509.446 746.808 509.961C743.523 510.344 741.11 512.085 739.57 515.184C738.021 518.216 737.559 522.411 738.185 527.769C738.81 533.127 740.221 537.07 742.419 539.598C744.609 542.058 747.413 543.089 750.832 542.691Z" fill="#946825"/>
<path d="M809.223 490.368C816.798 489.485 823.052 490.963 827.985 494.801C832.909 498.572 835.837 504.443 836.767 512.414L837.611 519.647L802.216 523.771C802.842 527.975 804.47 531.146 807.097 533.284C809.792 535.414 813.251 536.233 817.474 535.741C821.027 535.327 824.206 534.618 827.01 533.612C829.807 532.539 832.661 531.087 835.573 529.254L836.921 540.808C834.396 542.46 831.66 543.763 828.714 544.717C825.843 545.731 822.295 546.483 818.072 546.975C812.575 547.616 807.597 547.177 803.14 545.66C798.674 544.076 794.992 541.348 792.094 537.476C789.196 533.605 787.38 528.521 786.645 522.225C785.895 515.795 786.346 510.345 787.998 505.875C789.71 501.331 792.385 497.761 796.023 495.164C799.661 492.568 804.061 490.969 809.223 490.368ZM810.567 501.006C807.684 501.342 805.38 502.56 803.655 504.662C801.997 506.756 801.231 509.799 801.357 513.79L822.373 511.341C821.915 508 820.723 505.355 818.797 503.407C816.863 501.392 814.12 500.592 810.567 501.006Z" fill="#946825"/>
<path d="M876.678 482.509C877.415 482.423 878.29 482.355 879.304 482.305C880.317 482.255 881.133 482.261 881.752 482.325L882.288 496.519C881.803 496.44 881.087 496.422 880.141 496.464C879.254 496.432 878.475 496.454 877.805 496.533C875.257 496.829 872.865 497.583 870.628 498.794C868.384 499.938 866.641 501.601 865.401 503.782C864.228 505.956 863.844 508.784 864.251 512.267L867.51 540.197L852.528 541.943L846.126 487.087L857.488 485.763L860.779 494.748L861.483 494.666C862.764 491.666 864.695 488.997 867.276 486.659C869.857 484.322 872.991 482.938 876.678 482.509Z" fill="#946825"/>
</g>
<defs>
<filter id="filter0_i" x="337.185" y="474.333" width="545.103" height="145.097" filterUnits="userSpaceOnUse" color-interpolation-filters="sRGB">
<feFlood flood-opacity="0" result="BackgroundImageFix"/>
<feBlend mode="normal" in="SourceGraphic" in2="BackgroundImageFix" result="shape"/>
<feColorMatrix in="SourceAlpha" type="matrix" values="0 0 0 0 0 0 0 0 0 0 0 0 0 0 0 0 0 0 127 0" result="hardAlpha"/>
<feOffset dy="18.4227"/>
<feGaussianBlur stdDeviation="9.21136"/>
<feComposite in2="hardAlpha" operator="arithmetic" k2="-1" k3="1"/>
<feColorMatrix type="matrix" values="0 0 0 0 0.5 0 0 0 0 0.317546 0 0 0 0 0.0375 0 0 0 1 0"/>
<feBlend mode="normal" in2="shape" result="effect1_innerShadow"/>
</filter>
<linearGradient id="paint0_linear" x1="1298.45" y1="770.187" x2="1298.45" y2="1277.19" gradientUnits="userSpaceOnUse">
<stop stop-color="white"/>
<stop offset="1" stop-color="white" stop-opacity="0"/>
</linearGradient>
</defs>
</svg>
