<svg xmlns="http://www.w3.org/2000/svg" xmlns:xlink="http://www.w3.org/1999/xlink" viewBox="0 0 363.21 659.63"><defs><clipPath id="clip-path" transform="translate(0 30.43)"><path d="M314,270.68H25.78L41,539h0a3.77,3.77,0,0,0,0,.58c0,13.27,57.7,24,128.88,24s128.88-10.75,128.88-24a5.65,5.65,0,0,0,0-.58h0Z" style="fill:#82bae8"/></clipPath></defs><g id="Layer_2" data-name="Layer 2"><g id="glass"><g id="Layer_4" data-name="Layer 4"><ellipse cx="169.89" cy="586.4" rx="137.08" ry="24.02" style="fill:#e2f2f7"/><ellipse cx="171.94" cy="62.1" rx="166.08" ry="24.02" style="fill:#cee8ef"/><path d="M338,31.67c0,13.27-74.36,24-166.08,24S5.86,44.94,5.86,31.67H1.17L32.81,556.56H307L338.6,31.67Z" transform="translate(0 30.43)" style="fill:#e2f2f7"/><path d="M314,270.68H25.78L41,539h0a3.77,3.77,0,0,0,0,.58c0,13.27,57.7,24,128.88,24s128.88-10.75,128.88-24a5.65,5.65,0,0,0,0-.58h0Z" transform="translate(0 30.43)" style="fill:#82bae8"/><g style="clip-path:url(#clip-path)"><polygon points="244.87 0 146.45 659.63 363.21 643.23 360.86 3.52 244.87 0" style="fill:#0d6099;opacity:0.2"/></g><ellipse cx="169.89" cy="301.7" rx="144.11" ry="24.02" style="fill:#63a2e0"/><path d="M18.75,52.76S36.32,64.48,65.61,61L76.16,547.19s-14.06,1.17-25.78-7Z" transform="translate(0 30.43)" style="fill:#fff;opacity:0.49"/><path d="M139.42,0c10.33-.29,27,1.17,32.81,1.17,44.63,0,86.34,3.1,118,7.68,47.29,6.84,53.66,15.35,53.66,22.78,0,13.24-27.12,18.94-53.66,22.78-31.64,4.58-73.64,7.1-118.27,7.1S85.3,59,53.66,54.45C6.38,47.61,0,39.1,0,31.67,0,18.44,27.13,12.73,53.66,8.89c16-2.31,66.3-7.57,86.6-8.77l2,13c-18,1.06-30,0-81.64,6.64C26,24.2,15.26,27.12,12.56,31.67,15.5,33.75,26,39,60.62,43.59c30.42,4,70,6.24,111.32,6.24s80.89-2.22,111.32-6.24c34.6-4.58,45.11-9.84,48.06-11.92-2.95-2.08-13.46-7.33-48.06-11.91-30.43-4-70-6.25-111.32-6.25-10,0-20.52-.84-30.17-.59Z" transform="translate(0 30.43)" style="fill:#f3fbff"/></g></g></g></svg>