<svg xmlns="http://www.w3.org/2000/svg" xmlns:xlink="http://www.w3.org/1999/xlink" viewBox="0 0 1658.65 1950.7"><defs><clipPath id="clip-path" transform="translate(8.34 11.15)"><path d="M1143.68,925.75s58-71.34,127.08-64.66,26.75,60.2,26.75,60.2,78-53.51,105.9-32.33,13.37,30.1,13.37,30.1,121.5-10,132.65,29,3.34,53.5,3.34,53.5,44.59-23.4,27.87,41.25-180.58,100.32-224.05,12.26c0,0-53.51,59.08-117,30.1,0,0-85.83,55.73-121.5-4.46Z" style="fill:#cceaff"/></clipPath><clipPath id="clip-path-2" transform="translate(8.34 11.15)"><path d="M466,1206.65s-139.33-72.46-198.41,23.41c0,0-130.42-87-189.5,75.79,0,0-76.91-31.21-78,50.17s56.84,50.16,56.84,50.16,49.05,109.24,189.5,36.78c0,0,88.06,95.86,210.68,11.15l64.65-111.47L515,1228.94Z" style="fill:#cceaff"/></clipPath><clipPath id="clip-path-3" transform="translate(8.34 11.15)"><path d="M441.82,1736.26c-5.76-253.45-29.17-766-123.56-1085.84l891.19,27.31S1098.56,1419.84,1099.27,1745C1099.42,1809.72,444,1830,441.82,1736.26Z" style="fill:#e68d02"/></clipPath><clipPath id="clip-path-4" transform="translate(8.34 11.15)"><path d="M761.35,565.7s-4.46,134.88-4.46,150.49-3.35,31.21,26.75,34.55,176.12,0,194-12.26,20.06-24.52,5.57-76.91-32.33-121.5-32.33-121.5Z" style="fill:#0089d4"/></clipPath><clipPath id="clip-path-5" transform="translate(8.34 11.15)"><path d="M565.72,539.51S532.28,705.6,530.05,712.28s-6.69,23.41,12.26,29,178.35,6.68,189.5,2.23,24.52-2.23,25.63-36.79,3.35-150.48,3.35-150.48Z" style="fill:#0a9df0"/></clipPath><clipPath id="clip-path-6" transform="translate(8.34 11.15)"><path d="M435.86,517.77s-78,134.88-82.49,143.8-16.72,27.86-6.69,34.55,126,36.79,151.6,36.79,30.1-4.46,33.44-18.95,39-179.47,39-179.47Z" style="fill:#0089d4"/></clipPath><clipPath id="clip-path-7" transform="translate(8.34 11.15)"><path d="M376.78,506.62s-89.18,113.7-97,119.28-13.37,17.83,6.69,27.86,60.35,24.08,60.35,24.08L439.2,513.31Z" style="fill:#006dcc"/></clipPath><clipPath id="clip-path-8" transform="translate(8.34 11.15)"><path d="M1095.75,505.51s114.81,124.84,126,132.65-6.69,45.7-30.1,59.08-139.33,27.86-165,25.63-33-18.14-33-18.14L947.5,530Z" style="fill:#006dcc"/></clipPath><clipPath id="clip-path-9" transform="translate(8.34 11.15)"><path d="M687.22,412.43s-30.65,133.21-32.88,144.36-10,27.86,14.49,35.67,159.4,2.22,182.81-4.46,22.29-26.76,16.72-56.85S845,407.42,845,407.42Z" style="fill:#006dcc"/></clipPath><clipPath id="clip-path-10" transform="translate(8.34 11.15)"><path d="M555.13,389.58S482.67,520,474.87,530s2.79,26.2,38.46,36.23,94.75,14.49,111.47,15.61a28.56,28.56,0,0,0,24.92-10.93L695,403.52Z" style="fill:#0951e0"/></clipPath><clipPath id="clip-path-11" transform="translate(8.34 11.15)"><path d="M497.17,372.86S376.78,497.71,372.32,499.94s-13.38,14.49,15.61,27.86,73.57,20.07,81.37,17.84a31.44,31.44,0,0,0,13-7.76l84-151.64Z" style="fill:#0089d4"/></clipPath><clipPath id="clip-path-12" transform="translate(8.34 11.15)"><path d="M954.74,384.57s82.49,141.56,84.72,153.82-37.9,33.44-70.23,40.13-97,6.52-99.19-17.36-31.22-168.79-31.22-168.79Z" style="fill:#0a9df0"/></clipPath><clipPath id="clip-path-13" transform="translate(8.34 11.15)"><path d="M1009.92,366.17S1108,484.33,1112.47,493.25s-5.57,24.52-16.72,34.55-49.09,20.86-56.31,7.65S952,379.55,952,379.55Z" style="fill:#0089d4"/></clipPath><clipPath id="clip-path-14" transform="translate(8.34 11.15)"><path d="M757.44,268.64s-7.24,133.2-6.13,147.7,36.23,30.65,87.51,25.08,76.91-17.84,76.91-37.9-51.28-149.37-51.28-149.37Z" style="fill:#0951e0"/></clipPath><clipPath id="clip-path-15" transform="translate(8.34 11.15)"><path d="M668.83,263.62s-51.28,131.54-53.51,143.8,18.95,29,53.51,32.32,55.89-1.14,78-5.57c11.14-2.23,12.26-17.83,12.26-17.83V263.62Z" style="fill:#0089d4"/></clipPath><clipPath id="clip-path-16" transform="translate(8.34 11.15)"><path d="M609.75,245.79s-107,103.66-118.16,114.81,1.12,31.21,36.79,46.82,82.48,12.26,86.94,0S674.4,252.48,674.4,252.48Z" style="fill:#0a9df0"/></clipPath><clipPath id="clip-path-17" transform="translate(8.34 11.15)"><path d="M907.37,241.33S1020,343.88,1023.3,352.8s-16.72,36.78-34.56,46.81-66.88,17.84-71.34,5.58-56.85-159.4-56.85-159.4Z" style="fill:#006dcc"/></clipPath><clipPath id="clip-path-18" transform="translate(8.34 11.15)"><path d="M730.69,158.29S706.17,259.72,703.94,273.1s15.61,16.72,55.73,16.72,52.39-11.15,52.39-17.84-26.75-117-26.75-117Z" style="fill:#0a9df0"/></clipPath><clipPath id="clip-path-19" transform="translate(8.34 11.15)"><path d="M700,151s-105.9,89.17-108.13,98.09,35.67,21.18,62.43,29,51.27-3.34,51.27-3.34l29-119.27Z" style="fill:#006dcc"/></clipPath><clipPath id="clip-path-20" transform="translate(8.34 11.15)"><path d="M827.11,148.81s88.06,74.68,90.29,82.49-11.14,27.86-34.55,36.78-71.9,17.28-74.13,7.25S783.64,151,783.64,151Z" style="fill:#0089d4"/></clipPath><clipPath id="clip-path-21" transform="translate(8.34 11.15)"><path d="M768,0,738.5,79.14,686.66,155.5s24.53,18.95,81.37,18.95S840.49,151,840.49,151L795.34,80.26Z" style="fill:#e68d02"/></clipPath><clipPath id="clip-path-22" transform="translate(8.34 11.15)"><path d="M382.35,1500.92s-63.53,1.12-61.3,73.57,97,92.52,136,27.87c0,0,30.09,45.7,98.09,39s86.94-40.12,86.94-40.12,65.77,29,92.52-34.56-86.94-65.77-86.94-65.77-10-88.06-118.16-31.21c0,0-13.37-53.5-95.86-24.52S382.35,1500.92,382.35,1500.92Z" style="fill:#d9efff"/></clipPath><clipPath id="clip-path-23" transform="translate(8.34 11.15)"><path d="M1143.68,1499.81S1254,1468.6,1380,1471.94s122.61,46.82,122.61,46.82,146,4.46,132.65,99.21-201.76,45.7-201.76,45.7-114.81,146-296.5,46.82c0,0-204,105.89-173.9-60.2,0,0-54.62-52.39,12.27-71.34,0,0-11.15-85.83,56.84-93.63S1143.68,1499.81,1143.68,1499.81Z" style="fill:#d9efff"/></clipPath><clipPath id="clip-path-24" transform="translate(8.34 11.15)"><path d="M494.94,1596.23s-69.11-43.47-146-25.64-62.42,69.11-62.42,69.11-126-32.32-146,87,114.81,169.43,185,156,120.39-61.3,120.39-61.3,276.44,150.48,375.65,8.91c0,0,27.87,70.23,153.83,54.62s140.45-102.55,152.71-129.3c0,0,56.85,10,60.19-53.51s-99.21-30.09-99.21-30.09S1117,1623.47,962,1589.54c-147.7-32.32-166.65-41.24-285.92-41.24S494.94,1596.23,494.94,1596.23Z" style="fill:#d9efff"/></clipPath><clipPath id="clip-path-25" transform="translate(8.34 11.15)"><path d="M589,1258.68s12.43-180.78,43.64-266.61,98.09-178.35,163.86-172.78S921.3,959.74,921.3,959.74l41.25,256.38-21.18,62.42Z" style="fill:#7a4601"/></clipPath><clipPath id="clip-path-26" transform="translate(8.34 11.15)"><path d="M779.18,791.51v-.08h-4.55v.08C562,798.36,573,1285.23,573,1285.23h52.39c0-412.5,137.49-440.61,151.55-442.41,14.06,1.8,151.55,29.91,151.55,442.41h52.39S991.83,798.36,779.18,791.51Z" style="fill:#ff8026"/></clipPath><clipPath id="clip-path-27" transform="translate(8.34 11.15)"><path d="M350.58,1158.72,381,1333.16c0,36.63,172,66.33,384.26,66.33s384.26-29.7,384.26-66.33l30.4-174.44-51.27,71.89-253,47.93L392.94,1245.1Z" style="fill:#bf6402"/></clipPath><clipPath id="clip-path-28" transform="translate(8.34 11.15)"><path d="M702.59,947.48s-10-54.33-20.07-69.61c0,0,22.3-3.39,43.48,13.58,0,0,12.26-28.86,23.41-35.65,0,0,16.72,17,23.4,30.56,0,0,6.69-42.44,20.07-49.23,0,0,16.72,22.07,17.83,49.23,0,0,15.61-34,26.76-35.65,0,0,12.26,25.46,11.14,47.53,0,0,21.18-20.37,35.67-11.88,0,0-25.63,32.26-21.18,76.4l-51.27,11.88-94.75,10.18Z" style="fill:#ffc61f"/></clipPath><clipPath id="clip-path-29" transform="translate(8.34 11.15)"><path d="M673.66,1049.41S633.64,991,666,962,731,953.88,731,953.88s32.75-36.85,67.31-34.12,25.47,30,25.47,30,51.84-15,70.94,30-1.82,71-15.46,77.79c0,0,50.93,86-10,98.27,0,0,3.64,68.23-53.66,75.06s-66.4-15-66.4-15-70,49.13-65.48-47.77c0,0-36.38-23.2-11.83-49.13,0,0-29.1-17.75-21.82-46.41S673.66,1049.41,673.66,1049.41Z" style="fill:#66ffe6"/></clipPath><clipPath id="clip-path-30" transform="translate(8.34 11.15)"><path d="M1013.75,1071c-4.48-9-22.93-55.47-25.89-87.46s-18.75-39.67-29.2-49.29-46.47-44.39-39.64-68,45.51-12.22,61.33,9.3,15.1,35.16,18.39,90.62,16.88,74.29,24.28,83.16,18.76,20,12.1,27.75S1018.24,1080.07,1013.75,1071Z" style="fill:#ad6200"/></clipPath><clipPath id="clip-path-31" transform="translate(8.34 11.15)"><path d="M922.42,875c.48,8,9,30.84,29.61,46.49s31.47,8.63,32.75-2.78-13-43.13-37-53.65S921.79,864.73,922.42,875Z" style="fill:#e3a545"/></clipPath><clipPath id="clip-path-32" transform="translate(8.34 11.15)"><path d="M1004,995.21c-5.46-2.73-18.32-6.66-21.1-2.22s1.28,50.35,26.22,31.68C1012.88,1021.85,1012.88,999.65,1004,995.21Z" style="fill:#3d3c3f"/></clipPath><clipPath id="clip-path-33" transform="translate(8.34 11.15)"><path d="M706.17,1058.19s62.42,36.1,149.37-2.58c0,0-16.72,47.71-41.25,58s-79.14,10.31-91.4,0S706.17,1058.19,706.17,1058.19Z" style="fill:#003f57"/></clipPath><clipPath id="clip-path-34" transform="translate(8.34 11.15)"><path d="M724,1062.3s8.92,19,17.84,22.29S763,1067.87,763,1067.87Z" style="fill:#fff"/></clipPath><clipPath id="clip-path-35" transform="translate(8.34 11.15)"><path d="M795.34,1067.87S811,1082.36,821,1081.25s11.15-22.3,11.15-22.3Z" style="fill:#fff"/></clipPath><clipPath id="clip-path-36" transform="translate(8.34 11.15)"><path d="M731.81,1123.6s11.14-17.83,17.83-20.06S765.25,1127,765.25,1127Z" style="fill:#fff"/></clipPath><clipPath id="clip-path-37" transform="translate(8.34 11.15)"><path d="M792,1124.72s2.23-23.41,11.15-25.64,20.06,19,20.06,19Z" style="fill:#fff"/></clipPath><clipPath id="clip-path-38" transform="translate(8.34 11.15)"><path d="M434.19,1183.8s-24.53,2.23-24.53-24.53,1.67-37.34-11.7-39.57-51.28-11.15-34.56-20.06c9.24-4.93,24-9.48,35.86-12.63.4-.11-.7-14.55-1.52-14.37-18.17,4.15-56.06,14.63-65.88,24.25-13,12.78-6.36,17.24.33,31.73s32.33,53.5,32.33,53.5l54.62,11.15Z" style="fill:#ffbe57"/></clipPath><clipPath id="clip-path-39" transform="translate(8.34 11.15)"><path d="M442.54,1154.67s23.41-19.36,25.64-19.36,73.57,6.69,89.18,7.8,17.83,2.23,20.06,11.15,5.58,62.42,25.64,64.65l-15.6,5.57-49.05-44.59-97-16.72Z" style="fill:#ffbe57"/></clipPath><clipPath id="clip-path-40" transform="translate(8.34 11.15)"><path d="M896.22,1210s21.18-4.46,25.64-16.72,14.49-42.36,16.72-43.47,71.34-6.69,80.26-7.8,24.52-2.23,26.75-2.23,21.83,19,21.83,19l-1.76,20.06H952l-22.3,36.78-34.55,3.35Z" style="fill:#ffbe57"/></clipPath><clipPath id="clip-path-41" transform="translate(8.34 11.15)"><path d="M1087.39,1194.94s20.07-1.11,26.75-15.6c4.68-10.12,9.48-55.18,12.82-57.41s42.36-7.8,46.82-12.26c3.46-3.46-3.9-17.28-18.72-19.06-.55-.07.32-11.79.91-11.72,10.56,1.24,25.09,8.45,35.77,13.37,23.28,10.72,11.37,28.46,11.37,28.46l-9.27,12.36-44.58,58Z" style="fill:#ffbe57"/></clipPath><clipPath id="clip-path-42" transform="translate(8.34 11.15)"><path d="M1203.43,1118.9s-12.93,11.95-34.48,17.32-14.12,34.76-21.92,42.56-30.1,8.92-50.16,11.15-25.64-33.44-31.58-32.22-83.24,8.81-107.28,11.07-23.89,30.06-29.46,34.52-47.93,5.58-66.88,5.58S855,1174.4,820.5,1174.4c-30.17,0-92.59,1-116.66,0s-25,13.3-27.21,27.79-29,15.6-53.5,14.49c0,0-41.25,1.11-45.71-15.61s-7.46-33.25-25.46-33.9-98.47-11.21-107.84-12.62-9.11,32.64-32.1,29-38.58-4.76-36.36-20.37-2.36-23.81-12.88-27-40.62-15.4-38.39-27.67c0,0,28.21,145.46,30.83,166.37s15.52,36.85,118.31,54.51,289.79,29.93,401.39,19.9,288.71-26,296.57-59.28S1203.43,1118.9,1203.43,1118.9Z" style="fill:#e68d02"/></clipPath></defs><g id="Layer_2" data-name="Layer 2"><g id="tower"><path d="M1143.68,925.75s58-71.34,127.08-64.66,26.75,60.2,26.75,60.2,78-53.51,105.9-32.33,13.37,30.1,13.37,30.1,121.5-10,132.65,29,3.34,53.5,3.34,53.5,44.59-23.4,27.87,41.25-180.58,100.32-224.05,12.26c0,0-53.51,59.08-117,30.1,0,0-85.83,55.73-121.5-4.46Z" transform="translate(8.34 11.15)" style="fill:#cceaff"/><g style="clip-path:url(#clip-path)"><path d="M1117.49,1001s83.6,71.34,120.38,36.78c0,0,73.57,36.79,124.85-27.86,0,0,72.45,125.95,231.85,39l-10,58-95.86,25.64H1359.37l-118.15-8.92-153.83,15.61Z" transform="translate(8.34 11.15)" style="fill:#b3d6ff"/><path d="M1139.63,959s160.67-112.91,138.37-5.9c0,0,131.54-71.34,121.5-12.27,0,0,213.83-22.64,158.19,53.33h0l20.16-17.66L1555.56,923,1492,892.86l-51.27,7.81-44.59-33.44-68,17.83L1297,849.39l-58-1.11-94.75,41.24L1139.63,959" transform="translate(8.34 11.15)" style="fill:#edf7ff"/><path d="M1331.51,984.27s29,34.55,75.8,12.26C1407.31,996.53,1354.92,1041.12,1331.51,984.27Z" transform="translate(8.34 11.15)" style="fill:#b3d6ff"/></g><path d="M466,1206.65s-139.33-72.46-198.41,23.41c0,0-130.42-87-189.5,75.79,0,0-76.91-31.21-78,50.17s56.84,50.16,56.84,50.16,49.05,109.24,189.5,36.78c0,0,88.06,95.86,210.68,11.15l64.65-111.47L515,1228.94Z" transform="translate(8.34 11.15)" style="fill:#cceaff"/><g style="clip-path:url(#clip-path-2)"><path d="M458.75,1405.58s-129.34,92.56-206.26-2.19c0,0-111.47,81.37-186.15-12.26,0,0-43.47,34.55-74.68-22.3l7.8,51.28,80.26,39,98.09,39,74.68-16.72,90.29,18.95,49.05,27.86,122.61-1.11-55.69-121.54" transform="translate(8.34 11.15)" style="fill:#b3d6ff"/><path d="M77.49,1306.41s97-110.35,196.18-32.32c0,0,151.6-74.69,215.14,13.37l-34.56-99.21-58-24.52-136,8.92-6.68,31.21-78-15.61-85.83,40.13-12.26,78" transform="translate(8.34 11.15)" style="fill:#edf7ff"/><path d="M202.33,1371.06s37.9,37.9,99.21,12.26C301.54,1383.32,244.69,1450.21,202.33,1371.06Z" transform="translate(8.34 11.15)" style="fill:#b3d6ff"/><path d="M234.66,1290.81c2.79-5.87,26.87-27.68,54.12-23.32s37.28,22.2,29.48,30S223.51,1314.21,234.66,1290.81Z" transform="translate(8.34 11.15)" style="fill:#edf7ff"/></g><polygon points="420.24 1090.16 363.39 1103.54 351.13 1119.14 381.22 1140.32 433.61 1150.36 420.24 1090.16" style="fill:#c47802"/><polygon points="1150.36 1090.16 1184.91 1104.65 1193.41 1119.79 1179.34 1134.75 1142.55 1145.9 1150.36 1090.16" style="fill:#c47802"/><path d="M441.82,1736.26c-5.76-253.45-29.17-766-123.56-1085.84l891.19,27.31S1098.56,1419.84,1099.27,1745C1099.42,1809.72,444,1830,441.82,1736.26Z" transform="translate(8.34 11.15)" style="fill:#e68d02"/><g style="clip-path:url(#clip-path-3)"><polygon points="404.95 1073.03 420.14 1216.94 576.29 1255.14 749.07 1264.05 1099.08 1241.76 1154.81 1212.78 1165.3 1077.33 1110.23 1064.53 880.6 1040 514.99 1040 404.95 1073.03" style="fill:#e68d02"/><path d="M575.75,737.92S582.44,792.54,578,797s-123.73,1.11-128.19-3.34-4.46-20.07-4.46-20.07Z" transform="translate(8.34 11.15)" style="fill:#d46802"/><path d="M1028.31,1631.9s-2.23,7.8,4.46,10,71.34,3.35,71.34,3.35l2.23-11.15Z" transform="translate(8.34 11.15)" style="fill:#c45d02"/><path d="M913.5,1743.37s5.57,5.57,5.57,11.15,3.35,44.58,0,47.93-45.7,4.46-45.7,4.46Z" transform="translate(8.34 11.15)" style="fill:#9c4a02"/><path d="M439.2,709.5s-3.34,75.8,6.69,80.25,121.5,5.58,124.84-1.11-2.22-62.42-2.22-62.42l-20.07-23.41-99.21-5.57Z" transform="translate(8.34 11.15)" style="fill:#f79a07"/><path d="M983.17,661.57,296,625.34l14.5,52.39s50.16,78,341.09,82.49c192.57,2.95,298.37-1.12,314.16,29,57,188.38,11.93,680.49-126.89,843.81C668.27,1833.66,384,1649.73,384,1649.73l56.84,238.55,358.93,51.27,334.41-101.43,69.11-447,55.73-765.79Z" transform="translate(8.34 11.15)" style="fill:#7d1d02;opacity:0.35000000000000003"/><path d="M505.53,1450.21a8.31,8.31,0,0,1,5.57,6.68c1.11,5.58,2.23,91.41-2.23,94.75s-20.06,2.23-20.06,2.23,4.72,57.27-3.77,62.63-52,5.37-52,5.37l45.7-160.52Z" transform="translate(8.34 11.15)" style="fill:#d46802"/><path d="M541.2,1113.57s2.23,14.49,4.45,16.72c5.63,5.63,35.62,4.78,43.48-1.11,4.46-3.35-3.37-18.2-3.37-18.2Z" transform="translate(8.34 11.15)" style="fill:#d46802"/><path d="M459.82,798.11s5.58,1.12,6.69,4.46,6.69,68,2.23,73.57-75.8,0-78-2.23-4.46-17.83-4.46-17.83Z" transform="translate(8.34 11.15)" style="fill:#d46802"/><path d="M1010.48,1016.59s2.23-2.6,3.9,6.5,3.9,69.3.56,71.53-50.16,0-50.16,0l7.8-23.41Z" transform="translate(8.34 11.15)" style="fill:#c45d02"/><path d="M1017.17,1019.94l-3.35,8.91s3.35,2.23,12.26,2.23,68.94.92,71.34-1.11c3-2.57,4.33-46.85-2.23-49.05-4.35-1.45-7.8-2.23-7.8-2.23Z" transform="translate(8.34 11.15)" style="fill:#c45d02"/><path d="M1123.06,872.8s-1.11,6.69,5.58,8.92,55.73,2.23,55.73,2.23V868.34Z" transform="translate(8.34 11.15)" style="fill:#c45d02"/><path d="M798.72,1569.89s3.31,1.82,4.43,7.39-1.12,89.17-6.69,92.52-72.46,2.23-76.91-3.35-1.12-13.37-1.12-13.37Z" transform="translate(8.34 11.15)" style="fill:#d46802"/><path d="M381.24,844.37c-1.12-10,0-47.93,5.57-47.93s68,1.12,73.57,0,5.57,68,3.35,72.46-73.57,2.23-76.92-2.23S381.24,844.37,381.24,844.37Z" transform="translate(8.34 11.15)" style="fill:#f79a07"/><path d="M1196.07,779.72s-65.76,1.12-73.57,1.12-3.34,93.63,0,95.86,64.66,1.11,64.66,1.11Z" transform="translate(8.34 11.15)" style="fill:#f79a07"/><path d="M1014.38,998.2c1.11-8.92-3.34-20.06,7.8-21.18s69.11-3.34,71.34,0,3.35,47.93-4.46,49-74.68,5.57-74.68,0Z" transform="translate(8.34 11.15)" style="fill:#f79a07"/><path d="M956.42,1016s54.62-4.46,54.62,1.11,3.34,70.23,0,73.57-53.51,2.23-53.51,2.23Z" transform="translate(8.34 11.15)" style="fill:#f79a07"/><path d="M594.14,1052.82s-56.7-4.21-57.33,2.35.48,65.65,4.94,70.11S583,1127.5,583,1127.5Z" transform="translate(8.34 11.15)" style="fill:#f79a07"/><path d="M1113,1462.47s-107-40.13-139.34,13.37-15.6,98.1-15.6,98.1l58,6.68,64.65-66.88,42.36-33.44Z" transform="translate(8.34 11.15)" style="fill:#ad5202"/><path d="M759.67,1527.12s115.93-10,236.32,45.7L965.89,1604,749.64,1563.9Z" transform="translate(8.34 11.15)" style="fill:#ad5202"/><path d="M423.6,1447.42s79.14-1.12,81.37,3.34,4.46,92.52,0,97-81.37,0-81.37,0Z" transform="translate(8.34 11.15)" style="fill:#f79a07"/><path d="M485,1549.72s-.08,59.33-3.42,63.79-53.5,2.23-53.5,2.23l-4.46-68Z" transform="translate(8.34 11.15)" style="fill:#f79a07"/><path d="M722.33,1566.69c17.84,0,76.92-4.46,78,5.57s-3.34,89.18-6.69,92.52-80.26,3.35-78-3.34S704.5,1566.69,722.33,1566.69Z" transform="translate(8.34 11.15)" style="fill:#f79a07"/><path d="M759.67,1527.12s115.93-10,236.32,45.7L965.89,1604,749.64,1563.9Z" transform="translate(8.34 11.15)" style="fill:#c45d02;opacity:0.5"/><path d="M1108,1542.17s-45.7-3.35-47.93,4.46,0,42.35,0,42.35H1108Z" transform="translate(8.34 11.15)" style="fill:#eb9207"/><path d="M1115.82,1579s-76.92-3.34-84.72,0-7.8,55.74-3.34,58,80.25,2.23,80.25,2.23Z" transform="translate(8.34 11.15)" style="fill:#eb9207"/><path d="M857.21,1800.77c0-1.11-4.46-58,0-60.19s54.62-2.23,56.85,2.23,0,69.11,0,69.11Z" transform="translate(8.34 11.15)" style="fill:#eb9207"/><path d="M775.28,791.43s87-6.69,136,64.65,91.41,259.72,83.6,328.83l-36.78-15.6L913.15,950.19,812.06,819.29l-36.78-27.86" transform="translate(8.34 11.15)" style="fill:#7d1d02;opacity:0.2"/><path d="M462.19,1549s21.73.78,29.19.6l-4.8,3.17S467.9,1551.9,462.19,1549Z" transform="translate(8.34 11.15)" style="fill:#d46802"/><path d="M1064.19,1577.51h41.35l-.28,4.22S1066.63,1578.85,1064.19,1577.51Z" transform="translate(8.34 11.15)" style="fill:#c45d02"/><path d="M990.41,1152.58l-1.11-20.06s59.08-4.46,64.65-4.46,30.1,42.36,30.1,42.36l19-1.11s0-51.28,13.37-54.62,42.36-13.38,42.36-13.38l14.49,51.27L1132,1218.35,1043.92,1205Z" transform="translate(8.34 11.15)" style="fill:#c45d02"/><path d="M397.4,1103.54s25.64,11.15,29,12.26-4.3,35.35,3.35,33.44c8.91-2.23,22.62-33,36.78-31.21,11.41,1.43,127.08,16.72,127.08,16.72l-7.81,103.67-187.26-35.67Z" transform="translate(8.34 11.15)" style="fill:#d46802"/><path d="M426.38,1432.37s82.49-37.9,117,10c0,0,75.13-31.42,107,7.81a65.93,65.93,0,0,1,14.5,37.9s110.35-17.84,115.92,71.34L715.09,1565l-303.2-72.46Z" transform="translate(8.34 11.15)" style="fill:#ad5202"/><path d="M1086.51,678c-8.47-42.15,152,360-113,988l338-87,64-965-250,58.52" transform="translate(8.34 11.15)" style="fill:#bde3ff;opacity:0.12"/></g><path d="M761.35,565.7s-4.46,134.88-4.46,150.49-3.35,31.21,26.75,34.55,176.12,0,194-12.26,20.06-24.52,5.57-76.91-32.33-121.5-32.33-121.5Z" transform="translate(8.34 11.15)" style="fill:#0089d4"/><g style="clip-path:url(#clip-path-4)"><path d="M753,610.85s94.74,13.37,124.84-14.49c0,0,29,11.14,55.74,8.91s72.68,151.15-138.23,150.49l73.94,8.45,140.08-22.94L994.87,661,955.39,531.32,793.11,552.88l-47.93,26.76Z" transform="translate(8.34 11.15)" style="fill:#0051c2;opacity:0.68"/></g><path d="M565.72,539.51S532.28,705.6,530.05,712.28s-6.69,23.41,12.26,29,178.35,6.68,189.5,2.23,24.52-2.23,25.63-36.79,3.35-150.48,3.35-150.48Z" transform="translate(8.34 11.15)" style="fill:#0a9df0"/><g style="clip-path:url(#clip-path-5)"><path d="M551.23,590.78s54.62,19,88.06,1.12c0,0,8.92,14.49,32.32,15.6s69.11,4.46,72.46,17.84-22.3,150.48-185,120.38L607,763.56,768.59,758l6.69-229.63L592.47,523.9l-39.58,34.35Z" transform="translate(8.34 11.15)" style="fill:#0030ab;opacity:0.4"/></g><path d="M435.86,517.77s-78,134.88-82.49,143.8-16.72,27.86-6.69,34.55,126,36.79,151.6,36.79,30.1-4.46,33.44-18.95,39-179.47,39-179.47Z" transform="translate(8.34 11.15)" style="fill:#0089d4"/><g style="clip-path:url(#clip-path-6)"><path d="M409.66,551.77s31.21,11.15,60.2,3.34c0,0,22.29,27.87,58,33.44S487,759.94,380.68,713.4l119.27,29,27.87-4.46,20.06-35.67L572.41,564l-156.06-37.9Z" transform="translate(8.34 11.15)" style="fill:#0051c2;opacity:0.68"/></g><path d="M376.78,506.62s-89.18,113.7-97,119.28-13.37,17.83,6.69,27.86,60.35,24.08,60.35,24.08L439.2,513.31Z" transform="translate(8.34 11.15)" style="fill:#006dcc"/><g style="clip-path:url(#clip-path-7)"><path d="M357.27,523.9s11.15,13.38,41.25,24.53-88.06,156.05-126,75.79l-4.46,17.84,13.37,17.83,66.89,23.41L432,536.16l-68-25.63Z" transform="translate(8.34 11.15)" style="fill:#0050ba"/></g><path d="M1095.75,505.51s114.81,124.84,126,132.65-6.69,45.7-30.1,59.08-139.33,27.86-165,25.63-33-18.14-33-18.14L947.5,530Z" transform="translate(8.34 11.15)" style="fill:#006dcc"/><g style="clip-path:url(#clip-path-8)"><path d="M958.09,606.39s63.54,4.46,95.86-37.9c0,0,39-23.41,63.54-10s147.14,136-64.65,168.32l63.53,2.22,109.24-31.21L1239,634.26,1098.54,500.49,1004.9,516.1l-69.11,41.24Z" transform="translate(8.34 11.15)" style="fill:#0050ba"/></g><path d="M687.22,412.43s-30.65,133.21-32.88,144.36-10,27.86,14.49,35.67,159.4,2.22,182.81-4.46,22.29-26.76,16.72-56.85S845,407.42,845,407.42Z" transform="translate(8.34 11.15)" style="fill:#006dcc"/><g style="clip-path:url(#clip-path-9)"><path d="M676.65,456.47s57.39,11.7,79.68-7.25c0,0,32.33,12.26,54.62,10S849.3,601.83,675,596.36l73.57,10,117-10,24.52-29L849.81,425.78,748.53,401.29l-74.69,25.63,2.81,29.55" transform="translate(8.34 11.15)" style="fill:#0050ba"/></g><path d="M555.13,389.58S482.67,520,474.87,530s2.79,26.2,38.46,36.23,94.75,14.49,111.47,15.61a28.56,28.56,0,0,0,24.92-10.93L695,403.52Z" transform="translate(8.34 11.15)" style="fill:#0951e0"/><g style="clip-path:url(#clip-path-10)"><path d="M535,429.46s44.14,13.07,69.77-.31c0,0,21.18,24.53,46.82,25.64S636.92,597.39,491,565.15L568,587.44l79.14,2.23,14.49-22.3,28.48-139.81-81.35-33.07-61.2,11.4L535,429.46" transform="translate(8.34 11.15)" style="fill:#0844bd"/></g><path d="M497.17,372.86S376.78,497.71,372.32,499.94s-13.38,14.49,15.61,27.86,73.57,20.07,81.37,17.84a31.44,31.44,0,0,0,13-7.76l84-151.64Z" transform="translate(8.34 11.15)" style="fill:#0089d4"/><g style="clip-path:url(#clip-path-11)"><path d="M477.66,380.11S484.35,408,511.1,418s-59.18,161-147.14,92.52l12.26,20.06,59.08,20.06,52.39-1.11L566.83,402.4l-83.6-39Z" transform="translate(8.34 11.15)" style="fill:#0051c2;opacity:0.68"/></g><path d="M954.74,384.57s82.49,141.56,84.72,153.82-37.9,33.44-70.23,40.13-97,6.52-99.19-17.36-31.22-168.79-31.22-168.79Z" transform="translate(8.34 11.15)" style="fill:#0a9df0"/><g style="clip-path:url(#clip-path-12)"><path d="M844.39,459.25s61.31-3.34,78-23.41c0,0,24.52,4.46,35.67-1.11s118.15,144.91-68,147.14l25.64,5.57,65.77-2.23,71.34-34.56-16.72-40.12-68-112.59-62.42-5.57-63.54,39Z" transform="translate(8.34 11.15)" style="fill:#0030ab;opacity:0.4"/></g><path d="M1009.92,366.17S1108,484.33,1112.47,493.25s-5.57,24.52-16.72,34.55-49.09,20.86-56.31,7.65S952,379.55,952,379.55Z" transform="translate(8.34 11.15)" style="fill:#0089d4"/><g style="clip-path:url(#clip-path-13)"><path d="M964.78,429.15s34.55-8.91,45.7-17.83,83.6,56.85,82.49,88.06-21.18,43.47-66.89,40.13l22.3,11.14,45.7-8.91L1122,516.1V490.46L1012.71,362.27l-57.78,36.22Z" transform="translate(8.34 11.15)" style="fill:#0051c2;opacity:0.68"/></g><path d="M757.44,268.64s-7.24,133.2-6.13,147.7,36.23,30.65,87.51,25.08,76.91-17.84,76.91-37.9-51.28-149.37-51.28-149.37Z" transform="translate(8.34 11.15)" style="fill:#0951e0"/><g style="clip-path:url(#clip-path-14)"><path d="M754.1,306.54s44.59,6.69,58-4.46c0,0,23.41,6.69,39,0s80.26,157.17-89.18,132.65l17.84,7.8,59.08,7.8,64.65-14.49,25.64-29L869.17,261.4,753,275.33Z" transform="translate(8.34 11.15)" style="fill:#0844bd"/></g><path d="M668.83,263.62s-51.28,131.54-53.51,143.8,18.95,29,53.51,32.32,55.89-1.14,78-5.57c11.14-2.23,12.26-17.83,12.26-17.83V263.62Z" transform="translate(8.34 11.15)" style="fill:#0089d4"/><g style="clip-path:url(#clip-path-15)"><path d="M648.21,293.16s25.63,5.58,44.58-3.34c0,0,16.72,16.72,36.79,16.72s41.24,167.2-117,114.81l26.75,20.07,55.73,10,72.49-18.58,3.56-167.43-78.28-11.29-37.9,19Z" transform="translate(8.34 11.15)" style="fill:#0051c2;opacity:0.68"/></g><path d="M609.75,245.79s-107,103.66-118.16,114.81,1.12,31.21,36.79,46.82,82.48,12.26,86.94,0S674.4,252.48,674.4,252.48Z" transform="translate(8.34 11.15)" style="fill:#0a9df0"/><g style="clip-path:url(#clip-path-16)"><path d="M588,259.72s20.07,24.52,49,30.1S595.82,478.2,481,369l13.38,32.33,65.77,29,71.34-17.84,40.12-142.68-80.25-21.18Z" transform="translate(8.34 11.15)" style="fill:#0030ab;opacity:0.4"/></g><path d="M907.37,241.33S1020,343.88,1023.3,352.8s-16.72,36.78-34.56,46.81-66.88,17.84-71.34,5.58-56.85-159.4-56.85-159.4Z" transform="translate(8.34 11.15)" style="fill:#006dcc"/><g style="clip-path:url(#clip-path-17)"><path d="M866.68,289.82s40.13-12.26,45.71-21.18S1088.51,376.76,918,418l29,4.46,66.88-19,25.64-51.28L906.81,233l-51,30.65Z" transform="translate(8.34 11.15)" style="fill:#0050ba"/></g><path d="M730.69,158.29S706.17,259.72,703.94,273.1s15.61,16.72,55.73,16.72,52.39-11.15,52.39-17.84-26.75-117-26.75-117Z" transform="translate(8.34 11.15)" style="fill:#0a9df0"/><g style="clip-path:url(#clip-path-18)"><path d="M725.41,177.91s27.58,4.9,44.3,3.78S813.18,321,697.25,272l2.23,15.61,24.52,10,69.11-2.23,24.53-16.72L792,169.43l-65.77-3.34-.82,11.82" transform="translate(8.34 11.15)" style="fill:#0030ab;opacity:0.4"/></g><path d="M700,151s-105.9,89.17-108.13,98.09,35.67,21.18,62.43,29,51.27-3.34,51.27-3.34l29-119.27Z" transform="translate(8.34 11.15)" style="fill:#006dcc"/><g style="clip-path:url(#clip-path-19)"><path d="M677.19,161.63s23.41,14.49,35.67,15.61-19,140.45-126,65.76l-3.35,13.38,60.2,24.52,43.47,8.92L714,274.21l20.62-109.92-47.37-9.35Z" transform="translate(8.34 11.15)" style="fill:#0050ba"/></g><path d="M827.11,148.81s88.06,74.68,90.29,82.49-11.14,27.86-34.55,36.78-71.9,17.28-74.13,7.25S783.64,151,783.64,151Z" transform="translate(8.34 11.15)" style="fill:#0089d4"/><g style="clip-path:url(#clip-path-20)"><path d="M786.43,180.58s39-2.23,46.81-11.15,114.51,112.83-36.38,103.79l6.32,9.09,52.36,7.51,70.22-40.13-3.34-31.21-89.18-69.11-50.16,13.37Z" transform="translate(8.34 11.15)" style="fill:#0051c2;opacity:0.68"/></g><path d="M768,0,738.5,79.14,686.66,155.5s24.53,18.95,81.37,18.95S840.49,151,840.49,151L795.34,80.26Z" transform="translate(8.34 11.15)" style="fill:#e68d02"/><g style="clip-path:url(#clip-path-21)"><path d="M764.13-11.15S779.74,83.6,779.74,90.29,766.36,190.61,678.3,150.48l-6.69,10,76.92,26.76,75.8-7.81,31.21-24.52Z" transform="translate(8.34 11.15)" style="fill:#7d1d02;opacity:0.2"/><path d="M765.25-4.46s-14.49,150.48-87,159.4l52.39-78Z" transform="translate(8.34 11.15)" style="fill:#ffae30"/></g><path d="M382.35,1500.92s-63.53,1.12-61.3,73.57,97,92.52,136,27.87c0,0,30.09,45.7,98.09,39s86.94-40.12,86.94-40.12,65.77,29,92.52-34.56-86.94-65.77-86.94-65.77-10-88.06-118.16-31.21c0,0-13.37-53.5-95.86-24.52S382.35,1500.92,382.35,1500.92Z" transform="translate(8.34 11.15)" style="fill:#d9efff"/><g style="clip-path:url(#clip-path-22)"><path d="M300.42,1560.56s45.71-52.39,198.42,11.15c0,0,108.12-65.77,233-53.51l33.44,21.18-5.58,34.56-79.14,46.81-243-4.46L289.28,1594Z" transform="translate(8.34 11.15)" style="fill:#b3d6ff"/><path d="M316,1548.3s59.08-47.93,85.83-35.67c0,0-18.44-26.52,34.25-45.59s82.79,17.72,82.79,17.72,107-32.32,121.5,23.41c0,0,76.92,0,98.1,18.95l-39-31.21-42.36-6.69-21.18-34.56-43.47-17.83-56.85,14.49L491,1424.57l-72.45,12.26-52.39,37.9L362.85,1497l-33.44,17.84Z" transform="translate(8.34 11.15)" style="fill:#edf7ff"/></g><path d="M1143.68,1499.81S1254,1468.6,1380,1471.94s122.61,46.82,122.61,46.82,146,4.46,132.65,99.21-201.76,45.7-201.76,45.7-114.81,146-296.5,46.82c0,0-204,105.89-173.9-60.2,0,0-54.62-52.39,12.27-71.34,0,0-11.15-85.83,56.84-93.63S1143.68,1499.81,1143.68,1499.81Z" transform="translate(8.34 11.15)" style="fill:#d9efff"/><g style="clip-path:url(#clip-path-23)"><path d="M955.86,1563.9s139,.22,152.56,87.06c0,0,77.06-34.67,128.34,17.72,0,0,119.27-53.5,194-50.16,0,0,182.81,80.26,216.25-17.83v54.62l-45.7,22.29-157.17,4.46-73.57,62.42-81.37,32.33-100.32-7.8L928,1619.64Z" transform="translate(8.34 11.15)" style="fill:#b3d6ff"/><path d="M957,1561.67s53.51-100.32,188.39-39c0,0,289.81-65.77,329.94,20.06,0,0,141.57-10,175,72.46l-14.49-66.88-71.34-33.44L1511,1501.48l-46.81-37.9-111.47-6.69-201.76,27.87-87-13.38-71.34,10L964.78,1526Z" transform="translate(8.34 11.15)" style="fill:#edf7ff"/><path d="M1095.19,1551.64c-3.34-12.26,22.22-42.21,65.73-32.25s20.11,45.63-17.79,49S1095.19,1551.64,1095.19,1551.64Z" transform="translate(8.34 11.15)" style="fill:#edf7ff"/><path d="M1387.11,1534.16c7.29-7.84,129.8-5.57,139,35.41S1334.06,1591.23,1387.11,1534.16Z" transform="translate(8.34 11.15)" style="fill:#edf7ff"/></g><path d="M494.94,1596.23s-69.11-43.47-146-25.64-62.42,69.11-62.42,69.11-126-32.32-146,87,114.81,169.43,185,156,120.39-61.3,120.39-61.3,276.44,150.48,375.65,8.91c0,0,27.87,70.23,153.83,54.62s140.45-102.55,152.71-129.3c0,0,56.85,10,60.19-53.51s-99.21-30.09-99.21-30.09S1117,1623.47,962,1589.54c-147.7-32.32-166.65-41.24-285.92-41.24S494.94,1596.23,494.94,1596.23Z" transform="translate(8.34 11.15)" style="fill:#d9efff"/><g style="clip-path:url(#clip-path-24)"><path d="M110.93,1712.16s130.42,228.51,338.86,52.39c0,0,259.72,189.49,369,22.29,0,0,217.37,157.17,317.69-20.06l4.46,58-87,65.77-151.6,26.75-82.48-42.36-81.37,32.33-142.68,2.23-146-49-99.21,50.16-144.9-20.06-81.38-75.8Z" transform="translate(8.34 11.15)" style="fill:#b3d6ff"/><path d="M106.47,1760.09s105.89-143.8,228.51-58c0,0,93.63-94.74,178.35-14.49,0,0,464.82-127.07,540.62,32.33,0,0,106-32.14,119.27,40.13l26.75-15.61,1.12-82.48-99-20-167.44-81.48-175-33.44-84.71,7.8L545.1,1549.25,489.92,1584l-58.6-28.53-133.13,11.81-126,74.68-47.93,60.19Z" transform="translate(8.34 11.15)" style="fill:#edf7ff"/><path d="M515.06,1677.6s-31.83,0-25.14,27.87,89.18,22.29,58-31.21Z" transform="translate(8.34 11.15)" style="fill:#edf7ff"/><path d="M418.58,1747.83s20.06,22.29,68,4.46C486.58,1752.29,440.87,1798,418.58,1747.83Z" transform="translate(8.34 11.15)" style="fill:#b3d6ff"/><path d="M739.61,1757.58s53.23,56.46,137.11,4.84C876.72,1762.42,813.81,1839.85,739.61,1757.58Z" transform="translate(8.34 11.15)" style="fill:#b3d6ff"/></g><path d="M589,1258.68s12.43-180.78,43.64-266.61,98.09-178.35,163.86-172.78S921.3,959.74,921.3,959.74l41.25,256.38-21.18,62.42Z" transform="translate(8.34 11.15)" style="fill:#7a4601"/><g style="clip-path:url(#clip-path-25)"><path d="M651.55,819.29S829.9,763.56,750.76,1302l288.7-105.89-97-335.52L795.34,755.76Z" transform="translate(8.34 11.15)" style="fill:#6b3401"/></g><path d="M779.18,791.51v-.08h-4.55v.08C562,798.36,573,1285.23,573,1285.23h52.39c0-412.5,137.49-440.61,151.55-442.41,14.06,1.8,151.55,29.91,151.55,442.41h52.39S991.83,798.36,779.18,791.51Z" transform="translate(8.34 11.15)" style="fill:#ff8026"/><g style="clip-path:url(#clip-path-26)"><path d="M855.54,799.23s-85.34-30.86-158.6,77.65-102.24,275.7-94.44,362.65l-49-37.9,18.95-185L644.86,836l114.81-61.3Z" transform="translate(8.34 11.15)" style="fill:#ffa666"/><path d="M775.28,849.39s6.69-22.29,19-24.52,18.95,39,18.95,39,15.13-22.32,27.63-22.86,14.73,39.58,14.73,39.58,31.21-11.15,39,2.23-10,10-21.18,65.77c0,0,26.75,8.91,36.79,33.44s-10,64.65-10,64.65L839.93,919.62Z" transform="translate(8.34 11.15)" style="fill:#f06317;opacity:0.77"/><path d="M721.77,880.6s-32.74-13.17-45.7-6.69c-4.46,2.23,13.38,30.1,16.72,54.62Z" transform="translate(8.34 11.15)" style="fill:#f06317;opacity:0.77"/><path d="M911.27,1134.75s47.93-8.92,66.88-31.21l-3.34-5.57s-21.18,23.4-65.77,29Z" transform="translate(8.34 11.15)" style="fill:#f06317"/></g><path d="M350.58,1158.72,381,1333.16c0,36.63,172,66.33,384.26,66.33s384.26-29.7,384.26-66.33l30.4-174.44-51.27,71.89-253,47.93L392.94,1245.1Z" transform="translate(8.34 11.15)" style="fill:#bf6402"/><g style="clip-path:url(#clip-path-27)"><path d="M934.68,1317.56s2.83,96.88-340.8,73.52-14.78,25.69-14.78,25.69l431.8-13.53,148.95-50,16-83.88Z" transform="translate(8.34 11.15)" style="fill:#7d1d02;opacity:0.16"/></g><g id="Layer_21" data-name="Layer 21"><path d="M702.59,947.48s-10-54.33-20.07-69.61c0,0,22.3-3.39,43.48,13.58,0,0,12.26-28.86,23.41-35.65,0,0,16.72,17,23.4,30.56,0,0,6.69-42.44,20.07-49.23,0,0,16.72,22.07,17.83,49.23,0,0,15.61-34,26.76-35.65,0,0,12.26,25.46,11.14,47.53,0,0,21.18-20.37,35.67-11.88,0,0-25.63,32.26-21.18,76.4l-51.27,11.88-94.75,10.18Z" transform="translate(8.34 11.15)" style="fill:#ffc61f"/><g style="clip-path:url(#clip-path-28)"><path d="M693.91,936.34s29-4.46,36.78,10c0,0,35.67-41.25,76.92-33.44s22.29,31.21,22.29,31.21,29-12.26,39-2.23l-1.11,17.83h-49L813.18,933l-36.79-3.34-45.7,33.44L695,950.83Z" transform="translate(8.34 11.15)" style="fill:#f5a300"/><path d="M891.21,881.72s-47.93,27.86-50.16,61.3l23.4,1.12s15.61-44.59,21.18-52.39S891.21,881.72,891.21,881.72Z" transform="translate(8.34 11.15)" style="fill:#f5a300"/><path d="M836.59,848.28s8.91,42.35,4.46,56.84c0,0,11.14-7.8,13.37-14.49S844.39,852.73,836.59,848.28Z" transform="translate(8.34 11.15)" style="fill:#f5b400"/><path d="M792,834.9s14.49,47.93,13.38,60.19c0,0,6.68-6.69,7.8-20.06S796.46,836,792,834.9Z" transform="translate(8.34 11.15)" style="fill:#f5b400"/><path d="M749.06,853.61s19.53,35.91,19.53,43.71c0,0,7.8-5.57,2.23-25.64S749.06,853.61,749.06,853.61Z" transform="translate(8.34 11.15)" style="fill:#f5b400"/><path d="M680.53,877.26s41.24,12.26,44.59,24.52c0,0,5.45-14.12-7.87-21S680.53,877.26,680.53,877.26Z" transform="translate(8.34 11.15)" style="fill:#f5b400"/><path d="M680.53,877.26s22.3,17.83,25.64,36.78-8.92,23.41-8.92,23.41Z" transform="translate(8.34 11.15)" style="fill:#ffe494"/><path d="M725.12,890.63v11.15S743,858.31,750.76,855L743,858.31l-17.83,32.32" transform="translate(8.34 11.15)" style="fill:#ffe494"/><path d="M773.05,886.18a39,39,0,0,1-4.46,11.14s10-5.57,10-8.92,7.81-54.62,19-54.62L788.66,836l-14.49,30.1Z" transform="translate(8.34 11.15)" style="fill:#ffe494"/><path d="M841.05,850.51s-7.81-6.69-26.76,39a16.17,16.17,0,0,1-8.91,5.57,54.72,54.72,0,0,0,7.8-17.83C815.41,867.23,832.13,843.82,841.05,850.51Z" transform="translate(8.34 11.15)" style="fill:#ffe494"/><path d="M841.05,905.12s17.83-21.17,33.44-22.29,13.37,4.46,13.37,4.46-11.14-8.92-45.7,21.18C842.16,908.47,837.7,907.35,841.05,905.12Z" transform="translate(8.34 11.15)" style="fill:#ffe494"/></g><path d="M673.66,1049.41S633.64,991,666,962,731,953.88,731,953.88s32.75-36.85,67.31-34.12,25.47,30,25.47,30,51.84-15,70.94,30-1.82,71-15.46,77.79c0,0,50.93,86-10,98.27,0,0,3.64,68.23-53.66,75.06s-66.4-15-66.4-15-70,49.13-65.48-47.77c0,0-36.38-23.2-11.83-49.13,0,0-29.1-17.75-21.82-46.41S673.66,1049.41,673.66,1049.41Z" transform="translate(8.34 11.15)" style="fill:#66ffe6"/><g style="clip-path:url(#clip-path-29)"><path d="M664.93,1121.37s62.42,24.53,122.61,17.84,80.26-36.79,75.8-81.37c0,0,62.42-89.18-52.39-93.64,0,0-10-43.47-80.26-1.11,0,0-27.86-22.3-64.65-7.8l49.05-24.53L797.57,911l58,27L899,963.09l23.31,43.47-27.77,54.62,17.84,64.65-17.84,37.9-18.95,32.33-20.06,31.21L666,1186l-16.72-32.33Z" transform="translate(8.34 11.15)" style="fill:#18dbbb"/></g><g id="hand"><path d="M887.43,1112.33s78.82,2.22,116.57-96.58" transform="translate(8.34 11.15)" style="fill:none;stroke:#3d3c3f;stroke-linecap:round;stroke-miterlimit:10;stroke-width:9px"/><path d="M1013.75,1071c-4.48-9-22.93-55.47-25.89-87.46s-18.75-39.67-29.2-49.29-46.47-44.39-39.64-68,45.51-12.22,61.33,9.3,15.1,35.16,18.39,90.62,16.88,74.29,24.28,83.16,18.76,20,12.1,27.75S1018.24,1080.07,1013.75,1071Z" transform="translate(8.34 11.15)" style="fill:#ad6200"/><g style="clip-path:url(#clip-path-30)"><path d="M916.73,869.83s3.62-21.17,34.37-6.67,41.71,43.6,42.86,76.15-2.55,84.52,43.32,140.67l3-14.61-27.8-43.8-7.75-54.37-2.62-47.34-12.14-41.58-18.61-15.44L947.08,852l-20.55-.71-11.14,13.32Z" transform="translate(8.34 11.15)" style="fill:#915200"/></g><path d="M922.42,875c.48,8,9,30.84,29.61,46.49s31.47,8.63,32.75-2.78-13-43.13-37-53.65S921.79,864.73,922.42,875Z" transform="translate(8.34 11.15)" style="fill:#e3a545"/><g style="clip-path:url(#clip-path-31)"><path d="M960.57,868.49s-21-4.83-14.86,24,28.47,41.11,36.44,38S974,943,974,943l-34.41-21.65L918,889.19V853.11l23.87-2.78Z" transform="translate(8.34 11.15)" style="fill:#ffca78"/></g><path d="M998.49,996.42s-10-13.42-5.59-17.86,8.32,0,9.43,6.66,5,16.65,5,16.65Z" transform="translate(8.34 11.15)" style="fill:#3d3c3f"/><path d="M1004,995.21c-5.46-2.73-18.32-6.66-21.1-2.22s1.28,50.35,26.22,31.68C1012.88,1021.85,1012.88,999.65,1004,995.21Z" transform="translate(8.34 11.15)" style="fill:#3d3c3f"/><g style="clip-path:url(#clip-path-32)"><path d="M1001.42,993.54s12.57,37.2-16.3,27.2l6.67,10,12.21-1.63,10.54-7.81-6.1-26.64-7-1.12" transform="translate(8.34 11.15)" style="fill:#252526"/></g></g><circle cx="759.66" cy="1016.04" r="36.23" style="fill:#0ec9ab"/><circle cx="815.39" cy="1021.61" r="20.62" style="fill:#0ec9ab"/><circle cx="808.7" cy="1022.72" r="13.93" style="fill:#fff"/><circle cx="774.71" cy="1015.48" r="21.18" style="fill:#fff"/><circle cx="781.95" cy="1020.49" r="7.25"/><circle cx="805.92" cy="1023.28" r="5.57"/><path d="M706.17,1058.19s62.42,36.1,149.37-2.58c0,0-16.72,47.71-41.25,58s-79.14,10.31-91.4,0S706.17,1058.19,706.17,1058.19Z" transform="translate(8.34 11.15)" style="fill:#003f57"/><g style="clip-path:url(#clip-path-33)"><path d="M788.66,1066.75s-3.35,55.74-73.57,45.71l11.14,8.91,33.44,5.58,50.16-4.46,25.64-12.26L860,1053.38l-17.84,2.23Z" transform="translate(8.34 11.15)" style="fill:#002b3b"/><path d="M724,1062.3s8.92,19,17.84,22.29S763,1067.87,763,1067.87Z" transform="translate(8.34 11.15)" style="fill:#fff"/><g style="clip-path:url(#clip-path-34)"><path d="M731.81,1076.79s15.6,14.49,23.41-7.81l7.8,3.35-4.46,5.57-7.8,8.92-8.92,1.11-7.8-5.57Z" transform="translate(8.34 11.15)" style="fill:#5a70e0;opacity:0.32"/></g><path d="M795.34,1067.87S811,1082.36,821,1081.25s11.15-22.3,11.15-22.3Z" transform="translate(8.34 11.15)" style="fill:#fff"/><g style="clip-path:url(#clip-path-35)"><path d="M806.49,1079s23.41,6.68,17.84-16.72h10v7.8l-5.58,10-6.68,3.34L811,1082.36Z" transform="translate(8.34 11.15)" style="fill:#5a70e0;opacity:0.32"/></g><path d="M731.81,1123.6s11.14-17.83,17.83-20.06S765.25,1127,765.25,1127Z" transform="translate(8.34 11.15)" style="fill:#fff"/><g style="clip-path:url(#clip-path-36)"><path d="M731.81,1115.8s22.29,4.46,24.52,1.11-3.34-15.6-10-14.49l6.69-1.11,10,7.8,2.23,14.49h-8.92l-24.52-3.34Z" transform="translate(8.34 11.15)" style="fill:#5a70e0;opacity:0.32"/></g><path d="M792,1124.72s2.23-23.41,11.15-25.64,20.06,19,20.06,19Z" transform="translate(8.34 11.15)" style="fill:#fff"/><g style="clip-path:url(#clip-path-37)"><path d="M788.66,1115.8s22.29-2.23,23.4-5.57-3.34-11.15-12.26-11.15,7.81-5.57,13.38-2.23,11.15,15.61,11.15,15.61l-19,7.8-15.61,1.11Z" transform="translate(8.34 11.15)" style="fill:#5a70e0;opacity:0.32"/></g></g></g><path d="M434.19,1183.8s-24.53,2.23-24.53-24.53,1.67-37.34-11.7-39.57-51.28-11.15-34.56-20.06c9.24-4.93,24-9.48,35.86-12.63.4-.11-.7-14.55-1.52-14.37-18.17,4.15-56.06,14.63-65.88,24.25-13,12.78-6.36,17.24.33,31.73s32.33,53.5,32.33,53.5l54.62,11.15Z" transform="translate(8.34 11.15)" style="fill:#ffbe57"/><g style="clip-path:url(#clip-path-38)"><polygon points="422.47 1131.41 368.96 1157.04 372.31 1192.71 402.4 1203.86 433.61 1200.56 439.96 1183.93 422.47 1131.41" style="fill:#a36402"/></g><path d="M442.54,1154.67s23.41-19.36,25.64-19.36,73.57,6.69,89.18,7.8,17.83,2.23,20.06,11.15,5.58,62.42,25.64,64.65l-15.6,5.57-49.05-44.59-97-16.72Z" transform="translate(8.34 11.15)" style="fill:#ffbe57"/><g style="clip-path:url(#clip-path-39)"><polygon points="585.21 1150.36 561.8 1187.14 582.55 1227.83 619.76 1232.84 597.47 1207.2 585.21 1150.36" style="fill:#a36402"/></g><path d="M682.76,1181.57s4.46-30.1,12.82-31.77,54.62,4.46,91.4,3.34,39.32-.46,41.25,1.12c6.13,5,16.16,31.77,16.16,31.77l-159.4,10Z" transform="translate(8.34 11.15)" style="fill:#ffbe57"/><path d="M896.22,1210s21.18-4.46,25.64-16.72,14.49-42.36,16.72-43.47,71.34-6.69,80.26-7.8,24.52-2.23,26.75-2.23,21.83,19,21.83,19l-1.76,20.06H952l-22.3,36.78-34.55,3.35Z" transform="translate(8.34 11.15)" style="fill:#ffbe57"/><g style="clip-path:url(#clip-path-40)"><polygon points="945.25 1153.7 960.86 1197.17 943.02 1227.27 902.89 1220.58 907.35 1207.2 945.25 1153.7" style="fill:#ffd085"/></g><path d="M1087.39,1194.94s20.07-1.11,26.75-15.6c4.68-10.12,9.48-55.18,12.82-57.41s42.36-7.8,46.82-12.26c3.46-3.46-3.9-17.28-18.72-19.06-.55-.07.32-11.79.91-11.72,10.56,1.24,25.09,8.45,35.77,13.37,23.28,10.72,11.37,28.46,11.37,28.46l-9.27,12.36-44.58,58Z" transform="translate(8.34 11.15)" style="fill:#ffbe57"/><g style="clip-path:url(#clip-path-41)"><polygon points="1129.18 1128.06 1175.99 1160.39 1167.98 1190.48 1151.97 1202.99 1105.77 1200.52 1129.18 1128.06" style="fill:#ffd085"/></g><path d="M1203.43,1118.9s-12.93,11.95-34.48,17.32-14.12,34.76-21.92,42.56-30.1,8.92-50.16,11.15-25.64-33.44-31.58-32.22-83.24,8.81-107.28,11.07-23.89,30.06-29.46,34.52-47.93,5.58-66.88,5.58S855,1174.4,820.5,1174.4c-30.17,0-92.59,1-116.66,0s-25,13.3-27.21,27.79-29,15.6-53.5,14.49c0,0-41.25,1.11-45.71-15.61s-7.46-33.25-25.46-33.9-98.47-11.21-107.84-12.62-9.11,32.64-32.1,29-38.58-4.76-36.36-20.37-2.36-23.81-12.88-27-40.62-15.4-38.39-27.67c0,0,28.21,145.46,30.83,166.37s15.52,36.85,118.31,54.51,289.79,29.93,401.39,19.9,288.71-26,296.57-59.28S1203.43,1118.9,1203.43,1118.9Z" transform="translate(8.34 11.15)" style="fill:#e68d02"/><g style="clip-path:url(#clip-path-42)"><path d="M1002.68,1137s92.51,159.4-273.1,183.92S335,1278.54,335,1278.54l7.8,59.08,370.08,34.56,416.33-26.2,74.13-66.32,22.29-221.82Z" transform="translate(8.34 11.15)" style="fill:#7d1d02;opacity:0.2"/><path d="M1170.51,1121s-45,195-143,223l152-2,27-91,13-172Z" transform="translate(8.34 11.15)" style="fill:#bde3ff;opacity:0.12"/></g></g></g></svg>