<svg xmlns="http://www.w3.org/2000/svg" xmlns:xlink="http://www.w3.org/1999/xlink" viewBox="0 0 623.47 459.77"><defs><clipPath id="clip-path" transform="translate(4.53 3.51)"><path d="M107.16,154.91S75.75,142,66.51,38.51c0,0,18.48,9.24,51.74,12.94s66.51,44.34,66.51,44.34Z" style="fill:#35a31a"/></clipPath><clipPath id="clip-path-2" transform="translate(4.53 3.51)"><path d="M99.77,164.15s-40.65-12.93-59.12-3.69S0,169.69,0,169.69,29.56,197.41,37,214s42.5,42.49,77.6,37S99.77,164.15,99.77,164.15Z" style="fill:#35a31a"/></clipPath><clipPath id="clip-path-3" transform="translate(4.53 3.51)"><path d="M291.94,157.05S258.68,94.23,269.77,53.58,275.31,0,275.31,0s44.34,29.56,73.91,48,18.47,72.05,18.47,72.05Z" style="fill:#35a31a"/></clipPath><clipPath id="clip-path-4" transform="translate(4.53 3.51)"><path d="M480.38,121.66s46.19-24,73.9-20.33,53.58,9.24,64.67,3.7c0,0-20.33,35.1-31.41,61S543.19,215.88,521,204.8,480.38,121.66,480.38,121.66Z" style="fill:#35a31a"/></clipPath><clipPath id="clip-path-5" transform="translate(4.53 3.51)"><path d="M447.12,341.52s49.88,14.78,73.9,0,44.35-36.95,57.28-36.95c0,0-44.34-27.72-79.45-57.28C498.85,247.29,399.21,279.54,447.12,341.52Z" style="fill:#35a31a"/></clipPath><clipPath id="clip-path-6" transform="translate(4.53 3.51)"><circle cx="209.7" cy="198.33" r="124.71" style="fill:#7900ff"/></clipPath><clipPath id="clip-path-7" transform="translate(4.53 3.51)"><circle cx="414.79" cy="196.48" r="121.02" style="fill:#7900ff"/></clipPath><clipPath id="clip-path-8" transform="translate(4.53 3.51)"><circle cx="334.42" cy="321.2" r="129.33" style="fill:#7f1dff"/></clipPath></defs><g id="Layer_2" data-name="Layer 2"><g id="blueberries"><g id="Layer_4" data-name="Layer 4"><circle cx="218.85" cy="202.76" r="125.64" style="fill:none"/><circle cx="411" cy="202.76" r="125.64" style="fill:none"/><circle cx="327.86" cy="321.01" r="125.64" style="fill:none"/><path d="M107.16,154.91S75.75,142,66.51,38.51c0,0,18.48,9.24,51.74,12.94s66.51,44.34,66.51,44.34Z" transform="translate(4.53 3.51)" style="fill:#35a31a"/><g style="clip-path:url(#clip-path)"><path d="M66.47,39.26S106.53,73,115.53,82,85,157.13,85,157.13l37.18-2.22,62.59-81.29L155.53,51l-53.06-7.74Z" transform="translate(4.53 3.51)" style="fill:#176800;opacity:0.5"/><path d="M66.91,41.29C79.54,48,88.93,59,98,69.77c10.28,12.23,20.45,24.56,30.91,36.64,1.45,1.67,4.39-.55,3.09-2.39-9.46-13.44-20.44-25.78-31.47-37.95C91,55.57,80.78,45.82,67.91,39.59c-1.13-.54-2.13,1.1-1,1.7Z" transform="translate(4.53 3.51)" style="fill:#327c01"/><path d="M112.38,58c.22,8.61-1.37,17-1.59,25.59a1.59,1.59,0,0,0,3.11.42c1.95-8.49,1-17.42.38-26-.09-1.2-1.93-1.24-1.9,0Z" transform="translate(4.53 3.51)" style="fill:#327c01"/><path d="M82.34,69.77c7.06,2.7,12.74,4.29,20.39,3.4,1.18-.14,1.25-1.92,0-1.9-6.5.08-13.94-.38-20-2.72-.77-.29-1.09.93-.34,1.22Z" transform="translate(4.53 3.51)" style="fill:#327c01"/><path d="M97.85,98.25c8.53,2.4,16.27,3,24.78.15.49-.16.45-1-.13-1-8,1-16.49,1.36-24.37-.2a.52.52,0,0,0-.28,1Z" transform="translate(4.53 3.51)" style="fill:#327c01"/></g><path d="M99.77,164.15s-40.65-12.93-59.12-3.69S0,169.69,0,169.69,29.56,197.41,37,214s42.5,42.49,77.6,37S99.77,164.15,99.77,164.15Z" transform="translate(4.53 3.51)" style="fill:#35a31a"/><g style="clip-path:url(#clip-path-2)"><path d="M-4.53,170.26S64.53,170,74.53,184s-7,78,14,83l44-15-25-74.05-15.4-39.27L42.47,153.26Z" transform="translate(4.53 3.51)" style="fill:#176800;opacity:0.5"/><path d="M-4.08,170.09c18.82,6.26,37.89,11.61,56.46,18.63a234.71,234.71,0,0,1,26.3,11.42c8.36,4.38,16.19,9.72,24.56,14.07a1.09,1.09,0,0,0,1.32-1.71C92,199.32,72.83,191.45,56.14,185.06c-19.25-7.36-39.78-12-60-15.72a.39.39,0,0,0-.21.75Z" transform="translate(4.53 3.51)" style="fill:#327c01"/><path d="M44.33,166.51c7.73,5.75,14.76,14,18.37,23a1.47,1.47,0,1,0,2.7-1.13c-4.49-10.05-10.68-17.69-20.26-23.25-.92-.53-1.63.79-.81,1.4Z" transform="translate(4.53 3.51)" style="fill:#327c01"/><path d="M47.89,206.75c5.86.62,10.72.79,16.32-1.31a64.44,64.44,0,0,0,14.52-7.67c1.06-.76,0-2.54-1-1.76-8.4,6.13-19.39,9.15-29.81,9.54a.6.6,0,0,0,0,1.2Z" transform="translate(4.53 3.51)" style="fill:#327c01"/></g><path d="M291.94,157.05S258.68,94.23,269.77,53.58,275.31,0,275.31,0s44.34,29.56,73.91,48,18.47,72.05,18.47,72.05Z" transform="translate(4.53 3.51)" style="fill:#35a31a"/><g style="clip-path:url(#clip-path-3)"><path d="M275.53-3s52,78,74,144,49-48,49-48l-50-68Z" transform="translate(4.53 3.51)" style="fill:#176800;opacity:0.5"/><path d="M275.05-2.52C287,18.39,297.76,40.12,308.22,61.81c5.11,10.59,10.1,21.23,14.86,32,2.51,5.65,4.9,11.35,7.34,17,2.21,5.12,4.23,10.72,8,14.91a1.53,1.53,0,0,0,2.58-1.07c-.16-5.67-2.67-11.11-4.81-16.28-2.23-5.39-4.63-10.71-7-16-4.95-11-10.13-21.86-15.65-32.57-11.23-21.79-24-42.45-37.32-63a.67.67,0,0,0-1.15.68Z" transform="translate(4.53 3.51)" style="fill:#327c01"/><path d="M280.62,65.71c6.49,3.69,12.44,7.7,19.34,10.66,4.89,2.09,11.49,5,16.55,2.18a1.35,1.35,0,0,0-.32-2.44c-2.77-1-5.73-1-8.61-1.68s-5.76-1.65-8.57-2.61c-6-2-12.35-3.95-17.93-6.9-.52-.27-1,.5-.46.79Z" transform="translate(4.53 3.51)" style="fill:#327c01"/><path d="M287.41,92.37c6.22,3.21,12.68,6.72,19.41,8.71,5.76,1.71,14,4.27,19.92,2.42a1.46,1.46,0,0,0,0-2.78c-5.79-2.11-13-1.33-19.13-2.51-7.07-1.38-13.49-2.93-19.95-6.26-.28-.15-.53.27-.25.42Z" transform="translate(4.53 3.51)" style="fill:#327c01"/><path d="M334.2,56.69a41.56,41.56,0,0,1-1.8,18.55c-2,6-6.07,10.42-9.68,15.5-.88,1.24.84,2.86,2.07,2.07,12.26-8,12.76-23.4,10.38-36.25-.1-.54-1-.42-1,.13Z" transform="translate(4.53 3.51)" style="fill:#327c01"/></g><path d="M480.38,121.66s46.19-24,73.9-20.33,53.58,9.24,64.67,3.7c0,0-20.33,35.1-31.41,61S543.19,215.88,521,204.8,480.38,121.66,480.38,121.66Z" transform="translate(4.53 3.51)" style="fill:#35a31a"/><g style="clip-path:url(#clip-path-4)"><path d="M488.53,179s99.94-25.74,129.94-73.74c0,0-15.94,111.74-50.94,114.74S491.53,208,488.53,179Z" transform="translate(4.53 3.51)" style="fill:#176800;opacity:0.5"/><path d="M616.23,106c-8.71,6.33-18.61,11.34-27.73,17.08-9.46,6-19.12,11.59-29,16.78s-20,10-30.41,14.16c-9.89,4-20.54,6.61-30.07,11.39a1.84,1.84,0,0,0,.92,3.41c10.59-.77,21-5.21,30.69-9.22a301.73,301.73,0,0,0,30-14.36c9.8-5.38,19.35-11.2,28.68-17.35,9.72-6.41,18.13-14.17,27.5-21,.54-.39,0-1.31-.53-.91Z" transform="translate(4.53 3.51)" style="fill:#327c01"/><path d="M535.09,153.91a70.93,70.93,0,0,1,12.66-29.8c.37-.51-.46-1.14-.89-.68a52.2,52.2,0,0,0-13.7,30.21c-.13,1.1,1.75,1.36,1.93.27Z" transform="translate(4.53 3.51)" style="fill:#327c01"/><path d="M555,150.3c10.52,6.24,21.15,11.12,33.5,11.94a1.09,1.09,0,0,0,.29-2.14c-11.4-2.41-23.06-5-33.47-10.35a.32.32,0,0,0-.32.55Z" transform="translate(4.53 3.51)" style="fill:#327c01"/><path d="M579.43,115.34c-4.47,6.26-7.84,12.87-8.27,20.68a.91.91,0,0,0,1.79.24c1.72-7.07,3.53-14.15,7.27-20.46.3-.52-.45-.93-.79-.46Z" transform="translate(4.53 3.51)" style="fill:#327c01"/></g><path d="M447.12,341.52s49.88,14.78,73.9,0,44.35-36.95,57.28-36.95c0,0-44.34-27.72-79.45-57.28C498.85,247.29,399.21,279.54,447.12,341.52Z" transform="translate(4.53 3.51)" style="fill:#35a31a"/><g style="clip-path:url(#clip-path-5)"><path d="M423.11,278.78s47.36,21.48,155.36,26.48L535.53,377l-93.46-17.32L406.53,298l16.58-19.22" transform="translate(4.53 3.51)" style="fill:#176800;opacity:0.5"/><path d="M476.3,289.86c18.37,5.63,38,8.57,57,11.49,18.56,2.86,37.46,6.49,56.24,7.4a1.2,1.2,0,0,0,.32-2.35c-18.9-4.07-38.38-6-57.46-9.17-18.5-3.11-37.28-6.89-56-8.41-.61-.05-.69.87-.14,1Z" transform="translate(4.53 3.51)" style="fill:#327c01"/><path d="M519.89,280.87c-4.83,3.59-13.17,8.42-13.25,15.25a.92.92,0,0,0,1.56.65c2.12-2.14,3.39-5,5.17-7.42a53.59,53.59,0,0,1,7.12-7.71c.4-.37-.15-1.11-.6-.77Z" transform="translate(4.53 3.51)" style="fill:#327c01"/><path d="M537.94,288.85c-3.91,2.3-10.28,5.07-10.33,10.39a1.07,1.07,0,0,0,1.8.75c1.45-1.63,2.5-3.53,3.94-5.17a28.73,28.73,0,0,1,5.38-4.64c.8-.56.09-1.85-.79-1.33Z" transform="translate(4.53 3.51)" style="fill:#327c01"/><path d="M528.05,321a62.28,62.28,0,0,1-5.78-14.09c-1.14-3.93-1.53-8.24-3.3-11.93a1.1,1.1,0,0,0-2,.26c-2,9,4.65,19.55,9.37,26.75a1,1,0,0,0,1.7-1Z" transform="translate(4.53 3.51)" style="fill:#327c01"/><path d="M499.54,331.55c-4.13-6.09-6.34-14.55-7.67-21.73-.71-3.82-1.13-7.69-1.46-11.56-.26-3.07.21-5.78-2.19-7.95a1.72,1.72,0,0,0-2.65.34c-2.16,2.86-.76,6.65-.28,10a109.78,109.78,0,0,0,2.11,11.25c2,8.09,5.59,14,10.5,20.62.71,1,2.33.07,1.64-1Z" transform="translate(4.53 3.51)" style="fill:#327c01"/></g><circle cx="214.23" cy="201.84" r="124.71" style="fill:#7900ff"/><g style="clip-path:url(#clip-path-6)"><path d="M336.53,119l-25.78-6.42s-35.3,34.71-41,83.53C158.57,242.26,180.53,343,180.53,343l48-5,58.08-101-3.17-24.75L330.53,186Z" transform="translate(4.53 3.51)" style="fill:#4a00bf;opacity:0.7000000000000001"/><path d="M108.22,224.57c-15-14.2-13.14-40,2.83-70.43,22.69-43.24,4,7.35,13.44,43.72C128.16,211.94,126,241.45,108.22,224.57Z" transform="translate(4.53 3.51)" style="fill:#b694f7"/></g><circle cx="419.31" cy="199.99" r="121.02" style="fill:#7900ff"/><g style="clip-path:url(#clip-path-7)"><path d="M535.8,102.05,497.53,81s35.72,110.68-34.13,150.29C394.32,157.47,291.53,186,291.53,186l-4,34,126,34.82,35,87.18,84-17,32-96Z" transform="translate(4.53 3.51)" style="fill:#4a00bf;opacity:0.7000000000000001"/></g><circle cx="338.94" cy="324.71" r="129.33" style="fill:#7f1dff"/><g style="clip-path:url(#clip-path-8)"><path d="M463.53,283S417.61,509.35,220.07,395.17L231.53,427l61.94,29.26,90-5L448.53,428l31.85-80.4Z" transform="translate(4.53 3.51)" style="fill:#4a00bf;opacity:0.7000000000000001"/><path d="M223.87,324.24c-17.12-31.8,13.86-78.27,49.73-97,51-26.66-1.07,9.78-16.3,51.36C251.4,294.68,241,356,223.87,324.24Z" transform="translate(4.53 3.51)" style="fill:#b694f7"/></g><path d="M300.53,242c-4-6,0-26,17-12,12.85,10.58,19.65,4.77,25-3,11-16,28-1,21,12s6,15,15,15,5.78,24.86-10.62,18.62c-17.38-6.62-16.43,5.1-18.38,14.38-4,19-28.08,10.29-24-4,6-21-18.57-1.09-25-9-13-16,13-8,15-18S304.53,248,300.53,242Z" transform="translate(4.53 3.51)" style="fill:#2e2835"/><path d="M420.11,106.57c-1.78-5.2,7.63-14.45,18.55,1.27,8.26,11.88,16,11.84,23,10,14.42-3.75,25.05,12.52,15.05,16.48s.9,11.14,8.86,15.34-2.19,16.51-14.86,5.39c-13.42-11.8-16-4.84-20.47-.59-9.11,8.69-27.86-7.4-20.05-13.44,11.47-8.86-16.1-9.27-19.46-16.67-6.8-15,13.84,1.62,18.54-3S421.88,111.78,420.11,106.57Z" transform="translate(4.53 3.51)" style="fill:#2e2835"/><path d="M210.6,111.05c5.38,1.14,8.5,14-10.6,15.28-14.43,1-18.35,7.65-20.37,14.61-4.17,14.31-23.59,15.09-21.86,4.47s-10-4.93-17.72-.25-13.05-10.34,3-15.52c17-5.48,12.37-11.27,11-17.27-2.79-12.28,20.63-20.13,21.81-10.34,1.74,14.4,16.22-9.07,24.3-8.16,16.33,1.83-8.49,11-6.94,17.46S205.23,109.91,210.6,111.05Z" transform="translate(4.53 3.51)" style="fill:#2e2835"/><path d="M323.53,156c-4.21-20.18,12-40.37,42.43-56.29,43.28-22.62-.92,8.31-13.84,43.6C347.11,157,328.53,180,323.53,156Z" transform="translate(4.53 3.51)" style="fill:#b694f7"/><path d="M588.48,161.47a.32.32,0,0,0,0-.63.32.32,0,0,0,0,.63Z" transform="translate(4.53 3.51)" style="fill:#327c01"/><path d="M555.14,150.34a.32.32,0,0,0,0-.63.32.32,0,0,0,0,.63Z" transform="translate(4.53 3.51)" style="fill:#327c01"/><path d="M315.84,77.86a.46.46,0,0,0,0-.92.46.46,0,0,0,0,.92Z" transform="translate(4.53 3.51)" style="fill:#327c01"/><path d="M280.85,65.77a.46.46,0,0,0,0-.91.46.46,0,0,0,0,.91Z" transform="translate(4.53 3.51)" style="fill:#327c01"/></g></g></g></svg>