<svg width="60" height="60" viewBox="0 0 60 60" fill="none" xmlns="http://www.w3.org/2000/svg">
<mask id="mask0" mask-type="alpha" maskUnits="userSpaceOnUse" x="6" y="12" width="26" height="21">
<path d="M10.2701 14.1866C10.6791 12.6601 12.2482 11.7542 13.7747 12.1632L27.8249 15.9279L26.4196 21.1725C27.1181 20.9282 27.8949 20.8841 28.6636 21.09C30.6989 21.6354 31.9068 23.7275 31.3614 25.7628C30.816 27.7982 28.724 29.006 26.6886 28.4607C25.9199 28.2547 25.2693 27.8281 24.7865 27.2673L23.3196 32.7422L6.50536 28.2368L10.2701 14.1866Z" fill="white"/>
</mask>
<g mask="url(#mask0)">
<path d="M10.2701 14.1866C10.6791 12.6601 12.2482 11.7542 13.7747 12.1632L27.8249 15.9279L26.4196 21.1725C27.1181 20.9282 27.8949 20.8841 28.6636 21.09C30.6989 21.6354 31.9068 23.7275 31.3614 25.7628C30.816 27.7982 28.724 29.006 26.6886 28.4607C25.9199 28.2547 25.2693 27.8281 24.7865 27.2673L23.3196 32.7422L6.50536 28.2368L10.2701 14.1866Z" fill="#FF9F40"/>
<path fill-rule="evenodd" clip-rule="evenodd" d="M30.2205 9.68011L0.0556736 35.6719L41.4279 43.1833L45.7202 21.7222L30.2205 9.68011Z" fill="#FE8A17"/>
</g>
<mask id="mask1" mask-type="alpha" maskUnits="userSpaceOnUse" x="11" y="30" width="29" height="24">
<path d="M16.0641 30.7981L28.9355 34.2468C28.133 34.7396 27.5103 35.5287 27.2473 36.5102C26.7019 38.5455 27.9098 40.6376 29.9451 41.1829C31.9805 41.7283 34.0726 40.5204 34.6179 38.4851C34.8809 37.5036 34.7362 36.5089 34.2876 35.6808L39.9034 37.1858L36.1387 51.236C35.7297 52.7625 34.1606 53.6684 32.6341 53.2594L11.5588 47.6123L16.0641 30.7981Z" fill="white"/>
</mask>
<g mask="url(#mask1)">
<path d="M16.0641 30.7981L28.9355 34.2468C28.133 34.7396 27.5103 35.5287 27.2473 36.5102C26.7019 38.5455 27.9098 40.6376 29.9451 41.1829C31.9805 41.7283 34.0726 40.5204 34.6179 38.4851C34.8809 37.5036 34.7362 36.5089 34.2876 35.6808L39.9034 37.1858L36.1387 51.236C35.7297 52.7625 34.1606 53.6684 32.6341 53.2594L11.5588 47.6123L16.0641 30.7981Z" fill="#04BCCF"/>
<path fill-rule="evenodd" clip-rule="evenodd" d="M42.3818 34.8373L16.5092 54.0331L44.2894 57.2522L42.3818 34.8373Z" fill="#00A9BA"/>
</g>
<mask id="mask2" mask-type="alpha" maskUnits="userSpaceOnUse" x="2" y="24" width="22" height="26">
<path d="M6.50535 28.2368L11.9802 29.7038C11.7359 29.0053 11.6918 28.2286 11.8978 27.4599C12.4431 25.4245 14.5352 24.2167 16.5706 24.762C18.6059 25.3074 19.8138 27.3995 19.2684 29.4348C19.0624 30.2035 18.6358 30.8542 18.075 31.3369L23.3196 32.7422L21.7511 38.5967C21.2808 37.6506 20.4221 36.9031 19.3212 36.6082C17.2859 36.0628 15.1938 37.2707 14.6485 39.306C14.1031 41.3413 15.311 43.4334 17.3463 43.9788C18.4471 44.2738 19.5645 44.0559 20.4449 43.4716L18.8142 49.5564L4.76398 45.7916C3.23748 45.3826 2.33158 43.8135 2.74061 42.287L6.50535 28.2368Z" fill="white"/>
</mask>
<g mask="url(#mask2)">
<path d="M6.50535 28.2368L11.9802 29.7038C11.7359 29.0053 11.6918 28.2286 11.8978 27.4599C12.4431 25.4245 14.5352 24.2167 16.5706 24.762C18.6059 25.3074 19.8138 27.3995 19.2684 29.4348C19.0624 30.2035 18.6358 30.8542 18.075 31.3369L23.3196 32.7422L21.7511 38.5967C21.2808 37.6506 20.4221 36.9031 19.3212 36.6082C17.2859 36.0628 15.1938 37.2707 14.6485 39.306C14.1031 41.3413 15.311 43.4334 17.3463 43.9788C18.4471 44.2738 19.5645 44.0559 20.4449 43.4716L18.8142 49.5564L4.76398 45.7916C3.23748 45.3826 2.33158 43.8135 2.74061 42.287L6.50535 28.2368Z" fill="#FFDC5A"/>
<path fill-rule="evenodd" clip-rule="evenodd" d="M23.5437 27.5644L1.96335 48.9063L25.6898 54.2715L33.082 29.7105L23.5437 27.5644Z" fill="#FFC843"/>
</g>
<path d="M46.6316 30.6179L42.6237 26.61C42.4861 27.337 42.1359 28.0318 41.5731 28.5945C40.0832 30.0845 37.6674 30.0845 36.1775 28.5945C34.6875 27.1045 34.6875 24.6888 36.1775 23.1988C36.7402 22.6361 37.435 22.2859 38.162 22.1483L34.3227 18.309L38.6084 14.0231C38.5425 15.0776 38.9125 16.1542 39.7184 16.9601C41.2083 18.4501 43.6241 18.4501 45.114 16.9601C46.604 15.4701 46.604 13.0544 45.114 11.5644C44.3082 10.7586 43.2315 10.3886 42.177 10.4544L46.6316 6.00017L56.9171 16.2857C58.0345 17.4031 58.0345 19.2149 56.9171 20.3324L46.6316 30.6179Z" fill="#5588FB"/>
<mask id="mask3" mask-type="alpha" maskUnits="userSpaceOnUse" x="34" y="6" width="24" height="25">
<path d="M46.6315 30.6179L42.6237 26.61C42.486 27.337 42.1358 28.0318 41.5731 28.5945C40.0831 30.0845 37.6674 30.0845 36.1775 28.5945C34.6875 27.1045 34.6875 24.6888 36.1775 23.1988C36.7402 22.6361 37.4349 22.2859 38.162 22.1483L34.3227 18.309L38.6083 14.0231C38.5425 15.0776 38.9125 16.1542 39.7184 16.9601C41.2083 18.4501 43.624 18.4501 45.114 16.9601C46.604 15.4701 46.604 13.0544 45.114 11.5644C44.3082 10.7586 43.2315 10.3886 42.177 10.4544L46.6315 6.00017L56.917 16.2857C58.0345 17.4031 58.0345 19.2149 56.917 20.3324L46.6315 30.6179Z" fill="#5588FB"/>
</mask>
<g mask="url(#mask3)">
<path fill-rule="evenodd" clip-rule="evenodd" d="M56.4506 11.707L33.7972 31.2604L58.9544 31.2604L62.8889 11.707L56.4506 11.707Z" fill="#267DE4"/>
</g>
</svg>
