<svg xmlns="http://www.w3.org/2000/svg" xmlns:xlink="http://www.w3.org/1999/xlink" viewBox="0 0 845.25 759.3"><defs><clipPath id="clip-path" transform="translate(0 138.07)"><path d="M627.78,21C663.38,31.28,789,92.23,836.5,125.66c0,0-20.49,128.9-65.8,162.34L652.05,213l30.2,358.11c-28.48.46-42.61-8.09-83.59-.54-17.12,3.15-55.62,17.54-96,14-39.33-3.43-53.94-17.26-80.9-16.18s-88.45,14-133.76,3.24c-62.16-14.8-133.75-.54-133.75-.54L184.45,213,77.39,284C32.09,250.52,0,125.66,0,125.66,47.46,92.23,184.45,30.2,217.89,21,253.26,11.34,341.13,0,418.52,0,495.37,0,594.72,11.52,627.78,21Z" style="fill:#ff8b00"/></clipPath></defs><g id="Layer_2" data-name="Layer 2"><g id="Layer_3" data-name="Layer 3"><path d="M627.78,21C663.38,31.28,789,92.23,836.5,125.66c0,0-20.49,128.9-65.8,162.34L652.05,213l30.2,358.11c-28.48.46-42.61-8.09-83.59-.54-17.12,3.15-55.62,17.54-96,14-39.33-3.43-53.94-17.26-80.9-16.18s-88.45,14-133.76,3.24c-62.16-14.8-133.75-.54-133.75-.54L184.45,213,77.39,284C32.09,250.52,0,125.66,0,125.66,47.46,92.23,184.45,30.2,217.89,21,253.26,11.34,341.13,0,418.52,0,495.37,0,594.72,11.52,627.78,21Z" transform="translate(0 138.07)" style="fill:#ff8b00"/><g style="clip-path:url(#clip-path)"><circle cx="427.15" cy="107.87" r="107.87" style="fill:#d85107;opacity:0.35000000000000003"/><path d="M478.92,266.43l-3.23-116.5S549,165,601.89,141.3c0,0-1.08,101.4,0,116.5" transform="translate(0 138.07)" style="fill:#ffaa39"/><path d="M607.28-27s6.48,488.64-235.14,624.55l321.11-12,.33-293.27,101.67,16.27,50-194Z" transform="translate(0 138.07)" style="fill:#d85107;opacity:0.35000000000000003"/><polygon points="35.6 380.77 184.45 350.56 159.64 407.73 73.35 451.96 35.6 380.77" style="fill:#d85107;opacity:0.35000000000000003"/><path d="M186.61,590c4.31-16.18,9.71-103.55,33.44-167.2s11.86,25.89,10.78,75.51,6.47,87.37,6.47,87.37Z" transform="translate(0 138.07)" style="fill:#d85107;opacity:0.35000000000000003"/><path d="M309.58,606.21s49.61-36.68,66.87-128.36S397,252.41,409.89,292.32,399.26,550.7,385.7,597.87,309.58,606.21,309.58,606.21Z" transform="translate(0 138.07)" style="fill:#d85107;opacity:0.35000000000000003"/></g></g></g></svg>