<svg width="2000" height="1459" viewBox="0 0 2000 1459" fill="none" xmlns="http://www.w3.org/2000/svg">
<path d="M441.524 221.235C-85.7462 417.132 106.623 571.875 95.9545 782.943C86.9831 960.416 -126.769 1002 115.552 1172.96C418.452 1386.67 1174.92 1461.6 1545.13 1399.27C1915.34 1336.94 2061.18 1073.02 1971.43 841.506C1881.69 609.989 2028.11 354.802 1635.46 221.235C1242.81 87.6692 968.795 25.338 441.524 221.235Z" fill="#F1F1F8"/>
<mask id="mask0" mask-type="alpha" maskUnits="userSpaceOnUse" x="0" y="96" width="1998" height="1325">
<path d="M441.524 221.235C-85.7462 417.132 106.623 571.875 95.9545 782.943C86.9831 960.416 -126.769 1002 115.552 1172.96C418.452 1386.67 1174.92 1461.6 1545.13 1399.27C1915.34 1336.94 2061.18 1073.02 1971.43 841.506C1881.69 609.989 2028.11 354.802 1635.46 221.235C1242.81 87.6692 968.795 25.338 441.524 221.235Z" fill="#F1F1F8"/>
</mask>
<g mask="url(#mask0)">
<rect x="41.5069" y="57.3804" width="1955.65" height="662.376" fill="#DEDEF8"/>
</g>
<path d="M425.782 774.119C462.011 748.378 622.153 760.986 674.659 759.935C1026.45 759.935 1072.45 886.483 1015.42 901.771C933.118 923.834 865.911 1007.29 800.804 976.291C735.697 945.297 921.961 931.714 842.677 923.834C763.394 915.955 712.463 1021.54 449.41 1015.24C186.357 1008.94 200.534 834.005 355.425 842.935C510.317 851.866 517.142 819.821 488.264 819.821C459.386 819.821 389.554 799.86 425.782 774.119Z" fill="#FD9B29"/>
<path d="M607.582 879.107C568.729 872.277 554.029 863.872 528.302 831.302C495.145 789.328 585.998 796.269 589.73 796.107C637.335 789.278 752.812 777.09 833.881 782.974C935.217 790.328 961.169 826.206 949.617 845.118C938.066 864.029 864.863 879.107 780.329 887.512C726.49 892.864 657.754 887.927 607.582 879.107Z" fill="#D4790E"/>
<path d="M1297.28 943.376C1292.03 918.686 1222.73 933.395 1149.74 933.395C1091.83 936.736 961.783 946.003 944.976 955.984C928.17 965.965 958.849 962.434 957.582 970.693C956.286 979.145 925.555 970.693 912.427 979.098C896.719 989.155 933.876 1040.2 1042.64 1041.61C1121.76 1042.63 1265.8 1013.77 1281.54 1011.67C1297.28 1009.57 1378.15 988.553 1359.78 970.693C1341.4 952.832 1302.53 968.066 1297.28 943.376Z" fill="#D7273C"/>
<path d="M1311.13 981.778C1278.46 957.81 1220.63 952.83 1154.48 952.305C1128.22 950.554 1060.28 948.102 998.536 952.305C921.353 957.558 981.209 1015.76 1077.29 1022.17C1203.31 1030.58 1326.79 993.272 1311.13 981.778Z" fill="#B60016"/>
<path d="M1457.17 752.958C1410.81 739.362 1369.14 751.016 1311.33 752.958C1165.48 767.332 1091.52 838.812 1133.19 865.617C1174.86 892.422 1373.31 864.063 1503.52 865.617C1633.74 867.171 1645.72 797.245 1529.57 796.468C1413.41 795.691 1401.43 782.871 1417.06 778.986C1432.69 775.101 1503.52 766.555 1457.17 752.958Z" fill="#7B80FD"/>
<path d="M1465.75 840.151C1536.89 815.586 1352.11 795.679 1338.58 792.4C1280.81 778.405 1206.21 787.998 1190.84 805.303C1184.78 812.122 1124.96 848.679 1167.05 864.404C1209.14 880.13 1422.6 855.049 1465.75 840.151Z" fill="#565BE4"/>
<path d="M542.351 809.624L516.122 491.63H903.318L878.936 803.647C877.552 821.367 867.289 837.185 850.799 843.82C819.94 856.238 764.162 874.033 697.939 874.033C631.881 874.033 586.779 856.326 563.277 843.913C550.566 837.2 543.533 823.95 542.351 809.624Z" fill="#F6F7FF"/>
<ellipse cx="709.72" cy="491.142" rx="193.598" ry="41.5655" fill="white"/>
<path d="M648.537 634.312C672.675 634.801 680.165 584.055 682.135 571.83C683.072 567.766 684.017 562.84 684.766 557.594C687.562 538.004 687.619 513.946 674.253 513.638C657.307 513.247 629.754 510.867 618.095 509.726V475.006C618.095 460.825 599.868 452.023 588.538 451.534C577.208 451.045 520.558 454.957 506.272 480.874C500.028 492.202 514.069 539.618 514.152 591.879C514.259 659.186 538.068 781.567 566.629 741.477C601.807 692.097 595.435 579.654 614.647 584.544C633.859 589.434 624.399 633.823 648.537 634.312Z" fill="#FD9B29"/>
<mask id="mask1" mask-type="alpha" maskUnits="userSpaceOnUse" x="504" y="451" width="183" height="299">
<path d="M648.537 634.303C672.675 634.792 680.165 584.046 682.135 571.821C683.072 567.758 684.017 562.832 684.766 557.585C687.562 537.996 687.619 513.938 674.253 513.629C657.307 513.238 629.754 510.858 618.095 509.717V474.998C618.095 460.817 599.868 452.014 588.538 451.525C577.208 451.036 520.558 454.949 506.272 480.866C500.028 492.194 514.069 539.609 514.152 591.87C514.259 659.178 538.068 781.559 566.629 741.468C601.807 692.088 595.435 579.645 614.647 584.535C633.859 589.425 624.399 633.814 648.537 634.303Z" fill="#FD9B29"/>
</mask>
<g mask="url(#mask1)">
<path d="M903.318 491.14C903.318 514.096 816.642 532.705 709.721 532.705C602.8 532.705 483.67 529.244 503.622 483.016C503.622 468.348 560.328 431.535 604.958 456.18C635.156 452 671.119 449.574 709.721 449.574C816.642 449.574 903.318 468.184 903.318 491.14Z" fill="#FFC179"/>
</g>
<ellipse cx="714.154" cy="487.231" rx="168.474" ry="31.7854" fill="#E8E8FD"/>
<mask id="mask2" mask-type="alpha" maskUnits="userSpaceOnUse" x="545" y="455" width="338" height="65">
<ellipse cx="714.154" cy="487.231" rx="168.474" ry="31.7854" fill="#E8E8FD"/>
</mask>
<g mask="url(#mask2)">
<path d="M647.158 620.729C671.296 621.218 680.163 584.054 682.134 571.829C686.567 552.594 690.161 525.961 673.215 525.57C656.269 525.179 629.752 520.407 618.094 519.266V475.005C618.094 460.824 599.867 452.022 588.537 451.533C577.207 451.044 520.556 454.956 506.27 480.873C491.984 506.791 473.265 729.289 546.172 739.069C619.079 748.849 595.434 579.653 614.646 584.543C633.858 589.433 623.02 620.24 647.158 620.729Z" fill="#D5790E"/>
<path d="M882.713 515.064C882.713 528.409 807.253 539.228 714.17 539.228C621.086 539.228 545.627 528.409 545.627 515.064C545.627 501.718 621.086 484.07 714.17 484.07C807.253 484.07 882.713 501.718 882.713 515.064Z" fill="#EE8408"/>
</g>
<path d="M1058.36 787.436L1035.4 490.66H1371.98L1350.6 782.233C1349.51 797.163 1341.1 810.597 1327.36 816.547C1300.76 828.067 1251.76 844.988 1193.45 844.988C1135.01 844.988 1095.44 828 1075.33 816.478C1064.93 810.522 1059.28 799.385 1058.36 787.436Z" fill="#F6F7FF"/>
<mask id="mask3" mask-type="alpha" maskUnits="userSpaceOnUse" x="1035" y="490" width="337" height="355">
<path d="M1058.36 787.436L1035.4 490.66H1371.98L1350.6 782.233C1349.51 797.163 1341.1 810.597 1327.36 816.547C1300.76 828.067 1251.76 844.988 1193.45 844.988C1135.01 844.988 1095.44 828 1075.33 816.478C1064.93 810.522 1059.28 799.385 1058.36 787.436Z" fill="#F6F7FF"/>
</mask>
<g mask="url(#mask3)">
<path d="M930.015 853.225C1056.33 864.119 1160.86 829.257 1243.62 763.891C1308.27 712.821 1332.6 601.901 1347.77 511.142C1363.39 502.427 1366.43 503.308 1369.93 482.817L1382.99 450.134V752.997C1409.13 801.658 1422.19 901.16 1265.39 909.875C1108.59 918.591 976.474 875.74 930.015 853.225Z" fill="#E4E6F8"/>
</g>
<ellipse cx="1203.69" cy="490.206" rx="168.291" ry="38.5139" fill="white"/>
<path d="M1149.3 630.3C1170.29 630.753 1178 576.295 1179.71 564.967C1183.56 547.145 1187.59 511.411 1172.86 511.048C1158.13 510.686 1134.17 508.48 1124.04 507.423C1124.04 501.08 1139.25 483.203 1139.25 472.691C1139.25 459.551 1141.88 449.575 1122.97 449.577C1104.07 449.578 1039.25 456.675 1026.83 480.69C1021.4 491.186 1033.61 535.121 1033.68 583.545C1033.78 645.911 1019.12 713.867 1061.52 719.929C1124.9 728.991 1104.34 572.217 1121.04 576.748C1137.74 581.279 1128.32 629.847 1149.3 630.3Z" fill="#7B80FD"/>
<mask id="mask4" mask-type="alpha" maskUnits="userSpaceOnUse" x="1025" y="449" width="159" height="272">
<path d="M1149.3 630.3C1170.29 630.753 1178 576.295 1179.71 564.967C1183.56 547.145 1187.59 511.411 1172.86 511.048C1158.13 510.686 1134.17 508.48 1124.04 507.423C1124.04 501.08 1139.25 483.203 1139.25 472.691C1139.25 459.551 1141.88 449.575 1122.97 449.577C1104.07 449.578 1039.25 456.675 1026.83 480.69C1021.4 491.186 1033.61 535.121 1033.68 583.545C1033.78 645.911 1019.12 713.867 1061.52 719.929C1124.9 728.991 1104.34 572.217 1121.04 576.748C1137.74 581.279 1128.32 629.847 1149.3 630.3Z" fill="#7B80FD"/>
</mask>
<g mask="url(#mask4)">
<path d="M1371.98 490.206C1371.98 511.477 1296.63 528.72 1203.69 528.72C1110.74 528.72 1020.59 508.939 1020.59 478.996C1020.59 468.063 1053.73 452.385 1085.69 445.375C1100.92 442.037 1127.7 441.173 1140.3 454.518C1159.86 452.696 1181.26 451.692 1203.69 451.692C1296.63 451.692 1371.98 468.936 1371.98 490.206Z" fill="#BEC1FF"/>
</g>
<ellipse cx="1207.54" cy="488.301" rx="146.452" ry="29.4518" fill="#E8E8FD"/>
<mask id="mask5" mask-type="alpha" maskUnits="userSpaceOnUse" x="1061" y="458" width="293" height="60">
<ellipse cx="1207.54" cy="488.301" rx="146.452" ry="29.4518" fill="#E8E8FD"/>
</mask>
<g mask="url(#mask5)">
<path d="M1149.3 566.698C1170.29 567.151 1177.99 532.715 1179.71 521.388C1183.56 503.566 1186.01 480.967 1171.28 480.605C1156.55 480.242 1147.81 474.307 1137.68 473.25C1137.68 449.6 1142.07 424.535 1137.68 401.281C1127.83 400.828 1039.25 413.096 1026.83 437.11C1014.41 461.125 998.14 667.288 1061.52 676.35C1124.89 685.412 1104.34 528.637 1121.04 533.168C1137.74 537.7 1128.32 566.245 1149.3 566.698Z" fill="#565BE4"/>
<path d="M1353.99 513.767C1353.99 530.033 1288.43 543.219 1207.54 543.219C1126.66 543.219 1061.09 530.033 1061.09 513.767C1061.09 497.501 1126.66 480.638 1207.54 480.638C1288.43 480.638 1353.99 497.501 1353.99 513.767Z" fill="#676CF9"/>
</g>
<path d="M1232.46 962.981L1252.88 689.912H954.034L973.036 958.183C973.995 971.72 981.508 983.959 993.898 989.498C1017.57 1000.08 1060.95 1015.52 1112.55 1015.52C1164.39 1015.52 1199.51 999.936 1217.38 989.348C1226.68 983.842 1231.66 973.756 1232.46 962.981Z" fill="#F6F7FF"/>
<mask id="mask6" mask-type="alpha" maskUnits="userSpaceOnUse" x="954" y="689" width="299" height="327">
<path d="M1232.46 962.981L1252.88 689.912H954.035L973.036 958.183C973.995 971.72 981.509 983.959 993.899 989.498C1017.57 1000.08 1060.95 1015.52 1112.55 1015.52C1164.39 1015.52 1199.51 999.936 1217.38 989.348C1226.68 983.842 1231.66 973.756 1232.46 962.981Z" fill="#F6F7FF"/>
</mask>
<g mask="url(#mask6)">
<path d="M794.993 1049.32C921.304 1060.22 1025.84 1025.36 1108.59 959.989C1173.25 908.919 1197.58 797.999 1212.75 707.24C1228.37 698.525 1231.41 699.406 1234.9 678.915L1247.97 646.232V949.095C1274.1 997.756 1287.17 1097.26 1130.37 1105.97C973.571 1114.69 841.452 1071.84 794.993 1049.32Z" fill="#E4E6F8"/>
</g>
<ellipse rx="149.423" ry="35.3925" transform="matrix(-1 0 0 1 1103.46 689.497)" fill="white"/>
<path d="M1126.12 838.839C1094.62 838.839 1100.87 768.35 1099.34 757.94C1095.92 741.563 1117.75 708.985 1130.83 708.652C1143.91 708.319 1165.17 706.293 1174.17 705.321V675.758C1174.17 663.683 1188.24 656.188 1196.99 655.772C1205.73 655.355 1249.45 658.686 1260.48 680.755C1262.97 685.729 1269.99 827.808 1255.29 849.871C1240.59 871.935 1257.91 819.928 1235.34 821.504C1212.76 823.08 1258.44 909.532 1205.41 912.384C1152.38 915.237 1189.82 853.77 1187.55 821.504C1185.77 796.173 1170.45 792.881 1163.93 794.713C1149.1 798.877 1157.63 838.839 1126.12 838.839Z" fill="#D7273C"/>
<mask id="mask7" mask-type="alpha" maskUnits="userSpaceOnUse" x="1098" y="655" width="167" height="258">
<path d="M1126.13 838.835C1094.62 838.835 1100.87 768.346 1099.35 757.936C1095.93 741.558 1117.75 708.981 1130.83 708.648C1143.91 708.315 1165.18 706.288 1174.18 705.317V675.754C1174.18 663.679 1188.24 656.184 1196.99 655.767C1205.73 655.351 1249.46 658.682 1260.48 680.75C1262.97 685.725 1269.99 827.803 1255.29 849.867C1240.59 871.93 1257.92 819.924 1235.34 821.5C1212.76 823.076 1258.44 909.527 1205.41 912.38C1152.38 915.232 1189.82 853.765 1187.56 821.5C1185.78 796.169 1170.45 792.877 1163.93 794.708C1149.1 798.872 1157.63 838.835 1126.13 838.835Z" fill="#D7273C"/>
</mask>
<g mask="url(#mask7)">
<path d="M954.035 689.494C954.035 709.04 1020.93 724.886 1103.46 724.886C1185.98 724.886 1265.27 712.233 1265.27 677.036C1265.27 657.489 1203.31 645.517 1103.46 654.101C1020.93 654.101 954.035 669.947 954.035 689.494Z" fill="#FD4D62"/>
</g>
<ellipse rx="130.032" ry="27.0648" transform="matrix(-1 0 0 1 1100.03 686.166)" fill="#E8E8FD"/>
<mask id="mask8" mask-type="alpha" maskUnits="userSpaceOnUse" x="970" y="659" width="261" height="55">
<ellipse rx="130.032" ry="27.0648" transform="matrix(-1 0 0 1 1100.03 686.166)" fill="#949494"/>
</mask>
<g mask="url(#mask8)">
<path d="M1151.74 799.839C1133.11 800.255 1126.27 768.61 1124.75 758.201C1107.22 744.281 1117.72 719.293 1126.65 719.066C1139.73 718.733 1165.17 713.734 1174.17 712.762V675.757C1174.17 663.682 1188.24 656.187 1196.99 655.771C1205.73 655.355 1249.45 658.686 1260.48 680.754C1271.51 702.822 1285.95 892.276 1229.68 900.603C1173.41 908.931 1191.66 764.863 1176.83 769.027C1162.01 773.191 1170.37 799.423 1151.74 799.839Z" fill="#B60016"/>
<path d="M975.431 704.883C975.431 713.586 1031.14 720.642 1099.87 720.642C1168.59 720.642 1224.31 713.586 1224.31 704.883C1224.31 696.179 1168.59 682.819 1099.87 682.819C1031.14 682.819 975.431 696.179 975.431 704.883Z" fill="#C50018"/>
</g>
<path d="M1154.58 1073.1C1117.81 1065.02 1109.72 1082.47 1107.65 1091.75C1101.55 1118.56 1153.72 1143.82 1232.14 1160.85C1310.56 1177.89 1357.73 1161.91 1359.51 1150.48C1361.29 1139.04 1334.02 1127.61 1345.12 1112.97C1356.23 1098.33 1355.05 1089.75 1341.07 1082.4C1327.08 1075.06 1293.71 1060.21 1276.76 1081.18C1266.28 1094.15 1317.66 1132.12 1263.22 1127.76C1200.06 1119.05 1191.35 1081.18 1154.58 1073.1Z" fill="#D7273C"/>
<path d="M1434.9 1075.34C1436.32 1084.74 1425.76 1093.69 1408.96 1096.25C1392.17 1098.8 1374.58 1090.11 1373.15 1080.71C1371.72 1071.31 1383.4 1063.08 1400.19 1060.53C1416.99 1057.98 1433.47 1065.94 1434.9 1075.34Z" fill="#D7273C"/>
<path d="M1454.5 1137.15C1454.27 1146.83 1444.4 1153.99 1430.44 1153.65C1416.48 1153.3 1403.54 1141.54 1403.78 1131.86C1404.02 1122.18 1414.68 1115.94 1428.64 1116.28C1442.59 1116.62 1454.74 1127.47 1454.5 1137.15Z" fill="#D7273C"/>
<path d="M1424.52 1194.83C1422.53 1202.69 1411.92 1206.39 1398.8 1203.07C1385.69 1199.75 1375.62 1187.32 1377.6 1179.47C1379.59 1171.61 1390.79 1168.83 1403.9 1172.15C1417.02 1175.47 1426.5 1186.97 1424.52 1194.83Z" fill="#D7273C"/>
<path d="M1545.33 941.515C1488.41 953.429 1477.07 986.08 1477.25 993.975C1478.07 1032.93 1517.75 1018.42 1545.33 993.973C1558.4 982.395 1578.99 967.667 1613.84 973.062C1653.04 979.132 1600.41 1023.18 1639.97 1023.18C1679.53 1023.18 1685.01 1000.83 1672.44 989.816C1659.87 978.803 1663.69 968.443 1665.52 959.315C1667.34 950.187 1666.78 943.909 1652.68 939.361C1638.57 934.813 1602.26 929.601 1545.33 941.515Z" fill="#D7273C"/>
<ellipse rx="22.6697" ry="16.4022" transform="matrix(0.998687 -0.05122 0.051169 0.99869 1699.63 921.626)" fill="#D7273C"/>
<ellipse rx="20.9088" ry="17.1103" transform="matrix(0.997569 -0.0696808 0.0696116 0.997574 1732.01 969.732)" fill="#D7273C"/>
<ellipse rx="26.8895" ry="21.1616" transform="matrix(0.999703 0.0243495 -0.0243253 0.999704 1723.53 1028.47)" fill="#D7273C"/>
<mask id="mask9" mask-type="alpha" maskUnits="userSpaceOnUse" x="516" y="491" width="388" height="384">
<path d="M542.351 809.624L516.122 491.63H903.318L878.936 803.647C877.552 821.367 867.289 837.185 850.799 843.82C819.94 856.238 764.162 874.033 697.939 874.033C631.881 874.033 586.779 856.326 563.277 843.913C550.566 837.2 543.533 823.95 542.351 809.624Z" fill="#F6F7FF"/>
</mask>
<g mask="url(#mask9)">
<path d="M466.148 851.654C592.459 862.549 696.993 827.687 779.748 762.321C844.405 711.251 868.737 600.33 883.904 509.572C899.526 500.857 902.567 501.738 906.06 481.247L919.126 448.564V751.426C945.26 800.088 958.326 899.589 801.526 908.305C644.726 917.02 512.608 874.169 466.148 851.654Z" fill="#E4E6F8"/>
</g>
<path d="M485.748 958.419C383.393 991.102 344.198 960.598 307.176 925.736C233.709 856.555 429.541 873.504 455.265 871.266C531.488 899.593 348.558 890.875 420.42 917.021C527.126 954.061 612.069 873.444 657.798 906.126C703.526 938.809 588.104 925.736 485.748 958.419Z" fill="#FFC179"/>
</svg>
