<svg xmlns="http://www.w3.org/2000/svg" xmlns:xlink="http://www.w3.org/1999/xlink" viewBox="0 0 674.63 788"><defs><clipPath id="clip-path" transform="translate(0 13.27)"><path d="M351.63,751.73s-7,8-26,8-26-8-26-8v-140h52Z" style="fill:#c15c00"/></clipPath><clipPath id="clip-path-2" transform="translate(0 13.27)"><path d="M634,517.35C562.19,480.5,381.28,250.12,336,191.58a13.12,13.12,0,0,0-20.78,0C270,250.12,89.06,480.5,17.22,517.35c-86.4,44.31,173.61,117.3,307.58,117.9h1.65C460.43,634.65,720.44,561.66,634,517.35Z" style="fill:#2bbf11"/></clipPath><clipPath id="clip-path-3" transform="translate(0 13.27)"><path d="M516.86,277.89c-44.55-22.84-156.72-165.7-184.79-202a8.13,8.13,0,0,0-12.88,0c-28.07,36.3-140.25,179.16-184.79,202C80.82,305.37,242,350.63,325.12,351h1C409.22,350.63,570.44,305.37,516.86,277.89Z" style="fill:#2bbf11"/></clipPath><clipPath id="clip-path-4" transform="translate(0 13.27)"><path d="M464.26,148.73C432,132.17,350.65,28.61,330.3,2.29a5.91,5.91,0,0,0-9.34,0C300.61,28.61,219.29,132.17,187,148.73c-38.84,19.92,78,52.73,138.26,53H326C386.22,201.46,503.1,168.65,464.26,148.73Z" style="fill:#2bbf11"/></clipPath></defs><g id="Layer_2" data-name="Layer 2"><g id="tree"><g id="Layer_4" data-name="Layer 4"><path d="M351.63,751.73s-7,8-26,8-26-8-26-8v-140h52Z" transform="translate(0 13.27)" style="fill:#c15c00"/><g style="clip-path:url(#clip-path)"><path d="M299.63,640.38s30,4.35,37,7.35,10,92-6,100-53-5-53-5l43,32,43-9,3-146h-77l10,20.65h0" transform="translate(0 13.27)" style="fill:#a05000"/></g><path d="M634,517.35C562.19,480.5,381.28,250.12,336,191.58a13.12,13.12,0,0,0-20.78,0C270,250.12,89.06,480.5,17.22,517.35c-86.4,44.31,173.61,117.3,307.58,117.9h1.65C460.43,634.65,720.44,561.66,634,517.35Z" transform="translate(0 13.27)" style="fill:#2bbf11"/><g style="clip-path:url(#clip-path-2)"><path d="M183.63,335.73s32,27,155,30c41,1,146,264-174,256,0,0,177,65,335,14s175-107,175-107l-230-221-256,7Z" transform="translate(0 13.27)" style="fill:#176800;opacity:0.5"/></g><path d="M516.86,277.89c-44.55-22.84-156.72-165.7-184.79-202a8.13,8.13,0,0,0-12.88,0c-28.07,36.3-140.25,179.16-184.79,202C80.82,305.37,242,350.63,325.12,351h1C409.22,350.63,570.44,305.37,516.86,277.89Z" transform="translate(0 13.27)" style="fill:#2bbf11"/><g style="clip-path:url(#clip-path-3)"><path d="M210.63,186.73s25,25,134,25c29,0,47.88,145.54-58.06,139.27h0s173.06,46.73,271.06-66.27l-144-125Z" transform="translate(0 13.27)" style="fill:#176800;opacity:0.5"/></g><path d="M464.26,148.73C432,132.17,350.65,28.61,330.3,2.29a5.91,5.91,0,0,0-9.34,0C300.61,28.61,219.29,132.17,187,148.73c-38.84,19.92,78,52.73,138.26,53H326C386.22,201.46,503.1,168.65,464.26,148.73Z" transform="translate(0 13.27)" style="fill:#2bbf11"/><g style="clip-path:url(#clip-path-4)"><path d="M321.63-13.27s80,227-24,221c0,0,118,50,199-57Z" transform="translate(0 13.27)" style="fill:#176800;opacity:0.5"/></g></g></g></g></svg>