<svg width="1000" height="1000" viewBox="0 0 1000 1000" fill="none" xmlns="http://www.w3.org/2000/svg">
<rect x="64.1165" y="80.6504" width="909.909" height="870.348" rx="23.7368" fill="#CED2EE"/>
<rect x="32.4675" y="49.0014" width="909.909" height="870.348" rx="23.7368" fill="#F6F7FF"/>
<rect x="151.151" y="610.772" width="197.806" height="197.806" rx="23.7368" fill="#D27BFB"/>
<rect x="151.151" y="151.861" width="197.806" height="197.806" rx="23.7368" fill="#E75F4D"/>
<g filter="url(#filter0_d)">
<rect x="388.519" y="610.772" width="197.806" height="197.806" rx="23.7368" fill="white"/>
</g>
<path d="M474.125 723.454V716.947C474.125 712.3 475.055 708.272 476.914 704.864C478.876 701.352 482.542 697.892 487.913 694.484C491.321 692.315 493.851 690.456 495.504 688.907C497.156 687.255 498.189 685.757 498.602 684.415C499.118 683.072 499.377 681.729 499.377 680.387C499.377 678.321 498.395 676.669 496.433 675.429C494.574 674.19 492.095 673.57 488.997 673.57C481.458 673.57 472.576 676.256 462.351 681.626L451.817 661.022C457.497 657.717 463.591 655.135 470.097 653.276C476.604 651.314 483.627 650.333 491.166 650.333C502.63 650.333 511.512 652.863 517.812 657.924C524.112 662.984 527.262 669.646 527.262 677.908C527.262 683.898 525.867 689.114 523.079 693.555C520.29 697.996 515.694 702.282 509.291 706.413C504.747 709.305 501.597 711.628 499.841 713.384C498.189 715.14 497.363 717.205 497.363 719.581V723.454H474.125ZM470.872 749.944C470.872 744.574 472.421 740.804 475.519 738.636C478.618 736.467 482.387 735.382 486.828 735.382C491.063 735.382 494.729 736.467 497.827 738.636C500.926 740.804 502.475 744.574 502.475 749.944C502.475 755.005 500.926 758.671 497.827 760.944C494.729 763.216 491.063 764.352 486.828 764.352C482.387 764.352 478.618 763.216 475.519 760.944C472.421 758.671 470.872 755.005 470.872 749.944Z" fill="#55608A"/>
<g filter="url(#filter1_d)">
<rect x="633.799" y="381.316" width="197.806" height="197.806" rx="23.7368" fill="white"/>
</g>
<path d="M719.405 493.998V487.492C719.405 482.844 720.335 478.816 722.194 475.408C724.156 471.897 727.822 468.437 733.193 465.029C736.601 462.86 739.131 461.001 740.784 459.452C742.436 457.799 743.469 456.302 743.882 454.959C744.398 453.617 744.657 452.274 744.657 450.931C744.657 448.866 743.675 447.213 741.713 445.974C739.854 444.735 737.375 444.115 734.277 444.115C726.738 444.115 717.856 446.8 707.631 452.171L697.097 431.567C702.777 428.262 708.871 425.68 715.377 423.821C721.884 421.859 728.907 420.877 736.446 420.877C747.91 420.877 756.792 423.408 763.092 428.468C769.392 433.529 772.542 440.19 772.542 448.453C772.542 454.443 771.147 459.658 768.359 464.099C765.57 468.54 760.974 472.826 754.571 476.957C750.027 479.849 746.877 482.173 745.121 483.929C743.469 485.684 742.643 487.75 742.643 490.125V493.998H719.405ZM716.152 520.489C716.152 515.119 717.701 511.349 720.799 509.18C723.898 507.011 727.667 505.927 732.108 505.927C736.343 505.927 740.009 507.011 743.107 509.18C746.206 511.349 747.755 515.119 747.755 520.489C747.755 525.55 746.206 529.216 743.107 531.488C740.009 533.76 736.343 534.896 732.108 534.896C727.667 534.896 723.898 533.76 720.799 531.488C717.701 529.216 716.152 525.55 716.152 520.489Z" fill="#55608A"/>
<g filter="url(#filter2_d)">
<rect x="151.151" y="381.316" width="197.806" height="197.806" rx="23.7368" fill="white"/>
</g>
<path d="M236.757 493.998V487.492C236.757 482.844 237.687 478.816 239.546 475.408C241.508 471.897 245.175 468.437 250.545 465.029C253.953 462.86 256.484 461.001 258.136 459.452C259.788 457.799 260.821 456.302 261.234 454.959C261.751 453.617 262.009 452.274 262.009 450.931C262.009 448.866 261.028 447.213 259.065 445.974C257.206 444.735 254.728 444.115 251.629 444.115C244.09 444.115 235.208 446.8 224.984 452.171L214.449 431.567C220.13 428.262 226.223 425.68 232.73 423.821C239.236 421.859 246.259 420.877 253.798 420.877C265.262 420.877 274.144 423.408 280.444 428.468C286.744 433.529 289.894 440.19 289.894 448.453C289.894 454.443 288.5 459.658 285.711 464.099C282.923 468.54 278.327 472.826 271.924 476.957C267.379 479.849 264.229 482.173 262.474 483.929C260.821 485.684 259.995 487.75 259.995 490.125V493.998H236.757ZM233.504 520.489C233.504 515.119 235.053 511.349 238.152 509.18C241.25 507.011 245.02 505.927 249.461 505.927C253.695 505.927 257.361 507.011 260.46 509.18C263.558 511.349 265.107 515.119 265.107 520.489C265.107 525.55 263.558 529.216 260.46 531.488C257.361 533.76 253.695 534.896 249.461 534.896C245.02 534.896 241.25 533.76 238.152 531.488C235.053 529.216 233.504 525.55 233.504 520.489Z" fill="#55608A"/>
<rect x="631.16" y="610.772" width="197.806" height="197.806" rx="23.7368" fill="#5588FB"/>
<rect x="388.519" y="381.316" width="197.806" height="197.806" rx="23.7368" fill="#04BCCF"/>
<g filter="url(#filter3_d)">
<rect x="388.519" y="151.861" width="197.806" height="197.806" rx="23.7368" fill="white"/>
</g>
<path d="M474.125 264.543V258.036C474.125 253.389 475.055 249.361 476.914 245.953C478.876 242.441 482.542 238.982 487.913 235.573C491.321 233.405 493.851 231.546 495.504 229.996C497.156 228.344 498.189 226.846 498.602 225.504C499.118 224.161 499.377 222.819 499.377 221.476C499.377 219.41 498.395 217.758 496.433 216.519C494.574 215.279 492.095 214.66 488.997 214.66C481.458 214.66 472.576 217.345 462.351 222.715L451.817 202.111C457.497 198.806 463.591 196.224 470.097 194.365C476.604 192.403 483.627 191.422 491.166 191.422C502.63 191.422 511.512 193.952 517.812 199.013C524.112 204.074 527.262 210.735 527.262 218.997C527.262 224.987 525.867 230.203 523.079 234.644C520.29 239.085 515.694 243.371 509.291 247.502C504.747 250.394 501.597 252.717 499.841 254.473C498.189 256.229 497.363 258.294 497.363 260.67V264.543H474.125ZM470.872 291.034C470.872 285.663 472.421 281.893 475.519 279.725C478.618 277.556 482.387 276.471 486.828 276.471C491.063 276.471 494.729 277.556 497.827 279.725C500.926 281.893 502.475 285.663 502.475 291.034C502.475 296.094 500.926 299.761 497.827 302.033C494.729 304.305 491.063 305.441 486.828 305.441C482.387 305.441 478.618 304.305 475.519 302.033C472.421 299.761 470.872 296.094 470.872 291.034Z" fill="#55608A"/>
<rect x="631.16" y="151.861" width="197.806" height="197.806" rx="23.7368" fill="#F4B14C"/>
<defs>
<filter id="filter0_d" x="356.87" y="610.772" width="261.104" height="261.104" filterUnits="userSpaceOnUse" color-interpolation-filters="sRGB">
<feFlood flood-opacity="0" result="BackgroundImageFix"/>
<feColorMatrix in="SourceAlpha" type="matrix" values="0 0 0 0 0 0 0 0 0 0 0 0 0 0 0 0 0 0 127 0"/>
<feOffset dy="31.649"/>
<feGaussianBlur stdDeviation="15.8245"/>
<feColorMatrix type="matrix" values="0 0 0 0 0.803922 0 0 0 0 0.803922 0 0 0 0 0.913725 0 0 0 0.61 0"/>
<feBlend mode="normal" in2="BackgroundImageFix" result="effect1_dropShadow"/>
<feBlend mode="normal" in="SourceGraphic" in2="effect1_dropShadow" result="shape"/>
</filter>
<filter id="filter1_d" x="602.15" y="381.316" width="261.104" height="261.104" filterUnits="userSpaceOnUse" color-interpolation-filters="sRGB">
<feFlood flood-opacity="0" result="BackgroundImageFix"/>
<feColorMatrix in="SourceAlpha" type="matrix" values="0 0 0 0 0 0 0 0 0 0 0 0 0 0 0 0 0 0 127 0"/>
<feOffset dy="31.649"/>
<feGaussianBlur stdDeviation="15.8245"/>
<feColorMatrix type="matrix" values="0 0 0 0 0.803922 0 0 0 0 0.803922 0 0 0 0 0.913725 0 0 0 0.61 0"/>
<feBlend mode="normal" in2="BackgroundImageFix" result="effect1_dropShadow"/>
<feBlend mode="normal" in="SourceGraphic" in2="effect1_dropShadow" result="shape"/>
</filter>
<filter id="filter2_d" x="119.502" y="381.316" width="261.104" height="261.104" filterUnits="userSpaceOnUse" color-interpolation-filters="sRGB">
<feFlood flood-opacity="0" result="BackgroundImageFix"/>
<feColorMatrix in="SourceAlpha" type="matrix" values="0 0 0 0 0 0 0 0 0 0 0 0 0 0 0 0 0 0 127 0"/>
<feOffset dy="31.649"/>
<feGaussianBlur stdDeviation="15.8245"/>
<feColorMatrix type="matrix" values="0 0 0 0 0.803922 0 0 0 0 0.803922 0 0 0 0 0.913725 0 0 0 0.61 0"/>
<feBlend mode="normal" in2="BackgroundImageFix" result="effect1_dropShadow"/>
<feBlend mode="normal" in="SourceGraphic" in2="effect1_dropShadow" result="shape"/>
</filter>
<filter id="filter3_d" x="356.87" y="151.861" width="261.104" height="261.104" filterUnits="userSpaceOnUse" color-interpolation-filters="sRGB">
<feFlood flood-opacity="0" result="BackgroundImageFix"/>
<feColorMatrix in="SourceAlpha" type="matrix" values="0 0 0 0 0 0 0 0 0 0 0 0 0 0 0 0 0 0 127 0"/>
<feOffset dy="31.649"/>
<feGaussianBlur stdDeviation="15.8245"/>
<feColorMatrix type="matrix" values="0 0 0 0 0.803922 0 0 0 0 0.803922 0 0 0 0 0.913725 0 0 0 0.61 0"/>
<feBlend mode="normal" in2="BackgroundImageFix" result="effect1_dropShadow"/>
<feBlend mode="normal" in="SourceGraphic" in2="effect1_dropShadow" result="shape"/>
</filter>
</defs>
</svg>
