<svg xmlns="http://www.w3.org/2000/svg" xmlns:xlink="http://www.w3.org/1999/xlink" viewBox="0 0 829.13 744"><defs><clipPath id="clip-path" transform="translate(14.38)"><polygon points="384.75 6 274.75 31 387.75 51 384.75 6" style="fill:#ffba1f"/></clipPath><clipPath id="clip-path-2" transform="translate(14.38)"><path d="M0,523H770s-59.74,97-131.65,160S140.5,709,116.16,701,23.23,655,0,523Z" style="fill:#4d88ce"/></clipPath></defs><g id="Layer_2" data-name="Layer 2"><g id="boat"><g id="Layer_4" data-name="Layer 4"><polygon points="399.13 6 289.13 31 402.13 51 399.13 6" style="fill:#ffba1f"/><g style="clip-path:url(#clip-path)"><polygon points="394.13 0 345.13 46 413.39 53.49 406.13 0 394.13 0" style="fill:#f78f1e"/></g><rect x="392.88" width="13" height="544" rx="6.5" style="fill:#0e0f16"/><path d="M0,523H770s-59.74,97-131.65,160S140.5,709,116.16,701,23.23,655,0,523Z" transform="translate(14.38)" style="fill:#4d88ce"/><g style="clip-path:url(#clip-path-2)"><rect y="544" width="794.34" height="41" style="fill:#fff;opacity:0.7000000000000001"/><path d="M612.75,498s-150,256-557,191l73,55,531-25,155-221Z" transform="translate(14.38)" style="fill:#0d6099;opacity:0.5"/></g><path d="M391.75,50.74s40,76,40,200-40,247.26-40,247.26h316S700.75,165,391.75,50.74Z" transform="translate(14.38)" style="fill:#bbe5f2"/><path d="M379.25,59.24s-88,217,0,441.26h-300S204.25,225.63,379.25,59.24Z" transform="translate(14.38)" style="fill:#bbe5f2"/></g></g></g></svg>