<svg xmlns="http://www.w3.org/2000/svg" xmlns:xlink="http://www.w3.org/1999/xlink" viewBox="0 0 510.33 731"><defs><clipPath id="clip-path" transform="translate(1.74 17.7)"><path d="M128.08,279.8s-25,11-27,47,29,45,41,47,50-46,50-46Z" style="fill:#0d6099"/></clipPath><clipPath id="clip-path-2" transform="translate(1.74 17.7)"><path d="M103.58,676.3c0-6,2-33,27-36s36,9,41,22,1,42-30,45S103.58,687.3,103.58,676.3Z" style="fill:#4e88cd"/></clipPath><clipPath id="clip-path-3" transform="translate(1.74 17.7)"><path d="M160.58,640.3c-1-7.22-7.5-48.5,28.5-58.5s49,0,59,26-10,67-35,70S164.08,666.8,160.58,640.3Z" style="fill:#0d6099"/></clipPath><clipPath id="clip-path-4" transform="translate(1.74 17.7)"><path d="M93.08,604.8c-.6-9,2-35,29-42s52.55,3.68,54.28,24.84-20.28,45.16-44.28,46.16S94.08,619.8,93.08,604.8Z" style="fill:#0d6099"/></clipPath><clipPath id="clip-path-5" transform="translate(1.74 17.7)"><path d="M135.08,548.8c0-10,6-47,44-56s62,17,58,45-25,47-46,51S135.08,585.8,135.08,548.8Z" style="fill:#4e88cd"/></clipPath><clipPath id="clip-path-6" transform="translate(1.74 17.7)"><path d="M87.08,487.8c-1.9-15.18-8-56,41-73s81,24,75,54-46,57-71,53S89.08,503.8,87.08,487.8Z" style="fill:#0d6099"/></clipPath><clipPath id="clip-path-7" transform="translate(1.74 17.7)"><path d="M236.08,494.8c-3.65-12.52-4-49,32-56s56,11,60,33,10,60-17,69S250.08,542.8,236.08,494.8Z" style="fill:#0d6099"/></clipPath><clipPath id="clip-path-8" transform="translate(1.74 17.7)"><path d="M186.08,326.8c-14,5-52,22-55,55s-3,57,25,68,66,16,92-14,27-67,27-67l-63-51Z" style="fill:#4e88cd"/></clipPath><clipPath id="clip-path-9" transform="translate(1.74 17.7)"><path d="M292.08,358.8c6.65-2.79,27-14,52,2s32,40,12,73-69,17-81-4S261.08,371.8,292.08,358.8Z" style="fill:#4e88cd"/></clipPath><clipPath id="clip-path-10" transform="translate(1.74 17.7)"><path d="M214.08,336.8c-5.9-12.62-11-52,15-71s62-25,85,2,25,62,0,88S236.08,383.8,214.08,336.8Z" style="fill:#0d6099"/></clipPath><clipPath id="clip-path-11" transform="translate(1.74 17.7)"><path d="M247.08,259.8s-21-32-62-36-62,26-65,49,19,70,96,55S247.08,259.8,247.08,259.8Z" style="fill:#4e88cd"/></clipPath><clipPath id="clip-path-12" transform="translate(1.74 17.7)"><path d="M294.77,194.49s21.88-50.61,58.81-86.17c0,0-90.27-62.92-91.64-88.91s17.78-15,21.88-6.84S428.81,137,476.69,149.35s19.58,23.72,13.21,27.59-118.54-57.68-118.54-57.68-40.15,23.34-61.11,87.58Z" style="fill:#35a31a"/></clipPath><clipPath id="clip-path-13" transform="translate(1.74 17.7)"><path d="M206.08,178.8s-1,63,49,78,57.63-20.56,63.5-34.5c8-19-12.95-69.22-61-75,0,0-38.5-1.5-38.5-.5S206.08,178.8,206.08,178.8Z" style="fill:#4e88cd"/></clipPath><clipPath id="clip-path-14" transform="translate(1.74 17.7)"><path d="M248.26,89.17s61.55-21.89,105.32,19.15v12.31s-31.46-35.57-112.16-6.84C241.42,113.79,231.85,98.74,248.26,89.17Z" style="fill:#35a31a"/></clipPath><clipPath id="clip-path-15" transform="translate(1.74 17.7)"><path d="M0,107.63s24.62-6.84,53.35-31.46,62.91-20.51,62.91-20.51-12.31-16.42-26-15c0,0-9.58-8.21,43.77-9.57,0,0,4.1-9.58-9.58-8.21,0,0,41-31.46,91.65-20.52s68.39,43.77,52,71.13-27.35,31.46-12.31,42.4,23.26,47.87,0,67-49.24,52-146.35,24.62c0,0,25.3-17.09,28-28,0,0-46.51-2.73-68.4-16.41,0,0,19.15-4.1,26-10.94,0,0-30.09-8.21-50.61-23.25S0,107.63,0,107.63Z" style="fill:#35a31a"/></clipPath><clipPath id="clip-path-16" transform="translate(1.74 17.7)"><path d="M414.17,466.34s3.85-25.26,24.88-56.71,12.88-64.91,12.88-64.91,17.76,10.26,18,24c0,0,9.29,8.53,4.3-44.6,0,0,9-5.22,9.29,8.53,0,0,26.35-44.49,9.46-93.44s-51.61-62.69-76.81-43.13-28,30.9-40.64,17.27-50.3-17.39-66.54,8-45.75,55.08-7,148.24c0,0,14-27.16,24.5-31.18,0,0,8.25,45.85,24.44,66,0,0,1.79-19.5,7.77-27.1,0,0,11.73,28.9,29.11,47.48S414.17,466.34,414.17,466.34Z" style="fill:#35a31a"/></clipPath><clipPath id="clip-path-17" transform="translate(1.74 17.7)"><path d="M402.94,217.65s14.4-63.72-31.55-102.29l-12.23,1.46s39.06,27,20.15,110.55C379.31,227.37,395.39,235.09,402.94,217.65Z" style="fill:#35a31a"/></clipPath></defs><g id="Layer_2" data-name="Layer 2"><g id="grapes"><g id="Layer_4" data-name="Layer 4"><path d="M138.08,200.8s-23-1-29,27,23,35,23,35l31-34Z" transform="translate(1.74 17.7)" style="fill:#2874bf"/><path d="M209.58,262.3s-11.2-28.73,24.9-38.87,73.1-15.13,98.1-2.13,86,97,74,131-30,67-61,70S173.58,336.3,209.58,262.3Z" transform="translate(1.74 17.7)" style="fill:#0d6099"/><path d="M176.58,522.3s70,19,94-23,33-82,33-82l-42.87-43.25L197.58,420.3Z" transform="translate(1.74 17.7)" style="fill:#035684"/><path d="M293.08,267.8s8-14,31-15,60,5,72,24-38,73-38,73-40,2-59-21S293.08,267.8,293.08,267.8Z" transform="translate(1.74 17.7)" style="fill:#2874bf"/><path d="M395.08,385.8c5,4,17,5,15,35s-43,33-61,16l4-59,17-12Z" transform="translate(1.74 17.7)" style="fill:#63a2e0"/><path d="M128.08,279.8s-25,11-27,47,29,45,41,47,50-46,50-46Z" transform="translate(1.74 17.7)" style="fill:#0d6099"/><g style="clip-path:url(#clip-path)"><path d="M116.58,283.3s3,31,16,47-10,44-10,44l32,5,32-12,10.53-36.61L186.58,314.3,137,286.49Z" transform="translate(1.74 17.7)" style="fill:#004e7a"/></g><path d="M156.08,233.8s-46-32-10-74,99,29,99,29l-16,66Z" transform="translate(1.74 17.7)" style="fill:#0d6099"/><path d="M103.58,676.3c0-6,2-33,27-36s36,9,41,22,1,42-30,45S103.58,687.3,103.58,676.3Z" transform="translate(1.74 17.7)" style="fill:#4e88cd"/><g style="clip-path:url(#clip-path-2)"><path d="M149.5,639.11s13.08,12.19,8.08,39.19-44.51,24.22-44.51,24.22l21.51,10.78,31-1,18-23v-29l-13-20-21.08-1.19" transform="translate(1.74 17.7)" style="fill:#0d6099;opacity:0.5"/></g><path d="M160.58,640.3c-1-7.22-7.5-48.5,28.5-58.5s49,0,59,26-10,67-35,70S164.08,666.8,160.58,640.3Z" transform="translate(1.74 17.7)" style="fill:#0d6099"/><g style="clip-path:url(#clip-path-3)"><path d="M237.58,583.3s17,45-12,65-65,1-70-11l11,29,13,19,35,3,26-8,14-26,7-31-8-23Z" transform="translate(1.74 17.7)" style="fill:#004e7a"/></g><path d="M93.08,604.8c-.6-9,2-35,29-42s52.55,3.68,54.28,24.84-20.28,45.16-44.28,46.16S94.08,619.8,93.08,604.8Z" transform="translate(1.74 17.7)" style="fill:#0d6099"/><g style="clip-path:url(#clip-path-4)"><path d="M155.58,578.3s3,39-24,41-41-1-43-30l7,39,19,12,33.32-.47,25.68-11.53,3-26V578Z" transform="translate(1.74 17.7)" style="fill:#004e7a"/></g><path d="M135.08,548.8c0-10,6-47,44-56s62,17,58,45-25,47-46,51S135.08,585.8,135.08,548.8Z" transform="translate(1.74 17.7)" style="fill:#4e88cd"/><g style="clip-path:url(#clip-path-5)"><path d="M213.58,490.3s27,32,1,68-85,8-85,8l17,26,56,9,25.75-20,19.25-37-2.5-28-24.5-29Z" transform="translate(1.74 17.7)" style="fill:#0d6099;opacity:0.5"/></g><path d="M87.08,487.8c-1.9-15.18-8-56,41-73s81,24,75,54-46,57-71,53S89.08,503.8,87.08,487.8Z" transform="translate(1.74 17.7)" style="fill:#0d6099"/><g style="clip-path:url(#clip-path-6)"><path d="M179.58,437.3s-3,114-96,59l20,26,24,9,37-5,28-18,14-20,8-26-3-25Z" transform="translate(1.74 17.7)" style="fill:#004e7a"/></g><path d="M236.08,494.8c-3.65-12.52-4-49,32-56s56,11,60,33,10,60-17,69S250.08,542.8,236.08,494.8Z" transform="translate(1.74 17.7)" style="fill:#0d6099"/><g style="clip-path:url(#clip-path-7)"><path d="M300.39,441.27s33.19,50.65,17.19,75c-21,32-61,19-61,19l32,18,29-5,19-14,7-32-5-44-15-23-23.19,6" transform="translate(1.74 17.7)" style="fill:#004e7a"/></g><path d="M186.08,326.8c-14,5-52,22-55,55s-3,57,25,68,66,16,92-14,27-67,27-67l-63-51Z" transform="translate(1.74 17.7)" style="fill:#4e88cd"/><g style="clip-path:url(#clip-path-8)"><path d="M242.58,352.3s9,157-120,74l19,32,51,14,44.94-8.42,26.06-29.58,25-51-2-27Z" transform="translate(1.74 17.7)" style="fill:#0d6099;opacity:0.5"/></g><path d="M292.08,358.8c6.65-2.79,27-14,52,2s32,40,12,73-69,17-81-4S261.08,371.8,292.08,358.8Z" transform="translate(1.74 17.7)" style="fill:#4e88cd"/><g style="clip-path:url(#clip-path-9)"><path d="M338.69,357.71s20.89,19.59,7.89,56.59-57.31,34.14-77.15,8.07h0l8.15,27.93,40,19,31-8,19-24,8-40-11-27-21-18-4.89,5.41" transform="translate(1.74 17.7)" style="fill:#0d6099;opacity:0.5"/></g><path d="M330.08,350.8c3.57,9.17,10,27,34,35s60-3,72-23,25-63-20-88-76,11-82,21S323.08,332.8,330.08,350.8Z" transform="translate(1.74 17.7)" style="fill:#0d6099"/><path d="M214.08,336.8c-5.9-12.62-11-52,15-71s62-25,85,2,25,62,0,88S236.08,383.8,214.08,336.8Z" transform="translate(1.74 17.7)" style="fill:#0d6099"/><g style="clip-path:url(#clip-path-10)"><path d="M278.58,255.3s29,71,12,95-79,0-79,0l26,29,48,6,31-11,15-30-8.95-64.5-24.79-27.11Z" transform="translate(1.74 17.7)" style="fill:#004e7a"/></g><path d="M247.08,259.8s-21-32-62-36-62,26-65,49,19,70,96,55S247.08,259.8,247.08,259.8Z" transform="translate(1.74 17.7)" style="fill:#4e88cd"/><g style="clip-path:url(#clip-path-11)"><path d="M217.51,231.79s19.07,26.51,12.07,56.51-48,45-78,39l48,21,64-18,16-41-31-42-31.07-15.51" transform="translate(1.74 17.7)" style="fill:#0d6099;opacity:0.5"/></g><path d="M324.08,259.8c-3.39-7.91-16-29,2-57s49-42,69-20,25,48,1,72S330.08,273.8,324.08,259.8Z" transform="translate(1.74 17.7)" style="fill:#0d6099"/><path d="M294.77,194.49s21.88-50.61,58.81-86.17c0,0-90.27-62.92-91.64-88.91s17.78-15,21.88-6.84S428.81,137,476.69,149.35s19.58,23.72,13.21,27.59-118.54-57.68-118.54-57.68-40.15,23.34-61.11,87.58Z" transform="translate(1.74 17.7)" style="fill:#35a31a"/><g style="clip-path:url(#clip-path-12)"><path d="M303.25,69.36s54.33,29.94,61.33,37.94,0,37,0,37l-47.95,56.35L305.58,185.3s49-70,48-76-21-10-21-10l-27-16-2.33-13.94" transform="translate(1.74 17.7)" style="fill:#176800;opacity:0.5"/><polygon points="363.33 86 430.33 171 492.33 199 505.33 192 510.33 181 505.33 168 363.33 86" style="fill:#176800;opacity:0.5"/></g><path d="M206.08,178.8s-1,63,49,78,57.63-20.56,63.5-34.5c8-19-12.95-69.22-61-75,0,0-38.5-1.5-38.5-.5S206.08,178.8,206.08,178.8Z" transform="translate(1.74 17.7)" style="fill:#4e88cd"/><g style="clip-path:url(#clip-path-13)"><path d="M277.58,142.3s15.87,43-64.06,89.49L202.58,203.3l25-41Z" transform="translate(1.74 17.7)" style="fill:#0d6099;opacity:0.5"/><path d="M323.58,196.3s-36,6-42,73l20,2,22-19,13-29-4-25Z" transform="translate(1.74 17.7)" style="fill:#0d6099;opacity:0.5"/></g><path d="M248.26,89.17s61.55-21.89,105.32,19.15v12.31s-31.46-35.57-112.16-6.84C241.42,113.79,231.85,98.74,248.26,89.17Z" transform="translate(1.74 17.7)" style="fill:#35a31a"/><g style="clip-path:url(#clip-path-14)"><path d="M272.58,80.3s46,2,61,35l20,12,9-18-9-12-51-20Z" transform="translate(1.74 17.7)" style="fill:#176800;opacity:0.5"/></g><path d="M0,107.63s24.62-6.84,53.35-31.46,62.91-20.51,62.91-20.51-12.31-16.42-26-15c0,0-9.58-8.21,43.77-9.57,0,0,4.1-9.58-9.58-8.21,0,0,41-31.46,91.65-20.52s68.39,43.77,52,71.13-27.35,31.46-12.31,42.4,23.26,47.87,0,67-49.24,52-146.35,24.62c0,0,25.3-17.09,28-28,0,0-46.51-2.73-68.4-16.41,0,0,19.15-4.1,26-10.94,0,0-30.09-8.21-50.61-23.25S0,107.63,0,107.63Z" transform="translate(1.74 17.7)" style="fill:#35a31a"/><g style="clip-path:url(#clip-path-15)"><path d="M40.17,158.5c3.43-3.83,6.84-7.62,10-11.71,1.57-2.06-1.65-4.1-3.39-2.62-3.76,3.22-7.2,6.72-10.69,10.22-2.66,2.66,1.62,6.89,4.11,4.11Z" transform="translate(1.74 17.7)" style="fill:#35a31a"/><path d="M-.69,107.93c18.73.95,38.1-2.16,56.26-6.57,18.94-4.59,36.74-12.14,55-18.86,17.39-6.4,35-11.11,53.6-11a137.7,137.7,0,0,1,77.34,24.07c6.7,4.53,15,10.53,23.52,8.32,1.34-.35,1.47-2.58,0-2.85-9.07-1.65-15.61-5.89-23.21-10.86a133.82,133.82,0,0,0-21.61-11.47,137.51,137.51,0,0,0-49.44-10.52,151,151,0,0,0-50.69,7.77C102,81.8,84.76,89.83,66.56,95.24,44.45,101.8,22.19,104-.69,105.75a1.09,1.09,0,0,0,0,2.18Z" transform="translate(1.74 17.7)" style="fill:#327c01"/><path d="M134.5,30.52c8,6.21,16.74,11.3,24.39,17.92a140.1,140.1,0,0,1,20.1,22c.42.56,1.34.07,1-.57a89.11,89.11,0,0,0-18.8-22.56c-8-7-17.29-11.71-26.14-17.49-.4-.26-.9.36-.52.66Z" transform="translate(1.74 17.7)" style="fill:#327c01"/><path d="M98.32,151.37a5.21,5.21,0,0,0,1.22-.26,2.24,2.24,0,0,0,.86-.76c0-.07-.07-.14-.12-.07-.34.56-1.25,1.28-2,1-.06,0-.07.08,0,.07Z" transform="translate(1.74 17.7)" style="fill:#327c01"/><path d="M94.33,153.74a53.26,53.26,0,0,0,18.46-7.66.42.42,0,0,0-.42-.73,135.31,135.31,0,0,1-18.32,7.37.53.53,0,0,0,.28,1Z" transform="translate(1.74 17.7)" style="fill:#327c01"/><path d="M123.88,137.28a65.07,65.07,0,0,0,22.8-27.68c5.09-11.49,9-26.85,7.24-39.49-.22-1.56-2.85-1.52-3.12,0-1.14,6.43-.87,13.1-1.89,19.57a92.72,92.72,0,0,1-4.67,18,65.39,65.39,0,0,1-20.7,29.12c-.25.2.08.62.34.44Z" transform="translate(1.74 17.7)" style="fill:#327c01"/><path d="M140.58,179.18a142.82,142.82,0,0,0,53-40.48A137.46,137.46,0,0,0,211,111a115.86,115.86,0,0,0,5.78-14.81c1.59-5.07,3.65-10.83,3.62-16.18a1.27,1.27,0,0,0-2.48-.34c-2,5-2.68,10.54-4.35,15.63a151.38,151.38,0,0,1-6,15.4,139.38,139.38,0,0,1-16.33,27.12,127.12,127.12,0,0,1-51.4,40.09c-.87.38-.12,1.65.75,1.28Z" transform="translate(1.74 17.7)" style="fill:#327c01"/><path d="M108.58,12.3s60.76-25,101,47c38,68-96,134-96,134l-28,20,59,18,100-8,38-83-7.5-57s12.5-46,13.5-49-38-44-38-44l-58-8-37,5Z" transform="translate(1.74 17.7)" style="fill:#176800;opacity:0.5"/></g><path d="M414.17,466.34s3.85-25.26,24.88-56.71,12.88-64.91,12.88-64.91,17.76,10.26,18,24c0,0,9.29,8.53,4.3-44.6,0,0,9-5.22,9.29,8.53,0,0,26.35-44.49,9.46-93.44s-51.61-62.69-76.81-43.13-28,30.9-40.64,17.27-50.3-17.39-66.54,8-45.75,55.08-7,148.24c0,0,14-27.16,24.5-31.18,0,0,8.25,45.85,24.44,66,0,0,1.79-19.5,7.77-27.1,0,0,11.73,28.9,29.11,47.48S414.17,466.34,414.17,466.34Z" transform="translate(1.74 17.7)" style="fill:#35a31a"/><g style="clip-path:url(#clip-path-16)"><path d="M363.22,436.37c3.19-4.06,6.4-8.05,9.26-12.34,1.39-2.08-1.66-4.29-3.38-2.62-3.54,3.44-6.74,7.14-10,10.85-2.5,2.84,1.83,7,4.11,4.11Z" transform="translate(1.74 17.7)" style="fill:#35a31a"/><path d="M416.13,466.94c-.89-20.54-1.59-40.66,1.31-61.11,2.79-19.73,8.8-38.69,13-58.12,7.18-33,4.58-67.09-10.62-97.58a132.39,132.39,0,0,0-14.73-23c-2.93-3.7-6.15-7.16-9.07-10.88a39.58,39.58,0,0,1-6.78-13.6c-.38-1.26-2.64-1.54-2.85,0-.92,6.86,3.09,13,7.28,18.14,5.46,6.71,11.14,13.06,15.83,20.37A140.34,140.34,0,0,1,429,289.29c3.66,18.4,2.84,36.53-.92,54.85-4,19.44-10.14,38.36-13.15,58-3.26,21.23-4.58,43.8-.93,65.06.21,1.22,2.19.93,2.14-.28Z" transform="translate(1.74 17.7)" style="fill:#327c01"/><path d="M475.27,323c-6.94-8.27-12.8-17.06-20.95-24.3a89.73,89.73,0,0,0-24.06-15.48c-.65-.28-1.22.6-.57,1a141,141,0,0,1,24.23,17.27c7.51,6.83,13.62,14.94,20.76,22.14.39.39.94-.19.59-.6Z" transform="translate(1.74 17.7)" style="fill:#327c01"/><path d="M359.1,373.92c-.33-.69.27-1.66.79-2.07.07-.06,0-.16-.1-.1a2.26,2.26,0,0,0-.64.94,4.41,4.41,0,0,0-.11,1.25c0,.05.09,0,.06,0Z" transform="translate(1.74 17.7)" style="fill:#327c01"/><path d="M358.18,378.4a138.32,138.32,0,0,1,5.18-19.19.42.42,0,0,0-.77-.32,53.78,53.78,0,0,0-5.44,19.37c-.07.58.93.72,1,.14Z" transform="translate(1.74 17.7)" style="fill:#327c01"/><path d="M370.48,347.13c6.24-10.29,15.32-18.14,25.91-23.73a90.4,90.4,0,0,1,17.66-7c6.31-1.78,13-2.31,19.23-4.21a1.63,1.63,0,0,0-.43-3.18c-6.54-.15-13.58,1.93-19.77,3.88a85.36,85.36,0,0,0-18.85,8.34A65.05,65.05,0,0,0,370,346.84a.29.29,0,0,0,.49.29Z" transform="translate(1.74 17.7)" style="fill:#327c01"/><path d="M327.78,335.77A127.1,127.1,0,0,1,361.55,280a137.56,137.56,0,0,1,25.65-19.79,154.65,154.65,0,0,1,14.17-7.51c4.79-2.23,10.18-3.55,14.78-6.07,1-.57.64-2.51-.64-2.36-4.95.57-9.94,3-14.49,5a115.82,115.82,0,0,0-15.47,8.15,137.11,137.11,0,0,0-25.7,20.91,143.36,143.36,0,0,0-33.49,57.12c-.28.91,1.15,1.3,1.42.39Z" transform="translate(1.74 17.7)" style="fill:#327c01"/><path d="M387.58,211.3s30.8,27.53,40.4,65.76,3.6,65.24-9.4,111.24-2,97-2,97l82-147,5-76-31-75-60-2Z" transform="translate(1.74 17.7)" style="fill:#176800;opacity:0.5"/></g><path d="M402.94,217.65s14.4-63.72-31.55-102.29l-12.23,1.46s39.06,27,20.15,110.55C379.31,227.37,395.39,235.09,402.94,217.65Z" transform="translate(1.74 17.7)" style="fill:#35a31a"/><g style="clip-path:url(#clip-path-17)"><path d="M369.58,135.3s31.57,11.32,30.79,89.66h0l12.21-6.66-4-35-26-74h-13l-16,6Z" transform="translate(1.74 17.7)" style="fill:#176800;opacity:0.5"/></g><path d="M159.58,402.27A59.29,59.29,0,0,1,170,375.5c2.91-4,6.76-8.52,11.26-10.71,7-3.41,10.9,3.49,10.29,9.67-1,9.5-7.73,19.37-15.2,25a27.27,27.27,0,0,1-11.66,5.42c-8,1.25-7.69-6.62-6.1-12.25,2.59-9.17,8.18-21.3,16.87-26.23,3.61-2,8.23-2.7,9,2.34.66,4.3-1.36,9.06-3.43,12.7a31.8,31.8,0,0,1-13.83,13.09A26.92,26.92,0,0,1,163.7,396l-1.39.43c-1.55.36-1.82.43-.83.2,0-.09,2.39-5,2.81-5.84a39.55,39.55,0,0,1,3.2-5.19,42.22,42.22,0,0,1,10.91-10.5q1.28-.84,2.61-1.59c.66-.38,1.33-.74,2-1.08,1.63,0,1.88-.38.74-1.21-1.15-2-1.25.63-1.71,1.62a45.32,45.32,0,0,1-2.3,4.22,46.14,46.14,0,0,1-10.86,12.31c-.83.65-1.82,1.16-2.6,1.84a5.27,5.27,0,0,1-1.71.76c1,1.3,1.49,1.31,1.4,0,.53-.55.69-2.45,1.13-3.31a26.36,26.36,0,0,1,2.78-4.15,51.12,51.12,0,0,1,5.77-6.18c1.21-1.1,4.66-4.78,6.31-4.8l-3.23-1.34c-.62-1.09-1-.71-1.21,1.15-.45.93-.93,1.83-1.46,2.72a30.12,30.12,0,0,1-3.87,5.18c-1.49,1.61-6.88,7.16-9,6.51l3.52,6.2a25.55,25.55,0,0,1,5-8,22.63,22.63,0,0,1,3.65-3.12c.51-.35,3.23-1.42,2.2-1.74l-3.22-3.21.21.93.47-3.55c-2.34,5.37-6.9,11.72-12.69,13.53l6.46,3.66a1.78,1.78,0,0,1,.21-2.12c2.19-5.29-5.61-7.34-8.48-3.57a10,10,0,0,0-2,7.09c.26,3.05,3.19,6.4,6.64,5.06C170.93,396.73,175,393,178.5,388c2.44-3.53,7.74-10.42,3.6-14.56s-10.51.41-13.94,3A32.9,32.9,0,0,0,157,391.29c-1,2.56,1.09,5.53,3.53,6.21,12.78,3.56,37.08-28.56,22.63-32.92-4.11-1.24-8.34,2.56-11.3,4.84a57.59,57.59,0,0,0-10.22,10.06c-4.41,5.62-10.18,18.1-.43,22,7.91,3.14,16.62-5.86,21.17-11.23,4.37-5.14,13.19-16.51,9.08-23.67-4.74-8.25-15.84-.93-20.81,2.87a53.2,53.2,0,0,0-16.25,20.89c-3.13,7.15-2.12,16.74,7.86,16,8-.62,16.45-6.72,21.61-12.58,5.38-6.09,9.64-14.13,10-22.39.32-7.59-3.86-15.35-12.17-15.76-9.15-.46-16.5,6.3-21.57,13.15-5.86,7.91-11,18.15-12,28.07-.86,9,4.6,17.69,14.25,17.93,8.46.2,16.94-5.4,22.69-11.17a48.91,48.91,0,0,0,13.64-26.28c1.32-8.47-2.09-19.11-11.82-20.41-10-1.34-18.31,8.51-23.41,15.78a55.67,55.67,0,0,0-10,28.83c-.21,3.42,5.58,4.3,6.07.82Z" transform="translate(1.74 17.7)" style="fill:#63a2e0"/><path d="M137.66,276.45c3.18-7.83,7.49-16.46,14.57-21.46a24.39,24.39,0,0,1,4.88-2.61c.72-.29,4.54-1.89,5.13-1.59,2.39,1.23,1.13,8.09.58,10-2.29,7.77-9.25,12.36-16.11,15.8-3.32,1.67-9.07,5.84-10.81.74-1.23-3.62,2.14-7.93,4.2-10.56,4.33-5.58,9.5-11.17,15.94-14.29.79-.38,3.68-2,4.75-1.73,2.38.63-.21,3.89-1.13,5.51a45.46,45.46,0,0,1-6.07,8.27,43,43,0,0,1-7.74,6.71c-1.74,1.16-4,1.91-5.61,3.15l1.51.2c.53-.89,1.09-1.77,1.68-2.63a59,59,0,0,1,8-9.43c2.17-2.09,6.86-7.76,10.14-6.46l-2.54-2c.06.12-2.9,4.2-3.2,4.59a34.74,34.74,0,0,1-4.28,4.71c-2.78,2.57-6.61,5.57-10.39,6.35l3.71.49-.71-.48,2.21,2.88c.35,1.56.92-1,1.47-1.82a35.86,35.86,0,0,1,3.32-4.51,14.65,14.65,0,0,1,8.29-5.2l-5.17-6.73a15.16,15.16,0,0,1-9.24,7.17l6.15,6.14a48,48,0,0,1,3.34-6.74c1.5-2.72-1-5.37-3.76-4.89-5,.85-7.77,4.25-9.21,9-1.07,3.49,2.54,7.39,6.14,6.14A25.07,25.07,0,0,0,162.2,259a4.63,4.63,0,0,0-5.17-6.72c-6.49,1.57-11.29,5.53-15.28,10.76-3,3.94-8.18,11-2.45,15,4.8,3.39,11.69-2.23,15.37-5.2,5-4,9.63-9.46,12-15.47,2.28-5.79-1.21-11.37-7.83-10-6.25,1.31-12.12,7.73-16.24,12.2-3.82,4.14-10.47,10.27-10.11,16.46s6.33,8.34,11.51,6.29c11.22-4.45,23.37-16.66,25.87-28.76,1.14-5.55-2.2-11.23-8.24-11s-12.06,4.48-16.52,8.09c-8.48,6.87-21.54,20.12-16,32.18,2.9,6.28,8.78,6.86,14.56,4.24,6.27-2.84,12.55-6.06,17.71-10.68s8.94-11.18,9.37-18.27c.3-4.94-1.41-13.77-7.68-13.94-6.82-.18-14.27,5-19,9.42-6.23,5.79-9.95,13.18-12.64,21.12-1.37,4,4.71,5.48,6.23,1.72Z" transform="translate(1.74 17.7)" style="fill:#63a2e0"/><path d="M290.19,403A25.61,25.61,0,0,1,296,392.54a24.89,24.89,0,0,1,3.38-3.11c1.39-1.05,4.08-1.74,5.19-2.91q2.94-.47-.54-1.47a37.69,37.69,0,0,1-1.35,3.64,38.81,38.81,0,0,1-2.28,4.33c-1.86,3.05-5.8,9.53-10,9.05l3.65,2.09c-2.91-3.83-1-9,1.86-12.22a22,22,0,0,1,4.39-3.73c.34-.23,4.64-2.72,4.2-3L302.73,383c.93,2.9-3.59,9-5.18,11.13-1.88,2.48-6.52,8.11-10.05,7.85l3.22,1.33c-1.16-1.06,1-6.88,1.92-8.59,1.62-2.95,4.47-6.19,7.91-6.91l-3.33-.43.78.59-2-2.58c.31,1.8-2.58,5.56-3.7,7.09a26.8,26.8,0,0,1-7.19,6.61l7.35,4.22a16.3,16.3,0,0,1,1.45-8.29,13.74,13.74,0,0,1,2.49-3.51c1.11-1.15,3.09-1.29,1.17-2.51l-2.16-2.81q.26-2.31-.58.82a21.62,21.62,0,0,1-1.49,2.71,18.26,18.26,0,0,1-4.68,4.8,5.09,5.09,0,1,0,6.19,8,27.27,27.27,0,0,0,9.45-14.06c1.15-4.29-.75-9.08-5.94-8.69-10.24.78-16.58,14.64-15.67,23.51.33,3.29,4,6.59,7.35,4.21,6.48-4.64,14.88-13.46,14.67-22.17-.26-11.36-13.5-3.14-17.16,1.14-4.37,5.13-9.37,16.47-4.1,22.56,6.07,7,16.79-4.29,20.34-9,3.27-4.31,10.41-16.26,5-21.1-5.66-5-17.16,5.15-20.39,9.41-3.87,5.09-7.7,19,.9,22s16.67-10.14,19.56-16.21c1.72-3.62,4.59-9.19,2.24-13.15-2.22-3.75-6.51-2.73-9.8-1.35a29.36,29.36,0,0,0-17.5,21.52c-.83,4.16,5.22,5.93,6.41,1.77Z" transform="translate(1.74 17.7)" style="fill:#63a2e0"/><path d="M152.63,549a20.79,20.79,0,0,1,1.89-7,57.11,57.11,0,0,1,3.93-5.22c.2.61-1.37,3.92-1.66,4.63a33.59,33.59,0,0,1-3,5.65,24.44,24.44,0,0,1-1.95,2.68q-3.17,2.61,3.19,1.94c.88-.65,1.61-4.2,2.31-5.32a25.22,25.22,0,0,1,6.09-6.48c1.45-.72,1.59-.94.42-.67l-2.67-2.06.39.67-.45-3.46c-.8,4.25-3.86,8.56-6.51,11.89-1.33,1.67-2.08,1.35.27,2.85,2.75,1.76,1.72.38,2.53-1.67s2.21-4.85,4.32-5.91h-4.82l.74.38-2.2-2.86c.64,2.08-4.08,6.61-4.67,8.79a4.37,4.37,0,0,0,5.31,5.31c5.92-1.35,10.86-11,8.62-16.66-3.7-9.36-12.79.59-15.33,5.22-2.78,5.07-5.2,15.12,3,16.6,7.75,1.39,13-9.42,15.36-15.18,1.15-2.72,3-6.34,1.83-9.3s-4.52-4.11-7.5-3.26c-6.27,1.79-11.85,9.4-14.58,14.92-1.45,2.9-3,6.34-2.09,9.64a7.46,7.46,0,0,0,7.24,5.53c7.16-.38,11.67-11.78,13.43-17.47,1.15-3.72,2.15-8.29-.27-11.72a8.12,8.12,0,0,0-8.74-2.81c-8,2.2-10.72,13.26-10.71,20.39,0,4.12,5.89,4,6.28,0Z" transform="translate(1.74 17.7)" style="fill:#63a2e0"/><path d="M105.54,473.47a34.17,34.17,0,0,1,4.56-12.65c1.63-2.61,6.48-8.44,8.56-8.51l-2.86-1.18c-.35-.29-.59,3.12-.69,3.61a36.84,36.84,0,0,1-1.32,4.92,43.28,43.28,0,0,1-4.34,8.92c-.89,1.45-1.8,3.28-3.14,4.36-1.65,1.34-1.7,1.25-1.48-.69.35-3.09,2.51-6.57,3.86-9.33a41.18,41.18,0,0,1,2.4-4.31c.68-1.05,2.68-2.64,2.82-3.66,1-.73.68-1.26-1.1-1.57l-.08,1.62c-.42,1.66-.43,3.46-.86,5.15-1.55,6.12-4.77,12.82-9.85,16.77l3.51-1.46-1.11.14,3.5,1.45c-3.51-3.5-1.39-11.54,0-15.47a31.54,31.54,0,0,1,3.43-6.72c.64-.95,5.1-5.47,4.13-6.15L113.46,446c1.12,4.61-.58,10.43-2.13,14.77a35,35,0,0,1-3.73,7.41,27.6,27.6,0,0,1-2.07,2.85c-1.07,1.26-3,1.73-.88,2.69s1.08-.13,1-1.62a19.9,19.9,0,0,1,.15-3.7,23.55,23.55,0,0,1,1.84-6.27c1.64-3.63,5.07-8.71,9.15-9.93l-3.73-.48.6.37-2.23-2.9c.72,2.25-2.32,7.67-3.25,9.46a34.22,34.22,0,0,1-2.56,4.23,17,17,0,0,1-1.71,2.17q-3,2.57,1.84.36L109,468c.63,1.18-.11.79.47-.31a36.24,36.24,0,0,0,1.25-4.07,35.86,35.86,0,0,1,3.77-7L105.15,454a21,21,0,0,1-4.21,9.68c-3.2,4.39,4.23,10.19,7.58,5.85a31.15,31.15,0,0,0,6.51-14.2c1-5.74-5.74-8.5-9.19-3.87-3.82,5.11-9.87,14.63-6.66,21.22a6.71,6.71,0,0,0,7.38,3.59c3.53-.75,5.92-4.51,7.82-7.28,3.72-5.41,7.88-14.14,6.79-20.92-1.37-8.57-9.85-4.29-13.92-.72a34.07,34.07,0,0,0-10.63,17.83c-1.23,5.62-2.12,14.84,4.48,17.46,7.12,2.82,12.87-5.58,15.88-10.78a43.48,43.48,0,0,0,5.91-22.28c0-3.06-.15-6.64-2.85-8.58s-5.94-1-8.48.68c-6,4.06-10.28,11.56-12.58,18.25-2.26,6.54-3.49,15-.11,21.38,4.57,8.64,11.79,1.77,15.53-3.48a41,41,0,0,0,7.33-22c.24-6-3.15-13.36-10.37-9.82-6.42,3.14-10.25,12.44-13,18.54-2.55,5.74-5.08,13.14,1,17.71,14.24,10.73,27.22-23.5,24.41-33.57-2.55-9.11-11.77-1.47-15.26,2.28a33.68,33.68,0,0,0-9.16,21.69c-.16,3.47,5.59,4.37,6.17.84Z" transform="translate(1.74 17.7)" style="fill:#2874bf"/><path d="M259.42,492.52a31.52,31.52,0,0,1,3.83-20.21c.73-1.23,1.82-3.66,3.18-4.35q1.17-2.2,2.68.21l.08,1.49c.67,2.72-.11,6.81-.61,9.48a29.92,29.92,0,0,1-3,8.76,22.64,22.64,0,0,1-2.65,3.94,28.88,28.88,0,0,1-2.05,2.09l1.38-.61c-3.71-5.28-5.41-11.43-3.68-17.82.68-2.51,2.41-7.41,5.57-6.65,4.11,1,2.26,8,1.39,10.73-.32,1-3.75,8.82-4.71,8.65.13,0-.59-2.07-.74-3.1a16.83,16.83,0,0,1,3-12.2,9.56,9.56,0,0,1,1.4-1.65q2.58-2,1.43-.94c.08.07-.55,3.25-.66,3.74a27.48,27.48,0,0,1-3.42,8.4,24.78,24.78,0,0,1-2.77,3.68,21.67,21.67,0,0,1-1.58,1.6c-1.33.94-1.55,1.22-.67.85l4.73,2.71c-2.5-4.76.75-9.91,1.63-14.38l.79-1.4-4.25-2.45c-.11.06-.27,2.44-.35,2.75a11.4,11.4,0,0,1-3.9,5.77l9.55,3.95a10.11,10.11,0,0,1,2-5.82l-8.7-6.71c-1.3,2.21-3,4.43-3.73,6.9a5.48,5.48,0,0,0,2.49,6.12l.27.15c1.55.84,3.93,1.16,5.45,0l.29-.22c2.74-2.07,3.76-5.76,1.1-8.47l-.13-.12c-4.87-4.95-12.5,2.67-7.62,7.62l.12.13,1.09-8.47-.3.19h5.45l-.26-.16,2.49,6.12c-.78,2.13-.17.54.63-.64s1.49-2.38,2.22-3.56c3.25-5.23-4.63-11.64-8.69-6.72a21.77,21.77,0,0,0-5.4,13.66c-.21,5.09,6.14,7.06,9.55,4a21.59,21.59,0,0,0,7.21-17.14c-.41-6.3-7-10-12.43-6.34s-7.61,12-8.15,18.09c-.49,5.54.11,16,7.94,15.51,6.21-.4,11.67-8.73,14.16-13.76,2.69-5.42,4.89-12.52,3-18.53a9.56,9.56,0,0,0-14.11-5.6c-5.34,3-9,9.28-10.24,15.1s-1,12.94,2.37,18c3.9,5.87,10.93,3.84,14.9-.69,7.36-8.38,13.62-29.71-1.63-34-13.48-3.77-18.38,15.6-16.82,25.18.88,5.41,3.64,12.27,8.39,15.45,5.57,3.73,10.32-1.92,13.06-6.34,3.73-6,5.2-13.3,5.23-20.3,0-5.16.17-13.82-6.63-14.57s-11.58,7.74-13.83,12.91a32.71,32.71,0,0,0-1.61,21.44c.85,3.42,5.65,1.89,5.15-1.42Z" transform="translate(1.74 17.7)" style="fill:#2874bf"/><path d="M111.72,596.87a16.93,16.93,0,0,1,6.57-11l-4.88-2A9.64,9.64,0,0,1,108.2,595l5.8,2.36a6.76,6.76,0,0,1,3.41-8.28l-6-2.41c.49,2.48-1.47,3.92-3,5.51-2.6,2.75-.06,8.14,3.92,6.74,5.93-2.09,7.91-8.68,6.87-14.4-.51-2.75-3.81-3.47-6-2.42-6.24,3.07-9.53,10.81-6.93,17.35.91,2.29,3.42,3.8,5.79,2.36a17.19,17.19,0,0,0,7.64-19.65,3.37,3.37,0,0,0-5.55-1.47,23.08,23.08,0,0,0-8.17,15.42c-.38,3.18,5.05,3.93,5.62.76Z" transform="translate(1.74 17.7)" style="fill:#2874bf"/><path d="M120.35,676a28.89,28.89,0,0,1,1.29-9.13c.64-2.08,2.27-8,4.89-8.57L124,658c-.31-1.23-.53-1.06-.65.52-.25.87-.53,1.73-.85,2.58a34.49,34.49,0,0,1-1.84,4.12,40.14,40.14,0,0,1-5.66,8.09l4.62-.6c.48,1.64.78,1.77.89.4l.53-1.42c.64-1.84,1.42-3.63,2.21-5.41.92-2.08,2.45-7.16,4.93-7.84l-4.56-4.56a35.27,35.27,0,0,1-8.38,16.17l7.25,1.92c-.66-2.67.5-4.54,2.53-6.21,3.15-2.59-1-8-4.37-5.67a14.64,14.64,0,0,0-6.68,13c.15,3.45,4.82,6.11,7.4,3.07a41.82,41.82,0,0,0,9.4-20.34c.45-2.74-1.62-5.31-4.56-4.55-6.16,1.57-8.52,8.68-10.79,13.91-1.73,4-5.57,11.46.35,14.08,1.43.63,3.49.79,4.62-.6a48,48,0,0,0,8.25-14.5c1.28-3.67,3.6-9.91-1.26-12s-8.49,4-10.22,7.66A29.1,29.1,0,0,0,114.72,676c.43,3.49,5.69,3.73,5.63,0Z" transform="translate(1.74 17.7)" style="fill:#63a2e0"/></g></g></g></svg>