<svg xmlns="http://www.w3.org/2000/svg" xmlns:xlink="http://www.w3.org/1999/xlink" viewBox="0 0 616 628.78"><defs><clipPath id="clip-path" transform="translate(0 2.45)"><path d="M70.44,533.34,283.67,16.26c8.94-21.68,39.66-21.68,48.6,0L545.5,533.34Z" style="fill:#ff8b00"/></clipPath><clipPath id="clip-path-2" transform="translate(0 2.45)"><rect y="511.34" width="616" height="115" style="fill:#feab3a"/></clipPath></defs><g id="Layer_2" data-name="Layer 2"><g id="Layer_3" data-name="Layer 3"><g id="Layer_4" data-name="Layer 4"><path d="M70.44,533.34,283.67,16.26c8.94-21.68,39.66-21.68,48.6,0L545.5,533.34Z" transform="translate(0 2.45)" style="fill:#ff8b00"/><g style="clip-path:url(#clip-path)"><rect x="104" y="378.78" width="428" height="62" style="fill:#fff;opacity:0.8"/><rect x="104" y="206.78" width="428" height="62" style="fill:#fff;opacity:0.8"/><polygon points="582.81 513.78 338.11 2.45 306.11 0 345.91 489.78 65 489.78 65 570.78 553 570.78 553 520.47 582.81 513.78" style="fill:#d85107;opacity:0.35000000000000003"/></g><rect y="513.78" width="616" height="115" style="fill:#feab3a"/><g style="clip-path:url(#clip-path-2)"><polygon points="385 480.78 385 628.62 616 628.62 616 501.62 385 480.78" style="fill:#d85107;opacity:0.35000000000000003"/></g></g></g></g></svg>