<svg xmlns="http://www.w3.org/2000/svg" xmlns:xlink="http://www.w3.org/1999/xlink" viewBox="0 0 750.56 521"><defs><clipPath id="clip-path"><path d="M0,447c.67-11.38,5-27,43-20s206,9,234-26,96-129,123-149S476,107,514,93s111,0,127,29,54,108-9,156S469,385,449,425s-111,86-162,84-131-24-169-27S-1,464,0,447Z" style="fill:#f74343"/></clipPath><clipPath id="clip-path-2"><path d="M522,66c-14.88,6.61-30.92,33.83-27.46,41.92S543,105,554,115s17,29,20,40,39-1,47,3,10,14,12,22,11,9,16,15-12,15,0,31,24-4,29-16-15-99-26-116,3-80,37-77,36,36,36,36,11,3,13-3S728,0,688,0s-67,44-67,67a106.6,106.6,0,0,1-30-3C575,60,549,54,522,66Z" style="fill:#35a31a"/></clipPath></defs><g style="isolation:isolate"><g id="Layer_2" data-name="Layer 2"><g id="Layer_3" data-name="Layer 3"><path d="M0,447c.67-11.38,5-27,43-20s206,9,234-26,96-129,123-149S476,107,514,93s111,0,127,29,54,108-9,156S469,385,449,425s-111,86-162,84-131-24-169-27S-1,464,0,447Z" style="fill:#f74343"/><g style="clip-path:url(#clip-path)"><path d="M641,140c-19,32-87,152-130,175s-72,27-95,61-43,89-71,98-106,12-141,14S90.23,451.52,67.12,474.76,110,521,110,521l253-11L522,385,711,226Z" style="fill:#c10505;opacity:0.46;mix-blend-mode:multiply"/></g><path d="M522,66c-14.88,6.61-30.92,33.83-27.46,41.92S543,105,554,115s17,29,20,40,39-1,47,3,10,14,12,22,11,9,16,15-12,15,0,31,24-4,29-16-15-99-26-116,3-80,37-77,36,36,36,36,11,3,13-3S728,0,688,0s-67,44-67,67a106.6,106.6,0,0,1-30-3C575,60,549,54,522,66Z" style="fill:#35a31a"/><g style="clip-path:url(#clip-path-2)"><path d="M619,165c2-7-6-26-3-40s22-37,23-46,10-47,18-54S690,2,699,9s12,37,12,37l4,132-38,64H639Z" style="fill:#2d9110"/><path d="M716,0c2,11,11,54,8,61s23-2,26-7-7-30-12-35S716,0,716,0Z" style="fill:#2d9110"/></g></g></g></g></svg>