<svg xmlns="http://www.w3.org/2000/svg" xmlns:xlink="http://www.w3.org/1999/xlink" viewBox="0 0 766 507"><defs><clipPath id="clip-path" transform="translate(0 5)"><path d="M555.5,233.5C438,233.5,379,57,379,57S320,233.5,202.5,233.5,39,145,39,145L91.62,431.07a20.89,20.89,0,0,0,15.19,16.42C147.31,458.22,275.93,490,379,490c103.37,0,232.46-32,272.55-42.6a20.33,20.33,0,0,0,14.76-16L719,145S673,233.5,555.5,233.5Z" style="fill:#ffd522"/></clipPath><clipPath id="clip-path-2" transform="translate(0 5)"><circle cx="379" cy="39" r="39" style="fill:#ffd522"/></clipPath><clipPath id="clip-path-3" transform="translate(0 5)"><circle cx="719" cy="126" r="39" style="fill:#ffd522"/></clipPath><clipPath id="clip-path-4" transform="translate(0 5)"><circle cx="39" cy="126" r="39" style="fill:#ffd522"/></clipPath></defs><g id="Layer_2" data-name="Layer 2"><g id="Layer_3" data-name="Layer 3"><g id="Layer_4" data-name="Layer 4"><path d="M190,125.5S155.51,250,65.5,250h249C224.49,250,190,125.5,190,125.5Z" transform="translate(0 5)" style="fill:#ffba1f"/><path d="M543,125.5S508.51,250,418.5,250h249C577.49,250,543,125.5,543,125.5Z" transform="translate(0 5)" style="fill:#ffba1f"/><path d="M555.5,233.5C438,233.5,379,57,379,57S320,233.5,202.5,233.5,39,145,39,145L91.62,431.07a20.89,20.89,0,0,0,15.19,16.42C147.31,458.22,275.93,490,379,490c103.37,0,232.46-32,272.55-42.6a20.33,20.33,0,0,0,14.76-16L719,145S673,233.5,555.5,233.5Z" transform="translate(0 5)" style="fill:#ffd522"/><g style="clip-path:url(#clip-path)"><path d="M719,145S677.21,264.1,515,360c-159,94-308,89-444,76l56,30,248,36,217-27,88-33,39-260Z" transform="translate(0 5)" style="fill:#ffba1f;opacity:0.6000000000000001"/><path d="M116.9,396.82c.07-4.66-1.11-9-2-13.52-1.12-5.73-2.31-11.39-3.92-17q-4.55-15.84-8.78-31.76C96.64,313.61,91,292.72,85.94,271.67c-2.44-10.1-6.31-21.12-5.71-31.6l.29-2.71c.69-1.53,1.25-1.69,1.69-.46.9.55,1.16,2.27,1.43,3.21.71,2.4,1,5,1.53,7.46q1.65,8.28,3.27,16.56c4.32,22.1,8.52,44.22,12.3,66.42,2.05,12.08,3.82,24.23,6.1,36.26,2.35,12.43,3.67,25.85,8.06,37.74,1,2.75,5.17,2.44,5.25-.71.29-12.34-2.8-25.18-4.76-37.33-2-12.73-4.7-25.37-7.2-38-4.88-24.66-9.68-49.34-14.75-74-1.18-5.72-1.86-12-3.82-17.48-1.18-3.3-3.51-7-7.08-8.08C72,225.92,72,243.4,72.6,249.39c1.26,11.79,4.39,23.53,7,35.07,2.72,12,5.84,23.87,9,35.72,3.71,13.74,7.9,27.31,12.35,40.83a185.72,185.72,0,0,0,7,19c2.6,5.72,4.92,11.9,8.81,16.84a.06.06,0,0,0,.09,0Z" transform="translate(0 5)" style="fill:#ffe1a6"/><path d="M77.37,238.93c2.84,17.46,6.24,34.8,9.59,52.16,3.32,17.16,5.76,35.14,12,51.5,1.28,3.36,6.91,3.23,6.72-.91-.8-17.54-5.67-35-9.5-52.1-3.92-17.53-7.78-35.06-12.22-52.47-1.11-4.35-7.29-2.43-6.6,1.82Z" transform="translate(0 5)" style="fill:#ffe1a6"/><path d="M253.18,240.13A211.81,211.81,0,0,0,292.3,221.3c12.47-7.64,23.29-17.5,33.78-27.59S345.34,171.5,353,159.18c7.83-12.59,13.73-25.89,16.5-40.44.42-2.22-2.91-4.06-3.94-1.66-5.42,12.63-10.92,25.41-17.59,37.44-7,12.69-15.71,23.88-25.19,34.83-18.44,21.32-44,38.19-70.41,47.8-1.86.67-1.07,3.65.82,3Z" transform="translate(0 5)" style="fill:#ffe1a6"/><path d="M595,242.14c21.66-6.57,43.37-13,63.66-23.18,17-8.54,36.18-20.68,46.44-37.14.8-1.29-1-2.58-2.07-1.59-7.23,6.78-13.93,14-21.83,20A180.58,180.58,0,0,1,656,216.08c-19.49,10.37-40.47,17.88-61.26,25.15-.57.2-.34,1.09.25.91Z" transform="translate(0 5)" style="fill:#ffe1a6"/></g><circle cx="379" cy="44" r="39" style="fill:#ffd522"/><g style="clip-path:url(#clip-path-2)"><path d="M364-5s23,13,32,38-29,45-56,49l63-1,21-24-6-36L398,0Z" transform="translate(0 5)" style="fill:#ffba1f;opacity:0.6000000000000001"/><path d="M356.68,33.75a9.45,9.45,0,0,1,1.09-4c1.06-1.9,1.08-2,.38-.36S356,34.23,354.4,35l2.33-.31c1.12.2.44.14.8-.78.29-.74.38-1.53.75-2.27a6.2,6.2,0,0,1,3.14-3l-2.61.34c-.95-.19-.36-.51-.59.47a14.45,14.45,0,0,0,0,2.45,12.67,12.67,0,0,1-.84,4.21c-.27.75-.58,2.36-.49.75A12.8,12.8,0,0,1,357.8,33c.2-.53,2.55-3.94,2.45-4.34l-2.12-.57.39.68c0,.42.36,1,.43,1.47a6.22,6.22,0,0,1-1.79,5.3c-.26.24-2.07,1.14-1.61,1.26s.23-.38.37-1.09a10.49,10.49,0,0,1,.59-2A10.64,10.64,0,0,1,359.08,30c.8-.74,1.5-.65.13-1.27s-.75,0-.79,1.08a6.34,6.34,0,0,1-1.05,3.21c-.95,1.46-2.58,1.46-.33,2.31,2.55,1,.92.49,1.44-.74.23-.55.37-1.12.62-1.66a23.76,23.76,0,0,1,2.75-4.25c2.51-3.26-2.4-8-5.65-5.65-4,2.81-7,6.66-7.19,11.73C348.85,39.6,352,45,357.5,44c8.11-1.59,12.92-14.92,7.23-21.14-3.45-3.78-8.48-1.7-11.65,1.2a18.55,18.55,0,0,0-6,12.41c-.18,4.7,3,8.71,7.83,8.82A11.82,11.82,0,0,0,365,39.33a14.72,14.72,0,0,0,1.72-11.09c-.87-3.52-3.54-7.76-7.66-7.4-4.58.41-7.44,6.32-8.86,10.07s-1.88,8.23.82,11.5c2.88,3.49,7.69,2.93,10.69-.14s3.52-7.76,3.37-11.88c-.12-3.45-1.15-8.66-5.81-8-4,.54-6.9,5.36-7.71,8.94-.72,3.24-.41,9.59,4.37,9.31,4.14-.23,6.89-7.07,7.81-10.43,1-3.57-.51-8.46-5.13-7.48s-6.46,7-6.51,11.05c0,3,4.4,2.92,4.59,0Z" transform="translate(0 5)" style="fill:#ffe3ab"/></g><circle cx="719" cy="131" r="39" style="fill:#ffd522"/><g style="clip-path:url(#clip-path-3)"><path d="M719,78s18,20,20,48-37,44-66,42l73-3,20-41L750,94Z" transform="translate(0 5)" style="fill:#ffba1f;opacity:0.6000000000000001"/><path d="M699.32,118.92c.75-3.19,2.4-4.48,4.95-6.4l-4.79-1.25c.59,1.1,1.1,1.68.95,2.82-.2,1.58-2,3.68-3,4.89-.68.84-2.93,2.51-3.15,3.51-.68.44-.49.63.57.56,1,.51,1.31.22.83-.87.21-.66.12-1.46.33-2.16a10.58,10.58,0,0,1,2.62-4.19,20.32,20.32,0,0,1,1.79-1.68c.57-.45,1.16-.88,1.76-1.29.61-.19.7-.55.29-1.1-.2-.9-.26-1-.2-.25a7.23,7.23,0,0,1,0,1,12.75,12.75,0,0,1-.34,2.31,16.39,16.39,0,0,1-1.87,4.73c-.4.68-1.94,3.28-2.93,3.2-.71-.07,0-2,.38-2.75a15.8,15.8,0,0,1,3.22-4.39,18.88,18.88,0,0,1,1.85-1.61c.27-.2,2.64-1.65.69-1.07-1.33.4-1.13.71-2,2.06a17.44,17.44,0,0,1-1.44,2,14.8,14.8,0,0,0-1.65,1.72l-.74.68,3.66,2.23c.22-.12.53-1.55.7-1.85a7.34,7.34,0,0,1,1.66-1.94,10.53,10.53,0,0,1,4.12-2.09l-4.62-6a22.23,22.23,0,0,1-2.68,4.69,13.87,13.87,0,0,1-1.44,1.53,6,6,0,0,1-1.21,1q-1.18.69.9.06l2.9,2.22c-.07-.11.55-2.35,1-2.24l-2.71-6.65a13.15,13.15,0,0,1-4.47,5l7.54,5.8c.39-1.84.74-2.93,2.4-4,4.33-2.81,1.67-10.1-3.62-8.57a12.27,12.27,0,0,0-8.87,11.2c-.33,4.81,5.67,6.28,8.77,3.63a22.93,22.93,0,0,0,6.53-9.58c1.16-3-1.74-5.48-4.37-5.74a10.31,10.31,0,0,0-9.95,5.1c-1.94,3.32-2.93,8.94.12,11.92,7,6.85,15.48-6.52,16.62-12.22a4.13,4.13,0,0,0-5-5c-5.9,1.6-12.56,6.74-13.58,13.15a6.5,6.5,0,0,0,4.93,7.56c4,.86,7.17-2.27,9.42-5.18,3.61-4.69,8.38-14.6.62-18.05-6.12-2.72-13.53,6.05-16.29,10.6-3.45,5.7-2.4,15.3,5.89,15.58,7.05.25,12-8,12.93-14,.87-5.58-.43-15.14-8.39-12-6,2.31-12.47,8.59-13.27,15.12-.4,3.26.41,7.72,3.51,9.55,3.51,2.07,7.21-.07,9.61-2.74a31,31,0,0,0,6.38-10.2c1.32-3.75.29-6.18-1.65-9.44A3.57,3.57,0,0,0,700,107c-3.9,3.25-6,5.91-6.41,11.12-.23,3.28,5,4,5.71.78Z" transform="translate(0 5)" style="fill:#ffe3ab"/></g><circle cx="39" cy="131" r="39" style="fill:#ffd522"/><g style="clip-path:url(#clip-path-4)"><path d="M22,84s24,8,38,34-21,49-49,39a52.79,52.79,0,0,0,43,9c25.33-5.7,28-36,27-47S61,87,61,87Z" transform="translate(0 5)" style="fill:#ffba1f;opacity:0.6000000000000001"/><path d="M20.31,119.7a33.08,33.08,0,0,1,7-16.14H24c2.33,2.72,1.18,6.61-.53,9.32a10.84,10.84,0,0,1-3.13,3.3c-1.56,1-2.16.42-3.71.54q-2.14-1.34-.25,2.31l.34-.58c.64-1,.46-2.3.65-3.45.28-1.66,2.77-7.7,5-7.47l-2.26-.93c1.24,1.32.76,4.87.45,6.55a12.27,12.27,0,0,1-1.37,4l-.6,1c-1,.92-1.23,1-.58.33.13-1.62,2.25-4.51,3.23-5.84.4-.55,3.25-4.43,4-4.37L22,106.39c-.05-.83-.06-.85,0-.06,0,.58,0,1.16,0,1.74a16.36,16.36,0,0,1-.32,2.42,15.88,15.88,0,0,1-2.36,5.9c-.44.64-1.27,1.84-2,2.11.94-.35.74-1.13,1.27-2.22.45-.92,3.55-5,4.91-5l-3.18-1.82c.41.72-1.59,3.49-1.66,4.23l-.58,1.15c1,.06,1.54-.43,1.55-1.49,1.66-2.45,3-4.57,6-5.76l-5-3.85c.12,5-1.56,8.14-3.89,12.36l-.9.87.69.73a24.56,24.56,0,0,0,1.12-2.19,14.26,14.26,0,0,0,2.74-5A2.94,2.94,0,0,0,16,107.33c-3.65,2.15-7.13,5.42-7.55,9.89-.38,4.09,2.14,7.82,6.37,8.3C25.2,126.69,29,111.41,28.48,103.79c-.15-2.29-2.47-4.9-5.05-3.84-7,2.86-17.21,13.25-10.76,21.23,7.39,9.14,17.22-6.27,14.93-13.65-1.63-5.23-6.74-3.63-9.9-1.08-3.81,3.07-7.21,7-7.47,12.12-.2,4,1.8,8.13,6.13,8.53,4.75.43,9-4.18,11-8,2.36-4.47,4.53-23.82-5.6-17.36-5.54,3.52-15.45,16.33-9.41,22.63,2.87,3,7.78,2.61,10.73,0,3.5-3.08,4.74-8.51,4.61-13-.11-3.67-.84-9.58-5.3-10.25s-7.89,4.8-9.83,8.13c-1.28,2.21-1.24,4-1.79,6.45-.36,1.6-1.15,2.54-.26,4.25,1.77,3.41,7.46,4,10.67,2.88,8.68-3.06,12-15.74,6.12-22.55a2.31,2.31,0,0,0-3.25,0,32.27,32.27,0,0,0-7.49,18.88c-.14,2.13,3.45,2.67,3.77.51Z" transform="translate(0 5)" style="fill:#ffe3ab"/></g><circle cx="190" cy="120" r="28" style="fill:#ffba1f"/><circle cx="543" cy="120" r="28" style="fill:#ffba1f"/></g></g></g></svg>