<svg xmlns="http://www.w3.org/2000/svg" xmlns:xlink="http://www.w3.org/1999/xlink" viewBox="0 0 722.2 740.26"><defs><clipPath id="clip-path" transform="translate(27.74 17.54)"><path d="M648.46,409.71c0,43-3.63,82.44-21,118.4-44.58,92-140.19,154.6-256,154.6-70.87,0-137-22.75-187.64-62.39-33.67-26.38-53.66-61-70.36-100.61-12.36-29.33-26-61.06-26-96,0-138.62,82-265,212-269,12.76-.39,44-4.57,52-5,19-1,36.88-2.37,62-4,99.08-6.41,179.36,52.22,217.3,141.82C646.05,323.64,648.46,365.78,648.46,409.71Z" style="fill:#ff8b00"/></clipPath><clipPath id="clip-path-2" transform="translate(27.74 17.54)"><path d="M0,107.63S89.74,24.7,173.18,2.85s167.05,87,133.49,152.29c-20.41,39.75-101.6,66.7-150,6.57S82.55,99.4,0,107.63Z" style="fill:#35a31a"/></clipPath></defs><g style="isolation:isolate"><g id="Layer_2" data-name="Layer 2"><g id="Layer_3" data-name="Layer 3"><path d="M648.46,409.71c0,43-3.63,82.44-21,118.4-44.58,92-140.19,154.6-256,154.6-70.87,0-137-22.75-187.64-62.39-33.67-26.38-53.66-61-70.36-100.61-12.36-29.33-26-61.06-26-96,0-138.62,82-265,212-269,12.76-.39,44-4.57,52-5,19-1,36.88-2.37,62-4,99.08-6.41,179.36,52.22,217.3,141.82C646.05,323.64,648.46,365.78,648.46,409.71Z" transform="translate(27.74 17.54)" style="fill:#ff8b00"/><g style="clip-path:url(#clip-path)"><path d="M198.46,128.71s308.1-34.49,344,154c48,252-142,408-458,272l192,168,239-10,143-154,36-163-46-192-114-99-267,23" transform="translate(27.74 17.54)" style="fill:#d85107;opacity:0.35000000000000003"/><path d="M475,429.4a43.63,43.63,0,0,1,3.12-9.77,22.43,22.43,0,0,1,1.95-3.69c1.49-2,.7-1.4,1,.51.95,5.87-2.68,12.52-6.58,16.55l4.2-.54c-4.54-3.1,3.06-13.16,5.19-16H478.1c.8,1.44,1.56,2.31,3.22,2.55a2.56,2.56,0,0,0,2.8-1.14c.9-1.85.7-3-.24-4.79s-3.93-2.32-5.25-.67c-5.3,6.59-13.85,19.85-3.44,26a3.51,3.51,0,0,0,4.2-.55,29.43,29.43,0,0,0,6.87-14c.71-3.95,1.25-10.24-1.5-13.62-7-8.56-13.28,14.06-14,18-.52,2.76,3.67,4,4.25,1.17Z" transform="translate(27.74 17.54)" style="fill:#ff8b00"/><g style="opacity:0.35000000000000003;mix-blend-mode:multiply"><path d="M488.78,446.63a37.12,37.12,0,0,1,1.84-13c.84-2.55,2.66-5.45,5.33-5.15s3.76,3.32,4,5.88a22.84,22.84,0,0,1-3.81,14.71c-1.25,1.86-3.88,3.61-5.49,2.06-1-1-.82-2.57-.56-3.93,1.11-6,2.33-12.3,6.05-17.18A21.66,21.66,0,0,1,493,447.15a17.77,17.77,0,0,1,2.56-11.75" transform="translate(27.74 17.54)" style="fill:#ff8b00"/></g><g style="opacity:0.35000000000000003;mix-blend-mode:multiply"><path d="M361.79,457.36A37.31,37.31,0,0,1,372.62,450c2.45-1.09,5.82-1.7,7.4.47s.08,5-1.66,6.91a22.88,22.88,0,0,1-13.44,7.09c-2.21.33-5.29-.43-5.22-2.67,0-1.38,1.35-2.33,2.52-3.06,5.21-3.24,10.67-6.56,16.77-7.11a21.59,21.59,0,0,1-14.71,9.25,17.78,17.78,0,0,1,10.4-6" transform="translate(27.74 17.54)" style="fill:#ff8b00"/></g><g style="opacity:0.35000000000000003;mix-blend-mode:multiply"><path d="M504.46,317.5a2.86,2.86,0,0,1,4.06-.53,2.66,2.66,0,0,1-.2,4,2.49,2.49,0,0,1-3.67-1.38,2.34,2.34,0,0,1,2.76-2.66,1,1,0,0,1,.7.54,1.26,1.26,0,0,1,0,.61,3.42,3.42,0,0,1-1.54,2.56,1.86,1.86,0,0,1-2.6-.78,2.73,2.73,0,0,1,2.23-1.72" transform="translate(27.74 17.54)" style="fill:#ff8b00"/></g><g style="opacity:0.35000000000000003;mix-blend-mode:multiply"><path d="M448.21,236a2.55,2.55,0,1,1,.65,4.54,2.72,2.72,0,0,1,1.55-3.57,1.42,1.42,0,0,1-.49,2.44" transform="translate(27.74 17.54)" style="fill:#ff8b00"/></g><g style="opacity:0.35000000000000003;mix-blend-mode:multiply"><path d="M440.22,383.42a1.14,1.14,0,1,1,1.48,1.73c-.45,0-.94-.46-.7-.83s.85.39.4.42" transform="translate(27.74 17.54)" style="fill:#ff8b00"/></g><g style="opacity:0.35000000000000003;mix-blend-mode:multiply"><path d="M418.05,511.22a1.86,1.86,0,1,1,1.4,3c-.64-.34,0-1.57.64-1.24" transform="translate(27.74 17.54)" style="fill:#ff8b00"/></g><g style="opacity:0.35000000000000003;mix-blend-mode:multiply"><path d="M320.93,571.74c2.13-1.53,3.95-3.56,6.39-4.53s5.83-.34,6.69,2.14a4.44,4.44,0,0,1-1.28,4.43,9.49,9.49,0,0,1-4.27,2.2,23.76,23.76,0,0,1-6.55.86,3.37,3.37,0,0,1-1.78-.38c-1.33-.85-1-2.94,0-4.21a8,8,0,0,1,9-2.65,6.83,6.83,0,0,1-5.38,3.38" transform="translate(27.74 17.54)" style="fill:#ff8b00"/></g><g style="opacity:0.35000000000000003;mix-blend-mode:multiply"><path d="M240.92,575.64a1.69,1.69,0,1,1,3.28.47,1.2,1.2,0,0,1-1.62-.47" transform="translate(27.74 17.54)" style="fill:#ff8b00"/></g><g style="opacity:0.35000000000000003;mix-blend-mode:multiply"><path d="M166.46,546.28A2.67,2.67,0,1,1,171.4,548a2.26,2.26,0,0,1-2.41,1.11,1.73,1.73,0,0,1-1.22-2.2c.12-.29.46-.56.73-.4s-.22.65-.29.34" transform="translate(27.74 17.54)" style="fill:#ff8b00"/></g><g style="opacity:0.35000000000000003;mix-blend-mode:multiply"><path d="M399.38,344.8a2.87,2.87,0,0,0,3.46-1.87,1.14,1.14,0,0,0-.78-1.39,1.16,1.16,0,0,0-1.39.79.73.73,0,0,1-.06.21c.08-.18-.08.1,0,0s-.27.24-.19.19a.58.58,0,0,1-.26.12l-.11,0h0s-.23,0-.12,0a1,1,0,0,0-1.21.69,1,1,0,0,0,.68,1.21Z" transform="translate(27.74 17.54)" style="fill:#ff8b00"/></g><g style="opacity:0.35000000000000003;mix-blend-mode:multiply"><path d="M392.86,285.88a4.37,4.37,0,0,1,.25-.48c.17-.33-.12.08,0-.08s.2-.22.31-.32c.35-.38-.3.15.13-.12.13-.08.25-.16.39-.23s.34-.12.07,0a2.69,2.69,0,0,0,1.67-1.18,2,2,0,0,0-.71-2.71c-1.2-.72-2.65-.12-3.7.62a6.27,6.27,0,0,0-2.1,2.41,2.11,2.11,0,0,0,3.65,2.13Z" transform="translate(27.74 17.54)" style="fill:#ff8b00"/></g><g style="opacity:0.35000000000000003;mix-blend-mode:multiply"><path d="M351.14,227.44a4.88,4.88,0,0,1,.74-.42l-1.76-.22a3.8,3.8,0,0,0,2.38,1.26c.33,0,.38,0,.13,0a4.77,4.77,0,0,1,.54.15,4.92,4.92,0,0,1,1.67.67c1.69.89,4-.6,3.38-2.59a5.3,5.3,0,0,0-5.72-3.49,2.78,2.78,0,0,0-2.54,1.94l-.21.67.67-.86a6.72,6.72,0,0,0-1,.7c-1.23,1,.38,3.1,1.7,2.21Z" transform="translate(27.74 17.54)" style="fill:#ff8b00"/></g><g style="opacity:0.35000000000000003;mix-blend-mode:multiply"><path d="M271.32,381.06l1.37-.74a3.49,3.49,0,0,0,1.36-1.36,1.47,1.47,0,0,0-.87-2.14,3.57,3.57,0,0,0-2,0l-1.52.41a2.11,2.11,0,1,0,1.63,3.85Z" transform="translate(27.74 17.54)" style="fill:#ff8b00"/></g><g style="opacity:0.35000000000000003;mix-blend-mode:multiply"><path d="M228.79,454a15.42,15.42,0,0,0-1.9,2.9.88.88,0,0,0,.13,1,.83.83,0,0,0,1,.13,16.52,16.52,0,0,0,2.59-2.63,1.17,1.17,0,1,0-1.84-1.42Z" transform="translate(27.74 17.54)" style="fill:#ff8b00"/></g><g style="opacity:0.35000000000000003;mix-blend-mode:multiply"><path d="M149.22,389.86c-1.56,2.25-3.34,4.41-4.32,7-.52,1.35,1.35,2.16,2.27,1.32,2-1.84,3.37-4.38,4.88-6.65,1.18-1.76-1.64-3.37-2.83-1.65Z" transform="translate(27.74 17.54)" style="fill:#ff8b00"/></g><g style="opacity:0.35000000000000003;mix-blend-mode:multiply"><path d="M184.49,303.42a14.17,14.17,0,0,0,2.88-6.65c.07-.73-1-.91-1.31-.35a49.84,49.84,0,0,1-3.41,5.58,1.17,1.17,0,1,0,1.84,1.42Z" transform="translate(27.74 17.54)" style="fill:#ff8b00"/></g><g style="opacity:0.35000000000000003;mix-blend-mode:multiply"><path d="M203.34,242.2c2.08-3,4.9-5.16,7.53-7.6,1.72-1.6-.46-3.84-2.33-3-3.8,1.68-6.59,5.07-8.76,8.53-1.43,2.28,2.06,4.23,3.56,2.09Z" transform="translate(27.74 17.54)" style="fill:#ff8b00"/></g><g style="opacity:0.35000000000000003;mix-blend-mode:multiply"><path d="M245,302.06c-1.88,1.67-3.88,4.06-3.4,6.73a2,2,0,0,0,3,1.2,8.22,8.22,0,0,0,2.28-2.49,12.8,12.8,0,0,1,1.81-1.79,2.6,2.6,0,0,0,0-3.65,2.63,2.63,0,0,0-3.65,0Z" transform="translate(27.74 17.54)" style="fill:#ff8b00"/></g><ellipse cx="233.48" cy="259.09" rx="39.9" ry="30.37" transform="translate(-87.11 294.33) rotate(-50.88)" style="fill:#fff;opacity:0.45"/></g><path d="M292.59,205.93c-10.88-10.75,21.69-35.53,54.2-37.42s73.65,7.42,71.74,22.3S326.6,239.52,292.59,205.93Z" transform="translate(27.74 17.54)" style="fill:#d85107;opacity:0.35000000000000003"/><path d="M352.46,94.71s-3,36-2,39,8,38,8,38-41.54-20.24-41.27-25.62c0,0-9.73,12.62-9.73,15.62s45,26,45,26l6,14s8,4,14,1,7-8,7-8-14-51-12-60,3-40,3-40S362.46,100.71,352.46,94.71Z" transform="translate(27.74 17.54)" style="fill:#a05000"/><ellipse cx="389.2" cy="112.26" rx="9" ry="4" style="fill:#b25d10"/><path d="M0,107.63S89.74,24.7,173.18,2.85s167.05,87,133.49,152.29c-20.41,39.75-101.6,66.7-150,6.57S82.55,99.4,0,107.63Z" transform="translate(27.74 17.54)" style="fill:#35a31a"/><g style="clip-path:url(#clip-path-2)"><path d="M-27.74,125.37s165.43-101.76,241-64.29c67.51,33.47,79.19,133.76,21.85,152.34S304,218.87,304,218.87L338.57,48.74,191.25-17.54,56.93,18.59Z" transform="translate(27.74 17.54)" style="fill:#428e06"/></g><path d="M84.74,75.18c34.67-12.2,74.4-25.81,110.57-11.52,33.92,13.4,56.52,43.81,78.35,71.46,5,6.31,9.69,13.39,16.54,17.85,6.11,4,13.49,5.76,20.12,8.64,7.08,3.07,13.41-7.06,6.2-10.61-5.95-2.93-12.41-5-18.21-8.16-6.16-3.39-10.28-9.87-14.6-15.21-12.38-15.3-24.53-30.86-39-44.27-12.79-11.84-27.26-22-43.74-27.94-17.73-6.39-36.33-6.36-54.73-3.22C124.75,55.87,102.77,62,83.69,72.7c-1.31.73-.43,3,1,2.48Z" transform="translate(27.74 17.54)" style="fill:#327c01"/></g></g></g></svg>