<svg xmlns="http://www.w3.org/2000/svg" xmlns:xlink="http://www.w3.org/1999/xlink" viewBox="0 0 3000 2000"><defs><clipPath id="clip-path"><rect width="3000" height="1509" style="fill:#243364"/></clipPath><clipPath id="clip-path-2"><circle cx="1420.07" cy="404.5" r="299.5" style="fill:#4174b5"/></clipPath><clipPath id="clip-path-3"><path d="M1244.31,116.25s236.22,8.44,312.15,182.79-201.07,409.83-416.21,295.29L1264,704l84.37,19.68h126.55l157.49-53.43,118.11-202.48-2.81-126.55L1691.45,220.3l-78.74-73.12-149-61.87Z" style="fill:#415cb5"/></clipPath><clipPath id="clip-path-4"><circle cx="2674.43" cy="319.74" r="154.67" style="fill:#4152b5"/></clipPath><clipPath id="clip-path-5"><polygon points="366 1131 305 1485 268 1479 301 1136 366 1131" style="fill:#2c407d"/></clipPath><clipPath id="clip-path-6"><polyline points="160.49 1500.86 120 1111 328 1094 284 1516 160.49 1500.86" style="fill:#3e5db5"/></clipPath><clipPath id="clip-path-7"><polygon points="488 896 606 698 561 524 348 478 0 540 0 877 234 970 389 970 488 896" style="fill:#4b6fd9"/></clipPath><clipPath id="clip-path-8"><polygon points="348 461 398 685 294 942 537 901 634 689 571 500 348 461" style="fill:#3c61cf"/></clipPath><clipPath id="clip-path-9"><polygon points="57 1125 337 1159 405 1125 488 896 348 917 0 876.34 0 939.2 57 1125" style="fill:#334c94"/></clipPath><clipPath id="clip-path-10"><polygon points="3000 832 2303 1151 1315 1438 3000 1479.86 3000 832" style="fill:#334c94"/></clipPath><clipPath id="clip-path-11"><polygon points="0 1480 2027 1408 2498 1438 3000 1374 3000 1999 0 2000 0 1480" style="fill:#cc5e09"/></clipPath><clipPath id="clip-path-12"><path d="M18,1869,0,1925.91V2000H398s-58.13-78.72-62-131Z" style="fill:#f57b00"/></clipPath><clipPath id="clip-path-13"><path d="M334.1,1877.23c0,18.18-70.21,32.91-156.83,32.91S25,1893.18,25,1875s100.79-30.46,152.27-30.69C249,1844,334.1,1859.05,334.1,1877.23Z" style="fill:#993200"/></clipPath><clipPath id="clip-path-14"><polygon points="2622 1465 2656 1455 2723 1395 2699 1342 2742 788 2711 727 2738 425 2687 369 2657 361 2657 371 2703 436 2681 734 2711 799 2674 1349 2622 1465" style="fill:#995928"/></clipPath><clipPath id="clip-path-15"><polygon points="1810.37 1622 1804.98 1526 1937.16 1526 1966.84 1508 1950.65 1614 1913 1647 1810.37 1622" style="fill:#f57b00"/></clipPath><clipPath id="clip-path-16"><polygon points="1912 1656 1928 1544 1979.6 1532.03 1957 1632 1912 1656" style="fill:#ba5100"/></clipPath><clipPath id="clip-path-17"><polygon points="1749 1320 1771.93 1533 1939.19 1557 1991.12 1516 2039 1311 1749 1320" style="fill:#f58b20"/></clipPath><clipPath id="clip-path-18"><polygon points="1975 1328 1941 1568 2002 1516 2039 1335 1975 1328" style="fill:#ba5100"/></clipPath><clipPath id="clip-path-19"><polygon points="2418.3 1568.03 2426.38 1643 2467.52 1643 2492.5 1624.69 2504.99 1554.95 2418.3 1568.03" style="fill:#f57b00"/></clipPath><clipPath id="clip-path-20"><polygon points="2370.55 1584.59 2449.15 1604.64 2539.51 1554.95 2563.76 1435.51 2335.28 1435.51 2370.55 1584.59" style="fill:#f57b00"/></clipPath><clipPath id="clip-path-21"><polygon points="2450 1618 2471.25 1463.95 2563.76 1448.15 2552 1566 2450 1618" style="fill:#ba5100"/></clipPath><clipPath id="clip-path-22"><polygon points="2289 1371 2316.46 1487.98 2398.46 1525.31 2579 1477 2588 1371 2289 1371" style="fill:#f58b20"/></clipPath><clipPath id="clip-path-23"><polygon points="2402 1538 2392 1395 2564 1390 2602 1485 2402 1538" style="fill:#ba5100"/></clipPath><clipPath id="clip-path-24"><path d="M812.78,1413.55c-10.13-111.34-109.11-155.16-110.66-208.46s28-137.4,28-137.4H562.8s29.62,84.1,28.06,137.4-100.53,97.12-110.67,208.46,166,100.68,166,100.68h.59S822.91,1524.89,812.78,1413.55Z" style="fill:#01f27a"/></clipPath><clipPath id="clip-path-25"><path d="M941.5,822s-1.42,121.31-121.3,167l-22.83-17.12S920.1,914.8,911.54,812.05Z" style="fill:#01f296"/></clipPath><clipPath id="clip-path-26"><circle cx="933.66" cy="775.65" r="57.8" style="fill:#fff"/></clipPath><clipPath id="clip-path-27"><path d="M340.7,822S342.13,943.34,462,989l22.84-17.12S362.11,914.8,370.67,812.05Z" style="fill:#01f296"/></clipPath><clipPath id="clip-path-28"><circle cx="348.55" cy="775.65" r="57.8" style="fill:#fff"/></clipPath><clipPath id="clip-path-29"><path d="M428.25,1027.42c-43.94-33.27,59.22-93.58,234.52-82.92s216.76,48.57,212,88.84S598.81,1156.52,428.25,1027.42Z" style="fill:#01f27a"/></clipPath><clipPath id="clip-path-30"><path d="M520.51,1040.38c-24.35-12.67-22.35-50,12.85-42.81,111.31,22.83,131.29,17.12,165.54,15.69,59.9-2.49,87.05-17.12,98.47-4.28S766,1053.22,706,1060.36,556.19,1058.93,520.51,1040.38Z" style="fill:#243364"/></clipPath><clipPath id="clip-path-31"><path d="M562.61,1530.58c-18.55-2.85-20-44.24,7.14-48.52s60.69,22.35,63.17,38.29S562.61,1530.58,562.61,1530.58Z" style="fill:#0cf280"/></clipPath><clipPath id="clip-path-32"><path d="M737.8,1530.58c18.55-2.85,20-44.24-7.13-48.52s-60.69,22.35-63.17,38.29S737.8,1530.58,737.8,1530.58Z" style="fill:#0cf280"/></clipPath><clipPath id="clip-path-33"><path d="M895.43,1304.92c1.34-17.1,15-101.15,38.62-150.5s7.28-74.4.4-97.6-29.13-105.53,1.48-134,77.21,21.92,81.54,67.21-8.67,64.6-52.35,148.56-40.28,123.36-37.22,142.8,9.9,45.71-6.57,51.15S894.07,1322.09,895.43,1304.92Z" style="fill:#e68d00"/></clipPath><clipPath id="clip-path-34"><path d="M933.29,938.48c-6.26,12.09-13.86,52.92,2.64,93.86s38.46,40.14,50.31,24.58,18.64-74.47-7.26-110.83S941.34,922.94,933.29,938.48Z" style="fill:#ffb94d"/></clipPath><clipPath id="clip-path-35"><path d="M947.45,1185.57c-5.6-8.77-21-25.75-28.9-21.69s-42.16,74.73,10.64,69.24C937.14,1232.29,956.55,1199.83,947.45,1185.57Z" style="fill:#3d3c3f"/></clipPath><clipPath id="clip-path-36"><polygon points="458.95 1648.48 474.82 1877.45 702.66 1914.86 882.89 1845.71 914.63 1605.41 458.95 1648.48" style="fill:#f57b00"/></clipPath><clipPath id="clip-path-37"><polygon points="700.14 1936.86 709.14 1696.86 934.14 1617.86 895.14 1871.86 700.14 1936.86" style="fill:#ba5100"/></clipPath><clipPath id="clip-path-38"><polygon points="333.13 1297.09 374.14 1610.86 404.14 1649.86 647.68 1753.33 963.37 1620.14 997.14 1557.86 1026.84 1297.09 333.13 1297.09" style="fill:#ba5100"/></clipPath><clipPath id="clip-path-39"><polygon points="392.14 1396.86 405.14 1659.86 646.14 1765.86 656.14 1448.86 392.14 1396.86" style="fill:#f58b20"/></clipPath><clipPath id="clip-path-40"><polygon points="332.56 1296.58 547.93 1230.76 791.64 1218.31 1026.28 1296.58 987.14 1376.86 656.75 1468.25 392.64 1408.65 332.56 1296.58" style="fill:#f5ad67"/></clipPath></defs><g id="Layer_2" data-name="Layer 2"><g id="read-aloud-ui-bg"><rect width="3000" height="1509" style="fill:#243364"/><g style="clip-path:url(#clip-path)"><path d="M867.56,409.58c7.66,0,7.67-11.91,0-11.91s-7.68,11.91,0,11.91Z" style="fill:#85c3ff"/><path d="M1348.68,936.53c7.66,0,7.68-11.91,0-11.91s-7.67,11.91,0,11.91Z" style="fill:#85c3ff"/><path d="M691.91,707.42c7.66,0,7.67-11.91,0-11.91s-7.67,11.91,0,11.91Z" style="fill:#85c3ff"/><path d="M294.79,228a.05.05,0,1,0,0-.1.05.05,0,0,0,0,.1Z" style="fill:#85c3ff"/><path d="M2196.38,233.93c7.66,0,7.67-11.9,0-11.9s-7.68,11.9,0,11.9Z" style="fill:#85c3ff"/><path d="M1470.87,1310.73c7.66,0,7.68-11.9,0-11.9s-7.67,11.9,0,11.9Z" style="fill:#85c3ff"/><path d="M2906.61,745.6c7.66,0,7.67-11.9,0-11.9s-7.68,11.9,0,11.9Z" style="fill:#85c3ff"/><path d="M2272.75,272.12c7.66,0,7.67-11.91,0-11.91s-7.68,11.91,0,11.91Z" style="fill:#85c3ff"/><path d="M1264.68,81.19c7.66,0,7.67-11.9,0-11.9s-7.68,11.9,0,11.9Z" style="fill:#85c3ff"/><path d="M249,172.84c7.66,0,7.67-11.91,0-11.91s-7.67,11.91,0,11.91Z" style="fill:#85c3ff"/><path d="M837,379c7.66,0,7.67-11.9,0-11.9s-7.67,11.9,0,11.9Z" style="fill:#85c3ff"/><path d="M134.42,432.49c7.66,0,7.67-11.9,0-11.9s-7.68,11.9,0,11.9Z" style="fill:#85c3ff"/><path d="M829.37,333.71c8.3,0,8.32-12.9,0-12.9s-8.31,12.9,0,12.9Z" style="fill:#f829ff"/><path d="M974.48,433c8.29,0,8.31-12.9,0-12.9s-8.32,12.9,0,12.9Z" style="fill:#f829ff"/><path d="M1409.78,906.48c8.3,0,8.31-12.9,0-12.9s-8.32,12.9,0,12.9Z" style="fill:#f829ff"/><path d="M1532,1051.58c8.3,0,8.31-12.9,0-12.9s-8.32,12.9,0,12.9Z" style="fill:#f829ff"/><path d="M1997.82,234.43c8.3,0,8.31-12.9,0-12.9s-8.31,12.9,0,12.9Z" style="fill:#f829ff"/><path d="M1348.68,234.43c8.3,0,8.32-12.9,0-12.9s-8.31,12.9,0,12.9Z" style="fill:#f829ff"/><path d="M1371.59,471.17c8.3,0,8.32-12.9,0-12.9s-8.31,12.9,0,12.9Z" style="fill:#f829ff"/><path d="M340.61,349c8.3,0,8.32-12.9,0-12.9s-8.31,12.9,0,12.9Z" style="fill:#f829ff"/><path d="M2792.06,639.18c8.29,0,8.31-12.89,0-12.89s-8.32,12.89,0,12.89Z" style="fill:#f829ff"/><path d="M2937.16,562.81c8.3,0,8.31-12.89,0-12.89s-8.32,12.89,0,12.89Z" style="fill:#f829ff"/><path d="M2899,127.51c8.3,0,8.32-12.9,0-12.9s-8.31,12.9,0,12.9Z" style="fill:#f829ff"/><path d="M2249.84,81.69c8.3,0,8.31-12.9,0-12.9s-8.32,12.9,0,12.9Z" style="fill:#f829ff"/><path d="M126.78,196.24c8.3,0,8.31-12.89,0-12.89s-8.31,12.89,0,12.89Z" style="fill:#f829ff"/><path d="M753,875.93c8.29,0,8.31-12.9,0-12.9s-8.32,12.9,0,12.9Z" style="fill:#f829ff"/><path d="M73.32,1296c8.3,0,8.32-12.9,0-12.9s-8.31,12.9,0,12.9Z" style="fill:#f829ff"/><path d="M669,467.2c3.19,0,3.2-5,0-5s-3.2,5,0,5Z" style="fill:#85c3ff"/><path d="M1027.93,161.73c3.2,0,3.2-5,0-5s-3.19,5,0,5Z" style="fill:#85c3ff"/><path d="M508.62,108.27c3.2,0,3.2-5,0-5s-3.19,5,0,5Z" style="fill:#85c3ff"/><path d="M1890.9,261c3.19,0,3.2-5,0-5s-3.2,5,0,5Z" style="fill:#85c3ff"/><path d="M1929.09,150.83h-6c-.7,0-1.56-.16-2.11.34a.68.68,0,0,0,0,.92c.55.51,1.41.34,2.11.34h6a.78.78,0,0,0,0-1.56Z" style="fill:#85c3ff"/><path d="M2036,115.91c3.2,0,3.2-5,0-5s-3.19,5,0,5Z" style="fill:#85c3ff"/><path d="M2425.48,283.92c3.2,0,3.2-5,0-5s-3.19,5,0,5Z" style="fill:#85c3ff"/><path d="M1295.22,856.68c3.2,0,3.2-5,0-5s-3.19,5,0,5Z" style="fill:#85c3ff"/><path d="M1211.22,1208c3.19,0,3.2-5,0-5s-3.2,5,0,5Z" style="fill:#85c3ff"/><path d="M1554.88,810.86c3.19,0,3.2-5,0-5s-3.2,5,0,5Z" style="fill:#85c3ff"/><path d="M1264.68,833.77c3.19,0,3.19-5,0-5s-3.2,5,0,5Z" style="fill:#85c3ff"/><path d="M898.11,574.12c3.19,0,3.19-5,0-5s-3.2,5,0,5Z" style="fill:#85c3ff"/><path d="M669,360.29c3.19,0,3.2-5,0-5s-3.2,5,0,5Z" style="fill:#85c3ff"/><path d="M691.91,154.09c3.19,0,3.2-5,0-5s-3.2,5,0,5Z" style="fill:#85c3ff"/><path d="M577.36,390.83c3.19,0,3.19-5,0-5s-3.2,5,0,5Z" style="fill:#85c3ff"/><path d="M615.54,312.75a.77.77,0,0,0,0-1.53.77.77,0,0,0,0,1.53Z" style="fill:#85c3ff"/><path d="M630.81,367.92c3.2,0,3.2-5,0-5s-3.19,5,0,5Z" style="fill:#85c3ff"/><path d="M1906.18,322.1c3.19,0,3.19-5,0-5s-3.2,5,0,5Z" style="fill:#85c3ff"/><path d="M2792.06,856.68c3.19,0,3.19-5,0-5s-3.2,5,0,5Z" style="fill:#85c3ff"/><path d="M2792.06,856.68c3.19,0,3.19-5,0-5s-3.2,5,0,5Z" style="fill:#85c3ff"/><path d="M2845.51,864.32c3.2,0,3.2-5,0-5s-3.19,5,0,5Z" style="fill:#85c3ff"/><path d="M2815,810.86c3.19,0,3.19-5,0-5s-3.2,5,0,5Z" style="fill:#85c3ff"/><path d="M1554.88,1200.35c3.19,0,3.2-5,0-5s-3.2,5,0,5Z" style="fill:#85c3ff"/><path d="M921,1139.25c3.19,0,3.19-5,0-5s-3.2,5,0,5Z" style="fill:#85c3ff"/></g><circle cx="1420.07" cy="404.5" r="299.5" style="fill:#4174b5"/><g style="clip-path:url(#clip-path-2)"><path d="M1244.31,116.25s236.22,8.44,312.15,182.79-201.07,409.83-416.21,295.29L1264,704l84.37,19.68h126.55l157.49-53.43,118.11-202.48-2.81-126.55L1691.45,220.3l-78.74-73.12-149-61.87Z" style="fill:#415cb5"/><g style="clip-path:url(#clip-path-3)"><path d="M1410,642c-1.29-11,17-24,28-24s22,15,22,26S1412,659,1410,642Z" style="fill:#3651a8"/><path d="M1460,589c-7.78-.71-9,10,0,12S1471,590,1460,589Z" style="fill:#3651a8"/><path d="M1544,610c-21.81-1.09-39,24-26,33s42,3,51-5S1564,611,1544,610Z" style="fill:#3651a8"/><path d="M1633,298c14.53-5.81,21-6,25,1s-2,24-16,26S1623,302,1633,298Z" style="fill:#3651a8"/><path d="M1633,262c-12,0-16,7-9,9S1633,262,1633,262Z" style="fill:#3651a8"/><path d="M1527,182c1.88-16.9,25,2,25,14S1525,200,1527,182Z" style="fill:#3651a8"/><path d="M1594,202c20.46-14.4,38,23,24,37S1567,221,1594,202Z" style="fill:#3651a8"/></g><path d="M1089.37,472.72c65.65-20.89,133.22-43.75,186.86-88.65A225.18,225.18,0,0,0,1313,345.23c.62-.85-.79-1.94-1.48-1.14-43.7,51.13-103.82,82.3-166,105.38-18.9,7-37.9,13.77-56.92,20.45-1.74.62-1,3.38.78,2.8Z" style="fill:#4174b5"/><path d="M1234,380c-13-10.86-1-50,12-57s33,11,42,25S1252,395,1234,380Z" style="fill:#3467a8"/><path d="M1280,310c-2-8,6-18,14-16s7,15,2,20S1280,310,1280,310Z" style="fill:#3467a8"/><path d="M1470,439c27.35-10.25,35-20,38-6s-22,48-38,45S1462,442,1470,439Z" style="fill:#3467a8"/><path d="M1432,382c4.4-8.81,15,3,15,8S1428,390,1432,382Z" style="fill:#3467a8"/><path d="M1270,405c0-10.3,13-7,16,0S1270,414,1270,405Z" style="fill:#3467a8"/><path d="M1154,497c2.71-19.84,45-30,56-12s16,53,2,64S1151,519,1154,497Z" style="fill:#3467a8"/><path d="M1237,571c3.45-13.79,22-3,23,7S1234,583,1237,571Z" style="fill:#3467a8"/><path d="M1239,523c0-8.06,9-9,10-2S1239,531,1239,523Z" style="fill:#3467a8"/><path d="M1428,210c16.28,0,27,7,28,15s-38,14-44,6S1420,210,1428,210Z" style="fill:#3467a8"/><path d="M1397,184c2.72-5.44,14,2,13,6S1393,192,1397,184Z" style="fill:#3467a8"/></g><path d="M1640.93,202.3c111.28-66.55,191.32-99.39,206-79.82,24.4,32.6-141.78,198.25-371.18,370S1040.58,777,1016.18,744.37c-15.26-20.37,43.94-92.72,146.48-186" style="fill:none;stroke:#8ea8ff;stroke-miterlimit:10;stroke-width:10px;opacity:0.56"/><circle cx="2674.43" cy="319.74" r="154.67" style="fill:#4152b5"/><g style="clip-path:url(#clip-path-4)"><path d="M2701.15,151s78.74,85.37,38,203-232,83.87-257.32-3.31l92.8,165.93h126.56l115.3-42.19,67.49-154.67-53.43-140.61Z" style="fill:#3e38a8"/></g><path d="M2563.16,212.24c-83.9-22-144.76-25.58-152.51-5.63-11.54,29.68,98.8,100.27,246.45,157.69s276.71,79.89,288.25,50.22c7.75-19.95-39.56-58.39-116.26-98.88l-1.43,25.42c13.23,10.15,19.84,18.58,17.72,24-6.19,15.92-84.55.31-175-34.87s-158.79-76.6-152.6-92.53c2.12-5.45,12.68-7.2,29.3-5.75Z" style="fill:#69c1ff;opacity:0.4"/><polygon points="366 1131 305 1485 268 1479 301 1136 366 1131" style="fill:#2c407d"/><g style="clip-path:url(#clip-path-5)"><polygon points="313 1207 366 1175 370 1133 311 1146 313 1207" style="fill:#1b2e6b"/></g><polyline points="160.49 1500.86 120 1111 328 1094 284 1516 160.49 1500.86" style="fill:#3e5db5"/><g style="clip-path:url(#clip-path-6)"><polygon points="110 1159 328 1207 331.65 1133.64 103 1120 110 1159" style="fill:#2244a3"/></g><polygon points="488 896 606 698 561 524 348 478 0 540 0 877 234 970 389 970 488 896" style="fill:#4b6fd9"/><g style="clip-path:url(#clip-path-7)"><polygon points="348 461 398 685 294 942 537 901 634 689 571 500 348 461" style="fill:#3c61cf"/><g style="clip-path:url(#clip-path-8)"><polyline points="634 699 348 683 263 942 413.98 954.07 537 901 634 699" style="fill:#2748a6"/></g><polygon points="398 685 1 688 0 886 347.62 941.65 398 685" style="fill:#3e5db5"/></g><polygon points="57 1125 337 1159 405 1125 488 896 348 917 0 876.34 0 939.2 57 1125" style="fill:#334c94"/><g style="clip-path:url(#clip-path-9)"><polygon points="336 1175 352 904 503 888 419 1138 336 1175" style="fill:#243d85"/></g><polygon points="3000 832 2303 1151 1315 1438 3000 1479.86 3000 832" style="fill:#334c94"/><g style="clip-path:url(#clip-path-10)"><path d="M2900,832s-564,371-797,429,240,87,485-59S2900,832,2900,832Z" style="fill:#284494"/></g><polygon points="0 1480 2027 1408 2498 1438 3000 1374 3000 1999 0 2000 0 1480" style="fill:#cc5e09"/><g style="clip-path:url(#clip-path-11)"><polygon points="0 1578 1344.83 1516 2796 1608 3000 1776 3000 1326 1315 1374 0 1441 0 1578" style="fill:#ab4b00"/><polygon points="1665 1857 1716 1839 1758 1877 1732 1910 1665 1857" style="fill:#a14908"/><polygon points="1766 1837 1767 1856 1795 1851 1766 1837" style="fill:#a14908"/><polygon points="2231 1814 2217 1845 2283 1867 2316 1818 2231 1814" style="fill:#a14908"/><polygon points="2335 1860 2359 1882 2375 1867 2362 1858 2335 1860" style="fill:#a14908"/><polygon points="1590 1827 1577 1806 1615 1796 1649 1806 1590 1827" style="fill:#a14908"/><polygon points="1636 1839 1646 1836 1654 1841 1636 1839" style="fill:#a14908"/><polygon points="2404 1809 2436 1797 2456 1808 2425 1816 2404 1809" style="fill:#a14908"/><polygon points="2947 1809 2897 1832 2932 1842 2970 1824 2947 1809" style="fill:#a14908"/><polygon points="2955 1845 2946 1855 2969 1858 2975 1850 2955 1845" style="fill:#a14908"/><polygon points="224 1723 283 1699 331 1716 268 1733 224 1723" style="fill:#a14908"/><polygon points="131 1701 157 1687 177 1703 155 1707 131 1701" style="fill:#a14908"/><polygon points="46 1806 90 1801 108 1815 61 1820 46 1806" style="fill:#a14908"/></g><path d="M18,1869,0,1925.91V2000H398s-58.13-78.72-62-131Z" style="fill:#f57b00"/><g style="clip-path:url(#clip-path-12)"><polygon points="255.86 1890.57 276.05 1962.9 215.49 1989.82 155 2000 410 2000 368.56 1929.26 341.65 1850.2 331.56 1883.84 255.86 1890.57" style="fill:#7d2900;opacity:0.76"/></g><path d="M334.1,1877.23c0,18.18-70.21,32.91-156.83,32.91S25,1893.18,25,1875s100.79-30.46,152.27-30.69C249,1844,334.1,1859.05,334.1,1877.23Z" style="fill:#993200"/><g style="clip-path:url(#clip-path-13)"><polygon points="222.22 1833.38 170.07 1930.94 345.16 1893.06 324.83 1850.2 222.22 1833.38" style="fill:#732600"/></g><polygon points="35.52 1891.33 23.02 1871.25 91.64 1852.25 192.02 1844.46 295.88 1855.69 331.46 1871.19 331.46 1883.27 304.93 1896.35 200.84 1909.78 77.13 1902.56 35.52 1891.33" style="fill:none;stroke:#ffb94d;stroke-miterlimit:10;stroke-width:8px"/><polyline points="1909.52 1647.47 3000 1776.07 3000 1585 3000 1585.07 1909.52 1545.72 1909.52 1647.47" style="fill:#7d3602"/><polygon points="2622 1465 2656 1455 2723 1395 2699 1342 2742 788 2711 727 2738 425 2687 369 2657 361 2657 371 2703 436 2681 734 2711 799 2674 1349 2622 1465" style="fill:#995928"/><g style="clip-path:url(#clip-path-14)"><path d="M2717,726c-2,0-46,10-46,10l46,61,33-10Z" style="fill:#944000"/><polyline points="2703 436 2758 422 2682 358 2645 352 2655 377 2703 436" style="fill:#944000"/><polyline points="2674 1349 2707 1340 2733 1396 2689 1396 2674 1349" style="fill:#944000"/></g><polygon points="1810.37 1622 1804.98 1526 1937.16 1526 1966.84 1508 1950.65 1614 1913 1647 1810.37 1622" style="fill:#f57b00"/><g style="clip-path:url(#clip-path-15)"><polygon points="1801 1547 1928 1577 1931 1549 1799 1533 1801 1547" style="fill:#c46200"/><polygon points="1912 1656 1928 1544 1979.6 1532.03 1957 1632 1912 1656" style="fill:#ba5100"/><g style="clip-path:url(#clip-path-16)"><polyline points="1923.21 1577.5 1965 1547 1964.63 1530.83 1921.21 1547.81 1923.21 1577.5" style="fill:#944000"/></g></g><polygon points="1749 1320 1771.93 1533 1939.19 1557 1991.12 1516 2039 1311 1749 1320" style="fill:#f58b20"/><g style="clip-path:url(#clip-path-17)"><polygon points="1759 1477 1823 1487 1868 1471 1953 1482 1969 1447 1830 1426 1774.25 1446.78 1753 1453 1759 1477" style="fill:#c46200"/><polygon points="1975 1328 1941 1568 2002 1516 2039 1335 1975 1328" style="fill:#ba5100"/><g style="clip-path:url(#clip-path-18)"><polyline points="1953 1482 2021 1461 2020 1439 1953 1442 1955.12 1468.36" style="fill:#944000"/></g></g><polygon points="2418.3 1568.03 2426.38 1643 2467.52 1643 2492.5 1624.69 2504.99 1554.95 2418.3 1568.03" style="fill:#f57b00"/><g style="clip-path:url(#clip-path-19)"><polygon points="2505 1627 2515 1557 2471 1577 2467 1657 2505 1627" style="fill:#873600"/></g><polygon points="2370.55 1584.59 2449.15 1604.64 2539.51 1554.95 2563.76 1435.51 2335.28 1435.51 2370.55 1584.59" style="fill:#f57b00"/><g style="clip-path:url(#clip-path-20)"><polygon points="2351 1520 2410.22 1547.76 2474 1536 2485 1498 2386.31 1504.23 2340 1488 2351 1520" style="fill:#c46200"/><polygon points="2450 1618 2471.25 1463.95 2563.76 1448.15 2552 1566 2450 1618" style="fill:#ba5100"/><g style="clip-path:url(#clip-path-21)"><polyline points="2460.98 1538.4 2558.72 1498.61 2559 1481 2456 1509 2460.98 1538.4" style="fill:#944000"/></g></g><polygon points="2289 1371 2316.46 1487.98 2398.46 1525.31 2579 1477 2588 1371 2289 1371" style="fill:#f58b20"/><g style="clip-path:url(#clip-path-22)"><polygon points="2300 1465 2407 1489 2408 1441 2298 1436 2300 1465" style="fill:#c46200"/><polygon points="2402 1538 2392 1395 2564 1390 2602 1485 2402 1538" style="fill:#ba5100"/><g style="clip-path:url(#clip-path-23)"><polyline points="2398.44 1487.08 2567 1471 2572 1452 2383.86 1441.31 2398.44 1487.08" style="fill:#944000"/></g></g><polygon points="1561 358.31 1879 380 2280.83 358.31 2338 369 2657 361 2711 431 2688 732 2717 797 2680 1348 2699 1396.57 2622 1465 2216.04 1455 1892 1455 1831 1439 1789 1465 1656.97 1455 1628.35 1407.12 1582.49 692.89 1544 451 1561 358.31" style="fill:#fff"/><path d="M577.47,1259.56s-114.14.85-142.88,41.3S563,1428.58,563,1428.58" style="fill:none;stroke:#3d3c3f;stroke-miterlimit:10;stroke-width:9px"/><path d="M812.78,1413.55c-10.13-111.34-109.11-155.16-110.66-208.46s28-137.4,28-137.4H562.8s29.62,84.1,28.06,137.4-100.53,97.12-110.67,208.46,166,100.68,166,100.68h.59S822.91,1524.89,812.78,1413.55Z" style="fill:#01f27a"/><g style="clip-path:url(#clip-path-24)"><path d="M562.61,1108.17s101.33,52.8,155.56,67.07l20-95.62-175.54-11.41Z" style="fill:#00c452"/><path d="M616.84,1113.87S668.22,1161,676.78,1228s62.79,108.46,41.39,182.67c-8.64,29.94-75.64,125.58-249.74,48.52l35.67,47.09,71.36,14.27,148.22,10.74,73-30.72L835.19,1445l-10-94.19-79.92-95.62-27.11-85.62,24.26-101.32L591,1070.05Z" style="fill:#00c452"/></g><path d="M941.5,822s-1.42,121.31-121.3,167l-22.83-17.12S920.1,914.8,911.54,812.05Z" style="fill:#01f296"/><g style="clip-path:url(#clip-path-25)"><path d="M933.66,834.17s-4.29,104.17-125.59,138.42l45,19.06,26.35-21.91,44.24-48.52,25.68-58.51,5.71-51.38-25,6.9" style="fill:#00ab47"/></g><circle cx="933.66" cy="775.65" r="57.8" style="fill:#fff"/><g style="clip-path:url(#clip-path-26)"><path d="M923.93,717.86s42.55,7.85,49.68,49.23-59.93,67.08-104.17,24.26l17.12,30,17.13,12.85,29.41,5.62L959.34,837l22.84-20,14.27-24.26L999.3,770l-8.56-32.83-24.26-20L933.66,710l-9.73,7.85" style="fill:#e3e3e3"/></g><circle cx="930.09" cy="762.1" r="19.27"/><path d="M340.7,822S342.13,943.34,462,989l22.84-17.12S362.11,914.8,370.67,812.05Z" style="fill:#01f296"/><g style="clip-path:url(#clip-path-27)"><path d="M340,821.32l8.56,4.28S337.13,926.93,474.13,971.17l-38.9,20.48-39.58-16.2-38.54-48.52-24.26-52.81-7.13-51.37L340,821.32" style="fill:#00ab47"/></g><circle cx="348.55" cy="775.65" r="57.8" style="fill:#fff"/><g style="clip-path:url(#clip-path-28)"><path d="M317.12,727.17s35.71-8.6,58.55,15.66,8.56,62.79-5.71,68.5-58.51,5.71-82.77-24.26L290,808.48l22.83,24.26,21.41,10,55.66-10,16.41-32.26,12.13-24.83-5.71-27.11-25.69-24.26L352.83,710l-31.39,7.13-4.32,10" style="fill:#e3e3e3"/></g><circle cx="356.4" cy="762.1" r="19.27"/><path d="M428.25,1027.42c-43.94-33.27,59.22-93.58,234.52-82.92s216.76,48.57,212,88.84S598.81,1156.52,428.25,1027.42Z" style="fill:#01f27a"/><g style="clip-path:url(#clip-path-29)"><path d="M733.86,942.62s81.35,35.56,90.62,70.59-159.17,111.52-411.71,16.47l59.94,38.53,144.13,45.66,182.67-17.12,94.28-50L888,988.29l-79.92-45.67Z" style="fill:#00ab47"/></g><path d="M520.51,1040.38c-24.35-12.67-22.35-50,12.85-42.81,111.31,22.83,131.29,17.12,165.54,15.69,59.9-2.49,87.05-17.12,98.47-4.28S766,1053.22,706,1060.36,556.19,1058.93,520.51,1040.38Z" style="fill:#243364"/><g style="clip-path:url(#clip-path-30)"><path d="M536.93,989.72s0,30,15.69,34.25,45.67-22.84,45.67-22.84Z" style="fill:#fff"/><path d="M683.21,1008.17s7.85,20.16,19.53,18.93,24.74-27.31,24.74-27.31Z" style="fill:#fff"/><path d="M724.26,1005.69s10.6,27.23,26.38,25.57,33.43-36.91,33.43-36.91Z" style="fill:#fff"/><path d="M548.34,1062.5s39.82-26.81,103.4-25.54,88.13,25.9,88.13,25.9S594,1092.47,548.34,1062.5Z" style="fill:#0f1a3d"/></g><path d="M562.61,1530.58c-18.55-2.85-20-44.24,7.14-48.52s60.69,22.35,63.17,38.29S562.61,1530.58,562.61,1530.58Z" style="fill:#0cf280"/><g style="clip-path:url(#clip-path-31)"><path d="M616.84,1496.33s5.71,14.27,2.86,21.41-57.09,15.7-71.36,1.42l7.14,11.42L564,1532l59.94,2.85,12.84-8.56v-7.14l-8.56-12.84Z" style="fill:#00ab47"/></g><path d="M737.8,1530.58c18.55-2.85,20-44.24-7.13-48.52s-60.69,22.35-63.17,38.29S737.8,1530.58,737.8,1530.58Z" style="fill:#0cf280"/><g style="clip-path:url(#clip-path-32)"><path d="M716.74,1482.06s21.41,7.14,22.83,17.13-11.41,40-75.63,21.4l5.71,10,21.4,2.86h58.51l4.28-11.42,1.43-18.55-7.14-15.7-14.27-8.56-17.12,2.85" style="fill:#00ab47"/></g><g id="hand"><path d="M674.63,1254.88s113.29,72.17,254.86-39.28" style="fill:none;stroke:#3d3c3f;stroke-miterlimit:10;stroke-width:9px"/><path d="M895.43,1304.92c1.34-17.1,15-101.15,38.62-150.5s7.28-74.4.4-97.6-29.13-105.53,1.48-134,77.21,21.92,81.54,67.21-8.67,64.6-52.35,148.56-40.28,123.36-37.22,142.8,9.9,45.71-6.57,51.15S894.07,1322.09,895.43,1304.92Z" style="fill:#e68d00"/><g style="clip-path:url(#clip-path-33)"><path d="M929.48,926s23.82-27.78,56.08,20.31,22.86,100.21-3.9,148.8S904,1216.41,922,1338.6l17.12-18.77-2.33-88.33L973,1145.23l37.56-71.5,18.61-71.4-13.71-38.83-26-37.09L960,907.4l-27.93,9.74Z" style="fill:#b86800"/></g><path d="M933.29,938.48c-6.26,12.09-13.86,52.92,2.64,93.86s38.46,40.14,50.31,24.58,18.64-74.47-7.26-110.83S941.34,922.94,933.29,938.48Z" style="fill:#ffb94d"/><g style="clip-path:url(#clip-path-34)"><path d="M994.75,962.34S968.33,937,952,984.48s5.68,85,20,87.47-22.79,11.13-22.79,11.13l-31.38-61.74-3.5-66L945.9,902.6l37.32,16.81Z" style="fill:#ffca78"/></g><path d="M938.35,1182.52s-3-28.39,7.43-31,12.17,7.28,8,18-7.26,28.71-7.26,28.71Z" style="fill:#3d3c3f"/><path d="M947.45,1185.57c-5.6-8.77-21-25.75-28.9-21.69s-42.16,74.73,10.64,69.24C937.14,1232.29,956.55,1199.83,947.45,1185.57Z" style="fill:#3d3c3f"/><g style="clip-path:url(#clip-path-35)"><path d="M945.15,1180.88s-14.16,65.36-47.62,25.52l1,20.43,19.28,8.3,22.24-2.2,14.37-44.29-9.27-7.76" style="fill:#252526"/></g></g><polygon points="862.14 1784.86 1192.14 1785.86 1396.14 1705.86 1520.14 1882.86 1443.14 1972.86 703.14 1914.86 862.14 1784.86" style="fill:#8a3e07"/><polygon points="458.95 1648.48 474.82 1877.45 702.66 1914.86 882.89 1845.71 914.63 1605.41 458.95 1648.48" style="fill:#f57b00"/><g style="clip-path:url(#clip-path-36)"><polygon points="700.14 1936.86 709.14 1696.86 934.14 1617.86 895.14 1871.86 700.14 1936.86" style="fill:#ba5100"/><g style="clip-path:url(#clip-path-37)"><polygon points="706.14 1783.86 915.14 1676.86 925.14 1605.86 687.14 1690.86 706.14 1783.86" style="fill:#7d2900"/></g><polygon points="706.14 1783.86 455.14 1693.86 454.14 1659.86 660.14 1713.86 709.14 1716.86 706.14 1783.86" style="fill:#944300"/></g><polygon points="333.13 1297.09 374.14 1610.86 404.14 1649.86 647.68 1753.33 963.37 1620.14 997.14 1557.86 1026.84 1297.09 333.13 1297.09" style="fill:#ba5100"/><g style="clip-path:url(#clip-path-38)"><polygon points="1026.14 1267.86 987.14 1376.86 963.14 1619.86 1037.14 1524.86 1050.14 1269.86 1026.14 1267.86" style="fill:#7d2900"/><polygon points="332.14 1280.86 418.14 1428.86 418.14 1665.86 392.14 1659.86 358.14 1605.86 309.14 1290.86 332.14 1280.86" style="fill:#f59f4a"/><polygon points="392.14 1396.86 405.14 1659.86 646.14 1765.86 656.14 1448.86 392.14 1396.86" style="fill:#f58b20"/><g style="clip-path:url(#clip-path-39)"><polyline points="469.41 1425.98 471.14 1490.86 482.14 1521.86 459.14 1557.86 486.14 1522.86 484.14 1506.86 496.14 1508.86 480.14 1499.86 476.14 1489.86 484.99 1429.49 469.41 1425.98" style="fill:#914b06"/></g><polyline points="900.32 1400.87 910.14 1448.86 895.14 1488.86 907.14 1499.86 889.14 1488.86 902.14 1449.86 887.47 1404.43 900.32 1400.87" style="fill:#873b00"/></g><polygon points="332.56 1296.58 547.93 1230.76 791.64 1218.31 1026.28 1296.58 987.14 1376.86 656.75 1468.25 392.64 1408.65 332.56 1296.58" style="fill:#f5ad67"/><g style="clip-path:url(#clip-path-40)"><polygon points="797.14 1185.86 869.14 1321.86 577.14 1481.86 667.14 1524.86 1064.14 1369.86 1064.14 1286.86 797.14 1185.86" style="fill:#eda45d"/><polyline points="469.41 1425.98 508.14 1398.86 565.14 1398.86 591.14 1387.86 568.14 1402.86 510.14 1404.86 484.99 1429.49 469.41 1425.98" style="fill:#b36c28"/><polyline points="832.92 1232.08 802.14 1238.86 807.14 1263.86 806.14 1241.86 847.65 1236.99 832.92 1232.08" style="fill:#b36c28"/><polyline points="887.47 1404.43 862.14 1388.86 872.14 1368.86 860.14 1355.86 876.14 1367.86 869.14 1387.86 885.14 1392.86 895.14 1381.86 906.14 1383.86 897.14 1385.86 892.14 1396.86 900.32 1400.87 887.47 1404.43" style="fill:#b36c28"/></g></g></g></svg>