<svg xmlns="http://www.w3.org/2000/svg" xmlns:xlink="http://www.w3.org/1999/xlink" viewBox="0 0 3002.67 2000"><defs><linearGradient id="linear-gradient" x1="129.29" y1="822.96" x2="2918.13" y2="1796.6" gradientTransform="matrix(1, 0, 0, -1, 2.61, 2000)" gradientUnits="userSpaceOnUse"><stop offset="0" stop-color="#ffdd8c"/><stop offset="1" stop-color="#e04522"/></linearGradient><clipPath id="clip-path" transform="translate(2.61)"><polygon points="0 1276 130.53 1294.07 408.26 1328.64 691.75 1163.85 619.15 1024.41 246.93 898.8 0 942 0 1276" style="fill:none"/></clipPath><clipPath id="clip-path-2" transform="translate(2.61)"><polygon points="632.4 1013.46 431.88 1171.34 408.84 1329.22 419.21 1341.89 709.61 1163.27 632.4 1013.46" style="fill:none"/></clipPath><clipPath id="clip-path-3" transform="translate(2.61)"><polygon points="206.01 632.02 296.13 915.4 200.25 1035.36 151.85 795.66 206.01 632.02" style="fill:none"/></clipPath><clipPath id="clip-path-4" transform="translate(2.61)"><polygon points="0 603.81 206.01 632.02 151.85 795.66 0 760.75 0 603.81" style="fill:none"/></clipPath><clipPath id="clip-path-5" transform="translate(2.61)"><path d="M0,1227s601-182,816-312,764.17,382.87,1915.08,382.87L0,1332Z" style="fill:none"/></clipPath><clipPath id="clip-path-6" transform="translate(2.61)"><rect y="1281" width="3000" height="719" style="fill:none"/></clipPath><clipPath id="clip-path-7" transform="translate(2.61)"><path d="M0,1192.55s14.42-39.27,14.42-64C14.42,1073.83-27.16,902,46.16,902s14.23,194.79,13.13,247.32,3.28,104,30.64,104,27.36-63.47,19.7-83.17,12-71.13,46-38.3,8.76,163.06-52.53,177.28-42.67,144.46-42.67,144.46L.27,1461.25Z" style="fill:none"/></clipPath><clipPath id="clip-path-8" transform="translate(2.61)"><path d="M137.61,1500.44S215.3,1442,200.3,1441s-74.7,51.16-74.7,51.16S158.3,1424,143.3,1428s-29.24,68.3-29.24,68.3S95.3,1431,82.3,1424s20.89,73.21,20.89,73.21S74.3,1457,61.3,1456s25.5,37.5,25.5,37.5-43.2-25.6-48.85-22,43.94,30.76,43.94,30.76Z" style="fill:none"/></clipPath><clipPath id="clip-path-9" transform="translate(2.61)"><path d="M1278,964.52c1,30,5,72,29,70s14-91,6-138-21-196,19-197,29,103,26,149-4,111,20,107,20-70,13-88,1-49,24-48,30,147.39-6.5,163.5c-34,15-50.5,22.5-50.5,51.5s55,31,71,7-11-83,16-93,34,49,26,98-108,45-110,72,7,174,9,191-29,19-45,12,2-189-19-202-59-27-64-102-1-177,22-179S1278,964.52,1278,964.52Z" style="fill:none"/></clipPath><clipPath id="clip-path-10" transform="translate(2.61)"><polygon points="1445.81 1285.98 1470.53 1338.7 1475 1361.04 1385.04 1372.06 1313.25 1381 1239.97 1338.4 1258.74 1302.36 1354.95 1269.89 1445.81 1285.98" style="fill:none"/></clipPath><clipPath id="clip-path-11" transform="translate(2.61)"><polygon points="1460.11 1291.64 1367.19 1299.53 1365.68 1319.34 1373.72 1381 1483.94 1363.42 1460.11 1291.64" style="fill:none"/></clipPath><clipPath id="clip-path-12" transform="translate(2.61)"><polygon points="1255.31 1299.53 1307.14 1340.34 1313.1 1381.15 1310.42 1384.43 1235.36 1338.25 1255.31 1299.53" style="fill:none"/></clipPath><clipPath id="clip-path-13" transform="translate(2.61)"><path d="M1390.54,1444.3s-36.2-30.5-41.2-37.5,41,8,41,23,9-34,23-42-11.95,49.94-11.95,49.94,1.14-1.73,3.14-4.52c7.37-10.26,26.5-34.92,43.81-40.42,22-7-32.45,44-32.45,44s63-23.92,57.45-16c-7,10-42.95,25.09-42.95,25.09Z" style="fill:none"/></clipPath><clipPath id="clip-path-14" transform="translate(2.61)"><path d="M1292.34,1388.8s-44-12-59-20,61.49,10,61.49,10-60.28-37.2-47.39-41.6,69.9,39.6,69.9,39.6-34.78-58.11-30.89-72.56,40.89,69.56,40.89,72.56-7-57,0-66,7,66,6,71,21-61,27-51-10,51-10,51Z" style="fill:none"/></clipPath><clipPath id="clip-path-15" transform="translate(2.61)"><path d="M2904.74,1291.76s5.71-67.78,0-81.33-18.54-21.4-50.65-30-20-76.33-3.56-77.76,2.85,49.22,27.1,47.8,27.83-35,19.27-94.88S2896.18,908,2919,905.1s33.53,54.93,30,114.14.72,144.11,25,139.83,19.69-64.29,13.56-92.74c-11.5-53.33,12.27-51.95,12.27-51.95l.23,176.79s-43.44,6.45-43.89,16.41c-.72,15.69,5.7,74.19,5.7,74.19s-2.62,10.55-22,15.11S2904.74,1291.76,2904.74,1291.76Z" style="fill:none"/></clipPath><clipPath id="clip-path-16" transform="translate(2.61)"><path d="M651.74,1433.76s10.77,70.77,9.23,84.61-43.31-22.16-80.88.46,41.28,78,116.26,18c7.69-6.15-10.67-46.59-16.87-92.52Z" style="fill:none"/></clipPath><clipPath id="clip-path-17" transform="translate(2.61)"><path d="M761,1438.38s7.69,78.45,0,86.14-66.15,6.16-63.07,50.77,104.61-29.23,109.22-36.92-18.46-61.53-18.46-118.45Z" style="fill:none"/></clipPath><clipPath id="clip-path-18" transform="translate(2.61)"><path d="M655.59,1086.88s-52.3-43.08-40-109.22L638.67,973s-17.1,66.92,47.21,113.84c0,0-3.37,3.84-15.68,3.84S655.59,1086.88,655.59,1086.88Z" style="fill:none"/></clipPath><clipPath id="clip-path-19" transform="translate(2.61)"><circle cx="620.21" cy="945.35" r="53.07" style="fill:none"/></clipPath><clipPath id="clip-path-20" transform="translate(2.61)"><path d="M348.06,1157.37c6.88-17.31,33.84-105.76,34.44-165.19s28.55-76,46.36-95.33,78.94-88.91,62.75-131.34S405.85,749.89,379.94,792s-22.49,67.12-20.14,169.89-19.83,139.54-32.12,157-31.55,39.82-18.1,53S341.15,1174.76,348.06,1157.37Z" style="fill:none"/></clipPath><clipPath id="clip-path-21" transform="translate(2.61)"><path d="M486.68,782.06c.31,14.78-11.84,58.22-47.53,90.22s-56.72,20.7-60.81-.14,17.49-81.52,60.16-104.56S486.28,763.05,486.68,782.06Z" style="fill:none"/></clipPath><clipPath id="clip-path-22" transform="translate(2.61)"><path d="M354.52,1016.12c9.66-5.86,32.76-15.06,38.56-7.29s5.3,93-43.54,62.38C342.19,1066.6,338.82,1025.66,354.52,1016.12Z" style="fill:none"/></clipPath><clipPath id="clip-path-23" transform="translate(2.61)"><path d="M550.26,1389.92c-48.12-56.91-52.13-253.82,60.15-303s286.05-29.23,306.1,116.91-66.83,250.74-175.1,252.28C636.12,1457.57,598.38,1446.84,550.26,1389.92Z" style="fill:none"/></clipPath><clipPath id="clip-path-24" transform="translate(2.61)"><path d="M783.27,1086.88s52.3-43.08,40-109.22L800.19,973s17.09,67-47.19,113.88c0,0,3.38,3.84,15.68,3.84S783.27,1086.88,783.27,1086.88Z" style="fill:none"/></clipPath><clipPath id="clip-path-25" transform="translate(2.61)"><circle cx="818.65" cy="945.35" r="53.07" style="fill:none"/></clipPath><clipPath id="clip-path-26" transform="translate(2.61)"><path d="M605.59,1164.56s64.61,55.38,224.6,9.23c0,0-26.82,141.58-156.91,126.14C582.52,1289.16,605.59,1164.56,605.59,1164.56Z" style="fill:none"/></clipPath><clipPath id="clip-path-27" transform="translate(2.61)"><path d="M625.59,1289.16s26.15-29.22,36.92-29.22,23.08,46.15,23.08,46.15S634.82,1304.55,625.59,1289.16Z" style="fill:none"/></clipPath><clipPath id="clip-path-28" transform="translate(2.61)"><path d="M742.5,1298.39s-7.69-36.92,3.08-44.61,49.22,15.39,49.22,15.39S764,1299.93,742.5,1298.39Z" style="fill:none"/></clipPath><clipPath id="clip-path-29" transform="translate(2.61)"><polygon points="1058 1682 1782 1853 1692.29 2000 716.58 2000 255 1841 1058 1682" style="fill:none"/></clipPath><clipPath id="clip-path-30" transform="translate(2.61)"><polygon points="385 1377 283.48 1610.94 255.3 1839.32 570.3 1908.79 879.3 1925 1117.3 1771.01 963 1354 671.48 1343.48 385 1377" style="fill:none"/></clipPath><clipPath id="clip-path-31" transform="translate(2.61)"><polygon points="318.48 1428.01 618.3 1566.07 570.3 1908.79 241.3 1850.9 269.3 1611.23 318.48 1428.01" style="fill:none"/></clipPath><clipPath id="clip-path-32" transform="translate(2.61)"><polygon points="1005.98 1458.69 846.3 1599.65 879.3 1925 1117.3 1771.01 1005.98 1458.69" style="fill:none"/></clipPath><clipPath id="clip-path-33" transform="translate(2.61)"><path d="M1498,262.7,1619.09,159S2252,164.86,2260,164.86s270,29,270,29l300-44,53.79,40.5L2905,850.86l17.29,217.28L2893,1123l32,13-25.16,462.77-19.34,80.76L2012,1702.86l-507.51-62.5-40.49-49.5v-851Z" style="fill:none"/></clipPath><clipPath id="clip-path-34" transform="translate(2.61)"><path d="M1466,284.84l121.1-103.7S2220,187,2228,187s270,29,270,29l300-44,53.79,40.5L2873,873l21,263.66-26.14,484.25-19.34,80.76L1980,1725l-113.18-13.94L1879,1690l-48,16.65-358.52-44.15L1432,1613V762Z" style="fill:none"/></clipPath></defs><g id="Layer_2" data-name="Layer 2"><g id="monster-in-desert"><g id="pseudo-words-bg"><rect x="2.61" width="3000" height="1397" style="fill:url(#linear-gradient)"/><circle cx="453.61" cy="830" r="339" style="fill:#ffe09c"/><polygon points="2.61 1276 133.14 1294.07 410.87 1328.64 694.36 1163.85 621.76 1024.41 249.54 898.8 2.61 942 2.61 1276" style="fill:#f5ce73"/><g style="clip-path:url(#clip-path)"><path d="M403.65,935.67c-53-2.3-142.9,3.46-87.58,26.51s164.79,47.25,137.13,69.14-78.36,18.44-94.49,30,61.07,38,73.75,56.47-5.76,78.37,33.42,73.76S648,1038.24,648,1038.24L479.71,961Z" transform="translate(2.61)" style="fill:#ffd575"/><polygon points="2.61 997 202.19 1013.46 208.05 1090.09 176.93 1328.64 2.61 1301 2.61 997" style="fill:#e9954b"/><polygon points="454.09 1178.25 202.86 1035.36 154.46 1310.78 421.82 1341.89 454.09 1178.25" style="fill:#e9954b"/><polygon points="635.01 1013.46 434.49 1171.34 411.45 1329.22 421.82 1341.89 712.22 1163.27 635.01 1013.46" style="fill:#e27013"/><g style="clip-path:url(#clip-path-2)"><polygon points="574.51 1047.46 558.38 1206.49 544.55 1177.68 549.16 1223.77 533.02 1238.75 524.96 1226.08 499.78 1293.94 712.8 1163.85 635.59 1014.04 574.51 1047.46" style="fill:#c9670e"/></g></g><polygon points="208.62 632.02 298.74 915.4 202.86 1035.36 154.46 795.66 208.62 632.02" style="fill:#e9954b"/><g style="clip-path:url(#clip-path-3)"><polygon points="158.49 837.72 160.8 799.69 182.7 814.67 175.78 782.4 209.2 837.72 189.61 775.49 189.61 734 240.32 790.47 255.3 750.14 208.05 621.07 186.15 661.4 144.8 795.66 158.49 837.72" style="fill:#de7f27"/></g><polygon points="154.46 795.66 2.61 760 2.61 1022 202.86 1035.36 154.46 795.66" style="fill:#f2a843"/><polygon points="2.61 603.81 208.62 632.02 154.46 795.66 2.61 760.75 2.61 603.81" style="fill:#f5c558"/><g style="clip-path:url(#clip-path-4)"><path d="M205.44,676.38C170,661.88,0,649,0,649v39s18.41,3,25.66,3.37c46.1,2.3,84.13,25.35,31.12,35.72s72.6,26.5,71.45,55.31C127.37,804,0,786.5,0,786.5V588l236.55,43.41Z" transform="translate(2.61)" style="fill:#ffdc8c"/></g><polygon points="118.74 787.45 168.96 751.86 159.07 818.47 118.74 787.45" style="fill:#ffe096"/><polygon points="391.78 1142.81 461.96 1149.72 431.88 1189.25 391.78 1142.81" style="fill:#ffe096"/><path d="M1150.85,1329.5S2198,1025,2383,978s617,173,617,173v181Z" transform="translate(2.61)" style="fill:#ffbe82"/><path d="M0,1227s601-182,816-312,764.17,382.87,1915.08,382.87L0,1332Z" transform="translate(2.61)" style="fill:#ffcf75"/><g style="clip-path:url(#clip-path-5)"><path d="M1135,937s-200-45-216,40,264,59,281,137S-2.61,1263.37-2.61,1263.37l4.54-92.88L830,857l238,44Z" transform="translate(2.61)" style="fill:#f2a75e"/></g><rect x="2.61" y="1281" width="3000" height="719" style="fill:#f58f2f"/><g style="clip-path:url(#clip-path-6)"><path d="M0,1589.52S964,1420,1177,1425s1823,209.24,1823,209.24V1281H0v308.52" transform="translate(2.61)" style="fill:#f59e4c"/></g><path d="M0,1192.55s14.42-39.27,14.42-64C14.42,1073.83-27.16,902,46.16,902s14.23,194.79,13.13,247.32,3.28,104,30.64,104,27.36-63.47,19.7-83.17,12-71.13,46-38.3,8.76,163.06-52.53,177.28-42.67,144.46-42.67,144.46L.27,1461.25Z" transform="translate(2.61)" style="fill:#4ac200"/><g style="clip-path:url(#clip-path-7)"><path d="M101.42,1168.54s32.83-32.83,47.06-8.75,4.38,77.69-12,104-61.28,30.64-74.41,58C50.66,1345.43,0,1414,0,1414v55l66.4,3.77,2.19-41.59,6.57-82.07L96,1320.65l40.49-15.32L166,1257.18l14.23-79.89L164.9,1118.2l-41.58-9.85-20.79,29.55Z" transform="translate(2.61)" style="fill:#3ea300"/><path d="M-2.54,958.43s23-30.64,46-28.46,25.17,78.8,10.95,118.19S41.27,1224.35,74.1,1233.11l-4.37-41.59L74.06,1116l12-84.26,7.66-72.23-13.13-56.9-26.26-12L22.59,892.8l-19.66,24Z" transform="translate(2.61)" style="fill:#3ea300"/></g><path d="M75.83,941.92c8.44-5.55,16.78-11.28,25.37-16.58a.37.37,0,0,0,.06-.53.36.36,0,0,0-.44-.12,185.72,185.72,0,0,0-25.75,15.93c-.74.57-.06,1.84.76,1.3Z" transform="translate(2.61)" style="fill:#825500"/><path d="M54.15,1008.36a121.91,121.91,0,0,0,14.53-11.5.8.8,0,1,0-1-1.25,123.2,123.2,0,0,0-15.11,10.76c-1.1.9.36,2.81,1.54,2Z" transform="translate(2.61)" style="fill:#825500"/><path d="M71.75,1040.87c4.75,1.56,9.16,4,14.27,4.23a1,1,0,0,0,.49-1.83c-4.35-2.64-9.43-3-14.24-4.3a1,1,0,0,0-.52,1.9Z" transform="translate(2.61)" style="fill:#825500"/><path d="M1.4,970.05c5.3,4.23,10.48,8.46,16.34,11.89,1,.61,2.25-.86,1.31-1.69-5.1-4.49-10.73-8.1-16.41-11.82C1.64,967.8.47,969.31,1.4,970.05Z" transform="translate(2.61)" style="fill:#825500"/><path d="M18.42,903.45c3.4,4.17,6.58,8.65,10.8,12,.55.44,1.44-.11,1-.8-2.79-4.72-6.82-8.56-10.51-12.57-.83-.9-2.07.41-1.32,1.33Z" transform="translate(2.61)" style="fill:#825500"/><path d="M2.84,1029.38c4.68,2.69,9,5.15,14.22,6.63a.85.85,0,0,0,.65-1.54c-4.39-3.19-9-5-14-7.06-1.15-.46-1.86,1.38-.83,2Z" transform="translate(2.61)" style="fill:#825500"/><path d="M43.15,943.23c2.76,3.69,4.48,8.16,7.48,11.61a1.23,1.23,0,0,0,1.74,0,1.22,1.22,0,0,0,.34-.83c-.36-4.7-3.54-9-6.32-12.63C44.94,939.46,41.69,941.29,43.15,943.23Z" transform="translate(2.61)" style="fill:#825500"/><path d="M64.82,1100.35c3.68-2.21,7.54-4.25,11.41-6.11.71-.34.21-1.54-.54-1.28a53.14,53.14,0,0,0-11.87,5.69c-1.06.68-.1,2.36,1,1.7Z" transform="translate(2.61)" style="fill:#825500"/><path d="M4.67,1104c3.71,3.38,7.24,6.5,11.79,8.7a1,1,0,0,0,1.26-.64,1,1,0,0,0-.11-.85c-3.32-3.81-7.26-6.4-11.49-9.08C5,1101.41,3.66,1103.13,4.67,1104Z" transform="translate(2.61)" style="fill:#825500"/><path d="M52.08,1122.59a79.47,79.47,0,0,0-11.58,11.83c-.7.9.47,2.18,1.29,1.29,3.74-4,7.46-8.16,11.33-12.08a.71.71,0,1,0-1-1Z" transform="translate(2.61)" style="fill:#825500"/><path d="M1.41,1171.37c1.91,1.47,3.78,3,5.58,4.61a29.34,29.34,0,0,0,4.88,3.94c.76.44,1.76-.46,1.25-1.25-2.46-3.77-7-6.53-10.68-9.06-1.1-.76-2,1-1,1.76Z" transform="translate(2.61)" style="fill:#825500"/><path d="M42.29,1182.49c-2.79,3.41-6,6.63-7.86,10.67a.81.81,0,0,0,1.27,1c3.41-2.84,5.69-6.79,8.25-10.37.69-1-.89-2.2-1.66-1.28Z" transform="translate(2.61)" style="fill:#825500"/><path d="M64.26,1164.31c-3.73,2.44-9.14,4.88-10.9,9.22-.29.7.53,1.34,1.16,1.17A12.79,12.79,0,0,0,60,1171c1.79-1.77,3.66-3.42,5.61-5,1-.79-.29-2.39-1.32-1.71Z" transform="translate(2.61)" style="fill:#825500"/><path d="M24.37,1333.8a76.41,76.41,0,0,0-6,10.32.84.84,0,1,0,1.45.86,76.48,76.48,0,0,0,5.34-10.72.45.45,0,0,0-.78-.46Z" transform="translate(2.61)" style="fill:#825500"/><path d="M34.87,1356.89c-3.88,1.95-7.48,4.17-9.95,7.8a.92.92,0,0,0,.36,1.25.94.94,0,0,0,.89,0c3.4-2.27,6.26-5.16,9.55-7.59a.85.85,0,0,0-.85-1.46Z" transform="translate(2.61)" style="fill:#825500"/><path d="M14.82,1394.36c1.69,2.15,3.59,4.08,5.46,6.06a.53.53,0,0,0,.83-.64c-1.52-2.37-3-4.74-4.75-7-.86-1.11-2.39.44-1.54,1.54Z" transform="translate(2.61)" style="fill:#825500"/><path d="M65.34,1366c-4,3.48-8.5,7-11.38,11.46-.47.73.5,1.81,1.25,1.25,4.26-3.22,7.57-7.74,11.18-11.66a.74.74,0,0,0-.31-1,.76.76,0,0,0-.69,0Z" transform="translate(2.61)" style="fill:#825500"/><path d="M65.65,1329.75c4.7,4.36,9.27,8.86,14,13.24.31.29.87-.09.61-.46a56.21,56.21,0,0,0-14-13.56c-.46-.32-1,.4-.59.78Z" transform="translate(2.61)" style="fill:#825500"/><path d="M104.42,1304a92.53,92.53,0,0,0-.47,10.66.53.53,0,0,0,.68.32.51.51,0,0,0,.32-.32c.28-3.55.47-7.11.83-10.66.09-.89-1.32-.89-1.41,0Z" transform="translate(2.61)" style="fill:#825500"/><path d="M108,1280.34a117.31,117.31,0,0,0,12-2.8.39.39,0,0,0-.21-.75,114.77,114.77,0,0,0-12,2.81c-.49.12-.28.85.2.74Z" transform="translate(2.61)" style="fill:#825500"/><path d="M60.19,1278.81a116.49,116.49,0,0,0-11.36,14.45.84.84,0,0,0,1.33,1,116.29,116.29,0,0,0,11-14.75c.37-.56-.5-1.24-.94-.73Z" transform="translate(2.61)" style="fill:#825500"/><path d="M30.93,1249.05c2,2.22,3.93,5,6.51,6.6a.53.53,0,0,0,.72-.21.52.52,0,0,0,0-.51c-1.54-2.61-4.31-4.56-6.48-6.62a.53.53,0,0,0-.75.74Z" transform="translate(2.61)" style="fill:#825500"/><path d="M67,1219.18c-3.62,5.34-8.18,10-10.58,16-.28.71.81,1.33,1.3.75,4.12-5,6.35-11.07,10-16.39.27-.41-.39-.8-.67-.39Z" transform="translate(2.61)" style="fill:#825500"/><path d="M89.94,1249.94c.76,2.45,1.53,4.9,2.23,7.37.64,2.31,1.11,4.46,2.55,6.41.38.52,1.33.41,1.31-.35-.07-2.41-1-4.4-1.91-6.59-1-2.39-1.9-4.81-2.82-7.22-.32-.83-1.63-.51-1.36.38Z" transform="translate(2.61)" style="fill:#825500"/><path d="M108.74,1211.69c3.6,4.7,6.54,10.77,11.37,14.28.7.51,1.33-.44,1-1.06-2.35-5.37-7.67-9.54-11.43-14-.46-.54-1.43.19-1,.77Z" transform="translate(2.61)" style="fill:#825500"/><path d="M138.76,1246.69c-1.94,2-3.86,4.06-5.67,6.21-.37.45.22,1.06.65.65,2-1.93,3.95-4,5.86-6,.52-.57-.31-1.41-.84-.85Z" transform="translate(2.61)" style="fill:#825500"/><path d="M155.33,1268.34c-3.51-2.46-7-5.5-11.44-5.67-1.13-.05-1.31,1.39-.53,2,3.37,2.47,7.7,2.91,11.47,4.56a.48.48,0,0,0,.67-.18.49.49,0,0,0-.17-.67h0Z" transform="translate(2.61)" style="fill:#825500"/><path d="M171.27,1209.27c-4.11,2.2-8.2,4.33-12.11,6.88a.92.92,0,0,0,.93,1.58c4.14-2.13,8-4.64,12-7.12a.78.78,0,0,0-.78-1.34Z" transform="translate(2.61)" style="fill:#825500"/><path d="M174.68,1167c-4.26,5.22-9.12,10.11-12.78,15.79-.49.75.59,1.53,1.21.93,4.87-4.67,8.51-10.62,12.28-16.17C175.68,1167.13,175,1166.55,174.68,1167Z" transform="translate(2.61)" style="fill:#825500"/><path d="M125.57,1115.68c3,6.14,5.49,12.5,8.57,18.59.27.55,1.1.16,1-.4-1.65-6.8-4.91-12.86-8.74-18.65a.45.45,0,0,0-.64-.09.44.44,0,0,0-.15.55Z" transform="translate(2.61)" style="fill:#825500"/><path d="M159.87,1127.62c-2.12,3.75-4.57,7.29-6.48,11.15-.22.44.35,1,.71.56,2.87-3.34,4.81-7.21,6.74-11.15a.57.57,0,0,0-1-.56Z" transform="translate(2.61)" style="fill:#825500"/><path d="M105.78,1168.42c2.06,1.51,3.91,3.28,6,4.69.61.41,1.25-.48.76-1a27,27,0,0,0-6.33-4.48c-.52-.31-.92.44-.46.78Z" transform="translate(2.61)" style="fill:#825500"/><path d="M131.92,1176.67c2.22,4.93,4.12,10,7.63,14.22.58.69,1.49-.19,1.16-.89-2.24-4.85-5.55-9-8-13.79-.28-.53-1-.06-.79.46Z" transform="translate(2.61)" style="fill:#825500"/><polygon points="2.61 1464 2.61 1513 19.81 1513 38.11 1494.7 27.66 1462.02 2.61 1464" style="fill:#f2a843"/><polygon points="2.86 1435.63 79.94 1425.42 110 1445.03 27.66 1469.87 2.61 1468.27 2.86 1435.63" style="fill:#ffdb89"/><polygon points="110 1445.03 127 1463.33 129.61 1493.39 19.81 1513 27.66 1469.87 43.34 1452.87 110 1445.03" style="fill:#e27013"/><path d="M137.61,1500.44S215.3,1442,200.3,1441s-74.7,51.16-74.7,51.16S158.3,1424,143.3,1428s-29.24,68.3-29.24,68.3S95.3,1431,82.3,1424s20.89,73.21,20.89,73.21S74.3,1457,61.3,1456s25.5,37.5,25.5,37.5-43.2-25.6-48.85-22,43.94,30.76,43.94,30.76Z" transform="translate(2.61)" style="fill:#3ea300"/><g style="clip-path:url(#clip-path-8)"><path d="M189.3,1463s0-12-8-9-49,35-49,35l-2-3,29-26,35-22,12,2,1,6Z" transform="translate(2.61)" style="fill:#4ecc00"/><path d="M146.3,1452s-4-13-8-9-20.9,50.42-20.9,50.42l-5.18-2.28L117.3,1471l11-31,10-16h10l4,7Z" transform="translate(2.61)" style="fill:#4ecc00"/><path d="M100.3,1450s-9-9-11-5,17.6,50,17.6,50l-3.71,2.21L95.42,1478,82.3,1450l-7-26.43,7-5.57,13,12Z" transform="translate(2.61)" style="fill:#4ecc00"/><path d="M85.71,1473.85S73.3,1469,73.3,1474s20,26,20,26l-25-22-14-22,7-6,12,7,12.41,16.85" transform="translate(2.61)" style="fill:#4ecc00"/><path d="M60.3,1474s-17.78,4.12-13.39,7.06S42.3,1485,42.3,1485l-9-14,4.2-4.51Z" transform="translate(2.61)" style="fill:#4ecc00"/></g><path d="M1278,964.52c1,30,5,72,29,70s14-91,6-138-21-196,19-197,29,103,26,149-4,111,20,107,20-70,13-88,1-49,24-48,30,147.39-6.5,163.5c-34,15-50.5,22.5-50.5,51.5s55,31,71,7-11-83,16-93,34,49,26,98-108,45-110,72,7,174,9,191-29,19-45,12,2-189-19-202-59-27-64-102-1-177,22-179S1278,964.52,1278,964.52Z" transform="translate(2.61)" style="fill:#74c244"/><g style="clip-path:url(#clip-path-9)"><path d="M1298,760.52s28-39,39-21,18,54,8,96,7.68,125.15,25.34,118.58,1.66-26.58,1.66-26.58l-6-39,1-59-1-92-15-45-29-1-17,21Z" transform="translate(2.61)" style="fill:#53ad1c"/><path d="M1385,862.52s22-29,32-11,14,71,3,95-58.41,47-54.2,66,22.2-4,22.2-4l34-20,8.4-32.5,7.6-29.5v-87l-20-31-25,6-11,24Z" transform="translate(2.61)" style="fill:#53ad1c"/><path d="M1240,876.52s18-22,26-9-25,180,41,166l-16-25-6-44,2-66-3-48-17-22-19,6Z" transform="translate(2.61)" style="fill:#53ad1c"/><path d="M1421,988.52s34-28,41-2,1,74-28,83-81,29-73,51,40-11,40-11l61-29,12-19,8-57-8-40-19-27-22,7Z" transform="translate(2.61)" style="fill:#53ad1c"/><path d="M1361,1120.52s0,163-8,176-29,15-41,0l4,29,17,5,42-4,6-19-20-187" transform="translate(2.61)" style="fill:#3ea300"/></g><path d="M1349.9,693.38c-3.82,7.48-7.94,15-9.64,23.35a1.13,1.13,0,0,0,2,.86c4.17-7.34,6.4-15.62,9.13-23.56a.85.85,0,0,0-1.54-.65Z" transform="translate(2.61)" style="fill:#825500"/><path d="M1295.18,739c4.43,3.91,8.51,8.31,13.43,11.61.72.49,1.8-.51,1.25-1.25-3.66-4.81-8.62-8.38-13.4-12-1-.73-2.17.87-1.28,1.65Z" transform="translate(2.61)" style="fill:#825500"/><path d="M1339.74,753.28c-3.22,5.43-7.42,10.07-9.91,15.93-.35.82.7,1.93,1.38,1.06,4-5.06,6.07-11,9.32-16.52a.45.45,0,0,0-.19-.62.45.45,0,0,0-.6.15Z" transform="translate(2.61)" style="fill:#825500"/><path d="M1364.11,782.93c-5.3,4.83-11.15,9.3-15.06,15.38-.6.92.72,1.88,1.49,1.15,5.16-4.93,9.06-10.92,14.17-15.93a.42.42,0,0,0-.6-.6Z" transform="translate(2.61)" style="fill:#825500"/><path d="M1296.73,822.52c2.65,1.87,5.32,3.71,7.94,5.61,2.34,1.68,4.49,3.94,7.24,4.88.65.22,1-.62.62-1.06-1.88-2.19-4.82-3.36-7.23-4.88-2.74-1.73-5.43-3.52-8.15-5.28-.46-.3-.86.42-.42.73Z" transform="translate(2.61)" style="fill:#825500"/><path d="M1325.34,821l4.33,4.4a15.35,15.35,0,0,0,4.56,3.69c1.16.5,2.66-.6,1.87-1.88a15,15,0,0,0-4.29-4l-5.19-3.82c-1-.73-2.1.82-1.28,1.65Z" transform="translate(2.61)" style="fill:#825500"/><path d="M1360.31,842.82c-5.28,5.2-11,11.14-13.79,18.12-.27.69.76,1.26,1.23.72,4.92-5.63,8.68-12.08,13.8-17.59a.88.88,0,0,0,0-1.25.89.89,0,0,0-1.25,0Z" transform="translate(2.61)" style="fill:#825500"/><path d="M1362,896.06c-2.88,5.29-6.38,10.17-9.19,15.51-.3.57.49,1.28.94.73,3.93-4.87,6.38-10.15,9.1-15.75C1363.12,896,1362.31,895.49,1362,896.06Z" transform="translate(2.61)" style="fill:#825500"/><path d="M1308.85,888.55a95.75,95.75,0,0,0,8.63,6.79.64.64,0,0,0,.87-.26.65.65,0,0,0-.1-.74,95.34,95.34,0,0,0-8.8-6.57c-.45-.33-1,.41-.6.77Z" transform="translate(2.61)" style="fill:#825500"/><path d="M1329.82,938.87c-2.78,5.28-6,10.46-7.84,16.15-.33,1,1.06,1.45,1.6.68,3.37-4.83,5.56-10.45,8.06-15.76.57-1.22-1.18-2.28-1.82-1.07Z" transform="translate(2.61)" style="fill:#825500"/><path d="M1243.11,845.16c4.51,5.89,7.74,12.6,12.44,18.38.37.44,1.23,0,1-.59-3-7.14-8-12.34-12.94-18.17C1243.38,844.5,1242.89,844.87,1243.11,845.16Z" transform="translate(2.61)" style="fill:#825500"/><path d="M1281,883.15c-3,5.91-6.82,11.18-9.29,17.43-.37.92,1,1.42,1.54.65,3.58-5.65,5.54-11.74,8.54-17.62C1282.05,883.09,1281.26,882.61,1281,883.15Z" transform="translate(2.61)" style="fill:#825500"/><path d="M1237.91,905.45c2.42,4.75,4.67,9.42,8.49,13.22a.67.67,0,0,0,1-.81c-2.55-4.56-6-8.47-8.74-12.87a.45.45,0,0,0-.64-.09.44.44,0,0,0-.15.55Z" transform="translate(2.61)" style="fill:#825500"/><path d="M1261.61,946.21c-1.67,4.1-4,8.29-4.81,12.66a.92.92,0,0,0,1.67.71c2.27-3.91,3.28-8.68,4.7-12.94.34-1-1.17-1.37-1.56-.43Z" transform="translate(2.61)" style="fill:#825500"/><path d="M1282.22,963c-3.9,6.12-7.72,11.39-8.77,18.77-.1.76.92,1.38,1.35.57,3.28-6.09,4.93-12.85,8.15-18.92a.41.41,0,0,0-.16-.57.41.41,0,0,0-.57.15Z" transform="translate(2.61)" style="fill:#825500"/><path d="M1236.85,996.66a18.22,18.22,0,0,0,5.63,4.05.42.42,0,1,0,.43-.73,24.75,24.75,0,0,1-5-4.36c-.61-.72-1.71.35-1,1Z" transform="translate(2.61)" style="fill:#825500"/><path d="M1239.6,1054.74a58.25,58.25,0,0,0,12.23-8.6c1-1-.33-2.81-1.53-2a84.24,84.24,0,0,0-11.38,9.71.56.56,0,0,0,.68.88Z" transform="translate(2.61)" style="fill:#825500"/><path d="M1272,1107.64c3.68-8.25,8-16.13,11.5-24.5.22-.53-.61-.82-.9-.38-5,7.78-8.17,15.94-11.5,24.5C1270.9,1107.77,1271.78,1108.15,1272,1107.64Z" transform="translate(2.61)" style="fill:#825500"/><path d="M1301.76,1036.72l-.27,8.56a.46.46,0,0,0,.91,0l.35-8.56a.5.5,0,0,0-1,0Z" transform="translate(2.61)" style="fill:#825500"/><path d="M1320.7,1059.88c-3.3,3.59-6.77,7.4-9.13,11.69a.62.62,0,0,0,.22.86.63.63,0,0,0,.87-.22h0c2.91-3.91,5.45-8,8.64-11.73C1321.64,1060.07,1321.07,1059.48,1320.7,1059.88Z" transform="translate(2.61)" style="fill:#825500"/><path d="M1315,1015.13c3.48,3.27,7.41,7,11.81,8.91.4.18.92-.33.52-.66-3.77-3.13-8-5.58-11.78-8.8-.38-.32-.92.2-.55.55Z" transform="translate(2.61)" style="fill:#825500"/><path d="M1358.87,971.81c-3,4.35-7.79,8.34-9.63,13.37-.39,1.06,1,1.55,1.71,1,4.14-3.3,6.17-9.37,8.77-13.86a.48.48,0,0,0-.18-.67.49.49,0,0,0-.67.17Z" transform="translate(2.61)" style="fill:#825500"/><path d="M1385,943q3.46,5.46,6.9,11a.42.42,0,0,0,.58.11.41.41,0,0,0,.14-.54,70.47,70.47,0,0,0-6.41-11.23c-.51-.73-1.7-.07-1.21.71Z" transform="translate(2.61)" style="fill:#825500"/><path d="M1389.07,886.26c3.6,3,7,6.21,11.27,8.1a1,1,0,1,0,1.24-1.6h0c-3.19-3.45-7.35-5.6-11.32-8-.93-.58-2.07.82-1.19,1.54Z" transform="translate(2.61)" style="fill:#825500"/><path d="M1399.3,820.15c1.39,5.05,1.67,10.48,2.33,15.68a.81.81,0,0,0,1.61,0c.12-5.67-1.3-10.59-2.78-16a.6.6,0,1,0-1.16.32Z" transform="translate(2.61)" style="fill:#825500"/><path d="M1429.85,834.92c-3.35,4.39-6.65,8.78-9.79,13.33-.29.42.4,1,.72.55,3.45-4.37,6.7-8.85,9.92-13.38C1431.08,834.89,1430.23,834.42,1429.85,834.92Z" transform="translate(2.61)" style="fill:#825500"/><path d="M1437.41,875.78c-3.76,6.63-8.87,12.52-12.07,19.44-.45,1,.77,2.15,1.61,1.24,5.23-5.74,8-13.23,11.37-20.15.29-.6-.57-1.13-.91-.53Z" transform="translate(2.61)" style="fill:#825500"/><path d="M1433.44,936.87c-4.88-2-9.69-4.2-14.71-5.85a.53.53,0,0,0-.7.3.52.52,0,0,0,.29.7c4.63,2.54,9.52,4.56,14.33,6.75a1,1,0,0,0,.79-1.87h0Z" transform="translate(2.61)" style="fill:#825500"/><path d="M1401,996.49a139.2,139.2,0,0,0-1.58-14.41.51.51,0,0,0-1,.14,139.6,139.6,0,0,0,1.44,14.43c.11.67,1.21.51,1.18-.16Z" transform="translate(2.61)" style="fill:#825500"/><path d="M1362.17,1026.57c-4.35,3.55-8.64,7.19-12.05,11.67-.55.72.6,1.53,1.21.94,4-3.84,7.54-8.08,11.49-12,.43-.42-.2-1-.65-.65Z" transform="translate(2.61)" style="fill:#825500"/><path d="M1385.59,1054.67c3.12,4.47,5.91,9.19,8.57,13.94.23.4.79.05.61-.35a74.94,74.94,0,0,0-8.39-14c-.34-.46-1.13,0-.79.46Z" transform="translate(2.61)" style="fill:#825500"/><path d="M1425.42,1041.12c1,1.4,2,2.82,2.95,4.25a11.83,11.83,0,0,0,2.82,3.36.64.64,0,0,0,.87-.25.62.62,0,0,0,.06-.46,11.91,11.91,0,0,0-2.57-3.56c-1.16-1.28-2.29-2.57-3.41-3.89C1425.81,1040.17,1425.14,1040.7,1425.42,1041.12Z" transform="translate(2.61)" style="fill:#825500"/><path d="M1431,1003.72c2.89,2.42,5.68,5.18,8.92,7.12a.56.56,0,0,0,.77-.19.57.57,0,0,0-.09-.69c-2.66-2.68-6-4.73-9-7-.42-.3-1,.39-.55.72Z" transform="translate(2.61)" style="fill:#825500"/><path d="M1455.08,984.73c-2.29,3.37-4.38,6.81-5,10.89-.12.83,1,1.53,1.48.63,1.75-3.54,2.85-7.33,4.59-10.88a.62.62,0,0,0-.23-.86.62.62,0,0,0-.86.22Z" transform="translate(2.61)" style="fill:#825500"/><path d="M1468.51,953.57c-3.3,4.15-7.36,8.67-9.18,13.69a.68.68,0,0,0,.52.81.66.66,0,0,0,.6-.16c3.44-4.14,5.75-9.28,8.94-13.66.37-.51-.48-1.18-.88-.68Z" transform="translate(2.61)" style="fill:#825500"/><path d="M1450.69,1067.61c1.47,4.62,2.66,9.32,4.09,14,.2.65,1.34.57,1.24-.17a46.15,46.15,0,0,0-4.37-14.18c-.25-.54-1.14-.16-1,.4Z" transform="translate(2.61)" style="fill:#825500"/><path d="M1411.33,1100.37c.61-1.81,1.36-3.64,1.79-5.49s.66-3.82,1-5.71a.63.63,0,0,0-1.22-.34c-.66,1.8-1.44,3.6-2,5.43a57.46,57.46,0,0,0-1.19,5.66.85.85,0,0,0,1.63.45Z" transform="translate(2.61)" style="fill:#825500"/><path d="M1358.7,1087.79a0,0,0,0,0,0-.1h0a0,0,0,0,0,0,.1Z" transform="translate(2.61)" style="fill:#825500"/><path d="M1352.88,1094.14c-1.46,2-3,4-4.36,6.06-.21.33.3.74.56.43,1.6-2,3.07-4,4.59-6,.35-.47-.44-.94-.79-.46Z" transform="translate(2.61)" style="fill:#825500"/><path d="M1357.91,1077.44c2.47,2.63,4.87,6,8,7.76a.74.74,0,0,0,1-.31.76.76,0,0,0,0-.69c-1.9-3.11-5.29-5.4-8-7.79a.74.74,0,0,0-1,.31.76.76,0,0,0,0,.69Z" transform="translate(2.61)" style="fill:#825500"/><path d="M1307.88,1146.48c2.6,3,5.33,6.11,8.88,7.91a.88.88,0,0,0,1.21-.31.89.89,0,0,0-.14-1.07c-2.72-2.79-6.13-4.86-9.1-7.37a.6.6,0,0,0-.85.84Z" transform="translate(2.61)" style="fill:#825500"/><path d="M1365.48,1142.89c-4.25,5.65-9.16,11.11-12.45,17.38-.35.67.57,1.49,1.11.85,4.63-5.47,8.11-11.85,12.37-17.62.46-.63-.58-1.21-1-.61Z" transform="translate(2.61)" style="fill:#825500"/><path d="M1335.42,1134a69.38,69.38,0,0,0,4.87,8c.36.48,1-.13.77-.6a70.51,70.51,0,0,0-4.72-7.93.53.53,0,0,0-.72-.19A.52.52,0,0,0,1335.42,1134Z" transform="translate(2.61)" style="fill:#825500"/><path d="M1338.68,1185.88c-3.11,4.59-6.55,9.27-8.55,14.48-.31.8.85,1.12,1.29.54,3.31-4.41,5.74-9.52,8.66-14.2.55-.89-.82-1.67-1.4-.82Z" transform="translate(2.61)" style="fill:#825500"/><path d="M1371.09,1265.52c-4.65,5.52-9.88,11-12.2,18a1,1,0,0,0,1.64,1c4.83-5.33,7.87-12,12-17.84.63-.87-.8-2-1.49-1.15Z" transform="translate(2.61)" style="fill:#825500"/><path d="M1312.14,1252.18c3.42,3.26,6.38,6.92,9.79,10.18.44.42,1.29-.16.88-.68-2.91-3.78-6.59-6.85-10.17-10C1312.3,1251.39,1311.81,1251.86,1312.14,1252.18Z" transform="translate(2.61)" style="fill:#825500"/><path d="M1338,1230.79c2.38,3.86,4.4,7.92,7.19,11.52.5.65,1.58,0,1.35-.78-1.43-4.39-4.12-8.07-6.9-11.69-.72-.94-2.31-.12-1.64,1Z" transform="translate(2.61)" style="fill:#825500"/><path d="M1331.1,1297.08a88.4,88.4,0,0,1,5.84,15.24c.29,1,1.89.56,1.56-.43a95.84,95.84,0,0,0-6.79-15.17c-.22-.39-.81,0-.61.36Z" transform="translate(2.61)" style="fill:#825500"/><polygon points="1448.42 1285.98 1473.14 1338.7 1477.61 1361.04 1387.65 1372.06 1315.86 1381 1242.58 1338.4 1261.35 1302.36 1357.56 1269.89 1448.42 1285.98" style="fill:#f5c250"/><g style="clip-path:url(#clip-path-10)"><path d="M1314.44,1279.42c13.7-.59,36.94.9,22.64,6.85s-42.6,12.22-35.45,17.88,20.26,4.76,24.43,7.74-15.79,9.83-19.06,14.6,1.48,20.25-8.64,19.06-47.07-39.62-47.07-39.62l43.49-20Z" transform="translate(2.61)" style="fill:#ffd575"/><polygon points="1462.72 1291.64 1369.8 1299.53 1368.29 1319.34 1376.33 1381 1486.55 1363.42 1462.72 1291.64" style="fill:#e98428"/><g style="clip-path:url(#clip-path-11)"><polygon points="1469.27 1363.42 1457.65 1345.55 1403.74 1347.64 1371.56 1327.68 1376.53 1370.21 1411.48 1367.89 1425.78 1370.87 1469.27 1363.42" style="fill:#c9670e"/></g><polygon points="1304.69 1342.13 1369.63 1305.19 1382.14 1376.38 1313.03 1384.43 1304.69 1342.13" style="fill:#f2a843"/><polygon points="1257.92 1299.53 1309.75 1340.34 1315.71 1381.15 1313.03 1384.43 1237.97 1338.25 1257.92 1299.53" style="fill:#e27013"/><g style="clip-path:url(#clip-path-12)"><polygon points="1273.56 1308.32 1277.73 1349.42 1281.31 1341.98 1280.12 1353.89 1284.29 1357.77 1286.37 1354.49 1292.88 1372.03 1237.82 1338.4 1257.77 1299.68 1273.56 1308.32" style="fill:#c9670e"/></g></g><path d="M1390.54,1444.3s-36.2-30.5-41.2-37.5,41,8,41,23,9-34,23-42-11.95,49.94-11.95,49.94,1.14-1.73,3.14-4.52c7.37-10.26,26.5-34.92,43.81-40.42,22-7-32.45,44-32.45,44s63-23.92,57.45-16c-7,10-42.95,25.09-42.95,25.09Z" transform="translate(2.61)" style="fill:#3ea300"/><g style="clip-path:url(#clip-path-13)"><path d="M1370.34,1427.8s-16-18-7-16,25,9,28,16l-6-10-12-8-20-7-6,1-1,3Z" transform="translate(2.61)" style="fill:#4ecc00"/><path d="M1391.34,1427.8s15-25,19-23,1.08,8.3,1.08,8.3l5.92-12.3,2-12-3-4-4,1-5,6-10,16Z" transform="translate(2.61)" style="fill:#4ecc00"/><path d="M1429.34,1425.8s13-19,14-24-11.6,2.24-16.8,5.62,1.8-5.62,1.8-5.62l12-8,11-3,4,1v6Z" transform="translate(2.61)" style="fill:#4ecc00"/><path d="M1429.51,1431.81s37.83-10,36.83-7-8,9-8,9l12-8,5-6-2-2h-5l-31,10-7.83,4" transform="translate(2.61)" style="fill:#4ecc00"/></g><path d="M1292.34,1388.8s-44-12-59-20,61.49,10,61.49,10-60.28-37.2-47.39-41.6,69.9,39.6,69.9,39.6-34.78-58.11-30.89-72.56,40.89,69.56,40.89,72.56-7-57,0-66,7,66,6,71,21-61,27-51-10,51-10,51Z" transform="translate(2.61)" style="fill:#3ea300"/><g style="clip-path:url(#clip-path-14)"><path d="M1296.34,1346.8s-2-22,6-13,22,42,22,42l2.77-5.16-28.77-63.84-11-8-5.83,7.68Z" transform="translate(2.61)" style="fill:#4ecc00"/><path d="M1321.34,1339.8s4.53-12.08,8.27-5.54,4,15.25,4,15.25l3.72-5.71-5-36-6-2-5,15Z" transform="translate(2.61)" style="fill:#4ecc00"/><path d="M1342.34,1352.8s10-17,14-10-.06,17.9-.06,17.9l7.06-2.9,2-27-5-4h-6Z" transform="translate(2.61)" style="fill:#4ecc00"/><path d="M1253.34,1354.8s-2-9,6-9,49,30,49,30l6.9-2-15.9-14-35.2-20.55-14.8-6.45-7.15,3.76,3.15,9.24Z" transform="translate(2.61)" style="fill:#4ecc00"/><path d="M1233.34,1373.8s5-5,14-3,51,13,51,13l-.79-6.1-31.21-8.9-30-5-8,1Z" transform="translate(2.61)" style="fill:#4ecc00"/></g><path d="M402.88,304.19c-51.62-23.12-138.9-12.41-173.63,0s44.65-67,136.43-67,126.5,39.69,258,34.73c52.58-2,109.14-5,99.22,34.73S569.07,378.6,402.88,304.19Z" transform="translate(2.61)" style="fill:#fff1cf;opacity:0.409999996423721;isolation:isolate"/><path d="M1237.48,637.38c-109.58-23.91-246.93-28.68-278.79-15.94s17.53,14.34,12.75,28.68-95.59-3.19-108.33,15.93,28.67,31.86,149.75,19.12,213.47,4.78,267.64,0S1325.1,656.49,1237.48,637.38Z" transform="translate(2.61)" style="fill:#fff1cf;opacity:0.409999996423721;isolation:isolate"/><path d="M2904.74,1291.76s5.71-67.78,0-81.33-18.54-21.4-50.65-30-20-76.33-3.56-77.76,2.85,49.22,27.1,47.8,27.83-35,19.27-94.88S2896.18,908,2919,905.1s33.53,54.93,30,114.14.72,144.11,25,139.83,19.69-64.29,13.56-92.74c-11.5-53.33,12.27-51.95,12.27-51.95l.23,176.79s-43.44,6.45-43.89,16.41c-.72,15.69,5.7,74.19,5.7,74.19s-2.62,10.55-22,15.11S2904.74,1291.76,2904.74,1291.76Z" transform="translate(2.61)" style="fill:#74c244"/><g style="clip-path:url(#clip-path-15)"><path d="M2888.62,958.82s34.14-31.87,39.83-5.69-2.52,201.83,38,197.78h0l-3.87-28.18-8-61.47,4.56-74L2950,925.79l-15.94-30.73-31.87,2.28Z" transform="translate(2.61)" style="fill:#53ad1c"/><path d="M2834.73,1123.59s15.19-7.69,18.6,8.24,10.24,31.87,22.76,19.35-10.24-50.08-10.24-50.08l-22.76-9.1-8.36,31.59" transform="translate(2.61)" style="fill:#3ea300"/><polygon points="2980.01 1051.02 3002.61 1039.35 3002.61 1004.6 2985.7 1013.46 2980.01 1051.02" style="fill:#53ad1c"/><path d="M2896.58,1287.77s30.74,8,43.26-13.66,15.93-64.88,15.93-64.88l10.24,10.25,8,63.74-23.9,25-39.84-5.69Z" transform="translate(2.61)" style="fill:#53ad1c"/></g><path d="M2943.12,911.35c-3.19,4.49-6.69,8.82-9.25,13.71-.4.77.67,1.73,1.27,1,3.51-4.35,6.13-9.31,9-14.08.41-.67-.59-1.22-1-.61Z" transform="translate(2.61)" style="fill:#825500"/><path d="M2892.18,929c3.48,5.22,7,9.94,12.12,13.66.58.42,1.14-.46.73-.94-3.87-4.49-8.18-8.64-11.76-13.36C2892.79,927.73,2891.71,928.31,2892.18,929Z" transform="translate(2.61)" style="fill:#825500"/><path d="M2910.18,971.89c2.36,3.28,4.59,6.7,7.16,9.81.51.62,1.53-.18,1.11-.85-2.15-3.34-4.69-6.47-7.06-9.67-.53-.72-1.74,0-1.21.71Z" transform="translate(2.61)" style="fill:#825500"/><path d="M2951.64,963.6c-3.56,4.31-7.24,8.52-10.64,13-.88,1.15.95,2.4,1.93,1.49a69.83,69.83,0,0,0,10.7-12.93c.79-1.18-1.07-2.65-2-1.53Z" transform="translate(2.61)" style="fill:#825500"/><path d="M2932,1016.05c-2.73,3.85-5.5,7.64-7.91,11.7-.45.76.68,1.71,1.27,1,3-3.74,5.64-7.72,8.34-11.69.72-1-1-2-1.7-1Z" transform="translate(2.61)" style="fill:#825500"/><path d="M2882.7,1024.15a48,48,0,0,0,11.11,8.69,1,1,0,0,0,1-1.76,121.33,121.33,0,0,1-11-8.12c-.81-.7-2,.41-1.19,1.19Z" transform="translate(2.61)" style="fill:#825500"/><path d="M2892.46,1068.59a43.8,43.8,0,0,0,11.83.05c1-.17.77-1.81-.24-1.8-3.87,0-7.71.35-11.59.13C2891.4,1066.91,2891.46,1068.48,2892.46,1068.59Z" transform="translate(2.61)" style="fill:#825500"/><path d="M2943.92,1085.68c4.77,1.5,9.45,4.07,14.4,4.88.68.11,1.26-.88.51-1.22-4.61-2.1-10-2.58-14.82-4a.19.19,0,0,0-.19.17.19.19,0,0,0,.1.17Z" transform="translate(2.61)" style="fill:#825500"/><path d="M2950.69,1040.27c-3.77,3.67-8.37,7-11.09,11.61a.92.92,0,0,0,.36,1.25.94.94,0,0,0,.89,0c4.51-2.79,7.82-7.44,11.43-11.27a1.13,1.13,0,0,0-1.59-1.59Z" transform="translate(2.61)" style="fill:#825500"/><path d="M2892.24,1123.72c3.17,4.4,6.54,8.24,11.4,10.81a.88.88,0,0,0,1.21-.31.89.89,0,0,0-.14-1.07c-3.36-3.86-7.24-7.08-10.87-10.67-.79-.79-2.3.27-1.6,1.24Z" transform="translate(2.61)" style="fill:#825500"/><path d="M2875.4,1147.84c.38,3.21.76,6.41,1.33,9.59.12.67,1.2.51,1.17-.15-.15-3.17-.48-6.29-.81-9.44C2877,1146.77,2875.27,1146.76,2875.4,1147.84Z" transform="translate(2.61)" style="fill:#825500"/><path d="M2860.9,1114.66c-4.1,4.42-8.55,9-11.6,14.23a.6.6,0,0,0,.94.73c4.2-4.34,7.74-9.34,11.81-13.82C2862.75,1115,2861.62,1113.89,2860.9,1114.66Z" transform="translate(2.61)" style="fill:#825500"/><path d="M2827.77,1158.5c4.85.67,9.6,1.25,14.48.55a.75.75,0,0,0,0-1.43c-4.71-.78-9.47-.75-14.22-1-1.09-.07-1.37,1.78-.26,1.93Z" transform="translate(2.61)" style="fill:#825500"/><path d="M2867.91,1192.24a41,41,0,0,0,4.72-8.1c.25-.61-.71-1.15-1.12-.65a40.6,40.6,0,0,0-5,7.93.81.81,0,0,0,1.39.82Z" transform="translate(2.61)" style="fill:#825500"/><path d="M2915,1181.65a115.94,115.94,0,0,0,7.73,9.52c.76.79,2.2-.27,1.55-1.2a120.51,120.51,0,0,0-8-9.61c-.79-.9-2,.39-1.29,1.29Z" transform="translate(2.61)" style="fill:#825500"/><path d="M2958.52,1171.09c-2.76,3.77-6,7.43-7.94,11.68-.34.72.53,1.52,1.16.89,3.35-3.38,5.69-7.72,8.3-11.68C2960.67,1171,2959.18,1170.2,2958.52,1171.09Z" transform="translate(2.61)" style="fill:#825500"/><path d="M2961.35,1219.41c-4.19,4.7-8.48,9.34-12.2,14.43-.39.53.43,1.1.88.68a183.62,183.62,0,0,0,12.71-13.72c.83-.94-.55-2.34-1.39-1.39Z" transform="translate(2.61)" style="fill:#825500"/><path d="M2900.34,1236.69a46.93,46.93,0,0,0,7.66,9.09.86.86,0,0,0,1.24,0,.87.87,0,0,0,0-1.24,83.28,83.28,0,0,1-7.39-8.74C2901.21,1234.89,2899.7,1235.8,2900.34,1236.69Z" transform="translate(2.61)" style="fill:#825500"/><path d="M2960.48,1250.63c-4.37,4.4-9.31,8.6-12.43,14a.84.84,0,0,0,.41,1.13.86.86,0,0,0,.92-.13c4.57-4.16,7.92-9.54,11.95-14.2.5-.58-.3-1.4-.85-.85Z" transform="translate(2.61)" style="fill:#825500"/><path d="M2918.32,1274.91a25.25,25.25,0,0,0,4.85,6.66c1.15,1.08,2.62-.51,1.69-1.69a55.17,55.17,0,0,1-4.42-6.22,1.23,1.23,0,0,0-2.12,1.25Z" transform="translate(2.61)" style="fill:#825500"/><path d="M2982.72,1133.86c4,3.65,6.91,8.34,11.27,11.55,1,.75,2.28-.69,1.68-1.68-2.83-4.66-7.68-7.61-11.76-11.06-.82-.69-2,.45-1.19,1.19Z" transform="translate(2.61)" style="fill:#825500"/><path d="M2982.51,1064.63a121.28,121.28,0,0,1,11.93,7.44c.9.6,1.92-.75,1.15-1.49a42.56,42.56,0,0,0-12.05-7.71c-1.17-.54-2.21,1.16-1,1.76Z" transform="translate(2.61)" style="fill:#825500"/><path d="M2991.25,1196.89c.41-3,.92-6.1,1.17-9.16a.25.25,0,0,0-.48-.07c-.64,3-1,6.08-1.52,9.12a.42.42,0,1,0,.82.18A.2.2,0,0,0,2991.25,1196.89Z" transform="translate(2.61)" style="fill:#825500"/><path d="M1124.8,1636.49c-18.48-4.49,23.41-40.25,63.56-31.1S1185,1651.12,1124.8,1636.49Z" transform="translate(2.61)" style="fill:#d4751d"/><path d="M1220.14,1576.12c2.36-7.09,43.49-16.46,43.49-3.66S1213.45,1596.24,1220.14,1576.12Z" transform="translate(2.61)" style="fill:#d4751d"/><path d="M1168.29,1565.14c-21.75,5.49-10,11,8.36,9.15S1168.29,1565.14,1168.29,1565.14Z" transform="translate(2.61)" style="fill:#d4751d"/><path d="M100,1682c-22-3-4-29,9-32s45,2,45,8S100,1682,100,1682Z" transform="translate(2.61)" style="fill:#d4751d"/><path d="M318,1587c-48-11-86-4-108,3s59,10,95,14S318,1587,318,1587Z" transform="translate(2.61)" style="fill:#d4751d"/><path d="M227,1673c-16.12,0-21-3-25,4s35,15,44,12S230,1673,227,1673Z" transform="translate(2.61)" style="fill:#d4751d"/><path d="M191,1641c-13,0-9,7,4,6S201,1641,191,1641Z" transform="translate(2.61)" style="fill:#d4751d"/></g><g id="pseudo-words-character"><path d="M651.74,1433.76s10.77,70.77,9.23,84.61-43.31-22.16-80.88.46,41.28,78,116.26,18c7.69-6.15-10.67-46.59-16.87-92.52Z" transform="translate(2.61)" style="fill:#6a89ff"/><g style="clip-path:url(#clip-path-16)"><path d="M685.59,1463s1,52.72-1.82,62.51-41.26,26.71-67.41,11.33-50.76-6.15-52.3,0,27.69,27.69,27.69,27.69l39,5.79,41-5.79,30.44-19.08,6.17-17.53Z" transform="translate(2.61)" style="fill:#426aff"/></g><path d="M761,1438.38s7.69,78.45,0,86.14-66.15,6.16-63.07,50.77,104.61-29.23,109.22-36.92-18.46-61.53-18.46-118.45Z" transform="translate(2.61)" style="fill:#6a89ff"/><g style="clip-path:url(#clip-path-17)"><path d="M694.81,1556.83s13.85,15.38,29.23,13.84c12-1.19,66.15-26.15,70.76-33.84s-6.15-61.53,4.62-69.22,20,53.84,20,53.84l-9.23,33.84-64.26,35.26s-17.27,7.81-32.66,4.74S691.74,1575.29,694.81,1556.83Z" transform="translate(2.61)" style="fill:#426aff"/></g><path d="M655.59,1086.88s-52.3-43.08-40-109.22L638.67,973s-17.1,66.92,47.21,113.84c0,0-3.37,3.84-15.68,3.84S655.59,1086.88,655.59,1086.88Z" transform="translate(2.61)" style="fill:#6a89ff"/><g style="clip-path:url(#clip-path-18)"><path d="M607.13,1004.58s13.85,3.07,20,10.77,10.77,50.76,38.46,60,1.54-21.54,1.54-21.54-18.46-18.46-21.54-41.53-11.44-36.18-11.44-36.18l-34.71,13.1Z" transform="translate(2.61)" style="fill:#426aff"/></g><circle cx="622.82" cy="945.35" r="53.07" style="fill:#6989ff"/><g style="clip-path:url(#clip-path-19)"><path d="M571.75,906.13s55.38-9.23,78.45,15.38-18.46,92.3-72.3,60h0l12.31,16.92,18.46,6.16,41.53-6.16,20-23.07L681,949.2l-7.69-36.92-27.69-27.69-38.46,1.54Z" transform="translate(2.61)" style="fill:#426aff"/></g><g id="hand"><path d="M567.88,1210.58S442.25,1230.44,357.64,1054" transform="translate(2.61)" style="fill:none;stroke:#3d3c3f;stroke-miterlimit:10;stroke-width:9px"/><path d="M348.06,1157.37c6.88-17.31,33.84-105.76,34.44-165.19s28.55-76,46.36-95.33,78.94-88.91,62.75-131.34S405.85,749.89,379.94,792s-22.49,67.12-20.14,169.89-19.83,139.54-32.12,157-31.55,39.82-18.1,53S341.15,1174.76,348.06,1157.37Z" transform="translate(2.61)" style="fill:#e68d00"/><g style="clip-path:url(#clip-path-20)"><path d="M496.39,771.68s-9.91-38.49-64.39-7.07-70.28,86.73-67.47,146.91,17.55,155.46-58.49,266l-7.7-26.5,44.59-85,6-101.43-2.36-87.69,16.07-78.51,32-31.28,43.07-23.72L475.5,739l22.55,22.88Z" transform="translate(2.61)" style="fill:#b86800"/></g><path d="M486.68,782.06c.31,14.78-11.84,58.22-47.53,90.22s-56.72,20.7-60.81-.14,17.49-81.52,60.16-104.56S486.28,763.05,486.68,782.06Z" transform="translate(2.61)" style="fill:#ffb94d"/><g style="clip-path:url(#clip-path-21)"><path d="M415.34,775.87s37.92-12.1,31.05,42S400.15,898,385,893.59s16.88,21.77,16.88,21.77L462,870.22l35-62.66L491.57,741l-44.43-1.49Z" transform="translate(2.61)" style="fill:#ffca78"/></g><path d="M364.85,1017.51s16.47-26.26,7.61-33.78-15.35,1.27-16.39,13.72-6.68,31.46-6.68,31.46Z" transform="translate(2.61)" style="fill:#3d3c3f"/><path d="M354.52,1016.12c9.66-5.86,32.76-15.06,38.56-7.29s5.3,93-43.54,62.38C342.19,1066.6,338.82,1025.66,354.52,1016.12Z" transform="translate(2.61)" style="fill:#3d3c3f"/><g style="clip-path:url(#clip-path-22)"><path d="M359,1012.65s-17.51,70.5,34.19,47.69l-10.76,19.43-22.77-1.14L339,1065.83l7.21-50L359,1012.7" transform="translate(2.61)" style="fill:#252526"/></g></g><path d="M550.26,1389.92c-48.12-56.91-52.13-253.82,60.15-303s286.05-29.23,306.1,116.91-66.83,250.74-175.1,252.28C636.12,1457.57,598.38,1446.84,550.26,1389.92Z" transform="translate(2.61)" style="fill:#6989ff"/><g style="clip-path:url(#clip-path-23)"><path d="M673.28,1060S824,1063,861,1164.56c18.85,51.82-7.9,341.4-300,255.36l52.74,36.28s79.56,23.71,121.09,20.64,140.44-52,157.9-63.7,35.93-80.9,40.54-104,10.77-98.45,4.62-130.75-40-93.84-76.92-100-134.74-27.91-134.74-27.91Z" transform="translate(2.61)" style="fill:#426aff"/><path d="M744,1398.38c2.84-5.67,7.69-23.07,16.92-21.53s15.39,10.77,9.23,16.92S741,1404.54,744,1398.38Z" transform="translate(2.61)" style="fill:#426aff"/><path d="M784,1375.31c-.68-3.37,9.23-9.23,12.3-7.69S785.58,1383,784,1375.31Z" transform="translate(2.61)" style="fill:#426aff"/><path d="M845.57,1270.7c0-4.86,0-15.38,4.61-15.38s0,15.38-1.53,20S845.57,1273.78,845.57,1270.7Z" transform="translate(2.61)" style="fill:#426aff"/><path d="M851.72,1244.55c-2.06-.69,0-16.92,4.62-12.3S856.34,1246.09,851.72,1244.55Z" transform="translate(2.61)" style="fill:#426aff"/><path d="M722.5,1421.46c-5.5-2.75-7.69-10.77,1.54-12.31s13.85,3.08,12.31,7.69S725.58,1423,722.5,1421.46Z" transform="translate(2.61)" style="fill:#426aff"/><path d="M728.66,1399.92c-2.07-.69,3.07-6.15,6.15-4.61S733.27,1401.46,728.66,1399.92Z" transform="translate(2.61)" style="fill:#426aff"/></g><path d="M888.64,1218.4s95.83,73.68,90.76,112.3c-10,76.14-90,36.15-90,36.15" transform="translate(2.61)" style="fill:none;stroke:#3d3c3f;stroke-miterlimit:10;stroke-width:9px"/><path d="M783.27,1086.88s52.3-43.08,40-109.22L800.19,973s17.09,67-47.19,113.88c0,0,3.38,3.84,15.68,3.84S783.27,1086.88,783.27,1086.88Z" transform="translate(2.61)" style="fill:#6a89ff"/><g style="clip-path:url(#clip-path-24)"><path d="M797.88,998.42s10.77,15.39,16.92,21.54-20.15,55.34-20.15,55.34l24.77-21.5,15.38-64.61L797.88,983Z" transform="translate(2.61)" style="fill:#426aff"/></g><circle cx="821.26" cy="945.35" r="53.07" style="fill:#6989ff"/><g style="clip-path:url(#clip-path-25)"><path d="M785,904.27s49.76-13.53,62.07,23.39-13.85,81.53-69.23,56.92l15.39,13.84,21.11,7.43,23.5-1.27,21.51-13.67,18.48-29.41,1.54-30.76-13.8-33.84-40-13.85-36.92,9.23-3.61,12" transform="translate(2.61)" style="fill:#426aff"/></g><path d="M605.59,1164.56s64.61,55.38,224.6,9.23c0,0-26.82,141.58-156.91,126.14C582.52,1289.16,605.59,1164.56,605.59,1164.56Z" transform="translate(2.61)" style="fill:#2e5aff"/><g style="clip-path:url(#clip-path-26)"><path d="M733.27,1183s-10.77,113.84-130.75,81.53c0,0,15.38,41.54,76.91,46.15s92.3-21.54,115.37-41.53,49.23-93.84,47.69-104.61S733.27,1183,733.27,1183Z" transform="translate(2.61)" style="fill:#1b49f5"/><path d="M628.67,1173.79s13.84,40,24.61,40,29.23-27.69,29.23-27.69Z" transform="translate(2.61)" style="fill:#fff"/><path d="M750.19,1184.56s13.85,24.61,27.69,26.15,15.39-33.84,15.39-33.84Z" transform="translate(2.61)" style="fill:#fff"/><path d="M625.59,1289.16s26.15-29.22,36.92-29.22,23.08,46.15,23.08,46.15S634.82,1304.55,625.59,1289.16Z" transform="translate(2.61)" style="fill:#fff"/><g style="clip-path:url(#clip-path-27)"><path d="M634.82,1276.86s24.61,18.46,50.77,16.92l3.07,12.31-26.12-2.15-27.72-11.7-10.77-10.77Z" transform="translate(2.61)" style="fill:#dee4ff"/></g><path d="M742.5,1298.39s-7.69-36.92,3.08-44.61,49.22,15.39,49.22,15.39S764,1299.93,742.5,1298.39Z" transform="translate(2.61)" style="fill:#fff"/><g style="clip-path:url(#clip-path-28)"><path d="M782.5,1256.86s-30.77,27.69-46.15,29.23l1.54,12.3,20-7.69L781,1273.78l9.23-12.31Z" transform="translate(2.61)" style="fill:#dee4ff"/></g></g><ellipse cx="817.41" cy="940.74" rx="35.38" ry="34.61" style="fill:#fff"/><ellipse cx="622.05" cy="940.74" rx="35.38" ry="34.61" style="fill:#fff"/><ellipse cx="622.05" cy="930.4" rx="7.69" ry="11.11" style="fill:#3d3c3f"/><ellipse cx="818.95" cy="925.86" rx="7.69" ry="11.11" style="fill:#3d3c3f"/><g id="Layer_17" data-name="Layer 17"><polygon points="1060.61 1682 1784.61 1853 1694.9 2000 719.19 2000 257.61 1841 1060.61 1682" style="fill:#d4751d"/><g style="clip-path:url(#clip-path-29)"><polyline points="1075.61 1666 1233.61 1797 891.61 1962 539.61 1925 257.61 1841 321.61 1748 1075.61 1666" style="fill:#ab570a"/></g></g><polygon points="387.61 1377 286.09 1610.94 257.91 1839.32 572.91 1908.79 881.91 1925 1119.91 1771.01 965.61 1354 674.09 1343.48 387.61 1377" style="fill:#ffbd63"/><g style="clip-path:url(#clip-path-30)"><polygon points="321.09 1428.01 620.91 1566.07 572.91 1908.79 243.91 1850.9 271.91 1611.23 321.09 1428.01" style="fill:#e98428"/><g style="clip-path:url(#clip-path-31)"><polygon points="257.91 1839.32 338.09 1637.57 519.09 1645.68 627.09 1568.1 572.91 1908.79 257.91 1839.32" style="fill:#c9670e"/></g><polygon points="848.91 1599.65 620.91 1566.07 572.91 1908.79 881.91 1925 848.91 1599.65" style="fill:#e98428"/><polygon points="1008.59 1458.69 848.91 1599.65 881.91 1925 1119.91 1771.01 1008.59 1458.69" style="fill:#e27013"/><g style="clip-path:url(#clip-path-32)"><polygon points="1017.09 1647.99 1003.09 1807.77 991.09 1778.83 995.09 1825.14 981.09 1840.19 974.09 1827.46 952.24 1895.64 1137.09 1764.93 1070.09 1614.42 1017.09 1647.99" style="fill:#c9670e"/></g></g></g><g id="pseudo-words-ui-bg"><g id="Layer_16" data-name="Layer 16"><polyline points="1434.61 1613 1453.61 1703 3002.61 1974.32 3002.67 1605 1434.61 1613" style="fill:#d4751d"/></g><path d="M1498,262.7,1619.09,159S2252,164.86,2260,164.86s270,29,270,29l300-44,53.79,40.5L2905,850.86l17.29,217.28L2893,1123l32,13-25.16,462.77-19.34,80.76L2012,1702.86l-507.51-62.5-40.49-49.5v-851Z" transform="translate(2.61)" style="fill:#e27013"/><g style="clip-path:url(#clip-path-33)"><polygon points="1620.61 125 1572.17 206.95 2587.61 237 2854.61 213 2886.61 190 2853.61 131 2531.61 172 2259.61 150 1620.61 125" style="fill:#f2a843"/><polyline points="2832.61 150 2800.61 172 2854.61 212 2886.61 190 2832.61 150" style="fill:#e28b44"/><polygon points="2224.61 193 2272.61 160 2532.61 194 2500.61 216 2224.61 193" style="fill:#e28b44"/><polyline points="2895.73 1123.2 2927.61 1100 2926.61 1068 2892.63 1086.9 2895.73 1123.2" style="fill:#b35c1d"/></g><path d="M1466,284.84l121.1-103.7S2220,187,2228,187s270,29,270,29l300-44,53.79,40.5L2873,873l21,263.66-26.14,484.25-19.34,80.76L1980,1725l-113.18-13.94L1879,1690l-48,16.65-358.52-44.15L1432,1613V762Z" transform="translate(2.61)" style="fill:#ffd575"/><g style="clip-path:url(#clip-path-34)"><path d="M2075,150c.95,6.17,321,160,321,160l-48.19,323.44L2584,1240l-346,359-239.86,199.65L2947,1794,2916,124Z" transform="translate(2.61)" style="fill:#f2c766"/><path d="M1470.79,276.72a38.83,38.83,0,0,0,6.43,5.06c.27.18.55-.21.34-.44-1.83-2-3.61-4-5.38-6-.83-.95-2.31.5-1.39,1.39Z" transform="translate(2.61)" style="fill:#ffd575"/><path d="M1491.25,295.26q8.46,8.81,17.42,17.1c9,8.29.11,0,.07-.06q-8.76-8.51-17-17.5c-.29-.32-.76.15-.47.46Z" transform="translate(2.61)" style="fill:#ffd575"/><path d="M1621.14,360.87c2.94-17.12.62-35.21.46-52.46a2.18,2.18,0,0,0-1.56-2.05c-10.66-3.64-21.44-6.9-32.2-10.23-5.2-1.61-11-2.46-14.1-7.28-2.76-4.25-5.25-8.66-8-12.89A264.92,264.92,0,0,0,1528,230.27c-3.55-3.4-9,2.16-5.37,5.37,8.06,7.08,15.75,14.15,22.66,22.38a215.85,215.85,0,0,1,19.25,26.61c2.22,3.65,4,8.07,7.16,11.07s8,3.54,12,4.69c11.74,3.39,23.42,7,35.25,10.07l-1.56-2a218.57,218.57,0,0,1,1.51,26.08c.1,8.63-.48,17.5.17,26.09.08,1.12,1.89,1.56,2.11.29Z" transform="translate(2.61)" style="fill:#b35c1d"/><path d="M1631.06,276.41c-4.55,2.07-9.17,3.92-13.86,5.64-2.87,1.05-6.71,1.75-9.18,3.72-5,4-2.17,11.55-5.51,16.38-1.36,2,2,4,3.24,1.9a13.7,13.7,0,0,0,1.9-6.35c.37-5.05-.45-8.23,4.92-10.95,6.31-3.19,13.2-5.29,19.53-8.56,1.2-.62.15-2.32-1-1.78Z" transform="translate(2.61)" style="fill:#b35c1d"/><path d="M1513.82,302.14c6.49-5.57,12.23-12.17,18.65-17.9q4.82-4.31,9.55-8.7c2.84-2.65,6.9-8,10.81-8.8,3.25-.67-.67-5.86-2.13-2.14s-7.37,6.79-10.33,9.29c-3.3,2.8-6.47,5.67-9.57,8.68-6.07,5.91-13,11.71-18.31,18.24a.94.94,0,1,0,1.33,1.33Z" transform="translate(2.61)" style="fill:#b35c1d"/><path d="M2645.62,292.84c14-20.38,28.36-40.54,42.26-61,6.28-9.24,12.7-18.41,19.74-27.1,7.3-9,14.86-18.05,25-23.88,6.12-3.51-1.47-12.37-5.62-7.29-7.38,9-15.73,17.2-23,26.35-6.89,8.68-13.21,17.78-19.33,27-14.15,21.33-27.16,43.28-40.61,65-.61,1,.89,1.83,1.53.9Z" transform="translate(2.61)" style="fill:#b35c1d"/><path d="M2581.93,304.78c17.09-.8,34.21-1.19,51.16-3.71,7.38-1.1,11.73-4.15,16.81-9.45a82.28,82.28,0,0,0,12.78-18.43c.24-.44-.39-1-.74-.57a181,181,0,0,1-13.64,15c-2.4,2.43-4.76,5.32-7.67,7.14-3.41,2.13-7.7,2-11.55,2.49-15.74,2.09-31.39,4.79-47.15,6.69-.52.07-.55.87,0,.85Z" transform="translate(2.61)" style="fill:#b35c1d"/><path d="M2723.72,257.2c-4.5-.13-9-.47-13.49-.59-2.58-.07-5.15-.17-7.72-.36-1.79-.12-5.13.21-6.74-.55-1.77-.83-1.51-1.75-1.95-4a69,69,0,0,1-1.06-7.71c-.37-4.71-1.07-9.37-1.6-14.06-.42-3.78-6.39-3.85-6,0a168,168,0,0,0,2.75,17.55c.75,3.6.32,10,3.43,12.49,3.27,2.66,10.19,1.68,14.07,1.66a91.81,91.81,0,0,0,18.62-2.07c1.33-.28,1-2.27-.31-2.31Z" transform="translate(2.61)" style="fill:#b35c1d"/><path d="M2611.19,333.64c3.22-6.34,6.65-12.55,10.15-18.73,1.61-2.85,3.33-5.64,4.89-8.51,1-1.87,2.38-3.44,2.35-5.59a.54.54,0,0,0-.52-.52c-4.94-.37-7.78,8.48-9.46,11.94-3.31,6.78-6.21,13.73-8.95,20.76C2609.31,333.88,2610.76,334.48,2611.19,333.64Z" transform="translate(2.61)" style="fill:#b35c1d"/><path d="M1676.1,205.21c.47-5.36-1.86-10.47-4.2-15.25-2.57-5.27-7.71-7.41-12-11.4-5.18-4.87-9.61,5.68-3.78,6.5s11.67,1.48,15,6.9c2.54,4.15,3.3,8.74,4.77,13.28a.1.1,0,0,0,.13.06.09.09,0,0,0,.06-.06Z" transform="translate(2.61)" style="fill:#b35c1d"/><path d="M1647.68,201.18c3.5-6.53,7.24-13.19,9.79-20.15.9-2.47-2.94-4-4.2-1.77-3.55,6.3-6.3,13.2-9.15,19.83-1,2.37,2.27,4.49,3.56,2.09Z" transform="translate(2.61)" style="fill:#b35c1d"/><path d="M1669.7,218.06c-3.64-3.19-6.67-7-10.13-10.36s-7.07-6.58-10.59-9.82c-3-2.78-6.93,2.13-3.47,4.49,7.62,5.17,16.1,10.67,22.67,17.21,1,1,2.56-.61,1.52-1.52Z" transform="translate(2.61)" style="fill:#b35c1d"/><path d="M1536.09,1125.21c-4,12.45-9,24.71-14,36.79-2.53,6.11-5.11,12.22-7.87,18.24-1.19,2.59-2.32,6.24-4.75,8s-6.49,2.19-9.35,2.94l-38.79,10.16c-6.32,1.65-12.66,3.1-19,4.63-5.42,1.3-13.68,2.12-17.7,6.21a2.27,2.27,0,0,0,0,3.21,2.22,2.22,0,0,0,1,.55c5.8,1.62,13.84-2.06,19.45-3.7,7.2-2.11,14.38-4.22,21.63-6.18,13.83-3.74,28.12-6.78,41.7-11.33,4.88-1.63,7.28-4.58,9.39-9.16,2.84-6.14,5.54-12.37,8-18.69,5.17-13.5,8.64-27.17,12-41.2a.84.84,0,0,0-.59-1,.83.83,0,0,0-1,.58h0Z" transform="translate(2.61)" style="fill:#b35c1d"/><path d="M1500.72,1235.08c2.66-6.56,6.81-14.44,5.6-21.76-1-5.91-6.55-11.7-11.15-15.11-.94-.7-1.9.61-1.47,1.47,2.61,5.29,8.69,9.3,9.53,15.22.87,6.08-1.34,14.18-3.14,20C1500,1235.32,1500.57,1235.46,1500.72,1235.08Z" transform="translate(2.61)" style="fill:#b35c1d"/><path d="M1552.79,1175c-6.55-2.5-14.2-7.31-21.34-7.67-5.09-.25-11.18,3.24-14.15,7.18-1.42,1.88,1.39,4.66,3.27,3.27,4.6-3.41,7.42-10,14.46-8.34,2.84.64,5.25,2.92,7.73,4.32,2.83,1.61,5.8,3,8.62,4.58C1553.63,1179.63,1555.32,1176,1552.79,1175Z" transform="translate(2.61)" style="fill:#b35c1d"/><path d="M1548.5,1162.86l-3.18,4.49c-1,1.33-2,2.48-3,3.83-.74,1.09,1.1,2.19,1.78,1,.89-1.49,1.52-3.06,2.38-4.57l2.55-4.46c.21-.37-.33-.67-.57-.33Z" transform="translate(2.61)" style="fill:#b35c1d"/><path d="M1531.86,1229.91c-4.08-3.29-8-6.79-12.2-9.92s-8.14-4.17-13.06-5.77c-4.62-1.51-3.91,7.38.62,4.79,3-1.69,9.45,3.1,12.33,4.24a45.46,45.46,0,0,1,11.78,7.19c.37.3.9-.23.53-.53Z" transform="translate(2.61)" style="fill:#b35c1d"/><path d="M1938.1,1081.22c6.23,47.53,12.19,95.11,18.56,142.62s13.14,95,19,142.61l4.3,34.67c1.39,11.17,4.53,23.55,1.27,34.61-3,10.08-8.73,19.58-13.06,29.14q-6.12,13.5-11.78,27.18c-15.65,37.58-29.34,75.93-44.64,113.65-17.22,42.45-38.22,84.08-65.62,121-2.9,3.92,3.69,7.75,6.56,3.83,48.89-66.75,73.09-147.54,103.21-223.62,7.66-19.35,15.83-38.47,24.74-57.29,4.36-9.23,7.34-17.81,6.21-28.17-1.24-11.24-3.26-22.45-4.91-33.64-7.13-48.09-13.61-96.28-20.26-144.44-7.47-54.09-15.35-108.12-23-162.18,0-.37-.7-.28-.65.08Z" transform="translate(2.61)" style="fill:#b35c1d"/><path d="M2058.31,1481.48c-19.4,4.31-38.51,9.69-57.41,15.81q-14.16,4.57-28,9.91c-9.1,3.48-18.15,8.52-27.48,11.23-3.77,1.1-1.08,6.9,2,4.8,8-5.39,18.07-8.83,26.89-12.64q13.9-6,28.14-11.25a517.83,517.83,0,0,1,56.15-16.87c.65-.15.37-1.13-.27-1Z" transform="translate(2.61)" style="fill:#b35c1d"/><path d="M2026.8,1213.72c-10.59,13.86-21,27.88-30.85,42.26s-20.13,28.5-29.48,43.23c-1.3,2,2,4,3.23,1.89,9.1-14.86,17.84-29.91,27.6-44.33s19.62-28.76,29.82-42.87C2027.27,1213.71,2026.94,1213.53,2026.8,1213.72Z" transform="translate(2.61)" style="fill:#b35c1d"/><path d="M1993.4,1206.69a165.18,165.18,0,0,1,4.21,23.56c.38,3.7.86,7.38,1.17,11.08.24,2.91.07,5.44,1.65,7.92a1,1,0,0,0,1.38.31,1,1,0,0,0,.42-.54c1.12-2.74.43-5.27,0-8.15-.59-4-1.2-8-2.13-11.89-1.8-7.53-3.64-15.1-5.71-22.56a.52.52,0,0,0-.63-.37.53.53,0,0,0-.37.64Z" transform="translate(2.61)" style="fill:#b35c1d"/><path d="M2073.67,1550.76c-7.88-10.1-16.47-19.52-24.61-29.39-4.13-5-8.43-9.93-12.37-15.08-1.76-2.3-3.61-4.51-5.48-6.72-1.29-1.54-6-5.61-6.18-7.6-.28-2.67-3.12-4.52-5.5-2.69-2,1.55-1.66,5.5,1.17,6,2.55.44,5.46,4.61,7.16,6.33,2.19,2.22,4.45,4.37,6.67,6.55,4.66,4.56,9,9.58,13.28,14.47,8.44,9.58,16,20.06,23.87,30.13,1.12,1.43,3.09-.58,2-2Z" transform="translate(2.61)" style="fill:#b35c1d"/><path d="M2078.1,1513.39c-4.21,1.74-8.38,3.59-12.46,5.61-2.14,1.06-4.21,2.23-6.33,3.3-1.18.59-5.47,3.6-6.64,3.35a3.36,3.36,0,0,0-3.76,4.88c1.37,2.35,5.51,2.1,6.08-.79.28-1.38,3.1-2.65,4.13-3.38,2.31-1.64,4.71-3.08,7.16-4.49,4.12-2.37,8.33-4.54,12.62-6.59C2079.9,1514.78,2079.19,1512.94,2078.1,1513.39Z" transform="translate(2.61)" style="fill:#b35c1d"/><path d="M2389.84,846.34c43.91,0,87.82.56,131.74.36,22-.1,43.91-.54,65.87-.76,19.9-.19,43.4-3.25,61.32,7.32,8.65,5.1,15.69,12.56,22.73,19.61q11,11,21.83,22.11,21.72,22.23,42.94,44.94c28.3,30.27,56.18,61,83.32,92.26q46,53,89.24,108.29c2,2.61,5.69-1.06,3.65-3.64-52.64-66.33-108-130.71-166.77-191.71q-21.55-22.38-43.59-44.28-11.35-11.28-22.84-22.43c-7.1-6.89-14-14.12-21.82-20.25-14.68-11.56-31.28-13.68-49.44-13.8-22.16-.15-44.32-.18-66.48-.31-50.57-.29-101.13.84-151.7,1.16a.57.57,0,0,0-.49.64.55.55,0,0,0,.49.49Z" transform="translate(2.61)" style="fill:#b35c1d"/><path d="M2782.63,760.34l-43.89,29.21c-4.64,3.09-11,6.14-13.62,11.36-2.79,5.57-.66,12.1.77,17.73q12.86,50.82,25.38,101.72c2.4,9.69,4.62,19.43,7.16,29.09,2.38,9,4.18,19,9.08,27.07a2.23,2.23,0,0,0,4.11-1.11c.26-10.08-3.47-20.38-6.09-30s-5.54-19.19-8.27-28.78q-8.6-30.25-17.15-60.5-4.2-14.89-8.36-29.79c-1.35-4.85-3-9.7-4-14.61-1.27-5.93-.38-10.37,4.54-14.2,8-6.22,16.81-11.6,25.17-17.33l26.28-18c1.14-.78.08-2.64-1.09-1.86Z" transform="translate(2.61)" style="fill:#b35c1d"/><path d="M2737.34,723.73q5.43,14,10.77,28c1.71,4.53,3.47,9,5.21,13.57,1.61,4.18,2.69,9.26,5.24,12.91a1.32,1.32,0,0,0,2.4-1c-.7-4.4-3.46-8.81-5.21-12.93s-3.51-8.33-5.28-12.48q-6.07-14.19-12-28.4c-.27-.65-1.35-.38-1.08.3Z" transform="translate(2.61)" style="fill:#b35c1d"/><path d="M2728.63,1130.26c5.8-11.35,8.81-22.87,10.71-35.43.81-5.34,1.2-11.29,3.57-16.22,2-4.25,4.61-4.85,9-5.28,3.57-.35,7.14-.71,10.71-1,14.31-1.28,28.64-2.09,43-2.76q10.76-.51,21.53-.77c7.51-.17,15.06.59,22.53,0a1.92,1.92,0,0,0,0-3.84c-7.76-.68-15.72.24-23.51.43s-15.67.44-23.49.89c-15.33.88-30.64,2.29-45.89,4-5.34.61-10.84,0-14.33,4.62-2.73,3.58-3.94,8.15-4.49,12.55-.87,7-1.3,13.84-3.09,20.71a141.36,141.36,0,0,1-7.38,21.44c-.33.76.74,1.43,1.13.67Z" transform="translate(2.61)" style="fill:#b35c1d"/><path d="M2767.85,1050.48a51.43,51.43,0,0,0,11.22,21.71c.88,1,2.34-.47,1.46-1.46a53.57,53.57,0,0,1-11.59-20.55.57.57,0,0,0-1.09.3Z" transform="translate(2.61)" style="fill:#b35c1d"/><path d="M2475.27,741.09a580.48,580.48,0,0,0,32.37,54.16c5.81,8.58,11.82,17,17.81,25.49q4.49,6.32,9.1,12.55l4.37,5.85c.72,1,4.37,4.62,4.13,5.64a2.92,2.92,0,0,0,4.56,3.06c2.09-1.59,1-5.29-1.76-5.19-1.37.05-4-4.18-4.82-5.15-1.78-2.08-3.53-4.18-5.27-6.29q-4.89-6-9.63-12c-6.53-8.42-12.63-17.14-18.52-26-11.28-17-21.92-34.5-31.77-52.39a.34.34,0,0,0-.46-.09.33.33,0,0,0-.11.42Z" transform="translate(2.61)" style="fill:#b35c1d"/><path d="M2534,776.93c-7.84,8.24-15.31,18.34-18.81,29.28-.46,1.44,1.85,2.47,2.49,1,4.77-10.75,9.36-20.53,17.05-29.6.42-.5-.27-1.22-.73-.73Z" transform="translate(2.61)" style="fill:#b35c1d"/><path d="M2527.07,755.47c5.27,4.93,9.56,12.91,9.39,20.22a.38.38,0,0,0,.75,0c-.08-4.06-.1-8.08-1.68-11.85a29.37,29.37,0,0,0-6.93-9.89C2527.6,753,2526.06,754.52,2527.07,755.47Z" transform="translate(2.61)" style="fill:#b35c1d"/><path d="M1979.93,1440.34c-6.31,17-15.82,32.76-25.6,48-10.29,16-20.22,32.1-29.62,48.63-19.89,35-39.29,70.22-58.91,105.35-11.28,20.18-22.78,40.3-33.28,60.9-3,5.93,5.62,11.1,9,5.25,20.45-35.48,38.76-72.28,57.9-108.49,18.67-35.29,36.39-71.14,57-105.36,10.29-17.1,20.32-34.27,24.63-53.95a.57.57,0,0,0-.49-.64.56.56,0,0,0-.6.34Z" transform="translate(2.61)" style="fill:#b35c1d"/><path d="M1845.27,1710.39a52.68,52.68,0,0,1,15.45.68l.81-6c-5.41-.71-10.82-1.42-16.23-2l.89,6.64a35.49,35.49,0,0,0,23.65-25.61c.92-3.93-4-5.78-6.29-2.65a65.44,65.44,0,0,1-14.57,15l4.44,4.44a225.43,225.43,0,0,1,18.91-26.62l-5.59-4.31c-7.3,9.86-14.7,19.66-22.06,29.48l6.72,3.93c4.18-6.83,8.41-13.61,13-20.19,2.69-3.88-3.62-7.5-6.3-3.69-5.32,7.57-10.9,14.9-16.49,22.27-2.65,3.5,3.36,8.2,6.14,4.74,11.18-14,21-29.23,30.25-44.53l-6.76-4a359.2,359.2,0,0,1-21.55,31.75l6.82,4a376.13,376.13,0,0,1,23.08-43.1l-5.34-3.12c-9.61,18.14-21.37,35.31-30.32,53.78-2.32,4.78,4.34,8.81,7.19,4.2a342.26,342.26,0,0,1,28.43-38.88l-5.17-3c-5.21,12.45-12.14,24.37-19.18,35.86-2.3,3.74,3.36,8.39,6.23,4.81,7.08-8.87,13.1-18.56,20.09-27.51l-5.75-4.43a266.88,266.88,0,0,0-20.16,30.44c-2.92,5.11,4.69,9.48,7.86,4.59a531.84,531.84,0,0,0,41.93-78.25c2.2-5.1-4.76-9.58-7.67-4.48q-11.55,20.3-23,40.63l7.52,3.17a366.55,366.55,0,0,1,20.4-49.55c2.12-4.25-4.16-8-6.42-3.75a387.34,387.34,0,0,1-29,45.67l7.18,4.2c8-16,16.12-31.78,26.15-46.64l-6.35-3.72c-8.3,12.79-16.77,25.49-24.87,38.41l6.86,4a362.85,362.85,0,0,1,34.1-59.51c2.09-3-2.7-6.7-5.06-3.9a327.27,327.27,0,0,0-24.63,32.78c-2.52,3.88,3.53,7.27,6.12,3.58,27.92-39.6,47.11-84.66,68.44-127.93a2.43,2.43,0,0,0-4.19-2.45c-13.12,20.4-20.65,44.23-30.36,66.33-10.31,23.49-21.14,46.73-32.76,69.6l9.29,3.91c2.92-14.84,5.74-29.44,10.5-43.83,1.53-4.63-5.38-6.26-7.14-2-5.67,13.79-10.8,28.33-13.17,43.1-.83,5.17,6.65,9.6,9.29,3.92,10.71-23.05,20.83-46.41,29.91-70.15,4.41-11.55,8.6-23.18,12.7-34.85s8.47-23.45,15.93-33.61l-4.19-2.45c-24,42-43.71,86.29-70.37,126.8l6.12,3.58a219.47,219.47,0,0,1,23.06-31.8l-5.06-3.91a362,362,0,0,0-35.39,58.76c-2.19,4.58,4,8.33,6.86,4,8.3-12.77,16.25-25.79,24.36-38.69,2.54-4-3.77-7.66-6.35-3.72-9.75,14.87-19.34,30.08-27,46.16a4.16,4.16,0,0,0,7.18,4.2,481.14,481.14,0,0,0,28.27-46.12l-6.42-3.75a380.89,380.89,0,0,0-21.92,51.11c-1.54,4.48,5.21,7.13,7.53,3.17q11.79-20.14,23.57-40.3l-7.67-4.48a565.88,565.88,0,0,1-42.12,78.14l7.86,4.59a240.17,240.17,0,0,1,18.62-31.34c2.7-3.87-3.62-7.5-6.32-3.69-6.55,9.26-14.12,17.8-20.57,27.13l6.85,4c6.7-12.2,12.25-24.82,18-37.48,1.33-3-2.35-6.6-4.86-3.75-11,12.51-21.25,25.7-31.25,39.06l7.19,4.2c10.57-17.61,18.52-36.88,28.47-54.86,1.93-3.5-3.21-6.48-5.34-3.12-8.75,13.74-16.73,28-24.56,42.24-2.06,3.75,3.26,8.38,6.2,4.78A242.61,242.61,0,0,0,1878,1662c2.51-4.38-4.22-8.31-6.76-4-9,15.33-19.12,29.49-29.63,43.75l6.75,3.94c5.27-7.57,10.51-15.14,16-22.52l-6.3-3.69a225.58,225.58,0,0,0-13.4,20c-2.58,4.4,3.84,7.91,6.72,3.93,7.16-9.94,14.27-19.92,21.49-29.82,2.36-3.23-3.1-7.5-5.6-4.31a256.86,256.86,0,0,0-19.48,28.38c-1.52,2.6,1.75,6.5,4.44,4.44a89.89,89.89,0,0,0,17.25-17.11l-6.29-2.65a30.36,30.36,0,0,1-18.81,20.92,3.4,3.4,0,0,0,.9,6.65c5.4.5,10.81.91,16.23,1.32,3.35.26,4.19-5.47.8-5.94a60,60,0,0,0-17.75.1c-2.84.43-2.2,5.34.69,5.06Z" transform="translate(2.61)" style="fill:#b35c1d"/><path d="M2003.24,1246.42c-6.06,9.62-12.8,18.81-19.42,28-6.18,8.62-13.26,18.16-16.39,28.41-.74,2.41,2.78,3.85,4,1.7,5.7-9.83,11-19.66,17.24-29.23,5.93-9.17,11.73-18.22,15.49-28.53.21-.56-.64-.87-.94-.39Z" transform="translate(2.61)" style="fill:#b35c1d"/><path d="M2510.42,799.26c2.59,4.48,6.11,8.26,8.82,12.65a93.25,93.25,0,0,0,8.07,11.84c3.18,3.76,7.13,6.61,10.18,10.47,3.41,4.32,6,9.17,9.38,13.5v-3.47l-1.11,1.23a1.71,1.71,0,0,0,1.19,2.88l1.66.08a2.48,2.48,0,0,0,2.44-2.52,2.57,2.57,0,0,0-.32-1.18c-2.39-4.23-5.75-7.56-8.9-11.22-3.42-4-6-8.47-9.4-12.46A94.29,94.29,0,0,0,2521.82,811c-4.12-3.58-7.16-8.14-10.67-12.29-.35-.41-1,.12-.73.57Z" transform="translate(2.61)" style="fill:#b35c1d"/><path d="M2526.86,755.88c1.75,3.9,4.52,6.82,5.48,11.1.63,2.78.81,5.1-.47,7.7a4.56,4.56,0,0,0-.76,3.19,1.06,1.06,0,0,0,1.09,1l.21,0c10.36-1.51.46-21.1-3.71-24.41a1.18,1.18,0,0,0-1.84,1.42Z" transform="translate(2.61)" style="fill:#b35c1d"/><path d="M2533.83,778.75a6.71,6.71,0,0,0,2.34-3,7.3,7.3,0,0,0,.68-1.75,2.75,2.75,0,0,0-.53-1.84.76.76,0,0,0-1.05-.24.78.78,0,0,0-.32.42,11.88,11.88,0,0,0-.36,1.2,5,5,0,0,1-.13,1.33,3.55,3.55,0,0,1-1.95,1.64c-1.55.67-.07,3.28,1.32,2.27Z" transform="translate(2.61)" style="fill:#b35c1d"/><path d="M1629.36,180.7a36.54,36.54,0,0,0,5.36,8.72c2.69,3.4,6.44,6.75,8.4,10.63,1,2,4.2,1.45,4.77-.63,1.63-6,1.81-11.9,5.82-17l-3-3a99.56,99.56,0,0,0-8.42,10.46l6.84,1.85c-.46-6.27-3.17-13-10-14.53-3-.67-6,2.58-4.19,5.45,2.17,3.44,3.69,7.34,5.88,10.82l6.06-4.68a40.73,40.73,0,0,1-7.55-9.39l-3.83,5c5,1.35,9.6,3.18,14.89,2.64,2.48-.25,5.2-2.56,4.12-5.4a4.71,4.71,0,0,0-3.4-3.34c-5.35-1.21-7.63,7-2.27,8.23l.31.07-3-3,.11.29,3-5.25a24.55,24.55,0,0,1-12-.8c-3-.87-5.17,2.44-3.84,5a49.65,49.65,0,0,0,8,11.44c3.57,3.63,9.29-2.45,5.46-5.47-2.24-1.77-5-4.92-5-8l-5.58,3.2c3,2.2,4.36,5.29,5.6,8.72,1.3,3.6,5.69,3.35,7.08,0,1.51-3.64,3.27-7.17,5.06-10.7,1-2.07-1.61-4.41-3.35-2.58-4.84,5.08-7.35,12.41-7.94,19.34l3.93-2.25c-6.33-3.82-9.86-12-15.21-17-.84-.78-2.64,0-2.12,1.23Z" transform="translate(2.61)" style="fill:#b35c1d"/><path d="M2666.82,866.33c31.61,29.57,62.51,59.91,93,90.63,30.08,30.32,58.89,61.77,88,93,16.71,17.9,32.93,36.23,48.94,54.76,3.74,4.33,10.12-2,6.3-6.3-28.85-32.27-58-64.31-88.51-95-30-30.25-60.26-60.6-92-89-18.25-16.35-36.46-32.73-55-48.79-.54-.47-1.33.3-.8.8Z" transform="translate(2.61)" style="fill:#b35c1d"/><path d="M2689.75,890.53c4.57,8.21,12.95,14.88,19.44,21.58,7.15,7.38,14.32,14.75,21.43,22.17q21.33,22.26,42.84,44.35,43,44,86.36,87.73c7.19,7.21,14.1,14.52,19.82,23,5.6,8.29,10.71,17.19,18.18,24,5,4.58,12.26-2.57,7.49-7.49-6.25-6.44-11-13.79-16-21.18a150.31,150.31,0,0,0-17-20.67c-14.11-14.45-28.64-28.55-43.15-42.6-29.53-28.6-59-57.3-88.78-85.61q-12.26-11.64-24.45-23.36L2703,900c-3.84-3.7-7.64-7.8-12.35-10.39a.66.66,0,0,0-.9.25.68.68,0,0,0,0,.65Z" transform="translate(2.61)" style="fill:#b35c1d"/><path d="M2819.78,1022.22c24.6,32.5,49.35,65.28,75.72,96.37,4.71,5.56,12.22-2.36,7.89-7.89-24.9-31.74-52.34-61.92-79.93-91.32C2821.68,1017.48,2818.15,1020.06,2819.78,1022.22Z" transform="translate(2.61)" style="fill:#b35c1d"/><path d="M2821.12,1025.45c3.28,8.88,10.7,15.66,16.9,22.55q5.36,6,10.9,11.73c3.44,3.6,6.89,8.61,12,9.74a2.8,2.8,0,0,0,3.4-2,2.89,2.89,0,0,0,0-1.37c-.87-4.59-4.89-7.67-8-10.88-3.5-3.57-7-7.14-10.6-10.61l-10.82-10.39c-3.51-3.35-7.18-6.15-9.54-10.51-1.21-2.24-5.11-.71-4.2,1.77Z" transform="translate(2.61)" style="fill:#b35c1d"/></g><polygon points="2870.61 1621 2902.61 1599 2883.61 1680 2851.61 1703 2870.61 1621" style="fill:#c9670e"/></g></g></g></svg>