<svg width="1012" height="1006" viewBox="0 0 1012 1006" fill="none" xmlns="http://www.w3.org/2000/svg">
<path d="M25.9676 435.702L104.306 354.577L88.5327 242.918C85.9427 224.643 90.5592 206.077 101.407 191.144C112.254 176.21 128.483 166.079 146.664 162.891L257.731 143.422L310.519 43.8209C319.17 27.501 333.829 15.1857 351.397 9.4796C368.964 3.77353 388.062 5.1241 404.652 13.2457L506.006 62.7614L607.36 13.2457C623.946 5.13706 643.033 3.7935 660.591 9.49891C678.148 15.2043 692.8 27.5118 701.451 43.8209L754.239 143.422L865.307 162.891C883.475 166.093 899.689 176.23 910.523 191.162C921.358 206.095 925.966 224.653 923.374 242.918L907.601 354.577L985.981 435.702C998.821 448.967 1006 466.704 1006 485.165C1006 503.626 998.821 521.364 985.981 534.628L907.601 615.669L923.374 727.201C925.994 745.493 921.391 764.086 910.541 779.043C899.691 794 883.445 804.147 865.243 807.334L754.176 826.803L701.387 926.404C692.737 942.713 678.085 955.021 660.528 960.726C642.97 966.432 623.882 965.088 607.297 956.979L505.943 907.464L404.589 956.979C388.004 965.088 368.916 966.432 351.358 960.726C333.801 955.021 319.149 942.713 310.498 926.404L257.71 826.803L146.664 807.334C128.479 804.147 112.247 794.012 101.399 779.074C90.5505 764.135 85.9367 745.564 88.5327 727.286L104.306 615.648L25.9676 534.523C13.1591 521.263 6 503.548 6 485.113C6 466.677 13.1591 448.962 25.9676 435.702Z" fill="url(#paint0_linear)" stroke="url(#paint1_linear)" stroke-width="11.0055" stroke-miterlimit="10"/>
<path d="M505.94 812.371C686.697 812.371 833.229 665.839 833.229 485.082C833.229 304.325 686.697 157.793 505.94 157.793C325.183 157.793 178.65 304.325 178.65 485.082C178.65 665.839 325.183 812.371 505.94 812.371Z" fill="#FCF9F5"/>
<path d="M356.232 485.045L456.298 585.111L656.431 385" stroke="#2C354F" stroke-width="70.4354" stroke-linecap="round" stroke-linejoin="round"/>
<defs>
<linearGradient id="paint0_linear" x1="495.997" y1="898.828" x2="516.627" y2="40.7591" gradientUnits="userSpaceOnUse">
<stop stop-color="#4FB502"/>
<stop offset="1" stop-color="#9CE750"/>
</linearGradient>
<linearGradient id="paint1_linear" x1="505.964" y1="969.395" x2="505.964" y2="0.724255" gradientUnits="userSpaceOnUse">
<stop stop-color="#439902"/>
<stop offset="1" stop-color="#C8FD95"/>
</linearGradient>
</defs>
</svg>
