<svg xmlns="http://www.w3.org/2000/svg" xmlns:xlink="http://www.w3.org/1999/xlink" viewBox="0 0 695.54 793.21"><defs><clipPath id="clip-path" transform="translate(1.54 6.59)"><path d="M2.6,608h0c-3.68-14-4.84-32.21,6-46.92,32.23-29.38,103.31-42.65,136.49-59.71s73-59.71,74.87-87.2c4.73-68.5-49.28-230.32-41.7-382H452.21s-8.53,191.45-45.5,360.16C386.61,484.16,418,481.47,421.82,538h0v.14a201.26,201.26,0,0,1-.3,28.29c-.52,13.47-1.71,28.33-4.39,36.38-2.85,8.53-69.19,19-73,17.06S329,606.6,329,606.6l-12.32,1.89-.95,16.12-19.9,4.73-7.59-13.26L275,618.92V635l-19.91,5.69-9.48-10.43-12.32,3.79-1.89,15.17-24.65,7.58-11.37-9.48-15.17,4.74-3.79,13.27-25.59,5.69-8.53-10.43-17.06,3.79-5.68,12.32s-24.65,2.85-37,1.9-39.81,0-57.82-12.32C12,657.6,8.57,627.87,4.34,613.86,3.72,612,3.14,610.07,2.6,608Z" style="fill:#ffd522"/></clipPath><clipPath id="clip-path-2" transform="translate(1.54 6.59)"><ellipse cx="315.62" cy="32.23" rx="134.59" ry="28.43" style="fill:#ffba1f"/></clipPath><clipPath id="clip-path-3" transform="translate(1.54 6.59)"><path d="M205.74,700.12h0c-3.88-14.81-5.1-34,6.37-49.5,34-31,109-45,144-63s77-63,79-92c5-72.27-52-243-44-403h289s-9,202-48,380c-21.22,96.82,11.91,94,15.94,153.63h0v.15a211.43,211.43,0,0,1-.32,29.84c-.54,14.21-1.8,29.89-4.63,38.38-3,9-73,20-77,18s-16-14-16-14l-13,2-1,17-21,5-8-14-14,3v17l-21,6-10-11-13,4-2,16-26,8-12-10-16,5-4,14-27,6-9-11-18,4-6,13s-26,3-39,2-42,0-61-13c-13.44-9.19-17.07-40.56-21.54-55.34-.64-1.94-1.26-4-1.82-6.14Z" style="fill:#ffd522"/></clipPath><clipPath id="clip-path-4" transform="translate(1.54 6.59)"><ellipse cx="536" cy="92.62" rx="142" ry="30" style="fill:#ffba1f"/></clipPath></defs><g id="Layer_2" data-name="Layer 2"><g id="Layer_3" data-name="Layer 3"><g id="Layer_4" data-name="Layer 4"><path d="M2.6,608h0c-3.68-14-4.84-32.21,6-46.92,32.23-29.38,103.31-42.65,136.49-59.71s73-59.71,74.87-87.2c4.73-68.5-49.28-230.32-41.7-382H452.21s-8.53,191.45-45.5,360.16C386.61,484.16,418,481.47,421.82,538h0v.14a201.26,201.26,0,0,1-.3,28.29c-.52,13.47-1.71,28.33-4.39,36.38-2.85,8.53-69.19,19-73,17.06S329,606.6,329,606.6l-12.32,1.89-.95,16.12-19.9,4.73-7.59-13.26L275,618.92V635l-19.91,5.69-9.48-10.43-12.32,3.79-1.89,15.17-24.65,7.58-11.37-9.48-15.17,4.74-3.79,13.27-25.59,5.69-8.53-10.43-17.06,3.79-5.68,12.32s-24.65,2.85-37,1.9-39.81,0-57.82-12.32C12,657.6,8.57,627.87,4.34,613.86,3.72,612,3.14,610.07,2.6,608Z" transform="translate(1.54 6.59)" style="fill:#ffd522"/><g style="clip-path:url(#clip-path)"><path d="M300-5.38s10.31,104.24,16,145,46.06,286,49.85,307.75-4.31,68-30.85,81.25-118.9,65.66-183.35,80.82C96.74,622.36,51.47,633.9,0,621.22c-8.95-2.21,24,57.19,24,57.19l185.47-34.85,194.3-55.92,48.33-21.8L443.57,346,470.11,3.79Z" transform="translate(1.54 6.59)" style="fill:#e87e15;opacity:0.45"/><path d="M429.46,543.09c-15.17,33.18-61.85,11.58-114.69,37.92C289,593.87,204.55,621.66,182.08,628.4,134.69,642.61,59.65,661,7,622.41c-15-11,17,56,17,56s171.35,24.86,205.47,15.39,217.05-61.61,217.05-61.61Z" transform="translate(1.54 6.59)" style="fill:#232533"/><path d="M207.57,70.14c19.9-16.11,32.23,0,31.28,78.67S248.33,309,252.12,355.43s-23.7,14.22-36-103.31S207.57,70.14,207.57,70.14Z" transform="translate(1.54 6.59)" style="fill:#fff;opacity:0.41000000000000003"/><path d="M9.48,590.48c-1-29.38,18-32.22,37.91-42.65,22.92-12,56.87-23.69,71.09-15.16,18,10.79-48.34,22.75-60.66,43.6C50.57,588.53,11.58,655.57,9.48,590.48Z" transform="translate(1.54 6.59)" style="fill:#fff;opacity:0.41000000000000003"/></g><ellipse cx="317.16" cy="38.81" rx="134.59" ry="28.43" style="fill:#ffba1f"/><g style="clip-path:url(#clip-path-2)"><polygon points="355.54 0 309.58 145.92 455.54 79 465.54 22 355.54 0" style="fill:#ef9b06;opacity:0.6000000000000001"/></g><path d="M315.62,64.45c-36.21,0-70.28-3-96-8.41-28.16-5.95-42.43-14-42.43-23.81s14.27-17.87,42.43-23.82C245.34,3,279.41,0,315.62,0s70.28,3,95.95,8.41c28.16,5.95,42.43,14,42.43,23.82S439.73,50.09,411.57,56C385.9,61.46,351.83,64.45,315.62,64.45Zm0-56.87c-35.69,0-69.21,2.93-94.38,8.25C192.49,21.9,184.82,29,184.82,32.23s7.67,10.32,36.42,16.39c25.17,5.32,58.69,8.25,94.38,8.25s69.21-2.93,94.38-8.25c28.75-6.07,36.42-13.16,36.42-16.39S438.75,21.9,410,15.83C384.83,10.51,351.31,7.58,315.62,7.58Z" transform="translate(1.54 6.59)" style="fill:#ffd522"/><path d="M205.74,700.12h0c-3.88-14.81-5.1-34,6.37-49.5,34-31,109-45,144-63s77-63,79-92c5-72.27-52-243-44-403h289s-9,202-48,380c-21.22,96.82,11.91,94,15.94,153.63h0v.15a211.43,211.43,0,0,1-.32,29.84c-.54,14.21-1.8,29.89-4.63,38.38-3,9-73,20-77,18s-16-14-16-14l-13,2-1,17-21,5-8-14-14,3v17l-21,6-10-11-13,4-2,16-26,8-12-10-16,5-4,14-27,6-9-11-18,4-6,13s-26,3-39,2-42,0-61-13c-13.44-9.19-17.07-40.56-21.54-55.34-.64-1.94-1.26-4-1.82-6.14Z" transform="translate(1.54 6.59)" style="fill:#ffd522"/><g style="clip-path:url(#clip-path-3)"><path d="M597,62.62s18,98,24,141-36,304-32,327,23,73-5,87-153,68-221,84-122,30-189,3l55,54,195-21,205-59,30-19.21-14-174,43-413Z" transform="translate(1.54 6.59)" style="fill:#ffba1f;opacity:0.6000000000000001"/><path d="M656.11,631.62c-16,35-65.26,12.21-121,40-27.22,13.57-116.3,42.89-140,50-50,15-144,38-188-15h0l10,80S391,771.41,427,761.41s221-58,221-58Z" transform="translate(1.54 6.59)" style="fill:#232533"/><path d="M422,132.62c21-17,34,0,33,83s10,169,14,218-25,15-38-109S422,132.62,422,132.62Z" transform="translate(1.54 6.59)" style="fill:#fff;opacity:0.41000000000000003"/><path d="M213,681.62c-1-31,19-34,40-45,24.18-12.67,60-25,75-16,19,11.39-51,24-64,46C256.35,679.56,215.22,750.29,213,681.62Z" transform="translate(1.54 6.59)" style="fill:#fff;opacity:0.41000000000000003"/></g><ellipse cx="537.54" cy="99.21" rx="142" ry="30" style="fill:#ffba1f"/><g style="clip-path:url(#clip-path-4)"><polygon points="579.54 56 529.54 212.21 695.54 115 675.54 77 579.54 56" style="fill:#ef9b06;opacity:0.6000000000000001"/></g><path d="M536,126.62c-38.2,0-74.15-3.15-101.24-8.87C405.06,111.47,390,103,390,92.62s15.06-18.85,44.76-25.13c27.09-5.72,63-8.87,101.24-8.87s74.15,3.15,101.24,8.87C666.94,73.77,682,82.22,682,92.62s-15.06,18.85-44.76,25.13C610.15,123.47,574.2,126.62,536,126.62Zm0-60c-37.66,0-73,3.09-99.58,8.7C406.09,81.73,398,89.21,398,92.62s8.09,10.89,38.42,17.3c26.55,5.61,61.92,8.7,99.58,8.7s73-3.09,99.58-8.7C665.91,103.51,674,96,674,92.62s-8.09-10.89-38.42-17.3C609,69.71,573.66,66.62,536,66.62Z" transform="translate(1.54 6.59)" style="fill:#ffd522"/></g></g></g></svg>