<svg xmlns="http://www.w3.org/2000/svg" xmlns:xlink="http://www.w3.org/1999/xlink" viewBox="0 0 520.8 821.43"><defs><clipPath id="clip-path" transform="translate(0 15.36)"><path d="M.28,582.12C3.27,528,23.43,501.49,49,441.47s42.09-182,123.39-203.3,172-3,197.81,77.69,86.45,143.66,104.76,199,38.8,248.76-193.43,278.68S-4.46,668.11.28,582.12Z" style="fill:#ffd522"/></clipPath><clipPath id="clip-path-2" transform="translate(0 15.36)"><path d="M243.84,257s-3.4-140.27-50.78-146.38c0,0-20.81,2.35-29.7,19.37,0,0,45.51,11.27,69.09,131.64a7,7,0,0,0,6.85.27C243.4,260.08,243.84,257,243.84,257Z" style="fill:#9e660d"/></clipPath><clipPath id="clip-path-3" transform="translate(0 15.36)"><path d="M493.93,67.61S403.37,7.63,327,.35,192.86,100.46,231.61,153c23.58,32,98.66,44.05,132.59-15.62S420.33,72.15,493.93,67.61Z" style="fill:#428e06"/></clipPath></defs><g id="Layer_2" data-name="Layer 2"><g id="Layer_3" data-name="Layer 3"><g id="Layer_4" data-name="Layer 4"><path d="M.28,582.12C3.27,528,23.43,501.49,49,441.47s42.09-182,123.39-203.3,172-3,197.81,77.69,86.45,143.66,104.76,199,38.8,248.76-193.43,278.68S-4.46,668.11.28,582.12Z" transform="translate(0 15.36)" style="fill:#ffd522"/><g style="clip-path:url(#clip-path)"><ellipse cx="239.3" cy="261.85" rx="15" ry="53" transform="matrix(0.06, -1, 1, 0.06, -35.34, 501.72)" style="fill:#ea9f1c"/><path d="M232.52,221.42s79.6,9.4,95.83,96.42S407.38,573.59,358,651C325,702.82,172,786.64,12,680.64c0,0,54.93,103.21,130,117,196,36,301-55,301-55l65-134-31-115-62-113-66-134Z" transform="translate(0 15.36)" style="fill:#ffba1f;opacity:0.6000000000000001"/></g><path d="M243.84,257s-3.4-140.27-50.78-146.38c0,0-20.81,2.35-29.7,19.37,0,0,45.51,11.27,69.09,131.64a7,7,0,0,0,6.85.27C243.4,260.08,243.84,257,243.84,257Z" transform="translate(0 15.36)" style="fill:#9e660d"/><g style="clip-path:url(#clip-path-2)"><path d="M164,115.64s25.84-5.49,47.19,41,31.06,109.75,31.06,109.75l-12.07-2.08L183.62,162.59l-31.39-29Z" transform="translate(0 15.36)" style="fill:#8e5606"/></g><path d="M493.93,67.61S403.37,7.63,327,.35,192.86,100.46,231.61,153c23.58,32,98.66,44.05,132.59-15.62S420.33,72.15,493.93,67.61Z" transform="translate(0 15.36)" style="fill:#428e06"/><g style="clip-path:url(#clip-path-3)"><path d="M520.8,79.23S361.14,13.51,300.18,57.16c-54.47,39-46.09,96.16-77.4,98.88-53.39,4.64-3.81-78.4-3.81-78.4l19-46,70-47,115,34Z" transform="translate(0 15.36)" style="fill:#35a31a"/></g><path d="M415.44,48.7c-16.32-6.12-33.95-8.17-51.26-9-16.4-.8-32.93.56-48.07,7.29C287,59.91,268.7,87.84,253.4,114.5c-4.57,8-8.79,16.25-13.94,23.86-4,5.82-9.47,12.19-17.11,11.55-6.76-.57-8.44,11-1.62,12,14.7,2,24.57-8.48,31.56-20.18,8.74-14.65,16.24-30,25.51-44.35,8.34-12.92,18.2-24.76,30.34-34.29,13.36-10.48,29.1-15.7,45.94-16.93,20.53-1.51,40.48,1.77,60.64,5.19a1.36,1.36,0,0,0,.72-2.62Z" transform="translate(0 15.36)" style="fill:#327c01"/><g style="opacity:0.45"><path d="M271.54,436.83a4.5,4.5,0,1,0-4.5-4.5,4.55,4.55,0,0,0,4.5,4.5Z" transform="translate(0 15.36)" style="fill:#f78f1e"/></g><g style="opacity:0.45"><path d="M308.36,632.58a4.5,4.5,0,1,0-4.5-4.5,4.55,4.55,0,0,0,4.5,4.5Z" transform="translate(0 15.36)" style="fill:#f78f1e"/></g><g style="opacity:0.45"><path d="M179.45,693.64a4.5,4.5,0,1,0-4.5-4.5,4.55,4.55,0,0,0,4.5,4.5Z" transform="translate(0 15.36)" style="fill:#f78f1e"/></g><g style="opacity:0.45"><path d="M336.84,508.61a4.5,4.5,0,1,0-4.5-4.5,4.55,4.55,0,0,0,4.5,4.5Z" transform="translate(0 15.36)" style="fill:#f78f1e"/></g><g style="opacity:0.45"><path d="M147,360.69a4.5,4.5,0,1,0-4.5-4.5,4.55,4.55,0,0,0,4.5,4.5Z" transform="translate(0 15.36)" style="fill:#f78f1e"/></g><g style="opacity:0.45"><path d="M279,694.81a4.5,4.5,0,1,0-4.5-4.5,4.55,4.55,0,0,0,4.5,4.5Z" transform="translate(0 15.36)" style="fill:#f78f1e"/></g><g style="opacity:0.45"><path d="M78.39,705.56c4.71,0,9.22-4.14,9-9a9.15,9.15,0,0,0-9-9c-4.7,0-9.21,4.13-9,9a9.17,9.17,0,0,0,9,9Z" transform="translate(0 15.36)" style="fill:#f78f1e"/></g><g style="opacity:0.45"><path d="M224.56,645.44c4.71,0,9.22-4.14,9-9a9.15,9.15,0,0,0-9-9c-4.7,0-9.21,4.14-9,9a9.16,9.16,0,0,0,9,9Z" transform="translate(0 15.36)" style="fill:#f78f1e"/></g><g style="opacity:0.45"><path d="M348.37,559.2c4.71,0,9.22-4.14,9-9a9.16,9.16,0,0,0-9-9c-4.71,0-9.22,4.14-9,9a9.15,9.15,0,0,0,9,9Z" transform="translate(0 15.36)" style="fill:#f78f1e"/></g><g style="opacity:0.45"><path d="M298.63,440.66c4.71,0,9.22-4.14,9-9a9.15,9.15,0,0,0-9-9c-4.7,0-9.21,4.14-9,9a9.17,9.17,0,0,0,9,9Z" transform="translate(0 15.36)" style="fill:#f78f1e"/></g><g style="opacity:0.45"><path d="M306.14,324.19c4.71,0,9.22-4.14,9-9a9.15,9.15,0,0,0-9-9c-4.7,0-9.21,4.14-9,9a9.16,9.16,0,0,0,9,9Z" transform="translate(0 15.36)" style="fill:#f78f1e"/></g><g style="opacity:0.45"><path d="M172,362.24c4.71,0,9.22-4.14,9-9a9.16,9.16,0,0,0-9-9c-4.71,0-9.22,4.14-9,9a9.16,9.16,0,0,0,9,9Z" transform="translate(0 15.36)" style="fill:#f78f1e"/></g></g></g></g></svg>