<svg xmlns="http://www.w3.org/2000/svg" xmlns:xlink="http://www.w3.org/1999/xlink" viewBox="0 0 1209.07 1909.19"><defs><clipPath id="clip-path" transform="translate(5.55 12.21)"><path d="M812.36,1082.62C796.59,909.36,642.57,841.16,640.15,758.21S683.81,544.4,683.81,544.4H423.36S469.44,675.27,467,758.21,310.57,909.36,294.8,1082.62,553.12,1239.3,553.12,1239.3H554S828.13,1255.88,812.36,1082.62Z" style="fill:#01f27a"/></clipPath><clipPath id="clip-path-2" transform="translate(5.55 12.21)"><path d="M1012.68,162.12S1010.46,350.88,823.91,422L788.38,395.3s191-88.83,177.66-248.73Z" style="fill:#01f296"/></clipPath><clipPath id="clip-path-3" transform="translate(5.55 12.21)"><circle cx="1000.47" cy="89.94" r="89.94" style="fill:#fff"/></clipPath><clipPath id="clip-path-4" transform="translate(5.55 12.21)"><path d="M77.73,162.12S80,350.88,266.49,422L302,395.3S111,306.47,124.36,146.57Z" style="fill:#01f296"/></clipPath><clipPath id="clip-path-5" transform="translate(5.55 12.21)"><circle cx="89.94" cy="89.94" r="89.94" style="fill:#fff"/></clipPath><clipPath id="clip-path-6" transform="translate(5.55 12.21)"><path d="M214,481.73c-68.39-51.76,92.16-145.62,365-129s337.31,75.57,329.93,138.24S479.39,682.64,214,481.73Z" style="fill:#01f27a"/></clipPath><clipPath id="clip-path-7" transform="translate(5.55 12.21)"><path d="M357.55,501.9c-37.9-19.71-34.79-77.86,20-66.62,173.23,35.53,204.32,26.64,257.62,24.42,93.22-3.88,135.46-26.65,153.23-6.66S739.52,521.89,646.25,533,413.07,530.77,357.55,501.9Z" style="fill:#243364"/></clipPath><clipPath id="clip-path-8" transform="translate(5.55 12.21)"><path d="M423.06,1264.74c-28.87-4.44-31.09-68.84,11.1-75.51s94.45,34.79,98.3,59.59S423.06,1264.74,423.06,1264.74Z" style="fill:#0cf280"/></clipPath><clipPath id="clip-path-9" transform="translate(5.55 12.21)"><path d="M695.68,1264.74c28.87-4.44,31.09-68.84-11.1-75.51s-94.44,34.79-98.3,59.59S695.68,1264.74,695.68,1264.74Z" style="fill:#0cf280"/></clipPath><clipPath id="clip-path-10" transform="translate(5.55 12.21)"><path d="M941,913.57c2.09-26.61,23.32-157.4,60.1-234.2s11.32-115.78.62-151.89S956.37,363.27,1004,318.93s120.15,34.12,126.88,104.6-13.49,100.53-81.46,231.19-62.68,192-57.91,222.22,15.4,71.13-10.23,79.6S938.87,940.29,941,913.57Z" style="fill:#e68d00"/></clipPath><clipPath id="clip-path-11" transform="translate(5.55 12.21)"><path d="M999.89,343.33c-9.74,18.81-21.57,82.36,4.12,146.06s59.85,62.46,78.28,38.24,29-115.87-11.29-172.46S1012.42,319.15,999.89,343.33Z" style="fill:#ffb94d"/></clipPath><clipPath id="clip-path-12" transform="translate(5.55 12.21)"><path d="M1021.93,727.84c-8.71-13.64-32.61-40.07-45-33.75s-65.61,116.28,16.55,107.74C1005.88,800.55,1036.09,750,1021.93,727.84Z" style="fill:#3d3c3f"/></clipPath><clipPath id="clip-path-13" transform="translate(5.55 12.21)"><polygon points="261.74 1448.21 286.44 1804.53 640.99 1862.74 921.46 1755.14 970.85 1381.18 261.74 1448.21" style="fill:#f57b00"/></clipPath><clipPath id="clip-path-14" transform="translate(5.55 12.21)"><polygon points="637.07 1896.98 651.08 1523.5 1001.22 1400.56 940.52 1795.83 637.07 1896.98" style="fill:#ba5100"/></clipPath><clipPath id="clip-path-15" transform="translate(5.55 12.21)"><polygon points="65.94 901.38 129.76 1389.66 176.44 1450.36 555.44 1611.38 1046.7 1404.11 1099.25 1307.19 1145.48 901.38 65.94 901.38" style="fill:#ba5100"/></clipPath><clipPath id="clip-path-16" transform="translate(5.55 12.21)"><polygon points="157.77 1056.64 178 1465.92 553.04 1630.87 568.6 1137.56 157.77 1056.64" style="fill:#f58b20"/></clipPath><clipPath id="clip-path-17" transform="translate(5.55 12.21)"><polygon points="65.06 900.6 400.21 798.17 779.46 778.79 1144.6 900.6 1083.69 1025.52 569.55 1167.74 158.55 1075 65.06 900.6" style="fill:#f5ad67"/></clipPath></defs><g id="Layer_2" data-name="Layer 2"><g id="monster-with-a-stone-table-2"><path d="M446.18,843s-177.62,1.33-222.35,64.27S423.58,1106,423.58,1106" transform="translate(5.55 12.21)" style="fill:none;stroke:#3d3c3f;stroke-miterlimit:10;stroke-width:14.005578094701931px"/><path d="M812.36,1082.62C796.59,909.36,642.57,841.16,640.15,758.21S683.81,544.4,683.81,544.4H423.36S469.44,675.27,467,758.21,310.57,909.36,294.8,1082.62,553.12,1239.3,553.12,1239.3H554S828.13,1255.88,812.36,1082.62Z" transform="translate(5.55 12.21)" style="fill:#01f27a"/><g style="clip-path:url(#clip-path)"><path d="M423.06,607.39s157.68,82.17,242.07,104.37L696.22,563,423.06,545.2Z" transform="translate(5.55 12.21)" style="fill:#00c452"/><path d="M507.45,616.27s79.95,73.29,93.27,177.66,97.72,168.78,64.41,284.26c-13.45,46.61-117.71,195.43-388.64,75.51L332,1227l111,22.2,230.65,16.72,113.57-47.81,60-86.61L831.69,984.92,707.32,836.13,665.13,702.88,702.88,545.2l-235.67,2.88Z" transform="translate(5.55 12.21)" style="fill:#00c452"/></g><path d="M1012.68,162.12S1010.46,350.88,823.91,422L788.38,395.3s191-88.83,177.66-248.73Z" transform="translate(5.55 12.21)" style="fill:#01f296"/><g style="clip-path:url(#clip-path-2)"><path d="M1000.47,181S993.8,343.11,805,396.41l70,29.66,41-34.1,68.84-75.51,40-91,8.88-79.95L994.91,156.2" transform="translate(5.55 12.21)" style="fill:#00ab47"/></g><circle cx="1006.02" cy="102.16" r="89.94" style="fill:#fff"/><g style="clip-path:url(#clip-path-3)"><path d="M985.34,0s66.2,12.21,77.31,76.62S969.38,181,900.53,114.37L927.18,161l26.65,20,45.77,8.76,40.84-4.31,35.53-31.1,22.21-37.75,4.44-35.53L1089.3,30,1051.54-1.11l-51.07-11.1L985.34,0" transform="translate(5.55 12.21)" style="fill:#e3e3e3"/></g><circle cx="1000.47" cy="81.06" r="29.98"/><path d="M77.73,162.12S80,350.88,266.49,422L302,395.3S111,306.47,124.36,146.57Z" transform="translate(5.55 12.21)" style="fill:#01f296"/><g style="clip-path:url(#clip-path-4)"><path d="M76.62,161l13.32,6.66S72.18,325.35,285.37,394.19l-60.54,31.88-61.6-25.22-60-75.5L65.51,243.18l-11.1-80L76.62,161" transform="translate(5.55 12.21)" style="fill:#00ab47"/></g><circle cx="95.49" cy="102.16" r="89.94" style="fill:#fff"/><g style="clip-path:url(#clip-path-5)"><path d="M41,14.48S96.6,1.11,132.14,38.86s13.32,97.72-8.89,106.6-91,8.88-128.8-37.75L-1.11,141l35.53,37.75,33.31,15.55,86.61-15.55,25.54-50.19,18.88-38.64-8.88-42.19L149.9,10,96.6-12.21,47.75-1.11,41,14.48" transform="translate(5.55 12.21)" style="fill:#e3e3e3"/></g><circle cx="107.71" cy="81.06" r="29.98"/><path d="M214,481.73c-68.39-51.76,92.16-145.62,365-129s337.31,75.57,329.93,138.24S479.39,682.64,214,481.73Z" transform="translate(5.55 12.21)" style="fill:#01f27a"/><g style="clip-path:url(#clip-path-6)"><path d="M689.56,349.77s126.58,55.34,141,109.84-247.7,173.55-640.69,25.63l93.27,60,224.3,71.07,284.26-26.65,146.72-77.76-9-91L805,349.77Z" transform="translate(5.55 12.21)" style="fill:#00ab47"/></g><path d="M357.55,501.9c-37.9-19.71-34.79-77.86,20-66.62,173.23,35.53,204.32,26.64,257.62,24.42,93.22-3.88,135.46-26.65,153.23-6.66S739.52,521.89,646.25,533,413.07,530.77,357.55,501.9Z" transform="translate(5.55 12.21)" style="fill:#243364"/><g style="clip-path:url(#clip-path-7)"><path d="M383.09,423.06s0,46.64,24.43,53.3,71.06-35.53,71.06-35.53Z" transform="translate(5.55 12.21)" style="fill:#fff"/><path d="M610.73,451.78s12.22,31.37,30.39,29.46,38.5-42.51,38.5-42.51Z" transform="translate(5.55 12.21)" style="fill:#fff"/><path d="M674.61,447.91s16.5,42.38,41.06,39.8,52-57.43,52-57.43Z" transform="translate(5.55 12.21)" style="fill:#fff"/><path d="M400.85,536.32s62-41.72,160.9-39.74,137.16,40.31,137.16,40.31S471.92,583,400.85,536.32Z" transform="translate(5.55 12.21)" style="fill:#0f1a3d"/></g><path d="M423.06,1264.74c-28.87-4.44-31.09-68.84,11.1-75.51s94.45,34.79,98.3,59.59S423.06,1264.74,423.06,1264.74Z" transform="translate(5.55 12.21)" style="fill:#0cf280"/><g style="clip-path:url(#clip-path-8)"><path d="M507.45,1211.44s8.88,22.21,4.44,33.31-88.83,24.43-111,2.22L412,1264.74l13.32,2.22,93.27,4.44,20-13.32V1247l-13.32-20Z" transform="translate(5.55 12.21)" style="fill:#00ab47"/></g><path d="M695.68,1264.74c28.87-4.44,31.09-68.84-11.1-75.51s-94.44,34.79-98.3,59.59S695.68,1264.74,695.68,1264.74Z" transform="translate(5.55 12.21)" style="fill:#0cf280"/><g style="clip-path:url(#clip-path-9)"><path d="M662.91,1189.23s33.31,11.11,35.53,26.65-17.77,62.19-117.7,33.31l8.88,15.55,33.31,4.44H714l6.67-17.76,2.22-28.87-11.11-24.43-22.2-13.33-26.65,4.44" transform="translate(5.55 12.21)" style="fill:#00ab47"/></g><g id="hand"><path d="M597.37,835.71S773.68,948,994,774.57" transform="translate(5.55 12.21)" style="fill:none;stroke:#3d3c3f;stroke-miterlimit:10;stroke-width:14.005578094701931px"/><path d="M941,913.57c2.09-26.61,23.32-157.4,60.1-234.2s11.32-115.78.62-151.89S956.37,363.27,1004,318.93s120.15,34.12,126.88,104.6-13.49,100.53-81.46,231.19-62.68,192-57.91,222.22,15.4,71.13-10.23,79.6S938.87,940.29,941,913.57Z" transform="translate(5.55 12.21)" style="fill:#e68d00"/><g style="clip-path:url(#clip-path-10)"><path d="M994,323.85s37.06-43.23,87.27,31.61,35.57,155.93-6.08,231.55S954.34,775.83,982.3,966l26.64-29.21-3.63-137.47,56.32-134.25,58.45-111.27,29-111.1-21.33-60.43-40.4-57.72L1041.52,295l-43.46,15.16Z" transform="translate(5.55 12.21)" style="fill:#b86800"/></g><path d="M999.89,343.33c-9.74,18.81-21.57,82.36,4.12,146.06s59.85,62.46,78.28,38.24,29-115.87-11.29-172.46S1012.42,319.15,999.89,343.33Z" transform="translate(5.55 12.21)" style="fill:#ffb94d"/><g style="clip-path:url(#clip-path-11)"><path d="M1095.55,380.45s-41.12-39.51-66.5,34.47,8.83,132.24,31.14,136.11-35.46,17.32-35.46,17.32l-48.85-96.07-5.44-102.7,49.09-82.09,58.07,26.16Z" transform="translate(5.55 12.21)" style="fill:#ffca78"/></g><path d="M1007.77,723.1s-4.59-44.18,11.56-48.25,18.94,11.33,12.4,28-11.29,44.68-11.29,44.68Z" transform="translate(5.55 12.21)" style="fill:#3d3c3f"/><path d="M1021.93,727.84c-8.71-13.64-32.61-40.07-45-33.75s-65.61,116.28,16.55,107.74C1005.88,800.55,1036.09,750,1021.93,727.84Z" transform="translate(5.55 12.21)" style="fill:#3d3c3f"/><g style="clip-path:url(#clip-path-12)"><path d="M1018.35,720.54s-22,101.72-74.1,39.72l1.56,31.79,30,12.92,34.63-3.42,22.36-68.93-14.44-12.08" transform="translate(5.55 12.21)" style="fill:#252526"/></g></g><polygon points="267.29 1460.43 291.99 1816.75 646.54 1874.96 927.01 1767.36 976.4 1393.39 267.29 1460.43" style="fill:#f57b00"/><g style="clip-path:url(#clip-path-13)"><polygon points="642.62 1909.19 656.63 1535.71 1006.77 1412.77 946.08 1808.04 642.62 1909.19" style="fill:#ba5100"/><g style="clip-path:url(#clip-path-14)"><polygon points="651.96 1671.1 977.2 1504.59 992.76 1394.1 622.39 1526.37 651.96 1671.1" style="fill:#7d2900"/></g><polygon points="651.96 1671.1 261.36 1531.04 259.8 1478.13 580.38 1562.16 656.63 1566.83 651.96 1671.1" style="fill:#944300"/></g><polygon points="71.49 913.6 135.31 1401.88 181.99 1462.57 560.99 1623.59 1052.25 1416.33 1104.81 1319.4 1151.04 913.6 71.49 913.6" style="fill:#ba5100"/><g style="clip-path:url(#clip-path-15)"><polygon points="1149.93 868.11 1089.24 1037.73 1051.9 1415.88 1167.05 1268.05 1187.28 871.22 1149.93 868.11" style="fill:#7d2900"/><polygon points="69.95 888.34 203.78 1118.65 203.78 1487.47 163.32 1478.13 110.41 1394.1 34.16 903.9 69.95 888.34" style="fill:#f59f4a"/><polygon points="163.32 1068.86 183.55 1478.13 558.59 1643.09 574.15 1149.78 163.32 1068.86" style="fill:#f58b20"/><g style="clip-path:url(#clip-path-16)"><polyline points="283.56 1114.17 286.26 1215.14 303.38 1263.38 267.58 1319.4 309.6 1264.93 306.49 1240.04 325.16 1243.15 300.26 1229.14 294.04 1213.58 307.81 1119.64 283.56 1114.17" style="fill:#914b06"/></g><polyline points="954.14 1075.11 969.42 1149.78 946.08 1212.03 964.75 1229.14 936.74 1212.03 956.97 1151.34 934.15 1080.64 954.14 1075.11" style="fill:#873b00"/></g><polygon points="70.61 912.81 405.76 810.38 785.01 791 1150.15 912.81 1089.24 1037.73 575.1 1179.96 164.1 1087.22 70.61 912.81" style="fill:#f5ad67"/><g style="clip-path:url(#clip-path-17)"><polygon points="793.57 740.5 905.62 952.14 451.21 1201.13 591.27 1268.05 1209.07 1026.84 1209.07 897.68 793.57 740.5" style="fill:#eda45d"/><polyline points="283.56 1114.17 343.84 1071.97 432.54 1071.97 473 1054.85 437.21 1078.19 346.95 1081.31 307.81 1119.64 283.56 1114.17" style="fill:#b36c28"/><polyline points="849.26 812.43 801.35 822.98 809.13 861.89 807.58 827.65 872.18 820.08 849.26 812.43" style="fill:#b36c28"/><polyline points="934.15 1080.64 894.72 1056.41 910.28 1025.28 891.61 1005.05 916.51 1023.73 905.62 1054.85 930.51 1062.63 946.08 1045.52 963.19 1048.63 949.19 1051.74 941.41 1068.86 954.14 1075.11 934.15 1080.64" style="fill:#b36c28"/></g></g></g></svg>