<svg xmlns="http://www.w3.org/2000/svg" xmlns:xlink="http://www.w3.org/1999/xlink" viewBox="0 0 796.35 561.55"><defs><clipPath id="clip-path" transform="translate(3.61 4.18)"><polygon points="643.66 236.98 757.52 185.42 781 223.34 643.66 249.9 643.66 236.98" style="fill:#4d88ce"/></clipPath><clipPath id="clip-path-2" transform="translate(3.61 4.18)"><polygon points="635.24 239.79 679.88 139.38 708.77 145.7 635.24 251.35 635.24 239.79" style="fill:#4d88ce"/></clipPath><clipPath id="clip-path-3" transform="translate(3.61 4.18)"><polygon points="626.61 248.63 742.18 130.35 781 160.14 626.61 256.75 626.61 248.63" style="fill:#4d88ce"/></clipPath><clipPath id="clip-path-4" transform="translate(3.61 4.18)"><path d="M654.6,236S560.69,442.75,351.22,431-9.22,212.83,130,65.34C236.56-47.52,379.21,4.85,436.1,79.79S540.83,239.6,654.6,236Z" style="fill:#4d88ce"/></clipPath><clipPath id="clip-path-5" transform="translate(3.61 4.18)"><path d="M92.85,118.68s39.73,49-15.2,92.93L0,160.14Z" style="fill:#f78f1e"/></clipPath></defs><g id="Layer_2" data-name="Layer 2"><g id="bird"><g id="Layer_4" data-name="Layer 4"><polygon points="647.27 241.16 761.14 189.61 784.61 227.53 647.27 254.08 647.27 241.16" style="fill:#4d88ce"/><g style="clip-path:url(#clip-path)"><polygon points="777.39 204.05 643.13 247.72 654.49 228.35 756.62 177.87 777.39 204.05" style="fill:#0d6099;opacity:0.5"/><polygon points="784.61 234.75 756.62 208.57 775.58 192.32 792.74 228.43 784.61 234.75" style="fill:#0d6099;opacity:0.5"/></g><polygon points="638.85 243.98 683.49 143.56 712.38 149.88 638.85 255.53 638.85 243.98" style="fill:#4d88ce"/><g style="clip-path:url(#clip-path-2)"><polygon points="707.87 140.85 643.13 247.72 658.21 240.17 719.6 146.27 707.87 140.85" style="fill:#0d6099;opacity:0.5"/></g><polygon points="630.22 252.81 745.79 134.53 784.61 164.33 630.22 260.94 630.22 252.81" style="fill:#4d88ce"/><g style="clip-path:url(#clip-path-3)"><polygon points="739.47 137.24 766.55 164.33 707.41 212.63 796.35 162.52 741.27 127.31 739.47 137.24" style="fill:#0d6099;opacity:0.5"/></g><path d="M654.6,236S560.69,442.75,351.22,431-9.22,212.83,130,65.34C236.56-47.52,379.21,4.85,436.1,79.79S540.83,239.6,654.6,236Z" transform="translate(3.61 4.18)" style="fill:#4d88ce"/><g style="clip-path:url(#clip-path-4)"><path d="M237.46-4.18S353,.33,392.76,59.92s96.61,149,117.37,189.61S494.78,485.18,160.71,366l134.54,87.58,214-5.42,154.39-125.5L687.1,270.3l-71.33-80.36L374.7.33Z" transform="translate(3.61 4.18)" style="fill:#0d6099;opacity:0.5"/></g><path d="M92.85,118.68s39.73,49-15.2,92.93L0,160.14Z" transform="translate(3.61 4.18)" style="fill:#f78f1e"/><g style="clip-path:url(#clip-path-5)"><path d="M0,160.14S74.89,187,100.65,184.42l14.92-8-9-57.78L85.77,106.87l-89.38,46Z" transform="translate(3.61 4.18)" style="fill:#ffba1f"/></g><circle cx="209.47" cy="91.19" r="18.06" style="fill:#0e0f16"/><path d="M352.88,177.13c16.41,6.14,18.36,25.11,24.67,39.14a85.19,85.19,0,0,0,24.07,31.15,90.73,90.73,0,0,0,81.11,16.85l-2.78-6.6c-38.22,17.58-62.77,56.23-103.56,69.19-41.33,13.13-91.51,2.42-126.13-23.1-21.28-15.69-29.65-39.25-37-63.63-.94-3.15-6.33-2.74-6,.81,2.27,22.82,10.2,45.69,27.31,61.71,16.48,15.44,38.84,25.17,60.36,31.22,22.08,6.2,45.6,8.17,68.24,4.11s42-15,59.78-29.23c19.65-15.73,37.48-34.12,60.6-44.84,3.78-1.76,1.08-7.65-2.78-6.61-28.69,7.78-60-.11-81-21.19-9.86-9.87-16-21.49-21.93-34-5.19-11-12.55-22.28-24.62-26.29-.81-.27-1.13,1-.35,1.26Z" transform="translate(3.61 4.18)" style="fill:#2874bf"/><path d="M285.44,519.82A651.27,651.27,0,0,1,314.3,410c1.86-5.2-6.66-7.62-8.32-2.3a669.85,669.85,0,0,0-24,111.61c-.26,2,3.16,2.45,3.5.47Z" transform="translate(3.61 4.18)" style="fill:#2874bf"/><path d="M370.52,516.38C361,482,353,446.9,345.57,412c-1.5-7.05-12.51-4.08-10.85,3,8.2,35,18.61,69,30.29,103,1.19,3.44,6.51,2.06,5.51-1.52Z" transform="translate(3.61 4.18)" style="fill:#2874bf"/><path d="M334.61,539.21c6.58-3.71,13.36-7,20-10.58,5.73-3.11,13.19-6,16.87-11.55,1.37-2.07-.4-5.59-3-5.29-6.7.79-12.56,6-18,9.7-6.24,4.28-12.25,8.84-18.55,13-2.9,1.92-.34,6.43,2.74,4.69Z" transform="translate(3.61 4.18)" style="fill:#2874bf"/><path d="M358.91,556.63c5-5.77,7.91-13.91,9.69-21.27a109.09,109.09,0,0,0,1.86-11.23c.52-3.84,1.51-7.22-1.19-10.33a2.65,2.65,0,0,0-3.19-.41c-2.77,2-3,4.12-3.43,7.35-.53,3.88-1.2,7.72-1.89,11.58-1.37,7.62-3.65,14.57-5.93,21.94-.69,2.25,2.47,4.22,4.08,2.37Z" transform="translate(3.61 4.18)" style="fill:#2874bf"/><path d="M398,542.33A82.88,82.88,0,0,0,384.22,524c-4.4-4.32-11.06-11.78-17.68-10.81-1.9.28-3,2.75-2.52,4.44,1,3.39,3.1,4.29,5.9,6.23a100.13,100.13,0,0,1,8.84,6.75,120.89,120.89,0,0,1,14.78,15.15c2.08,2.58,6-.72,4.49-3.46Z" transform="translate(3.61 4.18)" style="fill:#2874bf"/><path d="M250.64,539.21c6.58-3.71,13.36-7,20-10.58,5.73-3.11,13.19-6,16.87-11.55,1.37-2.07-.4-5.59-3-5.29-6.7.79-12.55,6-18,9.7-6.24,4.28-12.24,8.84-18.55,13-2.9,1.92-.33,6.43,2.74,4.69Z" transform="translate(3.61 4.18)" style="fill:#2874bf"/><path d="M274.94,556.63c5-5.77,7.91-13.91,9.69-21.27a111.9,111.9,0,0,0,1.87-11.23c.52-3.84,1.5-7.22-1.2-10.33a2.63,2.63,0,0,0-3.18-.41c-2.78,2-3,4.12-3.44,7.35-.53,3.88-1.2,7.72-1.89,11.58-1.37,7.62-3.65,14.57-5.92,21.94-.7,2.25,2.46,4.22,4.07,2.37Z" transform="translate(3.61 4.18)" style="fill:#2874bf"/><path d="M314.06,542.33A82.88,82.88,0,0,0,300.25,524c-4.4-4.32-11.06-11.78-17.68-10.81-1.9.28-3,2.75-2.52,4.44,1,3.39,3.1,4.29,5.9,6.23a100.13,100.13,0,0,1,8.84,6.75,120.89,120.89,0,0,1,14.78,15.15c2.08,2.58,6.05-.72,4.49-3.46Z" transform="translate(3.61 4.18)" style="fill:#2874bf"/></g></g></g></svg>