<svg xmlns="http://www.w3.org/2000/svg" xmlns:xlink="http://www.w3.org/1999/xlink" viewBox="0 0 428 794.93"><defs><clipPath id="clip-path" transform="translate(0 14.94)"><path d="M418,234.11c0,129.3-123.94,281.1-209,281.1-81.82,0-209-151.8-209-281.1S93.57,0,209,0,418,104.82,418,234.11Z" style="fill:#ea2727"/></clipPath></defs><g style="isolation:isolate"><g id="Layer_2" data-name="Layer 2"><g id="Layer_3" data-name="Layer 3"><path d="M213.87,502.14a200.6,200.6,0,0,1-10.25,66c-3.54,10.71-8.6,20.64-13,31-3.71,8.81-6.21,18.1-4.44,27.68,2.79,15,15,25.77,24.35,37,5,6,9.72,12.76,11.37,20.6,2.34,11.13-1.82,22.46-6.63,32.35-9.21,19-24.51,40.9-14.32,62.65.63,1.35,2.61.36,2.31-1-5-22.67,11.07-41.75,20-61.16,7.64-16.63,9.84-33.92-.42-49.9-8.19-12.76-21.53-22.44-27.4-36.67-3.82-9.26-1.89-18.82,1.63-27.85,3.85-9.88,8.66-19.29,12.06-29.37a180.78,180.78,0,0,0,8.67-71.28c-.18-2.5-4-2.56-3.94,0Z" transform="translate(0 14.94)" style="fill:#261717"/><path d="M205.52,509.28l-20.9,31.35a9.31,9.31,0,0,0,10.45,7c8.7-.87,20,.87,26.12,3.49s16.55-7,19.16-8.71-18.29-30.48-20-36.58S205.52,509.28,205.52,509.28Z" transform="translate(0 14.94)" style="fill:#ea2727"/><path d="M418,234.11c0,129.3-123.94,281.1-209,281.1-81.82,0-209-151.8-209-281.1S93.57,0,209,0,418,104.82,418,234.11Z" transform="translate(0 14.94)" style="fill:#ea2727"/><g style="clip-path:url(#clip-path)"><path d="M63.57,34.67S187.23-8,301.31,93.89,280,547.06,133,491.06l87,41,174-110,34-228-66-154-154-55Z" transform="translate(0 14.94)" style="fill:#c10505;opacity:0.46;mix-blend-mode:multiply"/><ellipse cx="103.2" cy="143.99" rx="39.16" ry="29.81" transform="matrix(0.37, -0.93, 0.93, 0.37, -68.68, 201.82)" style="fill:#fff;opacity:0.45"/><ellipse cx="86.83" cy="219.98" rx="21.1" ry="16.06" transform="translate(-138.8 305.76) rotate(-85.89)" style="fill:#fff;opacity:0.45"/></g><path d="M197.77,518a50.54,50.54,0,0,0,16.93,3.43c4.93.06,10.55.41,13.62-3.88a3.26,3.26,0,0,0-1.16-4.43c-4-2.42-8.91-.17-13.37.13a80.32,80.32,0,0,1-15.35-.22c-3-.38-3.19,4.08-.67,5Z" transform="translate(0 14.94)" style="fill:#261717"/></g></g></g></svg>