<svg width="1000" height="1000" viewBox="0 0 1000 1000" fill="none" xmlns="http://www.w3.org/2000/svg">
<ellipse cx="487.857" cy="490.211" rx="204.501" ry="27.3174" fill="#DBDBEE"/>
<path d="M599.459 487.5C614.976 476.286 645.476 458.922 643.336 479.17C641.196 499.418 613.193 493.16 599.459 487.5Z" fill="#161E33"/>
<path d="M596.23 353.391L599.459 487.5M599.459 487.5C614.976 476.286 645.476 458.922 643.336 479.17C641.196 499.418 613.193 493.16 599.459 487.5Z" stroke="#161E33" stroke-width="3.03223"/>
<path d="M386.207 487.5C370.689 476.286 340.19 458.922 342.33 479.17C344.47 499.418 372.473 493.16 386.207 487.5Z" fill="#161E33"/>
<path d="M389.436 353.391L386.207 487.5M386.207 487.5C370.689 476.286 340.19 458.922 342.33 479.17C344.47 499.418 372.473 493.16 386.207 487.5Z" stroke="#161E33" stroke-width="3.03223"/>
<path d="M605.189 68.0715C602.225 65.1082 597.421 65.1082 594.457 68.0715L492.779 169.75L391.1 68.0715C388.137 65.1081 383.332 65.1081 380.369 68.0715L313.835 134.605C310.872 137.569 310.872 142.373 313.835 145.337L415.514 247.015L313.834 348.695C310.871 351.658 310.871 356.463 313.834 359.426L380.368 425.96C383.332 428.923 388.136 428.923 391.1 425.96L492.779 324.281L594.458 425.96C597.421 428.923 602.226 428.923 605.189 425.96L671.723 359.426C674.687 356.463 674.687 351.658 671.723 348.695L570.044 247.015L671.723 145.337C674.686 142.373 674.686 137.569 671.723 134.606L605.189 68.0715Z" fill="#50C0FF"/>
<mask id="mask0" mask-type="alpha" maskUnits="userSpaceOnUse" x="311" y="65" width="363" height="364">
<path d="M605.189 68.0715C602.225 65.1082 597.421 65.1082 594.457 68.0715L492.779 169.75L391.1 68.0715C388.137 65.1081 383.332 65.1081 380.369 68.0715L313.835 134.605C310.872 137.569 310.872 142.373 313.835 145.337L415.514 247.015L313.834 348.695C310.871 351.658 310.871 356.463 313.834 359.426L380.368 425.96C383.332 428.923 388.136 428.923 391.1 425.96L492.779 324.281L594.458 425.96C597.421 428.923 602.226 428.923 605.189 425.96L671.723 359.426C674.687 356.463 674.687 351.658 671.723 348.695L570.044 247.015L671.723 145.337C674.686 142.373 674.686 137.569 671.723 134.606L605.189 68.0715Z" fill="#50C0FF"/>
</mask>
<g mask="url(#mask0)">
<g style="mix-blend-mode:multiply">
<path d="M311.432 377.881C535.847 326.874 575.897 148.728 567.871 66.0309L599.023 34.9194L706.775 141.154L599.023 242.835L691.599 362.728L599.023 452.269L495.824 350.587L389.59 452.269L311.432 377.881Z" fill="#2AABF3" fill-opacity="0.5"/>
</g>
</g>
<path d="M344.92 73.9343C351.158 69.1223 372.604 68.7146 382.547 69.1122L369.898 80.9171C370.459 80.9393 371.004 80.9581 371.528 80.9737C370.858 81.1005 370.143 81.2402 369.388 81.3927L349.321 100.121L322.875 128.588C309.739 134.8 284.06 144.681 286.435 134.512C288.81 124.344 326.354 108.985 344.829 102.577C330.027 105.031 303.779 107.754 317.204 99.0115C329.91 90.7366 356.02 84.0896 369.388 81.3927L369.898 80.9171C358.164 80.4539 338.967 78.5265 344.92 73.9343Z" fill="#50C0FF"/>
<path d="M638.924 73.9343C632.686 69.1223 611.24 68.7146 601.297 69.1122L613.946 80.9171C613.385 80.9393 612.84 80.9581 612.316 80.9737C612.986 81.1005 613.701 81.2403 614.456 81.3927L634.523 100.121L660.969 128.588C674.105 134.8 699.784 144.681 697.409 134.512C695.034 124.344 657.49 108.985 639.015 102.577C653.817 105.031 680.065 107.754 666.64 99.0115C653.933 90.7366 627.824 84.0896 614.456 81.3927L613.946 80.9171C625.68 80.4538 644.877 78.5265 638.924 73.9343Z" fill="#2E9FF9"/>
<path d="M433.648 210.871C456.247 227.645 517.627 230.163 553.942 210.869C546.264 233.907 519.896 268.748 490.39 268.748C464.824 268.748 432.421 222.68 433.648 210.871Z" fill="#006EAB"/>
<path d="M466.552 257.404C485.845 241.518 510.021 249.517 521.025 256.271C517.192 261.435 497.644 269.865 489.107 269.181C480.569 268.498 469.521 261.02 466.552 257.404Z" fill="#0D96E2"/>
<ellipse cx="392.564" cy="148.012" rx="34.2115" ry="40.2935" fill="white"/>
<path d="M421.279 124.847C395.741 121.972 370.437 144.554 359.574 157.875C358.944 158.648 357.76 158.64 357.236 157.792C349.399 145.098 351.76 118.629 374.317 107.716C396.373 97.0445 417.32 111.452 422.824 122.899C423.315 123.922 422.406 124.973 421.279 124.847Z" fill="#77CEFF"/>
<ellipse cx="396.361" cy="141.164" rx="7.60257" ry="7.60255" fill="#161E33"/>
<ellipse rx="34.2115" ry="40.2935" transform="matrix(-1 0 0 1 593.021 148.012)" fill="white"/>
<path d="M564.293 124.847C589.831 121.973 615.135 144.554 625.998 157.876C626.628 158.648 627.812 158.64 628.335 157.792C636.172 145.098 633.812 118.629 611.255 107.716C589.199 97.0448 568.252 111.453 562.748 122.9C562.256 123.922 563.165 124.974 564.293 124.847Z" fill="#77CEFF"/>
<ellipse rx="7.60257" ry="7.60255" transform="matrix(-1 0 0 1 589.216 141.164)" fill="#161E33"/>
<ellipse cx="207.442" cy="633.208" rx="148.118" ry="27.5568" fill="#DBDBEE"/>
<path d="M183.751 632.853C167.916 621.796 136.87 604.779 139.359 625.167C141.848 645.555 169.99 638.786 183.751 632.853Z" fill="#161E33"/>
<path d="M183.754 581.606L183.751 632.853M183.751 632.853C167.916 621.796 136.87 604.779 139.359 625.167C141.848 645.555 169.99 638.786 183.751 632.853Z" stroke="#161E33" stroke-width="3.0588"/>
<path d="M226.988 632.846C242.822 621.788 273.868 604.771 271.379 625.159C268.89 645.548 240.748 638.779 226.988 632.846Z" fill="#161E33"/>
<path d="M226.985 581.986L226.988 632.846M226.988 632.846C242.822 621.788 273.868 604.771 271.379 625.159C268.89 645.548 240.748 638.779 226.988 632.846Z" stroke="#161E33" stroke-width="3.0588"/>
<path d="M160.365 170.1C156.138 170.1 152.71 173.527 152.71 177.754V322.81H7.65465C3.4274 322.81 0 326.238 0 330.465V425.383C0 429.61 3.4274 433.037 7.65465 433.037H152.71V578.093C152.71 582.32 156.138 585.748 160.365 585.748H255.283C259.51 585.748 262.937 582.32 262.937 578.093V433.037H407.993C412.22 433.037 415.648 429.61 415.648 425.383V330.465C415.648 326.238 412.22 322.81 407.993 322.81H262.937V177.754C262.937 173.527 259.51 170.1 255.283 170.1H160.365Z" fill="#B853E8"/>
<mask id="mask1" mask-type="alpha" maskUnits="userSpaceOnUse" x="0" y="170" width="416" height="416">
<path d="M160.365 170.1C156.138 170.1 152.71 173.527 152.71 177.754V322.81H7.65465C3.4274 322.81 0 326.238 0 330.465V425.383C0 429.61 3.4274 433.037 7.65465 433.037H152.71V578.093C152.71 582.32 156.138 585.748 160.365 585.748H255.283C259.51 585.748 262.937 582.32 262.937 578.093V433.037H407.993C412.22 433.037 415.648 429.61 415.648 425.383V330.465C415.648 326.238 412.22 322.81 407.993 322.81H262.937V177.754C262.937 173.527 259.51 170.1 255.283 170.1H160.365Z" fill="#B853E8"/>
</mask>
<g mask="url(#mask1)">
<path d="M416.393 359.51C299.868 354.849 187.227 489.63 145.472 557.603L-26.4025 583.823C87.7921 346.111 316.375 335.234 416.393 359.51Z" fill="#D353E8"/>
<path d="M364.487 311.803C259.956 260.101 33.3011 336.39 -30.998 421.17L-131.274 336.39C69.8135 165.771 283.02 248.907 364.487 311.803Z" fill="#D353E8"/>
<g style="mix-blend-mode:multiply">
<path d="M56.2641 546.325C259.572 501.316 295.855 344.114 288.583 271.14H458.516L484.542 449.494L346.758 464.803L363.981 597.994L146.589 624.02L56.2641 546.325Z" fill="#A03BDC" fill-opacity="0.34"/>
</g>
</g>
<path d="M196.695 381.159C219.91 388.936 247.182 370.309 257.917 360.022C257.78 381.147 252.078 422.202 230.357 417.424C208.635 412.646 198.865 391.256 196.695 381.159Z" fill="#7500AC"/>
<path d="M218.502 412.409C219.277 395.177 241.317 396.105 252.239 398.724C250.462 404.028 245.097 415.072 237.851 416.809C230.605 418.546 221.932 414.599 218.502 412.409Z" fill="#9315CF"/>
<ellipse cx="207.85" cy="301.264" rx="44.4257" ry="52.3236" fill="white"/>
<ellipse cx="208.842" cy="290.396" rx="9.87238" ry="9.87238" fill="#161E33"/>
<ellipse cx="772.827" cy="751.898" rx="166.028" ry="30.1108" fill="#DBDBEE"/>
<path d="M743.595 746.493C726.293 734.411 692.369 715.816 695.089 738.094C697.808 760.372 728.559 752.976 743.595 746.493Z" fill="#161E33"/>
<path d="M743.598 690.496L743.595 746.493M743.595 746.493C726.293 734.411 692.369 715.816 695.089 738.094C697.808 760.372 728.559 752.976 743.595 746.493Z" stroke="#161E33" stroke-width="3.3423"/>
<path d="M790.841 746.49C808.143 734.408 842.066 715.814 839.347 738.092C836.628 760.37 805.877 752.973 790.841 746.49Z" fill="#161E33"/>
<path d="M790.838 690.917L790.841 746.49M790.841 746.49C808.143 734.408 842.066 715.814 839.347 738.092C836.628 760.37 805.877 752.973 790.841 746.49Z" stroke="#161E33" stroke-width="3.3423"/>
<path d="M827.612 367.15C827.612 400.41 800.65 427.372 767.391 427.372C734.131 427.372 707.169 400.41 707.169 367.15C707.169 333.89 734.131 306.928 767.391 306.928C800.65 306.928 827.612 333.89 827.612 367.15Z" fill="#37C6A3"/>
<path d="M985.694 475.047C990.313 475.047 994.058 478.792 994.058 483.411V551.997C994.058 556.616 990.313 560.361 985.694 560.361H548.251C543.632 560.361 539.887 556.616 539.887 551.997V483.411C539.887 478.792 543.632 475.047 548.251 475.047H985.694Z" fill="#37C6A3"/>
<path d="M767.391 712.588C800.65 712.588 827.612 685.626 827.612 652.366C827.612 619.107 800.65 592.145 767.391 592.145C734.131 592.145 707.169 619.107 707.169 652.366C707.169 685.626 734.131 712.588 767.391 712.588Z" fill="#37C6A3"/>
<ellipse cx="810.049" cy="500.138" rx="31.7836" ry="33.4564" fill="#17B68F"/>
<ellipse cx="735.478" cy="490.759" rx="44.2028" ry="46.6584" fill="#17B68F"/>
<ellipse cx="804.051" cy="502.002" rx="23.5658" ry="24.875" fill="white"/>
<ellipse cx="797.511" cy="494.147" rx="6.54608" ry="6.54605" fill="#161E33"/>
<ellipse cx="741.863" cy="494.105" rx="34.6941" ry="36.6216" fill="white"/>
<ellipse cx="752.149" cy="491.99" rx="9.63721" ry="9.63725" fill="#161E33"/>
<mask id="mask2" mask-type="alpha" maskUnits="userSpaceOnUse" x="539" y="306" width="456" height="407">
<path d="M827.612 367.15C827.612 400.41 800.65 427.372 767.391 427.372C734.131 427.372 707.169 400.41 707.169 367.15C707.169 333.89 734.131 306.928 767.391 306.928C800.65 306.928 827.612 333.89 827.612 367.15Z" fill="#37C6A3"/>
<path d="M985.694 475.047C990.313 475.047 994.058 478.792 994.058 483.411V551.579C994.058 556.198 990.313 559.943 985.694 559.943H548.251C543.632 559.943 539.887 556.198 539.887 551.579V483.411C539.887 478.792 543.632 475.047 548.251 475.047H985.694Z" fill="#37C6A3"/>
<path d="M767.391 712.588C800.65 712.588 827.612 685.626 827.612 652.366C827.612 619.107 800.65 592.145 767.391 592.145C734.131 592.145 707.169 619.107 707.169 652.366C707.169 685.626 734.131 712.588 767.391 712.588Z" fill="#37C6A3"/>
</mask>
<g mask="url(#mask2)">
<path d="M661.169 654.016C908.533 597.794 952.678 401.431 943.83 310.277L1003.26 447.449V555.346L882.818 685.826L747.319 736.011L661.169 654.016Z" fill="#17B68F"/>
</g>
<path d="M730.613 324.696C731.38 325.07 730.833 325.176 728.472 324.912C729.186 324.828 729.899 324.757 730.613 324.696C726.377 322.63 682.077 312.378 682.077 310.923C682.077 309.205 728.472 310.923 728.472 310.923C723.89 306.341 714.725 297.177 716.444 297.177C718.162 297.177 734.2 304.05 742.219 307.487C742.219 307.487 738.783 302.332 740.501 302.332C742.219 302.332 752.529 309.205 752.529 309.205C752.529 309.205 810.954 288.585 810.954 290.303C810.954 292.022 785.178 307.487 785.178 307.487C785.178 307.487 816.109 304.051 816.109 305.768C816.109 307.486 802.362 314.36 802.362 314.36C802.362 314.36 841.884 319.514 841.884 321.234C841.884 322.953 814.39 328.107 814.39 328.107C802.935 324.098 775.283 324.912 761.536 324.912C748.796 324.912 739.636 323.929 730.613 324.696Z" fill="#37C6A3"/>
<ellipse cx="441.907" cy="921.126" rx="161.846" ry="30.1108" fill="#DBDBEE"/>
<path d="M419.721 903.559C399.369 897.983 361.173 891.849 371.21 911.923C381.247 931.997 407.733 914.711 419.721 903.559Z" fill="#161E33"/>
<path d="M371.21 763.878L419.721 903.559M419.721 903.559C399.369 897.983 361.173 891.849 371.21 911.923C381.247 931.997 407.733 914.711 419.721 903.559Z" stroke="#161E33" stroke-width="3.3423"/>
<path d="M465.747 903.559C486.1 897.983 524.296 891.849 514.259 911.923C504.222 931.997 477.736 914.711 465.747 903.559Z" fill="#161E33"/>
<path d="M514.259 763.878L465.747 903.559M465.747 903.559C486.1 897.983 524.296 891.849 514.259 911.923C504.222 931.997 477.736 914.711 465.747 903.559Z" stroke="#161E33" stroke-width="3.3423"/>
<rect x="669.41" y="653.055" width="120.443" height="454.171" rx="8.35575" transform="rotate(90 669.41 653.055)" fill="#F15555"/>
<mask id="mask3" mask-type="alpha" maskUnits="userSpaceOnUse" x="215" y="653" width="455" height="121">
<rect x="669.411" y="653.052" width="120.443" height="454.171" rx="8.35575" transform="rotate(90 669.411 653.052)" fill="#F15555"/>
</mask>
<g mask="url(#mask3)">
<ellipse cx="310.539" cy="679.167" rx="6.4592" ry="6.45923" fill="#FFA178"/>
<ellipse cx="311.947" cy="739.118" rx="8.84948" ry="11.7993" transform="rotate(39.2856 311.947 739.118)" fill="#FFA178"/>
<ellipse rx="8.84947" ry="11.7993" transform="matrix(0.792261 -0.610182 0.610183 0.79226 337.779 700.358)" fill="#FFA178"/>
<path d="M308.499 897.283C530.649 848.102 570.295 676.331 562.349 596.594H748.033L776.471 791.477L625.917 808.206L644.736 953.741L407.195 982.179L308.499 897.283Z" fill="#E84141"/>
<ellipse rx="6.4592" ry="6.45923" transform="matrix(-1 0 0 1 589.992 679.167)" fill="#FFA178"/>
<ellipse rx="8.84948" ry="11.7993" transform="matrix(-0.773999 0.633187 0.633187 0.773999 588.592 739.118)" fill="#FFA178"/>
<ellipse rx="8.84947" ry="11.7993" transform="matrix(-0.792261 -0.610182 -0.610183 0.79226 562.756 700.358)" fill="#FFA178"/>
</g>
<path d="M239.22 592.019C209.015 602.247 207.692 639.43 210.806 656.743L222.014 662.931C240.336 635.032 269.426 581.792 239.22 592.019Z" fill="#F15555"/>
<path d="M158.416 621.496C187.557 608.544 213.731 634.988 223.175 649.828L219.128 661.974C186.748 653.878 129.274 634.448 158.416 621.496Z" fill="#F15555"/>
<path d="M157.81 692.745C163.674 661.398 200.298 654.843 217.877 655.483L225.584 665.706C200.549 687.78 151.946 724.091 157.81 692.745Z" fill="#F15555"/>
<ellipse cx="485.041" cy="712.809" rx="40.742" ry="47.985" transform="rotate(20.83 485.041 712.809)" fill="white"/>
<ellipse rx="12.6643" ry="12.6643" transform="matrix(0.93464 0.355596 -0.355595 0.93464 489.417 703.83)" fill="#161E33"/>
<ellipse cx="403.139" cy="703.267" rx="29.1387" ry="34.3189" transform="rotate(20.83 403.139 703.267)" fill="white"/>
<ellipse rx="6.47528" ry="6.47529" transform="matrix(0.93464 0.355596 -0.355595 0.93464 406.272 696.843)" fill="#161E33"/>
</svg>
