<svg width="1000" height="1000" viewBox="0 0 1000 1000" fill="none" xmlns="http://www.w3.org/2000/svg">
<mask id="mask0" mask-type="alpha" maskUnits="userSpaceOnUse" x="0" y="0" width="1000" height="1000">
<rect width="1000" height="1000" fill="#C4C4C4"/>
</mask>
<g mask="url(#mask0)">
<path d="M332.432 183.997L38.7717 334.032C8.7376 349.377 -3.17035 386.164 12.1745 416.198L240.006 862.126C255.351 892.16 292.137 904.068 322.171 888.723L615.831 738.688C645.865 723.343 657.773 686.556 642.429 656.522L414.597 210.594C399.252 180.56 362.466 168.652 332.432 183.997Z" fill="#FF9F40"/>
<mask id="mask1" mask-type="alpha" maskUnits="userSpaceOnUse" x="5" y="177" width="645" height="719">
<path d="M332.395 184.038L38.7355 334.073C8.70147 349.418 -3.20648 386.204 12.1384 416.239L239.97 862.166C255.314 892.2 292.101 904.108 322.135 888.764L615.795 738.728C645.829 723.383 657.737 686.597 642.392 656.563L414.561 210.635C399.216 180.601 362.429 168.693 332.395 184.038Z" fill="#F6F7FF"/>
</mask>
<g mask="url(#mask1)">
<path d="M866.31 294.621L552.838 192.24C520.777 181.769 486.299 199.27 475.828 231.331L320.36 707.344C309.889 739.405 327.391 773.883 359.451 784.354L672.924 886.735C704.984 897.206 739.462 879.704 749.933 847.644L905.401 371.631C915.872 339.57 898.37 305.092 866.31 294.621Z" fill="#EE8824"/>
</g>
<mask id="mask2" mask-type="alpha" maskUnits="userSpaceOnUse" x="275" y="577" width="206" height="164">
<path d="M350.231 706.332L437.241 661.877C446.252 657.273 457.288 660.846 461.891 669.856C466.495 678.866 462.922 689.902 453.912 694.506L366.902 738.961C357.891 743.564 346.855 739.992 342.252 730.981C337.648 721.971 341.221 710.935 350.231 706.332ZM285.594 665.874L454.176 579.743C463.187 575.14 474.223 578.712 478.826 587.722C483.43 596.733 479.857 607.769 470.847 612.372L302.265 698.503C293.254 703.107 282.218 699.534 277.615 690.524C273.011 681.514 276.584 670.478 285.594 665.874Z" fill="white"/>
</mask>
<g mask="url(#mask2)">
<path opacity="0.648182" d="M350.231 706.332L437.241 661.877C446.252 657.273 457.288 660.846 461.891 669.856C466.495 678.866 462.922 689.902 453.912 694.506L366.902 738.961C357.891 743.564 346.855 739.992 342.252 730.981C337.648 721.971 341.221 710.935 350.231 706.332ZM285.594 665.874L454.176 579.743C463.187 575.14 474.223 578.712 478.826 587.722C483.43 596.733 479.857 607.769 470.847 612.372L302.265 698.503C293.254 703.107 282.218 699.534 277.615 690.524C273.011 681.514 276.584 670.478 285.594 665.874Z" fill="white"/>
</g>
<path fill-rule="evenodd" clip-rule="evenodd" d="M259.7 493.143C200.463 475.702 170.151 455.145 193.324 405.308C216.497 355.47 238.188 301.577 299.806 306.656C361.424 311.735 407.011 329.564 411.138 378.625C412.779 398.133 379.52 407.395 374.315 428.851C366.43 461.356 396.002 497.859 346.769 517.063C318.075 530.352 309.273 532.886 259.7 493.143Z" fill="white"/>
<path d="M250.603 584.97C261.691 574.607 262.279 557.217 251.916 546.129C241.553 535.04 224.163 534.452 213.075 544.815C201.986 555.178 201.398 572.568 211.761 583.656C222.124 594.745 239.514 595.333 250.603 584.97Z" fill="white"/>
<path d="M923.437 258.052L608.124 161.491C575.875 151.615 541.727 169.752 531.851 202L385.221 680.81C375.345 713.058 393.482 747.207 425.73 757.083L741.044 853.644C773.293 863.52 807.441 845.383 817.317 813.134L963.947 334.325C973.823 302.076 955.686 267.928 923.437 258.052Z" fill="#FB6159"/>
<mask id="mask3" mask-type="alpha" maskUnits="userSpaceOnUse" x="382" y="158" width="585" height="699">
<path d="M923.437 258.052L608.124 161.491C575.875 151.615 541.727 169.752 531.851 202L385.221 680.81C375.345 713.058 393.482 747.207 425.73 757.083L741.044 853.644C773.293 863.52 807.441 845.383 817.317 813.134L963.947 334.325C973.823 302.076 955.686 267.928 923.437 258.052Z" fill="#FB6159"/>
</mask>
<g mask="url(#mask3)">
<path fill-rule="evenodd" clip-rule="evenodd" d="M835.835 104.13L564.918 904.754L859.722 913.992L1073.03 258.173L835.835 104.13Z" fill="#E74941"/>
</g>
<path opacity="0.648182" d="M735.582 626.947L554.569 571.514C544.895 568.551 534.65 573.992 531.687 583.667C528.724 593.342 534.166 603.586 543.84 606.549L724.853 661.982C734.528 664.945 744.773 659.504 747.735 649.829C750.698 640.155 745.257 629.91 735.582 626.947Z" fill="white"/>
<path opacity="0.648182" d="M666.274 674.214L572.848 645.603C563.174 642.64 552.929 648.081 549.966 657.756C547.004 667.431 552.445 677.675 562.119 680.638L655.545 709.249C665.22 712.211 675.465 706.77 678.427 697.096C681.39 687.421 675.949 677.177 666.274 674.214Z" fill="white"/>
<path fill-rule="evenodd" clip-rule="evenodd" d="M770.938 492.422C736.859 543.918 708.302 566.85 667.475 530.054C626.648 493.259 581.508 456.688 604.47 399.283C627.433 341.879 657.871 303.544 705.979 314.017C725.108 318.181 724.187 352.693 743.166 363.973C771.918 381.062 815.501 363.524 819.388 416.226C823.658 447.558 823.494 456.717 770.938 492.422Z" fill="white"/>
<path d="M808.722 351.156C823.897 351.428 836.419 339.347 836.691 324.172C836.963 308.997 824.882 296.475 809.707 296.203C794.532 295.931 782.011 308.012 781.739 323.187C781.467 338.362 793.548 350.884 808.722 351.156Z" fill="white"/>
</g>
</svg>
