<svg xmlns="http://www.w3.org/2000/svg" xmlns:xlink="http://www.w3.org/1999/xlink" viewBox="0 0 678.35 704.76"><defs><clipPath id="clip-path" transform="translate(1.72 4.97)"><path d="M534.7,457.93S625.55,6.23,470,.55,515.43,451,515.43,451Z" style="fill:#dcf8ff;stroke:#63a2e0;stroke-miterlimit:10;opacity:0.5"/></clipPath><clipPath id="clip-path-2" transform="translate(1.72 4.97)"><path d="M470.13,490C59.56,616.68,30.21,675.56.32,623.72c-14.22-24.65,456-151,456-151" style="fill:#4d88ce"/></clipPath><clipPath id="clip-path-3" transform="translate(1.72 4.97)"><path d="M469.78,457.79s-215.36-155.74-137-187,153,180,153,180Z" style="fill:#dcf8ff;opacity:0.5"/></clipPath><clipPath id="clip-path-4" transform="translate(1.72 4.97)"><path d="M583.37,495.23c3.15-6.15,7.33-11,1.22-30.57S572.36,436.53,554,435.31s-90.5,7.33-100.28,20.79-2.45,26.9,25.68,44S558.91,542.93,583.37,495.23Z" style="fill:#4d88ce"/></clipPath><clipPath id="clip-path-5" transform="translate(1.72 4.97)"><path d="M566.24,441.42s4.9-11,29.36-23.24S640.85,414.51,647,428s12.23,39.13-7.33,51.36-40.36,13.46-61.16-3.66S566.24,441.42,566.24,441.42Z" style="fill:#4d88ce"/></clipPath><clipPath id="clip-path-6" transform="translate(1.72 4.97)"><path d="M521,472.67S173.68,121.14,309.8,24.52,534.17,455.14,534.17,455.14Z" style="fill:#dcf8ff;opacity:0.5"/></clipPath><clipPath id="clip-path-7" transform="translate(1.72 4.97)"><path d="M469.78,457.79s-275,0-277-92,293,85,293,85Z" style="fill:#dcf8ff;opacity:0.5"/></clipPath></defs><g id="Layer_2" data-name="Layer 2"><g id="dragonfly"><g id="Layer_4" data-name="Layer 4"><path d="M534.7,457.93S625.55,6.23,470,.55,515.43,451,515.43,451Z" transform="translate(1.72 4.97)" style="fill:#dcf8ff;opacity:0.5"/><g style="clip-path:url(#clip-path)"><path d="M492.6-1.1c19.88,53.58,29.38,109.94,33,166.8,3.72,58,3.44,116.35,4.12,174.46q.32,25.84.91,51.7c.37,17.19,0,34.54,1.1,51.7a.61.61,0,0,0,1.22,0c.51-15.86-.32-31.85-.39-47.72-.08-15.25-.2-30.5-.47-45.74-.55-30.93-1-61.87-1.48-92.8-.89-56.11-2.23-112.56-11.6-168-5.26-31.12-13.29-61.66-25.8-90.66-.16-.36-.78-.1-.64.27Z" transform="translate(1.72 4.97)" style="fill:#7bbbef"/><path d="M455.24-4.47c-.18,62.49,4.56,125.12,12.34,187.1a1698,1698,0,0,0,33,182.92c8.13,34.07,16.77,68.29,27.86,101.53a.89.89,0,0,0,1.72-.47c-8.44-30.13-17.35-60.07-24.87-90.45q-11.06-44.6-19.58-89.78a1695.54,1695.54,0,0,1-24.47-185.67c-2.7-35-4-70.08-4.94-105.18a.52.52,0,0,0-1,0Z" transform="translate(1.72 4.97)" style="fill:#7bbbef"/><path d="M507.62,39.08c7.24.36,14.69,1.22,21.93.86.82,0,1.1-1.35.2-1.52-7.17-1.35-14.87-1-22.13-.7a.68.68,0,0,0,0,1.36Z" transform="translate(1.72 4.97)" style="fill:#7bbbef"/><path d="M518.8,90c4.56-3.29,9-6.79,13.51-10.13,4-2.93,9.18-4.73,12.59-8.31a.36.36,0,0,0-.34-.59c-5,1.35-9.34,5.58-13.69,8.31a112,112,0,0,0-13.07,9.43c-.7.6.24,1.84,1,1.29Z" transform="translate(1.72 4.97)" style="fill:#7bbbef"/><path d="M523.08,120.91c10.59-.91,22.31,3.92,32.66.73a.52.52,0,0,0,0-1c-5.33-1.5-11.47-.85-17-1.29s-10.57-1.51-15.9-.1c-.89.24-.74,1.74.23,1.66Z" transform="translate(1.72 4.97)" style="fill:#7bbbef"/><path d="M527.4,179.39c5.51-2.82,10.54-6.38,16.15-9a147.59,147.59,0,0,0,16.36-8.66c.34-.22.13-.86-.28-.69a144.57,144.57,0,0,0-15.72,8.05c-5.69,3.25-11.76,5.53-17.52,8.6-1.15.61-.14,2.33,1,1.74Z" transform="translate(1.72 4.97)" style="fill:#7bbbef"/><path d="M529.58,217c9.27,7.57,20.1,12.15,30.39,18.07.95.55,1.81-1,.86-1.45a290.61,290.61,0,0,1-30.2-18c-.8-.56-1.82.74-1,1.36Z" transform="translate(1.72 4.97)" style="fill:#7bbbef"/><path d="M530.8,287.06c9.13-3.49,18.32-6.82,27.4-10.45,1-.42.59-2.14-.48-1.72-9.09,3.6-18.17,7.19-27.43,10.31-1.18.4-.64,2.29.51,1.86Z" transform="translate(1.72 4.97)" style="fill:#7bbbef"/><path d="M530.31,319.53a81.05,81.05,0,0,0,10.07,8.34c3.82,2.65,8.07,4.55,11.83,7.29.93.68,2-.8,1.22-1.59-2.85-2.75-6.67-4.32-10-6.42a86.76,86.76,0,0,1-11.85-8.88c-.85-.76-2.09.46-1.26,1.26Z" transform="translate(1.72 4.97)" style="fill:#7bbbef"/><path d="M532.41,379.94a116.89,116.89,0,0,0,17.2-10.63c.86-.65.11-2.1-.87-1.5A115.59,115.59,0,0,1,531.16,377a1.61,1.61,0,1,0,1.25,2.95Z" transform="translate(1.72 4.97)" style="fill:#7bbbef"/><path d="M531.49,409.62a109.49,109.49,0,0,0,10.23,5.64,1,1,0,0,0,1-1.74,112.46,112.46,0,0,0-10-6.09,1.27,1.27,0,0,0-1.28,2.19Z" transform="translate(1.72 4.97)" style="fill:#7bbbef"/><path d="M505.15,381.78c8,4.28,17,5.55,25.48,8.69,1,.35,1.42-1.27.42-1.54-8.6-2.35-16.27-7.19-24.8-9.77a1.44,1.44,0,0,0-1.1,2.62Z" transform="translate(1.72 4.97)" style="fill:#7bbbef"/><path d="M498.41,351.08c11-4.36,21.56-9.68,32.48-14.26,1.36-.57.46-2.58-.78-1.84-10.05,6-21.19,10.58-32,15.06-.63.26-.36,1.3.29,1Z" transform="translate(1.72 4.97)" style="fill:#7bbbef"/><path d="M486.67,295.92c14.16,4,28.59,7.09,42.73,11.13,2,.57,2.85-2.66.85-3.07-14.42-3-28.63-6.94-43.07-9.92a1,1,0,0,0-.51,1.86Z" transform="translate(1.72 4.97)" style="fill:#7bbbef"/><path d="M479.77,258.05a535.06,535.06,0,0,0,50.51-22.64c1.31-.68.15-2.66-1.16-2-16.4,8.45-32.81,16.33-49.77,23.64-.55.24-.15,1.21.42,1Z" transform="translate(1.72 4.97)" style="fill:#7bbbef"/><path d="M469,184.79c9.66,2,19.4,3.37,29.13,4.91s19.38,5.13,29.15,5.35a1.25,1.25,0,0,0,.33-2.44c-9.59-3-20.3-2.62-30.17-4.46-9.39-1.76-18.78-3.42-28.27-4.65-.73-.09-.89,1.15-.17,1.29Z" transform="translate(1.72 4.97)" style="fill:#7bbbef"/><path d="M463.81,139.76c18.11-12.36,36.36-24.17,55.37-35.11a.85.85,0,0,0-.85-1.46,484.16,484.16,0,0,0-55.47,34.95c-.95.7-.06,2.31.95,1.62Z" transform="translate(1.72 4.97)" style="fill:#7bbbef"/><path d="M459.38,64.22c9.17.79,18.36,1.44,27.53,2.32s18.31,3,27.4,3.21a1.32,1.32,0,0,0,.34-2.58c-8.48-2.25-18-2.37-26.76-3.15-9.51-.84-19-1.43-28.51-1.44a.82.82,0,0,0,0,1.64Z" transform="translate(1.72 4.97)" style="fill:#7bbbef"/><path d="M456.69,27.39A267.2,267.2,0,0,1,496.48,12c1-.29.55-1.86-.43-1.54C482.45,15,468.93,20,455.81,25.89c-1,.46-.13,2,.88,1.5Z" transform="translate(1.72 4.97)" style="fill:#7bbbef"/><path d="M420.8,36.79c5.91,1.92,11.86,3.67,17.75,5.64S450,47.28,455.76,49.7c1.41.6,2-1.71.63-2.3A194.92,194.92,0,0,0,421,36.25a.28.28,0,0,0-.15.54Z" transform="translate(1.72 4.97)" style="fill:#7bbbef"/><path d="M412.58,109.12c2.68-1.58,5.22-3.4,7.85-5.07.4-.26.15-1-.34-.82-3,1.19-6,2.22-8.9,3.5-1.6.7-.18,3.32,1.39,2.39Z" transform="translate(1.72 4.97)" style="fill:#7bbbef"/><path d="M427.45,101c5.43-2.07,10.9-4.1,16.19-6.53,5-2.29,11.4-4.31,15.31-8.24a.42.42,0,0,0-.41-.7c-5.25.8-10.34,4.41-15.08,6.73-5.45,2.66-10.77,5.59-16.18,8.36-.21.11-.06.47.17.38Z" transform="translate(1.72 4.97)" style="fill:#7bbbef"/><path d="M417.63,152.68c8.29,1.59,16.7,2.81,25,4,3.29.48,6.6.76,9.9,1.13,4.59.51,9,2,13.52,2.5,1.09.12,1.34-1.73.26-1.94-3.88-.74-7.87-.63-11.77-1.31-4.46-.76-8.86-1.79-13.34-2.46-7.8-1.16-15.59-2.49-23.41-3.38-.81-.09-1,1.28-.2,1.43Z" transform="translate(1.72 4.97)" style="fill:#7bbbef"/><path d="M436.6,225.25a61.08,61.08,0,0,0,12-6.35c.47-.32.19-1.24-.41-1a97.06,97.06,0,0,0-12.13,6c-.68.4-.23,1.63.56,1.32Z" transform="translate(1.72 4.97)" style="fill:#7bbbef"/><path d="M457.1,214.52c5.49-2.65,10.86-5.75,16.42-8.23,1.2-.53.11-2.51-1-1.78-5.12,3.26-10.67,6-15.9,9.12-.58.34-.07,1.18.52.89Z" transform="translate(1.72 4.97)" style="fill:#7bbbef"/><path d="M446,258.58c11.14.87,22.37,1.63,33.55,1.56a1,1,0,0,0,0-1.92c-11.14-.78-22.39-.74-33.55-.58a.47.47,0,0,0,0,.94Z" transform="translate(1.72 4.97)" style="fill:#7bbbef"/><path d="M470.7,337.11c4.13-2,7.62-5.36,11.45-7.88,3-2,6.49-4.22,8.57-7.09.14-.19-.12-.37-.29-.29-3.28,1.49-6.14,4.25-9,6.47-3.7,2.88-7.93,4.52-11.63,7.29a.87.87,0,0,0,.88,1.5Z" transform="translate(1.72 4.97)" style="fill:#7bbbef"/><path d="M483.63,369.64c6,.31,12,.43,18.06.36a.87.87,0,0,0,0-1.73c-6-.31-12-.43-18.06-.36a.87.87,0,0,0,0,1.73Z" transform="translate(1.72 4.97)" style="fill:#7bbbef"/><path d="M499.42,411.31c2.38-1.74,4.73-3.52,7.07-5.31,1.87-1.44,4.23-2.69,5.58-4.65a.73.73,0,0,0-.82-1.07c-2.32.84-4.18,2.83-6.18,4.25-2.27,1.61-4.55,3.17-6.85,4.72-1.29.86,0,3,1.2,2.06Z" transform="translate(1.72 4.97)" style="fill:#7bbbef"/></g><path d="M534.7,457.93S625.55,6.23,470,.55,515.43,451,515.43,451Z" transform="translate(1.72 4.97)" style="fill:none;stroke:#63a2e0;stroke-miterlimit:10;opacity:0.5"/><path d="M470.13,490C59.56,616.68,30.21,675.56.32,623.72c-14.22-24.65,456-151,456-151" transform="translate(1.72 4.97)" style="fill:#4d88ce"/><g style="clip-path:url(#clip-path-2)"><path d="M411.28,477.29s26,2,26,9-391,144-403,150-36-7-36-7l12,25,35-9,293-104,122-41,22-15-4-17-13-8Z" transform="translate(1.72 4.97)" style="fill:#2874bf"/><path d="M53.62,587.39c5.81-.46,12.73,4.84,16.8,8.5a47,47,0,0,1,10,13,43.21,43.21,0,0,1,4.68,18.22c.29,6.38-1.82,12.35-1.92,18.62a2.6,2.6,0,0,0,4.4,1.82c5.11-5.58,6.09-14.89,5.76-22.18a47.21,47.21,0,0,0-6.69-21.88C80.55,593.24,65.86,580.21,53,582.78c-2.57.52-2,4.81.62,4.61Z" transform="translate(1.72 4.97)" style="fill:#54c4e2"/><path d="M99.17,574.92a47.33,47.33,0,0,1,23.15,20.73,44.28,44.28,0,0,1,5,16.05c.59,5.54-.73,10.89-.41,16.37.18,3,4.22,4.4,5.85,1.59C139,618.9,134.6,602,128.55,592a46.93,46.93,0,0,0-28.29-21.08c-2.64-.71-3.46,3-1.09,4Z" transform="translate(1.72 4.97)" style="fill:#54c4e2"/><path d="M141.61,561.74a39.1,39.1,0,0,1,20.57,18.34c5,9.44,5,19.78,6.71,30,.54,3.36,5.35,2.78,6.24,0,7.1-22.33-9.91-48.59-32.08-53.63a2.72,2.72,0,0,0-1.44,5.24Z" transform="translate(1.72 4.97)" style="fill:#54c4e2"/><path d="M181.35,551.49c8.08,3.2,14.11,10.77,17.05,18.78,3,8.19,2.52,18.06,7,25.58a2.71,2.71,0,0,0,4.89-.63c2.82-9.8-1.55-22.91-6.43-31.46-4.71-8.25-11.85-14.58-21.35-16.34a2.11,2.11,0,0,0-1.12,4.07Z" transform="translate(1.72 4.97)" style="fill:#54c4e2"/><path d="M215.3,541.51a36.63,36.63,0,0,1,14.18,17.71c3.16,8.75,1.12,16.74.63,25.65-.18,3.42,4.17,3.85,5.86,1.58,6.31-8.49,4.71-21.38.77-30.52a39.27,39.27,0,0,0-18.5-19.44,2.91,2.91,0,0,0-2.94,5Z" transform="translate(1.72 4.97)" style="fill:#54c4e2"/><path d="M245.06,529a50.79,50.79,0,0,1,13.17,21.25,52.91,52.91,0,0,1,2.16,14.19c.07,4.53-.48,9,.36,13.45.41,2.16,3.42,2.23,4.46.58,5.59-8.9,3.24-22.58-.83-31.64-3.92-8.74-10.15-15-19.27-17.91-.05,0-.08.05-.05.08Z" transform="translate(1.72 4.97)" style="fill:#54c4e2"/><path d="M269,523.15c8.53,5.72,16.45,12.09,18.89,22.57,2.3,9.88-.41,20.69,2.95,30.29a2,2,0,0,0,3.8,0c3.35-10.8,3.31-24.8-.92-35.34s-13.18-15.93-22.5-21.33c-2.47-1.43-4.56,2.24-2.22,3.81Z" transform="translate(1.72 4.97)" style="fill:#54c4e2"/><path d="M296.27,515.3c5.62.86,7.46,6.43,9.46,11,1.74,3.92,3.68,7.72,5.19,11.73a60.69,60.69,0,0,1,3.37,11.95c.69,4.37.49,8.76,1.07,13.15a2.32,2.32,0,0,0,4.28,1.16c6.77-9.37,1.28-23.16-3.83-32-4-7-9.77-18.88-19.54-17a.05.05,0,0,0,0,.1Z" transform="translate(1.72 4.97)" style="fill:#54c4e2"/><path d="M18.69,607.9c8.81-1.87,15.86,8,20.69,13.89a79,79,0,0,1,7.51,10.72c2.42,4.21,2.74,8.09,3,12.81a3,3,0,0,0,5.51,1.49c7.15-10-3.81-23.59-10.12-30.93-7-8.09-16.58-17.56-28.25-13.94-3.82,1.18-2.24,6.79,1.65,6Z" transform="translate(1.72 4.97)" style="fill:#54c4e2"/><path d="M321.61,506.88A29.9,29.9,0,0,1,334.18,524a46.43,46.43,0,0,1,1.62,11.42c.08,3.84-.42,7.49.81,11.21a2.09,2.09,0,0,0,3.77.49c4.25-7.47,1.7-19.17-1.9-26.48-3.39-6.86-9.19-12.31-16.83-13.81,0,0-.09.06,0,.09Z" transform="translate(1.72 4.97)" style="fill:#54c4e2"/><path d="M343.66,497.25c5.22,5.19,10,11.35,13,18.12,3.23,7.36,3.79,14.9,4.52,22.79.11,1.24,2,1.67,2.3.31,3.92-15.52-6.2-34-19.8-41.26,0,0-.05,0,0,0Z" transform="translate(1.72 4.97)" style="fill:#54c4e2"/><path d="M363.81,492.53c7.91,11.35,16.29,25.6,16.32,39.8a1.06,1.06,0,0,0,2.07.28c2.44-7-1.29-14.44-4.42-20.61a81.13,81.13,0,0,0-13.93-19.5s-.06,0,0,0Z" transform="translate(1.72 4.97)" style="fill:#54c4e2"/></g><polyline points="678.03 604.16 610.76 547.9 602.2 487.98 642.56 525.89 664.58 562.58 676.81 566.25" style="fill:none;stroke:#0e0f16;stroke-miterlimit:10"/><polyline points="596.09 485.53 563.07 568.7 605.87 615.17" style="fill:none;stroke:#0e0f16;stroke-miterlimit:10"/><path d="M549.12,517.25l-2.44,18.34s58.7,40.36,59.92,41.59" transform="translate(1.72 4.97)" style="fill:none;stroke:#0e0f16;stroke-miterlimit:10"/><polyline points="593.64 485.53 604.4 503.37 517.82 536.9 565.51 587.04" style="fill:none;stroke:#0e0f16;stroke-miterlimit:10"/><polyline points="575.3 507.54 479.9 574.81 525.15 688.55 512.92 704.45" style="fill:none;stroke:#0e0f16;stroke-miterlimit:10"/><path d="M534.7,457.93S625.55,6.23,470,.55,515.43,451,515.43,451Z" transform="translate(1.72 4.97)" style="fill:none;stroke:#63a2e0;stroke-miterlimit:10"/><path d="M469.78,457.79s-215.36-155.74-137-187,153,180,153,180Z" transform="translate(1.72 4.97)" style="fill:#dcf8ff;opacity:0.5"/><g style="clip-path:url(#clip-path-3)"><path d="M347.8,259.93c38,53.95,77,107,113.93,161.72,4.75,7,9.5,14.1,14.55,20.92s10.13,14.22,16.48,19.8c.7.62,1.94-.18,1.37-1.05-4.33-6.52-9.7-12.38-14.3-18.72q-6.69-9.21-13.08-18.62c-9.17-13.44-18.28-26.91-27.54-40.29Q411,342.89,381.59,302.9c-10.8-14.69-21.78-29.22-33.2-43.43-.26-.33-.83.11-.59.46Z" transform="translate(1.72 4.97)" style="fill:#7bbbef"/><path d="M327.57,277.91c26.8,31.37,53,63,76.63,96.87,11.06,15.84,22.42,31.42,34.7,46.35,12.42,15.11,25.32,30.61,40.09,43.5a.7.7,0,0,0,1-1c-13-14.89-26.94-28.81-39.54-44.06-13-15.73-24.91-32.22-36.64-48.9-23.1-32.85-49.45-62.92-76.2-92.81,0,0-.05,0,0,0Z" transform="translate(1.72 4.97)" style="fill:#7bbbef"/><path d="M318.35,308.8c9.06-2.16,17.95-4.89,27.06-6.87.6-.13.35-1.06-.26-.92-9,2.06-18.21,4.25-26.81,7.77,0,0,0,0,0,0Z" transform="translate(1.72 4.97)" style="fill:#7bbbef"/><path d="M341.52,343.16c6.21-8.52,12.44-17.26,19.83-24.82.78-.79-.53-1.87-1.23-.95-6.39,8.5-13.25,16.59-19.21,25.42-.26.38.34.71.61.35Z" transform="translate(1.72 4.97)" style="fill:#7bbbef"/><path d="M358.93,362.76c9.89-3,20-6.89,30.19-8.77,1.09-.2.55-2-.45-1.63-9.55,4-20.13,6.32-30.07,9.21a.62.62,0,0,0,.33,1.19Z" transform="translate(1.72 4.97)" style="fill:#7bbbef"/><path d="M402.83,372.31a186.31,186.31,0,0,0-11.91,21c-.46,1,1,1.81,1.44.84a171.7,171.7,0,0,1,11.54-21.2c.43-.68-.64-1.3-1.07-.63Z" transform="translate(1.72 4.97)" style="fill:#7bbbef"/><path d="M410.65,410.55c5.46-1.51,10.92-3.29,16.45-4.51.83-.18.46-1.53-.35-1.26-5.36,1.8-11,3.08-16.42,4.6a.61.61,0,0,0,.32,1.17Z" transform="translate(1.72 4.97)" style="fill:#7bbbef"/><path d="M442.64,424.24c-.68,1.81-1.31,3.64-1.93,5.47-.55,1.59-1.41,3.26-1.51,5,0,.61.8.75,1.1.29.9-1.41,1.17-3.29,1.67-4.89.56-1.85,1.12-3.69,1.64-5.55a.5.5,0,0,0-1-.27Z" transform="translate(1.72 4.97)" style="fill:#7bbbef"/><path d="M456.79,438.06c2.47-1.18,4.94-2.35,7.47-3.39a39.34,39.34,0,0,0,6.05-2.56.65.65,0,0,0-.5-1.18,32.19,32.19,0,0,0-6.51,2.73c-2.37,1.12-4.74,2.24-7.09,3.41-.66.33-.08,1.31.58,1Z" transform="translate(1.72 4.97)" style="fill:#7bbbef"/><path d="M436,414.9a178.36,178.36,0,0,0,10.34-16.38c.64-1.14-1.19-2.17-1.74-1a116.28,116.28,0,0,1-9.76,16.71c-.49.71.66,1.37,1.16.68Z" transform="translate(1.72 4.97)" style="fill:#7bbbef"/><path d="M411.28,382c6.65-1.17,13-3.24,19.5-4.86,1.2-.3.65-2.24-.5-1.83-6.38,2.24-12.8,4-19,6.67,0,0,0,0,0,0Z" transform="translate(1.72 4.97)" style="fill:#7bbbef"/><path d="M397.39,361.28c4-6,7.92-12.07,12.21-17.86.69-.93-.92-1.91-1.58-.92-4,6-8.13,11.9-12.07,17.94-.59.9.85,1.73,1.44.84Z" transform="translate(1.72 4.97)" style="fill:#7bbbef"/><path d="M372.88,331.43c7.17-2.65,14.42-5.22,21.73-7.45,1.08-.33.6-2.06-.47-1.69-7.35,2.48-14.52,5.16-21.61,8.3-.47.21-.13,1,.35.84Z" transform="translate(1.72 4.97)" style="fill:#7bbbef"/><path d="M370,288.51c-5.71,6.42-11.34,12.92-17.07,19.32-.72.8.5,2,1.17,1.17,5.47-6.64,11.15-13.1,16.83-19.56.56-.63-.36-1.56-.93-.93Z" transform="translate(1.72 4.97)" style="fill:#7bbbef"/><path d="M332.17,282c8.21-3.25,16.17-7.94,24.72-10.16.81-.21.44-1.51-.34-1.24-8.55,2.91-16.1,7.78-24.52,10.9-.31.12-.17.62.14.5Z" transform="translate(1.72 4.97)" style="fill:#7bbbef"/><path d="M376.29,296.68c3.1-4.57,6.27-9.09,9.46-13.6.59-.83-.78-1.63-1.35-.79-3.13,4.55-6.22,9.11-9.35,13.67-.52.76.72,1.48,1.24.72Z" transform="translate(1.72 4.97)" style="fill:#7bbbef"/><path d="M389.72,316.49c7.19-2.19,14.37-4.85,21.38-7.53a.59.59,0,1,0-.46-1.09c-7,3-13.95,5.42-21.14,7.8-.51.17-.3,1,.22.82Z" transform="translate(1.72 4.97)" style="fill:#7bbbef"/><path d="M415.92,352c5-5.36,10.23-10.83,14.47-16.83.42-.61-.54-1.36-1-.8-4.84,5.54-9.28,11.38-14.27,16.8-.51.55.31,1.38.83.83Z" transform="translate(1.72 4.97)" style="fill:#7bbbef"/><path d="M435.31,380.56c6.39.17,12.25-2.58,18.56-3.08.75-.06.75-1.23,0-1.17-6.3.5-12.21,3.16-18.56,3.27a.49.49,0,0,0,0,1Z" transform="translate(1.72 4.97)" style="fill:#7bbbef"/><path d="M462,416.42c1.29-1.67,2.65-3.26,3.95-4.91.84-1.06,2.33-2.21,2.34-3.63a.36.36,0,0,0-.45-.34c-1.51.33-2.57,2.51-3.48,3.68-1.16,1.5-2.21,3.1-3.31,4.64-.41.59.53,1.11.95.56Z" transform="translate(1.72 4.97)" style="fill:#7bbbef"/></g><path d="M469.78,457.79s-215.36-155.74-137-187,153,180,153,180Z" transform="translate(1.72 4.97)" style="fill:none;stroke:#63a2e0;stroke-miterlimit:10"/><path d="M583.37,495.23c3.15-6.15,7.33-11,1.22-30.57S572.36,436.53,554,435.31s-90.5,7.33-100.28,20.79-2.45,26.9,25.68,44S558.91,542.93,583.37,495.23Z" transform="translate(1.72 4.97)" style="fill:#4d88ce"/><g style="clip-path:url(#clip-path-4)"><path d="M498.28,435.29s37,4,54,23-.3,72.39-82.15,37.7l10.15,12.3,42.92,20.89,28.08,2.11L578.71,520l13.57-24.72,3-28-8-23-18-14-23-2Z" transform="translate(1.72 4.97)" style="fill:#2874bf"/></g><path d="M566.24,441.42s4.9-11,29.36-23.24S640.85,414.51,647,428s12.23,39.13-7.33,51.36-40.36,13.46-61.16-3.66S566.24,441.42,566.24,441.42Z" transform="translate(1.72 4.97)" style="fill:#4d88ce"/><g style="clip-path:url(#clip-path-5)"><path d="M612.28,407.29s22,5,26,43-57,35-69,25v13l51,8,28-8,11-21-1-28-16-35Z" transform="translate(1.72 4.97)" style="fill:#2874bf"/></g><path d="M521,472.67S173.68,121.14,309.8,24.52,534.17,455.14,534.17,455.14Z" transform="translate(1.72 4.97)" style="fill:#dcf8ff;opacity:0.5"/><g style="clip-path:url(#clip-path-6)"><path d="M335.57,10.36c21.84,19.26,37,44.32,48.75,70.71,13.08,29.43,22.48,60.72,32.59,91.25C438.64,238,459.53,304,483.72,368.77c6.38,17.09,12.71,34.28,20.72,50.68,8.5,17.43,15.29,35.68,23.73,53.17,1,2,4,.24,3-1.73-7.67-15.3-15.32-30.73-22.07-46.47-6.82-15.9-12.73-32.39-19-48.53-12.38-31.93-23.5-64.33-34.48-96.75-11.39-33.63-22.35-67.41-33.84-101-10.26-30-20.15-60.37-32.74-89.5-12.7-29.39-28.18-57.79-52.81-78.91-.43-.37-1.06.25-.63.63Z" transform="translate(1.72 4.97)" style="fill:#63a2e0"/><path d="M293.67,35.86c40.7,47.74,63.29,108.38,88.58,165C409,260.71,437,320,468.47,377.55c17.66,32.28,36.32,63.91,57.67,93.89.36.51,1.2.05.85-.49a1712,1712,0,0,1-96.18-172.17c-28.36-58.46-53.25-118.53-81.51-177C334.37,90.9,317,61.08,294.17,35.36c-.3-.34-.79.16-.5.5Z" transform="translate(1.72 4.97)" style="fill:#63a2e0"/><path d="M379,67.52A114.89,114.89,0,0,1,411.51,61c.78-.05.78-1.26,0-1.22a113.38,113.38,0,0,0-32.74,6.88c-.56.21-.32,1.11.25.91Z" transform="translate(1.72 4.97)" style="fill:#63a2e0"/><path d="M398.52,112.28c4.4-4.26,9.15-8.14,13.6-12.35s8.86-8.48,13.56-12.37c.58-.48-.27-1.36-.82-.83-4.46,4.19-9.24,8.07-13.9,12s-9,8.29-13.7,12.26c-.86.73.43,2.06,1.26,1.26Z" transform="translate(1.72 4.97)" style="fill:#63a2e0"/><path d="M409.85,145.33c7.21-.1,14.49,0,21.69-.43,6.38-.34,13.57.24,19.77-1.1a.17.17,0,0,0,0-.32c-6.2-1.3-13.4-.54-19.77-.69-7.18-.16-14.53.38-21.69.81-1.1.06-1.12,1.75,0,1.73Z" transform="translate(1.72 4.97)" style="fill:#63a2e0"/><path d="M430.92,207.82c5.67-4.64,11.23-9.61,17.06-14,4.94-3.76,10.28-7.07,14.65-11.52a.26.26,0,0,0-.31-.4c-5.89,2.94-10.72,7.45-15.73,11.62-5.5,4.59-10.95,9-16.1,13.92-.28.28.14.68.43.43Z" transform="translate(1.72 4.97)" style="fill:#63a2e0"/><path d="M443.21,242.81c6.91.25,14-1.61,20.82-2.62,6.16-.91,13.18-.67,19.09-2.45a.63.63,0,0,0-.16-1.24c-6.18-.07-12.87,2.12-19,3-6.85.94-14.15,1.12-20.73,3.29,0,0,0,.05,0,.05Z" transform="translate(1.72 4.97)" style="fill:#63a2e0"/><path d="M461.51,296.49c5.35-7.16,13.57-11,20.77-16a.23.23,0,0,0-.23-.4c-8.09,4-14.9,9.63-21.57,15.6-.67.6.44,1.59,1,.8Z" transform="translate(1.72 4.97)" style="fill:#63a2e0"/><path d="M487,276.68l2.05-1.7c.19-.15-.08-.42-.27-.26l-2.05,1.7c-.18.15.09.41.27.26Z" transform="translate(1.72 4.97)" style="fill:#63a2e0"/><path d="M490.92,273.73c1-.47,1.95-.91,2.93-1.35a.52.52,0,0,0,.27-.46.5.5,0,0,0-.27-.46.52.52,0,0,0-.54,0c-.87.62-1.75,1.23-2.65,1.82a.26.26,0,0,0,.26.45Z" transform="translate(1.72 4.97)" style="fill:#63a2e0"/><path d="M471.89,330.64c6-.24,12-.22,18-.18s12,.56,18,.54c.64,0,.83-1,.16-1.15a131.54,131.54,0,0,0-17.18-1.32c-6.31-.23-12.65.06-18.95.42-1.07.06-1.09,1.73,0,1.69Z" transform="translate(1.72 4.97)" style="fill:#63a2e0"/><path d="M491,375.15c8.16-5.78,15.54-12.41,23.48-18.47a.3.3,0,1,0-.37-.48c-7.91,6.11-16.22,11.52-23.91,17.92-.57.47.19,1.46.8,1Z" transform="translate(1.72 4.97)" style="fill:#63a2e0"/><path d="M498.5,403.7c3.49.47,7-.4,10.42-.89,4.62-.66,9.31-1.09,13.8-2.41a.26.26,0,0,0-.07-.51,63,63,0,0,0-12.32,1c-4,.59-8.25.85-11.84,2.72a0,0,0,0,0,0,.05Z" transform="translate(1.72 4.97)" style="fill:#63a2e0"/><path d="M512.41,432c2.75-1.88,5.34-4,8.05-5.93,2.15-1.57,4.46-3,6-5.27.07-.11-.06-.29-.19-.24-2.52,1-4.47,2.88-6.48,4.61-2.54,2.2-5.15,4.25-7.6,6.5-.18.16.05.47.25.33Z" transform="translate(1.72 4.97)" style="fill:#63a2e0"/><path d="M521,449a35.53,35.53,0,0,0,12.59-.36.8.8,0,0,0-.22-1.57c-4.13.19-8.25.91-12.37,1.22a.36.36,0,0,0,0,.71Z" transform="translate(1.72 4.97)" style="fill:#63a2e0"/><path d="M514.26,439.53c-1.33,1.8-3,3.71-3.82,5.81-.2.52.54.88.9.53,1.58-1.58,2.64-3.93,3.72-5.86a.47.47,0,0,0-.8-.48Z" transform="translate(1.72 4.97)" style="fill:#63a2e0"/><path d="M497.78,424a39.36,39.36,0,0,0,2.82-3.74c.92-1.42,2.45-2.58,3.12-4.12.12-.27-.16-.72-.48-.48-1.29,1-2,2.64-3.11,3.85S498,422,497,423.4c-.35.46.44,1.07.81.62Z" transform="translate(1.72 4.97)" style="fill:#63a2e0"/><path d="M480.79,396.62a57.52,57.52,0,0,0,12.56-3.35c.37-.15.38-.84-.11-.78a57.33,57.33,0,0,0-12.69,3.27.45.45,0,0,0,.24.86Z" transform="translate(1.72 4.97)" style="fill:#63a2e0"/><path d="M477.57,348.72c-4.79,5.43-8.42,11.93-13.5,17.09-1.21,1.23,1.13,2.79,1.77,1.36,3-6.62,8.22-12.07,12.54-17.82.35-.47-.43-1.06-.81-.63Z" transform="translate(1.72 4.97)" style="fill:#63a2e0"/><path d="M440.15,320.39l.22-.15.1-.06a.23.23,0,0,0,.11-.2.18.18,0,0,0-.09-.16c-.11-.07-.2,0-.31,0l-.23.09a.26.26,0,1,0,.2.47Z" transform="translate(1.72 4.97)" style="fill:#63a2e0"/><path d="M442.48,324.3c8.17-2,16.37-3.9,24.5-6a1.2,1.2,0,0,0-.63-2.31c-8.22,1.77-16.33,4-24.37,6.52a.93.93,0,0,0,.5,1.8Z" transform="translate(1.72 4.97)" style="fill:#63a2e0"/><path d="M426.27,292.39c3.71-4.4,7.28-9,11.28-13.15s8.38-8,12.07-12.42a1,1,0,0,0-1.42-1.42c-4.36,3.82-7.93,8.41-11.68,12.81s-7.76,8.54-11.48,13c-.72.85.51,2.08,1.23,1.22Z" transform="translate(1.72 4.97)" style="fill:#63a2e0"/><path d="M402.06,236.68c11.8-1.59,23.52-3.72,35.24-5.83,1.24-.22.72-2.13-.53-1.9-11.66,2.21-23.32,4.41-34.87,7.14-.39.09-.21.64.16.59Z" transform="translate(1.72 4.97)" style="fill:#63a2e0"/><path d="M384.55,197.26c10.75-9.26,22.58-18.07,32.28-28.44.83-.88-.3-2.57-1.36-1.76-11.41,8.6-21.49,19.45-31.91,29.21-.67.62.32,1.58,1,1Z" transform="translate(1.72 4.97)" style="fill:#63a2e0"/><path d="M356.64,141.28c16.15-1.26,31.77-5.73,47.59-8.81,1.5-.29.85-2.77-.64-2.31-15.34,4.77-31.46,6.46-47.16,9.55a.8.8,0,0,0,.21,1.57Z" transform="translate(1.72 4.97)" style="fill:#63a2e0"/><path d="M348.75,119.47c6.33-5.83,12.66-11.6,18.83-17.6s13.12-11.39,18.45-18c.52-.64-.18-1.84-1-1.25-6.59,4.92-12.24,11.47-18.13,17.19-6.41,6.23-12.7,12.51-19,18.85a.57.57,0,0,0,.8.8Z" transform="translate(1.72 4.97)" style="fill:#63a2e0"/><path d="M313.48,61a275.93,275.93,0,0,1,25.69-10.85c7.62-2.91,15.61-5.18,22.92-8.82.77-.38.22-1.5-.56-1.32C344.62,43.81,328.86,53.17,313,59.74a.68.68,0,1,0,.53,1.24Z" transform="translate(1.72 4.97)" style="fill:#63a2e0"/><path d="M279.19,101.42c10-1.47,19.86-2.42,29.95-3,8.47-.48,17.1-.43,25.49-1.69,1.28-.19.77-2.32-.55-2-9.41,2.38-19.16,1.37-28.71,2.44-8.81,1-17.64,2-26.37,3.56-.45.08-.25.74.19.67Z" transform="translate(1.72 4.97)" style="fill:#63a2e0"/><path d="M296.13,166.81a224.2,224.2,0,0,1,26.78-22.56c8.69-6.21,18-11.64,26.49-18.18,1.15-.9-.32-2.69-1.53-2-9.42,5.48-18.29,12.44-26.83,19.18-9,7.12-17.71,14.5-25.41,23.05a.35.35,0,0,0,.5.5Z" transform="translate(1.72 4.97)" style="fill:#63a2e0"/><path d="M309.94,195.39c20.58-7.34,41.56-13.75,62.14-21.15,1.26-.45.74-2.46-.56-2-20.77,6.87-41.26,14.77-62,21.69-.94.31-.53,1.83.41,1.49Z" transform="translate(1.72 4.97)" style="fill:#63a2e0"/><path d="M344.62,254.55c3.26-3.68,7.92-6.29,11.76-9.4,3.4-2.75,6.64-5.65,9.95-8.52s6.89-5.37,10.42-8c4.3-3.19,8.72-7.36,13.53-9.79,1-.5-.09-2.08-1-1.25-4,3.76-9.16,6.51-13.53,9.78-3.52,2.63-6.87,5.42-10.46,8-3.17,2.22-6.3,4.39-9.3,6.83-4.24,3.45-7.94,8-12.52,11-1.15.74.25,2.4,1.11,1.43Z" transform="translate(1.72 4.97)" style="fill:#63a2e0"/><path d="M365.79,288.5c8.27-2.4,16.8-3.72,25.07-6.17s16.37-5.32,24.81-7.13c1.41-.3.66-2.58-.81-1.93-7.87,3.47-16.16,5.46-24.46,7.4s-16.51,4.54-24.91,5.62c-1.65.21-1.24,2.65.3,2.21Z" transform="translate(1.72 4.97)" style="fill:#63a2e0"/><path d="M407,342.62c8.86-10.64,18.08-21.74,28.56-30.82.8-.7-.47-2-1.16-1.16-9.11,10.58-19.29,20.34-28.66,30.72-.77.86.53,2.14,1.26,1.26Z" transform="translate(1.72 4.97)" style="fill:#63a2e0"/><path d="M422.82,360.56c5.39-1.93,10.88-3.54,16.27-5.6,4.7-1.79,10.13-3.22,14.26-6.14A.45.45,0,0,0,453,348c-5.53.8-11,3.88-16.16,6-4.79,2-9.35,4.38-14.07,6.46,0,0,0,.1,0,.08Z" transform="translate(1.72 4.97)" style="fill:#63a2e0"/><path d="M457.78,402.75l7.4-9c2.49-3,4.59-6.33,7.06-9.31.35-.42-.27-1-.59-.6-2.25,2.91-4.88,5.47-7.14,8.41-2.5,3.23-5,6.45-7.52,9.68-.44.55.33,1.36.79.79Z" transform="translate(1.72 4.97)" style="fill:#63a2e0"/><path d="M472.3,419.18c5.41-2,10.81-4.2,16.35-5.77,1.53-.43.66-2.74-.87-2.05-5.18,2.34-10.62,4.18-15.89,6.33-.9.36-.54,1.83.41,1.49Z" transform="translate(1.72 4.97)" style="fill:#63a2e0"/><path d="M497.54,446.62a47.52,47.52,0,0,0,5.39-9.38c.27-.64-.8-1.08-1.11-.47a89.09,89.09,0,0,1-5.33,9.23c-.45.65.6,1.25,1.05.62Z" transform="translate(1.72 4.97)" style="fill:#63a2e0"/><path d="M509.81,462.05c2.73-.89,5.35-1.93,8-3,.84-.35.54-1.67-.39-1.4-2.74.79-5.43,1.61-8.11,2.61-1.11.42-.66,2.19.5,1.81Z" transform="translate(1.72 4.97)" style="fill:#63a2e0"/></g><path d="M521,472.67S173.68,121.14,309.8,24.52,534.17,455.14,534.17,455.14Z" transform="translate(1.72 4.97)" style="fill:none;stroke:#549ad3;stroke-miterlimit:10;stroke-width:2px"/><circle cx="623.78" cy="438.7" r="15.5" style="fill:#fff"/><circle cx="643.47" cy="435.89" r="12.51" style="fill:#fff"/><path d="M469.78,457.79s-275,0-277-92,293,85,293,85Z" transform="translate(1.72 4.97)" style="fill:#dcf8ff;opacity:0.5"/><g style="clip-path:url(#clip-path-7)"><path d="M193.83,347.56q57.33,21.49,114.25,44.22c19.21,7.67,38.28,15.68,57.34,23.73,18,7.61,35.9,15.67,54.39,22.1,21.28,7.4,43.78,13.88,66,17.78a.45.45,0,0,0,.24-.86c-19.08-5.78-38.72-9.51-57.73-15.68-19.4-6.3-38-14.62-56.7-22.71q-55.38-24-111.85-45.43c-21.77-8.29-43.84-15.78-65.91-23.2,0,0,0,0,0,.05Z" transform="translate(1.72 4.97)" style="fill:#63a2e0"/><path d="M189.57,381.89c37.32,12.75,74.9,24.71,112.59,36.3,37.11,11.41,74.21,23.49,112.42,30.67,20.73,3.9,42.28,7.46,63.41,7.79.49,0,.47-.7,0-.75-19.55-2.15-39-3.57-58.42-7a531.44,531.44,0,0,1-55.67-13.19C326.83,424.88,290,413,253.21,401.39c-21.16-6.69-42.31-13.42-63.49-20-.35-.11-.49.42-.15.54Z" transform="translate(1.72 4.97)" style="fill:#63a2e0"/><path d="M462.16,449.07a30.44,30.44,0,0,0,2.18-2.37c.68-.85,1.26-1.76,2-2.61,0,0,0-.11-.07-.06a33.52,33.52,0,0,1-4.77,4.12c-.68.53.12,1.52.71.92Z" transform="translate(1.72 4.97)" style="fill:#63a2e0"/><path d="M463.85,447.59c1.87-2,3.83-4,5.61-6.15a.26.26,0,0,0-.37-.36c-2,1.93-3.77,4.07-5.6,6.15-.22.25.14.61.36.36Z" transform="translate(1.72 4.97)" style="fill:#63a2e0"/><path d="M448.51,430.08a133,133,0,0,0,.13,15.72c0,.74,1.19.73,1.14,0-.34-5.24-.29-10.48-.48-15.72a.4.4,0,0,0-.79,0Z" transform="translate(1.72 4.97)" style="fill:#63a2e0"/><path d="M427.75,439.52a49.82,49.82,0,0,0,4.66-6.49,64.92,64.92,0,0,1,6.93-8.23c.43-.45-.28-1.14-.68-.68-4.1,4.78-7,10.4-11.71,14.6-.54.48.29,1.32.8.8Z" transform="translate(1.72 4.97)" style="fill:#63a2e0"/><path d="M413.79,410.91c-.2,7.86-.16,15.83-.69,23.66-.06,1,1.55,1,1.5,0-.42-7.84-.28-15.8-.39-23.66a.21.21,0,0,0-.42,0Z" transform="translate(1.72 4.97)" style="fill:#63a2e0"/><path d="M387.68,423.92c3-7.43,9.38-13.14,13.43-20,.19-.33-.34-.63-.51-.3-3.59,7.27-10.34,12.51-13.82,19.93a.49.49,0,1,0,.9.38Z" transform="translate(1.72 4.97)" style="fill:#63a2e0"/><path d="M369.83,389.77c-.45,8.6-.57,17.21-1.6,25.77-.11.9,1.43.95,1.45,0,.21-8.6.83-17.17.62-25.77a.24.24,0,0,0-.47,0Z" transform="translate(1.72 4.97)" style="fill:#63a2e0"/><path d="M343.6,404.26c6.21-6.18,12-12.74,17.76-19.37.51-.59-.38-1.44-.84-.85A206.22,206.22,0,0,1,343,403.65c-.4.39.22,1,.61.61Z" transform="translate(1.72 4.97)" style="fill:#63a2e0"/><path d="M339.35,402.79c6.26-5.83,10.72-14,15.45-21,.35-.52-.48-1-.83-.49-4.87,7-9.21,14.84-15.08,21.06a.33.33,0,0,0,.46.46Z" transform="translate(1.72 4.97)" style="fill:#63a2e0"/><path d="M328.69,370.08a180.25,180.25,0,0,1-2.85,27.12.81.81,0,1,0,1.59.22c.85-9.12,1.36-18.18,1.56-27.34a.15.15,0,0,0-.3,0Z" transform="translate(1.72 4.97)" style="fill:#63a2e0"/><path d="M299.84,387.31a234.78,234.78,0,0,0,18.1-22.21c.44-.62-.58-1.22-1-.59a166.41,166.41,0,0,1-17.9,22c-.52.53.31,1.36.81.81Z" transform="translate(1.72 4.97)" style="fill:#63a2e0"/><path d="M284,352.5v.66a0,0,0,0,0,.05,0v-.66s-.07,0-.07,0Z" transform="translate(1.72 4.97)" style="fill:#63a2e0"/><path d="M284.17,355.68c-.73,8-1.5,15.95-2.43,23.9-.12,1.06,1.6,1.09,1.69,0,.65-8,1-15.91.9-23.9,0-.11-.15-.1-.16,0Z" transform="translate(1.72 4.97)" style="fill:#63a2e0"/><path d="M255.66,369.84a30.93,30.93,0,0,0,7.81-8.51c2.83-4.28,5.83-8.33,9-12.35.34-.42-.21-1-.61-.61-3,3.12-5,6.94-7.5,10.48a67.92,67.92,0,0,1-9.09,10.51c-.24.23.09.68.37.48Z" transform="translate(1.72 4.97)" style="fill:#63a2e0"/><path d="M240.48,341a198.62,198.62,0,0,0,.43,23.4.37.37,0,0,0,.73,0A196.62,196.62,0,0,0,240.5,341Z" transform="translate(1.72 4.97)" style="fill:#63a2e0"/><path d="M217.7,355.26c3.74-4.82,7.79-9.67,10.52-15.17a.57.57,0,0,0-1-.58c-3.61,4.92-6.42,10.48-9.71,15.61-.07.11.1.25.18.14Z" transform="translate(1.72 4.97)" style="fill:#63a2e0"/><path d="M208.8,387.72c3.28-4.78,7.58-9,11.15-13.53,3.23-4.14,6.19-8.46,9.77-12.3a.63.63,0,1,0-1-.77c-3.31,4.83-7.31,9.09-11,13.63-3.26,4.06-6.09,8.63-9.63,12.45a.43.43,0,1,0,.68.52Z" transform="translate(1.72 4.97)" style="fill:#63a2e0"/><path d="M249.84,368.63c-.84,10.61-.24,21.43-1.3,32-.09.83,1.35.84,1.28,0-.76-10.5.5-21.42.65-32,0-.41-.6-.4-.63,0Z" transform="translate(1.72 4.97)" style="fill:#63a2e0"/><path d="M267.57,406.72c7.37-7.17,12.28-16.23,19.16-23.75.56-.62-.49-1.39-.88-.69-4.94,8.81-12.89,15.89-19,23.91-.3.4.34.86.68.53Z" transform="translate(1.72 4.97)" style="fill:#63a2e0"/><path d="M308.52,391.49a158.29,158.29,0,0,0,1,28.54c.11.83,1.33.89,1.34,0a156.92,156.92,0,0,0-2.35-28.54Z" transform="translate(1.72 4.97)" style="fill:#63a2e0"/><path d="M323.18,423.86c5.42-6.58,10.78-13.48,16.75-19.56.61-.61-.4-1.45-.95-.74-5.24,6.79-11,13.18-16.19,20-.17.22.21.51.39.3Z" transform="translate(1.72 4.97)" style="fill:#63a2e0"/><path d="M356.51,412.1c-.45,7.33-.43,14.63-.65,21.94a.37.37,0,0,0,.73,0c.14-7.31.51-14.6.42-21.94a.25.25,0,0,0-.5,0Z" transform="translate(1.72 4.97)" style="fill:#63a2e0"/><path d="M371.08,437.66c5.28-4.05,8.77-9.57,13-14.62.5-.59-.3-1.43-.86-.86-4.54,4.69-7.44,10.85-12.35,15.2-.15.13.05.4.21.28Z" transform="translate(1.72 4.97)" style="fill:#63a2e0"/><path d="M400.34,429.55a139.86,139.86,0,0,0,.33,16.12c.05.74,1.2.74,1.15,0-.41-5.37-.51-10.74-.76-16.12a.36.36,0,0,0-.72,0Z" transform="translate(1.72 4.97)" style="fill:#63a2e0"/><path d="M417.32,449.16c1.37-1.67,2.37-3.6,3.81-5.23s2.89-3.15,4.41-4.64c.56-.54-.39-1.34-.86-.66-1.28,1.83-2.61,3.67-4,5.44-1.25,1.61-2.82,2.95-4,4.58-.29.38.35.88.66.51Z" transform="translate(1.72 4.97)" style="fill:#63a2e0"/><path d="M439.73,444.16c.41,2.82.54,6.19,1.83,8.78.35.69,1.54.21,1.27-.53-1-2.73-1.61-5.64-2.49-8.42a.32.32,0,0,0-.61.17Z" transform="translate(1.72 4.97)" style="fill:#63a2e0"/><path d="M455.23,454.07c1.16-1.76,2-3.68,2.95-5.54a.51.51,0,1,0-.94-.39,33.93,33.93,0,0,1-2.94,5.39c-.36.6.55,1.12.93.54Z" transform="translate(1.72 4.97)" style="fill:#63a2e0"/><path d="M469.39,451.75a19.39,19.39,0,0,0,.42,4,.7.7,0,0,0,1.38-.18,19.88,19.88,0,0,0-.83-4,.5.5,0,0,0-1,.13Z" transform="translate(1.72 4.97)" style="fill:#63a2e0"/><path d="M461.77,455.85c0,.36,0,.72,0,1.08a5,5,0,0,0,.08,1c.14.52.88.29.79-.22-.06-.31-.2-.58-.25-.89a5.44,5.44,0,0,1-.08-1,.29.29,0,0,0-.57,0Z" transform="translate(1.72 4.97)" style="fill:#63a2e0"/><path d="M447.11,454.26c.08.59.15,1.19.25,1.78a2.59,2.59,0,0,0,.49,1.57.42.42,0,0,0,.66-.09,2.31,2.31,0,0,0-.08-1.53c-.14-.62-.3-1.23-.47-1.85-.12-.45-.91-.38-.85.12Z" transform="translate(1.72 4.97)" style="fill:#63a2e0"/><path d="M428.77,451.82c.52,1.79.83,4,1.83,5.62a.25.25,0,0,0,.46-.12c-.09-1.89-1.11-3.89-1.7-5.66-.13-.37-.7-.22-.59.16Z" transform="translate(1.72 4.97)" style="fill:#63a2e0"/><path d="M409,447.77a19.68,19.68,0,0,0,.85,3.78c.45,1.4,1.26,2.65,1.76,4a.37.37,0,1,0,.68-.29,32.4,32.4,0,0,1-1.41-4c-.43-1.2-.85-2.37-1.33-3.56-.11-.26-.6-.27-.55.07Z" transform="translate(1.72 4.97)" style="fill:#63a2e0"/><path d="M381.6,452.84a13.48,13.48,0,0,0,.85-1.7c.08-.21-.25-.41-.39-.22a11.06,11.06,0,0,0-1,1.6.32.32,0,0,0,.55.32Z" transform="translate(1.72 4.97)" style="fill:#63a2e0"/><path d="M383.85,448.41l1.6-2.79a15.25,15.25,0,0,0,1.35-2.56c.11-.34-.35-.47-.54-.22a14.71,14.71,0,0,0-1.39,2.67l-1.32,2.72c-.1.2.19.38.3.18Z" transform="translate(1.72 4.97)" style="fill:#63a2e0"/><path d="M361.69,436.55a139.13,139.13,0,0,0,1.73,14c.07.41.78.32.73-.1-.57-4.62-1.24-9.24-1.76-13.87-.05-.44-.74-.46-.7,0Z" transform="translate(1.72 4.97)" style="fill:#63a2e0"/><path d="M339.18,432c-4.07,4-8.71,8.21-11.93,13-.36.54.44,1.13.88.68,4.07-4.09,7.47-9.06,11.3-13.4.15-.17-.09-.41-.25-.25Z" transform="translate(1.72 4.97)" style="fill:#63a2e0"/><path d="M293.36,415c-.55,3.51.61,6.9,1.17,10.37a123.75,123.75,0,0,0,2.59,13.93c.12.44.72.24.66-.18-.62-4.36-1.71-8.65-2.46-13-.64-3.7-.44-7.68-1.94-11.13Z" transform="translate(1.72 4.97)" style="fill:#63a2e0"/><path d="M250.43,425.13c4.65-6.23,9.6-12.24,14.14-18.56.33-.46-.44-1.06-.79-.61-4.84,6.13-9.28,12.57-14,18.79-.29.38.36.76.65.38Z" transform="translate(1.72 4.97)" style="fill:#63a2e0"/><path d="M233.1,396.11c.47,7.26.89,14.62,1.84,21.84a.83.83,0,1,0,1.64-.22,133.69,133.69,0,0,1-2.8-21.62c0-.44-.71-.44-.68,0Z" transform="translate(1.72 4.97)" style="fill:#63a2e0"/></g><path d="M469.78,457.79s-275,0-277-92,293,85,293,85Z" transform="translate(1.72 4.97)" style="fill:none;stroke:#549ad3;stroke-miterlimit:10;stroke-width:2px"/><circle cx="627.64" cy="437.82" r="3.85" style="fill:#0e0f16"/><circle cx="645.64" cy="434.82" r="3.15" style="fill:#0e0f16"/></g></g></g></svg>