<svg width="1000" height="1000" viewBox="0 0 1000 1000" fill="none" xmlns="http://www.w3.org/2000/svg">
<rect x="194.03" width="805.97" height="827.806" rx="83.8509" fill="#F4B14C"/>
<rect x="259.108" y="66.8416" width="675.813" height="694.123" rx="16.7702" fill="#0B6F27"/>
<path d="M669.603 701.018C669.603 694.843 674.608 689.838 680.783 689.838H858.664C864.838 689.838 869.844 694.843 869.844 701.018V766.962H669.603V701.018Z" fill="#FFE176"/>
<rect x="632.349" y="110.39" width="189.645" height="194.934" stroke="white" stroke-width="5.59006"/>
<rect x="572.277" y="151.523" width="199.657" height="205.218" stroke="white" stroke-width="5.59006"/>
<path d="M571.986 151.3C571.986 151.3 608.598 126.23 632.058 110.166M772.227 151.3C772.227 151.3 798.827 126.23 822.287 110.166M772.227 356.966C772.227 356.966 798.827 321.613 822.287 305.549M571.986 356.966C571.986 356.966 608.598 321.613 632.058 305.549" stroke="white" stroke-width="5.59006"/>
<path d="M354.223 529.209V382.672" stroke="white" stroke-width="5.59006"/>
<path d="M328.358 396.545C328.358 388.88 358.209 365.885 395.523 373.55C432.836 381.215 485.075 411.874 514.926 396.544" stroke="white" stroke-width="5"/>
<path d="M454.344 529.209V395.526" stroke="white" stroke-width="5.59006"/>
<path d="M354.224 421.233L399.278 374.642M354.224 439.229L410.449 379.672M354.224 457.225L425.374 387.337M354.224 475.22L439.326 390.383M354.224 498.358L454.344 395.525M354.224 516.354L454.344 418.662M454.344 438.265L359.23 529.208M454.344 459.796L376.751 529.208M454.344 482.933L399.278 529.208M454.344 506.07L424.308 529.208M354.223 400.395L380.598 372.007" stroke="white" stroke-width="2.79503"/>
<path d="M471.147 259.523V246.356H458.078V240.853H471.147V227.784H476.715V240.853H489.784V246.356H476.715V259.523H471.147Z" fill="white"/>
<path d="M880.463 478.282L871.277 468.848L862.161 478.212L858.322 474.269L867.439 464.905L858.322 455.542L862.206 451.552L871.323 460.916L880.44 451.552L884.279 455.495L875.162 464.858L884.347 474.293L880.463 478.282Z" fill="white"/>
<path d="M741.82 500.834L656.717 585.671L881.989 611.38L756.838 567.676L741.82 500.834Z" stroke="white" stroke-width="5.59006"/>
<ellipse cx="741.818" cy="500.835" rx="10.0121" ry="10.2833" fill="white"/>
<ellipse cx="651.804" cy="592.813" rx="10.0121" ry="10.2833" fill="white"/>
<ellipse cx="559.47" cy="508.641" rx="10.0121" ry="10.2833" fill="white"/>
<ellipse cx="876.982" cy="608.808" rx="10.0121" ry="10.2833" fill="white"/>
<path d="M412.572 167.802L418.926 169.407C417.594 174.626 415.192 178.611 411.72 181.363C408.27 184.092 404.045 185.457 399.044 185.457C393.869 185.457 389.654 184.409 386.401 182.312C383.169 180.194 380.702 177.137 378.998 173.141C377.317 169.145 376.476 164.854 376.476 160.269C376.476 155.268 377.426 150.912 379.326 147.2C381.248 143.466 383.966 140.638 387.482 138.716C391.019 136.773 394.906 135.801 399.142 135.801C403.946 135.801 407.986 137.024 411.261 139.47C414.537 141.915 416.819 145.355 418.107 149.787L411.851 151.261C410.737 147.768 409.121 145.224 407.003 143.63C404.885 142.036 402.221 141.239 399.011 141.239C395.321 141.239 392.231 142.123 389.742 143.892C387.274 145.66 385.538 148.04 384.534 151.032C383.529 154.002 383.027 157.07 383.027 160.236C383.027 164.319 383.617 167.89 384.796 170.947C385.997 173.982 387.853 176.253 390.364 177.76C392.875 179.266 395.594 180.02 398.52 180.02C402.079 180.02 405.093 178.993 407.56 176.941C410.028 174.888 411.698 171.842 412.572 167.802Z" fill="white"/>
<path d="M409.611 471.992C358.222 471.306 325.353 506.278 320.347 531.993L324.519 563.708L614.833 461.706L578.126 446.277C573.955 450.563 563.777 455.535 543.088 461.706C517.227 469.421 473.847 472.849 409.611 471.992Z" fill="#E2E4F9"/>
<path d="M520.564 482.276L550.596 473.704" stroke="#646B76" stroke-width="1.86383"/>
<path d="M387.086 525.135C387.642 519.421 392.759 507.649 408.776 506.277C424.793 504.906 438.809 503.42 443.814 502.849" stroke="#646B76" stroke-width="1.86383"/>
<path d="M347.042 523.418C351.77 513.989 366.563 494.617 387.92 492.56C414.615 489.988 455.493 492.56 482.188 484.845" stroke="#646B76" stroke-width="1.86383"/>
<path d="M225.669 472.848C279.671 472.163 315.087 505.42 320.347 531.135L315.087 564.564L10.0116 462.563L45.8837 444.562C50.267 448.848 63.6628 456.391 85.4039 462.563C112.58 470.277 158.166 473.706 225.669 472.848Z" fill="#E2E4F9"/>
<path d="M105.113 482.276L75.0808 473.704" stroke="#646B76" stroke-width="1.86383"/>
<path d="M238.593 525.135C238.037 519.421 232.92 507.649 216.903 506.277C200.886 504.906 186.871 503.42 181.865 502.849" stroke="#646B76" stroke-width="1.86383"/>
<path d="M278.636 523.418C273.909 513.989 259.115 494.617 237.758 492.56C211.063 489.988 170.185 492.56 143.49 484.845" stroke="#646B76" stroke-width="1.86383"/>
<ellipse cx="318.679" cy="578.279" rx="45.0488" ry="48.0009" fill="#646B76"/>
<path d="M325.905 993.144L587.778 877.932L625.677 471.135C625.677 471.135 629.013 467.15 625.677 461.706C622.341 456.262 613.631 460.148 613.631 460.148L318.399 559.581L24.0004 463.821C24.0004 463.821 4.81866 454.222 1.48269 460.286C-1.85328 466.35 1.48255 470.14 1.48255 470.14L42.3482 877.932L325.905 993.144Z" fill="#D23F3F"/>
<mask id="mask0" mask-type="alpha" maskUnits="userSpaceOnUse" x="1" y="459" width="625" height="541">
<path d="M319.103 563.138C296.548 563.138 1.66887 459.99 1.66887 459.99L42.6012 881.683L173.752 924.156L320.774 1000L467.796 924.156L588.922 881.683L625.677 459.99C625.677 459.99 341.657 563.138 319.103 563.138Z" fill="#F7D55A"/>
</mask>
<g mask="url(#mask0)">
<g style="mix-blend-mode:multiply">
<path d="M382.078 1036C392.757 881.031 509.995 566.853 567.279 429.137H685.74L729.121 789.143C608.991 936.003 371.4 1190.98 382.078 1036Z" fill="#D23F3F" fill-opacity="0.4"/>
</g>
</g>
<path d="M263.586 559.35C263.586 559.35 305.553 572.546 317.543 572.546C329.533 572.546 369.787 558.525 369.787 558.525L361.222 983.852C361.222 983.852 344.093 994.836 317.115 994.836C290.137 994.836 273.007 983.852 273.007 983.852L263.586 559.35Z" fill="#E87979"/>
</svg>
