<svg width="1000" height="1000" viewBox="0 0 1000 1000" fill="none" xmlns="http://www.w3.org/2000/svg">
<path fill-rule="evenodd" clip-rule="evenodd" d="M6.07482 475.787C192.136 378.718 356.021 330.184 497.73 330.184C639.275 330.184 804.647 378.606 993.847 475.451C999.396 478.291 1001.6 485.102 998.763 490.664C998.694 490.799 998.622 490.933 998.548 491.066L960.322 559.15L994.509 654.387C996.618 660.263 993.575 666.74 987.712 668.854C984.773 669.914 981.526 669.705 978.747 668.276C800.615 576.753 642.63 530.991 504.79 530.991C366.234 530.991 204.613 577.23 19.9277 669.708C14.3539 672.498 7.57803 670.232 4.79333 664.646C3.50663 662.065 3.2532 659.088 4.08493 656.326L33.3441 559.15L1.0815 490.642C-1.50497 485.15 0.699687 478.591 6.07482 475.787Z" fill="url(#paint0_linear)"/>
<path opacity="0.9" fill-rule="evenodd" clip-rule="evenodd" d="M932.118 579.879C783.065 554.753 637.03 542.189 494.013 542.189C350.995 542.189 209.974 554.753 70.9498 579.879L84.1118 525.229L482.731 400.852L845.625 478.116L932.118 579.879Z" fill="#D4D4E9"/>
<mask id="mask0" mask-type="alpha" maskUnits="userSpaceOnUse" x="139" y="96" width="724" height="806">
<path d="M546.292 108.279L817.537 264.526C845.547 280.662 862.816 310.572 862.816 342.952V654.74C862.816 687.12 845.547 717.03 817.537 733.165L546.292 889.413C518.445 905.454 484.191 905.454 456.344 889.413L185.099 733.165C157.089 717.03 139.82 687.12 139.82 654.74V342.952C139.82 310.572 157.089 280.662 185.099 264.526L456.344 108.279C484.191 92.2383 518.445 92.2383 546.292 108.279Z" fill="white"/>
</mask>
<g mask="url(#mask0)">
<path d="M546.292 108.279L817.537 264.526C845.547 280.662 862.816 310.572 862.816 342.952V654.74C862.816 687.12 845.547 717.03 817.537 733.165L546.292 889.413C518.445 905.454 484.191 905.454 456.344 889.413L185.099 733.165C157.089 717.03 139.82 687.12 139.82 654.74V342.952C139.82 310.572 157.089 280.662 185.099 264.526L456.344 108.279C484.191 92.2383 518.445 92.2383 546.292 108.279Z" fill="#FEE484"/>
<path fill-rule="evenodd" clip-rule="evenodd" d="M121.501 708.025L367.818 576.11L520.121 660.912L548.325 937.933H356.536L121.501 708.025Z" fill="#F7D55A"/>
<path fill-rule="evenodd" clip-rule="evenodd" d="M130.903 284.014L320.811 389.545L321.751 606.262L113.98 728.755L83.8958 336.78L130.903 284.014Z" fill="#F9DD75"/>
</g>
<mask id="mask1" mask-type="alpha" maskUnits="userSpaceOnUse" x="497" y="96" width="366" height="806">
<path d="M497.557 97.4484C525.761 97.4484 518.445 92.2384 546.292 108.279L817.536 264.527C845.547 280.662 862.816 310.572 862.816 342.952V654.74C862.816 687.12 845.547 717.03 817.536 733.165L546.292 889.413C518.445 905.454 527.642 900.244 497.557 900.244" fill="white"/>
</mask>
<g mask="url(#mask1)">
<path d="M497.557 97.4484C525.761 97.4484 518.445 92.2384 546.292 108.279L817.536 264.527C845.547 280.662 862.816 310.572 862.816 342.952V654.74C862.816 687.12 845.547 717.03 817.536 733.165L546.292 889.413C518.445 905.454 527.642 900.244 497.557 900.244" fill="#F9C85C"/>
<path fill-rule="evenodd" clip-rule="evenodd" d="M704.387 606.262L918.739 753.253L486.275 937.933L476.873 713.678L704.387 606.262Z" fill="#F8BF39"/>
<path fill-rule="evenodd" clip-rule="evenodd" d="M698.746 393.314L888.654 278.36L488.155 55.9895L482.514 278.36L698.746 393.314Z" fill="#FFCD69"/>
</g>
<path fill-rule="evenodd" clip-rule="evenodd" d="M529.366 260.55L694.416 355.353C711.957 365.428 722.776 384.141 722.776 404.403V593.289C722.776 613.551 711.957 632.264 694.416 642.339L529.366 737.142C511.993 747.121 490.643 747.121 473.27 737.142L308.22 642.339C290.679 632.264 279.86 613.551 279.86 593.289V404.403C279.86 384.141 290.679 365.428 308.22 355.353L473.27 260.55C490.643 250.571 511.993 250.571 529.366 260.55Z" fill="#FDE58E"/>
<path d="M528.729 628.876V609.782H493.952L512.108 591.201C517.137 585.819 520.696 580.971 522.784 576.657C524.872 572.342 525.917 567.537 525.917 562.24C525.917 557.029 524.574 552.48 521.889 548.593C519.204 544.706 515.411 541.716 510.51 539.622C505.608 537.529 499.876 536.483 493.312 536.483C487.26 536.483 481.315 537.359 475.476 539.11C469.637 540.861 464.885 543.232 461.22 546.222L468.764 563.265C472.77 560.617 476.755 558.588 480.718 557.178C484.682 555.769 488.454 555.064 492.034 555.064C499.024 555.064 502.518 558.011 502.518 563.906C502.518 568.946 499.748 574.371 494.207 580.181L464.544 611.192V628.876H528.729Z" fill="#202842"/>
<mask id="mask2" mask-type="alpha" maskUnits="userSpaceOnUse" x="67" y="254" width="866" height="327">
<path d="M71.5057 383.452C211.25 297.687 352.733 254.804 495.955 254.804C639.188 254.804 783.58 297.693 929.132 383.473C931.43 384.827 932.841 387.299 932.841 389.97V573.101C932.841 577.264 929.474 580.639 925.32 580.639C923.962 580.639 922.63 580.271 921.465 579.573C783.34 496.932 643.862 455.612 503.03 455.612C362.083 455.612 220.814 497 79.223 579.775C75.635 581.873 71.0297 580.658 68.9368 577.062C68.2659 575.909 67.9124 574.599 67.9124 573.264V389.881C67.9123 387.257 69.2733 384.822 71.5057 383.452Z" fill="white"/>
</mask>
<g mask="url(#mask2)">
<g filter="url(#filter0_d)">
<path d="M71.5057 383.452C211.25 297.687 352.733 254.804 495.955 254.804C639.188 254.804 783.58 297.693 929.132 383.473C931.43 384.827 932.841 387.299 932.841 389.97V573.101C932.841 577.264 929.474 580.639 925.32 580.639C923.962 580.639 922.63 580.271 921.465 579.573C783.34 496.932 643.862 455.612 503.03 455.612C362.083 455.612 220.814 497 79.223 579.775C75.635 581.873 71.0297 580.658 68.9368 577.062C68.2659 575.909 67.9124 574.599 67.9124 573.264V389.881C67.9123 387.257 69.2733 384.822 71.5057 383.452Z" fill="black"/>
</g>
<path d="M71.5057 383.452C211.25 297.687 352.733 254.804 495.955 254.804C639.188 254.804 783.58 297.693 929.132 383.473C931.43 384.827 932.841 387.299 932.841 389.97V573.101C932.841 577.264 929.474 580.639 925.32 580.639C923.962 580.639 922.63 580.271 921.465 579.573C783.34 496.932 643.862 455.612 503.03 455.612C362.083 455.612 220.814 497 79.223 579.775C75.635 581.873 71.0297 580.658 68.9368 577.062C68.2659 575.909 67.9124 574.599 67.9124 573.264V389.881C67.9123 387.257 69.2733 384.822 71.5057 383.452Z" fill="#F8F8FB"/>
<path fill-rule="evenodd" clip-rule="evenodd" d="M499.653 225.594V495.077L960.321 606.262V365.047C865.335 307.822 792.004 271.389 740.329 255.746C688.654 240.103 608.428 230.052 499.653 225.594Z" fill="#F1F1F8"/>
</g>
<path d="M410.306 410.274V390.796H371.821V319.035H347.783V410.274H410.306ZM453.778 411.3C458.381 411.3 462.984 410.616 467.587 409.249C472.19 407.882 476.111 406.003 479.35 403.611L473.469 388.233C470.826 390.113 467.885 391.587 464.646 392.654C461.407 393.722 458.168 394.256 454.929 394.256C450.156 394.256 446.533 393.146 444.061 390.924C441.589 388.703 440.14 385.072 439.714 380.032H480.501V376.957C480.501 370.208 479.265 364.292 476.793 359.208C474.321 354.125 470.783 350.217 466.181 347.483C461.578 344.749 456.208 343.382 450.07 343.382C443.763 343.382 438.158 344.835 433.257 347.739C428.356 350.644 424.52 354.681 421.75 359.849C418.979 365.018 417.594 370.891 417.594 377.469C417.594 384.389 419.043 390.391 421.941 395.474C424.839 400.557 429.016 404.465 434.472 407.199C439.927 409.933 446.362 411.3 453.778 411.3ZM460.683 369.268H439.969C441.419 362.604 444.999 359.272 450.71 359.272C456.506 359.272 459.83 362.604 460.683 369.268ZM529.471 410.274L558.367 345.305H535.608L520.521 382.723L505.945 345.305H481.907L510.42 410.274H529.471ZM595.957 411.3C600.56 411.3 605.163 410.616 609.766 409.249C614.369 407.882 618.29 406.003 621.529 403.611L615.648 388.233C613.005 390.113 610.065 391.587 606.825 392.654C603.586 393.722 600.347 394.256 597.108 394.256C592.335 394.256 588.712 393.146 586.24 390.924C583.768 388.703 582.319 385.072 581.893 380.032H622.68V376.957C622.68 370.208 621.444 364.292 618.972 359.208C616.5 354.125 612.963 350.217 608.36 347.483C603.757 344.749 598.387 343.382 592.25 343.382C585.942 343.382 580.337 344.835 575.436 347.739C570.535 350.644 566.699 354.681 563.929 359.849C561.158 365.018 559.773 370.891 559.773 377.469C559.773 384.389 561.222 390.391 564.121 395.474C567.019 400.557 571.195 404.465 576.651 407.199C582.106 409.933 588.542 411.3 595.957 411.3ZM602.862 369.268H582.149C583.598 362.604 587.178 359.272 592.889 359.272C598.685 359.272 602.009 362.604 602.862 369.268ZM656.563 410.274V315.959H633.42V410.274H656.563Z" fill="#202842"/>
<defs>
<filter id="filter0_d" x="2.97729" y="241.817" width="994.799" height="455.869" filterUnits="userSpaceOnUse" color-interpolation-filters="sRGB">
<feFlood flood-opacity="0" result="BackgroundImageFix"/>
<feColorMatrix in="SourceAlpha" type="matrix" values="0 0 0 0 0 0 0 0 0 0 0 0 0 0 0 0 0 0 127 0"/>
<feOffset dy="51.9481"/>
<feGaussianBlur stdDeviation="32.4675"/>
<feColorMatrix type="matrix" values="0 0 0 0 0.809003 0 0 0 0 0.809003 0 0 0 0 0.914459 0 0 0 1 0"/>
<feBlend mode="normal" in2="BackgroundImageFix" result="effect1_dropShadow"/>
<feBlend mode="normal" in="SourceGraphic" in2="effect1_dropShadow" result="shape"/>
</filter>
<linearGradient id="paint0_linear" x1="0" y1="557.316" x2="1000" y2="557.316" gradientUnits="userSpaceOnUse">
<stop stop-color="#F0F0F8"/>
<stop offset="1" stop-color="#DDDDEE"/>
</linearGradient>
</defs>
</svg>
