<svg width="1000" height="1000" viewBox="0 0 1000 1000" fill="none" xmlns="http://www.w3.org/2000/svg">
<path fill-rule="evenodd" clip-rule="evenodd" d="M6.07482 476.941C192.136 379.872 356.021 331.338 497.73 331.338C639.275 331.338 804.647 379.76 993.847 476.605C999.396 479.445 1001.6 486.256 998.763 491.818C998.694 491.953 998.622 492.087 998.548 492.22L960.322 560.304L994.509 655.541C996.618 661.417 993.575 667.894 987.712 670.008C984.773 671.068 981.526 670.859 978.747 669.431C800.615 577.907 642.63 532.145 504.79 532.145C366.234 532.145 204.613 578.384 19.9277 670.862C14.3539 673.653 7.57803 671.387 4.79333 665.8C3.50663 663.219 3.2532 660.243 4.08493 657.48L33.3441 560.304L1.0815 491.797C-1.50497 486.304 0.699687 479.745 6.07482 476.941Z" fill="url(#paint0_linear)"/>
<path opacity="0.9" fill-rule="evenodd" clip-rule="evenodd" d="M932.118 581.034C783.065 555.907 637.03 543.344 494.013 543.344C350.995 543.344 209.974 555.907 70.9498 581.034L84.1118 526.383L482.731 402.006L845.625 479.271L932.118 581.034Z" fill="#D4D4E9"/>
<mask id="mask0" mask-type="alpha" maskUnits="userSpaceOnUse" x="139" y="97" width="724" height="806">
<path d="M546.292 109.433L817.537 265.681C845.547 281.816 862.816 311.726 862.816 344.106V655.894C862.816 688.274 845.547 718.184 817.537 734.319L546.292 890.567C518.445 906.608 484.191 906.608 456.344 890.567L185.099 734.319C157.089 718.184 139.82 688.274 139.82 655.894V344.106C139.82 311.726 157.089 281.816 185.099 265.681L456.344 109.433C484.191 93.3924 518.445 93.3924 546.292 109.433Z" fill="white"/>
</mask>
<g mask="url(#mask0)">
<path d="M546.292 109.433L817.537 265.681C845.547 281.816 862.816 311.726 862.816 344.106V655.894C862.816 688.274 845.547 718.184 817.537 734.319L546.292 890.567C518.445 906.608 484.191 906.608 456.344 890.567L185.099 734.319C157.089 718.184 139.82 688.274 139.82 655.894V344.106C139.82 311.726 157.089 281.816 185.099 265.681L456.344 109.433C484.191 93.3924 518.445 93.3924 546.292 109.433Z" fill="#C58DF5"/>
<path fill-rule="evenodd" clip-rule="evenodd" d="M121.501 709.179L367.818 577.264L520.121 662.066L548.325 939.087H356.536L121.501 709.179Z" fill="#B262F0"/>
<path fill-rule="evenodd" clip-rule="evenodd" d="M130.903 285.168L320.811 390.7L321.751 607.417L113.98 729.909L83.8956 337.934L130.903 285.168Z" fill="#BD77F3"/>
</g>
<mask id="mask1" mask-type="alpha" maskUnits="userSpaceOnUse" x="497" y="97" width="366" height="806">
<path d="M497.558 98.6025C525.762 98.6025 518.446 93.3925 546.292 109.433L817.537 265.681C845.548 281.816 862.816 311.726 862.816 344.106V655.894C862.816 688.274 845.548 718.184 817.537 734.32L546.292 890.567C518.446 906.608 527.642 901.398 497.558 901.398" fill="white"/>
</mask>
<g mask="url(#mask1)">
<path d="M497.558 98.6025C525.762 98.6025 518.446 93.3925 546.292 109.433L817.537 265.681C845.548 281.816 862.816 311.726 862.816 344.106V655.894C862.816 688.274 845.548 718.184 817.537 734.32L546.292 890.567C518.446 906.608 527.642 901.398 497.558 901.398" fill="#A140EE"/>
<path fill-rule="evenodd" clip-rule="evenodd" d="M704.389 607.417L918.741 754.407L486.276 939.088L476.875 714.833L704.389 607.417Z" fill="#942EE4"/>
<path fill-rule="evenodd" clip-rule="evenodd" d="M698.748 394.469L888.657 279.515L488.157 57.1444L482.516 279.515L698.748 394.469Z" fill="#B45EF8"/>
</g>
<path fill-rule="evenodd" clip-rule="evenodd" d="M529.366 261.704L694.416 356.507C711.957 366.582 722.776 385.295 722.776 405.557V594.443C722.776 614.705 711.957 633.418 694.416 643.493L529.366 738.296C511.993 748.275 490.643 748.275 473.27 738.296L308.22 643.493C290.679 633.418 279.86 614.705 279.86 594.443V405.557C279.86 385.295 290.679 366.582 308.22 356.507L473.27 261.704C490.643 251.725 511.993 251.725 529.366 261.704Z" fill="#E7CAFF"/>
<path d="M500.596 632.956C508.011 632.956 514.511 631.674 520.094 629.111C525.677 626.548 529.982 622.896 533.008 618.155C536.034 613.413 537.547 607.882 537.547 601.56C537.547 595.751 536.311 590.625 533.839 586.182C531.367 581.74 527.915 578.28 523.482 575.803C519.05 573.325 514.021 572.086 508.395 572.086C503.536 572.086 499.36 572.898 495.865 574.521V558.887H532.688V540.691H472.595V594.768H485.764C488.151 593.487 490.729 592.44 493.499 591.629C496.27 590.817 498.848 590.411 501.235 590.411C505.582 590.411 508.97 591.458 511.4 593.551C513.829 595.644 515.044 598.655 515.044 602.585C515.044 606.6 513.893 609.569 511.592 611.491C509.29 613.413 505.753 614.374 500.979 614.374C492.541 614.374 484.4 611.641 476.558 606.173L469.142 623.217C472.637 626.121 477.283 628.47 483.079 630.265C488.875 632.059 494.714 632.956 500.596 632.956Z" fill="#202842"/>
<mask id="mask2" mask-type="alpha" maskUnits="userSpaceOnUse" x="67" y="255" width="866" height="327">
<path d="M71.5065 384.606C211.251 298.841 352.734 255.958 495.956 255.958C639.189 255.958 783.581 298.848 929.133 384.627C931.431 385.981 932.842 388.453 932.842 391.125V574.255C932.842 578.418 929.475 581.793 925.321 581.793C923.963 581.793 922.631 581.425 921.466 580.727C783.341 498.086 643.863 456.766 503.031 456.766C362.084 456.766 220.815 498.154 79.2237 580.929C75.6357 583.027 71.0304 581.812 68.9375 578.216C68.2666 577.063 67.9131 575.753 67.9131 574.418V391.035C67.913 388.411 69.2741 385.977 71.5065 384.606Z" fill="white"/>
</mask>
<g mask="url(#mask2)">
<g filter="url(#filter0_d)">
<path d="M71.5065 384.606C211.251 298.841 352.734 255.958 495.956 255.958C639.189 255.958 783.581 298.848 929.133 384.627C931.431 385.981 932.842 388.453 932.842 391.125V574.255C932.842 578.418 929.475 581.793 925.321 581.793C923.963 581.793 922.631 581.425 921.466 580.727C783.341 498.086 643.863 456.766 503.031 456.766C362.084 456.766 220.815 498.154 79.2237 580.929C75.6357 583.027 71.0304 581.812 68.9375 578.216C68.2666 577.063 67.9131 575.753 67.9131 574.418V391.035C67.913 388.411 69.2741 385.977 71.5065 384.606Z" fill="black"/>
</g>
<path d="M71.5065 384.606C211.251 298.841 352.734 255.958 495.956 255.958C639.189 255.958 783.581 298.848 929.133 384.627C931.431 385.981 932.842 388.453 932.842 391.125V574.255C932.842 578.418 929.475 581.793 925.321 581.793C923.963 581.793 922.631 581.425 921.466 580.727C783.341 498.086 643.863 456.766 503.031 456.766C362.084 456.766 220.815 498.154 79.2237 580.929C75.6357 583.027 71.0304 581.812 68.9375 578.216C68.2666 577.063 67.9131 575.753 67.9131 574.418V391.035C67.913 388.411 69.2741 385.977 71.5065 384.606Z" fill="#F8F8FB"/>
<path fill-rule="evenodd" clip-rule="evenodd" d="M499.654 226.748V496.23L960.322 607.416V366.2C865.335 308.976 792.004 272.543 740.329 256.9C688.654 241.257 608.429 231.206 499.654 226.748Z" fill="#F1F1F8"/>
</g>
<path d="M410.306 411.429V391.95H371.821V320.189H347.783V411.429H410.306ZM453.778 412.454C458.381 412.454 462.984 411.77 467.587 410.403C472.19 409.036 476.111 407.157 479.35 404.765L473.469 389.387C470.826 391.267 467.885 392.741 464.646 393.809C461.407 394.876 458.168 395.41 454.929 395.41C450.156 395.41 446.533 394.3 444.061 392.079C441.589 389.857 440.14 386.227 439.714 381.186H480.501V378.111C480.501 371.362 479.265 365.446 476.793 360.362C474.321 355.279 470.783 351.371 466.181 348.637C461.578 345.903 456.208 344.536 450.07 344.536C443.763 344.536 438.158 345.989 433.257 348.893C428.356 351.798 424.52 355.835 421.75 361.003C418.979 366.172 417.594 372.045 417.594 378.623C417.594 385.543 419.043 391.545 421.941 396.628C424.839 401.711 429.016 405.619 434.472 408.353C439.927 411.087 446.362 412.454 453.778 412.454ZM460.683 370.422H439.969C441.419 363.758 444.999 360.427 450.71 360.427C456.506 360.427 459.83 363.758 460.683 370.422ZM529.471 411.429L558.367 346.459H535.608L520.521 383.877L505.945 346.459H481.907L510.42 411.429H529.471ZM595.957 412.454C600.56 412.454 605.163 411.77 609.766 410.403C614.369 409.036 618.29 407.157 621.529 404.765L615.648 389.387C613.005 391.267 610.065 392.741 606.825 393.809C603.586 394.876 600.347 395.41 597.108 395.41C592.335 395.41 588.712 394.3 586.24 392.079C583.768 389.857 582.319 386.227 581.893 381.186H622.68V378.111C622.68 371.362 621.444 365.446 618.972 360.362C616.5 355.279 612.963 351.371 608.36 348.637C603.757 345.903 598.387 344.536 592.25 344.536C585.942 344.536 580.337 345.989 575.436 348.893C570.535 351.798 566.699 355.835 563.929 361.003C561.158 366.172 559.773 372.045 559.773 378.623C559.773 385.543 561.222 391.545 564.121 396.628C567.019 401.711 571.195 405.619 576.651 408.353C582.106 411.087 588.542 412.454 595.957 412.454ZM602.862 370.422H582.149C583.598 363.758 587.178 360.427 592.889 360.427C598.685 360.427 602.009 363.758 602.862 370.422ZM656.563 411.429V317.113H633.42V411.429H656.563Z" fill="#202842"/>
<defs>
<filter id="filter0_d" x="30.7814" y="248.532" width="939.192" height="400.263" filterUnits="userSpaceOnUse" color-interpolation-filters="sRGB">
<feFlood flood-opacity="0" result="BackgroundImageFix"/>
<feColorMatrix in="SourceAlpha" type="matrix" values="0 0 0 0 0 0 0 0 0 0 0 0 0 0 0 0 0 0 127 0"/>
<feOffset dy="29.7054"/>
<feGaussianBlur stdDeviation="18.5658"/>
<feColorMatrix type="matrix" values="0 0 0 0 0.809003 0 0 0 0 0.809003 0 0 0 0 0.914459 0 0 0 1 0"/>
<feBlend mode="normal" in2="BackgroundImageFix" result="effect1_dropShadow"/>
<feBlend mode="normal" in="SourceGraphic" in2="effect1_dropShadow" result="shape"/>
</filter>
<linearGradient id="paint0_linear" x1="0" y1="558.471" x2="1000" y2="558.471" gradientUnits="userSpaceOnUse">
<stop stop-color="#F0F0F8"/>
<stop offset="1" stop-color="#DDDDEE"/>
</linearGradient>
</defs>
</svg>
