<svg width="1000" height="1000" viewBox="0 0 1000 1000" fill="none" xmlns="http://www.w3.org/2000/svg">
<g clip-path="url(#clip0)">
<path fill-rule="evenodd" clip-rule="evenodd" d="M6.07811 476.297C192.24 379.393 356.214 330.941 497.999 330.941C639.621 330.941 805.082 379.281 994.384 475.962C999.936 478.797 1002.14 485.597 999.303 491.149C999.234 491.284 999.162 491.418 999.088 491.55L960.841 559.519L995.046 654.594C997.157 660.46 994.112 666.926 988.246 669.037C985.305 670.095 982.057 669.886 979.276 668.46C801.048 577.092 642.977 531.408 505.063 531.408C366.432 531.408 204.724 577.568 19.9385 669.889C14.3617 672.675 7.58213 670.413 4.79592 664.836C3.50853 662.259 3.25496 659.288 4.08714 656.53L33.3622 559.519L1.08208 491.128C-1.50579 485.645 0.700065 479.097 6.07811 476.297Z" fill="url(#paint0_linear)"/>
<path opacity="0.9" fill-rule="evenodd" clip-rule="evenodd" d="M932.621 580.213C783.488 555.129 637.374 542.587 494.279 542.587C351.185 542.587 210.088 555.129 70.9878 580.213L84.1569 525.655L482.992 401.489L846.082 478.623L932.621 580.213Z" fill="#D4D4E9"/>
<mask id="mask0" mask-type="alpha" maskUnits="userSpaceOnUse" x="139" y="97" width="725" height="805">
<path d="M546.589 109.413L817.981 265.395C846.006 281.503 863.285 311.362 863.285 343.687V654.946C863.285 687.271 846.006 717.131 817.981 733.238L546.589 889.22C518.728 905.234 484.455 905.234 456.593 889.22L185.201 733.238C157.176 717.131 139.897 687.271 139.897 654.946V343.687C139.897 311.362 157.176 281.503 185.201 265.395L456.593 109.413C484.455 93.3994 518.728 93.3994 546.589 109.413Z" fill="white"/>
</mask>
<g mask="url(#mask0)">
<path d="M546.589 109.413L817.981 265.395C846.006 281.503 863.285 311.362 863.285 343.687V654.946C863.285 687.271 846.006 717.131 817.981 733.238L546.589 889.22C518.728 905.234 484.455 905.234 456.593 889.22L185.201 733.238C157.176 717.131 139.897 687.271 139.897 654.946V343.687C139.897 311.362 157.176 281.503 185.201 265.395L456.593 109.413C484.455 93.3994 518.728 93.3994 546.589 109.413Z" fill="#FF9494"/>
<path fill-rule="evenodd" clip-rule="evenodd" d="M121.569 708.141L368.019 576.45L520.404 661.108L548.624 937.659H356.731L121.569 708.141Z" fill="#F36161"/>
<path fill-rule="evenodd" clip-rule="evenodd" d="M130.976 284.849L320.986 390.201L321.927 606.551L114.044 728.835L83.9431 337.525L130.976 284.849Z" fill="#FD7D7D"/>
</g>
<mask id="mask1" mask-type="alpha" maskUnits="userSpaceOnUse" x="497" y="97" width="367" height="804">
<path d="M497.828 98.6009C526.048 98.6009 518.727 93.3997 546.589 109.413L817.98 265.395C846.006 281.503 863.284 311.363 863.284 343.687V654.947C863.284 687.271 846.006 717.131 817.98 733.239L546.589 889.221C518.727 905.234 527.929 900.033 497.828 900.033" fill="white"/>
</mask>
<g mask="url(#mask1)">
<path d="M497.828 98.6009C526.048 98.6009 518.727 93.3997 546.589 109.413L817.98 265.395C846.006 281.503 863.284 311.363 863.284 343.687V654.947C863.284 687.271 846.006 717.131 817.98 733.239L546.589 889.221C518.727 905.234 527.929 900.033 497.828 900.033" fill="#ED5D5E"/>
<path fill-rule="evenodd" clip-rule="evenodd" d="M704.77 606.55L919.238 753.291L486.54 937.658L477.133 713.784L704.77 606.55Z" fill="#EB3A3B"/>
<path fill-rule="evenodd" clip-rule="evenodd" d="M699.126 393.964L889.137 279.205L488.421 57.2119L482.777 279.205L699.126 393.964Z" fill="#FB6667"/>
</g>
<path fill-rule="evenodd" clip-rule="evenodd" d="M529.657 261.425L694.796 356.067C712.346 366.125 723.171 384.806 723.171 405.034V593.599C723.171 613.827 712.346 632.508 694.796 642.566L529.657 737.208C512.274 747.171 490.913 747.171 473.53 737.208L308.391 642.566C290.841 632.508 280.015 613.827 280.015 593.599V405.034C280.015 384.806 290.841 366.125 308.391 356.067L473.53 261.425C490.913 251.463 512.274 251.463 529.657 261.425Z" fill="#FFC8CC"/>
<path d="M521.02 629.126V613.775H532.789V595.481H521.02V538.041H501.831L461.021 596.121V613.775H497.481V629.126H521.02ZM497.481 595.481H482.513L497.481 573.989V595.481Z" fill="#202842"/>
<mask id="mask2" mask-type="alpha" maskUnits="userSpaceOnUse" x="67" y="255" width="867" height="327">
<path d="M71.5426 384.119C211.362 298.499 352.922 255.689 496.221 255.689C639.532 255.689 784.002 298.506 929.633 384.139C931.932 385.491 933.344 387.959 933.344 390.626V573.446C933.344 577.602 929.974 580.971 925.818 580.971C924.46 580.971 923.127 580.603 921.961 579.907C783.762 497.406 644.208 456.156 503.3 456.156C362.277 456.156 220.932 497.473 79.264 580.109C75.6741 582.203 71.0663 580.99 68.9723 577.4C68.301 576.249 67.9473 574.941 67.9473 573.608V390.537C67.9472 387.917 69.309 385.487 71.5426 384.119Z" fill="white"/>
</mask>
<g mask="url(#mask2)">
<g filter="url(#filter0_d)">
<path d="M71.5426 384.119C211.362 298.499 352.922 255.689 496.221 255.689C639.532 255.689 784.002 298.506 929.633 384.139C931.932 385.491 933.344 387.959 933.344 390.626V573.446C933.344 577.602 929.974 580.971 925.818 580.971C924.46 580.971 923.127 580.603 921.961 579.907C783.762 497.406 644.208 456.156 503.3 456.156C362.277 456.156 220.932 497.473 79.264 580.109C75.6741 582.203 71.0663 580.99 68.9723 577.4C68.301 576.249 67.9473 574.941 67.9473 573.608V390.537C67.9472 387.917 69.309 385.487 71.5426 384.119Z" fill="black"/>
</g>
<path d="M71.5426 384.119C211.362 298.499 352.922 255.689 496.221 255.689C639.532 255.689 784.002 298.506 929.633 384.139C931.932 385.491 933.344 387.959 933.344 390.626V573.446C933.344 577.602 929.974 580.971 925.818 580.971C924.46 580.971 923.127 580.603 921.961 579.907C783.762 497.406 644.208 456.156 503.3 456.156C362.277 456.156 220.932 497.473 79.264 580.109C75.6741 582.203 71.0663 580.99 68.9723 577.4C68.301 576.249 67.9473 574.941 67.9473 573.608V390.537C67.9472 387.917 69.309 385.487 71.5426 384.119Z" fill="#F8F8FB"/>
<path fill-rule="evenodd" clip-rule="evenodd" d="M499.924 226.529V495.554L960.841 606.551V365.745C865.803 308.618 792.433 272.246 740.73 256.63C689.027 241.013 608.758 230.98 499.924 226.529Z" fill="#F1F1F8"/>
</g>
<path d="M410.527 410.896V391.451H372.021V319.811H347.97V410.896H410.527ZM454.023 411.919C458.628 411.919 463.233 411.237 467.839 409.872C472.444 408.508 476.367 406.631 479.608 404.243L473.724 388.892C471.08 390.768 468.137 392.239 464.897 393.306C461.656 394.372 458.415 394.905 455.174 394.905C450.398 394.905 446.773 393.796 444.3 391.578C441.827 389.361 440.377 385.736 439.951 380.705H480.76V377.634C480.76 370.897 479.523 364.991 477.05 359.916C474.576 354.842 471.037 350.94 466.432 348.211C461.826 345.482 456.453 344.117 450.313 344.117C444.002 344.117 438.394 345.567 433.49 348.467C428.586 351.366 424.748 355.396 421.977 360.556C419.205 365.716 417.819 371.579 417.819 378.146C417.819 385.054 419.269 391.045 422.169 396.12C425.068 401.194 429.247 405.096 434.706 407.825C440.164 410.555 446.603 411.919 454.023 411.919ZM460.931 369.959H440.206C441.656 363.306 445.238 359.98 450.952 359.98C456.752 359.98 460.078 363.306 460.931 369.959ZM529.756 410.896L558.668 346.036H535.897L520.801 383.391L506.217 346.036H482.167L510.695 410.896H529.756ZM596.279 411.919C600.884 411.919 605.49 411.237 610.095 409.872C614.7 408.508 618.623 406.631 621.864 404.243L615.98 388.892C613.336 390.768 610.393 392.239 607.153 393.306C603.912 394.372 600.671 394.905 597.43 394.905C592.654 394.905 589.029 393.796 586.556 391.578C584.083 389.361 582.633 385.736 582.207 380.705H623.016V377.634C623.016 370.897 621.779 364.991 619.306 359.916C616.833 354.842 613.293 350.94 608.688 348.211C604.082 345.482 598.709 344.117 592.569 344.117C586.258 344.117 580.65 345.567 575.746 348.467C570.842 351.366 567.004 355.396 564.233 360.556C561.461 365.716 560.075 371.579 560.075 378.146C560.075 385.054 561.525 391.045 564.425 396.12C567.324 401.194 571.503 405.096 576.962 407.825C582.42 410.555 588.859 411.919 596.279 411.919ZM603.187 369.959H582.462C583.912 363.306 587.494 359.98 593.208 359.98C599.008 359.98 602.334 363.306 603.187 369.959ZM656.917 410.896V316.741H633.762V410.896H656.917Z" fill="#202842"/>
</g>
<defs>
<filter id="filter0_d" x="30.3213" y="248.164" width="940.648" height="400.698" filterUnits="userSpaceOnUse" color-interpolation-filters="sRGB">
<feFlood flood-opacity="0" result="BackgroundImageFix"/>
<feColorMatrix in="SourceAlpha" type="matrix" values="0 0 0 0 0 0 0 0 0 0 0 0 0 0 0 0 0 0 127 0"/>
<feOffset dy="30.1007"/>
<feGaussianBlur stdDeviation="18.813"/>
<feColorMatrix type="matrix" values="0 0 0 0 0.809003 0 0 0 0 0.809003 0 0 0 0 0.914459 0 0 0 1 0"/>
<feBlend mode="normal" in2="BackgroundImageFix" result="effect1_dropShadow"/>
<feBlend mode="normal" in="SourceGraphic" in2="effect1_dropShadow" result="shape"/>
</filter>
<linearGradient id="paint0_linear" x1="0" y1="557.688" x2="1000.54" y2="557.688" gradientUnits="userSpaceOnUse">
<stop stop-color="#F0F0F8"/>
<stop offset="1" stop-color="#DDDDEE"/>
</linearGradient>
<clipPath id="clip0">
<rect width="1000" height="1000" fill="white"/>
</clipPath>
</defs>
</svg>
