<svg width="1000" height="1000" viewBox="0 0 1000 1000" fill="none" xmlns="http://www.w3.org/2000/svg">
<path fill-rule="evenodd" clip-rule="evenodd" d="M6.07482 476.092C192.136 379.24 356.021 330.814 497.73 330.814C639.275 330.814 804.647 379.129 993.847 475.757C999.396 478.591 1001.6 485.387 998.763 490.935C998.694 491.071 998.622 491.204 998.548 491.337L960.322 559.268L994.509 654.292C996.618 660.155 993.575 666.618 987.712 668.727C984.773 669.785 981.526 669.576 978.747 668.151C800.615 576.832 642.63 531.173 504.79 531.173C366.234 531.173 204.613 577.308 19.9277 669.579C14.3539 672.364 7.57803 670.103 4.79333 664.529C3.50663 661.953 3.2532 658.984 4.08493 656.227L33.3441 559.268L1.0815 490.914C-1.50497 485.434 0.699687 478.89 6.07482 476.092Z" fill="url(#paint0_linear)"/>
<path opacity="0.9" fill-rule="evenodd" clip-rule="evenodd" d="M932.118 579.951C783.065 554.881 637.03 542.345 494.012 542.345C350.995 542.345 209.974 554.881 70.9494 579.951L84.1113 525.423L482.731 401.324L845.625 478.416L932.118 579.951Z" fill="#D4D4E9"/>
<mask id="mask0" mask-type="alpha" maskUnits="userSpaceOnUse" x="139" y="97" width="724" height="804">
<path d="M546.292 109.406L817.537 265.304C845.547 281.403 862.816 311.246 862.816 343.554V654.645C862.816 686.952 845.547 716.796 817.537 732.895L546.292 888.792C518.445 904.797 484.191 904.797 456.344 888.792L185.099 732.895C157.089 716.796 139.82 686.952 139.82 654.645V343.554C139.82 311.246 157.089 281.403 185.099 265.304L456.344 109.406C484.191 93.4014 518.445 93.4014 546.292 109.406Z" fill="white"/>
</mask>
<g mask="url(#mask0)">
<path d="M546.292 109.406L817.537 265.304C845.547 281.403 862.816 311.246 862.816 343.554V654.645C862.816 686.952 845.547 716.796 817.537 732.895L546.292 888.792C518.445 904.797 484.191 904.797 456.344 888.792L185.099 732.895C157.089 716.796 139.82 686.952 139.82 654.645V343.554C139.82 311.246 157.089 281.403 185.099 265.304L456.344 109.406C484.191 93.4014 518.445 93.4014 546.292 109.406Z" fill="#FFCD82"/>
<path fill-rule="evenodd" clip-rule="evenodd" d="M121.502 707.81L367.819 576.191L520.121 660.803L548.326 937.205H356.537L121.502 707.81Z" fill="#F9B550"/>
<path fill-rule="evenodd" clip-rule="evenodd" d="M130.904 284.748L320.812 390.044L321.752 606.276L113.981 728.494L83.8965 337.396L130.904 284.748Z" fill="#F9C16E"/>
</g>
<mask id="mask1" mask-type="alpha" maskUnits="userSpaceOnUse" x="497" y="97" width="366" height="804">
<path d="M497.558 98.5995C525.762 98.5995 518.446 93.4011 546.293 109.406L817.537 265.304C845.548 281.403 862.817 311.246 862.817 343.554V654.645C862.817 686.952 845.548 716.795 817.537 732.894L546.293 888.792C518.446 904.797 527.643 899.599 497.558 899.599" fill="white"/>
</mask>
<g mask="url(#mask1)">
<path d="M497.558 98.5995C525.762 98.5995 518.446 93.4011 546.293 109.406L817.537 265.304C845.548 281.403 862.817 311.246 862.817 343.554V654.645C862.817 686.952 845.548 716.795 817.537 732.894L546.293 888.792C518.446 904.797 527.643 899.599 497.558 899.599" fill="#F5AF45"/>
<path fill-rule="evenodd" clip-rule="evenodd" d="M704.388 606.275L918.74 752.937L486.275 937.204L476.874 713.451L704.388 606.275Z" fill="#F6A01F"/>
<path fill-rule="evenodd" clip-rule="evenodd" d="M698.747 393.803L888.655 279.106L488.156 57.2334L482.515 279.106L698.747 393.803Z" fill="#FCB953"/>
</g>
<path fill-rule="evenodd" clip-rule="evenodd" d="M529.367 261.336L694.417 355.927C711.958 365.979 722.777 384.65 722.777 404.868V593.33C722.777 613.547 711.958 632.219 694.417 642.271L529.367 736.862C511.994 746.819 490.644 746.819 473.271 736.862L308.221 642.271C290.68 632.219 279.861 613.547 279.861 593.33V404.868C279.861 384.65 290.68 365.979 308.221 355.927L473.271 261.336C490.644 251.379 511.994 251.379 529.367 261.336Z" fill="#FED9A7"/>
<path d="M492.993 629.861C500.153 629.861 506.419 628.817 511.789 626.729C517.159 624.64 521.272 621.657 524.127 617.778C526.983 613.9 528.41 609.318 528.41 604.034C528.41 598.493 526.983 593.805 524.127 589.969C521.272 586.133 517.201 583.448 511.917 581.914C516.434 580.209 519.929 577.609 522.401 574.115C524.873 570.62 526.066 566.486 525.981 561.712C525.981 556.683 524.638 552.272 521.953 548.479C519.268 544.686 515.497 541.766 510.638 539.721C505.779 537.675 500.111 536.652 493.633 536.652C487.581 536.652 481.593 537.547 475.668 539.337C469.744 541.127 464.95 543.471 461.284 546.369L468.828 563.375C472.493 560.732 476.35 558.708 480.399 557.301C484.448 555.895 488.305 555.192 491.97 555.192C495.551 555.192 498.342 556.044 500.345 557.749C502.348 559.453 503.35 561.925 503.35 565.164C503.35 568.148 502.306 570.3 500.217 571.621C498.129 572.943 494.698 573.603 489.925 573.603H478.162V592.015H492.354C497.213 592.015 500.686 592.739 502.775 594.188C504.863 595.638 505.907 598.067 505.907 601.476C505.907 605.057 504.842 607.592 502.711 609.084C500.58 610.576 496.957 611.322 491.843 611.322C483.574 611.322 475.477 608.594 467.549 603.139L460.006 620.144C463.586 623.127 468.38 625.493 474.39 627.24C480.399 628.987 486.6 629.861 492.993 629.861Z" fill="#202842"/>
<mask id="mask2" mask-type="alpha" maskUnits="userSpaceOnUse" x="67" y="255" width="866" height="326">
<path d="M71.5056 383.964C211.25 298.39 352.733 255.603 495.955 255.603C639.188 255.603 783.58 298.397 929.132 383.984C931.43 385.335 932.841 387.802 932.841 390.467V573.188C932.841 577.342 929.474 580.709 925.32 580.709C923.962 580.709 922.63 580.342 921.465 579.646C783.34 497.19 643.862 455.962 503.03 455.962C362.083 455.962 220.814 497.257 79.2229 579.848C75.6349 581.94 71.0296 580.728 68.9367 577.14C68.2657 575.99 67.9122 574.682 67.9122 573.351V390.378C67.9122 387.76 69.2732 385.331 71.5056 383.964Z" fill="white"/>
</mask>
<g mask="url(#mask2)">
<g filter="url(#filter0_d)">
<path d="M71.5056 383.964C211.25 298.39 352.733 255.603 495.955 255.603C639.188 255.603 783.58 298.397 929.132 383.984C931.43 385.335 932.841 387.802 932.841 390.467V573.188C932.841 577.342 929.474 580.709 925.32 580.709C923.962 580.709 922.63 580.342 921.465 579.646C783.34 497.19 643.862 455.962 503.03 455.962C362.083 455.962 220.814 497.257 79.2229 579.848C75.6349 581.94 71.0296 580.728 68.9367 577.14C68.2657 575.99 67.9122 574.682 67.9122 573.351V390.378C67.9122 387.76 69.2732 385.331 71.5056 383.964Z" fill="black"/>
</g>
<path d="M71.5056 383.964C211.25 298.39 352.733 255.603 495.955 255.603C639.188 255.603 783.58 298.397 929.132 383.984C931.43 385.335 932.841 387.802 932.841 390.467V573.188C932.841 577.342 929.474 580.709 925.32 580.709C923.962 580.709 922.63 580.342 921.465 579.646C783.34 497.19 643.862 455.962 503.03 455.962C362.083 455.962 220.814 497.257 79.2229 579.848C75.6349 581.94 71.0296 580.728 68.9367 577.14C68.2657 575.99 67.9122 574.682 67.9122 573.351V390.378C67.9122 387.76 69.2732 385.331 71.5056 383.964Z" fill="#F8F8FB"/>
<path fill-rule="evenodd" clip-rule="evenodd" d="M499.653 226.459V495.339L960.322 606.275V365.599C865.335 308.503 792.004 272.151 740.329 256.543C688.654 240.935 608.429 230.907 499.653 226.459Z" fill="#F1F1F8"/>
</g>
<path d="M410.307 410.726V391.292H371.821V319.69H347.784V410.726H410.307ZM453.779 411.749C458.382 411.749 462.985 411.067 467.588 409.703C472.191 408.339 476.112 406.464 479.351 404.077L473.469 388.734C470.827 390.61 467.886 392.08 464.647 393.145C461.408 394.211 458.169 394.744 454.93 394.744C450.156 394.744 446.534 393.636 444.062 391.419C441.59 389.203 440.141 385.58 439.715 380.551H480.502V377.483C480.502 370.749 479.266 364.846 476.794 359.774C474.322 354.703 470.784 350.803 466.181 348.075C461.578 345.347 456.208 343.984 450.071 343.984C443.763 343.984 438.159 345.433 433.258 348.331C428.356 351.229 424.521 355.257 421.75 360.414C418.98 365.571 417.595 371.431 417.595 377.994C417.595 384.899 419.044 390.887 421.942 395.958C424.84 401.03 429.017 404.93 434.472 407.657C439.928 410.385 446.363 411.749 453.779 411.749ZM460.683 369.811H439.97C441.419 363.163 444.999 359.838 450.71 359.838C456.507 359.838 459.831 363.163 460.683 369.811ZM529.472 410.726L558.368 345.902H535.609L520.521 383.236L505.945 345.902H481.908L510.421 410.726H529.472ZM595.958 411.749C600.561 411.749 605.164 411.067 609.767 409.703C614.37 408.339 618.291 406.464 621.53 404.077L615.649 388.734C613.006 390.61 610.065 392.08 606.826 393.145C603.587 394.211 600.348 394.744 597.109 394.744C592.336 394.744 588.713 393.636 586.241 391.419C583.769 389.203 582.32 385.58 581.894 380.551H622.681V377.483C622.681 370.749 621.445 364.846 618.973 359.774C616.501 354.703 612.963 350.803 608.361 348.075C603.758 345.347 598.388 343.984 592.25 343.984C585.943 343.984 580.338 345.433 575.437 348.331C570.536 351.229 566.7 355.257 563.93 360.414C561.159 365.571 559.774 371.431 559.774 377.994C559.774 384.899 561.223 390.887 564.121 395.958C567.019 401.03 571.196 404.93 576.652 407.657C582.107 410.385 588.542 411.749 595.958 411.749ZM602.863 369.811H582.149C583.599 363.163 587.179 359.838 592.89 359.838C598.686 359.838 602.01 363.163 602.863 369.811ZM656.563 410.726V316.622H633.421V410.726H656.563Z" fill="#202842"/>
<defs>
<filter id="filter0_d" x="2.84728" y="242.59" width="995.059" height="455.4" filterUnits="userSpaceOnUse" color-interpolation-filters="sRGB">
<feFlood flood-opacity="0" result="BackgroundImageFix"/>
<feColorMatrix in="SourceAlpha" type="matrix" values="0 0 0 0 0 0 0 0 0 0 0 0 0 0 0 0 0 0 127 0"/>
<feOffset dy="52.0519"/>
<feGaussianBlur stdDeviation="32.5325"/>
<feColorMatrix type="matrix" values="0 0 0 0 0.809003 0 0 0 0 0.809003 0 0 0 0 0.914459 0 0 0 1 0"/>
<feBlend mode="normal" in2="BackgroundImageFix" result="effect1_dropShadow"/>
<feBlend mode="normal" in="SourceGraphic" in2="effect1_dropShadow" result="shape"/>
</filter>
<linearGradient id="paint0_linear" x1="0" y1="557.439" x2="1000" y2="557.439" gradientUnits="userSpaceOnUse">
<stop stop-color="#F0F0F8"/>
<stop offset="1" stop-color="#DDDDEE"/>
</linearGradient>
</defs>
</svg>
