<svg xmlns="http://www.w3.org/2000/svg" xmlns:xlink="http://www.w3.org/1999/xlink" viewBox="0 0 1528 1147.24"><defs><clipPath id="clip-path" transform="translate(0 20.3)"><polygon points="885.68 821.77 878.5 1000.24 900.04 998.19 914.4 821.77 885.68 821.77" style="fill:#ffaf2d"/></clipPath><clipPath id="clip-path-2" transform="translate(0 20.3)"><polygon points="1092.86 821.77 1100.04 1000.24 1078.51 998.19 1064.14 821.77 1092.86 821.77" style="fill:#ffaf2d"/></clipPath><clipPath id="clip-path-3" transform="translate(0 20.3)"><path d="M1143.12,794.18l-143,4.53c-2.07,24.44,0,39.74,3.11,49.65L981.67,846c2.71-9.94,4.31-24.71,2.41-47.24l-143-4.53s-32.82,72.72-26.66,106.57c.85,4.7,9.42,6.33,14.58,6.89-4.27,0-10.53,1.29-10.33,8.36.29,10.7,13,9.76,13,9.76s-6.23,7.7-5.92,11.91,58.64,28,125.13-8.2c20.14-11,11.28-23.59,11.28-23.59s3-4.72,5.79-9.59c4.46,3.54,12.92,9.52,21.37,11.64,8.07,2,20.53-4.77,28.17-9.7,2.41,4.11,4.65,7.65,4.65,7.65s-8.85,12.61,11.29,23.59c66.49,36.23,124.81,12.42,125.13,8.2s-5.92-11.91-5.92-11.91,12.65.94,13-9.76c.19-7.07-6.06-8.32-10.33-8.36,5.15-.56,13.72-2.19,14.58-6.89C1175.94,866.9,1143.12,794.18,1143.12,794.18Z" style="fill:#f5a835"/></clipPath><clipPath id="clip-path-4" transform="translate(0 20.3)"><path d="M825.66,546.38s-49.51,80.84-77.31,182.94-32.64,159.51.78,170.63,60.39-9.88,64-38.44-2.17-75.67,5.49-193c3.39-51.9,38.51-104.25,38.51-104.25Z" style="fill:#5c72f7"/></clipPath><clipPath id="clip-path-5" transform="translate(0 20.3)"><path d="M1159.06,540.23s49.51,80.83,77.31,182.94,32.64,159.5-.78,170.62-60.39-9.87-63.95-38.43,2.17-75.68-5.49-193.05c-3.39-51.89-38.51-104.25-38.51-104.25Z" style="fill:#5c72f7"/></clipPath><clipPath id="clip-path-6" transform="translate(0 20.3)"><path d="M901.06,986.9s-22.69,16.9-22.56,0c0,0-36.17,6.7-46,31.8-7.8,19.85-24.87,10.36-27.05.49a3.06,3.06,0,0,0-5.46-1.13c-3,4-5.13,10.15-2.56,18.87,5.36,18.15,28.91,29.45,62.12,21.63s54.86-28,59.56-33.84S915,992.32,901.06,986.9Z" style="fill:#77603f"/></clipPath><clipPath id="clip-path-7" transform="translate(0 20.3)"><path d="M1077.1,987.93s22.69,16.9,22.57,0c0,0,36.17,6.69,46,31.79,7.79,19.86,24.86,10.36,27,.5a3.08,3.08,0,0,1,5.47-1.14c3,4,5.12,10.16,2.55,18.88-5.35,18.15-28.91,29.45-62.11,21.63s-54.87-28-59.56-33.84S1063.12,993.35,1077.1,987.93Z" style="fill:#77603f"/></clipPath><clipPath id="clip-path-8" transform="translate(0 20.3)"><path d="M1129.76,548.94l-81.86.55c0,17.13-4.55,67.15-55.55,67.15-48.13,0-62.79-48.5-66.55-66.34l-64,.43s-80.11,203.54-90,237,23.57,11.81,45.62,21.17,98.39,38.73,164.18,45.64,165.14-35.22,186-38.79,40.61-43.19,51.63-54.31S1149.4,564.06,1129.76,548.94Z" style="fill:#fff"/></clipPath><clipPath id="clip-path-9" transform="translate(0 20.3)"><path d="M1012.86,559.2l51.29,153.85s106.66-13.33,133.33-56.41c6.11-9.87-50.26-101.54-74.87-120Z" style="fill:#f4a836"/></clipPath><clipPath id="clip-path-10" transform="translate(0 20.3)"><path d="M963.63,560.23,945.17,709s-119-1-148.72-32.82c0,0,2-51.29,56.41-123.08C858.57,545.51,963.63,560.23,963.63,560.23Z" style="fill:#f4a836"/></clipPath><clipPath id="clip-path-11" transform="translate(0 20.3)"><path d="M905.87,223S817.55,280.2,793.42,338.66s-37.58,108-44.3,113.68a20.76,20.76,0,0,0,15.68-7.71l-12.94,43.28s11.19-6.72,15.67-16.17c0,0,4.73,23.38,5.22,42.54,0,0,5.72-6,7-10.95,0,0,11.68,50.5,78.6,61.95s232.34,17.94,286.08-15.14,68.17-86.56,68.17-86.56l11.94,7.21L1222,438.45l18.91,9-26.62-50,11.7,4-26.62-28.86,20.15-.25-30.35-22.39s-52.53-120.09-164.41-141.56C952.14,194.39,905.87,223,905.87,223Z" style="fill:#93a3ff"/></clipPath><clipPath id="clip-path-12" transform="translate(0 20.3)"><path d="M761.57,351s-55.38-109.75-9.23-141.54c0,0-11.28-21.54,14.36-52.31s120.95-177,233.85-154.88c188.73,36.93,155.91,170.26,155.91,170.26l-53.34,44.11L879.52,273,785.16,351Z" style="fill:#e8e8f9"/></clipPath><clipPath id="clip-path-13" transform="translate(0 20.3)"><path d="M1170.81,204.32s42.06,27.69,33.85,119h-23.59l-138.46-84.11,30.77-22.56Z" style="fill:#d4d4f4"/></clipPath><clipPath id="clip-path-14" transform="translate(0 20.3)"><path d="M980,250.47s149.75,43.08,205.13,96.42c0,0,16.41-16.41,19.49-23.59s-67.69-79-141.54-98.47C1063.12,224.83,973.29,221.06,980,250.47Z" style="fill:#f4bd36"/></clipPath><clipPath id="clip-path-15" transform="translate(0 20.3)"><path d="M778,378.68S759.52,365.35,761.57,351c0,0,25.28-87.57,191.8-139.49,95.39-29.75,203.09-39,203.09-39s16.41,16.41,14.35,31.8c0,0-118,26.67-211.28,56.41S778,378.68,778,378.68Z" style="fill:#f5a835"/></clipPath><clipPath id="clip-path-16" transform="translate(0 20.3)"><path d="M256.94,937.18l37.73,72.66S360.93,1030,444.61,1030s150.91-20.14,150.91-20.14l35.79-72.66Z" style="fill:#e57510"/></clipPath><clipPath id="clip-path-17" transform="translate(0 20.3)"><path d="M294.67,872.43l-37.73,64.75s54.18,23,188.64,23,185.73-23,185.73-23l-35.79-64.75Z" style="fill:#f48d25"/></clipPath><clipPath id="clip-path-18" transform="translate(0 20.3)"><path d="M426.23,653.68s14,79,62.89,107.92S508,734.45,508,734.45L481.86,627.08l12.57-53.21-60,32.89Z" style="fill:#859300"/></clipPath><clipPath id="clip-path-19" transform="translate(0 20.3)"><path d="M526.35,563.23s-15.47,29-8.7,55.14,67.71,90,18,128.3c-34.81,26.84-19-13.18-19-13.18L483.53,620l9.93-50,20.32-9.67Z" style="fill:#859300"/></clipPath><clipPath id="clip-path-20" transform="translate(0 20.3)"><path d="M445.1,886.1c33,0,63.52-1,88.33-2.61,13.29-14.46,22.08-31.55,22.91-50.37,3.87-87.06-92.92-178.07-60-250.54,4.83-10.64-13.55,4.83-19.35,30.95s-3.57,91.64,19.35,178c6.28,23.7-32.41,57.56-38.22,63.36l-.48-.48s-78.57-35.7-82.16,30.14C396.32,885.54,420,886.1,445.1,886.1Z" style="fill:#bfb100"/></clipPath><clipPath id="clip-path-21" transform="translate(0 20.3)"><path d="M497.82,615s-11.61-15.47-14.51,4.84,14.51,123.82,23.21,162.52-26.26,79.57-47,90.09-52.84,19.29-52.84,19.29l73.05,1,63.54-6.91,22.25-30,2.9-57.08-18.38-53.2-38.69-87.06Z" style="fill:#efc13f"/></clipPath><clipPath id="clip-path-22" transform="translate(0 20.3)"><path d="M426.23,653.68S478,575.81,520.55,571s.46-50.26-41.11-41.11C431.07,540.5,424.3,637.23,426.23,653.68Z" style="fill:#bfb100"/></clipPath></defs><g id="Layer_2" data-name="Layer 2"><g id="india"><polygon points="0 1147.24 156.72 953.46 1396.13 953.46 1528 1147.24 0 1147.24" style="fill:#e8e8f9"/><polygon points="107.98 1099.61 185.39 988.1 1371.28 989.19 1428.62 1103.94 107.98 1099.61" style="fill:#d4d4f4"/><path d="M276.5,1010c-2.39-5,1.08-17.32,35.73-17.32s323.68,5.41,350.74,5.41,59.54,18.41,44.39,31.4S304.65,1068.48,276.5,1010Z" transform="translate(0 20.3)" style="fill:#a2a2db;opacity:0.46"/><path d="M785.3,1053.9c-18.18-14.68,1.08-45.47,72.53-49.8s349.67,3.25,404.88,4.33,132.07,46.55,85.52,54.13S813.45,1076.63,785.3,1053.9Z" transform="translate(0 20.3)" style="fill:#a2a2db;opacity:0.46"/><polygon points="885.68 842.07 878.5 1020.54 900.04 1018.49 914.4 842.07 885.68 842.07" style="fill:#ffaf2d"/><g style="clip-path:url(#clip-path)"><path d="M878.5,954.08s15.38-1,17.44,4.11-3.08,42-3.08,42l17.43-18.46-4.45-41.4-30.42,4.47Z" transform="translate(0 20.3)" style="fill:#f09500"/></g><polygon points="1092.86 842.07 1100.04 1020.54 1078.51 1018.49 1064.14 842.07 1092.86 842.07" style="fill:#ffaf2d"/><g style="clip-path:url(#clip-path-2)"><path d="M1069.27,949s20.52,5.13,22.57,12.31-1,40-1,40l17.44-6.15-2-33.85-7.33-18.88-29.6-4.71Z" transform="translate(0 20.3)" style="fill:#f09500"/></g><path d="M1143.12,794.18l-143,4.53c-2.07,24.44,0,39.74,3.11,49.65L981.67,846c2.71-9.94,4.31-24.71,2.41-47.24l-143-4.53s-32.82,72.72-26.66,106.57c.85,4.7,9.42,6.33,14.58,6.89-4.27,0-10.53,1.29-10.33,8.36.29,10.7,13,9.76,13,9.76s-6.23,7.7-5.92,11.91,58.64,28,125.13-8.2c20.14-11,11.28-23.59,11.28-23.59s3-4.72,5.79-9.59c4.46,3.54,12.92,9.52,21.37,11.64,8.07,2,20.53-4.77,28.17-9.7,2.41,4.11,4.65,7.65,4.65,7.65s-8.85,12.61,11.29,23.59c66.49,36.23,124.81,12.42,125.13,8.2s-5.92-11.91-5.92-11.91,12.65.94,13-9.76c.19-7.07-6.06-8.32-10.33-8.36,5.15-.56,13.72-2.19,14.58-6.89C1175.94,866.9,1143.12,794.18,1143.12,794.18Z" transform="translate(0 20.3)" style="fill:#f5a835"/><g style="clip-path:url(#clip-path-3)"><path d="M1082.09,798.33s30.26,59.34,23.08,107.55S1017,922.29,1017,922.29l25.65,31.79,132.31-1,18.46-30.77-44.1-138.47-69.75,4.1,2.56,10.41" transform="translate(0 20.3)" style="fill:#e8912a"/><path d="M956.45,875.11S914.4,961.26,819,932.54l3.08,11.29,44.1,13.33L940,946.9l35.9-31.79-8.21-16.41Z" transform="translate(0 20.3)" style="fill:#e8912a"/><path d="M1034.91,868.33c-3.5,5.44-7.67,10.43-11.07,15.95-2.81,4.56-7.32,9.42-9,14.47a1.35,1.35,0,0,0,2,1.5c4.52-2.7,6.73-9.07,9.4-13.44a151,151,0,0,0,9.25-18.15.33.33,0,0,0-.57-.33Z" transform="translate(0 20.3)" style="fill:#d88a00"/><path d="M955.46,868.69c.4,6.19,1.13,12.13,3.76,17.84,1.3,2.83,2.9,5.61,4.33,8.38.88,1.69,1.46,2.62,3.38,2.93.49.08,1.12-.45.74-1-6.12-8.26-9.79-18.2-11.47-28.29-.07-.41-.76-.32-.74.1Z" transform="translate(0 20.3)" style="fill:#d88a00"/><path d="M1052.57,911.2c-5.45-1-10.94-1.06-16.38-2.24s-10.68-2.85-16-4.27c-1.1-.3-1.47,1.27-.46,1.67a77.65,77.65,0,0,0,17,4.25c5.11.77,10.6,1.84,15.77,1.51.49,0,.67-.82.12-.92Z" transform="translate(0 20.3)" style="fill:#d88a00"/><path d="M1120.79,910.41c10.7,1.45,23.47,2.12,33.86-1.56.76-.26.7-1.5-.2-1.47-5.57.19-11.16,1.5-16.75,2s-11.3.81-16.89,1c-.06,0-.07.09,0,.09Z" transform="translate(0 20.3)" style="fill:#d88a00"/><path d="M1142.34,924c2.64.69,5.42,1,8,1.95,1.79.62,3.46,1.47,5.21.45a1,1,0,0,0-.22-1.71,41.65,41.65,0,0,0-6.22-1.19c-2.2-.37-4.38-.63-6.59-.83-.77-.07-.91,1.14-.18,1.33Z" transform="translate(0 20.3)" style="fill:#d88a00"/><path d="M859.48,905.51c-5.87.6-12,.74-17.86.91-5.43.15-10.78-.32-16.17.71-1.22.23-.79,1.91.28,2,11.16,1.14,22.6-2.27,33.75-2.89.49,0,.47-.8,0-.75Z" transform="translate(0 20.3)" style="fill:#d88a00"/><path d="M844.18,923.69c-6.48.9-13.81.45-19.87,3.2a.71.71,0,0,0,.16,1.29c6.44,1.34,13.73-2.29,19.92-3.72.51-.12.28-.83-.21-.77Z" transform="translate(0 20.3)" style="fill:#d88a00"/><path d="M819,821.77s147.36,84.06,289.58,12.28L954.4,826.9,828.24,800.23Z" transform="translate(0 20.3)" style="fill:#d88a00;opacity:0.79"/></g><path d="M729.12,855.69s-19.55,35.85-12.11,50.7,22.55-22.71,22.55-22.71Z" transform="translate(0 20.3)" style="fill:#ffaf2d"/><path d="M740,889.53s-4.42,16.85-4.56,27.27,3.86,15.57,8.43,16.13,11.56-9,13.55-34.27Z" transform="translate(0 20.3)" style="fill:#ffaf2d"/><path d="M760.84,899.09S757,920.65,757,929.93s2.43,17.7,9.28,18.56,15.13-9.72,19.4-53.27Z" transform="translate(0 20.3)" style="fill:#ffaf2d"/><path d="M799.53,886.51s1.15,18.7,12.71,19,6.27-31.7-.16-54.54Z" transform="translate(0 20.3)" style="fill:#ffaf2d"/><path d="M825.66,546.38s-49.51,80.84-77.31,182.94-32.64,159.51.78,170.63,60.39-9.88,64-38.44-2.17-75.67,5.49-193c3.39-51.9,38.51-104.25,38.51-104.25Z" transform="translate(0 20.3)" style="fill:#5c72f7"/><g style="clip-path:url(#clip-path-4)"><path d="M842.6,536.64S775.93,774.59,777,826.9s-11.28,75.9-67.7,38l26.67,51.28L796.45,911l37.95-39L857,536.64Z" transform="translate(0 20.3)" style="fill:#4b61f8"/></g><path d="M1255.6,849.54s19.54,35.85,12.11,50.69-22.55-22.71-22.55-22.71Z" transform="translate(0 20.3)" style="fill:#ffaf2d"/><path d="M1244.73,883.38s4.42,16.85,4.56,27.27-3.86,15.56-8.43,16.13-11.56-9-13.55-34.27Z" transform="translate(0 20.3)" style="fill:#ffaf2d"/><path d="M1223.88,892.93s3.85,21.57,3.84,30.85-2.43,17.7-9.28,18.55-15.14-9.71-19.4-53.26Z" transform="translate(0 20.3)" style="fill:#ffaf2d"/><path d="M1185.19,880.35s-1.15,18.71-12.71,19-6.27-31.7.16-54.55Z" transform="translate(0 20.3)" style="fill:#ffaf2d"/><path d="M1159.06,540.23s49.51,80.83,77.31,182.94,32.64,159.5-.78,170.62-60.39-9.87-63.95-38.43,2.17-75.68-5.49-193.05c-3.39-51.89-38.51-104.25-38.51-104.25Z" transform="translate(0 20.3)" style="fill:#5c72f7"/><g style="clip-path:url(#clip-path-5)"><path d="M1138,544.84s86.16,153.85,89.24,276.93-78,22.57-78,22.57l16.41,71.79,116.92,6.16,6.16-84.11L1158.51,507.92Z" transform="translate(0 20.3)" style="fill:#4b61f8"/></g><path d="M901.06,986.9s-22.69,16.9-22.56,0c0,0-36.17,6.7-46,31.8-7.8,19.85-24.87,10.36-27.05.49a3.06,3.06,0,0,0-5.46-1.13c-3,4-5.13,10.15-2.56,18.87,5.36,18.15,28.91,29.45,62.12,21.63s54.86-28,59.56-33.84S915,992.32,901.06,986.9Z" transform="translate(0 20.3)" style="fill:#77603f"/><g style="clip-path:url(#clip-path-6)"><path d="M904.14,979.73s9.23,41-18.46,58.46-65.64,21.54-89.23,6.15l13.33,17.44,40,6.15L900,1050.5l31.79-26.67Z" transform="translate(0 20.3)" style="fill:#684f30"/></g><path d="M1077.1,987.93s22.69,16.9,22.57,0c0,0,36.17,6.69,46,31.79,7.79,19.86,24.86,10.36,27,.5a3.08,3.08,0,0,1,5.47-1.14c3,4,5.12,10.16,2.55,18.88-5.35,18.15-28.91,29.45-62.11,21.63s-54.87-28-59.56-33.84S1063.12,993.35,1077.1,987.93Z" transform="translate(0 20.3)" style="fill:#77603f"/><g style="clip-path:url(#clip-path-7)"><path d="M1179,1012.55s8.21,92.31-124.11-4.11l-2.05,21.54,56.41,35.9,56.42,1,21.54-17.44-2.06-28.72Z" transform="translate(0 20.3)" style="fill:#684f30"/></g><polygon points="939.01 628.74 951.56 578.92 1020.04 574.38 1042.76 601.55 1042.61 633.86 1000.55 653.35 960.55 653.35 939.01 628.74" style="fill:#4b61f8"/><path d="M1129.76,548.94l-81.86.55c0,17.13-4.55,67.15-55.55,67.15-48.13,0-62.79-48.5-66.55-66.34l-64,.43s-80.11,203.54-90,237,23.57,11.81,45.62,21.17,98.39,38.73,164.18,45.64,165.14-35.22,186-38.79,40.61-43.19,51.63-54.31S1149.4,564.06,1129.76,548.94Z" transform="translate(0 20.3)" style="fill:#fff"/><g style="clip-path:url(#clip-path-8)"><path d="M991.5,615.34c-.47,11.59-.87,23.18-1,34.78s-1.67,23.26-.32,34.74c.08.69,1.08.95,1.28.18,2.87-11,2.41-22.6,3-33.92a290.62,290.62,0,0,0-.69-35.78,1.13,1.13,0,0,0-2.25,0Z" transform="translate(0 20.3)" style="fill:#d3d9ed"/><path d="M966.06,682.36c17.63,3.74,35.87,8.24,53.48,1.89a1.74,1.74,0,0,0-.92-3.35c-17.26,3.68-35,2.47-52.38.17-.73-.1-.89,1.14-.18,1.29Z" transform="translate(0 20.3)" style="fill:#d3d9ed"/><path d="M1070.3,536.64s102.57,336.42-256.42,285.13l69.75,33.85,159,22.56,163.08-56.41,45.13-67.69L1145.17,524.33Z" transform="translate(0 20.3)" style="fill:#d4d4f4"/></g><path d="M1012.86,559.2l51.29,153.85s106.66-13.33,133.33-56.41c6.11-9.87-50.26-101.54-74.87-120Z" transform="translate(0 20.3)" style="fill:#f4a836"/><g style="clip-path:url(#clip-path-9)"><path d="M1021.07,624.84s53.33,7.18,102.56-8.2c23.54-7.36,48.21,121,61.54,96.41,14.49-26.75,34.88-57.44,34.88-57.44l-69.2-109.23-138,12.82Z" transform="translate(0 20.3)" style="fill:#e8912a"/></g><path d="M963.63,560.23,945.17,709s-119-1-148.72-32.82c0,0,2-51.29,56.41-123.08C858.57,545.51,963.63,560.23,963.63,560.23Z" transform="translate(0 20.3)" style="fill:#f4a836"/><g style="clip-path:url(#clip-path-10)"><path d="M808.75,630s7.52-53.36,111.8-17.43c122.06,42.05,64.62-63.6,64.62-63.6l-165.66-2.56Z" transform="translate(0 20.3)" style="fill:#e8912a"/></g><path d="M905.87,223S817.55,280.2,793.42,338.66s-37.58,108-44.3,113.68a20.76,20.76,0,0,0,15.68-7.71l-12.94,43.28s11.19-6.72,15.67-16.17c0,0,4.73,23.38,5.22,42.54,0,0,5.72-6,7-10.95,0,0,11.68,50.5,78.6,61.95s232.34,17.94,286.08-15.14,68.17-86.56,68.17-86.56l11.94,7.21L1222,438.45l18.91,9-26.62-50,11.7,4-26.62-28.86,20.15-.25-30.35-22.39s-52.53-120.09-164.41-141.56C952.14,194.39,905.87,223,905.87,223Z" transform="translate(0 20.3)" style="fill:#93a3ff"/><g style="clip-path:url(#clip-path-11)"><path d="M1095.4,271.26s224.81,386.83-292.26,273.58c-37.46-8.2-6.69,29.75-6.69,29.75s185.64,25.64,285.13,7.18,169.24-100.52,169.24-100.52l16.41-72.82-30.77-80L1095.4,271.26" transform="translate(0 20.3)" style="fill:#8091fc"/><path d="M1048.36,234.91S953.1,246.82,749.58,403.79l20.56-48.71,32.48-90.94,113.67-72.53,115.83-3.25L1109,218.68Z" transform="translate(0 20.3)" style="fill:#5c74ff"/><path d="M975.83,255.48s151.56,40.06,236,111.5l18.4-6.49-32.48-74.7L1148,255.48l-93.09-36.8Z" transform="translate(0 20.3)" style="fill:#5c74ff"/></g><ellipse cx="935.98" cy="358.55" rx="43.84" ry="54.11" transform="translate(-18.34 72.43) rotate(-3.16)" style="fill:#6374e7"/><ellipse cx="941.86" cy="354.88" rx="33.08" ry="39.46" transform="translate(-18.13 72.75) rotate(-3.16)" style="fill:#fff"/><ellipse cx="946.25" cy="358.12" rx="14.26" ry="11.04" transform="translate(556 1311.88) rotate(-88.04)" style="fill:#5a5972"/><ellipse cx="1034.96" cy="360.25" rx="58.52" ry="74.82" transform="translate(-3.37 30.12) rotate(-0.54)" style="fill:#6374e7"/><ellipse cx="1026.54" cy="356.63" rx="54.58" ry="44.15" transform="translate(665.47 1401.92) rotate(-89.75)" style="fill:#fff"/><ellipse cx="1021.31" cy="362.09" rx="14.79" ry="19.64" transform="translate(-31.38 125.44) rotate(-5.8)" style="fill:#5a5972"/><path d="M869.74,450.49s-14,46.71-6.14,49.77,43.19-19.85,43.19-19.85S882.33,464.58,869.74,450.49Z" transform="translate(0 20.3)" style="fill:#fff"/><path d="M843,417.05s44.23,75.85,129.58,87.6S1095.4,490.1,1095.4,490.1" transform="translate(0 20.3)" style="fill:none;stroke:#3a4cc8;stroke-linecap:round;stroke-miterlimit:10;stroke-width:4px"/><path d="M761.57,351s-55.38-109.75-9.23-141.54c0,0-11.28-21.54,14.36-52.31s120.95-177,233.85-154.88c188.73,36.93,155.91,170.26,155.91,170.26l-53.34,44.11L879.52,273,785.16,351Z" transform="translate(0 20.3)" style="fill:#e8e8f9"/><g style="clip-path:url(#clip-path-12)"><path d="M857,44.31s119-34.87,178.47,43.08-154.88,198-154.88,198l188.72-36.93,128.21-50.25-39-133.34L1042.61-20.3,914.4-18.25Z" transform="translate(0 20.3)" style="fill:#d4d4f4"/><path d="M850.52,153.65c-20.64,14.59-44.18,25.57-67,36.31-11.58,5.45-23.31,10.54-34.92,15.93-11.14,5.16-22.44,10.33-32.1,18.06-1.09.87.09,2.82,1.37,2.35,11.59-4.22,22.43-10.29,33.45-15.77,11.69-5.8,23.47-11.44,35.23-17.1,22.95-11,44.38-23.39,64.5-39.06.4-.31-.13-1-.55-.72Z" transform="translate(0 20.3)" style="fill:#c5cfea"/><path d="M1036.32,67.32c19-5.12,38.65-7.13,58.23-4.46,18.49,2.52,35.37,8.66,51.88,17.22a1.51,1.51,0,0,0,1.53-2.61c-31.87-23-75.8-21.8-112-11.3a.6.6,0,0,0,.32,1.15Z" transform="translate(0 20.3)" style="fill:#b4b4ed"/><path d="M1110.39,158.14c25.16.88,50.5,6,74.94,11.77a.74.74,0,0,0,.4-1.43c-24.45-9.29-49.35-11.93-75.34-11.54a.6.6,0,0,0,0,1.2Z" transform="translate(0 20.3)" style="fill:#b4b4ed"/></g><path d="M1170.81,204.32s42.06,27.69,33.85,119h-23.59l-138.46-84.11,30.77-22.56Z" transform="translate(0 20.3)" style="fill:#d4d4f4"/><g style="clip-path:url(#clip-path-13)"><path d="M1179.72,265.21c15.23,10,26.43,24,40.09,35.76,1.49,1.27,3.92-.33,2.82-2.17-9.43-15.84-26.24-26.43-41.53-36-1.5-.94-2.85,1.41-1.38,2.37Z" transform="translate(0 20.3)" style="fill:#b4b4ed"/></g><path d="M980,250.47s149.75,43.08,205.13,96.42c0,0,16.41-16.41,19.49-23.59s-67.69-79-141.54-98.47C1063.12,224.83,973.29,221.06,980,250.47Z" transform="translate(0 20.3)" style="fill:#f4bd36"/><g style="clip-path:url(#clip-path-14)"><circle cx="1098.15" cy="287.22" r="6.15" style="fill:#ffda64"/><circle cx="1138.15" cy="309.78" r="6.15" style="fill:#ffda64"/><circle cx="1176.1" cy="337.48" r="6.15" style="fill:#ffda64"/><circle cx="1047.9" cy="267.74" r="6.15" style="fill:#ffda64"/><path d="M995.43,263.81s58.06-28,102.36-39.14h0l-20.31-5-105.4,30Z" transform="translate(0 20.3)" style="fill:#d88a00;opacity:0.79"/><path d="M1119.53,244.32s16.41,46.16-27.69,55.39l97.44,55.38,28.72-39Z" transform="translate(0 20.3)" style="fill:#db9b00;opacity:0.62"/></g><path d="M778,378.68S759.52,365.35,761.57,351c0,0,25.28-87.57,191.8-139.49,95.39-29.75,203.09-39,203.09-39s16.41,16.41,14.35,31.8c0,0-118,26.67-211.28,56.41S778,378.68,778,378.68Z" transform="translate(0 20.3)" style="fill:#f5a835"/><g style="clip-path:url(#clip-path-15)"><circle cx="787.21" cy="361.04" r="6.15" style="fill:#ffda64"/><circle cx="814.91" cy="335.39" r="6.15" style="fill:#ffda64"/><circle cx="848.75" cy="308.73" r="6.15" style="fill:#ffda64"/><circle cx="893.88" cy="281.03" r="6.15" style="fill:#ffda64"/><circle cx="952.47" cy="256.45" r="6.15" style="fill:#ffda64"/><circle cx="1006.78" cy="240.02" r="6.15" style="fill:#ffda64"/><circle cx="1057.04" cy="226.68" r="6.15" style="fill:#ffda64"/><circle cx="1101.31" cy="218.5" r="6.15" style="fill:#ffda64"/><circle cx="1143.37" cy="212.34" r="6.15" style="fill:#ffda64"/><path d="M1066.2,175.6s-83.08,78-130.26,103.59l261.54-74.87-35.19-41.18Z" transform="translate(0 20.3)" style="fill:#db9b00;opacity:0.62"/></g><path d="M256.94,937.18l37.73,72.66S360.93,1030,444.61,1030s150.91-20.14,150.91-20.14l35.79-72.66Z" transform="translate(0 20.3)" style="fill:#e57510"/><g style="clip-path:url(#clip-path-16)"><path d="M284.11,957.79c3.48,7.93,7,15.84,10.88,23.58,3.58,7.13,6.14,15.35,11.05,21.7,1.15,1.49,3.22-.17,2.9-1.68-1.66-7.8-6.66-15.16-10.18-22.23a221.94,221.94,0,0,0-13-22.31.94.94,0,0,0-1.62.94Z" transform="translate(0 20.3)" style="fill:#c45d00"/><path d="M311.17,965.38A400.63,400.63,0,0,0,327,1011.47c1.31,3.13,6.45,1.92,5.25-1.45a406,406,0,0,0-19.58-45.26c-.4-.81-1.69-.24-1.45.62Z" transform="translate(0 20.3)" style="fill:#c45d00"/><path d="M337.06,968.9c2.52,8.17,4.86,16.21,7.84,24.27,2.74,7.42,4.42,16.07,8.71,22.76,1.75,2.73,5.44.88,5-2.09-1.22-7.84-5.86-15.44-8.93-22.68-3.37-7.95-7.26-15.22-11.3-22.81a.71.71,0,0,0-1.29.55Z" transform="translate(0 20.3)" style="fill:#c45d00"/><path d="M367,970.73a177,177,0,0,0,7.94,27.5c1.54,4,3.27,7.91,5,11.81s3.24,8.93,6.52,11.85c1.41,1.25,4.14.51,4-1.65-.27-4.17-2.72-7.86-4.46-11.61-1.94-4.21-3.78-8.46-5.69-12.68-3.92-8.66-8.07-17.14-12.22-25.69-.31-.65-1.25-.17-1.11.47Z" transform="translate(0 20.3)" style="fill:#c45d00"/><path d="M398.09,971c2.44,9.07,3.13,18.69,5.58,27.83,1.15,4.29,2.37,8.57,3.6,12.84,1.09,3.8,1.89,8.51,5.1,11a2.86,2.86,0,0,0,4.81-2c.32-4.12-2.41-7.86-4-11.54a79.23,79.23,0,0,1-4.39-13.62c-1-4.46-1.95-8.95-3.16-13.37s-3.22-8-5.39-12.1a1.18,1.18,0,0,0-2.14.9Z" transform="translate(0 20.3)" style="fill:#c45d00"/><path d="M432.09,972.29c-.67,9-1.71,17.69-.61,26.72.58,4.8,1.27,9.58,1.52,14.42.19,3.85-.5,7.72,1.15,11.25a2.32,2.32,0,0,0,4,0c1.82-3.52.76-7.27-.23-11a49.27,49.27,0,0,1-2.06-14.3c.25-9.33-1.08-18.06-2.36-27.28-.11-.83-1.32-.55-1.38.19Z" transform="translate(0 20.3)" style="fill:#c45d00"/><path d="M462.66,969.67a190.35,190.35,0,0,0-2.19,26.76c0,8.88-.85,18.36.78,27.13.56,3,5,2.12,5.15-.7.49-8.73-1-17.67-1-26.43s-.21-17.61-.3-26.43c0-1.32-2.2-1.73-2.4-.33Z" transform="translate(0 20.3)" style="fill:#c45d00"/><path d="M497.33,968c-8.81,16.39-8.65,35.14-11.85,53.06-.53,3,4.13,4.18,4.52,1.25,2.41-18,4.44-36,9.22-53.51a1,1,0,0,0-1.89-.8Z" transform="translate(0 20.3)" style="fill:#c45d00"/><path d="M529,967.54c-2,4.22-4.51,8-6.18,12.4s-3.09,9.09-4.45,13.69-2.71,9.21-3.84,13.87c-.95,3.93-2.74,8.27-1.67,12.27a1.51,1.51,0,0,0,2.51.66c2.76-3.08,3.19-7.61,4.31-11.51,1.23-4.31,2.39-8.63,3.66-12.92s2.67-8.55,3.92-12.84c1.45-5,2-10,3.2-15,.21-.84-1.05-1.45-1.46-.61Z" transform="translate(0 20.3)" style="fill:#c45d00"/><path d="M560.07,961c-4.26,8.2-8.49,15.92-11.39,24.8-3.06,9.33-5.37,18.86-8.34,28.22-1.16,3.63,4.85,5.27,5.69,1.57,2.11-9.24,4.68-18.43,7.21-27.57,2.43-8.79,4.27-18.23,7.77-26.63.23-.54-.68-.91-.94-.39Z" transform="translate(0 20.3)" style="fill:#c45d00"/><path d="M594.83,954c-4.06,7.76-6.7,16.16-9.27,24.49-2.78,9-6.84,18.38-8.55,27.61a2.86,2.86,0,0,0,5.52,1.52c3.27-8.12,4.76-17.53,7.09-26,2.39-8.72,4.15-17.71,8.28-25.81,1-2-2-3.84-3.07-1.8Z" transform="translate(0 20.3)" style="fill:#c45d00"/><path d="M403,960.33s67.71,27.09-5.18,69.65l11,11.61h86.09l114.15-27.08L642,931.31l-242.8-3.87Z" transform="translate(0 20.3)" style="fill:#b74e00;opacity:0.51"/></g><path d="M294.67,872.43l-37.73,64.75s54.18,23,188.64,23,185.73-23,185.73-23l-35.79-64.75Z" transform="translate(0 20.3)" style="fill:#f48d25"/><g style="clip-path:url(#clip-path-17)"><path d="M299.7,939.12c2.89-1.88,3.95-5.29,5.4-8.34,2.15-4.49,4.1-9.08,6.1-13.64,3.36-7.64,7.74-15.77,8.84-24.11a1,1,0,0,0-1.76-.73c-5.18,6.62-7.92,15.44-11,23.18-1.72,4.32-3.5,8.62-5.12,13-1.26,3.4-3.24,7-2.52,10.64a.06.06,0,0,0,.08,0Z" transform="translate(0 20.3)" style="fill:#d67c20"/><path d="M323.05,942.74a117.9,117.9,0,0,0,9.49-22.7c1.19-3.85,2.2-7.75,3.37-11.61,1.32-4.35,3.3-8.53,4.3-13,.44-1.94-2.12-3.85-3.6-2.1-5.14,6.06-7.32,15-9.26,22.55-2.23,8.64-3.55,17.41-6.7,25.81-.52,1.41,1.69,2.29,2.4,1Z" transform="translate(0 20.3)" style="fill:#d67c20"/><path d="M346.25,945.24c3.76-8.22,6.89-16.63,9.89-25.15a132.27,132.27,0,0,0,3.92-13.24c1-4.2,2.64-8.57,2.41-12.92,0-.83-1.22-1.56-1.84-.76-2.21,2.83-3.23,6.2-4.54,9.52-1.82,4.64-3.6,9.18-4.95,14-2.57,9.21-5,18.38-6.77,27.79-.2,1.06,1.36,1.93,1.88.79Z" transform="translate(0 20.3)" style="fill:#d67c20"/><path d="M369.87,947.28c4.26-7.53,5.74-16.32,7.65-24.67,1.81-7.93,4.65-17.71,3.61-25.89-.16-1.24-1.91-2.09-2.62-.71-3.79,7.38-4.7,17.07-6.27,25.14-1.65,8.45-4.24,17-4,25.68a.9.9,0,0,0,1.66.45Z" transform="translate(0 20.3)" style="fill:#d67c20"/><path d="M395.76,946.46c1.82-3.63,3.06-5.78,4-9.81s1.87-8.06,2.52-12.17c1.18-7.5,3.3-16.05,2.56-23.65a2.5,2.5,0,0,0-4.88-.66c-2.38,7.18-2.42,15.66-3.43,23.14-.49,3.61-.84,7.2-1.17,10.83a56.15,56.15,0,0,0,.29,12.3,0,0,0,0,0,.09,0Z" transform="translate(0 20.3)" style="fill:#d67c20"/><path d="M424.47,950.4c1.56-8.75,2-17.6,2.6-26.45.29-4.32.73-8.61,1.2-12.91.45-4.15,1.8-8.65.5-12.73a.38.38,0,0,0-.63-.16c-5.42,4.66-5.22,15.48-5.64,22.09-.63,9.68-.71,19.39-2.27,29-.45,2.76,3.74,4,4.24,1.17Z" transform="translate(0 20.3)" style="fill:#d67c20"/><path d="M450.78,950.94c1.83-2.93,1.84-6.36,2.14-9.73.45-4.85.88-9.69,1.06-14.56.32-8.42,1.66-18.19-.77-26.39a.61.61,0,0,0-1.17,0c-2.81,8.1-2.05,17.93-2.37,26.39-.17,4.53-.16,9.05-.16,13.59,0,3.64-.44,7.37,1.19,10.7,0,0,.07,0,.08,0Z" transform="translate(0 20.3)" style="fill:#d67c20"/><path d="M478.13,952.2c.72-8.83,1-17.7,1.25-26.55.24-8,1.15-17.09-.53-24.93a1.32,1.32,0,0,0-2.53,0c-2.16,7.7-1.82,17-2.08,24.93-.28,8.84-.58,17.71-.42,26.55.05,2.81,4.09,2.74,4.31,0Z" transform="translate(0 20.3)" style="fill:#d67c20"/><path d="M503.27,949.21c.49-9.16-1.08-18.19-2.1-27.25-.47-4.2-.91-8.43-1.12-12.65s.27-8.5-.35-12.68c-.08-.49-.81-.52-1-.13-4,7-2.76,16.9-1.85,24.55,1.11,9.39,2.55,18.68,2.79,28.16a1.83,1.83,0,0,0,3.66,0Z" transform="translate(0 20.3)" style="fill:#d67c20"/><path d="M533.23,946.18a186.93,186.93,0,0,0-4.08-23.72c-.9-4-1.83-7.94-3.07-11.86-1.4-4.41-3.66-9-3.56-13.73a.75.75,0,0,0-1.47-.2c-1.84,8,.94,15.54,3.08,23.27,2.43,8.76,3.87,17.79,5.51,26.72.36,2,3.78,1.57,3.59-.48Z" transform="translate(0 20.3)" style="fill:#d67c20"/><path d="M559.73,942a177.09,177.09,0,0,0-4.81-25.23c-1.16-4.16-2.58-8.22-3.9-12.32-1.22-3.79-1.47-8.4-3.66-11.71a1.52,1.52,0,0,0-2.74.36c-2.64,6.6,2.49,17.08,4.6,23.33,2.88,8.53,4.47,17.42,7.11,26,.54,1.77,3.66,1.56,3.4-.46Z" transform="translate(0 20.3)" style="fill:#d67c20"/><path d="M571.73,894.16c2.37,8,4.75,16,7.25,24,1.15,3.69,2.34,7.36,3.48,11.06s1.79,7.92,3.73,11.37a1.42,1.42,0,0,0,2.62-.71c-.09-4-1.75-7.85-2.86-11.63-1.17-4-2.42-8-3.79-12a199.24,199.24,0,0,0-9.49-22.49c-.26-.53-1.11-.16-.94.4Z" transform="translate(0 20.3)" style="fill:#d67c20"/><path d="M591.06,887.76c2.8,7.82,6.67,15,10.58,22.31,2,3.71,4.11,7.34,6.2,11,2.2,3.83,4,8.23,6.64,11.74,1.44,1.92,4.84.91,4.12-1.73-1.07-3.89-3.44-7.38-5.31-11-2.1-4-4.17-8-6.37-12-4.14-7.5-8.32-14.89-13.59-21.67-.83-1.08-2.71.09-2.27,1.32Z" transform="translate(0 20.3)" style="fill:#d67c20"/><path d="M281.37,931.78a104.84,104.84,0,0,0,13.69-21.3c3.8-7.54,7.66-15.88,9-24.24.36-2.19-2.63-3.9-3.85-1.62-3.9,7.27-6.51,15.37-9.64,23-3.28,8-6.89,15.74-9.91,23.76-.15.39.44.72.71.41Z" transform="translate(0 20.3)" style="fill:#d67c20"/><path d="M509.43,861.66S470.59,954.26,403,960.2L436.87,971l80.29-3.87L640,942l-41.6-83.19Z" transform="translate(0 20.3)" style="fill:#d66b09;opacity:0.6000000000000001"/></g><ellipse cx="445.1" cy="892.73" rx="150.42" ry="13.67" style="fill:#ce5f05"/><path d="M426.23,653.68s14,79,62.89,107.92S508,734.45,508,734.45L481.86,627.08l12.57-53.21-60,32.89Z" transform="translate(0 20.3)" style="fill:#859300"/><g style="clip-path:url(#clip-path-18)"><path d="M483.53,726.18s-20.54,9.72-47.62-29l12.57,38.69,30,27.09,11.82,12.21,11.06-12.11-17.82-36.91" transform="translate(0 20.3)" style="fill:#717700;opacity:0.61"/><path d="M483.31,619.82s-33.86,10.64-60.95,38.7l3.58-26.17,25.34-31.1,35.9-26.89,12.07-3.68-15.94,49.14" transform="translate(0 20.3)" style="fill:#717700;opacity:0.61"/></g><path d="M526.35,563.23s-15.47,29-8.7,55.14,67.71,90,18,128.3c-34.81,26.84-19-13.18-19-13.18L483.53,620l9.93-50,20.32-9.67Z" transform="translate(0 20.3)" style="fill:#859300"/><g style="clip-path:url(#clip-path-19)"><path d="M519.27,623.1s15.31,60.57,19.18,77-20.2,32.45-32.35,18.16L534,755.93l20.85-9.38,12.58-24.19-1-25.15-28-60.94L519.27,623.1" transform="translate(0 20.3)" style="fill:#717700;opacity:0.61"/><path d="M476.53,622.72S522,611.11,548.12,614l-19.35-58-38.69-3.87-13.55,43.53Z" transform="translate(0 20.3)" style="fill:#717700;opacity:0.61"/></g><path d="M445.1,886.1c33,0,63.52-1,88.33-2.61,13.29-14.46,22.08-31.55,22.91-50.37,3.87-87.06-92.92-178.07-60-250.54,4.83-10.64-13.55,4.83-19.35,30.95s-3.57,91.64,19.35,178c6.28,23.7-32.41,57.56-38.22,63.36l-.48-.48s-78.57-35.7-82.16,30.14C396.32,885.54,420,886.1,445.1,886.1Z" transform="translate(0 20.3)" style="fill:#bfb100"/><g style="clip-path:url(#clip-path-20)"><path d="M497.82,615s-11.61-15.47-14.51,4.84,14.51,123.82,23.21,162.52-26.26,79.57-47,90.09-52.84,19.29-52.84,19.29l73.05,1,63.54-6.91,22.25-30,2.9-57.08-18.38-53.2-38.69-87.06Z" transform="translate(0 20.3)" style="fill:#efc13f"/><g style="clip-path:url(#clip-path-21)"><path d="M497.2,677.16a20.87,20.87,0,0,0,5.65-1.34c.85-.28,1.67-.59,2.55-.8.51-.12,2.68-.77,3.1-.47l-1.19-2.07-.05.44.71-1.72c-1,.88-4.55.42-5.75.46a21.71,21.71,0,0,0-5.86.68,3.25,3.25,0,0,0,.86,6.36c3.32.19,7.39-.89,10.55-1.91,2.11-.68,5.36-2.47,4.12-5.23-1.12-2.49-4.82-1.83-6.94-1.48-3.21.54-6.67,1.78-8.94,4.2a1.71,1.71,0,0,0,1.19,2.88Z" transform="translate(0 20.3)" style="fill:#ffd364"/><path d="M501,702.45a54.79,54.79,0,0,1,7.95-2.31c1.13-.23,2.28-.41,3.42-.59,1.57-.25,4.09.23,4.12-1.55s-1.31-.74-2.65-.61-2.88.23-4.32.39c-2.75.29-5.9,1.08-8.65.53l1.67,6.34c1.7-1.9,5.5-1.77,7.88-2.19,2.89-.52,6.43-1.73,9.38-1.54l-2.8-1.6.34.47c2.41,3.31,8,.2,5.59-3.26-2.53-3.65-7.44-1.63-11.12-1.06-4.52.7-9.87.76-13.86,3.22-3.46,2.13-1.66,6.63,1.91,7.07,4.84.59,10.75-1,15.38-2.31,3-.85,7.52-2.75,6.51-6.77-.91-3.58-5.36-3.07-8-2.71a46.27,46.27,0,0,0-14.33,4.63c-2.13,1-.63,4.69,1.62,3.85Z" transform="translate(0 20.3)" style="fill:#ffd364"/><path d="M507.22,729.71c2.92,1.23,6.25-1,9.08-1.83a33.5,33.5,0,0,1,7-1.29c.42,0,2.93.16,3.13-.09l-.49-4.18c-.81.08-1.62.15-2.42.19-5.75.37-17.81-.66-20.23,6-.86,2.36,1.43,5.59,4,5.28,8-.93,14.63-6.64,22.83-5.34,4.51.72,6.54-6.06,1.92-7a22.86,22.86,0,0,0-10.16.63c-3.78,1-9.51,4.5-13.48,3.48l2.49,6.13c-.8,1.36,2.58,0,3.16-.14,1.6-.35,3.21-.6,4.81-.87,2.84-.47,6.08-.76,8.72-2,2.83-1.3,4.71-5,1.83-7.42s-9.91.12-12.95,1.19c-3.26,1.16-9.17,3-9.26,7.14,0,0,0,0,0,.05Z" transform="translate(0 20.3)" style="fill:#ffd364"/><path d="M515.41,764.66c2.74-1.22,5.59-2.19,8.41-3.23s14.77-6,16.84-2.77v-3.27l-.44.7,2.8-1.61c-2.71.24-5.66-.68-8.38-.79a48.62,48.62,0,0,0-8.43.55c-4.9.66-10,1.41-13.84,4.74a4.47,4.47,0,0,0-1.18,4.46l.24.71a3.68,3.68,0,0,0,3.39,2.58c2.56.24,4.3-1.58,6.59-2.42a49,49,0,0,1,10.15-2.23c4.32-.6,12,.69,14.69-3.42a3.17,3.17,0,0,0,0-3.27c-6.54-10.3-26.09.2-33.35,5-2.72,1.79-.38,5.57,2.51,4.29Z" transform="translate(0 20.3)" style="fill:#ffd364"/><path d="M519,802.4c8.69,2.47,17.23,4.38,26.29,3.05,5.64-.83,16.61-3,16.58-10.36a4,4,0,0,0-5.93-3.4,42.24,42.24,0,0,1-18.63,5.39c-5.83.38-11.74-1.19-17.44-.38-3.5.49-3.72,5.74-1,7.28,5.78,3.2,14.08,2.29,20.38,1.3,7.21-1.13,14-3.79,20.62-6.78L554,795.09c0-1.38-1.4.07-2.67.54a28.34,28.34,0,0,1-4,1.15,44.67,44.67,0,0,1-9,.72c-6.15,0-12.32-.54-18.45-1.08-3.49-.31-4,5.07-.81,6Z" transform="translate(0 20.3)" style="fill:#ffd364"/><path d="M509.61,834.82c5.72,4.94,11.68,9.57,18.94,12a37.81,37.81,0,0,0,11.35,2,29.75,29.75,0,0,0,4.71-.32,21,21,0,0,0,3.33-.63c1.36-.21,1.6-.32.72-.34L546.39,842c.49-1.17-.92-.53-2-.48a44.08,44.08,0,0,1-4.45-.12,30.1,30.1,0,0,1-9.62-1.87c-5.53-2.2-10.38-6.3-15.05-9.89-4.48-3.45-10.42,4.21-6.08,7.88a42.7,42.7,0,0,0,25.65,10.17c8,.47,21.91,1.4,28-4.88,2.06-2.14.74-6.76-2.66-6.4-3.81.39-7.27,1.81-11.16,2.06s-7.64.25-11.43.13c-8.11-.26-15.26-2.66-21.3-8.18l-7.1,7.1c7.12,6,14.7,11.73,24.1,13.28,6.52,1.06,18.82,2.72,22.11-5,1-2.43.78-5.3-1.77-6.75s-4.86-1.43-7.75-.86a26.42,26.42,0,0,1-11.47.19c-7.38-1.62-14.28-5.31-21.13-8.38-2.89-1.29-6.53,2.34-3.69,4.79Z" transform="translate(0 20.3)" style="fill:#ffd364"/><path d="M488,864.88c5.78,5.74,11.13,10.66,19.15,13,7.47,2.16,16,2.39,23.67,1.86v-9.1A42.13,42.13,0,0,1,509,867.47a44.14,44.14,0,0,1-9.39-5.49c-2.75-2.11-5.1-4.48-8.49-5.49-2.29-.68-3.95,1.49-3.58,3.58,1.37,7.67,11.52,12.83,18,15.61a54.45,54.45,0,0,0,25.29,4,4.55,4.55,0,0,0,0-9.1c-6.81-.53-13.56-.39-20.27-1.87a58.68,58.68,0,0,1-19.09-8.36c-2.75-1.77-5.75,2.22-3.46,4.49Z" transform="translate(0 20.3)" style="fill:#ffd364"/></g><path d="M525.87,715.59S550.05,820.07,521,853,371.09,880,371.09,880l-1.93,10.64,148,2.9,29-7.73,22.25-45.47-13.54-74.49Z" transform="translate(0 20.3)" style="fill:#d89e0b;opacity:0.59"/><path d="M505.56,572.42l-9.68,40.63a68.59,68.59,0,0,0-27.08,38.69l2.9-60.94L493,569.52Z" transform="translate(0 20.3)" style="fill:#7c8900;opacity:0.53"/><path d="M416.27,876.41c11-2.68,20.71-7.74,30.59-13.19,7.53-4.16,19.44-10.87,21.8-19.9a1.31,1.31,0,0,0-2.17-1.26c-3.85,3-6.94,6.81-10.93,9.74-4.33,3.17-9,6-13.48,8.91-8.37,5.44-16.83,11.22-26,15.25-.26.11-.07.51.19.45Z" transform="translate(0 20.3)" style="fill:#8ba300"/><path d="M546.18,871.34S413.66,887.78,363.35,881l10.91,9.77,169-4.93Z" transform="translate(0 20.3)" style="fill:#685c02;opacity:0.6000000000000001"/></g><path d="M426.23,653.68S478,575.81,520.55,571s.46-50.26-41.11-41.11C431.07,540.5,424.3,637.23,426.23,653.68Z" transform="translate(0 20.3)" style="fill:#bfb100"/><g style="clip-path:url(#clip-path-22)"><path d="M471.7,522.12s36.76,10.64,45.46,26.12S471.7,572,455.25,619.15h0l28.28.84,48.14-34,25.16-30-15.48-26.12-27.09-14.51-31.92-3.87Z" transform="translate(0 20.3)" style="fill:#7c8900;opacity:0.24"/></g><circle cx="487.66" cy="567.09" r="4.35" style="fill:#1a1a1a"/></g></g></svg>