<svg width="255" height="255" viewBox="0 0 255 255" fill="none" xmlns="http://www.w3.org/2000/svg">
<path d="M208.425 133.956C208.425 157.746 205.817 178.197 200.6 195.309C195.591 212.421 187.139 225.568 175.244 234.75C163.558 243.932 147.698 248.523 127.665 248.523C99.7009 248.523 79.2499 238.402 66.3115 218.16C53.3731 197.917 46.9039 169.849 46.9039 133.956C46.9039 109.749 49.4081 89.0889 54.4165 71.9768C59.6336 54.8647 68.1897 41.7177 80.0846 32.5356C91.9796 23.3535 107.84 18.7625 127.665 18.7625C155.628 18.7625 176.079 28.8836 189.018 49.1259C201.956 69.3682 208.425 97.6449 208.425 133.956ZM107.005 133.956C107.005 155.868 108.361 172.458 111.074 183.727C113.787 194.787 119.317 200.317 127.665 200.317C136.012 200.317 141.542 194.787 144.255 183.727C146.968 172.667 148.324 156.076 148.324 133.956C148.324 111.835 146.968 95.1407 144.255 83.8718C141.542 72.6028 136.012 66.9684 127.665 66.9684C119.317 66.9684 113.787 72.6028 111.074 83.8718C108.361 95.1407 107.005 111.835 107.005 133.956Z" fill="#EBA742"/>
<mask id="mask0" mask-type="alpha" maskUnits="userSpaceOnUse" x="46" y="18" width="163" height="231">
<path d="M208.426 133.956C208.426 157.746 205.817 178.197 200.6 195.309C195.592 212.421 187.14 225.568 175.245 234.75C163.559 243.932 147.699 248.523 127.665 248.523C99.7016 248.523 79.2506 238.402 66.3122 218.16C53.3739 197.917 46.9047 169.849 46.9047 133.956C46.9047 109.749 49.4089 89.0889 54.4173 71.9768C59.6344 54.8647 68.1904 41.7177 80.0854 32.5356C91.9803 23.3535 107.84 18.7625 127.665 18.7625C155.629 18.7625 176.08 28.8836 189.018 49.1259C201.957 69.3682 208.426 97.6449 208.426 133.956ZM107.006 133.956C107.006 155.868 108.362 172.458 111.075 183.727C113.788 194.787 119.318 200.317 127.665 200.317C136.013 200.317 141.543 194.787 144.256 183.727C146.968 172.667 148.325 156.076 148.325 133.956C148.325 111.835 146.968 95.1407 144.256 83.8718C141.543 72.6028 136.013 66.9684 127.665 66.9684C119.318 66.9684 113.788 72.6028 111.075 83.8718C108.362 95.1407 107.006 111.835 107.006 133.956Z" fill="#EBA742"/>
</mask>
<g mask="url(#mask0)">
<path d="M181.945 190.21C201.423 142.734 196.148 72.0259 191.075 42.6067L229.117 77.6055L233.682 196.297C226.581 222.166 198.988 272.99 145.425 269.338C91.8614 265.686 55.1381 242.455 43.4718 231.296C89.1224 246.513 157.598 249.556 181.945 190.21Z" fill="#E09627"/>
</g>
<path d="M95.7184 203.963C107.953 213.043 141.18 214.406 160.839 203.961C156.683 216.433 142.409 235.294 126.436 235.294C112.596 235.294 95.0541 210.355 95.7184 203.963Z" fill="#A86500"/>
<path d="M113.535 229.15C123.979 220.551 137.067 224.881 143.024 228.537C140.949 231.333 130.367 235.896 125.745 235.526C121.123 235.156 115.142 231.108 113.535 229.15Z" fill="#D48207"/>
<path fill-rule="evenodd" clip-rule="evenodd" d="M48.2121 70.123L48.2227 70.0883C53.7552 51.9418 62.9793 37.5592 76.1283 27.4091C89.4723 17.1085 106.866 12.2863 127.666 12.2863C157.415 12.2863 180.136 23.2031 194.476 45.6382C208.338 67.3266 214.903 96.9979 214.903 133.956C214.903 158.173 212.252 179.283 206.806 197.164C201.488 215.311 192.373 229.703 179.224 239.861C166.058 250.195 148.636 255 127.666 255C97.916 255 75.1956 244.083 60.8556 221.648C46.9992 199.969 40.4286 170.514 40.4286 133.956C40.4286 109.337 42.9714 88.029 48.202 70.1578L48.2121 70.123ZM175.245 234.75C187.14 225.568 195.592 212.421 200.601 195.309C205.818 178.197 208.426 157.746 208.426 133.956C208.426 97.6451 201.957 69.3685 189.019 49.1261C176.08 28.8838 155.629 18.7626 127.666 18.7626C107.841 18.7626 91.9807 23.3537 80.0857 32.5358C68.1907 41.7179 59.6347 54.8649 54.4176 71.977C49.4092 89.0891 46.905 109.749 46.905 133.956C46.905 169.85 53.3742 197.918 66.3126 218.16C79.251 238.402 99.702 248.523 127.666 248.523C147.699 248.523 163.559 243.932 175.245 234.75ZM117.368 182.197C114.84 171.686 113.482 155.714 113.482 133.956C113.482 111.974 114.842 95.896 117.372 85.3878C118.574 80.3935 120.233 77.4081 121.88 75.7309C123.351 74.2316 125.12 73.445 127.666 73.445C130.212 73.445 131.98 74.2316 133.452 75.7309C135.098 77.4081 136.757 80.3935 137.959 85.3878C140.489 95.896 141.849 111.974 141.849 133.956C141.849 155.947 140.488 171.903 137.966 182.184C136.771 187.058 135.124 189.96 133.494 191.59C132.031 193.053 130.25 193.841 127.666 193.841C125.081 193.841 123.3 193.053 121.837 191.59C120.208 189.962 118.564 187.063 117.368 182.197ZM111.075 183.727C108.362 172.458 107.006 155.868 107.006 133.956C107.006 111.836 108.362 95.1409 111.075 83.872C113.788 72.603 119.318 66.9686 127.666 66.9686C136.013 66.9686 141.543 72.603 144.256 83.872C146.969 95.1409 148.325 111.836 148.325 133.956C148.325 156.077 146.969 172.667 144.256 183.727C141.543 194.787 136.013 200.317 127.666 200.317C119.318 200.317 113.788 194.787 111.075 183.727Z" fill="#D58207"/>
<path d="M22.6928 109.562C23.9102 102.258 38.4169 88.2581 45.5181 82.1714L44.3595 98.392C44.7604 98.048 45.1474 97.7126 45.5181 97.3882C45.1383 97.9037 44.7355 98.4572 44.3128 99.0454L42.4747 124.779V161.299C37.4024 173.98 26.0405 197.211 21.1711 188.689C16.3017 180.168 32.3298 145.575 40.9524 129.344C32.3296 140.503 15.9968 159.169 19.6488 144.56C23.1056 130.734 36.8325 109.454 44.3128 99.0454L44.3595 98.392C35.9832 105.579 21.5311 116.532 22.6928 109.562Z" fill="#D48207"/>
<path d="M230.639 109.562C229.422 102.258 214.915 88.2581 207.814 82.1714L208.972 98.392C208.571 98.048 208.184 97.7126 207.814 97.3882C208.194 97.9037 208.596 98.4572 209.019 99.0454L210.857 124.779V161.299C215.929 173.98 227.291 197.211 232.161 188.689C237.03 180.168 221.002 145.575 212.379 129.344C221.002 140.503 237.335 159.169 233.683 144.56C230.226 130.734 216.499 109.454 209.019 99.0454L208.972 98.392C217.349 105.579 231.801 116.532 230.639 109.562Z" fill="#D48207"/>
<ellipse cx="152.238" cy="47.9176" rx="22.1164" ry="23.3451" fill="white"/>
<ellipse cx="146.095" cy="45.4624" rx="8.60085" ry="8.60083" fill="#161E33"/>
<ellipse rx="22.1164" ry="23.3451" transform="matrix(-1 0 0 1 103.093 47.9176)" fill="white"/>
<ellipse rx="8.60082" ry="8.60083" transform="matrix(-1 0 0 1 109.236 45.4624)" fill="#161E33"/>
<path d="M108.622 9.86306C88.7635 1.7727 78.4443 8.31176 73.9066 15.8917C72.7797 17.774 75.166 19.1441 76.9238 17.8313C90.1256 7.97116 108.113 9.65846 108.622 9.86306Z" fill="#161E33"/>
<path d="M140.556 9.7555C158.837 -1.45243 170.081 3.32397 175.79 10.0663C177.207 11.7407 175.075 13.4801 173.127 12.4702C158.5 4.88494 141.025 9.47097 140.556 9.7555Z" fill="#161E33"/>
</svg>
