<svg width="255" height="255" viewBox="0 0 255 255" fill="none" xmlns="http://www.w3.org/2000/svg">
<path d="M147.589 27.4588L153.374 41.4115L148.399 44.4933L142.309 29.6802C139.551 31.5186 135.313 32.5949 132.339 29.8907C125.103 23.3112 139.661 9.88716 150.152 15.0796C158.545 19.2335 153.195 25.6746 147.589 27.4588Z" fill="#FFAB48"/>
<path d="M184.13 249.148H128.685V149.29C128.685 147.404 128.685 144.009 128.685 139.106C128.685 134.202 128.779 128.733 128.967 122.698C129.156 116.664 129.345 111.289 129.533 106.574C127.082 109.403 124.819 111.855 122.744 113.929C120.858 116.003 118.878 117.889 116.803 119.587L93.8898 138.54L65.6013 103.745L134.908 47.1682H184.13V249.148Z" fill="#FF9820"/>
<mask id="mask0" mask-type="alpha" maskUnits="userSpaceOnUse" x="65" y="47" width="120" height="203">
<path d="M184.13 249.147H128.685V149.288C128.685 147.402 128.685 144.008 128.685 139.104C128.685 134.201 128.779 128.732 128.967 122.697C129.156 116.662 129.345 111.287 129.533 106.573C127.082 109.402 124.818 111.853 122.744 113.928C120.858 116.002 118.878 117.888 116.803 119.585L93.8898 138.539L65.6013 103.744L134.908 47.1669H184.13V249.147Z" fill="#FF9820"/>
</mask>
<g mask="url(#mask0)">
<path d="M163.763 210.248C184.421 191.656 185.453 136.913 184.421 106.959L192.684 243.3L185.453 251.564H119.349V219.544C126.235 220.921 143.105 228.84 163.763 210.248Z" fill="#ED8913"/>
</g>
<path d="M137.548 124.961C152.695 128.485 168.822 115.069 174.993 107.921C176.174 121.287 175.033 147.59 161.01 145.872C146.988 144.155 139.526 131.215 137.548 124.961Z" fill="#A65A00"/>
<path d="M153.213 143.411C152.669 132.468 166.661 131.733 173.725 132.733C172.92 136.194 170.19 143.499 165.712 145.032C161.235 146.566 155.514 144.591 153.213 143.411Z" fill="#E17A00"/>
<ellipse cx="134.104" cy="73.8407" rx="15.0122" ry="15.8462" fill="white"/>
<ellipse cx="136.606" cy="73.8404" rx="6.67208" ry="6.67208" fill="#161E33"/>
<path fill-rule="evenodd" clip-rule="evenodd" d="M189.983 255H122.832V139.105C122.832 134.129 122.927 128.597 123.118 122.515C123.125 122.286 123.132 122.058 123.139 121.832C122.284 122.619 121.412 123.377 120.522 124.106C120.518 124.109 120.514 124.112 120.51 124.116L93.072 146.811L57.3752 102.904L132.822 41.3147H189.983V255ZM116.803 119.586C118.878 117.889 120.858 116.003 122.744 113.928C122.969 113.703 123.196 113.474 123.426 113.24C125.312 111.317 127.347 109.095 129.533 106.573C129.421 109.376 129.309 112.413 129.197 115.683C129.12 117.913 129.044 120.251 128.967 122.698C128.779 128.733 128.685 134.202 128.685 139.105V249.147H184.13V47.1675H134.908L65.6013 103.744L93.8898 138.539L116.803 119.586Z" fill="#E17A00"/>
<path d="M171.1 24.5255L160.567 47.532C160.567 47.532 160.663 50.6131 162.729 51.6459C164.795 52.6788 167.894 51.6457 167.894 51.6457L177.813 27.5427C181.298 29.9897 186.708 31.5036 190.612 28.1226C200.111 19.8964 181.828 2.20235 168.193 8.5459C157.284 13.6207 163.955 22.0599 171.1 24.5255Z" fill="#FF9820"/>
</svg>
