<svg width="255" height="255" viewBox="0 0 255 255" fill="none" xmlns="http://www.w3.org/2000/svg">
<path fill-rule="evenodd" clip-rule="evenodd" d="M215.614 255H43.2112V206.862L98.633 150.803C109.685 139.136 118.24 129.866 124.323 122.972L124.357 122.933L124.392 122.895C130.605 116.081 134.572 110.627 136.654 106.464C138.691 102.389 139.679 98.2253 139.679 93.9053C139.679 88.818 138.111 86.4099 136.046 85.0336L135.986 84.9934L135.927 84.9518C133.041 82.932 129.433 81.7897 124.79 81.7897C119.043 81.7897 113.118 83.3844 106.942 86.8353C100.468 90.4533 92.8168 96.0132 83.9597 103.663L79.1093 107.852L38.2501 60.054L42.8402 55.8942C49.5945 49.773 56.7642 43.9748 64.3466 38.4986L64.3801 38.4744L64.4139 38.4507C72.5859 32.7082 81.9871 28.1345 92.5513 24.6797C103.477 20.8984 116.54 19.1073 131.57 19.1073C147.298 19.1073 161.232 21.9052 173.169 27.7509C184.958 33.3204 194.31 41.1202 200.973 51.2121C207.879 61.358 211.299 72.8829 211.299 85.5837C211.299 99.1127 208.788 111.454 203.619 122.478C198.745 133.102 191.32 143.621 181.528 154.051C172.133 164.073 160.396 175.494 146.345 188.305L146.335 188.314L140.882 193.243H215.614V255ZM126.022 199.619V198.078L142.049 183.593C156.021 170.854 167.63 159.553 176.876 149.69C186.328 139.622 193.314 129.657 197.834 119.794C202.56 109.726 204.923 98.3229 204.923 85.5837C204.923 74.0775 201.841 63.804 195.677 54.7633C189.718 45.7227 181.294 38.634 170.404 33.4973C159.514 28.155 146.569 25.4839 131.57 25.4839C116.982 25.4839 104.654 27.2304 94.5857 30.7234C84.5176 34.0109 75.6825 38.3258 68.0801 43.668C60.6832 49.0102 53.6972 54.6606 47.1222 60.6192L79.7919 98.8365C80.4615 98.2582 81.1255 97.6906 81.7839 97.1337C90.014 90.1719 97.3633 84.8836 103.832 81.2689C110.818 77.365 117.804 75.413 124.79 75.413C130.543 75.413 135.474 76.8513 139.583 79.7279C143.898 82.6044 146.056 87.3302 146.056 93.9053C146.056 99.2475 144.823 104.384 142.357 109.315C139.892 114.247 135.474 120.205 129.105 127.191C122.94 134.177 114.311 143.526 103.215 155.238L49.5878 209.482V248.624H209.238V199.619H126.022Z" fill="#643EFF"/>
<path d="M209.239 248.626H49.5888V209.484L103.216 155.24C114.312 143.529 122.941 134.18 129.105 127.194C135.475 120.208 139.893 114.249 142.358 109.318C144.824 104.387 146.057 99.25 146.057 93.9078C146.057 87.3327 143.899 82.607 139.584 79.7304C135.475 76.8538 130.544 75.4155 124.791 75.4155C117.805 75.4155 110.819 77.3675 103.833 81.2714C96.8468 85.1753 88.8335 91.0312 79.7928 98.839L47.1232 60.6217C53.6982 54.6631 60.6842 49.0127 68.0811 43.6705C75.6834 38.3283 84.5186 34.0134 94.5866 30.7259C104.655 27.2329 116.983 25.4865 131.571 25.4865C146.57 25.4865 159.515 28.1576 170.405 33.4998C181.295 38.6365 189.719 45.7252 195.678 54.7659C201.842 63.8065 204.924 74.08 204.924 85.5863C204.924 98.3254 202.561 109.729 197.835 119.797C193.315 129.659 186.329 139.625 176.877 149.693C167.631 159.555 156.022 170.856 142.05 183.595L126.023 198.081V199.622H209.239V248.626Z" fill="#8465FF"/>
<mask id="mask0" mask-type="alpha" maskUnits="userSpaceOnUse" x="47" y="24" width="163" height="224">
<path d="M209.381 247.933H49.7311V208.791L103.359 154.547C114.454 142.835 123.084 133.486 129.248 126.5C135.617 119.514 140.035 113.556 142.501 108.624C144.966 103.693 146.199 98.5563 146.199 93.2141C146.199 86.639 144.042 81.9132 139.727 79.0367C135.617 76.1601 130.686 74.7218 124.933 74.7218C117.947 74.7218 110.961 76.6738 103.975 80.5777C96.989 84.4816 88.9757 90.3375 79.9351 98.1453L47.2654 59.928C53.8405 53.9694 60.8264 48.319 68.2233 42.9768C75.8257 37.6346 84.6609 33.3197 94.7289 30.0322C104.797 26.5392 117.125 24.7927 131.713 24.7927C146.713 24.7927 159.657 27.4638 170.547 32.806C181.437 37.9428 189.861 45.0315 195.82 54.0721C201.984 63.1128 205.066 73.3863 205.066 84.8925C205.066 97.6317 202.703 109.035 197.977 119.103C193.457 128.966 186.471 138.931 177.019 148.999C167.773 158.862 156.164 170.162 142.192 182.902L126.166 197.387V198.928H209.381V247.933Z" fill="#8465FF"/>
</mask>
<g mask="url(#mask0)">
<path d="M128.404 197.21C84.2424 210.134 57.4079 237.558 54.0271 252.584L218.557 252.584V194.957C206.161 187.445 174.607 183.688 128.404 197.21Z" fill="#6E4CF4"/>
<path d="M193.765 91.2807C192.978 66.8853 179.491 39.8181 173.48 31.5541L199.399 37.1887L224.192 60.854L210.669 127.342L179.115 184.815L128.404 197.211C150.942 170.541 194.892 126.215 193.765 91.2807Z" fill="#6E4CF4"/>
</g>
<path d="M155.176 96.9067C166.459 96.9067 175.649 84.7742 178.834 78.708C181.867 87.959 185.385 106.734 175.194 107.826C165.003 108.918 157.602 101.001 155.176 96.9067Z" fill="#4223BC"/>
<path d="M169.28 107.371C167.096 99.7273 176.862 96.9065 182.019 96.4515C182.019 99.0297 181.291 104.641 178.379 106.461C175.467 108.281 171.099 107.826 169.28 107.371Z" fill="#684AE0"/>
<ellipse cx="76.0617" cy="47.1428" rx="20.9285" ry="22.0912" transform="rotate(-18.6443 76.0617 47.1428)" fill="white"/>
<circle cx="83.1447" cy="47.5793" r="9.30155" transform="rotate(-18.6443 83.1447 47.5793)" fill="#161E33"/>
<ellipse rx="20.9285" ry="22.0912" transform="matrix(-0.947522 0.319692 0.319692 0.947522 137.125 37.1358)" fill="white"/>
<ellipse rx="9.30155" ry="9.30155" transform="matrix(-0.947522 0.319692 0.319692 0.947522 135.588 40.4821)" fill="#161E33"/>
</svg>
