<svg width="255" height="255" viewBox="0 0 255 255" fill="none" xmlns="http://www.w3.org/2000/svg">
<path fill-rule="evenodd" clip-rule="evenodd" d="M211.839 104.899L211.819 104.932C206.844 113.073 200.282 119.851 192.2 125.238L192.183 125.25L192.165 125.262C189.919 126.738 187.601 128.109 185.213 129.375C194.744 132.391 202.866 136.809 209.411 142.77C220.627 152.583 225.892 166.401 225.892 183.255C225.892 196.301 222.276 208.391 215.105 219.386C207.969 230.646 196.99 239.308 182.693 245.593C168.353 251.987 150.168 255 128.469 255C114.13 255 101.658 253.963 91.1323 251.815L91.0719 251.803L91.0117 251.789C80.7176 249.478 70.7295 246.43 61.051 242.642L57.0309 241.069V177.51L66.2321 182.208C75.3755 186.877 84.679 190.364 94.1477 192.688C103.765 194.843 112.34 195.884 119.91 195.884C126.886 195.884 132.484 195.389 136.809 194.488C141.197 193.574 143.838 192.33 145.306 191.156L145.353 191.118L145.401 191.082C149.078 188.253 150.88 184.636 150.88 179.587C150.88 175.907 149.911 173.124 148.207 170.895L148.082 170.732L147.968 170.562C146.742 168.723 143.874 166.555 137.81 164.901L137.786 164.895L137.762 164.888C132.087 163.292 123.203 162.373 110.739 162.373H90.9634V105.397H111.045C127.646 105.397 137.584 103.191 142.424 100.015L142.461 99.9902L142.499 99.9664C147.793 96.5973 149.657 92.9293 149.657 88.7947C149.657 84.7605 148.306 82.7397 146.039 81.4006L145.949 81.3475L145.861 81.2914C142.71 79.2857 138.101 78.0004 131.526 78.0004C125.617 78.0004 120.045 78.8285 114.783 80.4584C109.356 82.2043 104.721 84.1079 100.834 86.1436L100.728 86.1995L100.619 86.2513C96.4219 88.2498 93.4315 89.8528 91.5129 91.0737L86.1145 94.509L55.0943 44.4889L60.0984 41.077C69.5487 34.6337 80.3145 29.2116 92.3504 24.7773L92.367 24.7712L92.3837 24.7651C105.151 20.1424 121.345 17.9677 140.697 17.9677C163.863 17.9677 182.918 22.5876 197.185 32.5442C211.914 42.6782 219.473 56.9434 219.473 74.7326C219.473 86.0523 217.023 96.1807 211.859 104.866L211.839 104.899ZM112.879 74.4269C118.789 72.5927 125.005 71.6756 131.526 71.6756C138.863 71.6756 144.773 73.1022 149.257 75.9554C153.74 78.6048 155.982 82.8845 155.982 88.7947C155.982 95.5201 152.62 101.023 145.894 105.302C139.373 109.582 127.756 111.722 111.045 111.722H97.2882V156.048H110.739C123.374 156.048 132.953 156.965 139.475 158.8C146.2 160.634 150.785 163.385 153.231 167.053C155.88 170.518 157.205 174.696 157.205 179.587C157.205 186.516 154.556 192.019 149.257 196.095C144.162 200.171 134.38 202.209 119.91 202.209C111.758 202.209 102.689 201.088 92.7027 198.846C84.9044 196.936 77.2303 194.281 69.6805 190.879C67.5625 189.925 65.4542 188.912 63.3557 187.841V236.753C72.7305 240.421 82.4109 243.376 92.397 245.618C102.383 247.656 114.407 248.675 128.469 248.675C149.664 248.675 166.885 245.72 180.132 239.81C193.583 233.899 203.467 225.951 209.785 215.965C216.307 205.979 219.567 195.076 219.567 183.255C219.567 167.767 214.778 155.844 205.2 147.489C197.973 140.89 188.324 136.23 176.253 133.507C172.744 132.715 169.03 132.088 165.112 131.623C165.024 131.613 164.936 131.603 164.847 131.592V130.675C164.884 130.665 164.921 130.655 164.958 130.645C168.675 129.602 172.245 128.358 175.668 126.912C180.276 124.966 184.617 122.654 188.692 119.976C196.029 115.085 201.939 108.971 206.422 101.634C210.906 94.0935 213.148 85.1263 213.148 74.7326C213.148 59.0401 206.626 46.7103 193.583 37.7432C180.744 28.776 163.115 24.2924 140.697 24.2924C121.744 24.2924 106.357 26.4323 94.5369 30.7121C82.9204 34.9919 72.6286 40.1887 63.6614 46.3027L88.1173 85.7377C88.1175 85.7376 88.1171 85.7379 88.1173 85.7377C88.3667 85.579 88.6293 85.4161 88.904 85.2499C91.0978 83.9216 94.0963 82.352 97.8996 80.5409C102.179 78.2991 107.172 76.2611 112.879 74.4269Z" fill="#E734A9"/>
<path d="M67.271 157.969C55.2311 162.046 54.7038 176.867 55.9452 183.768L60.4128 186.234C67.7155 175.114 79.3109 153.893 67.271 157.969Z" fill="#E634A9"/>
<path d="M35.0628 169.718C46.6786 164.556 57.1114 175.096 60.8758 181.012L59.2625 185.853C46.356 182.626 23.4469 174.881 35.0628 169.718Z" fill="#E634A9"/>
<path d="M34.8213 198.118C37.1586 185.624 51.757 183.011 58.764 183.266L61.836 187.341C51.8572 196.14 32.4839 210.613 34.8213 198.118Z" fill="#E634A9"/>
<path d="M213.148 74.7329C213.148 85.1266 210.906 94.0938 206.423 101.634C201.939 108.971 196.029 115.085 188.692 119.976C181.559 124.664 173.611 128.23 164.848 130.676V131.593C182.374 133.631 195.825 138.929 205.2 147.489C214.778 155.845 219.568 167.767 219.568 183.256C219.568 195.076 216.307 205.979 209.785 215.965C203.468 225.951 193.583 233.9 180.133 239.81C166.886 245.72 149.665 248.675 128.47 248.675C114.408 248.675 102.383 247.656 92.3973 245.618C82.4111 243.376 72.7307 240.421 63.356 236.753V187.841C72.9345 192.732 82.7168 196.401 92.703 198.846C102.689 201.088 111.758 202.209 119.91 202.209C134.38 202.209 144.162 200.171 149.257 196.095C154.556 192.019 157.205 186.516 157.205 179.587C157.205 174.696 155.881 170.518 153.231 167.054C150.786 163.385 146.2 160.634 139.475 158.8C132.953 156.966 123.375 156.049 110.739 156.049H97.2884V111.722H111.045C127.756 111.722 139.373 109.582 145.894 105.303C152.62 101.023 155.982 95.5204 155.982 88.795C155.982 82.8848 153.741 78.6051 149.257 75.9557C144.774 73.1025 138.863 71.6759 131.527 71.6759C125.005 71.6759 118.789 72.593 112.879 74.4272C107.173 76.2614 102.18 78.2994 97.8998 80.5412C93.6201 82.5791 90.3593 84.3114 88.1175 85.738L63.6617 46.303C72.6288 40.189 82.9206 34.9922 94.5372 30.7124C106.357 26.4326 121.744 24.2927 140.698 24.2927C163.115 24.2927 180.744 28.7763 193.583 37.7434C206.626 46.7106 213.148 59.0404 213.148 74.7329Z" fill="#FF6DCE"/>
<mask id="mask0" mask-type="alpha" maskUnits="userSpaceOnUse" x="63" y="25" width="157" height="225">
<path d="M213.149 75.5934C213.149 85.9871 210.907 94.9542 206.423 102.495C201.94 109.832 196.029 115.946 188.693 120.837C181.56 125.524 173.612 129.091 164.848 131.536V132.453C182.375 134.491 195.826 139.79 205.2 148.35C214.779 156.705 219.568 168.627 219.568 184.116C219.568 195.936 216.307 206.84 209.786 216.826C203.468 226.812 193.584 234.76 180.133 240.67C166.886 246.58 149.665 249.536 128.47 249.536C114.408 249.536 102.384 248.517 92.3978 246.479C82.4117 244.237 72.7312 241.282 63.3565 237.613V188.702C72.935 193.593 82.7174 197.261 92.7035 199.707C102.69 201.949 111.759 203.069 119.911 203.069C134.38 203.069 144.163 201.031 149.258 196.955C154.556 192.879 157.206 187.377 157.206 180.448C157.206 175.557 155.881 171.379 153.232 167.914C150.786 164.246 146.201 161.495 139.475 159.66C132.954 157.826 123.375 156.909 110.74 156.909H97.289V112.583H111.045C127.757 112.583 139.373 110.443 145.895 106.163C152.62 101.883 155.983 96.3808 155.983 89.6555C155.983 83.7453 153.741 79.4655 149.258 76.8162C144.774 73.963 138.864 72.5364 131.527 72.5364C125.006 72.5364 118.79 73.4535 112.88 75.2877C107.173 77.1219 102.18 79.1599 97.9004 81.4016C93.6206 83.4396 90.3598 85.1719 88.118 86.5985L63.6622 47.1635C72.6293 41.0495 82.9212 35.8526 94.5377 31.5729C106.358 27.2931 121.745 25.1532 140.698 25.1532C163.116 25.1532 180.745 29.6368 193.584 38.6039C206.627 47.5711 213.149 59.9009 213.149 75.5934Z" fill="#FF6DCE"/>
</mask>
<g mask="url(#mask0)">
<path d="M197.312 86.1037C201.956 69.8502 189.25 34.5054 182.8 27.0881L228.271 33.8604L235.043 89.0061L192.475 125.77L167.321 130.607C178.93 118.998 192.668 102.357 197.312 86.1037Z" fill="#F159BD"/>
<path d="M179.898 215.744C215.694 190.59 205.828 156.548 200.023 139.456C208.408 138.811 227.5 140.037 236.787 150.098C248.397 162.675 245.495 192.667 241.625 209.114C237.755 225.561 223.243 242.008 193.251 255.552C163.26 269.097 85.8623 259.422 63.6105 251.682C45.8091 245.491 51.0334 235.558 55.8708 231.366C81.0249 240.073 145.558 239.875 179.898 215.744Z" fill="#F159BD"/>
</g>
<path d="M119.252 128.344C133.44 131.645 148.546 119.079 154.325 112.383C155.432 124.903 154.363 149.54 141.229 147.931C128.094 146.322 121.105 134.203 119.252 128.344Z" fill="#B9007A"/>
<path d="M133.925 145.628C133.415 135.378 146.521 134.689 153.138 135.626C152.384 138.867 149.826 145.71 145.633 147.146C141.439 148.583 136.08 146.733 133.925 145.628Z" fill="#E634A9"/>
<ellipse cx="156.247" cy="31.5109" rx="21.6363" ry="25.4827" transform="rotate(20.83 156.247 31.5109)" fill="white"/>
<ellipse cx="158.578" cy="26.7386" rx="6.72546" ry="6.72546" transform="rotate(20.83 158.578 26.7386)" fill="#161E33"/>
<ellipse cx="112.754" cy="26.443" rx="15.4743" ry="18.2253" transform="rotate(20.83 112.754 26.443)" fill="white"/>
<ellipse rx="3.43874" ry="3.43873" transform="matrix(0.93464 0.355595 -0.355596 0.93464 114.42 23.0305)" fill="#161E33"/>
</svg>
