<svg width="255" height="255" viewBox="0 0 255 255" fill="none" xmlns="http://www.w3.org/2000/svg">
<path d="M50.79 155.863C50.79 143.745 51.684 131.627 53.4719 119.508C55.2598 107.39 58.4384 95.9675 63.0075 85.2399C67.5766 74.5124 74.033 65.0761 82.3767 56.9312C90.7203 48.5875 101.349 42.0318 114.261 37.264C127.373 32.4962 143.365 30.1123 162.237 30.1123C166.409 30.1123 171.475 30.4103 177.435 31.0063C183.593 31.4036 188.659 31.9002 192.632 32.4962V77.4923C188.659 76.6976 184.189 76.1017 179.223 75.7043C174.256 75.1084 168.197 74.8104 161.045 74.8104C146.742 74.8104 135.418 76.9956 127.075 81.3661C118.731 85.5379 112.672 91.6963 108.898 99.8413C105.322 107.788 103.236 117.423 102.64 128.746H104.428C108.202 121.793 113.268 115.933 119.625 111.165C126.181 106.397 135.12 104.013 146.444 104.013C165.118 104.013 179.719 110.072 190.248 122.19C200.777 134.11 206.041 151.095 206.041 173.146C206.041 196.985 199.287 215.56 185.778 228.87C172.468 242.18 154.192 248.835 130.949 248.835C115.851 248.835 102.242 245.557 90.1243 239.001C78.0062 232.247 68.3713 222.016 61.2196 208.309C54.2666 194.601 50.79 177.119 50.79 155.863ZM129.757 203.243C135.915 203.243 140.881 200.958 144.656 196.389C148.43 191.621 150.318 184.271 150.318 174.338C150.318 166.193 148.728 159.836 145.55 155.267C142.371 150.698 137.306 148.413 130.353 148.413C123.201 148.413 117.638 150.797 113.665 155.565C109.891 160.333 108.004 165.597 108.004 171.358C108.004 176.325 108.699 181.291 110.089 186.258C111.679 191.224 114.063 195.296 117.241 198.475C120.618 201.654 124.79 203.243 129.757 203.243Z" fill="#F15555"/>
<mask id="mask0" mask-type="alpha" maskUnits="userSpaceOnUse" x="50" y="30" width="157" height="219">
<path d="M50.7908 155.864C50.7908 143.745 51.6847 131.627 53.4727 119.509C55.2606 107.391 58.4391 95.9682 63.0082 85.2407C67.5774 74.5131 74.0338 65.0769 82.3774 56.9319C90.721 48.5882 101.349 42.0325 114.262 37.2647C127.373 32.4969 143.365 30.113 162.238 30.113C166.41 30.113 171.476 30.411 177.435 31.007C183.594 31.4043 188.659 31.901 192.633 32.4969V77.493C188.659 76.6984 184.19 76.1024 179.223 75.7051C174.257 75.1091 168.198 74.8111 161.046 74.8111C146.743 74.8111 135.419 76.9964 127.075 81.3668C118.732 85.5386 112.673 91.6971 108.898 99.842C105.322 107.788 103.237 117.423 102.641 128.747H104.428C108.203 121.794 113.269 115.933 119.626 111.166C126.182 106.398 135.121 104.014 146.445 104.014C165.118 104.014 179.72 110.073 190.249 122.191C200.778 134.111 206.042 151.096 206.042 173.147C206.042 196.986 199.288 215.56 185.779 228.87C172.469 242.181 154.192 248.836 130.949 248.836C115.851 248.836 102.243 245.558 90.1251 239.002C78.0069 232.248 68.372 222.017 61.2203 208.309C54.2673 194.602 50.7908 177.12 50.7908 155.864ZM129.757 203.244C135.916 203.244 140.882 200.959 144.657 196.39C148.431 191.622 150.318 184.272 150.318 174.339C150.318 166.194 148.729 159.837 145.551 155.268C142.372 150.699 137.306 148.414 130.353 148.414C123.202 148.414 117.639 150.798 113.666 155.566C109.892 160.333 108.004 165.598 108.004 171.359C108.004 176.325 108.7 181.292 110.09 186.258C111.679 191.225 114.063 195.297 117.242 198.476C120.619 201.654 124.791 203.244 129.757 203.244Z" fill="#F15555"/>
</mask>
<g mask="url(#mask0)">
<path d="M106.222 108.364C107.134 70.9496 168.959 57.0333 199.757 54.752L208.883 86.6909C204.7 88.9723 190.175 93.0787 165.537 91.2536C140.898 89.4286 115.727 101.9 106.222 108.364Z" fill="#E84141"/>
<path d="M187.21 165.768C189.035 128.354 169.72 99.9892 159.834 90.4835C168.959 89.3428 192.457 87.7459 213.446 90.4835C239.681 93.9055 235.118 126.985 237.4 170.331C239.681 213.677 208.883 267.288 141.583 265.007C87.7429 263.182 72.762 236.87 72.0016 223.943C157.552 243.334 184.929 212.536 187.21 165.768Z" fill="#E84141"/>
</g>
<path d="M68.4924 87.6729C73.6226 94.5206 91.2891 100.578 103.544 98.1058C99.3088 104.153 88.6038 112.018 80.0063 109.459C72.5568 107.241 67.1106 91.0073 68.4924 87.6729Z" fill="#B90000"/>
<path d="M74.0469 104.086C81.0462 101.13 87.397 105.558 90.0176 108.481C88.4529 109.653 82.0258 110.414 79.5973 109.474C77.1689 108.534 74.5982 105.397 74.0469 104.086Z" fill="#D63434"/>
<path fill-rule="evenodd" clip-rule="evenodd" d="M186.467 76.4712C184.182 76.1632 181.768 75.9074 179.223 75.7038C174.256 75.1079 168.197 74.8099 161.045 74.8099C146.742 74.8099 135.418 76.9951 127.075 81.3656C118.731 85.5374 112.672 91.6958 108.898 99.8408C106.451 105.278 104.701 111.507 103.65 118.526C103.452 119.849 103.278 121.201 103.129 122.58C102.946 124.279 102.801 126.02 102.693 127.804C102.674 128.116 102.656 128.43 102.64 128.746H104.428C105.925 125.987 107.625 123.401 109.529 120.987C112.424 117.315 115.79 114.041 119.625 111.164C126.181 106.397 135.12 104.013 146.444 104.013C165.118 104.013 179.719 110.072 190.248 122.19C200.777 134.109 206.041 151.095 206.041 173.146C206.041 196.985 199.287 215.559 185.778 228.869C172.468 242.179 154.192 248.834 130.949 248.834C115.851 248.834 102.243 245.557 90.1244 239.001C78.0063 232.246 68.3714 222.016 61.2197 208.308C54.2666 194.601 50.7901 177.119 50.7901 155.862C50.7901 143.744 51.6841 131.626 53.472 119.508C55.2599 107.39 58.4385 95.9669 63.0076 85.2394C67.5767 74.5119 74.0331 65.0756 82.3768 56.9306C90.7204 48.587 101.349 42.0313 114.261 37.2635C127.373 32.4957 143.365 30.1118 162.237 30.1118C166.409 30.1118 171.475 30.4098 177.435 31.0058C183.593 31.4031 188.659 31.8997 192.632 32.4957V77.4917C190.695 77.1043 188.64 76.7642 186.467 76.4712ZM177.94 24.8603C171.901 24.259 166.654 23.9465 162.237 23.9465C142.883 23.9465 126.133 26.3864 112.154 31.4694L112.14 31.4746L112.126 31.4799C98.529 36.5003 87.1093 43.4877 78.0437 52.5447C69.1304 61.2524 62.2187 71.3584 57.3354 82.8235C52.5495 94.0599 49.2338 105.995 47.3728 118.608C45.5414 131.021 44.6249 143.44 44.6249 155.862C44.6249 177.737 48.1948 196.259 55.7213 211.097L55.7373 211.129L55.7537 211.16C63.396 225.808 73.8355 236.98 87.1228 244.386L87.1567 244.405L87.1909 244.423C100.294 251.512 114.927 255 130.949 255C155.411 255 175.397 247.959 190.121 233.245C205.08 218.497 212.207 198.178 212.207 173.146C212.207 150.183 206.725 131.543 194.886 118.128C182.991 104.449 166.572 97.8474 146.444 97.8474C134.321 97.8474 123.953 100.393 115.999 106.178L115.962 106.205L115.926 106.232C114.528 107.281 113.184 108.378 111.897 109.524C112.645 106.976 113.517 104.604 114.506 102.402C117.669 95.5924 122.695 90.4482 129.832 86.8799L129.884 86.8539L129.936 86.827C137.056 83.0971 147.266 80.9751 161.045 80.9751C168.046 80.9751 173.844 81.2679 178.488 81.8252L178.609 81.8397L178.731 81.8494C183.509 82.2317 187.733 82.7993 191.423 83.5373L198.797 85.0122V27.1863L193.547 26.3986C189.361 25.7708 184.143 25.2624 177.94 24.8603ZM144.656 196.389C148.431 191.621 150.318 184.27 150.318 174.338C150.318 166.193 148.729 159.836 145.55 155.266C142.372 150.697 137.306 148.413 130.353 148.413C123.201 148.413 117.639 150.797 113.665 155.564C109.891 160.332 108.004 165.597 108.004 171.358C108.004 176.324 108.699 181.291 110.09 186.257C111.679 191.224 114.063 195.296 117.241 198.475C120.618 201.653 124.79 203.242 129.757 203.242C135.915 203.242 140.882 200.958 144.656 196.389ZM121.533 194.047C123.668 196.028 126.275 197.077 129.757 197.077C134.135 197.077 137.317 195.567 139.861 192.513C142.357 189.325 144.153 183.646 144.153 174.338C144.153 166.896 142.686 161.946 140.489 158.787C138.752 156.29 135.853 154.578 130.353 154.578C124.754 154.578 121.063 156.35 118.45 159.454C115.52 163.179 114.169 167.09 114.169 171.358C114.169 175.705 114.771 180.075 115.996 184.484C117.319 188.573 119.204 191.694 121.533 194.047Z" fill="#D63535"/>
<ellipse cx="148.437" cy="30.3449" rx="20.7235" ry="24.4077" transform="rotate(-21.7267 148.437 30.3449)" fill="white"/>
<ellipse cx="144.554" cy="27.1671" rx="4.60522" ry="4.60522" transform="rotate(-21.7267 144.554 27.1671)" fill="#161E33"/>
<ellipse cx="101.463" cy="46.925" rx="20.7235" ry="24.4077" transform="rotate(-21.7266 101.463 46.925)" fill="white"/>
<ellipse cx="104.028" cy="42.8258" rx="4.60522" ry="4.60522" transform="rotate(-21.7266 104.028 42.8258)" fill="#161E33"/>
</svg>
