<svg width="255" height="255" viewBox="0 0 255 255" fill="none" xmlns="http://www.w3.org/2000/svg">
<path fill-rule="evenodd" clip-rule="evenodd" d="M44.0615 254.999L115.24 94.047H28.6876V35.541H190.33V75.8785L115.399 254.999H44.0615ZM124.471 88.0361L53.2922 248.988H111.397L184.32 74.6719V41.5519H34.6985V88.0361H124.471Z" fill="#DEB41D"/>
<path d="M188.623 51.3092C192.57 41.1946 204.248 22.1624 219.379 26.9504C234.509 31.7383 205.179 45.1845 188.623 51.3092Z" fill="#DEB31D"/>
<path d="M188.621 52.1635C196.855 48.1832 214.971 43.1294 221.566 54.7567C228.16 66.384 202.351 57.8726 188.621 52.1635Z" fill="#DEB31D"/>
<path d="M188.501 54.1302C197.288 56.6632 214.15 64.9941 211.299 78.0535C208.447 91.1128 194.912 67.546 188.501 54.1302Z" fill="#DEB31D"/>
<path d="M53.2937 248.988L124.473 88.036H34.7V41.5518H184.321V74.6718L111.399 248.988H53.2937Z" fill="#F1CF55"/>
<path d="M92.0139 177.769C101.169 189.9 121.67 189.936 130.776 188.438C123.291 199.205 105.961 218.221 96.5178 208.151C87.0747 198.08 89.5806 183.7 92.0139 177.769Z" fill="#A37E00"/>
<path d="M92.2083 201.423C98.6537 192.874 109.611 201.085 114.284 206.259C111.512 208.351 104.889 212.122 100.57 210.468C96.2505 208.814 93.1957 203.749 92.2083 201.423Z" fill="#DEB31D"/>
<ellipse rx="27.5762" ry="32.4786" transform="matrix(-0.864248 0.503065 0.503065 0.864249 145.138 46.6495)" fill="white"/>
<path d="M117.646 40.8448C133.61 30.6786 157.414 35.0191 170.388 39.5205C172.026 40.089 173.795 39.0243 173.665 37.2948C172.765 25.4148 160.638 9.71398 141.508 11.1807C123.226 12.5824 114.376 28.6544 113.848 39.116C113.748 41.0872 115.981 41.905 117.646 40.8448Z" fill="#FBD963"/>
<ellipse rx="6.12805" ry="6.12804" transform="matrix(-0.864249 0.503065 0.503065 0.864248 139.714 43.4229)" fill="#161E33"/>
<ellipse cx="78.5981" cy="46.6495" rx="27.5762" ry="32.4786" transform="rotate(30.203 78.5981 46.6495)" fill="white"/>
<path d="M106.088 40.8448C90.1246 30.6786 66.3211 35.0191 53.3469 39.5205C51.7082 40.089 49.9392 39.0243 50.0701 37.2948C50.9693 25.4148 63.0962 9.71398 82.2263 11.1807C100.508 12.5824 109.359 28.6544 109.887 39.116C109.986 41.0872 107.753 41.905 106.088 40.8448Z" fill="#FBD963"/>
<ellipse cx="84.0196" cy="43.4229" rx="6.12805" ry="6.12804" transform="rotate(30.203 84.0196 43.4229)" fill="#161E33"/>
</svg>
