<svg width="255" height="255" viewBox="0 0 255 255" fill="none" xmlns="http://www.w3.org/2000/svg">
<path d="M210.032 112.987C210.032 140.831 205.866 164.948 197.535 185.338C189.203 205.509 176.048 221.076 158.07 232.038C140.092 242.781 116.523 248.153 87.3628 248.153C82.5393 248.153 76.9485 248.043 70.5904 247.824C64.2322 247.605 58.8606 247.166 54.4757 246.508V196.191C59.0799 197.068 63.6841 197.726 68.2883 198.164C72.8924 198.603 78.264 198.822 84.4029 198.822C102.162 198.822 115.865 196.301 125.512 191.258C135.159 186.215 141.955 179.199 145.902 170.21C149.848 161.221 152.15 150.916 152.808 139.296H150.835C146.669 147.189 141.078 153.767 134.063 159.029C127.047 164.071 116.852 166.593 103.477 166.593C83.7452 166.593 67.9594 160.015 56.12 146.86C44.4999 133.486 38.6898 114.521 38.6898 89.9657C38.6898 63.8752 46.0346 43.4852 60.7242 28.7956C75.633 14.106 96.0231 6.76123 121.894 6.76123C138.338 6.76123 153.137 10.4884 166.292 17.9429C179.666 25.3973 190.3 36.9078 198.192 52.4743C206.085 68.0409 210.032 88.2117 210.032 112.987ZM123.539 57.4074C116.084 57.4074 110.274 59.9287 106.108 64.9714C102.162 70.0141 100.189 78.1263 100.189 89.3079C100.189 98.0778 102.052 105.094 105.78 110.356C109.726 115.398 115.426 117.92 122.881 117.92C129.897 117.92 135.597 115.179 139.982 109.698C144.586 104.217 146.889 98.4067 146.889 92.2678C146.889 86.5673 146.012 81.0861 144.258 75.8242C142.723 70.5623 140.201 66.1773 136.694 62.6693C133.405 59.1614 129.02 57.4074 123.539 57.4074Z" fill="#37C6A3"/>
<mask id="mask0" mask-type="alpha" maskUnits="userSpaceOnUse" x="37" y="6" width="173" height="243">
<path d="M209.041 112.987C209.041 140.831 204.875 164.948 196.544 185.338C188.212 205.509 175.057 221.076 157.079 232.038C139.101 242.781 115.532 248.153 86.3718 248.153C81.5484 248.153 75.9576 248.043 69.5994 247.824C63.2412 247.605 57.8697 247.166 53.4847 246.508V196.191C58.0889 197.068 62.6931 197.726 67.2973 198.164C71.9015 198.603 77.2731 198.822 83.412 198.822C101.171 198.822 114.874 196.301 124.521 191.258C134.168 186.215 140.964 179.199 144.911 170.21C148.857 161.221 151.159 150.916 151.817 139.296H149.844C145.678 147.189 140.087 153.767 133.072 159.029C126.056 164.071 115.861 166.593 102.487 166.593C82.7543 166.593 66.9684 160.015 55.1291 146.86C43.5089 133.486 37.6989 114.521 37.6989 89.9657C37.6989 63.8752 45.0437 43.4852 59.7333 28.7956C74.6421 14.106 95.0321 6.76123 120.903 6.76123C137.347 6.76123 152.146 10.4884 165.301 17.9429C178.675 25.3973 189.309 36.9078 197.201 52.4743C205.094 68.0409 209.041 88.2117 209.041 112.987ZM122.548 57.4074C115.093 57.4074 109.283 59.9287 105.118 64.9714C101.171 70.0141 99.1978 78.1263 99.1978 89.3079C99.1978 98.0778 101.061 105.094 104.789 110.356C108.735 115.398 114.436 117.92 121.89 117.92C128.906 117.92 134.606 115.179 138.991 109.698C143.595 104.217 145.898 98.4067 145.898 92.2678C145.898 86.5673 145.021 81.0861 143.267 75.8242C141.732 70.5623 139.211 66.1773 135.703 62.6693C132.414 59.1614 128.029 57.4074 122.548 57.4074Z" fill="#37C6A3"/>
</mask>
<g mask="url(#mask0)">
<path d="M162.641 205.745C200.022 170.802 208.013 101.796 207.336 71.6606C214.446 95.701 228.668 144.391 228.668 146.829C228.668 149.876 219.525 205.745 201.241 228.092C182.957 250.44 153.499 258.566 123.025 258.566C98.6464 258.566 74.9446 253.148 66.1411 250.44C82.7323 250.101 125.26 240.688 162.641 205.745Z" fill="#17B68F"/>
</g>
<path d="M84.9954 109.232C96.2724 126.66 124.197 128.73 136.75 127.586C125.493 141.517 100.009 165.716 88.1372 151.066C76.265 136.416 81.0959 117.073 84.9954 109.232Z" fill="#017E60"/>
<path d="M82.9279 141.473C92.5512 130.46 106.669 142.726 112.526 150.236C108.543 152.813 99.1488 157.296 93.4276 154.618C87.7064 151.939 84.044 144.738 82.9279 141.473Z" fill="#01A87F"/>
<path fill-rule="evenodd" clip-rule="evenodd" d="M203.818 187.967L203.813 187.979C194.952 209.433 180.861 226.147 161.602 237.891L161.576 237.906L161.55 237.922C142.181 249.496 117.281 255 87.3522 255C82.4305 255 76.7586 254.888 70.3453 254.667C63.8288 254.442 58.1811 253.989 53.4557 253.28L47.6608 252.411V188.012L55.7382 189.55C60.1374 190.388 64.532 191.016 68.9228 191.434C73.2564 191.846 78.4039 192.061 84.3924 192.061C101.669 192.061 114.104 189.581 122.349 185.271C130.784 180.862 136.405 174.936 139.661 167.518C140.523 165.554 141.303 163.509 141.999 161.384C140.757 162.47 139.469 163.514 138.134 164.515L138.079 164.556L138.023 164.597C129.373 170.814 117.537 173.44 103.467 173.44C82.0525 173.44 64.338 166.218 51.0519 151.455L51.0121 151.411L50.9731 151.366C37.925 136.348 31.875 115.573 31.875 90.0087C31.875 62.6006 39.6292 40.3004 55.9023 24.0273L55.9201 24.0095L55.9381 23.9918C72.406 7.76608 94.6716 0 121.884 0C139.389 0 155.354 3.978 169.615 12.0543C184.323 20.2579 195.837 32.8476 204.251 49.4403C212.787 66.2751 216.825 87.6052 216.825 113.03C216.825 141.532 212.563 166.563 203.823 187.955L203.818 187.967ZM166.281 17.9859C153.126 10.5314 138.327 6.80423 121.884 6.80423C96.0125 6.80423 75.6225 14.149 60.7136 28.8386C46.024 43.5282 38.6792 63.9182 38.6792 90.0087C38.6792 114.564 44.4893 133.529 56.1094 146.903C67.9488 160.058 83.7346 166.636 103.467 166.636C116.841 166.636 127.036 164.114 134.052 159.072C138.223 155.943 141.89 152.35 145.054 148.292C147.212 145.524 149.135 142.54 150.824 139.339H152.798C152.778 139.677 152.758 140.013 152.736 140.348C152.608 142.318 152.431 144.25 152.207 146.144C152.01 147.807 151.776 149.44 151.505 151.044C150.329 158.003 148.458 164.407 145.891 170.253C141.945 179.242 135.148 186.258 125.501 191.301C115.854 196.344 102.151 198.865 84.3924 198.865C78.2534 198.865 72.8819 198.646 68.2777 198.207C65.9415 197.985 63.6054 197.706 61.2693 197.371C59.0012 197.045 56.7332 196.666 54.4651 196.234V246.551C58.85 247.209 64.2216 247.648 70.5798 247.867C76.9379 248.086 82.5288 248.196 87.3522 248.196C116.512 248.196 140.081 242.824 158.06 232.081C176.038 221.119 189.193 205.552 197.524 185.381C205.855 164.991 210.021 140.874 210.021 113.03C210.021 88.2547 206.075 68.0839 198.182 52.5173C190.289 36.9508 179.655 25.4403 166.281 17.9859ZM134.709 105.427L134.762 105.365C138.516 100.895 140.074 96.5896 140.074 92.3108C140.074 87.3211 139.308 82.5678 137.792 78.0189L137.751 77.8964L137.715 77.7724C136.466 73.4908 134.488 70.1405 131.872 67.5237L131.794 67.4461L131.719 67.366C129.902 65.4277 127.418 64.2546 123.528 64.2546C117.827 64.2546 114.082 66.0729 111.403 69.2767C108.896 72.5321 106.982 78.7481 106.982 89.3509C106.982 97.1152 108.616 102.57 111.227 106.33C113.66 109.367 117.199 111.159 122.87 111.159C127.818 111.159 131.564 109.358 134.658 105.49L134.709 105.427ZM106.098 65.0144C110.264 59.9718 116.074 57.4504 123.528 57.4504C129.009 57.4504 133.394 59.2044 136.683 62.7124C140.191 66.2203 142.712 70.6053 144.247 75.8672C146.001 81.1292 146.878 86.6103 146.878 92.3108C146.878 98.4497 144.576 104.26 139.972 109.741C135.587 115.222 129.886 117.963 122.87 117.963C115.416 117.963 109.715 115.441 105.769 110.399C102.042 105.137 100.178 98.1208 100.178 89.3509C100.178 78.1693 102.151 70.0571 106.098 65.0144Z" fill="#01A87F"/>
<ellipse cx="139.33" cy="41.0121" rx="14.7637" ry="15.5839" fill="white"/>
<ellipse cx="135.229" cy="36.0915" rx="4.10102" ry="4.10101" fill="#161E33"/>
<ellipse cx="100.37" cy="36.0664" rx="21.7354" ry="22.9429" fill="white"/>
<ellipse cx="106.817" cy="34.7442" rx="6.03762" ry="6.03761" fill="#161E33"/>
</svg>
