<svg xmlns="http://www.w3.org/2000/svg" xmlns:xlink="http://www.w3.org/1999/xlink" viewBox="0 0 725.01 468.11"><defs><clipPath id="clip-path" transform="translate(0 12.55)"><path d="M17.83,0,0,6.07S1.93,80.25,91.72,128.28L99.49,110S28.6,73.64,17.83,0Z" style="fill:#2abf12"/></clipPath><clipPath id="clip-path-2" transform="translate(0 12.55)"><path d="M80.87,117.24C87,104.77,137.69,43.81,214.11,89.18S421.35,230.11,487.85,258.33s175,64.05,174.8,102.84-37.37,93.91-193.56,58.39S16.85,246.57,80.87,117.24Z" style="fill:#2bbf11"/></clipPath></defs><g id="Layer_2" data-name="Layer 2"><g id="cucumber"><g id="Layer_4" data-name="Layer 4"><path d="M17.83,0,0,6.07S1.93,80.25,91.72,128.28L99.49,110S28.6,73.64,17.83,0Z" transform="translate(0 12.55)" style="fill:#2abf12"/><g style="clip-path:url(#clip-path)"><path d="M7.91-5.55s13,71,77,131l15-37-82-101Z" transform="translate(0 12.55)" style="fill:#176800;opacity:0.5"/></g><path d="M80.87,117.24C87,104.77,137.69,43.81,214.11,89.18S421.35,230.11,487.85,258.33s175,64.05,174.8,102.84-37.37,93.91-193.56,58.39S16.85,246.57,80.87,117.24Z" transform="translate(0 12.55)" style="fill:#2bbf11"/><g style="clip-path:url(#clip-path-2)"><path d="M224.91,64.45s33,69,142,140,213,118,226,164-136,49-259,22c0,0,240,122,349,32s-17-124-114-163S224.91,64.45,224.91,64.45Z" transform="translate(0 12.55)" style="fill:#176800;opacity:0.5"/><path d="M90.68,100.61c15.78,5.45,22.4,23.09,30.78,36a54.59,54.59,0,0,0,16.82,16.8c8.46,5.26,18.07,8.22,27.17,12.13,34.14,14.68,52.5,51,86.23,66.41,8.73,4,18,6.48,26.87,10a57.79,57.79,0,0,1,12.34,6.52c4.15,3,7,7.09,10.45,10.83,6.85,7.51,16.57,9.55,25.85,12.59a225.75,225.75,0,0,1,31.94,13.53c19.73,10,38.3,22.15,57.58,33s38,22.13,57.79,31.77c21.94,10.68,44.07,21.45,67.6,28.14,23.2,6.58,46.78,11.77,70.86,13.55.73.06.71-1,0-1.12a271.48,271.48,0,0,1-64.66-15.09c-20.68-7.74-41.35-16.17-61.08-26.13s-38.65-21-57.48-32.27c-19.24-11.48-37.81-24-57.51-34.69a295.91,295.91,0,0,0-29.3-14c-5-2-10-3.89-15.15-5.51s-10.46-2.81-15.13-5.51c-4.11-2.37-6.85-6-10.09-9.36a52,52,0,0,0-11.47-8.87c-8-4.59-17-7.32-25.73-10.2-18.5-6.13-32.47-17-46.19-30.51C206.41,186,193.71,172.71,177.8,164c-9.43-5.14-19.82-7.95-29.58-12.32-9.95-4.47-16.8-10.78-23.18-19.46-9.48-12.88-16.09-30.8-33.79-33.72a1.08,1.08,0,0,0-.57,2.08Z" transform="translate(0 12.55)" style="fill:#229e08"/><path d="M114.59,85.92c20.17-6.07,39.91,5.78,56.71,15.64q27,15.85,54,31.81c8.7,5.17,16.82,10.64,24.08,17.73a225.07,225.07,0,0,0,21.06,18.7c15.54,11.81,32.16,22,49,31.92,36.18,21.27,73.81,39.83,110.51,60.13C448.27,272,466.7,282,485,292.24c18.59,10.4,37.48,20.24,56,30.69,19.41,10.93,39.43,20.72,58.41,32.4,9.16,5.63,18.15,11.53,27,17.57,4.46,3,9.7,5.63,13.45,9.5,4.09,4.21,7.11,8.45,11.76,12.12,3.87,3.05,9.35-2,5.57-5.57a41.87,41.87,0,0,0-11-7.68A72,72,0,0,1,633.61,373c-7.79-6-16.32-11-24.83-15.92-17-9.76-34.37-18.85-51.25-28.8-9.45-5.57-19.29-10.52-28.86-15.89s-19-11-28.74-16.09c-19.14-10.07-38-20.7-57-31.08-37.57-20.54-74.37-42.46-112.16-62.63-17.73-9.47-35.64-19.28-51.68-31.47s-29-27.66-46.12-38.11c-20.2-12.34-41.35-23.33-62-34.93C154,88.55,134.2,77.7,114.39,85.2c-.44.16-.27.86.2.72Z" transform="translate(0 12.55)" style="fill:#229e08"/><path d="M81.37,105.12c-10.16,43.71,24.14,80,54.74,105.65,16.65,14,33.82,27.3,51.26,40.26C205.11,264.21,223,277.6,242,288.93c38.9,23.2,80.85,40.79,123.14,56.76,22.39,8.46,45.12,16,67.53,24.49,11.63,4.39,22.93,10.26,34.3,15.35,10.83,4.85,21.72,9.42,32.69,13.93,42.34,17.42,94.14,28.89,136.42,4.83.73-.42.08-1.52-.67-1.14C596,423.46,551.21,415,511.63,399.9c-21-8-41.1-18.25-62.17-26q-32.37-12-64.3-25.24c-21.41-8.85-43-17.22-63.92-27.07Q292.41,308,264.79,292.1c-18.4-10.61-37-20.85-55.1-32a545.83,545.83,0,0,1-52.94-37.55c-18.08-14.39-36.85-29.55-51.63-47.41-15.88-19.18-26.51-44-20.31-69.07.55-2.22-2.92-3.17-3.44-.94Z" transform="translate(0 12.55)" style="fill:#229e08"/><path d="M83.59,99c2.82,11.93,5.59,24.51,12.13,35.06a43.32,43.32,0,0,0,10.92,11.78,72.66,72.66,0,0,1,8.27,6.67c3.4,3.5,5.08,7.56,7,12,4.93,11.55,14.58,18.84,24,26.68,10.9,9.09,22.23,17.73,35.1,23.84,6.27,3,12.74,5.58,18.68,9.21,6.44,3.93,12,9,17.5,14.13a115.54,115.54,0,0,0,33.66,22.3,431.56,431.56,0,0,1,41.58,20.16c13.34,7.53,26.6,15.21,40,22.66A128.55,128.55,0,0,0,355.11,313a120.63,120.63,0,0,1,22.61,9.87c11.79,6.68,22.56,17.33,36.47,19.26a1.41,1.41,0,0,0,.75-2.71c-12.44-4-23.12-11.07-33.56-18.81a69.32,69.32,0,0,0-14.54-8.07c-7.28-3-15.1-4.59-22.1-8.32-26.62-14.19-52.11-30.57-79.38-43.54-13.28-6.32-25.92-12-37.32-21.51-9.7-8.07-18.66-16.77-30.26-22.11-12.87-5.93-26-10.12-37.78-18.27-6.21-4.29-12.1-9-18-13.75-5.25-4.23-10.57-8.66-14.33-14.32s-4.46-12.73-8.47-18.17c-4.35-5.91-11.24-9.4-16.32-14.62C92.51,127.25,89.57,112.2,87.3,98c-.39-2.39-4.29-1.42-3.71,1Z" transform="translate(0 12.55)" style="fill:#68db42"/><path d="M96.88,90.49c5.53,3.78,12,3.8,18.14,5.82,7.6,2.49,11.11,10.07,17.85,13.93,6.3,3.62,13.51,5.08,19.58,9.2,6.66,4.52,12.32,10.52,18.68,15.46,10.59,8.23,22.76,14.19,34.71,20.15,12.84,6.41,24.43,13.37,34.21,24.08a.61.61,0,0,0,1-.74c-15.18-24.09-46.57-29.66-67.67-46.72-5.57-4.51-10.21-10-16-14.35-6.51-4.9-13.79-6.61-21-10.12-6.76-3.29-10.35-10.4-17.19-13.46-6.64-3-14.33-2.21-20.53-6.33-1.93-1.27-3.68,1.79-1.8,3.08Z" transform="translate(0 12.55)" style="fill:#68db42"/></g><path d="M648.58,396.45a.38.38,0,0,0,0-.75.38.38,0,0,0,0,.75Z" transform="translate(0 12.55)" style="fill:#229e08"/><path d="M506.85,386.28l4.08,1.3c.23.08.32-.28.1-.36l-4.06-1.4c-.28-.09-.41.36-.12.46Z" transform="translate(0 12.55)" style="fill:#229e08"/><path d="M436.49,348.84l6.25,2.08c1.21.4,1.72-1.5.52-1.9L437,346.94c-1.2-.4-1.72,1.5-.52,1.9Z" transform="translate(0 12.55)" style="fill:#53cc32"/><path d="M457,356c10.74,8.32,23.32,13.25,36.07,17.62,6.71,2.3,13.35,4.86,20,7.45,6.78,2.65,13,6.48,19.73,9.13,1.07.42,1.88-1.15,1.09-1.88-9.23-8.61-23.95-11.87-35.63-15.58-13.8-4.38-27.8-9.65-39.35-18.6-1.32-1-3.19.83-1.86,1.86Z" transform="translate(0 12.55)" style="fill:#53cc32"/><path d="M541.68,396.89c4.91,2.1,9.82,4.64,15,6.11a.94.94,0,0,0,.72-1.71c-4.5-2.66-9.63-4.44-14.44-6.5-1.42-.62-2.66,1.48-1.23,2.1Z" transform="translate(0 12.55)" style="fill:#53cc32"/><path d="M259.31,192.67c6,5.44,12.51,10.64,19.7,14.41a.28.28,0,0,0,.28-.49C272.58,202,266,197.47,260,191.94c-.48-.45-1.22.28-.73.73Z" transform="translate(0 12.55)" style="fill:#53cc32"/><path d="M304.32,222c12.86,11.1,27.61,18.94,42.76,26.44,15.89,7.87,31.75,16.22,48.07,23.13q11.93,5,24.16,9.26c8.7,3,16.82,6.2,23.88,12.29,6.08,5.25,12,10.57,18.45,15.34a211.12,211.12,0,0,0,20.51,12.87C498.91,331,516.28,338.6,534,346.22c.49.21.92-.49.42-.73-30.19-14.26-60.87-28.74-85.4-51.92-5.84-5.51-11.2-10.68-18.69-13.88-7.72-3.31-15.91-5.56-23.75-8.61-17.14-6.67-33.83-14.26-50.38-22.26-17.43-8.43-34.9-17.12-50.66-28.44-.95-.68-2.14.86-1.25,1.62Z" transform="translate(0 12.55)" style="fill:#53cc32"/><path d="M554.81,358.32a1.41,1.41,0,0,0,0-2.81,1.41,1.41,0,0,0,0,2.81Z" transform="translate(0 12.55)" style="fill:#53cc32"/><path d="M79.06,154.8c3.74,14.72,10.4,27.84,18.5,40.67a422.55,422.55,0,0,0,25,36.18c9.46,12,21.49,20,34.15,28.24,7.12,4.65,14.34,9.17,21.53,13.71,6.54,4.14,13.2,9.59,20.38,12.49,1.29.52,2.24-1.39,1.32-2.27-5.14-4.95-12.21-8.47-18.15-12.41-6.55-4.34-13.07-8.73-19.67-13-12.94-8.4-25.48-16.37-36-27.83-19.87-21.61-35.65-48.85-47-75.81a.05.05,0,0,0-.1,0Z" transform="translate(0 12.55)" style="fill:#68db42"/><path d="M226.49,302.93q11.07,7,22.34,13.61c7.4,4.35,15.13,9.09,23,12.46a.47.47,0,0,0,.47-.81c-7.19-4.74-15.18-8.74-22.68-13s-15.08-8.76-22.52-13.3c-.67-.41-1.28.64-.62,1.05Z" transform="translate(0 12.55)" style="fill:#53cc32"/><path d="M306.33,346c24.66,10.14,49.51,19.8,74.35,29.51q18.19,7.11,36.58,13.65c12.61,4.47,25.73,10.23,38.94,12.57,2.21.4,4-2.82,1.66-3.94-11.79-5.54-25.12-8.57-37.49-12.59q-19-6.15-37.92-12.45c-25.59-8.49-50.73-18.11-75.72-28.2-.9-.36-1.28,1.08-.4,1.45Z" transform="translate(0 12.55)" style="fill:#53cc32"/><path d="M154.1,78.92c17.57.37,34.53,8.48,49.21,17.56,7.37,4.56,14.51,9.53,21.56,14.57,7.49,5.35,14.69,11.72,22.82,16.06,1.54.83,3.3-1.22,1.93-2.5-6.83-6.39-15.29-11.32-23-16.63-7.83-5.43-15.68-10.86-23.89-15.7-15.18-8.94-30.85-15-48.67-14.49a.57.57,0,0,0,0,1.13Z" transform="translate(0 12.55)" style="fill:#68db42"/><ellipse cx="171.91" cy="126.5" rx="6" ry="5.5" style="fill:#176800;opacity:0.5"/><path d="M169.22,112a2.44,2.44,0,0,0-.67,1.09c-.16.53.68.92.92.39a9.77,9.77,0,0,1,1.06-1.64c.45-.63-.53-1.36-1.06-.81a9.85,9.85,0,0,0-1.48,1.8l1.36.58a2.36,2.36,0,0,1,1.17-1.46l-.61.08.14,0-.46-.36a6.27,6.27,0,0,1-1.09,1.48l.62-.08-.14,0,.48.37-.08-.13.08.62c.21-.76.66-2,1.5-2.29s.85-2-.25-1.85a3.94,3.94,0,0,0-3.18,4.63c.35,1.3,2.21.74,2-.55a2.16,2.16,0,0,1,1.39-2.36l-.64-1.54c-1.5.79-3,3.22-2.45,4.93l1.79-.75c-.66-1,.58-2.44,1.58-2.57l-.5-1.81c-1.84.76-2,2.3-2.86,3.86a1,1,0,0,0,1.58,1.22,16.42,16.42,0,0,0,2.19-3.15c.59-.89-.79-2-1.49-1.15a9.53,9.53,0,0,0-1.76,2.46,3.47,3.47,0,0,0,.21,2.8l1.54-1.55c-.5-.26-.34-1.08-.17-1.52a2.36,2.36,0,0,1,1.34-1.41l-.51-1.89c-1.39.58-2.85,1.2-3.48,2.67a3.47,3.47,0,0,0,1.09,4c1.08.83,2.53-.48,1.54-1.54a1.85,1.85,0,0,1-.42-2c.32-.77,1.13-1,1.84-1.32,1.2-.53.28-2.16-.83-2-3.24.55-4.82,4.51-2.13,6.79l1.54-1.54a1.53,1.53,0,0,1-.48-2,4.32,4.32,0,0,1,2.08-1.35c1-.43.29-2.13-.75-1.79a4.74,4.74,0,0,0-3.06,3,3.14,3.14,0,0,0,1.27,3.8,1.14,1.14,0,0,0,1.54-1.54,2.5,2.5,0,0,1,1-2.78l-1.35-1.34a33.34,33.34,0,0,1-2.12,2.88l1.58,1.22c.42-.81.64-2.78,1.62-3.07a1,1,0,0,0-.25-1.85c-2.7.1-4.68,3.42-2.86,5.6.75.91,2-.25,1.53-1.18-.17-.37.29-1.23.46-1.55a2.65,2.65,0,0,1,1-1.18.84.84,0,0,0-.64-1.53,3.9,3.9,0,0,0-2.38,1.47,4.06,4.06,0,0,0-.56,3.06l2-.55c-.15-.59.4-2.11,1.19-2.2l-.25-1.85a3.91,3.91,0,0,0-2.57,3.26c-.09.6,0,1.31.66,1.54s1.14-.31,1.52-.81c.53-.71,1.83-2.83.33-3.27-1.29-.37-2.42,1.65-2.52,2.67a.75.75,0,0,0,1.39.37,4.84,4.84,0,0,1,1.16-1.6l-1-1a3.51,3.51,0,0,0-.92,2.06l1,.13a1.68,1.68,0,0,1,.32-.72c.26-.39-.32-.83-.64-.5Z" transform="translate(0 12.55)" style="fill:#68db42"/><ellipse cx="170.91" cy="197.5" rx="6" ry="5.5" style="fill:#176800;opacity:0.5"/><path d="M168.22,183a2.44,2.44,0,0,0-.67,1.09c-.16.53.68.92.92.39a9.77,9.77,0,0,1,1.06-1.64c.45-.63-.53-1.36-1.06-.81a9.85,9.85,0,0,0-1.48,1.8l1.36.58a2.36,2.36,0,0,1,1.17-1.46l-.61.08.14,0-.46-.36a6.27,6.27,0,0,1-1.09,1.48l.62-.08-.14,0,.48.37-.08-.13.08.62c.21-.76.66-2,1.5-2.29s.85-2-.25-1.85a3.94,3.94,0,0,0-3.18,4.63c.35,1.3,2.21.74,2-.55a2.16,2.16,0,0,1,1.39-2.36l-.64-1.54c-1.5.79-3,3.22-2.45,4.93l1.79-.75c-.66-1,.58-2.44,1.58-2.57l-.5-1.81c-1.84.76-2,2.3-2.86,3.86a1,1,0,0,0,1.58,1.22,16.42,16.42,0,0,0,2.19-3.15c.59-.89-.79-2-1.49-1.15a9.53,9.53,0,0,0-1.76,2.46,3.47,3.47,0,0,0,.21,2.8l1.54-1.55c-.5-.26-.34-1.08-.17-1.52a2.36,2.36,0,0,1,1.34-1.41l-.51-1.89c-1.39.58-2.85,1.2-3.48,2.67a3.47,3.47,0,0,0,1.09,4c1.08.83,2.53-.48,1.54-1.54a1.85,1.85,0,0,1-.42-2c.32-.77,1.13-1,1.84-1.32,1.2-.53.28-2.16-.83-2-3.24.55-4.82,4.51-2.13,6.79l1.54-1.54a1.53,1.53,0,0,1-.48-2,4.32,4.32,0,0,1,2.08-1.35c1-.43.29-2.13-.75-1.79a4.74,4.74,0,0,0-3.06,3,3.14,3.14,0,0,0,1.27,3.8,1.14,1.14,0,0,0,1.54-1.54,2.5,2.5,0,0,1,1-2.78l-1.35-1.34a33.34,33.34,0,0,1-2.12,2.88l1.58,1.22c.42-.81.64-2.78,1.62-3.07a1,1,0,0,0-.25-1.85c-2.7.1-4.68,3.42-2.86,5.6.75.91,2-.25,1.53-1.18-.17-.37.29-1.23.46-1.55a2.65,2.65,0,0,1,1-1.18.84.84,0,0,0-.64-1.53,3.9,3.9,0,0,0-2.38,1.47,4.06,4.06,0,0,0-.56,3.06l2-.55c-.15-.59.4-2.11,1.19-2.2l-.25-1.85a3.91,3.91,0,0,0-2.57,3.26c-.09.6,0,1.31.66,1.54s1.14-.31,1.52-.81c.53-.71,1.83-2.83.33-3.27-1.29-.37-2.42,1.65-2.52,2.67a.75.75,0,0,0,1.39.37,4.84,4.84,0,0,1,1.16-1.6l-1-1a3.51,3.51,0,0,0-.92,2.06l1,.13a1.68,1.68,0,0,1,.32-.72c.26-.39-.32-.83-.64-.5Z" transform="translate(0 12.55)" style="fill:#68db42"/><ellipse cx="111.91" cy="210.5" rx="6" ry="5.5" style="fill:#176800;opacity:0.5"/><path d="M109.22,196a2.44,2.44,0,0,0-.67,1.09c-.16.53.68.92.92.39a9.77,9.77,0,0,1,1.06-1.64c.45-.63-.53-1.36-1.06-.81a9.85,9.85,0,0,0-1.48,1.8l1.36.58a2.36,2.36,0,0,1,1.17-1.46l-.61.08.14,0-.46-.36a6.27,6.27,0,0,1-1.09,1.48l.62-.08-.14,0,.48.37-.08-.13.08.62c.21-.76.66-2,1.5-2.29s.85-2-.25-1.85a3.94,3.94,0,0,0-3.18,4.63c.35,1.3,2.21.74,2-.55a2.16,2.16,0,0,1,1.39-2.36l-.64-1.54c-1.5.79-3,3.22-2.45,4.93l1.79-.75c-.66-1,.58-2.44,1.58-2.57l-.5-1.81c-1.84.76-2,2.3-2.86,3.86a1,1,0,0,0,1.58,1.22,16.42,16.42,0,0,0,2.19-3.15c.59-.89-.79-2-1.49-1.15a9.53,9.53,0,0,0-1.76,2.46,3.47,3.47,0,0,0,.21,2.8l1.54-1.55c-.5-.26-.34-1.08-.17-1.52a2.36,2.36,0,0,1,1.34-1.41l-.51-1.89c-1.39.58-2.85,1.2-3.48,2.67a3.47,3.47,0,0,0,1.09,4c1.08.83,2.53-.48,1.54-1.54a1.85,1.85,0,0,1-.42-2c.32-.77,1.13-1,1.84-1.32,1.2-.53.28-2.16-.83-2-3.24.55-4.82,4.51-2.13,6.79l1.54-1.54a1.53,1.53,0,0,1-.48-2,4.32,4.32,0,0,1,2.08-1.35c1-.43.29-2.13-.75-1.79a4.74,4.74,0,0,0-3.06,3,3.14,3.14,0,0,0,1.27,3.8,1.14,1.14,0,0,0,1.54-1.54,2.5,2.5,0,0,1,.95-2.78l-1.35-1.34a33.34,33.34,0,0,1-2.12,2.88l1.58,1.22c.42-.81.64-2.78,1.62-3.07a1,1,0,0,0-.25-1.85c-2.7.1-4.68,3.42-2.86,5.6.75.91,2-.25,1.53-1.18-.17-.37.29-1.23.46-1.55a2.65,2.65,0,0,1,1-1.18.84.84,0,0,0-.64-1.53,3.9,3.9,0,0,0-2.38,1.47,4.06,4.06,0,0,0-.56,3.06l2-.55c-.15-.59.4-2.11,1.19-2.2l-.25-1.85a3.91,3.91,0,0,0-2.57,3.26c-.09.6,0,1.31.66,1.54s1.14-.31,1.52-.81c.53-.71,1.83-2.83.33-3.27-1.29-.37-2.42,1.65-2.52,2.67a.75.75,0,0,0,1.39.37,4.84,4.84,0,0,1,1.16-1.6l-1-1a3.51,3.51,0,0,0-.92,2.06l1,.13a1.68,1.68,0,0,1,.32-.72c.26-.39-.32-.83-.64-.5Z" transform="translate(0 12.55)" style="fill:#68db42"/><ellipse cx="238.91" cy="170.5" rx="6" ry="5.5" style="fill:#176800;opacity:0.5"/><path d="M236.22,156a2.44,2.44,0,0,0-.67,1.09c-.16.53.68.92.92.39a9.77,9.77,0,0,1,1.06-1.64c.45-.63-.53-1.36-1.06-.81a9.85,9.85,0,0,0-1.48,1.8l1.36.58a2.36,2.36,0,0,1,1.17-1.46l-.61.08.14,0-.46-.36a6.27,6.27,0,0,1-1.09,1.48l.62-.08-.14,0,.48.37-.08-.13.08.62c.21-.76.66-2,1.5-2.29s.85-2-.25-1.85a3.94,3.94,0,0,0-3.18,4.63c.35,1.3,2.21.74,2-.55a2.16,2.16,0,0,1,1.39-2.36l-.64-1.54c-1.5.79-3,3.22-2.45,4.93l1.79-.75c-.66-1,.58-2.44,1.58-2.57l-.5-1.81c-1.84.76-2,2.3-2.86,3.86a1,1,0,0,0,1.58,1.22,16.42,16.42,0,0,0,2.19-3.15c.59-.89-.79-2-1.49-1.15a9.53,9.53,0,0,0-1.76,2.46,3.47,3.47,0,0,0,.21,2.8l1.54-1.55c-.5-.26-.34-1.08-.17-1.52a2.36,2.36,0,0,1,1.34-1.41l-.51-1.89c-1.39.58-2.85,1.2-3.48,2.67a3.47,3.47,0,0,0,1.09,4c1.08.83,2.53-.48,1.54-1.54a1.85,1.85,0,0,1-.42-2c.32-.77,1.13-1,1.84-1.32,1.2-.53.28-2.16-.83-2-3.24.55-4.82,4.51-2.13,6.79l1.54-1.54a1.53,1.53,0,0,1-.48-2,4.32,4.32,0,0,1,2.08-1.35c1-.43.29-2.13-.75-1.79a4.74,4.74,0,0,0-3.06,3,3.14,3.14,0,0,0,1.27,3.8,1.14,1.14,0,0,0,1.54-1.54,2.5,2.5,0,0,1,1-2.78l-1.35-1.34a33.34,33.34,0,0,1-2.12,2.88l1.58,1.22c.42-.81.64-2.78,1.62-3.07a1,1,0,0,0-.25-1.85c-2.7.1-4.68,3.42-2.86,5.6.75.91,2-.25,1.53-1.18-.17-.37.29-1.23.46-1.55a2.65,2.65,0,0,1,1-1.18.84.84,0,0,0-.64-1.53,3.9,3.9,0,0,0-2.38,1.47,4.06,4.06,0,0,0-.56,3.06l2-.55c-.15-.59.4-2.11,1.19-2.2l-.25-1.85a3.91,3.91,0,0,0-2.57,3.26c-.09.6,0,1.31.66,1.54s1.14-.31,1.52-.81c.53-.71,1.83-2.83.33-3.27-1.29-.37-2.42,1.65-2.52,2.67a.75.75,0,0,0,1.39.37,4.84,4.84,0,0,1,1.16-1.6l-1-1a3.51,3.51,0,0,0-.92,2.06l1,.13a1.68,1.68,0,0,1,.32-.72c.26-.39-.32-.83-.64-.5Z" transform="translate(0 12.55)" style="fill:#68db42"/><ellipse cx="312.91" cy="196.5" rx="6" ry="5.5" style="fill:#176800;opacity:0.5"/><path d="M310.22,182a2.44,2.44,0,0,0-.67,1.09c-.16.53.68.92.92.39a9.77,9.77,0,0,1,1.06-1.64c.45-.63-.53-1.36-1.06-.81a9.85,9.85,0,0,0-1.48,1.8l1.36.58a2.36,2.36,0,0,1,1.17-1.46l-.61.08.14,0-.46-.36a6.27,6.27,0,0,1-1.09,1.48l.62-.08-.14,0,.48.37-.08-.13.08.62c.21-.76.66-2,1.5-2.29s.85-2-.25-1.85a3.94,3.94,0,0,0-3.18,4.63c.35,1.3,2.21.74,2-.55a2.16,2.16,0,0,1,1.39-2.36l-.64-1.54c-1.5.79-3,3.22-2.45,4.93l1.79-.75c-.66-1,.58-2.44,1.58-2.57l-.5-1.81c-1.84.76-2,2.3-2.86,3.86a1,1,0,0,0,1.58,1.22,16.42,16.42,0,0,0,2.19-3.15c.59-.89-.79-2-1.49-1.15a9.53,9.53,0,0,0-1.76,2.46,3.47,3.47,0,0,0,.21,2.8l1.54-1.55c-.5-.26-.34-1.08-.17-1.52a2.36,2.36,0,0,1,1.34-1.41l-.51-1.89c-1.39.58-2.85,1.2-3.48,2.67a3.47,3.47,0,0,0,1.09,4c1.08.83,2.53-.48,1.54-1.54a1.85,1.85,0,0,1-.42-2c.32-.77,1.13-1,1.84-1.32,1.2-.53.28-2.16-.83-2-3.24.55-4.82,4.51-2.13,6.79l1.54-1.54a1.53,1.53,0,0,1-.48-2,4.32,4.32,0,0,1,2.08-1.35c1-.43.29-2.13-.75-1.79a4.74,4.74,0,0,0-3.06,3,3.14,3.14,0,0,0,1.27,3.8,1.14,1.14,0,0,0,1.54-1.54,2.5,2.5,0,0,1,.95-2.78l-1.35-1.34a33.34,33.34,0,0,1-2.12,2.88l1.58,1.22c.42-.81.64-2.78,1.62-3.07a1,1,0,0,0-.25-1.85c-2.7.1-4.68,3.42-2.86,5.6.75.91,2-.25,1.53-1.18-.17-.37.29-1.23.46-1.55a2.65,2.65,0,0,1,1-1.18.84.84,0,0,0-.64-1.53,3.9,3.9,0,0,0-2.38,1.47,4.06,4.06,0,0,0-.56,3.06l2-.55c-.15-.59.4-2.11,1.19-2.2l-.25-1.85a3.91,3.91,0,0,0-2.57,3.26c-.09.6,0,1.31.66,1.54s1.14-.31,1.52-.81c.53-.71,1.83-2.83.33-3.27-1.29-.37-2.42,1.65-2.52,2.67a.75.75,0,0,0,1.39.37,4.84,4.84,0,0,1,1.16-1.6l-1-1a3.51,3.51,0,0,0-.92,2.06l1,.13a1.68,1.68,0,0,1,.32-.72c.26-.39-.32-.83-.64-.5Z" transform="translate(0 12.55)" style="fill:#68db42"/><ellipse cx="297.91" cy="154.5" rx="6" ry="5.5" style="fill:#176800;opacity:0.5"/><path d="M295.22,140a2.44,2.44,0,0,0-.67,1.09c-.16.53.68.92.92.39a9.77,9.77,0,0,1,1.06-1.64c.45-.63-.53-1.36-1.06-.81a9.85,9.85,0,0,0-1.48,1.8l1.36.58a2.36,2.36,0,0,1,1.17-1.46l-.61.08.14,0-.46-.36a6.27,6.27,0,0,1-1.09,1.48l.62-.08-.14,0,.48.37-.08-.13.08.62c.21-.76.66-2,1.5-2.29s.85-2-.25-1.85a3.94,3.94,0,0,0-3.18,4.63c.35,1.3,2.21.74,2-.55a2.16,2.16,0,0,1,1.39-2.36l-.64-1.54c-1.5.79-3,3.22-2.45,4.93l1.79-.75c-.66-1,.58-2.44,1.58-2.57l-.5-1.81c-1.84.76-2,2.3-2.86,3.86a1,1,0,0,0,1.58,1.22,16.42,16.42,0,0,0,2.19-3.15c.59-.89-.79-2-1.49-1.15a9.53,9.53,0,0,0-1.76,2.46,3.47,3.47,0,0,0,.21,2.8l1.54-1.55c-.5-.26-.34-1.08-.17-1.52a2.36,2.36,0,0,1,1.34-1.41l-.51-1.89c-1.39.58-2.85,1.2-3.48,2.67a3.47,3.47,0,0,0,1.09,4c1.08.83,2.53-.48,1.54-1.54a1.85,1.85,0,0,1-.42-2c.32-.77,1.13-1,1.84-1.32,1.2-.53.28-2.16-.83-2-3.24.55-4.82,4.51-2.13,6.79l1.54-1.54a1.53,1.53,0,0,1-.48-2,4.32,4.32,0,0,1,2.08-1.35c1-.43.29-2.13-.75-1.79a4.74,4.74,0,0,0-3.06,3,3.14,3.14,0,0,0,1.27,3.8,1.14,1.14,0,0,0,1.54-1.54,2.5,2.5,0,0,1,.95-2.78l-1.35-1.34a33.34,33.34,0,0,1-2.12,2.88l1.58,1.22c.42-.81.64-2.78,1.62-3.07a1,1,0,0,0-.25-1.85c-2.7.1-4.68,3.42-2.86,5.6.75.91,2-.25,1.53-1.18-.17-.37.29-1.23.46-1.55a2.65,2.65,0,0,1,1-1.18.84.84,0,0,0-.64-1.53,3.9,3.9,0,0,0-2.38,1.47,4.06,4.06,0,0,0-.56,3.06l2-.55c-.15-.59.4-2.11,1.19-2.2l-.25-1.85a3.91,3.91,0,0,0-2.57,3.26c-.09.6,0,1.31.66,1.54s1.14-.31,1.52-.81c.53-.71,1.83-2.83.33-3.27-1.29-.37-2.42,1.65-2.52,2.67a.75.75,0,0,0,1.39.37,4.84,4.84,0,0,1,1.16-1.6l-1-1a3.51,3.51,0,0,0-.92,2.06l1,.13a1.68,1.68,0,0,1,.32-.72c.26-.39-.32-.83-.64-.5Z" transform="translate(0 12.55)" style="fill:#68db42"/><ellipse cx="418.91" cy="233.5" rx="6" ry="5.5" style="fill:#176800;opacity:0.5"/><path d="M416.22,219a2.44,2.44,0,0,0-.67,1.09c-.16.53.68.92.92.39a9.77,9.77,0,0,1,1.06-1.64c.45-.63-.53-1.36-1.06-.81a9.85,9.85,0,0,0-1.48,1.8l1.36.58a2.36,2.36,0,0,1,1.17-1.46l-.61.08.14,0-.46-.36a6.27,6.27,0,0,1-1.09,1.48l.62-.08-.14,0,.48.37-.08-.13.08.62c.21-.76.66-2,1.5-2.29s.85-2-.25-1.85a3.94,3.94,0,0,0-3.18,4.63c.35,1.3,2.21.74,2-.55a2.16,2.16,0,0,1,1.39-2.36l-.64-1.54c-1.5.79-3,3.22-2.45,4.93l1.79-.75c-.66-1,.58-2.44,1.58-2.57l-.5-1.81c-1.84.76-2,2.3-2.86,3.86a1,1,0,0,0,1.58,1.22,16.42,16.42,0,0,0,2.19-3.15c.59-.89-.79-2-1.49-1.15a9.53,9.53,0,0,0-1.76,2.46,3.47,3.47,0,0,0,.21,2.8l1.54-1.55c-.5-.26-.34-1.08-.17-1.52a2.36,2.36,0,0,1,1.34-1.41l-.51-1.89c-1.39.58-2.85,1.2-3.48,2.67a3.47,3.47,0,0,0,1.09,4c1.08.83,2.53-.48,1.54-1.54a1.85,1.85,0,0,1-.42-2c.32-.77,1.13-1,1.84-1.32,1.2-.53.28-2.16-.83-2-3.24.55-4.82,4.51-2.13,6.79l1.54-1.54a1.53,1.53,0,0,1-.48-2,4.32,4.32,0,0,1,2.08-1.35c1-.43.29-2.13-.75-1.79a4.74,4.74,0,0,0-3.06,3,3.14,3.14,0,0,0,1.27,3.8,1.14,1.14,0,0,0,1.54-1.54,2.5,2.5,0,0,1,.95-2.78l-1.35-1.34a33.34,33.34,0,0,1-2.12,2.88l1.58,1.22c.42-.81.64-2.78,1.62-3.07a1,1,0,0,0-.25-1.85c-2.7.1-4.68,3.42-2.86,5.6.75.91,2-.25,1.53-1.18-.17-.37.29-1.23.46-1.55a2.65,2.65,0,0,1,1-1.18.84.84,0,0,0-.64-1.53,3.9,3.9,0,0,0-2.38,1.47,4.06,4.06,0,0,0-.56,3.06l2-.55c-.15-.59.4-2.11,1.19-2.2l-.25-1.85a3.91,3.91,0,0,0-2.57,3.26c-.09.6,0,1.31.66,1.54s1.14-.31,1.52-.81c.53-.71,1.83-2.83.33-3.27-1.29-.37-2.42,1.65-2.52,2.67a.75.75,0,0,0,1.39.37,4.84,4.84,0,0,1,1.16-1.6l-1-1a3.51,3.51,0,0,0-.92,2.06l1,.13a1.68,1.68,0,0,1,.32-.72c.26-.39-.32-.83-.64-.5Z" transform="translate(0 12.55)" style="fill:#68db42"/><ellipse cx="564.91" cy="303.5" rx="6" ry="5.5" style="fill:#176800;opacity:0.5"/><path d="M562.22,289a2.44,2.44,0,0,0-.67,1.09c-.16.53.68.92.92.39a9.77,9.77,0,0,1,1.06-1.64c.45-.63-.53-1.36-1.06-.81a9.85,9.85,0,0,0-1.48,1.8l1.36.58a2.36,2.36,0,0,1,1.17-1.46l-.61.08.14,0-.46-.36a6.27,6.27,0,0,1-1.09,1.48l.62-.08-.14,0,.48.37-.08-.13.08.62c.21-.76.66-2,1.5-2.29s.85-2-.25-1.85a3.94,3.94,0,0,0-3.18,4.63c.35,1.3,2.21.74,2-.55a2.16,2.16,0,0,1,1.39-2.36l-.64-1.54c-1.5.79-3,3.22-2.45,4.93l1.79-.75c-.66-1,.58-2.44,1.58-2.57l-.5-1.81c-1.84.76-2,2.3-2.86,3.86a1,1,0,0,0,1.58,1.22,16.42,16.42,0,0,0,2.19-3.15c.59-.89-.79-2-1.49-1.15a9.53,9.53,0,0,0-1.76,2.46,3.47,3.47,0,0,0,.21,2.8l1.54-1.55c-.5-.26-.34-1.08-.17-1.52a2.36,2.36,0,0,1,1.34-1.41l-.51-1.89c-1.39.58-2.85,1.2-3.48,2.67a3.47,3.47,0,0,0,1.09,4c1.08.83,2.53-.48,1.54-1.54a1.85,1.85,0,0,1-.42-2c.32-.77,1.13-1,1.84-1.32,1.2-.53.28-2.16-.83-2-3.24.55-4.82,4.51-2.13,6.79l1.54-1.54a1.53,1.53,0,0,1-.48-2,4.32,4.32,0,0,1,2.08-1.35c1-.43.29-2.13-.75-1.79a4.74,4.74,0,0,0-3.06,3,3.14,3.14,0,0,0,1.27,3.8,1.14,1.14,0,0,0,1.54-1.54,2.5,2.5,0,0,1,1-2.78l-1.35-1.34a33.34,33.34,0,0,1-2.12,2.88l1.58,1.22c.42-.81.64-2.78,1.62-3.07a1,1,0,0,0-.25-1.85c-2.7.1-4.68,3.42-2.86,5.6.75.91,2-.25,1.53-1.18-.17-.37.29-1.23.46-1.55a2.65,2.65,0,0,1,1-1.18.84.84,0,0,0-.64-1.53,3.9,3.9,0,0,0-2.38,1.47,4.06,4.06,0,0,0-.56,3.06l2-.55c-.15-.59.4-2.11,1.19-2.2l-.25-1.85a3.91,3.91,0,0,0-2.57,3.26c-.09.6,0,1.31.66,1.54s1.14-.31,1.52-.81c.53-.71,1.83-2.83.33-3.27-1.29-.37-2.42,1.65-2.52,2.67a.75.75,0,0,0,1.39.37,4.84,4.84,0,0,1,1.16-1.6l-1-.95a3.51,3.51,0,0,0-.92,2.06l1,.13a1.68,1.68,0,0,1,.32-.72c.26-.39-.32-.83-.64-.5Z" transform="translate(0 12.55)" style="fill:#68db42"/><ellipse cx="489.91" cy="434.5" rx="6" ry="5.5" style="fill:#176800;opacity:0.5"/><path d="M487.22,420a2.44,2.44,0,0,0-.67,1.09c-.16.53.68.92.92.39a9.77,9.77,0,0,1,1.06-1.64c.45-.63-.53-1.36-1.06-.81a9.85,9.85,0,0,0-1.48,1.8l1.36.58a2.36,2.36,0,0,1,1.17-1.46l-.61.08.14,0-.46-.36a6.27,6.27,0,0,1-1.09,1.48l.62-.08-.14,0,.48.37-.08-.13.08.62c.21-.76.66-2,1.5-2.29s.85-2-.25-1.85a3.94,3.94,0,0,0-3.18,4.63c.35,1.3,2.21.74,2-.55a2.16,2.16,0,0,1,1.39-2.36l-.64-1.54c-1.5.79-3,3.22-2.45,4.93l1.79-.75c-.66-1,.58-2.44,1.58-2.57l-.5-1.81c-1.84.76-2,2.3-2.86,3.86a1,1,0,0,0,1.58,1.22,16.42,16.42,0,0,0,2.19-3.15c.59-.89-.79-2-1.49-1.15a9.53,9.53,0,0,0-1.76,2.46,3.47,3.47,0,0,0,.21,2.8l1.54-1.55c-.5-.26-.34-1.08-.17-1.52a2.36,2.36,0,0,1,1.34-1.41l-.51-1.89c-1.39.58-2.85,1.2-3.48,2.67a3.47,3.47,0,0,0,1.09,4c1.08.83,2.53-.48,1.54-1.54a1.85,1.85,0,0,1-.42-2c.32-.77,1.13-1,1.84-1.32,1.2-.53.28-2.16-.83-2-3.24.55-4.82,4.51-2.13,6.79l1.54-1.54a1.53,1.53,0,0,1-.48-2,4.32,4.32,0,0,1,2.08-1.35c1-.43.29-2.13-.75-1.79a4.74,4.74,0,0,0-3.06,3,3.14,3.14,0,0,0,1.27,3.8,1.14,1.14,0,0,0,1.54-1.54,2.5,2.5,0,0,1,.95-2.78l-1.35-1.34a33.34,33.34,0,0,1-2.12,2.88l1.58,1.22c.42-.81.64-2.78,1.62-3.07a1,1,0,0,0-.25-1.85c-2.7.1-4.68,3.42-2.86,5.6.75.91,2-.25,1.53-1.18-.17-.37.29-1.23.46-1.55a2.65,2.65,0,0,1,1-1.18.84.84,0,0,0-.64-1.53,3.9,3.9,0,0,0-2.38,1.47,4.06,4.06,0,0,0-.56,3.06l2-.55c-.15-.59.4-2.11,1.19-2.2l-.25-1.85a3.91,3.91,0,0,0-2.57,3.26c-.09.6,0,1.31.66,1.54s1.14-.31,1.52-.81c.53-.71,1.83-2.83.33-3.27-1.29-.37-2.42,1.65-2.52,2.67a.75.75,0,0,0,1.39.37,4.84,4.84,0,0,1,1.16-1.6l-1-.95a3.51,3.51,0,0,0-.92,2.06l1,.13a1.68,1.68,0,0,1,.32-.72c.26-.39-.32-.83-.64-.5Z" transform="translate(0 12.55)" style="fill:#68db42"/><ellipse cx="349.91" cy="393.5" rx="6" ry="5.5" style="fill:#176800;opacity:0.5"/><path d="M347.22,379a2.44,2.44,0,0,0-.67,1.09c-.16.53.68.92.92.39a9.77,9.77,0,0,1,1.06-1.64c.45-.63-.53-1.36-1.06-.81a9.85,9.85,0,0,0-1.48,1.8l1.36.58a2.36,2.36,0,0,1,1.17-1.46l-.61.08.14,0-.46-.36a6.27,6.27,0,0,1-1.09,1.48l.62-.08-.14,0,.48.37-.08-.13.08.62c.21-.76.66-2,1.5-2.29s.85-2-.25-1.85a3.94,3.94,0,0,0-3.18,4.63c.35,1.3,2.21.74,2-.55a2.16,2.16,0,0,1,1.39-2.36l-.64-1.54c-1.5.79-3,3.22-2.45,4.93l1.79-.75c-.66-1,.58-2.44,1.58-2.57l-.5-1.81c-1.84.76-2,2.3-2.86,3.86a1,1,0,0,0,1.58,1.22,16.42,16.42,0,0,0,2.19-3.15c.59-.89-.79-2-1.49-1.15a9.53,9.53,0,0,0-1.76,2.46,3.47,3.47,0,0,0,.21,2.8l1.54-1.55c-.5-.26-.34-1.08-.17-1.52a2.36,2.36,0,0,1,1.34-1.41l-.51-1.89c-1.39.58-2.85,1.2-3.48,2.67a3.47,3.47,0,0,0,1.09,4c1.08.83,2.53-.48,1.54-1.54a1.85,1.85,0,0,1-.42-2c.32-.77,1.13-1,1.84-1.32,1.2-.53.28-2.16-.83-2-3.24.55-4.82,4.51-2.13,6.79l1.54-1.54a1.53,1.53,0,0,1-.48-2,4.32,4.32,0,0,1,2.08-1.35c1-.43.29-2.13-.75-1.79a4.74,4.74,0,0,0-3.06,3,3.14,3.14,0,0,0,1.27,3.8,1.14,1.14,0,0,0,1.54-1.54,2.5,2.5,0,0,1,.95-2.78l-1.35-1.34a33.34,33.34,0,0,1-2.12,2.88l1.58,1.22c.42-.81.64-2.78,1.62-3.07a1,1,0,0,0-.25-1.85c-2.7.1-4.68,3.42-2.86,5.6.75.91,2-.25,1.53-1.18-.17-.37.29-1.23.46-1.55a2.65,2.65,0,0,1,1-1.18.84.84,0,0,0-.64-1.53,3.9,3.9,0,0,0-2.38,1.47,4.06,4.06,0,0,0-.56,3.06l2-.55c-.15-.59.4-2.11,1.19-2.2l-.25-1.85a3.91,3.91,0,0,0-2.57,3.26c-.09.6,0,1.31.66,1.54s1.14-.31,1.52-.81c.53-.71,1.83-2.83.33-3.27-1.29-.37-2.42,1.65-2.52,2.67a.75.75,0,0,0,1.39.37,4.84,4.84,0,0,1,1.16-1.6l-1-.95a3.51,3.51,0,0,0-.92,2.06l1,.13a1.68,1.68,0,0,1,.32-.72c.26-.39-.32-.83-.64-.5Z" transform="translate(0 12.55)" style="fill:#68db42"/><ellipse cx="218.91" cy="330.5" rx="6" ry="5.5" style="fill:#176800;opacity:0.5"/><path d="M216.22,316a2.44,2.44,0,0,0-.67,1.09c-.16.53.68.92.92.39a9.77,9.77,0,0,1,1.06-1.64c.45-.63-.53-1.36-1.06-.81a9.85,9.85,0,0,0-1.48,1.8l1.36.58a2.36,2.36,0,0,1,1.17-1.46l-.61.08.14,0-.46-.36a6.27,6.27,0,0,1-1.09,1.48l.62-.08-.14,0,.48.37-.08-.13.08.62c.21-.76.66-2,1.5-2.29s.85-2-.25-1.85a3.94,3.94,0,0,0-3.18,4.63c.35,1.3,2.21.74,2-.55a2.16,2.16,0,0,1,1.39-2.36l-.64-1.54c-1.5.79-3,3.22-2.45,4.93l1.79-.75c-.66-1,.58-2.44,1.58-2.57l-.5-1.81c-1.84.76-2,2.3-2.86,3.86a1,1,0,0,0,1.58,1.22,16.42,16.42,0,0,0,2.19-3.15c.59-.89-.79-2-1.49-1.15a9.53,9.53,0,0,0-1.76,2.46,3.47,3.47,0,0,0,.21,2.8l1.54-1.55c-.5-.26-.34-1.08-.17-1.52a2.36,2.36,0,0,1,1.34-1.41l-.51-1.89c-1.39.58-2.85,1.2-3.48,2.67a3.47,3.47,0,0,0,1.09,4c1.08.83,2.53-.48,1.54-1.54a1.85,1.85,0,0,1-.42-2c.32-.77,1.13-1,1.84-1.32,1.2-.53.28-2.16-.83-2-3.24.55-4.82,4.51-2.13,6.79l1.54-1.54a1.53,1.53,0,0,1-.48-2,4.32,4.32,0,0,1,2.08-1.35c1-.43.29-2.13-.75-1.79a4.74,4.74,0,0,0-3.06,3,3.14,3.14,0,0,0,1.27,3.8,1.14,1.14,0,0,0,1.54-1.54,2.5,2.5,0,0,1,1-2.78l-1.35-1.34a33.34,33.34,0,0,1-2.12,2.88l1.58,1.22c.42-.81.64-2.78,1.62-3.07a1,1,0,0,0-.25-1.85c-2.7.1-4.68,3.42-2.86,5.6.75.91,2-.25,1.53-1.18-.17-.37.29-1.23.46-1.55a2.65,2.65,0,0,1,1-1.18.84.84,0,0,0-.64-1.53,3.9,3.9,0,0,0-2.38,1.47,4.06,4.06,0,0,0-.56,3.06l2-.55c-.15-.59.4-2.11,1.19-2.2l-.25-1.85a3.91,3.91,0,0,0-2.57,3.26c-.09.6,0,1.31.66,1.54s1.14-.31,1.52-.81c.53-.71,1.83-2.83.33-3.27-1.29-.37-2.42,1.65-2.52,2.67a.75.75,0,0,0,1.39.37,4.84,4.84,0,0,1,1.16-1.6l-1-.95a3.51,3.51,0,0,0-.92,2.06l1,.13a1.68,1.68,0,0,1,.32-.72c.26-.39-.32-.83-.64-.5Z" transform="translate(0 12.55)" style="fill:#68db42"/><ellipse cx="127.91" cy="264.5" rx="6" ry="5.5" style="fill:#176800;opacity:0.5"/><path d="M125.22,250a2.44,2.44,0,0,0-.67,1.09c-.16.53.68.92.92.39a9.77,9.77,0,0,1,1.06-1.64c.45-.63-.53-1.36-1.06-.81a9.85,9.85,0,0,0-1.48,1.8l1.36.58a2.36,2.36,0,0,1,1.17-1.46l-.61.08.14,0-.46-.36a6.27,6.27,0,0,1-1.09,1.48l.62-.08-.14,0,.48.37-.08-.13.08.62c.21-.76.66-2,1.5-2.29s.85-2-.25-1.85a3.94,3.94,0,0,0-3.18,4.63c.35,1.3,2.21.74,2-.55a2.16,2.16,0,0,1,1.39-2.36l-.64-1.54c-1.5.79-3,3.22-2.45,4.93l1.79-.75c-.66-1,.58-2.44,1.58-2.57l-.5-1.81c-1.84.76-2,2.3-2.86,3.86a1,1,0,0,0,1.58,1.22,16.42,16.42,0,0,0,2.19-3.15c.59-.89-.79-2-1.49-1.15a9.53,9.53,0,0,0-1.76,2.46,3.47,3.47,0,0,0,.21,2.8l1.54-1.55c-.5-.26-.34-1.08-.17-1.52a2.36,2.36,0,0,1,1.34-1.41l-.51-1.89c-1.39.58-2.85,1.2-3.48,2.67a3.47,3.47,0,0,0,1.09,4c1.08.83,2.53-.48,1.54-1.54a1.85,1.85,0,0,1-.42-2c.32-.77,1.13-1,1.84-1.32,1.2-.53.28-2.16-.83-2-3.24.55-4.82,4.51-2.13,6.79l1.54-1.54a1.53,1.53,0,0,1-.48-2,4.32,4.32,0,0,1,2.08-1.35c1-.43.29-2.13-.75-1.79a4.74,4.74,0,0,0-3.06,3,3.14,3.14,0,0,0,1.27,3.8,1.14,1.14,0,0,0,1.54-1.54,2.5,2.5,0,0,1,.95-2.78l-1.35-1.34a33.34,33.34,0,0,1-2.12,2.88l1.58,1.22c.42-.81.64-2.78,1.62-3.07a1,1,0,0,0-.25-1.85c-2.7.1-4.68,3.42-2.86,5.6.75.91,2-.25,1.53-1.18-.17-.37.29-1.23.46-1.55a2.65,2.65,0,0,1,1-1.18.84.84,0,0,0-.64-1.53,3.9,3.9,0,0,0-2.38,1.47,4.06,4.06,0,0,0-.56,3.06l2-.55c-.15-.59.4-2.11,1.19-2.2l-.25-1.85a3.91,3.91,0,0,0-2.57,3.26c-.09.6,0,1.31.66,1.54s1.14-.31,1.52-.81c.53-.71,1.83-2.83.33-3.27-1.29-.37-2.42,1.65-2.52,2.67a.75.75,0,0,0,1.39.37,4.84,4.84,0,0,1,1.16-1.6l-1-1a3.51,3.51,0,0,0-.92,2.06l1,.13a1.68,1.68,0,0,1,.32-.72c.26-.39-.32-.83-.64-.5Z" transform="translate(0 12.55)" style="fill:#68db42"/><ellipse cx="74.91" cy="161.5" rx="6" ry="5.5" style="fill:#176800;opacity:0.5"/><path d="M72.22,147a2.44,2.44,0,0,0-.67,1.09c-.16.53.68.92.92.39a9.77,9.77,0,0,1,1.06-1.64c.45-.63-.53-1.36-1.06-.81a9.85,9.85,0,0,0-1.48,1.8l1.36.58A2.36,2.36,0,0,1,73.52,147l-.61.08.14,0-.46-.36a6.27,6.27,0,0,1-1.09,1.48l.62-.08-.14,0,.48.37-.08-.13.08.62c.21-.76.66-2,1.5-2.29s.85-2-.25-1.85a3.94,3.94,0,0,0-3.18,4.63c.35,1.3,2.21.74,2-.55a2.16,2.16,0,0,1,1.39-2.36L73.27,145c-1.5.79-3,3.22-2.45,4.93l1.79-.75c-.66-1,.58-2.44,1.58-2.57l-.5-1.81c-1.84.76-2,2.3-2.86,3.86a1,1,0,0,0,1.58,1.22,16.42,16.42,0,0,0,2.19-3.15c.59-.89-.79-2-1.49-1.15a9.53,9.53,0,0,0-1.76,2.46,3.47,3.47,0,0,0,.21,2.8l1.54-1.55c-.5-.26-.34-1.08-.17-1.52a2.36,2.36,0,0,1,1.34-1.41l-.51-1.89c-1.39.58-2.85,1.2-3.48,2.67a3.47,3.47,0,0,0,1.09,4c1.08.83,2.53-.48,1.54-1.54a1.85,1.85,0,0,1-.42-2c.32-.77,1.13-1,1.84-1.32,1.2-.53.28-2.16-.83-2-3.24.55-4.82,4.51-2.13,6.79l1.54-1.54a1.53,1.53,0,0,1-.48-2,4.32,4.32,0,0,1,2.08-1.35c1-.43.29-2.13-.75-1.79a4.74,4.74,0,0,0-3.06,3,3.14,3.14,0,0,0,1.27,3.8,1.14,1.14,0,0,0,1.54-1.54,2.5,2.5,0,0,1,.95-2.78l-1.35-1.34A33.34,33.34,0,0,1,71,148.47l1.58,1.22c.42-.81.64-2.78,1.62-3.07a1,1,0,0,0-.25-1.85c-2.7.1-4.68,3.42-2.86,5.6.75.91,2-.25,1.53-1.18-.17-.37.29-1.23.46-1.55a2.65,2.65,0,0,1,1-1.18.84.84,0,0,0-.64-1.53,3.9,3.9,0,0,0-2.38,1.47,4.06,4.06,0,0,0-.56,3.06l2-.55c-.15-.59.4-2.11,1.19-2.2l-.25-1.85a3.91,3.91,0,0,0-2.57,3.26c-.09.6,0,1.31.66,1.54s1.14-.31,1.52-.81c.53-.71,1.83-2.83.33-3.27-1.29-.37-2.42,1.65-2.52,2.67a.75.75,0,0,0,1.39.37,4.84,4.84,0,0,1,1.16-1.6l-1-1a3.51,3.51,0,0,0-.92,2.06l1,.13a1.68,1.68,0,0,1,.32-.72c.26-.39-.32-.83-.64-.5Z" transform="translate(0 12.55)" style="fill:#68db42"/><ellipse cx="127.91" cy="90.5" rx="6" ry="5.5" style="fill:#176800;opacity:0.5"/><path d="M125.22,76a2.44,2.44,0,0,0-.67,1.09c-.16.53.68.92.92.39a9.77,9.77,0,0,1,1.06-1.64c.45-.63-.53-1.36-1.06-.81a9.85,9.85,0,0,0-1.48,1.8l1.36.58A2.36,2.36,0,0,1,126.52,76l-.61.08.14,0-.46-.36a6.27,6.27,0,0,1-1.09,1.48l.62-.08-.14,0,.48.37-.08-.13.08.62c.21-.76.66-2,1.5-2.29s.85-2-.25-1.85a3.94,3.94,0,0,0-3.18,4.63c.35,1.3,2.21.74,2-.55a2.16,2.16,0,0,1,1.39-2.36L126.27,74c-1.5.79-3,3.22-2.45,4.93l1.79-.75c-.66-1,.58-2.44,1.58-2.57l-.5-1.81c-1.84.76-2,2.3-2.86,3.86a1,1,0,0,0,1.58,1.22,16.42,16.42,0,0,0,2.19-3.15c.59-.89-.79-2-1.49-1.15a9.53,9.53,0,0,0-1.76,2.46,3.47,3.47,0,0,0,.21,2.8l1.54-1.55c-.5-.26-.34-1.08-.17-1.52a2.36,2.36,0,0,1,1.34-1.41l-.51-1.89c-1.39.58-2.85,1.2-3.48,2.67a3.47,3.47,0,0,0,1.09,4c1.08.83,2.53-.48,1.54-1.54a1.85,1.85,0,0,1-.42-2c.32-.77,1.13-1,1.84-1.32,1.2-.53.28-2.16-.83-2-3.24.55-4.82,4.51-2.13,6.79l1.54-1.54a1.53,1.53,0,0,1-.48-2,4.32,4.32,0,0,1,2.08-1.35c1-.43.29-2.13-.75-1.79a4.74,4.74,0,0,0-3.06,3,3.14,3.14,0,0,0,1.27,3.8,1.14,1.14,0,0,0,1.54-1.54,2.5,2.5,0,0,1,.95-2.78l-1.35-1.34A33.34,33.34,0,0,1,124,77.47l1.58,1.22c.42-.81.64-2.78,1.62-3.07a1,1,0,0,0-.25-1.85c-2.7.1-4.68,3.42-2.86,5.6.75.91,2-.25,1.53-1.18-.17-.37.29-1.23.46-1.55a2.65,2.65,0,0,1,1-1.18.84.84,0,0,0-.64-1.53,3.9,3.9,0,0,0-2.38,1.47,4.06,4.06,0,0,0-.56,3.06l2-.55c-.15-.59.4-2.11,1.19-2.2l-.25-1.85a3.91,3.91,0,0,0-2.57,3.26c-.09.6,0,1.31.66,1.54s1.14-.31,1.52-.81c.53-.71,1.83-2.83.33-3.27-1.29-.37-2.42,1.65-2.52,2.67a.75.75,0,0,0,1.39.37,4.84,4.84,0,0,1,1.16-1.6l-1-1a3.51,3.51,0,0,0-.92,2.06l1,.13a1.68,1.68,0,0,1,.32-.72c.26-.39-.32-.83-.64-.5Z" transform="translate(0 12.55)" style="fill:#68db42"/><ellipse cx="253.91" cy="219.5" rx="6" ry="5.5" style="fill:#176800;opacity:0.5"/><path d="M251.22,205a2.44,2.44,0,0,0-.67,1.09c-.16.53.68.92.92.39a9.77,9.77,0,0,1,1.06-1.64c.45-.63-.53-1.36-1.06-.81a9.85,9.85,0,0,0-1.48,1.8l1.36.58a2.36,2.36,0,0,1,1.17-1.46l-.61.08.14,0-.46-.36a6.27,6.27,0,0,1-1.09,1.48l.62-.08-.14,0,.48.37-.08-.13.08.62c.21-.76.66-2,1.5-2.29s.85-2-.25-1.85a3.94,3.94,0,0,0-3.18,4.63c.35,1.3,2.21.74,2-.55a2.16,2.16,0,0,1,1.39-2.36l-.64-1.54c-1.5.79-3,3.22-2.45,4.93l1.79-.75c-.66-1,.58-2.44,1.58-2.57l-.5-1.81c-1.84.76-2,2.3-2.86,3.86a1,1,0,0,0,1.58,1.22,16.42,16.42,0,0,0,2.19-3.15c.59-.89-.79-2-1.49-1.15a9.53,9.53,0,0,0-1.76,2.46,3.47,3.47,0,0,0,.21,2.8l1.54-1.55c-.5-.26-.34-1.08-.17-1.52a2.36,2.36,0,0,1,1.34-1.41l-.51-1.89c-1.39.58-2.85,1.2-3.48,2.67a3.47,3.47,0,0,0,1.09,4c1.08.83,2.53-.48,1.54-1.54a1.85,1.85,0,0,1-.42-2c.32-.77,1.13-1,1.84-1.32,1.2-.53.28-2.16-.83-2-3.24.55-4.82,4.51-2.13,6.79l1.54-1.54a1.53,1.53,0,0,1-.48-2,4.32,4.32,0,0,1,2.08-1.35c1-.43.29-2.13-.75-1.79a4.74,4.74,0,0,0-3.06,3,3.14,3.14,0,0,0,1.27,3.8,1.14,1.14,0,0,0,1.54-1.54,2.5,2.5,0,0,1,1-2.78l-1.35-1.34a33.34,33.34,0,0,1-2.12,2.88l1.58,1.22c.42-.81.64-2.78,1.62-3.07a1,1,0,0,0-.25-1.85c-2.7.1-4.68,3.42-2.86,5.6.75.91,2-.25,1.53-1.18-.17-.37.29-1.23.46-1.55a2.65,2.65,0,0,1,1-1.18.84.84,0,0,0-.64-1.53,3.9,3.9,0,0,0-2.38,1.47,4.06,4.06,0,0,0-.56,3.06l2-.55c-.15-.59.4-2.11,1.19-2.2l-.25-1.85a3.91,3.91,0,0,0-2.57,3.26c-.09.6,0,1.31.66,1.54s1.14-.31,1.52-.81c.53-.71,1.83-2.83.33-3.27-1.29-.37-2.42,1.65-2.52,2.67a.75.75,0,0,0,1.39.37,4.84,4.84,0,0,1,1.16-1.6l-1-1a3.51,3.51,0,0,0-.92,2.06l1,.13a1.68,1.68,0,0,1,.32-.72c.26-.39-.32-.83-.64-.5Z" transform="translate(0 12.55)" style="fill:#68db42"/><ellipse cx="234.91" cy="275.5" rx="6" ry="5.5" style="fill:#176800;opacity:0.5"/><path d="M232.22,261a2.44,2.44,0,0,0-.67,1.09c-.16.53.68.92.92.39a9.77,9.77,0,0,1,1.06-1.64c.45-.63-.53-1.36-1.06-.81a9.85,9.85,0,0,0-1.48,1.8l1.36.58a2.36,2.36,0,0,1,1.17-1.46l-.61.08.14,0-.46-.36a6.27,6.27,0,0,1-1.09,1.48l.62-.08-.14,0,.48.37-.08-.13.08.62c.21-.76.66-2,1.5-2.29s.85-2-.25-1.85a3.94,3.94,0,0,0-3.18,4.63c.35,1.3,2.21.74,2-.55a2.16,2.16,0,0,1,1.39-2.36l-.64-1.54c-1.5.79-3,3.22-2.45,4.93l1.79-.75c-.66-1,.58-2.44,1.58-2.57l-.5-1.81c-1.84.76-2,2.3-2.86,3.86a1,1,0,0,0,1.58,1.22,16.42,16.42,0,0,0,2.19-3.15c.59-.89-.79-2-1.49-1.15a9.53,9.53,0,0,0-1.76,2.46,3.47,3.47,0,0,0,.21,2.8l1.54-1.55c-.5-.26-.34-1.08-.17-1.52a2.36,2.36,0,0,1,1.34-1.41l-.51-1.89c-1.39.58-2.85,1.2-3.48,2.67a3.47,3.47,0,0,0,1.09,4c1.08.83,2.53-.48,1.54-1.54a1.85,1.85,0,0,1-.42-2c.32-.77,1.13-1,1.84-1.32,1.2-.53.28-2.16-.83-2-3.24.55-4.82,4.51-2.13,6.79l1.54-1.54a1.53,1.53,0,0,1-.48-2,4.32,4.32,0,0,1,2.08-1.35c1-.43.29-2.13-.75-1.79a4.74,4.74,0,0,0-3.06,3,3.14,3.14,0,0,0,1.27,3.8,1.14,1.14,0,0,0,1.54-1.54,2.5,2.5,0,0,1,1-2.78l-1.35-1.34a33.34,33.34,0,0,1-2.12,2.88l1.58,1.22c.42-.81.64-2.78,1.62-3.07a1,1,0,0,0-.25-1.85c-2.7.1-4.68,3.42-2.86,5.6.75.91,2-.25,1.53-1.18-.17-.37.29-1.23.46-1.55a2.65,2.65,0,0,1,1-1.18.84.84,0,0,0-.64-1.53,3.9,3.9,0,0,0-2.38,1.47,4.06,4.06,0,0,0-.56,3.06l2-.55c-.15-.59.4-2.11,1.19-2.2l-.25-1.85a3.91,3.91,0,0,0-2.57,3.26c-.09.6,0,1.31.66,1.54s1.14-.31,1.52-.81c.53-.71,1.83-2.83.33-3.27-1.29-.37-2.42,1.65-2.52,2.67a.75.75,0,0,0,1.39.37,4.84,4.84,0,0,1,1.16-1.6l-1-.95a3.51,3.51,0,0,0-.92,2.06l1,.13a1.68,1.68,0,0,1,.32-.72c.26-.39-.32-.83-.64-.5Z" transform="translate(0 12.55)" style="fill:#68db42"/><ellipse cx="328.91" cy="297.5" rx="6" ry="5.5" style="fill:#176800;opacity:0.5"/><path d="M326.22,283a2.44,2.44,0,0,0-.67,1.09c-.16.53.68.92.92.39a9.77,9.77,0,0,1,1.06-1.64c.45-.63-.53-1.36-1.06-.81a9.85,9.85,0,0,0-1.48,1.8l1.36.58a2.36,2.36,0,0,1,1.17-1.46l-.61.08.14,0-.46-.36a6.27,6.27,0,0,1-1.09,1.48l.62-.08-.14,0,.48.37-.08-.13.08.62c.21-.76.66-2,1.5-2.29s.85-2-.25-1.85a3.94,3.94,0,0,0-3.18,4.63c.35,1.3,2.21.74,2-.55a2.16,2.16,0,0,1,1.39-2.36l-.64-1.54c-1.5.79-3,3.22-2.45,4.93l1.79-.75c-.66-1,.58-2.44,1.58-2.57l-.5-1.81c-1.84.76-2,2.3-2.86,3.86a1,1,0,0,0,1.58,1.22,16.42,16.42,0,0,0,2.19-3.15c.59-.89-.79-2-1.49-1.15a9.53,9.53,0,0,0-1.76,2.46,3.47,3.47,0,0,0,.21,2.8l1.54-1.55c-.5-.26-.34-1.08-.17-1.52a2.36,2.36,0,0,1,1.34-1.41l-.51-1.89c-1.39.58-2.85,1.2-3.48,2.67a3.47,3.47,0,0,0,1.09,4c1.08.83,2.53-.48,1.54-1.54a1.85,1.85,0,0,1-.42-2c.32-.77,1.13-1,1.84-1.32,1.2-.53.28-2.16-.83-2-3.24.55-4.82,4.51-2.13,6.79l1.54-1.54a1.53,1.53,0,0,1-.48-2,4.32,4.32,0,0,1,2.08-1.35c1-.43.29-2.13-.75-1.79a4.74,4.74,0,0,0-3.06,3,3.14,3.14,0,0,0,1.27,3.8,1.14,1.14,0,0,0,1.54-1.54,2.5,2.5,0,0,1,.95-2.78l-1.35-1.34a33.34,33.34,0,0,1-2.12,2.88l1.58,1.22c.42-.81.64-2.78,1.62-3.07a1,1,0,0,0-.25-1.85c-2.7.1-4.68,3.42-2.86,5.6.75.91,2-.25,1.53-1.18-.17-.37.29-1.23.46-1.55a2.65,2.65,0,0,1,1-1.18.84.84,0,0,0-.64-1.53,3.9,3.9,0,0,0-2.38,1.47,4.06,4.06,0,0,0-.56,3.06l2-.55c-.15-.59.4-2.11,1.19-2.2l-.25-1.85a3.91,3.91,0,0,0-2.57,3.26c-.09.6,0,1.31.66,1.54s1.14-.31,1.52-.81c.53-.71,1.83-2.83.33-3.27-1.29-.37-2.42,1.65-2.52,2.67a.75.75,0,0,0,1.39.37,4.84,4.84,0,0,1,1.16-1.6l-1-.95a3.51,3.51,0,0,0-.92,2.06l1,.13a1.68,1.68,0,0,1,.32-.72c.26-.39-.32-.83-.64-.5Z" transform="translate(0 12.55)" style="fill:#68db42"/><ellipse cx="360.91" cy="253.5" rx="6" ry="5.5" style="fill:#176800;opacity:0.5"/><path d="M358.22,239a2.44,2.44,0,0,0-.67,1.09c-.16.53.68.92.92.39a9.77,9.77,0,0,1,1.06-1.64c.45-.63-.53-1.36-1.06-.81a9.85,9.85,0,0,0-1.48,1.8l1.36.58a2.36,2.36,0,0,1,1.17-1.46l-.61.08.14,0-.46-.36a6.27,6.27,0,0,1-1.09,1.48l.62-.08-.14,0,.48.37-.08-.13.08.62c.21-.76.66-2,1.5-2.29s.85-2-.25-1.85a3.94,3.94,0,0,0-3.18,4.63c.35,1.3,2.21.74,2-.55a2.16,2.16,0,0,1,1.39-2.36l-.64-1.54c-1.5.79-3,3.22-2.45,4.93l1.79-.75c-.66-1,.58-2.44,1.58-2.57l-.5-1.81c-1.84.76-2,2.3-2.86,3.86a1,1,0,0,0,1.58,1.22,16.42,16.42,0,0,0,2.19-3.15c.59-.89-.79-2-1.49-1.15a9.53,9.53,0,0,0-1.76,2.46,3.47,3.47,0,0,0,.21,2.8l1.54-1.55c-.5-.26-.34-1.08-.17-1.52a2.36,2.36,0,0,1,1.34-1.41l-.51-1.89c-1.39.58-2.85,1.2-3.48,2.67a3.47,3.47,0,0,0,1.09,4c1.08.83,2.53-.48,1.54-1.54a1.85,1.85,0,0,1-.42-2c.32-.77,1.13-1,1.84-1.32,1.2-.53.28-2.16-.83-2-3.24.55-4.82,4.51-2.13,6.79l1.54-1.54a1.53,1.53,0,0,1-.48-2,4.32,4.32,0,0,1,2.08-1.35c1-.43.29-2.13-.75-1.79a4.74,4.74,0,0,0-3.06,3,3.14,3.14,0,0,0,1.27,3.8,1.14,1.14,0,0,0,1.54-1.54,2.5,2.5,0,0,1,.95-2.78l-1.35-1.34a33.34,33.34,0,0,1-2.12,2.88l1.58,1.22c.42-.81.64-2.78,1.62-3.07a1,1,0,0,0-.25-1.85c-2.7.1-4.68,3.42-2.86,5.6.75.91,2-.25,1.53-1.18-.17-.37.29-1.23.46-1.55a2.65,2.65,0,0,1,1-1.18.84.84,0,0,0-.64-1.53,3.9,3.9,0,0,0-2.38,1.47,4.06,4.06,0,0,0-.56,3.06l2-.55c-.15-.59.4-2.11,1.19-2.2l-.25-1.85a3.91,3.91,0,0,0-2.57,3.26c-.09.6,0,1.31.66,1.54s1.14-.31,1.52-.81c.53-.71,1.83-2.83.33-3.27-1.29-.37-2.42,1.65-2.52,2.67a.75.75,0,0,0,1.39.37,4.84,4.84,0,0,1,1.16-1.6l-1-1a3.51,3.51,0,0,0-.92,2.06l1,.13a1.68,1.68,0,0,1,.32-.72c.26-.39-.32-.83-.64-.5Z" transform="translate(0 12.55)" style="fill:#68db42"/><ellipse cx="415.91" cy="308.5" rx="6" ry="5.5" style="fill:#176800;opacity:0.5"/><path d="M413.22,294a2.44,2.44,0,0,0-.67,1.09c-.16.53.68.92.92.39a9.77,9.77,0,0,1,1.06-1.64c.45-.63-.53-1.36-1.06-.81a9.85,9.85,0,0,0-1.48,1.8l1.36.58a2.36,2.36,0,0,1,1.17-1.46l-.61.08.14,0-.46-.36a6.27,6.27,0,0,1-1.09,1.48l.62-.08-.14,0,.48.37-.08-.13.08.62c.21-.76.66-2,1.5-2.29s.85-2-.25-1.85a3.94,3.94,0,0,0-3.18,4.63c.35,1.3,2.21.74,2-.55a2.16,2.16,0,0,1,1.39-2.36l-.64-1.54c-1.5.79-3,3.22-2.45,4.93l1.79-.75c-.66-1,.58-2.44,1.58-2.57l-.5-1.81c-1.84.76-2,2.3-2.86,3.86a1,1,0,0,0,1.58,1.22,16.42,16.42,0,0,0,2.19-3.15c.59-.89-.79-2-1.49-1.15a9.53,9.53,0,0,0-1.76,2.46,3.47,3.47,0,0,0,.21,2.8l1.54-1.55c-.5-.26-.34-1.08-.17-1.52a2.36,2.36,0,0,1,1.34-1.41l-.51-1.89c-1.39.58-2.85,1.2-3.48,2.67a3.47,3.47,0,0,0,1.09,4c1.08.83,2.53-.48,1.54-1.54a1.85,1.85,0,0,1-.42-2c.32-.77,1.13-1,1.84-1.32,1.2-.53.28-2.16-.83-2-3.24.55-4.82,4.51-2.13,6.79l1.54-1.54a1.53,1.53,0,0,1-.48-2,4.32,4.32,0,0,1,2.08-1.35c1-.43.29-2.13-.75-1.79a4.74,4.74,0,0,0-3.06,3,3.14,3.14,0,0,0,1.27,3.8,1.14,1.14,0,0,0,1.54-1.54,2.5,2.5,0,0,1,.95-2.78l-1.35-1.34a33.34,33.34,0,0,1-2.12,2.88l1.58,1.22c.42-.81.64-2.78,1.62-3.07a1,1,0,0,0-.25-1.85c-2.7.1-4.68,3.42-2.86,5.6.75.91,2-.25,1.53-1.18-.17-.37.29-1.23.46-1.55a2.65,2.65,0,0,1,1-1.18.84.84,0,0,0-.64-1.53,3.9,3.9,0,0,0-2.38,1.47,4.06,4.06,0,0,0-.56,3.06l2-.55c-.15-.59.4-2.11,1.19-2.2l-.25-1.85a3.91,3.91,0,0,0-2.57,3.26c-.09.6,0,1.31.66,1.54s1.14-.31,1.52-.81c.53-.71,1.83-2.83.33-3.27-1.29-.37-2.42,1.65-2.52,2.67a.75.75,0,0,0,1.39.37,4.84,4.84,0,0,1,1.16-1.6l-1-.95a3.51,3.51,0,0,0-.92,2.06l1,.13a1.68,1.68,0,0,1,.32-.72c.26-.39-.32-.83-.64-.5Z" transform="translate(0 12.55)" style="fill:#68db42"/><ellipse cx="290.91" cy="357.5" rx="6" ry="5.5" style="fill:#176800;opacity:0.5"/><path d="M288.22,343a2.44,2.44,0,0,0-.67,1.09c-.16.53.68.92.92.39a9.77,9.77,0,0,1,1.06-1.64c.45-.63-.53-1.36-1.06-.81a9.85,9.85,0,0,0-1.48,1.8l1.36.58a2.36,2.36,0,0,1,1.17-1.46l-.61.08.14,0-.46-.36a6.27,6.27,0,0,1-1.09,1.48l.62-.08-.14,0,.48.37-.08-.13.08.62c.21-.76.66-2,1.5-2.29s.85-2-.25-1.85a3.94,3.94,0,0,0-3.18,4.63c.35,1.3,2.21.74,2-.55a2.16,2.16,0,0,1,1.39-2.36l-.64-1.54c-1.5.79-3,3.22-2.45,4.93l1.79-.75c-.66-1,.58-2.44,1.58-2.57l-.5-1.81c-1.84.76-2,2.3-2.86,3.86a1,1,0,0,0,1.58,1.22,16.42,16.42,0,0,0,2.19-3.15c.59-.89-.79-2-1.49-1.15a9.53,9.53,0,0,0-1.76,2.46,3.47,3.47,0,0,0,.21,2.8l1.54-1.55c-.5-.26-.34-1.08-.17-1.52a2.36,2.36,0,0,1,1.34-1.41l-.51-1.89c-1.39.58-2.85,1.2-3.48,2.67a3.47,3.47,0,0,0,1.09,4c1.08.83,2.53-.48,1.54-1.54a1.85,1.85,0,0,1-.42-2c.32-.77,1.13-1,1.84-1.32,1.2-.53.28-2.16-.83-2-3.24.55-4.82,4.51-2.13,6.79l1.54-1.54a1.53,1.53,0,0,1-.48-2,4.32,4.32,0,0,1,2.08-1.35c1-.43.29-2.13-.75-1.79a4.74,4.74,0,0,0-3.06,3,3.14,3.14,0,0,0,1.27,3.8,1.14,1.14,0,0,0,1.54-1.54,2.5,2.5,0,0,1,.95-2.78l-1.35-1.34a33.34,33.34,0,0,1-2.12,2.88l1.58,1.22c.42-.81.64-2.78,1.62-3.07a1,1,0,0,0-.25-1.85c-2.7.1-4.68,3.42-2.86,5.6.75.91,2-.25,1.53-1.18-.17-.37.29-1.23.46-1.55a2.65,2.65,0,0,1,1-1.18.84.84,0,0,0-.64-1.53,3.9,3.9,0,0,0-2.38,1.47,4.06,4.06,0,0,0-.56,3.06l2-.55c-.15-.59.4-2.11,1.19-2.2l-.25-1.85a3.91,3.91,0,0,0-2.57,3.26c-.09.6,0,1.31.66,1.54s1.14-.31,1.52-.81c.53-.71,1.83-2.83.33-3.27-1.29-.37-2.42,1.65-2.52,2.67a.75.75,0,0,0,1.39.37,4.84,4.84,0,0,1,1.16-1.6l-1-.95a3.51,3.51,0,0,0-.92,2.06l1,.13a1.68,1.68,0,0,1,.32-.72c.26-.39-.32-.83-.64-.5Z" transform="translate(0 12.55)" style="fill:#68db42"/><ellipse cx="451.91" cy="375.5" rx="6" ry="5.5" style="fill:#176800;opacity:0.5"/><path d="M449.22,361a2.44,2.44,0,0,0-.67,1.09c-.16.53.68.92.92.39a9.77,9.77,0,0,1,1.06-1.64c.45-.63-.53-1.36-1.06-.81a9.85,9.85,0,0,0-1.48,1.8l1.36.58a2.36,2.36,0,0,1,1.17-1.46l-.61.08.14,0-.46-.36a6.27,6.27,0,0,1-1.09,1.48l.62-.08-.14,0,.48.37-.08-.13.08.62c.21-.76.66-2,1.5-2.29s.85-2-.25-1.85a3.94,3.94,0,0,0-3.18,4.63c.35,1.3,2.21.74,2-.55a2.16,2.16,0,0,1,1.39-2.36l-.64-1.54c-1.5.79-3,3.22-2.45,4.93l1.79-.75c-.66-1,.58-2.44,1.58-2.57l-.5-1.81c-1.84.76-2,2.3-2.86,3.86a1,1,0,0,0,1.58,1.22,16.42,16.42,0,0,0,2.19-3.15c.59-.89-.79-2-1.49-1.15a9.53,9.53,0,0,0-1.76,2.46,3.47,3.47,0,0,0,.21,2.8l1.54-1.55c-.5-.26-.34-1.08-.17-1.52a2.36,2.36,0,0,1,1.34-1.41l-.51-1.89c-1.39.58-2.85,1.2-3.48,2.67a3.47,3.47,0,0,0,1.09,4c1.08.83,2.53-.48,1.54-1.54a1.85,1.85,0,0,1-.42-2c.32-.77,1.13-1,1.84-1.32,1.2-.53.28-2.16-.83-2-3.24.55-4.82,4.51-2.13,6.79l1.54-1.54a1.53,1.53,0,0,1-.48-2,4.32,4.32,0,0,1,2.08-1.35c1-.43.29-2.13-.75-1.79a4.74,4.74,0,0,0-3.06,3,3.14,3.14,0,0,0,1.27,3.8,1.14,1.14,0,0,0,1.54-1.54,2.5,2.5,0,0,1,.95-2.78l-1.35-1.34a33.34,33.34,0,0,1-2.12,2.88l1.58,1.22c.42-.81.64-2.78,1.62-3.07a1,1,0,0,0-.25-1.85c-2.7.1-4.68,3.42-2.86,5.6.75.91,2-.25,1.53-1.18-.17-.37.29-1.23.46-1.55a2.65,2.65,0,0,1,1-1.18.84.84,0,0,0-.64-1.53,3.9,3.9,0,0,0-2.38,1.47,4.06,4.06,0,0,0-.56,3.06l2-.55c-.15-.59.4-2.11,1.19-2.2l-.25-1.85a3.91,3.91,0,0,0-2.57,3.26c-.09.6,0,1.31.66,1.54s1.14-.31,1.52-.81c.53-.71,1.83-2.83.33-3.27-1.29-.37-2.42,1.65-2.52,2.67a.75.75,0,0,0,1.39.37,4.84,4.84,0,0,1,1.16-1.6l-1-.95a3.51,3.51,0,0,0-.92,2.06l1,.13a1.68,1.68,0,0,1,.32-.72c.26-.39-.32-.83-.64-.5Z" transform="translate(0 12.55)" style="fill:#68db42"/><ellipse cx="393.91" cy="385.5" rx="6" ry="5.5" style="fill:#176800;opacity:0.5"/><path d="M391.22,371a2.44,2.44,0,0,0-.67,1.09c-.16.53.68.92.92.39a9.77,9.77,0,0,1,1.06-1.64c.45-.63-.53-1.36-1.06-.81a9.85,9.85,0,0,0-1.48,1.8l1.36.58a2.36,2.36,0,0,1,1.17-1.46l-.61.08.14,0-.46-.36a6.27,6.27,0,0,1-1.09,1.48l.62-.08-.14,0,.48.37-.08-.13.08.62c.21-.76.66-2,1.5-2.29s.85-2-.25-1.85a3.94,3.94,0,0,0-3.18,4.63c.35,1.3,2.21.74,2-.55a2.16,2.16,0,0,1,1.39-2.36l-.64-1.54c-1.5.79-3,3.22-2.45,4.93l1.79-.75c-.66-1,.58-2.44,1.58-2.57l-.5-1.81c-1.84.76-2,2.3-2.86,3.86a1,1,0,0,0,1.58,1.22,16.42,16.42,0,0,0,2.19-3.15c.59-.89-.79-2-1.49-1.15a9.53,9.53,0,0,0-1.76,2.46,3.47,3.47,0,0,0,.21,2.8l1.54-1.55c-.5-.26-.34-1.08-.17-1.52a2.36,2.36,0,0,1,1.34-1.41l-.51-1.89c-1.39.58-2.85,1.2-3.48,2.67a3.47,3.47,0,0,0,1.09,4c1.08.83,2.53-.48,1.54-1.54a1.85,1.85,0,0,1-.42-2c.32-.77,1.13-1,1.84-1.32,1.2-.53.28-2.16-.83-2-3.24.55-4.82,4.51-2.13,6.79l1.54-1.54a1.53,1.53,0,0,1-.48-2,4.32,4.32,0,0,1,2.08-1.35c1-.43.29-2.13-.75-1.79a4.74,4.74,0,0,0-3.06,3,3.14,3.14,0,0,0,1.27,3.8,1.14,1.14,0,0,0,1.54-1.54,2.5,2.5,0,0,1,.95-2.78l-1.35-1.34a33.34,33.34,0,0,1-2.12,2.88l1.58,1.22c.42-.81.64-2.78,1.62-3.07a1,1,0,0,0-.25-1.85c-2.7.1-4.68,3.42-2.86,5.6.75.91,2-.25,1.53-1.18-.17-.37.29-1.23.46-1.55a2.65,2.65,0,0,1,1-1.18.84.84,0,0,0-.64-1.53,3.9,3.9,0,0,0-2.38,1.47,4.06,4.06,0,0,0-.56,3.06l2-.55c-.15-.59.4-2.11,1.19-2.2l-.25-1.85a3.91,3.91,0,0,0-2.57,3.26c-.09.6,0,1.31.66,1.54s1.14-.31,1.52-.81c.53-.71,1.83-2.83.33-3.27-1.29-.37-2.42,1.65-2.52,2.67a.75.75,0,0,0,1.39.37,4.84,4.84,0,0,1,1.16-1.6l-1-.95a3.51,3.51,0,0,0-.92,2.06l1,.13a1.68,1.68,0,0,1,.32-.72c.26-.39-.32-.83-.64-.5Z" transform="translate(0 12.55)" style="fill:#68db42"/><ellipse cx="483.91" cy="318.5" rx="6" ry="5.5" style="fill:#176800;opacity:0.5"/><path d="M481.22,304a2.44,2.44,0,0,0-.67,1.09c-.16.53.68.92.92.39a9.77,9.77,0,0,1,1.06-1.64c.45-.63-.53-1.36-1.06-.81a9.85,9.85,0,0,0-1.48,1.8l1.36.58a2.36,2.36,0,0,1,1.17-1.46l-.61.08.14,0-.46-.36a6.27,6.27,0,0,1-1.09,1.48l.62-.08-.14,0,.48.37-.08-.13.08.62c.21-.76.66-2,1.5-2.29s.85-2-.25-1.85a3.94,3.94,0,0,0-3.18,4.63c.35,1.3,2.21.74,2-.55a2.16,2.16,0,0,1,1.39-2.36l-.64-1.54c-1.5.79-3,3.22-2.45,4.93l1.79-.75c-.66-1,.58-2.44,1.58-2.57l-.5-1.81c-1.84.76-2,2.3-2.86,3.86a1,1,0,0,0,1.58,1.22,16.42,16.42,0,0,0,2.19-3.15c.59-.89-.79-2-1.49-1.15a9.53,9.53,0,0,0-1.76,2.46,3.47,3.47,0,0,0,.21,2.8l1.54-1.55c-.5-.26-.34-1.08-.17-1.52a2.36,2.36,0,0,1,1.34-1.41l-.51-1.89c-1.39.58-2.85,1.2-3.48,2.67a3.47,3.47,0,0,0,1.09,4c1.08.83,2.53-.48,1.54-1.54a1.85,1.85,0,0,1-.42-2c.32-.77,1.13-1,1.84-1.32,1.2-.53.28-2.16-.83-2-3.24.55-4.82,4.51-2.13,6.79l1.54-1.54a1.53,1.53,0,0,1-.48-2,4.32,4.32,0,0,1,2.08-1.35c1-.43.29-2.13-.75-1.79a4.74,4.74,0,0,0-3.06,3,3.14,3.14,0,0,0,1.27,3.8,1.14,1.14,0,0,0,1.54-1.54,2.5,2.5,0,0,1,.95-2.78l-1.35-1.34a33.34,33.34,0,0,1-2.12,2.88l1.58,1.22c.42-.81.64-2.78,1.62-3.07a1,1,0,0,0-.25-1.85c-2.7.1-4.68,3.42-2.86,5.6.75.91,2-.25,1.53-1.18-.17-.37.29-1.23.46-1.55a2.65,2.65,0,0,1,1-1.18.84.84,0,0,0-.64-1.53,3.9,3.9,0,0,0-2.38,1.47,4.06,4.06,0,0,0-.56,3.06l2-.55c-.15-.59.4-2.11,1.19-2.2l-.25-1.85a3.91,3.91,0,0,0-2.57,3.26c-.09.6,0,1.31.66,1.54s1.14-.31,1.52-.81c.53-.71,1.83-2.83.33-3.27-1.29-.37-2.42,1.65-2.52,2.67a.75.75,0,0,0,1.39.37,4.84,4.84,0,0,1,1.16-1.6l-1-.95a3.51,3.51,0,0,0-.92,2.06l1,.13a1.68,1.68,0,0,1,.32-.72c.26-.39-.32-.83-.64-.5Z" transform="translate(0 12.55)" style="fill:#68db42"/><ellipse cx="517.91" cy="361.5" rx="6" ry="5.5" style="fill:#176800;opacity:0.5"/><path d="M515.22,347a2.44,2.44,0,0,0-.67,1.09c-.16.53.68.92.92.39a9.77,9.77,0,0,1,1.06-1.64c.45-.63-.53-1.36-1.06-.81a9.85,9.85,0,0,0-1.48,1.8l1.36.58a2.36,2.36,0,0,1,1.17-1.46l-.61.08.14,0-.46-.36a6.27,6.27,0,0,1-1.09,1.48l.62-.08-.14,0,.48.37-.08-.13.08.62c.21-.76.66-2,1.5-2.29s.85-2-.25-1.85a3.94,3.94,0,0,0-3.18,4.63c.35,1.3,2.21.74,2-.55a2.16,2.16,0,0,1,1.39-2.36l-.64-1.54c-1.5.79-3,3.22-2.45,4.93l1.79-.75c-.66-1,.58-2.44,1.58-2.57l-.5-1.81c-1.84.76-2,2.3-2.86,3.86a1,1,0,0,0,1.58,1.22,16.42,16.42,0,0,0,2.19-3.15c.59-.89-.79-2-1.49-1.15a9.53,9.53,0,0,0-1.76,2.46,3.47,3.47,0,0,0,.21,2.8l1.54-1.55c-.5-.26-.34-1.08-.17-1.52a2.36,2.36,0,0,1,1.34-1.41l-.51-1.89c-1.39.58-2.85,1.2-3.48,2.67a3.47,3.47,0,0,0,1.09,4c1.08.83,2.53-.48,1.54-1.54a1.85,1.85,0,0,1-.42-2c.32-.77,1.13-1,1.84-1.32,1.2-.53.28-2.16-.83-2-3.24.55-4.82,4.51-2.13,6.79l1.54-1.54a1.53,1.53,0,0,1-.48-2,4.32,4.32,0,0,1,2.08-1.35c1-.43.29-2.13-.75-1.79a4.74,4.74,0,0,0-3.06,3,3.14,3.14,0,0,0,1.27,3.8,1.14,1.14,0,0,0,1.54-1.54,2.5,2.5,0,0,1,1-2.78l-1.35-1.34a33.34,33.34,0,0,1-2.12,2.88l1.58,1.22c.42-.81.64-2.78,1.62-3.07a1,1,0,0,0-.25-1.85c-2.7.1-4.68,3.42-2.86,5.6.75.91,2-.25,1.53-1.18-.17-.37.29-1.23.46-1.55a2.65,2.65,0,0,1,1-1.18.84.84,0,0,0-.64-1.53,3.9,3.9,0,0,0-2.38,1.47,4.06,4.06,0,0,0-.56,3.06l2-.55c-.15-.59.4-2.11,1.19-2.2l-.25-1.85a3.91,3.91,0,0,0-2.57,3.26c-.09.6,0,1.31.66,1.54s1.14-.31,1.52-.81c.53-.71,1.83-2.83.33-3.27-1.29-.37-2.42,1.65-2.52,2.67a.75.75,0,0,0,1.39.37,4.84,4.84,0,0,1,1.16-1.6l-1-.95a3.51,3.51,0,0,0-.92,2.06l1,.13a1.68,1.68,0,0,1,.32-.72c.26-.39-.32-.83-.64-.5Z" transform="translate(0 12.55)" style="fill:#68db42"/><ellipse cx="565.91" cy="362.5" rx="6" ry="5.5" style="fill:#176800;opacity:0.5"/><path d="M563.22,348a2.44,2.44,0,0,0-.67,1.09c-.16.53.68.92.92.39a9.77,9.77,0,0,1,1.06-1.64c.45-.63-.53-1.36-1.06-.81a9.85,9.85,0,0,0-1.48,1.8l1.36.58a2.36,2.36,0,0,1,1.17-1.46l-.61.08.14,0-.46-.36a6.27,6.27,0,0,1-1.09,1.48l.62-.08-.14,0,.48.37-.08-.13.08.62c.21-.76.66-2,1.5-2.29s.85-2-.25-1.85a3.94,3.94,0,0,0-3.18,4.63c.35,1.3,2.21.74,2-.55a2.16,2.16,0,0,1,1.39-2.36l-.64-1.54c-1.5.79-3,3.22-2.45,4.93l1.79-.75c-.66-1,.58-2.44,1.58-2.57l-.5-1.81c-1.84.76-2,2.3-2.86,3.86a1,1,0,0,0,1.58,1.22,16.42,16.42,0,0,0,2.19-3.15c.59-.89-.79-2-1.49-1.15a9.53,9.53,0,0,0-1.76,2.46,3.47,3.47,0,0,0,.21,2.8l1.54-1.55c-.5-.26-.34-1.08-.17-1.52a2.36,2.36,0,0,1,1.34-1.41l-.51-1.89c-1.39.58-2.85,1.2-3.48,2.67a3.47,3.47,0,0,0,1.09,4c1.08.83,2.53-.48,1.54-1.54a1.85,1.85,0,0,1-.42-2c.32-.77,1.13-1,1.84-1.32,1.2-.53.28-2.16-.83-2-3.24.55-4.82,4.51-2.13,6.79l1.54-1.54a1.53,1.53,0,0,1-.48-2,4.32,4.32,0,0,1,2.08-1.35c1-.43.29-2.13-.75-1.79a4.74,4.74,0,0,0-3.06,3,3.14,3.14,0,0,0,1.27,3.8,1.14,1.14,0,0,0,1.54-1.54,2.5,2.5,0,0,1,1-2.78l-1.35-1.34a33.34,33.34,0,0,1-2.12,2.88l1.58,1.22c.42-.81.64-2.78,1.62-3.07a1,1,0,0,0-.25-1.85c-2.7.1-4.68,3.42-2.86,5.6.75.91,2-.25,1.53-1.18-.17-.37.29-1.23.46-1.55a2.65,2.65,0,0,1,1-1.18.84.84,0,0,0-.64-1.53,3.9,3.9,0,0,0-2.38,1.47,4.06,4.06,0,0,0-.56,3.06l2-.55c-.15-.59.4-2.11,1.19-2.2l-.25-1.85a3.91,3.91,0,0,0-2.57,3.26c-.09.6,0,1.31.66,1.54s1.14-.31,1.52-.81c.53-.71,1.83-2.83.33-3.27-1.29-.37-2.42,1.65-2.52,2.67a.75.75,0,0,0,1.39.37,4.84,4.84,0,0,1,1.16-1.6l-1-.95a3.51,3.51,0,0,0-.92,2.06l1,.13a1.68,1.68,0,0,1,.32-.72c.26-.39-.32-.83-.64-.5Z" transform="translate(0 12.55)" style="fill:#68db42"/></g></g></g></svg>